<?xml version="1.0" encoding="UTF-8" ?>
<!DOCTYPE svg PUBLIC "-//W3C//DTD SVG 1.1//EN" "http://www.w3.org/Graphics/SVG/1.1/DTD/svg11.dtd">
<svg width="296pt" height="281pt" viewBox="0 0 296 281" version="1.1" xmlns="http://www.w3.org/2000/svg">
<g id="#dde348ff">
<path fill="#dde348" opacity="1.00" d=" M 99.24 39.40 C 106.55 35.61 113.93 31.52 122.15 30.15 C 122.50 31.99 122.61 33.95 121.44 35.55 C 118.75 39.96 116.27 44.49 113.80 49.02 C 103.41 65.55 94.37 82.88 84.56 99.75 C 82.11 103.68 79.70 107.64 77.54 111.75 C 68.14 128.57 57.73 144.80 48.54 161.75 C 46.54 164.72 44.74 168.85 40.92 169.64 C 38.93 167.28 39.03 163.94 38.54 161.04 C 37.49 153.07 37.21 145.01 37.74 136.98 C 38.61 127.73 41.13 118.75 43.25 109.73 C 45.55 99.08 50.70 89.32 56.23 80.04 C 67.38 63.61 81.68 48.94 99.24 39.40 Z" />
<path fill="#dde348" opacity="1.00" d=" M 197.24 30.98 C 209.46 33.07 220.76 39.00 230.60 46.39 C 238.25 51.56 245.19 57.77 250.94 65.00 C 257.51 73.63 265.04 81.84 268.82 92.20 C 271.65 100.48 275.68 108.37 277.35 117.02 C 278.73 123.98 280.71 130.86 281.36 137.95 C 281.75 149.60 281.82 161.52 278.44 172.77 C 277.31 175.07 274.76 172.36 274.09 170.89 C 263.21 149.99 251.03 129.77 239.81 109.05 C 232.76 97.57 226.61 85.57 220.00 73.83 C 213.15 62.27 207.22 50.19 200.17 38.74 C 198.60 36.41 197.70 33.73 197.24 30.98 Z" />
<path fill="#dde348" opacity="1.00" d=" M 153.87 63.63 C 160.47 60.61 168.32 64.19 171.91 70.11 C 179.34 82.54 186.10 95.35 193.27 107.93 C 195.78 111.74 198.86 115.68 197.92 120.57 C 189.76 120.44 181.53 121.13 173.43 119.90 C 173.30 116.37 173.49 112.78 172.68 109.32 C 172.22 106.71 168.05 104.73 166.58 107.58 C 164.65 111.17 165.51 115.49 165.01 119.39 C 162.78 119.37 160.56 119.13 158.39 118.64 C 160.12 115.94 162.45 113.38 162.81 110.06 C 163.68 104.74 163.42 99.32 163.45 93.95 C 163.41 90.78 163.15 86.74 159.91 85.13 C 158.13 85.20 156.14 86.12 155.92 88.10 C 154.71 94.78 156.42 101.69 155.06 108.35 C 153.38 112.26 150.03 115.13 147.03 118.04 C 143.29 121.68 137.63 120.18 132.94 120.56 C 134.06 122.39 136.74 123.98 136.22 126.39 C 135.16 129.22 131.72 128.47 129.36 128.80 C 129.40 126.08 129.53 123.35 129.72 120.63 C 126.34 120.08 121.85 121.56 119.41 118.52 C 119.16 115.25 121.18 112.38 122.84 109.73 C 130.99 98.86 136.66 86.43 143.86 74.97 C 146.57 70.75 148.66 65.28 153.87 63.63 M 170.58 87.66 C 165.99 89.72 165.68 96.22 167.76 100.20 C 170.84 103.47 176.82 103.17 178.99 98.99 C 183.49 93.83 176.64 85.51 170.58 87.66 M 138.47 104.28 C 135.52 106.33 131.81 110.54 134.81 114.05 C 137.10 118.84 145.37 118.74 146.77 113.38 C 149.32 108.61 143.46 101.67 138.47 104.28 Z" />
<path fill="#dde348" opacity="1.00" d=" M 171.30 90.76 C 174.96 88.88 179.12 94.27 176.72 97.46 C 175.57 98.97 173.50 101.09 171.49 99.75 C 167.80 98.32 166.93 91.76 171.30 90.76 Z" />
<path fill="#dde348" opacity="1.00" d=" M 80.62 123.16 C 81.43 123.24 83.05 123.40 83.86 123.49 C 83.58 125.06 84.11 127.36 81.87 127.51 C 80.82 126.29 80.78 124.68 80.62 123.16 Z" />
<path fill="#dde348" opacity="1.00" d=" M 87.76 122.53 C 89.79 122.57 91.82 122.63 93.85 122.69 C 93.84 124.24 93.83 125.79 93.83 127.35 C 91.61 127.35 89.39 127.27 87.17 127.16 C 87.36 125.62 87.55 124.07 87.76 122.53 Z" />
<path fill="#dde348" opacity="1.00" d=" M 97.78 122.64 C 99.92 122.63 102.06 122.64 104.20 122.66 C 104.21 124.23 104.23 125.81 104.24 127.38 C 102.07 127.39 99.89 127.39 97.71 127.38 C 97.73 125.80 97.75 124.22 97.78 122.64 Z" />
<path fill="#dde348" opacity="1.00" d=" M 108.62 122.64 C 110.81 122.65 113.00 122.67 115.19 122.71 C 115.24 124.25 115.28 125.80 115.32 127.35 C 113.07 127.43 110.83 127.49 108.59 127.55 C 108.50 125.91 108.68 124.27 108.62 122.64 Z" />
<path fill="#dde348" opacity="1.00" d=" M 118.80 122.74 C 120.92 122.73 123.05 122.74 125.17 122.77 C 125.21 124.17 125.25 125.57 125.29 126.97 C 124.71 127.37 123.56 128.17 122.98 128.58 C 121.56 128.07 120.15 127.54 118.73 127.04 C 118.75 125.61 118.78 124.17 118.80 122.74 Z" />
<path fill="#dde348" opacity="1.00" d=" M 160.99 123.45 C 162.20 123.40 163.42 123.34 164.63 123.29 C 164.61 125.08 164.59 126.87 164.57 128.66 C 163.39 128.60 162.20 128.56 161.02 128.51 C 160.89 126.83 160.88 125.13 160.99 123.45 Z" />
<path fill="#dde348" opacity="1.00" d=" M 173.34 123.33 C 175.12 123.32 176.90 123.31 178.69 123.31 C 178.68 125.09 178.68 126.87 178.67 128.65 C 176.89 128.65 175.12 128.64 173.35 128.64 C 173.34 126.87 173.34 125.10 173.34 123.33 Z" />
<path fill="#dde348" opacity="1.00" d=" M 181.37 126.65 C 181.23 122.42 186.61 123.22 189.43 123.44 C 189.52 125.22 189.62 127.00 189.72 128.78 C 186.81 129.13 183.09 129.69 181.37 126.65 Z" />
<path fill="#dde348" opacity="1.00" d=" M 193.75 123.83 C 195.61 123.13 197.66 123.36 199.61 123.21 C 199.63 125.05 199.65 126.90 199.67 128.75 C 197.44 128.76 195.21 128.77 192.98 128.77 C 192.75 127.07 191.81 124.89 193.75 123.83 Z" />
<path fill="#dde348" opacity="1.00" d=" M 151.06 127.33 C 151.39 124.52 153.58 123.31 156.20 123.14 C 156.27 124.25 156.41 126.46 156.48 127.57 C 154.67 127.51 152.86 127.43 151.06 127.33 Z" />
<path fill="#dde348" opacity="1.00" d=" M 203.63 128.95 C 203.71 126.81 203.53 124.15 205.99 123.27 C 207.61 123.87 209.07 124.78 210.56 125.64 C 209.98 126.74 209.41 127.84 208.84 128.94 C 207.10 128.95 205.36 128.94 203.63 128.95 Z" />
<path fill="#dde348" opacity="1.00" d=" M 214.50 129.24 C 214.81 127.35 213.86 124.61 215.86 123.44 C 217.54 123.82 219.18 124.40 220.82 124.94 C 220.80 126.22 220.79 127.50 220.78 128.78 C 218.69 128.94 216.59 129.10 214.50 129.24 Z" />
<path fill="#dde348" opacity="1.00" d=" M 224.65 125.08 C 225.27 124.62 226.50 123.71 227.12 123.25 C 228.41 123.88 229.72 124.50 230.95 125.25 C 231.18 126.47 231.36 127.70 231.47 128.94 C 229.27 128.95 227.08 128.95 224.90 128.95 C 224.81 127.66 224.73 126.37 224.65 125.08 Z" />
<path fill="#dde348" opacity="1.00" d=" M 77.12 130.70 C 79.36 130.78 81.59 131.09 83.78 131.55 C 83.56 132.37 83.11 133.99 82.88 134.80 C 80.96 134.79 79.03 134.79 77.11 134.82 C 77.12 133.44 77.12 132.07 77.12 130.70 Z" />
<path fill="#dde348" opacity="1.00" d=" M 87.51 131.40 C 89.41 130.41 91.58 130.91 93.61 131.04 C 93.68 132.38 93.75 133.71 93.81 135.04 C 91.74 135.19 89.67 135.33 87.60 135.46 C 87.51 134.11 87.27 132.74 87.51 131.40 Z" />
<path fill="#dde348" opacity="1.00" d=" M 97.35 131.44 C 99.49 130.99 101.68 130.76 103.87 130.72 C 103.89 132.21 103.92 133.70 103.95 135.20 C 101.95 135.25 99.96 135.28 97.97 135.33 C 97.81 134.36 97.50 132.41 97.35 131.44 Z" />
<path fill="#dde348" opacity="1.00" d=" M 108.43 131.16 C 110.63 130.98 112.84 130.83 115.05 130.72 C 115.10 132.24 115.14 133.77 115.17 135.31 C 112.84 135.29 110.51 135.25 108.18 135.19 C 108.27 133.84 108.35 132.50 108.43 131.16 Z" />
<path fill="#dde348" opacity="1.00" d=" M 119.19 131.12 C 121.05 131.12 122.92 131.12 124.79 131.11 C 124.83 132.48 124.88 133.85 124.93 135.22 C 122.88 135.25 120.84 135.26 118.80 135.26 C 118.93 133.88 119.06 132.50 119.19 131.12 Z" />
<path fill="#dde348" opacity="1.00" d=" M 173.34 131.34 C 175.00 131.42 176.67 131.46 178.32 131.72 C 179.74 134.40 177.27 137.31 174.40 136.64 C 172.70 135.41 173.57 133.10 173.34 131.34 Z" />
<path fill="#dde348" opacity="1.00" d=" M 180.70 134.11 C 182.44 132.73 184.27 130.71 186.74 131.37 C 188.75 131.45 190.95 134.29 188.71 135.70 C 186.15 138.02 182.89 135.79 180.70 134.11 Z" />
<path fill="#dde348" opacity="1.00" d=" M 191.63 133.99 C 193.59 131.59 196.52 131.14 199.45 131.45 C 199.47 133.16 199.48 134.88 199.50 136.60 C 196.52 136.95 193.55 136.52 191.63 133.99 Z" />
<path fill="#dde348" opacity="1.00" d=" M 203.72 132.66 C 206.17 132.01 208.52 132.93 210.69 133.99 C 208.96 135.18 207.25 136.78 205.00 136.71 C 203.62 135.67 203.19 134.33 203.72 132.66 Z" />
<path fill="#dde348" opacity="1.00" d=" M 215.06 132.46 C 217.14 132.64 219.23 132.82 221.31 133.06 C 220.45 134.64 219.85 136.76 217.86 137.24 C 216.14 137.73 215.01 135.94 213.73 135.14 C 214.06 134.47 214.73 133.13 215.06 132.46 Z" />
<path fill="#dde348" opacity="1.00" d=" M 223.93 133.78 C 226.58 132.31 229.46 132.54 232.12 133.83 C 230.73 135.21 229.57 137.95 227.18 137.31 C 225.70 136.59 224.99 134.95 223.93 133.78 Z" />
<path fill="#dde348" opacity="1.00" d=" M 234.43 133.79 C 236.92 132.49 239.61 132.71 242.15 133.77 C 240.76 135.32 239.59 138.03 237.05 137.45 C 236.06 136.32 235.26 135.03 234.43 133.79 Z" />
<path fill="#dde348" opacity="1.00" d=" M 75.88 140.95 C 77.86 138.27 80.81 138.35 83.62 139.58 C 83.53 140.56 83.34 142.52 83.25 143.49 C 80.51 143.53 77.36 143.82 75.88 140.95 Z" />
<path fill="#dde348" opacity="1.00" d=" M 86.13 140.72 C 87.11 139.97 88.12 139.27 89.15 138.60 C 90.78 138.79 92.32 139.36 93.88 139.83 C 93.86 140.66 93.80 142.32 93.77 143.15 C 91.83 143.33 89.90 143.50 87.97 143.67 C 87.51 142.94 86.59 141.46 86.13 140.72 Z" />
<path fill="#dde348" opacity="1.00" d=" M 97.46 139.52 C 99.72 138.59 102.10 139.02 104.34 139.75 C 104.23 140.64 104.02 142.43 103.91 143.32 C 101.85 143.44 99.79 143.49 97.73 143.48 C 97.66 142.49 97.53 140.51 97.46 139.52 Z" />
<path fill="#dde348" opacity="1.00" d=" M 108.38 139.21 C 110.75 139.30 113.13 139.45 115.49 139.68 C 115.20 141.02 114.91 142.36 114.61 143.70 C 112.54 143.67 110.46 143.65 108.39 143.64 C 108.38 142.16 108.37 140.69 108.38 139.21 Z" />
<path fill="#dde348" opacity="1.00" d=" M 118.13 140.10 C 118.68 139.62 119.80 138.67 120.35 138.19 C 121.25 139.37 122.33 140.40 123.20 141.59 C 121.90 142.03 120.60 142.45 119.29 142.89 C 118.91 141.96 118.52 141.03 118.13 140.10 Z" />
<path fill="#dde348" opacity="1.00" d=" M 181.28 139.50 C 184.22 139.39 187.16 139.56 190.04 140.20 C 189.56 141.91 189.56 143.93 188.21 145.26 C 186.35 145.73 183.88 146.15 182.48 144.49 C 181.16 143.19 181.58 141.16 181.28 139.50 Z" />
<path fill="#dde348" opacity="1.00" d=" M 192.30 139.56 C 194.69 139.52 197.08 139.50 199.47 139.49 C 199.53 141.57 199.58 143.66 199.63 145.74 C 197.68 145.62 195.69 145.67 193.79 145.18 C 192.05 143.84 192.53 141.45 192.30 139.56 Z" />
<path fill="#dde348" opacity="1.00" d=" M 215.52 139.58 C 217.26 139.31 219.01 139.76 220.74 139.99 C 220.71 141.92 220.69 143.85 220.66 145.78 C 218.67 145.66 216.66 145.67 214.71 145.23 C 212.61 143.85 213.03 140.23 215.52 139.58 Z" />
<path fill="#dde348" opacity="1.00" d=" M 225.70 139.69 C 227.69 139.24 229.70 139.82 231.65 140.19 C 231.56 141.94 231.49 143.68 231.41 145.43 C 229.24 145.55 227.07 145.66 224.91 145.76 C 224.86 143.73 224.32 141.43 225.70 139.69 Z" />
<path fill="#dde348" opacity="1.00" d=" M 235.20 139.20 C 237.33 139.50 239.46 139.83 241.58 140.21 C 241.59 142.04 241.60 143.87 241.62 145.70 C 239.19 145.64 236.75 145.56 234.32 145.45 C 234.57 143.36 234.85 141.27 235.20 139.20 Z" />
<path fill="#dde348" opacity="1.00" d=" M 151.80 139.57 C 153.27 139.59 154.73 139.61 156.20 139.64 C 156.28 140.61 156.43 142.57 156.51 143.55 C 154.66 143.54 152.81 143.53 150.96 143.48 C 151.24 142.18 151.52 140.87 151.80 139.57 Z" />
<path fill="#dde348" opacity="1.00" d=" M 161.89 139.67 C 163.70 139.62 165.50 139.60 167.31 139.57 C 167.37 140.47 167.48 142.27 167.54 143.17 C 166.88 143.52 165.56 144.23 164.90 144.59 C 163.60 144.10 162.29 143.62 160.99 143.13 C 161.29 141.97 161.59 140.82 161.89 139.67 Z" />
<path fill="#dde348" opacity="1.00" d=" M 170.68 140.75 C 172.70 140.09 174.79 139.11 176.96 139.61 C 178.04 140.58 178.65 141.92 179.44 143.12 C 177.68 143.68 175.96 144.44 174.10 144.56 C 172.40 143.95 171.76 142.03 170.68 140.75 Z" />
<path fill="#dde348" opacity="1.00" d=" M 204.56 144.56 C 203.04 143.18 203.10 140.53 205.05 139.58 C 207.35 138.97 209.09 140.73 210.59 142.18 C 209.02 143.60 206.61 147.33 204.56 144.56 Z" />
<path fill="#dde348" opacity="1.00" d=" M 66.65 147.59 C 68.68 147.60 70.72 147.64 72.75 147.74 C 72.73 149.05 72.72 150.36 72.71 151.67 C 70.75 151.71 68.80 151.77 66.84 151.83 C 66.77 150.42 66.71 149.00 66.65 147.59 Z" />
<path fill="#dde348" opacity="1.00" d=" M 76.42 147.74 C 78.76 147.65 81.11 147.60 83.45 147.62 C 83.20 149.08 82.93 150.54 82.66 152.00 C 79.67 152.22 76.88 151.02 76.42 147.74 Z" />
<path fill="#dde348" opacity="1.00" d=" M 86.86 147.71 C 89.16 147.68 91.46 147.71 93.75 147.80 C 93.72 149.10 93.69 150.41 93.67 151.72 C 91.49 151.73 89.32 151.76 87.14 151.80 C 87.05 150.43 86.96 149.07 86.86 147.71 Z" />
<path fill="#dde348" opacity="1.00" d=" M 97.67 147.62 C 99.75 147.66 101.84 147.71 103.92 147.79 C 103.84 149.14 103.77 150.48 103.70 151.83 C 101.79 151.92 99.88 152.02 97.97 152.12 C 97.86 150.62 97.77 149.12 97.67 147.62 Z" />
<path fill="#dde348" opacity="1.00" d=" M 108.23 147.80 C 110.55 147.72 112.87 147.69 115.20 147.69 C 115.18 149.16 115.15 150.62 115.12 152.09 C 112.84 152.03 110.55 151.95 108.27 151.90 C 108.26 150.53 108.24 149.16 108.23 147.80 Z" />
<path fill="#dde348" opacity="1.00" d=" M 140.37 148.19 C 142.33 147.99 144.28 147.77 146.24 147.61 C 146.27 149.19 146.29 150.77 146.29 152.35 C 144.19 152.28 142.08 152.21 139.98 152.13 C 140.12 150.82 140.25 149.50 140.37 148.19 Z" />
<path fill="#dde348" opacity="1.00" d=" M 150.29 148.12 C 152.27 147.97 154.24 147.83 156.23 147.71 C 156.27 149.28 156.30 150.85 156.33 152.43 C 154.30 152.31 152.27 152.18 150.25 152.04 C 150.26 150.73 150.28 149.42 150.29 148.12 Z" />
<path fill="#dde348" opacity="1.00" d=" M 159.99 151.21 C 161.64 148.99 163.98 147.59 166.78 147.56 C 167.24 148.84 167.71 150.12 168.18 151.40 C 165.55 152.86 162.63 152.41 159.99 151.21 Z" />
<path fill="#dde348" opacity="1.00" d=" M 171.31 148.18 C 173.75 148.21 176.19 148.24 178.64 148.27 C 178.65 149.53 178.66 150.79 178.68 152.05 C 176.21 152.25 173.74 152.29 171.27 152.17 C 171.28 150.84 171.29 149.51 171.31 148.18 Z" />
<path fill="#dde348" opacity="1.00" d=" M 181.51 148.43 C 184.34 148.29 187.19 148.27 190.03 148.36 C 189.46 150.14 189.46 152.55 187.47 153.43 C 185.26 154.11 183.25 152.69 181.31 151.85 C 181.38 150.71 181.44 149.57 181.51 148.43 Z" />
<path fill="#dde348" opacity="1.00" d=" M 191.99 148.36 C 194.67 148.31 197.35 148.31 200.04 148.37 C 199.61 150.60 198.99 153.95 196.00 153.69 C 192.80 154.25 192.34 150.64 191.99 148.36 Z" />
<path fill="#dde348" opacity="1.00" d=" M 202.25 148.55 C 204.74 148.40 207.22 148.31 209.71 148.26 C 209.61 150.03 209.50 151.80 209.39 153.58 C 207.54 153.50 205.58 153.82 203.82 153.14 C 202.33 152.10 202.64 150.10 202.25 148.55 Z" />
<path fill="#dde348" opacity="1.00" d=" M 211.70 151.01 C 213.82 148.06 217.40 148.14 220.67 148.28 C 220.66 150.08 220.65 151.89 220.64 153.70 C 217.40 153.82 213.90 153.80 211.70 151.01 Z" />
<path fill="#dde348" opacity="1.00" d=" M 225.07 148.31 C 227.06 148.33 229.06 148.36 231.06 148.39 C 231.18 150.12 231.18 151.86 231.08 153.60 C 229.08 153.61 227.09 153.63 225.10 153.64 C 225.08 151.86 225.07 150.09 225.07 148.31 Z" />
<path fill="#dde348" opacity="1.00" d=" M 233.59 151.04 C 234.96 150.05 236.05 148.13 237.98 148.34 C 239.41 148.55 240.63 149.41 241.93 150.00 C 241.47 151.26 241.01 152.52 240.55 153.79 C 237.89 153.85 235.44 152.99 233.59 151.04 Z" />
<path fill="#dde348" opacity="1.00" d=" M 245.40 152.57 C 244.67 147.90 249.96 149.55 252.28 151.07 C 250.11 152.05 247.78 152.55 245.40 152.57 Z" />
<path fill="#dde348" opacity="1.00" d=" M 96.23 157.28 C 97.01 156.00 98.61 155.85 99.95 155.69 C 104.93 155.22 109.94 155.55 114.91 155.99 C 115.08 163.13 116.18 170.54 114.48 177.53 C 110.89 182.20 105.95 185.63 101.95 189.94 C 98.57 193.72 92.63 196.52 93.31 202.43 C 95.36 202.49 97.69 203.08 99.42 201.60 C 104.86 197.75 109.94 193.39 114.54 188.57 C 115.94 187.25 117.25 185.64 119.12 184.98 C 123.55 184.15 128.10 185.18 132.53 184.40 C 135.00 182.91 135.00 179.61 135.30 177.07 C 135.46 170.13 135.17 163.18 135.41 156.23 C 145.24 155.06 155.14 156.01 165.01 155.73 C 174.01 155.42 183.01 156.54 192.01 155.86 C 199.35 156.17 206.70 156.48 214.06 156.33 C 216.85 156.50 220.47 156.02 222.25 158.70 C 224.39 161.81 225.72 165.36 227.51 168.67 C 232.00 177.08 237.38 184.99 241.75 193.47 C 246.72 202.66 252.31 211.52 256.69 221.02 C 251.84 227.33 247.68 234.32 241.52 239.49 C 233.13 247.05 223.75 253.56 213.51 258.36 C 199.40 264.32 184.53 269.48 169.04 269.52 C 158.53 269.44 147.89 270.19 137.52 268.04 C 122.90 265.56 108.95 259.75 96.61 251.58 C 86.85 245.60 77.96 238.25 70.26 229.80 C 66.85 225.97 62.48 222.31 61.52 217.02 C 62.22 214.52 63.62 212.31 64.97 210.13 C 73.68 196.66 81.38 182.58 89.75 168.90 C 92.12 165.14 93.63 160.89 96.23 157.28 M 165.74 164.79 C 163.86 168.25 166.71 171.57 168.56 174.31 C 168.19 176.02 167.82 177.72 167.46 179.44 C 168.95 179.01 170.66 179.01 171.93 178.05 C 174.81 173.35 176.19 167.64 174.82 162.21 C 171.72 162.42 167.22 161.07 165.74 164.79 M 178.81 162.44 C 179.30 165.07 181.34 166.76 183.42 168.21 C 182.15 171.86 181.14 175.62 181.01 179.51 C 182.25 178.99 184.06 179.09 184.73 177.69 C 187.31 172.90 188.83 167.60 190.04 162.31 C 186.31 161.80 182.53 161.83 178.81 162.44 M 191.56 175.90 C 192.80 180.67 200.89 180.53 202.02 175.75 C 203.04 172.54 199.84 170.14 198.24 167.75 C 198.91 166.06 199.57 164.36 200.25 162.66 C 199.17 162.28 198.10 161.90 197.02 161.53 C 194.53 165.95 190.92 170.54 191.56 175.90 M 157.49 165.02 C 158.12 169.67 158.28 174.36 159.08 178.98 C 162.05 174.33 160.26 168.46 160.34 163.28 C 159.62 163.71 158.20 164.59 157.49 165.02 M 110.65 208.29 C 110.35 215.16 110.41 222.04 110.55 228.91 C 113.72 229.13 116.15 227.32 118.06 224.98 C 120.07 226.19 122.07 227.45 124.24 228.38 C 124.53 228.07 125.10 227.45 125.39 227.14 C 124.18 224.00 121.89 221.29 121.24 217.95 C 121.53 215.02 124.06 212.66 123.93 209.71 C 121.69 209.48 119.81 211.04 117.86 211.88 C 116.13 209.52 113.63 208.10 110.65 208.29 M 80.29 212.43 C 78.24 217.66 76.54 223.03 74.11 228.11 C 75.23 228.29 76.34 228.48 77.48 228.55 C 79.00 227.00 80.12 225.11 81.64 223.56 C 85.55 223.04 88.15 227.03 91.37 228.61 C 91.59 226.76 91.94 224.84 91.28 223.04 C 89.64 218.04 87.60 213.16 85.06 208.55 C 83.19 209.46 80.89 210.16 80.29 212.43 M 95.35 213.69 C 94.64 217.89 99.10 220.33 101.10 223.47 C 98.88 224.50 96.70 225.64 94.70 227.07 C 98.90 230.63 107.46 228.25 106.61 221.98 C 106.96 218.32 103.18 216.84 100.70 215.13 C 100.52 214.32 100.33 213.52 100.15 212.72 C 102.25 212.39 104.35 212.02 106.45 211.62 C 103.63 208.14 95.54 208.31 95.35 213.69 M 130.83 209.65 C 130.52 215.97 130.28 222.34 131.39 228.61 C 132.80 228.60 134.21 228.60 135.62 228.59 C 136.81 222.39 136.52 216.05 135.86 209.80 C 134.18 209.81 132.51 209.60 130.83 209.65 M 142.31 209.61 C 142.33 215.96 142.18 222.32 142.40 228.68 C 143.47 228.68 144.53 228.69 145.60 228.70 C 145.89 226.17 146.18 223.64 146.45 221.11 C 149.65 222.33 153.04 222.43 156.25 221.17 C 156.36 223.67 156.44 226.18 156.52 228.69 C 158.51 228.66 160.49 228.65 162.48 228.64 C 162.41 222.50 162.39 216.36 162.48 210.22 C 160.83 210.26 159.17 210.30 157.53 210.35 C 156.19 212.08 154.98 213.94 153.36 215.41 C 149.69 216.35 149.18 210.53 145.90 209.96 C 144.71 209.78 143.51 209.66 142.31 209.61 M 172.54 209.47 C 172.77 216.17 175.78 222.28 177.63 228.62 C 179.30 228.66 180.97 228.71 182.64 228.75 C 184.78 223.30 187.46 217.93 188.32 212.09 C 188.01 211.35 187.39 209.88 187.08 209.14 C 184.87 211.78 183.80 215.08 183.03 218.38 C 181.94 218.45 180.85 218.55 179.77 218.64 C 178.87 215.85 178.11 212.96 176.61 210.42 C 175.29 209.97 173.93 209.65 172.54 209.47 M 196.26 210.04 C 196.19 216.26 196.21 222.48 196.34 228.70 C 199.98 228.67 203.74 229.18 207.30 228.22 C 208.87 227.11 210.40 225.24 209.83 223.18 C 208.96 219.05 208.45 214.86 208.54 210.64 C 204.49 209.81 200.36 209.47 196.26 210.04 M 220.91 210.95 C 220.58 216.92 220.45 222.92 221.20 228.87 C 221.87 228.96 223.20 229.14 223.87 229.24 C 225.05 227.51 226.26 225.79 227.55 224.14 C 229.76 226.22 231.74 229.86 235.28 229.23 C 235.90 225.07 231.95 222.07 231.49 218.12 C 232.44 215.33 234.19 212.90 235.49 210.27 C 231.90 209.99 229.73 213.38 226.86 214.96 C 225.88 213.33 224.90 211.71 223.93 210.08 C 222.92 210.37 221.92 210.66 220.91 210.95 M 187.57 224.85 C 187.71 226.15 187.85 227.45 187.99 228.75 C 189.28 228.73 190.57 228.71 191.86 228.69 C 191.68 227.23 191.51 225.76 191.33 224.31 C 190.39 224.44 188.51 224.71 187.57 224.85 M 212.05 224.84 C 212.38 226.15 212.71 227.47 213.06 228.78 C 214.28 228.78 215.50 228.79 216.73 228.81 C 216.74 227.48 216.75 226.16 216.77 224.84 C 215.19 224.82 213.62 224.82 212.05 224.84 M 240.23 224.73 C 240.23 226.08 240.23 227.43 240.23 228.79 C 241.62 228.80 243.01 228.81 244.40 228.82 C 244.77 226.12 243.08 223.95 240.23 224.73 Z" />
<path fill="#dde348" opacity="1.00" d=" M 123.68 157.58 C 124.56 156.24 126.44 156.87 126.67 158.34 C 127.96 163.71 127.32 169.32 126.81 174.76 C 125.61 174.77 124.41 174.78 123.21 174.80 C 122.76 169.08 122.23 163.20 123.68 157.58 Z" />
</g>
<g id="#0a090aff">
<path fill="#0a090a" opacity="1.00" d=" M 140.40 19.62 C 148.88 18.51 157.47 18.47 166.01 18.68 C 172.37 18.94 178.60 20.38 184.91 21.08 C 194.31 22.72 203.23 26.28 212.08 29.74 C 219.26 32.40 225.65 36.72 231.91 41.05 C 253.92 56.50 271.39 78.87 279.68 104.57 C 281.26 108.81 282.82 113.07 283.81 117.50 C 285.49 124.09 285.61 130.94 286.84 137.61 C 288.06 144.08 287.77 150.72 286.81 157.20 C 285.73 166.74 284.99 176.44 281.65 185.53 C 279.72 190.61 278.11 195.83 275.85 200.78 C 271.50 209.50 267.32 218.46 260.89 225.90 C 244.14 247.71 220.10 264.02 193.35 270.64 C 177.36 276.03 160.17 275.65 143.57 274.31 C 130.13 272.09 116.91 268.22 104.56 262.45 C 96.54 258.94 89.54 253.60 82.30 248.77 C 66.40 236.10 53.08 220.08 44.17 201.77 C 34.77 178.97 28.42 153.81 32.95 129.12 C 34.87 119.45 36.37 109.58 40.41 100.51 C 45.99 85.34 54.78 71.54 65.53 59.54 C 77.64 47.14 91.51 36.17 107.60 29.45 C 118.01 24.64 129.08 21.39 140.40 19.62 M 99.24 39.40 C 81.68 48.94 67.38 63.61 56.23 80.04 C 50.70 89.32 45.55 99.08 43.25 109.73 C 41.13 118.75 38.61 127.73 37.74 136.98 C 37.21 145.01 37.49 153.07 38.54 161.04 C 39.03 163.94 38.93 167.28 40.92 169.64 C 44.74 168.85 46.54 164.72 48.54 161.75 C 57.73 144.80 68.14 128.57 77.54 111.75 C 79.70 107.64 82.11 103.68 84.56 99.75 C 94.37 82.88 103.41 65.55 113.80 49.02 C 116.27 44.49 118.75 39.96 121.44 35.55 C 122.61 33.95 122.50 31.99 122.15 30.15 C 113.93 31.52 106.55 35.61 99.24 39.40 M 197.24 30.98 C 197.70 33.73 198.60 36.41 200.17 38.74 C 207.22 50.19 213.15 62.27 220.00 73.83 C 226.61 85.57 232.76 97.57 239.81 109.05 C 251.03 129.77 263.21 149.99 274.09 170.89 C 274.76 172.36 277.31 175.07 278.44 172.77 C 281.82 161.52 281.75 149.60 281.36 137.95 C 280.71 130.86 278.73 123.98 277.35 117.02 C 275.68 108.37 271.65 100.48 268.82 92.20 C 265.04 81.84 257.51 73.63 250.94 65.00 C 245.19 57.77 238.25 51.56 230.60 46.39 C 220.76 39.00 209.46 33.07 197.24 30.98 M 153.87 63.63 C 148.66 65.28 146.57 70.75 143.86 74.97 C 136.66 86.43 130.99 98.86 122.84 109.73 C 121.18 112.38 119.16 115.25 119.41 118.52 C 121.85 121.56 126.34 120.08 129.72 120.63 C 129.53 123.35 129.40 126.08 129.36 128.80 C 131.72 128.47 135.16 129.22 136.22 126.39 C 136.74 123.98 134.06 122.39 132.94 120.56 C 137.63 120.18 143.29 121.68 147.03 118.04 C 150.03 115.13 153.38 112.26 155.06 108.35 C 156.42 101.69 154.71 94.78 155.92 88.10 C 156.14 86.12 158.13 85.20 159.91 85.13 C 163.15 86.74 163.41 90.78 163.45 93.95 C 163.42 99.32 163.68 104.74 162.81 110.06 C 162.45 113.38 160.12 115.94 158.39 118.64 C 160.56 119.13 162.78 119.37 165.01 119.39 C 165.51 115.49 164.65 111.17 166.58 107.58 C 168.05 104.73 172.22 106.71 172.68 109.32 C 173.49 112.78 173.30 116.37 173.43 119.90 C 181.53 121.13 189.76 120.44 197.92 120.57 C 198.86 115.68 195.78 111.74 193.27 107.93 C 186.10 95.35 179.34 82.54 171.91 70.11 C 168.32 64.19 160.47 60.61 153.87 63.63 M 80.62 123.16 C 80.78 124.68 80.82 126.29 81.87 127.51 C 84.11 127.36 83.58 125.06 83.86 123.49 C 83.05 123.40 81.43 123.24 80.62 123.16 M 87.76 122.53 C 87.55 124.07 87.36 125.62 87.17 127.16 C 89.39 127.27 91.61 127.35 93.83 127.35 C 93.83 125.79 93.84 124.24 93.85 122.69 C 91.82 122.63 89.79 122.57 87.76 122.53 M 97.78 122.64 C 97.75 124.22 97.73 125.80 97.71 127.38 C 99.89 127.39 102.07 127.39 104.24 127.38 C 104.23 125.81 104.21 124.23 104.20 122.66 C 102.06 122.64 99.92 122.63 97.78 122.64 M 108.62 122.64 C 108.68 124.27 108.50 125.91 108.59 127.55 C 110.83 127.49 113.07 127.43 115.32 127.35 C 115.28 125.80 115.24 124.25 115.19 122.71 C 113.00 122.67 110.81 122.65 108.62 122.64 M 118.80 122.74 C 118.78 124.17 118.75 125.61 118.73 127.04 C 120.15 127.54 121.56 128.07 122.98 128.58 C 123.56 128.17 124.71 127.37 125.29 126.97 C 125.25 125.57 125.21 124.17 125.17 122.77 C 123.05 122.74 120.92 122.73 118.80 122.74 M 160.99 123.45 C 160.88 125.13 160.89 126.83 161.02 128.51 C 162.20 128.56 163.39 128.60 164.57 128.66 C 164.59 126.87 164.61 125.08 164.63 123.29 C 163.42 123.34 162.20 123.40 160.99 123.45 M 173.34 123.33 C 173.34 125.10 173.34 126.87 173.35 128.64 C 175.12 128.64 176.89 128.65 178.67 128.65 C 178.68 126.87 178.68 125.09 178.69 123.31 C 176.90 123.31 175.12 123.32 173.34 123.33 M 181.37 126.65 C 183.09 129.69 186.81 129.13 189.72 128.78 C 189.62 127.00 189.52 125.22 189.43 123.44 C 186.61 123.22 181.23 122.42 181.37 126.65 M 193.75 123.83 C 191.81 124.89 192.75 127.07 192.98 128.77 C 195.21 128.77 197.44 128.76 199.67 128.75 C 199.65 126.90 199.63 125.05 199.61 123.21 C 197.66 123.36 195.61 123.13 193.75 123.83 M 151.06 127.33 C 152.86 127.43 154.67 127.51 156.48 127.57 C 156.41 126.46 156.27 124.25 156.20 123.14 C 153.58 123.31 151.39 124.52 151.06 127.33 M 203.63 128.95 C 205.36 128.94 207.10 128.95 208.84 128.94 C 209.41 127.84 209.98 126.74 210.56 125.64 C 209.07 124.78 207.61 123.87 205.99 123.27 C 203.53 124.15 203.71 126.81 203.63 128.95 M 214.50 129.24 C 216.59 129.10 218.69 128.94 220.78 128.78 C 220.79 127.50 220.80 126.22 220.82 124.94 C 219.18 124.40 217.54 123.82 215.86 123.44 C 213.86 124.61 214.81 127.35 214.50 129.24 M 224.65 125.08 C 224.73 126.37 224.81 127.66 224.90 128.95 C 227.08 128.95 229.27 128.95 231.47 128.94 C 231.36 127.70 231.18 126.47 230.95 125.25 C 229.72 124.50 228.41 123.88 227.12 123.25 C 226.50 123.71 225.27 124.62 224.65 125.08 M 77.12 130.70 C 77.12 132.07 77.12 133.44 77.11 134.82 C 79.03 134.79 80.96 134.79 82.88 134.80 C 83.11 133.99 83.56 132.37 83.78 131.55 C 81.59 131.09 79.36 130.78 77.12 130.70 M 87.51 131.40 C 87.27 132.74 87.51 134.11 87.60 135.46 C 89.67 135.33 91.74 135.19 93.81 135.04 C 93.75 133.71 93.68 132.38 93.61 131.04 C 91.58 130.91 89.41 130.41 87.51 131.40 M 97.35 131.44 C 97.50 132.41 97.81 134.36 97.97 135.33 C 99.96 135.28 101.95 135.25 103.95 135.20 C 103.92 133.70 103.89 132.21 103.87 130.72 C 101.68 130.76 99.49 130.99 97.35 131.44 M 108.43 131.16 C 108.35 132.50 108.27 133.84 108.18 135.19 C 110.51 135.25 112.84 135.29 115.17 135.31 C 115.14 133.77 115.10 132.24 115.05 130.72 C 112.84 130.83 110.63 130.98 108.43 131.16 M 119.19 131.12 C 119.06 132.50 118.93 133.88 118.80 135.26 C 120.84 135.26 122.88 135.25 124.93 135.22 C 124.88 133.85 124.83 132.48 124.79 131.11 C 122.92 131.12 121.05 131.12 119.19 131.12 M 173.34 131.34 C 173.57 133.10 172.70 135.41 174.40 136.64 C 177.27 137.31 179.74 134.40 178.32 131.72 C 176.67 131.46 175.00 131.42 173.34 131.34 M 180.70 134.11 C 182.89 135.79 186.15 138.02 188.71 135.70 C 190.95 134.29 188.75 131.45 186.74 131.37 C 184.27 130.71 182.44 132.73 180.70 134.11 M 191.63 133.99 C 193.55 136.52 196.52 136.95 199.50 136.60 C 199.48 134.88 199.47 133.16 199.45 131.45 C 196.52 131.14 193.59 131.59 191.63 133.99 M 203.72 132.66 C 203.19 134.33 203.62 135.67 205.00 136.71 C 207.25 136.78 208.96 135.18 210.69 133.99 C 208.52 132.93 206.17 132.01 203.72 132.66 M 215.06 132.46 C 214.73 133.13 214.06 134.47 213.73 135.14 C 215.01 135.94 216.14 137.73 217.86 137.24 C 219.85 136.76 220.45 134.64 221.31 133.06 C 219.23 132.82 217.14 132.64 215.06 132.46 M 223.93 133.78 C 224.99 134.95 225.70 136.59 227.18 137.31 C 229.57 137.95 230.73 135.21 232.12 133.83 C 229.46 132.54 226.58 132.31 223.93 133.78 M 234.43 133.79 C 235.26 135.03 236.06 136.32 237.05 137.45 C 239.59 138.03 240.76 135.32 242.15 133.77 C 239.61 132.71 236.92 132.49 234.43 133.79 M 75.88 140.95 C 77.36 143.82 80.51 143.53 83.25 143.49 C 83.34 142.52 83.53 140.56 83.62 139.58 C 80.81 138.35 77.86 138.27 75.88 140.95 M 86.13 140.72 C 86.59 141.46 87.51 142.94 87.97 143.67 C 89.90 143.50 91.83 143.33 93.77 143.15 C 93.80 142.32 93.86 140.66 93.88 139.83 C 92.32 139.36 90.78 138.79 89.15 138.60 C 88.12 139.27 87.11 139.97 86.13 140.72 M 97.46 139.52 C 97.53 140.51 97.66 142.49 97.73 143.48 C 99.79 143.49 101.85 143.44 103.91 143.32 C 104.02 142.43 104.23 140.64 104.34 139.75 C 102.10 139.02 99.72 138.59 97.46 139.52 M 108.38 139.21 C 108.37 140.69 108.38 142.16 108.39 143.64 C 110.46 143.65 112.54 143.67 114.61 143.70 C 114.91 142.36 115.20 141.02 115.49 139.68 C 113.13 139.45 110.75 139.30 108.38 139.21 M 118.13 140.10 C 118.52 141.03 118.91 141.96 119.29 142.89 C 120.60 142.45 121.90 142.03 123.20 141.59 C 122.33 140.40 121.25 139.37 120.35 138.19 C 119.80 138.67 118.68 139.62 118.13 140.10 M 181.28 139.50 C 181.58 141.16 181.16 143.19 182.48 144.49 C 183.88 146.15 186.35 145.73 188.21 145.26 C 189.56 143.93 189.56 141.91 190.04 140.20 C 187.16 139.56 184.22 139.39 181.28 139.50 M 192.30 139.56 C 192.53 141.45 192.05 143.84 193.79 145.18 C 195.69 145.67 197.68 145.62 199.63 145.74 C 199.58 143.66 199.53 141.57 199.47 139.49 C 197.08 139.50 194.69 139.52 192.30 139.56 M 215.52 139.58 C 213.03 140.23 212.61 143.85 214.71 145.23 C 216.66 145.67 218.67 145.66 220.66 145.78 C 220.69 143.85 220.71 141.92 220.74 139.99 C 219.01 139.76 217.26 139.31 215.52 139.58 M 225.70 139.69 C 224.32 141.43 224.86 143.73 224.91 145.76 C 227.07 145.66 229.24 145.55 231.41 145.43 C 231.49 143.68 231.56 141.94 231.65 140.19 C 229.70 139.82 227.69 139.24 225.70 139.69 M 235.20 139.20 C 234.85 141.27 234.57 143.36 234.32 145.45 C 236.75 145.56 239.19 145.64 241.62 145.70 C 241.60 143.87 241.59 142.04 241.58 140.21 C 239.46 139.83 237.33 139.50 235.20 139.20 M 151.80 139.57 C 151.52 140.87 151.24 142.18 150.96 143.48 C 152.81 143.53 154.66 143.54 156.51 143.55 C 156.43 142.57 156.28 140.61 156.20 139.64 C 154.73 139.61 153.27 139.59 151.80 139.57 M 161.89 139.67 C 161.59 140.82 161.29 141.97 160.99 143.13 C 162.29 143.62 163.60 144.10 164.90 144.59 C 165.56 144.23 166.88 143.52 167.54 143.17 C 167.48 142.27 167.37 140.47 167.31 139.57 C 165.50 139.60 163.70 139.62 161.89 139.67 M 170.68 140.75 C 171.76 142.03 172.40 143.95 174.10 144.56 C 175.96 144.44 177.68 143.68 179.44 143.12 C 178.65 141.92 178.04 140.58 176.96 139.61 C 174.79 139.11 172.70 140.09 170.68 140.75 M 204.56 144.56 C 206.61 147.33 209.02 143.60 210.59 142.18 C 209.09 140.73 207.35 138.97 205.05 139.58 C 203.10 140.53 203.04 143.18 204.56 144.56 M 66.65 147.59 C 66.71 149.00 66.77 150.42 66.84 151.83 C 68.80 151.77 70.75 151.71 72.71 151.67 C 72.72 150.36 72.73 149.05 72.75 147.74 C 70.72 147.64 68.68 147.60 66.65 147.59 M 76.42 147.74 C 76.88 151.02 79.67 152.22 82.66 152.00 C 82.93 150.54 83.20 149.08 83.45 147.62 C 81.11 147.60 78.76 147.65 76.42 147.74 M 86.86 147.71 C 86.96 149.07 87.05 150.43 87.14 151.80 C 89.32 151.76 91.49 151.73 93.67 151.72 C 93.69 150.41 93.72 149.10 93.75 147.80 C 91.46 147.71 89.16 147.68 86.86 147.71 M 97.67 147.62 C 97.77 149.12 97.86 150.62 97.97 152.12 C 99.88 152.02 101.79 151.92 103.70 151.83 C 103.77 150.48 103.84 149.14 103.92 147.79 C 101.84 147.71 99.75 147.66 97.67 147.62 M 108.23 147.80 C 108.24 149.16 108.26 150.53 108.27 151.90 C 110.55 151.95 112.84 152.03 115.12 152.09 C 115.15 150.62 115.18 149.16 115.20 147.69 C 112.87 147.69 110.55 147.72 108.23 147.80 M 140.37 148.19 C 140.25 149.50 140.12 150.82 139.98 152.13 C 142.08 152.21 144.19 152.28 146.29 152.35 C 146.29 150.77 146.27 149.19 146.24 147.61 C 144.28 147.77 142.33 147.99 140.37 148.19 M 150.29 148.12 C 150.28 149.42 150.26 150.73 150.25 152.04 C 152.27 152.18 154.30 152.31 156.33 152.43 C 156.30 150.85 156.27 149.28 156.23 147.71 C 154.24 147.83 152.27 147.97 150.29 148.12 M 159.99 151.21 C 162.63 152.41 165.55 152.86 168.18 151.40 C 167.71 150.12 167.24 148.84 166.78 147.56 C 163.98 147.59 161.64 148.99 159.99 151.21 M 171.31 148.18 C 171.29 149.51 171.28 150.84 171.27 152.17 C 173.74 152.29 176.21 152.25 178.68 152.05 C 178.66 150.79 178.65 149.53 178.64 148.27 C 176.19 148.24 173.75 148.21 171.31 148.18 M 181.51 148.43 C 181.44 149.57 181.38 150.71 181.31 151.85 C 183.25 152.69 185.26 154.11 187.47 153.43 C 189.46 152.55 189.46 150.14 190.03 148.36 C 187.19 148.27 184.34 148.29 181.51 148.43 M 191.99 148.36 C 192.34 150.64 192.80 154.25 196.00 153.69 C 198.99 153.95 199.61 150.60 200.04 148.37 C 197.35 148.31 194.67 148.31 191.99 148.36 M 202.25 148.55 C 202.64 150.10 202.33 152.10 203.82 153.14 C 205.58 153.82 207.54 153.50 209.39 153.58 C 209.50 151.80 209.61 150.03 209.71 148.26 C 207.22 148.31 204.74 148.40 202.25 148.55 M 211.70 151.01 C 213.90 153.80 217.40 153.82 220.64 153.70 C 220.65 151.89 220.66 150.08 220.67 148.28 C 217.40 148.14 213.82 148.06 211.70 151.01 M 225.07 148.31 C 225.07 150.09 225.08 151.86 225.10 153.64 C 227.09 153.63 229.08 153.61 231.08 153.60 C 231.18 151.86 231.18 150.12 231.06 148.39 C 229.06 148.36 227.06 148.33 225.07 148.31 M 233.59 151.04 C 235.44 152.99 237.89 153.85 240.55 153.79 C 241.01 152.52 241.47 151.26 241.93 150.00 C 240.63 149.41 239.41 148.55 237.98 148.34 C 236.05 148.13 234.96 150.05 233.59 151.04 M 245.40 152.57 C 247.78 152.55 250.11 152.05 252.28 151.07 C 249.96 149.55 244.67 147.90 245.40 152.57 M 96.23 157.28 C 93.63 160.89 92.12 165.14 89.75 168.90 C 81.38 182.58 73.68 196.66 64.97 210.13 C 63.62 212.31 62.22 214.52 61.52 217.02 C 62.48 222.31 66.85 225.97 70.26 229.80 C 77.96 238.25 86.85 245.60 96.61 251.58 C 108.95 259.75 122.90 265.56 137.52 268.04 C 147.89 270.19 158.53 269.44 169.04 269.52 C 184.53 269.48 199.40 264.32 213.51 258.36 C 223.75 253.56 233.13 247.05 241.52 239.49 C 247.68 234.32 251.84 227.33 256.69 221.02 C 252.31 211.52 246.72 202.66 241.75 193.47 C 237.38 184.99 232.00 177.08 227.51 168.67 C 225.72 165.36 224.39 161.81 222.25 158.70 C 220.47 156.02 216.85 156.50 214.06 156.33 C 206.70 156.48 199.35 156.17 192.01 155.86 C 183.01 156.54 174.01 155.42 165.01 155.73 C 155.14 156.01 145.24 155.06 135.41 156.23 C 135.17 163.18 135.46 170.13 135.30 177.07 C 135.00 179.61 135.00 182.91 132.53 184.40 C 128.10 185.18 123.55 184.15 119.12 184.98 C 117.25 185.64 115.94 187.25 114.54 188.57 C 109.94 193.39 104.86 197.75 99.42 201.60 C 97.69 203.08 95.36 202.49 93.31 202.43 C 92.63 196.52 98.57 193.72 101.95 189.94 C 105.95 185.63 110.89 182.20 114.48 177.53 C 116.18 170.54 115.08 163.13 114.91 155.99 C 109.94 155.55 104.93 155.22 99.95 155.69 C 98.61 155.85 97.01 156.00 96.23 157.28 M 123.68 157.58 C 122.23 163.20 122.76 169.08 123.21 174.80 C 124.41 174.78 125.61 174.77 126.81 174.76 C 127.32 169.32 127.96 163.71 126.67 158.34 C 126.44 156.87 124.56 156.24 123.68 157.58 Z" />
<path fill="#0a090a" opacity="1.00" d=" M 170.58 87.66 C 176.64 85.51 183.49 93.83 178.99 98.99 C 176.82 103.17 170.84 103.47 167.76 100.20 C 165.68 96.22 165.99 89.72 170.58 87.66 M 171.30 90.76 C 166.93 91.76 167.80 98.32 171.49 99.75 C 173.50 101.09 175.57 98.97 176.72 97.46 C 179.12 94.27 174.96 88.88 171.30 90.76 Z" />
<path fill="#0a090a" opacity="1.00" d=" M 138.47 104.28 C 143.46 101.67 149.32 108.61 146.77 113.38 C 145.37 118.74 137.10 118.84 134.81 114.05 C 131.81 110.54 135.52 106.33 138.47 104.28 Z" />
<path fill="#0a090a" opacity="1.00" d=" M 165.74 164.79 C 167.22 161.07 171.72 162.42 174.82 162.21 C 176.19 167.64 174.81 173.35 171.93 178.05 C 170.66 179.01 168.95 179.01 167.46 179.44 C 167.82 177.72 168.19 176.02 168.56 174.31 C 166.71 171.57 163.86 168.25 165.74 164.79 Z" />
<path fill="#0a090a" opacity="1.00" d=" M 178.81 162.44 C 182.53 161.83 186.31 161.80 190.04 162.31 C 188.83 167.60 187.31 172.90 184.73 177.69 C 184.06 179.09 182.25 178.99 181.01 179.51 C 181.14 175.62 182.15 171.86 183.42 168.21 C 181.34 166.76 179.30 165.07 178.81 162.44 Z" />
<path fill="#0a090a" opacity="1.00" d=" M 191.56 175.90 C 190.92 170.54 194.53 165.95 197.02 161.53 C 198.10 161.90 199.17 162.28 200.25 162.66 C 199.57 164.36 198.91 166.06 198.24 167.75 C 199.84 170.14 203.04 172.54 202.02 175.75 C 200.89 180.53 192.80 180.67 191.56 175.90 Z" />
<path fill="#0a090a" opacity="1.00" d=" M 157.49 165.02 C 158.20 164.59 159.62 163.71 160.34 163.28 C 160.26 168.46 162.05 174.33 159.08 178.98 C 158.28 174.36 158.12 169.67 157.49 165.02 Z" />
<path fill="#0a090a" opacity="1.00" d=" M 110.65 208.29 C 113.63 208.10 116.13 209.52 117.86 211.88 C 119.81 211.04 121.69 209.48 123.93 209.71 C 124.06 212.66 121.53 215.02 121.24 217.95 C 121.89 221.29 124.18 224.00 125.39 227.14 C 125.10 227.45 124.53 228.07 124.24 228.38 C 122.07 227.45 120.07 226.19 118.06 224.98 C 116.15 227.32 113.72 229.13 110.55 228.91 C 110.41 222.04 110.35 215.16 110.65 208.29 Z" />
<path fill="#0a090a" opacity="1.00" d=" M 80.29 212.43 C 80.89 210.16 83.19 209.46 85.06 208.55 C 87.60 213.16 89.64 218.04 91.28 223.04 C 91.94 224.84 91.59 226.76 91.37 228.61 C 88.15 227.03 85.55 223.04 81.64 223.56 C 80.12 225.11 79.00 227.00 77.48 228.55 C 76.34 228.48 75.23 228.29 74.11 228.11 C 76.54 223.03 78.24 217.66 80.29 212.43 Z" />
<path fill="#0a090a" opacity="1.00" d=" M 95.35 213.69 C 95.54 208.31 103.63 208.14 106.45 211.62 C 104.35 212.02 102.25 212.39 100.15 212.72 C 100.33 213.52 100.52 214.32 100.70 215.13 C 103.18 216.84 106.96 218.32 106.61 221.98 C 107.46 228.25 98.90 230.63 94.70 227.07 C 96.70 225.64 98.88 224.50 101.10 223.47 C 99.10 220.33 94.64 217.89 95.35 213.69 Z" />
<path fill="#0a090a" opacity="1.00" d=" M 130.83 209.65 C 132.51 209.60 134.18 209.81 135.86 209.80 C 136.52 216.05 136.81 222.39 135.62 228.59 C 134.21 228.60 132.80 228.60 131.39 228.61 C 130.28 222.34 130.52 215.97 130.83 209.65 Z" />
<path fill="#0a090a" opacity="1.00" d=" M 142.31 209.61 C 143.51 209.66 144.71 209.78 145.90 209.96 C 149.18 210.53 149.69 216.35 153.36 215.41 C 154.98 213.94 156.19 212.08 157.53 210.35 C 159.17 210.30 160.83 210.26 162.48 210.22 C 162.39 216.36 162.41 222.50 162.48 228.64 C 160.49 228.65 158.51 228.66 156.52 228.69 C 156.44 226.18 156.36 223.67 156.25 221.17 C 153.04 222.43 149.65 222.33 146.45 221.11 C 146.18 223.64 145.89 226.17 145.60 228.70 C 144.53 228.69 143.47 228.68 142.40 228.68 C 142.18 222.32 142.33 215.96 142.31 209.61 Z" />
<path fill="#0a090a" opacity="1.00" d=" M 172.54 209.47 C 173.93 209.65 175.29 209.97 176.61 210.42 C 178.11 212.96 178.87 215.85 179.77 218.64 C 180.85 218.55 181.94 218.45 183.03 218.38 C 183.80 215.08 184.87 211.78 187.08 209.14 C 187.39 209.88 188.01 211.35 188.32 212.09 C 187.46 217.93 184.78 223.30 182.64 228.75 C 180.97 228.71 179.30 228.66 177.63 228.62 C 175.78 222.28 172.77 216.17 172.54 209.47 Z" />
<path fill="#0a090a" opacity="1.00" d=" M 196.26 210.04 C 200.36 209.47 204.49 209.81 208.54 210.64 C 208.45 214.86 208.96 219.05 209.83 223.18 C 210.40 225.24 208.87 227.11 207.30 228.22 C 203.74 229.18 199.98 228.67 196.34 228.70 C 196.21 222.48 196.19 216.26 196.26 210.04 Z" />
<path fill="#0a090a" opacity="1.00" d=" M 220.91 210.95 C 221.92 210.66 222.92 210.37 223.93 210.08 C 224.90 211.71 225.88 213.33 226.86 214.96 C 229.73 213.38 231.90 209.99 235.49 210.27 C 234.19 212.90 232.44 215.33 231.49 218.12 C 231.95 222.07 235.90 225.07 235.28 229.23 C 231.74 229.86 229.76 226.22 227.55 224.14 C 226.26 225.79 225.05 227.51 223.87 229.24 C 223.20 229.14 221.87 228.96 221.20 228.87 C 220.45 222.92 220.58 216.92 220.91 210.95 Z" />
<path fill="#0a090a" opacity="1.00" d=" M 187.57 224.85 C 188.51 224.71 190.39 224.44 191.33 224.31 C 191.51 225.76 191.68 227.23 191.86 228.69 C 190.57 228.71 189.28 228.73 187.99 228.75 C 187.85 227.45 187.71 226.15 187.57 224.85 Z" />
<path fill="#0a090a" opacity="1.00" d=" M 212.05 224.84 C 213.62 224.82 215.19 224.82 216.77 224.84 C 216.75 226.16 216.74 227.48 216.73 228.81 C 215.50 228.79 214.28 228.78 213.06 228.78 C 212.71 227.47 212.38 226.15 212.05 224.84 Z" />
<path fill="#0a090a" opacity="1.00" d=" M 240.23 224.73 C 243.08 223.95 244.77 226.12 244.40 228.82 C 243.01 228.81 241.62 228.80 240.23 228.79 C 240.23 227.43 240.23 226.08 240.23 224.73 Z" />
</g>
</svg>
