<?xml version="1.0" encoding="UTF-8" ?>
<!DOCTYPE svg PUBLIC "-//W3C//DTD SVG 1.1//EN" "http://www.w3.org/Graphics/SVG/1.1/DTD/svg11.dtd">
<svg width="173pt" height="247pt" viewBox="0 0 173 247" version="1.1" xmlns="http://www.w3.org/2000/svg">
<g id="#fefefeff">
<path fill="#fefefe" opacity="1.00" d=" M 19.68 14.04 C 36.33 11.53 53.15 10.25 69.94 9.04 C 83.30 9.21 96.70 8.56 110.04 9.45 C 109.16 10.99 108.29 12.53 107.50 14.12 C 108.03 13.65 109.08 12.71 109.61 12.24 C 110.49 12.46 111.38 12.69 112.26 12.92 C 111.84 11.90 111.42 10.87 110.99 9.85 C 125.40 10.37 139.76 12.08 154.04 14.05 C 151.46 20.62 148.81 27.16 146.49 33.82 C 137.67 34.20 128.83 33.93 120.00 33.98 C 89.06 33.95 58.12 34.11 27.19 33.92 C 24.70 27.29 21.89 20.77 19.68 14.04 M 103.00 31.44 C 105.34 30.32 107.36 28.37 109.98 27.96 C 112.62 28.51 114.77 30.32 117.18 31.45 C 115.62 25.15 113.35 19.03 110.43 13.23 C 106.09 18.36 104.93 25.20 103.00 31.44 M 46.15 15.36 C 46.02 19.19 45.64 23.05 46.14 26.86 C 46.90 32.64 57.24 32.82 57.87 26.90 C 58.30 23.07 58.02 19.20 57.88 15.36 C 57.19 15.35 55.82 15.33 55.13 15.31 C 54.92 20.03 55.85 25.19 52.99 29.32 C 51.76 28.46 50.48 27.67 49.38 26.63 C 48.70 22.91 49.01 19.09 48.88 15.33 C 48.20 15.34 46.83 15.35 46.15 15.36 M 63.30 16.23 C 61.01 17.07 60.38 19.49 61.06 21.67 C 63.30 24.15 66.83 24.53 69.85 25.47 C 69.84 26.22 69.82 27.71 69.80 28.45 C 66.43 28.32 63.35 26.96 60.27 25.72 C 61.20 27.40 61.57 29.72 63.39 30.72 C 65.71 31.33 68.28 31.38 70.55 30.57 C 73.22 29.66 72.79 26.27 73.45 24.07 C 70.38 22.85 67.18 21.93 64.20 20.51 C 64.14 20.12 64.01 19.34 63.95 18.95 C 66.57 16.89 69.63 19.50 72.25 20.25 C 72.18 19.41 72.05 17.73 71.99 16.89 C 69.23 15.86 66.08 14.39 63.30 16.23 M 88.46 15.33 C 88.47 20.54 88.46 25.75 88.42 30.96 C 89.44 30.95 90.45 30.94 91.46 30.92 C 91.51 28.95 91.57 26.97 91.64 25.00 C 93.37 25.04 95.11 25.09 96.84 25.15 C 97.26 27.05 97.69 28.95 98.11 30.85 C 98.88 30.89 100.42 30.97 101.19 31.01 C 100.75 28.66 100.29 26.31 99.84 23.96 C 100.52 21.61 102.03 18.31 99.34 16.63 C 95.96 15.09 92.08 15.58 88.46 15.33 M 131.16 15.44 C 131.10 16.03 130.99 17.21 130.93 17.81 C 132.50 17.97 134.06 18.12 135.63 18.29 C 135.52 22.54 135.52 26.79 135.56 31.04 C 136.41 31.04 138.13 31.04 138.99 31.04 C 139.05 26.76 139.06 22.49 139.02 18.22 C 140.38 18.06 141.73 17.90 143.09 17.75 C 143.03 17.17 142.91 16.02 142.84 15.45 C 138.95 15.48 135.05 15.48 131.16 15.44 M 36.09 15.76 C 34.21 20.99 31.88 26.10 30.95 31.62 C 32.91 30.42 34.75 29.05 36.57 27.65 C 39.52 28.59 42.25 30.09 45.03 31.44 C 43.57 25.92 41.49 20.60 39.32 15.33 C 38.51 15.43 36.90 15.65 36.09 15.76 M 73.14 17.41 C 75.09 17.75 77.05 18.03 79.01 18.30 C 78.93 22.53 78.95 26.75 79.01 30.98 C 79.75 30.96 81.22 30.93 81.96 30.91 C 82.03 26.83 82.04 22.75 82.14 18.67 C 83.98 17.87 85.80 17.02 87.58 16.07 C 82.85 15.80 77.10 13.88 73.14 17.41 M 117.07 16.01 C 118.69 17.14 120.49 17.97 122.32 18.72 C 122.54 22.77 122.54 26.83 122.44 30.89 C 123.60 30.96 124.76 31.03 125.92 31.10 C 126.04 26.98 126.02 22.86 126.13 18.74 C 127.78 17.91 129.43 17.07 130.94 15.99 C 126.34 15.30 121.66 15.32 117.07 16.01 Z" />
<path fill="#fefefe" opacity="1.00" d=" M 91.67 17.73 C 93.76 18.09 95.84 18.48 97.92 18.90 C 97.90 19.63 97.85 21.08 97.83 21.81 C 95.74 21.91 93.66 22.00 91.58 22.09 C 91.60 20.64 91.64 19.18 91.67 17.73 Z" />
<path fill="#fefefe" opacity="1.00" d=" M 37.55 19.71 C 38.37 21.44 39.15 23.20 39.95 24.95 C 38.62 24.96 37.28 24.98 35.95 24.99 C 36.49 23.23 37.02 21.47 37.55 19.71 Z" />
<path fill="#fefefe" opacity="1.00" d=" M 107.94 24.92 C 108.72 23.21 109.48 21.49 110.29 19.79 C 110.82 21.57 111.35 23.34 111.89 25.12 C 110.57 25.05 109.26 24.99 107.94 24.92 Z" />
<path fill="#fefefe" opacity="1.00" d=" M 10.10 44.42 C 13.24 44.47 16.38 44.49 19.52 44.52 C 22.26 53.52 25.68 62.29 28.84 71.15 C 41.48 107.07 54.63 142.82 67.20 178.77 C 69.25 184.57 71.49 190.31 73.58 196.10 C 73.44 179.55 73.51 163.00 73.53 146.45 C 69.63 144.46 65.61 142.55 62.21 139.75 C 54.20 133.11 49.19 123.16 48.20 112.85 C 47.86 104.17 50.09 95.26 55.26 88.20 C 59.75 81.63 66.73 77.46 73.57 73.74 C 73.48 63.97 73.43 54.20 73.61 44.44 C 74.43 44.40 76.06 44.32 76.88 44.28 C 77.15 53.83 76.89 63.39 76.97 72.94 C 83.43 71.61 90.10 71.72 96.56 72.95 C 96.49 63.45 96.43 53.95 96.61 44.45 C 97.48 44.58 99.22 44.83 100.10 44.96 C 99.72 54.58 99.90 64.21 99.94 73.83 C 103.83 75.96 107.77 78.05 111.25 80.81 C 120.72 88.40 126.17 100.82 124.91 112.94 C 124.34 122.93 119.57 132.50 112.13 139.15 C 108.60 142.28 104.33 144.36 100.10 146.37 C 99.82 162.37 99.61 178.40 100.19 194.40 C 103.17 187.72 105.37 180.74 107.87 173.88 C 114.18 156.44 120.29 138.91 126.80 121.54 C 131.74 129.63 130.93 140.03 127.28 148.47 C 132.77 148.53 138.26 148.52 143.75 148.52 C 144.85 144.77 145.72 140.92 145.75 136.99 C 142.91 140.43 139.85 143.75 135.87 145.88 C 134.67 137.65 133.50 128.50 138.22 121.11 C 134.49 121.02 130.75 120.96 127.02 120.82 C 135.75 95.31 145.29 70.07 154.02 44.54 C 157.30 44.52 160.58 44.56 163.86 44.65 C 164.88 50.72 165.35 56.89 165.11 63.04 C 164.69 72.67 165.52 82.35 164.22 91.93 C 162.19 115.35 157.32 138.62 148.41 160.43 C 144.03 172.26 137.43 183.06 130.73 193.69 C 119.28 210.65 104.65 225.73 86.96 236.18 C 73.36 226.27 60.91 214.67 51.00 201.01 C 33.98 178.78 22.04 152.85 15.31 125.71 C 13.11 114.61 10.32 103.58 9.47 92.26 C 8.41 76.37 6.22 60.11 10.10 44.42 M 75.98 97.98 C 73.71 102.29 73.28 107.83 75.91 112.09 C 77.49 114.74 80.87 113.59 83.35 113.54 C 82.65 115.77 81.90 117.98 81.11 120.18 C 80.53 120.04 79.36 119.74 78.77 119.60 C 77.93 117.82 77.03 116.08 76.05 114.39 C 75.10 117.20 73.83 121.15 76.96 123.13 C 80.41 125.76 84.84 122.10 85.56 118.53 C 87.27 111.74 88.00 103.93 84.32 97.66 C 82.56 94.53 77.55 94.88 75.98 97.98 M 62.02 97.56 C 63.25 99.91 65.00 102.17 64.96 104.96 C 65.10 111.05 65.99 117.77 62.01 122.93 C 65.36 122.98 68.70 122.96 72.05 122.88 C 70.92 120.68 69.14 118.63 69.08 116.04 C 68.81 109.29 69.20 102.53 68.97 95.79 C 66.65 96.37 64.34 96.97 62.02 97.56 M 88.80 96.03 C 88.46 98.92 88.11 101.81 87.92 104.71 C 89.06 103.70 89.96 102.46 90.73 101.16 C 92.88 101.12 95.03 101.05 97.19 100.98 C 94.16 108.04 91.23 115.29 90.62 123.03 C 92.04 123.02 93.46 123.01 94.88 123.00 C 95.21 117.23 96.18 111.48 98.11 106.03 C 99.26 102.81 100.33 99.54 100.47 96.10 C 96.58 95.98 92.69 95.97 88.80 96.03 M 102.16 96.15 C 102.04 99.09 101.97 102.03 101.90 104.97 C 103.02 103.73 104.05 102.39 105.35 101.34 C 107.24 100.96 109.18 100.97 111.10 100.86 C 107.97 107.92 104.77 115.18 104.61 123.05 C 106.05 123.04 107.48 123.04 108.92 123.04 C 108.32 113.61 112.94 105.13 114.39 96.04 C 110.31 95.97 106.23 96.00 102.16 96.15 M 34.70 121.04 C 37.66 127.28 37.17 134.29 36.92 141.01 C 36.82 143.67 35.59 146.07 34.78 148.56 C 38.31 148.54 41.84 148.53 45.37 148.55 C 41.17 140.05 41.17 129.56 45.36 121.06 C 41.81 120.97 38.25 120.97 34.70 121.04 M 76.98 147.68 C 76.92 165.13 77.03 182.59 76.91 200.04 C 76.79 203.50 77.44 206.93 78.70 210.15 C 81.52 217.77 84.10 225.48 86.75 233.16 C 89.02 227.48 90.80 221.62 92.84 215.86 C 94.57 210.72 96.81 205.56 96.54 200.02 C 96.35 182.60 96.65 165.17 96.39 147.76 C 89.96 149.04 83.40 149.02 76.98 147.68 Z" />
<path fill="#fefefe" opacity="1.00" d=" M 78.29 100.46 C 79.40 99.70 80.60 99.10 81.78 98.47 C 82.45 101.44 83.52 104.55 82.71 107.59 C 81.82 108.99 80.26 109.74 78.97 110.70 C 78.23 107.36 77.48 103.85 78.29 100.46 Z" />
</g>
<g id="#02236aff">
<path fill="#02236a" opacity="1.00" d=" M 87.67 0.00 L 97.35 0.00 C 110.43 0.96 123.56 1.43 136.55 3.39 C 146.57 4.53 156.40 6.76 166.32 8.53 C 163.94 17.13 160.68 25.44 157.83 33.89 C 161.84 33.97 165.85 34.00 169.86 34.03 C 171.13 40.24 172.15 46.49 173.00 52.77 L 173.00 85.25 C 171.25 101.35 170.06 117.59 166.45 133.42 C 162.62 150.96 156.92 168.26 147.84 183.82 C 133.87 209.85 111.87 230.62 87.58 247.00 L 86.25 247.00 C 74.47 238.17 63.39 228.41 53.22 217.77 C 40.30 203.77 29.57 187.78 21.42 170.57 C 9.97 145.93 3.79 119.02 1.79 91.99 C 0.84 83.14 0.73 74.23 0.00 65.37 L 0.00 57.62 C 0.72 49.74 2.19 41.96 3.43 34.16 C 7.38 34.02 11.34 33.95 15.30 33.82 C 12.67 25.32 9.57 16.97 6.93 8.47 C 21.14 5.93 35.29 2.93 49.70 1.75 C 62.30 0.13 75.03 1.02 87.67 0.00 M 19.68 14.04 C 21.89 20.77 24.70 27.29 27.19 33.92 C 58.12 34.11 89.06 33.95 120.00 33.98 C 128.83 33.93 137.67 34.20 146.49 33.82 C 148.81 27.16 151.46 20.62 154.04 14.05 C 139.76 12.08 125.40 10.37 110.99 9.85 C 111.42 10.87 111.84 11.90 112.26 12.92 C 111.38 12.69 110.49 12.46 109.61 12.24 C 109.08 12.71 108.03 13.65 107.50 14.12 C 108.29 12.53 109.16 10.99 110.04 9.45 C 96.70 8.56 83.30 9.21 69.94 9.04 C 53.15 10.25 36.33 11.53 19.68 14.04 M 10.10 44.42 C 6.22 60.11 8.41 76.37 9.47 92.26 C 10.32 103.58 13.11 114.61 15.31 125.71 C 22.04 152.85 33.98 178.78 51.00 201.01 C 60.91 214.67 73.36 226.27 86.96 236.18 C 104.65 225.73 119.28 210.65 130.73 193.69 C 137.43 183.06 144.03 172.26 148.41 160.43 C 157.32 138.62 162.19 115.35 164.22 91.93 C 165.52 82.35 164.69 72.67 165.11 63.04 C 165.35 56.89 164.88 50.72 163.86 44.65 C 160.58 44.56 157.30 44.52 154.02 44.54 C 136.06 44.10 118.08 44.79 100.12 44.15 L 100.10 44.96 C 99.22 44.83 97.48 44.58 96.61 44.45 C 96.43 53.95 96.49 63.45 96.56 72.95 C 90.10 71.72 83.43 71.61 76.97 72.94 C 76.89 63.39 77.15 53.83 76.88 44.28 C 76.06 44.32 74.43 44.40 73.61 44.44 C 55.58 44.44 37.55 44.30 19.52 44.52 C 16.38 44.49 13.24 44.47 10.10 44.42 Z" />
<path fill="#02236a" opacity="1.00" d=" M 103.00 31.44 C 104.93 25.20 106.09 18.36 110.43 13.23 C 113.35 19.03 115.62 25.15 117.18 31.45 C 114.77 30.32 112.62 28.51 109.98 27.96 C 107.36 28.37 105.34 30.32 103.00 31.44 M 107.94 24.92 C 109.26 24.99 110.57 25.05 111.89 25.12 C 111.35 23.34 110.82 21.57 110.29 19.79 C 109.48 21.49 108.72 23.21 107.94 24.92 Z" />
<path fill="#02236a" opacity="1.00" d=" M 46.15 15.36 C 46.83 15.35 48.20 15.34 48.88 15.33 C 49.01 19.09 48.70 22.91 49.38 26.63 C 50.48 27.67 51.76 28.46 52.99 29.32 C 55.85 25.19 54.92 20.03 55.13 15.31 C 55.82 15.33 57.19 15.35 57.88 15.36 C 58.02 19.20 58.30 23.07 57.87 26.90 C 57.24 32.82 46.90 32.64 46.14 26.86 C 45.64 23.05 46.02 19.19 46.15 15.36 Z" />
<path fill="#02236a" opacity="1.00" d=" M 63.30 16.23 C 66.08 14.39 69.23 15.86 71.99 16.89 C 72.05 17.73 72.18 19.41 72.25 20.25 C 69.63 19.50 66.57 16.89 63.95 18.95 C 64.01 19.34 64.14 20.12 64.20 20.51 C 67.18 21.93 70.38 22.85 73.45 24.07 C 72.79 26.27 73.22 29.66 70.55 30.57 C 68.28 31.38 65.71 31.33 63.39 30.72 C 61.57 29.72 61.20 27.40 60.27 25.72 C 63.35 26.96 66.43 28.32 69.80 28.45 C 69.82 27.71 69.84 26.22 69.85 25.47 C 66.83 24.53 63.30 24.15 61.06 21.67 C 60.38 19.49 61.01 17.07 63.30 16.23 Z" />
<path fill="#02236a" opacity="1.00" d=" M 88.46 15.33 C 92.08 15.58 95.96 15.09 99.34 16.63 C 102.03 18.31 100.52 21.61 99.84 23.96 C 100.29 26.31 100.75 28.66 101.19 31.01 C 100.42 30.97 98.88 30.89 98.11 30.85 C 97.69 28.95 97.26 27.05 96.84 25.15 C 95.11 25.09 93.37 25.04 91.64 25.00 C 91.57 26.97 91.51 28.95 91.46 30.92 C 90.45 30.94 89.44 30.95 88.42 30.96 C 88.46 25.75 88.47 20.54 88.46 15.33 M 91.67 17.73 C 91.64 19.18 91.60 20.64 91.58 22.09 C 93.66 22.00 95.74 21.91 97.83 21.81 C 97.85 21.08 97.90 19.63 97.92 18.90 C 95.84 18.48 93.76 18.09 91.67 17.73 Z" />
<path fill="#02236a" opacity="1.00" d=" M 131.16 15.44 C 135.05 15.48 138.95 15.48 142.84 15.45 C 142.91 16.02 143.03 17.17 143.09 17.75 C 141.73 17.90 140.38 18.06 139.02 18.22 C 139.06 22.49 139.05 26.76 138.99 31.04 C 138.13 31.04 136.41 31.04 135.56 31.04 C 135.52 26.79 135.52 22.54 135.63 18.29 C 134.06 18.12 132.50 17.97 130.93 17.81 C 130.99 17.21 131.10 16.03 131.16 15.44 Z" />
<path fill="#02236a" opacity="1.00" d=" M 36.09 15.76 C 36.90 15.65 38.51 15.43 39.32 15.33 C 41.49 20.60 43.57 25.92 45.03 31.44 C 42.25 30.09 39.52 28.59 36.57 27.65 C 34.75 29.05 32.91 30.42 30.95 31.62 C 31.88 26.10 34.21 20.99 36.09 15.76 M 37.55 19.71 C 37.02 21.47 36.49 23.23 35.95 24.99 C 37.28 24.98 38.62 24.96 39.95 24.95 C 39.15 23.20 38.37 21.44 37.55 19.71 Z" />
<path fill="#02236a" opacity="1.00" d=" M 73.14 17.41 C 77.10 13.88 82.85 15.80 87.58 16.07 C 85.80 17.02 83.98 17.87 82.14 18.67 C 82.04 22.75 82.03 26.83 81.96 30.91 C 81.22 30.93 79.75 30.96 79.01 30.98 C 78.95 26.75 78.93 22.53 79.01 18.30 C 77.05 18.03 75.09 17.75 73.14 17.41 Z" />
<path fill="#02236a" opacity="1.00" d=" M 117.07 16.01 C 121.66 15.32 126.34 15.30 130.94 15.99 C 129.43 17.07 127.78 17.91 126.13 18.74 C 126.02 22.86 126.04 26.98 125.92 31.10 C 124.76 31.03 123.60 30.96 122.44 30.89 C 122.54 26.83 122.54 22.77 122.32 18.72 C 120.49 17.97 118.69 17.14 117.07 16.01 Z" />
<path fill="#02236a" opacity="1.00" d=" M 75.98 97.98 C 77.55 94.88 82.56 94.53 84.32 97.66 C 88.00 103.93 87.27 111.74 85.56 118.53 C 84.84 122.10 80.41 125.76 76.96 123.13 C 73.83 121.15 75.10 117.20 76.05 114.39 C 77.03 116.08 77.93 117.82 78.77 119.60 C 79.36 119.74 80.53 120.04 81.11 120.18 C 81.90 117.98 82.65 115.77 83.35 113.54 C 80.87 113.59 77.49 114.74 75.91 112.09 C 73.28 107.83 73.71 102.29 75.98 97.98 M 78.29 100.46 C 77.48 103.85 78.23 107.36 78.97 110.70 C 80.26 109.74 81.82 108.99 82.71 107.59 C 83.52 104.55 82.45 101.44 81.78 98.47 C 80.60 99.10 79.40 99.70 78.29 100.46 Z" />
<path fill="#02236a" opacity="1.00" d=" M 62.02 97.56 C 64.34 96.97 66.65 96.37 68.97 95.79 C 69.20 102.53 68.81 109.29 69.08 116.04 C 69.14 118.63 70.92 120.68 72.05 122.88 C 68.70 122.96 65.36 122.98 62.01 122.93 C 65.99 117.77 65.10 111.05 64.96 104.96 C 65.00 102.17 63.25 99.91 62.02 97.56 Z" />
<path fill="#02236a" opacity="1.00" d=" M 88.80 96.03 C 92.69 95.97 96.58 95.98 100.47 96.10 C 100.33 99.54 99.26 102.81 98.11 106.03 C 96.18 111.48 95.21 117.23 94.88 123.00 C 93.46 123.01 92.04 123.02 90.62 123.03 C 91.23 115.29 94.16 108.04 97.19 100.98 C 95.03 101.05 92.88 101.12 90.73 101.16 C 89.96 102.46 89.06 103.70 87.92 104.71 C 88.11 101.81 88.46 98.92 88.80 96.03 Z" />
<path fill="#02236a" opacity="1.00" d=" M 102.16 96.15 C 106.23 96.00 110.31 95.97 114.39 96.04 C 112.94 105.13 108.32 113.61 108.92 123.04 C 107.48 123.04 106.05 123.04 104.61 123.05 C 104.77 115.18 107.97 107.92 111.10 100.86 C 109.18 100.97 107.24 100.96 105.35 101.34 C 104.05 102.39 103.02 103.73 101.90 104.97 C 101.97 102.03 102.04 99.09 102.16 96.15 Z" />
<path fill="#02236a" opacity="1.00" d=" M 34.70 121.04 C 38.25 120.97 41.81 120.97 45.36 121.06 C 41.17 129.56 41.17 140.05 45.37 148.55 C 41.84 148.53 38.31 148.54 34.78 148.56 C 35.59 146.07 36.82 143.67 36.92 141.01 C 37.17 134.29 37.66 127.28 34.70 121.04 Z" />
<path fill="#02236a" opacity="1.00" d=" M 127.02 120.82 C 130.75 120.96 134.49 121.02 138.22 121.11 C 133.50 128.50 134.67 137.65 135.87 145.88 C 139.85 143.75 142.91 140.43 145.75 136.99 C 145.72 140.92 144.85 144.77 143.75 148.52 C 138.26 148.52 132.77 148.53 127.28 148.47 C 130.93 140.03 131.74 129.63 126.80 121.54 L 127.02 120.82 Z" />
<path fill="#02236a" opacity="1.00" d=" M 76.98 147.68 C 83.40 149.02 89.96 149.04 96.39 147.76 C 96.65 165.17 96.35 182.60 96.54 200.02 C 96.81 205.56 94.57 210.72 92.84 215.86 C 90.80 221.62 89.02 227.48 86.75 233.16 C 84.10 225.48 81.52 217.77 78.70 210.15 C 77.44 206.93 76.79 203.50 76.91 200.04 C 77.03 182.59 76.92 165.13 76.98 147.68 Z" />
</g>
<g id="#d9001dff">
<path fill="#d9001d" opacity="1.00" d=" M 19.52 44.52 C 37.55 44.30 55.58 44.44 73.61 44.44 C 73.43 54.20 73.48 63.97 73.57 73.74 C 66.73 77.46 59.75 81.63 55.26 88.20 C 50.09 95.26 47.86 104.17 48.20 112.85 C 49.19 123.16 54.20 133.11 62.21 139.75 C 65.61 142.55 69.63 144.46 73.53 146.45 C 73.51 163.00 73.44 179.55 73.58 196.10 C 71.49 190.31 69.25 184.57 67.20 178.77 C 54.63 142.82 41.48 107.07 28.84 71.15 C 25.68 62.29 22.26 53.52 19.52 44.52 Z" />
<path fill="#d9001d" opacity="1.00" d=" M 100.12 44.15 C 118.08 44.79 136.06 44.10 154.02 44.54 C 145.29 70.07 135.75 95.31 127.02 120.82 L 126.80 121.54 C 120.29 138.91 114.18 156.44 107.87 173.88 C 105.37 180.74 103.17 187.72 100.19 194.40 C 99.61 178.40 99.82 162.37 100.10 146.37 C 104.33 144.36 108.60 142.28 112.13 139.15 C 119.57 132.50 124.34 122.93 124.91 112.94 C 126.17 100.82 120.72 88.40 111.25 80.81 C 107.77 78.05 103.83 75.96 99.94 73.83 C 99.90 64.21 99.72 54.58 100.10 44.96 L 100.12 44.15 Z" />
</g>
</svg>
