<?xml version="1.0" encoding="UTF-8" ?>
<!DOCTYPE svg PUBLIC "-//W3C//DTD SVG 1.1//EN" "http://www.w3.org/Graphics/SVG/1.1/DTD/svg11.dtd">
<svg width="307pt" height="326pt" viewBox="0 0 307 326" version="1.1" xmlns="http://www.w3.org/2000/svg">
<g id="#ffffffff">
<path fill="#ffffff" opacity="1.00" d=" M 142.40 1.40 C 156.33 0.58 170.40 1.16 184.09 4.02 C 202.58 8.14 220.60 15.04 236.40 25.60 C 269.17 46.70 293.15 80.88 302.03 118.83 C 305.07 130.58 306.91 142.82 306.11 154.97 C 306.48 198.74 287.17 242.39 254.13 271.15 C 230.78 292.04 200.67 305.09 169.56 308.43 C 164.46 309.66 159.22 309.52 154.03 309.14 C 123.86 309.48 93.77 300.00 68.83 283.12 C 51.36 271.24 36.37 255.80 24.98 238.01 C 10.48 215.05 2.07 188.20 1.09 161.06 C -0.31 126.77 10.26 92.16 30.43 64.42 C 56.10 28.35 98.23 4.60 142.40 1.40 M 137.71 19.57 C 145.47 20.10 153.24 19.28 160.99 19.69 C 166.07 19.85 171.11 20.71 176.19 20.70 C 163.52 18.34 150.52 18.80 137.71 19.57 M 132.91 20.24 C 132.66 21.96 136.35 21.96 136.11 20.24 C 135.42 19.23 133.59 19.23 132.91 20.24 M 85.34 40.29 C 52.39 59.94 28.64 94.36 22.25 132.22 C 19.10 149.59 20.13 167.50 23.57 184.74 C 27.68 201.16 34.28 217.10 43.89 231.08 C 46.87 235.72 51.93 239.48 52.25 245.38 C 52.65 245.06 53.46 244.40 53.86 244.07 C 57.63 247.66 61.20 251.44 64.93 255.07 C 80.61 268.77 99.16 279.39 119.39 284.64 C 132.63 288.22 146.41 289.14 160.07 289.34 C 165.50 288.97 170.84 287.72 176.24 287.09 C 197.35 283.53 217.50 274.53 234.43 261.44 C 236.07 260.27 237.85 259.34 239.68 258.49 C 238.34 260.22 236.88 261.87 235.15 263.20 C 224.82 271.26 213.06 277.29 200.98 282.26 C 193.84 285.22 186.20 286.63 178.86 288.98 C 183.93 288.37 188.87 287.04 193.73 285.52 C 211.41 279.91 228.05 270.81 241.98 258.53 C 241.42 258.30 240.30 257.84 239.74 257.61 C 244.19 252.82 248.83 248.19 253.61 243.73 C 253.84 244.31 254.30 245.47 254.53 246.06 C 262.19 237.15 269.23 227.50 274.03 216.74 C 267.48 225.64 263.56 236.87 254.45 243.64 C 256.66 238.47 260.72 234.48 263.75 229.82 C 277.52 208.91 285.36 184.07 285.93 159.02 C 287.07 145.52 284.78 131.95 281.25 118.94 C 276.33 101.11 267.66 84.39 256.06 70.00 C 236.05 45.48 207.10 28.28 175.79 23.15 C 144.91 18.19 112.01 23.60 85.34 40.29 M 227.08 40.83 C 231.88 44.80 236.87 48.57 242.00 52.11 C 237.41 47.89 232.38 44.11 227.08 40.83 M 264.27 77.25 C 264.76 77.77 264.76 77.77 264.27 77.25 M 288.55 150.66 C 287.93 154.81 288.02 159.01 287.76 163.19 C 287.40 168.90 286.31 174.55 286.18 180.28 C 287.54 175.06 287.68 169.64 288.13 164.29 C 288.43 159.75 289.26 155.19 288.55 150.66 M 283.03 191.90 C 280.90 200.30 277.51 208.30 274.11 216.24 C 277.12 211.55 278.94 206.23 280.83 201.02 C 283.05 194.44 285.24 187.76 285.98 180.83 C 284.68 184.43 284.00 188.21 283.03 191.90 M 113.53 285.13 C 113.68 286.57 114.32 286.81 115.45 285.87 C 115.30 284.42 114.66 284.17 113.53 285.13 M 163.82 290.78 C 168.63 290.75 173.46 290.26 178.16 289.21 C 173.35 289.45 168.55 289.92 163.82 290.78 M 135.64 290.45 C 138.50 290.86 141.41 290.86 144.28 290.45 C 141.40 290.18 138.51 290.17 135.64 290.45 M 148.20 291.49 C 151.21 291.83 154.27 291.92 157.27 291.45 C 154.25 291.13 151.21 291.22 148.20 291.49 Z" />
<path fill="#ffffff" opacity="1.00" d=" M 145.18 40.52 C 148.70 40.42 152.22 40.33 155.74 40.30 C 155.74 40.88 155.72 42.05 155.71 42.63 C 153.28 43.03 150.86 43.40 148.43 43.79 C 148.60 45.09 148.76 46.40 148.92 47.71 C 150.92 47.82 152.93 47.99 154.93 48.13 C 154.89 48.71 154.81 49.88 154.77 50.46 C 152.89 50.63 151.01 50.81 149.13 50.99 C 149.11 52.56 149.10 54.14 149.09 55.71 C 151.93 55.96 155.34 55.45 157.26 58.09 C 153.39 58.95 149.42 59.10 145.48 58.97 C 145.39 52.82 144.98 46.67 145.18 40.52 Z" />
<path fill="#ffffff" opacity="1.00" d=" M 158.74 40.18 C 160.00 40.26 161.26 40.33 162.53 40.41 C 163.51 42.98 164.54 45.53 165.61 48.07 C 167.42 44.88 168.61 40.23 173.20 40.63 C 170.58 46.61 166.23 52.05 166.41 58.93 C 165.39 59.00 164.38 59.06 163.38 59.12 C 163.99 52.38 160.96 46.31 158.74 40.18 Z" />
<path fill="#ffffff" opacity="1.00" d=" M 131.69 42.13 C 132.50 42.15 134.13 42.19 134.94 42.21 C 135.77 47.03 136.57 51.85 137.22 56.70 C 139.66 56.73 142.10 56.85 144.54 57.00 C 142.58 60.90 137.61 59.91 134.04 60.47 C 133.10 54.38 132.06 48.29 131.69 42.13 Z" />
<path fill="#ffffff" opacity="1.00" d=" M 177.27 41.87 C 180.93 42.64 186.26 42.13 188.06 46.16 C 187.74 49.47 186.72 52.74 187.48 56.09 C 188.20 58.81 185.43 61.04 182.95 61.19 C 179.92 61.30 176.97 60.47 174.04 59.82 C 174.67 53.77 175.95 47.81 177.27 41.87 M 180.31 44.91 C 179.92 46.70 179.55 48.50 179.20 50.30 C 181.82 50.35 184.35 49.77 185.42 47.09 C 183.72 46.36 182.01 45.62 180.31 44.91 M 178.87 52.51 C 178.56 54.38 178.26 56.25 177.98 58.13 C 179.94 58.11 181.90 58.06 183.87 57.99 C 183.76 56.53 183.65 55.08 183.54 53.62 C 181.98 53.25 180.42 52.88 178.87 52.51 Z" />
<path fill="#ffffff" opacity="1.00" d=" M 118.16 45.81 C 119.33 45.48 120.51 45.17 121.69 44.85 C 122.97 49.68 124.30 54.49 125.84 59.24 C 127.90 58.90 129.97 58.59 132.04 58.26 C 132.07 58.95 132.15 60.31 132.19 60.99 C 129.14 61.82 126.09 62.64 123.03 63.41 C 121.25 57.58 119.70 51.69 118.16 45.81 Z" />
<path fill="#ffffff" opacity="1.00" d=" M 199.32 47.24 C 200.75 47.57 202.18 47.91 203.62 48.26 C 203.77 54.96 203.65 61.67 203.45 68.38 C 200.38 67.73 199.50 64.99 199.28 62.19 C 197.53 61.59 195.80 60.89 193.98 60.57 C 192.47 61.24 191.18 62.29 189.83 63.21 C 189.26 62.92 188.13 62.35 187.56 62.07 C 191.20 56.91 195.30 52.10 199.32 47.24 M 194.98 57.84 C 196.66 58.29 198.35 58.74 200.05 59.19 C 200.10 56.69 200.12 54.19 200.08 51.70 C 198.28 53.66 196.59 55.72 194.98 57.84 Z" />
<path fill="#ffffff" opacity="1.00" d=" M 106.50 49.58 C 112.27 47.89 116.50 54.02 117.15 59.03 C 118.72 65.83 109.65 71.59 104.00 67.94 C 100.76 65.50 99.03 61.27 99.24 57.25 C 99.49 53.38 102.94 50.49 106.50 49.58 M 105.49 53.29 C 101.12 55.51 103.18 61.40 105.73 64.26 C 108.05 67.58 114.10 64.88 113.51 60.98 C 113.44 57.08 110.10 51.11 105.49 53.29 Z" />
<path fill="#ffffff" opacity="1.00" d=" M 214.59 53.76 C 215.49 54.45 216.40 55.14 217.26 55.91 C 215.13 60.27 212.27 64.22 210.01 68.52 C 212.01 70.09 213.81 71.95 214.60 74.43 C 210.97 73.60 207.84 71.54 204.98 69.25 C 208.15 64.07 211.35 58.90 214.59 53.76 Z" />
<path fill="#ffffff" opacity="1.00" d=" M 90.20 60.72 C 89.50 59.20 90.99 57.95 91.58 56.69 C 94.88 62.52 97.70 68.61 100.20 74.82 C 99.10 75.81 98.00 76.81 96.91 77.80 C 91.14 75.06 85.59 71.91 80.00 68.83 C 80.78 67.91 81.56 66.99 82.34 66.08 C 86.64 68.32 90.90 70.69 95.42 72.50 C 93.97 68.44 91.70 64.75 90.20 60.72 Z" />
<path fill="#ffffff" opacity="1.00" d=" M 214.28 75.25 C 218.76 71.12 223.15 66.88 227.87 63.02 C 228.53 63.96 229.21 64.90 229.88 65.84 C 226.27 69.27 222.58 72.61 218.95 76.01 C 220.24 77.68 221.54 79.34 222.84 81.00 C 222.16 81.64 221.48 82.27 220.80 82.90 C 218.43 80.52 216.23 77.98 214.28 75.25 Z" />
<path fill="#ffffff" opacity="1.00" d=" M 71.87 113.83 C 88.50 85.14 122.07 67.91 154.98 69.32 C 158.40 69.31 161.82 69.25 165.23 69.54 C 157.60 70.01 149.91 69.00 142.31 70.18 C 124.58 73.10 108.67 83.66 97.75 97.74 C 78.44 122.59 73.94 157.60 85.13 186.86 C 92.29 206.09 106.54 223.01 125.28 231.75 C 131.83 234.97 139.01 236.39 146.09 237.86 C 125.35 236.62 105.06 228.37 89.43 214.65 C 76.23 203.12 66.38 187.47 62.81 170.23 C 58.62 151.18 61.90 130.60 71.87 113.83 Z" />
<path fill="#ffffff" opacity="1.00" d=" M 165.90 70.03 C 186.02 72.04 205.17 81.34 219.95 95.05 C 233.70 108.57 243.36 126.60 245.15 145.96 C 245.89 161.40 243.35 177.27 235.91 190.96 C 230.18 201.08 223.03 210.65 213.59 217.59 C 200.56 228.04 184.61 234.52 168.17 237.17 C 163.51 238.28 158.72 238.71 153.93 238.63 C 160.33 237.57 166.87 237.15 173.07 235.12 C 189.87 230.04 204.14 218.24 213.59 203.60 C 231.06 176.59 232.70 140.37 218.20 111.72 C 210.16 95.66 196.85 81.98 180.27 74.77 C 175.65 72.71 170.69 71.59 165.90 70.03 Z" />
<path fill="#ffffff" opacity="1.00" d=" M 93.36 109.39 C 98.06 109.07 102.88 108.41 107.53 109.40 C 109.76 110.26 108.72 113.11 109.05 114.94 C 108.79 141.55 109.32 168.17 108.78 194.78 C 103.62 195.13 98.44 195.14 93.29 194.72 C 92.60 170.49 93.22 146.24 92.97 122.00 C 92.93 117.79 93.00 113.58 93.36 109.39 Z" />
<path fill="#ffffff" opacity="1.00" d=" M 141.36 109.39 C 146.05 109.37 151.58 107.61 155.75 110.28 C 156.44 119.82 155.74 129.42 156.02 138.98 C 173.36 138.89 190.68 139.52 208.01 138.97 C 212.51 139.09 217.09 138.55 221.54 139.39 C 223.50 140.03 222.79 142.37 223.04 143.92 C 222.92 151.73 223.33 159.57 222.60 167.35 C 220.54 166.59 218.51 165.64 217.02 163.98 C 209.77 156.57 202.42 149.25 195.07 141.94 C 194.77 168.55 195.34 195.17 194.78 221.78 C 189.62 222.12 184.44 222.13 179.28 221.73 C 178.70 212.84 179.15 203.92 178.98 195.02 C 166.41 194.82 153.83 195.32 141.28 194.74 C 140.64 172.50 141.18 150.24 141.00 128.00 C 141.00 121.79 140.80 115.58 141.36 109.39 M 145.03 113.00 C 144.98 139.00 144.98 165.00 145.03 191.00 C 147.34 191.00 149.66 191.00 151.97 191.00 C 152.02 165.00 152.02 139.00 151.97 113.00 C 149.65 113.00 147.34 113.00 145.03 113.00 M 159.92 161.92 C 158.48 163.45 156.74 164.86 155.97 166.88 C 156.82 168.36 158.10 169.53 159.30 170.72 C 166.01 177.00 172.27 183.73 178.92 190.07 C 179.05 174.39 179.06 158.71 178.91 143.03 C 172.57 149.32 166.34 155.72 159.92 161.92 M 158.09 174.99 C 157.95 180.31 157.97 185.65 158.02 190.98 C 163.35 191.03 168.68 191.05 174.01 190.91 C 168.75 185.56 163.44 180.25 158.09 174.99 Z" />
<path fill="#ffffff" opacity="1.00" d=" M 113.02 146.02 C 118.01 146.15 123.25 145.25 128.04 146.98 C 133.45 149.98 135.32 156.56 136.45 162.23 C 137.70 171.42 137.08 181.72 131.46 189.48 C 127.11 195.12 119.11 192.46 113.02 192.96 C 112.99 177.32 112.98 161.67 113.02 146.02 Z" />
<path fill="#ffffff" opacity="1.00" d=" M 108.03 243.85 C 110.19 244.34 114.33 242.81 114.53 246.11 C 114.66 249.26 117.48 253.84 113.63 255.70 C 111.79 256.06 109.91 256.07 108.04 256.18 C 107.97 252.07 107.97 247.96 108.03 243.85 M 110.00 245.01 C 110.00 246.33 109.99 247.66 109.99 248.99 C 110.74 249.00 112.25 249.00 113.00 249.00 C 113.00 247.66 113.00 246.33 113.01 245.00 C 112.25 245.00 110.75 245.00 110.00 245.01 M 110.10 249.46 C 110.07 251.48 110.07 253.51 110.10 255.54 C 111.57 254.56 114.77 254.54 114.06 252.08 C 114.03 250.30 111.28 250.37 110.10 249.46 Z" />
<path fill="#ffffff" opacity="1.00" d=" M 121.29 244.03 C 121.90 244.03 123.11 244.03 123.71 244.03 C 125.29 248.06 126.88 252.09 128.21 256.21 C 126.71 255.16 125.31 253.93 123.66 253.12 C 120.89 252.25 118.90 254.94 116.79 256.21 C 118.12 252.08 119.71 248.05 121.29 244.03 M 120.08 252.02 C 121.67 252.02 123.27 252.02 124.86 252.03 C 124.06 250.00 123.30 247.96 122.58 245.91 C 121.78 247.96 120.95 250.00 120.08 252.02 Z" />
<path fill="#ffffff" opacity="1.00" d=" M 129.01 244.00 C 129.50 244.00 130.48 244.00 130.97 243.99 C 130.99 247.54 131.01 251.08 131.04 254.62 C 132.85 254.99 134.68 255.34 136.48 255.80 C 134.00 255.95 131.51 256.01 129.02 256.07 C 128.98 252.05 128.98 248.02 129.01 244.00 Z" />
<path fill="#ffffff" opacity="1.00" d=" M 137.01 244.00 C 137.50 244.00 138.48 244.00 138.98 244.00 C 138.99 247.62 139.01 251.25 139.02 254.87 C 140.68 254.95 142.34 255.02 144.01 255.10 L 143.98 256.05 C 141.66 256.03 139.34 256.00 137.02 255.98 C 136.98 251.99 136.98 247.99 137.01 244.00 Z" />
<path fill="#ffffff" opacity="1.00" d=" M 145.01 244.00 C 145.48 244.00 146.42 243.99 146.90 243.98 C 146.96 245.71 147.01 247.44 147.07 249.18 C 148.84 247.09 150.68 245.06 152.84 243.37 C 151.81 245.52 150.43 247.52 149.63 249.79 C 150.55 252.15 151.92 254.30 152.93 256.62 C 150.50 254.78 148.70 252.30 147.00 249.81 C 147.00 251.88 146.95 253.95 146.94 256.02 C 146.46 256.02 145.49 256.00 145.01 256.00 C 144.98 252.00 144.98 248.00 145.01 244.00 Z" />
<path fill="#ffffff" opacity="1.00" d=" M 155.01 244.00 C 155.50 244.00 156.48 244.00 156.97 244.00 C 156.99 247.62 157.01 251.25 157.02 254.87 C 158.67 254.95 160.33 255.03 161.99 255.11 L 162.01 256.06 C 159.67 256.03 157.34 256.00 155.02 255.98 C 154.98 251.98 154.98 247.99 155.01 244.00 Z" />
<path fill="#ffffff" opacity="1.00" d=" M 162.99 244.00 C 163.48 244.00 164.47 243.99 164.96 243.99 C 164.96 246.94 164.81 249.90 165.14 252.84 C 165.12 255.99 170.87 255.98 170.86 252.84 C 171.18 249.90 171.04 246.94 171.04 243.99 C 171.53 243.99 172.52 243.99 173.02 243.99 C 172.56 247.88 174.62 253.32 170.61 255.82 C 168.01 256.41 164.54 256.47 163.27 253.62 C 162.71 250.44 162.99 247.20 162.99 244.00 Z" />
<path fill="#ffffff" opacity="1.00" d=" M 175.03 243.85 C 177.19 244.34 181.33 242.81 181.53 246.10 C 181.66 249.25 184.48 253.83 180.64 255.70 C 178.79 256.06 176.91 256.07 175.04 256.18 C 174.97 252.07 174.97 247.96 175.03 243.85 M 177.00 245.00 C 177.00 246.33 177.00 247.66 177.00 248.99 C 177.75 249.00 179.25 249.00 180.00 249.00 C 180.00 247.66 180.00 246.33 180.00 245.00 C 179.25 245.00 177.75 245.00 177.00 245.00 M 177.10 249.46 C 177.07 251.48 177.07 253.51 177.10 255.54 C 178.57 254.56 181.77 254.55 181.06 252.08 C 181.04 250.30 178.28 250.37 177.10 249.46 Z" />
<path fill="#ffffff" opacity="1.00" d=" M 185.03 243.85 C 186.98 244.23 189.63 243.33 191.14 244.75 C 191.94 247.67 192.46 250.69 192.71 253.71 C 191.25 256.60 187.69 255.89 185.04 256.18 C 184.97 252.07 184.97 247.96 185.03 243.85 M 187.00 245.01 C 187.00 246.33 186.99 247.66 186.99 248.99 C 187.74 248.99 189.25 249.00 190.00 249.00 C 190.00 247.66 190.00 246.33 190.00 245.00 C 189.25 245.00 187.75 245.01 187.00 245.01 M 187.10 249.46 C 187.07 251.48 187.07 253.51 187.10 255.54 C 188.57 254.56 191.77 254.55 191.06 252.08 C 191.04 250.30 188.28 250.37 187.10 249.46 Z" />
<path fill="#ffffff" opacity="1.00" d=" M 182.08 264.30 C 185.40 264.52 180.48 267.26 182.08 264.30 Z" />
<path fill="#ffffff" opacity="1.00" d=" M 114.65 266.01 C 117.55 265.97 120.45 265.97 123.35 266.01 C 122.26 266.50 121.17 266.98 120.08 267.46 C 120.03 270.98 119.99 274.49 119.95 278.00 C 119.47 278.00 118.53 278.01 118.05 278.01 C 118.01 274.49 117.97 270.98 117.92 267.47 C 116.82 266.99 115.73 266.50 114.65 266.01 Z" />
<path fill="#ffffff" opacity="1.00" d=" M 125.05 265.82 C 127.71 266.09 131.23 265.41 132.72 268.28 C 131.73 271.82 132.16 275.37 133.59 278.73 C 132.02 277.03 130.63 275.18 129.33 273.27 C 128.87 273.19 127.95 273.03 127.49 272.95 C 127.13 275.01 126.80 277.15 125.34 278.76 C 124.82 274.46 124.96 270.13 125.05 265.82 M 127.09 266.46 C 127.07 268.48 127.07 270.51 127.11 272.54 C 128.29 271.63 131.03 271.69 131.06 269.92 C 131.79 267.45 128.56 267.44 127.09 266.46 Z" />
<path fill="#ffffff" opacity="1.00" d=" M 138.39 266.25 C 140.50 265.52 142.90 266.01 144.67 267.32 C 146.61 270.02 146.61 273.98 144.67 276.68 C 141.85 278.96 136.29 278.57 135.27 274.61 C 134.40 271.65 134.84 267.13 138.39 266.25 M 139.37 267.12 C 135.71 269.09 135.91 275.97 140.12 277.00 C 145.95 277.19 145.35 265.69 139.37 267.12 Z" />
<path fill="#ffffff" opacity="1.00" d=" M 148.03 265.94 C 148.72 265.98 150.09 266.06 150.78 266.10 C 151.96 269.00 152.97 271.98 154.37 274.79 C 154.68 274.79 155.31 274.79 155.63 274.79 C 157.04 271.98 158.04 269.00 159.22 266.10 C 159.91 266.06 161.28 265.98 161.96 265.94 C 162.02 269.96 162.02 273.98 162.00 278.00 C 161.51 278.00 160.53 278.00 160.04 278.00 C 160.02 274.89 160.01 271.77 159.93 268.66 C 158.52 271.71 157.32 274.86 155.62 277.76 C 155.31 277.76 154.69 277.74 154.38 277.73 C 152.67 274.85 151.47 271.70 150.07 268.65 C 149.99 271.77 149.98 274.88 149.96 278.00 C 149.47 278.00 148.50 278.00 148.01 278.00 C 147.98 273.98 147.98 269.96 148.03 265.94 Z" />
<path fill="#ffffff" opacity="1.00" d=" M 164.13 268.37 C 165.65 265.22 169.09 265.83 171.59 267.28 C 169.65 267.44 167.62 267.29 165.80 268.12 C 166.54 271.28 171.71 272.00 170.89 275.63 C 169.35 278.76 165.91 278.19 163.41 276.70 C 165.31 276.50 167.41 276.87 169.12 275.82 C 168.77 272.53 163.31 271.88 164.13 268.37 Z" />
<path fill="#ffffff" opacity="1.00" d=" M 174.32 267.32 C 176.38 265.79 179.13 265.64 181.56 266.21 C 185.28 268.94 185.29 277.31 179.80 277.79 C 178.17 278.05 176.53 278.16 174.89 278.32 C 173.34 274.92 171.70 270.66 174.32 267.32 M 175.23 269.35 C 174.84 271.43 175.06 273.56 175.12 275.66 C 178.00 273.43 179.22 269.93 180.22 266.57 C 178.46 267.23 176.16 267.46 175.23 269.35 M 176.82 277.42 C 178.58 276.74 180.80 276.47 181.81 274.66 C 182.13 272.59 181.89 270.48 181.79 268.41 C 179.40 270.95 177.81 274.10 176.82 277.42 Z" />
<path fill="#ffffff" opacity="1.00" d=" M 174.26 279.10 C 174.78 279.61 174.78 279.61 174.26 279.10 Z" />
</g>
<g id="#005596ff">
<path fill="#005596" opacity="1.00" d=" M 137.71 19.57 C 150.52 18.80 163.52 18.34 176.19 20.70 C 171.11 20.71 166.07 19.85 160.99 19.69 C 153.24 19.28 145.47 20.10 137.71 19.57 Z" />
<path fill="#005596" opacity="1.00" d=" M 132.91 20.24 C 133.59 19.23 135.42 19.23 136.11 20.24 C 136.35 21.96 132.66 21.96 132.91 20.24 Z" />
<path fill="#005596" opacity="1.00" d=" M 85.34 40.29 C 112.01 23.60 144.91 18.19 175.79 23.15 C 207.10 28.28 236.05 45.48 256.06 70.00 C 267.66 84.39 276.33 101.11 281.25 118.94 C 284.78 131.95 287.07 145.52 285.93 159.02 C 285.36 184.07 277.52 208.91 263.75 229.82 C 260.72 234.48 256.66 238.47 254.45 243.64 C 263.56 236.87 267.48 225.64 274.03 216.74 C 269.23 227.50 262.19 237.15 254.53 246.06 C 254.30 245.47 253.84 244.31 253.61 243.73 C 248.83 248.19 244.19 252.82 239.74 257.61 C 240.30 257.84 241.42 258.30 241.98 258.53 C 228.05 270.81 211.41 279.91 193.73 285.52 C 188.87 287.04 183.93 288.37 178.86 288.98 C 186.20 286.63 193.84 285.22 200.98 282.26 C 213.06 277.29 224.82 271.26 235.15 263.20 C 236.88 261.87 238.34 260.22 239.68 258.49 C 237.85 259.34 236.07 260.27 234.43 261.44 C 217.50 274.53 197.35 283.53 176.24 287.09 C 170.84 287.72 165.50 288.97 160.07 289.34 C 146.41 289.14 132.63 288.22 119.39 284.64 C 99.16 279.39 80.61 268.77 64.93 255.07 C 61.20 251.44 57.63 247.66 53.86 244.07 C 53.46 244.40 52.65 245.06 52.25 245.38 C 51.93 239.48 46.87 235.72 43.89 231.08 C 34.28 217.10 27.68 201.16 23.57 184.74 C 20.13 167.50 19.10 149.59 22.25 132.22 C 28.64 94.36 52.39 59.94 85.34 40.29 M 145.18 40.52 C 144.98 46.67 145.39 52.82 145.48 58.97 C 149.42 59.10 153.39 58.95 157.26 58.09 C 155.34 55.45 151.93 55.96 149.09 55.71 C 149.10 54.14 149.11 52.56 149.13 50.99 C 151.01 50.81 152.89 50.63 154.77 50.46 C 154.81 49.88 154.89 48.71 154.93 48.13 C 152.93 47.99 150.92 47.82 148.92 47.71 C 148.76 46.40 148.60 45.09 148.43 43.79 C 150.86 43.40 153.28 43.03 155.71 42.63 C 155.72 42.05 155.74 40.88 155.74 40.30 C 152.22 40.33 148.70 40.42 145.18 40.52 M 158.74 40.18 C 160.96 46.31 163.99 52.38 163.38 59.12 C 164.38 59.06 165.39 59.00 166.41 58.93 C 166.23 52.05 170.58 46.61 173.20 40.63 C 168.61 40.23 167.42 44.88 165.61 48.07 C 164.54 45.53 163.51 42.98 162.53 40.41 C 161.26 40.33 160.00 40.26 158.74 40.18 M 131.69 42.13 C 132.06 48.29 133.10 54.38 134.04 60.47 C 137.61 59.91 142.58 60.90 144.54 57.00 C 142.10 56.85 139.66 56.73 137.22 56.70 C 136.57 51.85 135.77 47.03 134.94 42.21 C 134.13 42.19 132.50 42.15 131.69 42.13 M 177.27 41.87 C 175.95 47.81 174.67 53.77 174.04 59.82 C 176.97 60.47 179.92 61.30 182.95 61.19 C 185.43 61.04 188.20 58.81 187.48 56.09 C 186.72 52.74 187.74 49.47 188.06 46.16 C 186.26 42.13 180.93 42.64 177.27 41.87 M 118.16 45.81 C 119.70 51.69 121.25 57.58 123.03 63.41 C 126.09 62.64 129.14 61.82 132.19 60.99 C 132.15 60.31 132.07 58.95 132.04 58.26 C 129.97 58.59 127.90 58.90 125.84 59.24 C 124.30 54.49 122.97 49.68 121.69 44.85 C 120.51 45.17 119.33 45.48 118.16 45.81 M 199.32 47.24 C 195.30 52.10 191.20 56.91 187.56 62.07 C 188.13 62.35 189.26 62.92 189.83 63.21 C 191.18 62.29 192.47 61.24 193.98 60.57 C 195.80 60.89 197.53 61.59 199.28 62.19 C 199.50 64.99 200.38 67.73 203.45 68.38 C 203.65 61.67 203.77 54.96 203.62 48.26 C 202.18 47.91 200.75 47.57 199.32 47.24 M 106.50 49.58 C 102.94 50.49 99.49 53.38 99.24 57.25 C 99.03 61.27 100.76 65.50 104.00 67.94 C 109.65 71.59 118.72 65.83 117.15 59.03 C 116.50 54.02 112.27 47.89 106.50 49.58 M 214.59 53.76 C 211.35 58.90 208.15 64.07 204.98 69.25 C 207.84 71.54 210.97 73.60 214.60 74.43 C 213.81 71.95 212.01 70.09 210.01 68.52 C 212.27 64.22 215.13 60.27 217.26 55.91 C 216.40 55.14 215.49 54.45 214.59 53.76 M 90.20 60.72 C 91.70 64.75 93.97 68.44 95.42 72.50 C 90.90 70.69 86.64 68.32 82.34 66.08 C 81.56 66.99 80.78 67.91 80.00 68.83 C 85.59 71.91 91.14 75.06 96.91 77.80 C 98.00 76.81 99.10 75.81 100.20 74.82 C 97.70 68.61 94.88 62.52 91.58 56.69 C 90.99 57.95 89.50 59.20 90.20 60.72 M 214.28 75.25 C 216.23 77.98 218.43 80.52 220.80 82.90 C 221.48 82.27 222.16 81.64 222.84 81.00 C 221.54 79.34 220.24 77.68 218.95 76.01 C 222.58 72.61 226.27 69.27 229.88 65.84 C 229.21 64.90 228.53 63.96 227.87 63.02 C 223.15 66.88 218.76 71.12 214.28 75.25 M 71.87 113.83 C 61.90 130.60 58.62 151.18 62.81 170.23 C 66.38 187.47 76.23 203.12 89.43 214.65 C 105.06 228.37 125.35 236.62 146.09 237.86 C 139.01 236.39 131.83 234.97 125.28 231.75 C 106.54 223.01 92.29 206.09 85.13 186.86 C 73.94 157.60 78.44 122.59 97.75 97.74 C 108.67 83.66 124.58 73.10 142.31 70.18 C 149.91 69.00 157.60 70.01 165.23 69.54 C 161.82 69.25 158.40 69.31 154.98 69.32 C 122.07 67.91 88.50 85.14 71.87 113.83 M 165.90 70.03 C 170.69 71.59 175.65 72.71 180.27 74.77 C 196.85 81.98 210.16 95.66 218.20 111.72 C 232.70 140.37 231.06 176.59 213.59 203.60 C 204.14 218.24 189.87 230.04 173.07 235.12 C 166.87 237.15 160.33 237.57 153.93 238.63 C 158.72 238.71 163.51 238.28 168.17 237.17 C 184.61 234.52 200.56 228.04 213.59 217.59 C 223.03 210.65 230.18 201.08 235.91 190.96 C 243.35 177.27 245.89 161.40 245.15 145.96 C 243.36 126.60 233.70 108.57 219.95 95.05 C 205.17 81.34 186.02 72.04 165.90 70.03 M 93.36 109.39 C 93.00 113.58 92.93 117.79 92.97 122.00 C 93.22 146.24 92.60 170.49 93.29 194.72 C 98.44 195.14 103.62 195.13 108.78 194.78 C 109.32 168.17 108.79 141.55 109.05 114.94 C 108.72 113.11 109.76 110.26 107.53 109.40 C 102.88 108.41 98.06 109.07 93.36 109.39 M 141.36 109.39 C 140.80 115.58 141.00 121.79 141.00 128.00 C 141.18 150.24 140.64 172.50 141.28 194.74 C 153.83 195.32 166.41 194.82 178.98 195.02 C 179.15 203.92 178.70 212.84 179.28 221.73 C 184.44 222.13 189.62 222.12 194.78 221.78 C 195.34 195.17 194.77 168.55 195.07 141.94 C 202.42 149.25 209.77 156.57 217.02 163.98 C 218.51 165.64 220.54 166.59 222.60 167.35 C 223.33 159.57 222.92 151.73 223.04 143.92 C 222.79 142.37 223.50 140.03 221.54 139.39 C 217.09 138.55 212.51 139.09 208.01 138.97 C 190.68 139.52 173.36 138.89 156.02 138.98 C 155.74 129.42 156.44 119.82 155.75 110.28 C 151.58 107.61 146.05 109.37 141.36 109.39 M 113.02 146.02 C 112.98 161.67 112.99 177.32 113.02 192.96 C 119.11 192.46 127.11 195.12 131.46 189.48 C 137.08 181.72 137.70 171.42 136.45 162.23 C 135.32 156.56 133.45 149.98 128.04 146.98 C 123.25 145.25 118.01 146.15 113.02 146.02 M 108.03 243.85 C 107.97 247.96 107.97 252.07 108.04 256.18 C 109.91 256.07 111.79 256.06 113.63 255.70 C 117.48 253.84 114.66 249.26 114.53 246.11 C 114.33 242.81 110.19 244.34 108.03 243.85 M 121.29 244.03 C 119.71 248.05 118.12 252.08 116.79 256.21 C 118.90 254.94 120.89 252.25 123.66 253.12 C 125.31 253.93 126.71 255.16 128.21 256.21 C 126.88 252.09 125.29 248.06 123.71 244.03 C 123.11 244.03 121.90 244.03 121.29 244.03 M 129.01 244.00 C 128.98 248.02 128.98 252.05 129.02 256.07 C 131.51 256.01 134.00 255.95 136.48 255.80 C 134.68 255.34 132.85 254.99 131.04 254.62 C 131.01 251.08 130.99 247.54 130.97 243.99 C 130.48 244.00 129.50 244.00 129.01 244.00 M 137.01 244.00 C 136.98 247.99 136.98 251.99 137.02 255.98 C 139.34 256.00 141.66 256.03 143.98 256.05 L 144.01 255.10 C 142.34 255.02 140.68 254.95 139.02 254.87 C 139.01 251.25 138.99 247.62 138.98 244.00 C 138.48 244.00 137.50 244.00 137.01 244.00 M 145.01 244.00 C 144.98 248.00 144.98 252.00 145.01 256.00 C 145.49 256.00 146.46 256.02 146.94 256.02 C 146.95 253.95 147.00 251.88 147.00 249.81 C 148.70 252.30 150.50 254.78 152.93 256.62 C 151.92 254.30 150.55 252.15 149.63 249.79 C 150.43 247.52 151.81 245.52 152.84 243.37 C 150.68 245.06 148.84 247.09 147.07 249.18 C 147.01 247.44 146.96 245.71 146.90 243.98 C 146.42 243.99 145.48 244.00 145.01 244.00 M 155.01 244.00 C 154.98 247.99 154.98 251.98 155.02 255.98 C 157.34 256.00 159.67 256.03 162.01 256.06 L 161.99 255.11 C 160.33 255.03 158.67 254.95 157.02 254.87 C 157.01 251.25 156.99 247.62 156.97 244.00 C 156.48 244.00 155.50 244.00 155.01 244.00 M 162.99 244.00 C 162.99 247.20 162.71 250.44 163.27 253.62 C 164.54 256.47 168.01 256.41 170.61 255.82 C 174.62 253.32 172.56 247.88 173.02 243.99 C 172.52 243.99 171.53 243.99 171.04 243.99 C 171.04 246.94 171.18 249.90 170.86 252.84 C 170.87 255.98 165.12 255.99 165.14 252.84 C 164.81 249.90 164.96 246.94 164.96 243.99 C 164.47 243.99 163.48 244.00 162.99 244.00 M 175.03 243.85 C 174.97 247.96 174.97 252.07 175.04 256.18 C 176.91 256.07 178.79 256.06 180.64 255.70 C 184.48 253.83 181.66 249.25 181.53 246.10 C 181.33 242.81 177.19 244.34 175.03 243.85 M 185.03 243.85 C 184.97 247.96 184.97 252.07 185.04 256.18 C 187.69 255.89 191.25 256.60 192.71 253.71 C 192.46 250.69 191.94 247.67 191.14 244.75 C 189.63 243.33 186.98 244.23 185.03 243.85 M 182.08 264.30 C 180.48 267.26 185.40 264.52 182.08 264.30 M 114.65 266.01 C 115.73 266.50 116.82 266.99 117.92 267.47 C 117.97 270.98 118.01 274.49 118.05 278.01 C 118.53 278.01 119.47 278.00 119.95 278.00 C 119.99 274.49 120.03 270.98 120.08 267.46 C 121.17 266.98 122.26 266.50 123.35 266.01 C 120.45 265.97 117.55 265.97 114.65 266.01 M 125.05 265.82 C 124.96 270.13 124.82 274.46 125.34 278.76 C 126.80 277.15 127.13 275.01 127.49 272.95 C 127.95 273.03 128.87 273.19 129.33 273.27 C 130.63 275.18 132.02 277.03 133.59 278.73 C 132.16 275.37 131.73 271.82 132.72 268.28 C 131.23 265.41 127.71 266.09 125.05 265.82 M 138.39 266.25 C 134.84 267.13 134.40 271.65 135.27 274.61 C 136.29 278.57 141.85 278.96 144.67 276.68 C 146.61 273.98 146.61 270.02 144.67 267.32 C 142.90 266.01 140.50 265.52 138.39 266.25 M 148.03 265.94 C 147.98 269.96 147.98 273.98 148.01 278.00 C 148.50 278.00 149.47 278.00 149.96 278.00 C 149.98 274.88 149.99 271.77 150.07 268.65 C 151.47 271.70 152.67 274.85 154.38 277.73 C 154.69 277.74 155.31 277.76 155.62 277.76 C 157.32 274.86 158.52 271.71 159.93 268.66 C 160.01 271.77 160.02 274.89 160.04 278.00 C 160.53 278.00 161.51 278.00 162.00 278.00 C 162.02 273.98 162.02 269.96 161.96 265.94 C 161.28 265.98 159.91 266.06 159.22 266.10 C 158.04 269.00 157.04 271.98 155.63 274.79 C 155.31 274.79 154.68 274.79 154.37 274.79 C 152.97 271.98 151.96 269.00 150.78 266.10 C 150.09 266.06 148.72 265.98 148.03 265.94 M 164.13 268.37 C 163.31 271.88 168.77 272.53 169.12 275.82 C 167.41 276.87 165.31 276.50 163.41 276.70 C 165.91 278.19 169.35 278.76 170.89 275.63 C 171.71 272.00 166.54 271.28 165.80 268.12 C 167.62 267.29 169.65 267.44 171.59 267.28 C 169.09 265.83 165.65 265.22 164.13 268.37 M 174.32 267.32 C 171.70 270.66 173.34 274.92 174.89 278.32 C 176.53 278.16 178.17 278.05 179.80 277.79 C 185.29 277.31 185.28 268.94 181.56 266.21 C 179.13 265.64 176.38 265.79 174.32 267.32 M 174.26 279.10 C 174.78 279.61 174.78 279.61 174.26 279.10 Z" />
<path fill="#005596" opacity="1.00" d=" M 180.31 44.91 C 182.01 45.62 183.72 46.36 185.42 47.09 C 184.35 49.77 181.82 50.35 179.20 50.30 C 179.55 48.50 179.92 46.70 180.31 44.91 Z" />
<path fill="#005596" opacity="1.00" d=" M 194.98 57.84 C 196.59 55.72 198.28 53.66 200.08 51.70 C 200.12 54.19 200.10 56.69 200.05 59.19 C 198.35 58.74 196.66 58.29 194.98 57.84 Z" />
<path fill="#005596" opacity="1.00" d=" M 105.49 53.29 C 110.10 51.11 113.44 57.08 113.51 60.98 C 114.10 64.88 108.05 67.58 105.73 64.26 C 103.18 61.40 101.12 55.51 105.49 53.29 Z" />
<path fill="#005596" opacity="1.00" d=" M 178.87 52.51 C 180.42 52.88 181.98 53.25 183.54 53.62 C 183.65 55.08 183.76 56.53 183.87 57.99 C 181.90 58.06 179.94 58.11 177.98 58.13 C 178.26 56.25 178.56 54.38 178.87 52.51 Z" />
<path fill="#005596" opacity="1.00" d=" M 264.27 77.25 C 264.76 77.77 264.76 77.77 264.27 77.25 Z" />
<path fill="#005596" opacity="1.00" d=" M 145.03 113.00 C 147.34 113.00 149.65 113.00 151.97 113.00 C 152.02 139.00 152.02 165.00 151.97 191.00 C 149.66 191.00 147.34 191.00 145.03 191.00 C 144.98 165.00 144.98 139.00 145.03 113.00 Z" />
<path fill="#005596" opacity="1.00" d=" M 159.92 161.92 C 166.34 155.72 172.57 149.32 178.91 143.03 C 179.06 158.71 179.05 174.39 178.92 190.07 C 172.27 183.73 166.01 177.00 159.30 170.72 C 158.10 169.53 156.82 168.36 155.97 166.88 C 156.74 164.86 158.48 163.45 159.92 161.92 Z" />
<path fill="#005596" opacity="1.00" d=" M 158.09 174.99 C 163.44 180.25 168.75 185.56 174.01 190.91 C 168.68 191.05 163.35 191.03 158.02 190.98 C 157.97 185.65 157.95 180.31 158.09 174.99 Z" />
<path fill="#005596" opacity="1.00" d=" M 110.00 245.01 C 110.75 245.00 112.25 245.00 113.01 245.00 C 113.00 246.33 113.00 247.66 113.00 249.00 C 112.25 249.00 110.74 249.00 109.99 248.99 C 109.99 247.66 110.00 246.33 110.00 245.01 Z" />
<path fill="#005596" opacity="1.00" d=" M 177.00 245.00 C 177.75 245.00 179.25 245.00 180.00 245.00 C 180.00 246.33 180.00 247.66 180.00 249.00 C 179.25 249.00 177.75 249.00 177.00 248.99 C 177.00 247.66 177.00 246.33 177.00 245.00 Z" />
<path fill="#005596" opacity="1.00" d=" M 187.00 245.01 C 187.75 245.01 189.25 245.00 190.00 245.00 C 190.00 246.33 190.00 247.66 190.00 249.00 C 189.25 249.00 187.74 248.99 186.99 248.99 C 186.99 247.66 187.00 246.33 187.00 245.01 Z" />
<path fill="#005596" opacity="1.00" d=" M 120.08 252.02 C 120.95 250.00 121.78 247.96 122.58 245.91 C 123.30 247.96 124.06 250.00 124.86 252.03 C 123.27 252.02 121.67 252.02 120.08 252.02 Z" />
<path fill="#005596" opacity="1.00" d=" M 110.10 249.46 C 111.28 250.37 114.03 250.30 114.06 252.08 C 114.77 254.54 111.57 254.56 110.10 255.54 C 110.07 253.51 110.07 251.48 110.10 249.46 Z" />
<path fill="#005596" opacity="1.00" d=" M 177.10 249.46 C 178.28 250.37 181.04 250.30 181.06 252.08 C 181.77 254.55 178.57 254.56 177.10 255.54 C 177.07 253.51 177.07 251.48 177.10 249.46 Z" />
<path fill="#005596" opacity="1.00" d=" M 187.10 249.46 C 188.28 250.37 191.04 250.30 191.06 252.08 C 191.77 254.55 188.57 254.56 187.10 255.54 C 187.07 253.51 187.07 251.48 187.10 249.46 Z" />
<path fill="#005596" opacity="1.00" d=" M 127.09 266.46 C 128.56 267.44 131.79 267.45 131.06 269.92 C 131.03 271.69 128.29 271.63 127.11 272.54 C 127.07 270.51 127.07 268.48 127.09 266.46 Z" />
<path fill="#005596" opacity="1.00" d=" M 139.37 267.12 C 145.35 265.69 145.95 277.19 140.12 277.00 C 135.91 275.97 135.71 269.09 139.37 267.12 Z" />
<path fill="#005596" opacity="1.00" d=" M 175.23 269.35 C 176.16 267.46 178.46 267.23 180.22 266.57 C 179.22 269.93 178.00 273.43 175.12 275.66 C 175.06 273.56 174.84 271.43 175.23 269.35 Z" />
<path fill="#005596" opacity="1.00" d=" M 176.82 277.42 C 177.81 274.10 179.40 270.95 181.79 268.41 C 181.89 270.48 182.13 272.59 181.81 274.66 C 180.80 276.47 178.58 276.74 176.82 277.42 Z" />
<path fill="#005596" opacity="1.00" d=" M 113.53 285.13 C 114.66 284.17 115.30 284.42 115.45 285.87 C 114.32 286.81 113.68 286.57 113.53 285.13 Z" />
<path fill="#005596" opacity="1.00" d=" M 135.64 290.45 C 138.51 290.17 141.40 290.18 144.28 290.45 C 141.41 290.86 138.50 290.86 135.64 290.45 Z" />
</g>
</svg>
