<?xml version="1.0" encoding="UTF-8" ?>
<!DOCTYPE svg PUBLIC "-//W3C//DTD SVG 1.1//EN" "http://www.w3.org/Graphics/SVG/1.1/DTD/svg11.dtd">
<svg width="180pt" height="173pt" viewBox="0 0 180 173" version="1.1" xmlns="http://www.w3.org/2000/svg">
<g id="#fdfdfdff">
<path fill="#fdfdfd" opacity="1.00" d=" M 12.03 10.69 C 65.06 10.56 118.08 10.19 171.11 10.19 C 171.11 21.40 171.13 32.61 171.11 43.83 C 118.07 44.07 65.04 43.98 12.01 44.08 C 12.01 32.95 11.96 21.82 12.03 10.69 M 34.72 31.29 C 36.27 33.25 38.90 33.03 41.13 33.12 C 39.56 35.29 37.95 37.46 36.79 39.88 C 37.93 39.40 39.42 39.28 40.00 38.02 C 41.99 34.62 44.86 31.61 46.05 27.82 C 47.26 23.27 42.85 18.64 38.27 19.59 C 33.01 20.33 31.01 27.67 34.72 31.29 M 54.10 18.80 C 54.11 25.59 54.24 32.39 54.22 39.18 C 60.66 38.92 67.24 39.81 73.58 38.70 C 76.41 35.72 75.73 30.82 72.84 28.13 C 75.19 25.33 74.56 21.92 72.92 18.95 C 66.65 18.69 60.37 18.83 54.10 18.80 M 85.07 18.53 C 85.09 25.39 85.07 32.24 85.09 39.10 C 88.65 39.08 92.21 39.10 95.77 39.08 C 95.70 32.24 95.70 25.40 95.73 18.56 C 92.17 18.45 88.62 18.47 85.07 18.53 M 106.03 18.81 C 106.03 25.61 106.06 32.41 106.04 39.21 C 111.51 39.18 116.99 39.29 122.46 39.08 C 122.47 38.35 122.50 36.89 122.51 36.16 C 120.68 36.13 118.85 36.12 117.02 36.09 C 116.96 30.33 117.03 24.57 116.98 18.81 C 113.33 18.81 109.68 18.83 106.03 18.81 M 23.56 27.38 C 25.24 26.83 26.77 25.96 28.30 25.11 C 28.36 29.38 28.18 33.65 28.32 37.92 C 28.31 38.96 28.78 39.72 29.73 40.22 C 30.29 33.41 29.90 26.58 30.00 19.76 C 28.04 22.47 25.23 24.47 23.56 27.38 M 136.41 20.17 C 134.64 21.27 134.11 23.35 133.81 25.27 C 135.71 23.97 137.19 22.17 138.88 20.63 C 140.82 21.79 142.49 23.38 142.20 25.84 C 140.66 26.74 139.06 27.52 137.47 28.32 C 139.48 29.25 142.50 29.67 143.06 32.23 C 143.93 34.90 141.89 38.18 138.98 38.08 C 135.85 38.48 134.98 34.60 133.35 32.69 C 132.53 35.19 133.43 38.03 135.94 39.14 C 139.98 41.82 145.90 37.78 145.14 33.05 C 145.31 31.00 143.56 29.68 142.34 28.31 C 143.45 26.65 144.83 24.54 143.58 22.55 C 142.50 19.73 138.95 18.92 136.41 20.17 M 154.48 20.20 C 152.61 23.40 150.22 26.26 148.47 29.53 C 146.56 32.91 147.89 37.92 151.71 39.29 C 157.10 42.32 163.56 34.78 160.20 29.75 C 158.95 26.89 155.77 25.97 152.91 25.83 C 154.34 23.81 155.68 21.73 157.05 19.66 C 156.41 19.79 155.12 20.06 154.48 20.20 M 79.06 36.12 C 77.73 37.91 79.61 38.95 80.81 40.00 C 81.55 39.08 82.29 38.16 83.03 37.24 C 81.84 36.35 80.60 35.05 79.06 36.12 M 98.67 37.16 C 99.62 38.84 101.06 40.17 103.07 39.22 C 103.00 38.33 102.86 36.57 102.79 35.68 C 101.36 36.01 99.98 36.52 98.67 37.16 M 126.30 36.39 C 126.21 36.96 126.04 38.10 125.96 38.67 C 126.45 39.01 127.42 39.70 127.91 40.04 C 128.49 39.69 129.64 38.97 130.21 38.61 C 129.83 37.67 129.43 36.73 129.04 35.80 C 128.35 35.94 126.98 36.24 126.30 36.39 Z" />
<path fill="#fdfdfd" opacity="1.00" d=" M 34.86 26.88 C 33.86 23.31 38.11 19.77 41.33 21.62 C 45.27 23.17 44.84 28.96 41.71 31.15 C 38.73 31.66 34.81 30.45 34.86 26.88 Z" />
<path fill="#fdfdfd" opacity="1.00" d=" M 64.19 21.65 C 67.04 22.83 67.01 26.18 64.22 27.41 C 64.05 25.49 64.04 23.56 64.19 21.65 Z" />
<path fill="#fdfdfd" opacity="1.00" d=" M 152.42 28.21 C 157.81 25.92 161.64 34.08 157.04 37.17 C 153.59 40.16 148.11 35.60 149.69 31.67 C 150.02 30.15 151.24 29.10 152.42 28.21 Z" />
<path fill="#fdfdfd" opacity="1.00" d=" M 64.18 29.73 C 67.02 30.15 67.59 32.52 67.22 35.03 C 66.18 35.29 65.14 35.54 64.09 35.79 C 64.00 33.77 64.03 31.75 64.18 29.73 Z" />
<path fill="#fdfdfd" opacity="1.00" d=" M 12.01 47.47 C 16.07 47.50 20.14 47.48 24.20 47.48 C 24.50 68.12 24.71 88.77 24.97 109.41 C 16.79 97.00 13.64 81.99 12.63 67.37 C 11.48 60.80 12.18 54.09 12.01 47.47 Z" />
<path fill="#fdfdfd" opacity="1.00" d=" M 51.93 47.38 C 58.13 47.35 64.34 47.34 70.54 47.34 C 70.38 83.03 70.98 118.72 70.46 154.41 C 63.61 151.73 57.93 146.91 52.04 142.64 C 51.82 110.89 51.89 79.13 51.93 47.38 Z" />
<path fill="#fdfdfd" opacity="1.00" d=" M 112.01 47.29 C 118.71 47.20 125.42 47.20 132.12 47.20 C 132.19 77.82 132.18 108.44 132.29 139.06 C 132.28 140.73 132.55 142.81 130.81 143.78 C 125.41 148.17 119.24 151.59 112.85 154.32 C 112.69 122.53 112.90 90.74 112.73 58.95 C 112.68 55.05 112.27 51.18 112.01 47.29 Z" />
<path fill="#fdfdfd" opacity="1.00" d=" M 158.14 47.16 C 162.42 47.10 166.69 47.11 170.97 47.11 C 171.00 68.07 169.77 90.52 158.17 108.70 C 158.06 88.19 158.14 67.67 158.14 47.16 Z" />
</g>
<g id="#000000ff">
<path fill="#000000" opacity="1.00" d=" M 7.65 6.80 C 63.64 6.59 119.64 6.56 175.63 6.30 C 175.64 25.55 175.72 44.80 175.72 64.05 C 175.41 107.33 146.37 148.84 105.60 163.58 C 100.56 165.14 95.44 167.74 90.05 167.16 C 53.53 157.75 22.08 128.68 12.06 92.01 C 9.36 82.92 9.19 73.40 8.05 64.07 C 7.87 56.70 8.18 49.33 7.80 41.97 C 7.61 30.25 8.32 18.52 7.65 6.80 M 12.03 10.69 C 11.96 21.82 12.01 32.95 12.01 44.08 C 65.04 43.98 118.07 44.07 171.11 43.83 C 171.13 32.61 171.11 21.40 171.11 10.19 C 118.08 10.19 65.06 10.56 12.03 10.69 M 12.01 47.47 C 12.18 54.09 11.48 60.80 12.63 67.37 C 13.64 81.99 16.79 97.00 24.97 109.41 C 24.71 88.77 24.50 68.12 24.20 47.48 C 20.14 47.48 16.07 47.50 12.01 47.47 M 51.93 47.38 C 51.89 79.13 51.82 110.89 52.04 142.64 C 57.93 146.91 63.61 151.73 70.46 154.41 C 70.98 118.72 70.38 83.03 70.54 47.34 C 64.34 47.34 58.13 47.35 51.93 47.38 M 112.01 47.29 C 112.27 51.18 112.68 55.05 112.73 58.95 C 112.90 90.74 112.69 122.53 112.85 154.32 C 119.24 151.59 125.41 148.17 130.81 143.78 C 132.55 142.81 132.28 140.73 132.29 139.06 C 132.18 108.44 132.19 77.82 132.12 47.20 C 125.42 47.20 118.71 47.20 112.01 47.29 M 158.14 47.16 C 158.14 67.67 158.06 88.19 158.17 108.70 C 169.77 90.52 171.00 68.07 170.97 47.11 C 166.69 47.11 162.42 47.10 158.14 47.16 Z" />
<path fill="#000000" opacity="1.00" d=" M 34.72 31.29 C 31.01 27.67 33.01 20.33 38.27 19.59 C 42.85 18.64 47.26 23.27 46.05 27.82 C 44.86 31.61 41.99 34.62 40.00 38.02 C 39.42 39.28 37.93 39.40 36.79 39.88 C 37.95 37.46 39.56 35.29 41.13 33.12 C 38.90 33.03 36.27 33.25 34.72 31.29 M 34.86 26.88 C 34.81 30.45 38.73 31.66 41.71 31.15 C 44.84 28.96 45.27 23.17 41.33 21.62 C 38.11 19.77 33.86 23.31 34.86 26.88 Z" />
<path fill="#000000" opacity="1.00" d=" M 54.10 18.80 C 60.37 18.83 66.65 18.69 72.92 18.95 C 74.56 21.92 75.19 25.33 72.84 28.13 C 75.73 30.82 76.41 35.72 73.58 38.70 C 67.24 39.81 60.66 38.92 54.22 39.18 C 54.24 32.39 54.11 25.59 54.10 18.80 M 64.19 21.65 C 64.04 23.56 64.05 25.49 64.22 27.41 C 67.01 26.18 67.04 22.83 64.19 21.65 M 64.18 29.73 C 64.03 31.75 64.00 33.77 64.09 35.79 C 65.14 35.54 66.18 35.29 67.22 35.03 C 67.59 32.52 67.02 30.15 64.18 29.73 Z" />
<path fill="#000000" opacity="1.00" d=" M 85.07 18.53 C 88.62 18.47 92.17 18.45 95.73 18.56 C 95.70 25.40 95.70 32.24 95.77 39.08 C 92.21 39.10 88.65 39.08 85.09 39.10 C 85.07 32.24 85.09 25.39 85.07 18.53 Z" />
<path fill="#000000" opacity="1.00" d=" M 106.03 18.81 C 109.68 18.83 113.33 18.81 116.98 18.81 C 117.03 24.57 116.96 30.33 117.02 36.09 C 118.85 36.12 120.68 36.13 122.51 36.16 C 122.50 36.89 122.47 38.35 122.46 39.08 C 116.99 39.29 111.51 39.18 106.04 39.21 C 106.06 32.41 106.03 25.61 106.03 18.81 Z" />
<path fill="#000000" opacity="1.00" d=" M 23.56 27.38 C 25.23 24.47 28.04 22.47 30.00 19.76 C 29.90 26.58 30.29 33.41 29.73 40.22 C 28.78 39.72 28.31 38.96 28.32 37.92 C 28.18 33.65 28.36 29.38 28.30 25.11 C 26.77 25.96 25.24 26.83 23.56 27.38 Z" />
<path fill="#000000" opacity="1.00" d=" M 136.41 20.17 C 138.95 18.92 142.50 19.73 143.58 22.55 C 144.83 24.54 143.45 26.65 142.34 28.31 C 143.56 29.68 145.31 31.00 145.14 33.05 C 145.90 37.78 139.98 41.82 135.94 39.14 C 133.43 38.03 132.53 35.19 133.35 32.69 C 134.98 34.60 135.85 38.48 138.98 38.08 C 141.89 38.18 143.93 34.90 143.06 32.23 C 142.50 29.67 139.48 29.25 137.47 28.32 C 139.06 27.52 140.66 26.74 142.20 25.84 C 142.49 23.38 140.82 21.79 138.88 20.63 C 137.19 22.17 135.71 23.97 133.81 25.27 C 134.11 23.35 134.64 21.27 136.41 20.17 Z" />
<path fill="#000000" opacity="1.00" d=" M 154.48 20.20 C 155.12 20.06 156.41 19.79 157.05 19.66 C 155.68 21.73 154.34 23.81 152.91 25.83 C 155.77 25.97 158.95 26.89 160.20 29.75 C 163.56 34.78 157.10 42.32 151.71 39.29 C 147.89 37.92 146.56 32.91 148.47 29.53 C 150.22 26.26 152.61 23.40 154.48 20.20 M 152.42 28.21 C 151.24 29.10 150.02 30.15 149.69 31.67 C 148.11 35.60 153.59 40.16 157.04 37.17 C 161.64 34.08 157.81 25.92 152.42 28.21 Z" />
<path fill="#000000" opacity="1.00" d=" M 79.06 36.12 C 80.60 35.05 81.84 36.35 83.03 37.24 C 82.29 38.16 81.55 39.08 80.81 40.00 C 79.61 38.95 77.73 37.91 79.06 36.12 Z" />
<path fill="#000000" opacity="1.00" d=" M 98.67 37.16 C 99.98 36.52 101.36 36.01 102.79 35.68 C 102.86 36.57 103.00 38.33 103.07 39.22 C 101.06 40.17 99.62 38.84 98.67 37.16 Z" />
<path fill="#000000" opacity="1.00" d=" M 126.30 36.39 C 126.98 36.24 128.35 35.94 129.04 35.80 C 129.43 36.73 129.83 37.67 130.21 38.61 C 129.64 38.97 128.49 39.69 127.91 40.04 C 127.42 39.70 126.45 39.01 125.96 38.67 C 126.04 38.10 126.21 36.96 126.30 36.39 Z" />
</g>
</svg>
