<?xml version="1.0" encoding="UTF-8" ?>
<!DOCTYPE svg PUBLIC "-//W3C//DTD SVG 1.1//EN" "http://www.w3.org/Graphics/SVG/1.1/DTD/svg11.dtd">
<svg width="300pt" height="300pt" viewBox="0 0 300 300" version="1.1" xmlns="http://www.w3.org/2000/svg">
<g id="#000000ff">
<path fill="#000000" opacity="1.00" d=" M 95.89 11.86 C 111.73 5.55 128.70 2.48 145.68 1.52 C 145.53 2.77 146.11 4.28 145.26 5.36 C 141.16 10.63 134.66 13.58 128.10 14.22 C 115.19 16.00 102.97 20.63 90.92 25.35 C 89.98 21.65 90.47 17.77 92.24 14.38 C 93.04 13.06 94.57 12.49 95.89 11.86 Z" />
<path fill="#000000" opacity="1.00" d=" M 152.55 1.50 C 168.71 2.10 184.76 5.04 200.07 10.31 C 202.04 14.00 204.12 17.99 203.13 22.32 C 200.55 21.95 198.07 21.19 195.64 20.27 C 186.05 16.78 176.01 14.62 165.89 13.35 C 160.74 12.96 156.21 9.89 152.73 6.25 C 151.23 5.00 152.44 3.06 152.55 1.50 Z" />
<path fill="#000000" opacity="1.00" d=" M 148.41 8.00 C 152.13 11.12 155.99 14.06 159.72 17.17 C 156.13 20.13 152.41 22.93 148.71 25.74 C 144.89 23.05 140.93 20.58 137.07 17.96 C 140.84 14.63 144.62 11.30 148.41 8.00 Z" />
<path fill="#000000" opacity="1.00" d=" M 207.52 21.39 C 205.93 18.82 205.99 15.71 207.55 13.14 C 223.27 20.48 238.55 29.42 250.93 41.72 C 252.50 46.63 252.75 51.89 251.68 56.93 C 242.87 48.47 233.82 40.12 223.36 33.69 C 217.89 29.91 210.63 27.79 207.52 21.39 Z" />
<path fill="#000000" opacity="1.00" d=" M 71.94 23.85 C 76.08 21.28 80.27 18.66 84.97 17.23 C 86.22 18.63 87.00 20.47 86.22 22.31 C 84.00 28.82 77.89 32.82 72.45 36.48 C 62.64 43.17 53.75 51.16 45.91 60.07 C 45.15 60.00 43.63 59.85 42.87 59.78 C 41.88 56.05 41.91 52.16 41.69 48.34 C 50.80 39.06 60.87 30.69 71.94 23.85 Z" />
<path fill="#000000" opacity="1.00" d=" M 90.35 31.40 C 100.96 26.06 112.30 22.08 123.97 19.85 C 131.77 18.48 139.08 22.51 145.11 27.01 C 144.77 27.46 144.10 28.36 143.76 28.81 C 130.33 29.63 117.02 32.49 104.55 37.55 C 99.62 39.55 94.56 36.88 90.16 34.79 C 88.25 34.36 88.64 31.82 90.35 31.40 Z" />
<path fill="#000000" opacity="1.00" d=" M 155.40 24.43 C 161.67 20.36 169.49 18.41 176.88 19.97 C 185.55 21.75 194.01 24.46 202.17 27.89 C 203.71 28.52 205.07 29.50 206.43 30.44 C 203.01 34.85 196.58 36.55 191.20 35.85 C 180.47 32.19 169.32 29.65 157.98 29.00 C 156.34 28.95 154.59 28.82 153.26 27.74 C 152.77 26.15 154.26 25.19 155.40 24.43 Z" />
<path fill="#000000" opacity="1.00" d=" M 201.84 37.09 C 209.92 34.87 218.51 37.57 225.69 41.36 C 233.63 46.11 240.42 52.59 246.78 59.26 C 248.73 60.92 249.16 64.47 246.73 65.93 C 242.64 66.81 237.83 66.39 234.74 63.29 C 225.25 54.05 214.26 46.40 202.36 40.58 C 201.04 39.98 201.90 38.19 201.84 37.09 Z" />
<path fill="#000000" opacity="1.00" d=" M 55.71 56.71 C 63.33 49.51 71.08 40.73 82.06 39.24 C 85.15 38.77 88.37 38.81 91.37 39.74 C 92.65 39.88 93.40 40.59 93.63 41.88 C 92.25 43.49 90.34 44.45 88.56 45.51 C 79.46 50.79 71.18 57.40 63.71 64.78 C 62.03 66.54 59.52 66.88 57.28 67.45 C 53.84 68.15 50.39 69.39 46.83 68.73 C 47.64 63.55 52.51 60.45 55.71 56.71 Z" />
<path fill="#000000" opacity="1.00" d=" M 174.86 55.07 C 178.38 53.09 181.58 49.81 185.93 49.96 C 187.88 49.80 189.26 51.50 189.92 53.13 C 188.60 58.80 185.52 63.86 183.08 69.09 C 190.28 74.82 195.39 83.63 195.02 93.02 C 194.48 98.38 192.77 103.94 188.79 107.77 C 182.95 113.59 174.54 117.69 166.15 115.89 C 162.86 115.17 158.35 113.96 158.02 109.91 C 158.08 106.29 158.38 101.75 161.38 99.31 C 165.14 98.83 168.95 99.24 172.74 99.06 C 174.67 96.70 176.62 94.08 176.84 90.92 C 176.49 86.92 174.06 83.19 174.81 79.08 C 175.42 76.42 177.07 74.10 177.36 71.34 C 174.59 73.53 174.05 77.26 172.02 80.01 C 170.80 82.25 168.25 83.09 166.25 84.44 C 168.23 86.17 169.56 88.34 169.21 91.06 C 166.57 92.36 164.06 91.04 161.79 89.65 C 159.63 93.20 155.54 96.46 156.20 101.00 C 156.48 104.69 156.18 108.80 153.75 111.78 C 151.31 113.61 146.62 113.86 145.54 110.37 C 143.49 106.53 144.14 102.16 144.81 98.07 C 143.70 94.85 141.78 91.96 139.76 89.25 C 137.22 85.48 132.08 85.25 129.27 81.76 C 125.28 78.53 123.83 73.57 122.06 68.99 C 118.59 68.66 114.11 69.46 111.70 66.31 C 110.23 63.56 109.29 60.55 108.29 57.60 C 107.77 55.91 107.54 53.33 109.59 52.58 C 113.60 51.33 118.07 52.16 121.68 54.21 C 123.33 54.90 124.94 56.33 126.85 55.92 C 139.33 53.02 152.30 52.87 165.00 54.14 C 168.26 54.62 171.55 55.55 174.86 55.07 Z" />
<path fill="#000000" opacity="1.00" d=" M 256.63 54.65 C 257.85 52.04 260.80 53.42 262.93 53.67 C 273.03 66.23 281.55 80.05 287.75 94.94 C 288.21 99.58 286.48 104.02 283.91 107.81 C 283.22 107.86 281.82 107.98 281.12 108.03 C 275.80 93.07 268.70 78.63 258.84 66.10 C 256.22 63.03 254.92 58.40 256.63 54.65 Z" />
<path fill="#000000" opacity="1.00" d=" M 36.29 55.49 C 37.54 56.79 39.52 57.99 39.10 60.09 C 38.61 67.96 34.86 75.15 30.70 81.70 C 25.56 90.13 22.41 99.51 18.48 108.51 C 16.14 107.35 13.58 106.04 12.45 103.53 C 11.59 101.33 11.63 98.92 11.44 96.60 C 15.33 86.94 20.06 77.58 25.78 68.86 C 28.90 64.12 32.08 59.34 36.29 55.49 Z" />
<path fill="#000000" opacity="1.00" d=" M 52.52 71.62 C 53.51 71.27 54.51 71.21 55.54 71.44 C 57.03 73.16 54.86 74.61 54.03 76.04 C 46.77 85.33 41.08 95.79 36.76 106.74 C 35.98 109.30 33.12 109.90 31.07 111.13 C 28.78 112.13 26.67 113.74 24.14 114.11 C 22.20 112.86 23.38 110.58 23.85 108.87 C 27.22 98.86 31.50 89.08 37.24 80.20 C 40.71 75.07 46.86 73.21 52.52 71.62 Z" />
<path fill="#000000" opacity="1.00" d=" M 116.41 71.33 C 118.07 70.75 120.35 71.14 121.11 72.91 C 122.42 75.87 124.06 78.80 124.53 82.03 C 123.70 86.55 120.59 90.94 122.27 95.69 C 124.02 99.80 128.97 100.80 132.98 100.67 C 135.24 100.81 138.54 99.48 139.63 102.32 C 140.71 105.54 143.89 109.38 141.80 112.71 C 134.82 116.10 126.18 117.58 118.99 114.01 C 112.45 110.86 108.22 104.22 106.67 97.28 C 105.49 92.00 104.58 86.14 107.15 81.10 C 109.22 77.10 112.23 73.23 116.41 71.33 Z" />
<path fill="#000000" opacity="1.00" d=" M 243.68 71.26 C 245.63 70.99 247.73 70.42 249.62 71.33 C 257.37 75.11 264.00 81.32 267.86 89.08 C 271.47 96.18 274.70 103.55 276.73 111.27 C 277.38 113.00 276.48 114.70 275.93 116.32 C 271.09 114.87 265.41 112.70 263.54 107.54 C 259.45 96.94 254.11 86.80 247.26 77.73 C 245.77 75.75 244.03 73.81 243.68 71.26 Z" />
<path fill="#000000" opacity="1.00" d=" M 131.38 87.28 C 135.02 85.35 136.69 92.42 132.88 92.88 C 129.78 93.61 128.72 88.38 131.38 87.28 Z" />
<path fill="#000000" opacity="1.00" d=" M 7.82 107.39 C 10.06 107.71 12.60 108.11 13.66 110.41 C 15.84 114.85 16.15 120.10 14.93 124.87 C 11.96 139.21 12.67 153.94 13.46 168.46 C 8.45 166.11 4.11 162.35 1.64 157.33 C 0.77 140.49 3.10 123.56 7.82 107.39 Z" />
<path fill="#000000" opacity="1.00" d=" M 191.25 108.03 C 191.89 108.08 193.17 108.17 193.81 108.22 C 195.07 112.86 195.16 117.68 195.79 122.43 C 198.69 155.25 196.10 188.44 189.62 220.70 C 197.92 223.18 204.24 229.72 207.84 237.42 C 208.14 239.11 208.50 241.66 206.41 242.31 C 201.20 244.83 196.03 247.78 192.34 252.37 C 190.42 254.41 188.53 257.74 185.23 257.02 C 181.52 255.40 178.24 252.42 174.00 252.35 C 168.17 252.97 163.53 258.90 157.31 256.95 C 154.05 254.79 153.45 250.12 149.88 248.21 C 145.20 245.60 140.91 242.34 136.24 239.75 C 134.51 238.52 133.01 240.70 131.55 241.42 C 135.39 247.37 141.35 251.98 148.25 253.75 C 151.67 254.50 155.88 257.47 154.78 261.45 C 152.49 263.68 149.47 265.22 147.79 268.05 C 148.15 269.52 149.13 270.69 149.95 271.92 C 153.87 270.04 156.41 266.44 159.58 263.62 C 163.30 260.26 168.35 257.35 173.54 258.41 C 183.55 260.74 189.74 270.40 199.81 272.74 C 196.94 269.34 192.93 266.80 190.96 262.70 C 189.58 260.23 192.05 258.14 193.83 256.80 C 198.47 253.45 203.06 250.02 207.57 246.50 C 210.44 244.11 214.56 243.39 218.01 244.89 C 225.18 247.82 231.50 252.64 236.75 258.30 C 239.03 260.66 239.21 264.07 239.24 267.16 C 238.77 268.59 237.55 269.55 236.40 270.44 C 214.48 286.04 188.33 295.82 161.46 297.78 C 151.16 299.24 140.75 298.20 130.48 297.01 C 115.93 295.06 101.68 290.95 88.31 284.87 C 77.99 280.24 68.45 274.08 59.21 267.61 C 45.48 257.19 33.76 244.18 24.53 229.64 C 22.62 226.58 20.07 223.88 19.04 220.35 C 13.67 209.22 8.89 197.74 5.98 185.70 C 4.65 180.17 3.06 174.60 3.38 168.86 C 4.02 168.32 5.31 167.26 5.95 166.72 C 8.54 168.91 11.17 171.14 13.08 173.97 C 16.59 179.01 16.90 185.37 18.93 191.03 C 21.89 201.10 26.77 210.41 31.38 219.78 C 26.54 219.79 21.94 218.21 17.57 216.29 C 18.61 219.33 20.22 222.20 22.40 224.57 C 23.38 223.56 24.44 222.11 26.07 222.75 C 32.72 224.08 37.55 229.35 41.71 234.33 C 47.28 241.34 53.43 247.91 60.25 253.72 C 61.97 255.42 64.71 257.03 64.01 259.85 C 63.34 263.50 58.99 264.15 55.98 264.74 C 58.48 266.72 60.95 268.74 63.60 270.53 C 63.90 267.96 63.02 264.89 64.82 262.72 C 68.97 257.29 73.83 252.35 79.50 248.52 C 82.25 246.85 85.52 245.69 88.76 246.06 C 93.00 246.99 95.32 250.99 98.45 253.60 C 100.58 255.58 103.47 256.27 106.16 257.14 C 102.60 251.19 97.62 246.31 91.69 242.74 C 91.95 240.65 92.26 238.44 93.82 236.87 C 97.00 233.38 100.35 229.68 104.85 227.92 C 108.82 226.25 113.13 227.62 117.27 227.23 C 116.24 222.28 114.63 217.48 113.48 212.56 C 108.33 191.40 105.53 169.68 104.80 147.93 C 104.17 136.67 104.05 125.35 104.97 114.11 C 105.09 111.46 106.98 109.41 109.25 108.27 C 112.05 111.94 114.81 115.99 119.26 117.79 C 125.27 120.20 132.06 120.45 138.37 119.20 C 141.95 118.56 145.13 116.08 148.90 116.58 C 152.20 116.78 155.59 115.71 158.78 117.01 C 165.12 119.30 172.22 121.41 178.82 118.82 C 184.31 117.08 187.63 112.14 191.25 108.03 M 138.63 137.62 C 137.53 141.85 137.93 146.41 138.29 150.74 C 140.72 157.78 151.20 151.62 153.82 158.17 C 154.19 162.36 154.18 166.64 153.72 170.83 C 153.23 174.38 149.25 175.95 146.08 175.17 C 142.67 174.87 142.32 170.39 139.20 169.42 C 138.38 172.50 139.15 176.44 142.57 177.46 C 146.65 178.35 150.91 177.86 155.05 177.85 C 159.30 177.80 164.23 174.78 163.99 170.07 C 163.83 165.84 164.72 161.53 163.77 157.37 C 159.77 152.74 152.83 152.12 147.06 152.07 C 147.15 147.35 146.64 142.50 147.86 137.89 C 148.63 134.82 152.42 134.64 155.00 134.63 C 158.77 134.39 159.36 140.28 163.24 139.45 C 163.61 134.10 157.53 131.70 153.06 131.91 C 147.85 131.57 140.99 132.07 138.63 137.62 M 178.94 134.26 C 178.61 141.50 179.15 148.75 178.98 156.00 C 179.14 172.59 176.88 189.07 174.54 205.45 C 176.06 205.85 178.35 207.87 179.33 205.60 C 180.41 202.78 180.02 199.58 180.73 196.64 C 182.43 177.86 182.35 158.95 181.33 140.13 C 180.96 138.01 181.72 134.89 178.94 134.26 M 120.21 135.14 C 119.48 149.47 121.10 163.80 122.04 178.09 C 123.39 187.57 123.02 197.28 125.58 206.60 C 126.43 206.38 128.14 205.93 129.00 205.71 C 129.19 201.41 128.60 197.15 128.12 192.89 C 125.45 174.83 124.44 156.53 121.45 138.51 C 121.15 137.34 120.74 136.22 120.21 135.14 M 128.92 211.94 C 126.91 212.64 123.34 212.30 123.42 215.28 C 123.24 220.27 123.80 225.70 126.97 229.77 C 127.89 226.98 128.15 223.74 131.19 222.39 C 132.15 225.97 132.08 230.40 135.84 232.36 C 138.15 229.28 134.93 223.27 139.92 222.57 C 140.80 225.41 141.44 228.46 143.73 230.56 C 145.00 228.92 145.72 227.07 145.16 225.00 C 144.24 220.76 147.45 216.51 145.60 212.40 C 142.86 211.22 139.68 212.34 137.02 210.86 C 134.30 209.08 131.65 211.54 128.92 211.94 M 152.62 214.70 C 155.90 219.09 162.06 217.04 166.71 217.91 C 167.88 219.55 168.73 221.53 170.41 222.75 C 171.88 223.24 173.37 222.36 174.81 222.12 C 175.73 223.48 176.67 224.84 177.66 226.16 C 180.61 222.57 182.00 217.24 180.00 212.88 C 177.26 212.56 174.25 212.92 171.98 211.05 C 169.47 208.65 166.26 211.31 163.34 210.71 C 159.31 209.92 155.75 212.55 152.62 214.70 M 178.53 231.57 C 180.73 238.08 185.67 243.71 192.30 245.86 C 192.48 242.80 189.87 241.02 188.13 238.94 C 185.39 235.99 182.80 232.27 178.53 231.57 M 116.65 255.68 C 111.40 257.55 107.45 261.71 103.57 265.53 C 100.08 269.51 95.96 273.52 94.74 278.85 C 101.77 274.38 105.98 266.18 113.92 262.95 C 119.48 260.57 126.09 262.48 130.21 266.72 C 134.86 271.44 140.03 275.61 144.67 280.33 C 150.12 285.98 158.32 286.65 165.32 289.24 C 165.08 286.69 162.68 285.50 160.80 284.23 C 157.78 282.14 153.49 282.94 150.84 280.16 C 148.75 277.90 147.10 275.24 144.74 273.22 C 141.99 270.58 138.20 269.24 135.76 266.25 C 133.66 263.64 132.37 260.40 129.78 258.20 C 126.22 255.22 121.05 253.98 116.65 255.68 Z" />
<path fill="#000000" opacity="1.00" d=" M 285.04 117.15 C 285.84 113.59 287.88 109.50 292.09 109.53 C 295.32 117.57 296.30 126.29 297.40 134.83 C 297.50 140.95 299.42 147.19 297.81 153.24 C 296.05 159.31 292.55 165.20 286.60 167.92 C 287.17 156.20 288.01 144.37 286.27 132.71 C 285.74 127.54 284.16 122.38 285.04 117.15 Z" />
<path fill="#000000" opacity="1.00" d=" M 29.16 115.25 C 30.27 114.11 31.89 114.04 33.34 113.69 C 33.40 115.40 33.42 117.13 32.93 118.79 C 30.11 129.61 28.62 140.82 28.98 152.01 C 29.02 155.18 29.35 158.61 27.52 161.40 C 25.43 164.56 23.92 168.67 19.95 169.89 C 19.00 168.42 18.24 166.81 18.23 165.03 C 17.86 158.07 16.90 151.11 17.55 144.14 C 18.14 138.65 17.86 132.99 19.69 127.71 C 21.46 122.69 25.08 118.55 29.16 115.25 Z" />
<path fill="#000000" opacity="1.00" d=" M 267.87 119.75 C 272.57 120.87 275.66 124.90 278.43 128.56 C 283.79 135.88 282.16 145.47 282.45 153.97 C 281.83 160.07 283.06 168.13 277.44 172.23 C 274.25 169.22 272.15 165.14 271.02 160.95 C 270.67 152.32 271.71 143.58 270.15 135.02 C 269.79 129.86 268.13 124.91 267.87 119.75 Z" />
<path fill="#000000" opacity="1.00" d=" M 51.96 134.69 C 58.27 131.86 65.38 133.07 72.07 133.02 C 76.84 132.98 82.79 134.47 84.54 139.50 C 86.61 144.74 84.25 150.11 81.75 154.72 C 86.41 158.71 90.08 165.05 88.20 171.31 C 87.02 176.46 81.41 178.63 76.79 179.70 C 71.90 180.42 66.93 179.92 62.00 180.07 C 57.96 179.92 53.78 180.58 49.86 179.33 C 49.87 178.54 49.90 176.98 49.91 176.19 C 51.84 175.21 54.97 174.69 54.91 171.92 C 55.02 161.63 54.94 151.32 54.95 141.03 C 55.09 138.53 52.91 136.81 51.96 134.69 M 65.03 137.60 C 65.03 142.74 65.05 147.88 65.01 153.02 C 68.14 153.00 72.93 153.85 73.82 149.74 C 74.02 146.28 74.67 142.37 72.76 139.26 C 71.12 136.72 67.56 137.93 65.03 137.60 M 65.05 156.98 C 65.00 163.33 65.05 169.67 65.02 176.02 C 68.53 176.05 73.01 176.56 75.23 173.16 C 77.46 169.13 77.66 163.74 75.29 159.73 C 73.11 156.17 68.56 157.09 65.05 156.98 Z" />
<path fill="#000000" opacity="1.00" d=" M 217.08 135.75 C 216.26 134.20 217.85 133.34 219.21 133.35 C 224.71 133.20 230.22 133.35 235.72 133.33 C 236.04 133.78 236.69 134.70 237.02 135.15 C 234.93 137.82 231.62 140.20 231.83 143.96 C 231.85 154.87 231.66 165.79 231.96 176.70 C 234.19 178.22 236.67 179.67 236.20 182.79 C 230.15 183.22 224.07 182.90 218.01 183.01 C 217.95 182.19 217.83 180.54 217.77 179.72 C 219.45 178.49 221.93 177.43 221.91 174.99 C 222.08 164.66 221.97 154.32 221.96 143.98 C 222.08 140.48 219.17 138.14 217.08 135.75 Z" />
<path fill="#000000" opacity="1.00" d=" M 24.14 171.22 C 24.81 168.97 26.80 167.60 28.79 166.61 C 29.43 167.85 30.37 168.98 30.66 170.38 C 32.45 180.90 35.64 191.19 40.19 200.85 C 43.09 206.53 41.38 213.70 37.43 218.43 C 34.96 216.44 33.65 213.48 32.21 210.74 C 28.36 203.17 25.04 195.30 22.79 187.11 C 21.23 181.86 22.49 176.28 24.14 171.22 Z" />
<path fill="#000000" opacity="1.00" d=" M 270.23 168.65 C 275.13 176.47 278.04 186.62 274.45 195.55 C 271.63 203.27 268.16 210.77 263.76 217.72 C 263.08 217.82 261.72 218.01 261.04 218.11 C 259.88 212.51 257.06 206.37 259.84 200.83 C 263.01 193.93 265.62 186.77 267.44 179.40 C 268.38 175.82 268.83 172.10 270.23 168.65 Z" />
<path fill="#000000" opacity="1.00" d=" M 284.70 177.69 C 286.16 172.50 291.38 169.18 296.51 168.52 C 296.79 173.53 295.48 178.41 294.39 183.25 C 291.79 193.66 288.63 204.09 283.62 213.61 C 279.91 217.24 274.70 219.30 269.50 218.37 C 273.15 210.34 277.38 202.55 280.04 194.09 C 282.02 188.75 283.13 183.15 284.70 177.69 Z" />
<path fill="#000000" opacity="1.00" d=" M 43.50 212.29 C 45.22 210.34 46.58 213.18 47.58 214.43 C 54.06 224.64 62.04 233.90 71.25 241.74 C 73.18 243.57 75.95 245.75 74.96 248.78 C 73.47 251.90 69.01 254.53 65.88 252.14 C 58.55 246.54 52.14 239.80 46.49 232.54 C 42.64 226.77 40.51 218.86 43.50 212.29 Z" />
<path fill="#000000" opacity="1.00" d=" M 252.45 214.39 C 253.00 212.99 254.49 212.90 255.75 212.58 C 258.73 219.14 257.90 227.56 253.17 233.12 C 248.60 238.53 243.95 243.94 238.50 248.48 C 235.86 250.97 231.25 250.87 228.81 248.16 C 226.99 246.25 227.08 242.89 229.27 241.29 C 238.21 233.47 246.12 224.45 252.45 214.39 Z" />
<path fill="#000000" opacity="1.00" d=" M 264.02 226.99 C 267.36 223.39 272.00 221.22 276.85 220.70 C 277.47 221.78 278.09 222.88 278.70 223.97 C 272.59 233.25 266.44 242.59 258.70 250.62 C 254.73 254.89 250.78 259.35 245.71 262.36 C 242.48 260.98 239.84 258.66 237.65 255.95 C 242.29 251.17 247.58 247.05 251.85 241.90 C 256.35 237.29 259.85 231.86 264.02 226.99 Z" />
</g>
<g id="#ffffffff">
<path fill="#ffffff" opacity="1.00" d=" M 145.68 1.52 C 147.97 1.59 150.26 1.58 152.55 1.50 C 152.44 3.06 151.23 5.00 152.73 6.25 C 156.21 9.89 160.74 12.96 165.89 13.35 C 176.01 14.62 186.05 16.78 195.64 20.27 C 198.07 21.19 200.55 21.95 203.13 22.32 C 204.12 17.99 202.04 14.00 200.07 10.31 C 202.53 11.34 205.01 12.32 207.55 13.14 C 205.99 15.71 205.93 18.82 207.52 21.39 C 210.63 27.79 217.89 29.91 223.36 33.69 C 233.82 40.12 242.87 48.47 251.68 56.93 C 252.75 51.89 252.50 46.63 250.93 41.72 C 255.64 44.96 258.76 49.85 262.93 53.67 C 260.80 53.42 257.85 52.04 256.63 54.65 C 254.92 58.40 256.22 63.03 258.84 66.10 C 268.70 78.63 275.80 93.07 281.12 108.03 C 281.82 107.98 283.22 107.86 283.91 107.81 C 286.48 104.02 288.21 99.58 287.75 94.94 C 289.49 99.73 290.92 104.64 292.86 109.36 L 292.09 109.53 C 287.88 109.50 285.84 113.59 285.04 117.15 C 284.16 122.38 285.74 127.54 286.27 132.71 C 288.01 144.37 287.17 156.20 286.60 167.92 C 292.55 165.20 296.05 159.31 297.81 153.24 L 298.24 152.12 C 298.51 157.54 297.00 162.89 297.45 168.35 L 296.51 168.52 C 291.38 169.18 286.16 172.50 284.70 177.69 C 283.13 183.15 282.02 188.75 280.04 194.09 C 277.38 202.55 273.15 210.34 269.50 218.37 C 274.70 219.30 279.91 217.24 283.62 213.61 C 282.22 217.18 280.26 220.48 278.70 223.97 C 278.09 222.88 277.47 221.78 276.85 220.70 C 272.00 221.22 267.36 223.39 264.02 226.99 C 259.85 231.86 256.35 237.29 251.85 241.90 C 247.58 247.05 242.29 251.17 237.65 255.95 C 239.84 258.66 242.48 260.98 245.71 262.36 L 246.62 262.83 C 244.03 264.52 241.60 266.45 239.30 268.50 L 239.24 267.16 C 239.21 264.07 239.03 260.66 236.75 258.30 C 231.50 252.64 225.18 247.82 218.01 244.89 C 214.56 243.39 210.44 244.11 207.57 246.50 C 203.06 250.02 198.47 253.45 193.83 256.80 C 192.05 258.14 189.58 260.23 190.96 262.70 C 192.93 266.80 196.94 269.34 199.81 272.74 C 189.74 270.40 183.55 260.74 173.54 258.41 C 168.35 257.35 163.30 260.26 159.58 263.62 C 156.41 266.44 153.87 270.04 149.95 271.92 C 149.13 270.69 148.15 269.52 147.79 268.05 C 149.47 265.22 152.49 263.68 154.78 261.45 C 155.88 257.47 151.67 254.50 148.25 253.75 C 141.35 251.98 135.39 247.37 131.55 241.42 C 133.01 240.70 134.51 238.52 136.24 239.75 C 140.91 242.34 145.20 245.60 149.88 248.21 C 153.45 250.12 154.05 254.79 157.31 256.95 C 163.53 258.90 168.17 252.97 174.00 252.35 C 178.24 252.42 181.52 255.40 185.23 257.02 C 188.53 257.74 190.42 254.41 192.34 252.37 C 196.03 247.78 201.20 244.83 206.41 242.31 C 208.50 241.66 208.14 239.11 207.84 237.42 C 204.24 229.72 197.92 223.18 189.62 220.70 C 196.10 188.44 198.69 155.25 195.79 122.43 C 195.16 117.68 195.07 112.86 193.81 108.22 C 193.17 108.17 191.89 108.08 191.25 108.03 C 187.63 112.14 184.31 117.08 178.82 118.82 C 172.22 121.41 165.12 119.30 158.78 117.01 C 155.59 115.71 152.20 116.78 148.90 116.58 C 145.13 116.08 141.95 118.56 138.37 119.20 C 132.06 120.45 125.27 120.20 119.26 117.79 C 114.81 115.99 112.05 111.94 109.25 108.27 C 106.98 109.41 105.09 111.46 104.97 114.11 C 104.05 125.35 104.17 136.67 104.80 147.93 C 105.53 169.68 108.33 191.40 113.48 212.56 C 114.63 217.48 116.24 222.28 117.27 227.23 C 113.13 227.62 108.82 226.25 104.85 227.92 C 100.35 229.68 97.00 233.38 93.82 236.87 C 92.26 238.44 91.95 240.65 91.69 242.74 C 97.62 246.31 102.60 251.19 106.16 257.14 C 103.47 256.27 100.58 255.58 98.45 253.60 C 95.32 250.99 93.00 246.99 88.76 246.06 C 85.52 245.69 82.25 246.85 79.50 248.52 C 73.83 252.35 68.97 257.29 64.82 262.72 C 63.02 264.89 63.90 267.96 63.60 270.53 C 60.95 268.74 58.48 266.72 55.98 264.74 C 58.99 264.15 63.34 263.50 64.01 259.85 C 64.71 257.03 61.97 255.42 60.25 253.72 C 53.43 247.91 47.28 241.34 41.71 234.33 C 37.55 229.35 32.72 224.08 26.07 222.75 C 24.44 222.11 23.38 223.56 22.40 224.57 C 20.22 222.20 18.61 219.33 17.57 216.29 C 21.94 218.21 26.54 219.79 31.38 219.78 C 26.77 210.41 21.89 201.10 18.93 191.03 C 16.90 185.37 16.59 179.01 13.08 173.97 C 11.17 171.14 8.54 168.91 5.95 166.72 C 5.31 167.26 4.02 168.32 3.38 168.86 L 2.54 169.57 C 2.88 165.44 1.61 161.43 1.64 157.33 C 4.11 162.35 8.45 166.11 13.46 168.46 C 12.67 153.94 11.96 139.21 14.93 124.87 C 16.15 120.10 15.84 114.85 13.66 110.41 C 12.60 108.11 10.06 107.71 7.82 107.39 C 8.96 103.78 10.00 100.12 11.44 96.60 C 11.63 98.92 11.59 101.33 12.45 103.53 C 13.58 106.04 16.14 107.35 18.48 108.51 C 22.41 99.51 25.56 90.13 30.70 81.70 C 34.86 75.15 38.61 67.96 39.10 60.09 C 39.52 57.99 37.54 56.79 36.29 55.49 L 35.83 55.05 C 37.88 52.90 39.68 50.53 41.69 48.34 C 41.91 52.16 41.88 56.05 42.87 59.78 C 43.63 59.85 45.15 60.00 45.91 60.07 C 53.75 51.16 62.64 43.17 72.45 36.48 C 77.89 32.82 84.00 28.82 86.22 22.31 C 87.00 20.47 86.22 18.63 84.97 17.23 L 84.54 16.61 C 87.33 15.53 90.03 14.23 92.78 13.08 L 92.24 14.38 C 90.47 17.77 89.98 21.65 90.92 25.35 C 102.97 20.63 115.19 16.00 128.10 14.22 C 134.66 13.58 141.16 10.63 145.26 5.36 C 146.11 4.28 145.53 2.77 145.68 1.52 M 148.41 8.00 C 144.62 11.30 140.84 14.63 137.07 17.96 C 140.93 20.58 144.89 23.05 148.71 25.74 C 152.41 22.93 156.13 20.13 159.72 17.17 C 155.99 14.06 152.13 11.12 148.41 8.00 M 90.35 31.40 C 88.64 31.82 88.25 34.36 90.16 34.79 C 94.56 36.88 99.62 39.55 104.55 37.55 C 117.02 32.49 130.33 29.63 143.76 28.81 C 144.10 28.36 144.77 27.46 145.11 27.01 C 139.08 22.51 131.77 18.48 123.97 19.85 C 112.30 22.08 100.96 26.06 90.35 31.40 M 155.40 24.43 C 154.26 25.19 152.77 26.15 153.26 27.74 C 154.59 28.82 156.34 28.95 157.98 29.00 C 169.32 29.65 180.47 32.19 191.20 35.85 C 196.58 36.55 203.01 34.85 206.43 30.44 C 205.07 29.50 203.71 28.52 202.17 27.89 C 194.01 24.46 185.55 21.75 176.88 19.97 C 169.49 18.41 161.67 20.36 155.40 24.43 M 201.84 37.09 C 201.90 38.19 201.04 39.98 202.36 40.58 C 214.26 46.40 225.25 54.05 234.74 63.29 C 237.83 66.39 242.64 66.81 246.73 65.93 C 249.16 64.47 248.73 60.92 246.78 59.26 C 240.42 52.59 233.63 46.11 225.69 41.36 C 218.51 37.57 209.92 34.87 201.84 37.09 M 55.71 56.71 C 52.51 60.45 47.64 63.55 46.83 68.73 C 50.39 69.39 53.84 68.15 57.28 67.45 C 59.52 66.88 62.03 66.54 63.71 64.78 C 71.18 57.40 79.46 50.79 88.56 45.51 C 90.34 44.45 92.25 43.49 93.63 41.88 C 93.40 40.59 92.65 39.88 91.37 39.74 C 88.37 38.81 85.15 38.77 82.06 39.24 C 71.08 40.73 63.33 49.51 55.71 56.71 M 174.86 55.07 C 171.55 55.55 168.26 54.62 165.00 54.14 C 152.30 52.87 139.33 53.02 126.85 55.92 C 124.94 56.33 123.33 54.90 121.68 54.21 C 118.07 52.16 113.60 51.33 109.59 52.58 C 107.54 53.33 107.77 55.91 108.29 57.60 C 109.29 60.55 110.23 63.56 111.70 66.31 C 114.11 69.46 118.59 68.66 122.06 68.99 C 123.83 73.57 125.28 78.53 129.27 81.76 C 132.08 85.25 137.22 85.48 139.76 89.25 C 141.78 91.96 143.70 94.85 144.81 98.07 C 144.14 102.16 143.49 106.53 145.54 110.37 C 146.62 113.86 151.31 113.61 153.75 111.78 C 156.18 108.80 156.48 104.69 156.20 101.00 C 155.54 96.46 159.63 93.20 161.79 89.65 C 164.06 91.04 166.57 92.36 169.21 91.06 C 169.56 88.34 168.23 86.17 166.25 84.44 C 168.25 83.09 170.80 82.25 172.02 80.01 C 174.05 77.26 174.59 73.53 177.36 71.34 C 177.07 74.10 175.42 76.42 174.81 79.08 C 174.06 83.19 176.49 86.92 176.84 90.92 C 176.62 94.08 174.67 96.70 172.74 99.06 C 168.95 99.24 165.14 98.83 161.38 99.31 C 158.38 101.75 158.08 106.29 158.02 109.91 C 158.35 113.96 162.86 115.17 166.15 115.89 C 174.54 117.69 182.95 113.59 188.79 107.77 C 192.77 103.94 194.48 98.38 195.02 93.02 C 195.39 83.63 190.28 74.82 183.08 69.09 C 185.52 63.86 188.60 58.80 189.92 53.13 C 189.26 51.50 187.88 49.80 185.93 49.96 C 181.58 49.81 178.38 53.09 174.86 55.07 M 52.52 71.62 C 46.86 73.21 40.71 75.07 37.24 80.20 C 31.50 89.08 27.22 98.86 23.85 108.87 C 23.38 110.58 22.20 112.86 24.14 114.11 C 26.67 113.74 28.78 112.13 31.07 111.13 C 33.12 109.90 35.98 109.30 36.76 106.74 C 41.08 95.79 46.77 85.33 54.03 76.04 C 54.86 74.61 57.03 73.16 55.54 71.44 C 54.51 71.21 53.51 71.27 52.52 71.62 M 116.41 71.33 C 112.23 73.23 109.22 77.10 107.15 81.10 C 104.58 86.14 105.49 92.00 106.67 97.28 C 108.22 104.22 112.45 110.86 118.99 114.01 C 126.18 117.58 134.82 116.10 141.80 112.71 C 143.89 109.38 140.71 105.54 139.63 102.32 C 138.54 99.48 135.24 100.81 132.98 100.67 C 128.97 100.80 124.02 99.80 122.27 95.69 C 120.59 90.94 123.70 86.55 124.53 82.03 C 124.06 78.80 122.42 75.87 121.11 72.91 C 120.35 71.14 118.07 70.75 116.41 71.33 M 243.68 71.26 C 244.03 73.81 245.77 75.75 247.26 77.73 C 254.11 86.80 259.45 96.94 263.54 107.54 C 265.41 112.70 271.09 114.87 275.93 116.32 C 276.48 114.70 277.38 113.00 276.73 111.27 C 274.70 103.55 271.47 96.18 267.86 89.08 C 264.00 81.32 257.37 75.11 249.62 71.33 C 247.73 70.42 245.63 70.99 243.68 71.26 M 131.38 87.28 C 128.72 88.38 129.78 93.61 132.88 92.88 C 136.69 92.42 135.02 85.35 131.38 87.28 M 29.16 115.25 C 25.08 118.55 21.46 122.69 19.69 127.71 C 17.86 132.99 18.14 138.65 17.55 144.14 C 16.90 151.11 17.86 158.07 18.23 165.03 C 18.24 166.81 19.00 168.42 19.95 169.89 C 23.92 168.67 25.43 164.56 27.52 161.40 C 29.35 158.61 29.02 155.18 28.98 152.01 C 28.62 140.82 30.11 129.61 32.93 118.79 C 33.42 117.13 33.40 115.40 33.34 113.69 C 31.89 114.04 30.27 114.11 29.16 115.25 M 267.87 119.75 C 268.13 124.91 269.79 129.86 270.15 135.02 C 271.71 143.58 270.67 152.32 271.02 160.95 C 272.15 165.14 274.25 169.22 277.44 172.23 C 283.06 168.13 281.83 160.07 282.45 153.97 C 282.16 145.47 283.79 135.88 278.43 128.56 C 275.66 124.90 272.57 120.87 267.87 119.75 M 51.96 134.69 C 52.91 136.81 55.09 138.53 54.95 141.03 C 54.94 151.32 55.02 161.63 54.91 171.92 C 54.97 174.69 51.84 175.21 49.91 176.19 C 49.90 176.98 49.87 178.54 49.86 179.33 C 53.78 180.58 57.96 179.92 62.00 180.07 C 66.93 179.92 71.90 180.42 76.79 179.70 C 81.41 178.63 87.02 176.46 88.20 171.31 C 90.08 165.05 86.41 158.71 81.75 154.72 C 84.25 150.11 86.61 144.74 84.54 139.50 C 82.79 134.47 76.84 132.98 72.07 133.02 C 65.38 133.07 58.27 131.86 51.96 134.69 M 217.08 135.75 C 219.17 138.14 222.08 140.48 221.96 143.98 C 221.97 154.32 222.08 164.66 221.91 174.99 C 221.93 177.43 219.45 178.49 217.77 179.72 C 217.83 180.54 217.95 182.19 218.01 183.01 C 224.07 182.90 230.15 183.22 236.20 182.79 C 236.67 179.67 234.19 178.22 231.96 176.70 C 231.66 165.79 231.85 154.87 231.83 143.96 C 231.62 140.20 234.93 137.82 237.02 135.15 C 236.69 134.70 236.04 133.78 235.72 133.33 C 230.22 133.35 224.71 133.20 219.21 133.35 C 217.85 133.34 216.26 134.20 217.08 135.75 M 24.14 171.22 C 22.49 176.28 21.23 181.86 22.79 187.11 C 25.04 195.30 28.36 203.17 32.21 210.74 C 33.65 213.48 34.96 216.44 37.43 218.43 C 41.38 213.70 43.09 206.53 40.19 200.85 C 35.64 191.19 32.45 180.90 30.66 170.38 C 30.37 168.98 29.43 167.85 28.79 166.61 C 26.80 167.60 24.81 168.97 24.14 171.22 M 270.23 168.65 C 268.83 172.10 268.38 175.82 267.44 179.40 C 265.62 186.77 263.01 193.93 259.84 200.83 C 257.06 206.37 259.88 212.51 261.04 218.11 C 261.72 218.01 263.08 217.82 263.76 217.72 C 268.16 210.77 271.63 203.27 274.45 195.55 C 278.04 186.62 275.13 176.47 270.23 168.65 M 43.50 212.29 C 40.51 218.86 42.64 226.77 46.49 232.54 C 52.14 239.80 58.55 246.54 65.88 252.14 C 69.01 254.53 73.47 251.90 74.96 248.78 C 75.95 245.75 73.18 243.57 71.25 241.74 C 62.04 233.90 54.06 224.64 47.58 214.43 C 46.58 213.18 45.22 210.34 43.50 212.29 M 252.45 214.39 C 246.12 224.45 238.21 233.47 229.27 241.29 C 227.08 242.89 226.99 246.25 228.81 248.16 C 231.25 250.87 235.86 250.97 238.50 248.48 C 243.95 243.94 248.60 238.53 253.17 233.12 C 257.90 227.56 258.73 219.14 255.75 212.58 C 254.49 212.90 253.00 212.99 252.45 214.39 Z" />
<path fill="#ffffff" opacity="1.00" d=" M 138.63 137.62 C 140.99 132.07 147.85 131.57 153.06 131.91 C 157.53 131.70 163.61 134.10 163.24 139.45 C 159.36 140.28 158.77 134.39 155.00 134.63 C 152.42 134.64 148.63 134.82 147.86 137.89 C 146.64 142.50 147.15 147.35 147.06 152.07 C 152.83 152.12 159.77 152.74 163.77 157.37 C 164.72 161.53 163.83 165.84 163.99 170.07 C 164.23 174.78 159.30 177.80 155.05 177.85 C 150.91 177.86 146.65 178.35 142.57 177.46 C 139.15 176.44 138.38 172.50 139.20 169.42 C 142.32 170.39 142.67 174.87 146.08 175.17 C 149.25 175.95 153.23 174.38 153.72 170.83 C 154.18 166.64 154.19 162.36 153.82 158.17 C 151.20 151.62 140.72 157.78 138.29 150.74 C 137.93 146.41 137.53 141.85 138.63 137.62 Z" />
<path fill="#ffffff" opacity="1.00" d=" M 178.94 134.26 C 181.72 134.89 180.96 138.01 181.33 140.13 C 182.35 158.95 182.43 177.86 180.73 196.64 C 180.02 199.58 180.41 202.78 179.33 205.60 C 178.35 207.87 176.06 205.85 174.54 205.45 C 176.88 189.07 179.14 172.59 178.98 156.00 C 179.15 148.75 178.61 141.50 178.94 134.26 Z" />
<path fill="#ffffff" opacity="1.00" d=" M 120.21 135.14 C 120.74 136.22 121.15 137.34 121.45 138.51 C 124.44 156.53 125.45 174.83 128.12 192.89 C 128.60 197.15 129.19 201.41 129.00 205.71 C 128.14 205.93 126.43 206.38 125.58 206.60 C 123.02 197.28 123.39 187.57 122.04 178.09 C 121.10 163.80 119.48 149.47 120.21 135.14 Z" />
<path fill="#ffffff" opacity="1.00" d=" M 65.03 137.60 C 67.56 137.93 71.12 136.72 72.76 139.26 C 74.67 142.37 74.02 146.28 73.82 149.74 C 72.93 153.85 68.14 153.00 65.01 153.02 C 65.05 147.88 65.03 142.74 65.03 137.60 Z" />
<path fill="#ffffff" opacity="1.00" d=" M 65.05 156.98 C 68.56 157.09 73.11 156.17 75.29 159.73 C 77.66 163.74 77.46 169.13 75.23 173.16 C 73.01 176.56 68.53 176.05 65.02 176.02 C 65.05 169.67 65.00 163.33 65.05 156.98 Z" />
<path fill="#ffffff" opacity="1.00" d=" M 128.92 211.94 C 131.65 211.54 134.30 209.08 137.02 210.86 C 139.68 212.34 142.86 211.22 145.60 212.40 C 147.45 216.51 144.24 220.76 145.16 225.00 C 145.72 227.07 145.00 228.92 143.73 230.56 C 141.44 228.46 140.80 225.41 139.92 222.57 C 134.93 223.27 138.15 229.28 135.84 232.36 C 132.08 230.40 132.15 225.97 131.19 222.39 C 128.15 223.74 127.89 226.98 126.97 229.77 C 123.80 225.70 123.24 220.27 123.42 215.28 C 123.34 212.30 126.91 212.64 128.92 211.94 Z" />
<path fill="#ffffff" opacity="1.00" d=" M 152.62 214.70 C 155.75 212.55 159.31 209.92 163.34 210.71 C 166.26 211.31 169.47 208.65 171.98 211.05 C 174.25 212.92 177.26 212.56 180.00 212.88 C 182.00 217.24 180.61 222.57 177.66 226.16 C 176.67 224.84 175.73 223.48 174.81 222.12 C 173.37 222.36 171.88 223.24 170.41 222.75 C 168.73 221.53 167.88 219.55 166.71 217.91 C 162.06 217.04 155.90 219.09 152.62 214.70 Z" />
<path fill="#ffffff" opacity="1.00" d=" M 178.53 231.57 C 182.80 232.27 185.39 235.99 188.13 238.94 C 189.87 241.02 192.48 242.80 192.30 245.86 C 185.67 243.71 180.73 238.08 178.53 231.57 Z" />
<path fill="#ffffff" opacity="1.00" d=" M 116.65 255.68 C 121.05 253.98 126.22 255.22 129.78 258.20 C 132.37 260.40 133.66 263.64 135.76 266.25 C 138.20 269.24 141.99 270.58 144.74 273.22 C 147.10 275.24 148.75 277.90 150.84 280.16 C 153.49 282.94 157.78 282.14 160.80 284.23 C 162.68 285.50 165.08 286.69 165.32 289.24 C 158.32 286.65 150.12 285.98 144.67 280.33 C 140.03 275.61 134.86 271.44 130.21 266.72 C 126.09 262.48 119.48 260.57 113.92 262.95 C 105.98 266.18 101.77 274.38 94.74 278.85 C 95.96 273.52 100.08 269.51 103.57 265.53 C 107.45 261.71 111.40 257.55 116.65 255.68 Z" />
</g>
</svg>
