<?xml version="1.0" encoding="UTF-8" ?>
<!DOCTYPE svg PUBLIC "-//W3C//DTD SVG 1.1//EN" "http://www.w3.org/Graphics/SVG/1.1/DTD/svg11.dtd">
<svg width="167pt" height="104pt" viewBox="0 0 167 104" version="1.1" xmlns="http://www.w3.org/2000/svg">
<g id="#eba508fe">
<path fill="#eba508" opacity="1.00" d=" M 49.24 9.38 C 67.83 0.82 89.66 -0.21 109.09 6.11 C 130.81 13.13 148.74 29.17 160.91 48.18 C 162.55 50.07 161.20 52.34 160.03 54.05 C 148.91 71.04 133.13 85.43 114.12 93.01 C 95.69 100.33 74.58 100.82 55.87 94.20 C 42.70 89.68 30.94 81.69 21.05 71.98 C 14.98 65.22 8.59 58.52 4.69 50.19 C 15.29 32.79 30.56 17.86 49.24 9.38 M 50.69 12.71 C 33.36 20.45 19.07 34.12 9.26 50.24 C 22.41 73.94 47.00 91.81 74.24 94.58 C 92.37 96.82 111.24 92.46 126.63 82.63 C 139.28 74.45 150.35 63.41 157.61 50.13 C 145.79 31.14 127.80 15.25 106.02 9.02 C 87.91 3.64 67.93 5.00 50.69 12.71 Z" />
<path fill="#eba508" opacity="1.00" d=" M 71.39 10.62 C 89.37 7.82 108.38 11.47 123.82 21.17 C 135.48 28.47 145.70 38.36 152.79 50.17 C 151.63 54.04 148.57 56.98 146.16 60.12 C 132.52 76.69 112.74 89.07 91.03 90.72 C 81.80 91.89 72.39 90.87 63.40 88.61 C 43.97 83.47 27.27 70.37 15.93 53.99 C 14.72 52.31 13.46 50.02 15.19 48.21 C 27.95 28.97 48.27 14.10 71.39 10.62 M 44.58 24.81 C 67.72 39.40 99.13 39.40 122.25 24.76 C 99.26 9.84 67.55 9.82 44.58 24.81 M 19.80 48.84 C 18.79 50.11 19.15 51.65 20.12 52.82 C 25.70 61.04 32.69 68.38 40.97 73.92 C 54.00 65.53 69.45 60.61 85.03 61.31 C 99.57 61.21 113.68 66.25 125.94 73.84 C 132.13 69.51 137.48 64.10 142.44 58.44 C 144.45 55.86 146.82 53.32 147.75 50.12 C 142.36 40.90 134.36 33.42 125.95 26.95 C 117.81 31.84 109.13 36.11 99.74 37.89 C 79.73 42.36 58.11 38.24 40.97 27.05 C 32.62 32.88 25.34 40.29 19.80 48.84 M 44.57 76.19 C 67.56 91.11 99.24 91.07 122.20 76.15 C 99.12 61.37 67.65 61.45 44.57 76.19 Z" />
<path fill="#eba508" opacity="1.00" d=" M 39.85 31.43 C 43.46 32.06 47.66 32.84 49.79 36.19 C 52.98 41.19 52.99 47.36 52.81 53.08 C 52.69 57.08 52.19 61.37 49.57 64.58 C 47.26 67.50 43.62 68.75 40.28 70.07 C 40.01 57.19 40.35 44.31 39.85 31.43 M 44.55 38.51 C 44.21 46.49 44.23 54.50 44.52 62.48 C 47.99 60.70 47.59 56.36 47.84 53.07 C 47.72 48.13 48.96 42.04 44.55 38.51 Z" />
<path fill="#eba508" opacity="1.00" d=" M 114.94 37.19 C 116.94 34.69 120.53 33.98 123.20 32.28 C 124.45 33.52 125.70 34.76 126.94 36.01 C 124.44 37.23 122.03 38.61 119.52 39.81 C 119.61 46.21 119.40 52.62 119.61 59.02 C 119.38 60.94 121.37 61.61 122.74 62.28 C 123.30 58.06 122.36 53.93 121.31 49.87 C 123.13 49.65 124.96 49.40 126.78 49.12 C 127.00 55.91 126.81 62.70 126.73 69.49 C 122.91 67.87 117.79 67.45 115.66 63.39 C 114.19 59.44 114.80 55.13 114.69 51.00 C 114.83 46.40 114.37 41.77 114.94 37.19 Z" />
<path fill="#eba508" opacity="1.00" d=" M 54.89 37.45 C 58.24 37.92 62.58 38.77 63.57 42.59 C 64.57 45.64 62.34 48.27 61.48 51.03 C 61.79 54.51 63.05 57.82 63.86 61.21 C 62.67 61.41 61.48 61.62 60.30 61.84 C 59.65 59.47 59.03 57.10 58.41 54.73 C 58.32 57.38 58.09 60.03 57.93 62.68 C 57.12 62.76 55.50 62.91 54.69 62.98 C 54.86 54.47 54.66 45.96 54.89 37.45 M 58.35 41.51 C 58.26 43.54 58.26 45.58 58.38 47.62 C 61.19 46.22 60.63 43.06 58.35 41.51 Z" />
<path fill="#eba508" opacity="1.00" d=" M 109.55 38.57 C 110.64 38.11 111.73 37.69 112.85 37.31 C 112.89 42.54 112.87 47.78 113.10 53.01 C 113.24 56.32 113.11 59.73 111.68 62.78 C 108.40 62.74 103.48 62.57 102.62 58.59 C 102.01 52.54 102.42 46.42 102.37 40.34 C 103.51 39.94 104.65 39.52 105.78 39.07 C 106.44 44.99 105.68 50.94 106.03 56.86 C 105.94 58.54 108.15 58.57 109.22 59.24 C 109.81 52.36 109.39 45.46 109.55 38.57 Z" />
<path fill="#eba508" opacity="1.00" d=" M 66.31 40.23 C 67.75 40.61 69.21 40.91 70.68 41.14 C 71.23 47.41 71.31 53.71 70.87 59.98 C 69.32 60.06 67.77 60.20 66.23 60.42 C 66.21 53.69 66.13 46.96 66.31 40.23 Z" />
<path fill="#eba508" opacity="1.00" d=" M 87.72 42.24 C 92.10 41.68 96.51 41.30 100.92 41.03 C 100.92 42.26 100.89 43.49 100.83 44.73 C 99.36 45.35 97.87 45.93 96.38 46.50 C 96.33 50.96 96.30 55.42 96.25 59.88 C 94.91 59.83 93.58 59.77 92.25 59.68 C 92.20 55.32 92.11 50.96 91.90 46.60 C 90.54 46.33 89.20 46.04 87.86 45.71 C 87.83 44.55 87.78 43.39 87.72 42.24 Z" />
<path fill="#eba508" opacity="1.00" d=" M 76.31 42.19 C 79.89 41.26 84.06 41.21 86.98 43.81 C 86.36 44.77 85.70 45.70 85.01 46.61 C 82.59 46.16 80.15 45.77 77.69 45.75 C 80.25 49.48 85.99 48.22 88.46 52.11 C 89.25 55.00 87.51 57.99 84.64 58.76 C 80.68 60.09 76.30 59.28 72.79 57.11 C 73.25 56.05 73.65 54.97 74.01 53.88 C 76.95 54.39 79.99 55.31 82.96 54.34 C 79.68 51.74 73.28 52.07 72.78 46.95 C 72.88 44.87 74.17 42.65 76.31 42.19 Z" />
<path fill="#eba508" opacity="1.00" d=" M 63.97 72.72 C 66.08 71.47 68.18 70.21 70.25 68.90 C 70.43 73.49 70.99 78.16 70.16 82.72 C 69.58 82.85 68.42 83.13 67.85 83.27 C 67.79 80.32 67.62 77.38 67.69 74.43 C 66.44 73.87 65.20 73.31 63.97 72.72 Z" />
<path fill="#eba508" opacity="1.00" d=" M 74.45 70.41 C 76.01 68.78 78.43 69.48 80.42 69.43 C 81.34 73.47 81.80 77.69 81.21 81.80 C 79.18 84.50 73.04 83.86 73.52 79.78 C 73.61 76.65 73.74 73.47 74.45 70.41 M 77.03 70.94 C 76.65 71.87 76.28 72.82 75.93 73.77 C 76.49 74.11 77.61 74.79 78.17 75.13 C 78.36 74.22 78.55 73.30 78.72 72.39 C 78.30 72.02 77.46 71.30 77.03 70.94 M 76.32 77.13 C 76.23 78.41 76.18 79.70 76.16 80.98 C 76.80 80.93 78.10 80.82 78.74 80.77 C 78.80 79.56 78.81 78.36 78.78 77.16 C 78.16 77.15 76.94 77.14 76.32 77.13 Z" />
<path fill="#eba508" opacity="1.00" d=" M 84.51 70.53 C 86.44 68.42 91.42 68.94 91.68 72.19 C 91.96 75.46 92.19 78.93 91.07 82.08 C 89.60 83.74 87.23 83.09 85.29 83.29 C 84.73 82.34 84.21 81.37 83.72 80.37 C 85.48 80.53 87.24 80.75 89.00 80.89 C 89.04 80.42 89.11 79.48 89.15 79.01 C 87.46 78.66 85.78 78.23 84.11 77.77 C 83.96 75.37 83.32 72.78 84.51 70.53 M 86.37 76.20 C 87.03 76.39 88.37 76.78 89.03 76.98 C 88.99 74.91 88.90 72.85 88.73 70.80 C 86.21 71.53 86.56 74.14 86.37 76.20 Z" />
<path fill="#eba508" opacity="1.00" d=" M 95.05 69.45 C 97.06 69.52 99.06 69.57 101.07 69.63 C 101.35 70.00 101.90 70.74 102.17 71.11 C 100.08 71.60 97.99 72.06 95.93 72.67 C 98.00 73.83 101.07 73.85 102.22 76.22 C 102.89 78.69 102.06 81.15 101.02 83.38 C 99.10 83.26 97.18 83.18 95.27 83.03 C 94.85 81.64 94.38 80.27 93.88 78.91 C 95.77 79.62 97.61 80.48 99.49 81.25 C 99.48 79.55 99.50 77.85 99.54 76.15 C 97.82 76.30 96.09 76.47 94.37 76.63 C 94.50 74.23 94.79 71.84 95.05 69.45 Z" />
</g>
<g id="#fdfcfdff">
<path fill="#fdfcfd" opacity="1.00" d=" M 50.69 12.71 C 67.93 5.00 87.91 3.64 106.02 9.02 C 127.80 15.25 145.79 31.14 157.61 50.13 C 150.35 63.41 139.28 74.45 126.63 82.63 C 111.24 92.46 92.37 96.82 74.24 94.58 C 47.00 91.81 22.41 73.94 9.26 50.24 C 19.07 34.12 33.36 20.45 50.69 12.71 M 71.39 10.62 C 48.27 14.10 27.95 28.97 15.19 48.21 C 13.46 50.02 14.72 52.31 15.93 53.99 C 27.27 70.37 43.97 83.47 63.40 88.61 C 72.39 90.87 81.80 91.89 91.03 90.72 C 112.74 89.07 132.52 76.69 146.16 60.12 C 148.57 56.98 151.63 54.04 152.79 50.17 C 145.70 38.36 135.48 28.47 123.82 21.17 C 108.38 11.47 89.37 7.82 71.39 10.62 Z" />
<path fill="#fdfcfd" opacity="1.00" d=" M 19.80 48.84 C 25.34 40.29 32.62 32.88 40.97 27.05 C 58.11 38.24 79.73 42.36 99.74 37.89 C 109.13 36.11 117.81 31.84 125.95 26.95 C 134.36 33.42 142.36 40.90 147.75 50.12 C 146.82 53.32 144.45 55.86 142.44 58.44 C 137.48 64.10 132.13 69.51 125.94 73.84 C 113.68 66.25 99.57 61.21 85.03 61.31 C 69.45 60.61 54.00 65.53 40.97 73.92 C 32.69 68.38 25.70 61.04 20.12 52.82 C 19.15 51.65 18.79 50.11 19.80 48.84 M 39.85 31.43 C 40.35 44.31 40.01 57.19 40.28 70.07 C 43.62 68.75 47.26 67.50 49.57 64.58 C 52.19 61.37 52.69 57.08 52.81 53.08 C 52.99 47.36 52.98 41.19 49.79 36.19 C 47.66 32.84 43.46 32.06 39.85 31.43 M 114.94 37.19 C 114.37 41.77 114.83 46.40 114.69 51.00 C 114.80 55.13 114.19 59.44 115.66 63.39 C 117.79 67.45 122.91 67.87 126.73 69.49 C 126.81 62.70 127.00 55.91 126.78 49.12 C 124.96 49.40 123.13 49.65 121.31 49.87 C 122.36 53.93 123.30 58.06 122.74 62.28 C 121.37 61.61 119.38 60.94 119.61 59.02 C 119.40 52.62 119.61 46.21 119.52 39.81 C 122.03 38.61 124.44 37.23 126.94 36.01 C 125.70 34.76 124.45 33.52 123.20 32.28 C 120.53 33.98 116.94 34.69 114.94 37.19 M 54.89 37.45 C 54.66 45.96 54.86 54.47 54.69 62.98 C 55.50 62.91 57.12 62.76 57.93 62.68 C 58.09 60.03 58.32 57.38 58.41 54.73 C 59.03 57.10 59.65 59.47 60.30 61.84 C 61.48 61.62 62.67 61.41 63.86 61.21 C 63.05 57.82 61.79 54.51 61.48 51.03 C 62.34 48.27 64.57 45.64 63.57 42.59 C 62.58 38.77 58.24 37.92 54.89 37.45 M 109.55 38.57 C 109.39 45.46 109.81 52.36 109.22 59.24 C 108.15 58.57 105.94 58.54 106.03 56.86 C 105.68 50.94 106.44 44.99 105.78 39.07 C 104.65 39.52 103.51 39.94 102.37 40.34 C 102.42 46.42 102.01 52.54 102.62 58.59 C 103.48 62.57 108.40 62.74 111.68 62.78 C 113.11 59.73 113.24 56.32 113.10 53.01 C 112.87 47.78 112.89 42.54 112.85 37.31 C 111.73 37.69 110.64 38.11 109.55 38.57 M 66.31 40.23 C 66.13 46.96 66.21 53.69 66.23 60.42 C 67.77 60.20 69.32 60.06 70.87 59.98 C 71.31 53.71 71.23 47.41 70.68 41.14 C 69.21 40.91 67.75 40.61 66.31 40.23 M 87.72 42.24 C 87.78 43.39 87.83 44.55 87.86 45.71 C 89.20 46.04 90.54 46.33 91.90 46.60 C 92.11 50.96 92.20 55.32 92.25 59.68 C 93.58 59.77 94.91 59.83 96.25 59.88 C 96.30 55.42 96.33 50.96 96.38 46.50 C 97.87 45.93 99.36 45.35 100.83 44.73 C 100.89 43.49 100.92 42.26 100.92 41.03 C 96.51 41.30 92.10 41.68 87.72 42.24 M 76.31 42.19 C 74.17 42.65 72.88 44.87 72.78 46.95 C 73.28 52.07 79.68 51.74 82.96 54.34 C 79.99 55.31 76.95 54.39 74.01 53.88 C 73.65 54.97 73.25 56.05 72.79 57.11 C 76.30 59.28 80.68 60.09 84.64 58.76 C 87.51 57.99 89.25 55.00 88.46 52.11 C 85.99 48.22 80.25 49.48 77.69 45.75 C 80.15 45.77 82.59 46.16 85.01 46.61 C 85.70 45.70 86.36 44.77 86.98 43.81 C 84.06 41.21 79.89 41.26 76.31 42.19 Z" />
<path fill="#fdfcfd" opacity="1.00" d=" M 44.55 38.51 C 48.96 42.04 47.72 48.13 47.84 53.07 C 47.59 56.36 47.99 60.70 44.52 62.48 C 44.23 54.50 44.21 46.49 44.55 38.51 Z" />
<path fill="#fdfcfd" opacity="1.00" d=" M 58.35 41.51 C 60.63 43.06 61.19 46.22 58.38 47.62 C 58.26 45.58 58.26 43.54 58.35 41.51 Z" />
</g>
<g id="#066d3fff">
<path fill="#066d3f" opacity="1.00" d=" M 44.58 24.81 C 67.55 9.82 99.26 9.84 122.25 24.76 C 99.13 39.40 67.72 39.40 44.58 24.81 Z" />
<path fill="#066d3f" opacity="1.00" d=" M 44.57 76.19 C 67.65 61.45 99.12 61.37 122.20 76.15 C 99.24 91.07 67.56 91.11 44.57 76.19 M 63.97 72.72 C 65.20 73.31 66.44 73.87 67.69 74.43 C 67.62 77.38 67.79 80.32 67.85 83.27 C 68.42 83.13 69.58 82.85 70.16 82.72 C 70.99 78.16 70.43 73.49 70.25 68.90 C 68.18 70.21 66.08 71.47 63.97 72.72 M 74.45 70.41 C 73.74 73.47 73.61 76.65 73.52 79.78 C 73.04 83.86 79.18 84.50 81.21 81.80 C 81.80 77.69 81.34 73.47 80.42 69.43 C 78.43 69.48 76.01 68.78 74.45 70.41 M 84.51 70.53 C 83.32 72.78 83.96 75.37 84.11 77.77 C 85.78 78.23 87.46 78.66 89.15 79.01 C 89.11 79.48 89.04 80.42 89.00 80.89 C 87.24 80.75 85.48 80.53 83.72 80.37 C 84.21 81.37 84.73 82.34 85.29 83.29 C 87.23 83.09 89.60 83.74 91.07 82.08 C 92.19 78.93 91.96 75.46 91.68 72.19 C 91.42 68.94 86.44 68.42 84.51 70.53 M 95.05 69.45 C 94.79 71.84 94.50 74.23 94.37 76.63 C 96.09 76.47 97.82 76.30 99.54 76.15 C 99.50 77.85 99.48 79.55 99.49 81.25 C 97.61 80.48 95.77 79.62 93.88 78.91 C 94.38 80.27 94.85 81.64 95.27 83.03 C 97.18 83.18 99.10 83.26 101.02 83.38 C 102.06 81.15 102.89 78.69 102.22 76.22 C 101.07 73.85 98.00 73.83 95.93 72.67 C 97.99 72.06 100.08 71.60 102.17 71.11 C 101.90 70.74 101.35 70.00 101.07 69.63 C 99.06 69.57 97.06 69.52 95.05 69.45 Z" />
<path fill="#066d3f" opacity="1.00" d=" M 77.03 70.94 C 77.46 71.30 78.30 72.02 78.72 72.39 C 78.55 73.30 78.36 74.22 78.17 75.13 C 77.61 74.79 76.49 74.11 75.93 73.77 C 76.28 72.82 76.65 71.87 77.03 70.94 Z" />
<path fill="#066d3f" opacity="1.00" d=" M 86.37 76.20 C 86.56 74.14 86.21 71.53 88.73 70.80 C 88.90 72.85 88.99 74.91 89.03 76.98 C 88.37 76.78 87.03 76.39 86.37 76.20 Z" />
<path fill="#066d3f" opacity="1.00" d=" M 76.32 77.13 C 76.94 77.14 78.16 77.15 78.78 77.16 C 78.81 78.36 78.80 79.56 78.74 80.77 C 78.10 80.82 76.80 80.93 76.16 80.98 C 76.18 79.70 76.23 78.41 76.32 77.13 Z" />
</g>
</svg>
