<?xml version="1.0" encoding="UTF-8" ?>
<!DOCTYPE svg PUBLIC "-//W3C//DTD SVG 1.1//EN" "http://www.w3.org/Graphics/SVG/1.1/DTD/svg11.dtd">
<svg width="200pt" height="146pt" viewBox="0 0 200 146" version="1.1" xmlns="http://www.w3.org/2000/svg">
<g id="#00428fff">
<path fill="#00428f" opacity="1.00" d=" M 26.47 19.45 C 40.25 7.27 58.62 0.58 76.99 0.67 C 89.66 0.71 102.33 0.69 115.00 0.69 C 120.67 0.72 126.37 0.43 132.01 1.22 C 145.36 2.77 158.30 7.86 169.00 16.00 C 183.32 26.68 193.47 42.98 196.21 60.68 C 197.05 65.75 196.83 70.90 196.85 76.02 C 196.98 89.95 192.08 103.73 183.91 114.94 C 173.17 129.67 156.76 140.09 138.91 143.73 C 133.61 144.92 128.14 144.96 122.82 146.00 L 77.18 146.00 C 71.09 144.88 64.84 144.88 58.83 143.28 C 35.31 137.91 14.63 120.40 6.57 97.51 C 2.60 86.86 2.26 75.31 3.07 64.11 C 4.75 46.94 13.53 30.77 26.47 19.45 M 71.13 9.24 C 71.29 12.90 71.49 16.56 71.48 20.22 C 73.85 20.23 76.21 20.21 78.57 20.10 C 77.89 17.75 75.16 18.17 73.30 17.51 C 73.79 15.38 75.97 15.52 77.68 15.17 C 77.69 14.82 77.72 14.11 77.74 13.76 C 76.04 13.41 74.01 13.40 73.16 11.58 C 75.03 11.21 76.89 10.82 78.75 10.42 C 76.57 8.69 73.68 9.40 71.13 9.24 M 78.51 9.55 C 79.84 10.36 81.26 11.02 82.70 11.61 C 82.67 14.57 82.67 17.54 82.82 20.50 C 86.67 19.48 84.63 14.48 85.03 11.53 C 86.12 10.89 89.18 11.13 87.83 9.19 C 84.77 8.52 81.56 8.98 78.51 9.55 M 89.04 9.20 C 88.28 11.09 90.84 10.91 91.91 11.59 C 91.83 14.46 91.82 17.34 91.83 20.21 C 92.43 20.21 93.64 20.22 94.24 20.22 C 94.25 17.33 94.23 14.44 94.21 11.55 C 95.66 11.03 97.10 10.49 98.48 9.81 C 95.38 9.21 92.19 8.99 89.04 9.20 M 101.27 9.22 C 99.11 9.62 99.10 12.05 98.64 13.73 C 100.48 14.94 102.37 16.06 104.23 17.25 C 102.29 17.87 100.29 18.30 98.33 18.84 C 100.39 20.81 105.30 21.16 106.07 17.81 C 106.87 14.59 102.89 13.64 101.02 11.98 C 102.82 11.32 104.62 10.70 106.40 9.98 C 104.75 9.49 103.01 8.38 101.27 9.22 M 108.40 20.23 C 110.83 20.24 113.26 20.20 115.69 20.04 C 114.90 18.16 112.84 18.13 111.13 17.72 C 111.18 14.65 111.14 11.56 110.60 8.52 C 107.03 11.18 108.97 16.42 108.40 20.23 M 120.23 9.22 C 118.64 13.00 116.95 16.74 115.77 20.67 C 117.56 19.77 119.14 18.49 121.00 17.73 C 123.26 18.06 124.76 20.13 126.77 21.07 C 125.87 17.04 124.28 13.22 122.69 9.43 C 122.08 9.38 120.84 9.27 120.23 9.22 M 59.46 10.80 C 60.24 14.47 61.06 18.14 61.90 21.80 C 62.42 21.60 63.46 21.20 63.98 21.00 C 63.83 19.37 63.67 17.75 63.57 16.12 C 65.55 17.84 67.16 20.30 70.05 20.39 C 67.88 17.43 66.82 14.10 67.37 10.43 C 64.73 9.84 62.06 10.23 59.46 10.80 M 132.34 10.26 C 128.73 11.34 127.34 16.40 129.55 19.32 C 131.43 21.58 134.61 21.31 137.24 21.58 C 137.62 19.49 138.00 17.40 138.37 15.32 C 136.71 15.10 135.05 14.90 133.39 14.71 C 134.24 16.35 135.01 18.04 135.62 19.78 C 133.01 19.37 130.09 17.49 131.40 14.47 C 132.43 11.06 136.41 12.65 138.96 12.68 C 138.77 12.15 138.40 11.09 138.21 10.56 C 136.26 10.36 134.30 10.05 132.34 10.26 M 143.11 12.22 C 141.76 15.69 140.37 19.15 139.10 22.65 C 141.52 23.52 143.97 24.41 146.54 24.75 C 145.02 23.02 143.13 21.59 142.14 19.46 C 143.99 19.59 145.85 19.80 147.71 19.96 C 146.33 18.44 144.82 17.04 143.45 15.52 C 145.54 15.64 147.63 15.85 149.73 15.93 C 148.05 13.88 145.47 13.14 143.11 12.22 M 47.14 15.91 C 48.64 19.31 50.20 22.67 51.73 26.05 C 54.12 24.87 57.15 24.05 58.38 21.44 C 59.26 18.86 57.95 15.63 55.60 14.31 C 52.67 13.34 49.79 14.83 47.14 15.91 M 150.82 15.62 C 151.40 17.07 152.23 18.41 152.74 19.89 C 151.54 22.43 150.03 24.82 148.79 27.34 C 149.67 27.44 150.56 27.49 151.45 27.50 C 152.88 25.34 154.00 22.98 155.14 20.66 C 156.63 20.74 158.13 20.78 159.63 20.78 C 157.10 18.45 154.01 16.85 150.82 15.62 M 41.88 19.12 C 43.82 22.47 45.77 25.83 48.02 28.99 C 48.35 28.50 49.01 27.53 49.34 27.05 C 47.90 23.81 45.79 20.92 44.02 17.86 C 43.49 18.17 42.42 18.80 41.88 19.12 M 47.96 35.93 C 37.75 42.91 30.75 54.27 29.10 66.53 C 22.69 66.49 16.29 66.50 9.88 66.53 C 9.87 70.94 9.87 75.36 9.88 79.77 C 16.17 79.84 22.46 79.65 28.75 79.82 C 30.32 83.57 30.62 87.81 32.48 91.49 C 39.70 108.01 57.21 118.67 75.01 119.23 C 90.67 119.42 106.33 119.25 121.99 119.32 C 133.09 119.30 144.29 115.94 153.14 109.14 C 162.48 102.14 169.01 91.43 170.51 79.82 C 176.83 79.75 183.15 79.75 189.47 79.82 C 189.51 75.38 189.50 70.94 189.48 66.51 C 183.18 66.52 176.88 66.50 170.58 66.52 C 169.04 54.81 162.58 43.86 153.05 36.89 C 144.23 30.07 133.05 26.81 121.97 26.75 C 107.66 26.62 93.34 26.71 79.02 26.70 C 68.07 26.66 56.91 29.44 47.96 35.93 M 160.02 113.92 C 161.35 115.29 162.66 116.68 163.94 118.10 C 165.38 117.12 166.84 116.18 168.36 115.33 C 169.34 117.86 167.34 119.67 165.99 121.54 C 169.54 122.30 172.89 117.57 170.28 114.73 C 168.63 112.13 165.68 114.13 163.50 114.72 C 164.35 112.98 165.27 111.28 166.04 109.50 C 163.60 110.31 161.80 112.16 160.02 113.92 M 32.10 113.19 C 32.63 115.40 33.33 117.58 33.92 119.79 C 32.06 118.95 30.27 117.98 28.42 117.12 C 28.77 120.23 32.28 123.30 35.29 121.32 C 37.93 119.23 35.08 115.92 34.86 113.36 C 36.31 114.08 37.73 114.87 39.11 115.73 C 39.36 115.27 39.86 114.36 40.12 113.90 C 38.56 112.92 37.14 111.33 35.19 111.27 C 34.08 111.77 33.12 112.53 32.10 113.19 M 40.65 115.19 C 41.13 116.67 41.66 118.13 42.25 119.57 C 40.74 122.13 36.73 124.76 38.95 127.98 C 40.86 125.80 42.58 123.46 44.21 121.07 C 45.71 121.23 47.21 121.39 48.72 121.48 C 46.68 118.66 43.66 116.81 40.65 115.19 M 155.10 118.18 C 155.40 121.20 155.66 124.22 156.10 127.23 C 158.44 126.19 160.84 125.20 163.45 125.84 C 163.39 124.61 163.34 123.38 163.32 122.16 C 160.72 120.83 158.97 118.47 157.20 116.23 C 156.68 116.72 155.63 117.69 155.10 118.18 M 49.47 121.05 C 47.57 124.40 45.47 127.66 43.96 131.22 C 44.49 131.22 45.55 131.21 46.08 131.21 C 48.60 128.60 49.93 125.11 51.76 122.03 C 51.00 121.70 50.24 121.38 49.47 121.05 M 145.99 123.31 C 145.07 125.28 146.51 127.25 147.04 129.11 C 148.97 128.90 150.88 128.62 152.81 128.38 C 151.46 130.00 150.00 131.52 148.72 133.20 C 150.53 132.70 153.11 132.79 153.93 130.71 C 155.19 127.30 153.36 122.90 150.01 121.41 C 148.51 121.52 146.92 122.05 145.99 123.31 M 49.51 134.32 C 51.82 134.36 52.65 132.23 53.54 130.52 C 54.95 130.63 56.35 130.74 57.75 130.80 C 56.45 129.36 55.15 127.91 54.26 126.18 C 56.93 126.71 59.54 127.54 62.14 128.34 C 62.30 131.56 59.79 136.02 63.22 138.09 C 63.86 135.25 64.26 132.36 64.63 129.46 C 66.00 128.77 67.33 127.98 68.61 127.12 C 63.48 126.41 58.29 125.75 53.67 123.24 C 52.06 126.84 50.46 130.47 49.51 134.32 M 138.19 129.28 C 139.12 129.33 140.98 129.44 141.90 129.49 C 142.52 131.66 143.21 133.81 143.91 135.96 C 144.51 135.73 145.73 135.26 146.34 135.03 C 145.03 131.47 143.83 127.86 142.45 124.32 C 140.60 125.57 139.28 127.37 138.19 129.28 M 69.38 126.63 C 69.38 130.31 69.37 133.99 69.39 137.67 C 71.78 137.63 74.19 137.57 76.58 137.32 C 75.35 135.45 73.02 135.45 71.08 134.98 C 72.13 132.93 74.57 132.79 76.46 131.94 C 74.65 131.22 72.80 130.61 70.95 130.00 C 72.79 128.92 74.70 128.00 76.55 126.96 C 74.17 126.72 71.78 126.65 69.38 126.63 M 76.92 127.53 C 78.18 128.22 79.45 128.88 80.74 129.51 C 80.62 132.21 80.61 134.91 80.60 137.61 C 81.18 137.60 82.35 137.58 82.93 137.57 C 82.93 134.84 82.93 132.10 82.93 129.37 C 84.33 128.86 85.71 128.31 87.08 127.73 C 83.89 126.16 80.20 126.39 76.92 127.53 M 92.43 129.96 C 93.53 130.27 94.64 130.55 95.75 130.81 C 95.68 133.37 95.71 135.94 95.84 138.50 C 96.32 138.26 97.28 137.80 97.76 137.56 C 98.39 133.90 98.18 130.15 98.30 126.45 C 96.04 127.06 94.07 128.32 92.43 129.96 M 100.49 134.68 C 100.55 137.13 103.44 139.05 105.66 137.85 C 108.34 137.03 107.65 133.83 107.72 131.70 C 105.91 131.17 104.08 130.70 102.28 130.16 C 104.18 129.30 106.16 128.66 108.10 127.90 C 107.30 127.58 105.70 126.93 104.89 126.61 C 100.89 126.80 99.93 131.48 100.49 134.68 M 109.28 138.70 C 110.36 137.96 111.68 137.35 111.92 135.92 C 113.10 132.79 114.24 129.63 114.86 126.34 C 110.89 128.98 110.75 134.53 109.28 138.70 M 116.43 130.30 C 117.52 130.52 118.63 130.71 119.73 130.90 C 119.65 133.50 119.67 136.11 119.78 138.72 C 120.27 138.48 121.24 138.01 121.72 137.77 C 122.42 134.12 122.33 130.36 122.24 126.66 C 119.98 127.31 117.99 128.56 116.43 130.30 M 124.00 129.05 C 125.87 129.25 127.74 129.41 129.60 129.69 C 127.75 132.64 125.19 135.06 123.45 138.08 C 126.45 138.03 129.99 139.08 132.43 136.75 C 130.95 136.45 129.46 136.17 127.97 135.91 C 129.77 133.86 132.33 131.32 130.91 128.35 C 129.11 126.10 125.54 126.86 124.00 129.05 Z" />
<path fill="#00428f" opacity="1.00" d=" M 63.01 12.20 C 64.35 11.21 66.00 13.42 64.51 14.31 C 63.20 15.36 61.58 13.06 63.01 12.20 Z" />
<path fill="#00428f" opacity="1.00" d=" M 121.12 13.21 C 122.74 12.95 123.25 15.92 121.67 16.30 C 119.84 16.68 119.63 13.73 121.12 13.21 Z" />
<path fill="#00428f" opacity="1.00" d=" M 50.21 16.45 C 52.23 16.12 55.05 15.89 55.73 18.40 C 56.80 20.56 54.77 22.13 53.44 23.49 C 52.26 21.19 51.19 18.84 50.21 16.45 Z" />
<path fill="#00428f" opacity="1.00" d=" M 86.85 41.42 C 104.50 41.45 122.14 41.44 139.79 41.43 C 139.80 42.51 139.80 43.59 139.81 44.68 C 122.14 44.69 104.47 44.68 86.80 44.68 C 86.83 43.60 86.84 42.51 86.85 41.42 Z" />
<path fill="#00428f" opacity="1.00" d=" M 73.22 49.14 C 99.86 49.15 126.50 49.13 153.14 49.15 C 153.14 50.70 153.14 52.25 153.13 53.81 C 126.50 53.82 99.86 53.80 73.23 53.82 C 73.23 52.26 73.22 50.70 73.22 49.14 Z" />
<path fill="#00428f" opacity="1.00" d=" M 42.70 61.69 C 46.04 58.87 51.14 57.74 55.08 59.95 C 57.48 61.23 58.39 63.97 59.61 66.21 C 57.73 67.26 55.84 68.26 53.94 69.28 C 52.66 67.60 51.66 64.55 49.01 65.10 C 45.06 65.97 43.34 70.48 43.08 74.11 C 42.81 76.91 43.77 80.86 47.06 81.29 C 49.73 81.82 51.22 79.19 52.66 77.47 C 51.03 77.27 49.40 77.08 47.77 76.91 C 48.04 75.11 48.30 73.30 48.54 71.50 C 52.32 71.53 56.10 71.51 59.88 71.56 C 59.16 75.95 58.15 80.63 54.85 83.87 C 51.86 87.27 46.67 88.10 42.56 86.49 C 38.20 84.58 36.59 79.40 36.83 74.98 C 37.21 70.10 38.84 64.94 42.70 61.69 Z" />
<path fill="#00428f" opacity="1.00" d=" M 65.02 60.64 C 67.71 60.61 70.39 60.61 73.08 60.61 C 74.59 66.19 75.85 71.84 77.69 77.32 C 78.76 71.74 79.71 66.14 80.78 60.56 C 82.83 60.60 84.87 60.62 86.92 60.64 C 85.25 69.29 83.63 77.94 81.95 86.59 C 79.33 86.57 76.72 86.57 74.10 86.57 C 72.50 80.97 71.04 75.32 69.43 69.71 C 68.13 75.28 67.28 80.94 66.26 86.57 C 64.20 86.57 62.15 86.57 60.10 86.58 C 61.68 77.92 63.46 69.30 65.02 60.64 Z" />
<path fill="#00428f" opacity="1.00" d=" M 85.18 86.56 C 87.02 77.89 88.88 69.23 90.80 60.58 C 96.91 60.65 103.02 60.58 109.12 60.64 C 108.77 62.31 108.43 63.98 108.08 65.64 C 104.31 65.62 100.54 65.62 96.78 65.64 C 96.45 67.31 96.12 68.98 95.79 70.66 C 99.34 70.63 102.89 70.63 106.44 70.66 C 106.02 72.42 105.59 74.18 105.17 75.94 C 101.62 75.88 98.07 75.87 94.52 76.02 C 94.17 77.77 93.81 79.51 93.46 81.26 C 97.35 81.27 101.24 81.26 105.13 81.27 C 104.75 83.03 104.38 84.79 104.02 86.55 C 97.74 86.58 91.46 86.57 85.18 86.56 Z" />
<path fill="#00428f" opacity="1.00" d=" M 107.07 86.54 C 108.80 77.86 110.65 69.21 112.49 60.56 C 114.89 60.60 117.29 60.62 119.70 60.64 C 117.86 69.28 116.09 77.93 114.28 86.58 C 111.88 86.57 109.47 86.57 107.07 86.54 Z" />
<path fill="#00428f" opacity="1.00" d=" M 124.43 61.46 C 129.46 59.86 134.86 60.88 140.06 60.63 C 139.65 62.37 139.24 64.11 138.84 65.85 C 134.58 65.93 130.20 65.45 126.12 66.96 C 129.15 70.01 133.45 71.42 136.30 74.67 C 139.44 78.25 137.66 84.83 132.80 85.81 C 127.72 86.82 122.46 86.07 117.31 86.24 C 117.73 84.51 118.16 82.78 118.59 81.05 C 122.76 80.40 127.54 82.06 131.26 79.82 C 130.84 75.74 125.92 75.10 123.40 72.62 C 119.58 70.05 119.81 63.01 124.43 61.46 Z" />
<path fill="#00428f" opacity="1.00" d=" M 141.94 60.63 C 148.61 60.60 155.29 60.61 161.96 60.62 C 161.60 62.34 161.24 64.06 160.89 65.78 C 158.72 65.86 156.55 65.93 154.38 66.05 C 153.00 72.91 151.48 79.74 150.03 86.58 C 147.61 86.57 145.20 86.57 142.79 86.57 C 144.20 79.67 145.70 72.79 147.15 65.91 C 145.04 65.88 142.94 65.87 140.84 65.84 C 141.20 64.10 141.57 62.36 141.94 60.63 Z" />
<path fill="#00428f" opacity="1.00" d=" M 62.06 93.34 C 88.57 93.35 115.07 93.37 141.58 93.34 C 141.58 94.81 141.58 96.29 141.59 97.77 C 115.07 97.75 88.55 97.78 62.04 97.75 C 62.04 96.28 62.05 94.81 62.06 93.34 Z" />
<path fill="#00428f" opacity="1.00" d=" M 75.27 102.21 C 92.81 102.21 110.35 102.24 127.88 102.20 C 127.90 103.00 127.95 104.62 127.97 105.43 C 110.40 105.29 92.84 105.65 75.28 105.74 C 75.28 104.56 75.28 103.39 75.27 102.21 Z" />
<path fill="#00428f" opacity="1.00" d=" M 157.10 120.76 C 158.67 120.04 160.16 122.82 158.96 123.93 C 157.27 124.76 155.89 121.91 157.10 120.76 Z" />
<path fill="#00428f" opacity="1.00" d=" M 148.45 124.06 C 150.06 122.56 151.88 126.19 149.88 126.79 C 148.55 126.94 147.63 125.07 148.45 124.06 Z" />
<path fill="#00428f" opacity="1.00" d=" M 103.32 133.22 C 104.81 132.01 106.32 134.67 104.87 135.64 C 103.37 136.86 101.89 134.19 103.32 133.22 Z" />
</g>
<g id="#ffffffff">
<path fill="#ffffff" opacity="1.00" d=" M 71.13 9.24 C 73.68 9.40 76.57 8.69 78.75 10.42 C 76.89 10.82 75.03 11.21 73.16 11.58 C 74.01 13.40 76.04 13.41 77.74 13.76 C 77.72 14.11 77.69 14.82 77.68 15.17 C 75.97 15.52 73.79 15.38 73.30 17.51 C 75.16 18.17 77.89 17.75 78.57 20.10 C 76.21 20.21 73.85 20.23 71.48 20.22 C 71.49 16.56 71.29 12.90 71.13 9.24 Z" />
<path fill="#ffffff" opacity="1.00" d=" M 78.51 9.55 C 81.56 8.98 84.77 8.52 87.83 9.19 C 89.18 11.13 86.12 10.89 85.03 11.53 C 84.63 14.48 86.67 19.48 82.82 20.50 C 82.67 17.54 82.67 14.57 82.70 11.61 C 81.26 11.02 79.84 10.36 78.51 9.55 Z" />
<path fill="#ffffff" opacity="1.00" d=" M 89.04 9.20 C 92.19 8.99 95.38 9.21 98.48 9.81 C 97.10 10.49 95.66 11.03 94.21 11.55 C 94.23 14.44 94.25 17.33 94.24 20.22 C 93.64 20.22 92.43 20.21 91.83 20.21 C 91.82 17.34 91.83 14.46 91.91 11.59 C 90.84 10.91 88.28 11.09 89.04 9.20 Z" />
<path fill="#ffffff" opacity="1.00" d=" M 101.27 9.22 C 103.01 8.38 104.75 9.49 106.40 9.98 C 104.62 10.70 102.82 11.32 101.02 11.98 C 102.89 13.64 106.87 14.59 106.07 17.81 C 105.30 21.16 100.39 20.81 98.33 18.84 C 100.29 18.30 102.29 17.87 104.23 17.25 C 102.37 16.06 100.48 14.94 98.64 13.73 C 99.10 12.05 99.11 9.62 101.27 9.22 Z" />
<path fill="#ffffff" opacity="1.00" d=" M 108.40 20.23 C 108.97 16.42 107.03 11.18 110.60 8.52 C 111.14 11.56 111.18 14.65 111.13 17.72 C 112.84 18.13 114.90 18.16 115.69 20.04 C 113.26 20.20 110.83 20.24 108.40 20.23 Z" />
<path fill="#ffffff" opacity="1.00" d=" M 120.23 9.22 C 120.84 9.27 122.08 9.38 122.69 9.43 C 124.28 13.22 125.87 17.04 126.77 21.07 C 124.76 20.13 123.26 18.06 121.00 17.73 C 119.14 18.49 117.56 19.77 115.77 20.67 C 116.95 16.74 118.64 13.00 120.23 9.22 M 121.12 13.21 C 119.63 13.73 119.84 16.68 121.67 16.30 C 123.25 15.92 122.74 12.95 121.12 13.21 Z" />
<path fill="#ffffff" opacity="1.00" d=" M 59.46 10.80 C 62.06 10.23 64.73 9.84 67.37 10.43 C 66.82 14.10 67.88 17.43 70.05 20.39 C 67.16 20.30 65.55 17.84 63.57 16.12 C 63.67 17.75 63.83 19.37 63.98 21.00 C 63.46 21.20 62.42 21.60 61.90 21.80 C 61.06 18.14 60.24 14.47 59.46 10.80 M 63.01 12.20 C 61.58 13.06 63.20 15.36 64.51 14.31 C 66.00 13.42 64.35 11.21 63.01 12.20 Z" />
<path fill="#ffffff" opacity="1.00" d=" M 132.34 10.26 C 134.30 10.05 136.26 10.36 138.21 10.56 C 138.40 11.09 138.77 12.15 138.96 12.68 C 136.41 12.65 132.43 11.06 131.40 14.47 C 130.09 17.49 133.01 19.37 135.62 19.78 C 135.01 18.04 134.24 16.35 133.39 14.71 C 135.05 14.90 136.71 15.10 138.37 15.32 C 138.00 17.40 137.62 19.49 137.24 21.58 C 134.61 21.31 131.43 21.58 129.55 19.32 C 127.34 16.40 128.73 11.34 132.34 10.26 Z" />
<path fill="#ffffff" opacity="1.00" d=" M 143.11 12.22 C 145.47 13.14 148.05 13.88 149.73 15.93 C 147.63 15.85 145.54 15.64 143.45 15.52 C 144.82 17.04 146.33 18.44 147.71 19.96 C 145.85 19.80 143.99 19.59 142.14 19.46 C 143.13 21.59 145.02 23.02 146.54 24.75 C 143.97 24.41 141.52 23.52 139.10 22.65 C 140.37 19.15 141.76 15.69 143.11 12.22 Z" />
<path fill="#ffffff" opacity="1.00" d=" M 47.14 15.91 C 49.79 14.83 52.67 13.34 55.60 14.31 C 57.95 15.63 59.26 18.86 58.38 21.44 C 57.15 24.05 54.12 24.87 51.73 26.05 C 50.20 22.67 48.64 19.31 47.14 15.91 M 50.21 16.45 C 51.19 18.84 52.26 21.19 53.44 23.49 C 54.77 22.13 56.80 20.56 55.73 18.40 C 55.05 15.89 52.23 16.12 50.21 16.45 Z" />
<path fill="#ffffff" opacity="1.00" d=" M 150.82 15.62 C 154.01 16.85 157.10 18.45 159.63 20.78 C 158.13 20.78 156.63 20.74 155.14 20.66 C 154.00 22.98 152.88 25.34 151.45 27.50 C 150.56 27.49 149.67 27.44 148.79 27.34 C 150.03 24.82 151.54 22.43 152.74 19.89 C 152.23 18.41 151.40 17.07 150.82 15.62 Z" />
<path fill="#ffffff" opacity="1.00" d=" M 41.88 19.12 C 42.42 18.80 43.49 18.17 44.02 17.86 C 45.79 20.92 47.90 23.81 49.34 27.05 C 49.01 27.53 48.35 28.50 48.02 28.99 C 45.77 25.83 43.82 22.47 41.88 19.12 Z" />
<path fill="#ffffff" opacity="1.00" d=" M 47.96 35.93 C 56.91 29.44 68.07 26.66 79.02 26.70 C 93.34 26.71 107.66 26.62 121.97 26.75 C 133.05 26.81 144.23 30.07 153.05 36.89 C 162.58 43.86 169.04 54.81 170.58 66.52 C 176.88 66.50 183.18 66.52 189.48 66.51 C 189.50 70.94 189.51 75.38 189.47 79.82 C 183.15 79.75 176.83 79.75 170.51 79.82 C 169.01 91.43 162.48 102.14 153.14 109.14 C 144.29 115.94 133.09 119.30 121.99 119.32 C 106.33 119.25 90.67 119.42 75.01 119.23 C 57.21 118.67 39.70 108.01 32.48 91.49 C 30.62 87.81 30.32 83.57 28.75 79.82 C 22.46 79.65 16.17 79.84 9.88 79.77 C 9.87 75.36 9.87 70.94 9.88 66.53 C 16.29 66.50 22.69 66.49 29.10 66.53 C 30.75 54.27 37.75 42.91 47.96 35.93 M 86.85 41.42 C 86.84 42.51 86.83 43.60 86.80 44.68 C 104.47 44.68 122.14 44.69 139.81 44.68 C 139.80 43.59 139.80 42.51 139.79 41.43 C 122.14 41.44 104.50 41.45 86.85 41.42 M 73.22 49.14 C 73.22 50.70 73.23 52.26 73.23 53.82 C 99.86 53.80 126.50 53.82 153.13 53.81 C 153.14 52.25 153.14 50.70 153.14 49.15 C 126.50 49.13 99.86 49.15 73.22 49.14 M 42.70 61.69 C 38.84 64.94 37.21 70.10 36.83 74.98 C 36.59 79.40 38.20 84.58 42.56 86.49 C 46.67 88.10 51.86 87.27 54.85 83.87 C 58.15 80.63 59.16 75.95 59.88 71.56 C 56.10 71.51 52.32 71.53 48.54 71.50 C 48.30 73.30 48.04 75.11 47.77 76.91 C 49.40 77.08 51.03 77.27 52.66 77.47 C 51.22 79.19 49.73 81.82 47.06 81.29 C 43.77 80.86 42.81 76.91 43.08 74.11 C 43.34 70.48 45.06 65.97 49.01 65.10 C 51.66 64.55 52.66 67.60 53.94 69.28 C 55.84 68.26 57.73 67.26 59.61 66.21 C 58.39 63.97 57.48 61.23 55.08 59.95 C 51.14 57.74 46.04 58.87 42.70 61.69 M 65.02 60.64 C 63.46 69.30 61.68 77.92 60.10 86.58 C 62.15 86.57 64.20 86.57 66.26 86.57 C 67.28 80.94 68.13 75.28 69.43 69.71 C 71.04 75.32 72.50 80.97 74.10 86.57 C 76.72 86.57 79.33 86.57 81.95 86.59 C 83.63 77.94 85.25 69.29 86.92 60.64 C 84.87 60.62 82.83 60.60 80.78 60.56 C 79.71 66.14 78.76 71.74 77.69 77.32 C 75.85 71.84 74.59 66.19 73.08 60.61 C 70.39 60.61 67.71 60.61 65.02 60.64 M 85.18 86.56 C 91.46 86.57 97.74 86.58 104.02 86.55 C 104.38 84.79 104.75 83.03 105.13 81.27 C 101.24 81.26 97.35 81.27 93.46 81.26 C 93.81 79.51 94.17 77.77 94.52 76.02 C 98.07 75.87 101.62 75.88 105.17 75.94 C 105.59 74.18 106.02 72.42 106.44 70.66 C 102.89 70.63 99.34 70.63 95.79 70.66 C 96.12 68.98 96.45 67.31 96.78 65.64 C 100.54 65.62 104.31 65.62 108.08 65.64 C 108.43 63.98 108.77 62.31 109.12 60.64 C 103.02 60.58 96.91 60.65 90.80 60.58 C 88.88 69.23 87.02 77.89 85.18 86.56 M 107.07 86.54 C 109.47 86.57 111.88 86.57 114.28 86.58 C 116.09 77.93 117.86 69.28 119.70 60.64 C 117.29 60.62 114.89 60.60 112.49 60.56 C 110.65 69.21 108.80 77.86 107.07 86.54 M 124.43 61.46 C 119.81 63.01 119.58 70.05 123.40 72.62 C 125.92 75.10 130.84 75.74 131.26 79.82 C 127.54 82.06 122.76 80.40 118.59 81.05 C 118.16 82.78 117.73 84.51 117.31 86.24 C 122.46 86.07 127.72 86.82 132.80 85.81 C 137.66 84.83 139.44 78.25 136.30 74.67 C 133.45 71.42 129.15 70.01 126.12 66.96 C 130.20 65.45 134.58 65.93 138.84 65.85 C 139.24 64.11 139.65 62.37 140.06 60.63 C 134.86 60.88 129.46 59.86 124.43 61.46 M 141.94 60.63 C 141.57 62.36 141.20 64.10 140.84 65.84 C 142.94 65.87 145.04 65.88 147.15 65.91 C 145.70 72.79 144.20 79.67 142.79 86.57 C 145.20 86.57 147.61 86.57 150.03 86.58 C 151.48 79.74 153.00 72.91 154.38 66.05 C 156.55 65.93 158.72 65.86 160.89 65.78 C 161.24 64.06 161.60 62.34 161.96 60.62 C 155.29 60.61 148.61 60.60 141.94 60.63 M 62.06 93.34 C 62.05 94.81 62.04 96.28 62.04 97.75 C 88.55 97.78 115.07 97.75 141.59 97.77 C 141.58 96.29 141.58 94.81 141.58 93.34 C 115.07 93.37 88.57 93.35 62.06 93.34 M 75.27 102.21 C 75.28 103.39 75.28 104.56 75.28 105.74 C 92.84 105.65 110.40 105.29 127.97 105.43 C 127.95 104.62 127.90 103.00 127.88 102.20 C 110.35 102.24 92.81 102.21 75.27 102.21 Z" />
<path fill="#ffffff" opacity="1.00" d=" M 160.02 113.92 C 161.80 112.16 163.60 110.31 166.04 109.50 C 165.27 111.28 164.35 112.98 163.50 114.72 C 165.68 114.13 168.63 112.13 170.28 114.73 C 172.89 117.57 169.54 122.30 165.99 121.54 C 167.34 119.67 169.34 117.86 168.36 115.33 C 166.84 116.18 165.38 117.12 163.94 118.10 C 162.66 116.68 161.35 115.29 160.02 113.92 Z" />
<path fill="#ffffff" opacity="1.00" d=" M 32.10 113.19 C 33.12 112.53 34.08 111.77 35.19 111.27 C 37.14 111.33 38.56 112.92 40.12 113.90 C 39.86 114.36 39.36 115.27 39.11 115.73 C 37.73 114.87 36.31 114.08 34.86 113.36 C 35.08 115.92 37.93 119.23 35.29 121.32 C 32.28 123.30 28.77 120.23 28.42 117.12 C 30.27 117.98 32.06 118.95 33.92 119.79 C 33.33 117.58 32.63 115.40 32.10 113.19 Z" />
<path fill="#ffffff" opacity="1.00" d=" M 40.65 115.19 C 43.66 116.81 46.68 118.66 48.72 121.48 C 47.21 121.39 45.71 121.23 44.21 121.07 C 42.58 123.46 40.86 125.80 38.95 127.98 C 36.73 124.76 40.74 122.13 42.25 119.57 C 41.66 118.13 41.13 116.67 40.65 115.19 Z" />
<path fill="#ffffff" opacity="1.00" d=" M 155.10 118.18 C 155.63 117.69 156.68 116.72 157.20 116.23 C 158.97 118.47 160.72 120.83 163.32 122.16 C 163.34 123.38 163.39 124.61 163.45 125.84 C 160.84 125.20 158.44 126.19 156.10 127.23 C 155.66 124.22 155.40 121.20 155.10 118.18 M 157.10 120.76 C 155.89 121.91 157.27 124.76 158.96 123.93 C 160.16 122.82 158.67 120.04 157.10 120.76 Z" />
<path fill="#ffffff" opacity="1.00" d=" M 49.47 121.05 C 50.24 121.38 51.00 121.70 51.76 122.03 C 49.93 125.11 48.60 128.60 46.08 131.21 C 45.55 131.21 44.49 131.22 43.96 131.22 C 45.47 127.66 47.57 124.40 49.47 121.05 Z" />
<path fill="#ffffff" opacity="1.00" d=" M 145.99 123.31 C 146.92 122.05 148.51 121.52 150.01 121.41 C 153.36 122.90 155.19 127.30 153.93 130.71 C 153.11 132.79 150.53 132.70 148.72 133.20 C 150.00 131.52 151.46 130.00 152.81 128.38 C 150.88 128.62 148.97 128.90 147.04 129.11 C 146.51 127.25 145.07 125.28 145.99 123.31 M 148.45 124.06 C 147.63 125.07 148.55 126.94 149.88 126.79 C 151.88 126.19 150.06 122.56 148.45 124.06 Z" />
<path fill="#ffffff" opacity="1.00" d=" M 49.51 134.32 C 50.46 130.47 52.06 126.84 53.67 123.24 C 58.29 125.75 63.48 126.41 68.61 127.12 C 67.33 127.98 66.00 128.77 64.63 129.46 C 64.26 132.36 63.86 135.25 63.22 138.09 C 59.79 136.02 62.30 131.56 62.14 128.34 C 59.54 127.54 56.93 126.71 54.26 126.18 C 55.15 127.91 56.45 129.36 57.75 130.80 C 56.35 130.74 54.95 130.63 53.54 130.52 C 52.65 132.23 51.82 134.36 49.51 134.32 Z" />
<path fill="#ffffff" opacity="1.00" d=" M 138.19 129.28 C 139.28 127.37 140.60 125.57 142.45 124.32 C 143.83 127.86 145.03 131.47 146.34 135.03 C 145.73 135.26 144.51 135.73 143.91 135.96 C 143.21 133.81 142.52 131.66 141.90 129.49 C 140.98 129.44 139.12 129.33 138.19 129.28 Z" />
<path fill="#ffffff" opacity="1.00" d=" M 69.38 126.63 C 71.78 126.65 74.17 126.72 76.55 126.96 C 74.70 128.00 72.79 128.92 70.95 130.00 C 72.80 130.61 74.65 131.22 76.46 131.94 C 74.57 132.79 72.13 132.93 71.08 134.98 C 73.02 135.45 75.35 135.45 76.58 137.32 C 74.19 137.57 71.78 137.63 69.39 137.67 C 69.37 133.99 69.38 130.31 69.38 126.63 Z" />
<path fill="#ffffff" opacity="1.00" d=" M 76.92 127.53 C 80.20 126.39 83.89 126.16 87.08 127.73 C 85.71 128.31 84.33 128.86 82.93 129.37 C 82.93 132.10 82.93 134.84 82.93 137.57 C 82.35 137.58 81.18 137.60 80.60 137.61 C 80.61 134.91 80.62 132.21 80.74 129.51 C 79.45 128.88 78.18 128.22 76.92 127.53 Z" />
<path fill="#ffffff" opacity="1.00" d=" M 92.43 129.96 C 94.07 128.32 96.04 127.06 98.30 126.45 C 98.18 130.15 98.39 133.90 97.76 137.56 C 97.28 137.80 96.32 138.26 95.84 138.50 C 95.71 135.94 95.68 133.37 95.75 130.81 C 94.64 130.55 93.53 130.27 92.43 129.96 Z" />
<path fill="#ffffff" opacity="1.00" d=" M 100.49 134.68 C 99.93 131.48 100.89 126.80 104.89 126.61 C 105.70 126.93 107.30 127.58 108.10 127.90 C 106.16 128.66 104.18 129.30 102.28 130.16 C 104.08 130.70 105.91 131.17 107.72 131.70 C 107.65 133.83 108.34 137.03 105.66 137.85 C 103.44 139.05 100.55 137.13 100.49 134.68 M 103.32 133.22 C 101.89 134.19 103.37 136.86 104.87 135.64 C 106.32 134.67 104.81 132.01 103.32 133.22 Z" />
<path fill="#ffffff" opacity="1.00" d=" M 109.28 138.70 C 110.75 134.53 110.89 128.98 114.86 126.34 C 114.24 129.63 113.10 132.79 111.92 135.92 C 111.68 137.35 110.36 137.96 109.28 138.70 Z" />
<path fill="#ffffff" opacity="1.00" d=" M 116.43 130.30 C 117.99 128.56 119.98 127.31 122.24 126.66 C 122.33 130.36 122.42 134.12 121.72 137.77 C 121.24 138.01 120.27 138.48 119.78 138.72 C 119.67 136.11 119.65 133.50 119.73 130.90 C 118.63 130.71 117.52 130.52 116.43 130.30 Z" />
<path fill="#ffffff" opacity="1.00" d=" M 124.00 129.05 C 125.54 126.86 129.11 126.10 130.91 128.35 C 132.33 131.32 129.77 133.86 127.97 135.91 C 129.46 136.17 130.95 136.45 132.43 136.75 C 129.99 139.08 126.45 138.03 123.45 138.08 C 125.19 135.06 127.75 132.64 129.60 129.69 C 127.74 129.41 125.87 129.25 124.00 129.05 Z" />
</g>
</svg>
