<?xml version="1.0" encoding="UTF-8" ?>
<!DOCTYPE svg PUBLIC "-//W3C//DTD SVG 1.1//EN" "http://www.w3.org/Graphics/SVG/1.1/DTD/svg11.dtd">
<svg width="358pt" height="528pt" viewBox="0 0 358 528" version="1.1" xmlns="http://www.w3.org/2000/svg">
<g id="#fefefdff">
<path fill="#fefefd" opacity="1.00" d=" M 75.85 11.83 C 80.22 11.28 84.52 10.15 88.96 10.34 C 133.95 10.35 178.93 10.30 223.92 10.36 C 227.03 20.89 229.76 31.57 234.16 41.66 C 243.73 63.94 256.19 85.34 273.34 102.64 C 277.55 107.41 281.87 112.07 286.01 116.91 C 310.97 141.87 327.45 174.57 335.30 208.82 C 335.93 211.96 336.14 215.18 336.97 218.28 C 338.63 225.41 338.20 232.77 338.86 239.99 C 339.93 244.28 339.54 248.71 338.70 253.00 C 338.51 260.60 337.82 268.16 337.41 275.75 C 336.25 280.39 335.58 285.12 335.59 289.92 C 331.22 319.90 324.71 349.82 313.29 377.99 C 310.56 384.88 306.52 391.18 304.03 398.17 C 303.05 400.11 304.22 402.54 306.01 403.55 C 307.77 403.80 309.55 403.80 311.33 403.89 C 322.13 388.94 330.42 372.36 337.84 355.52 C 341.35 347.17 345.02 338.84 347.44 330.10 C 347.80 332.72 348.44 335.30 348.37 337.97 C 348.30 372.99 348.38 408.02 348.34 443.04 C 346.94 468.56 331.25 492.56 308.84 504.69 C 299.13 510.20 288.04 512.85 277.05 514.21 C 189.28 514.24 101.51 514.25 13.73 514.21 C 13.57 372.47 13.70 230.74 13.67 89.01 C 13.36 72.87 18.00 56.54 27.31 43.29 C 38.55 27.00 56.30 15.23 75.85 11.83 M 236.36 336.63 C 236.04 338.38 235.63 340.12 235.66 341.92 C 235.61 374.50 235.70 407.08 235.62 439.66 C 247.86 439.73 260.10 439.71 272.34 439.67 C 272.31 435.02 272.88 430.27 271.50 425.75 C 264.43 425.85 257.36 425.77 250.29 425.76 C 250.20 396.09 250.32 366.42 250.22 336.75 C 245.60 336.60 240.98 336.70 236.36 336.63 M 123.31 336.03 C 118.50 337.41 115.02 341.32 112.06 345.14 C 106.34 353.68 105.80 364.21 103.97 374.01 C 103.37 381.98 103.92 390.00 103.72 398.00 C 103.40 405.30 105.35 412.41 106.48 419.57 C 108.14 425.76 110.53 432.22 115.49 436.55 C 123.70 443.21 136.70 443.85 144.99 436.98 C 154.23 428.64 156.02 415.57 157.60 403.91 C 157.84 393.59 157.69 383.26 157.69 372.94 C 157.84 368.54 156.28 364.35 155.94 360.00 C 154.37 350.01 149.23 338.99 138.76 335.90 C 133.68 335.12 128.37 335.00 123.31 336.03 M 38.34 337.38 C 37.77 340.89 37.62 344.45 37.71 348.01 C 37.92 378.57 37.43 409.14 37.95 439.69 C 42.54 439.70 47.14 439.68 51.73 439.71 C 53.17 423.22 51.47 406.59 52.66 390.08 C 60.72 406.37 67.53 423.28 75.80 439.45 C 80.92 440.02 86.09 439.64 91.22 439.57 C 88.46 431.90 84.19 424.90 80.92 417.45 C 76.06 406.50 70.36 395.94 65.43 385.02 C 70.58 375.19 75.56 365.27 80.63 355.39 C 83.48 349.46 86.86 343.76 89.06 337.54 C 84.26 337.35 79.46 337.47 74.66 337.37 C 66.64 351.86 60.41 367.28 52.64 381.91 C 51.45 367.10 53.26 352.15 51.62 337.38 C 47.20 337.42 42.77 337.43 38.34 337.38 M 179.65 348.01 C 179.68 378.56 179.62 409.11 179.69 439.66 C 191.93 439.75 204.17 439.68 216.42 439.69 C 216.50 435.27 216.51 430.86 216.35 426.44 C 209.00 426.46 201.66 426.40 194.32 426.41 C 194.22 401.94 194.31 377.47 194.27 353.00 C 194.19 347.77 194.72 342.48 193.59 337.32 C 189.20 337.47 184.80 337.47 180.42 337.32 C 179.49 340.80 179.61 344.43 179.65 348.01 M 88.69 453.79 C 88.29 456.84 87.64 459.89 87.73 462.99 C 87.84 474.06 87.71 485.13 87.79 496.20 C 93.12 496.34 98.45 496.21 103.79 496.32 C 104.00 494.12 103.90 491.90 103.54 489.72 C 100.47 489.79 97.39 489.76 94.32 489.71 C 94.31 477.74 94.42 465.77 94.22 453.80 C 92.38 453.79 90.53 453.79 88.69 453.79 M 239.75 453.78 C 239.56 467.94 239.68 482.10 239.69 496.26 C 244.56 496.29 249.44 496.30 254.32 496.23 C 254.32 494.09 254.30 491.95 254.26 489.81 C 251.59 489.78 248.92 489.76 246.25 489.74 C 245.77 477.77 247.16 465.68 245.32 453.79 C 243.46 453.79 241.60 453.78 239.75 453.78 M 31.61 454.36 C 31.09 460.10 33.45 465.44 34.14 471.04 C 35.52 479.23 37.57 487.30 38.43 495.56 C 40.31 495.92 43.10 497.22 44.21 494.88 C 46.07 491.40 45.62 487.33 46.43 483.58 C 48.74 473.98 49.58 464.09 51.98 454.51 C 50.17 454.43 48.37 454.37 46.57 454.33 C 45.23 458.78 44.29 463.33 44.11 467.99 C 43.93 472.90 41.78 477.38 40.74 482.12 C 40.86 472.76 38.09 463.77 37.42 454.48 C 35.48 454.45 33.54 454.41 31.61 454.36 M 111.69 454.39 C 111.18 468.14 111.61 481.92 111.46 495.69 C 116.21 495.79 120.97 495.76 125.72 495.77 C 125.72 494.61 125.73 492.28 125.73 491.12 C 122.74 491.13 119.75 491.14 116.76 491.12 C 116.20 478.87 116.93 466.60 116.35 454.35 C 114.80 454.37 113.24 454.38 111.69 454.39 M 262.42 454.35 C 261.18 461.50 261.92 468.78 261.74 476.00 C 261.91 482.77 261.15 489.61 262.47 496.30 C 267.22 496.27 271.97 496.25 276.73 496.31 C 277.48 494.41 277.36 492.40 276.85 490.47 C 274.01 490.37 271.17 490.31 268.33 490.19 C 266.97 478.33 268.14 466.33 267.62 454.42 C 265.88 454.40 264.15 454.38 262.42 454.35 M 64.99 454.39 C 59.80 457.03 57.90 463.46 58.23 468.95 C 58.36 475.21 57.84 481.51 58.58 487.74 C 59.79 491.33 61.63 496.02 65.99 496.45 C 68.68 496.52 71.96 497.18 74.10 495.13 C 78.84 491.35 79.51 484.71 79.68 479.06 C 79.53 471.65 80.69 463.29 76.12 456.90 C 73.63 453.21 68.79 454.16 64.99 454.39 M 133.64 454.60 C 132.76 468.22 133.63 481.93 133.22 495.58 C 138.08 496.52 143.08 496.56 147.97 495.77 C 147.72 494.36 147.80 492.84 147.12 491.56 C 144.26 491.41 141.40 491.47 138.55 491.43 C 138.36 486.45 138.40 481.47 138.49 476.50 C 141.58 476.41 144.67 476.40 147.76 476.38 C 147.73 474.81 147.70 473.24 147.69 471.68 C 144.60 471.67 141.51 471.63 138.42 471.56 C 138.45 467.59 138.42 463.61 138.50 459.64 C 141.56 459.63 144.63 459.62 147.69 459.63 C 147.70 457.87 147.69 456.12 147.68 454.38 C 143.00 454.51 138.31 454.16 133.64 454.60 M 154.02 454.48 C 155.36 462.03 158.31 469.16 160.35 476.52 C 162.55 482.48 161.28 488.95 161.52 495.14 C 162.13 495.48 163.37 496.16 163.98 496.49 C 164.69 496.21 166.09 495.65 166.80 495.37 C 166.78 490.35 166.30 485.26 167.23 480.29 C 168.47 471.45 172.90 463.35 173.88 454.47 C 172.14 454.42 170.41 454.38 168.68 454.36 C 167.34 459.37 165.70 464.33 165.33 469.54 C 164.52 469.43 163.72 469.29 162.92 469.13 C 162.57 464.03 161.19 459.12 159.44 454.34 C 157.63 454.38 155.82 454.43 154.02 454.48 M 181.59 469.00 C 181.71 477.67 181.39 486.35 181.70 495.02 C 182.06 495.29 182.77 495.84 183.13 496.12 C 188.43 496.40 194.89 497.30 198.80 492.81 C 202.50 489.58 201.97 484.39 201.57 479.98 C 200.79 477.64 198.85 475.92 197.66 473.79 C 200.70 469.43 201.82 463.61 199.57 458.67 C 195.58 453.25 188.22 454.57 182.39 454.31 C 181.05 459.09 181.72 464.10 181.59 469.00 M 216.64 454.42 C 213.48 468.10 210.51 481.84 207.99 495.64 C 209.91 495.70 211.83 495.75 213.76 495.78 C 213.77 493.40 213.78 491.02 213.80 488.65 C 217.01 487.98 220.31 487.45 223.57 488.18 C 224.25 490.72 224.98 493.25 225.80 495.75 C 227.82 495.73 229.84 495.71 231.87 495.69 C 229.45 487.94 228.21 479.89 226.24 472.03 C 224.78 466.10 224.22 459.86 221.48 454.33 C 219.87 454.36 218.25 454.39 216.64 454.42 Z" />
<path fill="#fefefd" opacity="1.00" d=" M 233.92 10.41 C 245.61 10.24 257.31 10.37 269.00 10.33 C 285.02 9.94 301.28 14.28 314.62 23.30 C 333.46 35.54 345.92 56.67 348.25 78.94 C 348.44 88.69 348.34 98.46 348.30 108.21 C 340.55 108.86 332.97 107.09 325.42 105.64 C 308.19 101.57 292.66 92.15 279.53 80.47 C 262.10 64.27 248.53 44.18 238.45 22.69 C 236.63 18.73 234.73 14.73 233.92 10.41 M 315.52 66.57 C 310.07 68.49 304.75 71.91 302.25 77.30 C 300.66 81.25 302.26 85.86 305.38 88.60 C 310.11 94.08 317.26 96.37 324.09 97.94 C 330.17 99.21 336.67 97.31 341.44 93.44 C 345.36 89.40 345.12 83.19 344.13 78.05 C 339.42 67.61 326.04 63.41 315.52 66.57 Z" />
<path fill="#fefefd" opacity="1.00" d=" M 128.40 348.42 C 131.25 348.12 134.79 347.64 136.72 350.28 C 140.37 354.60 141.48 360.47 142.20 365.93 C 142.04 375.31 144.41 384.59 143.03 393.96 C 141.66 400.86 143.14 408.03 141.23 414.86 C 139.98 419.24 139.07 424.26 135.42 427.35 C 132.02 429.35 126.91 428.93 124.58 425.46 C 119.84 418.21 119.57 409.24 119.35 400.86 C 118.39 395.62 118.24 390.26 118.69 384.95 C 120.21 377.02 118.88 368.77 121.14 360.95 C 122.40 356.37 123.77 350.59 128.40 348.42 Z" />
<path fill="#fefefd" opacity="1.00" d=" M 64.35 465.97 C 64.28 462.76 66.82 460.41 69.01 458.43 C 74.84 463.29 73.66 471.34 73.71 478.05 C 73.99 483.21 72.68 488.66 69.02 492.48 C 67.15 490.30 64.11 488.32 64.33 485.09 C 64.25 478.72 64.22 472.34 64.35 465.97 Z" />
<path fill="#fefefd" opacity="1.00" d=" M 187.46 460.78 C 188.12 460.42 189.45 459.70 190.11 459.34 C 193.20 460.36 196.18 463.34 195.45 466.83 C 194.40 469.87 191.17 470.92 188.57 472.24 C 187.07 468.59 187.56 464.61 187.46 460.78 Z" />
<path fill="#fefefd" opacity="1.00" d=" M 218.84 465.65 C 220.57 470.59 222.41 475.65 222.34 480.97 C 221.23 483.32 218.36 482.24 216.32 482.64 C 216.31 476.86 218.64 471.42 218.84 465.65 Z" />
<path fill="#fefefd" opacity="1.00" d=" M 187.63 476.04 C 190.63 476.25 194.21 477.33 195.50 480.29 C 195.66 483.16 196.69 487.03 194.01 489.05 C 192.25 490.56 189.76 490.44 187.62 490.90 C 187.46 485.95 187.50 480.99 187.63 476.04 Z" />
</g>
<g id="#2b3d74ff">
<path fill="#2b3d74" opacity="1.00" d=" M 70.07 0.00 L 292.17 0.00 C 300.32 3.99 309.17 6.48 316.93 11.27 C 329.51 19.03 340.17 29.85 347.79 42.50 C 351.97 49.32 354.42 56.98 358.00 64.10 L 358.00 461.36 C 353.55 471.21 349.77 481.55 343.06 490.17 C 331.86 505.77 315.31 517.38 296.97 522.99 C 291.60 525.23 285.81 526.16 280.02 526.12 C 192.68 526.13 105.34 526.13 18.00 526.12 C 12.00 526.07 5.95 526.46 0.00 525.46 L 0.00 524.39 C 2.57 520.37 1.49 515.48 1.69 511.00 C 1.66 367.66 1.67 224.33 1.68 80.99 C 1.53 74.78 3.25 68.78 4.63 62.79 C 10.16 42.26 24.28 24.75 41.71 12.92 C 50.38 7.05 60.37 3.71 70.07 0.00 M 75.85 11.83 C 56.30 15.23 38.55 27.00 27.31 43.29 C 18.00 56.54 13.36 72.87 13.67 89.01 C 13.70 230.74 13.57 372.47 13.73 514.21 C 101.51 514.25 189.28 514.24 277.05 514.21 C 288.04 512.85 299.13 510.20 308.84 504.69 C 331.25 492.56 346.94 468.56 348.34 443.04 C 348.38 408.02 348.30 372.99 348.37 337.97 C 348.44 335.30 347.80 332.72 347.44 330.10 C 345.02 338.84 341.35 347.17 337.84 355.52 C 330.42 372.36 322.13 388.94 311.33 403.89 C 309.55 403.80 307.77 403.80 306.01 403.55 C 304.22 402.54 303.05 400.11 304.03 398.17 C 306.52 391.18 310.56 384.88 313.29 377.99 C 324.71 349.82 331.22 319.90 335.59 289.92 C 335.58 285.12 336.25 280.39 337.41 275.75 C 337.82 268.16 338.51 260.60 338.70 253.00 C 339.54 248.71 339.93 244.28 338.86 239.99 C 338.20 232.77 338.63 225.41 336.97 218.28 C 336.14 215.18 335.93 211.96 335.30 208.82 C 327.45 174.57 310.97 141.87 286.01 116.91 C 281.87 112.07 277.55 107.41 273.34 102.64 C 256.19 85.34 243.73 63.94 234.16 41.66 C 229.76 31.57 227.03 20.89 223.92 10.36 C 178.93 10.30 133.95 10.35 88.96 10.34 C 84.52 10.15 80.22 11.28 75.85 11.83 M 233.92 10.41 C 234.73 14.73 236.63 18.73 238.45 22.69 C 248.53 44.18 262.10 64.27 279.53 80.47 C 292.66 92.15 308.19 101.57 325.42 105.64 C 332.97 107.09 340.55 108.86 348.30 108.21 C 348.34 98.46 348.44 88.69 348.25 78.94 C 345.92 56.67 333.46 35.54 314.62 23.30 C 301.28 14.28 285.02 9.94 269.00 10.33 C 257.31 10.37 245.61 10.24 233.92 10.41 Z" />
<path fill="#2b3d74" opacity="1.00" d=" M 315.52 66.57 C 326.04 63.41 339.42 67.61 344.13 78.05 C 345.12 83.19 345.36 89.40 341.44 93.44 C 336.67 97.31 330.17 99.21 324.09 97.94 C 317.26 96.37 310.11 94.08 305.38 88.60 C 302.26 85.86 300.66 81.25 302.25 77.30 C 304.75 71.91 310.07 68.49 315.52 66.57 Z" />
<path fill="#2b3d74" opacity="1.00" d=" M 236.36 336.63 C 240.98 336.70 245.60 336.60 250.22 336.75 C 250.32 366.42 250.20 396.09 250.29 425.76 C 257.36 425.77 264.43 425.85 271.50 425.75 C 272.88 430.27 272.31 435.02 272.34 439.67 C 260.10 439.71 247.86 439.73 235.62 439.66 C 235.70 407.08 235.61 374.50 235.66 341.92 C 235.63 340.12 236.04 338.38 236.36 336.63 Z" />
<path fill="#2b3d74" opacity="1.00" d=" M 123.31 336.03 C 128.37 335.00 133.68 335.12 138.76 335.90 C 149.23 338.99 154.37 350.01 155.94 360.00 C 156.28 364.35 157.84 368.54 157.69 372.94 C 157.69 383.26 157.84 393.59 157.60 403.91 C 156.02 415.57 154.23 428.64 144.99 436.98 C 136.70 443.85 123.70 443.21 115.49 436.55 C 110.53 432.22 108.14 425.76 106.48 419.57 C 105.35 412.41 103.40 405.30 103.72 398.00 C 103.92 390.00 103.37 381.98 103.97 374.01 C 105.80 364.21 106.34 353.68 112.06 345.14 C 115.02 341.32 118.50 337.41 123.31 336.03 M 128.40 348.42 C 123.77 350.59 122.40 356.37 121.14 360.95 C 118.88 368.77 120.21 377.02 118.69 384.95 C 118.24 390.26 118.39 395.62 119.35 400.86 C 119.57 409.24 119.84 418.21 124.58 425.46 C 126.91 428.93 132.02 429.35 135.42 427.35 C 139.07 424.26 139.98 419.24 141.23 414.86 C 143.14 408.03 141.66 400.86 143.03 393.96 C 144.41 384.59 142.04 375.31 142.20 365.93 C 141.48 360.47 140.37 354.60 136.72 350.28 C 134.79 347.64 131.25 348.12 128.40 348.42 Z" />
<path fill="#2b3d74" opacity="1.00" d=" M 38.34 337.38 C 42.77 337.43 47.20 337.42 51.62 337.38 C 53.26 352.15 51.45 367.10 52.64 381.91 C 60.41 367.28 66.64 351.86 74.66 337.37 C 79.46 337.47 84.26 337.35 89.06 337.54 C 86.86 343.76 83.48 349.46 80.63 355.39 C 75.56 365.27 70.58 375.19 65.43 385.02 C 70.36 395.94 76.06 406.50 80.92 417.45 C 84.19 424.90 88.46 431.90 91.22 439.57 C 86.09 439.64 80.92 440.02 75.80 439.45 C 67.53 423.28 60.72 406.37 52.66 390.08 C 51.47 406.59 53.17 423.22 51.73 439.71 C 47.14 439.68 42.54 439.70 37.95 439.69 C 37.43 409.14 37.92 378.57 37.71 348.01 C 37.62 344.45 37.77 340.89 38.34 337.38 Z" />
<path fill="#2b3d74" opacity="1.00" d=" M 179.65 348.01 C 179.61 344.43 179.49 340.80 180.42 337.32 C 184.80 337.47 189.20 337.47 193.59 337.32 C 194.72 342.48 194.19 347.77 194.27 353.00 C 194.31 377.47 194.22 401.94 194.32 426.41 C 201.66 426.40 209.00 426.46 216.35 426.44 C 216.51 430.86 216.50 435.27 216.42 439.69 C 204.17 439.68 191.93 439.75 179.69 439.66 C 179.62 409.11 179.68 378.56 179.65 348.01 Z" />
<path fill="#2b3d74" opacity="1.00" d=" M 88.69 453.79 C 90.53 453.79 92.38 453.79 94.22 453.80 C 94.42 465.77 94.31 477.74 94.32 489.71 C 97.39 489.76 100.47 489.79 103.54 489.72 C 103.90 491.90 104.00 494.12 103.79 496.32 C 98.45 496.21 93.12 496.34 87.79 496.20 C 87.71 485.13 87.84 474.06 87.73 462.99 C 87.64 459.89 88.29 456.84 88.69 453.79 Z" />
<path fill="#2b3d74" opacity="1.00" d=" M 239.75 453.78 C 241.60 453.78 243.46 453.79 245.32 453.79 C 247.16 465.68 245.77 477.77 246.25 489.74 C 248.92 489.76 251.59 489.78 254.26 489.81 C 254.30 491.95 254.32 494.09 254.32 496.23 C 249.44 496.30 244.56 496.29 239.69 496.26 C 239.68 482.10 239.56 467.94 239.75 453.78 Z" />
<path fill="#2b3d74" opacity="1.00" d=" M 31.61 454.36 C 33.54 454.41 35.48 454.45 37.42 454.48 C 38.09 463.77 40.86 472.76 40.74 482.12 C 41.78 477.38 43.93 472.90 44.11 467.99 C 44.29 463.33 45.23 458.78 46.57 454.33 C 48.37 454.37 50.17 454.43 51.98 454.51 C 49.58 464.09 48.74 473.98 46.43 483.58 C 45.62 487.33 46.07 491.40 44.21 494.88 C 43.10 497.22 40.31 495.92 38.43 495.56 C 37.57 487.30 35.52 479.23 34.14 471.04 C 33.45 465.44 31.09 460.10 31.61 454.36 Z" />
<path fill="#2b3d74" opacity="1.00" d=" M 111.69 454.39 C 113.24 454.38 114.80 454.37 116.35 454.35 C 116.93 466.60 116.20 478.87 116.76 491.12 C 119.75 491.14 122.74 491.13 125.73 491.12 C 125.73 492.28 125.72 494.61 125.72 495.77 C 120.97 495.76 116.21 495.79 111.46 495.69 C 111.61 481.92 111.18 468.14 111.69 454.39 Z" />
<path fill="#2b3d74" opacity="1.00" d=" M 262.42 454.35 C 264.15 454.38 265.88 454.40 267.62 454.42 C 268.14 466.33 266.97 478.33 268.33 490.19 C 271.17 490.31 274.01 490.37 276.85 490.47 C 277.36 492.40 277.48 494.41 276.73 496.31 C 271.97 496.25 267.22 496.27 262.47 496.30 C 261.15 489.61 261.91 482.77 261.74 476.00 C 261.92 468.78 261.18 461.50 262.42 454.35 Z" />
<path fill="#2b3d74" opacity="1.00" d=" M 64.99 454.39 C 68.79 454.16 73.63 453.21 76.12 456.90 C 80.69 463.29 79.53 471.65 79.68 479.06 C 79.51 484.71 78.84 491.35 74.10 495.13 C 71.96 497.18 68.68 496.52 65.99 496.45 C 61.63 496.02 59.79 491.33 58.58 487.74 C 57.84 481.51 58.36 475.21 58.23 468.95 C 57.90 463.46 59.80 457.03 64.99 454.39 M 64.35 465.97 C 64.22 472.34 64.25 478.72 64.33 485.09 C 64.11 488.32 67.15 490.30 69.02 492.48 C 72.68 488.66 73.99 483.21 73.71 478.05 C 73.66 471.34 74.84 463.29 69.01 458.43 C 66.82 460.41 64.28 462.76 64.35 465.97 Z" />
<path fill="#2b3d74" opacity="1.00" d=" M 133.64 454.60 C 138.31 454.16 143.00 454.51 147.68 454.38 C 147.69 456.12 147.70 457.87 147.69 459.63 C 144.63 459.62 141.56 459.63 138.50 459.64 C 138.42 463.61 138.45 467.59 138.42 471.56 C 141.51 471.63 144.60 471.67 147.69 471.68 C 147.70 473.24 147.73 474.81 147.76 476.38 C 144.67 476.40 141.58 476.41 138.49 476.50 C 138.40 481.47 138.36 486.45 138.55 491.43 C 141.40 491.47 144.26 491.41 147.12 491.56 C 147.80 492.84 147.72 494.36 147.97 495.77 C 143.08 496.56 138.08 496.52 133.22 495.58 C 133.63 481.93 132.76 468.22 133.64 454.60 Z" />
<path fill="#2b3d74" opacity="1.00" d=" M 154.02 454.48 C 155.82 454.43 157.63 454.38 159.44 454.34 C 161.19 459.12 162.57 464.03 162.92 469.13 C 163.72 469.29 164.52 469.43 165.33 469.54 C 165.70 464.33 167.34 459.37 168.68 454.36 C 170.41 454.38 172.14 454.42 173.88 454.47 C 172.90 463.35 168.47 471.45 167.23 480.29 C 166.30 485.26 166.78 490.35 166.80 495.37 C 166.09 495.65 164.69 496.21 163.98 496.49 C 163.37 496.16 162.13 495.48 161.52 495.14 C 161.28 488.95 162.55 482.48 160.35 476.52 C 158.31 469.16 155.36 462.03 154.02 454.48 Z" />
<path fill="#2b3d74" opacity="1.00" d=" M 181.59 469.00 C 181.72 464.10 181.05 459.09 182.39 454.31 C 188.22 454.57 195.58 453.25 199.57 458.67 C 201.82 463.61 200.70 469.43 197.66 473.79 C 198.85 475.92 200.79 477.64 201.57 479.98 C 201.97 484.39 202.50 489.58 198.80 492.81 C 194.89 497.30 188.43 496.40 183.13 496.12 C 182.77 495.84 182.06 495.29 181.70 495.02 C 181.39 486.35 181.71 477.67 181.59 469.00 M 187.46 460.78 C 187.56 464.61 187.07 468.59 188.57 472.24 C 191.17 470.92 194.40 469.87 195.45 466.83 C 196.18 463.34 193.20 460.36 190.11 459.34 C 189.45 459.70 188.12 460.42 187.46 460.78 M 187.63 476.04 C 187.50 480.99 187.46 485.95 187.62 490.90 C 189.76 490.44 192.25 490.56 194.01 489.05 C 196.69 487.03 195.66 483.16 195.50 480.29 C 194.21 477.33 190.63 476.25 187.63 476.04 Z" />
<path fill="#2b3d74" opacity="1.00" d=" M 216.64 454.42 C 218.25 454.39 219.87 454.36 221.48 454.33 C 224.22 459.86 224.78 466.10 226.24 472.03 C 228.21 479.89 229.45 487.94 231.87 495.69 C 229.84 495.71 227.82 495.73 225.80 495.75 C 224.98 493.25 224.25 490.72 223.57 488.18 C 220.31 487.45 217.01 487.98 213.80 488.65 C 213.78 491.02 213.77 493.40 213.76 495.78 C 211.83 495.75 209.91 495.70 207.99 495.64 C 210.51 481.84 213.48 468.10 216.64 454.42 M 218.84 465.65 C 218.64 471.42 216.31 476.86 216.32 482.64 C 218.36 482.24 221.23 483.32 222.34 480.97 C 222.41 475.65 220.57 470.59 218.84 465.65 Z" />
</g>
</svg>
