<?xml version="1.0" encoding="UTF-8" ?>
<!DOCTYPE svg PUBLIC "-//W3C//DTD SVG 1.1//EN" "http://www.w3.org/Graphics/SVG/1.1/DTD/svg11.dtd">
<svg width="200pt" height="200pt" viewBox="0 0 200 200" version="1.1" xmlns="http://www.w3.org/2000/svg">
<g id="#000000ff">
<path fill="#000000" opacity="1.00" d=" M 29.26 13.09 C 75.76 13.06 122.26 13.05 168.76 13.09 C 175.51 24.20 182.57 35.12 189.13 46.34 C 185.11 47.63 180.82 48.72 177.54 51.55 C 172.16 55.99 169.33 63.07 169.71 69.99 C 170.12 85.99 170.03 101.99 170.08 118.00 C 170.49 129.27 166.76 140.40 160.92 149.94 C 153.89 161.58 143.57 171.28 131.30 177.18 C 123.78 180.74 115.70 183.08 107.46 184.11 C 102.49 184.55 97.50 184.54 92.54 184.07 C 74.09 182.01 56.42 172.77 44.74 158.26 C 37.02 148.56 31.53 136.85 29.97 124.50 C 29.50 106.00 29.39 87.49 29.12 68.98 C 28.71 64.25 27.84 59.14 24.44 55.56 C 20.57 50.94 14.93 48.43 9.31 46.66 C 15.99 35.49 22.56 24.25 29.26 13.09 M 23.34 41.78 C 31.94 47.69 38.70 57.19 38.74 67.94 C 38.66 84.31 39.07 100.68 39.17 117.05 C 40.78 144.34 63.04 168.87 90.09 172.97 C 107.16 175.94 125.62 171.27 138.63 159.66 C 151.57 148.69 159.67 132.38 160.59 115.45 C 161.46 99.66 161.85 83.84 161.49 68.03 C 161.39 57.34 167.66 47.39 176.71 41.96 C 173.06 36.02 169.64 29.94 165.95 24.03 C 165.24 22.61 163.35 23.02 162.07 22.83 C 119.64 22.85 77.21 22.67 34.79 22.40 C 30.65 28.66 26.95 35.20 23.34 41.78 Z" />
<path fill="#000000" opacity="1.00" d=" M 72.80 72.79 C 83.05 65.36 96.42 62.59 108.80 65.09 C 126.19 68.22 141.13 82.69 144.30 100.14 C 140.09 100.11 135.62 101.00 131.60 99.46 C 126.86 95.71 126.76 89.05 126.42 83.52 C 122.64 81.80 119.01 79.66 114.98 78.54 C 111.20 77.66 109.44 73.84 107.03 71.19 C 103.28 74.05 101.10 78.26 98.82 82.27 C 96.37 81.76 93.87 81.38 91.50 80.54 C 89.76 78.87 89.13 76.39 88.02 74.30 C 84.60 77.79 80.64 81.14 78.94 85.88 C 78.00 88.09 77.36 90.90 74.72 91.66 C 71.45 92.85 69.15 95.46 66.86 97.95 C 63.90 101.31 59.04 100.29 55.10 100.98 C 56.68 89.65 63.69 79.49 72.80 72.79 Z" />
</g>
<g id="#f7f048ff">
<path fill="#f7f048" opacity="1.00" d=" M 23.34 41.78 C 26.95 35.20 30.65 28.66 34.79 22.40 C 77.21 22.67 119.64 22.85 162.07 22.83 C 163.35 23.02 165.24 22.61 165.95 24.03 C 169.64 29.94 173.06 36.02 176.71 41.96 C 167.66 47.39 161.39 57.34 161.49 68.03 C 161.85 83.84 161.46 99.66 160.59 115.45 C 159.67 132.38 151.57 148.69 138.63 159.66 C 125.62 171.27 107.16 175.94 90.09 172.97 C 63.04 168.87 40.78 144.34 39.17 117.05 C 39.07 100.68 38.66 84.31 38.74 67.94 C 38.70 57.19 31.94 47.69 23.34 41.78 M 126.21 30.32 C 126.17 39.84 126.14 49.35 126.18 58.87 C 128.05 58.87 129.92 58.87 131.79 58.86 C 131.81 49.35 131.87 39.85 131.74 30.34 C 129.89 30.34 128.05 30.33 126.21 30.32 M 139.80 30.36 C 139.41 39.87 139.66 49.41 139.70 58.93 C 146.36 58.81 153.04 59.25 159.70 58.81 C 159.67 57.36 159.65 55.91 159.63 54.46 C 154.84 54.52 150.04 54.57 145.26 54.32 C 145.27 46.34 145.48 38.35 145.13 30.37 C 143.35 30.37 141.58 30.37 139.80 30.36 M 40.51 44.99 C 40.24 48.49 41.72 51.74 43.05 54.88 C 42.18 56.48 41.41 58.17 41.51 60.04 C 42.79 59.18 44.04 58.27 45.27 57.35 C 49.04 59.35 53.40 61.07 57.69 59.71 C 63.84 58.22 68.10 52.22 68.24 46.01 C 68.70 42.37 66.77 39.16 65.61 35.87 C 66.21 34.09 67.18 32.46 67.91 30.74 C 66.24 31.41 64.62 32.19 63.01 33.00 C 59.56 31.50 55.84 29.82 51.99 30.67 C 45.35 31.83 40.45 38.36 40.51 44.99 M 72.23 31.17 C 72.19 40.53 72.18 49.88 72.29 59.23 C 74.14 59.28 75.99 59.30 77.85 59.32 C 78.14 54.80 76.72 49.26 80.92 46.12 C 84.19 50.34 87.01 54.87 90.10 59.22 C 92.24 59.21 94.38 59.17 96.51 59.10 C 92.93 53.31 88.71 47.94 85.03 42.21 C 88.59 38.51 92.38 35.02 95.58 30.99 C 92.87 31.16 89.45 30.12 87.45 32.53 C 84.27 35.68 81.39 39.13 78.15 42.22 C 78.08 38.53 78.04 34.83 77.89 31.13 C 76.01 31.15 74.12 31.16 72.23 31.17 M 102.49 32.53 C 98.70 34.92 97.85 40.78 101.01 44.01 C 104.99 47.57 110.98 46.85 115.26 49.79 C 118.23 53.03 113.05 56.12 110.00 55.51 C 106.60 55.91 104.46 53.23 103.07 50.54 C 101.43 50.59 99.80 50.66 98.16 50.73 C 98.84 53.14 99.39 55.90 101.62 57.40 C 106.08 60.66 112.45 60.62 117.34 58.37 C 121.83 56.33 123.58 49.62 119.99 46.00 C 116.24 42.51 110.63 43.01 106.26 40.75 C 104.28 39.79 104.74 36.42 106.70 35.70 C 109.70 34.48 113.35 34.87 115.41 37.56 C 116.84 39.56 119.35 39.09 121.49 39.20 C 120.73 36.71 119.98 33.90 117.61 32.43 C 113.18 29.56 106.92 29.73 102.49 32.53 M 72.80 72.79 C 63.69 79.49 56.68 89.65 55.10 100.98 C 54.71 101.27 53.95 101.85 53.56 102.14 L 54.82 102.18 C 53.89 108.95 53.75 115.92 55.51 122.58 C 60.14 142.14 78.99 157.01 99.01 157.48 C 115.45 158.32 131.80 149.35 140.23 135.29 C 146.30 125.41 147.98 113.40 145.99 102.07 L 145.03 102.03 C 145.10 101.54 145.25 100.58 145.32 100.10 L 144.30 100.14 C 141.13 82.69 126.19 68.22 108.80 65.09 C 96.42 62.59 83.05 65.36 72.80 72.79 M 43.83 97.59 C 43.28 99.67 41.47 102.00 42.83 104.12 C 44.51 106.91 48.15 106.27 50.90 106.68 C 51.15 104.26 52.84 101.31 50.75 99.28 C 49.00 97.33 46.15 97.91 43.83 97.59 M 152.43 99.72 C 152.52 100.61 152.70 102.40 152.79 103.29 C 153.25 102.74 154.16 101.64 154.62 101.09 C 155.14 101.39 156.18 101.97 156.70 102.27 C 156.30 103.31 155.85 104.33 155.34 105.33 C 153.69 106.47 151.72 105.58 149.98 105.22 C 150.24 103.34 150.53 101.46 150.70 99.57 C 149.47 101.10 147.66 103.00 148.77 105.12 C 150.23 109.29 157.54 108.42 157.89 103.98 C 157.72 102.26 157.19 100.60 156.80 98.93 C 155.34 99.19 153.89 99.45 152.43 99.72 M 41.06 108.90 C 42.53 109.63 44.04 110.28 45.55 110.94 C 44.01 112.47 42.51 114.05 41.45 115.96 C 43.37 115.08 45.20 114.00 47.00 112.89 C 48.46 113.65 49.91 114.41 51.40 115.10 C 50.47 113.55 49.41 112.08 48.33 110.63 C 49.38 109.90 50.42 109.15 51.44 108.37 C 47.97 108.14 44.47 108.17 41.06 108.90 M 149.37 111.37 C 149.30 111.74 149.17 112.46 149.10 112.82 C 151.83 114.50 154.92 115.42 157.91 116.50 C 156.80 113.76 156.76 110.94 158.19 108.32 C 155.24 109.29 152.12 109.89 149.37 111.37 M 42.32 121.76 C 42.57 124.26 45.09 124.70 47.13 124.78 C 47.81 122.56 47.83 119.89 49.80 118.32 C 49.78 120.21 49.67 122.10 49.63 123.99 C 52.74 122.34 52.47 117.53 49.03 116.45 C 45.85 117.01 46.31 120.62 45.61 123.01 C 45.19 122.75 44.34 122.22 43.92 121.96 C 44.22 120.21 44.51 118.47 44.73 116.71 C 43.38 118.08 41.43 119.57 42.32 121.76 M 155.33 121.60 C 152.73 121.32 150.13 121.06 147.52 121.01 C 150.01 123.59 153.80 123.35 157.06 123.99 C 157.44 121.80 157.78 119.60 157.95 117.39 C 156.97 118.72 156.12 120.15 155.33 121.60 M 146.66 130.38 C 149.57 132.84 151.81 128.44 154.40 127.47 C 153.70 129.62 152.44 131.49 151.27 133.40 C 153.04 132.55 155.38 131.92 155.69 129.63 C 156.47 127.79 154.71 126.39 153.92 124.93 C 151.83 126.42 149.89 128.11 147.80 129.61 C 148.45 127.66 149.28 125.77 149.98 123.84 C 147.65 125.09 145.09 127.51 146.66 130.38 M 43.65 128.89 C 45.75 128.76 47.84 128.46 49.92 128.13 C 48.25 130.18 46.67 132.33 45.66 134.79 C 49.15 134.10 53.07 133.59 55.55 130.74 C 53.41 130.97 51.30 131.41 49.20 131.91 C 50.90 129.82 52.50 127.62 53.41 125.07 C 49.95 125.65 46.32 126.44 43.65 128.89 M 136.63 145.00 C 137.78 144.72 138.93 144.44 140.08 144.14 C 142.13 145.59 144.23 146.97 146.52 148.02 C 145.32 145.42 142.97 143.72 140.82 141.96 C 141.89 140.22 142.98 138.50 144.11 136.81 C 146.60 137.95 149.09 139.14 151.73 139.89 C 149.61 137.00 145.42 135.94 145.25 131.80 C 142.81 136.48 139.90 140.86 136.63 145.00 M 47.93 137.93 C 49.15 139.92 50.41 141.90 51.87 143.74 C 51.65 141.68 51.30 139.65 51.05 137.60 C 52.61 138.76 54.08 140.02 55.60 141.23 C 55.13 139.40 54.62 137.57 54.19 135.73 C 55.91 137.15 57.52 138.70 59.27 140.08 C 58.40 137.74 57.24 135.53 56.03 133.35 C 53.28 134.79 50.59 136.32 47.93 137.93 M 57.52 142.44 C 57.32 144.77 58.04 147.06 58.20 149.39 C 56.52 147.88 55.76 145.76 54.95 143.73 C 52.37 147.03 56.47 152.43 60.19 149.88 C 60.67 147.41 59.66 144.97 59.44 142.53 C 60.79 144.06 61.99 145.71 63.25 147.31 C 64.63 143.97 60.48 139.10 57.52 142.44 M 130.92 149.89 C 132.93 152.19 134.98 154.47 137.08 156.71 C 138.99 155.03 140.85 153.27 142.31 151.17 C 140.16 152.10 138.14 153.57 135.70 153.53 C 136.71 151.91 137.81 150.35 138.88 148.77 C 137.08 149.51 135.31 150.31 133.49 151.02 C 134.58 149.13 135.81 147.33 136.91 145.44 C 134.74 146.69 132.79 148.24 130.92 149.89 M 123.73 154.89 C 125.38 157.65 127.09 160.41 129.44 162.63 C 129.33 161.06 129.13 159.51 129.07 157.94 C 130.84 156.98 132.63 158.74 134.38 159.07 C 133.04 156.88 131.88 154.58 130.35 152.52 C 127.98 151.09 125.73 153.88 123.73 154.89 M 70.24 154.37 C 70.49 156.88 72.35 158.89 73.15 161.25 C 71.14 160.11 69.47 158.51 67.75 156.99 C 68.07 159.29 68.90 161.95 71.55 162.38 C 73.30 163.18 74.46 161.28 75.65 160.36 C 74.42 158.41 73.15 156.48 72.08 154.44 C 73.93 155.44 75.62 156.70 77.35 157.90 C 77.42 154.31 72.86 150.73 70.24 154.37 M 75.85 165.38 C 77.13 164.38 78.35 163.30 79.55 162.20 C 80.35 164.14 81.23 166.07 82.66 167.65 C 82.58 165.56 82.33 163.48 82.06 161.40 C 83.30 160.40 84.54 159.38 85.73 158.31 C 83.93 158.57 82.17 159.00 80.43 159.50 C 80.32 158.21 80.18 156.91 80.00 155.63 C 77.88 158.51 76.52 161.88 75.85 165.38 M 115.78 158.19 C 116.78 161.16 117.96 164.06 119.24 166.92 C 120.97 166.12 122.79 165.44 124.32 164.27 C 126.23 161.57 124.28 157.11 120.97 156.77 C 119.19 157.03 117.49 157.66 115.78 158.19 M 88.39 159.41 C 84.52 160.18 83.29 166.30 86.82 168.28 C 89.53 170.10 93.47 168.00 93.64 164.77 C 94.40 161.75 91.45 158.65 88.39 159.41 M 111.78 158.64 C 112.17 162.06 111.89 166.53 115.27 168.57 C 114.79 165.11 114.69 161.06 111.78 158.64 M 102.97 160.91 C 103.18 164.02 103.52 167.13 103.99 170.21 C 106.48 169.78 108.98 169.32 111.37 168.49 C 109.61 168.20 107.83 168.01 106.05 167.84 C 105.80 167.46 105.31 166.72 105.06 166.34 C 106.67 165.81 108.28 165.28 109.89 164.73 C 108.10 164.27 106.30 163.89 104.50 163.46 C 106.28 162.47 108.12 161.59 109.90 160.59 C 107.58 160.54 105.27 160.71 102.97 160.91 M 95.60 161.19 C 95.53 164.07 95.41 166.95 95.30 169.83 C 97.69 169.90 100.08 169.95 102.47 169.83 C 100.90 168.98 99.24 168.28 97.56 167.65 C 97.55 165.41 97.59 163.16 97.61 160.92 C 97.11 160.99 96.10 161.13 95.60 161.19 Z" />
<path fill="#f7f048" opacity="1.00" d=" M 49.20 37.20 C 52.03 34.16 56.66 35.15 59.88 36.96 C 55.96 42.00 51.52 46.63 46.96 51.10 C 45.75 46.47 45.41 40.77 49.20 37.20 Z" />
<path fill="#f7f048" opacity="1.00" d=" M 48.70 53.29 C 52.92 48.69 56.80 43.73 61.62 39.74 C 63.31 44.50 63.13 50.50 59.00 53.98 C 55.99 56.66 51.54 55.70 48.70 53.29 Z" />
<path fill="#f7f048" opacity="1.00" d=" M 43.53 101.34 C 45.14 100.68 46.75 100.03 48.35 99.37 C 49.07 100.59 50.61 101.69 50.05 103.29 C 48.88 103.91 47.60 104.80 46.21 104.50 C 44.66 104.21 44.31 102.45 43.53 101.34 Z" />
<path fill="#f7f048" opacity="1.00" d=" M 114.36 107.50 C 115.23 106.56 117.20 106.95 117.54 108.23 C 117.42 110.23 113.44 109.39 114.36 107.50 Z" />
<path fill="#f7f048" opacity="1.00" d=" M 154.19 111.28 C 155.79 111.70 154.61 113.96 153.28 113.27 C 151.66 112.84 152.88 110.66 154.19 111.28 Z" />
<path fill="#f7f048" opacity="1.00" d=" M 63.40 116.37 C 64.25 115.23 66.46 115.68 66.60 117.16 C 66.46 119.36 62.16 118.43 63.40 116.37 Z" />
<path fill="#f7f048" opacity="1.00" d=" M 130.34 129.11 C 132.91 127.64 135.83 127.18 138.76 127.07 C 138.76 127.43 138.77 128.14 138.77 128.50 C 135.95 128.65 133.15 128.90 130.34 129.11 Z" />
<path fill="#f7f048" opacity="1.00" d=" M 128.76 133.44 C 130.99 132.84 133.26 132.45 135.55 132.13 C 135.60 132.51 135.69 133.29 135.74 133.67 C 133.41 133.61 131.08 133.56 128.76 133.44 Z" />
<path fill="#f7f048" opacity="1.00" d=" M 66.83 135.61 C 69.99 135.46 73.17 135.44 76.34 135.57 C 73.29 137.04 69.91 136.87 66.83 135.61 Z" />
<path fill="#f7f048" opacity="1.00" d=" M 126.75 137.45 C 129.17 136.41 131.80 136.49 134.23 137.46 C 131.74 137.60 129.24 137.59 126.75 137.45 Z" />
<path fill="#f7f048" opacity="1.00" d=" M 101.42 143.20 C 104.21 141.92 107.32 141.17 110.30 142.32 C 107.35 142.75 104.39 143.04 101.42 143.20 Z" />
<path fill="#f7f048" opacity="1.00" d=" M 125.96 154.77 C 127.40 154.48 128.84 154.20 130.30 153.96 C 129.43 155.15 128.54 156.31 127.61 157.45 C 127.20 156.78 126.37 155.44 125.96 154.77 Z" />
<path fill="#f7f048" opacity="1.00" d=" M 118.09 158.64 C 119.34 158.65 120.59 158.72 121.84 158.85 C 123.11 160.16 122.92 162.08 123.19 163.75 C 122.39 163.91 120.80 164.22 120.01 164.38 C 119.37 162.47 118.71 160.56 118.09 158.64 Z" />
<path fill="#f7f048" opacity="1.00" d=" M 87.62 161.62 C 88.93 161.28 90.29 161.36 91.63 161.31 C 91.54 163.13 92.03 165.21 90.77 166.74 C 89.49 166.93 88.21 167.07 86.93 167.14 C 86.95 165.29 86.49 163.25 87.62 161.62 Z" />
</g>
<g id="#d10539ff">
<path fill="#d10539" opacity="1.00" d=" M 126.21 30.32 C 128.05 30.33 129.89 30.34 131.74 30.34 C 131.87 39.85 131.81 49.35 131.79 58.86 C 129.92 58.87 128.05 58.87 126.18 58.87 C 126.14 49.35 126.17 39.84 126.21 30.32 Z" />
<path fill="#d10539" opacity="1.00" d=" M 139.80 30.36 C 141.58 30.37 143.35 30.37 145.13 30.37 C 145.48 38.35 145.27 46.34 145.26 54.32 C 150.04 54.57 154.84 54.52 159.63 54.46 C 159.65 55.91 159.67 57.36 159.70 58.81 C 153.04 59.25 146.36 58.81 139.70 58.93 C 139.66 49.41 139.41 39.87 139.80 30.36 Z" />
<path fill="#d10539" opacity="1.00" d=" M 40.51 44.99 C 40.45 38.36 45.35 31.83 51.99 30.67 C 55.84 29.82 59.56 31.50 63.01 33.00 C 64.62 32.19 66.24 31.41 67.91 30.74 C 67.18 32.46 66.21 34.09 65.61 35.87 C 66.77 39.16 68.70 42.37 68.24 46.01 C 68.10 52.22 63.84 58.22 57.69 59.71 C 53.40 61.07 49.04 59.35 45.27 57.35 C 44.04 58.27 42.79 59.18 41.51 60.04 C 41.41 58.17 42.18 56.48 43.05 54.88 C 41.72 51.74 40.24 48.49 40.51 44.99 M 49.20 37.20 C 45.41 40.77 45.75 46.47 46.96 51.10 C 51.52 46.63 55.96 42.00 59.88 36.96 C 56.66 35.15 52.03 34.16 49.20 37.20 M 48.70 53.29 C 51.54 55.70 55.99 56.66 59.00 53.98 C 63.13 50.50 63.31 44.50 61.62 39.74 C 56.80 43.73 52.92 48.69 48.70 53.29 Z" />
<path fill="#d10539" opacity="1.00" d=" M 72.23 31.17 C 74.12 31.16 76.01 31.15 77.89 31.13 C 78.04 34.83 78.08 38.53 78.15 42.22 C 81.39 39.13 84.27 35.68 87.45 32.53 C 89.45 30.12 92.87 31.16 95.58 30.99 C 92.38 35.02 88.59 38.51 85.03 42.21 C 88.71 47.94 92.93 53.31 96.51 59.10 C 94.38 59.17 92.24 59.21 90.10 59.22 C 87.01 54.87 84.19 50.34 80.92 46.12 C 76.72 49.26 78.14 54.80 77.85 59.32 C 75.99 59.30 74.14 59.28 72.29 59.23 C 72.18 49.88 72.19 40.53 72.23 31.17 Z" />
<path fill="#d10539" opacity="1.00" d=" M 102.49 32.53 C 106.92 29.73 113.18 29.56 117.61 32.43 C 119.98 33.90 120.73 36.71 121.49 39.20 C 119.35 39.09 116.84 39.56 115.41 37.56 C 113.35 34.87 109.70 34.48 106.70 35.70 C 104.74 36.42 104.28 39.79 106.26 40.75 C 110.63 43.01 116.24 42.51 119.99 46.00 C 123.58 49.62 121.83 56.33 117.34 58.37 C 112.45 60.62 106.08 60.66 101.62 57.40 C 99.39 55.90 98.84 53.14 98.16 50.73 C 99.80 50.66 101.43 50.59 103.07 50.54 C 104.46 53.23 106.60 55.91 110.00 55.51 C 113.05 56.12 118.23 53.03 115.26 49.79 C 110.98 46.85 104.99 47.57 101.01 44.01 C 97.85 40.78 98.70 34.92 102.49 32.53 Z" />
<path fill="#d10539" opacity="1.00" d=" M 98.82 82.27 C 101.10 78.26 103.28 74.05 107.03 71.19 C 109.44 73.84 111.20 77.66 114.98 78.54 C 119.01 79.66 122.64 81.80 126.42 83.52 C 126.76 89.05 126.86 95.71 131.60 99.46 C 135.62 101.00 140.09 100.11 144.30 100.14 L 145.32 100.10 C 145.25 100.58 145.10 101.54 145.03 102.03 C 141.69 101.84 138.34 101.83 135.01 101.99 C 135.62 102.62 136.23 103.24 136.85 103.87 C 134.94 103.83 133.04 103.80 131.13 103.80 C 131.79 103.20 132.44 102.60 133.10 102.00 C 119.62 101.12 106.02 103.53 92.59 101.61 C 104.84 101.15 117.09 100.70 129.34 100.25 C 128.45 98.81 127.56 97.37 126.68 95.92 C 125.78 96.97 124.89 98.02 124.00 99.07 C 123.69 95.05 122.10 91.35 120.80 87.58 C 122.17 87.49 123.54 87.41 124.91 87.34 C 124.82 86.51 124.73 85.67 124.64 84.84 C 121.76 83.73 119.21 81.99 116.58 80.41 C 114.94 80.35 113.42 81.11 111.90 81.59 C 110.56 78.86 109.36 75.86 106.79 74.03 C 104.89 74.00 104.12 75.95 103.33 77.35 C 101.51 81.03 99.56 84.75 96.60 87.67 C 93.63 91.04 90.95 95.25 91.09 99.91 C 91.15 104.14 90.22 108.86 93.14 112.40 C 92.47 112.51 91.12 112.71 90.45 112.81 C 91.74 113.54 93.04 114.26 94.34 114.99 C 94.68 113.38 94.99 111.77 95.30 110.16 C 97.61 109.67 99.94 109.21 102.31 109.05 C 103.07 107.43 103.87 105.83 104.74 104.26 C 105.44 104.49 106.83 104.95 107.53 105.18 C 107.47 106.76 107.39 108.34 107.32 109.92 C 109.21 109.54 111.09 109.12 112.97 108.69 C 111.25 112.07 110.03 115.65 108.88 119.25 C 108.71 118.37 108.39 116.61 108.22 115.73 C 105.65 116.66 103.06 117.50 100.44 118.29 C 100.26 123.62 100.17 128.95 99.82 134.27 C 102.64 134.58 105.47 134.92 108.24 135.58 C 105.56 135.65 102.90 135.38 100.24 135.20 C 99.92 137.57 99.64 139.95 99.30 142.33 C 97.51 141.09 95.83 139.70 94.15 138.31 C 94.20 139.87 94.34 141.43 94.30 142.99 C 91.76 146.57 87.82 148.79 84.65 151.74 C 83.81 148.38 83.03 144.92 81.10 141.99 C 81.44 140.87 81.80 139.75 82.17 138.64 C 82.90 141.08 83.57 143.53 84.44 145.93 C 85.20 144.74 85.95 143.55 86.68 142.36 C 87.61 142.33 88.55 142.30 89.49 142.27 C 89.40 140.69 89.31 139.10 89.20 137.52 C 87.55 138.41 85.91 139.32 84.23 140.15 C 85.57 138.70 87.02 137.36 88.45 136.00 C 88.04 134.19 86.41 132.23 87.51 130.39 C 89.56 126.41 92.14 122.74 94.26 118.80 C 90.66 117.91 87.06 117.01 83.44 116.19 C 83.95 118.12 84.51 120.03 85.03 121.96 C 82.19 121.83 79.35 121.68 76.53 121.33 C 78.18 120.71 79.87 120.21 81.56 119.73 C 81.23 116.10 81.25 112.45 81.60 108.82 C 83.81 110.56 86.21 112.03 88.59 113.54 C 89.41 108.02 89.74 102.45 89.87 96.87 C 88.47 98.86 87.33 101.09 85.56 102.79 C 84.10 103.35 82.53 103.54 81.01 103.87 C 82.29 102.87 83.60 101.92 84.93 100.98 C 74.88 101.08 64.86 102.01 54.82 102.18 L 53.56 102.14 C 53.95 101.85 54.71 101.27 55.10 100.98 C 59.04 100.29 63.90 101.31 66.86 97.95 C 69.15 95.46 71.45 92.85 74.72 91.66 C 77.36 90.90 78.00 88.09 78.94 85.88 C 80.64 81.14 84.60 77.79 88.02 74.30 C 89.13 76.39 89.76 78.87 91.50 80.54 C 93.87 81.38 96.37 81.76 98.82 82.27 M 80.30 87.24 C 79.60 90.03 78.10 93.43 74.92 93.91 C 71.33 94.07 69.59 97.64 67.84 100.27 C 70.27 99.33 72.08 97.46 73.87 95.65 C 73.57 96.92 73.28 98.19 72.99 99.47 C 74.84 99.22 76.89 99.58 78.61 98.70 C 79.21 97.31 80.19 95.69 79.22 94.21 C 82.17 90.02 81.57 83.93 85.88 80.50 C 85.00 85.91 83.86 91.57 80.23 95.89 C 84.42 95.13 86.07 90.94 88.61 88.08 C 89.11 93.64 83.45 96.32 79.58 99.01 C 83.89 100.15 86.99 96.50 89.96 94.04 C 91.15 90.43 92.31 86.75 92.36 82.92 C 91.76 83.06 90.54 83.36 89.94 83.51 C 89.32 84.58 88.68 85.62 88.01 86.65 C 87.32 83.31 87.08 79.90 87.52 76.51 C 84.77 79.82 81.34 82.90 80.30 87.24 M 105.14 106.07 C 103.61 106.09 103.28 108.80 104.97 108.83 C 106.49 108.84 106.80 106.09 105.14 106.07 M 96.25 111.55 C 96.09 111.94 95.76 112.71 95.60 113.09 C 97.24 116.23 99.66 109.81 96.25 111.55 M 101.27 111.12 C 101.37 114.46 104.24 109.60 101.27 111.12 M 104.11 111.21 C 103.51 112.84 104.04 113.36 105.70 112.76 C 106.28 111.11 105.75 110.59 104.11 111.21 M 99.70 117.06 C 103.38 116.78 107.27 115.68 109.74 112.75 C 106.33 114.00 102.68 114.90 99.70 117.06 M 83.26 113.90 C 86.79 116.48 91.36 117.67 95.70 117.10 C 91.78 115.33 87.48 114.57 83.26 113.90 M 94.19 121.18 C 94.80 121.79 94.80 121.79 94.19 121.18 M 89.36 128.68 C 91.00 128.19 92.62 127.59 94.24 127.03 C 94.09 127.50 93.78 128.45 93.62 128.93 C 91.75 129.67 90.00 130.64 88.23 131.57 C 88.42 132.63 88.82 134.73 89.02 135.78 C 90.12 134.65 91.16 133.47 92.17 132.26 C 92.54 134.38 92.95 136.50 93.52 138.59 C 94.39 137.43 95.24 136.26 96.08 135.08 C 96.48 136.90 96.91 138.73 97.92 140.32 C 97.45 136.55 97.65 132.79 99.06 129.23 C 97.21 130.52 95.46 131.96 94.00 133.68 C 93.72 133.42 93.17 132.88 92.89 132.62 C 94.00 131.61 95.13 130.63 96.27 129.66 C 95.63 128.48 94.97 127.32 94.30 126.16 C 96.06 124.81 98.21 123.65 98.69 121.28 C 95.12 123.04 91.41 125.11 89.36 128.68 M 98.26 125.21 C 96.77 125.28 95.33 127.09 96.45 128.42 C 97.97 129.55 100.12 125.67 98.26 125.21 M 89.34 135.76 C 89.98 137.20 89.30 141.12 91.89 140.01 C 92.48 138.49 92.68 136.91 92.50 135.26 C 91.71 135.38 90.13 135.63 89.34 135.76 M 91.34 141.15 C 89.84 142.16 91.46 144.81 92.97 143.58 C 94.54 142.43 92.84 140.42 91.34 141.15 M 88.36 143.42 C 87.28 144.17 87.29 146.51 88.82 146.68 C 90.96 146.56 90.60 142.13 88.36 143.42 M 86.12 145.44 C 84.32 145.50 83.91 148.70 85.88 148.80 C 87.63 148.76 87.97 145.57 86.12 145.44 Z" />
<path fill="#d10539" opacity="1.00" d=" M 98.90 91.43 C 100.77 85.74 103.82 80.37 108.44 76.47 C 108.49 77.78 108.66 79.11 108.47 80.43 C 107.06 82.04 104.97 83.07 104.06 85.10 C 102.83 87.54 101.36 90.03 98.90 91.43 Z" />
<path fill="#d10539" opacity="1.00" d=" M 114.98 81.46 C 118.18 82.19 119.92 84.80 120.27 87.94 C 118.37 87.10 116.49 86.24 114.59 85.40 C 114.69 84.42 114.89 82.45 114.98 81.46 Z" />
<path fill="#d10539" opacity="1.00" d=" M 106.89 86.90 C 108.65 86.11 110.36 85.23 112.04 84.28 C 112.08 85.74 112.12 87.21 112.15 88.67 C 110.40 88.09 108.64 87.51 106.89 86.90 Z" />
<path fill="#d10539" opacity="1.00" d=" M 107.79 93.29 C 110.50 90.77 114.00 89.69 117.68 89.95 C 117.57 92.98 118.09 95.96 119.53 98.65 C 117.31 96.85 115.55 94.57 114.42 91.94 C 113.93 92.88 113.45 93.83 112.96 94.77 C 111.48 93.53 109.67 93.17 107.79 93.29 Z" />
<path fill="#d10539" opacity="1.00" d=" M 94.37 100.31 C 96.10 96.74 99.45 94.39 102.39 91.88 C 101.06 95.56 98.14 99.01 94.37 100.31 Z" />
<path fill="#d10539" opacity="1.00" d=" M 93.24 95.24 C 94.86 94.35 96.47 93.45 98.14 92.66 C 96.95 94.17 95.63 95.57 94.23 96.89 C 93.98 96.47 93.49 95.65 93.24 95.24 Z" />
<path fill="#d10539" opacity="1.00" d=" M 103.21 95.26 C 104.95 96.05 102.79 99.64 101.13 98.70 C 100.30 97.35 101.93 95.60 103.21 95.26 Z" />
<path fill="#d10539" opacity="1.00" d=" M 43.83 97.59 C 46.15 97.91 49.00 97.33 50.75 99.28 C 52.84 101.31 51.15 104.26 50.90 106.68 C 48.15 106.27 44.51 106.91 42.83 104.12 C 41.47 102.00 43.28 99.67 43.83 97.59 M 43.53 101.34 C 44.31 102.45 44.66 104.21 46.21 104.50 C 47.60 104.80 48.88 103.91 50.05 103.29 C 50.61 101.69 49.07 100.59 48.35 99.37 C 46.75 100.03 45.14 100.68 43.53 101.34 Z" />
<path fill="#d10539" opacity="1.00" d=" M 152.43 99.72 C 153.89 99.45 155.34 99.19 156.80 98.93 C 157.19 100.60 157.72 102.26 157.89 103.98 C 157.54 108.42 150.23 109.29 148.77 105.12 C 147.66 103.00 149.47 101.10 150.70 99.57 C 150.53 101.46 150.24 103.34 149.98 105.22 C 151.72 105.58 153.69 106.47 155.34 105.33 C 155.85 104.33 156.30 103.31 156.70 102.27 C 156.18 101.97 155.14 101.39 154.62 101.09 C 154.16 101.64 153.25 102.74 152.79 103.29 C 152.70 102.40 152.52 100.61 152.43 99.72 Z" />
<path fill="#d10539" opacity="1.00" d=" M 97.93 103.51 C 99.10 103.33 100.74 103.29 101.52 104.36 C 101.24 106.23 95.80 105.06 97.93 103.51 Z" />
<path fill="#d10539" opacity="1.00" d=" M 113.77 104.30 C 116.76 103.02 119.88 103.68 122.68 105.13 C 119.71 104.85 116.74 104.54 113.77 104.30 Z" />
<path fill="#d10539" opacity="1.00" d=" M 61.73 105.41 C 65.08 103.85 68.76 104.19 72.14 105.44 C 68.67 105.43 65.20 105.32 61.73 105.41 Z" />
<path fill="#d10539" opacity="1.00" d=" M 96.16 106.46 C 96.86 106.43 99.08 106.53 98.43 107.72 C 96.97 108.45 95.04 108.36 93.60 107.62 C 93.21 106.39 95.43 106.58 96.16 106.46 Z" />
<path fill="#d10539" opacity="1.00" d=" M 131.15 107.59 C 133.66 107.39 136.15 107.00 138.67 106.83 C 136.45 108.01 133.97 108.45 131.51 108.77 C 131.42 108.47 131.24 107.88 131.15 107.59 Z" />
<path fill="#d10539" opacity="1.00" d=" M 72.74 108.70 C 75.30 108.09 77.92 107.68 80.55 107.51 C 78.26 109.12 75.38 108.88 72.74 108.70 Z" />
<path fill="#d10539" opacity="1.00" d=" M 41.06 108.90 C 44.47 108.17 47.97 108.14 51.44 108.37 C 50.42 109.15 49.38 109.90 48.33 110.63 C 49.41 112.08 50.47 113.55 51.40 115.10 C 49.91 114.41 48.46 113.65 47.00 112.89 C 45.20 114.00 43.37 115.08 41.45 115.96 C 42.51 114.05 44.01 112.47 45.55 110.94 C 44.04 110.28 42.53 109.63 41.06 108.90 Z" />
<path fill="#d10539" opacity="1.00" d=" M 120.71 109.78 C 122.22 108.17 124.48 108.16 126.53 108.20 C 124.72 109.14 122.72 109.55 120.71 109.78 Z" />
<path fill="#d10539" opacity="1.00" d=" M 149.37 111.37 C 152.12 109.89 155.24 109.29 158.19 108.32 C 156.76 110.94 156.80 113.76 157.91 116.50 C 154.92 115.42 151.83 114.50 149.10 112.82 C 149.17 112.46 149.30 111.74 149.37 111.37 M 154.19 111.28 C 152.88 110.66 151.66 112.84 153.28 113.27 C 154.61 113.96 155.79 111.70 154.19 111.28 Z" />
<path fill="#d10539" opacity="1.00" d=" M 59.59 109.10 C 60.21 108.13 62.66 108.27 62.42 109.70 C 61.79 110.65 59.34 110.54 59.59 109.10 Z" />
<path fill="#d10539" opacity="1.00" d=" M 63.62 112.62 C 65.68 111.32 68.18 111.26 70.55 111.36 C 68.36 112.31 65.97 112.55 63.62 112.62 Z" />
<path fill="#d10539" opacity="1.00" d=" M 113.68 111.67 C 116.21 111.37 118.76 111.31 121.30 111.47 C 118.84 112.34 116.15 112.75 113.68 111.67 Z" />
<path fill="#d10539" opacity="1.00" d=" M 133.58 112.16 C 136.44 110.94 139.73 110.81 142.53 112.27 C 139.54 112.33 136.56 112.20 133.58 112.16 Z" />
<path fill="#d10539" opacity="1.00" d=" M 123.53 113.21 C 124.86 112.42 127.82 112.41 128.49 113.90 C 127.14 114.52 124.17 114.68 123.53 113.21 Z" />
<path fill="#d10539" opacity="1.00" d=" M 68.58 114.53 C 71.82 114.17 75.09 114.14 78.34 114.34 C 75.17 115.22 71.75 115.76 68.58 114.53 Z" />
<path fill="#d10539" opacity="1.00" d=" M 112.62 114.46 C 115.16 114.10 117.74 114.26 120.25 114.75 C 117.73 115.40 115.11 115.04 112.62 114.46 Z" />
<path fill="#d10539" opacity="1.00" d=" M 42.32 121.76 C 41.43 119.57 43.38 118.08 44.73 116.71 C 44.51 118.47 44.22 120.21 43.92 121.96 C 44.34 122.22 45.19 122.75 45.61 123.01 C 46.31 120.62 45.85 117.01 49.03 116.45 C 52.47 117.53 52.74 122.34 49.63 123.99 C 49.67 122.10 49.78 120.21 49.80 118.32 C 47.83 119.89 47.81 122.56 47.13 124.78 C 45.09 124.70 42.57 124.26 42.32 121.76 Z" />
<path fill="#d10539" opacity="1.00" d=" M 109.59 117.96 C 113.01 116.51 116.80 117.02 120.30 117.85 C 116.79 118.51 113.07 119.09 109.59 117.96 Z" />
<path fill="#d10539" opacity="1.00" d=" M 124.66 118.14 C 127.14 117.18 129.86 117.21 132.29 118.29 C 129.75 118.48 127.20 118.38 124.66 118.14 Z" />
<path fill="#d10539" opacity="1.00" d=" M 155.33 121.60 C 156.12 120.15 156.97 118.72 157.95 117.39 C 157.78 119.60 157.44 121.80 157.06 123.99 C 153.80 123.35 150.01 123.59 147.52 121.01 C 150.13 121.06 152.73 121.32 155.33 121.60 Z" />
<path fill="#d10539" opacity="1.00" d=" M 64.87 119.94 C 68.10 118.85 71.32 120.25 74.22 121.64 C 71.07 121.28 67.98 120.52 64.87 119.94 Z" />
<path fill="#d10539" opacity="1.00" d=" M 102.54 119.37 C 103.18 118.36 105.55 118.64 105.41 120.03 C 104.77 121.01 102.39 120.75 102.54 119.37 Z" />
<path fill="#d10539" opacity="1.00" d=" M 86.83 121.69 C 88.45 120.64 90.31 120.13 92.24 120.16 C 90.68 121.35 88.74 121.63 86.83 121.69 Z" />
<path fill="#d10539" opacity="1.00" d=" M 129.63 121.30 C 132.80 120.22 136.16 120.81 139.34 121.49 C 136.12 121.95 132.85 121.68 129.63 121.30 Z" />
<path fill="#d10539" opacity="1.00" d=" M 109.64 121.63 C 111.40 120.85 113.76 120.17 115.56 121.11 C 114.74 122.52 110.57 122.89 109.64 121.63 Z" />
<path fill="#d10539" opacity="1.00" d=" M 63.83 125.26 C 67.07 124.22 70.42 124.58 73.19 126.63 C 70.08 126.11 66.98 125.53 63.83 125.26 Z" />
<path fill="#d10539" opacity="1.00" d=" M 79.79 124.62 C 82.77 124.53 85.75 124.70 88.71 124.97 C 85.83 126.22 82.63 125.73 79.79 124.62 Z" />
<path fill="#d10539" opacity="1.00" d=" M 100.62 125.47 C 104.10 124.25 107.87 124.27 111.33 125.56 C 107.76 125.63 104.19 125.55 100.62 125.47 Z" />
<path fill="#d10539" opacity="1.00" d=" M 117.77 124.32 C 121.38 124.02 124.97 124.78 128.45 125.66 C 124.84 126.02 121.21 125.39 117.77 124.32 Z" />
<path fill="#d10539" opacity="1.00" d=" M 146.66 130.38 C 145.09 127.51 147.65 125.09 149.98 123.84 C 149.28 125.77 148.45 127.66 147.80 129.61 C 149.89 128.11 151.83 126.42 153.92 124.93 C 154.71 126.39 156.47 127.79 155.69 129.63 C 155.38 131.92 153.04 132.55 151.27 133.40 C 152.44 131.49 153.70 129.62 154.40 127.47 C 151.81 128.44 149.57 132.84 146.66 130.38 Z" />
<path fill="#d10539" opacity="1.00" d=" M 43.65 128.89 C 46.32 126.44 49.95 125.65 53.41 125.07 C 52.50 127.62 50.90 129.82 49.20 131.91 C 51.30 131.41 53.41 130.97 55.55 130.74 C 53.07 133.59 49.15 134.10 45.66 134.79 C 46.67 132.33 48.25 130.18 49.92 128.13 C 47.84 128.46 45.75 128.76 43.65 128.89 Z" />
<path fill="#d10539" opacity="1.00" d=" M 72.73 129.26 C 76.51 128.21 80.62 128.05 84.36 129.39 C 80.49 129.64 76.60 129.57 72.73 129.26 Z" />
<path fill="#d10539" opacity="1.00" d=" M 122.44 130.42 C 124.24 129.61 126.66 129.35 128.49 130.18 C 127.49 131.44 123.38 131.83 122.44 130.42 Z" />
<path fill="#d10539" opacity="1.00" d=" M 77.38 133.29 C 79.65 132.13 82.21 131.08 84.70 132.30 C 82.28 132.76 79.83 133.10 77.38 133.29 Z" />
<path fill="#d10539" opacity="1.00" d=" M 105.45 131.48 C 108.06 131.40 110.67 131.57 113.27 131.77 C 110.74 132.99 107.91 132.76 105.45 131.48 Z" />
<path fill="#d10539" opacity="1.00" d=" M 65.39 132.50 C 68.08 132.58 70.76 132.93 73.34 133.71 C 70.66 133.79 67.70 134.18 65.39 132.50 Z" />
<path fill="#d10539" opacity="1.00" d=" M 136.63 145.00 C 139.90 140.86 142.81 136.48 145.25 131.80 C 145.42 135.94 149.61 137.00 151.73 139.89 C 149.09 139.14 146.60 137.95 144.11 136.81 C 142.98 138.50 141.89 140.22 140.82 141.96 C 142.97 143.72 145.32 145.42 146.52 148.02 C 144.23 146.97 142.13 145.59 140.08 144.14 C 138.93 144.44 137.78 144.72 136.63 145.00 Z" />
<path fill="#d10539" opacity="1.00" d=" M 113.64 134.49 C 117.42 133.32 121.54 133.07 125.33 134.35 C 121.45 134.75 117.54 134.56 113.64 134.49 Z" />
<path fill="#d10539" opacity="1.00" d=" M 47.93 137.93 C 50.59 136.32 53.28 134.79 56.03 133.35 C 57.24 135.53 58.40 137.74 59.27 140.08 C 57.52 138.70 55.91 137.15 54.19 135.73 C 54.62 137.57 55.13 139.40 55.60 141.23 C 54.08 140.02 52.61 138.76 51.05 137.60 C 51.30 139.65 51.65 141.68 51.87 143.74 C 50.41 141.90 49.15 139.92 47.93 137.93 Z" />
<path fill="#d10539" opacity="1.00" d=" M 100.75 138.22 C 103.69 137.46 106.69 138.02 109.42 139.24 C 106.51 139.11 103.62 138.68 100.75 138.22 Z" />
<path fill="#d10539" opacity="1.00" d=" M 115.49 137.63 C 118.42 137.01 121.45 137.01 124.41 137.39 C 121.47 137.94 118.46 137.95 115.49 137.63 Z" />
<path fill="#d10539" opacity="1.00" d=" M 57.52 142.44 C 60.48 139.10 64.63 143.97 63.25 147.31 C 61.99 145.71 60.79 144.06 59.44 142.53 C 59.66 144.97 60.67 147.41 60.19 149.88 C 56.47 152.43 52.37 147.03 54.95 143.73 C 55.76 145.76 56.52 147.88 58.20 149.39 C 58.04 147.06 57.32 144.77 57.52 142.44 Z" />
<path fill="#d10539" opacity="1.00" d=" M 106.57 145.57 C 109.47 145.02 112.51 144.87 115.40 145.58 C 112.47 145.92 109.50 145.88 106.57 145.57 Z" />
<path fill="#d10539" opacity="1.00" d=" M 95.72 146.64 C 98.55 146.18 101.43 146.35 104.25 146.83 C 101.47 147.75 98.49 147.36 95.72 146.64 Z" />
<path fill="#d10539" opacity="1.00" d=" M 130.92 149.89 C 132.79 148.24 134.74 146.69 136.91 145.44 C 135.81 147.33 134.58 149.13 133.49 151.02 C 135.31 150.31 137.08 149.51 138.88 148.77 C 137.81 150.35 136.71 151.91 135.70 153.53 C 138.14 153.57 140.16 152.10 142.31 151.17 C 140.85 153.27 138.99 155.03 137.08 156.71 C 134.98 154.47 132.93 152.19 130.92 149.89 Z" />
<path fill="#d10539" opacity="1.00" d=" M 123.73 154.89 C 125.73 153.88 127.98 151.09 130.35 152.52 C 131.88 154.58 133.04 156.88 134.38 159.07 C 132.63 158.74 130.84 156.98 129.07 157.94 C 129.13 159.51 129.33 161.06 129.44 162.63 C 127.09 160.41 125.38 157.65 123.73 154.89 M 125.96 154.77 C 126.37 155.44 127.20 156.78 127.61 157.45 C 128.54 156.31 129.43 155.15 130.30 153.96 C 128.84 154.20 127.40 154.48 125.96 154.77 Z" />
<path fill="#d10539" opacity="1.00" d=" M 70.24 154.37 C 72.86 150.73 77.42 154.31 77.35 157.90 C 75.62 156.70 73.93 155.44 72.08 154.44 C 73.15 156.48 74.42 158.41 75.65 160.36 C 74.46 161.28 73.30 163.18 71.55 162.38 C 68.90 161.95 68.07 159.29 67.75 156.99 C 69.47 158.51 71.14 160.11 73.15 161.25 C 72.35 158.89 70.49 156.88 70.24 154.37 Z" />
<path fill="#d10539" opacity="1.00" d=" M 75.85 165.38 C 76.52 161.88 77.88 158.51 80.00 155.63 C 80.18 156.91 80.32 158.21 80.43 159.50 C 82.17 159.00 83.93 158.57 85.73 158.31 C 84.54 159.38 83.30 160.40 82.06 161.40 C 82.33 163.48 82.58 165.56 82.66 167.65 C 81.23 166.07 80.35 164.14 79.55 162.20 C 78.35 163.30 77.13 164.38 75.85 165.38 Z" />
<path fill="#d10539" opacity="1.00" d=" M 115.78 158.19 C 117.49 157.66 119.19 157.03 120.97 156.77 C 124.28 157.11 126.23 161.57 124.32 164.27 C 122.79 165.44 120.97 166.12 119.24 166.92 C 117.96 164.06 116.78 161.16 115.78 158.19 M 118.09 158.64 C 118.71 160.56 119.37 162.47 120.01 164.38 C 120.80 164.22 122.39 163.91 123.19 163.75 C 122.92 162.08 123.11 160.16 121.84 158.85 C 120.59 158.72 119.34 158.65 118.09 158.64 Z" />
<path fill="#d10539" opacity="1.00" d=" M 88.39 159.41 C 91.45 158.65 94.40 161.75 93.64 164.77 C 93.47 168.00 89.53 170.10 86.82 168.28 C 83.29 166.30 84.52 160.18 88.39 159.41 M 87.62 161.62 C 86.49 163.25 86.95 165.29 86.93 167.14 C 88.21 167.07 89.49 166.93 90.77 166.74 C 92.03 165.21 91.54 163.13 91.63 161.31 C 90.29 161.36 88.93 161.28 87.62 161.62 Z" />
<path fill="#d10539" opacity="1.00" d=" M 111.78 158.64 C 114.69 161.06 114.79 165.11 115.27 168.57 C 111.89 166.53 112.17 162.06 111.78 158.64 Z" />
<path fill="#d10539" opacity="1.00" d=" M 102.97 160.91 C 105.27 160.71 107.58 160.54 109.90 160.59 C 108.12 161.59 106.28 162.47 104.50 163.46 C 106.30 163.89 108.10 164.27 109.89 164.73 C 108.28 165.28 106.67 165.81 105.06 166.34 C 105.31 166.72 105.80 167.46 106.05 167.84 C 107.83 168.01 109.61 168.20 111.37 168.49 C 108.98 169.32 106.48 169.78 103.99 170.21 C 103.52 167.13 103.18 164.02 102.97 160.91 Z" />
<path fill="#d10539" opacity="1.00" d=" M 95.60 161.19 C 96.10 161.13 97.11 160.99 97.61 160.92 C 97.59 163.16 97.55 165.41 97.56 167.65 C 99.24 168.28 100.90 168.98 102.47 169.83 C 100.08 169.95 97.69 169.90 95.30 169.83 C 95.41 166.95 95.53 164.07 95.60 161.19 Z" />
</g>
<g id="#ffffffff">
<path fill="#ffffff" opacity="1.00" d=" M 103.33 77.35 C 104.12 75.95 104.89 74.00 106.79 74.03 C 109.36 75.86 110.56 78.86 111.90 81.59 C 113.42 81.11 114.94 80.35 116.58 80.41 C 119.21 81.99 121.76 83.73 124.64 84.84 C 124.73 85.67 124.82 86.51 124.91 87.34 C 123.54 87.41 122.17 87.49 120.80 87.58 C 122.10 91.35 123.69 95.05 124.00 99.07 C 124.89 98.02 125.78 96.97 126.68 95.92 C 127.56 97.37 128.45 98.81 129.34 100.25 C 117.09 100.70 104.84 101.15 92.59 101.61 C 106.02 103.53 119.62 101.12 133.10 102.00 C 132.44 102.60 131.79 103.20 131.13 103.80 C 133.04 103.80 134.94 103.83 136.85 103.87 C 136.23 103.24 135.62 102.62 135.01 101.99 C 138.34 101.83 141.69 101.84 145.03 102.03 L 145.99 102.07 C 147.98 113.40 146.30 125.41 140.23 135.29 C 131.80 149.35 115.45 158.32 99.01 157.48 C 78.99 157.01 60.14 142.14 55.51 122.58 C 53.75 115.92 53.89 108.95 54.82 102.18 C 64.86 102.01 74.88 101.08 84.93 100.98 C 83.60 101.92 82.29 102.87 81.01 103.87 C 82.53 103.54 84.10 103.35 85.56 102.79 C 87.33 101.09 88.47 98.86 89.87 96.87 C 89.74 102.45 89.41 108.02 88.59 113.54 C 86.21 112.03 83.81 110.56 81.60 108.82 C 81.25 112.45 81.23 116.10 81.56 119.73 C 79.87 120.21 78.18 120.71 76.53 121.33 C 79.35 121.68 82.19 121.83 85.03 121.96 C 84.51 120.03 83.95 118.12 83.44 116.19 C 87.06 117.01 90.66 117.91 94.26 118.80 C 92.14 122.74 89.56 126.41 87.51 130.39 C 86.41 132.23 88.04 134.19 88.45 136.00 C 87.02 137.36 85.57 138.70 84.23 140.15 C 85.91 139.32 87.55 138.41 89.20 137.52 C 89.31 139.10 89.40 140.69 89.49 142.27 C 88.55 142.30 87.61 142.33 86.68 142.36 C 85.95 143.55 85.20 144.74 84.44 145.93 C 83.57 143.53 82.90 141.08 82.17 138.64 C 81.80 139.75 81.44 140.87 81.10 141.99 C 83.03 144.92 83.81 148.38 84.65 151.74 C 87.82 148.79 91.76 146.57 94.30 142.99 C 94.34 141.43 94.20 139.87 94.15 138.31 C 95.83 139.70 97.51 141.09 99.30 142.33 C 99.64 139.95 99.92 137.57 100.24 135.20 C 102.90 135.38 105.56 135.65 108.24 135.58 C 105.47 134.92 102.64 134.58 99.82 134.27 C 100.17 128.95 100.26 123.62 100.44 118.29 C 103.06 117.50 105.65 116.66 108.22 115.73 C 108.39 116.61 108.71 118.37 108.88 119.25 C 110.03 115.65 111.25 112.07 112.97 108.69 C 111.09 109.12 109.21 109.54 107.32 109.92 C 107.39 108.34 107.47 106.76 107.53 105.18 C 106.83 104.95 105.44 104.49 104.74 104.26 C 103.87 105.83 103.07 107.43 102.31 109.05 C 99.94 109.21 97.61 109.67 95.30 110.16 C 94.99 111.77 94.68 113.38 94.34 114.99 C 93.04 114.26 91.74 113.54 90.45 112.81 C 91.12 112.71 92.47 112.51 93.14 112.40 C 90.22 108.86 91.15 104.14 91.09 99.91 C 90.95 95.25 93.63 91.04 96.60 87.67 C 99.56 84.75 101.51 81.03 103.33 77.35 M 98.90 91.43 C 101.36 90.03 102.83 87.54 104.06 85.10 C 104.97 83.07 107.06 82.04 108.47 80.43 C 108.66 79.11 108.49 77.78 108.44 76.47 C 103.82 80.37 100.77 85.74 98.90 91.43 M 114.98 81.46 C 114.89 82.45 114.69 84.42 114.59 85.40 C 116.49 86.24 118.37 87.10 120.27 87.94 C 119.92 84.80 118.18 82.19 114.98 81.46 M 106.89 86.90 C 108.64 87.51 110.40 88.09 112.15 88.67 C 112.12 87.21 112.08 85.74 112.04 84.28 C 110.36 85.23 108.65 86.11 106.89 86.90 M 107.79 93.29 C 109.67 93.17 111.48 93.53 112.96 94.77 C 113.45 93.83 113.93 92.88 114.42 91.94 C 115.55 94.57 117.31 96.85 119.53 98.65 C 118.09 95.96 117.57 92.98 117.68 89.95 C 114.00 89.69 110.50 90.77 107.79 93.29 M 94.37 100.31 C 98.14 99.01 101.06 95.56 102.39 91.88 C 99.45 94.39 96.10 96.74 94.37 100.31 M 93.24 95.24 C 93.49 95.65 93.98 96.47 94.23 96.89 C 95.63 95.57 96.95 94.17 98.14 92.66 C 96.47 93.45 94.86 94.35 93.24 95.24 M 103.21 95.26 C 101.93 95.60 100.30 97.35 101.13 98.70 C 102.79 99.64 104.95 96.05 103.21 95.26 M 97.93 103.51 C 95.80 105.06 101.24 106.23 101.52 104.36 C 100.74 103.29 99.10 103.33 97.93 103.51 M 113.77 104.30 C 116.74 104.54 119.71 104.85 122.68 105.13 C 119.88 103.68 116.76 103.02 113.77 104.30 M 61.73 105.41 C 65.20 105.32 68.67 105.43 72.14 105.44 C 68.76 104.19 65.08 103.85 61.73 105.41 M 96.16 106.46 C 95.43 106.58 93.21 106.39 93.60 107.62 C 95.04 108.36 96.97 108.45 98.43 107.72 C 99.08 106.53 96.86 106.43 96.16 106.46 M 131.15 107.59 C 131.24 107.88 131.42 108.47 131.51 108.77 C 133.97 108.45 136.45 108.01 138.67 106.83 C 136.15 107.00 133.66 107.39 131.15 107.59 M 72.74 108.70 C 75.38 108.88 78.26 109.12 80.55 107.51 C 77.92 107.68 75.30 108.09 72.74 108.70 M 114.36 107.50 C 113.44 109.39 117.42 110.23 117.54 108.23 C 117.20 106.95 115.23 106.56 114.36 107.50 M 120.71 109.78 C 122.72 109.55 124.72 109.14 126.53 108.20 C 124.48 108.16 122.22 108.17 120.71 109.78 M 59.59 109.10 C 59.34 110.54 61.79 110.65 62.42 109.70 C 62.66 108.27 60.21 108.13 59.59 109.10 M 63.62 112.62 C 65.97 112.55 68.36 112.31 70.55 111.36 C 68.18 111.26 65.68 111.32 63.62 112.62 M 113.68 111.67 C 116.15 112.75 118.84 112.34 121.30 111.47 C 118.76 111.31 116.21 111.37 113.68 111.67 M 133.58 112.16 C 136.56 112.20 139.54 112.33 142.53 112.27 C 139.73 110.81 136.44 110.94 133.58 112.16 M 123.53 113.21 C 124.17 114.68 127.14 114.52 128.49 113.90 C 127.82 112.41 124.86 112.42 123.53 113.21 M 68.58 114.53 C 71.75 115.76 75.17 115.22 78.34 114.34 C 75.09 114.14 71.82 114.17 68.58 114.53 M 112.62 114.46 C 115.11 115.04 117.73 115.40 120.25 114.75 C 117.74 114.26 115.16 114.10 112.62 114.46 M 63.40 116.37 C 62.16 118.43 66.46 119.36 66.60 117.16 C 66.46 115.68 64.25 115.23 63.40 116.37 M 109.59 117.96 C 113.07 119.09 116.79 118.51 120.30 117.85 C 116.80 117.02 113.01 116.51 109.59 117.96 M 124.66 118.14 C 127.20 118.38 129.75 118.48 132.29 118.29 C 129.86 117.21 127.14 117.18 124.66 118.14 M 64.87 119.94 C 67.98 120.52 71.07 121.28 74.22 121.64 C 71.32 120.25 68.10 118.85 64.87 119.94 M 102.54 119.37 C 102.39 120.75 104.77 121.01 105.41 120.03 C 105.55 118.64 103.18 118.36 102.54 119.37 M 86.83 121.69 C 88.74 121.63 90.68 121.35 92.24 120.16 C 90.31 120.13 88.45 120.64 86.83 121.69 M 129.63 121.30 C 132.85 121.68 136.12 121.95 139.34 121.49 C 136.16 120.81 132.80 120.22 129.63 121.30 M 109.64 121.63 C 110.57 122.89 114.74 122.52 115.56 121.11 C 113.76 120.17 111.40 120.85 109.64 121.63 M 63.83 125.26 C 66.98 125.53 70.08 126.11 73.19 126.63 C 70.42 124.58 67.07 124.22 63.83 125.26 M 79.79 124.62 C 82.63 125.73 85.83 126.22 88.71 124.97 C 85.75 124.70 82.77 124.53 79.79 124.62 M 100.62 125.47 C 104.19 125.55 107.76 125.63 111.33 125.56 C 107.87 124.27 104.10 124.25 100.62 125.47 M 117.77 124.32 C 121.21 125.39 124.84 126.02 128.45 125.66 C 124.97 124.78 121.38 124.02 117.77 124.32 M 130.34 129.11 C 133.15 128.90 135.95 128.65 138.77 128.50 C 138.77 128.14 138.76 127.43 138.76 127.07 C 135.83 127.18 132.91 127.64 130.34 129.11 M 72.73 129.26 C 76.60 129.57 80.49 129.64 84.36 129.39 C 80.62 128.05 76.51 128.21 72.73 129.26 M 122.44 130.42 C 123.38 131.83 127.49 131.44 128.49 130.18 C 126.66 129.35 124.24 129.61 122.44 130.42 M 77.38 133.29 C 79.83 133.10 82.28 132.76 84.70 132.30 C 82.21 131.08 79.65 132.13 77.38 133.29 M 105.45 131.48 C 107.91 132.76 110.74 132.99 113.27 131.77 C 110.67 131.57 108.06 131.40 105.45 131.48 M 65.39 132.50 C 67.70 134.18 70.66 133.79 73.34 133.71 C 70.76 132.93 68.08 132.58 65.39 132.50 M 128.76 133.44 C 131.08 133.56 133.41 133.61 135.74 133.67 C 135.69 133.29 135.60 132.51 135.55 132.13 C 133.26 132.45 130.99 132.84 128.76 133.44 M 113.64 134.49 C 117.54 134.56 121.45 134.75 125.33 134.35 C 121.54 133.07 117.42 133.32 113.64 134.49 M 66.83 135.61 C 69.91 136.87 73.29 137.04 76.34 135.57 C 73.17 135.44 69.99 135.46 66.83 135.61 M 126.75 137.45 C 129.24 137.59 131.74 137.60 134.23 137.46 C 131.80 136.49 129.17 136.41 126.75 137.45 M 100.75 138.22 C 103.62 138.68 106.51 139.11 109.42 139.24 C 106.69 138.02 103.69 137.46 100.75 138.22 M 115.49 137.63 C 118.46 137.95 121.47 137.94 124.41 137.39 C 121.45 137.01 118.42 137.01 115.49 137.63 M 101.42 143.20 C 104.39 143.04 107.35 142.75 110.30 142.32 C 107.32 141.17 104.21 141.92 101.42 143.20 M 106.57 145.57 C 109.50 145.88 112.47 145.92 115.40 145.58 C 112.51 144.87 109.47 145.02 106.57 145.57 M 95.72 146.64 C 98.49 147.36 101.47 147.75 104.25 146.83 C 101.43 146.35 98.55 146.18 95.72 146.64 Z" />
<path fill="#ffffff" opacity="1.00" d=" M 80.30 87.24 C 81.34 82.90 84.77 79.82 87.52 76.51 C 87.08 79.90 87.32 83.31 88.01 86.65 C 88.68 85.62 89.32 84.58 89.94 83.51 C 90.54 83.36 91.76 83.06 92.36 82.92 C 92.31 86.75 91.15 90.43 89.96 94.04 C 86.99 96.50 83.89 100.15 79.58 99.01 C 83.45 96.32 89.11 93.64 88.61 88.08 C 86.07 90.94 84.42 95.13 80.23 95.89 C 83.86 91.57 85.00 85.91 85.88 80.50 C 81.57 83.93 82.17 90.02 79.22 94.21 C 80.19 95.69 79.21 97.31 78.61 98.70 C 76.89 99.58 74.84 99.22 72.99 99.47 C 73.28 98.19 73.57 96.92 73.87 95.65 C 72.08 97.46 70.27 99.33 67.84 100.27 C 69.59 97.64 71.33 94.07 74.92 93.91 C 78.10 93.43 79.60 90.03 80.30 87.24 Z" />
<path fill="#ffffff" opacity="1.00" d=" M 105.14 106.07 C 106.80 106.09 106.49 108.84 104.97 108.83 C 103.28 108.80 103.61 106.09 105.14 106.07 Z" />
<path fill="#ffffff" opacity="1.00" d=" M 96.25 111.55 C 99.66 109.81 97.24 116.23 95.60 113.09 C 95.76 112.71 96.09 111.94 96.25 111.55 Z" />
<path fill="#ffffff" opacity="1.00" d=" M 101.27 111.12 C 104.24 109.60 101.37 114.46 101.27 111.12 Z" />
<path fill="#ffffff" opacity="1.00" d=" M 104.11 111.21 C 105.75 110.59 106.28 111.11 105.70 112.76 C 104.04 113.36 103.51 112.84 104.11 111.21 Z" />
<path fill="#ffffff" opacity="1.00" d=" M 99.70 117.06 C 102.68 114.90 106.33 114.00 109.74 112.75 C 107.27 115.68 103.38 116.78 99.70 117.06 Z" />
<path fill="#ffffff" opacity="1.00" d=" M 83.26 113.90 C 87.48 114.57 91.78 115.33 95.70 117.10 C 91.36 117.67 86.79 116.48 83.26 113.90 Z" />
<path fill="#ffffff" opacity="1.00" d=" M 94.19 121.18 C 94.80 121.79 94.80 121.79 94.19 121.18 Z" />
<path fill="#ffffff" opacity="1.00" d=" M 89.36 128.68 C 91.41 125.11 95.12 123.04 98.69 121.28 C 98.21 123.65 96.06 124.81 94.30 126.16 C 94.97 127.32 95.63 128.48 96.27 129.66 C 95.13 130.63 94.00 131.61 92.89 132.62 C 93.17 132.88 93.72 133.42 94.00 133.68 C 95.46 131.96 97.21 130.52 99.06 129.23 C 97.65 132.79 97.45 136.55 97.92 140.32 C 96.91 138.73 96.48 136.90 96.08 135.08 C 95.24 136.26 94.39 137.43 93.52 138.59 C 92.95 136.50 92.54 134.38 92.17 132.26 C 91.16 133.47 90.12 134.65 89.02 135.78 C 88.82 134.73 88.42 132.63 88.23 131.57 C 90.00 130.64 91.75 129.67 93.62 128.93 C 93.78 128.45 94.09 127.50 94.24 127.03 C 92.62 127.59 91.00 128.19 89.36 128.68 Z" />
<path fill="#ffffff" opacity="1.00" d=" M 98.26 125.21 C 100.12 125.67 97.97 129.55 96.45 128.42 C 95.33 127.09 96.77 125.28 98.26 125.21 Z" />
<path fill="#ffffff" opacity="1.00" d=" M 89.34 135.76 C 90.13 135.63 91.71 135.38 92.50 135.26 C 92.68 136.91 92.48 138.49 91.89 140.01 C 89.30 141.12 89.98 137.20 89.34 135.76 Z" />
<path fill="#ffffff" opacity="1.00" d=" M 91.34 141.15 C 92.84 140.42 94.54 142.43 92.97 143.58 C 91.46 144.81 89.84 142.16 91.34 141.15 Z" />
<path fill="#ffffff" opacity="1.00" d=" M 88.36 143.42 C 90.60 142.13 90.96 146.56 88.82 146.68 C 87.29 146.51 87.28 144.17 88.36 143.42 Z" />
<path fill="#ffffff" opacity="1.00" d=" M 86.12 145.44 C 87.97 145.57 87.63 148.76 85.88 148.80 C 83.91 148.70 84.32 145.50 86.12 145.44 Z" />
<path fill="#ffffff" opacity="1.00" d=" M 92.54 184.07 C 97.50 184.54 102.49 184.55 107.46 184.11 C 103.36 185.82 98.59 184.57 94.22 184.87 C 93.80 184.67 92.96 184.27 92.54 184.07 Z" />
</g>
</svg>
