<?xml version="1.0" encoding="UTF-8" ?>
<!DOCTYPE svg PUBLIC "-//W3C//DTD SVG 1.1//EN" "http://www.w3.org/Graphics/SVG/1.1/DTD/svg11.dtd">
<svg width="996pt" height="1014pt" viewBox="0 0 996 1014" version="1.1" xmlns="http://www.w3.org/2000/svg">
<g id="#ffffffff">
<path fill="#ffffff" opacity="1.00" d=" M 498.43 16.75 C 501.07 16.32 503.78 15.99 506.42 16.61 C 582.54 29.91 655.05 59.65 721.70 98.28 C 786.33 135.95 846.08 182.11 898.46 235.54 C 927.94 265.83 955.16 298.53 977.55 334.44 C 978.37 335.89 979.59 337.30 979.48 339.09 C 980.12 374.72 980.81 410.36 980.88 446.00 C 980.74 480.35 979.87 514.77 975.63 548.89 C 972.32 576.25 966.87 603.31 960.18 630.04 C 951.82 664.47 939.11 697.77 923.48 729.54 C 908.13 760.72 890.07 790.56 869.67 818.69 C 849.35 846.57 826.82 873.11 800.25 895.24 C 772.18 919.08 740.80 938.99 707.29 954.25 C 672.44 970.19 635.42 981.11 597.75 987.91 C 548.07 996.85 497.37 998.84 447.00 997.00 C 407.75 995.45 368.38 990.28 330.91 978.15 C 286.90 964.24 247.09 939.95 209.84 913.14 C 182.90 894.24 157.30 873.27 134.82 849.18 C 110.32 823.14 89.35 793.79 72.80 762.10 C 55.24 728.65 42.57 692.76 33.82 656.05 C 22.91 610.33 17.85 563.40 15.77 516.49 C 12.74 446.05 16.25 375.53 20.69 305.22 C 20.69 303.73 21.12 302.30 22.07 301.14 C 44.43 269.69 70.89 241.32 99.36 215.34 C 151.65 167.84 210.57 127.91 272.91 94.82 C 332.29 63.59 395.14 38.24 460.74 23.62 C 473.21 20.85 485.79 18.60 498.43 16.75 M 499.45 33.63 C 464.37 38.69 429.97 47.84 396.54 59.52 C 359.51 72.48 323.60 88.55 288.97 106.95 C 230.12 138.36 174.60 176.31 125.19 221.20 C 96.39 247.51 69.69 276.32 47.34 308.35 C 45.79 310.19 46.14 312.70 45.90 314.93 C 43.01 361.90 40.60 408.93 40.37 456.01 C 40.14 506.50 42.28 557.15 50.04 607.11 C 56.55 648.87 67.17 690.17 83.98 729.02 C 96.92 759.05 113.61 787.49 133.75 813.27 C 156.59 842.55 183.77 868.32 213.56 890.45 C 230.26 902.92 247.23 915.05 264.93 926.09 C 289.01 941.13 314.70 953.78 341.80 962.41 C 377.04 973.79 414.08 978.60 450.99 980.00 C 506.00 981.93 561.56 979.04 615.28 966.40 C 651.63 957.89 687.00 944.83 719.70 926.74 C 750.03 909.99 777.99 888.98 802.66 864.66 C 814.72 852.64 825.74 839.63 836.22 826.23 C 857.69 798.53 876.58 768.85 892.81 737.80 C 910.67 703.50 925.27 667.36 934.59 629.77 C 941.15 603.52 946.58 576.94 949.88 550.07 C 954.75 511.59 955.27 472.73 955.13 434.00 C 954.80 403.78 954.58 373.54 953.65 343.35 C 932.41 307.49 905.78 275.06 877.09 244.92 C 828.13 193.98 772.18 149.77 711.55 113.52 C 648.23 75.88 579.13 46.74 506.39 33.72 C 504.10 33.20 501.74 33.19 499.45 33.63 Z" />
<path fill="#ffffff" opacity="1.00" d=" M 489.06 48.07 C 494.60 47.49 500.15 45.53 505.74 46.47 C 531.90 51.16 557.76 57.72 582.84 66.51 C 538.84 89.32 495.01 112.50 452.15 137.41 C 452.15 123.59 451.92 109.75 453.02 95.96 C 453.43 93.46 453.18 90.15 455.68 88.66 C 457.80 87.66 460.21 87.71 462.48 87.36 C 462.50 84.37 462.51 81.37 462.47 78.38 C 444.87 78.75 427.25 78.74 409.65 78.38 C 409.61 81.35 409.62 84.33 409.60 87.30 C 412.39 87.91 416.09 87.39 417.89 90.09 C 419.14 92.91 419.03 96.12 419.36 99.14 C 420.42 118.29 419.82 137.47 420.04 156.64 C 430.67 150.19 441.28 143.70 452.09 137.54 C 452.30 157.69 451.76 177.85 452.60 197.99 C 452.95 201.86 452.78 205.93 454.22 209.61 C 455.93 212.39 459.67 211.86 462.45 212.32 C 462.52 215.34 462.52 218.35 462.47 221.36 C 444.87 221.00 427.25 221.00 409.65 221.36 C 409.60 218.35 409.61 215.34 409.67 212.33 C 412.41 211.85 416.07 212.38 417.83 209.71 C 419.04 207.18 418.98 204.28 419.30 201.55 C 420.24 186.63 419.96 171.67 419.98 156.73 C 397.49 170.47 375.39 184.87 353.74 199.91 C 360.89 201.96 368.01 205.35 372.58 211.43 C 379.39 220.36 380.67 232.20 379.93 243.07 C 378.90 259.91 369.90 276.53 355.22 285.24 C 342.68 292.68 327.45 294.05 313.22 292.42 C 303.10 291.06 293.19 287.80 284.29 282.79 C 281.54 280.95 283.38 277.47 283.81 274.94 C 285.64 268.69 284.93 262.11 285.69 255.76 C 287.68 254.34 290.65 255.44 293.02 255.22 C 293.52 259.58 294.18 264.28 297.35 267.59 C 307.56 279.10 325.33 283.71 339.62 277.63 C 348.91 273.60 353.96 263.59 355.26 253.98 C 356.30 246.07 354.83 236.97 348.34 231.65 C 340.77 225.56 330.57 225.42 321.53 223.13 C 331.84 214.94 342.85 207.68 353.52 199.97 C 341.87 196.96 329.64 196.12 318.39 191.65 C 312.56 189.44 308.55 183.82 307.42 177.81 C 305.86 169.56 307.12 160.28 312.74 153.76 C 316.95 148.64 323.37 145.70 329.91 145.12 C 341.07 143.98 353.28 147.79 360.34 156.86 C 363.31 158.04 366.89 157.27 370.09 157.29 C 370.30 153.69 370.12 150.00 371.36 146.55 C 372.06 144.59 372.04 142.49 371.63 140.48 C 358.04 132.73 341.75 131.40 326.45 132.77 C 312.04 134.15 297.80 141.64 290.42 154.41 C 284.01 165.24 282.71 178.39 284.24 190.68 C 285.46 200.12 289.78 209.73 297.95 215.09 C 304.99 219.44 313.20 221.21 321.13 223.17 C 294.19 243.14 267.76 263.85 242.29 285.68 C 252.21 305.85 254.05 328.97 252.70 351.10 C 251.33 371.97 245.28 393.33 231.43 409.45 C 221.77 421.02 207.79 428.77 192.87 430.94 C 176.83 433.26 159.66 431.69 145.32 423.68 C 134.59 417.77 126.10 408.39 120.15 397.78 C 129.29 388.82 138.45 379.89 147.62 370.98 C 143.73 357.44 143.30 343.13 144.16 329.15 C 145.22 315.35 148.70 300.79 158.50 290.49 C 170.23 277.73 193.14 278.56 204.07 291.92 C 207.77 296.34 210.29 301.66 211.92 307.16 C 212.36 308.28 212.39 309.81 213.77 310.23 C 223.14 301.85 232.67 293.64 242.31 285.58 C 235.04 270.39 222.37 257.40 206.29 251.74 C 191.81 246.67 175.76 246.05 160.91 249.83 C 144.71 253.97 131.13 265.35 122.27 279.30 C 110.85 296.90 106.60 318.25 106.74 339.00 C 106.56 359.24 110.03 380.04 120.10 397.84 C 96.15 421.60 72.52 445.69 49.24 470.12 C 49.12 419.30 51.69 368.51 54.90 317.81 C 54.81 315.67 56.30 314.05 57.42 312.41 C 94.82 260.13 143.10 216.56 194.87 178.90 C 252.50 137.40 315.34 102.97 381.77 77.77 C 416.53 64.68 452.39 54.21 489.06 48.07 M 147.60 371.06 C 149.52 376.80 151.88 382.52 155.80 387.19 C 166.51 400.65 189.35 401.72 201.14 389.13 C 210.19 379.76 213.84 366.61 215.23 353.98 C 216.65 339.61 216.29 324.94 213.03 310.84 C 190.76 330.41 169.00 350.55 147.60 371.06 Z" />
<path fill="#ffffff" opacity="1.00" d=" M 663.33 100.37 C 696.97 117.01 729.05 136.70 759.71 158.30 C 815.03 197.60 865.94 243.55 908.51 296.52 C 921.62 313.01 934.02 330.14 944.74 348.29 C 945.52 362.48 945.31 376.76 945.68 390.98 C 946.26 430.67 946.98 470.41 944.71 510.06 C 943.08 538.97 939.31 567.76 933.36 596.11 C 928.34 619.88 922.60 643.58 914.38 666.48 C 900.94 704.30 882.72 740.34 861.28 774.24 C 843.25 802.53 823.07 829.58 799.71 853.71 C 774.76 878.73 746.28 900.25 715.29 917.24 C 659.88 947.83 597.11 963.04 534.30 967.73 C 502.25 970.13 470.02 970.26 437.94 968.44 C 401.52 966.19 365.09 960.01 330.83 947.14 C 302.54 936.65 276.14 921.66 251.23 904.76 C 222.25 884.94 193.81 863.96 169.22 838.78 C 140.16 809.42 116.04 775.21 98.19 737.95 C 134.83 665.05 172.03 592.30 214.68 522.69 C 251.91 461.89 294.14 403.99 342.75 351.76 C 396.15 294.08 456.52 243.25 519.86 196.88 C 566.35 162.78 614.54 131.07 663.33 100.37 M 497.01 282.96 C 477.81 286.40 458.61 290.85 440.70 298.72 C 435.00 301.49 428.69 304.22 425.10 309.73 C 430.30 315.61 436.68 320.26 442.61 325.37 C 453.21 334.37 464.05 343.31 472.80 354.20 C 475.59 357.95 478.66 362.02 478.96 366.87 C 478.30 369.78 475.95 371.88 473.89 373.87 C 468.21 378.94 462.00 383.35 456.01 388.03 C 443.48 397.67 431.38 408.18 422.02 421.02 C 421.33 422.16 420.34 423.43 420.68 424.86 C 421.71 426.86 424.41 427.32 425.34 429.40 C 427.43 434.52 432.63 437.11 436.94 440.09 C 436.97 442.66 436.66 445.50 438.28 447.71 C 440.02 450.76 443.53 453.12 443.28 456.99 C 443.53 461.48 444.80 465.83 446.05 470.13 C 445.05 471.34 443.28 472.32 443.51 474.13 C 443.70 479.23 442.48 484.45 443.79 489.46 C 445.57 493.33 447.49 497.14 449.10 501.09 C 450.33 503.73 446.23 504.64 446.26 507.06 C 445.67 521.21 443.37 535.48 437.26 548.37 C 434.59 553.68 439.45 558.30 440.73 563.23 C 443.09 569.60 437.55 574.86 435.37 580.38 C 428.06 592.52 423.60 606.06 418.21 619.10 C 415.74 624.61 415.14 630.93 416.43 636.82 C 417.15 640.40 420.09 643.71 423.92 643.81 C 429.29 644.07 434.67 643.59 440.03 644.13 C 440.53 647.25 440.12 650.42 440.44 653.55 C 441.19 654.89 442.51 655.75 443.59 656.81 C 443.83 663.17 441.67 670.15 445.12 675.98 C 446.77 678.37 444.28 681.19 445.13 683.82 C 446.75 689.06 452.66 691.17 455.00 695.97 C 455.84 697.75 455.19 699.83 455.84 701.66 C 456.67 703.04 458.38 704.14 458.25 705.95 C 458.30 715.24 458.18 724.54 458.28 733.84 C 458.34 739.01 462.09 743.63 466.98 745.12 C 475.06 747.80 483.73 747.06 492.09 747.99 C 499.77 748.73 508.24 750.43 513.53 756.54 C 514.41 759.24 515.65 761.76 517.39 764.04 C 517.64 777.35 517.47 790.69 517.47 804.01 C 511.94 812.60 509.17 822.57 506.26 832.29 C 503.53 842.15 500.80 852.06 499.45 862.22 C 505.97 866.46 513.61 868.51 520.83 871.25 C 537.59 876.89 554.55 882.23 572.00 885.28 C 575.93 885.64 580.37 886.97 584.03 884.96 C 590.18 879.88 591.23 870.88 589.61 863.51 C 587.54 855.13 587.37 845.98 591.05 838.02 C 593.11 832.91 597.03 828.56 597.94 823.02 C 598.66 818.57 596.22 814.59 594.09 810.93 C 588.97 801.58 584.32 790.96 586.16 780.06 C 587.61 770.37 596.00 763.04 596.01 753.01 C 596.33 748.03 593.70 743.62 592.85 738.86 C 599.70 742.34 604.14 750.32 603.26 758.02 C 602.43 766.17 599.26 773.90 598.48 782.07 C 597.25 791.83 599.25 801.79 603.35 810.67 C 605.28 814.68 604.78 819.33 603.62 823.49 C 600.77 833.67 594.93 843.19 594.92 854.03 C 594.71 860.96 599.26 866.62 601.07 873.07 C 603.21 872.55 606.38 872.93 607.48 870.57 C 607.97 867.32 607.66 863.88 605.90 861.06 C 602.42 854.64 601.60 846.89 603.94 839.94 C 606.82 831.36 609.93 822.42 608.40 813.23 C 607.78 804.86 602.68 797.50 602.86 789.03 C 602.90 770.87 613.55 754.02 610.75 735.68 C 615.17 737.83 619.32 740.70 622.89 744.07 C 625.63 748.67 622.67 754.05 621.61 758.74 C 616.44 774.88 617.45 792.43 622.48 808.47 C 623.63 812.82 626.28 817.20 624.91 821.83 C 623.42 826.77 620.18 831.00 618.85 836.02 C 616.32 844.61 618.48 853.66 621.38 861.86 C 622.21 864.67 624.12 867.01 626.24 868.98 C 629.95 869.12 628.03 863.58 628.08 861.17 C 625.17 855.58 623.00 849.37 623.78 842.97 C 624.52 832.43 630.85 823.37 632.35 813.02 C 633.12 808.58 631.11 804.45 629.51 800.46 C 625.82 790.73 623.51 780.07 625.50 769.70 C 626.61 762.43 630.57 755.57 629.70 748.06 C 629.33 743.61 626.41 740.04 624.97 735.95 C 626.30 735.69 627.88 734.64 628.97 736.02 C 630.92 737.81 633.10 739.34 635.85 739.48 C 635.97 744.35 635.33 749.20 634.83 754.04 C 633.35 769.50 632.48 786.06 639.64 800.35 C 643.69 808.84 645.17 818.50 643.88 827.82 C 642.99 836.26 639.69 844.41 640.17 852.99 C 640.51 856.84 641.64 861.03 644.73 863.61 C 648.41 859.21 643.73 854.18 645.33 849.40 C 646.46 842.91 647.21 836.36 647.61 829.79 C 648.26 816.92 648.15 803.38 642.50 791.51 C 638.76 782.52 638.01 772.63 637.88 763.00 C 638.01 754.14 638.64 745.25 640.30 736.54 C 642.79 735.79 645.24 734.90 647.51 733.60 C 650.07 738.41 652.45 743.46 653.06 748.95 C 654.07 757.08 651.19 764.96 650.49 772.99 C 649.23 784.67 651.71 796.39 655.58 807.37 C 660.72 819.61 658.60 833.25 656.97 846.00 C 661.05 848.45 659.49 853.48 659.93 857.39 C 663.14 856.55 666.09 854.18 667.15 850.99 C 665.83 846.62 663.21 842.57 663.13 837.86 C 662.01 829.87 666.26 822.10 664.82 814.20 C 659.92 803.13 656.62 791.19 656.85 779.00 C 656.64 767.69 659.49 756.67 661.31 745.59 C 662.11 741.33 661.69 737.00 660.70 732.81 C 663.11 734.61 665.34 736.84 666.38 739.74 C 668.26 744.75 666.93 750.16 666.09 755.25 C 664.46 763.54 663.63 772.16 665.54 780.48 C 666.83 786.93 670.17 792.70 671.95 799.01 C 675.66 811.31 676.34 824.24 676.39 837.01 C 676.56 840.99 676.17 845.27 678.23 848.88 C 680.07 848.45 681.99 847.10 681.92 845.02 C 683.80 827.64 683.06 809.55 676.95 793.02 C 673.85 785.67 670.90 778.11 670.26 770.09 C 668.80 756.61 675.88 743.68 673.04 730.19 C 675.53 732.42 678.06 734.61 680.54 736.86 C 679.13 753.04 680.20 769.73 685.84 785.07 C 687.73 790.63 691.36 795.51 692.42 801.37 C 694.68 812.24 692.00 823.23 690.23 833.96 C 689.88 837.00 689.08 840.42 690.81 843.21 C 692.56 844.66 694.88 843.88 696.89 843.60 C 696.90 840.97 695.12 839.03 693.62 837.11 C 695.20 830.44 696.81 823.77 697.82 816.99 C 698.93 808.48 700.02 799.15 695.69 791.33 C 690.44 780.65 687.59 768.86 687.08 756.98 C 686.70 750.96 687.23 744.93 686.91 738.92 C 686.91 735.61 683.80 733.03 684.87 729.62 C 687.55 730.45 687.68 733.57 688.33 735.86 C 691.33 750.68 692.42 766.02 697.73 780.30 C 699.49 785.51 703.74 789.53 704.89 795.00 C 707.48 806.06 705.01 817.60 701.52 828.18 C 704.46 831.51 704.41 836.13 706.16 840.02 C 708.11 839.96 709.77 839.00 711.35 837.95 C 710.21 833.39 709.14 828.76 709.23 824.03 C 709.18 815.96 712.04 808.12 711.41 800.02 C 710.83 790.67 706.08 782.38 703.58 773.51 C 699.35 759.51 695.12 744.22 699.95 729.81 C 701.11 729.90 702.28 729.99 703.46 730.08 C 704.45 747.58 705.29 765.56 712.04 781.99 C 714.45 788.30 719.08 793.64 720.36 800.40 C 722.69 810.93 718.09 821.34 718.94 831.92 C 720.88 833.39 722.38 835.30 723.90 837.20 C 724.46 836.88 725.58 836.24 726.14 835.92 C 726.34 825.12 727.69 814.39 729.51 803.75 C 729.91 800.17 730.89 796.20 729.02 792.87 C 720.67 778.07 712.74 762.24 711.66 745.00 C 711.12 740.30 712.94 735.63 712.09 730.98 C 710.49 712.08 701.41 694.97 696.48 676.90 C 698.72 676.58 700.98 676.50 703.25 676.54 C 711.74 703.48 724.38 729.14 740.92 752.05 C 745.96 758.91 751.22 765.70 757.55 771.46 C 759.29 772.82 759.60 775.45 758.17 777.18 C 754.81 781.75 749.22 784.40 746.69 789.64 C 745.04 792.88 745.82 797.04 748.52 799.47 C 753.01 803.71 759.12 805.60 764.95 807.20 C 779.63 810.77 794.94 811.50 809.97 810.16 C 816.22 809.40 822.74 808.54 828.27 805.29 C 830.73 803.96 832.57 800.91 831.19 798.18 C 829.44 794.26 825.31 792.42 822.19 789.80 C 804.85 776.44 792.82 756.95 787.15 735.92 C 779.02 706.30 780.63 675.07 784.35 644.90 C 789.31 606.04 798.73 567.95 805.63 529.42 C 808.92 510.47 811.84 491.31 811.47 472.02 C 811.32 463.51 810.15 455.04 807.98 446.82 C 804.54 432.81 799.99 419.06 794.18 405.85 C 781.12 375.91 760.90 349.01 735.13 328.85 C 704.07 304.31 666.11 289.75 627.39 282.75 C 584.37 275.07 540.04 275.68 497.01 282.96 M 229.33 751.01 C 226.32 759.29 218.82 764.74 211.13 768.36 C 210.23 772.23 210.95 776.36 210.80 780.34 C 216.81 778.35 222.14 774.81 226.88 770.68 C 226.87 787.11 226.86 803.55 226.89 819.99 C 231.05 820.00 235.20 820.00 239.36 819.99 C 239.39 797.00 239.38 774.01 239.37 751.02 C 236.02 750.99 232.68 750.99 229.33 751.01 M 272.39 751.72 C 266.10 753.07 260.91 758.33 259.74 764.66 C 258.00 771.81 261.23 779.85 268.08 782.97 C 257.66 787.82 254.96 801.96 260.49 811.40 C 267.83 823.82 288.63 824.83 296.80 812.80 C 300.73 807.01 301.58 799.22 299.25 792.65 C 297.70 788.24 293.96 785.14 289.98 782.97 C 292.31 781.37 294.73 779.69 296.17 777.19 C 300.49 769.89 298.46 759.42 291.46 754.50 C 285.98 750.66 278.75 750.36 272.39 751.72 M 316.00 755.03 C 309.58 760.10 307.96 769.98 311.92 777.03 C 313.38 779.68 316.00 781.33 318.42 783.00 C 306.58 788.60 304.87 806.30 313.86 815.14 C 320.59 821.79 331.62 822.85 340.04 819.05 C 350.07 814.25 353.66 800.74 348.97 791.04 C 347.29 787.36 343.90 784.97 340.52 782.99 C 343.13 781.13 345.81 779.09 347.21 776.11 C 350.43 769.43 348.93 760.63 343.34 755.65 C 339.77 752.34 334.79 751.09 330.03 751.00 C 325.12 750.89 319.89 751.83 316.00 755.03 M 364.58 756.59 C 360.53 760.41 359.17 766.07 358.45 771.39 C 362.62 771.92 366.81 772.36 371.01 772.69 C 371.57 769.51 371.91 765.79 374.69 763.68 C 378.24 761.04 384.12 761.41 386.80 765.13 C 390.07 770.21 388.04 776.99 384.22 781.20 C 377.11 789.42 368.33 796.19 362.29 805.33 C 359.39 809.70 357.79 814.78 357.05 819.94 C 371.70 820.08 386.35 819.96 401.00 820.00 C 401.00 815.87 401.00 811.75 400.99 807.64 C 392.69 807.58 384.39 807.69 376.09 807.58 C 381.92 799.03 391.21 793.50 396.61 784.61 C 400.42 778.82 402.09 771.49 400.36 764.71 C 398.65 758.25 393.11 753.05 386.58 751.68 C 379.06 750.06 370.36 751.13 364.58 756.59 Z" />
<path fill="#ffffff" opacity="1.00" d=" M 520.75 288.29 C 527.17 287.74 533.61 287.40 540.04 286.90 C 546.77 305.36 553.08 324.00 558.93 342.75 C 555.89 343.23 552.38 344.06 549.52 342.73 C 548.41 336.59 545.30 331.13 542.24 325.79 C 537.27 317.18 531.71 308.93 526.56 300.43 C 524.26 296.58 521.79 292.71 520.75 288.29 Z" />
<path fill="#ffffff" opacity="1.00" d=" M 587.58 288.18 C 591.57 288.09 595.58 288.10 599.58 288.17 C 601.82 300.67 604.02 313.23 604.69 325.94 C 604.75 330.75 605.25 335.83 603.13 340.31 C 602.31 340.34 600.67 340.38 599.86 340.40 C 597.85 329.32 595.88 318.21 592.76 307.37 C 591.12 300.95 588.61 294.74 587.58 288.18 Z" />
<path fill="#ffffff" opacity="1.00" d=" M 637.17 295.01 C 641.00 297.50 645.60 296.99 649.93 296.93 C 648.47 313.55 647.26 330.61 641.09 346.27 C 639.15 346.26 637.21 346.23 635.28 346.24 C 636.31 329.18 637.06 312.10 637.17 295.01 Z" />
<path fill="#ffffff" opacity="1.00" d=" M 462.81 303.29 C 470.24 300.33 478.04 298.40 485.79 296.50 C 497.44 312.93 507.77 330.36 520.64 345.90 C 517.08 347.71 513.40 349.38 510.33 351.98 C 495.08 335.64 480.58 318.26 462.49 304.94 C 462.57 304.53 462.73 303.70 462.81 303.29 Z" />
<path fill="#ffffff" opacity="1.00" d=" M 694.05 314.89 C 696.04 316.66 698.42 317.87 701.05 318.36 C 691.14 332.69 680.95 346.82 670.79 360.97 C 669.55 359.82 668.29 358.71 666.99 357.64 C 671.09 349.41 676.03 341.64 680.87 333.83 C 685.03 327.36 689.08 320.78 694.05 314.89 Z" />
<path fill="#ffffff" opacity="1.00" d=" M 724.33 354.33 C 729.44 351.89 734.50 349.09 740.14 348.11 C 740.14 349.50 740.39 351.14 739.09 352.09 C 736.02 355.71 731.43 357.22 727.38 359.40 C 717.27 364.69 707.21 370.09 697.35 375.82 C 696.22 374.65 695.07 373.50 693.92 372.38 C 703.42 365.36 713.85 359.72 724.33 354.33 Z" />
<path fill="#ffffff" opacity="1.00" d=" M 536.01 357.98 C 585.37 344.08 640.59 351.52 684.03 378.95 C 692.19 384.23 700.01 390.24 706.29 397.72 C 709.37 401.36 711.89 405.58 712.78 410.32 C 715.12 420.72 718.10 431.30 717.01 442.06 C 716.17 450.68 710.72 457.88 704.93 463.95 C 694.60 474.62 683.48 484.48 673.03 495.03 C 658.10 509.81 643.90 525.31 630.20 541.24 C 626.22 545.80 625.11 552.14 625.38 558.03 C 625.89 570.35 633.78 581.72 644.49 587.54 C 650.98 589.99 658.10 591.02 665.00 590.03 C 674.35 588.66 682.77 582.50 687.20 574.20 C 690.05 567.67 690.96 559.77 687.74 553.20 C 685.02 547.54 679.78 543.56 674.29 540.79 C 672.28 539.82 669.93 538.30 667.75 539.73 C 664.32 541.77 662.13 545.28 659.34 548.06 C 660.20 550.79 662.45 552.64 664.64 554.33 C 667.10 555.91 670.38 556.28 672.20 558.80 C 678.36 564.75 675.82 576.65 668.07 580.09 C 660.79 583.54 651.83 581.23 646.06 575.94 C 638.97 569.52 636.42 559.37 637.16 550.12 C 640.82 537.42 652.52 528.14 665.13 525.28 C 673.99 525.69 682.98 528.48 689.97 534.06 C 692.92 536.23 694.40 539.67 696.31 542.68 C 698.64 546.44 700.98 550.43 701.41 554.93 C 700.92 564.92 699.01 575.52 692.39 583.41 C 683.01 594.41 667.18 597.78 653.40 595.34 C 646.47 594.35 640.32 590.90 634.18 587.80 C 628.90 584.54 625.31 579.32 620.82 575.17 C 618.41 573.27 618.61 569.94 617.91 567.23 C 616.89 560.32 615.09 552.54 619.08 546.21 C 606.97 534.69 593.02 525.31 579.58 515.44 C 546.43 491.86 512.50 469.36 477.70 448.29 C 465.33 440.84 452.83 433.61 440.08 426.83 C 437.95 425.59 434.91 423.99 435.51 421.03 C 436.56 417.36 439.93 415.08 442.51 412.50 C 469.05 387.67 500.77 367.69 536.01 357.98 Z" />
<path fill="#ffffff" opacity="1.00" d=" M 713.87 393.08 C 721.73 390.91 730.05 391.41 738.09 392.22 C 755.34 394.25 772.79 401.30 784.14 414.89 C 787.67 418.83 789.81 423.76 793.25 427.77 C 795.14 430.08 794.30 433.18 792.99 435.54 C 782.25 425.01 770.20 415.41 756.02 409.98 C 745.02 405.63 732.94 403.72 721.18 405.43 C 717.83 401.99 712.49 398.71 713.87 393.08 Z" />
<path fill="#ffffff" opacity="1.00" d=" M 729.13 431.10 C 729.01 428.75 731.55 426.49 733.78 427.87 C 749.79 435.57 763.90 447.56 773.18 462.80 C 784.42 481.02 788.65 502.79 788.37 523.99 C 788.02 539.73 785.76 555.55 780.52 570.44 C 775.86 587.09 773.73 604.31 771.79 621.45 C 768.08 658.50 767.35 695.92 770.88 733.01 C 771.44 740.00 772.00 747.00 772.37 754.01 C 770.33 743.59 769.65 732.96 768.31 722.44 C 763.25 679.50 761.76 635.92 767.32 592.95 C 769.27 576.26 772.70 559.76 773.84 542.98 C 775.27 519.61 768.41 496.33 756.81 476.20 C 750.14 464.22 741.62 453.44 733.90 442.16 C 731.80 438.76 729.28 435.23 729.13 431.10 Z" />
<path fill="#ffffff" opacity="1.00" d=" M 444.62 445.00 C 451.92 447.18 458.41 451.31 465.06 454.92 C 484.78 466.30 504.16 478.30 523.25 490.71 C 512.50 494.07 500.61 494.26 490.10 489.97 C 476.14 484.44 465.41 473.28 456.36 461.65 C 452.27 456.23 448.12 450.82 444.62 445.00 Z" />
<path fill="#ffffff" opacity="1.00" d=" M 718.12 462.90 C 725.08 466.25 729.86 472.62 734.13 478.83 C 743.34 492.86 749.82 508.57 754.26 524.73 C 758.41 540.50 760.66 557.26 757.17 573.39 C 754.81 585.77 751.14 597.91 749.81 610.48 C 748.01 627.91 749.02 645.47 750.08 662.92 C 751.18 681.14 753.19 699.30 754.59 717.50 C 753.23 717.03 752.50 716.11 752.39 714.73 C 745.47 681.50 741.83 647.27 745.23 613.38 C 746.37 601.47 748.62 589.71 751.14 578.04 C 754.98 562.07 752.95 545.25 748.20 529.71 C 743.89 515.86 737.24 502.82 729.24 490.75 C 724.76 484.16 718.18 478.75 715.78 470.92 C 714.73 467.96 716.17 465.07 718.12 462.90 Z" />
<path fill="#ffffff" opacity="1.00" d=" M 451.25 474.78 C 456.33 476.50 460.02 480.57 464.06 483.90 C 472.72 491.47 482.55 498.53 494.10 500.64 C 507.36 503.14 520.85 500.87 533.99 498.73 C 545.86 503.39 556.03 511.39 566.44 518.60 C 567.32 519.16 567.94 519.94 568.30 520.95 C 566.24 521.62 564.25 522.55 562.12 522.93 C 554.49 519.48 548.19 513.38 540.00 511.07 C 524.60 506.41 508.13 509.81 493.36 515.11 C 486.92 517.59 479.99 514.82 474.33 511.64 C 465.36 506.25 457.53 498.51 452.97 489.01 C 450.85 484.61 449.98 479.56 451.25 474.78 Z" />
<path fill="#ffffff" opacity="1.00" d=" M 690.03 492.91 C 693.13 492.61 697.26 491.60 699.26 494.78 C 710.51 507.78 722.02 520.96 729.51 536.59 C 734.82 547.58 736.55 559.88 736.88 571.98 C 737.69 586.45 731.39 599.91 728.74 613.88 C 722.00 645.66 728.09 678.40 736.65 709.20 C 737.60 713.62 741.13 717.36 740.44 722.10 C 739.70 721.61 739.17 720.97 738.83 720.18 C 725.63 689.51 718.21 655.72 721.68 622.26 C 722.77 611.06 725.33 600.07 728.41 589.27 C 731.32 574.55 730.31 558.99 725.04 544.89 C 718.86 528.03 707.85 513.36 695.14 500.85 C 692.92 498.55 689.53 496.61 690.03 492.91 Z" />
<path fill="#ffffff" opacity="1.00" d=" M 445.10 543.00 C 449.43 532.01 452.12 520.49 454.73 508.99 C 463.98 511.97 470.53 519.86 479.30 523.81 C 481.55 524.52 484.23 523.45 486.27 524.90 C 489.45 528.19 486.23 534.04 490.05 536.93 C 494.21 540.47 497.01 545.42 501.58 548.49 C 503.73 549.99 506.42 550.01 508.93 550.28 C 508.53 554.66 507.62 560.04 502.97 561.87 C 496.08 564.91 489.34 560.15 482.85 558.26 C 474.72 555.21 464.95 555.58 457.99 561.18 C 458.60 562.41 458.81 564.44 460.70 564.00 C 461.79 562.99 462.59 561.72 463.58 560.62 C 469.25 560.22 475.02 560.14 480.58 561.53 C 485.84 562.64 490.77 565.10 496.16 565.59 C 501.20 565.96 505.77 563.35 510.04 561.03 C 514.11 558.84 517.44 555.16 522.16 554.35 C 522.53 557.17 522.67 560.21 524.46 562.58 C 527.49 566.85 532.00 569.70 535.58 573.46 C 536.87 575.13 539.15 575.13 540.86 576.17 C 542.70 577.67 544.29 579.59 545.01 581.90 C 547.38 588.97 552.83 594.33 558.10 599.36 C 561.14 599.57 564.36 598.88 567.30 599.76 C 569.25 603.32 569.54 607.89 567.52 611.49 C 563.52 619.22 554.17 622.83 551.31 631.27 C 547.59 641.02 547.30 651.99 550.10 662.01 C 553.10 668.51 557.99 673.96 562.97 679.03 C 567.54 683.21 572.43 687.95 578.89 688.66 C 578.86 702.12 578.87 715.59 578.89 729.06 C 579.20 731.62 577.34 733.64 576.55 735.93 C 578.92 738.91 581.38 742.17 585.51 742.47 C 589.00 746.16 591.13 751.57 589.48 756.60 C 587.46 762.89 583.45 768.34 581.70 774.75 C 577.72 787.50 581.00 801.13 585.89 813.15 C 586.99 816.31 589.28 819.21 588.97 822.72 C 582.99 824.15 576.99 822.01 571.22 820.61 C 554.60 815.77 538.36 809.63 522.39 802.97 C 521.79 788.74 521.22 774.50 520.42 760.28 C 518.32 754.16 514.05 748.64 508.04 745.94 C 496.47 740.71 483.34 742.79 471.26 739.76 C 466.98 738.78 462.50 735.74 462.20 730.98 C 461.94 719.34 462.31 707.68 462.04 696.04 C 461.16 693.00 458.08 689.73 460.54 686.63 C 464.97 681.18 469.32 675.42 471.02 668.45 C 466.83 666.51 461.71 666.14 458.50 662.51 C 456.66 660.47 453.49 660.49 451.77 658.27 C 449.64 655.86 447.16 653.68 443.83 653.31 C 443.89 650.17 446.64 648.24 449.00 646.68 C 453.11 646.27 457.82 648.05 461.46 645.45 C 464.39 642.01 465.64 637.40 465.13 632.93 C 465.55 628.14 460.19 626.05 457.78 622.62 C 454.27 625.33 449.63 625.18 445.85 627.27 C 446.43 629.59 447.73 631.70 449.97 632.74 C 452.27 631.48 453.89 628.01 456.85 628.73 C 460.69 630.58 461.84 635.12 461.43 639.05 C 456.60 640.17 451.55 640.53 446.67 639.56 C 442.76 639.19 441.36 634.78 437.97 633.32 C 435.95 635.05 434.17 637.84 431.09 637.16 C 427.87 636.69 423.34 638.02 421.53 634.43 C 420.03 631.20 420.70 627.47 420.81 624.04 C 428.25 608.08 436.97 592.66 443.23 576.16 C 444.82 571.37 447.08 565.63 443.84 561.03 C 439.94 555.42 443.02 548.66 445.10 543.00 M 447.25 577.53 C 447.38 578.51 447.51 579.49 447.64 580.47 C 452.03 581.84 454.36 577.16 457.01 574.64 C 460.61 574.75 464.36 574.08 467.84 575.32 C 469.88 578.65 465.54 579.03 463.24 578.81 C 459.86 582.55 455.34 585.27 452.73 589.67 C 451.33 591.90 451.58 594.83 453.09 596.94 C 455.42 600.54 459.91 601.87 463.95 602.28 C 471.36 602.85 479.13 600.70 484.81 595.82 C 488.54 592.52 491.18 587.52 490.65 582.45 C 486.80 576.06 479.80 572.24 472.77 570.37 C 468.34 569.06 463.68 569.57 459.14 569.11 C 454.47 570.84 452.43 576.47 447.25 577.53 Z" />
<path fill="#ffffff" opacity="1.00" d=" M 509.62 519.24 C 519.26 511.92 532.82 514.39 542.27 520.75 C 544.57 522.28 547.05 524.10 547.44 527.07 C 538.40 530.28 528.15 532.50 518.83 529.20 C 514.60 527.48 509.95 524.18 509.62 519.24 Z" />
<path fill="#ffffff" opacity="1.00" d=" M 495.82 524.80 C 501.61 525.30 505.80 529.89 510.99 532.02 C 522.11 537.74 535.26 537.41 546.99 533.85 C 547.03 535.53 547.09 537.22 547.16 538.92 C 541.89 539.25 536.65 540.12 531.66 541.89 C 526.49 543.53 521.50 546.19 515.98 546.38 C 511.48 546.35 507.66 543.42 504.94 540.08 C 501.18 535.47 498.22 530.23 495.82 524.80 Z" />
<path fill="#ffffff" opacity="1.00" d=" M 578.68 528.65 C 580.74 526.75 582.93 529.23 584.25 530.77 C 585.44 531.82 585.88 533.32 585.99 534.86 C 580.38 535.87 574.64 536.67 568.94 536.10 C 564.63 535.76 561.17 532.59 556.76 532.71 C 556.92 532.35 557.24 531.62 557.40 531.26 C 564.46 530.41 572.52 533.47 578.68 528.65 Z" />
<path fill="#ffffff" opacity="1.00" d=" M 589.50 541.55 C 591.91 538.72 596.16 539.47 599.26 540.61 C 603.07 542.28 606.51 544.77 609.65 547.48 C 610.28 550.52 606.90 552.35 604.89 553.96 C 599.95 554.20 594.21 552.23 590.40 556.48 C 586.58 556.75 582.74 557.05 578.92 556.93 C 575.14 556.90 572.97 553.05 569.28 552.69 C 566.19 552.18 562.95 550.65 562.72 547.11 C 571.47 544.60 582.29 548.50 589.50 541.55 Z" />
<path fill="#ffffff" opacity="1.00" d=" M 541.47 545.54 C 546.35 544.53 550.58 547.97 554.09 550.89 C 558.93 555.09 563.43 559.78 569.07 562.94 C 570.17 563.42 570.82 564.44 571.30 565.51 C 568.89 566.00 566.38 566.11 564.06 566.98 C 557.24 570.71 548.49 572.12 541.26 568.76 C 535.90 566.20 533.50 560.50 530.65 555.68 C 533.29 551.52 536.41 546.87 541.47 545.54 Z" />
<path fill="#ffffff" opacity="1.00" d=" M 601.74 563.53 C 604.08 563.09 606.04 559.43 608.49 561.54 C 610.38 563.73 609.00 567.10 609.51 569.78 C 609.53 572.49 613.52 573.91 612.20 576.78 C 604.94 579.43 597.74 575.19 590.57 574.32 C 588.34 572.35 586.37 570.09 584.00 568.27 C 586.19 566.57 588.31 564.56 591.08 563.83 C 594.56 562.79 598.20 564.04 601.74 563.53 Z" />
<path fill="#ffffff" opacity="1.00" d=" M 554.03 580.24 C 561.08 576.72 568.51 571.53 576.80 573.42 C 582.21 574.50 585.56 579.10 588.99 582.96 C 593.84 585.72 599.74 584.05 605.04 584.26 C 609.98 584.11 615.30 585.12 618.77 588.94 C 616.76 593.44 611.79 595.16 607.44 596.55 C 601.65 598.18 595.42 598.97 589.50 597.54 C 586.25 596.82 583.85 594.23 580.69 593.30 C 574.73 591.62 568.35 593.44 562.44 591.50 C 557.68 589.94 554.27 585.20 554.03 580.24 Z" />
<path fill="#ffffff" opacity="1.00" d=" M 701.07 582.96 C 701.83 581.16 702.02 578.75 704.33 578.31 C 704.86 587.45 700.18 595.78 694.74 602.75 C 689.69 609.30 683.77 615.11 677.86 620.88 C 675.92 622.68 675.75 625.50 675.62 627.98 C 675.42 635.83 676.99 643.60 678.56 651.26 C 682.16 667.47 686.77 683.48 692.75 698.99 C 664.52 701.32 636.45 705.29 608.27 708.00 C 605.90 702.26 605.24 696.01 604.67 689.89 C 605.99 687.57 608.27 686.00 609.98 683.98 C 618.72 674.50 625.51 662.22 625.15 648.99 C 625.16 637.64 619.90 627.13 613.53 618.04 C 616.76 614.70 620.94 612.05 622.59 607.49 C 624.71 605.05 625.47 601.97 626.32 598.93 C 637.04 601.59 647.88 604.26 659.01 604.26 C 669.67 604.45 680.93 603.02 689.98 596.97 C 694.99 593.58 699.00 588.66 701.07 582.96 Z" />
<path fill="#ffffff" opacity="1.00" d=" M 474.18 588.66 C 473.19 587.37 473.78 585.47 475.01 584.60 C 478.51 584.35 482.03 584.46 485.53 584.66 C 484.75 586.13 483.50 587.23 482.42 588.48 C 481.35 590.91 480.86 593.66 478.93 595.63 C 477.88 592.95 475.89 590.90 474.18 588.66 Z" />
<path fill="#ffffff" opacity="1.00" d=" M 460.22 587.26 C 463.32 587.24 466.81 587.44 469.02 589.94 C 470.65 591.12 469.93 593.26 470.11 594.97 C 466.82 595.69 463.46 595.57 460.12 595.47 C 460.11 592.72 460.11 589.99 460.22 587.26 Z" />
<path fill="#ffffff" opacity="1.00" d=" M 575.98 602.61 C 579.27 602.66 582.54 602.13 585.83 602.31 C 588.00 602.38 589.46 604.18 591.21 605.22 C 599.38 606.01 607.84 604.26 615.84 606.65 C 615.62 607.41 615.17 608.93 614.95 609.68 C 612.19 611.38 608.79 611.65 605.81 612.90 C 599.32 611.75 593.45 608.38 586.94 607.23 C 583.33 606.44 579.62 606.69 575.98 606.98 C 576.01 605.52 576.02 604.06 575.98 602.61 Z" />
<path fill="#ffffff" opacity="1.00" d=" M 581.61 641.60 C 583.50 640.44 585.97 641.14 588.10 641.00 C 591.03 640.81 594.74 642.70 594.52 646.05 C 594.61 649.88 595.45 655.14 591.37 657.31 C 584.97 659.75 577.70 655.56 574.65 649.87 C 572.79 645.04 579.04 644.16 581.61 641.60 Z" />
<path fill="#ffffff" opacity="1.00" d=" M 450.06 679.24 C 452.28 677.11 454.97 675.11 458.25 675.74 C 458.51 678.42 458.36 681.13 457.99 683.80 C 454.26 685.31 452.07 681.66 450.06 679.24 Z" />
<path fill="#ffffff" opacity="1.00" d=" M 587.83 691.50 C 590.93 691.63 594.24 690.80 597.22 691.98 C 598.78 692.70 598.61 694.48 598.60 695.93 C 598.40 701.83 597.45 707.95 599.35 713.68 C 600.14 716.16 602.16 718.54 604.97 718.55 C 634.78 715.32 664.68 712.82 694.47 709.29 C 695.89 710.88 697.96 712.07 698.74 714.15 C 699.11 716.36 696.62 717.24 695.00 717.91 C 688.72 720.14 682.11 721.19 675.57 722.34 C 646.47 726.88 617.11 729.45 587.77 731.74 C 587.78 718.32 587.65 704.91 587.83 691.50 Z" />
<path fill="#ffffff" opacity="1.00" d=" M 275.39 762.31 C 278.91 760.52 283.91 761.70 285.61 765.44 C 288.28 770.45 285.41 778.42 279.00 778.08 C 270.67 778.71 268.54 765.68 275.39 762.31 Z" />
<path fill="#ffffff" opacity="1.00" d=" M 326.30 762.10 C 331.13 759.82 337.18 763.64 336.99 769.03 C 337.79 774.07 333.29 779.15 328.08 777.99 C 320.46 777.14 319.52 764.85 326.30 762.10 Z" />
<path fill="#ffffff" opacity="1.00" d=" M 275.36 789.31 C 279.70 787.27 285.26 789.48 287.00 793.94 C 288.73 798.51 288.46 804.33 285.17 808.15 C 281.73 812.08 274.81 811.27 272.14 806.86 C 268.72 801.47 269.38 792.61 275.36 789.31 Z" />
<path fill="#ffffff" opacity="1.00" d=" M 325.46 789.48 C 329.71 787.26 335.44 789.20 337.33 793.65 C 339.25 798.33 339.02 804.56 335.36 808.36 C 331.98 811.98 325.56 811.22 322.83 807.19 C 319.16 801.90 319.73 793.10 325.46 789.48 Z" />
<path fill="#ffffff" opacity="1.00" d=" M 516.66 830.84 C 530.76 836.53 545.37 840.77 559.92 845.13 C 565.31 846.99 571.27 848.38 575.47 852.50 C 577.31 854.21 577.04 856.83 576.78 859.09 C 573.06 860.39 570.88 856.38 567.68 855.35 C 552.23 848.93 535.58 846.09 519.99 840.07 C 518.89 839.40 517.13 839.35 516.69 837.97 C 516.50 835.59 516.63 833.21 516.66 830.84 Z" />
</g>
<g id="#000000ff">
<path fill="#000000" opacity="1.00" d=" M 501.63 0.00 L 504.52 0.00 C 580.04 13.04 652.22 41.66 718.81 79.17 C 783.04 115.49 842.63 160.03 895.63 211.36 C 931.96 246.82 965.46 285.53 992.38 328.68 C 993.64 330.55 994.62 332.67 994.47 334.99 C 994.74 355.21 995.09 375.44 996.00 395.65 L 996.00 476.33 C 994.69 492.80 994.43 509.34 992.95 525.80 C 989.65 567.39 981.58 608.47 970.71 648.72 C 960.26 686.25 944.93 722.30 926.55 756.61 C 907.17 792.62 884.46 826.88 858.41 858.41 C 815.63 910.71 758.98 951.19 696.44 976.48 C 644.24 997.69 588.26 1008.38 532.18 1012.10 C 522.89 1012.71 513.58 1013.05 504.32 1014.00 L 454.63 1014.00 C 439.77 1012.74 424.84 1012.31 410.00 1010.71 C 373.33 1007.08 336.91 999.22 302.71 985.32 C 272.80 973.31 244.89 956.87 218.34 938.71 C 192.49 920.92 166.95 902.46 144.08 880.89 C 116.98 855.65 93.12 826.87 73.73 795.30 C 53.91 763.15 38.79 728.22 27.88 692.10 C 8.30 627.45 1.74 559.69 0.00 492.41 L 0.00 426.57 C 0.94 385.70 3.00 344.85 5.59 304.05 C 5.98 300.58 5.30 296.62 7.76 293.76 C 35.67 254.67 69.54 220.15 106.00 189.00 C 161.96 141.47 224.20 101.50 289.98 68.96 C 356.78 36.21 427.78 10.72 501.63 0.00 M 498.43 16.75 C 485.79 18.60 473.21 20.85 460.74 23.62 C 395.14 38.24 332.29 63.59 272.91 94.82 C 210.57 127.91 151.65 167.84 99.36 215.34 C 70.89 241.32 44.43 269.69 22.07 301.14 C 21.12 302.30 20.69 303.73 20.69 305.22 C 16.25 375.53 12.74 446.05 15.77 516.49 C 17.85 563.40 22.91 610.33 33.82 656.05 C 42.57 692.76 55.24 728.65 72.80 762.10 C 89.35 793.79 110.32 823.14 134.82 849.18 C 157.30 873.27 182.90 894.24 209.84 913.14 C 247.09 939.95 286.90 964.24 330.91 978.15 C 368.38 990.28 407.75 995.45 447.00 997.00 C 497.37 998.84 548.07 996.85 597.75 987.91 C 635.42 981.11 672.44 970.19 707.29 954.25 C 740.80 938.99 772.18 919.08 800.25 895.24 C 826.82 873.11 849.35 846.57 869.67 818.69 C 890.07 790.56 908.13 760.72 923.48 729.54 C 939.11 697.77 951.82 664.47 960.18 630.04 C 966.87 603.31 972.32 576.25 975.63 548.89 C 979.87 514.77 980.74 480.35 980.88 446.00 C 980.81 410.36 980.12 374.72 979.48 339.09 C 979.59 337.30 978.37 335.89 977.55 334.44 C 955.16 298.53 927.94 265.83 898.46 235.54 C 846.08 182.11 786.33 135.95 721.70 98.28 C 655.05 59.65 582.54 29.91 506.42 16.61 C 503.78 15.99 501.07 16.32 498.43 16.75 Z" />
<path fill="#000000" opacity="1.00" d=" M 499.45 33.63 C 501.74 33.19 504.10 33.20 506.39 33.72 C 579.13 46.74 648.23 75.88 711.55 113.52 C 772.18 149.77 828.13 193.98 877.09 244.92 C 905.78 275.06 932.41 307.49 953.65 343.35 C 954.58 373.54 954.80 403.78 955.13 434.00 C 955.27 472.73 954.75 511.59 949.88 550.07 C 946.58 576.94 941.15 603.52 934.59 629.77 C 925.27 667.36 910.67 703.50 892.81 737.80 C 876.58 768.85 857.69 798.53 836.22 826.23 C 825.74 839.63 814.72 852.64 802.66 864.66 C 777.99 888.98 750.03 909.99 719.70 926.74 C 687.00 944.83 651.63 957.89 615.28 966.40 C 561.56 979.04 506.00 981.93 450.99 980.00 C 414.08 978.60 377.04 973.79 341.80 962.41 C 314.70 953.78 289.01 941.13 264.93 926.09 C 247.23 915.05 230.26 902.92 213.56 890.45 C 183.77 868.32 156.59 842.55 133.75 813.27 C 113.61 787.49 96.92 759.05 83.98 729.02 C 67.17 690.17 56.55 648.87 50.04 607.11 C 42.28 557.15 40.14 506.50 40.37 456.01 C 40.60 408.93 43.01 361.90 45.90 314.93 C 46.14 312.70 45.79 310.19 47.34 308.35 C 69.69 276.32 96.39 247.51 125.19 221.20 C 174.60 176.31 230.12 138.36 288.97 106.95 C 323.60 88.55 359.51 72.48 396.54 59.52 C 429.97 47.84 464.37 38.69 499.45 33.63 M 489.06 48.07 C 452.39 54.21 416.53 64.68 381.77 77.77 C 315.34 102.97 252.50 137.40 194.87 178.90 C 143.10 216.56 94.82 260.13 57.42 312.41 C 56.30 314.05 54.81 315.67 54.90 317.81 C 51.69 368.51 49.12 419.30 49.24 470.12 C 72.52 445.69 96.15 421.60 120.10 397.84 C 110.03 380.04 106.56 359.24 106.74 339.00 C 106.60 318.25 110.85 296.90 122.27 279.30 C 131.13 265.35 144.71 253.97 160.91 249.83 C 175.76 246.05 191.81 246.67 206.29 251.74 C 222.37 257.40 235.04 270.39 242.31 285.58 C 232.67 293.64 223.14 301.85 213.77 310.23 C 212.39 309.81 212.36 308.28 211.92 307.16 C 210.29 301.66 207.77 296.34 204.07 291.92 C 193.14 278.56 170.23 277.73 158.50 290.49 C 148.70 300.79 145.22 315.35 144.16 329.15 C 143.30 343.13 143.73 357.44 147.62 370.98 C 138.45 379.89 129.29 388.82 120.15 397.78 C 126.10 408.39 134.59 417.77 145.32 423.68 C 159.66 431.69 176.83 433.26 192.87 430.94 C 207.79 428.77 221.77 421.02 231.43 409.45 C 245.28 393.33 251.33 371.97 252.70 351.10 C 254.05 328.97 252.21 305.85 242.29 285.68 C 267.76 263.85 294.19 243.14 321.13 223.17 C 313.20 221.21 304.99 219.44 297.95 215.09 C 289.78 209.73 285.46 200.12 284.24 190.68 C 282.71 178.39 284.01 165.24 290.42 154.41 C 297.80 141.64 312.04 134.15 326.45 132.77 C 341.75 131.40 358.04 132.73 371.63 140.48 C 372.04 142.49 372.06 144.59 371.36 146.55 C 370.12 150.00 370.30 153.69 370.09 157.29 C 366.89 157.27 363.31 158.04 360.34 156.86 C 353.28 147.79 341.07 143.98 329.91 145.12 C 323.37 145.70 316.95 148.64 312.74 153.76 C 307.12 160.28 305.86 169.56 307.42 177.81 C 308.55 183.82 312.56 189.44 318.39 191.65 C 329.64 196.12 341.87 196.96 353.52 199.97 C 342.85 207.68 331.84 214.94 321.53 223.13 C 330.57 225.42 340.77 225.56 348.34 231.65 C 354.83 236.97 356.30 246.07 355.26 253.98 C 353.96 263.59 348.91 273.60 339.62 277.63 C 325.33 283.71 307.56 279.10 297.35 267.59 C 294.18 264.28 293.52 259.58 293.02 255.22 C 290.65 255.44 287.68 254.34 285.69 255.76 C 284.93 262.11 285.64 268.69 283.81 274.94 C 283.38 277.47 281.54 280.95 284.29 282.79 C 293.19 287.80 303.10 291.06 313.22 292.42 C 327.45 294.05 342.68 292.68 355.22 285.24 C 369.90 276.53 378.90 259.91 379.93 243.07 C 380.67 232.20 379.39 220.36 372.58 211.43 C 368.01 205.35 360.89 201.96 353.74 199.91 C 375.39 184.87 397.49 170.47 419.98 156.73 C 419.96 171.67 420.24 186.63 419.30 201.55 C 418.98 204.28 419.04 207.18 417.83 209.71 C 416.07 212.38 412.41 211.85 409.67 212.33 C 409.61 215.34 409.60 218.35 409.65 221.36 C 427.25 221.00 444.87 221.00 462.47 221.36 C 462.52 218.35 462.52 215.34 462.45 212.32 C 459.67 211.86 455.93 212.39 454.22 209.61 C 452.78 205.93 452.95 201.86 452.60 197.99 C 451.76 177.85 452.30 157.69 452.09 137.54 C 441.28 143.70 430.67 150.19 420.04 156.64 C 419.82 137.47 420.42 118.29 419.36 99.14 C 419.03 96.12 419.14 92.91 417.89 90.09 C 416.09 87.39 412.39 87.91 409.60 87.30 C 409.62 84.33 409.61 81.35 409.65 78.38 C 427.25 78.74 444.87 78.75 462.47 78.38 C 462.51 81.37 462.50 84.37 462.48 87.36 C 460.21 87.71 457.80 87.66 455.68 88.66 C 453.18 90.15 453.43 93.46 453.02 95.96 C 451.92 109.75 452.15 123.59 452.15 137.41 C 495.01 112.50 538.84 89.32 582.84 66.51 C 557.76 57.72 531.90 51.16 505.74 46.47 C 500.15 45.53 494.60 47.49 489.06 48.07 M 663.33 100.37 C 614.54 131.07 566.35 162.78 519.86 196.88 C 456.52 243.25 396.15 294.08 342.75 351.76 C 294.14 403.99 251.91 461.89 214.68 522.69 C 172.03 592.30 134.83 665.05 98.19 737.95 C 116.04 775.21 140.16 809.42 169.22 838.78 C 193.81 863.96 222.25 884.94 251.23 904.76 C 276.14 921.66 302.54 936.65 330.83 947.14 C 365.09 960.01 401.52 966.19 437.94 968.44 C 470.02 970.26 502.25 970.13 534.30 967.73 C 597.11 963.04 659.88 947.83 715.29 917.24 C 746.28 900.25 774.76 878.73 799.71 853.71 C 823.07 829.58 843.25 802.53 861.28 774.24 C 882.72 740.34 900.94 704.30 914.38 666.48 C 922.60 643.58 928.34 619.88 933.36 596.11 C 939.31 567.76 943.08 538.97 944.71 510.06 C 946.98 470.41 946.26 430.67 945.68 390.98 C 945.31 376.76 945.52 362.48 944.74 348.29 C 934.02 330.14 921.62 313.01 908.51 296.52 C 865.94 243.55 815.03 197.60 759.71 158.30 C 729.05 136.70 696.97 117.01 663.33 100.37 Z" />
<path fill="#000000" opacity="1.00" d=" M 497.01 282.96 C 540.04 275.68 584.37 275.07 627.39 282.75 C 666.11 289.75 704.07 304.31 735.13 328.85 C 760.90 349.01 781.12 375.91 794.18 405.85 C 799.99 419.06 804.54 432.81 807.98 446.82 C 810.15 455.04 811.32 463.51 811.47 472.02 C 811.84 491.31 808.92 510.47 805.63 529.42 C 798.73 567.95 789.31 606.04 784.35 644.90 C 780.63 675.07 779.02 706.30 787.15 735.92 C 792.82 756.95 804.85 776.44 822.19 789.80 C 825.31 792.42 829.44 794.26 831.19 798.18 C 832.57 800.91 830.73 803.96 828.27 805.29 C 822.74 808.54 816.22 809.40 809.97 810.16 C 794.94 811.50 779.63 810.77 764.95 807.20 C 759.12 805.60 753.01 803.71 748.52 799.47 C 745.82 797.04 745.04 792.88 746.69 789.64 C 749.22 784.40 754.81 781.75 758.17 777.18 C 759.60 775.45 759.29 772.82 757.55 771.46 C 751.22 765.70 745.96 758.91 740.92 752.05 C 724.38 729.14 711.74 703.48 703.25 676.54 C 700.98 676.50 698.72 676.58 696.48 676.90 C 701.41 694.97 710.49 712.08 712.09 730.98 C 712.94 735.63 711.12 740.30 711.66 745.00 C 712.74 762.24 720.67 778.07 729.02 792.87 C 730.89 796.20 729.91 800.17 729.51 803.75 C 727.69 814.39 726.34 825.12 726.14 835.92 C 725.58 836.24 724.46 836.88 723.90 837.20 C 722.38 835.30 720.88 833.39 718.94 831.92 C 718.09 821.34 722.69 810.93 720.36 800.40 C 719.08 793.64 714.45 788.30 712.04 781.99 C 705.29 765.56 704.45 747.58 703.46 730.08 C 702.28 729.99 701.11 729.90 699.95 729.81 C 695.12 744.22 699.35 759.51 703.58 773.51 C 706.08 782.38 710.83 790.67 711.41 800.02 C 712.04 808.12 709.18 815.96 709.23 824.03 C 709.14 828.76 710.21 833.39 711.35 837.95 C 709.77 839.00 708.11 839.96 706.16 840.02 C 704.41 836.13 704.46 831.51 701.52 828.18 C 705.01 817.60 707.48 806.06 704.89 795.00 C 703.74 789.53 699.49 785.51 697.73 780.30 C 692.42 766.02 691.33 750.68 688.33 735.86 C 687.68 733.57 687.55 730.45 684.87 729.62 C 683.80 733.03 686.91 735.61 686.91 738.92 C 687.23 744.93 686.70 750.96 687.08 756.98 C 687.59 768.86 690.44 780.65 695.69 791.33 C 700.02 799.15 698.93 808.48 697.82 816.99 C 696.81 823.77 695.20 830.44 693.62 837.11 C 695.12 839.03 696.90 840.97 696.89 843.60 C 694.88 843.88 692.56 844.66 690.81 843.21 C 689.08 840.42 689.88 837.00 690.23 833.96 C 692.00 823.23 694.68 812.24 692.42 801.37 C 691.36 795.51 687.73 790.63 685.84 785.07 C 680.20 769.73 679.13 753.04 680.54 736.86 C 678.06 734.61 675.53 732.42 673.04 730.19 C 675.88 743.68 668.80 756.61 670.26 770.09 C 670.90 778.11 673.85 785.67 676.95 793.02 C 683.06 809.55 683.80 827.64 681.92 845.02 C 681.99 847.10 680.07 848.45 678.23 848.88 C 676.17 845.27 676.56 840.99 676.39 837.01 C 676.34 824.24 675.66 811.31 671.95 799.01 C 670.17 792.70 666.83 786.93 665.54 780.48 C 663.63 772.16 664.46 763.54 666.09 755.25 C 666.93 750.16 668.26 744.75 666.38 739.74 C 665.34 736.84 663.11 734.61 660.70 732.81 C 661.69 737.00 662.11 741.33 661.31 745.59 C 659.49 756.67 656.64 767.69 656.85 779.00 C 656.62 791.19 659.92 803.13 664.82 814.20 C 666.26 822.10 662.01 829.87 663.13 837.86 C 663.21 842.57 665.83 846.62 667.15 850.99 C 666.09 854.18 663.14 856.55 659.93 857.39 C 659.49 853.48 661.05 848.45 656.97 846.00 C 658.60 833.25 660.72 819.61 655.58 807.37 C 651.71 796.39 649.23 784.67 650.49 772.99 C 651.19 764.96 654.07 757.08 653.06 748.95 C 652.45 743.46 650.07 738.41 647.51 733.60 C 645.24 734.90 642.79 735.79 640.30 736.54 C 638.64 745.25 638.01 754.14 637.88 763.00 C 638.01 772.63 638.76 782.52 642.50 791.51 C 648.15 803.38 648.26 816.92 647.61 829.79 C 647.21 836.36 646.46 842.91 645.33 849.40 C 643.73 854.18 648.41 859.21 644.73 863.61 C 641.64 861.03 640.51 856.84 640.17 852.99 C 639.69 844.41 642.99 836.26 643.88 827.82 C 645.17 818.50 643.69 808.84 639.64 800.35 C 632.48 786.06 633.35 769.50 634.83 754.04 C 635.33 749.20 635.97 744.35 635.85 739.48 C 633.10 739.34 630.92 737.81 628.97 736.02 C 627.88 734.64 626.30 735.69 624.97 735.95 C 626.41 740.04 629.33 743.61 629.70 748.06 C 630.57 755.57 626.61 762.43 625.50 769.70 C 623.51 780.07 625.82 790.73 629.51 800.46 C 631.11 804.45 633.12 808.58 632.35 813.02 C 630.85 823.37 624.52 832.43 623.78 842.97 C 623.00 849.37 625.17 855.58 628.08 861.17 C 628.03 863.58 629.95 869.12 626.24 868.98 C 624.12 867.01 622.21 864.67 621.38 861.86 C 618.48 853.66 616.32 844.61 618.85 836.02 C 620.18 831.00 623.42 826.77 624.91 821.83 C 626.28 817.20 623.63 812.82 622.48 808.47 C 617.45 792.43 616.44 774.88 621.61 758.74 C 622.67 754.05 625.63 748.67 622.89 744.07 C 619.32 740.70 615.17 737.83 610.75 735.68 C 613.55 754.02 602.90 770.87 602.86 789.03 C 602.68 797.50 607.78 804.86 608.40 813.23 C 609.93 822.42 606.82 831.36 603.94 839.94 C 601.60 846.89 602.42 854.64 605.90 861.06 C 607.66 863.88 607.97 867.32 607.48 870.57 C 606.38 872.93 603.21 872.55 601.07 873.07 C 599.26 866.62 594.71 860.96 594.92 854.03 C 594.93 843.19 600.77 833.67 603.62 823.49 C 604.78 819.33 605.28 814.68 603.35 810.67 C 599.25 801.79 597.25 791.83 598.48 782.07 C 599.26 773.90 602.43 766.17 603.26 758.02 C 604.14 750.32 599.70 742.34 592.85 738.86 C 593.70 743.62 596.33 748.03 596.01 753.01 C 596.00 763.04 587.61 770.37 586.16 780.06 C 584.32 790.96 588.97 801.58 594.09 810.93 C 596.22 814.59 598.66 818.57 597.94 823.02 C 597.03 828.56 593.11 832.91 591.05 838.02 C 587.37 845.98 587.54 855.13 589.61 863.51 C 591.23 870.88 590.18 879.88 584.03 884.96 C 580.37 886.97 575.93 885.64 572.00 885.28 C 554.55 882.23 537.59 876.89 520.83 871.25 C 513.61 868.51 505.97 866.46 499.45 862.22 C 500.80 852.06 503.53 842.15 506.26 832.29 C 509.17 822.57 511.94 812.60 517.47 804.01 C 517.47 790.69 517.64 777.35 517.39 764.04 C 515.65 761.76 514.41 759.24 513.53 756.54 C 508.24 750.43 499.77 748.73 492.09 747.99 C 483.73 747.06 475.06 747.80 466.98 745.12 C 462.09 743.63 458.34 739.01 458.28 733.84 C 458.18 724.54 458.30 715.24 458.25 705.95 C 458.38 704.14 456.67 703.04 455.84 701.66 C 455.19 699.83 455.84 697.75 455.00 695.97 C 452.66 691.17 446.75 689.06 445.13 683.82 C 444.28 681.19 446.77 678.37 445.12 675.98 C 441.67 670.15 443.83 663.17 443.59 656.81 C 442.51 655.75 441.19 654.89 440.44 653.55 C 440.12 650.42 440.53 647.25 440.03 644.13 C 434.67 643.59 429.29 644.07 423.92 643.81 C 420.09 643.71 417.15 640.40 416.43 636.82 C 415.14 630.93 415.74 624.61 418.21 619.10 C 423.60 606.06 428.06 592.52 435.37 580.38 C 437.55 574.86 443.09 569.60 440.73 563.23 C 439.45 558.30 434.59 553.68 437.26 548.37 C 443.37 535.48 445.67 521.21 446.26 507.06 C 446.23 504.64 450.33 503.73 449.10 501.09 C 447.49 497.14 445.57 493.33 443.79 489.46 C 442.48 484.45 443.70 479.23 443.51 474.13 C 443.28 472.32 445.05 471.34 446.05 470.13 C 444.80 465.83 443.53 461.48 443.28 456.99 C 443.53 453.12 440.02 450.76 438.28 447.71 C 436.66 445.50 436.97 442.66 436.94 440.09 C 432.63 437.11 427.43 434.52 425.34 429.40 C 424.41 427.32 421.71 426.86 420.68 424.86 C 420.34 423.43 421.33 422.16 422.02 421.02 C 431.38 408.18 443.48 397.67 456.01 388.03 C 462.00 383.35 468.21 378.94 473.89 373.87 C 475.95 371.88 478.30 369.78 478.96 366.87 C 478.66 362.02 475.59 357.95 472.80 354.20 C 464.05 343.31 453.21 334.37 442.61 325.37 C 436.68 320.26 430.30 315.61 425.10 309.73 C 428.69 304.22 435.00 301.49 440.70 298.72 C 458.61 290.85 477.81 286.40 497.01 282.96 M 520.75 288.29 C 521.79 292.71 524.26 296.58 526.56 300.43 C 531.71 308.93 537.27 317.18 542.24 325.79 C 545.30 331.13 548.41 336.59 549.52 342.73 C 552.38 344.06 555.89 343.23 558.93 342.75 C 553.08 324.00 546.77 305.36 540.04 286.90 C 533.61 287.40 527.17 287.74 520.75 288.29 M 587.58 288.18 C 588.61 294.74 591.12 300.95 592.76 307.37 C 595.88 318.21 597.85 329.32 599.86 340.40 C 600.67 340.38 602.31 340.34 603.13 340.31 C 605.25 335.83 604.75 330.75 604.69 325.94 C 604.02 313.23 601.82 300.67 599.58 288.17 C 595.58 288.10 591.57 288.09 587.58 288.18 M 637.17 295.01 C 637.06 312.10 636.31 329.18 635.28 346.24 C 637.21 346.23 639.15 346.26 641.09 346.27 C 647.26 330.61 648.47 313.55 649.93 296.93 C 645.60 296.99 641.00 297.50 637.17 295.01 M 462.81 303.29 C 462.73 303.70 462.57 304.53 462.49 304.94 C 480.58 318.26 495.08 335.64 510.33 351.98 C 513.40 349.38 517.08 347.71 520.64 345.90 C 507.77 330.36 497.44 312.93 485.79 296.50 C 478.04 298.40 470.24 300.33 462.81 303.29 M 694.05 314.89 C 689.08 320.78 685.03 327.36 680.87 333.83 C 676.03 341.64 671.09 349.41 666.99 357.64 C 668.29 358.71 669.55 359.82 670.79 360.97 C 680.95 346.82 691.14 332.69 701.05 318.36 C 698.42 317.87 696.04 316.66 694.05 314.89 M 724.33 354.33 C 713.85 359.72 703.42 365.36 693.92 372.38 C 695.07 373.50 696.22 374.65 697.35 375.82 C 707.21 370.09 717.27 364.69 727.38 359.40 C 731.43 357.22 736.02 355.71 739.09 352.09 C 740.39 351.14 740.14 349.50 740.14 348.11 C 734.50 349.09 729.44 351.89 724.33 354.33 M 536.01 357.98 C 500.77 367.69 469.05 387.67 442.51 412.50 C 439.93 415.08 436.56 417.36 435.51 421.03 C 434.91 423.99 437.95 425.59 440.08 426.83 C 452.83 433.61 465.33 440.84 477.70 448.29 C 512.50 469.36 546.43 491.86 579.58 515.44 C 593.02 525.31 606.97 534.69 619.08 546.21 C 615.09 552.54 616.89 560.32 617.91 567.23 C 618.61 569.94 618.41 573.27 620.82 575.17 C 625.31 579.32 628.90 584.54 634.18 587.80 C 640.32 590.90 646.47 594.35 653.40 595.34 C 667.18 597.78 683.01 594.41 692.39 583.41 C 699.01 575.52 700.92 564.92 701.41 554.93 C 700.98 550.43 698.64 546.44 696.31 542.68 C 694.40 539.67 692.92 536.23 689.97 534.06 C 682.98 528.48 673.99 525.69 665.13 525.28 C 652.52 528.14 640.82 537.42 637.16 550.12 C 636.42 559.37 638.97 569.52 646.06 575.94 C 651.83 581.23 660.79 583.54 668.07 580.09 C 675.82 576.65 678.36 564.75 672.20 558.80 C 670.38 556.28 667.10 555.91 664.64 554.33 C 662.45 552.64 660.20 550.79 659.34 548.06 C 662.13 545.28 664.32 541.77 667.75 539.73 C 669.93 538.30 672.28 539.82 674.29 540.79 C 679.78 543.56 685.02 547.54 687.74 553.20 C 690.96 559.77 690.05 567.67 687.20 574.20 C 682.77 582.50 674.35 588.66 665.00 590.03 C 658.10 591.02 650.98 589.99 644.49 587.54 C 633.78 581.72 625.89 570.35 625.38 558.03 C 625.11 552.14 626.22 545.80 630.20 541.24 C 643.90 525.31 658.10 509.81 673.03 495.03 C 683.48 484.48 694.60 474.62 704.93 463.95 C 710.72 457.88 716.17 450.68 717.01 442.06 C 718.10 431.30 715.12 420.72 712.78 410.32 C 711.89 405.58 709.37 401.36 706.29 397.72 C 700.01 390.24 692.19 384.23 684.03 378.95 C 640.59 351.52 585.37 344.08 536.01 357.98 M 713.87 393.08 C 712.49 398.71 717.83 401.99 721.18 405.43 C 732.94 403.72 745.02 405.63 756.02 409.98 C 770.20 415.41 782.25 425.01 792.99 435.54 C 794.30 433.18 795.14 430.08 793.25 427.77 C 789.81 423.76 787.67 418.83 784.14 414.89 C 772.79 401.30 755.34 394.25 738.09 392.22 C 730.05 391.41 721.73 390.91 713.87 393.08 M 729.13 431.10 C 729.28 435.23 731.80 438.76 733.90 442.16 C 741.62 453.44 750.14 464.22 756.81 476.20 C 768.41 496.33 775.27 519.61 773.84 542.98 C 772.70 559.76 769.27 576.26 767.32 592.95 C 761.76 635.92 763.25 679.50 768.31 722.44 C 769.65 732.96 770.33 743.59 772.37 754.01 C 772.00 747.00 771.44 740.00 770.88 733.01 C 767.35 695.92 768.08 658.50 771.79 621.45 C 773.73 604.31 775.86 587.09 780.52 570.44 C 785.76 555.55 788.02 539.73 788.37 523.99 C 788.65 502.79 784.42 481.02 773.18 462.80 C 763.90 447.56 749.79 435.57 733.78 427.87 C 731.55 426.49 729.01 428.75 729.13 431.10 M 444.62 445.00 C 448.12 450.82 452.27 456.23 456.36 461.65 C 465.41 473.28 476.14 484.44 490.10 489.97 C 500.61 494.26 512.50 494.07 523.25 490.71 C 504.16 478.30 484.78 466.30 465.06 454.92 C 458.41 451.31 451.92 447.18 444.62 445.00 M 718.12 462.90 C 716.17 465.07 714.73 467.96 715.78 470.92 C 718.18 478.75 724.76 484.16 729.24 490.75 C 737.24 502.82 743.89 515.86 748.20 529.71 C 752.95 545.25 754.98 562.07 751.14 578.04 C 748.62 589.71 746.37 601.47 745.23 613.38 C 741.83 647.27 745.47 681.50 752.39 714.73 C 752.50 716.11 753.23 717.03 754.59 717.50 C 753.19 699.30 751.18 681.14 750.08 662.92 C 749.02 645.47 748.01 627.91 749.81 610.48 C 751.14 597.91 754.81 585.77 757.17 573.39 C 760.66 557.26 758.41 540.50 754.26 524.73 C 749.82 508.57 743.34 492.86 734.13 478.83 C 729.86 472.62 725.08 466.25 718.12 462.90 M 451.25 474.78 C 449.98 479.56 450.85 484.61 452.97 489.01 C 457.53 498.51 465.36 506.25 474.33 511.64 C 479.99 514.82 486.92 517.59 493.36 515.11 C 508.13 509.81 524.60 506.41 540.00 511.07 C 548.19 513.38 554.49 519.48 562.12 522.93 C 564.25 522.55 566.24 521.62 568.30 520.95 C 567.94 519.94 567.32 519.16 566.44 518.60 C 556.03 511.39 545.86 503.39 533.99 498.73 C 520.85 500.87 507.36 503.14 494.10 500.64 C 482.55 498.53 472.72 491.47 464.06 483.90 C 460.02 480.57 456.33 476.50 451.25 474.78 M 690.03 492.91 C 689.53 496.61 692.92 498.55 695.14 500.85 C 707.85 513.36 718.86 528.03 725.04 544.89 C 730.31 558.99 731.32 574.55 728.41 589.27 C 725.33 600.07 722.77 611.06 721.68 622.26 C 718.21 655.72 725.63 689.51 738.83 720.18 C 739.17 720.97 739.70 721.61 740.44 722.10 C 741.13 717.36 737.60 713.62 736.65 709.20 C 728.09 678.40 722.00 645.66 728.74 613.88 C 731.39 599.91 737.69 586.45 736.88 571.98 C 736.55 559.88 734.82 547.58 729.51 536.59 C 722.02 520.96 710.51 507.78 699.26 494.78 C 697.26 491.60 693.13 492.61 690.03 492.91 M 445.10 543.00 C 443.02 548.66 439.94 555.42 443.84 561.03 C 447.08 565.63 444.82 571.37 443.23 576.16 C 436.97 592.66 428.25 608.08 420.81 624.04 C 420.70 627.47 420.03 631.20 421.53 634.43 C 423.34 638.02 427.87 636.69 431.09 637.16 C 434.17 637.84 435.95 635.05 437.97 633.32 C 441.36 634.78 442.76 639.19 446.67 639.56 C 451.55 640.53 456.60 640.17 461.43 639.05 C 461.84 635.12 460.69 630.58 456.85 628.73 C 453.89 628.01 452.27 631.48 449.97 632.74 C 447.73 631.70 446.43 629.59 445.85 627.27 C 449.63 625.18 454.27 625.33 457.78 622.62 C 460.19 626.05 465.55 628.14 465.13 632.93 C 465.64 637.40 464.39 642.01 461.46 645.45 C 457.82 648.05 453.11 646.27 449.00 646.68 C 446.64 648.24 443.89 650.17 443.83 653.31 C 447.16 653.68 449.64 655.86 451.77 658.27 C 453.49 660.49 456.66 660.47 458.50 662.51 C 461.71 666.14 466.83 666.51 471.02 668.45 C 469.32 675.42 464.97 681.18 460.54 686.63 C 458.08 689.73 461.16 693.00 462.04 696.04 C 462.31 707.68 461.94 719.34 462.20 730.98 C 462.50 735.74 466.98 738.78 471.26 739.76 C 483.34 742.79 496.47 740.71 508.04 745.94 C 514.05 748.64 518.32 754.16 520.42 760.28 C 521.22 774.50 521.79 788.74 522.39 802.97 C 538.36 809.63 554.60 815.77 571.22 820.61 C 576.99 822.01 582.99 824.15 588.97 822.72 C 589.28 819.21 586.99 816.31 585.89 813.15 C 581.00 801.13 577.72 787.50 581.70 774.75 C 583.45 768.34 587.46 762.89 589.48 756.60 C 591.13 751.57 589.00 746.16 585.51 742.47 C 581.38 742.17 578.92 738.91 576.55 735.93 C 577.34 733.64 579.20 731.62 578.89 729.06 C 578.87 715.59 578.86 702.12 578.89 688.66 C 572.43 687.95 567.54 683.21 562.97 679.03 C 557.99 673.96 553.10 668.51 550.10 662.01 C 547.30 651.99 547.59 641.02 551.31 631.27 C 554.17 622.83 563.52 619.22 567.52 611.49 C 569.54 607.89 569.25 603.32 567.30 599.76 C 564.36 598.88 561.14 599.57 558.10 599.36 C 552.83 594.33 547.38 588.97 545.01 581.90 C 544.29 579.59 542.70 577.67 540.86 576.17 C 539.15 575.13 536.87 575.13 535.58 573.46 C 532.00 569.70 527.49 566.85 524.46 562.58 C 522.67 560.21 522.53 557.17 522.16 554.35 C 517.44 555.16 514.11 558.84 510.04 561.03 C 505.77 563.35 501.20 565.96 496.16 565.59 C 490.77 565.10 485.84 562.64 480.58 561.53 C 475.02 560.14 469.25 560.22 463.58 560.62 C 462.59 561.72 461.79 562.99 460.70 564.00 C 458.81 564.44 458.60 562.41 457.99 561.18 C 464.95 555.58 474.72 555.21 482.85 558.26 C 489.34 560.15 496.08 564.91 502.97 561.87 C 507.62 560.04 508.53 554.66 508.93 550.28 C 506.42 550.01 503.73 549.99 501.58 548.49 C 497.01 545.42 494.21 540.47 490.05 536.93 C 486.23 534.04 489.45 528.19 486.27 524.90 C 484.23 523.45 481.55 524.52 479.30 523.81 C 470.53 519.86 463.98 511.97 454.73 508.99 C 452.12 520.49 449.43 532.01 445.10 543.00 M 509.62 519.24 C 509.95 524.18 514.60 527.48 518.83 529.20 C 528.15 532.50 538.40 530.28 547.44 527.07 C 547.05 524.10 544.57 522.28 542.27 520.75 C 532.82 514.39 519.26 511.92 509.62 519.24 M 495.82 524.80 C 498.22 530.23 501.18 535.47 504.94 540.08 C 507.66 543.42 511.48 546.35 515.98 546.38 C 521.50 546.19 526.49 543.53 531.66 541.89 C 536.65 540.12 541.89 539.25 547.16 538.92 C 547.09 537.22 547.03 535.53 546.99 533.85 C 535.26 537.41 522.11 537.74 510.99 532.02 C 505.80 529.89 501.61 525.30 495.82 524.80 M 578.68 528.65 C 572.52 533.47 564.46 530.41 557.40 531.26 C 557.24 531.62 556.92 532.35 556.76 532.71 C 561.17 532.59 564.63 535.76 568.94 536.10 C 574.64 536.67 580.38 535.87 585.99 534.86 C 585.88 533.32 585.44 531.82 584.25 530.77 C 582.93 529.23 580.74 526.75 578.68 528.65 M 589.50 541.55 C 582.29 548.50 571.47 544.60 562.72 547.11 C 562.95 550.65 566.19 552.18 569.28 552.69 C 572.97 553.05 575.14 556.90 578.92 556.93 C 582.74 557.05 586.58 556.75 590.40 556.48 C 594.21 552.23 599.95 554.20 604.89 553.96 C 606.90 552.35 610.28 550.52 609.65 547.48 C 606.51 544.77 603.07 542.28 599.26 540.61 C 596.16 539.47 591.91 538.72 589.50 541.55 M 541.47 545.54 C 536.41 546.87 533.29 551.52 530.65 555.68 C 533.50 560.50 535.90 566.20 541.26 568.76 C 548.49 572.12 557.24 570.71 564.06 566.98 C 566.38 566.11 568.89 566.00 571.30 565.51 C 570.82 564.44 570.17 563.42 569.07 562.94 C 563.43 559.78 558.93 555.09 554.09 550.89 C 550.58 547.97 546.35 544.53 541.47 545.54 M 601.74 563.53 C 598.20 564.04 594.56 562.79 591.08 563.83 C 588.31 564.56 586.19 566.57 584.00 568.27 C 586.37 570.09 588.34 572.35 590.57 574.32 C 597.74 575.19 604.94 579.43 612.20 576.78 C 613.52 573.91 609.53 572.49 609.51 569.78 C 609.00 567.10 610.38 563.73 608.49 561.54 C 606.04 559.43 604.08 563.09 601.74 563.53 M 554.03 580.24 C 554.27 585.20 557.68 589.94 562.44 591.50 C 568.35 593.44 574.73 591.62 580.69 593.30 C 583.85 594.23 586.25 596.82 589.50 597.54 C 595.42 598.97 601.65 598.18 607.44 596.55 C 611.79 595.16 616.76 593.44 618.77 588.94 C 615.30 585.12 609.98 584.11 605.04 584.26 C 599.74 584.05 593.84 585.72 588.99 582.96 C 585.56 579.10 582.21 574.50 576.80 573.42 C 568.51 571.53 561.08 576.72 554.03 580.24 M 701.07 582.96 C 699.00 588.66 694.99 593.58 689.98 596.97 C 680.93 603.02 669.67 604.45 659.01 604.26 C 647.88 604.26 637.04 601.59 626.32 598.93 C 625.47 601.97 624.71 605.05 622.59 607.49 C 620.94 612.05 616.76 614.70 613.53 618.04 C 619.90 627.13 625.16 637.64 625.15 648.99 C 625.51 662.22 618.72 674.50 609.98 683.98 C 608.27 686.00 605.99 687.57 604.67 689.89 C 605.24 696.01 605.90 702.26 608.27 708.00 C 636.45 705.29 664.52 701.32 692.75 698.99 C 686.77 683.48 682.16 667.47 678.56 651.26 C 676.99 643.60 675.42 635.83 675.62 627.98 C 675.75 625.50 675.92 622.68 677.86 620.88 C 683.77 615.11 689.69 609.30 694.74 602.75 C 700.18 595.78 704.86 587.45 704.33 578.31 C 702.02 578.75 701.83 581.16 701.07 582.96 M 575.98 602.61 C 576.02 604.06 576.01 605.52 575.98 606.98 C 579.62 606.69 583.33 606.44 586.94 607.23 C 593.45 608.38 599.32 611.75 605.81 612.90 C 608.79 611.65 612.19 611.38 614.95 609.68 C 615.17 608.93 615.62 607.41 615.84 606.65 C 607.84 604.26 599.38 606.01 591.21 605.22 C 589.46 604.18 588.00 602.38 585.83 602.31 C 582.54 602.13 579.27 602.66 575.98 602.61 M 581.61 641.60 C 579.04 644.16 572.79 645.04 574.65 649.87 C 577.70 655.56 584.97 659.75 591.37 657.31 C 595.45 655.14 594.61 649.88 594.52 646.05 C 594.74 642.70 591.03 640.81 588.10 641.00 C 585.97 641.14 583.50 640.44 581.61 641.60 M 450.06 679.24 C 452.07 681.66 454.26 685.31 457.99 683.80 C 458.36 681.13 458.51 678.42 458.25 675.74 C 454.97 675.11 452.28 677.11 450.06 679.24 M 587.83 691.50 C 587.65 704.91 587.78 718.32 587.77 731.74 C 617.11 729.45 646.47 726.88 675.57 722.34 C 682.11 721.19 688.72 720.14 695.00 717.91 C 696.62 717.24 699.11 716.36 698.74 714.15 C 697.96 712.07 695.89 710.88 694.47 709.29 C 664.68 712.82 634.78 715.32 604.97 718.55 C 602.16 718.54 600.14 716.16 599.35 713.68 C 597.45 707.95 598.40 701.83 598.60 695.93 C 598.61 694.48 598.78 692.70 597.22 691.98 C 594.24 690.80 590.93 691.63 587.83 691.50 M 516.66 830.84 C 516.63 833.21 516.50 835.59 516.69 837.97 C 517.13 839.35 518.89 839.40 519.99 840.07 C 535.58 846.09 552.23 848.93 567.68 855.35 C 570.88 856.38 573.06 860.39 576.78 859.09 C 577.04 856.83 577.31 854.21 575.47 852.50 C 571.27 848.38 565.31 846.99 559.92 845.13 C 545.37 840.77 530.76 836.53 516.66 830.84 Z" />
<path fill="#000000" opacity="1.00" d=" M 147.60 371.06 C 169.00 350.55 190.76 330.41 213.03 310.84 C 216.29 324.94 216.65 339.61 215.23 353.98 C 213.84 366.61 210.19 379.76 201.14 389.13 C 189.35 401.72 166.51 400.65 155.80 387.19 C 151.88 382.52 149.52 376.80 147.60 371.06 Z" />
<path fill="#000000" opacity="1.00" d=" M 447.25 577.53 C 452.43 576.47 454.47 570.84 459.14 569.11 C 463.68 569.57 468.34 569.06 472.77 570.37 C 479.80 572.24 486.80 576.06 490.65 582.45 C 491.18 587.52 488.54 592.52 484.81 595.82 C 479.13 600.70 471.36 602.85 463.95 602.28 C 459.91 601.87 455.42 600.54 453.09 596.94 C 451.58 594.83 451.33 591.90 452.73 589.67 C 455.34 585.27 459.86 582.55 463.24 578.81 C 465.54 579.03 469.88 578.65 467.84 575.32 C 464.36 574.08 460.61 574.75 457.01 574.64 C 454.36 577.16 452.03 581.84 447.64 580.47 C 447.51 579.49 447.38 578.51 447.25 577.53 M 474.18 588.66 C 475.89 590.90 477.88 592.95 478.93 595.63 C 480.86 593.66 481.35 590.91 482.42 588.48 C 483.50 587.23 484.75 586.13 485.53 584.66 C 482.03 584.46 478.51 584.35 475.01 584.60 C 473.78 585.47 473.19 587.37 474.18 588.66 M 460.22 587.26 C 460.11 589.99 460.11 592.72 460.12 595.47 C 463.46 595.57 466.82 595.69 470.11 594.97 C 469.93 593.26 470.65 591.12 469.02 589.94 C 466.81 587.44 463.32 587.24 460.22 587.26 Z" />
<path fill="#000000" opacity="1.00" d=" M 229.33 751.01 C 232.68 750.99 236.02 750.99 239.37 751.02 C 239.38 774.01 239.39 797.00 239.36 819.99 C 235.20 820.00 231.05 820.00 226.89 819.99 C 226.86 803.55 226.87 787.11 226.88 770.68 C 222.14 774.81 216.81 778.35 210.80 780.34 C 210.95 776.36 210.23 772.23 211.13 768.36 C 218.82 764.74 226.32 759.29 229.33 751.01 Z" />
<path fill="#000000" opacity="1.00" d=" M 272.39 751.72 C 278.75 750.36 285.98 750.66 291.46 754.50 C 298.46 759.42 300.49 769.89 296.17 777.19 C 294.73 779.69 292.31 781.37 289.98 782.97 C 293.96 785.14 297.70 788.24 299.25 792.65 C 301.58 799.22 300.73 807.01 296.80 812.80 C 288.63 824.83 267.83 823.82 260.49 811.40 C 254.96 801.96 257.66 787.82 268.08 782.97 C 261.23 779.85 258.00 771.81 259.74 764.66 C 260.91 758.33 266.10 753.07 272.39 751.72 M 275.39 762.31 C 268.54 765.68 270.67 778.71 279.00 778.08 C 285.41 778.42 288.28 770.45 285.61 765.44 C 283.91 761.70 278.91 760.52 275.39 762.31 M 275.36 789.31 C 269.38 792.61 268.72 801.47 272.14 806.86 C 274.81 811.27 281.73 812.08 285.17 808.15 C 288.46 804.33 288.73 798.51 287.00 793.94 C 285.26 789.48 279.70 787.27 275.36 789.31 Z" />
<path fill="#000000" opacity="1.00" d=" M 316.00 755.03 C 319.89 751.83 325.12 750.89 330.03 751.00 C 334.79 751.09 339.77 752.34 343.34 755.65 C 348.93 760.63 350.43 769.43 347.21 776.11 C 345.81 779.09 343.13 781.13 340.52 782.99 C 343.90 784.97 347.29 787.36 348.97 791.04 C 353.66 800.74 350.07 814.25 340.04 819.05 C 331.62 822.85 320.59 821.79 313.86 815.14 C 304.87 806.30 306.58 788.60 318.42 783.00 C 316.00 781.33 313.38 779.68 311.92 777.03 C 307.96 769.98 309.58 760.10 316.00 755.03 M 326.30 762.10 C 319.52 764.85 320.46 777.14 328.08 777.99 C 333.29 779.15 337.79 774.07 336.99 769.03 C 337.18 763.64 331.13 759.82 326.30 762.10 M 325.46 789.48 C 319.73 793.10 319.16 801.90 322.83 807.19 C 325.56 811.22 331.98 811.98 335.36 808.36 C 339.02 804.56 339.25 798.33 337.33 793.65 C 335.44 789.20 329.71 787.26 325.46 789.48 Z" />
<path fill="#000000" opacity="1.00" d=" M 364.58 756.59 C 370.36 751.13 379.06 750.06 386.58 751.68 C 393.11 753.05 398.65 758.25 400.36 764.71 C 402.09 771.49 400.42 778.82 396.61 784.61 C 391.21 793.50 381.92 799.03 376.09 807.58 C 384.39 807.69 392.69 807.58 400.99 807.64 C 401.00 811.75 401.00 815.87 401.00 820.00 C 386.35 819.96 371.70 820.08 357.05 819.94 C 357.79 814.78 359.39 809.70 362.29 805.33 C 368.33 796.19 377.11 789.42 384.22 781.20 C 388.04 776.99 390.07 770.21 386.80 765.13 C 384.12 761.41 378.24 761.04 374.69 763.68 C 371.91 765.79 371.57 769.51 371.01 772.69 C 366.81 772.36 362.62 771.92 358.45 771.39 C 359.17 766.07 360.53 760.41 364.58 756.59 Z" />
</g>
</svg>
