<?xml version="1.0" encoding="UTF-8" ?>
<!DOCTYPE svg PUBLIC "-//W3C//DTD SVG 1.1//EN" "http://www.w3.org/Graphics/SVG/1.1/DTD/svg11.dtd">
<svg width="200pt" height="200pt" viewBox="0 0 200 200" version="1.1" xmlns="http://www.w3.org/2000/svg">
<g id="#ed1c24ff">
<path fill="#ed1c24" opacity="1.00" d=" M 23.62 54.59 C 35.82 49.42 48.79 46.14 61.93 44.55 C 66.96 43.82 72.40 45.59 76.04 49.09 C 77.24 50.22 75.70 51.50 75.22 52.57 C 77.90 53.56 80.23 55.97 79.86 59.02 C 79.21 65.14 73.91 69.33 69.13 72.49 L 68.70 73.19 C 68.62 73.30 68.46 73.51 68.38 73.62 C 68.46 73.51 68.62 73.30 68.70 73.19 C 75.34 71.06 81.51 67.59 88.04 65.07 C 90.86 64.25 91.99 60.86 94.99 60.40 C 97.67 59.78 101.20 59.30 103.37 61.33 C 104.65 64.39 106.80 67.49 106.35 70.96 C 105.49 74.20 102.25 75.73 99.93 77.80 C 104.85 76.26 109.69 74.47 114.51 72.65 C 117.17 66.31 122.77 61.84 128.63 58.59 C 135.53 54.78 142.47 50.86 150.06 48.60 C 152.36 47.79 155.98 47.95 156.43 50.98 C 156.40 54.71 154.13 57.99 151.39 60.32 C 144.03 66.60 134.90 70.14 126.51 74.73 C 125.72 76.70 128.34 77.67 129.86 77.82 C 135.33 78.17 140.59 76.23 145.68 74.50 C 148.87 73.71 149.73 69.92 152.63 68.59 C 160.33 64.20 169.21 62.38 177.95 61.53 C 181.30 61.28 184.98 61.00 187.99 62.81 C 189.11 64.27 189.29 66.26 190.16 67.88 C 191.46 70.31 189.39 72.69 188.23 74.68 C 191.30 73.65 194.33 72.50 197.32 71.27 C 198.04 72.84 198.71 74.44 199.26 76.09 C 195.78 78.06 192.11 79.81 188.13 80.45 C 184.36 81.22 180.33 80.54 176.77 82.26 C 176.45 82.35 175.80 82.55 175.47 82.64 C 174.81 83.01 173.47 83.75 172.80 84.12 C 169.51 84.45 166.26 85.03 162.96 85.23 C 159.59 85.46 156.31 84.42 152.96 84.28 C 145.90 84.06 138.82 84.56 131.77 84.03 C 131.92 83.91 132.22 83.66 132.38 83.54 C 138.05 81.81 143.70 79.96 148.98 77.22 C 151.80 83.23 158.98 84.54 164.97 83.74 C 171.27 83.69 176.70 79.72 182.97 79.64 C 188.35 79.50 193.61 77.92 198.18 75.09 C 197.69 74.64 196.72 73.74 196.23 73.29 C 192.53 74.56 188.85 76.05 184.87 76.13 C 186.63 73.74 189.88 71.51 189.09 68.15 C 188.17 67.45 187.24 66.81 186.27 66.20 C 186.84 65.47 187.41 64.74 187.98 64.01 C 185.41 63.18 182.74 62.53 180.03 62.78 C 171.17 63.31 162.20 65.07 154.27 69.18 C 150.87 70.69 149.64 74.99 145.87 75.88 C 140.76 77.58 135.49 79.49 130.02 79.25 C 127.27 79.27 123.61 76.65 125.65 73.69 C 134.50 68.64 144.59 65.22 151.96 57.90 C 154.22 55.80 154.94 52.76 155.11 49.80 C 152.91 49.64 150.64 49.59 148.56 50.44 C 141.49 53.00 134.84 56.61 128.32 60.32 C 122.87 63.44 117.92 67.81 115.47 73.71 C 107.47 76.52 99.42 80.67 90.69 79.67 C 95.56 77.63 101.56 76.44 104.61 71.70 C 105.72 68.22 103.55 64.71 101.92 61.75 C 99.05 60.99 95.43 60.82 93.14 63.03 C 91.85 64.13 90.66 65.39 89.08 66.08 C 80.57 69.84 71.92 73.34 63.52 77.36 C 64.64 79.07 66.69 78.58 68.41 78.57 C 73.08 83.03 79.81 84.00 86.00 84.36 C 96.11 84.53 105.65 80.54 114.83 76.75 C 115.49 78.71 115.78 81.10 117.72 82.27 C 121.70 84.86 126.70 83.88 131.17 84.28 C 127.07 86.49 122.14 85.25 117.86 84.24 C 117.42 83.91 116.53 83.26 116.09 82.93 C 115.21 81.55 114.41 80.13 113.59 78.72 C 110.20 80.22 106.69 81.42 103.22 82.71 C 102.07 83.15 100.94 83.63 99.83 84.15 C 95.54 84.53 91.35 85.79 87.02 85.69 C 82.68 85.76 78.47 84.58 74.18 84.18 C 73.61 83.83 72.47 83.12 71.90 82.76 C 70.58 81.92 69.28 81.06 67.96 80.24 C 66.14 80.08 64.35 79.74 62.61 79.21 C 62.64 78.45 62.72 76.93 62.76 76.18 C 57.26 79.16 51.29 81.10 45.27 82.73 C 43.58 83.16 41.90 83.66 40.20 84.12 C 32.40 84.84 24.54 85.84 16.72 84.58 C 14.99 83.92 13.21 83.39 11.45 82.83 C 7.40 81.11 3.64 77.65 3.16 73.07 C 2.60 69.60 4.80 66.52 7.21 64.29 C 11.94 59.95 17.79 57.11 23.62 54.59 M 28.20 54.20 C 20.88 57.08 13.41 60.26 7.63 65.74 C 5.17 68.03 3.41 71.66 4.99 74.96 C 7.19 80.56 13.59 82.60 19.03 83.44 C 30.80 84.73 42.73 82.58 53.82 78.66 C 61.93 75.56 70.19 71.67 75.90 64.91 C 78.04 62.28 80.02 57.81 76.98 55.09 C 73.57 52.50 69.02 53.25 65.03 53.28 C 68.41 52.36 71.88 51.78 75.27 50.91 C 73.45 47.28 68.76 46.24 65.04 45.85 C 52.42 46.53 40.02 49.81 28.20 54.20 M 138.88 83.43 C 143.35 83.48 147.82 83.33 152.30 83.47 C 150.99 82.04 149.69 80.61 148.49 79.10 C 145.25 80.46 141.92 81.63 138.88 83.43 Z" />
<path fill="#ed1c24" opacity="1.00" d=" M 40.13 61.19 C 47.08 58.30 54.50 56.46 62.02 55.93 C 64.21 55.81 67.06 55.77 68.31 57.98 C 68.47 59.91 66.98 61.44 65.80 62.78 C 61.46 67.02 55.98 69.85 50.58 72.51 C 41.71 76.87 31.94 79.57 22.04 79.83 C 19.34 80.13 15.16 78.44 16.28 75.04 C 18.22 69.69 23.86 67.18 28.40 64.41 C 28.98 64.98 29.56 65.54 30.13 66.11 C 33.76 65.09 36.65 62.55 40.13 61.19 M 33.39 66.36 C 31.69 67.63 29.68 67.16 27.93 66.31 C 24.05 68.45 19.78 70.78 17.72 74.90 C 16.61 77.06 19.14 78.60 21.07 78.38 C 33.71 78.52 45.95 74.01 56.76 67.74 C 60.75 65.20 65.59 62.70 67.17 57.92 C 63.88 56.95 60.43 57.31 57.10 57.81 C 48.76 59.13 40.52 61.74 33.39 66.36 Z" />
<path fill="#ed1c24" opacity="1.00" d=" M 128.92 68.01 C 133.28 62.51 139.39 58.19 146.08 56.02 C 141.67 61.56 135.18 64.96 128.92 68.01 Z" />
<path fill="#ed1c24" opacity="1.00" d=" M 76.71 74.58 C 81.84 72.47 86.83 70.04 91.96 67.91 C 92.43 70.09 94.34 72.61 92.58 74.65 C 90.47 77.05 87.08 77.57 84.16 78.42 C 81.94 76.62 78.92 76.34 76.71 74.58 M 80.10 74.75 C 81.70 75.46 83.21 76.44 84.92 76.86 C 87.64 76.25 90.38 75.25 92.25 73.09 C 91.86 71.98 91.47 70.88 91.09 69.78 C 87.40 71.37 83.68 72.91 80.10 74.75 Z" />
<path fill="#ed1c24" opacity="1.00" d=" M 160.17 74.17 C 164.58 71.24 169.94 70.20 175.01 68.99 C 172.54 71.30 168.55 74.31 171.34 77.97 C 167.40 79.48 162.93 80.72 158.80 79.29 C 156.21 78.06 158.71 75.23 160.17 74.17 M 158.74 78.06 C 162.29 78.84 165.93 78.47 169.35 77.31 C 168.44 75.23 169.37 73.22 170.35 71.38 C 166.23 72.97 160.88 73.61 158.74 78.06 Z" />
<path fill="#ed1c24" opacity="1.00" d=" M 6.94 91.76 C 7.85 91.69 9.68 91.53 10.59 91.45 C 11.00 94.67 10.88 97.91 10.79 101.14 C 10.54 101.03 10.04 100.80 9.79 100.68 C 8.69 97.76 7.98 94.71 6.94 91.76 Z" />
<path fill="#ed1c24" opacity="1.00" d=" M 11.74 91.67 C 14.92 91.63 18.11 91.63 21.30 91.67 C 21.33 94.80 21.31 97.94 21.25 101.07 C 18.09 101.10 14.93 101.10 11.76 101.09 C 11.72 97.95 11.71 94.81 11.74 91.67 Z" />
<path fill="#ed1c24" opacity="1.00" d=" M 22.72 101.20 C 21.58 98.24 22.44 94.79 22.32 91.65 C 23.27 94.74 24.13 97.87 24.94 101.00 C 24.38 101.05 23.28 101.15 22.72 101.20 Z" />
<path fill="#ed1c24" opacity="1.00" d=" M 33.83 91.53 C 36.53 91.56 39.23 91.67 41.92 91.83 C 41.82 94.87 41.80 97.92 41.82 100.96 C 38.76 101.09 35.69 101.15 32.62 101.11 C 32.60 98.66 32.22 96.14 32.99 93.76 C 33.20 93.20 33.62 92.09 33.83 91.53 Z" />
<path fill="#ed1c24" opacity="1.00" d=" M 42.77 91.66 C 44.85 91.65 46.93 91.65 49.00 91.64 C 47.95 94.87 46.91 98.10 45.97 101.36 C 45.18 101.30 43.61 101.20 42.82 101.14 C 42.75 97.98 42.73 94.82 42.77 91.66 Z" />
<path fill="#ed1c24" opacity="1.00" d=" M 78.41 98.36 C 80.03 98.37 81.65 98.38 83.28 98.39 C 83.26 99.09 83.22 100.49 83.20 101.19 C 81.57 101.13 79.94 101.09 78.31 101.02 C 78.33 100.36 78.38 99.03 78.41 98.36 Z" />
<path fill="#ed1c24" opacity="1.00" d=" M 102.94 100.88 C 102.62 99.85 102.86 98.93 103.66 98.13 C 104.74 99.57 104.50 100.49 102.94 100.88 Z" />
<path fill="#ed1c24" opacity="1.00" d=" M 104.76 98.38 C 107.94 98.39 111.11 98.39 114.29 98.38 C 114.27 99.06 114.25 100.41 114.24 101.09 C 111.12 101.15 108.00 101.11 104.89 100.95 C 104.86 100.31 104.80 99.03 104.76 98.38 Z" />
<path fill="#ed1c24" opacity="1.00" d=" M 135.72 98.38 C 138.92 98.39 142.11 98.39 145.31 98.39 C 145.29 99.07 145.24 100.43 145.22 101.11 C 142.08 101.15 138.94 101.09 135.80 100.94 C 135.78 100.30 135.74 99.02 135.72 98.38 Z" />
<path fill="#ed1c24" opacity="1.00" d=" M 146.27 98.22 C 147.23 98.34 148.20 98.48 149.16 98.64 C 149.40 99.10 149.86 100.02 150.09 100.48 L 150.38 101.07 C 148.99 101.00 147.59 100.91 146.20 100.82 C 146.22 100.17 146.25 98.87 146.27 98.22 Z" />
<path fill="#ed1c24" opacity="1.00" d=" M 152.07 98.37 C 152.95 98.37 154.70 98.38 155.58 98.39 C 155.55 99.09 155.50 100.49 155.47 101.19 C 154.84 101.17 153.58 101.11 152.95 101.09 L 152.88 100.86 C 152.68 100.24 152.27 98.99 152.07 98.37 Z" />
<path fill="#ed1c24" opacity="1.00" d=" M 156.56 98.38 C 159.64 98.38 162.72 98.39 165.80 98.43 L 166.04 98.44 C 165.97 99.08 165.85 100.37 165.78 101.02 C 162.75 101.10 159.71 101.12 156.68 101.05 C 156.65 100.38 156.59 99.05 156.56 98.38 Z" />
<path fill="#ed1c24" opacity="1.00" d=" M 177.10 98.40 L 177.32 98.40 C 180.39 98.38 183.45 98.41 186.52 98.46 C 186.80 98.46 187.38 98.45 187.67 98.45 C 188.50 98.43 190.14 98.37 190.97 98.34 C 190.65 99.24 190.33 100.14 190.00 101.03 C 189.43 101.08 188.29 101.17 187.72 101.22 C 187.67 100.60 187.58 99.35 187.53 98.73 C 187.05 99.51 186.57 100.29 186.09 101.07 C 183.16 101.11 180.22 101.07 177.30 100.92 C 177.25 100.29 177.15 99.03 177.10 98.40 Z" />
<path fill="#ed1c24" opacity="1.00" d=" M 54.16 99.95 C 56.06 99.00 58.24 99.04 60.30 98.75 C 56.49 104.12 52.93 110.25 53.32 117.07 C 53.47 122.23 55.58 127.05 57.63 131.70 C 54.70 130.88 51.78 129.60 49.61 127.41 C 46.40 118.36 47.36 107.18 54.16 99.95 Z" />
<path fill="#ed1c24" opacity="1.00" d=" M 60.99 99.99 C 62.41 98.08 65.08 99.46 66.95 99.81 C 69.71 103.36 70.06 108.30 70.54 112.65 C 65.63 110.41 60.15 109.72 54.90 111.13 C 56.26 107.10 58.12 103.16 60.99 99.99 Z" />
<path fill="#ed1c24" opacity="1.00" d=" M 84.16 98.39 C 86.49 98.39 88.83 98.39 91.16 98.39 C 91.20 99.05 91.27 100.37 91.30 101.03 C 88.79 100.69 83.26 102.91 84.16 98.39 Z" />
<path fill="#ed1c24" opacity="1.00" d=" M 129.91 98.41 C 131.57 98.40 133.22 98.39 134.88 98.38 C 134.90 99.00 134.95 100.23 134.97 100.85 C 133.23 100.94 131.50 101.04 129.77 101.14 C 129.81 100.46 129.88 99.09 129.91 98.41 Z" />
<path fill="#ed1c24" opacity="1.00" d=" M 38.91 112.99 C 41.14 107.15 46.34 102.92 51.88 100.34 C 51.34 102.08 50.57 103.90 48.91 104.84 C 45.94 106.60 43.44 108.99 40.59 110.92 C 41.07 111.43 41.56 111.94 42.05 112.44 C 43.11 109.35 46.36 107.98 48.72 106.05 C 47.45 109.51 47.28 113.19 46.84 116.82 C 45.70 118.01 44.28 118.89 43.03 119.95 C 40.49 121.92 39.19 124.98 37.01 127.29 C 35.83 122.04 37.62 116.16 41.79 112.73 C 41.07 112.80 39.63 112.92 38.91 112.99 Z" />
<path fill="#ed1c24" opacity="1.00" d=" M 68.90 100.42 C 71.63 101.47 74.31 102.84 76.33 105.00 C 78.61 113.03 77.55 122.42 72.04 128.97 C 69.70 131.31 66.11 131.47 63.08 132.13 C 66.45 127.96 69.78 123.47 70.80 118.07 C 72.25 112.14 70.95 106.03 68.90 100.42 Z" />
<path fill="#ed1c24" opacity="1.00" d=" M 11.74 101.88 C 14.92 101.89 18.10 101.88 21.28 101.85 C 21.31 105.00 21.32 108.15 21.31 111.30 C 18.21 111.32 15.11 111.32 12.02 111.32 C 11.79 108.18 11.70 105.03 11.74 101.88 Z" />
<path fill="#ed1c24" opacity="1.00" d=" M 22.16 102.20 C 23.18 102.05 24.20 101.91 25.22 101.76 C 26.04 104.86 26.79 107.98 27.75 111.04 C 25.90 111.28 24.03 111.31 22.17 111.20 C 22.22 108.20 22.23 105.20 22.16 102.20 Z" />
<path fill="#ed1c24" opacity="1.00" d=" M 32.61 101.90 C 35.61 102.19 38.99 101.20 41.76 102.35 C 43.52 105.78 39.82 108.75 38.11 111.39 C 36.27 111.35 34.42 111.32 32.58 111.30 C 32.52 108.16 32.54 105.03 32.61 101.90 Z" />
<path fill="#ed1c24" opacity="1.00" d=" M 43.03 104.01 C 42.25 102.58 44.50 101.16 45.63 102.12 C 46.17 103.38 44.07 104.91 43.03 104.01 Z" />
<path fill="#ed1c24" opacity="1.00" d=" M 78.29 102.12 C 79.93 102.03 81.57 101.95 83.21 101.86 C 83.28 105.04 83.32 108.23 83.18 111.41 C 81.52 109.50 80.03 107.45 78.47 105.46 C 78.43 104.63 78.34 102.96 78.29 102.12 Z" />
<path fill="#ed1c24" opacity="1.00" d=" M 84.20 102.12 C 86.54 101.99 88.89 101.88 91.24 101.80 C 91.21 104.98 91.21 108.15 91.18 111.33 C 88.85 111.34 86.52 111.30 84.19 111.22 C 84.23 108.18 84.24 105.15 84.20 102.12 Z" />
<path fill="#ed1c24" opacity="1.00" d=" M 102.97 101.65 C 104.76 104.23 103.82 107.86 103.77 110.84 L 102.98 111.47 C 102.85 108.20 102.83 104.92 102.97 101.65 Z" />
<path fill="#ed1c24" opacity="1.00" d=" M 104.78 101.81 C 107.93 101.89 111.08 101.92 114.23 101.88 C 114.28 105.02 114.30 108.17 114.27 111.31 C 111.10 111.33 107.93 111.32 104.76 111.30 C 104.74 108.14 104.75 104.97 104.78 101.81 Z" />
<path fill="#ed1c24" opacity="1.00" d=" M 129.83 101.87 C 131.52 101.86 133.22 101.87 134.91 101.89 C 135.06 105.02 135.13 108.15 135.11 111.28 C 133.37 111.29 131.63 111.31 129.90 111.32 C 129.87 108.17 129.86 105.02 129.83 101.87 Z" />
<path fill="#ed1c24" opacity="1.00" d=" M 135.77 101.81 C 138.93 101.87 142.09 101.91 145.25 101.88 C 145.27 103.75 145.29 105.62 145.31 107.50 C 144.65 107.53 143.33 107.58 142.67 107.61 C 142.67 108.85 142.66 110.08 142.66 111.31 C 140.39 111.31 138.12 111.31 135.85 111.30 C 135.84 108.14 135.81 104.97 135.77 101.81 Z" />
<path fill="#ed1c24" opacity="1.00" d=" M 146.23 102.03 C 147.68 101.93 149.12 101.83 150.57 101.70 C 151.30 103.66 152.06 105.62 152.83 107.56 C 150.64 107.56 148.45 107.56 146.26 107.56 C 146.26 105.72 146.25 103.87 146.23 102.03 Z" />
<path fill="#ed1c24" opacity="1.00" d=" M 153.46 101.96 C 155.22 100.97 156.54 104.06 154.96 105.00 C 154.32 104.06 153.80 103.04 153.46 101.96 Z" />
<path fill="#ed1c24" opacity="1.00" d=" M 156.63 101.84 C 159.71 101.82 162.79 101.88 165.87 102.01 C 165.86 105.09 165.86 108.17 165.90 111.25 C 162.79 111.31 159.69 111.36 156.59 111.33 C 156.56 108.16 156.57 105.00 156.63 101.84 Z" />
<path fill="#ed1c24" opacity="1.00" d=" M 166.78 111.24 C 166.70 108.07 166.67 104.89 166.99 101.74 C 168.42 104.97 169.70 108.26 171.02 111.53 C 169.61 111.40 168.20 111.30 166.78 111.24 Z" />
<path fill="#ed1c24" opacity="1.00" d=" M 176.03 101.70 C 176.47 104.90 176.34 108.14 176.30 111.36 C 174.85 111.32 173.41 111.24 171.98 111.13 C 173.48 108.06 174.58 104.80 176.03 101.70 Z" />
<path fill="#ed1c24" opacity="1.00" d=" M 177.25 101.94 C 180.34 101.85 183.44 101.81 186.53 101.86 C 186.59 105.01 186.62 108.17 186.61 111.32 C 183.56 111.29 180.52 111.31 177.48 111.42 C 177.04 108.28 177.24 105.10 177.25 101.94 Z" />
<path fill="#ed1c24" opacity="1.00" d=" M 188.11 104.96 C 186.69 104.07 187.70 101.00 189.43 101.86 C 189.49 103.05 188.72 104.02 188.11 104.96 Z" />
<path fill="#ed1c24" opacity="1.00" d=" M 28.82 111.31 C 29.49 108.23 30.23 105.15 31.18 102.14 C 31.59 105.09 31.76 108.09 31.37 111.04 L 28.73 111.71 L 28.82 111.31 Z" />
<path fill="#ed1c24" opacity="1.00" d=" M 77.75 106.74 C 81.43 109.74 83.54 114.49 83.90 119.17 C 82.24 114.74 77.52 111.81 77.75 106.74 Z" />
<path fill="#ed1c24" opacity="1.00" d=" M 13.07 112.28 C 15.86 112.16 18.66 112.09 21.42 112.50 C 21.30 115.68 21.28 118.86 21.28 122.04 C 19.52 122.00 17.75 121.96 15.98 121.92 C 15.04 118.70 14.18 115.45 13.07 112.28 Z" />
<path fill="#ed1c24" opacity="1.00" d=" M 22.21 112.37 C 24.27 112.19 26.31 111.85 28.36 111.67 L 28.71 111.76 C 29.45 111.98 30.91 112.42 31.64 112.64 C 31.55 115.79 31.50 118.95 31.46 122.11 C 28.37 122.14 25.29 122.06 22.20 121.89 C 22.22 118.72 22.23 115.55 22.21 112.37 Z" />
<path fill="#ed1c24" opacity="1.00" d=" M 32.74 112.15 C 34.44 112.17 36.14 112.18 37.85 112.20 C 36.71 115.38 36.14 118.71 35.39 122.00 C 34.70 122.05 33.31 122.17 32.62 122.23 C 32.52 118.87 32.44 115.50 32.74 112.15 Z" />
<path fill="#ed1c24" opacity="1.00" d=" M 54.37 112.78 C 59.39 110.37 65.57 111.10 70.23 113.99 C 70.13 121.36 65.95 128.63 59.88 132.81 C 55.78 127.05 53.89 119.82 54.37 112.78 Z" />
<path fill="#ed1c24" opacity="1.00" d=" M 84.13 112.21 C 86.48 112.23 88.83 112.25 91.19 112.19 C 91.20 115.54 91.21 118.89 91.26 122.24 C 89.40 121.92 87.15 122.53 85.52 121.61 C 84.52 118.58 84.37 115.37 84.13 112.21 Z" />
<path fill="#ed1c24" opacity="1.00" d=" M 103.07 112.44 C 103.23 112.28 103.56 111.96 103.72 111.80 C 103.41 115.12 105.24 119.45 102.93 122.14 C 102.84 118.90 102.77 115.66 103.07 112.44 Z" />
<path fill="#ed1c24" opacity="1.00" d=" M 104.65 112.46 C 107.79 112.16 110.94 112.19 114.10 112.18 C 114.36 115.43 114.32 118.70 114.24 121.96 C 111.09 122.07 107.94 122.13 104.79 122.14 C 104.79 118.91 104.75 115.68 104.65 112.46 Z" />
<path fill="#ed1c24" opacity="1.00" d=" M 129.90 112.25 C 131.55 112.24 133.19 112.22 134.84 112.21 C 134.90 115.38 135.33 118.58 134.88 121.75 C 131.88 122.58 128.67 121.88 125.59 121.94 L 125.55 120.28 C 126.97 120.32 128.39 120.36 129.82 120.40 C 129.86 117.68 129.88 114.96 129.90 112.25 Z" />
<path fill="#ed1c24" opacity="1.00" d=" M 135.79 112.83 C 137.61 111.49 140.48 112.55 142.67 112.20 C 142.68 114.89 142.68 117.59 142.68 120.28 C 143.33 120.30 144.64 120.35 145.29 120.37 L 145.27 121.96 C 142.12 122.11 138.98 122.08 135.84 121.91 C 135.84 118.88 135.63 115.86 135.79 112.83 Z" />
<path fill="#ed1c24" opacity="1.00" d=" M 157.58 112.39 C 160.34 112.17 163.10 112.21 165.86 112.24 C 165.94 115.53 165.93 118.82 165.81 122.10 C 164.38 121.99 162.86 122.25 161.56 121.51 L 161.11 121.07 C 160.03 118.14 158.91 115.22 157.58 112.39 Z" />
<path fill="#ed1c24" opacity="1.00" d=" M 166.67 112.46 C 169.83 112.14 173.01 112.20 176.18 112.20 C 176.39 115.49 176.37 118.80 176.22 122.11 C 173.08 122.10 169.94 122.02 166.80 121.89 C 166.79 118.75 166.74 115.60 166.67 112.46 Z" />
<path fill="#ed1c24" opacity="1.00" d=" M 177.27 112.21 C 179.99 112.20 182.72 112.21 185.43 112.42 C 184.03 115.20 182.94 118.13 181.87 121.05 L 181.43 121.50 C 180.19 121.98 178.91 122.29 177.58 122.45 C 176.99 119.06 177.27 115.62 177.27 112.21 Z" />
<path fill="#ed1c24" opacity="1.00" d=" M 78.42 112.87 C 82.73 116.91 84.98 123.76 83.24 129.46 C 81.59 126.69 79.78 123.99 77.34 121.85 C 77.92 118.89 78.30 115.89 78.42 112.87 Z" />
<path fill="#ed1c24" opacity="1.00" d=" M 37.58 129.24 C 39.81 124.96 42.55 120.66 46.97 118.37 C 47.22 121.50 47.57 124.63 48.29 127.70 C 44.91 129.47 42.48 132.42 40.13 135.33 C 39.20 133.33 38.35 131.30 37.58 129.24 Z" />
<path fill="#ed1c24" opacity="1.00" d=" M 145.77 120.42 L 146.34 120.39 C 148.85 120.43 151.78 119.60 153.79 121.58 C 151.20 121.51 147.11 123.62 145.77 120.42 Z" />
<path fill="#ed1c24" opacity="1.00" d=" M 16.27 122.78 C 17.94 122.79 19.61 122.80 21.28 122.82 C 21.32 126.33 21.33 129.84 21.28 133.35 C 20.81 133.28 19.88 133.16 19.41 133.09 C 18.22 129.70 17.33 126.21 16.27 122.78 Z" />
<path fill="#ed1c24" opacity="1.00" d=" M 22.30 123.30 C 25.07 122.16 28.48 123.17 31.48 122.89 C 31.56 126.32 31.55 129.75 31.45 133.18 C 28.37 133.20 25.29 133.11 22.21 132.94 C 22.27 129.72 22.07 126.51 22.30 123.30 Z" />
<path fill="#ed1c24" opacity="1.00" d=" M 32.61 122.78 C 33.36 122.87 34.84 123.03 35.58 123.12 C 35.89 125.36 36.40 127.57 36.65 129.82 C 36.46 130.61 36.07 132.19 35.88 132.98 C 35.06 133.05 33.42 133.18 32.60 133.25 C 32.53 129.76 32.53 126.27 32.61 122.78 Z" />
<path fill="#ed1c24" opacity="1.00" d=" M 84.08 133.01 C 84.33 129.55 85.03 126.14 85.67 122.74 C 87.52 122.81 89.37 122.88 91.23 122.95 C 91.20 126.35 91.21 129.75 91.24 133.15 C 88.85 133.13 86.46 133.08 84.08 133.01 Z" />
<path fill="#ed1c24" opacity="1.00" d=" M 102.96 122.66 C 104.88 125.41 103.76 129.43 103.64 132.63 L 102.94 133.28 C 102.84 129.74 102.84 126.20 102.96 122.66 Z" />
<path fill="#ed1c24" opacity="1.00" d=" M 104.77 122.93 C 107.93 122.90 111.08 122.84 114.24 122.77 C 114.29 126.24 114.30 129.70 114.25 133.17 C 111.09 133.16 107.93 133.09 104.77 132.97 C 104.74 129.62 104.74 126.27 104.77 122.93 Z" />
<path fill="#ed1c24" opacity="1.00" d=" M 125.60 122.76 C 128.70 122.81 131.80 122.89 134.90 122.94 C 135.14 126.29 135.10 129.65 134.85 133.00 C 133.17 133.07 131.50 133.13 129.82 133.20 C 129.85 131.95 129.87 130.71 129.90 129.47 C 128.44 129.46 126.99 129.46 125.53 129.47 C 125.55 127.23 125.57 124.99 125.60 122.76 Z" />
<path fill="#ed1c24" opacity="1.00" d=" M 135.78 122.80 C 138.94 122.84 142.11 122.85 145.27 122.79 C 145.29 125.00 145.30 127.21 145.31 129.42 C 144.64 129.44 143.31 129.49 142.64 129.51 C 142.66 130.76 142.68 132.00 142.70 133.25 C 140.38 133.18 138.07 133.10 135.76 133.01 C 135.82 129.61 135.82 126.20 135.78 122.80 Z" />
<path fill="#ed1c24" opacity="1.00" d=" M 146.23 123.10 C 148.53 122.87 150.83 122.73 153.15 122.75 C 153.13 124.98 153.12 127.21 153.11 129.45 C 150.82 129.46 148.54 129.46 146.25 129.47 C 146.27 127.35 146.27 125.22 146.23 123.10 Z" />
<path fill="#ed1c24" opacity="1.00" d=" M 161.86 122.78 C 163.18 122.83 164.51 122.88 165.83 122.94 C 165.49 126.36 166.79 130.28 165.07 133.39 C 164.83 129.63 163.38 126.16 161.86 122.78 Z" />
<path fill="#ed1c24" opacity="1.00" d=" M 166.80 122.78 C 169.96 122.82 173.12 122.85 176.29 122.86 C 176.33 126.30 176.33 129.74 176.29 133.18 C 173.12 133.16 169.95 133.12 166.78 133.06 C 166.74 129.63 166.74 126.20 166.80 122.78 Z" />
<path fill="#ed1c24" opacity="1.00" d=" M 177.23 123.10 C 178.52 122.98 179.82 122.87 181.12 122.76 C 179.64 126.14 178.28 129.58 177.38 133.16 C 177.21 129.81 177.20 126.45 177.23 123.10 Z" />
<path fill="#ed1c24" opacity="1.00" d=" M 72.91 129.82 C 74.31 127.49 75.71 125.15 77.05 122.77 C 79.67 125.82 84.18 130.28 81.32 134.43 C 80.63 135.58 79.82 136.64 79.05 137.73 C 77.37 134.83 75.35 132.13 72.91 129.82 Z" />
<path fill="#ed1c24" opacity="1.00" d=" M 44.01 132.07 C 45.60 130.80 47.22 129.56 48.88 128.39 C 55.27 133.93 64.78 134.42 72.11 130.50 C 73.38 131.78 74.63 133.06 75.89 134.35 C 71.56 138.17 65.73 140.22 59.96 139.79 C 53.83 139.58 48.28 136.29 44.01 132.07 Z" />
<path fill="#ed1c24" opacity="1.00" d=" M 43.19 132.84 C 47.83 137.04 53.51 140.71 59.99 140.75 C 65.88 141.23 71.82 139.20 76.29 135.36 C 76.98 136.49 77.65 137.63 78.31 138.79 C 75.07 141.95 71.22 144.54 66.81 145.72 C 57.53 148.36 46.80 144.64 41.29 136.70 C 41.56 135.27 42.54 134.11 43.19 132.84 Z" />
<path fill="#ed1c24" opacity="1.00" d=" M 19.95 134.15 C 21.78 133.81 22.00 136.98 20.85 137.89 C 20.40 136.69 19.70 135.47 19.95 134.15 Z" />
<path fill="#ed1c24" opacity="1.00" d=" M 22.30 133.80 C 25.36 133.88 28.41 133.93 31.47 133.93 C 31.54 137.06 31.55 140.20 31.51 143.33 C 28.42 143.33 25.34 143.33 22.25 143.34 C 22.20 140.16 22.21 136.98 22.30 133.80 Z" />
<path fill="#ed1c24" opacity="1.00" d=" M 32.63 133.70 C 33.28 133.88 34.60 134.23 35.25 134.40 C 34.45 136.80 33.65 139.20 32.86 141.60 C 32.49 138.98 32.49 136.34 32.63 133.70 Z" />
<path fill="#ed1c24" opacity="1.00" d=" M 84.31 134.30 C 86.36 133.28 88.99 134.11 91.25 133.92 C 91.22 136.08 91.20 138.25 91.17 140.41 C 91.77 140.50 92.97 140.68 93.57 140.77 C 93.54 141.39 93.50 142.64 93.47 143.26 C 90.37 143.49 87.26 143.35 84.16 143.15 C 84.25 140.20 84.11 137.25 84.31 134.30 Z" />
<path fill="#ed1c24" opacity="1.00" d=" M 102.93 133.79 C 105.17 136.14 103.84 140.00 103.75 142.94 L 102.68 143.68 C 102.91 140.39 102.92 137.09 102.93 133.79 Z" />
<path fill="#ed1c24" opacity="1.00" d=" M 104.81 133.79 C 107.96 133.86 111.10 133.92 114.24 133.94 C 114.28 137.06 114.29 140.17 114.29 143.29 C 111.11 143.34 107.93 143.35 104.75 143.31 C 104.80 140.13 104.82 136.96 104.81 133.79 Z" />
<path fill="#ed1c24" opacity="1.00" d=" M 115.46 143.43 C 115.19 140.30 114.97 137.12 115.57 134.02 C 115.70 136.20 115.75 138.39 115.78 140.58 C 118.72 140.58 121.66 140.58 124.60 140.57 C 124.58 141.26 124.55 142.64 124.54 143.33 C 121.51 143.30 118.49 143.33 115.46 143.43 Z" />
<path fill="#ed1c24" opacity="1.00" d=" M 129.82 133.92 C 131.52 133.92 133.22 133.93 134.93 133.95 C 135.08 137.06 135.11 140.16 135.06 143.27 C 133.34 143.29 131.62 143.31 129.90 143.34 C 129.88 140.20 129.86 137.06 129.82 133.92 Z" />
<path fill="#ed1c24" opacity="1.00" d=" M 135.80 133.81 C 138.10 133.88 140.39 133.98 142.68 134.11 C 142.67 136.24 142.66 138.38 142.66 140.52 C 143.32 140.55 144.64 140.61 145.30 140.63 C 145.29 141.31 145.27 142.66 145.26 143.33 C 142.10 143.34 138.95 143.33 135.79 143.29 C 135.82 140.13 135.82 136.97 135.80 133.81 Z" />
<path fill="#ed1c24" opacity="1.00" d=" M 166.79 133.86 C 169.95 133.89 173.11 133.93 176.27 133.95 C 176.32 137.06 176.34 140.18 176.32 143.30 C 173.14 143.34 169.95 143.34 166.77 143.31 C 166.74 140.15 166.75 137.01 166.79 133.86 Z" />
<path fill="#ed1c24" opacity="1.00" d=" M 78.46 140.47 C 79.86 138.18 81.35 135.91 83.23 133.98 C 83.31 137.12 83.25 140.26 83.26 143.40 C 81.55 143.30 79.84 143.17 78.14 143.01 C 78.22 142.38 78.38 141.11 78.46 140.47 Z" />
<path fill="#ed1c24" opacity="1.00" d=" M 94.51 140.60 C 96.60 140.58 98.69 140.56 100.78 140.52 C 100.93 141.22 101.22 142.62 101.37 143.32 C 99.09 143.33 96.82 143.33 94.54 143.33 C 94.53 142.65 94.52 141.28 94.51 140.60 Z" />
<path fill="#ed1c24" opacity="1.00" d=" M 146.29 140.58 C 148.37 140.58 150.45 140.57 152.52 140.57 C 152.53 141.26 152.53 142.65 152.53 143.35 C 150.41 143.37 148.28 143.30 146.16 143.15 C 146.19 142.51 146.26 141.23 146.29 140.58 Z" />
<path fill="#ed1c24" opacity="1.00" d=" M 78.43 144.01 C 80.06 144.24 81.71 144.42 83.35 144.56 C 83.32 146.11 83.28 147.67 83.25 149.23 C 81.62 149.24 79.99 149.26 78.35 149.27 C 78.40 147.70 78.43 146.13 78.43 144.57 L 78.43 144.01 Z" />
<path fill="#ed1c24" opacity="1.00" d=" M 84.23 144.33 C 87.38 144.26 90.53 144.26 93.67 144.49 C 93.63 146.07 93.58 147.65 93.54 149.23 C 90.44 149.24 87.34 149.24 84.24 149.23 C 84.24 147.60 84.23 145.96 84.23 144.33 Z" />
<path fill="#ed1c24" opacity="1.00" d=" M 94.44 144.46 C 96.75 144.33 99.06 144.27 101.37 144.29 C 101.25 145.94 101.09 147.58 100.94 149.23 C 98.81 149.23 96.68 149.23 94.55 149.24 C 94.51 147.64 94.47 146.05 94.44 144.46 Z" />
<path fill="#ed1c24" opacity="1.00" d=" M 102.67 144.49 C 104.60 144.16 104.95 148.39 103.34 148.74 C 102.95 147.36 102.60 145.94 102.67 144.49 Z" />
<path fill="#ed1c24" opacity="1.00" d=" M 104.74 144.49 C 107.84 144.28 110.95 144.28 114.05 144.23 C 114.20 145.90 114.29 147.56 114.34 149.24 C 111.15 149.24 107.96 149.24 104.78 149.24 C 104.77 147.66 104.76 146.08 104.74 144.49 Z" />
<path fill="#ed1c24" opacity="1.00" d=" M 115.25 144.33 C 118.38 144.26 121.52 144.31 124.66 144.43 C 124.62 146.03 124.59 147.63 124.56 149.24 C 121.46 149.24 118.36 149.24 115.26 149.23 C 115.26 147.60 115.25 145.96 115.25 144.33 Z" />
<path fill="#ed1c24" opacity="1.00" d=" M 129.90 144.34 C 131.55 144.32 133.19 144.31 134.84 144.29 C 134.91 145.96 134.98 147.63 135.07 149.30 C 133.33 149.27 131.60 149.23 129.86 149.20 C 129.87 147.58 129.89 145.96 129.90 144.34 Z" />
<path fill="#ed1c24" opacity="1.00" d=" M 135.63 144.56 C 138.87 144.15 142.14 144.22 145.39 144.50 C 145.35 146.07 145.32 147.65 145.28 149.23 C 142.13 149.24 138.97 149.24 135.82 149.25 C 135.75 147.68 135.69 146.12 135.63 144.56 Z" />
<path fill="#ed1c24" opacity="1.00" d=" M 146.28 144.28 C 148.37 144.31 150.45 144.36 152.54 144.45 C 152.53 146.05 152.52 147.65 152.52 149.25 C 150.44 149.24 148.36 149.23 146.29 149.23 C 146.29 147.58 146.28 145.93 146.28 144.28 Z" />
<path fill="#ed1c24" opacity="1.00" d=" M 164.89 144.36 C 166.73 144.45 166.35 147.92 165.33 148.98 C 164.55 147.56 164.49 145.90 164.89 144.36 Z" />
<path fill="#ed1c24" opacity="1.00" d=" M 166.68 144.52 C 169.72 144.27 172.77 144.26 175.82 144.26 C 175.96 145.92 176.11 147.58 176.29 149.24 C 173.11 149.24 169.94 149.24 166.77 149.24 C 166.74 147.67 166.71 146.09 166.68 144.52 Z" />
<path fill="#ed1c24" opacity="1.00" d=" M 177.62 148.72 C 175.91 148.51 175.93 144.31 177.76 144.40 C 178.00 145.83 177.90 147.30 177.62 148.72 Z" />
<path fill="#ed1c24" opacity="1.00" d=" M 22.57 144.09 C 25.59 144.35 28.62 144.37 31.66 144.34 C 31.61 145.01 31.53 146.34 31.49 147.01 C 31.14 147.57 30.42 148.68 30.06 149.23 C 28.10 149.27 26.14 149.23 24.18 149.21 C 23.66 147.49 23.14 145.78 22.57 144.09 Z" />
</g>
<g id="#231f20ff">
<path fill="#231f20" opacity="1.00" d=" M 28.20 54.20 C 40.02 49.81 52.42 46.53 65.04 45.85 C 68.76 46.24 73.45 47.28 75.27 50.91 C 71.88 51.78 68.41 52.36 65.03 53.28 C 69.02 53.25 73.57 52.50 76.98 55.09 C 80.02 57.81 78.04 62.28 75.90 64.91 C 70.19 71.67 61.93 75.56 53.82 78.66 C 42.73 82.58 30.80 84.73 19.03 83.44 C 13.59 82.60 7.19 80.56 4.99 74.96 C 3.41 71.66 5.17 68.03 7.63 65.74 C 13.41 60.26 20.88 57.08 28.20 54.20 M 40.13 61.19 C 36.65 62.55 33.76 65.09 30.13 66.11 C 29.56 65.54 28.98 64.98 28.40 64.41 C 23.86 67.18 18.22 69.69 16.28 75.04 C 15.16 78.44 19.34 80.13 22.04 79.83 C 31.94 79.57 41.71 76.87 50.58 72.51 C 55.98 69.85 61.46 67.02 65.80 62.78 C 66.98 61.44 68.47 59.91 68.31 57.98 C 67.06 55.77 64.21 55.81 62.02 55.93 C 54.50 56.46 47.08 58.30 40.13 61.19 Z" />
<path fill="#231f20" opacity="1.00" d=" M 148.56 50.44 C 150.64 49.59 152.91 49.64 155.11 49.80 C 154.94 52.76 154.22 55.80 151.96 57.90 C 144.59 65.22 134.50 68.64 125.65 73.69 C 123.61 76.65 127.27 79.27 130.02 79.25 C 135.49 79.49 140.76 77.58 145.87 75.88 C 149.64 74.99 150.87 70.69 154.27 69.18 C 162.20 65.07 171.17 63.31 180.03 62.78 C 182.74 62.53 185.41 63.18 187.98 64.01 C 187.41 64.74 186.84 65.47 186.27 66.20 C 187.24 66.81 188.17 67.45 189.09 68.15 C 189.88 71.51 186.63 73.74 184.87 76.13 C 188.85 76.05 192.53 74.56 196.23 73.29 C 196.72 73.74 197.69 74.64 198.18 75.09 C 193.61 77.92 188.35 79.50 182.97 79.64 C 176.70 79.72 171.27 83.69 164.97 83.74 C 158.98 84.54 151.80 83.23 148.98 77.22 C 143.70 79.96 138.05 81.81 132.38 83.54 C 132.22 83.66 131.92 83.91 131.77 84.03 L 131.17 84.28 C 126.70 83.88 121.70 84.86 117.72 82.27 C 115.78 81.10 115.49 78.71 114.83 76.75 C 105.65 80.54 96.11 84.53 86.00 84.36 C 79.81 84.00 73.08 83.03 68.41 78.57 C 66.69 78.58 64.64 79.07 63.52 77.36 C 71.92 73.34 80.57 69.84 89.08 66.08 C 90.66 65.39 91.85 64.13 93.14 63.03 C 95.43 60.82 99.05 60.99 101.92 61.75 C 103.55 64.71 105.72 68.22 104.61 71.70 C 101.56 76.44 95.56 77.63 90.69 79.67 C 99.42 80.67 107.47 76.52 115.47 73.71 C 117.92 67.81 122.87 63.44 128.32 60.32 C 134.84 56.61 141.49 53.00 148.56 50.44 M 128.92 68.01 C 135.18 64.96 141.67 61.56 146.08 56.02 C 139.39 58.19 133.28 62.51 128.92 68.01 M 76.71 74.58 C 78.92 76.34 81.94 76.62 84.16 78.42 C 87.08 77.57 90.47 77.05 92.58 74.65 C 94.34 72.61 92.43 70.09 91.96 67.91 C 86.83 70.04 81.84 72.47 76.71 74.58 M 160.17 74.17 C 158.71 75.23 156.21 78.06 158.80 79.29 C 162.93 80.72 167.40 79.48 171.34 77.97 C 168.55 74.31 172.54 71.30 175.01 68.99 C 169.94 70.20 164.58 71.24 160.17 74.17 Z" />
<path fill="#231f20" opacity="1.00" d=" M 68.38 73.62 C 68.46 73.51 68.62 73.30 68.70 73.19 C 68.62 73.30 68.46 73.51 68.38 73.62 Z" />
<path fill="#231f20" opacity="1.00" d=" M 175.47 82.64 C 175.80 82.55 176.45 82.35 176.77 82.26 C 182.93 83.76 189.38 82.66 195.66 83.08 C 195.58 109.67 195.58 136.27 195.66 162.86 C 131.47 162.95 67.29 162.87 3.11 162.91 C 3.15 136.23 3.12 109.54 3.13 82.86 C 5.90 82.86 8.68 82.76 11.45 82.83 C 13.21 83.39 14.99 83.92 16.72 84.58 C 12.61 84.25 8.49 84.16 4.37 84.25 C 4.37 86.38 4.37 88.51 4.36 90.65 C 67.69 90.71 131.01 90.65 194.33 90.65 C 194.32 88.51 194.31 86.37 194.30 84.23 C 187.13 84.21 179.96 84.35 172.80 84.12 C 173.47 83.75 174.81 83.01 175.47 82.64 M 4.37 91.52 C 4.36 94.73 4.37 97.93 4.43 101.13 C 6.22 101.03 8.01 100.88 9.79 100.68 C 10.04 100.80 10.54 101.03 10.79 101.14 C 10.88 97.91 11.00 94.67 10.59 91.45 C 9.68 91.53 7.85 91.69 6.94 91.76 C 6.30 91.70 5.01 91.58 4.37 91.52 M 11.74 91.67 C 11.71 94.81 11.72 97.95 11.76 101.09 C 14.93 101.10 18.09 101.10 21.25 101.07 C 21.31 97.94 21.33 94.80 21.30 91.67 C 18.11 91.63 14.92 91.63 11.74 91.67 M 22.72 101.20 C 23.28 101.15 24.38 101.05 24.94 101.00 C 27.16 100.92 29.39 100.91 31.61 100.82 C 31.60 98.32 31.55 95.81 31.40 93.31 L 32.99 93.76 C 32.22 96.14 32.60 98.66 32.62 101.11 C 35.69 101.15 38.76 101.09 41.82 100.96 C 41.80 97.92 41.82 94.87 41.92 91.83 C 39.23 91.67 36.53 91.56 33.83 91.53 L 32.14 92.71 C 29.29 90.70 25.56 91.99 22.32 91.65 C 22.44 94.79 21.58 98.24 22.72 101.20 M 42.77 91.66 C 42.73 94.82 42.75 97.98 42.82 101.14 C 43.61 101.20 45.18 101.30 45.97 101.36 C 48.18 101.01 50.29 100.24 52.29 99.27 C 52.26 96.73 52.26 94.19 52.25 91.65 C 51.44 91.65 49.82 91.65 49.00 91.64 C 46.93 91.65 44.85 91.65 42.77 91.66 M 53.15 91.72 C 53.20 94.11 53.21 96.49 53.17 98.88 C 56.27 98.24 59.41 97.80 62.57 97.81 C 62.56 95.76 62.57 93.71 62.57 91.66 C 59.43 91.60 56.29 91.63 53.15 91.72 M 63.56 91.65 C 63.56 93.79 63.57 95.92 63.58 98.06 C 66.83 98.48 69.91 99.65 72.89 101.00 C 72.84 97.89 72.84 94.77 72.88 91.66 C 69.77 91.63 66.67 91.63 63.56 91.65 M 73.77 91.66 C 73.76 94.84 73.76 98.03 73.78 101.22 C 75.29 101.15 76.80 101.08 78.31 101.02 C 79.94 101.09 81.57 101.13 83.20 101.19 C 83.22 100.49 83.26 99.09 83.28 98.39 C 83.27 96.14 83.26 93.90 83.26 91.65 C 80.10 91.63 76.93 91.64 73.77 91.66 M 84.17 91.74 C 84.23 93.96 84.25 96.17 84.16 98.39 C 83.26 102.91 88.79 100.69 91.30 101.03 C 91.86 101.04 92.97 101.08 93.52 101.10 C 93.57 97.95 93.57 94.81 93.57 91.67 C 90.44 91.59 87.30 91.62 84.17 91.74 M 94.52 91.66 C 94.52 94.81 94.52 97.97 94.56 101.13 C 97.36 101.16 100.15 101.08 102.94 100.88 C 104.50 100.49 104.74 99.57 103.66 98.13 C 104.01 96.00 103.89 93.83 103.96 91.69 C 100.81 91.63 97.67 91.62 94.52 91.66 M 104.76 91.65 C 104.75 93.90 104.74 96.14 104.76 98.38 C 104.80 99.03 104.86 100.31 104.89 100.95 C 108.00 101.11 111.12 101.15 114.24 101.09 C 114.25 100.41 114.27 99.06 114.29 98.38 C 114.28 96.14 114.28 93.89 114.28 91.65 C 111.10 91.64 107.93 91.64 104.76 91.65 M 115.70 101.12 C 118.65 101.13 121.59 101.12 124.54 101.08 C 124.58 97.94 124.58 94.80 124.59 91.66 C 121.52 91.65 118.44 91.65 115.37 91.58 C 115.12 94.76 115.28 97.96 115.70 101.12 M 125.54 91.66 C 125.54 94.77 125.54 97.88 125.58 101.00 C 126.98 101.04 128.37 101.09 129.77 101.14 C 131.50 101.04 133.23 100.94 134.97 100.85 C 134.95 100.23 134.90 99.00 134.88 98.38 C 134.89 96.15 134.93 93.91 135.06 91.68 C 131.88 91.63 128.71 91.63 125.54 91.66 M 135.82 91.65 C 135.77 93.89 135.74 96.13 135.72 98.38 C 135.74 99.02 135.78 100.30 135.80 100.94 C 138.94 101.09 142.08 101.15 145.22 101.11 C 145.24 100.43 145.29 99.07 145.31 98.39 C 145.30 96.14 145.29 93.89 145.29 91.65 C 142.13 91.64 138.98 91.64 135.82 91.65 M 146.27 98.22 C 146.25 98.87 146.22 100.17 146.20 100.82 C 147.59 100.91 148.99 101.00 150.38 101.07 L 150.09 100.48 C 150.79 100.58 152.18 100.77 152.88 100.86 L 152.95 101.09 C 153.58 101.11 154.84 101.17 155.47 101.19 C 155.50 100.49 155.55 99.09 155.58 98.39 C 155.56 96.14 155.56 93.90 155.57 91.65 C 152.50 91.65 149.43 91.64 146.37 91.59 C 146.29 93.80 146.27 96.01 146.27 98.22 M 156.58 91.66 C 156.58 93.90 156.57 96.14 156.56 98.38 C 156.59 99.05 156.65 100.38 156.68 101.05 C 159.71 101.12 162.75 101.10 165.78 101.02 C 165.85 100.37 165.97 99.08 166.04 98.44 L 165.80 98.43 C 165.85 96.17 165.87 93.91 165.91 91.65 C 162.80 91.63 159.69 91.64 156.58 91.66 M 166.76 91.66 C 166.77 94.69 166.77 97.72 166.71 100.74 C 169.93 101.04 173.17 100.99 176.40 100.78 C 176.31 97.73 176.30 94.69 176.31 91.65 C 173.13 91.63 169.95 91.63 166.76 91.66 M 177.20 91.66 C 177.23 93.90 177.26 96.15 177.32 98.40 L 177.10 98.40 C 177.15 99.03 177.25 100.29 177.30 100.92 C 180.22 101.07 183.16 101.11 186.09 101.07 C 186.57 100.29 187.05 99.51 187.53 98.73 C 187.58 99.35 187.67 100.60 187.72 101.22 C 188.29 101.17 189.43 101.08 190.00 101.03 C 191.43 101.06 192.86 101.08 194.30 101.09 C 194.32 97.94 194.32 94.79 194.33 91.64 C 192.07 91.64 189.82 91.64 187.56 91.65 C 187.57 93.92 187.60 96.19 187.67 98.45 C 187.38 98.45 186.80 98.46 186.52 98.46 C 186.58 96.19 186.60 93.92 186.61 91.65 C 183.47 91.64 180.34 91.64 177.20 91.66 M 54.16 99.95 C 47.36 107.18 46.40 118.36 49.61 127.41 C 51.78 129.60 54.70 130.88 57.63 131.70 C 55.58 127.05 53.47 122.23 53.32 117.07 C 52.93 110.25 56.49 104.12 60.30 98.75 C 58.24 99.04 56.06 99.00 54.16 99.95 M 60.99 99.99 C 58.12 103.16 56.26 107.10 54.90 111.13 C 60.15 109.72 65.63 110.41 70.54 112.65 C 70.06 108.30 69.71 103.36 66.95 99.81 C 65.08 99.46 62.41 98.08 60.99 99.99 M 38.91 112.99 C 39.63 112.92 41.07 112.80 41.79 112.73 C 37.62 116.16 35.83 122.04 37.01 127.29 C 39.19 124.98 40.49 121.92 43.03 119.95 C 44.28 118.89 45.70 118.01 46.84 116.82 C 47.28 113.19 47.45 109.51 48.72 106.05 C 46.36 107.98 43.11 109.35 42.05 112.44 C 41.56 111.94 41.07 111.43 40.59 110.92 C 43.44 108.99 45.94 106.60 48.91 104.84 C 50.57 103.90 51.34 102.08 51.88 100.34 C 46.34 102.92 41.14 107.15 38.91 112.99 M 68.90 100.42 C 70.95 106.03 72.25 112.14 70.80 118.07 C 69.78 123.47 66.45 127.96 63.08 132.13 C 66.11 131.47 69.70 131.31 72.04 128.97 C 77.55 122.42 78.61 113.03 76.33 105.00 C 74.31 102.84 71.63 101.47 68.90 100.42 M 4.41 101.86 C 4.37 105.01 4.37 108.17 4.36 111.32 C 6.70 111.32 9.05 111.30 11.39 111.27 C 11.11 108.09 10.82 104.92 10.32 101.77 C 8.35 101.79 6.38 101.82 4.41 101.86 M 11.74 101.88 C 11.70 105.03 11.79 108.18 12.02 111.32 C 15.11 111.32 18.21 111.32 21.31 111.30 C 21.32 108.15 21.31 105.00 21.28 101.85 C 18.10 101.88 14.92 101.89 11.74 101.88 M 22.16 102.20 C 22.23 105.20 22.22 108.20 22.17 111.20 C 24.03 111.31 25.90 111.28 27.75 111.04 C 27.90 111.20 28.21 111.51 28.36 111.67 C 26.31 111.85 24.27 112.19 22.21 112.37 C 22.23 115.55 22.22 118.72 22.20 121.89 C 25.29 122.06 28.37 122.14 31.46 122.11 C 31.50 118.95 31.55 115.79 31.64 112.64 C 30.91 112.42 29.45 111.98 28.71 111.76 L 28.82 111.31 L 28.73 111.71 L 31.37 111.04 C 31.76 108.09 31.59 105.09 31.18 102.14 L 31.29 101.78 C 29.27 101.78 27.24 101.78 25.22 101.76 C 24.20 101.91 23.18 102.05 22.16 102.20 M 32.61 101.90 C 32.54 105.03 32.52 108.16 32.58 111.30 C 34.42 111.32 36.27 111.35 38.11 111.39 C 39.82 108.75 43.52 105.78 41.76 102.35 C 38.99 101.20 35.61 102.19 32.61 101.90 M 43.03 104.01 C 44.07 104.91 46.17 103.38 45.63 102.12 C 44.50 101.16 42.25 102.58 43.03 104.01 M 74.75 102.07 C 75.97 103.22 77.21 104.36 78.47 105.46 C 80.03 107.45 81.52 109.50 83.18 111.41 C 83.32 108.23 83.28 105.04 83.21 101.86 C 81.57 101.95 79.93 102.03 78.29 102.12 L 78.27 101.67 C 77.39 101.77 75.63 101.97 74.75 102.07 M 84.20 102.12 C 84.24 105.15 84.23 108.18 84.19 111.22 C 86.52 111.30 88.85 111.34 91.18 111.33 C 91.78 111.32 92.97 111.31 93.57 111.31 C 93.56 108.16 93.56 105.02 93.53 101.87 C 92.96 101.85 91.81 101.82 91.24 101.80 C 88.89 101.88 86.54 101.99 84.20 102.12 M 94.56 101.91 C 94.53 105.04 94.52 108.18 94.52 111.31 C 97.34 111.31 100.16 111.24 102.98 111.47 L 103.77 110.84 C 103.82 107.86 104.76 104.23 102.97 101.65 C 100.17 101.91 97.36 101.93 94.56 101.91 M 104.78 101.81 C 104.75 104.97 104.74 108.14 104.76 111.30 C 107.93 111.32 111.10 111.33 114.27 111.31 C 114.30 108.17 114.28 105.02 114.23 101.88 C 111.08 101.92 107.93 101.89 104.78 101.81 M 115.62 101.90 C 115.59 105.04 115.59 108.18 115.59 111.31 C 118.59 111.32 121.59 111.32 124.59 111.31 C 124.59 108.16 124.58 105.01 124.54 101.86 C 121.56 101.91 118.59 101.92 115.62 101.90 M 125.58 101.80 C 125.54 104.97 125.54 108.14 125.54 111.31 C 126.99 111.31 128.44 111.32 129.90 111.32 C 131.63 111.31 133.37 111.29 135.11 111.28 C 135.13 108.15 135.06 105.02 134.91 101.89 C 133.22 101.87 131.52 101.86 129.83 101.87 C 128.41 101.85 126.99 101.83 125.58 101.80 M 135.77 101.81 C 135.81 104.97 135.84 108.14 135.85 111.30 C 138.12 111.31 140.39 111.31 142.66 111.31 C 143.32 111.31 144.64 111.31 145.29 111.31 C 145.30 110.04 145.30 108.77 145.31 107.50 C 145.29 105.62 145.27 103.75 145.25 101.88 C 142.09 101.91 138.93 101.87 135.77 101.81 M 146.23 102.03 C 146.25 103.87 146.26 105.72 146.26 107.56 C 146.29 108.83 146.34 110.10 146.38 111.37 C 149.47 111.31 152.56 111.30 155.65 111.31 C 155.55 109.20 155.80 106.99 154.96 105.00 C 156.54 104.06 155.22 100.97 153.46 101.96 C 152.74 101.89 151.29 101.77 150.57 101.70 C 149.12 101.83 147.68 101.93 146.23 102.03 M 156.63 101.84 C 156.57 105.00 156.56 108.16 156.59 111.33 C 159.69 111.36 162.79 111.31 165.90 111.25 C 165.86 108.17 165.86 105.09 165.87 102.01 C 162.79 101.88 159.71 101.82 156.63 101.84 M 166.78 111.24 C 168.20 111.30 169.61 111.40 171.02 111.53 L 171.98 111.13 C 173.41 111.24 174.85 111.32 176.30 111.36 C 176.34 108.14 176.47 104.90 176.03 101.70 C 173.02 101.82 170.00 101.82 166.99 101.74 C 166.67 104.89 166.70 108.07 166.78 111.24 M 177.25 101.94 C 177.24 105.10 177.04 108.28 177.48 111.42 C 180.52 111.31 183.56 111.29 186.61 111.32 C 186.62 108.17 186.59 105.01 186.53 101.86 C 183.44 101.81 180.34 101.85 177.25 101.94 M 188.11 104.96 C 187.23 106.95 187.66 109.20 187.52 111.31 C 189.79 111.31 192.05 111.31 194.32 111.31 C 194.32 108.16 194.32 105.01 194.30 101.86 C 192.67 101.86 191.05 101.86 189.43 101.86 C 187.70 101.00 186.69 104.07 188.11 104.96 M 77.75 106.74 C 77.52 111.81 82.24 114.74 83.90 119.17 C 83.54 114.49 81.43 109.74 77.75 106.74 M 4.36 112.26 C 4.38 115.46 4.38 118.67 4.35 121.88 C 6.51 121.90 8.67 121.90 10.84 121.90 C 10.82 118.68 10.82 115.46 10.83 112.23 C 8.67 112.24 6.51 112.24 4.36 112.26 M 12.00 112.15 C 11.37 115.41 11.86 118.81 11.76 122.13 C 13.17 122.05 14.57 121.98 15.98 121.92 C 17.75 121.96 19.52 122.00 21.28 122.04 C 21.28 118.86 21.30 115.68 21.42 112.50 C 18.66 112.09 15.86 112.16 13.07 112.28 L 12.00 112.15 M 32.74 112.15 C 32.44 115.50 32.52 118.87 32.62 122.23 C 33.31 122.17 34.70 122.05 35.39 122.00 C 36.14 118.71 36.71 115.38 37.85 112.20 C 36.14 112.18 34.44 112.17 32.74 112.15 M 54.37 112.78 C 53.89 119.82 55.78 127.05 59.88 132.81 C 65.95 128.63 70.13 121.36 70.23 113.99 C 65.57 111.10 59.39 110.37 54.37 112.78 M 84.13 112.21 C 84.37 115.37 84.52 118.58 85.52 121.61 C 87.15 122.53 89.40 121.92 91.26 122.24 C 91.80 122.16 92.89 121.99 93.43 121.91 C 93.65 118.71 93.69 115.48 93.42 112.29 C 92.86 112.26 91.74 112.21 91.19 112.19 C 88.83 112.25 86.48 112.23 84.13 112.21 M 103.07 112.44 C 100.23 112.15 97.37 112.23 94.52 112.25 C 94.52 115.47 94.53 118.70 94.55 121.92 C 97.34 121.88 100.15 121.83 102.93 122.14 C 105.24 119.45 103.41 115.12 103.72 111.80 C 103.56 111.96 103.23 112.28 103.07 112.44 M 104.65 112.46 C 104.75 115.68 104.79 118.91 104.79 122.14 C 107.94 122.13 111.09 122.07 114.24 121.96 C 114.32 118.70 114.36 115.43 114.10 112.18 C 110.94 112.19 107.79 112.16 104.65 112.46 M 115.54 112.33 C 115.61 115.52 115.61 118.71 115.59 121.90 C 118.60 121.91 121.60 121.91 124.61 121.90 C 124.56 118.71 124.56 115.52 124.64 112.33 C 121.61 112.20 118.57 112.20 115.54 112.33 M 129.90 112.25 C 128.45 112.25 126.99 112.24 125.54 112.25 C 125.54 114.92 125.55 117.60 125.55 120.28 L 125.59 121.94 C 128.67 121.88 131.88 122.58 134.88 121.75 C 135.33 118.58 134.90 115.38 134.84 112.21 C 133.19 112.22 131.55 112.24 129.90 112.25 M 135.79 112.83 C 135.63 115.86 135.84 118.88 135.84 121.91 C 138.98 122.08 142.12 122.11 145.27 121.96 L 145.29 120.37 C 145.29 117.71 145.30 115.05 145.36 112.40 C 144.46 112.33 143.56 112.26 142.67 112.20 C 140.48 112.55 137.61 111.49 135.79 112.83 M 157.58 112.39 L 156.61 111.94 C 156.54 115.35 156.58 118.76 156.62 122.18 C 158.16 122.29 159.64 122.14 161.03 121.70 L 161.11 121.07 L 161.56 121.51 C 162.86 122.25 164.38 121.99 165.81 122.10 C 165.93 118.82 165.94 115.53 165.86 112.24 C 163.10 112.21 160.34 112.17 157.58 112.39 M 166.67 112.46 C 166.74 115.60 166.79 118.75 166.80 121.89 C 169.94 122.02 173.08 122.10 176.22 122.11 C 176.37 118.80 176.39 115.49 176.18 112.20 C 173.01 112.20 169.83 112.14 166.67 112.46 M 177.27 112.21 C 177.27 115.62 176.99 119.06 177.58 122.45 C 178.91 122.29 180.19 121.98 181.43 121.50 L 181.87 121.05 L 181.94 121.69 C 183.40 122.10 184.93 122.24 186.54 122.12 C 186.61 118.63 186.69 115.14 186.43 111.67 L 185.43 112.42 C 182.72 112.21 179.99 112.20 177.27 112.21 M 78.42 112.87 C 78.30 115.89 77.92 118.89 77.34 121.85 C 79.78 123.99 81.59 126.69 83.24 129.46 C 84.98 123.76 82.73 116.91 78.42 112.87 M 146.27 112.25 C 146.27 114.96 146.28 117.68 146.34 120.39 L 145.77 120.42 C 147.11 123.62 151.20 121.51 153.79 121.58 C 154.22 121.74 155.06 122.06 155.49 122.21 C 155.59 118.89 155.56 115.57 155.57 112.25 C 152.47 112.24 149.37 112.24 146.27 112.25 M 187.58 112.25 C 187.59 115.47 187.58 118.68 187.58 121.90 C 189.83 121.91 192.08 121.90 194.33 121.89 C 194.31 118.68 194.32 115.46 194.32 112.24 C 192.07 112.24 189.82 112.24 187.58 112.25 M 37.58 129.24 C 38.35 131.30 39.20 133.33 40.13 135.33 C 42.48 132.42 44.91 129.47 48.29 127.70 C 47.57 124.63 47.22 121.50 46.97 118.37 C 42.55 120.66 39.81 124.96 37.58 129.24 M 4.48 133.23 C 6.53 133.23 8.59 133.24 10.65 133.28 C 10.92 129.77 10.93 126.23 10.65 122.72 C 8.59 122.75 6.54 122.76 4.48 122.76 C 4.32 126.25 4.33 129.74 4.48 133.23 M 11.74 122.88 C 11.72 126.29 11.72 129.70 11.75 133.11 C 14.30 133.10 16.86 133.15 19.41 133.09 C 19.88 133.16 20.81 133.28 21.28 133.35 C 21.33 129.84 21.32 126.33 21.28 122.82 C 19.61 122.80 17.94 122.79 16.27 122.78 C 14.76 122.81 13.25 122.84 11.74 122.88 M 22.30 123.30 C 22.07 126.51 22.27 129.72 22.21 132.94 C 25.29 133.11 28.37 133.20 31.45 133.18 C 31.55 129.75 31.56 126.32 31.48 122.89 C 28.48 123.17 25.07 122.16 22.30 123.30 M 32.61 122.78 C 32.53 126.27 32.53 129.76 32.60 133.25 C 33.42 133.18 35.06 133.05 35.88 132.98 C 35.72 133.34 35.41 134.05 35.25 134.40 C 34.60 134.23 33.28 133.88 32.63 133.70 C 32.49 136.34 32.49 138.98 32.86 141.60 C 32.72 142.03 32.46 142.88 32.33 143.30 C 35.67 143.35 39.01 143.33 42.36 143.27 C 42.85 137.96 37.58 134.79 36.65 129.82 C 36.40 127.57 35.89 125.36 35.58 123.12 C 34.84 123.03 33.36 122.87 32.61 122.78 M 84.08 133.01 C 86.46 133.08 88.85 133.13 91.24 133.15 C 91.81 133.14 92.95 133.13 93.52 133.13 C 93.58 129.68 93.57 126.23 93.53 122.78 C 92.95 122.83 91.80 122.91 91.23 122.95 C 89.37 122.88 87.52 122.81 85.67 122.74 C 85.03 126.14 84.33 129.55 84.08 133.01 M 94.55 122.77 C 94.52 126.22 94.52 129.66 94.56 133.10 C 97.35 133.12 100.15 133.07 102.94 133.28 L 103.64 132.63 C 103.76 129.43 104.88 125.41 102.96 122.66 C 100.16 122.84 97.35 122.78 94.55 122.77 M 104.77 122.93 C 104.74 126.27 104.74 129.62 104.77 132.97 C 107.93 133.09 111.09 133.16 114.25 133.17 C 114.30 129.70 114.29 126.24 114.24 122.77 C 111.08 122.84 107.93 122.90 104.77 122.93 M 115.62 122.78 C 115.58 126.27 115.58 129.76 115.62 133.25 C 118.60 133.21 121.57 133.15 124.54 133.09 C 124.61 129.65 124.63 126.21 124.58 122.77 C 121.59 122.78 118.60 122.78 115.62 122.78 M 125.60 122.76 C 125.57 124.99 125.55 127.23 125.53 129.47 C 125.55 130.69 125.56 131.92 125.58 133.14 C 127.00 133.16 128.41 133.18 129.82 133.20 C 131.50 133.13 133.17 133.07 134.85 133.00 C 135.10 129.65 135.14 126.29 134.90 122.94 C 131.80 122.89 128.70 122.81 125.60 122.76 M 135.78 122.80 C 135.82 126.20 135.82 129.61 135.76 133.01 C 138.07 133.10 140.38 133.18 142.70 133.25 C 143.34 133.22 144.63 133.17 145.27 133.14 C 145.28 131.90 145.29 130.66 145.31 129.42 C 145.30 127.21 145.29 125.00 145.27 122.79 C 142.11 122.85 138.94 122.84 135.78 122.80 M 146.23 123.10 C 146.27 125.22 146.27 127.35 146.25 129.47 C 146.30 130.75 146.35 132.02 146.41 133.30 C 149.44 133.16 152.48 133.06 155.53 133.07 C 155.57 129.64 155.58 126.21 155.53 122.78 C 154.93 122.78 153.74 122.76 153.15 122.75 C 150.83 122.73 148.53 122.87 146.23 123.10 M 156.61 122.93 C 156.57 126.33 156.57 129.73 156.61 133.14 C 159.43 133.18 162.25 133.18 165.07 133.39 C 166.79 130.28 165.49 126.36 165.83 122.94 C 164.51 122.88 163.18 122.83 161.86 122.78 C 160.11 122.83 158.35 122.89 156.61 122.93 M 166.80 122.78 C 166.74 126.20 166.74 129.63 166.78 133.06 C 169.95 133.12 173.12 133.16 176.29 133.18 C 176.33 129.74 176.33 126.30 176.29 122.86 C 173.12 122.85 169.96 122.82 166.80 122.78 M 177.23 123.10 C 177.20 126.45 177.21 129.81 177.38 133.16 C 180.43 133.12 183.49 133.10 186.55 133.13 C 186.61 129.71 186.61 126.29 186.56 122.87 C 184.74 122.84 182.93 122.80 181.12 122.76 C 179.82 122.87 178.52 122.98 177.23 123.10 M 187.61 122.78 C 187.57 126.24 187.57 129.70 187.61 133.17 C 189.84 133.16 192.07 133.15 194.30 133.15 C 194.33 129.69 194.33 126.24 194.30 122.78 C 192.07 122.78 189.84 122.78 187.61 122.78 M 72.91 129.82 C 75.35 132.13 77.37 134.83 79.05 137.73 C 79.82 136.64 80.63 135.58 81.32 134.43 C 84.18 130.28 79.67 125.82 77.05 122.77 C 75.71 125.15 74.31 127.49 72.91 129.82 M 44.01 132.07 C 48.28 136.29 53.83 139.58 59.96 139.79 C 65.73 140.22 71.56 138.17 75.89 134.35 C 74.63 133.06 73.38 131.78 72.11 130.50 C 64.78 134.42 55.27 133.93 48.88 128.39 C 47.22 129.56 45.60 130.80 44.01 132.07 M 43.19 132.84 C 42.54 134.11 41.56 135.27 41.29 136.70 C 46.80 144.64 57.53 148.36 66.81 145.72 C 71.22 144.54 75.07 141.95 78.31 138.79 C 77.65 137.63 76.98 136.49 76.29 135.36 C 71.82 139.20 65.88 141.23 59.99 140.75 C 53.51 140.71 47.83 137.04 43.19 132.84 M 4.34 134.10 C 4.36 137.19 4.38 140.28 4.41 143.37 C 6.57 143.33 8.72 143.31 10.88 143.27 C 10.81 140.21 10.81 137.14 10.85 134.09 C 8.68 134.03 6.51 134.03 4.34 134.10 M 11.75 133.89 C 11.73 137.03 11.73 140.18 11.72 143.32 C 14.94 143.33 18.17 143.33 21.39 143.32 C 21.24 141.51 21.52 139.61 20.85 137.89 C 22.00 136.98 21.78 133.81 19.95 134.15 C 17.23 133.85 14.49 133.83 11.75 133.89 M 22.30 133.80 C 22.21 136.98 22.20 140.16 22.25 143.34 C 25.34 143.33 28.42 143.33 31.51 143.33 C 31.55 140.20 31.54 137.06 31.47 133.93 C 28.41 133.93 25.36 133.88 22.30 133.80 M 84.31 134.30 C 84.11 137.25 84.25 140.20 84.16 143.15 C 87.26 143.35 90.37 143.49 93.47 143.26 C 93.50 142.64 93.54 141.39 93.57 140.77 C 93.57 138.47 93.55 136.17 93.51 133.87 C 92.95 133.88 91.82 133.91 91.25 133.92 C 88.99 134.11 86.36 133.28 84.31 134.30 M 94.56 133.86 C 94.54 136.11 94.52 138.35 94.51 140.60 C 94.52 141.28 94.53 142.65 94.54 143.33 C 96.82 143.33 99.09 143.33 101.37 143.32 L 101.37 144.29 C 99.06 144.27 96.75 144.33 94.44 144.46 C 94.47 146.05 94.51 147.64 94.55 149.24 C 94.53 150.62 94.52 152.00 94.51 153.38 C 97.68 153.40 100.85 153.40 104.02 153.37 C 103.97 151.80 103.75 150.25 103.34 148.74 C 104.95 148.39 104.60 144.16 102.67 144.49 L 102.68 143.68 L 103.75 142.94 C 103.84 140.00 105.17 136.14 102.93 133.79 C 100.14 133.98 97.35 133.89 94.56 133.86 M 104.81 133.79 C 104.82 136.96 104.80 140.13 104.75 143.31 C 107.93 143.35 111.11 143.34 114.29 143.29 C 114.29 140.17 114.28 137.06 114.24 133.94 C 111.10 133.92 107.96 133.86 104.81 133.79 M 115.46 143.43 C 118.49 143.33 121.51 143.30 124.54 143.33 C 124.55 142.64 124.58 141.26 124.60 140.57 C 124.58 138.33 124.57 136.08 124.54 133.84 C 121.55 133.94 118.56 134.03 115.57 134.02 C 114.97 137.12 115.19 140.30 115.46 143.43 M 125.57 133.93 C 125.53 137.06 125.55 140.19 125.60 143.32 C 127.03 143.32 128.47 143.33 129.90 143.34 C 131.62 143.31 133.34 143.29 135.06 143.27 C 135.11 140.16 135.08 137.06 134.93 133.95 C 133.22 133.93 131.52 133.92 129.82 133.92 C 128.41 133.93 126.99 133.93 125.57 133.93 M 135.80 133.81 C 135.82 136.97 135.82 140.13 135.79 143.29 C 138.95 143.33 142.10 143.34 145.26 143.33 C 145.27 142.66 145.29 141.31 145.30 140.63 C 145.30 138.38 145.29 136.13 145.28 133.88 C 144.63 133.94 143.33 134.05 142.68 134.11 C 140.39 133.98 138.10 133.88 135.80 133.81 M 146.25 134.15 C 146.27 136.29 146.28 138.44 146.29 140.58 C 146.26 141.23 146.19 142.51 146.16 143.15 C 148.28 143.30 150.41 143.37 152.53 143.35 C 153.29 143.34 154.81 143.33 155.58 143.32 C 155.56 140.15 155.56 136.99 155.52 133.83 C 152.42 133.82 149.33 133.94 146.25 134.15 M 156.61 133.89 C 156.58 137.03 156.58 140.18 156.57 143.32 C 159.46 143.33 162.36 143.33 165.26 143.28 C 165.22 140.31 165.23 137.33 165.34 134.36 C 162.44 134.03 159.52 133.91 156.61 133.89 M 166.79 133.86 C 166.75 137.01 166.74 140.15 166.77 143.31 C 169.95 143.34 173.14 143.34 176.32 143.30 C 176.34 140.18 176.32 137.06 176.27 133.95 C 173.11 133.93 169.95 133.89 166.79 133.86 M 177.66 133.93 C 177.62 137.06 177.62 140.19 177.62 143.32 C 180.61 143.33 183.61 143.33 186.61 143.32 C 186.60 140.17 186.59 137.03 186.54 133.89 C 183.58 133.88 180.62 133.89 177.66 133.93 M 187.62 133.93 C 187.58 137.06 187.58 140.19 187.57 143.32 C 189.82 143.32 192.07 143.32 194.33 143.32 C 194.32 140.19 194.32 137.06 194.30 133.92 C 192.07 133.92 189.84 133.93 187.62 133.93 M 78.46 140.47 L 78.18 140.24 C 77.21 140.88 75.32 141.80 75.71 143.19 C 76.32 143.15 77.53 143.06 78.14 143.01 C 79.84 143.17 81.55 143.30 83.26 143.40 C 83.25 140.26 83.31 137.12 83.23 133.98 C 81.35 135.91 79.86 138.18 78.46 140.47 M 45.59 143.13 C 45.45 142.02 44.79 141.33 43.60 141.06 C 41.81 141.82 44.44 144.35 45.59 143.13 M 42.72 144.41 C 42.76 147.40 42.76 150.39 42.77 153.38 C 45.93 153.40 49.09 153.40 52.25 153.38 C 52.26 150.95 52.26 148.53 52.25 146.10 C 49.35 144.34 46.03 143.97 42.72 144.41 M 78.43 144.01 L 78.43 144.57 C 76.87 144.43 75.31 144.31 73.75 144.22 C 73.77 147.27 73.77 150.32 73.78 153.38 C 76.94 153.40 80.10 153.40 83.26 153.39 C 83.26 152.35 83.25 150.27 83.25 149.23 C 83.28 147.67 83.32 146.11 83.35 144.56 C 81.71 144.42 80.06 144.24 78.43 144.01 M 84.23 144.33 C 84.23 145.96 84.24 147.60 84.24 149.23 C 84.22 150.59 84.19 151.96 84.16 153.32 C 87.30 153.40 90.44 153.43 93.58 153.38 C 93.57 151.99 93.55 150.61 93.54 149.23 C 93.58 147.65 93.63 146.07 93.67 144.49 C 90.53 144.26 87.38 144.26 84.23 144.33 M 104.74 144.49 C 104.76 146.08 104.77 147.66 104.78 149.24 C 104.76 150.62 104.74 152.00 104.74 153.38 C 107.91 153.40 111.08 153.40 114.26 153.39 C 114.27 152.00 114.30 150.62 114.34 149.24 C 114.29 147.56 114.20 145.90 114.05 144.23 C 110.95 144.28 107.84 144.28 104.74 144.49 M 115.25 144.33 C 115.25 145.96 115.26 147.60 115.26 149.23 C 115.25 150.61 115.24 151.99 115.22 153.38 C 118.35 153.40 121.48 153.40 124.61 153.38 C 124.59 152.00 124.57 150.61 124.56 149.24 C 124.59 147.63 124.62 146.03 124.66 144.43 C 121.52 144.31 118.38 144.26 115.25 144.33 M 129.90 144.34 C 128.47 144.33 127.03 144.32 125.60 144.32 C 125.59 147.34 125.56 150.36 125.53 153.38 C 128.70 153.41 131.87 153.41 135.04 153.35 C 135.05 152.00 135.06 150.65 135.07 149.30 C 134.98 147.63 134.91 145.96 134.84 144.29 C 133.19 144.31 131.55 144.32 129.90 144.34 M 135.63 144.56 C 135.69 146.12 135.75 147.68 135.82 149.25 C 135.81 150.62 135.80 152.00 135.79 153.38 C 138.96 153.40 142.13 153.40 145.30 153.38 C 145.29 152.00 145.29 150.61 145.28 149.23 C 145.32 147.65 145.35 146.07 145.39 144.50 C 142.14 144.22 138.87 144.15 135.63 144.56 M 146.28 144.28 C 146.28 145.93 146.29 147.58 146.29 149.23 C 146.27 150.61 146.26 151.99 146.25 153.38 C 149.36 153.40 152.46 153.40 155.57 153.38 C 155.55 150.39 155.55 147.39 155.60 144.40 C 154.58 144.35 153.56 144.30 152.54 144.25 L 152.54 144.45 C 150.45 144.36 148.37 144.31 146.28 144.28 M 156.54 144.38 C 156.58 147.38 156.59 150.38 156.57 153.38 C 159.72 153.41 162.87 153.41 166.02 153.35 C 166.05 151.84 165.82 150.38 165.33 148.98 C 166.35 147.92 166.73 144.45 164.89 144.36 C 162.11 144.29 159.32 144.32 156.54 144.38 M 166.68 144.52 C 166.71 146.09 166.74 147.67 166.77 149.24 C 166.76 150.62 166.76 152.00 166.76 153.38 C 169.95 153.40 173.14 153.40 176.33 153.38 C 176.32 152.00 176.30 150.62 176.29 149.24 C 176.11 147.58 175.96 145.92 175.82 144.26 C 172.77 144.26 169.72 144.27 166.68 144.52 M 177.62 148.72 C 177.36 150.26 177.19 151.81 177.11 153.37 C 180.27 153.41 183.44 153.40 186.60 153.38 C 186.58 150.38 186.58 147.37 186.64 144.37 C 183.68 144.31 180.72 144.28 177.76 144.40 C 175.93 144.31 175.91 148.51 177.62 148.72 M 187.54 144.38 C 187.59 147.38 187.59 150.38 187.58 153.38 C 189.83 153.39 192.08 153.39 194.33 153.40 C 194.31 150.39 194.31 147.38 194.36 144.37 C 192.08 144.32 189.81 144.32 187.54 144.38 M 4.36 144.33 C 4.38 147.35 4.38 150.37 4.36 153.39 C 6.52 153.39 8.68 153.39 10.85 153.39 C 10.82 150.37 10.82 147.35 10.84 144.33 C 8.68 144.32 6.52 144.32 4.36 144.33 M 11.72 144.33 C 11.73 147.35 11.73 150.36 11.74 153.38 C 14.93 153.40 18.11 153.40 21.30 153.38 C 21.31 150.36 21.31 147.35 21.33 144.33 C 18.13 144.32 14.92 144.32 11.72 144.33 M 22.19 153.34 C 25.30 153.40 28.42 153.42 31.53 153.38 C 31.54 151.26 31.55 149.13 31.49 147.01 C 31.53 146.34 31.61 145.01 31.66 144.34 C 28.62 144.37 25.59 144.35 22.57 144.09 C 21.99 147.14 22.24 150.25 22.19 153.34 M 32.50 144.33 C 32.54 147.35 32.56 150.36 32.55 153.38 C 35.65 153.40 38.75 153.40 41.85 153.38 C 41.81 150.37 41.82 147.35 41.85 144.34 C 38.73 144.32 35.61 144.32 32.50 144.33 M 63.54 147.49 C 63.56 149.45 63.56 151.42 63.57 153.38 C 66.67 153.40 69.77 153.40 72.88 153.38 C 72.84 150.36 72.84 147.35 72.89 144.33 C 69.94 145.83 66.78 146.84 63.54 147.49 M 53.15 153.36 C 56.29 153.41 59.43 153.41 62.57 153.38 C 62.57 151.46 62.57 149.54 62.58 147.62 C 59.44 147.62 56.29 147.33 53.25 146.50 C 53.21 148.79 53.19 151.07 53.15 153.36 M 4.35 154.42 C 4.37 156.83 4.37 159.23 4.36 161.65 C 55.28 161.68 106.20 161.63 157.12 161.67 C 158.78 162.21 159.74 160.67 160.91 159.89 L 158.75 159.43 L 161.14 159.16 C 160.61 158.64 159.54 157.61 159.01 157.10 C 159.80 156.33 160.94 156.39 161.95 156.22 C 161.65 156.59 161.05 157.32 160.75 157.69 C 161.17 158.04 162.00 158.75 162.42 159.10 C 161.40 159.73 160.62 160.60 160.05 161.69 C 164.29 161.69 168.53 161.58 172.76 161.80 C 172.50 161.15 171.96 159.85 171.69 159.20 C 171.11 159.45 169.93 159.94 169.35 160.19 C 169.27 159.25 169.12 157.38 169.05 156.44 L 170.55 156.84 C 170.37 157.54 170.03 158.94 169.86 159.65 C 170.38 159.12 171.40 158.08 171.92 157.56 C 173.37 157.46 174.88 157.57 175.84 156.23 C 175.73 157.68 175.76 159.13 175.74 160.58 C 175.20 159.69 174.72 158.77 174.28 157.83 C 173.78 158.32 172.77 159.32 172.26 159.81 C 172.89 160.46 173.54 161.10 174.19 161.73 C 180.90 161.59 187.61 161.73 194.32 161.65 C 194.32 159.25 194.32 156.84 194.36 154.44 C 131.02 154.31 67.68 154.38 4.35 154.42 Z" />
<path fill="#231f20" opacity="1.00" d=" M 40.20 84.12 C 41.90 83.66 43.58 83.16 45.27 82.73 C 54.14 83.41 63.02 82.67 71.90 82.76 C 72.47 83.12 73.61 83.83 74.18 84.18 C 62.85 84.24 51.53 84.37 40.20 84.12 Z" />
<path fill="#231f20" opacity="1.00" d=" M 99.83 84.15 C 100.94 83.63 102.07 83.15 103.22 82.71 C 107.51 82.86 111.80 82.78 116.09 82.93 C 116.53 83.26 117.42 83.91 117.86 84.24 C 111.85 84.20 105.84 84.33 99.83 84.15 Z" />
<path fill="#231f20" opacity="1.00" d=" M 163.09 159.79 C 162.32 158.97 162.27 156.36 163.81 156.56 C 164.51 157.38 164.34 159.70 163.09 159.79 Z" />
<path fill="#231f20" opacity="1.00" d=" M 165.59 156.42 C 167.13 156.21 166.61 159.97 165.10 159.76 C 164.68 158.61 164.84 157.50 165.59 156.42 Z" />
<path fill="#231f20" opacity="1.00" d=" M 167.11 159.86 C 166.66 158.80 166.56 156.39 167.99 156.17 C 168.70 157.20 168.36 159.45 167.11 159.86 Z" />
<path fill="#231f20" opacity="1.00" d=" M 179.48 156.10 C 180.85 156.41 180.70 158.90 180.01 159.87 C 178.75 159.41 178.91 157.11 179.48 156.10 Z" />
<path fill="#231f20" opacity="1.00" d=" M 180.59 157.24 C 181.93 156.44 183.36 155.91 184.71 156.98 C 185.27 156.72 186.41 156.19 186.98 155.92 L 185.76 158.26 L 187.34 158.44 C 187.35 157.97 187.35 157.03 187.36 156.56 C 188.63 156.67 190.21 155.90 191.29 156.86 C 191.65 158.41 190.82 159.74 189.26 160.12 C 189.42 158.98 189.60 157.83 189.78 156.69 C 188.35 158.16 184.87 162.40 185.14 156.96 C 184.52 157.86 183.29 159.66 182.67 160.55 C 182.58 158.71 183.43 156.31 180.59 157.24 Z" />
</g>
<g id="#ffffffff">
<path fill="#ffffff" opacity="1.00" d=" M 16.72 84.58 C 24.54 85.84 32.40 84.84 40.20 84.12 C 51.53 84.37 62.85 84.24 74.18 84.18 C 78.47 84.58 82.68 85.76 87.02 85.69 C 91.35 85.79 95.54 84.53 99.83 84.15 C 105.84 84.33 111.85 84.20 117.86 84.24 C 122.14 85.25 127.07 86.49 131.17 84.28 L 131.77 84.03 C 138.82 84.56 145.90 84.06 152.96 84.28 C 156.31 84.42 159.59 85.46 162.96 85.23 C 166.26 85.03 169.51 84.45 172.80 84.12 C 179.96 84.35 187.13 84.21 194.30 84.23 C 194.31 86.37 194.32 88.51 194.33 90.65 C 131.01 90.65 67.69 90.71 4.36 90.65 C 4.37 88.51 4.37 86.38 4.37 84.25 C 8.49 84.16 12.61 84.25 16.72 84.58 Z" />
<path fill="#ffffff" opacity="1.00" d=" M 4.37 91.52 C 5.01 91.58 6.30 91.70 6.94 91.76 C 7.98 94.71 8.69 97.76 9.79 100.68 C 8.01 100.88 6.22 101.03 4.43 101.13 C 4.37 97.93 4.36 94.73 4.37 91.52 Z" />
<path fill="#ffffff" opacity="1.00" d=" M 22.32 91.65 C 25.56 91.99 29.29 90.70 32.14 92.71 L 33.83 91.53 C 33.62 92.09 33.20 93.20 32.99 93.76 L 31.40 93.31 C 31.55 95.81 31.60 98.32 31.61 100.82 C 29.39 100.91 27.16 100.92 24.94 101.00 C 24.13 97.87 23.27 94.74 22.32 91.65 Z" />
<path fill="#ffffff" opacity="1.00" d=" M 49.00 91.64 C 49.82 91.65 51.44 91.65 52.25 91.65 C 52.26 94.19 52.26 96.73 52.29 99.27 C 50.29 100.24 48.18 101.01 45.97 101.36 C 46.91 98.10 47.95 94.87 49.00 91.64 Z" />
<path fill="#ffffff" opacity="1.00" d=" M 53.15 91.72 C 56.29 91.63 59.43 91.60 62.57 91.66 C 62.57 93.71 62.56 95.76 62.57 97.81 C 59.41 97.80 56.27 98.24 53.17 98.88 C 53.21 96.49 53.20 94.11 53.15 91.72 Z" />
<path fill="#ffffff" opacity="1.00" d=" M 63.56 91.65 C 66.67 91.63 69.77 91.63 72.88 91.66 C 72.84 94.77 72.84 97.89 72.89 101.00 C 69.91 99.65 66.83 98.48 63.58 98.06 C 63.57 95.92 63.56 93.79 63.56 91.65 Z" />
<path fill="#ffffff" opacity="1.00" d=" M 73.77 91.66 C 76.93 91.64 80.10 91.63 83.26 91.65 C 83.26 93.90 83.27 96.14 83.28 98.39 C 81.65 98.38 80.03 98.37 78.41 98.36 C 78.38 99.03 78.33 100.36 78.31 101.02 C 76.80 101.08 75.29 101.15 73.78 101.22 C 73.76 98.03 73.76 94.84 73.77 91.66 Z" />
<path fill="#ffffff" opacity="1.00" d=" M 84.17 91.74 C 87.30 91.62 90.44 91.59 93.57 91.67 C 93.57 94.81 93.57 97.95 93.52 101.10 C 92.97 101.08 91.86 101.04 91.30 101.03 C 91.27 100.37 91.20 99.05 91.16 98.39 C 88.83 98.39 86.49 98.39 84.16 98.39 C 84.25 96.17 84.23 93.96 84.17 91.74 Z" />
<path fill="#ffffff" opacity="1.00" d=" M 94.52 91.66 C 97.67 91.62 100.81 91.63 103.96 91.69 C 103.89 93.83 104.01 96.00 103.66 98.13 C 102.86 98.93 102.62 99.85 102.94 100.88 C 100.15 101.08 97.36 101.16 94.56 101.13 C 94.52 97.97 94.52 94.81 94.52 91.66 Z" />
<path fill="#ffffff" opacity="1.00" d=" M 104.76 91.65 C 107.93 91.64 111.10 91.64 114.28 91.65 C 114.28 93.89 114.28 96.14 114.29 98.38 C 111.11 98.39 107.94 98.39 104.76 98.38 C 104.74 96.14 104.75 93.90 104.76 91.65 Z" />
<path fill="#ffffff" opacity="1.00" d=" M 115.70 101.12 C 115.28 97.96 115.12 94.76 115.37 91.58 C 118.44 91.65 121.52 91.65 124.59 91.66 C 124.58 94.80 124.58 97.94 124.54 101.08 C 121.59 101.12 118.65 101.13 115.70 101.12 Z" />
<path fill="#ffffff" opacity="1.00" d=" M 125.54 91.66 C 128.71 91.63 131.88 91.63 135.06 91.68 C 134.93 93.91 134.89 96.15 134.88 98.38 C 133.22 98.39 131.57 98.40 129.91 98.41 C 129.88 99.09 129.81 100.46 129.77 101.14 C 128.37 101.09 126.98 101.04 125.58 101.00 C 125.54 97.88 125.54 94.77 125.54 91.66 Z" />
<path fill="#ffffff" opacity="1.00" d=" M 135.82 91.65 C 138.98 91.64 142.13 91.64 145.29 91.65 C 145.29 93.89 145.30 96.14 145.31 98.39 C 142.11 98.39 138.92 98.39 135.72 98.38 C 135.74 96.13 135.77 93.89 135.82 91.65 Z" />
<path fill="#ffffff" opacity="1.00" d=" M 146.27 98.22 C 146.27 96.01 146.29 93.80 146.37 91.59 C 149.43 91.64 152.50 91.65 155.57 91.65 C 155.56 93.90 155.56 96.14 155.58 98.39 C 154.70 98.38 152.95 98.37 152.07 98.37 C 152.27 98.99 152.68 100.24 152.88 100.86 C 152.18 100.77 150.79 100.58 150.09 100.48 C 149.86 100.02 149.40 99.10 149.16 98.64 C 148.20 98.48 147.23 98.34 146.27 98.22 Z" />
<path fill="#ffffff" opacity="1.00" d=" M 156.58 91.66 C 159.69 91.64 162.80 91.63 165.91 91.65 C 165.87 93.91 165.85 96.17 165.80 98.43 C 162.72 98.39 159.64 98.38 156.56 98.38 C 156.57 96.14 156.58 93.90 156.58 91.66 Z" />
<path fill="#ffffff" opacity="1.00" d=" M 166.76 91.66 C 169.95 91.63 173.13 91.63 176.31 91.65 C 176.30 94.69 176.31 97.73 176.40 100.78 C 173.17 100.99 169.93 101.04 166.71 100.74 C 166.77 97.72 166.77 94.69 166.76 91.66 Z" />
<path fill="#ffffff" opacity="1.00" d=" M 177.20 91.66 C 180.34 91.64 183.47 91.64 186.61 91.65 C 186.60 93.92 186.58 96.19 186.52 98.46 C 183.45 98.41 180.39 98.38 177.32 98.40 C 177.26 96.15 177.23 93.90 177.20 91.66 Z" />
<path fill="#ffffff" opacity="1.00" d=" M 187.56 91.65 C 189.82 91.64 192.07 91.64 194.33 91.64 C 194.32 94.79 194.32 97.94 194.30 101.09 C 192.86 101.08 191.43 101.06 190.00 101.03 C 190.33 100.14 190.65 99.24 190.97 98.34 C 190.14 98.37 188.50 98.43 187.67 98.45 C 187.60 96.19 187.57 93.92 187.56 91.65 Z" />
<path fill="#ffffff" opacity="1.00" d=" M 4.41 101.86 C 6.38 101.82 8.35 101.79 10.32 101.77 C 10.82 104.92 11.11 108.09 11.39 111.27 C 9.05 111.30 6.70 111.32 4.36 111.32 C 4.37 108.17 4.37 105.01 4.41 101.86 Z" />
<path fill="#ffffff" opacity="1.00" d=" M 25.22 101.76 C 27.24 101.78 29.27 101.78 31.29 101.78 L 31.18 102.14 C 30.23 105.15 29.49 108.23 28.82 111.31 L 28.71 111.76 L 28.36 111.67 C 28.21 111.51 27.90 111.20 27.75 111.04 C 26.79 107.98 26.04 104.86 25.22 101.76 Z" />
<path fill="#ffffff" opacity="1.00" d=" M 74.75 102.07 C 75.63 101.97 77.39 101.77 78.27 101.67 L 78.29 102.12 C 78.34 102.96 78.43 104.63 78.47 105.46 C 77.21 104.36 75.97 103.22 74.75 102.07 Z" />
<path fill="#ffffff" opacity="1.00" d=" M 91.24 101.80 C 91.81 101.82 92.96 101.85 93.53 101.87 C 93.56 105.02 93.56 108.16 93.57 111.31 C 92.97 111.31 91.78 111.32 91.18 111.33 C 91.21 108.15 91.21 104.98 91.24 101.80 Z" />
<path fill="#ffffff" opacity="1.00" d=" M 94.56 101.91 C 97.36 101.93 100.17 101.91 102.97 101.65 C 102.83 104.92 102.85 108.20 102.98 111.47 C 100.16 111.24 97.34 111.31 94.52 111.31 C 94.52 108.18 94.53 105.04 94.56 101.91 Z" />
<path fill="#ffffff" opacity="1.00" d=" M 115.62 101.90 C 118.59 101.92 121.56 101.91 124.54 101.86 C 124.58 105.01 124.59 108.16 124.59 111.31 C 121.59 111.32 118.59 111.32 115.59 111.31 C 115.59 108.18 115.59 105.04 115.62 101.90 Z" />
<path fill="#ffffff" opacity="1.00" d=" M 125.58 101.80 C 126.99 101.83 128.41 101.85 129.83 101.87 C 129.86 105.02 129.87 108.17 129.90 111.32 C 128.44 111.32 126.99 111.31 125.54 111.31 C 125.54 108.14 125.54 104.97 125.58 101.80 Z" />
<path fill="#ffffff" opacity="1.00" d=" M 150.57 101.70 C 151.29 101.77 152.74 101.89 153.46 101.96 C 153.80 103.04 154.32 104.06 154.96 105.00 C 155.80 106.99 155.55 109.20 155.65 111.31 C 152.56 111.30 149.47 111.31 146.38 111.37 C 146.34 110.10 146.29 108.83 146.26 107.56 C 148.45 107.56 150.64 107.56 152.83 107.56 C 152.06 105.62 151.30 103.66 150.57 101.70 Z" />
<path fill="#ffffff" opacity="1.00" d=" M 166.99 101.74 C 170.00 101.82 173.02 101.82 176.03 101.70 C 174.58 104.80 173.48 108.06 171.98 111.13 L 171.02 111.53 C 169.70 108.26 168.42 104.97 166.99 101.74 Z" />
<path fill="#ffffff" opacity="1.00" d=" M 189.43 101.86 C 191.05 101.86 192.67 101.86 194.30 101.86 C 194.32 105.01 194.32 108.16 194.32 111.31 C 192.05 111.31 189.79 111.31 187.52 111.31 C 187.66 109.20 187.23 106.95 188.11 104.96 C 188.72 104.02 189.49 103.05 189.43 101.86 Z" />
<path fill="#ffffff" opacity="1.00" d=" M 142.67 107.61 C 143.33 107.58 144.65 107.53 145.31 107.50 C 145.30 108.77 145.30 110.04 145.29 111.31 C 144.64 111.31 143.32 111.31 142.66 111.31 C 142.66 110.08 142.67 108.85 142.67 107.61 Z" />
<path fill="#ffffff" opacity="1.00" d=" M 4.36 112.26 C 6.51 112.24 8.67 112.24 10.83 112.23 C 10.82 115.46 10.82 118.68 10.84 121.90 C 8.67 121.90 6.51 121.90 4.35 121.88 C 4.38 118.67 4.38 115.46 4.36 112.26 Z" />
<path fill="#ffffff" opacity="1.00" d=" M 12.00 112.15 L 13.07 112.28 C 14.18 115.45 15.04 118.70 15.98 121.92 C 14.57 121.98 13.17 122.05 11.76 122.13 C 11.86 118.81 11.37 115.41 12.00 112.15 Z" />
<path fill="#ffffff" opacity="1.00" d=" M 91.19 112.19 C 91.74 112.21 92.86 112.26 93.42 112.29 C 93.69 115.48 93.65 118.71 93.43 121.91 C 92.89 121.99 91.80 122.16 91.26 122.24 C 91.21 118.89 91.20 115.54 91.19 112.19 Z" />
<path fill="#ffffff" opacity="1.00" d=" M 115.54 112.33 C 118.57 112.20 121.61 112.20 124.64 112.33 C 124.56 115.52 124.56 118.71 124.61 121.90 C 121.60 121.91 118.60 121.91 115.59 121.90 C 115.61 118.71 115.61 115.52 115.54 112.33 Z" />
<path fill="#ffffff" opacity="1.00" d=" M 142.67 112.20 C 143.56 112.26 144.46 112.33 145.36 112.40 C 145.30 115.05 145.29 117.71 145.29 120.37 C 144.64 120.35 143.33 120.30 142.68 120.28 C 142.68 117.59 142.68 114.89 142.67 112.20 Z" />
<path fill="#ffffff" opacity="1.00" d=" M 185.43 112.42 L 186.43 111.67 C 186.69 115.14 186.61 118.63 186.54 122.12 C 184.93 122.24 183.40 122.10 181.94 121.69 L 181.87 121.05 C 182.94 118.13 184.03 115.20 185.43 112.42 Z" />
<path fill="#ffffff" opacity="1.00" d=" M 94.52 112.25 C 97.37 112.23 100.23 112.15 103.07 112.44 C 102.77 115.66 102.84 118.90 102.93 122.14 C 100.15 121.83 97.34 121.88 94.55 121.92 C 94.53 118.70 94.52 115.47 94.52 112.25 Z" />
<path fill="#ffffff" opacity="1.00" d=" M 125.54 112.25 C 126.99 112.24 128.45 112.25 129.90 112.25 C 129.88 114.96 129.86 117.68 129.82 120.40 C 128.39 120.36 126.97 120.32 125.55 120.28 C 125.55 117.60 125.54 114.92 125.54 112.25 Z" />
<path fill="#ffffff" opacity="1.00" d=" M 146.27 112.25 C 149.37 112.24 152.47 112.24 155.57 112.25 C 155.56 115.57 155.59 118.89 155.49 122.21 C 155.06 122.06 154.22 121.74 153.79 121.58 C 151.78 119.60 148.85 120.43 146.34 120.39 C 146.28 117.68 146.27 114.96 146.27 112.25 Z" />
<path fill="#ffffff" opacity="1.00" d=" M 156.61 111.94 L 157.58 112.39 C 158.91 115.22 160.03 118.14 161.11 121.07 L 161.03 121.70 C 159.64 122.14 158.16 122.29 156.62 122.18 C 156.58 118.76 156.54 115.35 156.61 111.94 Z" />
<path fill="#ffffff" opacity="1.00" d=" M 187.58 112.25 C 189.82 112.24 192.07 112.24 194.32 112.24 C 194.32 115.46 194.31 118.68 194.33 121.89 C 192.08 121.90 189.83 121.91 187.58 121.90 C 187.58 118.68 187.59 115.47 187.58 112.25 Z" />
<path fill="#ffffff" opacity="1.00" d=" M 4.48 133.23 C 4.33 129.74 4.32 126.25 4.48 122.76 C 6.54 122.76 8.59 122.75 10.65 122.72 C 10.93 126.23 10.92 129.77 10.65 133.28 C 8.59 133.24 6.53 133.23 4.48 133.23 Z" />
<path fill="#ffffff" opacity="1.00" d=" M 11.74 122.88 C 13.25 122.84 14.76 122.81 16.27 122.78 C 17.33 126.21 18.22 129.70 19.41 133.09 C 16.86 133.15 14.30 133.10 11.75 133.11 C 11.72 129.70 11.72 126.29 11.74 122.88 Z" />
<path fill="#ffffff" opacity="1.00" d=" M 91.23 122.95 C 91.80 122.91 92.95 122.83 93.53 122.78 C 93.57 126.23 93.58 129.68 93.52 133.13 C 92.95 133.13 91.81 133.14 91.24 133.15 C 91.21 129.75 91.20 126.35 91.23 122.95 Z" />
<path fill="#ffffff" opacity="1.00" d=" M 94.55 122.77 C 97.35 122.78 100.16 122.84 102.96 122.66 C 102.84 126.20 102.84 129.74 102.94 133.28 C 100.15 133.07 97.35 133.12 94.56 133.10 C 94.52 129.66 94.52 126.22 94.55 122.77 Z" />
<path fill="#ffffff" opacity="1.00" d=" M 115.62 122.78 C 118.60 122.78 121.59 122.78 124.58 122.77 C 124.63 126.21 124.61 129.65 124.54 133.09 C 121.57 133.15 118.60 133.21 115.62 133.25 C 115.58 129.76 115.58 126.27 115.62 122.78 Z" />
<path fill="#ffffff" opacity="1.00" d=" M 153.15 122.75 C 153.74 122.76 154.93 122.78 155.53 122.78 C 155.58 126.21 155.57 129.64 155.53 133.07 C 152.48 133.06 149.44 133.16 146.41 133.30 C 146.35 132.02 146.30 130.75 146.25 129.47 C 148.54 129.46 150.82 129.46 153.11 129.45 C 153.12 127.21 153.13 124.98 153.15 122.75 Z" />
<path fill="#ffffff" opacity="1.00" d=" M 156.61 122.93 C 158.35 122.89 160.11 122.83 161.86 122.78 C 163.38 126.16 164.83 129.63 165.07 133.39 C 162.25 133.18 159.43 133.18 156.61 133.14 C 156.57 129.73 156.57 126.33 156.61 122.93 Z" />
<path fill="#ffffff" opacity="1.00" d=" M 181.12 122.76 C 182.93 122.80 184.74 122.84 186.56 122.87 C 186.61 126.29 186.61 129.71 186.55 133.13 C 183.49 133.10 180.43 133.12 177.38 133.16 C 178.28 129.58 179.64 126.14 181.12 122.76 Z" />
<path fill="#ffffff" opacity="1.00" d=" M 187.61 122.78 C 189.84 122.78 192.07 122.78 194.30 122.78 C 194.33 126.24 194.33 129.69 194.30 133.15 C 192.07 133.15 189.84 133.16 187.61 133.17 C 187.57 129.70 187.57 126.24 187.61 122.78 Z" />
<path fill="#ffffff" opacity="1.00" d=" M 125.53 129.47 C 126.99 129.46 128.44 129.46 129.90 129.47 C 129.87 130.71 129.85 131.95 129.82 133.20 C 128.41 133.18 127.00 133.16 125.58 133.14 C 125.56 131.92 125.55 130.69 125.53 129.47 Z" />
<path fill="#ffffff" opacity="1.00" d=" M 142.64 129.51 C 143.31 129.49 144.64 129.44 145.31 129.42 C 145.29 130.66 145.28 131.90 145.27 133.14 C 144.63 133.17 143.34 133.22 142.70 133.25 C 142.68 132.00 142.66 130.76 142.64 129.51 Z" />
<path fill="#ffffff" opacity="1.00" d=" M 36.65 129.82 C 37.58 134.79 42.85 137.96 42.36 143.27 C 39.01 143.33 35.67 143.35 32.33 143.30 C 32.46 142.88 32.72 142.03 32.86 141.60 C 33.65 139.20 34.45 136.80 35.25 134.40 C 35.41 134.05 35.72 133.34 35.88 132.98 C 36.07 132.19 36.46 130.61 36.65 129.82 Z" />
<path fill="#ffffff" opacity="1.00" d=" M 4.34 134.10 C 6.51 134.03 8.68 134.03 10.85 134.09 C 10.81 137.14 10.81 140.21 10.88 143.27 C 8.72 143.31 6.57 143.33 4.41 143.37 C 4.38 140.28 4.36 137.19 4.34 134.10 Z" />
<path fill="#ffffff" opacity="1.00" d=" M 11.75 133.89 C 14.49 133.83 17.23 133.85 19.95 134.15 C 19.70 135.47 20.40 136.69 20.85 137.89 C 21.52 139.61 21.24 141.51 21.39 143.32 C 18.17 143.33 14.94 143.33 11.72 143.32 C 11.73 140.18 11.73 137.03 11.75 133.89 Z" />
<path fill="#ffffff" opacity="1.00" d=" M 91.25 133.92 C 91.82 133.91 92.95 133.88 93.51 133.87 C 93.55 136.17 93.57 138.47 93.57 140.77 C 92.97 140.68 91.77 140.50 91.17 140.41 C 91.20 138.25 91.22 136.08 91.25 133.92 Z" />
<path fill="#ffffff" opacity="1.00" d=" M 94.56 133.86 C 97.35 133.89 100.14 133.98 102.93 133.79 C 102.92 137.09 102.91 140.39 102.68 143.68 L 102.67 144.49 C 102.60 145.94 102.95 147.36 103.34 148.74 C 103.75 150.25 103.97 151.80 104.02 153.37 C 100.85 153.40 97.68 153.40 94.51 153.38 C 94.52 152.00 94.53 150.62 94.55 149.24 C 96.68 149.23 98.81 149.23 100.94 149.23 C 101.09 147.58 101.25 145.94 101.37 144.29 L 101.37 143.32 C 101.22 142.62 100.93 141.22 100.78 140.52 C 98.69 140.56 96.60 140.58 94.51 140.60 C 94.52 138.35 94.54 136.11 94.56 133.86 Z" />
<path fill="#ffffff" opacity="1.00" d=" M 115.57 134.02 C 118.56 134.03 121.55 133.94 124.54 133.84 C 124.57 136.08 124.58 138.33 124.60 140.57 C 121.66 140.58 118.72 140.58 115.78 140.58 C 115.75 138.39 115.70 136.20 115.57 134.02 Z" />
<path fill="#ffffff" opacity="1.00" d=" M 125.57 133.93 C 126.99 133.93 128.41 133.93 129.82 133.92 C 129.86 137.06 129.88 140.20 129.90 143.34 C 128.47 143.33 127.03 143.32 125.60 143.32 C 125.55 140.19 125.53 137.06 125.57 133.93 Z" />
<path fill="#ffffff" opacity="1.00" d=" M 142.68 134.11 C 143.33 134.05 144.63 133.94 145.28 133.88 C 145.29 136.13 145.30 138.38 145.30 140.63 C 144.64 140.61 143.32 140.55 142.66 140.52 C 142.66 138.38 142.67 136.24 142.68 134.11 Z" />
<path fill="#ffffff" opacity="1.00" d=" M 146.25 134.15 C 149.33 133.94 152.42 133.82 155.52 133.83 C 155.56 136.99 155.56 140.15 155.58 143.32 C 154.81 143.33 153.29 143.34 152.53 143.35 C 152.53 142.65 152.53 141.26 152.52 140.57 C 150.45 140.57 148.37 140.58 146.29 140.58 C 146.28 138.44 146.27 136.29 146.25 134.15 Z" />
<path fill="#ffffff" opacity="1.00" d=" M 156.61 133.89 C 159.52 133.91 162.44 134.03 165.34 134.36 C 165.23 137.33 165.22 140.31 165.26 143.28 C 162.36 143.33 159.46 143.33 156.57 143.32 C 156.58 140.18 156.58 137.03 156.61 133.89 Z" />
<path fill="#ffffff" opacity="1.00" d=" M 177.66 133.93 C 180.62 133.89 183.58 133.88 186.54 133.89 C 186.59 137.03 186.60 140.17 186.61 143.32 C 183.61 143.33 180.61 143.33 177.62 143.32 C 177.62 140.19 177.62 137.06 177.66 133.93 Z" />
<path fill="#ffffff" opacity="1.00" d=" M 187.62 133.93 C 189.84 133.93 192.07 133.92 194.30 133.92 C 194.32 137.06 194.32 140.19 194.33 143.32 C 192.07 143.32 189.82 143.32 187.57 143.32 C 187.58 140.19 187.58 137.06 187.62 133.93 Z" />
<path fill="#ffffff" opacity="1.00" d=" M 78.18 140.24 L 78.46 140.47 C 78.38 141.11 78.22 142.38 78.14 143.01 C 77.53 143.06 76.32 143.15 75.71 143.19 C 75.32 141.80 77.21 140.88 78.18 140.24 Z" />
<path fill="#ffffff" opacity="1.00" d=" M 45.59 143.13 C 44.44 144.35 41.81 141.82 43.60 141.06 C 44.79 141.33 45.45 142.02 45.59 143.13 Z" />
<path fill="#ffffff" opacity="1.00" d=" M 42.72 144.41 C 46.03 143.97 49.35 144.34 52.25 146.10 C 52.26 148.53 52.26 150.95 52.25 153.38 C 49.09 153.40 45.93 153.40 42.77 153.38 C 42.76 150.39 42.76 147.40 42.72 144.41 Z" />
<path fill="#ffffff" opacity="1.00" d=" M 152.54 144.25 C 153.56 144.30 154.58 144.35 155.60 144.40 C 155.55 147.39 155.55 150.39 155.57 153.38 C 152.46 153.40 149.36 153.40 146.25 153.38 C 146.26 151.99 146.27 150.61 146.29 149.23 C 148.36 149.23 150.44 149.24 152.52 149.25 C 152.52 147.65 152.53 146.05 152.54 144.45 L 152.54 144.25 Z" />
<path fill="#ffffff" opacity="1.00" d=" M 156.54 144.38 C 159.32 144.32 162.11 144.29 164.89 144.36 C 164.49 145.90 164.55 147.56 165.33 148.98 C 165.82 150.38 166.05 151.84 166.02 153.35 C 162.87 153.41 159.72 153.41 156.57 153.38 C 156.59 150.38 156.58 147.38 156.54 144.38 Z" />
<path fill="#ffffff" opacity="1.00" d=" M 177.76 144.40 C 180.72 144.28 183.68 144.31 186.64 144.37 C 186.58 147.37 186.58 150.38 186.60 153.38 C 183.44 153.40 180.27 153.41 177.11 153.37 C 177.19 151.81 177.36 150.26 177.62 148.72 C 177.90 147.30 178.00 145.83 177.76 144.40 Z" />
<path fill="#ffffff" opacity="1.00" d=" M 187.54 144.38 C 189.81 144.32 192.08 144.32 194.36 144.37 C 194.31 147.38 194.31 150.39 194.33 153.40 C 192.08 153.39 189.83 153.39 187.58 153.38 C 187.59 150.38 187.59 147.38 187.54 144.38 Z" />
<path fill="#ffffff" opacity="1.00" d=" M 4.36 144.33 C 6.52 144.32 8.68 144.32 10.84 144.33 C 10.82 147.35 10.82 150.37 10.85 153.39 C 8.68 153.39 6.52 153.39 4.36 153.39 C 4.38 150.37 4.38 147.35 4.36 144.33 Z" />
<path fill="#ffffff" opacity="1.00" d=" M 11.72 144.33 C 14.92 144.32 18.13 144.32 21.33 144.33 C 21.31 147.35 21.31 150.36 21.30 153.38 C 18.11 153.40 14.93 153.40 11.74 153.38 C 11.73 150.36 11.73 147.35 11.72 144.33 Z" />
<path fill="#ffffff" opacity="1.00" d=" M 22.19 153.34 C 22.24 150.25 21.99 147.14 22.57 144.09 C 23.14 145.78 23.66 147.49 24.18 149.21 C 26.14 149.23 28.10 149.27 30.06 149.23 C 30.42 148.68 31.14 147.57 31.49 147.01 C 31.55 149.13 31.54 151.26 31.53 153.38 C 28.42 153.42 25.30 153.40 22.19 153.34 Z" />
<path fill="#ffffff" opacity="1.00" d=" M 32.50 144.33 C 35.61 144.32 38.73 144.32 41.85 144.34 C 41.82 147.35 41.81 150.37 41.85 153.38 C 38.75 153.40 35.65 153.40 32.55 153.38 C 32.56 150.36 32.54 147.35 32.50 144.33 Z" />
<path fill="#ffffff" opacity="1.00" d=" M 63.54 147.49 C 66.78 146.84 69.94 145.83 72.89 144.33 C 72.84 147.35 72.84 150.36 72.88 153.38 C 69.77 153.40 66.67 153.40 63.57 153.38 C 63.56 151.42 63.56 149.45 63.54 147.49 Z" />
<path fill="#ffffff" opacity="1.00" d=" M 73.75 144.22 C 75.31 144.31 76.87 144.43 78.43 144.57 C 78.43 146.13 78.40 147.70 78.35 149.27 C 79.99 149.26 81.62 149.24 83.25 149.23 C 83.25 150.27 83.26 152.35 83.26 153.39 C 80.10 153.40 76.94 153.40 73.78 153.38 C 73.77 150.32 73.77 147.27 73.75 144.22 Z" />
<path fill="#ffffff" opacity="1.00" d=" M 125.60 144.32 C 127.03 144.32 128.47 144.33 129.90 144.34 C 129.89 145.96 129.87 147.58 129.86 149.20 C 131.60 149.23 133.33 149.27 135.07 149.30 C 135.06 150.65 135.05 152.00 135.04 153.35 C 131.87 153.41 128.70 153.41 125.53 153.38 C 125.56 150.36 125.59 147.34 125.60 144.32 Z" />
<path fill="#ffffff" opacity="1.00" d=" M 53.15 153.36 C 53.19 151.07 53.21 148.79 53.25 146.50 C 56.29 147.33 59.44 147.62 62.58 147.62 C 62.57 149.54 62.57 151.46 62.57 153.38 C 59.43 153.41 56.29 153.41 53.15 153.36 Z" />
<path fill="#ffffff" opacity="1.00" d=" M 84.24 149.23 C 87.34 149.24 90.44 149.24 93.54 149.23 C 93.55 150.61 93.57 151.99 93.58 153.38 C 90.44 153.43 87.30 153.40 84.16 153.32 C 84.19 151.96 84.22 150.59 84.24 149.23 Z" />
<path fill="#ffffff" opacity="1.00" d=" M 104.78 149.24 C 107.96 149.24 111.15 149.24 114.34 149.24 C 114.30 150.62 114.27 152.00 114.26 153.39 C 111.08 153.40 107.91 153.40 104.74 153.38 C 104.74 152.00 104.76 150.62 104.78 149.24 Z" />
<path fill="#ffffff" opacity="1.00" d=" M 115.26 149.23 C 118.36 149.24 121.46 149.24 124.56 149.24 C 124.57 150.61 124.59 152.00 124.61 153.38 C 121.48 153.40 118.35 153.40 115.22 153.38 C 115.24 151.99 115.25 150.61 115.26 149.23 Z" />
<path fill="#ffffff" opacity="1.00" d=" M 135.82 149.25 C 138.97 149.24 142.13 149.24 145.28 149.23 C 145.29 150.61 145.29 152.00 145.30 153.38 C 142.13 153.40 138.96 153.40 135.79 153.38 C 135.80 152.00 135.81 150.62 135.82 149.25 Z" />
<path fill="#ffffff" opacity="1.00" d=" M 166.77 149.24 C 169.94 149.24 173.11 149.24 176.29 149.24 C 176.30 150.62 176.32 152.00 176.33 153.38 C 173.14 153.40 169.95 153.40 166.76 153.38 C 166.76 152.00 166.76 150.62 166.77 149.24 Z" />
<path fill="#ffffff" opacity="1.00" d=" M 4.35 154.42 C 67.68 154.38 131.02 154.31 194.36 154.44 C 194.32 156.84 194.32 159.25 194.32 161.65 C 187.61 161.73 180.90 161.59 174.19 161.73 C 173.54 161.10 172.89 160.46 172.26 159.81 C 172.77 159.32 173.78 158.32 174.28 157.83 C 174.72 158.77 175.20 159.69 175.74 160.58 C 175.76 159.13 175.73 157.68 175.84 156.23 C 174.88 157.57 173.37 157.46 171.92 157.56 C 171.40 158.08 170.38 159.12 169.86 159.65 C 170.03 158.94 170.37 157.54 170.55 156.84 L 169.05 156.44 C 169.12 157.38 169.27 159.25 169.35 160.19 C 169.93 159.94 171.11 159.45 171.69 159.20 C 171.96 159.85 172.50 161.15 172.76 161.80 C 168.53 161.58 164.29 161.69 160.05 161.69 C 160.62 160.60 161.40 159.73 162.42 159.10 C 162.00 158.75 161.17 158.04 160.75 157.69 C 161.05 157.32 161.65 156.59 161.95 156.22 C 160.94 156.39 159.80 156.33 159.01 157.10 C 159.54 157.61 160.61 158.64 161.14 159.16 L 158.75 159.43 L 160.91 159.89 C 159.74 160.67 158.78 162.21 157.12 161.67 C 106.20 161.63 55.28 161.68 4.36 161.65 C 4.37 159.23 4.37 156.83 4.35 154.42 M 163.09 159.79 C 164.34 159.70 164.51 157.38 163.81 156.56 C 162.27 156.36 162.32 158.97 163.09 159.79 M 165.59 156.42 C 164.84 157.50 164.68 158.61 165.10 159.76 C 166.61 159.97 167.13 156.21 165.59 156.42 M 167.11 159.86 C 168.36 159.45 168.70 157.20 167.99 156.17 C 166.56 156.39 166.66 158.80 167.11 159.86 M 179.48 156.10 C 178.91 157.11 178.75 159.41 180.01 159.87 C 180.70 158.90 180.85 156.41 179.48 156.10 M 180.59 157.24 C 183.43 156.31 182.58 158.71 182.67 160.55 C 183.29 159.66 184.52 157.86 185.14 156.96 C 184.87 162.40 188.35 158.16 189.78 156.69 C 189.60 157.83 189.42 158.98 189.26 160.12 C 190.82 159.74 191.65 158.41 191.29 156.86 C 190.21 155.90 188.63 156.67 187.36 156.56 C 187.35 157.03 187.35 157.97 187.34 158.44 L 185.76 158.26 L 186.98 155.92 C 186.41 156.19 185.27 156.72 184.71 156.98 C 183.36 155.91 181.93 156.44 180.59 157.24 Z" />
</g>
</svg>
