<?xml version="1.0" encoding="UTF-8" ?>
<!DOCTYPE svg PUBLIC "-//W3C//DTD SVG 1.1//EN" "http://www.w3.org/Graphics/SVG/1.1/DTD/svg11.dtd">
<svg width="634pt" height="622pt" viewBox="0 0 634 622" version="1.1" xmlns="http://www.w3.org/2000/svg">
<g id="#ffffffff">
<path fill="#ffffff" opacity="1.00" d=" M 276.43 38.69 C 287.07 38.27 297.74 38.14 308.39 38.59 C 316.98 39.43 325.62 39.89 334.20 40.89 C 358.94 45.17 383.51 51.66 406.23 62.53 C 412.89 65.97 420.01 68.51 426.33 72.61 C 447.54 83.76 466.52 98.72 483.97 115.03 C 490.81 122.91 499.10 129.54 504.84 138.33 C 510.79 146.08 517.06 153.63 522.07 162.04 C 528.25 170.44 533.33 179.59 537.96 188.92 C 560.44 233.47 569.78 284.39 565.58 334.04 C 565.29 342.58 563.21 350.92 562.18 359.38 C 558.81 376.90 553.92 394.12 547.64 410.82 C 542.47 422.11 538.39 434.02 531.34 444.34 C 525.73 452.53 521.56 461.64 515.48 469.52 C 511.24 475.79 506.28 481.50 501.23 487.12 C 496.56 494.03 490.27 499.56 484.49 505.49 C 476.75 513.45 467.89 520.18 459.37 527.27 C 452.05 533.08 444.08 538.03 436.17 542.99 C 427.77 546.71 420.65 552.79 412.03 556.06 C 407.32 557.91 403.02 560.64 398.25 562.33 C 385.04 567.42 371.58 571.91 357.89 575.54 C 345.44 577.71 333.12 581.09 320.43 581.56 C 307.00 583.19 293.44 582.61 279.95 582.49 C 259.66 581.66 239.58 577.91 219.95 572.82 C 209.21 569.49 198.56 565.85 188.13 561.65 C 184.59 560.09 181.36 557.92 177.76 556.49 C 168.60 552.80 160.06 547.77 151.77 542.45 C 143.69 538.00 136.47 532.22 128.83 527.10 C 124.43 523.49 120.06 519.85 115.56 516.37 C 108.05 509.24 100.71 501.91 93.52 494.45 C 86.43 485.93 78.98 477.68 72.24 468.87 C 68.35 462.67 63.79 456.87 60.62 450.25 C 58.43 445.69 55.15 441.77 52.96 437.21 C 40.22 411.83 30.55 384.73 25.96 356.65 C 23.91 348.17 23.70 339.41 22.50 330.80 C 22.24 315.23 21.39 299.53 23.43 284.06 C 24.44 265.82 28.95 248.02 33.70 230.46 C 39.04 214.83 44.78 199.22 52.71 184.69 C 55.87 178.24 59.84 172.25 63.20 165.91 C 73.23 149.52 86.07 135.11 98.87 120.87 C 103.91 115.93 108.89 110.93 113.97 106.04 C 121.80 99.10 130.37 93.06 138.79 86.88 C 146.90 80.73 155.98 76.08 164.66 70.80 C 192.75 55.91 223.38 45.82 254.79 40.92 C 261.98 39.98 269.24 39.65 276.43 38.69 M 185.34 77.36 C 154.24 91.86 126.26 112.82 103.26 138.26 C 66.59 178.90 42.85 231.40 37.88 286.00 C 36.04 297.90 36.70 309.99 36.65 321.98 C 38.39 374.78 57.18 426.79 89.33 468.68 C 93.82 475.70 99.99 481.32 105.37 487.62 C 143.19 528.66 194.79 556.63 249.75 566.19 C 291.41 573.36 334.90 570.53 375.04 557.12 C 412.33 545.00 446.54 523.92 474.61 496.61 C 498.97 472.83 518.56 444.19 531.86 412.86 C 548.78 373.06 555.50 328.89 550.89 285.88 C 546.80 241.10 529.90 197.75 503.81 161.21 C 475.80 122.14 436.85 90.88 392.28 72.73 C 326.68 45.49 249.64 47.13 185.34 77.36 Z" />
<path fill="#ffffff" opacity="1.00" d=" M 281.15 65.89 C 287.10 65.62 293.08 65.52 299.03 65.99 C 305.26 66.47 311.48 70.44 313.31 76.62 C 315.77 83.67 313.37 92.88 306.30 96.26 C 298.45 100.10 289.41 98.35 281.00 98.70 C 280.41 93.81 281.08 88.90 281.06 84.00 C 281.13 77.96 280.90 71.93 281.15 65.89 M 289.37 72.21 C 289.48 79.01 289.43 85.81 289.45 92.61 C 293.54 92.57 298.01 92.86 301.61 90.57 C 306.70 86.60 306.81 77.33 301.30 73.69 C 297.76 71.42 293.35 71.85 289.37 72.21 Z" />
<path fill="#ffffff" opacity="1.00" d=" M 258.13 68.30 C 260.70 67.69 263.31 67.25 265.94 66.95 C 268.56 77.44 269.66 88.29 271.78 98.91 C 269.03 99.75 265.31 101.59 262.89 99.19 C 256.58 94.00 250.42 88.59 243.74 83.89 C 244.18 90.53 245.98 96.98 246.68 103.59 C 243.94 104.14 241.18 104.57 238.38 104.74 C 236.62 93.96 234.26 83.24 233.11 72.38 C 236.13 72.05 239.79 70.24 242.39 72.65 C 248.59 77.42 254.42 82.69 260.88 87.11 C 260.34 80.79 258.47 74.65 258.13 68.30 Z" />
<path fill="#ffffff" opacity="1.00" d=" M 328.35 67.19 C 330.78 67.43 333.24 67.68 335.54 68.55 C 340.71 75.41 344.02 83.52 349.09 90.47 C 351.14 84.57 351.63 78.29 353.22 72.27 C 355.99 72.56 358.72 73.12 361.39 73.94 C 359.51 84.64 357.33 95.30 354.84 105.87 C 352.15 105.40 348.46 105.76 346.95 103.01 C 342.87 95.94 338.99 88.76 334.74 81.80 C 331.84 87.61 332.13 94.62 329.95 100.77 C 327.32 100.49 324.70 100.06 322.10 99.56 C 322.18 95.02 323.61 90.68 324.39 86.24 C 325.77 79.90 326.91 73.51 328.35 67.19 Z" />
<path fill="#ffffff" opacity="1.00" d=" M 376.22 79.07 C 383.83 81.77 391.23 85.04 398.64 88.26 C 398.03 90.13 397.34 91.98 396.62 93.82 C 391.27 92.59 386.66 89.34 381.30 88.15 C 380.62 90.10 380.00 92.07 379.47 94.06 C 383.87 96.31 388.80 97.43 392.98 100.13 C 392.41 101.85 391.68 103.50 390.82 105.08 C 385.72 104.34 381.41 101.18 376.38 100.21 C 375.46 102.33 374.65 104.49 374.16 106.75 C 378.85 109.25 384.00 110.71 388.73 113.12 C 388.05 115.01 387.19 116.83 386.11 118.53 C 378.66 115.80 371.43 112.49 364.05 109.60 C 364.31 105.70 366.47 102.33 367.82 98.75 C 370.69 92.22 373.11 85.49 376.22 79.07 Z" />
<path fill="#ffffff" opacity="1.00" d=" M 198.68 83.76 C 201.61 82.44 204.61 81.25 207.72 80.39 C 212.92 85.49 218.04 90.67 223.10 95.91 C 226.29 99.27 229.88 102.28 232.52 106.11 C 229.97 107.57 227.18 108.56 224.26 108.95 C 222.72 107.45 221.19 105.94 219.69 104.40 C 215.09 105.77 210.55 107.36 206.12 109.22 C 205.84 111.57 205.59 113.94 205.35 116.30 C 202.73 117.33 200.08 118.32 197.32 118.91 C 197.41 107.19 198.16 95.47 198.68 83.76 M 206.10 89.99 C 205.82 94.23 205.80 98.49 206.13 102.73 C 209.07 101.76 211.97 100.70 214.84 99.57 C 212.24 96.10 209.14 93.06 206.10 89.99 Z" />
<path fill="#ffffff" opacity="1.00" d=" M 160.94 102.91 C 165.05 98.13 171.36 95.62 177.56 95.29 C 178.71 97.07 179.79 98.89 180.76 100.77 C 176.41 101.64 171.62 102.12 168.12 105.13 C 166.69 106.14 167.37 107.93 167.91 109.22 C 173.73 109.43 179.60 107.12 185.34 108.80 C 190.88 111.50 192.12 119.59 188.03 124.09 C 183.57 128.77 176.85 131.60 170.34 130.71 C 169.39 128.86 168.53 126.97 167.88 124.99 C 172.30 124.71 177.23 124.98 180.78 121.83 C 182.32 120.81 181.86 118.77 181.92 117.21 C 175.94 116.10 169.75 119.38 163.92 117.06 C 158.53 114.86 157.25 107.16 160.94 102.91 Z" />
<path fill="#ffffff" opacity="1.00" d=" M 403.69 109.41 C 401.55 104.31 405.35 97.76 410.98 97.50 C 418.42 97.07 424.83 102.33 428.81 108.16 C 427.99 110.14 426.77 111.90 425.22 113.39 C 422.47 110.23 419.97 106.40 415.85 104.91 C 414.38 104.08 413.14 105.31 412.01 106.06 C 413.84 110.92 418.15 114.33 419.94 119.20 C 422.07 124.49 417.86 131.34 412.04 131.42 C 404.41 131.76 397.64 126.36 394.24 119.85 C 395.22 117.73 396.48 115.75 397.95 113.93 C 400.42 117.78 402.74 122.25 407.28 123.97 C 408.70 124.88 410.09 123.44 411.38 122.97 C 410.62 117.63 405.15 114.55 403.69 109.41 Z" />
<path fill="#ffffff" opacity="1.00" d=" M 463.40 451.47 C 466.97 450.33 468.90 453.98 470.44 456.48 C 474.00 456.90 478.47 457.82 479.21 462.03 C 479.53 466.87 475.23 470.11 472.53 473.57 C 471.13 475.01 469.15 478.05 466.97 476.03 C 461.94 471.40 457.03 466.62 452.00 461.99 C 455.10 457.89 458.50 453.44 463.40 451.47 M 459.70 459.90 C 460.22 460.89 460.74 461.90 461.26 462.91 C 464.10 463.28 465.78 459.73 464.49 457.43 C 462.37 456.88 460.86 458.34 459.70 459.90 M 466.31 466.69 C 467.07 467.78 468.13 468.60 469.09 469.53 C 471.94 468.31 474.69 464.72 471.78 462.04 C 469.69 462.97 466.27 463.93 466.31 466.69 Z" />
<path fill="#ffffff" opacity="1.00" d=" M 129.47 453.14 C 131.39 454.16 133.13 455.81 133.65 457.99 C 132.29 462.16 129.79 465.86 128.27 469.98 C 132.57 469.29 136.64 467.51 140.99 467.13 C 143.49 466.86 144.29 469.74 144.81 471.63 C 136.64 473.99 128.49 476.86 120.02 477.87 C 119.23 475.31 120.66 472.92 121.59 470.63 C 124.24 464.81 126.91 459.00 129.47 453.14 Z" />
<path fill="#ffffff" opacity="1.00" d=" M 433.31 479.25 C 437.18 475.61 440.94 469.98 446.83 470.22 C 449.89 470.14 450.79 473.34 451.62 475.66 C 454.37 476.53 457.98 476.51 459.58 479.35 C 460.17 481.97 460.35 485.23 458.26 487.28 C 455.19 490.49 452.06 493.81 448.13 495.96 C 443.17 490.41 437.63 485.32 433.31 479.25 M 441.13 477.26 C 440.76 479.01 441.93 480.32 443.06 481.48 C 445.38 480.67 447.13 478.59 445.91 476.11 C 444.24 476.11 442.62 476.50 441.13 477.26 M 447.34 484.34 C 446.75 486.29 448.67 487.48 449.98 488.50 C 452.62 487.31 455.91 483.39 452.01 481.50 C 450.35 482.24 448.48 482.82 447.34 484.34 Z" />
<path fill="#ffffff" opacity="1.00" d=" M 143.33 477.42 C 152.13 474.46 162.10 482.89 160.99 492.00 C 160.88 497.22 156.32 501.96 151.01 501.85 C 142.18 502.95 133.71 493.74 135.98 485.02 C 136.59 481.24 139.78 478.45 143.33 477.42 M 147.27 482.37 C 143.14 483.05 139.79 487.96 141.98 491.93 C 143.71 496.99 151.62 498.13 154.30 493.31 C 157.85 488.50 152.76 481.74 147.27 482.37 Z" />
<path fill="#ffffff" opacity="1.00" d=" M 423.30 487.11 C 424.78 485.87 426.98 483.03 428.94 485.02 C 432.01 488.95 435.42 492.81 437.50 497.38 C 439.60 504.07 433.76 509.87 427.86 511.76 C 424.63 512.63 420.58 512.52 418.30 509.71 C 414.96 505.82 411.92 501.64 409.28 497.24 C 410.76 496.16 412.29 495.15 413.87 494.23 C 417.61 497.60 419.63 502.43 423.39 505.75 C 427.53 508.49 433.55 503.10 431.30 498.67 C 428.90 494.64 425.43 491.33 423.30 487.11 Z" />
<path fill="#ffffff" opacity="1.00" d=" M 170.28 493.14 C 172.25 493.38 173.97 494.39 175.14 495.99 C 172.71 501.41 168.77 505.92 165.98 511.14 C 168.78 513.74 172.29 515.39 175.13 517.95 C 174.63 518.90 174.13 519.87 173.63 520.84 C 171.34 520.89 169.47 519.48 167.64 518.31 C 164.48 516.21 161.25 514.22 158.28 511.86 C 161.83 505.36 166.01 499.19 170.28 493.14 Z" />
<path fill="#ffffff" opacity="1.00" d=" M 189.45 505.39 C 191.44 504.65 193.21 506.36 194.86 507.23 C 193.02 512.43 189.85 517.04 187.97 522.23 C 187.08 523.60 188.80 524.58 189.74 525.23 C 191.89 526.58 194.32 527.39 196.52 528.65 C 197.39 530.00 196.09 531.51 195.78 532.86 C 190.33 531.06 185.40 528.03 180.26 525.52 C 180.39 521.75 182.69 518.60 184.30 515.33 C 186.12 512.07 187.42 508.53 189.45 505.39 Z" />
<path fill="#ffffff" opacity="1.00" d=" M 390.28 508.43 C 391.70 507.51 393.20 506.71 394.78 506.09 C 398.84 510.69 400.51 516.94 404.86 521.29 C 408.22 519.66 411.37 517.61 414.80 516.12 C 415.46 517.32 416.11 518.53 416.76 519.75 C 411.80 522.99 406.74 526.31 401.13 528.31 C 398.51 524.38 396.36 520.16 393.90 516.13 C 392.49 513.67 390.85 511.25 390.28 508.43 Z" />
<path fill="#ffffff" opacity="1.00" d=" M 378.37 514.41 C 380.18 513.50 382.06 512.72 384.01 512.15 C 383.53 516.10 382.24 519.92 381.92 523.90 C 385.04 527.75 390.58 528.47 394.51 531.35 C 394.73 533.80 390.81 533.93 388.98 534.56 C 384.79 533.75 381.47 530.58 377.28 529.64 C 378.33 532.41 379.38 535.18 380.30 537.99 C 379.03 539.64 377.01 540.18 375.11 540.75 C 371.97 533.67 368.70 526.60 366.31 519.23 C 367.90 518.74 369.49 518.26 371.09 517.78 C 373.12 519.85 373.95 522.70 375.33 525.20 C 376.99 521.81 377.12 517.94 378.37 514.41 Z" />
<path fill="#ffffff" opacity="1.00" d=" M 210.31 515.17 C 215.85 515.08 221.00 518.01 225.97 520.20 C 225.56 521.42 225.16 522.65 224.76 523.88 C 221.41 523.26 218.36 521.65 215.03 520.98 C 213.40 521.32 213.61 523.41 213.23 524.67 C 216.41 525.92 219.64 527.05 222.78 528.42 C 222.41 529.54 222.06 530.66 221.71 531.79 C 218.03 531.68 214.67 530.03 211.15 529.16 C 210.69 530.65 210.35 532.18 210.15 533.73 C 213.32 535.10 216.60 536.17 219.83 537.39 C 219.57 538.86 219.91 540.88 217.96 541.23 C 212.80 539.95 207.84 537.93 202.98 535.80 C 203.84 530.87 205.96 526.31 207.46 521.57 C 208.27 519.39 208.84 517.03 210.31 515.17 Z" />
<path fill="#ffffff" opacity="1.00" d=" M 230.04 521.28 C 232.16 521.59 234.23 522.12 236.27 522.77 C 237.55 525.18 238.80 527.61 240.06 530.04 C 242.17 528.57 244.08 526.82 246.30 525.51 C 248.61 525.22 250.80 526.31 252.96 526.97 C 249.70 530.43 245.54 532.89 242.30 536.36 C 240.14 539.37 240.19 543.30 239.38 546.80 C 237.34 546.64 235.31 546.31 233.33 545.82 C 233.80 542.20 235.02 538.70 235.17 535.05 C 233.99 530.27 231.03 526.13 230.04 521.28 Z" />
<path fill="#ffffff" opacity="1.00" d=" M 257.33 528.16 C 262.16 527.88 267.35 528.18 271.75 530.34 C 275.29 532.61 273.97 536.93 272.38 539.98 C 273.90 542.57 276.03 545.98 273.76 548.80 C 272.35 551.13 269.66 552.19 267.00 551.80 C 262.77 551.63 258.57 550.94 254.45 549.99 C 255.46 542.72 256.08 535.39 257.33 528.16 M 262.50 533.44 C 262.40 534.59 262.29 535.76 262.18 536.93 C 264.06 537.49 266.00 537.36 267.88 536.87 C 267.74 535.75 267.60 534.64 267.47 533.54 C 265.83 533.17 264.13 532.82 262.50 533.44 M 262.23 542.01 C 260.70 543.05 261.33 545.23 261.07 546.80 C 263.34 547.17 265.65 547.19 267.92 546.80 C 269.46 543.27 265.20 541.02 262.23 542.01 Z" />
<path fill="#ffffff" opacity="1.00" d=" M 333.25 528.24 C 335.12 527.96 337.00 527.82 338.89 527.86 C 340.60 533.44 341.50 539.23 343.23 544.81 C 347.15 544.51 350.98 543.57 354.90 543.25 C 355.06 544.65 355.16 546.07 354.81 547.46 C 349.27 548.45 343.85 550.02 338.28 550.76 C 336.18 543.37 334.74 535.78 333.25 528.24 Z" />
<path fill="#ffffff" opacity="1.00" d=" M 289.37 531.30 C 291.52 531.09 293.69 531.05 295.86 531.14 C 297.72 533.82 298.93 536.85 300.14 539.86 C 302.02 544.56 304.39 549.07 305.87 553.93 C 304.04 554.06 302.08 554.65 300.31 553.93 C 299.06 552.62 298.03 551.14 296.95 549.72 C 294.04 549.44 291.11 549.40 288.22 549.82 C 287.34 551.09 286.44 552.35 285.55 553.62 C 283.72 553.71 281.90 553.76 280.08 553.78 C 282.19 545.93 286.32 538.81 289.37 531.30 M 290.03 545.08 C 291.96 545.18 293.91 545.19 295.85 545.11 C 295.14 542.61 294.15 540.21 292.84 537.97 C 291.05 539.92 290.54 542.57 290.03 545.08 Z" />
<path fill="#ffffff" opacity="1.00" d=" M 311.23 531.07 C 313.02 530.75 314.86 530.66 316.67 530.98 C 317.53 536.82 317.58 542.76 318.52 548.60 C 322.53 548.72 326.52 548.10 330.52 548.43 C 330.53 549.58 330.55 550.74 330.58 551.91 C 324.90 553.17 319.07 553.68 313.26 553.71 C 311.98 546.24 311.14 538.66 311.23 531.07 Z" />
</g>
<g id="#deb306ff">
<path fill="#deb306" opacity="1.00" d=" M 272.42 28.56 C 326.37 24.36 381.51 35.98 429.02 61.92 C 436.58 65.79 444.01 69.97 450.75 75.16 C 468.55 86.95 485.04 100.76 499.72 116.29 C 511.56 127.73 520.87 141.40 530.22 154.87 C 533.88 160.52 537.11 166.45 541.04 171.94 C 543.70 175.94 544.89 180.69 547.38 184.79 C 553.09 194.12 556.59 204.57 560.30 214.81 C 566.59 231.80 570.97 249.48 573.74 267.38 C 576.53 279.71 576.02 292.46 576.90 305.00 C 577.59 310.33 577.21 315.70 576.65 321.01 C 576.12 348.02 570.84 374.81 562.48 400.44 C 558.39 411.19 554.78 422.16 549.50 432.41 C 540.74 450.27 530.36 467.37 518.17 483.11 C 510.84 492.09 503.51 501.10 495.38 509.40 C 487.31 518.07 477.77 525.15 468.86 532.91 C 455.55 543.32 441.26 552.43 426.48 560.60 C 410.36 569.01 393.44 575.81 376.10 581.27 C 361.64 585.45 346.96 589.34 331.92 590.62 C 294.70 596.17 256.45 593.13 220.09 583.64 C 194.85 576.22 170.08 566.50 147.80 552.36 C 140.00 547.88 132.78 542.52 125.19 537.73 C 118.49 531.75 111.09 526.61 104.59 520.40 C 98.53 514.80 92.77 508.90 86.93 503.08 C 80.51 496.73 75.41 489.24 69.70 482.28 C 64.72 476.14 60.72 469.31 56.01 462.99 C 52.87 458.05 49.47 453.24 46.99 447.92 C 43.21 440.39 38.80 433.17 35.65 425.35 C 21.69 393.35 13.26 358.89 11.70 323.99 C 11.48 309.38 11.15 294.69 13.08 280.17 C 15.78 253.54 22.65 227.38 32.75 202.63 C 42.04 179.77 54.87 158.47 69.66 138.77 C 73.07 133.27 77.53 128.61 82.01 124.00 C 90.34 114.04 99.75 105.03 109.57 96.55 C 115.13 90.61 122.15 86.42 128.49 81.42 C 138.77 74.52 148.78 67.07 160.05 61.82 C 165.74 59.12 170.95 55.46 176.79 53.05 C 184.16 50.05 191.25 46.30 198.92 44.08 C 212.15 39.94 225.38 35.64 239.01 33.02 C 250.10 31.17 261.19 29.36 272.42 28.56 M 276.43 38.69 C 269.24 39.65 261.98 39.98 254.79 40.92 C 223.38 45.82 192.75 55.91 164.66 70.80 C 155.98 76.08 146.90 80.73 138.79 86.88 C 130.37 93.06 121.80 99.10 113.97 106.04 C 108.89 110.93 103.91 115.93 98.87 120.87 C 86.07 135.11 73.23 149.52 63.20 165.91 C 59.84 172.25 55.87 178.24 52.71 184.69 C 44.78 199.22 39.04 214.83 33.70 230.46 C 28.95 248.02 24.44 265.82 23.43 284.06 C 21.39 299.53 22.24 315.23 22.50 330.80 C 23.70 339.41 23.91 348.17 25.96 356.65 C 30.55 384.73 40.22 411.83 52.96 437.21 C 55.15 441.77 58.43 445.69 60.62 450.25 C 63.79 456.87 68.35 462.67 72.24 468.87 C 78.98 477.68 86.43 485.93 93.52 494.45 C 100.71 501.91 108.05 509.24 115.56 516.37 C 120.06 519.85 124.43 523.49 128.83 527.10 C 136.47 532.22 143.69 538.00 151.77 542.45 C 160.06 547.77 168.60 552.80 177.76 556.49 C 181.36 557.92 184.59 560.09 188.13 561.65 C 198.56 565.85 209.21 569.49 219.95 572.82 C 239.58 577.91 259.66 581.66 279.95 582.49 C 293.44 582.61 307.00 583.19 320.43 581.56 C 333.12 581.09 345.44 577.71 357.89 575.54 C 371.58 571.91 385.04 567.42 398.25 562.33 C 403.02 560.64 407.32 557.91 412.03 556.06 C 420.65 552.79 427.77 546.71 436.17 542.99 C 444.08 538.03 452.05 533.08 459.37 527.27 C 467.89 520.18 476.75 513.45 484.49 505.49 C 490.27 499.56 496.56 494.03 501.23 487.12 C 506.28 481.50 511.24 475.79 515.48 469.52 C 521.56 461.64 525.73 452.53 531.34 444.34 C 538.39 434.02 542.47 422.11 547.64 410.82 C 553.92 394.12 558.81 376.90 562.18 359.38 C 563.21 350.92 565.29 342.58 565.58 334.04 C 569.78 284.39 560.44 233.47 537.96 188.92 C 533.33 179.59 528.25 170.44 522.07 162.04 C 517.06 153.63 510.79 146.08 504.84 138.33 C 499.10 129.54 490.81 122.91 483.97 115.03 C 466.52 98.72 447.54 83.76 426.33 72.61 C 420.01 68.51 412.89 65.97 406.23 62.53 C 383.51 51.66 358.94 45.17 334.20 40.89 C 325.62 39.89 316.98 39.43 308.39 38.59 C 297.74 38.14 287.07 38.27 276.43 38.69 Z" />
<path fill="#deb306" opacity="1.00" d=" M 242.92 123.84 C 250.18 122.39 258.13 123.66 264.57 127.33 C 268.72 129.51 269.59 134.43 272.18 137.94 C 275.31 142.10 274.67 147.59 274.33 152.46 C 273.50 159.81 266.27 163.58 262.61 169.41 C 262.03 170.15 261.47 170.88 260.91 171.63 C 253.97 173.15 246.70 173.28 239.75 171.84 C 236.46 170.14 233.93 167.26 231.26 164.74 C 228.59 162.29 228.49 158.50 227.56 155.25 C 226.46 151.00 224.33 146.55 225.87 142.13 C 227.22 139.15 229.05 136.41 230.45 133.44 C 232.61 128.28 238.42 126.42 242.92 123.84 Z" />
<path fill="#deb306" opacity="1.00" d=" M 274.15 454.34 C 274.28 450.64 277.87 447.67 281.53 448.14 C 282.29 452.23 282.80 456.51 281.36 460.53 C 280.46 460.54 279.56 460.57 278.67 460.63 C 278.31 458.62 277.90 456.63 277.49 454.64 C 276.38 454.54 275.26 454.44 274.15 454.34 Z" />
<path fill="#deb306" opacity="1.00" d=" M 288.43 448.44 C 291.11 448.07 293.82 448.15 296.51 448.48 C 300.47 453.43 298.12 460.23 294.67 464.73 C 293.74 465.84 292.29 466.30 291.04 466.94 C 290.81 466.44 290.35 465.46 290.12 464.97 C 290.58 463.67 291.08 462.38 291.57 461.10 C 289.85 459.96 287.74 459.16 286.61 457.36 C 285.67 454.27 286.25 450.86 288.43 448.44 M 290.46 452.62 C 290.44 454.01 290.26 455.51 291.13 456.72 C 291.73 456.68 292.92 456.59 293.52 456.54 C 293.82 455.40 294.06 454.25 294.24 453.09 C 293.48 451.09 291.88 452.00 290.46 452.62 Z" />
<path fill="#deb306" opacity="1.00" d=" M 300.40 448.49 C 304.55 447.95 308.75 448.06 312.91 448.40 C 312.34 452.51 310.52 456.27 309.13 460.13 C 308.11 462.61 307.34 465.44 305.02 467.06 C 304.59 466.74 303.73 466.09 303.29 465.77 C 303.49 461.04 306.30 456.99 306.87 452.35 C 304.74 451.94 302.60 451.61 300.46 451.33 C 300.44 450.37 300.42 449.43 300.40 448.49 Z" />
<path fill="#deb306" opacity="1.00" d=" M 314.64 452.10 C 316.41 449.28 319.21 447.56 322.61 448.18 C 322.68 452.36 322.71 456.55 322.51 460.73 C 321.26 460.59 320.01 460.51 318.79 460.27 C 317.12 457.72 316.16 454.75 314.64 452.10 Z" />
</g>
<g id="#537abbff">
<path fill="#537abb" opacity="1.00" d=" M 185.34 77.36 C 249.64 47.13 326.68 45.49 392.28 72.73 C 436.85 90.88 475.80 122.14 503.81 161.21 C 529.90 197.75 546.80 241.10 550.89 285.88 C 513.83 306.22 476.95 326.90 439.83 347.13 C 436.81 343.49 432.66 341.01 428.03 340.08 C 449.34 311.42 470.93 282.96 492.36 254.39 C 495.37 250.35 498.61 246.45 501.09 242.04 C 496.75 244.58 493.32 248.30 489.63 251.64 C 462.52 275.18 435.61 298.94 408.55 322.54 C 403.94 326.40 399.67 330.69 394.68 334.08 C 393.35 333.84 392.03 333.66 390.71 333.52 C 392.93 326.26 396.60 319.58 399.68 312.67 C 413.13 283.46 426.58 254.25 440.00 225.02 C 442.86 218.73 446.37 212.69 448.19 205.97 C 444.34 209.95 441.30 214.59 437.97 218.98 C 415.65 248.68 393.45 278.47 371.26 308.26 C 366.94 313.90 362.89 319.76 358.15 325.07 C 364.05 296.38 370.82 267.87 376.86 239.21 C 376.47 239.41 375.68 239.80 375.28 239.99 C 375.83 238.00 377.27 235.88 376.34 233.79 C 374.90 230.50 372.97 227.40 372.03 223.90 C 373.75 227.41 375.78 230.77 377.82 234.10 C 381.43 219.72 384.38 205.18 387.65 190.72 C 388.56 186.82 389.37 182.88 389.83 178.90 C 386.52 184.75 384.10 191.04 381.15 197.07 C 377.66 204.26 375.21 212.02 370.65 218.65 C 364.26 212.05 360.78 203.08 360.26 193.97 C 359.61 189.21 360.04 183.91 357.23 179.77 C 354.18 176.61 349.92 175.05 345.99 173.34 C 345.11 174.46 343.64 175.45 343.77 177.06 C 344.67 182.03 347.96 186.27 348.52 191.33 C 348.82 192.70 347.75 193.72 347.12 194.80 C 344.59 193.88 342.00 191.20 339.22 192.68 C 340.95 195.56 343.11 198.22 345.94 200.09 C 348.68 202.20 352.30 203.60 353.77 206.97 C 357.47 214.74 361.77 222.55 362.38 231.32 C 362.50 232.72 362.03 234.07 361.70 235.41 C 356.25 235.47 350.74 234.99 345.35 236.00 C 342.21 236.55 339.07 237.09 335.90 237.49 C 337.10 230.96 344.94 228.43 346.38 221.96 C 346.95 215.34 344.16 208.15 338.34 204.59 C 335.31 202.32 331.40 202.44 327.81 202.13 C 330.44 201.88 333.09 201.92 335.71 201.51 C 332.89 200.95 330.01 201.47 327.18 201.68 C 326.12 189.44 327.08 177.15 326.67 164.89 C 323.15 177.57 322.02 190.78 318.46 203.45 C 316.81 203.84 315.24 204.64 314.31 206.11 C 312.13 209.25 309.53 212.11 307.60 215.42 C 307.10 218.77 310.19 221.32 311.63 224.07 C 310.56 226.54 308.84 229.03 305.99 229.49 C 301.69 228.15 297.73 225.75 293.20 225.16 C 286.04 224.05 278.87 222.73 272.06 220.17 C 272.78 220.14 274.20 220.07 274.92 220.04 C 273.20 209.62 270.03 199.50 267.69 189.20 C 266.05 182.59 264.62 175.92 262.61 169.41 C 266.27 163.58 273.50 159.81 274.33 152.46 C 274.67 147.59 275.31 142.10 272.18 137.94 C 269.59 134.43 268.72 129.51 264.57 127.33 C 258.13 123.66 250.18 122.39 242.92 123.84 C 238.42 126.42 232.61 128.28 230.45 133.44 C 229.05 136.41 227.22 139.15 225.87 142.13 C 224.33 146.55 226.46 151.00 227.56 155.25 C 228.49 158.50 228.59 162.29 231.26 164.74 C 233.93 167.26 236.46 170.14 239.75 171.84 C 246.70 173.28 253.97 173.15 260.91 171.63 C 261.70 181.07 261.14 190.54 261.36 200.00 C 261.49 204.66 261.29 209.33 260.41 213.92 C 254.09 210.08 247.53 206.66 241.24 202.77 C 233.72 198.91 225.39 195.89 219.83 189.18 C 213.28 181.29 204.01 175.01 193.51 174.50 C 192.96 175.37 192.40 176.24 191.85 177.11 C 194.69 180.29 199.01 182.68 199.72 187.24 C 204.62 210.25 209.84 233.19 214.82 256.19 C 219.70 279.17 225.35 302.01 229.76 325.09 C 225.54 320.59 222.22 315.36 218.51 310.46 C 195.64 280.00 172.93 249.42 150.04 218.97 C 146.67 214.61 143.78 209.86 139.87 205.94 C 140.77 209.79 142.33 213.43 144.14 216.93 C 147.68 223.84 150.75 230.96 154.02 238.00 C 166.95 266.36 180.15 294.61 193.06 322.98 C 195.77 328.95 198.91 334.74 201.05 340.95 C 195.31 337.14 190.64 332.03 185.34 327.68 C 165.58 310.44 145.90 293.10 126.16 275.83 C 115.15 266.17 103.91 256.78 93.18 246.80 C 91.51 245.32 89.65 244.07 87.76 242.89 C 90.69 248.50 94.94 253.24 98.70 258.30 C 123.61 291.40 148.35 324.62 173.31 357.68 C 174.45 359.27 175.43 360.97 176.39 362.68 C 155.76 351.80 135.65 339.95 115.14 328.86 C 89.37 314.59 63.62 300.31 37.88 286.00 C 42.85 231.40 66.59 178.90 103.26 138.26 C 126.26 112.82 154.24 91.86 185.34 77.36 M 281.15 65.89 C 280.90 71.93 281.13 77.96 281.06 84.00 C 281.08 88.90 280.41 93.81 281.00 98.70 C 289.41 98.35 298.45 100.10 306.30 96.26 C 313.37 92.88 315.77 83.67 313.31 76.62 C 311.48 70.44 305.26 66.47 299.03 65.99 C 293.08 65.52 287.10 65.62 281.15 65.89 M 258.13 68.30 C 258.47 74.65 260.34 80.79 260.88 87.11 C 254.42 82.69 248.59 77.42 242.39 72.65 C 239.79 70.24 236.13 72.05 233.11 72.38 C 234.26 83.24 236.62 93.96 238.38 104.74 C 241.18 104.57 243.94 104.14 246.68 103.59 C 245.98 96.98 244.18 90.53 243.74 83.89 C 250.42 88.59 256.58 94.00 262.89 99.19 C 265.31 101.59 269.03 99.75 271.78 98.91 C 269.66 88.29 268.56 77.44 265.94 66.95 C 263.31 67.25 260.70 67.69 258.13 68.30 M 328.35 67.19 C 326.91 73.51 325.77 79.90 324.39 86.24 C 323.61 90.68 322.18 95.02 322.10 99.56 C 324.70 100.06 327.32 100.49 329.95 100.77 C 332.13 94.62 331.84 87.61 334.74 81.80 C 338.99 88.76 342.87 95.94 346.95 103.01 C 348.46 105.76 352.15 105.40 354.84 105.87 C 357.33 95.30 359.51 84.64 361.39 73.94 C 358.72 73.12 355.99 72.56 353.22 72.27 C 351.63 78.29 351.14 84.57 349.09 90.47 C 344.02 83.52 340.71 75.41 335.54 68.55 C 333.24 67.68 330.78 67.43 328.35 67.19 M 376.22 79.07 C 373.11 85.49 370.69 92.22 367.82 98.75 C 366.47 102.33 364.31 105.70 364.05 109.60 C 371.43 112.49 378.66 115.80 386.11 118.53 C 387.19 116.83 388.05 115.01 388.73 113.12 C 384.00 110.71 378.85 109.25 374.16 106.75 C 374.65 104.49 375.46 102.33 376.38 100.21 C 381.41 101.18 385.72 104.34 390.82 105.08 C 391.68 103.50 392.41 101.85 392.98 100.13 C 388.80 97.43 383.87 96.31 379.47 94.06 C 380.00 92.07 380.62 90.10 381.30 88.15 C 386.66 89.34 391.27 92.59 396.62 93.82 C 397.34 91.98 398.03 90.13 398.64 88.26 C 391.23 85.04 383.83 81.77 376.22 79.07 M 198.68 83.76 C 198.16 95.47 197.41 107.19 197.32 118.91 C 200.08 118.32 202.73 117.33 205.35 116.30 C 205.59 113.94 205.84 111.57 206.12 109.22 C 210.55 107.36 215.09 105.77 219.69 104.40 C 221.19 105.94 222.72 107.45 224.26 108.95 C 227.18 108.56 229.97 107.57 232.52 106.11 C 229.88 102.28 226.29 99.27 223.10 95.91 C 218.04 90.67 212.92 85.49 207.72 80.39 C 204.61 81.25 201.61 82.44 198.68 83.76 M 160.94 102.91 C 157.25 107.16 158.53 114.86 163.92 117.06 C 169.75 119.38 175.94 116.10 181.92 117.21 C 181.86 118.77 182.32 120.81 180.78 121.83 C 177.23 124.98 172.30 124.71 167.88 124.99 C 168.53 126.97 169.39 128.86 170.34 130.71 C 176.85 131.60 183.57 128.77 188.03 124.09 C 192.12 119.59 190.88 111.50 185.34 108.80 C 179.60 107.12 173.73 109.43 167.91 109.22 C 167.37 107.93 166.69 106.14 168.12 105.13 C 171.62 102.12 176.41 101.64 180.76 100.77 C 179.79 98.89 178.71 97.07 177.56 95.29 C 171.36 95.62 165.05 98.13 160.94 102.91 M 403.69 109.41 C 405.15 114.55 410.62 117.63 411.38 122.97 C 410.09 123.44 408.70 124.88 407.28 123.97 C 402.74 122.25 400.42 117.78 397.95 113.93 C 396.48 115.75 395.22 117.73 394.24 119.85 C 397.64 126.36 404.41 131.76 412.04 131.42 C 417.86 131.34 422.07 124.49 419.94 119.20 C 418.15 114.33 413.84 110.92 412.01 106.06 C 413.14 105.31 414.38 104.08 415.85 104.91 C 419.97 106.40 422.47 110.23 425.22 113.39 C 426.77 111.90 427.99 110.14 428.81 108.16 C 424.83 102.33 418.42 97.07 410.98 97.50 C 405.35 97.76 401.55 104.31 403.69 109.41 Z" />
<path fill="#537abb" opacity="1.00" d=" M 289.37 72.21 C 293.35 71.85 297.76 71.42 301.30 73.69 C 306.81 77.33 306.70 86.60 301.61 90.57 C 298.01 92.86 293.54 92.57 289.45 92.61 C 289.43 85.81 289.48 79.01 289.37 72.21 Z" />
<path fill="#537abb" opacity="1.00" d=" M 206.10 89.99 C 209.14 93.06 212.24 96.10 214.84 99.57 C 211.97 100.70 209.07 101.76 206.13 102.73 C 205.80 98.49 205.82 94.23 206.10 89.99 Z" />
<path fill="#537abb" opacity="1.00" d=" M 200.26 182.76 C 205.32 186.31 209.13 191.26 213.86 195.19 C 223.49 203.56 232.28 212.86 242.25 220.83 C 248.34 225.69 256.00 227.74 262.64 231.65 C 261.12 233.02 261.14 235.07 261.18 236.97 C 261.48 259.31 261.23 281.66 261.41 304.00 C 261.46 307.45 261.34 310.91 261.03 314.35 C 259.93 312.61 258.85 310.86 257.95 309.02 C 238.90 266.86 219.40 224.89 200.26 182.76 Z" />
<path fill="#537abb" opacity="1.00" d=" M 338.15 256.06 C 344.06 254.11 349.96 252.12 355.95 250.40 C 354.57 256.58 351.32 262.06 348.79 267.79 C 344.24 277.88 339.65 287.94 335.00 297.98 C 332.39 303.48 330.33 309.26 326.95 314.36 C 326.23 298.14 326.92 281.88 326.67 265.65 C 330.26 262.22 333.27 257.74 338.15 256.06 Z" />
<path fill="#537abb" opacity="1.00" d=" M 411.03 362.86 C 413.63 358.90 416.15 354.63 420.08 351.84 C 421.77 351.47 423.51 351.56 425.23 351.61 C 427.37 351.93 429.49 352.40 431.52 353.18 C 423.88 354.35 418.23 360.41 411.03 362.86 Z" />
<path fill="#537abb" opacity="1.00" d=" M 256.26 421.35 C 261.37 420.35 267.69 420.34 271.50 424.47 C 273.80 426.72 272.36 430.09 272.59 432.89 C 273.69 435.30 276.54 433.69 278.44 433.42 C 289.97 430.04 302.22 429.13 314.13 430.71 C 321.12 431.57 327.08 435.65 333.82 437.36 C 337.26 438.63 339.30 434.23 342.63 434.44 C 347.71 434.52 352.81 435.45 357.54 437.35 C 357.59 439.80 357.83 442.28 357.46 444.72 C 356.58 446.62 354.53 447.65 352.93 448.89 C 343.70 454.94 334.47 461.01 325.67 467.69 C 321.31 470.97 316.08 474.94 316.12 480.98 C 316.57 487.53 319.43 493.66 322.78 499.21 C 323.43 500.17 323.68 501.31 323.69 502.47 C 313.47 503.10 303.21 502.63 292.98 502.68 C 288.22 502.34 283.38 503.05 278.70 502.00 C 279.75 494.98 286.17 490.02 286.67 482.80 C 287.38 478.10 282.96 474.84 279.55 472.50 C 267.67 466.48 254.24 460.86 247.02 448.99 C 240.84 439.58 245.15 424.72 256.26 421.35 M 289.24 440.18 C 288.83 441.04 288.42 441.91 288.01 442.78 C 289.31 442.80 290.61 442.81 291.92 442.83 C 291.75 442.27 291.42 441.15 291.26 440.59 C 290.75 440.48 289.75 440.28 289.24 440.18 M 274.15 454.34 C 275.26 454.44 276.38 454.54 277.49 454.64 C 277.90 456.63 278.31 458.62 278.67 460.63 C 279.56 460.57 280.46 460.54 281.36 460.53 C 282.80 456.51 282.29 452.23 281.53 448.14 C 277.87 447.67 274.28 450.64 274.15 454.34 M 288.43 448.44 C 286.25 450.86 285.67 454.27 286.61 457.36 C 287.74 459.16 289.85 459.96 291.57 461.10 C 291.08 462.38 290.58 463.67 290.12 464.97 C 290.35 465.46 290.81 466.44 291.04 466.94 C 292.29 466.30 293.74 465.84 294.67 464.73 C 298.12 460.23 300.47 453.43 296.51 448.48 C 293.82 448.15 291.11 448.07 288.43 448.44 M 300.40 448.49 C 300.42 449.43 300.44 450.37 300.46 451.33 C 302.60 451.61 304.74 451.94 306.87 452.35 C 306.30 456.99 303.49 461.04 303.29 465.77 C 303.73 466.09 304.59 466.74 305.02 467.06 C 307.34 465.44 308.11 462.61 309.13 460.13 C 310.52 456.27 312.34 452.51 312.91 448.40 C 308.75 448.06 304.55 447.95 300.40 448.49 M 314.64 452.10 C 316.16 454.75 317.12 457.72 318.79 460.27 C 320.01 460.51 321.26 460.59 322.51 460.73 C 322.71 456.55 322.68 452.36 322.61 448.18 C 319.21 447.56 316.41 449.28 314.64 452.10 Z" />
<path fill="#537abb" opacity="1.00" d=" M 290.46 452.62 C 291.88 452.00 293.48 451.09 294.24 453.09 C 294.06 454.25 293.82 455.40 293.52 456.54 C 292.92 456.59 291.73 456.68 291.13 456.72 C 290.26 455.51 290.44 454.01 290.46 452.62 Z" />
</g>
<g id="#85bbe7ff">
<path fill="#85bbe7" opacity="1.00" d=" M 318.46 203.45 C 322.02 190.78 323.15 177.57 326.67 164.89 C 327.08 177.15 326.12 189.44 327.18 201.68 C 324.46 203.06 321.56 204.18 318.46 203.45 Z" />
<path fill="#85bbe7" opacity="1.00" d=" M 260.91 171.63 C 261.47 170.88 262.03 170.15 262.61 169.41 C 264.62 175.92 266.05 182.59 267.69 189.20 C 270.03 199.50 273.20 209.62 274.92 220.04 C 274.20 220.07 272.78 220.14 272.06 220.17 C 267.84 218.81 263.72 216.93 260.41 213.92 C 261.29 209.33 261.49 204.66 261.36 200.00 C 261.14 190.54 261.70 181.07 260.91 171.63 Z" />
<path fill="#85bbe7" opacity="1.00" d=" M 191.85 177.11 C 194.63 179.03 197.51 180.80 200.26 182.76 C 219.40 224.89 238.90 266.86 257.95 309.02 C 258.85 310.86 259.93 312.61 261.03 314.35 C 261.34 310.91 261.46 307.45 261.41 304.00 C 261.23 281.66 261.48 259.31 261.18 236.97 C 261.14 235.07 261.12 233.02 262.64 231.65 C 266.19 233.94 269.90 236.14 272.87 239.18 C 274.69 240.92 274.66 243.61 275.14 245.91 C 275.85 251.61 277.29 257.23 277.38 262.99 C 277.41 268.92 275.23 274.54 274.47 280.36 C 273.20 289.19 273.89 298.13 273.54 307.01 C 273.22 313.76 274.16 320.49 275.82 327.02 C 277.26 332.50 277.27 338.32 279.53 343.58 C 283.29 352.18 285.13 361.45 288.80 370.08 C 290.87 374.76 292.19 380.25 296.39 383.57 C 300.55 386.14 305.38 387.28 309.91 389.01 C 324.45 394.35 339.25 399.11 353.36 405.54 C 359.05 408.43 365.46 410.31 370.09 414.92 C 375.47 420.19 379.11 426.88 382.63 433.46 C 384.25 436.45 386.24 439.39 389.13 441.30 C 392.10 442.23 393.63 438.46 393.50 436.06 C 394.24 430.43 392.19 425.11 390.31 419.94 C 388.43 414.74 389.16 408.19 384.86 404.13 C 381.04 401.84 376.25 402.65 372.15 401.10 C 362.38 397.75 355.01 390.15 347.25 383.69 C 343.30 380.69 339.61 377.39 335.79 374.26 C 330.76 370.04 323.55 374.10 318.16 370.88 C 315.55 369.20 314.86 365.95 313.78 363.26 C 311.79 357.31 308.88 351.42 309.20 344.98 C 313.62 346.85 316.92 350.44 320.95 352.94 C 326.45 356.30 332.05 359.70 338.17 361.82 C 342.83 363.71 346.79 359.60 350.98 358.23 C 358.41 355.64 365.53 352.16 373.16 350.12 C 390.26 345.43 408.13 348.60 425.23 351.61 C 423.51 351.56 421.77 351.47 420.08 351.84 C 416.15 354.63 413.63 358.90 411.03 362.86 C 418.23 360.41 423.88 354.35 431.52 353.18 C 433.91 354.71 436.24 356.50 439.05 357.21 C 441.05 357.64 443.59 356.25 443.26 353.94 C 442.47 351.51 441.15 349.29 439.83 347.13 C 476.95 326.90 513.83 306.22 550.89 285.88 C 555.50 328.89 548.78 373.06 531.86 412.86 C 518.56 444.19 498.97 472.83 474.61 496.61 C 446.54 523.92 412.33 545.00 375.04 557.12 C 334.90 570.53 291.41 573.36 249.75 566.19 C 194.79 556.63 143.19 528.66 105.37 487.62 C 99.99 481.32 93.82 475.70 89.33 468.68 C 57.18 426.79 38.39 374.78 36.65 321.98 C 36.70 309.99 36.04 297.90 37.88 286.00 C 63.62 300.31 89.37 314.59 115.14 328.86 C 135.65 339.95 155.76 351.80 176.39 362.68 C 175.43 360.97 174.45 359.27 173.31 357.68 C 148.35 324.62 123.61 291.40 98.70 258.30 C 94.94 253.24 90.69 248.50 87.76 242.89 C 89.65 244.07 91.51 245.32 93.18 246.80 C 103.91 256.78 115.15 266.17 126.16 275.83 C 145.90 293.10 165.58 310.44 185.34 327.68 C 190.64 332.03 195.31 337.14 201.05 340.95 C 198.91 334.74 195.77 328.95 193.06 322.98 C 180.15 294.61 166.95 266.36 154.02 238.00 C 150.75 230.96 147.68 223.84 144.14 216.93 C 142.33 213.43 140.77 209.79 139.87 205.94 C 143.78 209.86 146.67 214.61 150.04 218.97 C 172.93 249.42 195.64 280.00 218.51 310.46 C 222.22 315.36 225.54 320.59 229.76 325.09 C 225.35 302.01 219.70 279.17 214.82 256.19 C 209.84 233.19 204.62 210.25 199.72 187.24 C 199.01 182.68 194.69 180.29 191.85 177.11 M 256.26 421.35 C 245.15 424.72 240.84 439.58 247.02 448.99 C 254.24 460.86 267.67 466.48 279.55 472.50 C 282.96 474.84 287.38 478.10 286.67 482.80 C 286.17 490.02 279.75 494.98 278.70 502.00 C 283.38 503.05 288.22 502.34 292.98 502.68 C 303.21 502.63 313.47 503.10 323.69 502.47 C 323.68 501.31 323.43 500.17 322.78 499.21 C 319.43 493.66 316.57 487.53 316.12 480.98 C 316.08 474.94 321.31 470.97 325.67 467.69 C 334.47 461.01 343.70 454.94 352.93 448.89 C 354.53 447.65 356.58 446.62 357.46 444.72 C 357.83 442.28 357.59 439.80 357.54 437.35 C 352.81 435.45 347.71 434.52 342.63 434.44 C 339.30 434.23 337.26 438.63 333.82 437.36 C 327.08 435.65 321.12 431.57 314.13 430.71 C 302.22 429.13 289.97 430.04 278.44 433.42 C 276.54 433.69 273.69 435.30 272.59 432.89 C 272.36 430.09 273.80 426.72 271.50 424.47 C 267.69 420.34 261.37 420.35 256.26 421.35 M 463.40 451.47 C 458.50 453.44 455.10 457.89 452.00 461.99 C 457.03 466.62 461.94 471.40 466.97 476.03 C 469.15 478.05 471.13 475.01 472.53 473.57 C 475.23 470.11 479.53 466.87 479.21 462.03 C 478.47 457.82 474.00 456.90 470.44 456.48 C 468.90 453.98 466.97 450.33 463.40 451.47 M 129.47 453.14 C 126.91 459.00 124.24 464.81 121.59 470.63 C 120.66 472.92 119.23 475.31 120.02 477.87 C 128.49 476.86 136.64 473.99 144.81 471.63 C 144.29 469.74 143.49 466.86 140.99 467.13 C 136.64 467.51 132.57 469.29 128.27 469.98 C 129.79 465.86 132.29 462.16 133.65 457.99 C 133.13 455.81 131.39 454.16 129.47 453.14 M 433.31 479.25 C 437.63 485.32 443.17 490.41 448.13 495.96 C 452.06 493.81 455.19 490.49 458.26 487.28 C 460.35 485.23 460.17 481.97 459.58 479.35 C 457.98 476.51 454.37 476.53 451.62 475.66 C 450.79 473.34 449.89 470.14 446.83 470.22 C 440.94 469.98 437.18 475.61 433.31 479.25 M 143.33 477.42 C 139.78 478.45 136.59 481.24 135.98 485.02 C 133.71 493.74 142.18 502.95 151.01 501.85 C 156.32 501.96 160.88 497.22 160.99 492.00 C 162.10 482.89 152.13 474.46 143.33 477.42 M 423.30 487.11 C 425.43 491.33 428.90 494.64 431.30 498.67 C 433.55 503.10 427.53 508.49 423.39 505.75 C 419.63 502.43 417.61 497.60 413.87 494.23 C 412.29 495.15 410.76 496.16 409.28 497.24 C 411.92 501.64 414.96 505.82 418.30 509.71 C 420.58 512.52 424.63 512.63 427.86 511.76 C 433.76 509.87 439.60 504.07 437.50 497.38 C 435.42 492.81 432.01 488.95 428.94 485.02 C 426.98 483.03 424.78 485.87 423.30 487.11 M 170.28 493.14 C 166.01 499.19 161.83 505.36 158.28 511.86 C 161.25 514.22 164.48 516.21 167.64 518.31 C 169.47 519.48 171.34 520.89 173.63 520.84 C 174.13 519.87 174.63 518.90 175.13 517.95 C 172.29 515.39 168.78 513.74 165.98 511.14 C 168.77 505.92 172.71 501.41 175.14 495.99 C 173.97 494.39 172.25 493.38 170.28 493.14 M 189.45 505.39 C 187.42 508.53 186.12 512.07 184.30 515.33 C 182.69 518.60 180.39 521.75 180.26 525.52 C 185.40 528.03 190.33 531.06 195.78 532.86 C 196.09 531.51 197.39 530.00 196.52 528.65 C 194.32 527.39 191.89 526.58 189.74 525.23 C 188.80 524.58 187.08 523.60 187.97 522.23 C 189.85 517.04 193.02 512.43 194.86 507.23 C 193.21 506.36 191.44 504.65 189.45 505.39 M 390.28 508.43 C 390.85 511.25 392.49 513.67 393.90 516.13 C 396.36 520.16 398.51 524.38 401.13 528.31 C 406.74 526.31 411.80 522.99 416.76 519.75 C 416.11 518.53 415.46 517.32 414.80 516.12 C 411.37 517.61 408.22 519.66 404.86 521.29 C 400.51 516.94 398.84 510.69 394.78 506.09 C 393.20 506.71 391.70 507.51 390.28 508.43 M 378.37 514.41 C 377.12 517.94 376.99 521.81 375.33 525.20 C 373.95 522.70 373.12 519.85 371.09 517.78 C 369.49 518.26 367.90 518.74 366.31 519.23 C 368.70 526.60 371.97 533.67 375.11 540.75 C 377.01 540.18 379.03 539.64 380.30 537.99 C 379.38 535.18 378.33 532.41 377.28 529.64 C 381.47 530.58 384.79 533.75 388.98 534.56 C 390.81 533.93 394.73 533.80 394.51 531.35 C 390.58 528.47 385.04 527.75 381.92 523.90 C 382.24 519.92 383.53 516.10 384.01 512.15 C 382.06 512.72 380.18 513.50 378.37 514.41 M 210.31 515.17 C 208.84 517.03 208.27 519.39 207.46 521.57 C 205.96 526.31 203.84 530.87 202.98 535.80 C 207.84 537.93 212.80 539.95 217.96 541.23 C 219.91 540.88 219.57 538.86 219.83 537.39 C 216.60 536.17 213.32 535.10 210.15 533.73 C 210.35 532.18 210.69 530.65 211.15 529.16 C 214.67 530.03 218.03 531.68 221.71 531.79 C 222.06 530.66 222.41 529.54 222.78 528.42 C 219.64 527.05 216.41 525.92 213.23 524.67 C 213.61 523.41 213.40 521.32 215.03 520.98 C 218.36 521.65 221.41 523.26 224.76 523.88 C 225.16 522.65 225.56 521.42 225.97 520.20 C 221.00 518.01 215.85 515.08 210.31 515.17 M 230.04 521.28 C 231.03 526.13 233.99 530.27 235.17 535.05 C 235.02 538.70 233.80 542.20 233.33 545.82 C 235.31 546.31 237.34 546.64 239.38 546.80 C 240.19 543.30 240.14 539.37 242.30 536.36 C 245.54 532.89 249.70 530.43 252.96 526.97 C 250.80 526.31 248.61 525.22 246.30 525.51 C 244.08 526.82 242.17 528.57 240.06 530.04 C 238.80 527.61 237.55 525.18 236.27 522.77 C 234.23 522.12 232.16 521.59 230.04 521.28 M 257.33 528.16 C 256.08 535.39 255.46 542.72 254.45 549.99 C 258.57 550.94 262.77 551.63 267.00 551.80 C 269.66 552.19 272.35 551.13 273.76 548.80 C 276.03 545.98 273.90 542.57 272.38 539.98 C 273.97 536.93 275.29 532.61 271.75 530.34 C 267.35 528.18 262.16 527.88 257.33 528.16 M 333.25 528.24 C 334.74 535.78 336.18 543.37 338.28 550.76 C 343.85 550.02 349.27 548.45 354.81 547.46 C 355.16 546.07 355.06 544.65 354.90 543.25 C 350.98 543.57 347.15 544.51 343.23 544.81 C 341.50 539.23 340.60 533.44 338.89 527.86 C 337.00 527.82 335.12 527.96 333.25 528.24 M 289.37 531.30 C 286.32 538.81 282.19 545.93 280.08 553.78 C 281.90 553.76 283.72 553.71 285.55 553.62 C 286.44 552.35 287.34 551.09 288.22 549.82 C 291.11 549.40 294.04 549.44 296.95 549.72 C 298.03 551.14 299.06 552.62 300.31 553.93 C 302.08 554.65 304.04 554.06 305.87 553.93 C 304.39 549.07 302.02 544.56 300.14 539.86 C 298.93 536.85 297.72 533.82 295.86 531.14 C 293.69 531.05 291.52 531.09 289.37 531.30 M 311.23 531.07 C 311.14 538.66 311.98 546.24 313.26 553.71 C 319.07 553.68 324.90 553.17 330.58 551.91 C 330.55 550.74 330.53 549.58 330.52 548.43 C 326.52 548.10 322.53 548.72 318.52 548.60 C 317.58 542.76 317.53 536.82 316.67 530.98 C 314.86 530.66 313.02 530.75 311.23 531.07 Z" />
<path fill="#85bbe7" opacity="1.00" d=" M 381.15 197.07 C 384.10 191.04 386.52 184.75 389.83 178.90 C 389.37 182.88 388.56 186.82 387.65 190.72 C 384.38 205.18 381.43 219.72 377.82 234.10 C 375.78 230.77 373.75 227.41 372.03 223.90 C 371.48 222.17 371.14 220.39 370.65 218.65 C 375.21 212.02 377.66 204.26 381.15 197.07 Z" />
<path fill="#85bbe7" opacity="1.00" d=" M 437.97 218.98 C 441.30 214.59 444.34 209.95 448.19 205.97 C 446.37 212.69 442.86 218.73 440.00 225.02 C 426.58 254.25 413.13 283.46 399.68 312.67 C 396.60 319.58 392.93 326.26 390.71 333.52 C 384.04 333.04 377.73 329.89 370.96 330.60 C 366.74 331.04 362.54 331.65 358.37 332.38 C 352.94 333.30 348.18 336.20 343.10 338.13 C 341.89 338.57 340.20 338.94 339.23 337.83 C 332.04 329.96 328.43 319.62 321.64 311.46 C 319.89 309.30 319.71 306.43 318.98 303.87 C 317.38 297.28 313.43 291.11 314.24 284.10 C 314.67 276.12 320.92 270.40 326.67 265.65 C 326.92 281.88 326.23 298.14 326.95 314.36 C 330.33 309.26 332.39 303.48 335.00 297.98 C 339.65 287.94 344.24 277.88 348.79 267.79 C 351.32 262.06 354.57 256.58 355.95 250.40 C 362.48 247.10 369.23 244.18 375.28 239.99 C 375.68 239.80 376.47 239.41 376.86 239.21 C 370.82 267.87 364.05 296.38 358.15 325.07 C 362.89 319.76 366.94 313.90 371.26 308.26 C 393.45 278.47 415.65 248.68 437.97 218.98 Z" />
<path fill="#85bbe7" opacity="1.00" d=" M 489.63 251.64 C 493.32 248.30 496.75 244.58 501.09 242.04 C 498.61 246.45 495.37 250.35 492.36 254.39 C 470.93 282.96 449.34 311.42 428.03 340.08 C 422.99 338.88 421.31 333.38 417.88 330.14 C 416.36 328.29 413.73 327.72 411.51 328.51 C 408.08 330.45 405.95 334.41 401.95 335.36 C 399.45 335.62 397.08 334.55 394.68 334.08 C 399.67 330.69 403.94 326.40 408.55 322.54 C 435.61 298.94 462.52 275.18 489.63 251.64 Z" />
<path fill="#85bbe7" opacity="1.00" d=" M 289.24 440.18 C 289.75 440.28 290.75 440.48 291.26 440.59 C 291.42 441.15 291.75 442.27 291.92 442.83 C 290.61 442.81 289.31 442.80 288.01 442.78 C 288.42 441.91 288.83 441.04 289.24 440.18 Z" />
<path fill="#85bbe7" opacity="1.00" d=" M 459.70 459.90 C 460.86 458.34 462.37 456.88 464.49 457.43 C 465.78 459.73 464.10 463.28 461.26 462.91 C 460.74 461.90 460.22 460.89 459.70 459.90 Z" />
<path fill="#85bbe7" opacity="1.00" d=" M 466.31 466.69 C 466.27 463.93 469.69 462.97 471.78 462.04 C 474.69 464.72 471.94 468.31 469.09 469.53 C 468.13 468.60 467.07 467.78 466.31 466.69 Z" />
<path fill="#85bbe7" opacity="1.00" d=" M 441.13 477.26 C 442.62 476.50 444.24 476.11 445.91 476.11 C 447.13 478.59 445.38 480.67 443.06 481.48 C 441.93 480.32 440.76 479.01 441.13 477.26 Z" />
<path fill="#85bbe7" opacity="1.00" d=" M 147.27 482.37 C 152.76 481.74 157.85 488.50 154.30 493.31 C 151.62 498.13 143.71 496.99 141.98 491.93 C 139.79 487.96 143.14 483.05 147.27 482.37 Z" />
<path fill="#85bbe7" opacity="1.00" d=" M 447.34 484.34 C 448.48 482.82 450.35 482.24 452.01 481.50 C 455.91 483.39 452.62 487.31 449.98 488.50 C 448.67 487.48 446.75 486.29 447.34 484.34 Z" />
<path fill="#85bbe7" opacity="1.00" d=" M 262.50 533.44 C 264.13 532.82 265.83 533.17 267.47 533.54 C 267.60 534.64 267.74 535.75 267.88 536.87 C 266.00 537.36 264.06 537.49 262.18 536.93 C 262.29 535.76 262.40 534.59 262.50 533.44 Z" />
<path fill="#85bbe7" opacity="1.00" d=" M 290.03 545.08 C 290.54 542.57 291.05 539.92 292.84 537.97 C 294.15 540.21 295.14 542.61 295.85 545.11 C 293.91 545.19 291.96 545.18 290.03 545.08 Z" />
<path fill="#85bbe7" opacity="1.00" d=" M 262.23 542.01 C 265.20 541.02 269.46 543.27 267.92 546.80 C 265.65 547.19 263.34 547.17 261.07 546.80 C 261.33 545.23 260.70 543.05 262.23 542.01 Z" />
</g>
<g id="#cb1414ff">
<path fill="#cb1414" opacity="1.00" d=" M 193.51 174.50 C 204.01 175.01 213.28 181.29 219.83 189.18 C 225.39 195.89 233.72 198.91 241.24 202.77 C 247.53 206.66 254.09 210.08 260.41 213.92 C 263.72 216.93 267.84 218.81 272.06 220.17 C 278.87 222.73 286.04 224.05 293.20 225.16 C 297.73 225.75 301.69 228.15 305.99 229.49 C 308.84 229.03 310.56 226.54 311.63 224.07 C 310.19 221.32 307.10 218.77 307.60 215.42 C 309.53 212.11 312.13 209.25 314.31 206.11 C 315.24 204.64 316.81 203.84 318.46 203.45 C 321.56 204.18 324.46 203.06 327.18 201.68 C 330.01 201.47 332.89 200.95 335.71 201.51 C 333.09 201.92 330.44 201.88 327.81 202.13 C 331.40 202.44 335.31 202.32 338.34 204.59 C 344.16 208.15 346.95 215.34 346.38 221.96 C 344.94 228.43 337.10 230.96 335.90 237.49 C 339.07 237.09 342.21 236.55 345.35 236.00 C 350.74 234.99 356.25 235.47 361.70 235.41 C 362.03 234.07 362.50 232.72 362.38 231.32 C 361.77 222.55 357.47 214.74 353.77 206.97 C 352.30 203.60 348.68 202.20 345.94 200.09 C 343.11 198.22 340.95 195.56 339.22 192.68 C 342.00 191.20 344.59 193.88 347.12 194.80 C 347.75 193.72 348.82 192.70 348.52 191.33 C 347.96 186.27 344.67 182.03 343.77 177.06 C 343.64 175.45 345.11 174.46 345.99 173.34 C 349.92 175.05 354.18 176.61 357.23 179.77 C 360.04 183.91 359.61 189.21 360.26 193.97 C 360.78 203.08 364.26 212.05 370.65 218.65 C 371.14 220.39 371.48 222.17 372.03 223.90 C 372.97 227.40 374.90 230.50 376.34 233.79 C 377.27 235.88 375.83 238.00 375.28 239.99 C 369.23 244.18 362.48 247.10 355.95 250.40 C 349.96 252.12 344.06 254.11 338.15 256.06 C 333.27 257.74 330.26 262.22 326.67 265.65 C 320.92 270.40 314.67 276.12 314.24 284.10 C 313.43 291.11 317.38 297.28 318.98 303.87 C 319.71 306.43 319.89 309.30 321.64 311.46 C 328.43 319.62 332.04 329.96 339.23 337.83 C 340.20 338.94 341.89 338.57 343.10 338.13 C 348.18 336.20 352.94 333.30 358.37 332.38 C 362.54 331.65 366.74 331.04 370.96 330.60 C 377.73 329.89 384.04 333.04 390.71 333.52 C 392.03 333.66 393.35 333.84 394.68 334.08 C 397.08 334.55 399.45 335.62 401.95 335.36 C 405.95 334.41 408.08 330.45 411.51 328.51 C 413.73 327.72 416.36 328.29 417.88 330.14 C 421.31 333.38 422.99 338.88 428.03 340.08 C 432.66 341.01 436.81 343.49 439.83 347.13 C 441.15 349.29 442.47 351.51 443.26 353.94 C 443.59 356.25 441.05 357.64 439.05 357.21 C 436.24 356.50 433.91 354.71 431.52 353.18 C 429.49 352.40 427.37 351.93 425.23 351.61 C 408.13 348.60 390.26 345.43 373.16 350.12 C 365.53 352.16 358.41 355.64 350.98 358.23 C 346.79 359.60 342.83 363.71 338.17 361.82 C 332.05 359.70 326.45 356.30 320.95 352.94 C 316.92 350.44 313.62 346.85 309.20 344.98 C 308.88 351.42 311.79 357.31 313.78 363.26 C 314.86 365.95 315.55 369.20 318.16 370.88 C 323.55 374.10 330.76 370.04 335.79 374.26 C 339.61 377.39 343.30 380.69 347.25 383.69 C 355.01 390.15 362.38 397.75 372.15 401.10 C 376.25 402.65 381.04 401.84 384.86 404.13 C 389.16 408.19 388.43 414.74 390.31 419.94 C 392.19 425.11 394.24 430.43 393.50 436.06 C 393.63 438.46 392.10 442.23 389.13 441.30 C 386.24 439.39 384.25 436.45 382.63 433.46 C 379.11 426.88 375.47 420.19 370.09 414.92 C 365.46 410.31 359.05 408.43 353.36 405.54 C 339.25 399.11 324.45 394.35 309.91 389.01 C 305.38 387.28 300.55 386.14 296.39 383.57 C 292.19 380.25 290.87 374.76 288.80 370.08 C 285.13 361.45 283.29 352.18 279.53 343.58 C 277.27 338.32 277.26 332.50 275.82 327.02 C 274.16 320.49 273.22 313.76 273.54 307.01 C 273.89 298.13 273.20 289.19 274.47 280.36 C 275.23 274.54 277.41 268.92 277.38 262.99 C 277.29 257.23 275.85 251.61 275.14 245.91 C 274.66 243.61 274.69 240.92 272.87 239.18 C 269.90 236.14 266.19 233.94 262.64 231.65 C 256.00 227.74 248.34 225.69 242.25 220.83 C 232.28 212.86 223.49 203.56 213.86 195.19 C 209.13 191.26 205.32 186.31 200.26 182.76 C 197.51 180.80 194.63 179.03 191.85 177.11 C 192.40 176.24 192.96 175.37 193.51 174.50 Z" />
</g>
</svg>
