<?xml version="1.0" encoding="UTF-8" ?>
<!DOCTYPE svg PUBLIC "-//W3C//DTD SVG 1.1//EN" "http://www.w3.org/Graphics/SVG/1.1/DTD/svg11.dtd">
<svg width="240pt" height="200pt" viewBox="0 0 240 200" version="1.1" xmlns="http://www.w3.org/2000/svg">
<g id="#fefefeff">
<path fill="#fefefe" opacity="1.00" d=" M 108.00 52.45 C 116.11 50.59 124.51 51.61 132.75 51.67 C 131.32 60.06 129.14 68.30 127.34 76.62 C 122.48 76.59 117.63 76.70 112.77 76.51 C 111.97 68.36 109.29 60.53 108.00 52.45 Z" />
<path fill="#fefefe" opacity="1.00" d=" M 85.71 59.73 C 92.35 55.92 99.85 54.03 107.24 52.29 C 108.57 60.45 111.11 68.38 112.17 76.59 C 102.53 76.74 92.90 76.45 83.26 76.49 C 84.08 70.90 85.47 65.39 85.71 59.73 Z" />
<path fill="#fefefe" opacity="1.00" d=" M 133.56 52.24 C 140.77 53.48 147.72 55.82 154.44 58.68 C 155.44 64.66 156.42 70.64 156.96 76.67 C 147.37 76.81 137.77 76.57 128.18 76.59 C 129.85 68.45 131.80 60.37 133.56 52.24 Z" />
<path fill="#fefefe" opacity="1.00" d=" M 155.37 59.24 C 162.76 62.92 169.41 67.91 175.32 73.65 C 175.57 73.91 176.08 74.44 176.33 74.71 C 187.36 86.70 194.75 102.53 194.71 119.00 C 195.40 135.47 189.13 151.97 178.28 164.29 C 172.09 172.02 163.66 177.49 155.14 182.33 C 155.60 175.67 158.08 169.37 158.71 162.74 C 165.56 157.35 171.19 150.24 174.10 141.97 C 180.06 124.03 178.75 102.86 167.81 87.07 C 165.49 84.03 163.09 81.04 160.16 78.56 L 159.36 78.63 L 159.32 77.89 C 158.97 77.66 158.28 77.20 157.94 76.97 C 157.01 71.07 156.20 65.15 155.37 59.24 Z" />
<path fill="#fefefe" opacity="1.00" d=" M 71.66 68.68 C 75.78 65.46 80.22 62.69 84.66 59.95 C 85.00 65.63 83.25 71.15 82.39 76.72 C 77.81 80.74 73.28 85.07 70.36 90.49 C 63.31 102.66 62.12 117.35 64.13 131.03 C 66.08 143.67 72.57 156.22 83.62 163.16 C 84.64 169.30 85.30 175.53 85.60 181.74 C 71.98 174.48 60.07 163.39 53.53 149.25 C 47.60 137.85 46.15 124.69 47.44 112.03 C 49.53 95.13 58.85 79.69 71.66 68.68 Z" />
<path fill="#fefefe" opacity="1.00" d=" M 82.58 77.58 C 86.45 76.79 90.50 77.38 94.44 77.32 C 115.35 77.45 136.26 77.25 157.16 77.54 C 159.46 78.94 161.41 80.83 163.36 82.66 C 165.84 85.85 168.53 88.91 170.36 92.54 C 172.81 96.97 174.07 101.91 175.67 106.68 C 158.89 102.03 141.42 100.28 124.05 100.49 C 104.35 100.33 84.25 100.69 65.30 106.66 C 67.16 95.24 73.49 84.71 82.58 77.58 M 111.79 84.67 C 109.60 85.77 110.37 88.45 110.36 90.41 C 112.04 91.07 113.76 91.62 115.57 91.71 C 113.85 93.26 111.89 94.47 109.89 95.62 C 113.47 96.31 117.71 94.78 118.91 91.08 C 120.02 89.01 118.78 86.76 118.20 84.74 C 116.12 84.04 113.77 83.26 111.79 84.67 M 132.60 84.45 C 132.06 85.54 131.60 86.67 131.33 87.85 C 132.61 87.00 133.93 85.81 135.63 86.33 C 136.88 90.38 132.83 92.77 130.72 95.52 C 133.62 95.64 136.55 95.78 139.45 95.53 C 139.59 94.61 139.86 92.78 140.00 91.87 C 138.43 92.78 136.72 93.34 134.91 93.35 C 137.42 91.17 141.28 88.03 138.41 84.51 C 137.62 84.25 136.83 83.99 136.04 83.73 C 134.89 83.98 133.75 84.22 132.60 84.45 M 100.64 84.72 C 101.11 85.09 102.06 85.82 102.53 86.18 C 102.69 89.24 104.31 94.14 100.50 95.50 C 102.53 95.48 106.59 95.42 108.62 95.40 L 106.49 94.09 C 106.14 90.77 106.41 87.41 106.39 84.07 C 104.47 84.28 102.55 84.50 100.64 84.72 M 120.86 84.25 C 120.78 85.10 120.64 86.81 120.57 87.67 C 122.49 87.00 124.48 86.55 126.53 86.52 C 125.23 89.88 123.10 92.80 121.06 95.73 C 122.28 95.71 123.51 95.68 124.73 95.63 C 126.28 91.74 128.13 87.97 130.00 84.23 C 126.95 84.14 123.90 84.16 120.86 84.25 Z" />
<path fill="#fefefe" opacity="1.00" d=" M 113.34 85.56 C 113.85 85.49 114.86 85.35 115.37 85.28 C 115.57 86.90 115.67 88.53 115.59 90.17 C 113.83 89.20 113.26 87.47 113.34 85.56 Z" />
<path fill="#fefefe" opacity="1.00" d=" M 64.65 107.66 C 76.65 103.52 89.42 102.26 102.01 101.48 C 126.56 101.06 151.66 100.24 175.41 107.52 C 177.46 115.22 176.69 123.26 176.31 131.12 C 169.62 133.13 162.84 134.97 155.88 135.78 C 146.33 137.40 136.60 136.57 126.97 137.22 C 114.18 137.38 101.39 137.02 88.61 137.34 C 91.40 137.76 94.23 137.82 97.05 137.82 C 110.38 137.77 123.70 137.90 137.03 137.59 C 147.55 137.93 158.06 136.62 168.28 134.17 C 170.78 133.44 173.28 132.76 175.80 132.13 C 175.31 135.57 174.32 138.90 173.29 142.20 C 170.44 149.80 165.27 156.20 159.25 161.54 C 148.60 161.84 137.93 161.72 127.28 161.63 L 127.85 162.55 C 113.01 162.10 98.17 162.30 83.32 162.21 C 80.51 160.23 77.87 157.99 75.66 155.33 C 70.31 148.91 66.69 141.15 65.24 132.91 C 74.72 134.80 84.19 137.75 93.99 136.49 C 88.37 135.99 82.66 136.02 77.12 134.76 C 73.16 134.10 69.37 132.63 65.36 132.28 C 63.22 124.27 64.24 115.83 64.65 107.66 M 93.75 110.82 C 96.15 111.95 96.38 114.66 96.22 117.00 C 96.03 120.17 97.11 124.17 93.96 126.24 C 99.07 126.34 104.18 126.29 109.29 126.32 C 108.91 125.76 108.15 124.66 107.77 124.11 C 107.70 119.44 107.77 114.77 107.72 110.10 C 105.82 110.36 103.92 110.61 102.02 110.82 C 102.69 111.79 103.74 112.70 103.58 114.01 C 103.54 117.73 103.97 121.53 103.23 125.20 C 102.59 125.33 101.32 125.59 100.68 125.72 C 99.88 120.58 100.40 115.36 100.31 110.19 C 98.12 110.40 95.94 110.67 93.75 110.82 M 157.82 110.89 C 158.44 111.45 159.06 112.01 159.68 112.57 C 159.73 116.47 159.58 120.38 159.87 124.28 C 159.37 124.94 158.47 125.39 158.38 126.29 C 163.25 126.38 168.13 126.25 173.01 126.29 C 172.54 125.60 172.08 124.91 171.61 124.23 C 171.54 119.50 171.57 114.77 171.56 110.04 C 169.63 110.34 167.69 110.62 165.76 110.88 C 166.29 111.55 166.83 112.22 167.38 112.88 C 167.41 116.85 167.40 120.82 167.37 124.78 C 166.16 124.76 164.95 124.73 163.75 124.69 C 163.74 119.84 163.72 114.99 163.77 110.14 C 161.79 110.38 159.80 110.63 157.82 110.89 M 66.87 111.30 C 70.79 115.35 71.63 121.14 74.12 126.00 C 74.65 126.18 75.72 126.56 76.26 126.75 C 78.04 122.64 79.50 118.39 81.48 114.38 C 82.14 112.98 83.71 112.40 84.87 111.54 C 82.25 111.29 79.61 111.16 77.02 111.69 C 77.59 112.02 78.73 112.66 79.29 112.99 C 78.91 115.59 77.79 118.03 76.39 120.24 C 75.43 117.82 74.50 115.39 73.69 112.93 C 74.49 112.51 75.29 112.09 76.08 111.67 C 73.04 111.21 69.95 111.27 66.87 111.30 M 132.06 110.92 C 132.59 111.41 133.66 112.38 134.19 112.87 C 134.21 117.33 134.03 121.80 134.36 126.26 C 136.63 126.37 138.89 126.42 141.16 126.45 C 143.08 125.17 145.32 123.66 145.48 121.12 C 145.98 118.65 143.84 116.93 142.22 115.50 C 140.86 115.58 139.50 115.66 138.15 115.75 C 138.20 113.89 138.22 112.02 138.25 110.16 C 136.18 110.40 134.12 110.65 132.06 110.92 M 113.96 115.89 C 109.45 116.99 108.57 124.36 113.03 126.05 C 115.90 127.39 119.17 125.95 120.57 123.22 C 118.91 123.35 117.24 123.49 115.58 123.65 C 113.76 121.84 114.09 118.90 115.17 116.79 C 115.76 118.14 115.88 119.90 117.26 120.77 C 118.08 120.66 119.72 120.43 120.54 120.32 C 120.34 117.10 117.13 114.22 113.96 115.89 M 81.46 119.94 C 81.88 121.68 82.35 123.41 82.86 125.12 C 85.16 126.35 87.72 126.55 90.28 126.44 C 94.71 124.26 94.71 117.71 90.25 115.57 C 86.53 114.86 83.10 116.54 81.46 119.94 M 120.25 115.68 C 122.64 118.85 123.98 122.61 125.53 126.23 C 124.61 127.16 123.67 128.08 122.72 128.98 C 122.60 129.41 122.35 130.28 122.23 130.71 C 122.94 130.84 124.36 131.08 125.07 131.20 C 127.88 126.63 128.72 120.80 132.54 116.92 L 132.70 115.62 C 131.61 115.63 129.43 115.66 128.34 115.67 C 128.85 117.66 128.41 119.67 127.96 121.62 C 126.90 119.76 125.47 117.31 127.82 115.67 C 125.30 115.67 122.77 115.66 120.25 115.68 M 152.39 117.68 C 152.34 118.16 152.26 119.11 152.22 119.59 C 151.50 119.60 150.06 119.64 149.34 119.65 L 151.07 117.82 C 149.99 117.57 148.64 115.60 147.76 117.24 C 146.10 118.08 147.94 119.79 148.41 120.77 C 146.41 121.41 146.86 123.48 146.66 125.10 C 149.45 126.99 153.07 126.19 156.21 126.05 C 157.52 123.15 155.98 119.83 156.33 116.75 C 154.40 115.44 152.07 115.38 149.85 115.91 C 150.69 116.50 151.54 117.09 152.39 117.68 M 107.56 144.30 C 105.85 144.29 104.15 144.26 102.45 144.20 C 103.29 146.48 101.13 147.93 99.71 149.28 C 99.00 147.25 100.37 145.79 101.22 144.22 C 98.90 144.27 96.58 144.30 94.27 144.38 C 94.78 144.75 95.81 145.49 96.32 145.86 C 96.31 148.77 96.29 151.69 96.33 154.61 C 95.81 154.99 94.77 155.75 94.25 156.13 C 96.83 156.24 99.41 156.25 102.00 156.30 C 99.63 155.10 99.45 152.76 99.60 150.39 C 100.74 152.37 102.00 154.28 103.18 156.24 C 106.84 156.25 110.51 156.27 114.17 156.19 C 113.81 155.70 113.10 154.71 112.75 154.22 C 112.80 150.56 112.81 146.91 112.72 143.25 C 110.97 143.45 109.22 143.68 107.56 144.30 M 125.13 143.74 C 127.71 147.35 125.91 152.11 126.53 156.23 C 129.20 156.72 131.90 156.57 134.37 155.38 C 136.15 152.78 135.86 149.42 133.18 147.59 C 132.31 147.64 130.57 147.74 129.71 147.78 C 129.73 146.31 129.75 144.83 129.78 143.36 C 128.23 143.48 126.68 143.61 125.13 143.74 M 135.99 143.71 C 136.41 144.44 136.84 145.18 137.26 145.92 C 137.27 149.33 137.25 152.75 137.33 156.16 C 139.30 156.38 141.29 156.49 143.29 156.50 C 146.28 154.85 147.20 151.43 145.48 148.45 C 143.85 148.11 142.22 147.79 140.59 147.51 C 140.62 146.12 140.65 144.74 140.68 143.35 C 139.12 143.46 137.55 143.58 135.99 143.71 M 114.32 148.54 C 116.36 150.80 114.26 154.47 116.73 156.40 C 117.68 156.38 119.58 156.35 120.52 156.33 C 118.41 154.07 118.56 151.02 118.69 148.15 C 119.25 148.31 119.82 148.48 120.39 148.65 C 120.67 151.28 120.68 153.94 120.75 156.58 C 121.74 156.46 123.71 156.22 124.70 156.09 C 123.82 153.41 124.94 150.15 123.40 147.80 C 120.42 148.06 117.03 146.99 114.32 148.54 Z" />
<path fill="#fefefe" opacity="1.00" d=" M 86.53 117.52 C 86.98 117.44 87.89 117.28 88.35 117.19 C 88.86 119.56 89.24 121.96 89.25 124.38 C 88.69 124.47 87.58 124.65 87.03 124.74 C 86.39 122.38 86.36 119.94 86.53 117.52 Z" />
<path fill="#fefefe" opacity="1.00" d=" M 138.37 124.78 C 138.21 122.23 137.93 119.61 138.78 117.15 C 139.27 117.61 140.25 118.52 140.74 118.98 C 140.72 120.83 140.68 122.69 140.58 124.54 C 140.03 124.60 138.92 124.72 138.37 124.78 Z" />
<path fill="#fefefe" opacity="1.00" d=" M 151.74 124.47 C 149.57 124.22 150.64 119.94 152.56 121.41 C 153.21 122.79 152.93 123.81 151.74 124.47 Z" />
<path fill="#fefefe" opacity="1.00" d=" M 102.29 148.95 C 104.30 146.93 106.64 145.31 109.22 144.13 C 109.69 147.94 109.59 151.80 109.37 155.64 C 105.74 155.29 104.52 151.26 102.29 148.95 Z" />
<path fill="#fefefe" opacity="1.00" d=" M 129.74 149.52 C 130.19 149.55 131.07 149.60 131.51 149.62 C 131.65 151.29 131.73 152.96 131.77 154.64 C 131.27 154.68 130.27 154.75 129.77 154.79 C 129.76 153.03 129.75 151.27 129.74 149.52 Z" />
<path fill="#fefefe" opacity="1.00" d=" M 140.63 149.36 C 141.10 149.49 142.04 149.75 142.51 149.87 C 142.56 151.47 142.58 153.06 142.59 154.66 C 142.11 154.72 141.15 154.82 140.67 154.88 C 140.66 153.04 140.65 151.20 140.63 149.36 Z" />
<path fill="#fefefe" opacity="1.00" d=" M 84.47 162.72 C 93.81 162.83 103.14 162.65 112.48 162.83 C 110.42 171.46 108.63 180.15 106.55 188.77 C 99.66 187.39 92.99 185.15 86.60 182.26 C 85.99 175.73 85.16 169.23 84.47 162.72 Z" />
<path fill="#fefefe" opacity="1.00" d=" M 112.91 163.86 C 113.13 163.61 113.58 163.11 113.81 162.86 C 118.57 162.65 123.32 163.10 128.08 163.14 C 129.54 171.91 131.97 180.53 132.94 189.38 C 124.42 190.03 115.86 189.90 107.34 189.31 C 108.96 180.78 111.17 172.37 112.91 163.86 Z" />
<path fill="#fefefe" opacity="1.00" d=" M 128.55 162.45 C 138.36 162.46 148.17 162.38 157.97 162.48 C 157.36 169.21 155.00 175.63 154.31 182.35 C 147.93 185.73 140.87 187.89 133.72 188.83 C 132.40 179.97 130.35 171.22 128.55 162.45 Z" />
</g>
<g id="#050505ff">
<path fill="#050505" opacity="1.00" d=" M 110.67 11.52 C 111.37 10.40 112.17 9.30 113.54 8.97 C 113.37 10.22 112.74 11.43 112.87 12.71 C 114.52 14.27 116.16 15.85 117.44 17.74 C 119.16 22.61 118.92 28.29 115.34 32.29 C 111.30 35.80 105.70 37.16 100.53 35.60 C 99.66 36.80 99.04 38.39 97.39 38.74 C 97.38 37.33 97.96 36.07 98.67 34.90 C 93.39 31.87 91.43 25.55 92.57 19.79 C 94.27 14.69 99.02 11.78 104.04 10.71 C 106.28 10.68 108.48 11.11 110.67 11.52 M 100.40 14.43 C 97.16 19.18 99.23 25.27 100.97 30.20 C 101.70 28.83 102.45 27.46 103.22 26.10 C 104.05 24.38 104.94 22.69 105.80 20.98 C 106.80 18.64 109.73 15.95 107.31 13.53 C 105.00 12.93 102.03 12.10 100.40 14.43 M 109.06 18.52 C 107.15 23.17 104.32 27.37 102.39 32.01 C 104.75 34.79 109.19 35.31 111.30 31.96 C 112.49 27.42 111.69 22.61 110.46 18.15 C 110.11 18.24 109.41 18.43 109.06 18.52 Z" />
<path fill="#050505" opacity="1.00" d=" M 126.22 10.75 C 129.09 9.97 132.06 10.63 134.90 11.22 C 139.27 11.96 145.44 11.64 147.36 16.60 C 148.65 20.66 144.92 23.87 141.31 24.72 C 142.85 28.14 143.94 31.79 145.98 34.97 C 147.25 36.98 149.78 37.48 151.99 37.46 C 154.17 34.89 155.29 31.67 156.76 28.69 C 158.22 25.44 160.16 22.37 160.90 18.84 C 160.10 18.00 159.32 17.14 158.56 16.27 C 164.86 17.64 170.25 21.75 176.70 22.57 C 178.63 23.28 176.35 25.23 176.14 26.42 L 174.91 26.05 C 174.81 26.67 174.60 27.93 174.50 28.56 C 174.07 28.56 173.20 28.58 172.77 28.59 C 172.75 27.03 172.72 25.47 172.65 23.91 C 170.97 23.05 169.28 22.21 167.59 21.37 C 166.27 23.59 165.11 25.92 164.15 28.32 C 163.91 28.55 163.42 29.02 163.18 29.25 C 165.00 30.12 166.91 30.84 168.97 30.76 C 169.82 30.01 170.75 29.36 171.76 28.82 C 171.34 30.27 170.77 31.67 170.17 33.05 C 169.38 34.57 168.69 36.14 167.98 37.70 C 167.51 37.22 167.04 36.74 166.57 36.26 C 166.93 35.41 167.29 34.56 167.64 33.70 C 166.02 32.83 164.38 32.01 162.73 31.21 C 161.35 34.30 158.58 37.40 159.62 41.00 C 160.76 41.40 161.89 41.84 163.00 42.31 C 163.79 42.35 165.35 42.42 166.14 42.45 C 167.44 41.42 168.73 40.36 170.04 39.33 C 170.18 39.73 170.46 40.52 170.60 40.91 C 169.32 42.47 168.09 44.06 166.89 45.68 C 161.25 43.51 155.76 40.94 150.10 38.82 C 147.07 37.99 144.02 37.14 141.08 36.03 C 137.42 33.73 137.02 28.91 135.52 25.21 L 134.14 25.44 L 134.21 23.59 C 136.04 23.71 137.82 23.33 139.45 22.51 C 140.08 21.04 140.70 19.55 141.29 18.06 C 140.97 16.88 140.67 15.70 140.38 14.51 L 139.41 14.64 L 139.48 13.47 C 138.56 13.42 136.72 13.32 135.80 13.27 C 134.91 19.67 133.55 26.01 132.75 32.43 C 133.63 33.18 135.39 34.70 136.27 35.45 C 131.96 35.58 127.79 34.36 123.51 34.14 C 123.46 33.78 123.37 33.07 123.33 32.71 C 124.07 32.62 125.55 32.44 126.29 32.35 C 127.54 25.64 129.11 18.91 129.47 12.08 C 128.66 11.75 127.03 11.08 126.22 10.75 Z" />
<path fill="#050505" opacity="1.00" d=" M 70.16 21.17 C 72.43 20.19 74.73 19.29 77.10 18.54 C 76.43 19.38 75.10 21.04 74.43 21.87 C 75.02 23.20 75.60 24.55 76.19 25.89 C 76.82 27.24 77.46 28.59 78.12 29.93 C 79.60 33.25 81.23 36.50 82.93 39.71 C 85.32 39.56 87.45 38.44 89.44 37.18 C 89.55 35.52 89.65 33.86 89.72 32.20 C 90.10 32.24 90.87 32.30 91.26 32.34 C 91.68 34.31 92.16 36.26 92.60 38.23 C 89.44 39.53 86.28 40.83 83.12 42.13 C 80.14 43.36 77.21 45.09 73.86 44.87 C 75.99 43.94 77.15 42.29 75.91 40.05 C 73.09 34.98 71.26 29.37 68.06 24.51 C 67.21 24.40 65.52 24.19 64.68 24.08 C 66.14 22.51 68.24 21.94 70.16 21.17 Z" />
<path fill="#050505" opacity="1.00" d=" M 185.14 27.62 C 187.30 29.41 189.55 31.09 191.71 32.89 C 192.36 39.63 191.00 46.40 191.68 53.14 C 194.12 50.08 196.98 47.38 199.40 44.30 C 200.62 42.30 199.01 40.23 198.50 38.28 C 201.47 40.52 204.38 42.84 207.19 45.28 C 205.25 45.42 203.01 43.76 201.52 45.62 C 196.57 50.31 192.15 55.57 187.75 60.78 C 186.65 60.43 185.61 59.90 184.60 59.34 C 184.95 51.99 185.57 44.65 185.61 37.28 C 181.66 40.58 178.18 44.52 175.35 48.82 C 176.18 50.06 177.18 51.28 177.44 52.80 C 174.48 50.88 171.77 48.61 169.05 46.38 C 170.19 46.34 172.47 46.27 173.61 46.24 C 176.51 43.95 178.81 41.01 181.32 38.31 C 183.10 36.35 184.86 34.36 186.36 32.16 C 186.05 31.03 185.44 28.75 185.14 27.62 Z" />
<path fill="#050505" opacity="1.00" d=" M 47.03 32.86 C 47.27 32.83 47.76 32.76 48.00 32.73 C 49.33 33.96 50.68 35.15 51.99 36.40 C 52.44 36.54 53.33 36.81 53.78 36.95 C 53.40 37.37 52.63 38.20 52.25 38.62 C 49.97 36.47 46.72 37.02 44.43 38.81 C 44.47 39.11 44.55 39.71 44.59 40.01 C 48.77 43.97 52.87 48.01 56.94 52.08 C 57.98 53.38 59.56 53.88 61.18 53.76 C 61.42 53.34 61.89 52.51 62.13 52.09 C 62.29 52.56 62.61 53.50 62.77 53.98 C 59.63 56.32 56.82 59.05 54.01 61.77 C 53.52 61.63 52.54 61.34 52.04 61.20 C 52.44 60.95 53.23 60.45 53.62 60.21 C 53.66 59.62 53.73 58.45 53.77 57.86 C 49.18 53.11 44.39 48.58 39.81 43.83 C 35.74 45.02 37.49 49.72 37.52 52.78 C 35.88 50.99 34.24 49.20 32.54 47.48 C 32.48 47.12 32.37 46.39 32.31 46.03 C 32.98 45.87 34.31 45.56 34.97 45.40 C 38.70 41.85 42.56 38.45 46.45 35.09 C 46.60 34.53 46.88 33.42 47.03 32.86 Z" />
<path fill="#050505" opacity="1.00" d=" M 79.99 61.88 C 95.75 52.42 114.81 48.62 132.98 51.37 C 146.21 53.71 159.10 58.85 169.49 67.50 C 182.13 77.49 191.31 92.01 194.34 107.88 C 196.58 118.91 195.71 130.44 192.39 141.17 C 192.21 141.55 191.86 142.30 191.68 142.67 C 191.21 144.14 190.70 145.58 190.21 147.04 C 187.20 153.50 183.48 159.61 178.77 164.97 C 166.23 179.36 147.97 188.42 129.05 190.35 C 120.11 190.59 110.92 191.16 102.26 188.49 C 83.27 184.08 66.07 172.03 55.88 155.35 C 49.75 145.03 45.89 133.07 46.38 120.98 C 45.65 105.02 52.07 89.31 62.20 77.17 C 65.01 73.74 68.26 70.72 71.59 67.81 C 74.34 65.77 77.12 63.76 79.99 61.88 M 108.00 52.45 C 109.29 60.53 111.97 68.36 112.77 76.51 C 117.63 76.70 122.48 76.59 127.34 76.62 C 129.14 68.30 131.32 60.06 132.75 51.67 C 124.51 51.61 116.11 50.59 108.00 52.45 M 85.71 59.73 C 85.47 65.39 84.08 70.90 83.26 76.49 C 92.90 76.45 102.53 76.74 112.17 76.59 C 111.11 68.38 108.57 60.45 107.24 52.29 C 99.85 54.03 92.35 55.92 85.71 59.73 M 133.56 52.24 C 131.80 60.37 129.85 68.45 128.18 76.59 C 137.77 76.57 147.37 76.81 156.96 76.67 C 156.42 70.64 155.44 64.66 154.44 58.68 C 147.72 55.82 140.77 53.48 133.56 52.24 M 155.37 59.24 C 156.20 65.15 157.01 71.07 157.94 76.97 C 158.28 77.20 158.97 77.66 159.32 77.89 L 159.36 78.63 L 160.16 78.56 C 163.09 81.04 165.49 84.03 167.81 87.07 C 178.75 102.86 180.06 124.03 174.10 141.97 C 171.19 150.24 165.56 157.35 158.71 162.74 C 158.08 169.37 155.60 175.67 155.14 182.33 C 163.66 177.49 172.09 172.02 178.28 164.29 C 189.13 151.97 195.40 135.47 194.71 119.00 C 194.75 102.53 187.36 86.70 176.33 74.71 C 176.08 74.44 175.57 73.91 175.32 73.65 C 169.41 67.91 162.76 62.92 155.37 59.24 M 71.66 68.68 C 58.85 79.69 49.53 95.13 47.44 112.03 C 46.15 124.69 47.60 137.85 53.53 149.25 C 60.07 163.39 71.98 174.48 85.60 181.74 C 85.30 175.53 84.64 169.30 83.62 163.16 C 72.57 156.22 66.08 143.67 64.13 131.03 C 62.12 117.35 63.31 102.66 70.36 90.49 C 73.28 85.07 77.81 80.74 82.39 76.72 C 83.25 71.15 85.00 65.63 84.66 59.95 C 80.22 62.69 75.78 65.46 71.66 68.68 M 82.58 77.58 C 73.49 84.71 67.16 95.24 65.30 106.66 C 84.25 100.69 104.35 100.33 124.05 100.49 C 141.42 100.28 158.89 102.03 175.67 106.68 C 174.07 101.91 172.81 96.97 170.36 92.54 C 168.53 88.91 165.84 85.85 163.36 82.66 C 161.41 80.83 159.46 78.94 157.16 77.54 C 136.26 77.25 115.35 77.45 94.44 77.32 C 90.50 77.38 86.45 76.79 82.58 77.58 M 64.65 107.66 C 64.24 115.83 63.22 124.27 65.36 132.28 C 69.37 132.63 73.16 134.10 77.12 134.76 C 82.66 136.02 88.37 135.99 93.99 136.49 C 84.19 137.75 74.72 134.80 65.24 132.91 C 66.69 141.15 70.31 148.91 75.66 155.33 C 77.87 157.99 80.51 160.23 83.32 162.21 C 98.17 162.30 113.01 162.10 127.85 162.55 L 127.28 161.63 C 137.93 161.72 148.60 161.84 159.25 161.54 C 165.27 156.20 170.44 149.80 173.29 142.20 C 174.32 138.90 175.31 135.57 175.80 132.13 C 173.28 132.76 170.78 133.44 168.28 134.17 C 158.06 136.62 147.55 137.93 137.03 137.59 C 123.70 137.90 110.38 137.77 97.05 137.82 C 94.23 137.82 91.40 137.76 88.61 137.34 C 101.39 137.02 114.18 137.38 126.97 137.22 C 136.60 136.57 146.33 137.40 155.88 135.78 C 162.84 134.97 169.62 133.13 176.31 131.12 C 176.69 123.26 177.46 115.22 175.41 107.52 C 151.66 100.24 126.56 101.06 102.01 101.48 C 89.42 102.26 76.65 103.52 64.65 107.66 M 84.47 162.72 C 85.16 169.23 85.99 175.73 86.60 182.26 C 92.99 185.15 99.66 187.39 106.55 188.77 C 108.63 180.15 110.42 171.46 112.48 162.83 C 103.14 162.65 93.81 162.83 84.47 162.72 M 112.91 163.86 C 111.17 172.37 108.96 180.78 107.34 189.31 C 115.86 189.90 124.42 190.03 132.94 189.38 C 131.97 180.53 129.54 171.91 128.08 163.14 C 123.32 163.10 118.57 162.65 113.81 162.86 C 113.58 163.11 113.13 163.61 112.91 163.86 M 128.55 162.45 C 130.35 171.22 132.40 179.97 133.72 188.83 C 140.87 187.89 147.93 185.73 154.31 182.35 C 155.00 175.63 157.36 169.21 157.97 162.48 C 148.17 162.38 138.36 162.46 128.55 162.45 Z" />
<path fill="#050505" opacity="1.00" d=" M 21.21 62.37 C 23.55 59.17 25.84 55.91 28.27 52.77 C 28.30 53.86 28.36 56.03 28.39 57.12 C 34.14 60.89 39.74 65.00 45.95 68.00 C 46.73 67.33 47.51 66.67 48.29 66.00 C 48.35 66.50 48.48 67.50 48.54 68.00 C 46.71 70.36 44.47 72.48 43.11 75.15 L 42.91 75.96 C 42.22 77.29 40.45 76.53 39.29 76.61 C 40.05 75.81 40.88 75.10 41.72 74.39 C 41.40 73.91 40.78 72.95 40.46 72.47 C 35.75 69.17 30.84 66.13 25.94 63.11 C 24.11 61.76 22.08 63.45 20.12 63.45 C 20.39 63.18 20.94 62.64 21.21 62.37 Z" />
<path fill="#050505" opacity="1.00" d=" M 203.64 59.77 C 204.70 54.86 211.24 53.09 215.14 55.79 C 218.06 57.38 219.39 60.54 220.73 63.40 C 219.04 64.99 217.33 66.57 215.50 68.00 C 215.32 66.05 216.37 64.44 217.48 62.96 C 217.16 61.52 216.77 60.10 216.34 58.69 C 215.75 58.45 214.57 57.96 213.98 57.72 C 212.87 58.07 211.76 58.41 210.65 58.75 C 209.18 63.90 212.89 70.23 208.08 74.29 C 204.18 76.56 199.30 76.04 195.96 73.02 C 194.25 70.71 192.90 68.13 192.35 65.28 C 193.76 64.08 195.09 62.78 196.25 61.33 C 197.17 61.52 198.10 61.71 199.02 61.91 C 198.65 62.04 197.91 62.31 197.54 62.44 C 196.15 65.25 195.02 68.36 196.63 71.34 C 198.79 72.76 201.18 72.35 203.35 71.23 C 205.04 67.51 202.90 63.60 203.64 59.77 Z" />
<path fill="#050505" opacity="1.00" d=" M 225.90 71.96 C 226.33 72.56 226.76 73.16 227.20 73.77 C 228.24 77.18 230.24 80.33 230.55 83.95 C 229.42 83.13 228.31 82.30 227.19 81.47 C 220.79 83.83 214.17 85.52 207.80 87.97 C 207.58 89.38 207.36 90.80 207.09 92.21 C 205.13 88.26 203.69 84.07 202.41 79.86 C 203.25 80.45 204.92 81.63 205.76 82.22 C 212.42 80.63 218.81 78.04 225.37 76.07 C 225.54 74.70 225.72 73.33 225.90 71.96 Z" />
<path fill="#050505" opacity="1.00" d=" M 10.43 83.55 C 12.11 80.02 13.03 75.58 16.83 73.66 C 19.35 72.86 21.86 73.84 24.13 74.88 C 24.93 76.68 25.60 78.52 25.97 80.46 C 31.08 79.99 36.19 79.19 41.00 77.33 C 40.06 79.77 39.00 82.33 36.93 84.04 C 33.22 86.12 28.73 85.08 24.82 86.54 C 23.25 84.73 23.87 81.65 21.47 80.50 C 19.57 79.04 17.10 79.32 14.86 79.24 C 13.93 80.40 13.20 81.69 12.74 83.11 C 15.89 84.25 19.07 85.35 22.17 86.62 C 22.80 86.63 24.06 86.66 24.69 86.68 C 27.37 88.98 33.26 91.75 35.58 87.50 C 35.41 92.02 32.90 96.06 30.89 99.99 C 30.71 98.59 30.55 97.18 30.42 95.77 C 24.66 93.54 18.90 91.27 13.01 89.39 C 11.07 88.62 9.21 89.30 8.54 91.34 C 7.80 88.54 9.52 86.06 10.43 83.55 Z" />
<path fill="#050505" opacity="1.00" d=" M 111.79 84.67 C 113.77 83.26 116.12 84.04 118.20 84.74 C 118.78 86.76 120.02 89.01 118.91 91.08 C 117.71 94.78 113.47 96.31 109.89 95.62 C 111.89 94.47 113.85 93.26 115.57 91.71 C 113.76 91.62 112.04 91.07 110.36 90.41 C 110.37 88.45 109.60 85.77 111.79 84.67 M 113.34 85.56 C 113.26 87.47 113.83 89.20 115.59 90.17 C 115.67 88.53 115.57 86.90 115.37 85.28 C 114.86 85.35 113.85 85.49 113.34 85.56 Z" />
<path fill="#050505" opacity="1.00" d=" M 132.60 84.45 C 133.75 84.22 134.89 83.98 136.04 83.73 C 136.83 83.99 137.62 84.25 138.41 84.51 C 141.28 88.03 137.42 91.17 134.91 93.35 C 136.72 93.34 138.43 92.78 140.00 91.87 C 139.86 92.78 139.59 94.61 139.45 95.53 C 136.55 95.78 133.62 95.64 130.72 95.52 C 132.83 92.77 136.88 90.38 135.63 86.33 C 133.93 85.81 132.61 87.00 131.33 87.85 C 131.60 86.67 132.06 85.54 132.60 84.45 Z" />
<path fill="#050505" opacity="1.00" d=" M 100.64 84.72 C 102.55 84.50 104.47 84.28 106.39 84.07 C 106.41 87.41 106.14 90.77 106.49 94.09 L 108.62 95.40 C 106.59 95.42 102.53 95.48 100.50 95.50 C 104.31 94.14 102.69 89.24 102.53 86.18 C 102.06 85.82 101.11 85.09 100.64 84.72 Z" />
<path fill="#050505" opacity="1.00" d=" M 120.86 84.25 C 123.90 84.16 126.95 84.14 130.00 84.23 C 128.13 87.97 126.28 91.74 124.73 95.63 C 123.51 95.68 122.28 95.71 121.06 95.73 C 123.10 92.80 125.23 89.88 126.53 86.52 C 124.48 86.55 122.49 87.00 120.57 87.67 C 120.64 86.81 120.78 85.10 120.86 84.25 Z" />
<path fill="#050505" opacity="1.00" d=" M 208.24 95.91 C 211.42 92.57 214.53 89.11 216.99 85.20 C 221.62 85.42 225.76 87.78 230.20 88.89 C 230.56 87.79 231.05 86.74 231.94 85.99 C 232.99 89.14 233.88 92.39 235.59 95.26 C 235.10 95.35 234.61 95.43 234.13 95.52 C 233.08 94.01 231.80 92.69 230.25 91.70 C 227.83 90.81 225.49 89.74 223.16 88.65 C 222.85 88.63 222.22 88.58 221.91 88.56 C 220.53 90.31 219.13 92.05 217.77 93.83 C 216.78 95.14 215.75 96.43 214.76 97.74 C 214.03 98.81 213.31 99.88 212.57 100.95 C 212.50 101.65 212.36 103.05 212.29 103.75 C 211.94 103.65 211.24 103.46 210.90 103.36 C 210.07 100.85 209.17 98.37 208.24 95.91 Z" />
<path fill="#050505" opacity="1.00" d=" M 5.87 98.44 L 7.32 98.42 C 7.39 99.13 7.54 100.55 7.61 101.27 C 11.35 102.03 15.14 102.51 18.92 103.03 C 21.66 103.38 24.43 103.56 27.10 104.29 C 28.69 103.72 30.10 102.78 31.53 101.91 C 30.64 105.97 30.63 110.20 29.17 114.13 C 28.75 113.02 28.41 111.88 28.08 110.74 C 21.80 109.13 15.29 108.83 8.91 107.77 C 6.71 107.17 5.67 109.57 4.37 110.83 C 4.46 106.65 5.56 102.59 5.87 98.44 Z" />
<path fill="#050505" opacity="1.00" d=" M 214.95 105.96 C 221.75 99.94 233.85 102.47 237.44 110.91 C 237.79 114.33 238.41 118.10 236.44 121.18 C 231.68 129.23 218.50 129.43 213.11 121.96 C 211.60 119.95 211.23 117.43 210.74 115.04 C 211.14 111.67 212.18 108.16 214.95 105.96 M 220.76 109.70 C 217.36 110.80 213.39 112.12 212.43 116.06 C 213.26 118.94 215.99 120.49 218.86 120.55 C 224.16 120.82 230.17 120.90 234.57 117.47 C 236.45 116.19 235.67 113.69 235.50 111.82 C 234.08 111.09 232.67 110.36 231.27 109.62 C 227.77 109.27 224.25 109.33 220.76 109.70 Z" />
<path fill="#050505" opacity="1.00" d=" M 93.75 110.82 C 95.94 110.67 98.12 110.40 100.31 110.19 C 100.40 115.36 99.88 120.58 100.68 125.72 C 101.32 125.59 102.59 125.33 103.23 125.20 C 103.97 121.53 103.54 117.73 103.58 114.01 C 103.74 112.70 102.69 111.79 102.02 110.82 C 103.92 110.61 105.82 110.36 107.72 110.10 C 107.77 114.77 107.70 119.44 107.77 124.11 C 108.15 124.66 108.91 125.76 109.29 126.32 C 104.18 126.29 99.07 126.34 93.96 126.24 C 97.11 124.17 96.03 120.17 96.22 117.00 C 96.38 114.66 96.15 111.95 93.75 110.82 Z" />
<path fill="#050505" opacity="1.00" d=" M 157.82 110.89 C 159.80 110.63 161.79 110.38 163.77 110.14 C 163.72 114.99 163.74 119.84 163.75 124.69 C 164.95 124.73 166.16 124.76 167.37 124.78 C 167.40 120.82 167.41 116.85 167.38 112.88 C 166.83 112.22 166.29 111.55 165.76 110.88 C 167.69 110.62 169.63 110.34 171.56 110.04 C 171.57 114.77 171.54 119.50 171.61 124.23 C 172.08 124.91 172.54 125.60 173.01 126.29 C 168.13 126.25 163.25 126.38 158.38 126.29 C 158.47 125.39 159.37 124.94 159.87 124.28 C 159.58 120.38 159.73 116.47 159.68 112.57 C 159.06 112.01 158.44 111.45 157.82 110.89 Z" />
<path fill="#050505" opacity="1.00" d=" M 66.87 111.30 C 69.95 111.27 73.04 111.21 76.08 111.67 C 75.29 112.09 74.49 112.51 73.69 112.93 C 74.50 115.39 75.43 117.82 76.39 120.24 C 77.79 118.03 78.91 115.59 79.29 112.99 C 78.73 112.66 77.59 112.02 77.02 111.69 C 79.61 111.16 82.25 111.29 84.87 111.54 C 83.71 112.40 82.14 112.98 81.48 114.38 C 79.50 118.39 78.04 122.64 76.26 126.75 C 75.72 126.56 74.65 126.18 74.12 126.00 C 71.63 121.14 70.79 115.35 66.87 111.30 Z" />
<path fill="#050505" opacity="1.00" d=" M 132.06 110.92 C 134.12 110.65 136.18 110.40 138.25 110.16 C 138.22 112.02 138.20 113.89 138.15 115.75 C 139.50 115.66 140.86 115.58 142.22 115.50 C 143.84 116.93 145.98 118.65 145.48 121.12 C 145.32 123.66 143.08 125.17 141.16 126.45 C 138.89 126.42 136.63 126.37 134.36 126.26 C 134.03 121.80 134.21 117.33 134.19 112.87 C 133.66 112.38 132.59 111.41 132.06 110.92 M 138.37 124.78 C 138.92 124.72 140.03 124.60 140.58 124.54 C 140.68 122.69 140.72 120.83 140.74 118.98 C 140.25 118.52 139.27 117.61 138.78 117.15 C 137.93 119.61 138.21 122.23 138.37 124.78 Z" />
<path fill="#050505" opacity="1.00" d=" M 113.96 115.89 C 117.13 114.22 120.34 117.10 120.54 120.32 C 119.72 120.43 118.08 120.66 117.26 120.77 C 115.88 119.90 115.76 118.14 115.17 116.79 C 114.09 118.90 113.76 121.84 115.58 123.65 C 117.24 123.49 118.91 123.35 120.57 123.22 C 119.17 125.95 115.90 127.39 113.03 126.05 C 108.57 124.36 109.45 116.99 113.96 115.89 Z" />
<path fill="#050505" opacity="1.00" d=" M 81.46 119.94 C 83.10 116.54 86.53 114.86 90.25 115.57 C 94.71 117.71 94.71 124.26 90.28 126.44 C 87.72 126.55 85.16 126.35 82.86 125.12 C 82.35 123.41 81.88 121.68 81.46 119.94 M 86.53 117.52 C 86.36 119.94 86.39 122.38 87.03 124.74 C 87.58 124.65 88.69 124.47 89.25 124.38 C 89.24 121.96 88.86 119.56 88.35 117.19 C 87.89 117.28 86.98 117.44 86.53 117.52 Z" />
<path fill="#050505" opacity="1.00" d=" M 120.25 115.68 C 122.77 115.66 125.30 115.67 127.82 115.67 C 125.47 117.31 126.90 119.76 127.96 121.62 C 128.41 119.67 128.85 117.66 128.34 115.67 C 129.43 115.66 131.61 115.63 132.70 115.62 L 132.54 116.92 C 128.72 120.80 127.88 126.63 125.07 131.20 C 124.36 131.08 122.94 130.84 122.23 130.71 C 122.35 130.28 122.60 129.41 122.72 128.98 C 123.67 128.08 124.61 127.16 125.53 126.23 C 123.98 122.61 122.64 118.85 120.25 115.68 Z" />
<path fill="#050505" opacity="1.00" d=" M 152.39 117.68 C 151.54 117.09 150.69 116.50 149.85 115.91 C 152.07 115.38 154.40 115.44 156.33 116.75 C 155.98 119.83 157.52 123.15 156.21 126.05 C 153.07 126.19 149.45 126.99 146.66 125.10 C 146.86 123.48 146.41 121.41 148.41 120.77 C 147.94 119.79 146.10 118.08 147.76 117.24 C 148.64 115.60 149.99 117.57 151.07 117.82 L 149.34 119.65 C 150.06 119.64 151.50 119.60 152.22 119.59 C 152.26 119.11 152.34 118.16 152.39 117.68 M 151.74 124.47 C 152.93 123.81 153.21 122.79 152.56 121.41 C 150.64 119.94 149.57 124.22 151.74 124.47 Z" />
<path fill="#050505" opacity="1.00" d=" M 4.30 128.43 C 3.75 124.43 4.14 120.06 7.59 117.44 C 10.73 117.31 14.61 116.34 17.00 119.01 C 19.68 121.15 19.95 124.77 19.60 127.94 C 22.51 127.64 25.78 128.32 28.34 126.54 C 28.56 125.34 28.78 124.14 29.10 122.96 C 30.67 127.42 30.56 132.27 30.40 136.93 C 29.62 135.88 28.90 134.79 28.19 133.70 C 22.05 133.53 15.98 134.57 9.86 134.62 C 7.76 134.41 6.28 136.11 5.79 137.99 C 3.92 135.21 4.86 131.58 4.30 128.43 M 6.02 128.73 C 9.92 128.76 13.83 128.60 17.72 128.26 C 17.67 127.39 17.59 125.64 17.54 124.77 C 14.88 123.16 11.75 123.35 8.77 123.53 C 6.82 124.59 6.02 126.56 6.02 128.73 Z" />
<path fill="#050505" opacity="1.00" d=" M 217.03 134.17 C 219.75 133.28 222.60 134.16 225.31 134.63 C 227.00 135.60 228.67 136.62 230.33 137.66 C 235.59 143.41 234.50 153.08 229.38 158.53 C 227.54 157.67 225.52 157.45 223.53 157.25 C 223.52 156.87 223.50 156.10 223.49 155.72 C 227.06 156.00 231.29 154.04 231.56 150.05 C 232.25 145.95 228.54 143.30 225.32 141.77 C 224.27 141.42 223.24 141.06 222.21 140.69 C 217.39 139.97 210.01 139.68 208.89 145.95 C 208.37 145.17 207.84 144.38 207.32 143.60 C 209.13 139.36 212.32 135.25 217.03 134.17 Z" />
<path fill="#050505" opacity="1.00" d=" M 18.67 145.66 C 19.86 142.64 22.70 140.32 26.02 140.27 C 30.15 139.93 33.88 143.07 35.03 146.92 C 35.76 149.73 36.73 153.96 32.96 154.80 C 31.84 155.44 30.72 156.08 29.60 156.71 C 28.72 154.04 32.14 152.90 32.80 150.60 C 34.58 148.05 32.12 143.56 28.89 144.67 C 27.89 144.93 26.92 145.24 25.95 145.59 C 25.56 146.68 25.17 147.77 24.75 148.86 C 24.34 152.36 23.83 156.80 20.15 158.42 C 17.79 159.63 15.19 159.08 12.77 158.39 C 11.69 157.35 10.62 156.28 9.57 155.20 C 8.80 152.83 7.84 150.43 7.84 147.90 C 8.87 147.19 9.96 146.59 11.03 145.95 C 12.14 145.68 13.25 145.45 14.37 145.25 C 13.25 146.91 11.85 148.34 10.44 149.76 C 10.56 151.49 10.17 153.52 11.93 154.57 C 13.32 154.90 14.72 154.91 16.12 154.61 C 18.40 152.25 18.07 148.66 18.67 145.66 Z" />
<path fill="#050505" opacity="1.00" d=" M 107.56 144.30 C 109.22 143.68 110.97 143.45 112.72 143.25 C 112.81 146.91 112.80 150.56 112.75 154.22 C 113.10 154.71 113.81 155.70 114.17 156.19 C 110.51 156.27 106.84 156.25 103.18 156.24 C 102.00 154.28 100.74 152.37 99.60 150.39 C 99.45 152.76 99.63 155.10 102.00 156.30 C 99.41 156.25 96.83 156.24 94.25 156.13 C 94.77 155.75 95.81 154.99 96.33 154.61 C 96.29 151.69 96.31 148.77 96.32 145.86 C 95.81 145.49 94.78 144.75 94.27 144.38 C 96.58 144.30 98.90 144.27 101.22 144.22 C 100.37 145.79 99.00 147.25 99.71 149.28 C 101.13 147.93 103.29 146.48 102.45 144.20 C 104.15 144.26 105.85 144.29 107.56 144.30 M 102.29 148.95 C 104.52 151.26 105.74 155.29 109.37 155.64 C 109.59 151.80 109.69 147.94 109.22 144.13 C 106.64 145.31 104.30 146.93 102.29 148.95 Z" />
<path fill="#050505" opacity="1.00" d=" M 125.13 143.74 C 126.68 143.61 128.23 143.48 129.78 143.36 C 129.75 144.83 129.73 146.31 129.71 147.78 C 130.57 147.74 132.31 147.64 133.18 147.59 C 135.86 149.42 136.15 152.78 134.37 155.38 C 131.90 156.57 129.20 156.72 126.53 156.23 C 125.91 152.11 127.71 147.35 125.13 143.74 M 129.74 149.52 C 129.75 151.27 129.76 153.03 129.77 154.79 C 130.27 154.75 131.27 154.68 131.77 154.64 C 131.73 152.96 131.65 151.29 131.51 149.62 C 131.07 149.60 130.19 149.55 129.74 149.52 Z" />
<path fill="#050505" opacity="1.00" d=" M 135.99 143.71 C 137.55 143.58 139.12 143.46 140.68 143.35 C 140.65 144.74 140.62 146.12 140.59 147.51 C 142.22 147.79 143.85 148.11 145.48 148.45 C 147.20 151.43 146.28 154.85 143.29 156.50 C 141.29 156.49 139.30 156.38 137.33 156.16 C 137.25 152.75 137.27 149.33 137.26 145.92 C 136.84 145.18 136.41 144.44 135.99 143.71 M 140.63 149.36 C 140.65 151.20 140.66 153.04 140.67 154.88 C 141.15 154.82 142.11 154.72 142.59 154.66 C 142.58 153.06 142.56 151.47 142.51 149.87 C 142.04 149.75 141.10 149.49 140.63 149.36 Z" />
<path fill="#050505" opacity="1.00" d=" M 217.21 148.77 C 217.83 147.47 218.47 146.17 219.07 144.86 C 219.47 145.53 219.87 146.20 220.27 146.86 C 218.78 150.26 217.96 153.88 217.00 157.45 C 216.66 157.41 215.97 157.33 215.62 157.30 C 215.52 156.70 215.30 155.50 215.19 154.90 C 212.27 154.23 209.37 153.48 206.42 153.02 C 206.38 150.41 206.56 147.80 206.74 145.20 C 209.52 147.90 213.54 148.35 217.21 148.77 Z" />
<path fill="#050505" opacity="1.00" d=" M 114.32 148.54 C 117.03 146.99 120.42 148.06 123.40 147.80 C 124.94 150.15 123.82 153.41 124.70 156.09 C 123.71 156.22 121.74 156.46 120.75 156.58 C 120.68 153.94 120.67 151.28 120.39 148.65 C 119.82 148.48 119.25 148.31 118.69 148.15 C 118.56 151.02 118.41 154.07 120.52 156.33 C 119.58 156.35 117.68 156.38 116.73 156.40 C 114.26 154.47 116.36 150.80 114.32 148.54 Z" />
</g>
</svg>
