<?xml version="1.0" encoding="UTF-8" ?>
<!DOCTYPE svg PUBLIC "-//W3C//DTD SVG 1.1//EN" "http://www.w3.org/Graphics/SVG/1.1/DTD/svg11.dtd">
<svg width="479pt" height="476pt" viewBox="0 0 479 476" version="1.1" xmlns="http://www.w3.org/2000/svg">
<g id="#fefffeff">
<path fill="#fefffe" opacity="1.00" d=" M 225.14 32.01 C 227.74 31.93 230.35 31.92 232.96 31.97 C 235.51 45.62 236.59 59.51 238.75 73.23 C 241.99 59.71 242.92 45.75 246.11 32.22 C 248.40 32.23 250.70 32.21 252.99 32.23 C 252.22 42.68 249.65 52.90 248.14 63.26 C 246.74 70.25 246.26 77.43 244.09 84.25 C 240.14 84.55 236.17 84.50 232.26 83.89 C 230.02 70.20 228.47 56.41 226.35 42.70 C 225.79 39.16 225.37 35.59 225.14 32.01 Z" />
<path fill="#fefffe" opacity="1.00" d=" M 282.34 37.41 C 287.85 36.51 294.57 38.54 297.14 43.86 C 299.17 48.00 297.90 52.68 296.96 56.93 C 295.14 64.20 293.57 71.53 291.83 78.82 C 290.76 83.26 288.43 88.25 283.62 89.52 C 278.86 90.56 273.36 89.70 269.76 86.22 C 267.30 83.88 266.36 80.31 266.75 77.01 C 267.38 71.32 269.15 65.84 270.34 60.26 C 271.65 54.96 272.47 49.51 274.44 44.40 C 275.71 40.96 278.61 38.00 282.34 37.41 M 283.48 45.35 C 281.84 46.72 281.60 49.08 280.99 51.01 C 279.44 58.05 277.75 65.05 276.02 72.05 C 275.48 74.82 274.56 77.73 275.33 80.54 C 276.80 82.90 281.29 83.30 282.45 80.40 C 284.60 75.38 285.17 69.85 286.60 64.59 C 287.70 59.15 289.76 53.81 289.75 48.21 C 289.92 45.12 285.74 43.95 283.48 45.35 Z" />
<path fill="#fefffe" opacity="1.00" d=" M 150.12 49.46 C 155.33 47.40 160.48 44.93 166.06 44.08 C 170.00 43.42 174.05 45.48 176.03 48.91 C 178.85 53.78 180.33 59.28 182.41 64.48 C 184.40 70.24 187.08 75.79 188.32 81.78 C 189.17 85.65 187.36 89.87 183.97 91.92 C 179.11 94.88 173.61 96.57 168.15 98.05 C 163.46 87.66 160.10 76.72 155.89 66.13 C 153.86 60.61 151.34 55.24 150.12 49.46 M 160.22 53.84 C 164.44 65.37 168.51 76.98 173.24 88.31 C 175.35 87.51 177.92 87.22 179.44 85.36 C 180.71 83.66 179.68 81.52 179.24 79.71 C 177.18 73.85 174.70 68.16 172.70 62.28 C 171.41 58.99 170.51 55.43 168.29 52.61 C 165.79 50.52 162.70 52.91 160.22 53.84 Z" />
<path fill="#fefffe" opacity="1.00" d=" M 324.23 49.85 C 326.69 50.52 329.04 51.55 331.21 52.90 C 328.65 60.41 324.64 67.30 321.46 74.54 C 318.68 80.90 315.12 86.95 313.10 93.62 C 317.01 95.41 320.92 97.23 324.74 99.23 C 323.82 101.43 322.85 103.60 321.84 105.76 C 315.11 103.23 308.70 99.94 302.29 96.71 C 305.47 88.10 309.93 80.04 313.65 71.66 C 317.20 64.40 320.13 56.83 324.23 49.85 Z" />
<path fill="#fefffe" opacity="1.00" d=" M 118.41 67.37 C 121.74 66.01 125.80 66.15 128.76 68.31 C 132.03 70.70 134.19 74.22 136.55 77.44 C 140.34 82.96 144.45 88.25 148.28 93.75 C 151.02 97.52 153.08 102.53 151.05 107.10 C 148.50 112.46 142.16 116.39 136.18 115.00 C 131.77 113.91 128.95 110.06 126.46 106.56 C 122.12 100.25 117.47 94.16 113.08 87.90 C 111.03 84.86 108.96 81.34 109.56 77.53 C 110.28 72.79 114.10 69.09 118.41 67.37 M 119.44 75.25 C 117.59 76.21 117.36 78.87 118.38 80.55 C 120.68 85.05 124.20 88.76 127.03 92.92 C 130.37 97.29 133.00 102.23 136.91 106.13 C 139.26 109.09 144.95 105.91 143.54 102.40 C 142.02 98.58 139.21 95.47 136.87 92.14 C 132.77 86.86 129.39 81.02 124.94 76.03 C 123.64 74.30 121.19 74.12 119.44 75.25 Z" />
<path fill="#fefffe" opacity="1.00" d=" M 361.93 74.89 C 362.98 74.02 363.90 71.81 365.55 72.64 C 367.63 73.63 369.20 75.39 370.88 76.92 C 362.04 88.81 352.07 99.83 343.29 111.76 C 346.57 114.54 349.89 117.29 353.05 120.21 C 351.88 122.23 350.54 124.15 349.05 125.94 C 343.21 121.79 337.71 117.20 332.20 112.64 C 334.98 107.77 338.85 103.68 342.34 99.33 C 348.87 91.19 355.46 83.09 361.93 74.89 Z" />
<path fill="#fefffe" opacity="1.00" d=" M 71.55 113.02 C 76.61 106.31 81.84 99.65 87.93 93.84 C 89.64 95.19 91.35 96.56 93.05 97.94 C 91.57 100.36 89.84 102.61 88.30 105.00 C 94.74 111.17 101.94 116.48 108.64 122.35 C 113.00 126.19 117.88 129.48 121.66 133.94 C 120.15 135.96 118.57 137.94 116.94 139.86 C 105.14 131.05 94.53 120.74 82.85 111.77 C 80.66 113.64 78.69 115.74 76.59 117.70 C 74.86 116.19 73.19 114.63 71.55 113.02 Z" />
<path fill="#fefffe" opacity="1.00" d=" M 388.40 111.42 C 391.74 108.83 395.10 106.25 398.72 104.06 C 403.48 109.76 407.99 115.70 411.99 121.96 C 410.12 123.39 408.19 124.75 406.22 126.04 C 403.28 122.53 400.64 118.79 397.80 115.21 C 393.67 117.54 389.82 120.35 386.57 123.80 C 388.70 126.68 390.56 129.75 392.29 132.89 C 390.52 134.40 388.59 135.71 386.56 136.85 C 384.45 133.89 382.22 131.03 379.95 128.20 C 375.78 130.86 371.78 133.78 368.06 137.03 C 370.18 140.45 372.86 143.49 375.03 146.87 C 377.00 149.92 372.01 151.11 370.17 152.52 C 365.59 146.71 360.70 141.03 357.15 134.51 C 367.56 126.80 377.99 119.12 388.40 111.42 Z" />
<path fill="#fefffe" opacity="1.00" d=" M 51.82 152.32 C 49.00 144.81 55.20 134.14 63.85 135.31 C 66.55 135.37 68.90 136.83 71.23 138.04 C 70.38 140.27 69.31 142.41 68.13 144.48 C 65.31 144.18 60.94 141.82 59.38 145.44 C 57.73 149.13 61.85 151.91 65.04 152.29 C 71.42 153.00 77.03 148.99 83.23 148.28 C 89.03 147.33 95.24 149.44 99.15 153.85 C 105.85 161.25 98.15 175.70 88.15 173.65 C 85.23 173.36 82.63 171.87 80.04 170.62 C 80.78 168.33 81.82 166.16 83.09 164.13 C 85.84 164.69 88.59 165.88 91.44 165.50 C 93.26 164.55 93.82 162.22 93.65 160.32 C 91.64 157.23 87.54 155.96 84.02 156.62 C 78.26 157.67 72.98 160.91 66.99 160.81 C 60.92 161.08 54.63 157.77 51.82 152.32 Z" />
<path fill="#fefffe" opacity="1.00" d=" M 398.11 163.14 C 406.82 156.23 414.96 148.59 423.97 142.06 C 425.16 144.54 426.12 147.11 426.92 149.74 C 421.53 155.03 414.65 158.53 409.62 164.21 C 417.17 163.94 424.54 161.99 432.08 161.61 C 433.13 163.75 434.14 165.92 435.12 168.10 C 423.46 170.76 411.35 170.56 399.61 172.82 C 393.90 174.35 388.80 177.56 383.07 179.05 C 381.82 176.68 380.85 174.18 380.21 171.58 C 386.15 168.73 392.78 167.15 398.11 163.14 Z" />
</g>
<g id="#1685b2ff">
<path fill="#1685b2" opacity="1.00" d=" M 157.99 26.97 C 197.34 12.15 240.87 8.72 282.09 17.00 C 314.51 23.50 345.50 37.20 372.02 56.97 C 411.28 85.81 440.76 127.68 454.55 174.42 C 457.63 185.19 460.69 196.10 461.42 207.33 C 452.91 207.88 444.44 206.70 435.94 206.60 C 428.28 206.49 420.64 205.79 412.99 205.61 C 400.76 205.52 388.57 204.20 376.33 204.46 C 374.74 200.55 373.63 196.48 372.46 192.45 C 362.01 159.66 339.01 131.08 309.27 113.79 C 285.81 99.87 258.17 93.27 230.96 94.48 C 197.67 96.15 164.97 109.75 140.80 132.80 C 126.65 145.92 115.53 162.12 107.77 179.74 C 106.05 183.88 104.54 188.10 102.81 192.23 C 83.85 192.17 64.90 190.74 45.93 190.28 C 36.26 189.36 26.52 189.94 16.88 188.84 C 17.64 183.08 19.37 177.54 21.07 172.01 C 30.98 140.33 47.78 110.74 70.30 86.32 C 94.31 60.01 124.58 39.37 157.99 26.97 M 225.14 32.01 C 225.37 35.59 225.79 39.16 226.35 42.70 C 228.47 56.41 230.02 70.20 232.26 83.89 C 236.17 84.50 240.14 84.55 244.09 84.25 C 246.26 77.43 246.74 70.25 248.14 63.26 C 249.65 52.90 252.22 42.68 252.99 32.23 C 250.70 32.21 248.40 32.23 246.11 32.22 C 242.92 45.75 241.99 59.71 238.75 73.23 C 236.59 59.51 235.51 45.62 232.96 31.97 C 230.35 31.92 227.74 31.93 225.14 32.01 M 282.34 37.41 C 278.61 38.00 275.71 40.96 274.44 44.40 C 272.47 49.51 271.65 54.96 270.34 60.26 C 269.15 65.84 267.38 71.32 266.75 77.01 C 266.36 80.31 267.30 83.88 269.76 86.22 C 273.36 89.70 278.86 90.56 283.62 89.52 C 288.43 88.25 290.76 83.26 291.83 78.82 C 293.57 71.53 295.14 64.20 296.96 56.93 C 297.90 52.68 299.17 48.00 297.14 43.86 C 294.57 38.54 287.85 36.51 282.34 37.41 M 150.12 49.46 C 151.34 55.24 153.86 60.61 155.89 66.13 C 160.10 76.72 163.46 87.66 168.15 98.05 C 173.61 96.57 179.11 94.88 183.97 91.92 C 187.36 89.87 189.17 85.65 188.32 81.78 C 187.08 75.79 184.40 70.24 182.41 64.48 C 180.33 59.28 178.85 53.78 176.03 48.91 C 174.05 45.48 170.00 43.42 166.06 44.08 C 160.48 44.93 155.33 47.40 150.12 49.46 M 324.23 49.85 C 320.13 56.83 317.20 64.40 313.65 71.66 C 309.93 80.04 305.47 88.10 302.29 96.71 C 308.70 99.94 315.11 103.23 321.84 105.76 C 322.85 103.60 323.82 101.43 324.74 99.23 C 320.92 97.23 317.01 95.41 313.10 93.62 C 315.12 86.95 318.68 80.90 321.46 74.54 C 324.64 67.30 328.65 60.41 331.21 52.90 C 329.04 51.55 326.69 50.52 324.23 49.85 M 118.41 67.37 C 114.10 69.09 110.28 72.79 109.56 77.53 C 108.96 81.34 111.03 84.86 113.08 87.90 C 117.47 94.16 122.12 100.25 126.46 106.56 C 128.95 110.06 131.77 113.91 136.18 115.00 C 142.16 116.39 148.50 112.46 151.05 107.10 C 153.08 102.53 151.02 97.52 148.28 93.75 C 144.45 88.25 140.34 82.96 136.55 77.44 C 134.19 74.22 132.03 70.70 128.76 68.31 C 125.80 66.15 121.74 66.01 118.41 67.37 M 361.93 74.89 C 355.46 83.09 348.87 91.19 342.34 99.33 C 338.85 103.68 334.98 107.77 332.20 112.64 C 337.71 117.20 343.21 121.79 349.05 125.94 C 350.54 124.15 351.88 122.23 353.05 120.21 C 349.89 117.29 346.57 114.54 343.29 111.76 C 352.07 99.83 362.04 88.81 370.88 76.92 C 369.20 75.39 367.63 73.63 365.55 72.64 C 363.90 71.81 362.98 74.02 361.93 74.89 M 71.55 113.02 C 73.19 114.63 74.86 116.19 76.59 117.70 C 78.69 115.74 80.66 113.64 82.85 111.77 C 94.53 120.74 105.14 131.05 116.94 139.86 C 118.57 137.94 120.15 135.96 121.66 133.94 C 117.88 129.48 113.00 126.19 108.64 122.35 C 101.94 116.48 94.74 111.17 88.30 105.00 C 89.84 102.61 91.57 100.36 93.05 97.94 C 91.35 96.56 89.64 95.19 87.93 93.84 C 81.84 99.65 76.61 106.31 71.55 113.02 M 388.40 111.42 C 377.99 119.12 367.56 126.80 357.15 134.51 C 360.70 141.03 365.59 146.71 370.17 152.52 C 372.01 151.11 377.00 149.92 375.03 146.87 C 372.86 143.49 370.18 140.45 368.06 137.03 C 371.78 133.78 375.78 130.86 379.95 128.20 C 382.22 131.03 384.45 133.89 386.56 136.85 C 388.59 135.71 390.52 134.40 392.29 132.89 C 390.56 129.75 388.70 126.68 386.57 123.80 C 389.82 120.35 393.67 117.54 397.80 115.21 C 400.64 118.79 403.28 122.53 406.22 126.04 C 408.19 124.75 410.12 123.39 411.99 121.96 C 407.99 115.70 403.48 109.76 398.72 104.06 C 395.10 106.25 391.74 108.83 388.40 111.42 M 51.82 152.32 C 54.63 157.77 60.92 161.08 66.99 160.81 C 72.98 160.91 78.26 157.67 84.02 156.62 C 87.54 155.96 91.64 157.23 93.65 160.32 C 93.82 162.22 93.26 164.55 91.44 165.50 C 88.59 165.88 85.84 164.69 83.09 164.13 C 81.82 166.16 80.78 168.33 80.04 170.62 C 82.63 171.87 85.23 173.36 88.15 173.65 C 98.15 175.70 105.85 161.25 99.15 153.85 C 95.24 149.44 89.03 147.33 83.23 148.28 C 77.03 148.99 71.42 153.00 65.04 152.29 C 61.85 151.91 57.73 149.13 59.38 145.44 C 60.94 141.82 65.31 144.18 68.13 144.48 C 69.31 142.41 70.38 140.27 71.23 138.04 C 68.90 136.83 66.55 135.37 63.85 135.31 C 55.20 134.14 49.00 144.81 51.82 152.32 M 398.11 163.14 C 392.78 167.15 386.15 168.73 380.21 171.58 C 380.85 174.18 381.82 176.68 383.07 179.05 C 388.80 177.56 393.90 174.35 399.61 172.82 C 411.35 170.56 423.46 170.76 435.12 168.10 C 434.14 165.92 433.13 163.75 432.08 161.61 C 424.54 161.99 417.17 163.94 409.62 164.21 C 414.65 158.53 421.53 155.03 426.92 149.74 C 426.12 147.11 425.16 144.54 423.97 142.06 C 414.96 148.59 406.82 156.23 398.11 163.14 Z" />
<path fill="#1685b2" opacity="1.00" d=" M 283.48 45.35 C 285.74 43.95 289.92 45.12 289.75 48.21 C 289.76 53.81 287.70 59.15 286.60 64.59 C 285.17 69.85 284.60 75.38 282.45 80.40 C 281.29 83.30 276.80 82.90 275.33 80.54 C 274.56 77.73 275.48 74.82 276.02 72.05 C 277.75 65.05 279.44 58.05 280.99 51.01 C 281.60 49.08 281.84 46.72 283.48 45.35 Z" />
<path fill="#1685b2" opacity="1.00" d=" M 160.22 53.84 C 162.70 52.91 165.79 50.52 168.29 52.61 C 170.51 55.43 171.41 58.99 172.70 62.28 C 174.70 68.16 177.18 73.85 179.24 79.71 C 179.68 81.52 180.71 83.66 179.44 85.36 C 177.92 87.22 175.35 87.51 173.24 88.31 C 168.51 76.98 164.44 65.37 160.22 53.84 Z" />
<path fill="#1685b2" opacity="1.00" d=" M 119.44 75.25 C 121.19 74.12 123.64 74.30 124.94 76.03 C 129.39 81.02 132.77 86.86 136.87 92.14 C 139.21 95.47 142.02 98.58 143.54 102.40 C 144.95 105.91 139.26 109.09 136.91 106.13 C 133.00 102.23 130.37 97.29 127.03 92.92 C 124.20 88.76 120.68 85.05 118.38 80.55 C 117.36 78.87 117.59 76.21 119.44 75.25 Z" />
<path fill="#1685b2" opacity="1.00" d=" M 274.00 109.21 C 276.37 107.14 276.61 112.76 274.07 110.93 C 274.05 110.50 274.02 109.64 274.00 109.21 Z" />
<path fill="#1685b2" opacity="1.00" d=" M 13.35 206.22 C 21.74 206.03 30.13 206.61 38.52 206.66 C 39.81 213.03 39.08 219.55 39.22 226.00 C 39.11 233.97 39.63 241.96 38.93 249.91 C 29.64 248.92 20.49 246.89 11.24 245.55 C 10.53 232.43 11.40 219.21 13.35 206.22 Z" />
<path fill="#1685b2" opacity="1.00" d=" M 42.41 207.34 C 52.94 207.17 63.44 208.24 73.96 208.44 C 77.88 208.50 81.81 208.68 85.71 209.11 C 85.91 225.36 85.90 241.63 85.71 257.88 C 71.22 255.98 56.84 253.22 42.46 250.64 C 42.25 236.21 42.34 221.77 42.41 207.34 Z" />
<path fill="#1685b2" opacity="1.00" d=" M 89.26 209.22 C 92.17 209.20 95.07 209.24 97.98 209.31 C 97.84 217.24 96.10 225.05 96.38 233.01 C 96.06 242.00 96.96 250.95 97.64 259.90 C 94.85 259.66 92.07 259.31 89.31 258.83 C 88.97 242.30 89.10 225.75 89.26 209.22 Z" />
<path fill="#1685b2" opacity="1.00" d=" M 378.97 221.37 C 387.00 221.23 395.02 221.89 403.04 222.30 C 423.16 222.67 443.24 224.32 463.37 224.65 C 465.34 248.53 462.79 272.70 456.92 295.90 C 454.69 303.96 452.74 312.17 449.11 319.74 C 425.18 315.86 401.33 311.56 377.40 307.68 C 374.58 307.18 371.78 306.59 369.00 305.90 C 368.52 299.71 368.23 293.30 370.21 287.32 C 376.59 268.64 380.37 248.80 379.10 229.00 C 378.96 226.46 378.90 223.91 378.97 221.37 Z" />
<path fill="#1685b2" opacity="1.00" d=" M 11.24 249.14 C 20.56 250.47 29.98 251.59 39.09 254.04 C 39.48 262.02 39.15 270.01 39.21 278.00 C 39.16 284.68 39.52 291.36 39.03 298.03 C 33.36 297.04 27.91 295.15 22.35 293.71 C 20.07 292.98 16.84 292.53 16.50 289.60 C 13.47 276.34 11.52 262.75 11.24 249.14 Z" />
<path fill="#1685b2" opacity="1.00" d=" M 42.44 254.24 C 56.88 256.49 71.26 259.10 85.67 261.49 C 86.03 278.22 85.75 294.97 85.81 311.71 C 71.36 307.75 56.96 303.58 42.60 299.31 C 42.08 284.30 42.39 269.26 42.44 254.24 Z" />
<path fill="#1685b2" opacity="1.00" d=" M 89.27 262.19 C 92.21 262.56 95.26 262.74 98.01 263.94 C 99.27 266.41 99.56 269.23 100.20 271.91 C 104.08 290.03 112.51 306.84 122.80 322.13 C 111.51 319.47 100.41 316.03 89.32 312.68 C 88.93 295.86 89.05 279.01 89.27 262.19 Z" />
<path fill="#1685b2" opacity="1.00" d=" M 18.21 296.08 C 25.22 297.83 32.21 299.73 39.03 302.12 C 39.47 309.40 39.12 316.71 39.21 324.00 C 39.16 330.43 39.56 336.88 38.84 343.29 C 34.68 342.63 33.51 338.30 31.90 335.05 C 26.28 322.48 21.21 309.55 18.21 296.08 Z" />
<path fill="#1685b2" opacity="1.00" d=" M 362.17 304.88 C 363.25 303.11 364.47 301.42 365.72 299.76 C 365.60 301.79 365.39 303.82 365.19 305.85 C 364.18 305.52 363.17 305.20 362.17 304.88 Z" />
<path fill="#1685b2" opacity="1.00" d=" M 42.41 303.12 C 46.26 303.91 50.05 304.96 53.80 306.13 C 64.39 309.31 75.11 312.01 85.62 315.44 C 86.05 330.94 85.82 346.46 85.73 361.97 C 78.86 360.02 72.48 356.75 65.80 354.29 C 57.98 351.15 50.04 348.29 42.43 344.68 C 42.29 330.83 42.28 316.97 42.41 303.12 Z" />
<path fill="#1685b2" opacity="1.00" d=" M 361.09 308.27 C 362.58 308.49 364.06 308.80 365.52 309.20 C 365.73 336.76 365.61 364.33 365.58 391.89 C 356.97 390.14 348.65 387.22 340.19 384.91 C 323.83 380.06 307.33 375.68 291.04 370.63 C 296.17 367.81 301.67 365.72 306.69 362.68 C 325.89 351.69 342.65 336.32 354.81 317.79 C 356.84 314.57 358.84 311.34 361.09 308.27 Z" />
<path fill="#1685b2" opacity="1.00" d=" M 368.90 309.81 C 384.81 311.88 400.55 315.13 416.40 317.63 C 426.86 319.53 437.41 320.92 447.82 323.09 C 442.74 337.56 435.16 351.05 426.92 363.94 C 418.27 377.26 408.05 389.55 396.90 400.84 C 387.39 398.85 378.11 395.82 368.84 392.92 C 368.57 373.95 368.85 354.97 368.75 336.00 C 368.89 327.27 368.43 318.53 368.90 309.81 Z" />
<path fill="#1685b2" opacity="1.00" d=" M 89.25 316.73 C 95.98 317.76 102.37 320.19 108.91 321.99 C 113.85 323.50 118.91 324.61 123.82 326.23 C 126.91 327.11 129.03 329.64 131.08 331.96 C 132.78 334.02 134.83 336.15 134.99 338.97 C 135.60 345.64 134.92 352.33 134.86 359.00 C 134.65 366.63 135.57 374.26 134.72 381.87 C 119.57 375.87 104.36 369.98 89.35 363.64 C 88.92 348.02 89.07 332.36 89.25 316.73 Z" />
<path fill="#1685b2" opacity="1.00" d=" M 138.46 340.83 C 143.11 344.00 147.02 348.10 151.49 351.51 C 160.93 358.86 171.39 364.86 182.37 369.59 C 186.12 371.09 189.91 372.49 193.55 374.27 C 193.65 384.51 193.61 394.76 193.55 405.01 C 187.62 403.51 182.08 400.88 176.41 398.65 C 163.80 393.51 151.11 388.55 138.49 383.44 C 138.09 369.24 138.27 355.03 138.46 340.83 Z" />
<path fill="#1685b2" opacity="1.00" d=" M 38.54 347.23 C 59.91 355.39 81.05 364.16 102.31 372.61 C 163.98 397.29 225.64 422.00 287.31 446.68 C 293.95 449.53 300.90 451.68 307.34 455.02 C 299.70 458.08 291.62 459.87 283.60 461.61 C 227.53 473.50 167.06 462.91 118.44 432.53 C 89.30 414.58 64.40 389.84 46.07 360.95 C 43.26 356.55 40.41 352.13 38.54 347.23 Z" />
<path fill="#1685b2" opacity="1.00" d=" M 273.52 376.40 C 278.74 374.34 284.50 371.96 290.14 373.93 C 315.15 381.45 340.38 388.24 365.40 395.71 C 365.85 405.98 365.70 416.28 365.48 426.56 C 352.23 435.99 337.61 443.38 322.67 449.74 C 318.41 451.36 313.69 454.09 309.12 451.88 C 297.31 446.95 285.34 442.42 273.55 437.46 C 273.34 417.11 273.42 396.75 273.52 376.40 Z" />
<path fill="#1685b2" opacity="1.00" d=" M 197.04 375.20 C 207.57 377.52 218.10 380.26 228.93 380.59 C 234.94 380.72 240.96 380.75 246.97 380.51 C 254.71 380.18 262.27 378.36 269.92 377.28 C 270.46 389.18 269.97 401.09 270.13 413.00 C 270.03 420.62 270.45 428.26 269.84 435.87 C 251.64 429.09 233.79 421.40 215.68 414.37 C 209.51 411.83 203.15 409.72 197.17 406.74 C 196.42 396.25 196.63 385.70 197.04 375.20 Z" />
<path fill="#1685b2" opacity="1.00" d=" M 368.95 396.97 C 377.14 398.87 385.27 401.12 393.19 403.96 C 385.85 411.45 377.74 418.26 368.94 423.97 C 368.60 414.97 368.56 405.96 368.95 396.97 Z" />
</g>
<g id="#cb151eff">
<path fill="#cb151e" opacity="1.00" d=" M 201.58 111.58 C 210.48 105.62 221.72 105.90 231.99 104.89 C 246.07 104.37 260.37 105.55 274.00 109.21 C 274.02 109.64 274.05 110.50 274.07 110.93 C 255.35 119.42 237.87 130.77 222.94 144.94 C 207.90 159.15 195.29 175.73 184.16 193.13 C 181.57 197.32 179.23 201.71 176.07 205.53 C 168.41 201.17 162.76 194.11 158.36 186.61 C 155.14 181.04 151.71 175.59 148.60 169.96 C 151.32 164.76 155.09 160.26 158.51 155.53 C 170.70 138.96 184.85 123.65 201.58 111.58 Z" />
<path fill="#cb151e" opacity="1.00" d=" M 279.37 113.24 C 284.07 111.29 288.80 114.11 293.06 115.90 C 303.51 121.12 314.66 126.17 322.46 135.16 C 316.91 138.60 310.77 140.93 305.15 144.22 C 277.28 159.86 252.36 180.28 229.70 202.71 C 222.73 209.75 215.51 216.66 210.01 224.97 C 207.99 227.40 206.13 231.62 202.27 230.71 C 197.46 229.59 193.99 225.70 190.80 222.18 C 187.50 218.15 183.96 214.29 180.98 210.02 C 179.30 208.11 181.18 205.90 182.09 204.14 C 196.66 181.05 213.55 159.19 234.05 141.06 C 247.43 129.33 262.55 119.27 279.37 113.24 Z" />
<path fill="#cb151e" opacity="1.00" d=" M 173.42 122.43 C 179.44 119.17 185.54 115.93 192.11 113.93 C 188.00 119.18 182.67 123.27 177.95 127.94 C 169.18 136.52 160.08 144.96 153.25 155.24 C 151.52 157.52 150.31 160.43 147.81 161.96 C 144.86 162.55 141.81 162.37 138.88 163.08 C 132.07 164.69 127.28 170.21 121.29 173.44 C 122.30 170.31 123.68 167.28 125.56 164.57 C 137.62 146.74 154.70 132.79 173.42 122.43 Z" />
<path fill="#cb151e" opacity="1.00" d=" M 318.98 143.93 C 322.50 142.62 325.98 140.75 329.80 140.55 C 333.93 142.77 337.02 146.45 340.41 149.60 C 346.52 155.38 351.05 162.54 355.21 169.79 C 358.20 175.15 361.19 180.59 362.91 186.52 C 342.45 191.93 323.78 202.96 308.33 217.32 C 295.39 228.69 284.19 241.84 272.25 254.22 C 270.61 256.25 267.86 255.89 265.58 255.59 C 245.47 252.46 227.18 242.99 209.27 233.82 C 229.31 211.75 249.13 189.15 272.72 170.72 C 286.84 159.77 302.32 150.47 318.98 143.93 Z" />
<path fill="#cb151e" opacity="1.00" d=" M 111.86 191.85 C 119.54 181.64 129.34 172.81 140.82 167.10 C 142.63 170.02 144.28 173.03 145.99 176.02 C 158.40 197.46 175.40 216.39 196.08 230.12 C 213.72 243.02 234.07 251.79 254.89 258.13 C 259.44 259.66 264.36 260.17 268.65 262.38 C 270.71 265.10 271.47 268.53 272.43 271.74 C 276.76 288.38 276.93 305.88 274.78 322.86 C 266.38 322.12 258.17 320.00 249.96 318.15 C 218.07 310.54 186.72 297.83 161.30 276.72 C 136.82 256.65 119.41 228.62 110.56 198.36 C 109.78 196.09 110.32 193.66 111.86 191.85 Z" />
<path fill="#cb151e" opacity="1.00" d=" M 348.04 195.38 C 353.24 193.22 358.54 191.23 364.13 190.38 C 367.71 197.26 368.91 205.04 370.50 212.55 C 373.45 228.84 373.21 245.70 370.06 261.94 C 369.45 265.54 368.52 269.09 367.13 272.48 C 366.13 266.98 365.94 261.38 365.09 255.87 C 362.52 238.86 357.51 222.33 351.63 206.20 C 350.20 202.68 348.80 199.12 348.04 195.38 Z" />
<path fill="#cb151e" opacity="1.00" d=" M 325.63 210.05 C 331.09 205.67 336.14 200.38 342.89 197.99 C 352.25 212.62 356.99 229.84 359.16 246.96 C 361.26 263.65 360.21 280.72 356.14 297.04 C 353.89 307.30 346.70 315.36 340.29 323.30 C 335.05 329.35 329.59 335.33 322.99 339.94 C 327.54 330.96 331.66 321.70 333.75 311.80 C 338.08 294.33 338.40 276.18 337.33 258.30 C 335.86 243.93 333.34 229.49 327.82 216.07 C 327.04 214.08 326.32 212.07 325.63 210.05 Z" />
<path fill="#cb151e" opacity="1.00" d=" M 106.31 206.80 C 109.57 212.13 111.49 218.12 114.35 223.65 C 125.38 245.65 140.85 265.47 159.86 281.13 C 185.36 302.04 216.43 315.24 248.40 322.55 C 256.52 324.55 264.79 325.82 273.01 327.33 C 272.78 334.67 270.53 342.12 266.03 347.98 C 264.53 350.38 261.41 349.64 259.04 349.77 C 225.21 348.81 191.45 339.81 162.08 322.87 C 138.63 309.10 117.85 289.28 106.95 264.01 C 103.89 257.48 103.54 250.14 103.28 243.05 C 102.98 230.92 103.14 218.59 106.31 206.80 Z" />
<path fill="#cb151e" opacity="1.00" d=" M 306.21 226.22 C 311.20 222.20 315.95 217.85 321.29 214.26 C 324.53 220.16 326.09 226.75 327.80 233.19 C 332.31 250.72 333.95 268.94 333.12 287.01 C 332.18 303.86 328.80 320.90 320.93 335.96 C 317.92 341.34 314.64 346.95 309.25 350.26 C 295.70 358.71 280.64 364.71 265.01 367.96 C 258.26 369.15 251.46 370.63 244.56 370.15 C 250.52 364.55 258.65 362.15 264.92 356.93 C 269.35 353.65 272.98 349.26 275.07 344.14 C 279.88 332.76 281.15 320.25 281.21 308.01 C 280.78 294.19 279.02 280.31 274.69 267.14 C 273.96 264.73 272.77 261.92 274.58 259.67 C 282.76 246.53 294.35 235.98 306.21 226.22 Z" />
<path fill="#cb151e" opacity="1.00" d=" M 110.80 279.70 C 114.80 283.59 117.84 288.31 121.52 292.47 C 133.33 306.39 147.00 318.85 162.56 328.45 C 187.17 344.04 216.14 351.82 245.07 353.45 C 249.43 353.59 253.80 353.71 258.14 354.24 C 253.25 361.16 245.98 366.21 238.07 369.11 C 231.48 371.60 224.34 370.19 217.59 369.26 C 183.54 364.19 151.79 345.42 130.94 318.04 C 124.17 309.37 118.65 299.79 114.14 289.78 C 112.65 286.55 111.57 283.16 110.80 279.70 Z" />
</g>
</svg>
