<svg width="428" height="252" viewBox="0 0 428 252" version="1.1" xmlns="http://www.w3.org/2000/svg" xmlns:xlink="http://www.w3.org/1999/xlink" xmlns:figma="http://www.figma.com/figma/ns">
<title>sunnfjord</title>
<desc>Created using Figma</desc>
<g id="Canvas" transform="translate(1257 551)" figma:type="canvas">
<g id="sunnfjord" style="mix-blend-mode:normal;" figma:type="frame">
<g id="#bb2b3fff" style="mix-blend-mode:normal;" figma:type="frame">
<g id="Vector" style="mix-blend-mode:normal;" figma:type="vector">
<use xlink:href="#path0_fill" transform="translate(-1106.69 -551)" fill="#BB2B3F" style="mix-blend-mode:normal;"/>
</g>
</g>
<g id="#242322ff" style="mix-blend-mode:normal;" figma:type="frame">
<g id="Vector" style="mix-blend-mode:normal;" figma:type="vector">
<use xlink:href="#path1_fill" transform="translate(-1256.75 -423.118)" fill="#242322" style="mix-blend-mode:normal;"/>
</g>
<g id="Vector" style="mix-blend-mode:normal;" figma:type="vector">
<use xlink:href="#path2_fill" transform="translate(-1031.31 -422.547)" fill="#242322" style="mix-blend-mode:normal;"/>
</g>
<g id="Vector" style="mix-blend-mode:normal;" figma:type="vector">
<use xlink:href="#path3_fill" transform="translate(-994.869 -422.559)" fill="#242322" style="mix-blend-mode:normal;"/>
</g>
<g id="Vector" style="mix-blend-mode:normal;" figma:type="vector">
<use xlink:href="#path4_fill" transform="translate(-877.702 -420.858)" fill="#242322" style="mix-blend-mode:normal;"/>
</g>
<g id="Vector" style="mix-blend-mode:normal;" figma:type="vector">
<use xlink:href="#path5_fill" transform="translate(-1082.54 -403.811)" fill="#242322" style="mix-blend-mode:normal;"/>
</g>
<g id="Vector" style="mix-blend-mode:normal;" figma:type="vector">
<use xlink:href="#path6_fill" transform="translate(-911.24 -403.835)" fill="#242322" style="mix-blend-mode:normal;"/>
</g>
<g id="Vector" style="mix-blend-mode:normal;" figma:type="vector">
<use xlink:href="#path7_fill" transform="translate(-1138.74 -403.805)" fill="#242322" style="mix-blend-mode:normal;"/>
</g>
<g id="Vector" style="mix-blend-mode:normal;" figma:type="vector">
<use xlink:href="#path8_fill" transform="translate(-972.359 -403.814)" fill="#242322" style="mix-blend-mode:normal;"/>
</g>
<g id="Vector" style="mix-blend-mode:normal;" figma:type="vector">
<use xlink:href="#path9_fill" transform="translate(-1194.88 -402.138)" fill="#242322" style="mix-blend-mode:normal;"/>
</g>
<g id="Vector" style="mix-blend-mode:normal;" figma:type="vector">
<use xlink:href="#path10_fill" transform="translate(-1002.71 -402.15)" fill="#242322" style="mix-blend-mode:normal;"/>
</g>
<g id="Vector" style="mix-blend-mode:normal;" figma:type="vector">
<use xlink:href="#path11_fill" transform="translate(-1056.86 -328.858)" fill="#242322" style="mix-blend-mode:normal;"/>
</g>
<g id="Vector" style="mix-blend-mode:normal;" figma:type="vector">
<use xlink:href="#path12_fill" transform="translate(-1250.5 -327.2)" fill="#242322" style="mix-blend-mode:normal;"/>
</g>
<g id="Vector" style="mix-blend-mode:normal;" figma:type="vector">
<use xlink:href="#path13_fill" transform="translate(-1223.5 -327.792)" fill="#242322" style="mix-blend-mode:normal;"/>
</g>
<g id="Vector" style="mix-blend-mode:normal;" figma:type="vector">
<use xlink:href="#path14_fill" transform="translate(-1184.92 -327.233)" fill="#242322" style="mix-blend-mode:normal;"/>
</g>
<g id="Vector" style="mix-blend-mode:normal;" figma:type="vector">
<use xlink:href="#path15_fill" transform="translate(-1156.33 -327.275)" fill="#242322" style="mix-blend-mode:normal;"/>
</g>
<g id="Vector" style="mix-blend-mode:normal;" figma:type="vector">
<use xlink:href="#path16_fill" transform="translate(-1122.19 -327.206)" fill="#242322" style="mix-blend-mode:normal;"/>
</g>
<g id="Vector" style="mix-blend-mode:normal;" figma:type="vector">
<use xlink:href="#path17_fill" transform="translate(-1091.85 -327.228)" fill="#242322" style="mix-blend-mode:normal;"/>
</g>
<g id="Vector" style="mix-blend-mode:normal;" figma:type="vector">
<use xlink:href="#path18_fill" transform="translate(-1018.1 -327.775)" fill="#242322" style="mix-blend-mode:normal;"/>
</g>
<g id="Vector" style="mix-blend-mode:normal;" figma:type="vector">
<use xlink:href="#path19_fill" transform="translate(-981.82 -327.831)" fill="#242322" style="mix-blend-mode:normal;"/>
</g>
<g id="Vector" style="mix-blend-mode:normal;" figma:type="vector">
<use xlink:href="#path20_fill" transform="translate(-948.681 -327.228)" fill="#242322" style="mix-blend-mode:normal;"/>
</g>
<g id="Vector" style="mix-blend-mode:normal;" figma:type="vector">
<use xlink:href="#path21_fill" transform="translate(-913.997 -327.228)" fill="#242322" style="mix-blend-mode:normal;"/>
</g>
<g id="Vector" style="mix-blend-mode:normal;" figma:type="vector">
<use xlink:href="#path22_fill" transform="translate(-877.63 -327.228)" fill="#242322" style="mix-blend-mode:normal;"/>
</g>
<g id="Vector" style="mix-blend-mode:normal;" figma:type="vector">
<use xlink:href="#path23_fill" transform="translate(-848.935 -327.212)" fill="#242322" style="mix-blend-mode:normal;"/>
</g>
</g>
</g>
</g>
<defs>
<path id="path0_fill" d="M 65.6706 5.30164C 69.1406 0.331638 75.9106 -0.788362 81.4706 0.481638C 85.8206 1.65164 89.0406 7.11163 86.8006 11.3016C 84.6406 15.2416 80.9306 18.5816 76.4306 19.4516C 76.9306 19.7116 77.9506 20.2416 78.4506 20.5016C 87.9006 21.2316 97.6306 21.6216 106.841 19.0416C 115.401 18.6916 123.811 22.0116 132.401 20.8816C 137.011 20.2316 141.691 17.0016 146.211 19.7216C 145.911 21.4316 145.601 23.1516 145.241 24.8616C 132.271 27.9616 118.531 23.7516 105.801 28.1416C 101.221 29.5116 97.8306 33.0316 93.8706 35.5116C 88.2806 39.0416 86.5406 45.7716 83.8806 51.4116C 81.6906 55.6816 82.2006 60.6416 80.9406 65.1816C 78.2306 75.3216 76.1206 85.7616 76.5106 96.3016C 76.8206 100.732 74.6306 104.762 74.1106 109.082C 73.4706 113.522 72.3506 118.052 73.3406 122.522C 71.5806 124.532 69.5206 126.232 67.4306 127.882C 63.7506 125.352 64.9106 120.402 65.2206 116.632C 68.9706 109.162 70.2206 100.522 68.8206 92.2716C 67.8306 86.4816 68.3006 80.5916 69.2906 74.8316C 64.6506 73.7416 60.4006 76.2816 56.0106 77.2516C 50.9206 81.9216 44.2806 85.6716 41.7806 92.4716C 39.3406 94.6416 35.8306 94.1216 33.1506 95.7516C 30.1606 97.5416 27.0506 99.1216 23.9106 100.632C 19.1206 103.102 12.9806 102.682 9.21058 107.042C 6.93058 109.792 3.64058 111.092 0.240576 111.822C -0.0694243 109.452 -0.309427 106.882 1.05057 104.772C 3.07057 100.682 7.67058 99.1816 11.3806 97.0816C 15.5906 95.1416 18.2606 91.0416 22.5606 89.2316C 28.3706 85.9616 36.6206 83.0116 37.3706 75.3316C 37.4006 68.0816 43.6506 63.4616 47.1706 57.8016C 48.3406 56.2416 48.4306 54.2616 48.4706 52.4016C 48.3006 44.6716 51.4206 37.4216 52.3706 29.8316C 49.8406 28.2616 47.0206 27.3116 44.1606 26.5616C 41.2606 25.9016 39.1406 23.7216 36.7106 22.1816C 31.1006 18.4716 24.5906 16.4916 18.7706 13.1516C 15.2806 11.2016 12.1206 8.71164 8.92057 6.33164C 8.89057 4.89164 8.85057 3.46163 8.81057 2.03163C 16.9506 0.411634 22.2906 8.48164 29.7006 9.98164C 38.3306 11.8416 46.9406 13.9616 55.2106 17.1016C 58.1206 18.3016 61.1006 19.3316 64.1406 20.1916C 62.1606 15.3716 62.1406 9.41164 65.6706 5.30164ZM 75.1806 2.71163C 75.1206 3.16163 75.0006 4.06164 74.9406 4.51164C 76.6006 4.86164 77.3306 5.85163 77.1406 7.50163C 74.8406 8.78163 72.2806 9.65164 70.3406 11.5116C 73.1206 11.7716 75.9106 11.7716 78.7006 11.7016C 79.6406 10.2616 80.8506 8.96163 81.5106 7.34163C 81.1306 5.73163 80.0206 4.41164 79.2506 2.98164C 77.8906 2.90164 76.5406 2.80163 75.1806 2.71163ZM 56.8806 24.7616C 57.5806 26.9016 58.6106 29.0416 58.3806 31.3516C 58.0506 36.3716 54.5206 40.4616 53.8906 45.4016C 53.5806 49.4816 58.5806 50.7616 60.1906 54.0416C 59.9206 54.6516 59.3806 55.8816 59.1106 56.4916C 59.8906 60.1616 61.6406 63.5616 62.1106 67.3216C 64.6406 67.6116 67.1606 67.8916 69.7106 67.9016C 74.2606 58.8316 75.4106 48.5416 79.5006 39.2816C 80.5906 34.8316 83.9106 31.3316 84.7806 26.8216C 83.7506 27.4216 82.7506 28.0516 81.7506 28.6916C 78.6406 28.7116 75.7406 29.8316 72.7506 30.5016C 70.3806 30.9916 69.4106 28.4316 68.2806 26.9216C 64.5606 25.8016 60.5506 26.1416 56.8806 24.7616Z"/>
<path id="path1_fill" d="M 18.19 1.41001C 26.57 -0.72999 36.14 -0.809991 43.72 3.83001C 48.73 6.52001 51.36 12.28 51.65 17.77C 50.34 18.04 49.02 18.3 47.7 18.54C 44.86 10.24 34.72 7.07002 26.76 8.64002C 22.38 9.14002 18.33 11.87 16.5 15.92C 15.15 19.92 17.15 24.7 20.93 26.59C 26.25 29.19 32.32 29.31 37.86 31.22C 43.05 32.84 48.27 35.78 50.76 40.83C 56.68 51.15 50.53 65.74 39.5 69.61C 29.72 73.4 17.71 73.67 8.72 67.72C 3.27 64.45 0.48 58.11 0 51.97C 1.17 51.36 2.41 50.92 3.62 50.44C 6.25 56.29 11.03 61.61 17.5 63.06C 23.77 64.84 31.62 64.42 36.16 59.2C 39.67 55.43 39.62 49.29 36.2 45.47C 28.54 40.53 18.72 41.52 10.95 36.8C 3.78 32.83 0.81 23.54 3.14 15.9C 4.95 8.73002 11.08 3.14001 18.19 1.41001Z"/>
<path id="path2_fill" d="M 12.23 4.02882C 18.61 -1.46118 28.63 -1.15118 35.26 3.80882C 34.8 4.58882 33.87 6.15882 33.41 6.93882C 30.4 6.30882 27.03 5.22882 24.26 7.18882C 19.93 10.0188 20.4 15.8788 20.39 20.4088C 24.09 20.4188 27.8 20.3888 31.51 20.4888C 31.45 22.9988 31.43 25.5188 31.53 28.0288C 27.83 28.1288 24.13 28.0988 20.43 28.1088C 20.42 42.0688 20.47 56.0388 20.41 69.9988C 16.18 69.9988 11.95 69.9888 7.72 69.9788C 7.75 56.0188 7.7 42.0588 7.75 28.1088C 5.17 28.1088 2.58 28.1188 2.44141e-06 28.0888C 0.0400024 25.5388 0.0499969 22.9988 0.00999695 20.4488C 2.58 20.4288 5.16 20.4388 7.75 20.4288C 7.57 14.7788 7.54 8.03882 12.23 4.02882Z"/>
<path id="path3_fill" d="M 4.12914 0.760457C 9.24914 -2.13954 15.9991 3.81045 13.9391 9.24045C 13.0391 13.5005 7.71912 15.6105 3.97912 13.6505C -1.38088 11.6205 -1.32086 2.69046 4.12914 0.760457Z"/>
<path id="path4_fill" d="M 35.8722 0.0200055C 40.0922 0.0200055 44.3222 0.0200012 48.5422 1.2207e-06C 48.5222 22.76 48.5022 45.51 48.5522 68.26C 44.3422 68.33 40.1222 68.31 35.9122 68.27C 35.8922 66.61 35.9022 64.96 35.9122 63.31C 31.7822 67.19 26.4722 70.29 20.6222 70.01C 14.0122 70.07 7.6922 66.34 4.2922 60.73C -1.4578 51.04 -1.20778 38.43 3.71222 28.46C 7.12222 21.39 14.7822 16.62 22.6722 17.08C 28.0622 17.2 32.5622 20.59 35.8622 24.58C 35.9022 16.39 35.9122 8.20001 35.8722 0.0200055ZM 16.9522 29.84C 12.8422 35.49 12.7322 43.02 13.8222 49.65C 14.7422 54.87 17.6122 60.6 23.1622 61.99C 28.0422 63.36 32.6722 60.43 35.9322 57.05C 35.8322 49.21 35.9522 41.36 35.8922 33.51C 36.1622 31.02 34.1122 29.24 32.5222 27.66C 28.0822 23.53 20.2922 25.02 16.9522 29.84Z"/>
<path id="path5_fill" d="M 12.76 8.10239C 18.35 0.622391 29.5 -2.58759 37.73 2.40241C 42.89 4.93241 44.55 11.1324 44.68 16.4424C 44.73 28.0324 44.64 39.6224 44.71 51.2124C 40.45 51.2724 36.19 51.2324 31.93 51.2624C 32.04 40.0124 31.98 28.7624 31.97 17.5124C 31.96 13.8924 30.28 9.68239 26.43 8.72239C 21.18 6.84239 16.33 10.4624 12.76 13.9124C 12.7 26.3424 12.71 38.7824 12.75 51.2224C 8.50001 51.2624 4.25001 51.2224 6.71387e-06 51.2824C 0.100007 34.7424 0.0900067 18.2124 6.71387e-06 1.6724C 4.24001 1.6924 8.49 1.6724 12.74 1.6724C 12.74 3.8124 12.72 5.96239 12.76 8.10239Z"/>
<path id="path6_fill" d="M 12.66 7.51711C 16.84 2.00711 23.96 -1.0629 30.82 0.337105C 30.88 4.0371 30.88 7.7371 30.91 11.4371C 28.05 10.6271 25.25 9.32709 22.22 9.36709C 18.76 9.27709 15.62 11.0071 12.68 12.6371C 12.67 25.5171 12.77 38.4171 12.63 51.2971C 8.42001 51.2871 4.21001 51.2971 9.76562e-06 51.2471C 0.0100098 34.7471 0.0300098 18.2371 9.76562e-06 1.7271C 4.23001 1.6771 8.47 1.7071 12.71 1.6871C 12.69 3.6271 12.67 5.56711 12.66 7.51711Z"/>
<path id="path7_fill" d="M 13.01 7.96669C 18.48 0.476688 29.64 -2.4933 37.76 2.3867C 42.94 4.8567 44.54 11.1167 44.66 16.3967C 44.64 28.0067 44.69 39.6167 44.62 51.2267C 40.4 51.2767 36.19 51.2467 31.98 51.2667C 32.04 40.3267 31.98 29.3867 32.02 18.4467C 32.18 15.5167 31.06 12.7867 29.73 10.2567C 26.21 8.0567 21.64 7.40671 18.02 9.76671C 15.75 11.4067 12.22 13.0367 12.69 16.3867C 12.94 27.9667 12.66 39.5467 12.88 51.1167C 8.59 51.3367 4.28999 51.2467 -5.49316e-06 51.2567C 0.0999945 34.7267 0.0699988 18.1967 0.0199988 1.6667C 4.2 1.6967 8.39 1.6767 12.57 1.6367C 12.79 3.7367 12.77 5.85669 13.01 7.96669Z"/>
<path id="path8_fill" d="M 17.7591 1.20594C 25.5491 -1.20406 34.4591 0.0159397 41.1491 4.70594C 53.9791 13.9759 54.3391 34.806 43.7691 45.906C 32.8991 56.346 12.0291 55.4259 3.95912 41.9759C -0.220876 34.3759 -1.18089 25.0359 1.50911 16.7659C 3.84911 9.26594 10.1791 3.24594 17.7591 1.20594ZM 22.8291 8.09592C 18.8991 9.35592 16.1091 13.0059 15.0091 16.8859C 13.0691 23.7659 13.2291 31.2959 15.7291 38.0259C 17.8291 43.7959 25.2791 47.4959 30.7491 43.8359C 36.8891 39.5259 37.8091 31.276 37.4691 24.376C 36.9491 19.686 36.3991 14.4459 32.8991 10.9259C 30.3991 8.21594 26.3891 6.94592 22.8291 8.09592Z"/>
<path id="path9_fill" d="M 2.74658e-06 2.44141e-06C 4.23 0.0100024 8.46 -0.019989 12.7 0.040011C 12.72 11.29 12.61 22.54 12.74 33.8C 12.83 37.61 14.62 41.95 18.61 43.06C 23.16 44.8 27.87 42.22 30.9 38.88C 32.18 37.93 31.85 36.19 32 34.82C 31.99 23.22 32.03 11.61 31.96 2.44141e-06C 36.19 0.0200024 40.42 -0.00999878 44.64 0.0300012C 44.64 16.54 44.59 33.05 44.66 49.56C 40.42 49.61 36.19 49.59 31.95 49.6C 31.98 47.69 31.99 45.79 32 43.89C 29.18 46.79 26.07 49.77 21.95 50.57C 15.62 52.11 7.84 51.42 3.27 46.28C 1.02 43.33 0.0400015 39.51 0.0300015 35.84C 0.0300015 23.9 0.110003 11.95 2.74658e-06 2.44141e-06Z"/>
<path id="path10_fill" d="M 8.91001 0.041489C 13.12 -0.038511 17.34 0.0114878 21.55 0.0714878C 21.52 17.3315 21.52 34.6015 21.54 51.8615C 21.43 56.0115 20.7 60.6915 17.32 63.4915C 12.95 68.2715 6.09001 68.6415 0.100015 69.5915C 0.0600147 68.3515 0.0300085 67.1015 8.54492e-06 65.8615C 2.15001 65.0915 4.48001 64.5015 6.19001 62.9015C 8.41001 60.4415 8.81001 56.9415 8.91001 53.7815C 8.90001 35.8715 8.87001 17.9615 8.91001 0.041489Z"/>
<path id="path11_fill" d="M 22.6209 3.78C 23.7009 2.51 24.8109 1.26 25.9009 1.2207e-06C 26.3209 0.400001 27.1609 1.21 27.5909 1.62C 26.3409 2.92 25.1109 4.23001 23.8709 5.54001C 27.3409 10.99 27.8009 18.45 24.3309 24C 20.0409 30.36 10.3709 30.65 4.55087 26.29C 3.15087 27.37 2.20087 30.31 0.0708737 29.18C -0.449126 27.17 2.03087 26.17 3.00087 24.73C -0.909134 18.72 -0.869131 10.02 3.94087 4.53C 8.97087 -0.27 16.9809 0.46 22.6209 3.78ZM 7.56086 7.35999C 5.13086 11.46 5.57086 16.45 6.34086 20.96C 10.7909 16.55 14.7609 11.69 19.2309 7.29999C 16.5809 3.35999 10.1709 3.41999 7.56086 7.35999ZM 7.29086 23.04C 10.0209 26.53 15.8609 27.03 18.8309 23.62C 21.7309 19.45 21.4209 13.97 20.3209 9.25C 15.9809 13.85 11.8909 18.69 7.29086 23.04Z"/>
<path id="path12_fill" d="M 0 0.00210865C 5.67 0.0221087 11.34 -0.00789135 17 0.00210865C 16.97 1.23211 16.94 2.46209 16.92 3.70209C 13.14 3.63209 9.36 3.63211 5.59 3.66211C 5.59 6.12211 5.59 8.5821 5.61 11.0521C 8.89 11.0021 12.17 11.0221 15.45 11.0121C 15.45 11.9221 15.44 13.7421 15.44 14.6521C 12.17 14.6621 8.9 14.6621 5.64 14.6121C 5.56 18.7621 5.63 22.9121 5.38 27.0521C 3.59 27.0121 1.8 26.9921 0.0100002 26.9921C 0.0400002 17.9921 0.03 8.99211 0 0.00210865Z"/>
<path id="path13_fill" d="M 7.84634 0.953718C 13.0763 -0.996282 19.8763 -0.0262842 23.4863 4.51372C 27.1563 9.59372 27.3763 16.8837 24.3163 22.3037C 19.4363 30.6737 4.68635 29.9837 1.21635 20.6837C -1.53365 13.8537 0.256344 3.78372 7.84634 0.953718ZM 10.8763 3.98372C 5.39635 6.26372 5.43634 13.5837 6.43634 18.5237C 6.98634 22.5737 11.4563 25.8137 15.4063 24.1537C 18.9563 23.0937 20.2963 19.0937 20.5363 15.7637C 20.7963 11.9037 20.2463 7.44373 17.1063 4.81373C 15.3663 3.45373 12.9163 3.38372 10.8763 3.98372Z"/>
<path id="path14_fill" d="M 0.0775037 0.00445055C 1.8775 -0.00554945 3.6875 0.00445055 5.4975 0.00445055C 5.4675 7.76445 5.5275 15.5144 5.4575 23.2744C 9.5475 23.2944 13.6475 23.2844 17.7375 23.2644C 17.7275 24.2144 17.6875 26.1045 17.6775 27.0445C 11.8075 27.0245 5.9475 26.9944 0.0874982 27.0644C -0.0325018 18.0444 -0.0224963 9.02445 0.0775037 0.00445055Z"/>
<path id="path15_fill" d="M 15.77 1.36645C 17.35 -0.733553 20.19 0.27644 22.42 0.0464396C 18.68 4.12644 14.82 8.11643 10.97 12.0964C 15.31 17.0464 19.64 22.0264 23.92 27.0364C 21.66 27.0564 19.41 27.0964 17.16 27.1164C 13.16 22.8264 9.58 18.1864 5.53 13.9564C 5.53 18.3364 5.54 22.7164 5.56 27.0964C 3.71 27.0764 1.87 27.0664 0.0200024 27.0764C 0.0400024 18.0664 0.0799982 9.06642 -1.83105e-06 0.0564189C 1.85 0.0764189 3.71 0.0964469 5.56 0.116447C 5.53 4.06645 5.54 8.01642 5.59 11.9664C 8.9 8.35642 12.36 4.87645 15.77 1.36645Z"/>
<path id="path16_fill" d="M 0.0100073 0.0577596C 5.71001 -0.0122404 11.42 -0.0222196 17.12 0.0477804C 17.1 1.25778 17.09 2.46776 17.09 3.68776C 13.24 3.64776 9.39001 3.64777 5.54001 3.65777C 5.53001 6.11777 5.54 8.58776 5.55 11.0578C 8.92 10.9878 12.3 10.9678 15.67 11.1078C 15.61 12.2878 15.58 13.4778 15.56 14.6778C 12.23 14.6678 8.9 14.6678 5.57 14.6378C 5.54 17.5078 5.54 20.3878 5.52 23.2578C 9.91 23.2578 14.3 23.2378 18.68 23.2678C 18.67 24.2078 18.66 26.0878 18.65 27.0378C 12.43 26.9678 6.22 26.9978 -2.44141e-06 27.0178C 0.0399976 18.0378 0.0300073 9.04776 0.0100073 0.0577596Z"/>
<path id="path17_fill" d="M 0.0369826 0.00998535C 1.86698 0.00998535 3.69697 0.0300037 5.52697 0.0600037C 5.50697 3.72 5.49698 7.39 5.47698 11.06C 9.32698 11.03 13.177 11.03 17.027 11.04C 17.067 7.36001 17.047 3.69 17.047 0.0199951C 18.877 0.00999512 20.707 6.10352e-06 22.537 6.10352e-06C 22.617 9.03001 22.557 18.06 22.567 27.09C 20.727 27.04 18.887 27.02 17.047 27C 17.077 22.89 17.067 18.79 17.037 14.68C 13.187 14.69 9.34697 14.69 5.49697 14.65C 5.49697 18.78 5.52698 22.91 5.45698 27.05C 3.65698 27.02 1.84698 27.02 0.0469771 27.04C -0.0330229 18.03 0.00698259 9.01999 0.0369826 0.00998535Z"/>
<path id="path18_fill" d="M 2.06248 6.64668C 5.80248 0.536682 14.6025 -1.92333 20.8625 1.66667C 22.8725 2.74667 23.7525 5.00668 24.8525 6.86668C 21.9925 7.74668 20.7725 3.97667 18.0725 3.85667C 13.1625 2.60667 7.54248 5.68668 6.32248 10.6767C 4.93248 15.6367 7.05248 22.0667 12.1325 24.0167C 14.6525 25.0967 17.3225 24.2167 19.8825 23.7867C 19.9125 21.7267 19.9525 19.6767 19.9825 17.6167C 18.2925 17.5767 16.6125 17.5467 14.9325 17.5067C 14.9225 16.5667 14.9025 14.6767 14.9025 13.7367C 18.3925 13.7767 21.8925 13.7767 25.3925 13.7567C 25.3325 17.6967 25.3725 21.6267 25.3725 25.5667C 19.4725 27.9467 12.3525 29.5967 6.51248 26.1567C -0.107518 22.3967 -1.84752 12.9367 2.06248 6.64668Z"/>
<path id="path19_fill" d="M 5.55001 1.28248C 9.26001 -0.337519 13.69 -0.497506 17.4 1.23249C 19.64 2.24249 20.47 4.75247 21.47 6.80247C 20.86 6.91247 20.26 7.0425 19.67 7.1725C 17.09 2.2925 8.15 1.58248 6.38 7.44248C 6.7 8.08248 7.32999 9.35247 7.64999 9.99247C 11.61 11.7925 16.58 11.4125 19.84 14.6225C 23.18 18.3425 21.38 24.6325 17.07 26.7425C 13.12 28.6225 8.24 28.7225 4.29 26.8025C 1.72 25.4125 0.649993 22.6125 -7.32422e-06 19.9425C 0.449993 19.9525 1.34 19.9725 1.79 19.9925C 4.27 25.7325 13.99 26.9725 16.39 20.5225C 14.71 14.8125 7.34001 16.9625 3.61001 13.5925C -0.609991 10.4725 1.05001 3.29248 5.55001 1.28248Z"/>
<path id="path20_fill" d="M 0.031387 6.10352e-06C 1.86139 0.0200061 3.69139 0.0499927 5.53139 0.0799927C 5.52139 4.03999 5.48139 8.00001 5.56139 11.97C 9.31139 8.05001 13.0514 4.12 16.7414 0.15C 18.6514 0.07 20.5714 0.0200061 22.4914 6.10352e-06C 18.6214 3.97001 14.7914 7.98999 10.9414 11.98C 15.2514 16.99 19.6214 21.94 23.8314 27.04C 21.5214 26.85 19.0414 27.45 16.8514 26.64C 12.8214 22.55 9.30139 17.97 5.50139 13.67C 5.50139 18.13 5.55138 22.58 5.46138 27.04C 3.64138 27.03 1.83138 27.04 0.0213772 27.07C 0.00137724 18.05 -0.018613 9.03001 0.031387 6.10352e-06Z"/>
<path id="path21_fill" d="M 0.0869703 0.0300049C 1.90697 0.0100049 3.72697 6.10352e-06 5.55697 6.10352e-06C 5.59697 6.30001 5.41698 12.61 5.62698 18.91C 5.66698 21.8 8.25696 24.05 11.077 24.1C 13.387 23.79 15.357 22.47 17.167 21.08C 17.097 14.05 17.107 7.03001 17.157 6.10352e-06C 18.977 6.10352e-06 20.797 -1.46478e-05 22.617 0.00998535C 22.647 8.99999 22.587 17.99 22.647 26.99C 20.827 27.01 19.007 27.03 17.197 27.06C 17.187 26.29 17.147 24.75 17.127 23.98C 12.917 29.01 2.61696 29.07 0.606959 21.99C -0.553041 14.75 0.35697 7.34 0.0869703 0.0300049Z"/>
<path id="path22_fill" d="M -4.88281e-06 6.10352e-06C 1.82 6.10352e-06 3.64 4.88386e-06 5.47 0.0300049C 5.56 7.78 5.49 15.53 5.51 23.29C 9.62001 23.27 13.72 23.27 17.84 23.31C 17.85 24.53 17.87 25.76 17.9 26.99C 11.93 27.08 5.97 26.96 0.0100049 27.07C 0.0100049 18.05 0.00999512 9.02001 -4.88281e-06 6.10352e-06Z"/>
<path id="path23_fill" d="M 0.0153135 0.0338167C 5.72531 -0.00618333 11.4353 -0.0261846 17.1453 0.0638154C 17.0953 1.26382 17.0553 2.47381 17.0253 3.68381C 13.1653 3.64381 9.30532 3.64381 5.45532 3.68381C 5.46532 6.13381 5.46531 8.59384 5.51531 11.0538C 8.82531 11.0238 12.1453 11.0238 15.4653 11.0038C 15.4853 12.2238 15.5153 13.4338 15.5553 14.6638C 12.1953 14.6738 8.84532 14.6738 5.49532 14.6438C 5.47532 17.5138 5.47532 20.3838 5.45532 23.2638C 9.83532 23.2738 14.2153 23.2438 18.5953 23.2638C 18.5753 24.2038 18.5453 26.0838 18.5253 27.0238C 12.3753 27.0038 6.22534 26.9538 0.0753416 27.0738C -0.0346584 18.0638 0.00531349 9.04382 0.0153135 0.0338167Z"/>
</defs>
</svg>
