<?xml version="1.0" encoding="UTF-8" ?>
<!DOCTYPE svg PUBLIC "-//W3C//DTD SVG 1.1//EN" "http://www.w3.org/Graphics/SVG/1.1/DTD/svg11.dtd">
<svg width="360pt" height="345pt" viewBox="0 0 360 345" version="1.1" xmlns="http://www.w3.org/2000/svg">
<g id="#ffffffff">
</g>
<g id="#df292aff">
<path fill="#df292a" opacity="1.00" d=" M 295.40 34.72 C 309.05 31.75 323.37 43.13 323.84 57.02 C 324.87 68.46 316.31 79.72 305.07 81.94 C 295.71 84.11 285.48 79.56 280.35 71.54 C 275.59 64.42 274.94 54.75 278.94 47.15 C 282.13 40.76 288.39 36.05 295.40 34.72 Z" />
<path fill="#df292a" opacity="1.00" d=" M 152.98 49.85 C 180.78 45.24 210.00 52.14 233.40 67.65 C 260.29 85.25 279.61 113.75 286.44 145.10 C 288.09 153.13 290.07 161.12 290.92 169.29 C 258.97 150.37 222.82 139.67 186.42 133.37 C 192.54 127.77 198.53 120.68 198.74 111.96 C 198.99 99.78 188.07 88.98 175.98 88.78 C 165.92 88.44 155.82 94.98 152.78 104.72 C 150.10 111.70 151.84 119.48 155.48 125.76 C 141.68 121.28 127.14 117.51 115.53 108.38 C 109.19 103.52 103.56 96.40 103.71 88.03 C 104.35 79.10 109.92 71.30 116.47 65.54 C 126.77 56.86 139.88 52.23 152.98 49.85 Z" />
<path fill="#df292a" opacity="1.00" d=" M 60.47 128.39 C 67.75 107.55 81.23 89.45 97.01 74.26 C 94.96 83.02 91.39 92.15 93.88 101.21 C 96.51 111.42 103.81 119.91 112.76 125.23 C 122.13 131.60 132.51 136.35 141.48 143.33 C 148.06 147.30 154.16 152.70 156.92 160.08 C 161.24 171.39 160.40 184.26 156.41 195.54 C 150.66 211.33 137.49 224.09 121.71 229.75 C 107.34 235.11 90.77 233.97 77.19 226.87 C 68.25 222.27 61.06 214.13 58.34 204.37 C 51.84 179.56 51.70 152.68 60.47 128.39 Z" />
<path fill="#df292a" opacity="1.00" d=" M 209.09 155.16 C 225.87 158.44 242.75 161.48 259.17 166.34 C 268.96 169.24 278.58 173.16 286.97 179.06 C 288.92 180.35 290.45 182.55 290.04 185.00 C 287.01 211.95 275.93 238.35 257.10 258.10 C 240.57 275.21 219.29 288.31 195.86 293.23 C 171.58 298.35 146.03 293.88 123.63 283.76 C 133.33 281.26 143.01 278.45 152.05 274.07 C 178.61 261.78 199.62 237.95 208.26 209.98 C 213.73 192.22 213.27 173.12 209.09 155.16 Z" />
<path fill="#df292a" opacity="1.00" d=" M 80.83 249.03 C 105.84 257.37 133.05 252.51 156.82 242.54 C 142.51 256.81 123.24 266.28 103.04 268.05 C 100.09 268.30 97.21 266.94 95.29 264.74 C 90.50 259.48 85.25 254.62 80.83 249.03 Z" />
</g>
</svg>
