<?xml version="1.0" encoding="UTF-8" ?>
<!DOCTYPE svg PUBLIC "-//W3C//DTD SVG 1.1//EN" "http://www.w3.org/Graphics/SVG/1.1/DTD/svg11.dtd">
<svg width="400pt" height="400pt" viewBox="0 0 400 400" version="1.1" xmlns="http://www.w3.org/2000/svg">
<g id="#fefefeff">
<path fill="#fefefe" opacity="1.00" d=" M 95.48 16.45 C 165.43 16.34 235.39 16.39 305.35 16.45 C 304.32 24.97 302.35 33.34 300.87 41.78 C 299.64 47.74 299.29 53.92 296.99 59.62 C 245.66 59.55 194.33 59.72 143.00 59.80 C 129.72 59.56 116.43 61.08 103.17 59.76 C 99.56 47.91 98.81 35.38 94.92 23.62 C 94.59 27.04 94.68 30.50 95.35 33.88 C 96.93 42.51 98.70 51.11 99.90 59.81 C 99.26 59.78 97.98 59.72 97.34 59.68 C 94.70 47.16 92.43 34.56 89.96 22.00 C 89.45 20.29 90.29 18.66 90.88 17.10 C 91.87 17.93 92.86 18.77 93.86 19.61 C 94.40 18.56 94.94 17.50 95.48 16.45 M 228.62 28.96 C 229.08 37.92 227.69 47.05 229.96 55.85 C 231.14 55.15 232.33 54.45 233.51 53.75 C 233.41 43.02 233.58 32.28 233.40 21.55 C 232.44 21.09 231.49 20.62 230.54 20.14 C 228.79 22.76 228.35 25.87 228.62 28.96 M 183.67 21.64 C 183.58 23.20 183.48 24.75 183.38 26.31 C 186.26 26.57 189.13 26.85 191.99 27.22 C 192.93 36.31 192.12 45.45 192.51 54.55 C 193.83 54.56 195.15 54.57 196.48 54.58 C 196.60 45.64 196.25 36.71 196.70 27.78 C 200.71 27.63 204.92 27.10 207.63 23.77 C 208.00 34.31 207.08 44.90 208.18 55.41 C 213.91 55.36 219.64 55.35 225.37 55.28 C 225.49 53.69 225.62 52.09 225.75 50.50 C 221.35 50.44 216.96 50.39 212.57 50.27 C 212.11 40.91 212.45 31.53 212.41 22.15 C 209.68 22.29 206.94 22.43 204.23 22.12 C 197.40 21.32 190.52 21.65 183.67 21.64 M 162.60 36.38 C 166.25 40.45 172.51 40.10 176.73 43.32 C 177.88 44.70 177.72 46.76 177.38 48.42 C 175.57 51.56 171.20 52.30 168.07 50.92 C 165.84 49.42 165.19 46.61 164.07 44.34 C 162.76 44.46 161.46 44.60 160.16 44.74 C 161.12 47.86 161.74 51.48 164.50 53.59 C 168.83 56.93 175.83 56.57 179.59 52.51 C 182.18 49.25 182.20 44.58 181.13 40.74 C 179.19 37.20 174.56 36.94 171.14 35.67 C 168.81 34.90 164.97 34.28 165.44 30.99 C 165.03 27.82 167.94 25.55 170.96 26.27 C 175.60 25.47 175.95 32.70 180.33 32.30 C 182.46 25.58 175.22 20.22 169.05 21.62 C 162.19 22.17 159.71 31.03 162.60 36.38 M 249.47 22.97 C 249.56 33.44 249.32 43.91 249.58 54.37 C 250.53 54.38 252.44 54.38 253.39 54.39 C 253.04 43.43 254.55 32.32 252.51 21.49 C 251.75 21.86 250.23 22.60 249.47 22.97 M 111.08 22.63 C 113.10 30.99 115.75 39.17 118.31 47.37 C 119.22 50.30 120.52 53.10 122.00 55.79 C 123.92 54.28 125.86 52.57 126.32 50.03 C 128.85 40.87 131.75 31.82 134.17 22.63 C 132.71 22.53 131.26 22.45 129.81 22.39 C 127.79 30.00 125.74 37.60 124.03 45.28 C 123.19 45.41 122.35 45.54 121.51 45.67 C 119.48 37.91 117.69 30.08 115.22 22.44 C 113.84 22.45 112.46 22.52 111.08 22.63 M 137.64 22.58 C 137.50 33.25 137.25 43.94 137.76 54.61 C 144.52 54.53 151.42 55.35 158.04 53.61 C 157.52 52.84 156.49 51.29 155.97 50.52 C 151.15 50.57 146.33 50.50 141.51 50.44 C 141.51 47.16 141.54 43.88 141.58 40.60 C 146.19 40.51 150.81 40.45 155.43 40.37 C 155.45 39.40 155.49 37.46 155.50 36.49 C 151.18 36.34 146.83 36.72 142.53 36.18 C 140.18 33.76 139.70 29.09 142.55 26.86 C 147.15 26.23 151.83 26.68 156.46 26.54 C 156.49 25.51 156.56 23.45 156.60 22.42 C 150.28 22.30 143.95 22.26 137.64 22.58 M 269.54 21.94 C 269.07 33.03 269.19 44.15 269.50 55.24 C 276.83 54.30 284.25 54.40 291.64 54.39 C 291.60 53.12 291.57 51.85 291.55 50.58 C 285.24 50.62 278.91 50.55 272.64 49.77 C 272.48 40.79 273.36 31.72 272.25 22.80 C 271.57 22.59 270.22 22.16 269.54 21.94 M 259.18 54.56 C 260.35 54.49 262.69 54.35 263.86 54.28 C 263.43 52.51 263.00 50.71 262.06 49.13 C 259.18 49.35 259.49 52.47 259.18 54.56 Z" />
<path fill="#fefefe" opacity="1.00" d=" M 357.41 16.16 C 358.01 16.28 359.20 16.50 359.80 16.62 C 359.90 26.11 357.91 35.43 355.89 44.66 C 354.61 50.44 354.10 56.59 350.87 61.73 C 350.89 55.76 352.43 49.97 353.44 44.13 C 355.31 34.89 356.26 25.51 357.41 16.16 Z" />
<path fill="#fefefe" opacity="1.00" d=" M 43.29 17.05 C 44.30 17.19 45.32 17.32 46.34 17.45 C 47.51 28.47 49.25 39.42 51.58 50.26 C 52.85 56.02 53.15 62.04 55.45 67.54 C 58.59 75.08 59.75 83.22 62.26 90.95 C 71.23 119.50 81.66 147.63 94.23 174.79 C 101.11 190.73 110.00 205.66 118.20 220.92 C 123.04 229.00 127.87 237.10 132.99 245.00 C 136.81 251.02 141.93 256.30 144.35 263.13 C 141.25 260.35 138.78 256.97 136.52 253.50 C 127.49 239.75 118.14 226.17 110.47 211.60 C 103.01 198.68 96.01 185.47 90.10 171.76 C 77.66 145.47 67.39 118.17 58.74 90.42 C 53.27 70.30 47.56 50.19 44.30 29.57 C 43.49 25.45 43.31 21.24 43.29 17.05 Z" />
<path fill="#fefefe" opacity="1.00" d=" M 308.15 15.88 C 311.28 17.74 309.86 21.23 309.45 24.10 C 307.28 35.69 304.88 47.24 303.27 58.93 C 302.20 59.15 301.14 59.37 300.08 59.59 C 300.92 51.69 302.57 43.92 303.85 36.09 C 305.20 29.34 305.90 22.43 308.15 15.88 Z" />
<path fill="#fefefe" opacity="1.00" d=" M 100.53 63.94 C 105.78 61.87 111.48 62.56 116.98 62.49 C 188.32 62.47 259.67 62.38 331.01 62.39 C 336.51 62.43 342.03 62.07 347.50 62.81 C 344.85 64.07 341.93 64.52 339.01 64.34 C 327.00 64.04 314.97 64.74 302.99 63.81 C 298.64 63.54 294.33 64.26 290.00 64.33 C 230.67 64.43 171.34 64.38 112.01 64.51 C 108.17 64.55 104.33 64.50 100.53 63.94 Z" />
<path fill="#fefefe" opacity="1.00" d=" M 56.56 63.61 C 63.61 62.06 70.85 62.75 78.00 62.63 C 84.81 62.75 91.70 62.05 98.41 63.57 C 92.42 65.36 86.12 64.22 80.00 64.78 C 72.21 65.43 64.04 66.51 56.56 63.61 Z" />
<path fill="#fefefe" opacity="1.00" d=" M 343.36 82.32 C 345.09 76.00 345.82 69.04 350.38 63.96 C 350.85 69.89 348.48 75.46 346.98 81.08 C 337.64 114.00 325.59 146.14 311.12 177.14 C 299.99 200.90 286.93 223.71 272.65 245.70 C 271.28 247.70 269.66 249.51 267.99 251.25 C 273.07 240.04 280.86 230.34 286.33 219.33 C 294.12 205.31 301.85 191.23 308.61 176.67 C 322.33 146.07 334.33 114.64 343.36 82.32 Z" />
<path fill="#fefefe" opacity="1.00" d=" M 65.98 67.54 C 103.32 67.58 140.66 67.41 178.00 67.35 C 182.68 67.32 187.32 66.59 192.00 66.64 C 236.33 66.62 280.67 66.59 325.00 66.56 C 331.57 66.58 338.15 66.42 344.72 66.75 C 342.10 80.54 337.55 93.90 333.49 107.33 C 320.96 144.28 306.04 180.57 286.59 214.46 C 273.63 236.97 259.78 259.11 243.21 279.16 C 237.04 286.95 230.61 294.58 223.37 301.41 C 216.73 307.89 210.56 315.01 202.88 320.32 C 198.79 318.70 195.79 315.28 192.55 312.44 C 185.00 305.00 177.26 297.73 170.11 289.89 C 149.71 266.92 132.68 241.19 117.25 214.69 C 104.47 192.57 93.55 169.41 84.05 145.71 C 75.67 125.31 68.30 104.48 62.45 83.21 C 61.02 78.13 59.43 73.07 58.61 67.84 C 61.06 67.69 63.52 67.57 65.98 67.54 M 172.59 73.79 C 171.94 109.32 172.73 144.88 172.22 180.41 C 170.38 178.65 168.60 176.78 167.39 174.53 C 160.01 160.77 151.79 147.37 146.16 132.75 C 145.35 130.98 144.69 129.04 143.24 127.69 C 140.71 126.37 137.78 126.57 135.02 126.52 C 122.01 126.65 109.00 126.62 96.00 126.55 C 92.67 126.50 89.39 127.08 86.15 127.77 C 94.05 150.63 105.29 172.15 116.69 193.42 C 130.17 216.80 143.75 240.28 160.61 261.44 C 163.91 265.41 166.82 269.97 171.28 272.75 C 176.51 275.13 182.44 274.24 188.02 274.42 C 200.71 274.66 213.40 274.48 226.09 274.59 C 227.87 274.47 229.98 274.72 231.35 273.31 C 242.09 262.84 250.20 250.13 258.97 238.06 C 278.60 207.15 297.14 175.34 311.23 141.47 C 313.04 137.26 314.35 132.86 315.22 128.36 C 307.15 128.08 299.07 128.54 291.01 127.86 C 282.65 127.23 274.32 128.68 265.96 128.29 C 263.61 128.34 261.19 128.21 258.92 128.90 C 256.46 131.72 255.41 135.43 253.90 138.78 C 250.50 147.10 246.16 154.98 241.95 162.91 C 238.75 168.58 236.13 174.65 231.92 179.69 C 230.09 172.60 230.66 165.24 230.63 158.00 C 230.67 130.09 230.50 102.19 230.57 74.28 C 226.73 73.75 222.86 73.52 218.99 73.59 C 203.53 73.78 188.06 73.55 172.59 73.79 M 90.92 104.65 C 95.40 108.89 94.17 115.25 95.11 120.74 C 99.14 114.42 96.33 106.63 96.28 99.67 C 94.48 101.32 92.70 102.98 90.92 104.65 M 99.12 109.63 C 100.47 112.72 103.93 113.74 106.67 115.16 C 106.25 115.67 105.41 116.69 104.99 117.20 C 102.84 116.53 100.69 115.87 98.52 115.28 C 99.55 117.05 100.13 119.41 102.11 120.37 C 104.24 120.73 107.45 120.76 108.23 118.24 C 110.41 112.82 111.67 105.46 107.17 100.86 C 101.98 96.75 96.72 105.08 99.12 109.63 M 129.46 100.28 C 125.58 103.15 125.29 108.66 125.66 113.07 C 126.15 116.05 127.20 120.50 131.00 120.49 C 133.75 120.78 135.64 118.27 136.17 115.85 C 137.01 112.06 136.96 108.10 136.46 104.26 C 136.16 101.20 132.20 98.71 129.46 100.28 M 267.66 104.39 C 268.71 106.19 270.38 107.83 270.50 110.03 C 270.83 113.71 269.99 117.88 272.96 120.74 C 274.04 113.73 273.56 106.61 273.17 99.56 C 271.29 101.12 269.46 102.74 267.66 104.39 M 275.51 107.98 C 275.71 112.50 280.83 113.68 283.90 115.80 C 281.20 116.68 278.39 116.26 275.68 115.72 C 276.59 117.33 277.40 119.04 278.64 120.43 C 281.03 121.14 284.03 120.55 285.11 118.06 C 287.25 113.67 287.03 108.62 287.45 103.87 C 289.37 103.84 291.29 103.83 293.21 103.84 C 291.29 109.07 289.13 114.28 288.42 119.86 C 289.16 119.74 290.63 119.48 291.36 119.35 C 292.22 115.98 292.72 112.42 294.41 109.34 C 296.68 107.03 299.64 105.53 302.20 103.56 C 303.18 104.18 304.17 104.79 305.16 105.40 C 302.43 110.32 297.22 113.60 295.93 119.34 C 299.97 120.74 304.34 120.85 308.30 119.08 C 305.88 117.93 303.39 116.94 300.89 115.99 C 303.06 113.53 305.74 111.45 307.37 108.56 C 308.09 105.58 308.00 100.41 303.84 100.38 C 296.22 100.08 288.58 100.44 280.95 100.35 C 276.94 99.86 275.20 104.73 275.51 107.98 M 118.26 104.33 C 122.25 108.72 120.54 114.79 121.83 120.04 C 122.28 119.72 123.19 119.08 123.65 118.77 C 125.63 112.69 124.56 106.04 123.25 99.92 C 121.56 101.37 119.90 102.84 118.26 104.33 M 112.05 113.36 C 113.96 113.54 115.87 113.70 117.79 113.86 C 117.72 113.25 117.58 112.03 117.51 111.43 C 116.32 110.98 115.11 110.55 113.91 110.15 C 113.44 110.96 112.51 112.56 112.05 113.36 Z" />
<path fill="#fefefe" opacity="1.00" d=" M 174.46 76.43 C 192.45 76.69 210.46 76.75 228.45 76.40 C 228.25 88.26 228.72 100.11 228.43 111.96 C 228.17 119.45 229.20 127.09 227.24 134.43 C 226.54 131.34 226.35 128.16 226.41 125.00 C 226.58 112.67 226.33 100.34 226.51 88.01 C 226.50 84.70 226.71 81.32 225.89 78.07 C 221.69 76.92 217.29 77.50 213.00 77.41 C 200.54 77.62 188.08 77.19 175.63 77.65 C 175.30 115.80 175.66 153.95 175.52 192.09 C 174.62 191.32 173.73 190.56 172.84 189.79 C 173.96 186.31 174.67 182.68 174.58 179.01 C 174.40 144.81 174.73 110.62 174.46 76.43 Z" />
<path fill="#fefefe" opacity="1.00" d=" M 102.98 102.51 C 104.07 103.29 105.18 104.06 106.18 104.96 C 106.64 106.55 106.66 108.24 106.83 109.88 C 105.33 109.83 103.81 109.88 102.35 109.46 C 102.25 107.13 102.65 104.81 102.98 102.51 Z" />
<path fill="#fefefe" opacity="1.00" d=" M 131.85 117.73 C 127.22 114.17 128.07 107.79 130.50 103.18 C 131.30 103.51 132.89 104.17 133.69 104.50 C 134.63 109.02 135.02 113.93 131.85 117.73 Z" />
<path fill="#fefefe" opacity="1.00" d=" M 281.06 110.57 C 277.81 109.35 279.77 105.45 280.38 103.10 C 281.27 103.48 283.03 104.24 283.92 104.62 C 283.31 106.72 283.74 109.94 281.06 110.57 Z" />
<path fill="#fefefe" opacity="1.00" d=" M 90.06 130.09 C 90.59 130.19 91.65 130.38 92.18 130.48 C 94.47 141.94 101.52 151.70 104.20 163.02 C 101.74 158.97 99.73 154.68 97.86 150.34 C 95.09 143.66 91.29 137.31 90.06 130.09 Z" />
<path fill="#fefefe" opacity="1.00" d=" M 140.33 129.56 C 144.89 133.32 145.92 139.39 148.58 144.37 C 150.72 148.46 153.02 152.52 154.13 157.04 C 148.18 148.67 143.07 139.51 140.33 129.56 Z" />
</g>
<g id="#0f7a4aff">
<path fill="#0f7a4a" opacity="1.00" d=" M 208.00 11.34 C 214.67 11.34 221.31 10.51 227.98 10.58 C 285.32 10.54 342.66 10.47 400.00 10.43 L 400.00 53.37 C 395.88 76.84 390.18 100.04 382.90 122.73 C 380.77 129.64 377.56 136.33 377.15 143.66 C 382.74 132.84 385.46 120.89 389.37 109.43 C 392.21 101.55 392.83 92.99 396.61 85.44 C 396.46 89.08 395.96 92.69 395.04 96.21 C 385.34 132.54 371.81 167.80 355.61 201.71 C 351.17 211.92 344.99 221.23 340.01 231.18 C 333.24 244.61 324.66 256.98 316.72 269.72 C 311.43 278.31 305.12 286.21 299.46 294.56 C 293.58 303.17 286.65 310.96 279.70 318.71 C 272.08 328.36 263.12 336.79 254.66 345.67 C 242.65 357.70 229.83 368.94 216.20 379.10 C 211.77 382.32 207.78 386.28 202.76 388.61 C 200.42 389.95 198.02 388.16 196.09 386.93 C 181.22 375.94 166.41 364.78 152.98 352.03 C 145.32 345.05 137.69 338.00 130.74 330.29 C 123.08 321.92 115.99 313.05 108.59 304.44 C 103.18 297.78 98.42 290.62 93.39 283.67 C 87.56 274.87 80.92 266.61 75.69 257.43 C 70.98 249.18 65.64 241.31 61.22 232.89 C 54.90 220.86 47.94 209.14 42.38 196.72 C 35.94 184.14 30.49 171.09 25.08 158.05 C 23.13 153.46 21.81 148.64 20.91 143.75 C 22.31 145.65 23.69 147.57 25.10 149.47 C 23.70 140.20 19.56 131.70 16.93 122.77 C 9.85 100.36 3.89 77.54 0.00 54.35 L 0.00 11.40 C 69.33 11.59 138.67 11.28 208.00 11.34 M 95.48 16.45 C 94.94 17.50 94.40 18.56 93.86 19.61 C 92.86 18.77 91.87 17.93 90.88 17.10 C 90.29 18.66 89.45 20.29 89.96 22.00 C 92.43 34.56 94.70 47.16 97.34 59.68 C 97.98 59.72 99.26 59.78 99.90 59.81 C 98.70 51.11 96.93 42.51 95.35 33.88 C 94.68 30.50 94.59 27.04 94.92 23.62 C 98.81 35.38 99.56 47.91 103.17 59.76 C 116.43 61.08 129.72 59.56 143.00 59.80 C 194.33 59.72 245.66 59.55 296.99 59.62 C 299.29 53.92 299.64 47.74 300.87 41.78 C 302.35 33.34 304.32 24.97 305.35 16.45 C 235.39 16.39 165.43 16.34 95.48 16.45 M 357.41 16.16 C 356.26 25.51 355.31 34.89 353.44 44.13 C 352.43 49.97 350.89 55.76 350.87 61.73 C 354.10 56.59 354.61 50.44 355.89 44.66 C 357.91 35.43 359.90 26.11 359.80 16.62 C 359.20 16.50 358.01 16.28 357.41 16.16 M 43.29 17.05 C 43.31 21.24 43.49 25.45 44.30 29.57 C 47.56 50.19 53.27 70.30 58.74 90.42 C 67.39 118.17 77.66 145.47 90.10 171.76 C 96.01 185.47 103.01 198.68 110.47 211.60 C 118.14 226.17 127.49 239.75 136.52 253.50 C 138.78 256.97 141.25 260.35 144.35 263.13 C 141.93 256.30 136.81 251.02 132.99 245.00 C 127.87 237.10 123.04 229.00 118.20 220.92 C 110.00 205.66 101.11 190.73 94.23 174.79 C 81.66 147.63 71.23 119.50 62.26 90.95 C 59.75 83.22 58.59 75.08 55.45 67.54 C 53.15 62.04 52.85 56.02 51.58 50.26 C 49.25 39.42 47.51 28.47 46.34 17.45 C 45.32 17.32 44.30 17.19 43.29 17.05 M 308.15 15.88 C 305.90 22.43 305.20 29.34 303.85 36.09 C 302.57 43.92 300.92 51.69 300.08 59.59 C 301.14 59.37 302.20 59.15 303.27 58.93 C 304.88 47.24 307.28 35.69 309.45 24.10 C 309.86 21.23 311.28 17.74 308.15 15.88 M 100.53 63.94 C 104.33 64.50 108.17 64.55 112.01 64.51 C 171.34 64.38 230.67 64.43 290.00 64.33 C 294.33 64.26 298.64 63.54 302.99 63.81 C 314.97 64.74 327.00 64.04 339.01 64.34 C 341.93 64.52 344.85 64.07 347.50 62.81 C 342.03 62.07 336.51 62.43 331.01 62.39 C 259.67 62.38 188.32 62.47 116.98 62.49 C 111.48 62.56 105.78 61.87 100.53 63.94 M 56.56 63.61 C 64.04 66.51 72.21 65.43 80.00 64.78 C 86.12 64.22 92.42 65.36 98.41 63.57 C 91.70 62.05 84.81 62.75 78.00 62.63 C 70.85 62.75 63.61 62.06 56.56 63.61 M 343.36 82.32 C 334.33 114.64 322.33 146.07 308.61 176.67 C 301.85 191.23 294.12 205.31 286.33 219.33 C 280.86 230.34 273.07 240.04 267.99 251.25 C 269.66 249.51 271.28 247.70 272.65 245.70 C 286.93 223.71 299.99 200.90 311.12 177.14 C 325.59 146.14 337.64 114.00 346.98 81.08 C 348.48 75.46 350.85 69.89 350.38 63.96 C 345.82 69.04 345.09 76.00 343.36 82.32 M 65.98 67.54 C 63.52 67.57 61.06 67.69 58.61 67.84 C 59.43 73.07 61.02 78.13 62.45 83.21 C 68.30 104.48 75.67 125.31 84.05 145.71 C 93.55 169.41 104.47 192.57 117.25 214.69 C 132.68 241.19 149.71 266.92 170.11 289.89 C 177.26 297.73 185.00 305.00 192.55 312.44 C 195.79 315.28 198.79 318.70 202.88 320.32 C 210.56 315.01 216.73 307.89 223.37 301.41 C 230.61 294.58 237.04 286.95 243.21 279.16 C 259.78 259.11 273.63 236.97 286.59 214.46 C 306.04 180.57 320.96 144.28 333.49 107.33 C 337.55 93.90 342.10 80.54 344.72 66.75 C 338.15 66.42 331.57 66.58 325.00 66.56 C 280.67 66.59 236.33 66.62 192.00 66.64 C 187.32 66.59 182.68 67.32 178.00 67.35 C 140.66 67.41 103.32 67.58 65.98 67.54 Z" />
<path fill="#0f7a4a" opacity="1.00" d=" M 228.62 28.96 C 228.35 25.87 228.79 22.76 230.54 20.14 C 231.49 20.62 232.44 21.09 233.40 21.55 C 233.58 32.28 233.41 43.02 233.51 53.75 C 232.33 54.45 231.14 55.15 229.96 55.85 C 227.69 47.05 229.08 37.92 228.62 28.96 Z" />
<path fill="#0f7a4a" opacity="1.00" d=" M 183.67 21.64 C 190.52 21.65 197.40 21.32 204.23 22.12 C 206.94 22.43 209.68 22.29 212.41 22.15 C 212.45 31.53 212.11 40.91 212.57 50.27 C 216.96 50.39 221.35 50.44 225.75 50.50 C 225.62 52.09 225.49 53.69 225.37 55.28 C 219.64 55.35 213.91 55.36 208.18 55.41 C 207.08 44.90 208.00 34.31 207.63 23.77 C 204.92 27.10 200.71 27.63 196.70 27.78 C 196.25 36.71 196.60 45.64 196.48 54.58 C 195.15 54.57 193.83 54.56 192.51 54.55 C 192.12 45.45 192.93 36.31 191.99 27.22 C 189.13 26.85 186.26 26.57 183.38 26.31 C 183.48 24.75 183.58 23.20 183.67 21.64 Z" />
<path fill="#0f7a4a" opacity="1.00" d=" M 162.60 36.38 C 159.71 31.03 162.19 22.17 169.05 21.62 C 175.22 20.22 182.46 25.58 180.33 32.30 C 175.95 32.70 175.60 25.47 170.96 26.27 C 167.94 25.55 165.03 27.82 165.44 30.99 C 164.97 34.28 168.81 34.90 171.14 35.67 C 174.56 36.94 179.19 37.20 181.13 40.74 C 182.20 44.58 182.18 49.25 179.59 52.51 C 175.83 56.57 168.83 56.93 164.50 53.59 C 161.74 51.48 161.12 47.86 160.16 44.74 C 161.46 44.60 162.76 44.46 164.07 44.34 C 165.19 46.61 165.84 49.42 168.07 50.92 C 171.20 52.30 175.57 51.56 177.38 48.42 C 177.72 46.76 177.88 44.70 176.73 43.32 C 172.51 40.10 166.25 40.45 162.60 36.38 Z" />
<path fill="#0f7a4a" opacity="1.00" d=" M 249.47 22.97 C 250.23 22.60 251.75 21.86 252.51 21.49 C 254.55 32.32 253.04 43.43 253.39 54.39 C 252.44 54.38 250.53 54.38 249.58 54.37 C 249.32 43.91 249.56 33.44 249.47 22.97 Z" />
<path fill="#0f7a4a" opacity="1.00" d=" M 111.08 22.63 C 112.46 22.52 113.84 22.45 115.22 22.44 C 117.69 30.08 119.48 37.91 121.51 45.67 C 122.35 45.54 123.19 45.41 124.03 45.28 C 125.74 37.60 127.79 30.00 129.81 22.39 C 131.26 22.45 132.71 22.53 134.17 22.63 C 131.75 31.82 128.85 40.87 126.32 50.03 C 125.86 52.57 123.92 54.28 122.00 55.79 C 120.52 53.10 119.22 50.30 118.31 47.37 C 115.75 39.17 113.10 30.99 111.08 22.63 Z" />
<path fill="#0f7a4a" opacity="1.00" d=" M 137.64 22.58 C 143.95 22.26 150.28 22.30 156.60 22.42 C 156.56 23.45 156.49 25.51 156.46 26.54 C 151.83 26.68 147.15 26.23 142.55 26.86 C 139.70 29.09 140.18 33.76 142.53 36.18 C 146.83 36.72 151.18 36.34 155.50 36.49 C 155.49 37.46 155.45 39.40 155.43 40.37 C 150.81 40.45 146.19 40.51 141.58 40.60 C 141.54 43.88 141.51 47.16 141.51 50.44 C 146.33 50.50 151.15 50.57 155.97 50.52 C 156.49 51.29 157.52 52.84 158.04 53.61 C 151.42 55.35 144.52 54.53 137.76 54.61 C 137.25 43.94 137.50 33.25 137.64 22.58 Z" />
<path fill="#0f7a4a" opacity="1.00" d=" M 269.54 21.94 C 270.22 22.16 271.57 22.59 272.25 22.80 C 273.36 31.72 272.48 40.79 272.64 49.77 C 278.91 50.55 285.24 50.62 291.55 50.58 C 291.57 51.85 291.60 53.12 291.64 54.39 C 284.25 54.40 276.83 54.30 269.50 55.24 C 269.19 44.15 269.07 33.03 269.54 21.94 Z" />
<path fill="#0f7a4a" opacity="1.00" d=" M 259.18 54.56 C 259.49 52.47 259.18 49.35 262.06 49.13 C 263.00 50.71 263.43 52.51 263.86 54.28 C 262.69 54.35 260.35 54.49 259.18 54.56 Z" />
<path fill="#0f7a4a" opacity="1.00" d=" M 400.00 77.95 C 399.42 74.65 399.40 71.28 400.00 67.98 L 400.00 77.95 Z" />
<path fill="#0f7a4a" opacity="1.00" d=" M 0.00 69.12 C 0.46 72.39 0.47 75.70 0.00 78.97 L 0.00 69.12 Z" />
<path fill="#0f7a4a" opacity="1.00" d=" M 172.59 73.79 C 188.06 73.55 203.53 73.78 218.99 73.59 C 222.86 73.52 226.73 73.75 230.57 74.28 C 230.50 102.19 230.67 130.09 230.63 158.00 C 230.66 165.24 230.09 172.60 231.92 179.69 C 236.13 174.65 238.75 168.58 241.95 162.91 C 246.16 154.98 250.50 147.10 253.90 138.78 C 255.41 135.43 256.46 131.72 258.92 128.90 C 261.19 128.21 263.61 128.34 265.96 128.29 C 274.32 128.68 282.65 127.23 291.01 127.86 C 299.07 128.54 307.15 128.08 315.22 128.36 C 314.35 132.86 313.04 137.26 311.23 141.47 C 297.14 175.34 278.60 207.15 258.97 238.06 C 250.20 250.13 242.09 262.84 231.35 273.31 C 229.98 274.72 227.87 274.47 226.09 274.59 C 213.40 274.48 200.71 274.66 188.02 274.42 C 182.44 274.24 176.51 275.13 171.28 272.75 C 166.82 269.97 163.91 265.41 160.61 261.44 C 143.75 240.28 130.17 216.80 116.69 193.42 C 105.29 172.15 94.05 150.63 86.15 127.77 C 89.39 127.08 92.67 126.50 96.00 126.55 C 109.00 126.62 122.01 126.65 135.02 126.52 C 137.78 126.57 140.71 126.37 143.24 127.69 C 144.69 129.04 145.35 130.98 146.16 132.75 C 151.79 147.37 160.01 160.77 167.39 174.53 C 168.60 176.78 170.38 178.65 172.22 180.41 C 172.73 144.88 171.94 109.32 172.59 73.79 M 174.46 76.43 C 174.73 110.62 174.40 144.81 174.58 179.01 C 174.67 182.68 173.96 186.31 172.84 189.79 C 173.73 190.56 174.62 191.32 175.52 192.09 C 175.66 153.95 175.30 115.80 175.63 77.65 C 188.08 77.19 200.54 77.62 213.00 77.41 C 217.29 77.50 221.69 76.92 225.89 78.07 C 226.71 81.32 226.50 84.70 226.51 88.01 C 226.33 100.34 226.58 112.67 226.41 125.00 C 226.35 128.16 226.54 131.34 227.24 134.43 C 229.20 127.09 228.17 119.45 228.43 111.96 C 228.72 100.11 228.25 88.26 228.45 76.40 C 210.46 76.75 192.45 76.69 174.46 76.43 M 90.06 130.09 C 91.29 137.31 95.09 143.66 97.86 150.34 C 99.73 154.68 101.74 158.97 104.20 163.02 C 101.52 151.70 94.47 141.94 92.18 130.48 C 91.65 130.38 90.59 130.19 90.06 130.09 M 140.33 129.56 C 143.07 139.51 148.18 148.67 154.13 157.04 C 153.02 152.52 150.72 148.46 148.58 144.37 C 145.92 139.39 144.89 133.32 140.33 129.56 Z" />
<path fill="#0f7a4a" opacity="1.00" d=" M 397.01 85.58 C 396.47 82.64 396.94 79.69 398.08 76.94 C 398.85 79.89 398.67 82.96 397.01 85.58 Z" />
<path fill="#0f7a4a" opacity="1.00" d=" M 90.92 104.65 C 92.70 102.98 94.48 101.32 96.28 99.67 C 96.33 106.63 99.14 114.42 95.11 120.74 C 94.17 115.25 95.40 108.89 90.92 104.65 Z" />
<path fill="#0f7a4a" opacity="1.00" d=" M 99.12 109.63 C 96.72 105.08 101.98 96.75 107.17 100.86 C 111.67 105.46 110.41 112.82 108.23 118.24 C 107.45 120.76 104.24 120.73 102.11 120.37 C 100.13 119.41 99.55 117.05 98.52 115.28 C 100.69 115.87 102.84 116.53 104.99 117.20 C 105.41 116.69 106.25 115.67 106.67 115.16 C 103.93 113.74 100.47 112.72 99.12 109.63 M 102.98 102.51 C 102.65 104.81 102.25 107.13 102.35 109.46 C 103.81 109.88 105.33 109.83 106.83 109.88 C 106.66 108.24 106.64 106.55 106.18 104.96 C 105.18 104.06 104.07 103.29 102.98 102.51 Z" />
<path fill="#0f7a4a" opacity="1.00" d=" M 129.46 100.28 C 132.20 98.71 136.16 101.20 136.46 104.26 C 136.96 108.10 137.01 112.06 136.17 115.85 C 135.64 118.27 133.75 120.78 131.00 120.49 C 127.20 120.50 126.15 116.05 125.66 113.07 C 125.29 108.66 125.58 103.15 129.46 100.28 M 131.85 117.73 C 135.02 113.93 134.63 109.02 133.69 104.50 C 132.89 104.17 131.30 103.51 130.50 103.18 C 128.07 107.79 127.22 114.17 131.85 117.73 Z" />
<path fill="#0f7a4a" opacity="1.00" d=" M 267.66 104.39 C 269.46 102.74 271.29 101.12 273.17 99.56 C 273.56 106.61 274.04 113.73 272.96 120.74 C 269.99 117.88 270.83 113.71 270.50 110.03 C 270.38 107.83 268.71 106.19 267.66 104.39 Z" />
<path fill="#0f7a4a" opacity="1.00" d=" M 275.51 107.98 C 275.20 104.73 276.94 99.86 280.95 100.35 C 288.58 100.44 296.22 100.08 303.84 100.38 C 308.00 100.41 308.09 105.58 307.37 108.56 C 305.74 111.45 303.06 113.53 300.89 115.99 C 303.39 116.94 305.88 117.93 308.30 119.08 C 304.34 120.85 299.97 120.74 295.93 119.34 C 297.22 113.60 302.43 110.32 305.16 105.40 C 304.17 104.79 303.18 104.18 302.20 103.56 C 299.64 105.53 296.68 107.03 294.41 109.34 C 292.72 112.42 292.22 115.98 291.36 119.35 C 290.63 119.48 289.16 119.74 288.42 119.86 C 289.13 114.28 291.29 109.07 293.21 103.84 C 291.29 103.83 289.37 103.84 287.45 103.87 C 287.03 108.62 287.25 113.67 285.11 118.06 C 284.03 120.55 281.03 121.14 278.64 120.43 C 277.40 119.04 276.59 117.33 275.68 115.72 C 278.39 116.26 281.20 116.68 283.90 115.80 C 280.83 113.68 275.71 112.50 275.51 107.98 M 281.06 110.57 C 283.74 109.94 283.31 106.72 283.92 104.62 C 283.03 104.24 281.27 103.48 280.38 103.10 C 279.77 105.45 277.81 109.35 281.06 110.57 Z" />
<path fill="#0f7a4a" opacity="1.00" d=" M 118.26 104.33 C 119.90 102.84 121.56 101.37 123.25 99.92 C 124.56 106.04 125.63 112.69 123.65 118.77 C 123.19 119.08 122.28 119.72 121.83 120.04 C 120.54 114.79 122.25 108.72 118.26 104.33 Z" />
<path fill="#0f7a4a" opacity="1.00" d=" M 112.05 113.36 C 112.51 112.56 113.44 110.96 113.91 110.15 C 115.11 110.55 116.32 110.98 117.51 111.43 C 117.58 112.03 117.72 113.25 117.79 113.86 C 115.87 113.70 113.96 113.54 112.05 113.36 Z" />
</g>
</svg>
