<?xml version="1.0" encoding="UTF-8" ?>
<!DOCTYPE svg PUBLIC "-//W3C//DTD SVG 1.1//EN" "http://www.w3.org/Graphics/SVG/1.1/DTD/svg11.dtd">
<svg width="125pt" height="125pt" viewBox="0 0 125 125" version="1.1" xmlns="http://www.w3.org/2000/svg">
<g id="#242021ff">
<path fill="#242021" opacity="1.00" d=" M 72.26 0.00 L 75.81 0.00 C 77.32 1.18 79.27 2.20 79.81 4.19 C 80.39 6.44 80.48 8.79 81.10 11.04 C 84.04 12.60 87.23 13.63 90.18 15.17 C 92.51 14.26 95.66 13.04 97.64 15.30 C 99.47 16.66 99.05 19.07 99.26 21.05 C 103.79 18.97 108.92 17.70 113.89 18.74 C 116.34 19.55 116.17 22.55 114.46 24.00 C 116.57 30.77 116.31 38.08 114.75 44.93 C 112.84 53.55 108.01 61.41 107.57 70.36 C 109.85 69.73 112.86 67.91 114.79 70.24 C 117.35 72.79 114.68 76.64 111.94 77.69 C 109.28 77.83 106.73 76.90 104.12 76.60 C 103.74 76.54 103.00 76.42 102.63 76.37 C 100.74 80.12 98.55 83.70 96.50 87.36 C 96.21 87.11 95.62 86.60 95.32 86.35 C 94.73 86.15 93.56 85.74 92.97 85.54 C 93.82 86.71 94.66 87.90 95.49 89.09 C 90.27 96.58 84.76 103.86 78.93 110.88 C 78.35 110.17 77.78 109.47 77.20 108.77 C 76.18 108.11 80.65 107.01 79.23 106.08 C 77.65 105.34 75.92 104.98 74.26 104.49 C 74.29 104.70 74.36 105.12 74.40 105.33 C 76.16 107.67 79.05 110.99 76.52 113.80 C 77.66 113.38 78.73 112.79 79.84 112.30 C 79.35 114.98 76.89 116.53 75.23 118.48 C 72.95 121.06 70.40 123.44 67.30 125.00 L 56.68 125.00 C 53.11 122.73 50.48 119.36 47.47 116.46 C 46.47 115.33 44.97 114.27 45.21 112.54 L 46.97 113.31 L 46.50 114.65 C 47.75 114.68 49.01 114.70 50.27 114.72 C 50.05 118.52 53.40 120.98 55.87 123.31 C 56.22 123.11 56.91 122.72 57.26 122.52 C 57.33 122.68 57.46 122.99 57.52 123.15 C 57.58 123.39 57.70 123.89 57.75 124.13 C 60.44 124.49 63.27 125.04 65.93 124.17 C 72.65 122.09 76.64 113.78 73.84 107.27 C 72.91 104.83 70.73 103.26 68.75 101.74 C 71.38 101.09 73.63 99.53 75.21 97.34 C 81.65 89.21 87.62 80.61 92.21 71.28 C 94.06 67.32 96.04 63.25 96.26 58.80 C 96.73 50.95 96.72 43.09 96.51 35.24 C 73.11 35.13 49.69 35.07 26.29 35.72 C 26.12 41.49 26.89 47.23 27.05 53.00 C 27.21 58.24 29.28 63.15 31.42 67.85 C 36.06 77.81 41.27 87.56 47.69 96.50 C 49.46 98.79 51.35 101.38 54.36 102.03 C 52.82 100.07 50.60 98.77 49.14 96.74 C 42.34 87.68 37.35 77.46 32.52 67.27 C 31.73 66.52 32.13 64.26 33.48 65.28 C 34.33 67.60 36.42 68.75 38.61 69.57 C 39.76 70.76 36.39 70.24 37.41 71.43 C 38.30 72.16 39.20 72.87 40.11 73.58 C 40.23 72.83 40.47 71.32 40.59 70.56 C 42.28 71.56 41.29 73.55 41.19 75.07 C 42.00 75.56 42.82 76.04 43.65 76.50 C 43.79 76.92 44.07 77.76 44.20 78.17 C 44.63 77.93 45.49 77.44 45.92 77.20 C 45.81 77.82 45.59 79.07 45.48 79.70 C 46.04 79.64 47.17 79.54 47.74 79.49 C 47.86 78.17 46.60 77.13 46.58 75.79 L 46.76 74.92 C 47.28 74.82 48.32 74.61 48.84 74.50 C 48.22 74.45 47.00 74.35 46.38 74.30 C 47.76 72.57 48.25 70.14 50.37 69.08 C 51.16 68.73 53.32 66.75 51.13 66.67 C 49.37 68.56 47.58 70.59 44.92 71.17 C 45.82 69.64 46.81 68.17 47.87 66.75 C 45.84 67.78 42.36 68.01 42.73 64.73 C 42.31 65.10 41.47 65.84 41.04 66.21 C 40.07 66.02 39.11 65.84 38.14 65.63 C 37.55 64.98 36.86 64.44 36.08 64.02 L 36.58 67.01 C 34.77 66.89 34.62 65.02 34.37 63.60 C 33.18 63.36 31.37 64.32 30.66 62.96 C 30.09 61.36 29.81 59.69 29.48 58.04 C 39.67 54.95 49.85 51.83 60.16 49.21 C 62.99 48.28 65.74 49.70 68.42 50.41 C 77.28 53.01 86.09 55.79 94.99 58.27 C 94.43 64.97 91.16 70.98 87.99 76.76 C 83.96 83.62 79.49 90.23 74.77 96.63 C 73.37 98.31 72.06 100.71 69.55 100.66 C 64.54 101.00 59.50 100.65 54.48 100.48 C 55.20 102.62 53.06 103.61 51.97 105.02 C 49.81 107.45 49.60 110.89 49.41 113.97 C 48.70 113.63 48.05 113.19 47.55 112.58 C 41.61 106.36 36.11 99.73 31.09 92.75 C 33.24 91.77 35.40 89.51 37.83 91.25 C 36.90 92.33 35.97 93.43 35.09 94.56 C 37.82 95.12 39.01 92.05 40.73 90.58 C 39.21 89.93 37.68 89.31 36.14 88.70 C 36.66 87.23 37.11 85.72 37.03 84.14 C 34.60 84.73 32.20 85.45 29.85 86.30 C 30.91 88.55 33.46 86.54 35.14 86.55 C 34.41 87.85 34.16 89.91 32.25 89.67 C 31.12 89.63 30.78 90.90 30.12 91.58 C 28.65 88.00 26.42 84.83 24.65 81.41 C 23.49 79.41 22.66 77.04 20.44 75.94 C 24.41 86.28 31.33 95.13 37.84 103.97 C 37.37 103.75 36.42 103.32 35.95 103.10 C 29.69 95.32 24.25 86.85 19.87 77.86 C 16.51 77.45 12.23 78.34 9.77 75.43 C 8.04 73.54 9.58 70.54 11.54 69.49 C 13.34 69.09 15.02 70.24 16.72 70.64 C 17.94 59.49 9.96 49.99 10.03 38.98 C 9.99 34.17 9.39 29.08 11.71 24.65 C 7.68 23.33 10.64 18.42 13.27 17.25 C 18.03 15.21 23.15 17.69 27.49 19.70 C 28.07 16.03 32.21 13.59 35.60 15.43 C 37.85 16.46 37.64 19.20 38.02 21.24 C 44.44 15.20 47.38 5.66 55.68 1.70 C 59.60 -0.20 63.02 3.05 66.39 4.55 C 65.37 5.68 64.37 6.82 63.38 7.98 C 63.61 5.20 61.88 2.82 59.02 2.70 C 52.95 3.45 50.15 9.57 47.21 14.13 C 45.11 18.55 42.53 24.21 37.06 24.92 C 34.69 25.43 32.51 23.80 31.59 21.71 C 33.86 22.13 35.43 21.08 36.18 18.90 C 34.95 18.03 33.78 16.44 32.05 16.86 C 29.61 17.37 28.42 20.38 29.54 22.53 C 30.98 25.60 34.85 26.80 38.01 26.27 C 42.31 25.71 45.35 22.22 47.80 18.95 C 49.12 21.10 50.89 22.90 53.10 24.12 C 56.74 21.44 55.85 16.93 55.08 13.13 C 54.74 13.04 54.07 12.86 53.73 12.77 C 53.64 15.83 55.70 20.65 52.15 22.42 C 51.30 18.14 52.10 13.81 52.06 9.50 L 53.16 11.72 C 54.15 9.94 54.64 7.95 55.18 5.99 C 56.36 8.12 56.61 11.54 59.84 11.21 C 59.19 12.08 58.56 12.97 58.04 13.93 C 60.33 12.34 60.93 9.38 63.26 7.82 C 64.10 11.73 60.51 13.97 58.14 16.33 C 57.20 19.48 57.42 23.74 53.88 25.30 C 51.95 26.56 50.49 24.47 49.06 23.48 C 48.77 24.13 48.19 25.41 47.90 26.05 C 48.87 26.39 49.85 26.72 50.82 27.05 C 50.01 27.71 49.20 28.36 48.39 29.03 C 49.42 29.01 51.48 28.96 52.50 28.94 C 53.50 32.79 57.80 33.47 61.10 32.36 C 64.10 31.35 66.92 33.15 69.90 33.35 C 72.55 33.76 75.22 33.38 77.82 32.87 C 78.39 31.42 79.29 29.96 78.75 28.34 C 77.07 28.36 75.38 28.16 74.16 26.88 C 75.18 26.79 77.22 26.61 78.24 26.52 C 77.85 24.69 77.59 22.80 76.69 21.13 C 73.95 22.48 73.69 26.59 72.98 29.36 C 69.03 30.02 64.94 28.70 62.14 25.84 C 60.38 23.87 60.74 20.88 62.26 18.88 C 61.85 18.42 61.44 17.97 61.04 17.52 L 59.83 19.31 C 60.00 17.88 60.19 16.32 61.22 15.21 C 64.07 12.21 67.09 9.29 70.74 7.27 C 72.07 6.69 72.00 4.96 72.67 3.88 C 73.30 4.49 74.57 5.71 75.20 6.32 C 74.71 5.03 74.22 3.74 73.74 2.45 C 76.67 3.06 76.91 6.26 77.16 8.68 C 71.55 9.48 66.44 12.20 62.37 16.10 C 62.87 16.48 63.36 16.87 63.86 17.25 C 66.89 12.21 73.19 10.69 78.68 10.43 C 78.43 8.24 78.15 6.06 77.92 3.87 C 75.02 0.94 70.74 2.60 67.38 3.65 C 67.68 1.24 70.48 0.90 72.26 0.00 M 74.56 13.21 C 75.01 14.87 75.36 16.57 75.85 18.23 C 77.90 17.29 78.15 14.49 78.76 12.50 C 77.34 12.59 75.90 12.68 74.56 13.21 M 79.79 13.37 C 80.42 14.50 81.81 14.48 82.87 14.90 C 85.60 15.49 87.69 17.41 89.86 19.02 C 90.19 17.79 89.82 16.83 88.75 16.16 C 86.25 14.25 83.04 12.48 79.79 13.37 M 65.62 17.76 C 65.62 18.86 65.61 19.96 65.61 21.07 C 66.20 19.65 66.99 16.23 69.03 18.19 L 69.51 18.71 C 69.47 18.29 69.39 17.44 69.35 17.02 C 70.74 16.16 73.37 16.27 73.06 14.03 C 70.51 15.13 68.06 16.44 65.62 17.76 M 90.99 17.98 C 92.02 19.38 93.83 18.38 95.24 18.60 C 95.90 22.20 91.25 21.26 90.77 23.98 C 94.63 25.15 99.44 20.01 96.35 16.58 C 94.82 14.43 91.60 15.77 90.99 17.98 M 79.18 16.04 C 80.89 17.24 83.08 17.71 84.35 19.48 C 83.84 19.41 82.82 19.27 82.31 19.20 C 82.54 21.19 86.78 21.90 85.85 24.39 C 83.97 24.75 81.14 26.34 82.48 28.61 C 83.57 31.19 86.64 30.37 88.77 29.99 C 91.14 27.29 90.59 23.87 88.86 21.02 L 86.60 22.06 L 88.09 20.24 C 85.49 18.21 82.67 16.01 79.18 16.04 M 72.01 16.85 C 70.71 17.55 70.72 18.21 72.03 18.82 C 73.36 18.12 73.35 17.46 72.01 16.85 M 14.41 18.48 C 13.08 19.16 11.10 20.44 11.42 22.12 C 14.04 22.75 16.67 23.32 19.19 24.28 C 18.64 25.19 18.08 26.11 17.52 27.02 C 21.30 27.88 25.11 28.72 29.00 28.23 C 27.56 29.92 25.94 31.59 25.60 33.89 C 31.53 34.83 37.36 32.94 41.97 29.21 C 42.00 31.98 39.32 32.61 37.83 34.24 C 39.71 34.38 41.12 31.35 42.88 32.99 C 45.47 34.63 50.56 34.85 51.21 31.05 C 50.41 31.48 48.81 32.32 48.01 32.74 L 48.66 30.48 C 45.84 31.23 44.48 27.96 42.93 26.26 C 41.42 27.39 39.99 28.62 38.53 29.80 C 36.45 30.45 34.25 30.51 32.10 30.72 C 31.55 30.98 30.45 31.48 29.90 31.73 C 30.43 30.82 30.95 29.90 31.46 28.97 C 31.53 27.03 29.38 26.47 27.93 25.97 C 26.87 24.72 25.83 23.45 24.77 22.19 C 24.45 22.59 23.83 23.38 23.51 23.78 C 23.49 23.40 23.46 22.64 23.44 22.26 C 21.37 22.91 20.12 20.82 19.34 19.30 C 21.03 19.74 22.64 20.43 24.29 21.01 C 23.74 19.29 21.71 19.49 20.48 18.58 C 18.43 18.91 16.37 17.36 14.41 18.48 M 78.41 17.92 C 78.75 19.18 79.55 19.43 80.81 18.67 C 80.57 17.37 79.77 17.12 78.41 17.92 M 104.45 22.23 C 105.68 22.88 106.33 23.85 106.39 25.14 C 103.74 24.77 101.03 23.84 98.37 24.71 C 97.40 26.66 99.75 28.29 100.07 30.18 C 98.38 29.26 96.67 28.05 95.92 26.20 C 95.90 26.75 95.86 27.85 95.84 28.40 C 95.27 28.04 94.14 27.32 93.57 26.95 C 91.51 30.30 88.12 32.82 84.00 32.33 C 82.90 31.47 81.62 30.90 80.27 30.55 C 81.77 33.26 85.29 33.84 88.10 33.74 C 90.19 33.37 94.16 33.38 92.82 30.05 C 95.19 31.78 97.99 32.83 100.94 32.83 C 103.72 31.38 102.49 28.07 101.74 25.79 C 104.44 27.68 108.48 28.22 111.09 25.89 C 110.91 24.04 108.56 23.54 107.78 21.93 C 109.48 22.03 111.04 22.66 112.53 23.43 C 112.46 22.31 112.92 21.40 113.68 20.63 C 110.48 19.74 106.80 19.37 104.45 22.23 M 13.19 25.01 L 13.28 25.90 C 11.51 28.16 11.29 31.30 11.09 34.06 C 11.20 43.03 14.39 51.53 17.02 59.99 C 17.99 62.95 17.66 66.17 18.68 69.10 C 18.65 67.17 18.81 65.25 19.30 63.37 C 18.60 60.55 18.69 57.49 17.17 54.93 C 17.30 54.48 17.57 53.59 17.71 53.15 L 16.29 53.01 C 16.48 52.54 16.86 51.58 17.04 51.10 C 16.58 50.97 15.64 50.71 15.18 50.57 C 15.68 50.17 16.67 49.37 17.17 48.96 C 14.57 47.26 16.25 44.33 16.57 41.97 L 16.00 42.33 C 13.26 42.36 12.96 41.63 15.10 40.16 C 14.53 40.25 13.39 40.42 12.81 40.51 L 12.67 39.01 C 13.27 38.91 14.49 38.70 15.09 38.60 C 14.50 38.29 13.33 37.67 12.74 37.36 L 14.21 36.80 L 15.07 37.25 C 15.08 35.12 14.34 33.15 13.42 31.27 L 14.93 30.77 C 14.89 28.85 14.88 26.92 14.95 25.00 C 14.51 25.00 13.63 25.01 13.19 25.01 M 45.33 25.55 C 45.30 26.41 45.61 27.15 46.25 27.78 C 47.19 28.74 48.09 28.88 48.93 28.21 C 48.38 26.88 46.72 25.63 45.33 25.55 M 112.50 31.49 C 112.15 31.83 111.47 32.50 111.13 32.84 C 114.66 35.41 110.65 40.19 111.78 43.76 L 111.21 44.23 C 111.31 45.90 110.71 47.66 109.31 48.65 L 110.04 49.92 C 109.50 50.09 108.42 50.42 107.89 50.59 C 108.46 50.76 109.60 51.11 110.17 51.29 C 109.68 51.58 108.69 52.16 108.20 52.45 L 109.09 53.64 C 108.62 53.84 107.70 54.25 107.23 54.45 C 109.04 56.17 106.05 58.86 105.99 60.89 C 105.47 60.15 104.95 59.40 104.45 58.65 C 107.05 49.00 109.47 38.93 107.96 28.88 L 106.50 28.57 C 106.57 30.79 106.59 33.01 106.85 35.21 C 106.38 35.25 105.44 35.33 104.96 35.37 C 106.08 35.44 106.86 35.94 107.31 36.89 C 106.04 36.90 105.23 37.43 104.90 38.47 C 107.56 37.44 106.37 40.23 106.54 41.40 C 106.06 41.58 105.09 41.95 104.60 42.13 C 105.15 42.33 106.24 42.75 106.79 42.95 C 106.52 43.66 106.00 45.09 105.74 45.80 C 105.38 45.88 104.66 46.06 104.30 46.15 C 104.83 46.31 105.88 46.62 106.41 46.78 C 105.88 48.34 103.66 49.90 105.12 51.63 C 104.68 51.86 103.79 52.31 103.34 52.54 C 103.72 52.83 104.46 53.41 104.83 53.70 C 104.38 53.92 103.46 54.37 103.00 54.59 L 104.37 55.25 C 102.90 57.84 102.92 60.88 102.74 63.78 L 103.84 63.63 C 103.93 62.77 104.11 61.04 104.21 60.18 C 104.75 60.44 105.84 60.98 106.39 61.24 C 104.70 63.21 106.20 66.39 104.26 68.00 C 104.12 67.19 103.83 65.56 103.68 64.75 L 102.41 64.83 C 102.64 65.32 103.09 66.30 103.32 66.79 L 103.09 68.08 C 103.47 68.57 104.23 69.54 104.62 70.03 C 105.04 69.50 105.47 68.97 105.90 68.44 L 106.72 70.77 C 106.35 60.02 112.96 50.69 113.57 40.08 C 113.69 36.16 114.01 32.20 113.47 28.29 C 111.00 26.77 110.95 30.52 112.50 31.49 M 16.50 35.07 L 17.00 35.33 C 17.13 43.37 19.00 51.18 20.07 59.11 C 20.40 60.66 20.03 62.69 21.74 63.52 C 21.71 61.83 22.21 60.03 21.38 58.45 C 21.52 58.14 21.79 57.51 21.93 57.19 L 20.53 56.85 C 22.14 55.42 20.90 53.88 20.81 52.18 L 19.96 51.85 C 21.05 49.08 18.97 46.02 18.78 43.14 C 19.08 42.74 19.68 41.94 19.98 41.54 C 19.60 41.00 18.82 39.92 18.44 39.38 C 18.60 37.51 18.92 35.65 19.61 33.90 L 19.71 33.49 C 19.44 31.89 19.71 29.70 17.90 28.91 C 15.16 29.33 17.02 33.15 16.50 35.07 M 22.46 30.38 C 20.00 36.93 21.70 44.09 22.31 50.83 C 22.22 51.13 22.03 51.73 21.94 52.03 L 22.59 51.48 C 23.31 58.51 24.49 66.19 20.78 72.64 L 19.46 72.61 C 19.72 71.87 20.23 70.38 20.49 69.64 L 19.41 70.42 C 19.00 70.44 18.17 70.49 17.75 70.51 C 17.01 70.48 16.44 70.94 16.03 71.89 C 16.52 72.49 17.51 73.71 18.00 74.32 C 16.52 75.17 14.83 75.13 13.19 75.07 C 13.01 74.66 12.67 73.85 12.50 73.45 C 13.17 73.15 14.51 72.57 15.17 72.28 C 14.04 69.69 11.05 70.55 10.36 72.83 C 10.39 75.27 13.03 76.48 15.07 77.00 C 18.60 76.46 20.86 73.62 23.26 71.29 C 23.93 69.76 24.44 68.16 24.59 66.48 C 24.65 65.68 24.77 64.08 24.83 63.28 C 25.28 63.28 26.19 63.28 26.65 63.28 C 25.28 62.80 24.64 61.68 25.92 60.46 C 25.70 60.09 25.26 59.33 25.05 58.95 C 23.89 57.69 27.60 55.92 24.79 55.78 C 24.64 54.54 24.47 53.30 24.28 52.07 C 26.45 50.76 23.30 48.16 24.12 46.21 C 24.86 43.63 23.43 40.67 24.62 38.35 C 24.24 38.27 23.48 38.10 23.10 38.01 C 23.16 37.33 23.28 35.95 23.33 35.26 C 23.66 35.13 24.30 34.87 24.63 34.73 C 24.21 34.55 23.38 34.19 22.96 34.01 C 23.55 32.68 23.78 31.25 23.95 29.82 C 23.57 29.96 22.83 30.24 22.46 30.38 M 99.28 34.96 C 99.64 35.88 100.02 36.81 100.39 37.73 C 98.39 38.70 99.78 39.97 100.69 41.12 C 100.16 41.49 99.10 42.23 98.56 42.60 C 98.83 46.08 98.53 49.55 98.24 53.01 C 98.13 54.20 98.67 54.96 99.85 55.28 C 99.91 56.05 100.04 57.59 100.11 58.36 C 99.71 58.34 98.92 58.32 98.53 58.31 C 98.45 58.96 98.30 60.27 98.22 60.92 L 99.92 61.52 C 99.27 61.86 97.97 62.56 97.32 62.91 C 97.72 62.98 98.51 63.12 98.91 63.19 C 98.83 64.42 98.75 65.65 98.65 66.88 L 99.89 67.03 C 101.08 72.85 107.05 76.89 112.89 75.98 C 111.12 74.18 108.21 75.48 106.43 73.73 C 103.12 71.32 100.18 67.40 100.85 63.10 C 101.50 53.77 103.08 44.46 102.83 35.09 C 102.31 35.18 101.29 35.34 100.77 35.42 C 100.40 35.31 99.65 35.08 99.28 34.96 M 54.73 53.95 C 53.84 53.79 52.08 53.48 51.20 53.32 C 50.84 54.22 50.48 55.12 50.13 56.01 C 51.51 55.31 52.90 54.62 54.36 54.08 C 55.94 56.91 59.59 54.22 60.03 51.82 C 58.64 52.31 57.39 53.05 56.27 54.04 C 55.97 53.61 55.37 52.77 55.06 52.35 C 54.98 52.75 54.81 53.55 54.73 53.95 M 60.81 52.93 C 60.78 55.33 63.13 56.13 64.97 56.86 C 64.58 56.34 63.81 55.30 63.42 54.79 C 64.96 55.07 66.49 55.11 67.12 53.45 C 65.48 53.23 63.80 53.11 63.03 54.89 C 62.47 54.40 61.36 53.42 60.81 52.93 M 69.34 54.88 C 70.50 55.76 72.53 55.11 73.32 54.01 C 72.63 52.45 68.46 52.60 69.34 54.88 M 74.22 54.09 C 74.66 56.03 75.30 57.93 76.18 59.71 C 78.02 61.70 78.30 64.28 77.65 66.85 C 78.71 66.82 79.76 66.79 80.81 66.75 C 80.79 68.25 81.50 69.08 82.93 69.25 C 82.98 68.49 83.10 66.97 83.16 66.21 C 84.58 66.62 85.44 67.44 85.76 68.68 C 82.73 69.03 81.99 74.16 78.38 72.94 C 79.25 71.96 80.28 71.16 81.45 70.56 C 81.09 68.21 76.47 66.95 79.18 71.02 C 77.98 67.79 72.78 69.49 72.21 66.17 C 73.46 65.76 76.79 65.14 75.31 67.79 L 78.15 68.38 C 77.04 66.76 76.49 64.98 76.49 63.05 C 74.86 63.91 73.18 65.00 71.24 64.65 C 71.26 65.89 71.29 67.13 71.36 68.36 C 72.74 68.60 74.02 69.12 75.19 69.92 C 73.85 70.86 72.39 71.49 70.80 71.80 C 71.54 72.24 72.27 72.69 73.01 73.14 C 72.75 73.60 72.23 74.52 71.97 74.98 C 72.53 74.99 73.66 75.01 74.22 75.01 C 73.93 75.36 73.35 76.05 73.06 76.40 C 73.43 76.77 74.16 77.51 74.53 77.89 C 73.98 78.02 72.88 78.30 72.33 78.44 C 72.30 79.05 72.24 80.26 72.21 80.86 L 71.71 80.60 C 71.38 80.53 70.72 80.39 70.39 80.32 C 70.33 80.76 70.20 81.64 70.13 82.08 C 69.63 82.73 69.00 83.26 68.25 83.65 C 68.81 83.44 69.93 83.01 70.49 82.80 L 70.73 86.07 C 69.99 85.83 68.51 85.34 67.77 85.10 C 68.30 86.02 68.85 86.93 69.42 87.83 C 67.86 88.15 67.18 89.94 67.19 91.30 C 68.68 92.11 69.58 93.38 69.87 95.13 C 68.57 94.97 66.59 92.12 66.00 94.56 C 66.50 94.60 67.51 94.69 68.02 94.73 L 68.00 96.07 C 68.69 96.04 70.07 95.99 70.77 95.96 C 70.65 95.52 70.43 94.62 70.32 94.18 C 70.99 94.02 72.33 93.71 72.99 93.55 C 71.69 93.26 70.98 92.48 70.86 91.22 C 70.25 90.92 69.04 90.30 68.44 90.00 C 70.08 89.50 71.74 89.05 73.45 88.78 L 72.88 89.76 L 71.25 90.22 C 71.23 92.97 74.40 90.61 75.81 90.51 C 76.41 89.40 76.87 88.23 77.20 87.00 L 75.14 86.99 C 75.27 87.50 75.53 88.50 75.66 89.00 L 73.83 88.98 C 74.09 88.40 74.63 87.24 74.90 86.66 C 74.30 86.15 73.10 85.12 72.50 84.60 C 75.57 83.62 76.70 86.28 79.05 87.04 C 78.20 85.32 77.07 83.70 76.72 81.77 C 77.69 82.93 78.61 84.12 79.61 85.25 C 82.34 81.85 77.14 81.96 76.25 80.07 C 78.06 79.58 79.90 80.58 81.73 79.86 C 80.13 78.99 78.34 78.62 76.72 77.80 L 79.07 77.02 C 77.54 75.82 75.45 75.29 74.33 73.63 C 75.00 73.84 76.33 74.25 77.00 74.45 L 77.00 72.98 L 75.50 73.24 C 75.43 72.04 75.34 70.84 75.24 69.64 C 75.59 69.67 76.30 69.72 76.65 69.75 C 76.96 72.91 79.23 75.27 80.29 78.17 C 80.78 78.11 81.76 77.99 82.26 77.93 C 81.55 76.50 80.71 75.15 79.84 73.82 C 80.63 73.90 82.20 74.04 82.98 74.12 C 82.59 75.75 83.49 77.06 84.48 78.26 C 86.75 77.13 83.15 75.86 84.66 74.47 C 85.20 73.26 82.69 73.08 82.09 72.32 C 83.87 72.16 84.91 71.24 85.24 69.57 L 86.19 69.88 C 85.75 70.84 85.31 71.79 84.88 72.75 C 85.76 73.07 86.63 73.39 87.51 73.72 C 87.28 73.28 86.81 72.41 86.57 71.97 C 86.99 71.05 87.41 70.13 87.84 69.21 L 86.30 68.62 C 86.91 68.21 88.14 67.40 88.76 66.99 C 87.93 65.29 85.86 66.15 84.51 65.32 C 85.10 64.53 86.29 62.94 86.88 62.15 C 87.58 63.08 88.10 64.12 88.63 65.15 C 89.22 65.53 90.38 66.27 90.97 66.64 C 90.29 65.77 89.49 64.97 88.64 64.28 C 88.89 63.90 89.38 63.15 89.63 62.77 C 87.99 62.02 88.33 60.53 89.13 59.23 C 87.55 60.04 86.45 61.41 85.53 62.90 C 83.33 62.16 81.11 63.38 78.91 62.86 C 79.96 62.14 81.08 61.51 82.20 60.90 C 82.08 60.51 81.85 59.73 81.74 59.34 C 81.28 59.75 80.37 60.58 79.91 60.99 C 79.94 60.24 79.99 58.75 80.02 58.00 L 78.52 57.99 C 78.61 57.47 78.78 56.41 78.87 55.88 C 78.40 56.21 77.46 56.87 76.99 57.20 C 77.30 55.28 75.67 54.65 74.22 54.09 M 45.45 55.18 C 44.89 56.51 45.32 56.95 46.74 56.52 C 47.38 55.10 46.95 54.66 45.45 55.18 M 38.02 61.87 C 39.03 62.52 40.03 63.18 41.03 63.86 C 42.82 63.33 44.64 62.63 44.56 60.41 C 48.41 60.21 52.53 58.95 56.18 60.74 C 57.39 61.40 59.70 61.71 58.92 63.60 C 58.01 63.25 57.11 62.90 56.20 62.54 C 54.89 66.24 53.28 69.83 51.18 73.16 C 50.52 74.47 49.14 76.25 50.41 77.64 C 53.61 81.27 57.91 83.67 62.04 86.08 C 61.67 88.23 61.42 90.40 61.14 92.57 C 61.66 92.61 62.69 92.67 63.21 92.70 C 62.46 94.65 62.04 96.70 61.72 98.76 C 63.81 99.10 65.88 99.52 67.98 99.83 C 66.96 98.62 65.59 97.84 64.24 97.07 C 64.87 93.69 65.37 90.29 65.97 86.90 C 65.31 87.36 63.98 88.28 63.31 88.74 C 63.22 88.42 63.03 87.78 62.94 87.46 C 63.83 86.63 65.14 86.13 65.66 84.96 C 66.71 81.92 70.01 80.33 70.82 77.16 C 70.36 73.77 69.75 70.38 68.94 67.05 C 68.51 66.00 65.18 65.26 66.90 64.13 C 68.99 63.83 74.57 64.29 71.97 60.41 C 72.74 60.85 74.30 61.73 75.07 62.17 C 74.47 59.94 73.49 57.76 71.41 56.55 C 71.35 57.49 71.23 59.35 71.18 60.29 C 70.49 60.39 69.13 60.58 68.45 60.68 C 68.53 59.94 68.71 58.47 68.80 57.74 C 67.55 59.18 66.43 60.77 64.85 61.88 C 64.74 60.52 64.05 59.55 62.80 58.99 C 55.06 56.34 46.91 57.78 39.06 58.96 L 39.02 58.13 C 40.70 58.19 42.99 59.09 44.07 57.20 C 41.01 53.81 35.37 58.11 38.02 61.87 M 80.30 56.26 C 79.90 57.62 80.42 58.15 81.84 57.84 C 82.23 56.46 81.71 55.94 80.30 56.26 M 84.43 60.21 C 85.03 60.83 85.03 60.83 84.43 60.21 M 90.20 60.04 C 89.78 61.45 90.26 61.96 91.64 61.57 C 92.03 60.17 91.55 59.66 90.20 60.04 M 48.34 62.48 C 46.89 63.83 45.44 65.18 44.07 66.59 C 44.90 66.54 46.58 66.43 47.42 66.38 C 47.35 65.91 47.21 64.98 47.14 64.51 C 48.75 63.80 50.43 63.37 52.20 63.72 C 51.33 62.38 49.70 62.66 48.34 62.48 M 21.07 63.98 C 21.72 64.61 21.72 64.61 21.07 63.98 M 20.49 69.64 L 20.78 69.62 C 20.98 68.32 22.00 67.09 21.70 65.74 C 19.73 64.96 19.38 68.60 20.49 69.64 M 26.95 66.20 C 27.49 67.70 30.52 68.87 28.57 70.45 C 28.88 70.58 29.49 70.85 29.80 70.98 C 29.70 69.55 29.61 68.11 30.05 66.72 L 28.58 67.95 C 28.17 67.51 27.36 66.64 26.95 66.20 M 109.94 70.93 C 109.63 72.64 110.99 72.64 112.19 72.57 C 112.79 73.34 113.40 74.11 114.00 74.89 C 116.13 71.84 112.48 68.58 109.94 70.93 M 28.76 72.23 C 28.12 74.46 26.04 75.37 24.19 76.40 C 25.95 78.06 26.89 80.31 27.77 82.52 C 29.93 82.01 32.07 81.42 34.18 80.73 C 33.59 79.09 32.65 75.91 30.36 77.43 C 30.95 78.27 31.55 79.11 32.15 79.95 C 30.89 80.15 28.36 80.55 27.09 80.74 C 27.61 79.95 28.13 79.16 28.63 78.36 C 27.71 77.99 26.79 77.61 25.88 77.22 C 27.61 76.40 29.36 75.62 31.00 74.63 C 31.34 73.24 29.57 72.91 28.76 72.23 M 95.82 72.26 C 96.06 74.52 92.83 74.28 91.90 76.03 C 92.86 75.78 93.83 75.55 94.79 75.32 C 96.35 76.29 98.04 77.04 99.83 77.49 C 99.04 76.44 98.08 75.56 97.14 74.66 C 101.78 72.15 97.23 72.78 95.82 72.26 M 24.33 73.34 C 24.94 73.88 24.94 73.88 24.33 73.34 M 37.33 73.25 C 37.87 73.82 37.87 73.82 37.33 73.25 M 32.39 75.24 C 32.92 75.78 32.92 75.78 32.39 75.24 M 90.37 82.61 C 92.60 83.18 91.04 80.17 91.47 79.10 C 94.41 78.99 92.48 83.79 95.03 84.07 C 96.58 82.88 98.22 80.80 98.15 78.75 C 96.44 77.46 96.26 80.14 95.42 80.97 C 94.67 79.83 94.40 77.97 92.93 77.51 C 90.29 76.44 88.14 81.02 90.37 82.61 M 41.21 78.21 C 40.29 80.29 42.19 80.25 43.77 80.36 C 43.73 80.87 43.65 81.88 43.62 82.39 L 45.34 82.57 C 44.76 83.11 43.60 84.18 43.02 84.71 C 43.70 84.63 45.04 84.46 45.71 84.37 C 47.05 85.57 48.50 87.48 50.61 86.61 C 50.22 87.49 49.43 89.25 49.03 90.13 C 48.47 89.36 47.35 87.81 46.78 87.03 C 46.65 87.59 46.38 88.69 46.25 89.25 C 48.61 89.62 51.08 92.90 53.25 91.05 C 52.77 90.51 50.96 88.36 52.67 88.35 C 53.19 88.52 54.23 88.87 54.75 89.04 L 53.68 88.43 C 54.04 87.64 54.40 86.85 54.77 86.06 C 55.53 86.57 57.05 87.59 57.81 88.10 C 56.43 86.67 54.96 85.32 53.51 83.96 C 52.74 85.77 50.85 86.33 49.07 85.79 C 49.61 85.27 50.69 84.25 51.22 83.73 C 50.69 83.80 49.63 83.93 49.09 84.00 C 49.30 82.95 49.70 80.84 49.91 79.79 C 48.33 80.64 47.61 82.72 48.50 84.38 C 47.58 83.99 46.16 84.07 45.85 82.89 C 46.24 82.38 47.02 81.36 47.41 80.85 C 46.88 81.15 45.81 81.75 45.28 82.06 C 44.85 80.00 43.00 78.93 41.21 78.21 M 35.49 80.50 C 34.54 81.15 34.04 82.01 33.99 83.11 C 35.54 84.11 37.27 80.93 35.49 80.50 M 81.37 81.37 C 81.65 81.65 81.65 81.65 81.37 81.37 M 33.99 83.11 L 33.14 82.78 C 30.39 83.23 34.11 85.48 33.99 83.11 M 28.41 84.12 C 27.70 85.53 28.08 85.97 29.53 85.43 C 30.28 84.00 29.90 83.56 28.41 84.12 M 86.14 89.97 C 87.58 91.37 89.36 90.12 90.57 89.09 C 90.56 89.83 90.56 91.30 90.55 92.04 C 93.91 90.70 92.01 85.60 89.16 84.92 C 86.37 83.78 83.14 88.21 86.14 89.97 M 51.35 94.29 C 52.28 95.89 52.81 97.77 54.10 99.15 C 53.75 95.49 56.59 92.72 59.97 92.04 C 60.40 90.49 60.87 88.94 61.37 87.41 C 57.47 88.81 55.14 92.61 51.35 94.29 M 39.89 93.28 C 40.96 93.79 42.02 94.32 43.07 94.86 C 41.12 95.71 38.34 95.46 36.99 97.39 C 38.17 98.07 40.71 97.91 40.60 99.85 C 40.67 100.79 40.89 101.70 41.26 102.57 C 43.35 101.22 43.93 98.54 45.33 96.61 C 44.20 95.21 43.06 93.80 42.26 92.19 C 41.67 92.46 40.49 93.01 39.89 93.28 M 48.44 92.06 C 48.73 95.32 51.43 90.47 48.44 92.06 M 81.94 92.02 C 80.69 92.67 80.05 94.02 79.26 95.12 C 81.02 96.84 82.99 98.32 85.11 99.56 C 86.22 98.33 88.72 97.19 87.80 95.16 C 86.77 92.93 83.93 92.92 81.94 92.02 M 57.14 97.18 C 56.20 98.68 58.87 99.85 59.88 98.80 C 61.11 97.19 58.16 96.00 57.14 97.18 M 45.28 100.00 C 46.70 100.29 47.27 99.73 47.00 98.32 C 45.65 98.09 45.08 98.65 45.28 100.00 M 76.07 99.37 C 75.62 100.50 75.27 101.67 74.97 102.85 C 75.65 102.83 77.00 102.80 77.68 102.79 C 78.89 103.73 79.95 106.02 81.72 104.65 C 81.11 101.96 78.01 100.98 76.07 99.37 M 43.71 105.44 C 45.94 104.82 47.68 103.17 49.49 101.80 C 49.26 101.47 48.79 100.82 48.56 100.49 C 46.96 101.89 42.21 102.77 43.71 105.44 M 47.19 109.29 C 47.75 109.84 47.75 109.84 47.19 109.29 Z" />
<path fill="#242021" opacity="1.00" d=" M 84.35 19.48 L 84.74 19.71 L 85.04 20.06 C 84.87 19.91 84.52 19.63 84.35 19.48 Z" />
<path fill="#242021" opacity="1.00" d=" M 79.48 64.41 C 80.12 65.03 80.12 65.03 79.48 64.41 Z" />
<path fill="#242021" opacity="1.00" d=" M 57.02 66.01 C 58.38 66.12 58.99 66.96 58.86 68.54 C 59.41 68.36 60.52 68.02 61.08 67.84 C 61.06 70.62 63.94 71.56 66.25 71.63 C 66.51 73.26 67.32 74.69 68.29 75.99 C 66.19 79.01 65.66 83.21 62.37 85.27 C 64.99 80.97 59.52 77.65 56.63 75.30 C 56.91 74.88 57.46 74.05 57.74 73.63 C 57.97 73.56 58.41 73.43 58.64 73.36 C 58.97 73.82 59.64 74.72 59.97 75.18 C 60.49 74.54 61.00 73.91 61.51 73.27 L 62.06 72.57 C 61.80 71.84 61.27 70.36 61.01 69.63 C 58.51 70.84 57.82 67.69 57.02 66.01 M 64.54 74.24 C 64.58 74.78 64.65 75.85 64.69 76.39 C 64.29 76.76 63.49 77.50 63.09 77.87 C 64.68 77.13 67.45 75.42 64.54 74.24 Z" />
<path fill="#242021" opacity="1.00" d=" M 38.50 68.37 C 37.18 66.58 40.88 66.84 41.76 67.46 C 42.28 69.00 39.38 68.92 38.50 68.37 Z" />
<path fill="#242021" opacity="1.00" d=" M 72.93 82.39 C 73.88 81.75 76.02 82.58 75.81 83.82 C 74.86 84.38 72.39 83.81 72.93 82.39 Z" />
</g>
<g id="#ffffffff">
<path fill="#ffffff" opacity="1.00" d=" M 67.38 3.65 C 70.74 2.60 75.02 0.94 77.92 3.87 C 78.15 6.06 78.43 8.24 78.68 10.43 C 73.19 10.69 66.89 12.21 63.86 17.25 C 63.36 16.87 62.87 16.48 62.37 16.10 C 66.44 12.20 71.55 9.48 77.16 8.68 C 76.91 6.26 76.67 3.06 73.74 2.45 C 74.22 3.74 74.71 5.03 75.20 6.32 C 74.57 5.71 73.30 4.49 72.67 3.88 C 72.00 4.96 72.07 6.69 70.74 7.27 C 67.09 9.29 64.07 12.21 61.22 15.21 C 60.19 16.32 60.00 17.88 59.83 19.31 L 61.04 17.52 C 61.44 17.97 61.85 18.42 62.26 18.88 C 60.74 20.88 60.38 23.87 62.14 25.84 C 64.94 28.70 69.03 30.02 72.98 29.36 C 73.69 26.59 73.95 22.48 76.69 21.13 C 77.59 22.80 77.85 24.69 78.24 26.52 C 77.22 26.61 75.18 26.79 74.16 26.88 C 75.38 28.16 77.07 28.36 78.75 28.34 C 79.29 29.96 78.39 31.42 77.82 32.87 C 75.22 33.38 72.55 33.76 69.90 33.35 C 66.92 33.15 64.10 31.35 61.10 32.36 C 57.80 33.47 53.50 32.79 52.50 28.94 C 51.48 28.96 49.42 29.01 48.39 29.03 C 49.20 28.36 50.01 27.71 50.82 27.05 C 49.85 26.72 48.87 26.39 47.90 26.05 C 48.19 25.41 48.77 24.13 49.06 23.48 C 50.49 24.47 51.95 26.56 53.88 25.30 C 57.42 23.74 57.20 19.48 58.14 16.33 C 60.51 13.97 64.10 11.73 63.26 7.82 C 60.93 9.38 60.33 12.34 58.04 13.93 C 58.56 12.97 59.19 12.08 59.84 11.21 C 56.61 11.54 56.36 8.12 55.18 5.99 C 54.64 7.95 54.15 9.94 53.16 11.72 L 52.06 9.50 C 52.10 13.81 51.30 18.14 52.15 22.42 C 55.70 20.65 53.64 15.83 53.73 12.77 C 54.07 12.86 54.74 13.04 55.08 13.13 C 55.85 16.93 56.74 21.44 53.10 24.12 C 50.89 22.90 49.12 21.10 47.80 18.95 C 45.35 22.22 42.31 25.71 38.01 26.27 C 34.85 26.80 30.98 25.60 29.54 22.53 C 28.42 20.38 29.61 17.37 32.05 16.86 C 33.78 16.44 34.95 18.03 36.18 18.90 C 35.43 21.08 33.86 22.13 31.59 21.71 C 32.51 23.80 34.69 25.43 37.06 24.92 C 42.53 24.21 45.11 18.55 47.21 14.13 C 50.15 9.57 52.95 3.45 59.02 2.70 C 61.88 2.82 63.61 5.20 63.38 7.98 C 64.37 6.82 65.37 5.68 66.39 4.55 C 66.58 4.35 66.97 3.95 67.16 3.75 L 67.38 3.65 M 55.72 5.06 C 57.22 6.30 58.12 7.85 57.56 9.91 C 59.59 9.78 61.40 8.95 62.73 7.42 C 62.23 6.18 61.56 5.04 60.75 3.99 C 58.99 3.17 57.32 4.61 55.72 5.06 M 64.22 8.56 C 66.83 6.83 70.25 6.18 72.42 3.92 C 69.23 3.75 65.28 5.35 64.22 8.56 M 61.57 28.75 C 65.16 31.15 69.62 32.25 73.92 32.24 C 75.60 32.41 77.10 31.33 77.52 29.69 C 72.45 30.46 66.75 31.00 62.31 27.87 C 60.01 26.33 59.26 23.69 59.06 21.07 C 57.88 23.84 59.03 27.17 61.57 28.75 M 54.67 28.38 C 54.45 32.46 61.13 32.43 62.41 29.48 C 60.88 29.44 59.35 29.42 57.82 29.39 C 57.03 29.14 55.45 28.64 54.67 28.38 Z" />
<path fill="#ffffff" opacity="1.00" d=" M 59.18 5.63 C 60.54 5.17 61.05 5.64 60.72 7.02 C 59.31 7.51 58.80 7.05 59.18 5.63 Z" />
<path fill="#ffffff" opacity="1.00" d=" M 74.56 13.21 C 75.90 12.68 77.34 12.59 78.76 12.50 C 78.15 14.49 77.90 17.29 75.85 18.23 C 75.36 16.57 75.01 14.87 74.56 13.21 Z" />
<path fill="#ffffff" opacity="1.00" d=" M 79.79 13.37 C 83.04 12.48 86.25 14.25 88.75 16.16 C 89.82 16.83 90.19 17.79 89.86 19.02 C 87.69 17.41 85.60 15.49 82.87 14.90 C 81.81 14.48 80.42 14.50 79.79 13.37 Z" />
<path fill="#ffffff" opacity="1.00" d=" M 65.62 17.76 C 68.06 16.44 70.51 15.13 73.06 14.03 C 73.37 16.27 70.74 16.16 69.35 17.02 C 69.39 17.44 69.47 18.29 69.51 18.71 L 69.03 18.19 C 66.99 16.23 66.20 19.65 65.61 21.07 C 65.61 19.96 65.62 18.86 65.62 17.76 Z" />
<path fill="#ffffff" opacity="1.00" d=" M 90.99 17.98 C 91.60 15.77 94.82 14.43 96.35 16.58 C 99.44 20.01 94.63 25.15 90.77 23.98 C 91.25 21.26 95.90 22.20 95.24 18.60 C 93.83 18.38 92.02 19.38 90.99 17.98 Z" />
<path fill="#ffffff" opacity="1.00" d=" M 79.18 16.04 C 82.67 16.01 85.49 18.21 88.09 20.24 L 86.60 22.06 L 88.86 21.02 C 90.59 23.87 91.14 27.29 88.77 29.99 C 86.64 30.37 83.57 31.19 82.48 28.61 C 81.14 26.34 83.97 24.75 85.85 24.39 C 86.78 21.90 82.54 21.19 82.31 19.20 C 82.82 19.27 83.84 19.41 84.35 19.48 C 84.52 19.63 84.87 19.91 85.04 20.06 C 85.15 20.17 85.38 20.38 85.49 20.49 C 85.38 20.38 85.15 20.17 85.04 20.06 L 84.74 19.71 L 84.35 19.48 C 83.08 17.71 80.89 17.24 79.18 16.04 M 87.83 25.83 C 86.82 26.83 85.79 27.82 84.81 28.86 C 88.64 30.09 90.22 25.14 88.99 22.28 C 88.16 23.27 87.78 24.53 87.83 25.83 Z" />
<path fill="#ffffff" opacity="1.00" d=" M 14.41 18.48 C 16.37 17.36 18.43 18.91 20.48 18.58 C 21.71 19.49 23.74 19.29 24.29 21.01 C 22.64 20.43 21.03 19.74 19.34 19.30 C 20.12 20.82 21.37 22.91 23.44 22.26 C 23.46 22.64 23.49 23.40 23.51 23.78 C 23.83 23.38 24.45 22.59 24.77 22.19 C 25.83 23.45 26.87 24.72 27.93 25.97 C 29.38 26.47 31.53 27.03 31.46 28.97 C 30.95 29.90 30.43 30.82 29.90 31.73 C 30.45 31.48 31.55 30.98 32.10 30.72 C 34.25 30.51 36.45 30.45 38.53 29.80 C 39.99 28.62 41.42 27.39 42.93 26.26 C 44.48 27.96 45.84 31.23 48.66 30.48 L 48.01 32.74 C 48.81 32.32 50.41 31.48 51.21 31.05 C 50.56 34.85 45.47 34.63 42.88 32.99 C 41.12 31.35 39.71 34.38 37.83 34.24 C 39.32 32.61 42.00 31.98 41.97 29.21 C 37.36 32.94 31.53 34.83 25.60 33.89 C 25.94 31.59 27.56 29.92 29.00 28.23 C 25.11 28.72 21.30 27.88 17.52 27.02 C 18.08 26.11 18.64 25.19 19.19 24.28 C 16.67 23.32 14.04 22.75 11.42 22.12 C 11.10 20.44 13.08 19.16 14.41 18.48 Z" />
<path fill="#ffffff" opacity="1.00" d=" M 104.45 22.23 C 106.80 19.37 110.48 19.74 113.68 20.63 C 112.92 21.40 112.46 22.31 112.53 23.43 C 111.04 22.66 109.48 22.03 107.78 21.93 C 108.56 23.54 110.91 24.04 111.09 25.89 C 108.48 28.22 104.44 27.68 101.74 25.79 C 102.49 28.07 103.72 31.38 100.94 32.83 C 97.99 32.83 95.19 31.78 92.82 30.05 C 94.16 33.38 90.19 33.37 88.10 33.74 C 85.29 33.84 81.77 33.26 80.27 30.55 C 81.62 30.90 82.90 31.47 84.00 32.33 C 88.12 32.82 91.51 30.30 93.57 26.95 C 94.14 27.32 95.27 28.04 95.84 28.40 C 95.86 27.85 95.90 26.75 95.92 26.20 C 96.67 28.05 98.38 29.26 100.07 30.18 C 99.75 28.29 97.40 26.66 98.37 24.71 C 101.03 23.84 103.74 24.77 106.39 25.14 C 106.33 23.85 105.68 22.88 104.45 22.23 Z" />
<path fill="#ffffff" opacity="1.00" d=" M 45.33 25.55 C 46.72 25.63 48.38 26.88 48.93 28.21 C 48.09 28.88 47.19 28.74 46.25 27.78 C 45.61 27.15 45.30 26.41 45.33 25.55 Z" />
<path fill="#ffffff" opacity="1.00" d=" M 11.09 34.06 C 11.29 31.30 11.51 28.16 13.28 25.90 L 14.42 25.19 C 13.66 28.74 12.83 32.30 12.59 35.93 C 13.00 36.15 13.80 36.58 14.21 36.80 L 12.74 37.36 C 13.33 37.67 14.50 38.29 15.09 38.60 C 14.49 38.70 13.27 38.91 12.67 39.01 L 12.81 40.51 C 13.39 40.42 14.53 40.25 15.10 40.16 C 12.96 41.63 13.26 42.36 16.00 42.33 C 15.55 42.63 14.65 43.21 14.20 43.50 C 14.49 45.33 14.95 47.12 15.39 48.91 C 15.84 48.92 16.72 48.95 17.17 48.96 C 16.67 49.37 15.68 50.17 15.18 50.57 C 15.64 50.71 16.58 50.97 17.04 51.10 C 16.86 51.58 16.48 52.54 16.29 53.01 L 17.71 53.15 C 17.57 53.59 17.30 54.48 17.17 54.93 C 18.69 57.49 18.60 60.55 19.30 63.37 C 18.81 65.25 18.65 67.17 18.68 69.10 C 17.66 66.17 17.99 62.95 17.02 59.99 C 14.39 51.53 11.20 43.03 11.09 34.06 Z" />
<path fill="#ffffff" opacity="1.00" d=" M 112.50 31.49 C 110.95 30.52 111.00 26.77 113.47 28.29 C 114.01 32.20 113.69 36.16 113.57 40.08 C 112.96 50.69 106.35 60.02 106.72 70.77 L 105.90 68.44 C 105.47 68.97 105.04 69.50 104.62 70.03 C 104.23 69.54 103.47 68.57 103.09 68.08 L 103.32 66.79 C 103.09 66.30 102.64 65.32 102.41 64.83 L 103.68 64.75 C 103.83 65.56 104.12 67.19 104.26 68.00 C 106.20 66.39 104.70 63.21 106.39 61.24 C 105.84 60.98 104.75 60.44 104.21 60.18 C 104.11 61.04 103.93 62.77 103.84 63.63 L 102.74 63.78 C 102.92 60.88 102.90 57.84 104.37 55.25 L 103.00 54.59 C 103.46 54.37 104.38 53.92 104.83 53.70 C 104.46 53.41 103.72 52.83 103.34 52.54 C 103.79 52.31 104.68 51.86 105.12 51.63 C 103.66 49.90 105.88 48.34 106.41 46.78 C 105.88 46.62 104.83 46.31 104.30 46.15 C 104.66 46.06 105.38 45.88 105.74 45.80 C 106.00 45.09 106.52 43.66 106.79 42.95 C 106.24 42.75 105.15 42.33 104.60 42.13 C 105.09 41.95 106.06 41.58 106.54 41.40 C 106.37 40.23 107.56 37.44 104.90 38.47 C 105.23 37.43 106.04 36.90 107.31 36.89 C 106.86 35.94 106.08 35.44 104.96 35.37 C 105.44 35.33 106.38 35.25 106.85 35.21 C 106.59 33.01 106.57 30.79 106.50 28.57 L 107.96 28.88 C 109.47 38.93 107.05 49.00 104.45 58.65 C 104.95 59.40 105.47 60.15 105.99 60.89 C 106.05 58.86 109.04 56.17 107.23 54.45 C 107.70 54.25 108.62 53.84 109.09 53.64 L 108.20 52.45 C 108.69 52.16 109.68 51.58 110.17 51.29 C 109.60 51.11 108.46 50.76 107.89 50.59 C 108.42 50.42 109.50 50.09 110.04 49.92 L 109.31 48.65 C 110.71 47.66 111.31 45.90 111.21 44.23 L 111.78 43.76 C 110.65 40.19 114.66 35.41 111.13 32.84 C 111.47 32.50 112.15 31.83 112.50 31.49 Z" />
<path fill="#ffffff" opacity="1.00" d=" M 17.38 30.05 C 17.84 30.86 18.26 31.69 18.65 32.54 C 18.91 32.77 19.44 33.25 19.71 33.49 L 19.61 33.90 C 19.00 33.95 17.77 34.05 17.16 34.11 C 16.78 32.74 16.85 31.39 17.38 30.05 Z" />
<path fill="#ffffff" opacity="1.00" d=" M 22.46 30.38 C 22.83 30.24 23.57 29.96 23.95 29.82 C 23.78 31.25 23.55 32.68 22.96 34.01 C 23.38 34.19 24.21 34.55 24.63 34.73 C 24.30 34.87 23.66 35.13 23.33 35.26 C 23.28 35.95 23.16 37.33 23.10 38.01 C 22.58 42.27 23.85 46.72 22.31 50.83 C 21.70 44.09 20.00 36.93 22.46 30.38 Z" />
<path fill="#ffffff" opacity="1.00" d=" M 26.29 35.72 C 49.69 35.07 73.11 35.13 96.51 35.24 C 96.72 43.09 96.73 50.95 96.26 58.80 C 96.04 63.25 94.06 67.32 92.21 71.28 C 87.62 80.61 81.65 89.21 75.21 97.34 C 73.63 99.53 71.38 101.09 68.75 101.74 C 70.73 103.26 72.91 104.83 73.84 107.27 C 76.64 113.78 72.65 122.09 65.93 124.17 C 63.27 125.04 60.44 124.49 57.75 124.13 C 57.70 123.89 57.58 123.39 57.52 123.15 L 57.71 123.07 C 60.63 122.79 63.66 123.35 66.52 122.60 C 72.89 119.94 75.26 110.72 70.80 105.39 C 66.70 99.55 56.16 99.32 52.70 105.94 C 48.81 111.43 51.46 119.61 57.44 122.38 L 57.26 122.52 C 56.91 122.72 56.22 123.11 55.87 123.31 C 53.40 120.98 50.05 118.52 50.27 114.72 C 49.01 114.70 47.75 114.68 46.50 114.65 L 46.97 113.31 L 45.21 112.54 L 45.18 112.15 C 42.56 109.58 40.01 106.93 37.84 103.97 C 31.33 95.13 24.41 86.28 20.44 75.94 C 22.66 77.04 23.49 79.41 24.65 81.41 C 26.42 84.83 28.65 88.00 30.12 91.58 C 30.78 90.90 31.12 89.63 32.25 89.67 C 34.16 89.91 34.41 87.85 35.14 86.55 C 33.46 86.54 30.91 88.55 29.85 86.30 C 32.20 85.45 34.60 84.73 37.03 84.14 C 37.11 85.72 36.66 87.23 36.14 88.70 C 37.68 89.31 39.21 89.93 40.73 90.58 C 39.01 92.05 37.82 95.12 35.09 94.56 C 35.97 93.43 36.90 92.33 37.83 91.25 C 35.40 89.51 33.24 91.77 31.09 92.75 C 36.11 99.73 41.61 106.36 47.55 112.58 C 48.05 113.19 48.70 113.63 49.41 113.97 C 49.60 110.89 49.81 107.45 51.97 105.02 C 53.06 103.61 55.20 102.62 54.48 100.48 C 59.50 100.65 64.54 101.00 69.55 100.66 C 72.06 100.71 73.37 98.31 74.77 96.63 C 79.49 90.23 83.96 83.62 87.99 76.76 C 91.16 70.98 94.43 64.97 94.99 58.27 C 86.09 55.79 77.28 53.01 68.42 50.41 C 65.74 49.70 62.99 48.28 60.16 49.21 C 49.85 51.83 39.67 54.95 29.48 58.04 C 29.81 59.69 30.09 61.36 30.66 62.96 C 31.37 64.32 33.18 63.36 34.37 63.60 C 34.62 65.02 34.77 66.89 36.58 67.01 L 36.08 64.02 C 36.86 64.44 37.55 64.98 38.14 65.63 C 39.11 65.84 40.07 66.02 41.04 66.21 C 41.47 65.84 42.31 65.10 42.73 64.73 C 42.36 68.01 45.84 67.78 47.87 66.75 C 46.81 68.17 45.82 69.64 44.92 71.17 C 47.58 70.59 49.37 68.56 51.13 66.67 C 53.32 66.75 51.16 68.73 50.37 69.08 C 48.25 70.14 47.76 72.57 46.38 74.30 C 47.00 74.35 48.22 74.45 48.84 74.50 C 48.32 74.61 47.28 74.82 46.76 74.92 L 46.58 75.79 C 46.60 77.13 47.86 78.17 47.74 79.49 C 47.17 79.54 46.04 79.64 45.48 79.70 C 45.59 79.07 45.81 77.82 45.92 77.20 C 45.49 77.44 44.63 77.93 44.20 78.17 C 44.07 77.76 43.79 76.92 43.65 76.50 C 42.82 76.04 42.00 75.56 41.19 75.07 C 41.29 73.55 42.28 71.56 40.59 70.56 C 40.47 71.32 40.23 72.83 40.11 73.58 C 39.20 72.87 38.30 72.16 37.41 71.43 C 36.39 70.24 39.76 70.76 38.61 69.57 C 36.42 68.75 34.33 67.60 33.48 65.28 C 32.13 64.26 31.73 66.52 32.52 67.27 C 37.35 77.46 42.34 87.68 49.14 96.74 C 50.60 98.77 52.82 100.07 54.36 102.03 C 51.35 101.38 49.46 98.79 47.69 96.50 C 41.27 87.56 36.06 77.81 31.42 67.85 C 29.28 63.15 27.21 58.24 27.05 53.00 C 26.89 47.23 26.12 41.49 26.29 35.72 M 27.99 36.94 C 28.37 43.52 28.64 50.11 28.97 56.69 C 38.95 53.73 48.98 50.93 58.98 48.02 C 60.42 47.64 61.96 47.18 63.44 47.60 C 73.76 50.67 84.05 53.78 94.37 56.82 C 94.59 49.97 94.89 43.12 94.91 36.26 C 72.60 36.51 50.30 36.85 27.99 36.94 M 38.50 68.37 C 39.38 68.92 42.28 69.00 41.76 67.46 C 40.88 66.84 37.18 66.58 38.50 68.37 M 43.36 68.07 C 43.36 69.63 42.38 72.50 44.40 73.12 C 44.58 72.77 44.92 72.07 45.10 71.72 C 44.14 70.72 44.55 68.71 43.36 68.07 M 43.38 74.19 C 41.71 77.31 46.67 74.51 43.38 74.19 Z" />
<path fill="#ffffff" opacity="1.00" d=" M 100.77 35.42 C 101.29 35.34 102.31 35.18 102.83 35.09 C 103.08 44.46 101.50 53.77 100.85 63.10 C 100.18 67.40 103.12 71.32 106.43 73.73 C 108.21 75.48 111.12 74.18 112.89 75.98 C 107.05 76.89 101.08 72.85 99.89 67.03 L 98.65 66.88 C 98.75 65.65 98.83 64.42 98.91 63.19 C 98.51 63.12 97.72 62.98 97.32 62.91 C 97.97 62.56 99.27 61.86 99.92 61.52 L 98.22 60.92 C 98.30 60.27 98.45 58.96 98.53 58.31 C 98.92 58.32 99.71 58.34 100.11 58.36 C 100.04 57.59 99.91 56.05 99.85 55.28 C 99.72 54.56 99.47 53.11 99.35 52.39 C 99.92 51.11 100.52 49.85 101.11 48.59 C 100.77 48.59 100.10 48.59 99.76 48.60 C 100.65 47.54 100.46 46.74 99.18 46.19 C 99.65 46.26 100.60 46.40 101.07 46.48 C 100.19 42.78 102.44 38.95 100.77 35.42 Z" />
<path fill="#ffffff" opacity="1.00" d=" M 17.00 35.33 C 18.88 35.74 17.98 38.05 18.44 39.38 C 18.82 39.92 19.60 41.00 19.98 41.54 C 19.68 41.94 19.08 42.74 18.78 43.14 C 18.97 46.02 21.05 49.08 19.96 51.85 L 20.81 52.18 C 20.90 53.88 22.14 55.42 20.53 56.85 L 21.93 57.19 C 21.79 57.51 21.52 58.14 21.38 58.45 C 22.21 60.03 21.71 61.83 21.74 63.52 C 20.03 62.69 20.40 60.66 20.07 59.11 C 19.00 51.18 17.13 43.37 17.00 35.33 Z" />
<path fill="#ffffff" opacity="1.00" d=" M 70.21 38.16 C 73.69 37.46 74.08 41.49 76.39 42.83 C 76.21 41.41 75.98 39.99 75.75 38.58 C 76.65 38.56 78.44 38.51 79.33 38.49 C 79.27 42.46 79.30 46.44 79.19 50.41 C 75.62 50.30 75.29 46.15 72.84 44.42 C 72.93 45.41 73.11 47.41 73.20 48.41 C 72.34 48.32 70.62 48.15 69.77 48.06 C 69.74 44.76 69.82 41.45 70.21 38.16 Z" />
<path fill="#ffffff" opacity="1.00" d=" M 82.55 40.49 C 84.05 35.86 92.88 37.37 91.55 42.57 C 89.18 43.93 88.52 40.08 86.43 40.43 C 84.64 42.95 85.51 46.38 85.64 49.28 C 86.56 49.53 87.50 49.66 88.47 49.65 C 88.47 49.17 88.47 48.20 88.47 47.72 C 87.50 47.04 86.98 46.11 86.92 44.91 C 88.49 44.86 90.07 44.83 91.65 44.79 C 91.54 46.83 91.52 48.91 90.99 50.89 C 88.97 53.93 83.92 52.62 82.26 49.85 C 81.70 46.78 81.72 43.51 82.55 40.49 Z" />
<path fill="#ffffff" opacity="1.00" d=" M 29.95 38.78 C 31.40 38.70 32.86 38.64 34.33 38.59 C 34.84 41.80 34.70 45.38 36.69 48.13 C 37.45 44.97 38.02 41.77 38.67 38.58 C 39.70 38.55 41.76 38.50 42.79 38.47 C 41.73 42.19 40.85 45.97 39.62 49.64 C 38.86 51.97 36.08 52.27 34.00 52.36 C 32.73 47.81 31.40 43.27 29.95 38.78 Z" />
<path fill="#ffffff" opacity="1.00" d=" M 44.66 38.42 C 45.53 38.47 47.25 38.56 48.11 38.61 C 48.13 42.03 48.17 45.46 47.88 48.88 C 46.99 49.08 45.21 49.47 44.32 49.67 C 44.54 45.92 44.60 42.17 44.66 38.42 Z" />
<path fill="#ffffff" opacity="1.00" d=" M 50.72 38.50 C 52.89 38.24 54.62 38.66 54.47 41.21 C 56.25 39.37 58.35 37.77 61.12 38.37 C 60.30 39.79 58.80 40.64 57.97 42.03 C 58.39 43.49 60.05 44.13 61.01 45.20 C 60.19 45.54 58.55 46.21 57.73 46.55 C 56.95 45.83 56.17 45.11 55.39 44.39 C 54.72 46.48 53.21 48.08 50.88 47.95 C 50.84 44.80 50.80 41.65 50.72 38.50 Z" />
<path fill="#ffffff" opacity="1.00" d=" M 63.49 38.41 C 64.37 38.44 66.14 38.51 67.02 38.54 C 67.11 41.30 67.22 44.05 67.37 46.80 C 66.15 46.51 64.94 46.22 63.72 45.93 C 63.62 43.42 63.55 40.92 63.49 38.41 Z" />
<path fill="#ffffff" opacity="1.00" d=" M 22.59 51.48 C 22.94 51.19 23.64 50.60 23.99 50.30 L 24.28 52.07 C 24.47 53.30 24.64 54.54 24.79 55.78 C 27.60 55.92 23.89 57.69 25.05 58.95 C 25.26 59.33 25.70 60.09 25.92 60.46 C 24.64 61.68 25.28 62.80 26.65 63.28 C 26.19 63.28 25.28 63.28 24.83 63.28 C 24.77 64.08 24.65 65.68 24.59 66.48 C 24.44 68.16 23.93 69.76 23.26 71.29 C 20.86 73.62 18.60 76.46 15.07 77.00 C 13.03 76.48 10.39 75.27 10.36 72.83 C 11.05 70.55 14.04 69.69 15.17 72.28 C 14.51 72.57 13.17 73.15 12.50 73.45 C 12.67 73.85 13.01 74.66 13.19 75.07 C 14.83 75.13 16.52 75.17 18.00 74.32 C 17.51 73.71 16.52 72.49 16.03 71.89 C 16.44 70.94 17.01 70.48 17.75 70.51 C 18.17 70.49 19.00 70.44 19.41 70.42 L 20.49 69.64 C 20.23 70.38 19.72 71.87 19.46 72.61 C 18.73 73.30 18.73 73.30 19.46 72.61 L 20.78 72.64 C 24.49 66.19 23.31 58.51 22.59 51.48 Z" />
<path fill="#ffffff" opacity="1.00" d=" M 60.81 52.93 C 61.36 53.42 62.47 54.40 63.03 54.89 C 63.80 53.11 65.48 53.23 67.12 53.45 C 66.49 55.11 64.96 55.07 63.42 54.79 C 63.81 55.30 64.58 56.34 64.97 56.86 C 63.13 56.13 60.78 55.33 60.81 52.93 Z" />
<path fill="#ffffff" opacity="1.00" d=" M 38.02 61.87 C 35.37 58.11 41.01 53.81 44.07 57.20 C 42.99 59.09 40.70 58.19 39.02 58.13 L 39.06 58.96 C 46.91 57.78 55.06 56.34 62.80 58.99 C 64.05 59.55 64.74 60.52 64.85 61.88 C 66.43 60.77 67.55 59.18 68.80 57.74 C 68.71 58.47 68.53 59.94 68.45 60.68 C 69.13 60.58 70.49 60.39 71.18 60.29 C 71.23 59.35 71.35 57.49 71.41 56.55 C 73.49 57.76 74.47 59.94 75.07 62.17 C 74.30 61.73 72.74 60.85 71.97 60.41 C 74.57 64.29 68.99 63.83 66.90 64.13 C 65.18 65.26 68.51 66.00 68.94 67.05 C 69.75 70.38 70.36 73.77 70.82 77.16 C 70.01 80.33 66.71 81.92 65.66 84.96 C 65.14 86.13 63.83 86.63 62.94 87.46 C 63.03 87.78 63.22 88.42 63.31 88.74 C 63.98 88.28 65.31 87.36 65.97 86.90 C 65.37 90.29 64.87 93.69 64.24 97.07 C 65.59 97.84 66.96 98.62 67.98 99.83 C 65.88 99.52 63.81 99.10 61.72 98.76 C 62.04 96.70 62.46 94.65 63.21 92.70 C 62.69 92.67 61.66 92.61 61.14 92.57 C 61.42 90.40 61.67 88.23 62.04 86.08 C 57.91 83.67 53.61 81.27 50.41 77.64 C 49.14 76.25 50.52 74.47 51.18 73.16 C 53.28 69.83 54.89 66.24 56.20 62.54 C 57.11 62.90 58.01 63.25 58.92 63.60 C 59.70 61.71 57.39 61.40 56.18 60.74 C 52.53 58.95 48.41 60.21 44.56 60.41 C 44.64 62.63 42.82 63.33 41.03 63.86 C 40.03 63.18 39.03 62.52 38.02 61.87 M 57.02 66.01 C 57.82 67.69 58.51 70.84 61.01 69.63 C 61.27 70.36 61.80 71.84 62.06 72.57 L 61.51 73.27 C 60.05 73.16 60.12 71.29 59.46 70.34 C 58.42 71.25 57.57 72.31 56.91 73.50 C 56.14 73.44 54.59 73.32 53.82 73.26 C 54.64 74.12 55.49 74.94 56.34 75.76 L 56.63 75.30 C 59.52 77.65 64.99 80.97 62.37 85.27 C 65.66 83.21 66.19 79.01 68.29 75.99 C 67.32 74.69 66.51 73.26 66.25 71.63 C 63.94 71.56 61.06 70.62 61.08 67.84 C 60.52 68.02 59.41 68.36 58.86 68.54 C 58.99 66.96 58.38 66.12 57.02 66.01 M 63.07 90.17 C 61.50 93.23 66.27 90.52 63.07 90.17 Z" />
<path fill="#ffffff" opacity="1.00" d=" M 48.34 62.48 C 49.70 62.66 51.33 62.38 52.20 63.72 C 50.43 63.37 48.75 63.80 47.14 64.51 C 47.21 64.98 47.35 65.91 47.42 66.38 C 46.58 66.43 44.90 66.54 44.07 66.59 C 45.44 65.18 46.89 63.83 48.34 62.48 Z" />
<path fill="#ffffff" opacity="1.00" d=" M 21.07 63.98 C 21.72 64.61 21.72 64.61 21.07 63.98 Z" />
<path fill="#ffffff" opacity="1.00" d=" M 109.94 70.93 C 112.48 68.58 116.13 71.84 114.00 74.89 C 113.40 74.11 112.79 73.34 112.19 72.57 C 110.99 72.64 109.63 72.64 109.94 70.93 Z" />
<path fill="#ffffff" opacity="1.00" d=" M 28.76 72.23 C 29.57 72.91 31.34 73.24 31.00 74.63 C 29.36 75.62 27.61 76.40 25.88 77.22 C 26.79 77.61 27.71 77.99 28.63 78.36 C 28.13 79.16 27.61 79.95 27.09 80.74 C 28.36 80.55 30.89 80.15 32.15 79.95 C 31.55 79.11 30.95 78.27 30.36 77.43 C 32.65 75.91 33.59 79.09 34.18 80.73 C 32.07 81.42 29.93 82.01 27.77 82.52 C 26.89 80.31 25.95 78.06 24.19 76.40 C 26.04 75.37 28.12 74.46 28.76 72.23 Z" />
<path fill="#ffffff" opacity="1.00" d=" M 102.63 76.37 C 103.00 76.42 103.74 76.54 104.12 76.60 L 103.99 76.78 C 97.85 88.77 89.77 99.62 81.16 109.94 C 80.68 110.70 80.24 111.49 79.84 112.30 C 78.73 112.79 77.66 113.38 76.52 113.80 C 79.05 110.99 76.16 107.67 74.40 105.33 C 74.36 105.12 74.29 104.70 74.26 104.49 C 75.92 104.98 77.65 105.34 79.23 106.08 C 80.65 107.01 76.18 108.11 77.20 108.77 C 77.78 109.47 78.35 110.17 78.93 110.88 C 84.76 103.86 90.27 96.58 95.49 89.09 C 94.66 87.90 93.82 86.71 92.97 85.54 C 93.56 85.74 94.73 86.15 95.32 86.35 C 95.62 86.60 96.21 87.11 96.50 87.36 C 98.55 83.70 100.74 80.12 102.63 76.37 Z" />
<path fill="#ffffff" opacity="1.00" d=" M 90.37 82.61 C 88.14 81.02 90.29 76.44 92.93 77.51 C 94.40 77.97 94.67 79.83 95.42 80.97 C 96.26 80.14 96.44 77.46 98.15 78.75 C 98.22 80.80 96.58 82.88 95.03 84.07 C 92.48 83.79 94.41 78.99 91.47 79.10 C 91.04 80.17 92.60 83.18 90.37 82.61 Z" />
<path fill="#ffffff" opacity="1.00" d=" M 41.21 78.21 C 43.00 78.93 44.85 80.00 45.28 82.06 C 45.81 81.75 46.88 81.15 47.41 80.85 C 47.02 81.36 46.24 82.38 45.85 82.89 C 46.16 84.07 47.58 83.99 48.50 84.38 C 47.61 82.72 48.33 80.64 49.91 79.79 C 49.70 80.84 49.30 82.95 49.09 84.00 C 49.63 83.93 50.69 83.80 51.22 83.73 C 50.69 84.25 49.61 85.27 49.07 85.79 C 50.85 86.33 52.74 85.77 53.51 83.96 C 54.96 85.32 56.43 86.67 57.81 88.10 C 57.05 87.59 55.53 86.57 54.77 86.06 C 54.40 86.85 54.04 87.64 53.68 88.43 L 54.75 89.04 C 54.23 88.87 53.19 88.52 52.67 88.35 C 50.96 88.36 52.77 90.51 53.25 91.05 C 51.08 92.90 48.61 89.62 46.25 89.25 C 46.38 88.69 46.65 87.59 46.78 87.03 C 47.35 87.81 48.47 89.36 49.03 90.13 C 49.43 89.25 50.22 87.49 50.61 86.61 C 48.50 87.48 47.05 85.57 45.71 84.37 C 45.04 84.46 43.70 84.63 43.02 84.71 C 43.60 84.18 44.76 83.11 45.34 82.57 L 43.62 82.39 C 43.65 81.88 43.73 80.87 43.77 80.36 C 42.19 80.25 40.29 80.29 41.21 78.21 Z" />
<path fill="#ffffff" opacity="1.00" d=" M 81.37 81.37 C 81.65 81.65 81.65 81.65 81.37 81.37 Z" />
<path fill="#ffffff" opacity="1.00" d=" M 86.14 89.97 C 83.14 88.21 86.37 83.78 89.16 84.92 C 92.01 85.60 93.91 90.70 90.55 92.04 C 90.56 91.30 90.56 89.83 90.57 89.09 C 89.36 90.12 87.58 91.37 86.14 89.97 M 87.31 86.38 C 85.95 87.39 87.57 89.95 89.02 88.78 C 90.46 87.73 88.74 85.28 87.31 86.38 Z" />
<path fill="#ffffff" opacity="1.00" d=" M 51.35 94.29 C 55.14 92.61 57.47 88.81 61.37 87.41 C 60.87 88.94 60.40 90.49 59.97 92.04 C 56.59 92.72 53.75 95.49 54.10 99.15 C 52.81 97.77 52.28 95.89 51.35 94.29 Z" />
<path fill="#ffffff" opacity="1.00" d=" M 39.89 93.28 C 40.49 93.01 41.67 92.46 42.26 92.19 C 43.06 93.80 44.20 95.21 45.33 96.61 C 43.93 98.54 43.35 101.22 41.26 102.57 C 40.89 101.70 40.67 100.79 40.60 99.85 C 40.71 97.91 38.17 98.07 36.99 97.39 C 38.34 95.46 41.12 95.71 43.07 94.86 C 42.02 94.32 40.96 93.79 39.89 93.28 M 42.23 96.40 C 40.76 96.97 40.65 97.62 41.90 98.35 C 43.32 97.76 43.43 97.11 42.23 96.40 Z" />
<path fill="#ffffff" opacity="1.00" d=" M 81.94 92.02 C 83.93 92.92 86.77 92.93 87.80 95.16 C 88.72 97.19 86.22 98.33 85.11 99.56 C 82.99 98.32 81.02 96.84 79.26 95.12 C 80.05 94.02 80.69 92.67 81.94 92.02 M 81.29 94.06 C 80.95 95.40 81.48 95.85 82.90 95.43 C 83.29 94.05 82.75 93.60 81.29 94.06 M 84.30 95.43 C 83.69 97.08 84.21 97.60 85.86 96.98 C 86.42 95.33 85.90 94.81 84.30 95.43 Z" />
<path fill="#ffffff" opacity="1.00" d=" M 76.07 99.37 C 78.01 100.98 81.11 101.96 81.72 104.65 C 79.95 106.02 78.89 103.73 77.68 102.79 C 77.00 102.80 75.65 102.83 74.97 102.85 C 75.27 101.67 75.62 100.50 76.07 99.37 Z" />
<path fill="#ffffff" opacity="1.00" d=" M 43.71 105.44 C 42.21 102.77 46.96 101.89 48.56 100.49 C 48.79 100.82 49.26 101.47 49.49 101.80 C 47.68 103.17 45.94 104.82 43.71 105.44 Z" />
<path fill="#ffffff" opacity="1.00" d=" M 59.31 104.28 C 61.65 104.82 66.03 102.71 65.93 106.59 C 67.01 106.56 67.90 106.93 68.59 107.70 C 67.77 107.87 66.14 108.20 65.32 108.37 C 65.46 108.79 65.75 109.63 65.89 110.04 C 66.81 109.90 68.65 109.62 69.57 109.48 C 71.01 111.04 70.45 113.21 70.24 115.10 C 68.52 115.05 66.80 115.01 65.09 115.23 C 66.18 116.19 68.02 116.28 68.49 117.86 C 67.87 117.91 66.62 118.01 66.00 118.06 C 65.96 118.70 65.88 119.97 65.84 120.61 C 63.63 120.58 61.41 120.58 59.20 120.59 C 59.18 119.95 59.13 118.69 59.11 118.05 C 58.45 118.03 57.13 117.97 56.47 117.95 L 56.70 116.62 C 58.20 116.97 59.09 116.42 59.36 115.00 C 57.47 115.05 55.58 115.15 53.70 115.23 C 53.56 113.42 53.54 111.59 53.68 109.77 C 55.48 109.83 57.28 109.95 59.09 109.94 C 60.85 107.81 57.09 108.01 55.89 107.44 C 56.70 107.27 58.34 106.93 59.15 106.76 C 59.19 106.14 59.27 104.90 59.31 104.28 M 61.16 105.09 C 61.17 107.15 61.21 109.21 61.24 111.28 C 58.89 111.90 53.89 109.53 54.56 113.66 C 56.63 113.67 58.70 113.65 60.77 113.62 C 61.09 115.67 61.22 117.74 61.28 119.81 C 65.28 120.74 63.63 115.96 63.81 113.66 C 65.57 113.61 67.33 113.60 69.09 113.66 C 69.22 112.87 69.36 112.09 69.49 111.31 C 67.61 111.26 65.72 111.25 63.84 111.24 C 63.84 109.22 63.83 107.21 63.81 105.20 C 63.15 105.17 61.83 105.12 61.16 105.09 Z" />
</g>
<g id="#060404f9">
<path fill="#060404" opacity="0.98" d=" M 55.72 5.06 C 57.32 4.61 58.99 3.17 60.75 3.99 C 61.56 5.04 62.23 6.18 62.73 7.42 C 61.40 8.95 59.59 9.78 57.56 9.91 C 58.12 7.85 57.22 6.30 55.72 5.06 M 59.18 5.63 C 58.80 7.05 59.31 7.51 60.72 7.02 C 61.05 5.64 60.54 5.17 59.18 5.63 Z" />
<path fill="#060404" opacity="0.98" d=" M 64.22 8.56 C 65.28 5.35 69.23 3.75 72.42 3.92 C 70.25 6.18 66.83 6.83 64.22 8.56 Z" />
<path fill="#060404" opacity="0.98" d=" M 85.04 20.06 C 85.15 20.17 85.38 20.38 85.49 20.49 C 85.38 20.38 85.15 20.17 85.04 20.06 Z" />
<path fill="#060404" opacity="0.98" d=" M 61.57 28.75 C 59.03 27.17 57.88 23.84 59.06 21.07 C 59.26 23.69 60.01 26.33 62.31 27.87 C 66.75 31.00 72.45 30.46 77.52 29.69 C 77.10 31.33 75.60 32.41 73.92 32.24 C 69.62 32.25 65.16 31.15 61.57 28.75 Z" />
<path fill="#060404" opacity="0.98" d=" M 87.83 25.83 C 87.78 24.53 88.16 23.27 88.99 22.28 C 90.22 25.14 88.64 30.09 84.81 28.86 C 85.79 27.82 86.82 26.83 87.83 25.83 Z" />
<path fill="#060404" opacity="0.98" d=" M 54.67 28.38 C 55.45 28.64 57.03 29.14 57.82 29.39 C 59.35 29.42 60.88 29.44 62.41 29.48 C 61.13 32.43 54.45 32.46 54.67 28.38 Z" />
<path fill="#060404" opacity="0.98" d=" M 16.00 42.33 L 16.57 41.97 C 16.25 44.33 14.57 47.26 17.17 48.96 C 16.72 48.95 15.84 48.92 15.39 48.91 C 14.95 47.12 14.49 45.33 14.20 43.50 C 14.65 43.21 15.55 42.63 16.00 42.33 Z" />
<path fill="#060404" opacity="0.98" d=" M 82.99 66.04 C 81.35 65.38 81.41 64.68 83.16 63.94 C 84.74 64.71 84.69 65.41 82.99 66.04 Z" />
<path fill="#060404" opacity="0.98" d=" M 43.36 68.07 C 44.55 68.71 44.14 70.72 45.10 71.72 C 44.92 72.07 44.58 72.77 44.40 73.12 C 42.38 72.50 43.36 69.63 43.36 68.07 Z" />
<path fill="#060404" opacity="0.98" d=" M 19.46 72.61 C 18.73 73.30 18.73 73.30 19.46 72.61 Z" />
<path fill="#060404" opacity="0.98" d=" M 74.20 72.79 L 74.66 73.15 L 74.33 73.63 C 74.30 73.42 74.23 73.00 74.20 72.79 Z" />
<path fill="#060404" opacity="0.98" d=" M 43.38 74.19 C 46.67 74.51 41.71 77.31 43.38 74.19 Z" />
<path fill="#060404" opacity="0.98" d=" M 96.38 74.38 C 96.66 74.65 96.66 74.65 96.38 74.38 Z" />
<path fill="#060404" opacity="0.98" d=" M 81.16 109.94 C 89.77 99.62 97.85 88.77 103.99 76.78 C 103.87 77.46 103.64 78.83 103.52 79.51 C 98.87 89.89 91.91 98.94 84.69 107.64 C 83.72 108.65 82.84 110.21 81.16 109.94 Z" />
<path fill="#060404" opacity="0.98" d=" M 71.37 86.04 C 72.78 85.70 73.31 86.21 72.94 87.59 C 71.57 87.90 71.04 87.39 71.37 86.04 Z" />
<path fill="#060404" opacity="0.98" d=" M 87.31 86.38 C 88.74 85.28 90.46 87.73 89.02 88.78 C 87.57 89.95 85.95 87.39 87.31 86.38 Z" />
<path fill="#060404" opacity="0.98" d=" M 81.29 94.06 C 82.75 93.60 83.29 94.05 82.90 95.43 C 81.48 95.85 80.95 95.40 81.29 94.06 Z" />
<path fill="#060404" opacity="0.98" d=" M 84.30 95.43 C 85.90 94.81 86.42 95.33 85.86 96.98 C 84.21 97.60 83.69 97.08 84.30 95.43 Z" />
<path fill="#060404" opacity="0.98" d=" M 42.23 96.40 C 43.43 97.11 43.32 97.76 41.90 98.35 C 40.65 97.62 40.76 96.97 42.23 96.40 Z" />
<path fill="#060404" opacity="0.98" d=" M 61.16 105.09 C 61.83 105.12 63.15 105.17 63.81 105.20 C 63.83 107.21 63.84 109.22 63.84 111.24 C 65.72 111.25 67.61 111.26 69.49 111.31 C 69.36 112.09 69.22 112.87 69.09 113.66 C 67.33 113.60 65.57 113.61 63.81 113.66 C 63.63 115.96 65.28 120.74 61.28 119.81 C 61.22 117.74 61.09 115.67 60.77 113.62 C 58.70 113.65 56.63 113.67 54.56 113.66 C 53.89 109.53 58.89 111.90 61.24 111.28 C 61.21 109.21 61.17 107.15 61.16 105.09 Z" />
</g>
<g id="#cfd0d2ff">
<path fill="#cfd0d2" opacity="1.00" d=" M 72.01 16.85 C 73.35 17.46 73.36 18.12 72.03 18.82 C 70.72 18.21 70.71 17.55 72.01 16.85 Z" />
<path fill="#cfd0d2" opacity="1.00" d=" M 78.41 17.92 C 79.77 17.12 80.57 17.37 80.81 18.67 C 79.55 19.43 78.75 19.18 78.41 17.92 Z" />
<path fill="#cfd0d2" opacity="1.00" d=" M 54.73 53.95 C 54.81 53.55 54.98 52.75 55.06 52.35 C 55.37 52.77 55.97 53.61 56.27 54.04 C 57.39 53.05 58.64 52.31 60.03 51.82 C 59.59 54.22 55.94 56.91 54.36 54.08 C 52.90 54.62 51.51 55.31 50.13 56.01 C 50.48 55.12 50.84 54.22 51.20 53.32 C 52.08 53.48 53.84 53.79 54.73 53.95 Z" />
<path fill="#cfd0d2" opacity="1.00" d=" M 69.34 54.88 C 68.46 52.60 72.63 52.45 73.32 54.01 C 72.53 55.11 70.50 55.76 69.34 54.88 Z" />
<path fill="#cfd0d2" opacity="1.00" d=" M 45.45 55.18 C 46.95 54.66 47.38 55.10 46.74 56.52 C 45.32 56.95 44.89 56.51 45.45 55.18 Z" />
<path fill="#cfd0d2" opacity="1.00" d=" M 76.99 57.20 C 77.46 56.87 78.40 56.21 78.87 55.88 C 78.78 56.41 78.61 57.47 78.52 57.99 L 80.02 58.00 C 79.99 58.75 79.94 60.24 79.91 60.99 C 80.37 60.58 81.28 59.75 81.74 59.34 C 81.85 59.73 82.08 60.51 82.20 60.90 C 81.08 61.51 79.96 62.14 78.91 62.86 C 81.11 63.38 83.33 62.16 85.53 62.90 C 86.45 61.41 87.55 60.04 89.13 59.23 C 88.33 60.53 87.99 62.02 89.63 62.77 C 89.38 63.15 88.89 63.90 88.64 64.28 C 89.49 64.97 90.29 65.77 90.97 66.64 C 90.38 66.27 89.22 65.53 88.63 65.15 C 88.10 64.12 87.58 63.08 86.88 62.15 C 86.29 62.94 85.10 64.53 84.51 65.32 C 85.86 66.15 87.93 65.29 88.76 66.99 C 88.14 67.40 86.91 68.21 86.30 68.62 L 87.84 69.21 C 87.41 70.13 86.99 71.05 86.57 71.97 C 86.81 72.41 87.28 73.28 87.51 73.72 C 86.63 73.39 85.76 73.07 84.88 72.75 C 85.31 71.79 85.75 70.84 86.19 69.88 L 85.24 69.57 C 84.91 71.24 83.87 72.16 82.09 72.32 C 82.69 73.08 85.20 73.26 84.66 74.47 C 83.15 75.86 86.75 77.13 84.48 78.26 C 83.49 77.06 82.59 75.75 82.98 74.12 C 82.20 74.04 80.63 73.90 79.84 73.82 C 80.71 75.15 81.55 76.50 82.26 77.93 C 81.76 77.99 80.78 78.11 80.29 78.17 C 79.23 75.27 76.96 72.91 76.65 69.75 C 76.30 69.72 75.59 69.67 75.24 69.64 C 75.34 70.84 75.43 72.04 75.50 73.24 L 77.00 72.98 L 77.00 74.45 C 76.33 74.25 75.00 73.84 74.33 73.63 L 74.66 73.15 L 74.20 72.79 C 74.23 73.00 74.30 73.42 74.33 73.63 C 75.45 75.29 77.54 75.82 79.07 77.02 L 76.72 77.80 C 78.34 78.62 80.13 78.99 81.73 79.86 C 79.90 80.58 78.06 79.58 76.25 80.07 C 77.14 81.96 82.34 81.85 79.61 85.25 C 78.61 84.12 77.69 82.93 76.72 81.77 C 77.07 83.70 78.20 85.32 79.05 87.04 C 76.70 86.28 75.57 83.62 72.50 84.60 C 73.10 85.12 74.30 86.15 74.90 86.66 C 74.63 87.24 74.09 88.40 73.83 88.98 L 75.66 89.00 C 75.53 88.50 75.27 87.50 75.14 86.99 L 77.20 87.00 C 76.87 88.23 76.41 89.40 75.81 90.51 C 74.40 90.61 71.23 92.97 71.25 90.22 L 72.88 89.76 L 73.45 88.78 C 71.74 89.05 70.08 89.50 68.44 90.00 C 69.04 90.30 70.25 90.92 70.86 91.22 C 70.98 92.48 71.69 93.26 72.99 93.55 C 72.33 93.71 70.99 94.02 70.32 94.18 C 70.43 94.62 70.65 95.52 70.77 95.96 C 70.07 95.99 68.69 96.04 68.00 96.07 L 68.02 94.73 C 67.51 94.69 66.50 94.60 66.00 94.56 C 66.59 92.12 68.57 94.97 69.87 95.13 C 69.58 93.38 68.68 92.11 67.19 91.30 C 67.18 89.94 67.86 88.15 69.42 87.83 C 68.85 86.93 68.30 86.02 67.77 85.10 C 68.51 85.34 69.99 85.83 70.73 86.07 L 70.49 82.80 C 69.93 83.01 68.81 83.44 68.25 83.65 C 69.00 83.26 69.63 82.73 70.13 82.08 C 70.20 81.64 70.33 80.76 70.39 80.32 C 70.72 80.39 71.38 80.53 71.71 80.60 L 72.21 80.86 C 72.24 80.26 72.30 79.05 72.33 78.44 C 72.88 78.30 73.98 78.02 74.53 77.89 C 74.16 77.51 73.43 76.77 73.06 76.40 C 73.35 76.05 73.93 75.36 74.22 75.01 C 73.66 75.01 72.53 74.99 71.97 74.98 C 72.23 74.52 72.75 73.60 73.01 73.14 C 72.27 72.69 71.54 72.24 70.80 71.80 C 72.39 71.49 73.85 70.86 75.19 69.92 C 74.02 69.12 72.74 68.60 71.36 68.36 C 71.29 67.13 71.26 65.89 71.24 64.65 C 73.18 65.00 74.86 63.91 76.49 63.05 C 76.49 64.98 77.04 66.76 78.15 68.38 L 75.31 67.79 C 76.79 65.14 73.46 65.76 72.21 66.17 C 72.78 69.49 77.98 67.79 79.18 71.02 C 76.47 66.95 81.09 68.21 81.45 70.56 C 80.28 71.16 79.25 71.96 78.38 72.94 C 81.99 74.16 82.73 69.03 85.76 68.68 C 85.44 67.44 84.58 66.62 83.16 66.21 C 83.10 66.97 82.98 68.49 82.93 69.25 C 81.50 69.08 80.79 68.25 80.81 66.75 C 79.76 66.79 78.71 66.82 77.65 66.85 C 78.30 64.28 78.02 61.70 76.18 59.71 C 76.82 59.97 78.09 60.49 78.72 60.75 C 77.83 59.69 77.25 58.51 76.99 57.20 M 79.48 64.41 C 80.12 65.03 80.12 65.03 79.48 64.41 M 82.99 66.04 C 84.69 65.41 84.74 64.71 83.16 63.94 C 81.41 64.68 81.35 65.38 82.99 66.04 M 75.30 76.19 C 75.85 76.78 75.85 76.78 75.30 76.19 M 75.32 78.14 C 74.44 78.96 74.17 79.91 74.50 81.02 C 76.07 81.85 77.00 78.19 75.32 78.14 M 72.93 82.39 C 72.39 83.81 74.86 84.38 75.81 83.82 C 76.02 82.58 73.88 81.75 72.93 82.39 M 71.37 86.04 C 71.04 87.39 71.57 87.90 72.94 87.59 C 73.31 86.21 72.78 85.70 71.37 86.04 Z" />
<path fill="#cfd0d2" opacity="1.00" d=" M 84.43 60.21 C 85.03 60.83 85.03 60.83 84.43 60.21 Z" />
<path fill="#cfd0d2" opacity="1.00" d=" M 90.20 60.04 C 91.55 59.66 92.03 60.17 91.64 61.57 C 90.26 61.96 89.78 61.45 90.20 60.04 Z" />
<path fill="#cfd0d2" opacity="1.00" d=" M 26.95 66.20 C 27.36 66.64 28.17 67.51 28.58 67.95 L 30.05 66.72 C 29.61 68.11 29.70 69.55 29.80 70.98 C 29.49 70.85 28.88 70.58 28.57 70.45 C 30.52 68.87 27.49 67.70 26.95 66.20 Z" />
<path fill="#cfd0d2" opacity="1.00" d=" M 95.82 72.26 C 97.23 72.78 101.78 72.15 97.14 74.66 C 98.08 75.56 99.04 76.44 99.83 77.49 C 98.04 77.04 96.35 76.29 94.79 75.32 C 93.83 75.55 92.86 75.78 91.90 76.03 C 92.83 74.28 96.06 74.52 95.82 72.26 M 96.38 74.38 C 96.66 74.65 96.66 74.65 96.38 74.38 Z" />
<path fill="#cfd0d2" opacity="1.00" d=" M 64.54 74.24 C 67.45 75.42 64.68 77.13 63.09 77.87 C 63.49 77.50 64.29 76.76 64.69 76.39 C 64.65 75.85 64.58 74.78 64.54 74.24 Z" />
</g>
<g id="#626165ff">
<path fill="#626165" opacity="1.00" d=" M 13.19 25.01 C 13.63 25.01 14.51 25.00 14.95 25.00 C 14.88 26.92 14.89 28.85 14.93 30.77 L 13.42 31.27 C 14.34 33.15 15.08 35.12 15.07 37.25 L 14.21 36.80 C 13.80 36.58 13.00 36.15 12.59 35.93 C 12.83 32.30 13.66 28.74 14.42 25.19 L 13.28 25.90 L 13.19 25.01 Z" />
<path fill="#626165" opacity="1.00" d=" M 16.50 35.07 C 17.02 33.15 15.16 29.33 17.90 28.91 C 19.71 29.70 19.44 31.89 19.71 33.49 C 19.44 33.25 18.91 32.77 18.65 32.54 C 18.26 31.69 17.84 30.86 17.38 30.05 C 16.85 31.39 16.78 32.74 17.16 34.11 C 17.77 34.05 19.00 33.95 19.61 33.90 C 18.92 35.65 18.60 37.51 18.44 39.38 C 17.98 38.05 18.88 35.74 17.00 35.33 L 16.50 35.07 Z" />
<path fill="#626165" opacity="1.00" d=" M 99.28 34.96 C 99.65 35.08 100.40 35.31 100.77 35.42 C 102.44 38.95 100.19 42.78 101.07 46.48 C 100.60 46.40 99.65 46.26 99.18 46.19 C 100.46 46.74 100.65 47.54 99.76 48.60 C 100.10 48.59 100.77 48.59 101.11 48.59 C 100.52 49.85 99.92 51.11 99.35 52.39 C 99.47 53.11 99.72 54.56 99.85 55.28 C 98.67 54.96 98.13 54.20 98.24 53.01 C 98.53 49.55 98.83 46.08 98.56 42.60 C 99.10 42.23 100.16 41.49 100.69 41.12 C 99.78 39.97 98.39 38.70 100.39 37.73 C 100.02 36.81 99.64 35.88 99.28 34.96 Z" />
<path fill="#626165" opacity="1.00" d=" M 74.22 54.09 C 75.67 54.65 77.30 55.28 76.99 57.20 C 77.25 58.51 77.83 59.69 78.72 60.75 C 78.09 60.49 76.82 59.97 76.18 59.71 C 75.30 57.93 74.66 56.03 74.22 54.09 Z" />
<path fill="#626165" opacity="1.00" d=" M 37.33 73.25 C 37.87 73.82 37.87 73.82 37.33 73.25 Z" />
<path fill="#626165" opacity="1.00" d=" M 32.39 75.24 C 32.92 75.78 32.92 75.78 32.39 75.24 Z" />
<path fill="#626165" opacity="1.00" d=" M 75.30 76.19 C 75.85 76.78 75.85 76.78 75.30 76.19 Z" />
<path fill="#626165" opacity="1.00" d=" M 35.49 80.50 C 37.27 80.93 35.54 84.11 33.99 83.11 C 34.04 82.01 34.54 81.15 35.49 80.50 Z" />
<path fill="#626165" opacity="1.00" d=" M 28.41 84.12 C 29.90 83.56 30.28 84.00 29.53 85.43 C 28.08 85.97 27.70 85.53 28.41 84.12 Z" />
<path fill="#626165" opacity="1.00" d=" M 47.19 109.29 C 47.75 109.84 47.75 109.84 47.19 109.29 Z" />
</g>
<g id="#183585ff">
<path fill="#183585" opacity="1.00" d=" M 27.99 36.94 C 50.30 36.85 72.60 36.51 94.91 36.26 C 94.89 43.12 94.59 49.97 94.37 56.82 C 84.05 53.78 73.76 50.67 63.44 47.60 C 61.96 47.18 60.42 47.64 58.98 48.02 C 48.98 50.93 38.95 53.73 28.97 56.69 C 28.64 50.11 28.37 43.52 27.99 36.94 M 70.21 38.16 C 69.82 41.45 69.74 44.76 69.77 48.06 C 70.62 48.15 72.34 48.32 73.20 48.41 C 73.11 47.41 72.93 45.41 72.84 44.42 C 75.29 46.15 75.62 50.30 79.19 50.41 C 79.30 46.44 79.27 42.46 79.33 38.49 C 78.44 38.51 76.65 38.56 75.75 38.58 C 75.98 39.99 76.21 41.41 76.39 42.83 C 74.08 41.49 73.69 37.46 70.21 38.16 M 82.55 40.49 C 81.72 43.51 81.70 46.78 82.26 49.85 C 83.92 52.62 88.97 53.93 90.99 50.89 C 91.52 48.91 91.54 46.83 91.65 44.79 C 90.07 44.83 88.49 44.86 86.92 44.91 C 86.98 46.11 87.50 47.04 88.47 47.72 C 88.47 48.20 88.47 49.17 88.47 49.65 C 87.50 49.66 86.56 49.53 85.64 49.28 C 85.51 46.38 84.64 42.95 86.43 40.43 C 88.52 40.08 89.18 43.93 91.55 42.57 C 92.88 37.37 84.05 35.86 82.55 40.49 M 29.95 38.78 C 31.40 43.27 32.73 47.81 34.00 52.36 C 36.08 52.27 38.86 51.97 39.62 49.64 C 40.85 45.97 41.73 42.19 42.79 38.47 C 41.76 38.50 39.70 38.55 38.67 38.58 C 38.02 41.77 37.45 44.97 36.69 48.13 C 34.70 45.38 34.84 41.80 34.33 38.59 C 32.86 38.64 31.40 38.70 29.95 38.78 M 44.66 38.42 C 44.60 42.17 44.54 45.92 44.32 49.67 C 45.21 49.47 46.99 49.08 47.88 48.88 C 48.17 45.46 48.13 42.03 48.11 38.61 C 47.25 38.56 45.53 38.47 44.66 38.42 M 50.72 38.50 C 50.80 41.65 50.84 44.80 50.88 47.95 C 53.21 48.08 54.72 46.48 55.39 44.39 C 56.17 45.11 56.95 45.83 57.73 46.55 C 58.55 46.21 60.19 45.54 61.01 45.20 C 60.05 44.13 58.39 43.49 57.97 42.03 C 58.80 40.64 60.30 39.79 61.12 38.37 C 58.35 37.77 56.25 39.37 54.47 41.21 C 54.62 38.66 52.89 38.24 50.72 38.50 M 63.49 38.41 C 63.55 40.92 63.62 43.42 63.72 45.93 C 64.94 46.22 66.15 46.51 67.37 46.80 C 67.22 44.05 67.11 41.30 67.02 38.54 C 66.14 38.51 64.37 38.44 63.49 38.41 Z" />
<path fill="#183585" opacity="1.00" d=" M 52.70 105.94 C 56.16 99.32 66.70 99.55 70.80 105.39 C 75.26 110.72 72.89 119.94 66.52 122.60 C 63.66 123.35 60.63 122.79 57.71 123.07 L 57.52 123.15 C 57.46 122.99 57.33 122.68 57.26 122.52 L 57.44 122.38 C 51.46 119.61 48.81 111.43 52.70 105.94 M 59.31 104.28 C 59.27 104.90 59.19 106.14 59.15 106.76 C 58.34 106.93 56.70 107.27 55.89 107.44 C 57.09 108.01 60.85 107.81 59.09 109.94 C 57.28 109.95 55.48 109.83 53.68 109.77 C 53.54 111.59 53.56 113.42 53.70 115.23 C 55.58 115.15 57.47 115.05 59.36 115.00 C 59.09 116.42 58.20 116.97 56.70 116.62 L 56.47 117.95 C 57.13 117.97 58.45 118.03 59.11 118.05 C 59.13 118.69 59.18 119.95 59.20 120.59 C 61.41 120.58 63.63 120.58 65.84 120.61 C 65.88 119.97 65.96 118.70 66.00 118.06 C 66.62 118.01 67.87 117.91 68.49 117.86 C 68.02 116.28 66.18 116.19 65.09 115.23 C 66.80 115.01 68.52 115.05 70.24 115.10 C 70.45 113.21 71.01 111.04 69.57 109.48 C 68.65 109.62 66.81 109.90 65.89 110.04 C 65.75 109.63 65.46 108.79 65.32 108.37 C 66.14 108.20 67.77 107.87 68.59 107.70 C 67.90 106.93 67.01 106.56 65.93 106.59 C 66.03 102.71 61.65 104.82 59.31 104.28 Z" />
</g>
<g id="#989aa2ff">
<path fill="#989aa2" opacity="1.00" d=" M 23.10 38.01 C 23.48 38.10 24.24 38.27 24.62 38.35 C 23.43 40.67 24.86 43.63 24.12 46.21 C 23.30 48.16 26.45 50.76 24.28 52.07 L 23.99 50.30 C 23.64 50.60 22.94 51.19 22.59 51.48 L 21.94 52.03 C 22.03 51.73 22.22 51.13 22.31 50.83 C 23.85 46.72 22.58 42.27 23.10 38.01 Z" />
<path fill="#989aa2" opacity="1.00" d=" M 80.30 56.26 C 81.71 55.94 82.23 56.46 81.84 57.84 C 80.42 58.15 79.90 57.62 80.30 56.26 Z" />
<path fill="#989aa2" opacity="1.00" d=" M 20.49 69.64 C 19.38 68.60 19.73 64.96 21.70 65.74 C 22.00 67.09 20.98 68.32 20.78 69.62 L 20.49 69.64 Z" />
<path fill="#989aa2" opacity="1.00" d=" M 56.91 73.50 C 57.57 72.31 58.42 71.25 59.46 70.34 C 60.12 71.29 60.05 73.16 61.51 73.27 C 61.00 73.91 60.49 74.54 59.97 75.18 C 59.64 74.72 58.97 73.82 58.64 73.36 C 58.41 73.43 57.97 73.56 57.74 73.63 C 57.46 74.05 56.91 74.88 56.63 75.30 L 56.34 75.76 C 55.49 74.94 54.64 74.12 53.82 73.26 C 54.59 73.32 56.14 73.44 56.91 73.50 Z" />
<path fill="#989aa2" opacity="1.00" d=" M 24.33 73.34 C 24.94 73.88 24.94 73.88 24.33 73.34 Z" />
<path fill="#989aa2" opacity="1.00" d=" M 75.32 78.14 C 77.00 78.19 76.07 81.85 74.50 81.02 C 74.17 79.91 74.44 78.96 75.32 78.14 Z" />
<path fill="#989aa2" opacity="1.00" d=" M 33.99 83.11 C 34.11 85.48 30.39 83.23 33.14 82.78 L 33.99 83.11 Z" />
<path fill="#989aa2" opacity="1.00" d=" M 63.07 90.17 C 66.27 90.52 61.50 93.23 63.07 90.17 Z" />
<path fill="#989aa2" opacity="1.00" d=" M 48.44 92.06 C 51.43 90.47 48.73 95.32 48.44 92.06 Z" />
<path fill="#989aa2" opacity="1.00" d=" M 57.14 97.18 C 58.16 96.00 61.11 97.19 59.88 98.80 C 58.87 99.85 56.20 98.68 57.14 97.18 Z" />
<path fill="#989aa2" opacity="1.00" d=" M 45.28 100.00 C 45.08 98.65 45.65 98.09 47.00 98.32 C 47.27 99.73 46.70 100.29 45.28 100.00 Z" />
</g>
</svg>
