<?xml version="1.0" encoding="UTF-8" standalone="no"?>
<!-- Created with Inkscape (http://www.inkscape.org/) by hansfn -->

<svg
   version="1.1"
   id="svg14404"
   width="225"
   height="225"
   viewBox="0 0 225 225"
   xmlns="http://www.w3.org/2000/svg"
   xmlns:svg="http://www.w3.org/2000/svg">
  <g id="layer1">
    <path
       id="path14459"
       style="display:inline;opacity:1;fill:#000000;fill-opacity:1;stroke:#000000;stroke-width:0.81623;stroke-opacity:1"
       d="m 76.335938,224.10742 a 94.458008,90.678497 0 0 0 31.597652,-67.5664 94.458008,90.678497 0 0 0 -26.191402,-62.632817 226.8175,187.13315 0 0 1 2.669921,6.892577 226.8175,187.13315 0 0 1 2.794922,8.60352 226.8175,187.13315 0 0 1 2.294922,8.70312 226.8175,187.13315 0 0 1 1.789063,8.7832 226.8175,187.13315 0 0 1 1.283203,8.84376 226.8175,187.13315 0 0 1 0.769531,8.88476 226.8175,187.13315 0 0 1 0.257812,8.9043 226.8175,187.13315 0 0 1 -2.310546,26.63086 226.8175,187.13315 0 0 1 -6.878907,26.08984 226.8175,187.13315 0 0 1 -8.076171,17.86328 z" />
    <path
       id="path14459-1"
       style="display:inline;opacity:1;fill:#000000;fill-opacity:1;stroke:#000000;stroke-width:0.81623;stroke-opacity:1"
       d="m 152.03601,224.00673 a 94.458008,90.678497 0 0 1 -31.59766,-67.56641 94.458008,90.678497 0 0 1 26.19141,-62.632808 226.8175,187.13315 0 0 0 -2.66993,6.892568 226.8175,187.13315 0 0 0 -2.79492,8.60352 226.8175,187.13315 0 0 0 -2.29492,8.70312 226.8175,187.13315 0 0 0 -1.78906,8.7832 226.8175,187.13315 0 0 0 -1.28321,8.84376 226.8175,187.13315 0 0 0 -0.76953,8.88476 226.8175,187.13315 0 0 0 -0.25781,8.9043 226.8175,187.13315 0 0 0 2.31055,26.63087 226.8175,187.13315 0 0 0 6.8789,26.08984 226.8175,187.13315 0 0 0 8.07618,17.86328 z" />
    <circle
       style="opacity:1;fill:#000000;fill-opacity:1;stroke:#000000;stroke-width:1.05353;stroke-opacity:1"
       id="path16170"
       cx="113.38583"
       cy="110.74016"
       r="11.945676" />
    <circle
       style="opacity:1;fill:none;fill-opacity:1;stroke:#000000;stroke-width:4;stroke-miterlimit:4;stroke-dasharray:none;stroke-opacity:1"
       id="path16274"
       cx="113.19682"
       cy="48.343937"
       r="42.280533" />
  </g>
  <g id="layer2">
    <path
       style="fill:#000000;fill-opacity:1;stroke:#000000;stroke-width:1px;stroke-linecap:butt;stroke-linejoin:miter;stroke-opacity:1"
       d="m 96.305633,31.748031 12.124807,31.748032 h 5.54277 l 7.96774,-23.433071 h 1.61664 l -0.4619,23.433071 h 6.16415 v -9.338579 l 3.76665,-4.503501 10.39269,13.84208 h 7.00602 L 138.22283,45.843329 150.4252,31.748031 142.26444,31.459345 129.25984,45.496906 V 31.748031 H 118.65668 L 111.7792,54.80315 h -1.27022 l -7.85226,-23.055119 z"
       id="path17899" />
    <ellipse
       style="opacity:1;fill:none;fill-opacity:1;stroke:#000000;stroke-width:2.01601;stroke-miterlimit:4;stroke-dasharray:none;stroke-opacity:1"
       id="path17743"
       cx="90.708656"
       cy="25.322832"
       rx="2.7715211"
       ry="2.7715206" />
    <path
       id="path16460"
       style="display:inline;opacity:1;fill:#000000;fill-opacity:1;stroke:#000000;stroke-width:1px;stroke-linecap:butt;stroke-linejoin:miter;stroke-opacity:1"
       d="M 86.835938,31.748047 75.519531,63.496094 h 6.236328 l 2.90625,-7.181641 h 11.990235 l 3.126953,7.181641 h 6.341793 L 93.880859,31.748047 Z m 3.464843,7.628906 4.619141,11.316406 -9.123047,-0.115234 c 0,0 0.462543,-0.116591 4.388672,-10.740234 z" />
  </g>
</svg>
