<?xml version="1.0" encoding="UTF-8"?>
<svg width="256px" height="256px" viewBox="0 0 256 256" version="1.1" xmlns="http://www.w3.org/2000/svg" xmlns:xlink="http://www.w3.org/1999/xlink">
    <!-- Generator: Sketch 50.2 (55047) - http://www.bohemiancoding.com/sketch -->
    <title>logo/alta</title>
    <desc>Created with Sketch.</desc>
    <defs></defs>
    <g id="logo/alta" stroke="none" stroke-width="1" fill="none" fill-rule="evenodd">
        <g id="alta" transform="translate(28.000000, 0.000000)" fill-rule="nonzero">
            <g id="#0061aaff" fill="#0061AA">
                <path d="M0.205128205,11.968 C33.2307692,21.952 69.9230769,17.408 100,0.7424 C130.089744,17.4208 166.75641,21.9136 199.794872,11.9936 C199.602564,38.2976 199.769231,64.5888 199.717949,90.88 C199.615385,108.6336 200.5,126.592 196.820513,144.0896 C190.782051,175.6672 174.230769,205.312 149.666667,226.24 C137.461538,236.8384 123.487179,245.2608 108.833333,252.0192 C105.384615,253.4912 101.653846,255.4112 97.7948718,254.4768 C93.0128205,253.2352 88.6666667,250.816 84.2435897,248.6656 C63.4487179,238.272 44.5641026,223.6928 30.4102564,205.184 C10.7692308,179.6224 0.435897436,147.392 0.333333333,115.264 C0.166666667,80.832 0.423076923,46.4 0.205128205,11.968 Z M89.2051282,18.6624 C64.9102564,28.8512 37.7948718,30.8864 11.8974359,26.9312 C11.8974359,55.0656 11.9358974,83.2128 11.8846154,111.3472 C11.5384615,142.5664 21.0897436,174.2592 40.525641,198.9376 C55.1153846,217.7024 75.025641,231.8592 96.6282051,241.536 C98.7692308,242.7008 101.230769,242.7008 103.371795,241.536 C124.974359,231.8592 144.884615,217.7024 159.474359,198.9376 C178.910256,174.2592 188.461538,142.5792 188.115385,111.36 C188.064103,83.2128 188.102564,55.0656 188.102564,26.9312 C162.205128,30.8992 135.089744,28.8512 110.794872,18.6752 C107.205128,17.2416 103.807692,15.2192 100,14.4256 C96.1923077,15.2192 92.7948718,17.2416 89.2051282,18.6624 Z" id="Shape"></path>
                <path d="M91.3846154,24.6784 C95.3846154,23.1552 99.7820513,20.288 104.012821,22.8096 C122.089744,30.784 141.769231,35.1744 161.551282,35.2896 C168.589744,35.3536 175.615385,34.624 182.653846,34.8416 C178.320513,38.1696 173.384615,40.576 168.487179,42.944 C127.333333,63.6928 86.1282051,84.352 44.9487179,105.0624 C36.0897436,109.4016 27.4230769,114.176 18.3717949,118.1184 C18.2307692,90.24 18.3717949,62.3616 18.2948718,34.4832 C42.974359,36.9792 68.4230769,34.3936 91.3846154,24.6784 Z" id="Shape"></path>
                <path d="M156.397436,56.2304 C158.75641,54.272 161.641026,53.1328 164.320513,51.712 C170.884615,69.7344 176.679487,88.0384 182.974359,106.1504 C179.730769,107.8016 176.487179,109.4528 173.24359,111.104 C171.679487,106.0736 170.141026,101.0304 168.641026,95.9744 C164.461538,97.8944 159.897436,99.328 156.397436,102.4 C153.961538,108.3392 154.282051,115.008 151.987179,120.9856 C148.551282,124.2368 143.897436,125.7216 139.74359,127.8208 C144.525641,105.8944 149.730769,84.0576 154.474359,62.1184 C154.974359,60.1216 155.384615,58.0608 156.397436,56.2304 Z M161.512821,73.8432 C160.217949,79.7184 159.166667,85.632 158.371795,91.584 C160.935897,90.4832 163.525641,89.3952 166.089744,88.2432 C164.820513,83.3664 163.384615,78.528 161.512821,73.8432 Z" id="Shape"></path>
                <path d="M107.423077,80.5632 C120.333333,73.856 133.282051,67.1872 146.461538,61.0304 C146.551282,64.5248 146.525641,68.032 146.525641,71.5392 C142.448718,73.536 138.128205,75.1872 134.461538,77.9008 C133.679487,80.4224 133.858974,83.0976 133.794872,85.696 C133.974359,100.736 133.871795,115.7632 133.897436,130.7904 C130.487179,132.5056 127.064103,134.1824 123.641026,135.8464 C123.564103,118.272 123.858974,100.6976 123.5,83.1232 C118.166667,85.696 112.871795,88.3456 107.551282,90.944 C107.461538,87.488 107.474359,84.0192 107.423077,80.5632 Z" id="Shape"></path>
                <path d="M83.7179487,92.6464 C86.6538462,90.5088 90.0641026,89.2032 93.3461538,87.7184 C93.6025641,105.792 93.2564103,123.8656 93.5128205,141.9392 C101.769231,137.8816 109.846154,133.4656 118.282051,129.7664 C118.384615,132.6592 118.487179,135.552 118.576923,138.4448 C106.846154,144.4992 95.0641026,150.4256 83.2051282,156.2112 C82.9102564,138.2784 83.2435897,120.3328 83.0128205,102.4 C83.0512821,99.1488 82.8974359,95.8208 83.7179487,92.6464 Z" id="Shape"></path>
                <path d="M51.525641,109.0048 C53.7948718,107.1744 56.5128205,106.0224 59.0897436,104.6784 C65.6282051,122.6368 71.4102564,140.8768 77.6153846,158.9632 C74.4230769,160.6528 71.2179487,162.3168 68.0128205,163.968 C66.4102564,158.9248 64.8333333,153.8688 63.1282051,148.864 C59.2051282,150.8096 54.9615385,152.32 51.525641,155.0976 C48.4487179,161.0624 49.4102564,168.32 46.474359,174.3744 C42.9615385,177.1136 38.6923077,178.6496 34.6794872,180.5184 C39.2179487,159.2064 44.3846154,138.0352 48.9230769,116.7232 C49.6282051,114.1248 49.9230769,111.2448 51.525641,109.0048 Z M52.8974359,144.8704 C55.5769231,143.6288 58.1923077,142.272 60.8589744,140.992 C59.5769231,136.4992 58.2564103,132.0192 56.7307692,127.6032 C54.9102564,133.2224 53.7948718,139.0464 52.8974359,144.8704 Z" id="Shape"></path>
                <path d="M169.717949,119.552 C173.679487,117.5168 177.692308,115.584 181.74359,113.7408 C181.564103,143.6928 171.807692,173.9136 152.628205,197.1584 C140.038462,212.6848 123.487179,224.6656 105.628205,233.4848 C102.987179,234.7136 99.9230769,236.2624 97.0897436,234.6496 C73.7179487,224.0384 52.7564103,207.3216 38.9358974,185.5488 C82.4230769,163.3408 126.179487,141.6448 169.717949,119.552 Z M128.192308,152.3456 C128.115385,166.3872 127.961538,180.416 128.307692,194.4576 C130.730769,193.152 133.153846,191.8592 135.564103,190.5536 C135.589744,185.1392 135.128205,179.6864 135.846154,174.2976 C139.051282,171.584 143.269231,170.3552 146.384615,167.5264 C146.692308,165.44 146.717949,163.3408 146.820513,161.2544 C143.051282,162.9312 139.333333,164.7232 135.602564,166.464 C135.576923,162.6752 135.589744,158.8864 135.641026,155.1104 C141.858974,152.0896 148.012821,148.9536 154.179487,145.8688 C154.141026,143.7056 154.102564,141.5552 154.064103,139.4048 C145.371795,143.5776 136.769231,147.9168 128.192308,152.3456 Z M83.8205128,174.4512 C83.8076923,188.5056 83.7435897,202.56 83.8461538,216.6144 C86.1153846,215.552 88.4358974,214.5536 90.5384615,213.1584 C91.4487179,210.048 91.2564103,206.7456 91.3076923,203.5328 C91.1410256,192.7424 91.3589744,181.952 91.1153846,171.1744 C88.6794872,172.2624 86.2564103,173.3504 83.8205128,174.4512 Z M147.538462,177.8432 C147.602564,180.1344 147.692308,182.4256 147.782051,184.7168 C149.435897,183.7824 151.141026,182.9248 152.666667,181.7856 C153.384615,179.712 153.512821,177.4848 153.871795,175.3344 C151.74359,176.1408 149.641026,176.9856 147.538462,177.8432 Z M106.487179,198.4256 C106.512821,200.7424 106.538462,203.072 106.589744,205.3888 C108.282051,204.4032 110.064103,203.5328 111.615385,202.3168 C112.24359,200.2304 112.423077,198.0544 112.74359,195.9296 C110.653846,196.736 108.564103,197.5808 106.487179,198.4256 Z" id="Shape"></path>
            </g>
            <g id="#fff200ff" transform="translate(11.538462, 14.080000)" fill="#FFF200">
                <path d="M77.6666667,4.5824 C81.2564103,3.1616 84.6538462,1.1392 88.4615385,0.3456 C92.2692308,1.1392 95.6666667,3.1616 99.2564103,4.5952 C123.551282,14.7712 150.666667,16.8192 176.564103,12.8512 C176.564103,40.9856 176.525641,69.1328 176.576923,97.28 C176.923077,128.4992 167.371795,160.1792 147.935897,184.8576 C133.346154,203.6224 113.435897,217.7792 91.8333333,227.456 C89.6923077,228.6208 87.2307692,228.6208 85.0897436,227.456 C63.4871795,217.7792 43.5769231,203.6224 28.9871795,184.8576 C9.55128205,160.1792 -4.49640325e-15,128.4864 0.346153846,97.2672 C0.397435897,69.1328 0.358974359,40.9856 0.358974359,12.8512 C26.2564103,16.8064 53.3717949,14.7712 77.6666667,4.5824 Z M79.8461538,10.5984 C56.8846154,20.3136 31.4358974,22.8992 6.75641026,20.4032 C6.83333333,48.2816 6.69230769,76.16 6.83333333,104.0384 C15.8846154,100.096 24.5512821,95.3216 33.4102564,90.9824 C74.5897436,70.272 115.794872,49.6128 156.948718,28.864 C161.846154,26.496 166.782051,24.0896 171.115385,20.7616 C164.076923,20.544 157.051282,21.2736 150.012821,21.2096 C130.230769,21.0944 110.551282,16.704 92.474359,8.7296 C88.2435897,6.208 83.8461538,9.0752 79.8461538,10.5984 Z M144.858974,42.1504 C143.846154,43.9808 143.435897,46.0416 142.935897,48.0384 C138.192308,69.9776 132.987179,91.8144 128.205128,113.7408 C132.358974,111.6416 137.012821,110.1568 140.448718,106.9056 C142.74359,100.928 142.423077,94.2592 144.858974,88.32 C148.358974,85.248 152.923077,83.8144 157.102564,81.8944 C158.602564,86.9504 160.141026,91.9936 161.705128,97.024 C164.948718,95.3728 168.192308,93.7216 171.435897,92.0704 C165.141026,73.9584 159.346154,55.6544 152.782051,37.632 C150.102564,39.0528 147.217949,40.192 144.858974,42.1504 Z M95.8846154,66.4832 C95.9358974,69.9392 95.9230769,73.408 96.0128205,76.864 C101.333333,74.2656 106.628205,71.616 111.961538,69.0432 C112.320513,86.6176 112.025641,104.192 112.102564,121.7664 C115.525641,120.1024 118.948718,118.4256 122.358974,116.7104 C122.333333,101.6832 122.435897,86.656 122.25641,71.616 C122.320513,69.0176 122.141026,66.3424 122.923077,63.8208 C126.589744,61.1072 130.910256,59.456 134.987179,57.4592 C134.987179,53.952 135.012821,50.4448 134.923077,46.9504 C121.74359,53.1072 108.794872,59.776 95.8846154,66.4832 Z M72.1794872,78.5664 C71.3589744,81.7408 71.5128205,85.0688 71.474359,88.32 C71.7051282,106.2528 71.3717949,124.1984 71.6666667,142.1312 C83.525641,136.3456 95.3076923,130.4192 107.038462,124.3648 C106.948718,121.472 106.846154,118.5792 106.74359,115.6864 C98.3076923,119.3856 90.2307692,123.8016 81.974359,127.8592 C81.7179487,109.7856 82.0641026,91.712 81.8076923,73.6384 C78.525641,75.1232 75.1153846,76.4288 72.1794872,78.5664 Z M39.9871795,94.9248 C38.3846154,97.1648 38.0897436,100.0448 37.3846154,102.6432 C32.8461538,123.9552 27.6794872,145.1264 23.1410256,166.4384 C27.1538462,164.5696 31.4230769,163.0336 34.9358974,160.2944 C37.8717949,154.24 36.9102564,146.9824 39.9871795,141.0176 C43.4230769,138.24 47.6666667,136.7296 51.5897436,134.784 C53.2948718,139.7888 54.8717949,144.8448 56.474359,149.888 C59.6794872,148.2368 62.8846154,146.5728 66.0769231,144.8832 C59.8717949,126.7968 54.0897436,108.5568 47.5512821,90.5984 C44.974359,91.9424 42.2564103,93.0944 39.9871795,94.9248 Z M158.179487,105.472 C114.641026,127.5648 70.8846154,149.2608 27.3974359,171.4688 C41.2179487,193.2416 62.1794872,209.9584 85.5512821,220.5696 C88.3846154,222.1824 91.4487179,220.6336 94.0897436,219.4048 C111.948718,210.5856 128.5,198.6048 141.089744,183.0784 C160.269231,159.8336 170.025641,129.6128 170.205128,99.6608 C166.153846,101.504 162.141026,103.4368 158.179487,105.472 Z" id="Shape"></path>
                <path d="M149.974359,59.7632 C151.846154,64.448 153.282051,69.2864 154.551282,74.1632 C151.987179,75.3152 149.397436,76.4032 146.833333,77.504 C147.628205,71.552 148.679487,65.6384 149.974359,59.7632 Z" id="Shape"></path>
                <path d="M41.3589744,130.7904 C42.2564103,124.9664 43.3717949,119.1424 45.1923077,113.5232 C46.7179487,117.9392 48.0384615,122.4192 49.3205128,126.912 C46.6538462,128.192 44.0384615,129.5488 41.3589744,130.7904 Z" id="Shape"></path>
                <path d="M116.653846,138.2656 C125.230769,133.8368 133.833333,129.4976 142.525641,125.3248 C142.564103,127.4752 142.602564,129.6256 142.641026,131.7888 C136.474359,134.8736 130.320513,138.0096 124.102564,141.0304 C124.051282,144.8064 124.038462,148.5952 124.064103,152.384 C127.794872,150.6432 131.512821,148.8512 135.282051,147.1744 C135.179487,149.2608 135.153846,151.36 134.846154,153.4464 C131.730769,156.2752 127.512821,157.504 124.307692,160.2176 C123.589744,165.6064 124.051282,171.0592 124.025641,176.4736 C121.615385,177.7792 119.192308,179.072 116.769231,180.3776 C116.423077,166.336 116.576923,152.3072 116.653846,138.2656 Z" id="Shape"></path>
                <path d="M72.2820513,160.3712 C74.7179487,159.2704 77.1410256,158.1824 79.5769231,157.0944 C79.8205128,167.872 79.6025641,178.6624 79.7692308,189.4528 C79.7179487,192.6656 79.9102564,195.968 79,199.0784 C76.8974359,200.4736 74.5769231,201.472 72.3076923,202.5344 C72.2051282,188.48 72.2692308,174.4256 72.2820513,160.3712 Z" id="Shape"></path>
                <path d="M136,163.7632 C138.102564,162.9056 140.205128,162.0608 142.333333,161.2544 C141.974359,163.4048 141.846154,165.632 141.128205,167.7056 C139.602564,168.8448 137.897436,169.7024 136.24359,170.6368 C136.153846,168.3456 136.064103,166.0544 136,163.7632 Z" id="Shape"></path>
                <path d="M94.9487179,184.3456 C97.025641,183.5008 99.1153846,182.656 101.205128,181.8496 C100.884615,183.9744 100.705128,186.1504 100.076923,188.2368 C98.525641,189.4528 96.7435897,190.3232 95.0512821,191.3088 C95,188.992 94.974359,186.6624 94.9487179,184.3456 Z" id="Shape"></path>
            </g>
        </g>
    </g>
</svg>