<?xml version="1.0" encoding="UTF-8"?>
<svg width="256px" height="256px" viewBox="0 0 256 256" version="1.1" xmlns="http://www.w3.org/2000/svg" xmlns:xlink="http://www.w3.org/1999/xlink">
    <!-- Generator: Sketch 50.2 (55047) - http://www.bohemiancoding.com/sketch -->
    <title>logo/asker</title>
    <desc>Created with Sketch.</desc>
    <defs></defs>
    <g id="logo/asker" stroke="none" stroke-width="1" fill="none" fill-rule="evenodd">
        <g id="asker" transform="translate(39.000000, 0.000000)" fill-rule="nonzero">
            <g id="#fefffeff" transform="translate(3.420382, 4.551111)" fill="#FEFFFE">
                <path d="M81.4507006,8.66986667 C80.7210191,5.50684444 83.5257325,3.25404444 85.1105096,0.910222222 C85.3841401,8.66986667 85.4069427,16.4408889 85.1333121,24.2119111 C83.6169427,19.1032889 82.1917834,13.9491556 81.4507006,8.66986667 Z" id="Shape"></path>
                <path d="M87.1855414,0.910222222 C88.6449045,3.072 91.3242038,4.99484444 90.9935669,7.8848 C90.3892994,13.7784889 88.6221019,19.4901333 87.1171338,25.2017778 C87.0829299,17.1008 87.0145223,8.99982222 87.1855414,0.910222222 Z" id="Shape"></path>
                <path d="M73.5610191,5.98471111 C75.4992357,6.33742222 77.4488535,6.70151111 79.3984713,7.07697778 C80.9490446,13.4485333 82.590828,19.8200889 83.2749045,26.3623111 C79.3984713,19.8997333 76.1719108,13.0503111 73.5610191,5.98471111 Z" id="Shape"></path>
                <path d="M92.9773885,7.23626667 C95.0866242,6.79253333 97.2186624,6.36017778 99.3392994,5.9392 C96.1469427,12.8796444 93.0457962,19.8997333 89.0211465,26.4078222 C89.7850318,19.9224889 91.4724204,13.5850667 92.9773885,7.23626667 Z" id="Shape"></path>
                <path d="M66.104586,19.0236444 C67.9515924,18.0451556 69.81,17.0780444 71.6684076,16.1223111 C75.3738217,20.2524444 79.1818471,24.4053333 81.5647134,29.4798222 C76.0008917,26.6353778 71.0641401,22.7783111 66.104586,19.0236444 Z" id="Shape"></path>
                <path d="M100.616242,16.2133333 C102.486051,17.0552889 104.344459,17.92 106.202866,18.7847111 C101.562548,23.0286222 96.283758,26.5329778 90.7199363,29.4343111 C93.2624204,24.5077333 96.9678344,20.3434667 100.616242,16.2133333 Z" id="Shape"></path>
                <path d="M68.4646497,27.6935111 C72.6717197,28.9109333 76.9585987,30.208 80.5157962,32.8704 C75.2712102,33.5872 69.9696178,33.4620444 64.7136306,33.1889778 C65.9449682,31.3457778 67.1991083,29.5253333 68.4646497,27.6935111 Z" id="Shape"></path>
                <path d="M80.5614013,33.6668444 C81.8041401,31.1068444 82.8758599,27.0677333 86.5356688,27.5342222 C89.9446497,27.5114667 90.7655414,31.2206222 91.7916561,33.7237333 C88.0520382,33.8147556 84.3010191,33.792 80.5614013,33.6668444 Z" id="Shape"></path>
                <path d="M91.8258599,32.6087111 C95.5312739,30.2421333 99.7041401,28.7971556 103.877006,27.4887111 C105.096943,29.3660444 106.41949,31.1864889 107.605223,33.0979556 C102.337834,33.3937778 97.0476433,33.4279111 91.8258599,32.6087111 Z" id="Shape"></path>
                <path d="M5.14197452,66.5713778 C15.8705732,55.808 26.6561783,45.0332444 38.6845223,35.7148444 C45.000828,39.2647111 50.701465,43.8840889 57.1887898,47.104 C60.7003822,45.8524444 63.5849045,43.3607111 66.9596815,41.8247111 C75.9780892,37.3418667 86.4330573,37.0346667 96.2495541,38.3658667 C103.705987,39.4353778 110.341529,43.3152 116.384204,47.616 C122.563694,43.9068444 128.503758,39.8222222 134.671847,36.0903111 C146.939618,45.7955556 157.987452,56.9571556 168.579236,68.4259556 C171.076115,70.9404444 173.618599,75.9239111 169.502739,78.2791111 C165.979745,78.5635556 163.437261,75.4232889 160.324713,74.24 C157.440191,72.2716444 154.74949,75.7873778 153.415541,78.0401778 C145.833694,92.3192889 145.332038,109.579378 149.675924,124.928 C154.088217,139.559822 159.857261,153.861689 168.07758,166.820978 C169.479936,169.710933 172.683694,172.782933 170.996306,176.207644 C165.877134,188.996267 155.844013,199.532089 143.758662,206.062933 C131.787325,213.412978 118.003185,217.474844 106.704522,225.962667 C98.9402548,231.424 92.4073248,238.3872 86.501465,245.76 C78.3495541,236.862578 69.8214013,228.090311 59.5146497,221.627733 C46.0953503,213.185422 30.5896178,208.156444 18.3104459,197.905067 C11.3100637,191.817956 5.27878981,184.354133 1.58477707,175.8208 C0.364840764,173.533867 2.14343949,171.258311 3.1011465,169.233067 C11.6521019,154.737778 18.6182803,139.207111 22.8595541,122.891378 C25.2652229,114.005333 25.1056051,104.698311 24.7749682,95.5733333 C24.5583439,88.9173333 22.1982803,82.5002667 18.8235032,76.8227556 C17.649172,74.9226667 16.1328025,72.8177778 13.6815287,72.6584889 C10.1699363,73.7393778 7.6388535,76.6065778 4.3210828,78.0856889 C1.99522293,78.8821333 0.399044586,75.9352889 0.330636943,73.9669333 C0.76388535,70.9518222 3.21515924,68.7559111 5.14197452,66.5713778 Z M56.5959236,56.4792889 C50.8610828,52.8384 45.2972611,48.9472 39.6422293,45.1811556 C32.7672611,50.5742222 26.4395541,56.6044444 20.0890446,62.5891556 C23.5892357,68.4828444 27.682293,74.1944889 29.5749045,80.8618667 C31.6271338,88.6101333 32.2656051,96.6883556 32.22,104.675556 C31.5815287,123.619556 24.4443312,141.6192 16.3494268,158.526578 C14.2059873,163.407644 10.9680255,167.822222 9.44025478,172.9536 C10.9452229,177.925689 14.6620382,181.8624 17.8657962,185.821867 C28.7312102,198.109867 44.7956051,203.320889 58.7735669,211.035022 C66.7088535,215.745422 74.6669427,220.717511 81.0744586,227.441778 C82.7048408,229.046044 84.255414,230.832356 86.3646497,231.844978 C89.3061783,229.4784 91.7688535,226.588444 94.5507643,224.0512 C101.58535,217.383822 110.35293,213.037511 118.778471,208.406756 C130.647197,201.978311 144.077898,197.438578 153.438344,187.255467 C157.029745,183.204978 160.735159,178.983822 162.787389,173.909333 C162.525159,171.997867 161.464841,170.336711 160.575541,168.664178 C153.814586,157.252267 148.706815,144.930133 144.522548,132.369067 C140.908344,121.662578 139.129745,110.296178 139.677006,98.9980444 C140.509299,85.6860444 145.959108,73.2615111 152.195605,61.6561778 C145.822293,56.4224 140.646115,49.6071111 133.543121,45.3404444 C127.375032,48.5376 121.959427,52.9863111 116.076369,56.6613333 C108.790955,50.3011556 99.9549682,45.1470222 90.0700637,44.7374222 C77.802293,43.52 65.8081529,48.6741333 56.5959236,56.4792889 Z" id="Shape"></path>
                <path d="M117.205096,89.6113778 C123.715223,81.7265778 122.620701,69.2224 132.003949,63.4538667 C131.080446,68.5056 129.780701,73.5004444 129.450064,78.6318222 C128.994013,82.8529778 129.051019,87.4268444 126.64535,91.1246222 C123.681019,95.6529778 119.952803,99.6010667 116.566624,103.810844 C108.47172,113.2544 100.981083,123.209956 92.5669427,132.357689 C90.9365605,130.389333 89.2947771,128.432356 87.6529936,126.475378 C97.5264968,114.210133 107.639427,102.126933 117.205096,89.6113778 Z" id="Shape"></path>
                <path d="M41.1357962,64.3868444 C44.6017834,66.7989333 47.5205096,70.0643556 48.6150318,74.2172444 C50.5190446,80.8391111 53.0501274,87.4040889 57.5422293,92.7288889 C66.6974522,103.844978 76.1035032,114.756267 85.1903185,125.929244 C83.3775159,128.079644 81.6787261,130.321067 80.093949,132.642133 C69.7301911,120.274489 59.4348408,107.861333 49.1052866,95.4823111 C46.3347771,92.2624 44.043121,88.4622222 43.8378981,84.1159111 C43.3134395,77.4940444 42.2189172,70.9404444 41.1357962,64.3868444 Z" id="Shape"></path>
                <path d="M80.1623567,65.0012444 C84.4720382,65.0012444 88.7703185,65.0012444 93.0685987,65.0126222 C94.4367516,75.8556444 97.3440764,86.4142222 99.658535,97.0865778 C96.9450318,97.0979556 94.2429299,97.0752 91.5294268,97.0524444 C91.0619745,93.3205333 90.5033121,89.6113778 89.9104459,85.9022222 C86.9005096,87.0058667 83.7195541,87.0058667 80.7210191,85.8794667 C79.8089172,89.5658667 79.0336306,93.2750222 78.4179618,97.0183111 C76.5595541,97.0296889 74.7011465,97.0524444 72.8427389,97.0638222 C75.1115924,86.3345778 78.509172,75.8556444 80.1623567,65.0012444 Z M84.255414,71.8392889 C83.3205096,75.0364444 82.5566242,78.2904889 81.9295541,81.5672889 C84.2440127,81.5672889 86.5584713,81.5559111 88.8729299,81.5331556 C88.3370701,78.4725333 87.7784076,75.4232889 87.2083439,72.3740444 C86.4672611,72.2375111 84.9964968,71.9758222 84.255414,71.8392889 Z" id="Shape"></path>
                <path d="M43.2336306,117.111467 C47.7827389,114.528711 52.9589172,116.883911 57.6790446,117.646222 C57.7702548,120.502044 57.8842675,123.357867 58.0096815,126.213689 C55.7750318,124.017778 53.8710191,121.173333 50.8382803,120.0128 C48.1703822,118.9888 44.75,121.673956 46.1751592,124.507022 C48.8544586,129.035378 54.4638854,130.628267 57.7930573,134.599111 C62.0799363,139.138844 60.9968153,148.263822 54.4980892,150.175289 C48.8088535,152.564622 43.7580892,147.114667 38.0118471,148.184178 C38.0916561,144.634311 38.1144586,141.073067 38.1486624,137.5232 C39.8816561,139.832889 41.420828,142.324622 43.5186624,144.349867 C45.5138854,146.272711 48.4896178,146.215822 51.0435032,146.773333 C51.4881529,144.759467 53.6201911,142.472533 52.160828,140.458667 C48.7290446,136.214756 43.085414,134.166756 40.3149045,129.308444 C37.8522293,125.326222 38.8897452,119.341511 43.2336306,117.111467 Z" id="Shape"></path>
                <path d="M112.177134,117.373156 C114.617006,117.384533 117.045478,117.384533 119.48535,117.373156 C119.348535,121.696711 119.314331,126.020267 119.633567,130.343822 C122.996943,126.429867 125.687643,122.026667 128.059108,117.464178 C129.883312,117.441422 131.707516,117.418667 133.53172,117.395911 C131.091847,121.912889 127.489045,125.860978 125.858662,130.7648 C128.230127,137.227378 132.266178,142.9504 134.934076,149.2992 C132.55121,149.333333 130.168344,149.344711 127.785478,149.344711 C125.607834,144.975644 123.395987,140.617956 120.64828,136.578844 C119.200318,140.6976 119.223121,145.089422 119.508153,149.390222 C117.034076,149.367467 114.571401,149.344711 112.108726,149.310578 C112.712994,138.683733 112.655987,128.011378 112.177134,117.373156 Z" id="Shape"></path>
                <path d="M87.1171338,131.231289 C89.1579618,130.264178 90.4919108,132.494222 91.8030573,133.666133 C103.979618,148.0704 116.121975,162.497422 128.446752,176.776533 C130.738408,179.484444 133.406306,182.010311 134.854268,185.321244 C133.543121,187.392 131.92414,189.2352 130.362166,191.112533 C117.433121,176.207644 104.618089,161.200356 91.6776433,146.306844 C89.2719745,143.405511 86.170828,140.913778 84.6430573,137.386667 C84.1870064,135.179378 84.5404459,131.936711 87.1171338,131.231289 Z" id="Shape"></path>
                <path d="M80.1623567,135.350044 C81.9295541,137.272889 83.6853503,139.195733 85.4753503,141.095822 C71.4859873,157.878044 57.1431847,174.353067 42.9828025,190.998756 C41.2612102,189.053156 39.5510191,187.107556 37.8294268,185.173333 C51.7959873,168.448 66.1501911,152.041244 80.1623567,135.350044 Z" id="Shape"></path>
                <path d="M60.7459873,182.0672 C62.6956051,180.178489 64.7706369,178.426311 66.9824841,176.856178 C67.7919745,183.887644 67.4499363,190.987378 67.4157325,198.052978 C66.2642038,198.371556 65.1126752,198.690133 63.9611465,199.008711 C63.1630573,193.3312 65.2038854,186.618311 60.7459873,182.0672 Z" id="Shape"></path>
                <path d="M73.5382166,177.902933 C75.8640764,176.548978 79.136242,176.480711 81.1884713,178.3808 C83.1038854,180.4288 81.5533121,183.296 81.4963057,185.719467 C80.8350318,188.962133 83.5827389,191.931733 82.7390446,195.1744 C81.3252866,200.203378 72.5805096,200.283022 71.223758,195.185778 C70.8019108,191.988622 73.0935669,188.996267 72.3866879,185.776356 C72.1586624,183.204978 70.6650955,179.518578 73.5382166,177.902933 Z M76.3087261,186.094933 C80.0483439,185.332622 78.7029936,181.441422 77.5970701,179.074844 C75.3510191,180.929422 73.7092357,183.682844 76.3087261,186.094933 Z M76.3999363,188.165689 C74.6441401,190.543644 73.1049682,195.367822 77.4032484,196.027733 C81.382293,194.195911 79.0336306,189.974756 76.3999363,188.165689 Z" id="Shape"></path>
                <path d="M88.3712739,177.937067 C90.7313376,176.583111 93.9578981,176.526222 96.1469427,178.267022 C97.9711465,180.132978 96.7512102,182.795378 96.7284076,185.048178 C96.0671338,188.529778 98.3587898,191.829333 97.7203185,195.288178 C96.534586,199.532089 90.0700637,200.112356 87.3565605,197.154133 C85.0307006,194.503111 87.2083439,191.123911 87.4249682,188.154311 C87.8924204,184.763733 85.4867516,180.679111 88.3712739,177.937067 Z M92.1336943,186.606933 C93.0343949,185.093689 93.9008917,183.580444 94.7787898,182.0672 C93.4220382,181.327644 92.0652866,180.588089 90.7199363,179.859911 C90.1042675,182.328889 89.9446497,184.832 92.1336943,186.606933 Z M91.29,188.222578 C90.7997452,189.917867 89.956051,191.556267 89.8534395,193.353956 C89.956051,195.527111 93.5930573,196.414578 94.1745223,194.002489 C95.2348408,191.488 92.6809554,189.872356 91.29,188.222578 Z" id="Shape"></path>
                <path d="M101.767771,188.461511 C99.1910828,184.604444 100.661847,177.322667 106.031847,176.9472 C109.520637,176.594489 111.618471,180.132978 111.971911,183.148089 C112.564777,187.790222 112.576178,193.103644 109.691656,197.040356 C107.707834,199.657244 104.048025,199.042844 101.368726,198.0416 C101.437134,194.946844 105.359172,195.549867 107.457006,194.594133 C107.93586,193.479111 108.403312,192.364089 108.870764,191.249067 C106.499299,190.407111 103.63758,190.293333 101.767771,188.461511 Z M108.574331,187.118933 C108.346306,184.661333 109.121592,180.952178 105.974841,180.132978 C102.588662,182.613333 104.082229,187.960889 108.574331,187.118933 Z" id="Shape"></path>
            </g>
            <g id="#04277aff" fill="#04277A">
                <path d="M83.1380892,8.35128889 C85.2701274,5.59786667 87.4477707,2.87857778 89.6824204,0.216177778 C91.9854777,2.98097778 93.8438854,6.31466667 96.9792357,8.23751111 C99.6699363,8.4992 102.372038,8.24888889 105.07414,8.16924444 C105.336369,11.5370667 105.131146,15.0072889 106.123057,18.2727111 C108.095478,19.9338667 110.478344,20.992 112.712994,22.2435556 C111.96051,25.3269333 110.660764,28.3875556 110.808981,31.6074667 C111.504459,33.8147556 112.884013,35.7262222 114.035541,37.7059556 C113.294459,39.3102222 112.530573,40.9031111 111.766688,42.496 C114.480191,44.2254222 117.205096,45.9434667 119.918599,47.6728889 C125.904268,44.3960889 131.20586,39.9815111 137.29414,36.8981333 C138.890318,35.9992889 140.304076,37.7287111 141.535414,38.5024 C152.811274,48.0597333 163.357452,58.4704 173.458981,69.2565333 C176.240892,72.3626667 179.193822,76.3107556 178.224713,80.7253333 C177.597643,83.9566222 174.79293,87.5064889 171.144522,86.8579556 C167.621529,85.6746667 164.565987,83.4787556 161.28242,81.7948444 C152.799873,95.3685333 151.819363,112.560356 156.037834,127.726933 C160.518535,142.609067 166.458599,157.127111 174.827134,170.279822 C176.605732,173.545244 179.923503,177.095111 177.92828,181.020444 C172.740701,194.901333 162.183121,206.552178 149.254076,213.720178 C137.453758,220.842667 124.057261,225.0752 112.792803,233.107911 C103.740191,239.183644 96.6371975,247.512178 89.876242,255.920356 C80.7096178,245.054578 70.5738854,234.689422 58.1236943,227.578311 C44.8184076,220.137244 30.1449682,214.687289 18.5840764,204.481422 C11.1048408,197.654756 4.69732484,189.3376 1.10592357,179.825778 C0.0456050955,177.538844 1.71019108,175.377067 2.71350318,173.431467 C10.7742038,160.130844 17.3527389,145.897244 21.8676433,131.015111 C25.3222293,119.716978 26.0633121,107.679289 24.4215287,96.0056889 C23.520828,90.3623111 20.7275159,85.2195556 17.2957325,80.7025778 C14.0007643,82.9553778 11.0022293,86.2321778 6.88636943,86.8238222 C1.56197452,85.9136 -1.27694268,78.8024889 1.55057325,74.3196444 C3.30636943,71.2704 5.87165605,68.8128 8.31152866,66.3210667 C19.0857325,55.6487111 29.8371338,44.8512 42.0364968,35.7717333 C48.2615924,39.6970667 54.4296815,43.7248 60.6775796,47.6046222 C62.9578344,46.2165333 65.2380892,44.8170667 67.5183439,43.4289778 C66.6746497,41.5061333 65.8309554,39.5946667 64.9872611,37.6718222 C66.4124204,35.6352 67.8261783,33.5985778 69.2627389,31.5733333 C68.3050318,28.4216889 67.3245223,25.2814222 66.4010191,22.1297778 C68.7154777,20.9351111 71.0299363,19.7290667 73.3557962,18.5457778 C73.6636306,15.0755556 73.9600637,11.6053333 74.2907006,8.14648889 C77.2436306,8.21475556 80.1851592,8.30577778 83.1380892,8.35128889 Z M84.8710828,13.2209778 C85.6121656,18.5002667 87.0373248,23.6544 88.5536943,28.7630222 C88.8273248,20.992 88.8045223,13.2209778 88.5308917,5.46133333 C86.9461146,7.80515556 84.1414013,10.0579556 84.8710828,13.2209778 Z M90.6059236,5.46133333 C90.4349045,13.5509333 90.5033121,21.6519111 90.5375159,29.7528889 C92.0424841,24.0412444 93.8096815,18.3296 94.413949,12.4359111 C94.744586,9.54595556 92.0652866,7.62311111 90.6059236,5.46133333 Z M76.9814013,10.5358222 C79.592293,17.6014222 82.8188535,24.4508444 86.6952866,30.9134222 C86.0112102,24.3712 84.3694268,17.9996444 82.8188535,11.6280889 C80.8692357,11.2526222 78.9196178,10.8885333 76.9814013,10.5358222 Z M96.3977707,11.7873778 C94.8928025,18.1361778 93.205414,24.4736 92.4415287,30.9589333 C96.4661783,24.4508444 99.5673248,17.4307556 102.759682,10.4903111 C100.639045,10.9112889 98.5070064,11.3436444 96.3977707,11.7873778 Z M69.5249682,23.5747556 C74.4845223,27.3294222 79.4212739,31.1864889 84.9850955,34.0309333 C82.6022293,28.9564444 78.7942038,24.8035556 75.0887898,20.6734222 C73.2303822,21.6291556 71.3719745,22.5962667 69.5249682,23.5747556 Z M104.036624,20.7644444 C100.388217,24.8945778 96.6828025,29.0588444 94.1403185,33.9854222 C99.7041401,31.0840889 104.98293,27.5797333 109.623248,23.3358222 C107.764841,22.4711111 105.906433,21.6064 104.036624,20.7644444 Z M71.8850318,32.2446222 C70.6194904,34.0764444 69.3653503,35.8968889 68.1340127,37.7400889 C73.39,38.0131556 78.6915924,38.1383111 83.9361783,37.4215111 C80.3789809,34.7591111 76.0921019,33.4620444 71.8850318,32.2446222 Z M83.9817834,38.2179556 C87.7214013,38.3431111 91.4724204,38.3658667 95.2120382,38.2748444 C94.1859236,35.7717333 93.3650318,32.0625778 89.956051,32.0853333 C86.296242,31.6188444 85.2245223,35.6579556 83.9817834,38.2179556 Z M95.246242,37.1598222 C100.468025,37.9790222 105.758217,37.9448889 111.025605,37.6490667 C109.839873,35.7376 108.517325,33.9171556 107.297389,32.0398222 C103.124522,33.3482667 98.9516561,34.7932444 95.246242,37.1598222 Z M8.56235669,71.1224889 C6.6355414,73.3070222 4.18426752,75.5029333 3.75101911,78.5180444 C3.81942675,80.4864 5.4156051,83.4332444 7.74146497,82.6368 C11.0592357,81.1576889 13.5903185,78.2904889 17.1019108,77.2096 C19.5531847,77.3688889 21.0695541,79.4737778 22.2438854,81.3738667 C25.6186624,87.0513778 27.9787261,93.4684444 28.1953503,100.124444 C28.5259873,109.249422 28.6856051,118.556444 26.2799363,127.442489 C22.0386624,143.758222 15.0724841,159.288889 6.52152866,173.784178 C5.56382166,175.809422 3.78522293,178.084978 5.00515924,180.371911 C8.69917197,188.905244 14.7304459,196.369067 21.730828,202.456178 C34.01,212.707556 49.5157325,217.736533 62.9350318,226.178844 C73.2417834,232.641422 81.7699363,241.413689 89.9218471,250.311111 C95.827707,242.938311 102.360637,235.975111 110.124904,230.513778 C121.423567,222.025956 135.207707,217.964089 147.179045,210.614044 C159.264395,204.0832 169.297516,193.547378 174.416688,180.758756 C176.104076,177.334044 172.900318,174.262044 171.497962,171.372089 C163.277643,158.4128 157.508599,144.110933 153.096306,129.479111 C148.75242,114.130489 149.254076,96.8704 156.835924,82.5912889 C158.169873,80.3384889 160.860573,76.8227556 163.745096,78.7911111 C166.857643,79.9744 169.400127,83.1146667 172.923121,82.8302222 C177.038981,80.4750222 174.496497,75.4915556 171.999618,72.9770667 C161.407834,61.5082667 150.36,50.3466667 138.092229,40.6414222 C131.92414,44.3733333 125.984076,48.4579556 119.804586,52.1671111 C113.761911,47.8663111 107.126369,43.9864889 99.6699363,42.9169778 C89.8534395,41.5857778 79.3984713,41.8929778 70.3800637,46.3758222 C67.0052866,47.9118222 64.1207643,50.4035556 60.609172,51.6551111 C54.1218471,48.4352 48.4212102,43.8158222 42.1049045,40.2659556 C30.0765605,49.5843556 19.2909554,60.3591111 8.56235669,71.1224889 Z" id="Shape"></path>
                <path d="M60.0163057,61.0304 C69.228535,53.2252444 81.2226752,48.0711111 93.4904459,49.2885333 C103.37535,49.6981333 112.211338,54.8522667 119.496752,61.2124444 C125.379809,57.5374222 130.795414,53.0887111 136.963503,49.8915556 C144.066497,54.1582222 149.242675,60.9735111 155.615987,66.2072889 C149.37949,77.8126222 143.929682,90.2371556 143.097389,103.549156 C142.550127,114.847289 144.328726,126.213689 147.94293,136.920178 C152.127197,149.481244 157.234968,161.803378 163.995924,173.215289 C164.885223,174.887822 165.945541,176.548978 166.207771,178.460444 C164.155541,183.534933 160.450127,187.756089 156.858726,191.806578 C147.49828,201.989689 134.06758,206.529422 122.198854,212.957867 C113.773312,217.588622 105.005732,221.934933 97.9711465,228.602311 C95.1892357,231.139556 92.7265605,234.029511 89.7850318,236.396089 C87.6757962,235.383467 86.1252229,233.597156 84.4948408,231.992889 C78.0873248,225.268622 70.1292357,220.296533 62.193949,215.586133 C48.2159873,207.872 32.1515924,202.660978 21.2861783,190.372978 C18.0824204,186.413511 14.3656051,182.4768 12.8606369,177.504711 C14.3884076,172.373333 17.6263694,167.958756 19.7698089,163.077689 C27.8647134,146.170311 35.0019108,128.170667 35.6403822,109.226667 C35.6859873,101.239467 35.0475159,93.1612444 32.9952866,85.4129778 C31.1026752,78.7456 27.0096178,73.0339556 23.5094268,67.1402667 C29.8599363,61.1555556 36.1876433,55.1253333 43.0626115,49.7322667 C48.7176433,53.4983111 54.281465,57.3895111 60.0163057,61.0304 Z M120.625478,94.1624889 C111.059809,106.678044 100.946879,118.761244 91.0733758,131.026489 C92.7151592,132.983467 94.3569427,134.940444 95.9873248,136.9088 C104.401465,127.761067 111.892102,117.805511 119.987006,108.361956 C123.373185,104.152178 127.101401,100.204089 130.065732,95.6757333 C132.471401,91.9779556 132.414395,87.4040889 132.870446,83.1829333 C133.201083,78.0515556 134.500828,73.0567111 135.424331,68.0049778 C126.041083,73.7735111 127.135605,86.2776889 120.625478,94.1624889 Z M44.5561783,68.9379556 C45.6392994,75.4915556 46.7338217,82.0451556 47.2582803,88.6670222 C47.4635032,93.0133333 49.7551592,96.8135111 52.5256688,100.033422 C62.8552229,112.412444 73.1505732,124.8256 83.5143312,137.193244 C85.0991083,134.872178 86.7978981,132.630756 88.6107006,130.480356 C79.5238854,119.307378 70.1178344,108.396089 60.9626115,97.28 C56.4705096,91.9552 53.9394268,85.3902222 52.035414,78.7683556 C50.9408917,74.6154667 48.0221656,71.3500444 44.5561783,68.9379556 Z M83.5827389,69.5523556 C81.9295541,80.4067556 78.5319745,90.8856889 76.263121,101.614933 C78.1215287,101.603556 79.9799363,101.5808 81.8383439,101.569422 C82.4540127,97.8261333 83.2292994,94.1169778 84.1414013,90.4305778 C87.1399363,91.5569778 90.3208917,91.5569778 93.330828,90.4533333 C93.9236943,94.1624889 94.4823567,97.8716444 94.9498089,101.603556 C97.6633121,101.626311 100.365414,101.649067 103.078917,101.637689 C100.764459,90.9653333 97.8571338,80.4067556 96.4889809,69.5637333 C92.1907006,69.5523556 87.8924204,69.5523556 83.5827389,69.5523556 Z M46.6540127,121.662578 C42.3101274,123.892622 41.2726115,129.877333 43.7352866,133.859556 C46.5057962,138.717867 52.1494268,140.765867 55.5812102,145.009778 C57.0405732,147.023644 54.908535,149.310578 54.4638854,151.324444 C51.91,150.766933 48.9342675,150.823822 46.9390446,148.900978 C44.8412102,146.875733 43.3020382,144.384 41.5690446,142.074311 C41.5348408,145.624178 41.5120382,149.185422 41.4322293,152.735289 C47.1784713,151.665778 52.2292357,157.115733 57.9184713,154.7264 C64.4171975,152.814933 65.5003185,143.689956 61.2134395,139.150222 C57.8842675,135.179378 52.2748408,133.586489 49.5955414,129.058133 C48.1703822,126.225067 51.5907643,123.539911 54.2586624,124.563911 C57.2914013,125.724444 59.195414,128.568889 61.4300637,130.7648 C61.3046497,127.908978 61.1906369,125.053156 61.0994268,122.197333 C56.3792994,121.435022 51.203121,119.079822 46.6540127,121.662578 Z M115.597516,121.924267 C116.076369,132.562489 116.133376,143.234844 115.529108,153.861689 C117.991783,153.895822 120.454459,153.918578 122.928535,153.941333 C122.643503,149.640533 122.620701,145.248711 124.068662,141.129956 C126.816369,145.169067 129.028217,149.526756 131.20586,153.895822 C133.588726,153.895822 135.971592,153.884444 138.354459,153.850311 C135.686561,147.501511 131.65051,141.778489 129.279045,135.315911 C130.909427,130.412089 134.512229,126.464 136.952102,121.947022 C135.127898,121.969778 133.303694,121.992533 131.47949,122.015289 C129.108025,126.577778 126.417325,130.980978 123.053949,134.894933 C122.734713,130.571378 122.768917,126.247822 122.905732,121.924267 C120.46586,121.935644 118.037389,121.935644 115.597516,121.924267 Z M90.5375159,135.7824 C87.960828,136.487822 87.6073885,139.730489 88.0634395,141.937778 C89.5912102,145.464889 92.6923567,147.956622 95.0980255,150.857956 C108.038471,165.751467 120.853503,180.758756 133.782548,195.663644 C135.344522,193.786311 136.963503,191.943111 138.27465,189.872356 C136.826688,186.561422 134.15879,184.035556 131.867134,181.327644 C119.542357,167.048533 107.4,152.621511 95.2234395,138.217244 C93.912293,137.045333 92.5783439,134.815289 90.5375159,135.7824 Z M83.5827389,139.901156 C69.5705732,156.592356 55.2163694,172.999111 41.2498089,189.724444 C42.9714013,191.658667 44.6815924,193.604267 46.4031847,195.549867 C60.5635669,178.904178 74.9063694,162.429156 88.8957325,145.646933 C87.1057325,143.746844 85.3499363,141.824 83.5827389,139.901156 Z M64.1663694,186.618311 C68.6242675,191.169422 66.5834395,197.882311 67.3815287,203.559822 C68.5330573,203.241244 69.684586,202.922667 70.8361146,202.604089 C70.8703185,195.538489 71.2123567,188.438756 70.4028662,181.407289 C68.1910191,182.977422 66.1159873,184.7296 64.1663694,186.618311 Z M76.9585987,182.454044 C74.0854777,184.069689 75.5790446,187.756089 75.8070701,190.327467 C76.513949,193.547378 74.222293,196.539733 74.6441401,199.736889 C76.0008917,204.834133 84.7456688,204.754489 86.1594268,199.725511 C87.003121,196.482844 84.255414,193.513244 84.9166879,190.270578 C84.9736943,187.847111 86.5242675,184.979911 84.6088535,182.931911 C82.5566242,181.031822 79.2844586,181.100089 76.9585987,182.454044 Z M91.7916561,182.488178 C88.9071338,185.230222 91.3128025,189.314844 90.8453503,192.705422 C90.6287261,195.675022 88.4510828,199.054222 90.7769427,201.705244 C93.4904459,204.663467 99.9549682,204.0832 101.140701,199.839289 C101.779172,196.380444 99.4875159,193.080889 100.14879,189.599289 C100.171592,187.346489 101.391529,184.684089 99.5673248,182.818133 C97.3782803,181.077333 94.1517197,181.134222 91.7916561,182.488178 Z M105.188153,193.012622 C107.057962,194.844444 109.919682,194.958222 112.291146,195.800178 C111.823694,196.9152 111.356242,198.030222 110.877389,199.145244 C108.779554,200.100978 104.857516,199.497956 104.789108,202.592711 C107.468408,203.593956 111.128217,204.208356 113.112038,201.591467 C115.996561,197.654756 115.985159,192.341333 115.392293,187.6992 C115.038854,184.684089 112.941019,181.1456 109.452229,181.498311 C104.082229,181.873778 102.611465,189.155556 105.188153,193.012622 Z" id="Shape"></path>
                <path d="M87.6757962,76.3904 C88.416879,76.5269333 89.8876433,76.7886222 90.6287261,76.9251556 C91.1987898,79.9744 91.7574522,83.0236444 92.2933121,86.0842667 C89.9788535,86.1070222 87.6643949,86.1184 85.3499363,86.1184 C85.9770064,82.8416 86.7408917,79.5875556 87.6757962,76.3904 Z" id="Shape"></path>
                <path d="M79.7291083,190.646044 C77.1296178,188.233956 78.7714013,185.480533 81.0174522,183.625956 C82.1233758,185.992533 83.4687261,189.883733 79.7291083,190.646044 Z" id="Shape"></path>
                <path d="M95.5540764,191.158044 C93.3650318,189.383111 93.5246497,186.88 94.1403185,184.411022 C95.4856688,185.1392 96.8424204,185.878756 98.199172,186.618311 C97.3212739,188.131556 96.4547771,189.6448 95.5540764,191.158044 Z" id="Shape"></path>
                <path d="M111.994713,191.670044 C107.502611,192.512 106.009045,187.164444 109.395223,184.684089 C112.541975,185.503289 111.766688,189.212444 111.994713,191.670044 Z" id="Shape"></path>
                <path d="M79.8203185,192.7168 C82.4540127,194.525867 84.8026752,198.747022 80.8236306,200.578844 C76.5253503,199.918933 78.0645223,195.094756 79.8203185,192.7168 Z" id="Shape"></path>
                <path d="M94.7103822,192.773689 C96.1013376,194.423467 98.6552229,196.039111 97.5949045,198.5536 C97.0134395,200.965689 93.3764331,200.078222 93.2738217,197.905067 C93.3764331,196.107378 94.2201274,194.468978 94.7103822,192.773689 Z" id="Shape"></path>
            </g>
        </g>
    </g>
</svg>