<?xml version="1.0" encoding="UTF-8" ?>
<!DOCTYPE svg PUBLIC "-//W3C//DTD SVG 1.1//EN" "http://www.w3.org/Graphics/SVG/1.1/DTD/svg11.dtd">
<svg width="176pt" height="227pt" viewBox="0 0 176 227" version="1.1" xmlns="http://www.w3.org/2000/svg">
<g id="#fefffeff">
<path fill="#fefffe" opacity="1.00" d=" M 86.44 12.62 C 85.80 9.84 88.26 7.86 89.65 5.80 C 89.89 12.62 89.91 19.45 89.67 26.28 C 88.34 21.79 87.09 17.26 86.44 12.62 Z" />
<path fill="#fefffe" opacity="1.00" d=" M 91.47 5.80 C 92.75 7.70 95.10 9.39 94.81 11.93 C 94.28 17.11 92.73 22.13 91.41 27.15 C 91.38 20.03 91.32 12.91 91.47 5.80 Z" />
<path fill="#fefffe" opacity="1.00" d=" M 79.52 10.26 C 81.22 10.57 82.93 10.89 84.64 11.22 C 86.00 16.82 87.44 22.42 88.04 28.17 C 84.64 22.49 81.81 16.47 79.52 10.26 Z" />
<path fill="#fefffe" opacity="1.00" d=" M 96.55 11.36 C 98.40 10.97 100.27 10.59 102.13 10.22 C 99.33 16.32 96.61 22.49 93.08 28.21 C 93.75 22.51 95.23 16.94 96.55 11.36 Z" />
<path fill="#fefffe" opacity="1.00" d=" M 72.98 21.72 C 74.60 20.86 76.23 20.01 77.86 19.17 C 81.11 22.80 84.45 26.45 86.54 30.91 C 81.66 28.41 77.33 25.02 72.98 21.72 Z" />
<path fill="#fefffe" opacity="1.00" d=" M 103.25 19.25 C 104.89 19.99 106.52 20.75 108.15 21.51 C 104.08 25.24 99.45 28.32 94.57 30.87 C 96.80 26.54 100.05 22.88 103.25 19.25 Z" />
<path fill="#fefffe" opacity="1.00" d=" M 75.05 29.34 C 78.74 30.41 82.50 31.55 85.62 33.89 C 81.02 34.52 76.37 34.41 71.76 34.17 C 72.84 32.55 73.94 30.95 75.05 29.34 Z" />
<path fill="#fefffe" opacity="1.00" d=" M 85.66 34.59 C 86.75 32.34 87.69 28.79 90.90 29.20 C 93.89 29.18 94.61 32.44 95.51 34.64 C 92.23 34.72 88.94 34.70 85.66 34.59 Z" />
<path fill="#fefffe" opacity="1.00" d=" M 95.54 33.66 C 98.79 31.58 102.45 30.31 106.11 29.16 C 107.18 30.81 108.34 32.41 109.38 34.09 C 104.76 34.35 100.12 34.38 95.54 33.66 Z" />
<path fill="#fefffe" opacity="1.00" d=" M 19.51 63.51 C 28.92 54.05 38.38 44.58 48.93 36.39 C 54.47 39.51 59.47 43.57 65.16 46.40 C 68.24 45.30 70.77 43.11 73.73 41.76 C 81.64 37.82 90.81 37.55 99.42 38.72 C 105.96 39.66 111.78 43.07 117.08 46.85 C 122.50 43.59 127.71 40.00 133.12 36.72 C 143.88 45.25 153.57 55.06 162.86 65.14 C 165.05 67.35 167.28 71.73 163.67 73.80 C 160.58 74.05 158.35 71.29 155.62 70.25 C 153.09 68.52 150.73 71.61 149.56 73.59 C 142.91 86.14 142.47 101.31 146.28 114.80 C 150.15 127.66 155.21 140.23 162.42 151.62 C 163.65 154.16 166.46 156.86 164.98 159.87 C 160.49 171.11 151.69 180.37 141.09 186.11 C 130.59 192.57 118.50 196.14 108.59 203.60 C 101.78 208.40 96.05 214.52 90.87 221.00 C 83.72 213.18 76.24 205.47 67.20 199.79 C 55.43 192.37 41.83 187.95 31.06 178.94 C 24.92 173.59 19.63 167.03 16.39 159.53 C 15.32 157.52 16.88 155.52 17.72 153.74 C 25.22 141.00 31.33 127.35 35.05 113.01 C 37.16 105.20 37.02 97.02 36.73 89.00 C 36.54 83.15 34.47 77.51 31.51 72.52 C 30.48 70.85 29.15 69.00 27.00 68.86 C 23.92 69.81 21.70 72.33 18.79 73.63 C 16.75 74.33 15.35 71.74 15.29 70.01 C 15.67 67.36 17.82 65.43 19.51 63.51 M 64.64 54.64 C 59.61 51.44 54.73 48.02 49.77 44.71 C 43.74 49.45 38.19 54.75 32.62 60.01 C 35.69 65.19 39.28 70.21 40.94 76.07 C 42.74 82.88 43.30 89.98 43.26 97.00 C 42.70 113.65 36.44 129.47 29.34 144.33 C 27.46 148.62 24.62 152.50 23.28 157.01 C 24.60 161.38 27.86 164.84 30.67 168.32 C 40.20 179.12 54.29 183.70 66.55 190.48 C 73.51 194.62 80.49 198.99 86.11 204.90 C 87.54 206.31 88.90 207.88 90.75 208.77 C 93.33 206.69 95.49 204.15 97.93 201.92 C 104.10 196.06 111.79 192.24 119.18 188.17 C 129.59 182.52 141.37 178.53 149.58 169.58 C 152.73 166.02 155.98 162.31 157.78 157.85 C 157.55 156.17 156.62 154.71 155.84 153.24 C 149.91 143.21 145.43 132.38 141.76 121.34 C 138.59 111.93 137.03 101.94 137.51 92.01 C 138.24 80.31 143.02 69.39 148.49 59.19 C 142.90 54.59 138.36 48.60 132.13 44.85 C 126.72 47.66 121.97 51.57 116.81 54.80 C 110.42 49.21 102.67 44.68 94.00 44.32 C 83.24 43.25 72.72 47.78 64.64 54.64 Z" />
<path fill="#fefffe" opacity="1.00" d=" M 117.80 83.76 C 123.51 76.83 122.55 65.84 130.78 60.77 C 129.97 65.21 128.83 69.60 128.54 74.11 C 128.14 77.82 128.19 81.84 126.08 85.09 C 123.48 89.07 120.21 92.54 117.24 96.24 C 110.14 104.54 103.57 113.29 96.19 121.33 C 94.76 119.60 93.32 117.88 91.88 116.16 C 100.54 105.38 109.41 94.76 117.80 83.76 Z" />
<path fill="#fefffe" opacity="1.00" d=" M 51.08 61.59 C 54.12 63.71 56.68 66.58 57.64 70.23 C 59.31 76.05 61.53 81.82 65.47 86.50 C 73.50 96.27 81.75 105.86 89.72 115.68 C 88.13 117.57 86.64 119.54 85.25 121.58 C 76.16 110.71 67.13 99.80 58.07 88.92 C 55.64 86.09 53.63 82.75 53.45 78.93 C 52.99 73.11 52.03 67.35 51.08 61.59 Z" />
<path fill="#fefffe" opacity="1.00" d=" M 85.31 62.13 C 89.09 62.13 92.86 62.13 96.63 62.14 C 97.83 71.67 100.38 80.95 102.41 90.33 C 100.03 90.34 97.66 90.32 95.28 90.30 C 94.87 87.02 94.38 83.76 93.86 80.50 C 91.22 81.47 88.43 81.47 85.80 80.48 C 85.00 83.72 84.32 86.98 83.78 90.27 C 82.15 90.28 80.52 90.30 78.89 90.31 C 80.88 80.88 83.86 71.67 85.31 62.13 M 88.90 68.14 C 88.08 70.95 87.41 73.81 86.86 76.69 C 88.89 76.69 90.92 76.68 92.95 76.66 C 92.48 73.97 91.99 71.29 91.49 68.61 C 90.84 68.49 89.55 68.26 88.90 68.14 Z" />
<path fill="#fefffe" opacity="1.00" d=" M 52.92 107.93 C 56.91 105.66 61.45 107.73 65.59 108.40 C 65.67 110.91 65.77 113.42 65.88 115.93 C 63.92 114.00 62.25 111.50 59.59 110.48 C 57.25 109.58 54.25 111.94 55.50 114.43 C 57.85 118.41 62.77 119.81 65.69 123.30 C 69.45 127.29 68.50 135.31 62.80 136.99 C 57.81 139.09 53.38 134.30 48.34 135.24 C 48.41 132.12 48.43 128.99 48.46 125.87 C 49.98 127.90 51.33 130.09 53.17 131.87 C 54.92 133.56 57.53 133.51 59.77 134.00 C 60.16 132.23 62.03 130.22 60.75 128.45 C 57.74 124.72 52.79 122.92 50.36 118.65 C 48.20 115.15 49.11 109.89 52.92 107.93 Z" />
<path fill="#fefffe" opacity="1.00" d=" M 113.39 108.16 C 115.53 108.17 117.66 108.17 119.80 108.16 C 119.68 111.96 119.65 115.76 119.93 119.56 C 122.88 116.12 125.24 112.25 127.32 108.24 C 128.92 108.22 130.52 108.20 132.12 108.18 C 129.98 112.15 126.82 115.62 125.39 119.93 C 127.47 125.61 131.01 130.64 133.35 136.22 C 131.26 136.25 129.17 136.26 127.08 136.26 C 125.17 132.42 123.23 128.59 120.82 125.04 C 119.55 128.66 119.57 132.52 119.82 136.30 C 117.65 136.28 115.49 136.26 113.33 136.23 C 113.86 126.89 113.81 117.51 113.39 108.16 Z" />
<path fill="#fefffe" opacity="1.00" d=" M 91.41 120.34 C 93.20 119.49 94.37 121.45 95.52 122.48 C 106.20 135.14 116.85 147.82 127.66 160.37 C 129.67 162.75 132.01 164.97 133.28 167.88 C 132.13 169.70 130.71 171.32 129.34 172.97 C 118.00 159.87 106.76 146.68 95.41 133.59 C 93.30 131.04 90.58 128.85 89.24 125.75 C 88.84 123.81 89.15 120.96 91.41 120.34 Z" />
<path fill="#fefffe" opacity="1.00" d=" M 85.31 123.96 C 86.86 125.65 88.40 127.34 89.97 129.01 C 77.70 143.76 65.12 158.24 52.70 172.87 C 51.19 171.16 49.69 169.45 48.18 167.75 C 60.43 153.05 73.02 138.63 85.31 123.96 Z" />
<path fill="#fefffe" opacity="1.00" d=" M 68.28 165.02 C 69.99 163.36 71.81 161.82 73.75 160.44 C 74.46 166.62 74.16 172.86 74.13 179.07 C 73.12 179.35 72.11 179.63 71.10 179.91 C 70.40 174.92 72.19 169.02 68.28 165.02 Z" />
<path fill="#fefffe" opacity="1.00" d=" M 79.50 161.36 C 81.54 160.17 84.41 160.11 86.21 161.78 C 87.89 163.58 86.53 166.10 86.48 168.23 C 85.90 171.08 88.31 173.69 87.57 176.54 C 86.33 180.96 78.66 181.03 77.47 176.55 C 77.10 173.74 79.11 171.11 78.49 168.28 C 78.29 166.02 76.98 162.78 79.50 161.36 M 81.93 168.56 C 85.21 167.89 84.03 164.47 83.06 162.39 C 81.09 164.02 79.65 166.44 81.93 168.56 M 82.01 170.38 C 80.47 172.47 79.12 176.71 82.89 177.29 C 86.38 175.68 84.32 171.97 82.01 170.38 Z" />
<path fill="#fefffe" opacity="1.00" d=" M 92.51 161.39 C 94.58 160.20 97.41 160.15 99.33 161.68 C 100.93 163.32 99.86 165.66 99.84 167.64 C 99.26 170.70 101.27 173.60 100.71 176.64 C 99.67 180.37 94.00 180.88 91.62 178.28 C 89.58 175.95 91.49 172.98 91.68 170.37 C 92.09 167.39 89.98 163.80 92.51 161.39 M 95.81 169.01 C 96.60 167.68 97.36 166.35 98.13 165.02 C 96.94 164.37 95.75 163.72 94.57 163.08 C 94.03 165.25 93.89 167.45 95.81 169.01 M 95.07 170.43 C 94.64 171.92 93.90 173.36 93.81 174.94 C 93.90 176.85 97.09 177.63 97.60 175.51 C 98.53 173.30 96.29 171.88 95.07 170.43 Z" />
<path fill="#fefffe" opacity="1.00" d=" M 104.26 170.64 C 102.00 167.25 103.29 160.85 108.00 160.52 C 111.06 160.21 112.90 163.32 113.21 165.97 C 113.73 170.05 113.74 174.72 111.21 178.18 C 109.47 180.48 106.26 179.94 103.91 179.06 C 103.97 176.34 107.41 176.87 109.25 176.03 C 109.67 175.05 110.08 174.07 110.49 173.09 C 108.41 172.35 105.90 172.25 104.26 170.64 M 110.23 169.46 C 110.03 167.30 110.71 164.04 107.95 163.32 C 104.98 165.50 106.29 170.20 110.23 169.46 Z" />
</g>
<g id="#04277aff">
<path fill="#04277a" opacity="1.00" d=" M 84.92 8.34 C 86.79 5.92 88.70 3.53 90.66 1.19 C 92.68 3.62 94.31 6.55 97.06 8.24 C 99.42 8.47 101.79 8.25 104.16 8.18 C 104.39 11.14 104.21 14.19 105.08 17.06 C 106.81 18.52 108.90 19.45 110.86 20.55 C 110.20 23.26 109.06 25.95 109.19 28.78 C 109.80 30.72 111.01 32.40 112.02 34.14 C 111.37 35.55 110.70 36.95 110.03 38.35 C 112.41 39.87 114.80 41.38 117.18 42.90 C 122.43 40.02 127.08 36.14 132.42 33.43 C 133.82 32.64 135.06 34.16 136.14 34.84 C 146.03 43.24 155.28 52.39 164.14 61.87 C 166.58 64.60 169.17 68.07 168.32 71.95 C 167.77 74.79 165.31 77.91 162.11 77.34 C 159.02 76.30 156.34 74.37 153.46 72.89 C 146.02 84.82 145.16 99.93 148.86 113.26 C 152.79 126.34 158.00 139.10 165.34 150.66 C 166.90 153.53 169.81 156.65 168.06 160.10 C 163.51 172.30 154.25 182.54 142.91 188.84 C 132.56 195.10 120.81 198.82 110.93 205.88 C 102.99 211.22 96.76 218.54 90.83 225.93 C 82.79 216.38 73.90 207.27 62.98 201.02 C 51.31 194.48 38.44 189.69 28.30 180.72 C 21.74 174.72 16.12 167.41 12.97 159.05 C 12.04 157.04 13.50 155.14 14.38 153.43 C 21.45 141.74 27.22 129.23 31.18 116.15 C 34.21 106.22 34.86 95.64 33.42 85.38 C 32.63 80.42 30.18 75.90 27.17 71.93 C 24.28 73.91 21.65 76.79 18.04 77.31 C 13.37 76.51 10.88 70.26 13.36 66.32 C 14.90 63.64 17.15 61.48 19.29 59.29 C 28.74 49.91 38.17 40.42 48.87 32.44 C 54.33 35.89 59.74 39.43 65.22 42.84 C 67.22 41.62 69.22 40.39 71.22 39.17 C 70.48 37.48 69.74 35.80 69.00 34.11 C 70.25 32.32 71.49 30.53 72.75 28.75 C 71.91 25.98 71.05 23.22 70.24 20.45 C 72.27 19.40 74.30 18.34 76.34 17.30 C 76.61 14.25 76.87 11.20 77.16 8.16 C 79.75 8.22 82.33 8.30 84.92 8.34 M 86.44 12.62 C 87.09 17.26 88.34 21.79 89.67 26.28 C 89.91 19.45 89.89 12.62 89.65 5.80 C 88.26 7.86 85.80 9.84 86.44 12.62 M 91.47 5.80 C 91.32 12.91 91.38 20.03 91.41 27.15 C 92.73 22.13 94.28 17.11 94.81 11.93 C 95.10 9.39 92.75 7.70 91.47 5.80 M 79.52 10.26 C 81.81 16.47 84.64 22.49 88.04 28.17 C 87.44 22.42 86.00 16.82 84.64 11.22 C 82.93 10.89 81.22 10.57 79.52 10.26 M 96.55 11.36 C 95.23 16.94 93.75 22.51 93.08 28.21 C 96.61 22.49 99.33 16.32 102.13 10.22 C 100.27 10.59 98.40 10.97 96.55 11.36 M 72.98 21.72 C 77.33 25.02 81.66 28.41 86.54 30.91 C 84.45 26.45 81.11 22.80 77.86 19.17 C 76.23 20.01 74.60 20.86 72.98 21.72 M 103.25 19.25 C 100.05 22.88 96.80 26.54 94.57 30.87 C 99.45 28.32 104.08 25.24 108.15 21.51 C 106.52 20.75 104.89 19.99 103.25 19.25 M 75.05 29.34 C 73.94 30.95 72.84 32.55 71.76 34.17 C 76.37 34.41 81.02 34.52 85.62 33.89 C 82.50 31.55 78.74 30.41 75.05 29.34 M 85.66 34.59 C 88.94 34.70 92.23 34.72 95.51 34.64 C 94.61 32.44 93.89 29.18 90.90 29.20 C 87.69 28.79 86.75 32.34 85.66 34.59 M 95.54 33.66 C 100.12 34.38 104.76 34.35 109.38 34.09 C 108.34 32.41 107.18 30.81 106.11 29.16 C 102.45 30.31 98.79 31.58 95.54 33.66 M 19.51 63.51 C 17.82 65.43 15.67 67.36 15.29 70.01 C 15.35 71.74 16.75 74.33 18.79 73.63 C 21.70 72.33 23.92 69.81 27.00 68.86 C 29.15 69.00 30.48 70.85 31.51 72.52 C 34.47 77.51 36.54 83.15 36.73 89.00 C 37.02 97.02 37.16 105.20 35.05 113.01 C 31.33 127.35 25.22 141.00 17.72 153.74 C 16.88 155.52 15.32 157.52 16.39 159.53 C 19.63 167.03 24.92 173.59 31.06 178.94 C 41.83 187.95 55.43 192.37 67.20 199.79 C 76.24 205.47 83.72 213.18 90.87 221.00 C 96.05 214.52 101.78 208.40 108.59 203.60 C 118.50 196.14 130.59 192.57 141.09 186.11 C 151.69 180.37 160.49 171.11 164.98 159.87 C 166.46 156.86 163.65 154.16 162.42 151.62 C 155.21 140.23 150.15 127.66 146.28 114.80 C 142.47 101.31 142.91 86.14 149.56 73.59 C 150.73 71.61 153.09 68.52 155.62 70.25 C 158.35 71.29 160.58 74.05 163.67 73.80 C 167.28 71.73 165.05 67.35 162.86 65.14 C 153.57 55.06 143.88 45.25 133.12 36.72 C 127.71 40.00 122.50 43.59 117.08 46.85 C 111.78 43.07 105.96 39.66 99.42 38.72 C 90.81 37.55 81.64 37.82 73.73 41.76 C 70.77 43.11 68.24 45.30 65.16 46.40 C 59.47 43.57 54.47 39.51 48.93 36.39 C 38.38 44.58 28.92 54.05 19.51 63.51 Z" />
<path fill="#04277a" opacity="1.00" d=" M 64.64 54.64 C 72.72 47.78 83.24 43.25 94.00 44.32 C 102.67 44.68 110.42 49.21 116.81 54.80 C 121.97 51.57 126.72 47.66 132.13 44.85 C 138.36 48.60 142.90 54.59 148.49 59.19 C 143.02 69.39 138.24 80.31 137.51 92.01 C 137.03 101.94 138.59 111.93 141.76 121.34 C 145.43 132.38 149.91 143.21 155.84 153.24 C 156.62 154.71 157.55 156.17 157.78 157.85 C 155.98 162.31 152.73 166.02 149.58 169.58 C 141.37 178.53 129.59 182.52 119.18 188.17 C 111.79 192.24 104.10 196.06 97.93 201.92 C 95.49 204.15 93.33 206.69 90.75 208.77 C 88.90 207.88 87.54 206.31 86.11 204.90 C 80.49 198.99 73.51 194.62 66.55 190.48 C 54.29 183.70 40.20 179.12 30.67 168.32 C 27.86 164.84 24.60 161.38 23.28 157.01 C 24.62 152.50 27.46 148.62 29.34 144.33 C 36.44 129.47 42.70 113.65 43.26 97.00 C 43.30 89.98 42.74 82.88 40.94 76.07 C 39.28 70.21 35.69 65.19 32.62 60.01 C 38.19 54.75 43.74 49.45 49.77 44.71 C 54.73 48.02 59.61 51.44 64.64 54.64 M 117.80 83.76 C 109.41 94.76 100.54 105.38 91.88 116.16 C 93.32 117.88 94.76 119.60 96.19 121.33 C 103.57 113.29 110.14 104.54 117.24 96.24 C 120.21 92.54 123.48 89.07 126.08 85.09 C 128.19 81.84 128.14 77.82 128.54 74.11 C 128.83 69.60 129.97 65.21 130.78 60.77 C 122.55 65.84 123.51 76.83 117.80 83.76 M 51.08 61.59 C 52.03 67.35 52.99 73.11 53.45 78.93 C 53.63 82.75 55.64 86.09 58.07 88.92 C 67.13 99.80 76.16 110.71 85.25 121.58 C 86.64 119.54 88.13 117.57 89.72 115.68 C 81.75 105.86 73.50 96.27 65.47 86.50 C 61.53 81.82 59.31 76.05 57.64 70.23 C 56.68 66.58 54.12 63.71 51.08 61.59 M 85.31 62.13 C 83.86 71.67 80.88 80.88 78.89 90.31 C 80.52 90.30 82.15 90.28 83.78 90.27 C 84.32 86.98 85.00 83.72 85.80 80.48 C 88.43 81.47 91.22 81.47 93.86 80.50 C 94.38 83.76 94.87 87.02 95.28 90.30 C 97.66 90.32 100.03 90.34 102.41 90.33 C 100.38 80.95 97.83 71.67 96.63 62.14 C 92.86 62.13 89.09 62.13 85.31 62.13 M 52.92 107.93 C 49.11 109.89 48.20 115.15 50.36 118.65 C 52.79 122.92 57.74 124.72 60.75 128.45 C 62.03 130.22 60.16 132.23 59.77 134.00 C 57.53 133.51 54.92 133.56 53.17 131.87 C 51.33 130.09 49.98 127.90 48.46 125.87 C 48.43 128.99 48.41 132.12 48.34 135.24 C 53.38 134.30 57.81 139.09 62.80 136.99 C 68.50 135.31 69.45 127.29 65.69 123.30 C 62.77 119.81 57.85 118.41 55.50 114.43 C 54.25 111.94 57.25 109.58 59.59 110.48 C 62.25 111.50 63.92 114.00 65.88 115.93 C 65.77 113.42 65.67 110.91 65.59 108.40 C 61.45 107.73 56.91 105.66 52.92 107.93 M 113.39 108.16 C 113.81 117.51 113.86 126.89 113.33 136.23 C 115.49 136.26 117.65 136.28 119.82 136.30 C 119.57 132.52 119.55 128.66 120.82 125.04 C 123.23 128.59 125.17 132.42 127.08 136.26 C 129.17 136.26 131.26 136.25 133.35 136.22 C 131.01 130.64 127.47 125.61 125.39 119.93 C 126.82 115.62 129.98 112.15 132.12 108.18 C 130.52 108.20 128.92 108.22 127.32 108.24 C 125.24 112.25 122.88 116.12 119.93 119.56 C 119.65 115.76 119.68 111.96 119.80 108.16 C 117.66 108.17 115.53 108.17 113.39 108.16 M 91.41 120.34 C 89.15 120.96 88.84 123.81 89.24 125.75 C 90.58 128.85 93.30 131.04 95.41 133.59 C 106.76 146.68 118.00 159.87 129.34 172.97 C 130.71 171.32 132.13 169.70 133.28 167.88 C 132.01 164.97 129.67 162.75 127.66 160.37 C 116.85 147.82 106.20 135.14 95.52 122.48 C 94.37 121.45 93.20 119.49 91.41 120.34 M 85.31 123.96 C 73.02 138.63 60.43 153.05 48.18 167.75 C 49.69 169.45 51.19 171.16 52.70 172.87 C 65.12 158.24 77.70 143.76 89.97 129.01 C 88.40 127.34 86.86 125.65 85.31 123.96 M 68.28 165.02 C 72.19 169.02 70.40 174.92 71.10 179.91 C 72.11 179.63 73.12 179.35 74.13 179.07 C 74.16 172.86 74.46 166.62 73.75 160.44 C 71.81 161.82 69.99 163.36 68.28 165.02 M 79.50 161.36 C 76.98 162.78 78.29 166.02 78.49 168.28 C 79.11 171.11 77.10 173.74 77.47 176.55 C 78.66 181.03 86.33 180.96 87.57 176.54 C 88.31 173.69 85.90 171.08 86.48 168.23 C 86.53 166.10 87.89 163.58 86.21 161.78 C 84.41 160.11 81.54 160.17 79.50 161.36 M 92.51 161.39 C 89.98 163.80 92.09 167.39 91.68 170.37 C 91.49 172.98 89.58 175.95 91.62 178.28 C 94.00 180.88 99.67 180.37 100.71 176.64 C 101.27 173.60 99.26 170.70 99.84 167.64 C 99.86 165.66 100.93 163.32 99.33 161.68 C 97.41 160.15 94.58 160.20 92.51 161.39 M 104.26 170.64 C 105.90 172.25 108.41 172.35 110.49 173.09 C 110.08 174.07 109.67 175.05 109.25 176.03 C 107.41 176.87 103.97 176.34 103.91 179.06 C 106.26 179.94 109.47 180.48 111.21 178.18 C 113.74 174.72 113.73 170.05 113.21 165.97 C 112.90 163.32 111.06 160.21 108.00 160.52 C 103.29 160.85 102.00 167.25 104.26 170.64 Z" />
<path fill="#04277a" opacity="1.00" d=" M 88.90 68.14 C 89.55 68.26 90.84 68.49 91.49 68.61 C 91.99 71.29 92.48 73.97 92.95 76.66 C 90.92 76.68 88.89 76.69 86.86 76.69 C 87.41 73.81 88.08 70.95 88.90 68.14 Z" />
<path fill="#04277a" opacity="1.00" d=" M 81.93 168.56 C 79.65 166.44 81.09 164.02 83.06 162.39 C 84.03 164.47 85.21 167.89 81.93 168.56 Z" />
<path fill="#04277a" opacity="1.00" d=" M 95.81 169.01 C 93.89 167.45 94.03 165.25 94.57 163.08 C 95.75 163.72 96.94 164.37 98.13 165.02 C 97.36 166.35 96.60 167.68 95.81 169.01 Z" />
<path fill="#04277a" opacity="1.00" d=" M 110.23 169.46 C 106.29 170.20 104.98 165.50 107.95 163.32 C 110.71 164.04 110.03 167.30 110.23 169.46 Z" />
<path fill="#04277a" opacity="1.00" d=" M 82.01 170.38 C 84.32 171.97 86.38 175.68 82.89 177.29 C 79.12 176.71 80.47 172.47 82.01 170.38 Z" />
<path fill="#04277a" opacity="1.00" d=" M 95.07 170.43 C 96.29 171.88 98.53 173.30 97.60 175.51 C 97.09 177.63 93.90 176.85 93.81 174.94 C 93.90 173.36 94.64 171.92 95.07 170.43 Z" />
</g>
</svg>
