<?xml version="1.0" encoding="UTF-8"?>
<svg width="256px" height="256px" viewBox="0 0 256 256" version="1.1" xmlns="http://www.w3.org/2000/svg" xmlns:xlink="http://www.w3.org/1999/xlink">
    <!-- Generator: Sketch 50.2 (55047) - http://www.bohemiancoding.com/sketch -->
    <title>logo/askim</title>
    <desc>Created with Sketch.</desc>
    <defs></defs>
    <g id="logo/askim" stroke="none" stroke-width="1" fill="none" fill-rule="evenodd">
        <g id="askim" fill-rule="nonzero">
            <g id="#dde348ff" transform="translate(5.976654, 11.906977)" fill="#DDE348">
                <path d="M61.997821,9.32713178 C69.2793774,5.56651163 76.6306615,1.50821705 84.818677,0.148837209 C85.1673152,1.97457364 85.2768872,3.91937984 84.1114397,5.50697674 C81.4319066,9.8827907 78.9615564,14.3776744 76.5011673,18.8725581 C66.1515953,35.2744186 57.1467704,52.4700775 47.3749416,69.2093023 C44.9344747,73.1088372 42.5338521,77.0381395 40.3822568,81.1162791 C31.0188327,97.8058915 20.6493385,113.910078 11.4950973,130.728682 C9.50287938,133.675659 7.70988327,137.773643 3.90474708,138.557519 C1.92249027,136.215814 2.02210117,132.901705 1.53400778,130.024186 C0.488093385,122.115969 0.209182879,114.11845 0.737120623,106.150698 C1.60373541,96.9724031 4.11392996,88.0620155 6.22568093,79.111938 C8.51673152,68.5444961 13.6466926,58.860155 19.1551751,49.652093 C30.2617899,33.3494574 44.5061479,18.7931783 61.997821,9.32713178 Z" id="Shape"></path>
                <path d="M159.616498,0.972403101 C171.788949,3.04620155 183.044981,8.93023256 192.846693,16.2629457 C200.466926,21.3928682 207.379922,27.5547287 213.107549,34.7286822 C219.651984,43.2917829 227.152685,51.4381395 230.917977,61.7178295 C233.736965,69.9336434 237.751284,77.7624806 239.414786,86.3454264 C240.789416,93.2514729 242.761712,100.07814 243.409183,107.113178 C243.797665,118.672868 243.867393,130.500465 240.500545,141.663256 C239.374942,143.945426 236.834864,141.256434 236.167471,139.797829 C225.329805,119.059845 213.197198,98.9965891 202.020856,78.4372093 C194.998288,67.0462016 188.872218,55.1392248 182.287938,43.4902326 C175.464591,32.019845 169.557665,20.0334884 162.535097,8.67224806 C160.971206,6.36031008 160.074708,3.70108527 159.616498,0.972403101 Z" id="Shape"></path>
                <path d="M116.415253,33.3693023 C122.989572,30.3727132 130.809027,33.9249612 134.385058,39.7990698 C141.786148,52.1327132 148.519844,64.8434109 155.661946,77.3258915 C158.162179,81.1063566 161.230195,85.015814 160.293852,89.867907 C152.165603,89.7389147 143.967626,90.4235659 135.899144,89.2031008 C135.76965,85.7004651 135.958911,82.1382946 135.152062,78.7051163 C134.693852,76.1153488 130.540078,74.1506977 129.075798,76.9786047 C127.153307,80.5407752 128.009961,84.8272868 127.511907,88.6970543 C125.290584,88.6772093 123.079222,88.4390698 120.917665,87.9528682 C122.640934,85.2737984 124.961868,82.7336434 125.320467,79.4393798 C126.187082,74.1606202 125.928093,68.7826357 125.957977,63.4542636 C125.918132,60.3088372 125.659144,56.300155 122.431751,54.7026357 C120.658677,54.772093 118.67642,55.6849612 118.457276,57.6496124 C117.251984,64.2778295 118.955331,71.1342636 117.600623,77.7426357 C115.92716,81.6223256 112.590195,84.4700775 109.601868,87.3575194 C105.87642,90.9693023 100.238444,89.4809302 95.5666926,89.8579845 C96.6823346,91.6737984 99.3519066,93.2514729 98.83393,95.6427907 C97.7780545,98.4508527 94.3514397,97.7066667 92.0006226,98.0341085 C92.0404669,95.3351938 92.1699611,92.6263566 92.3592218,89.9274419 C88.9923735,89.3817054 84.5198444,90.8502326 82.0893385,87.8337984 C81.8403113,84.5891473 83.8524514,81.7413953 85.5059922,79.111938 C93.6242802,68.3262016 99.2722179,55.9925581 106.444202,44.6213953 C109.143658,40.4341085 111.225525,35.0065116 116.415253,33.3693023 Z M133.060233,57.2130233 C128.488093,59.2570543 128.1793,65.7066667 130.251206,69.655814 C133.319222,72.9004651 139.275953,72.6027907 141.43751,68.4551938 C145.92,63.3351938 139.096654,55.0796899 133.060233,57.2130233 Z M101.075175,73.704186 C98.1366537,75.7382946 94.4410895,79.9156589 97.4294163,83.3984496 C99.7105058,88.1513178 107.948327,88.052093 109.342879,82.7336434 C111.882957,78.0006202 106.045759,71.1144186 101.075175,73.704186 Z" id="Shape"></path>
                <path d="M133.777432,60.2889922 C137.423191,58.4235659 141.567004,63.7717829 139.176342,66.9370543 C138.030817,68.4353488 135.968872,70.5389147 133.966693,69.2093023 C130.291051,67.7903876 129.424436,61.2812403 133.777432,60.2889922 Z" id="Shape"></path>
                <path d="M43.4502724,92.4378295 C44.2571206,92.5172093 45.8708171,92.675969 46.6776654,92.7652713 C46.3987549,94.3231008 46.9266926,96.6052713 44.6954086,96.7541085 C43.6494942,95.5435659 43.6096498,93.9460465 43.4502724,92.4378295 Z" id="Shape"></path>
                <path d="M50.5624903,91.8127132 C52.5845914,91.8524031 54.6066926,91.911938 56.6287938,91.9714729 C56.6188327,93.5094574 56.6088716,95.0474419 56.6088716,96.5953488 C54.3975097,96.5953488 52.1861479,96.515969 49.974786,96.4068217 C50.1640467,94.8787597 50.3533074,93.3407752 50.5624903,91.8127132 Z" id="Shape"></path>
                <path d="M60.5435019,91.9218605 C62.6751751,91.911938 64.8068482,91.9218605 66.9385214,91.9417054 C66.9484825,93.4995349 66.9684047,95.0672868 66.9783658,96.6251163 C64.8168093,96.6350388 62.6452918,96.6350388 60.4737743,96.6251163 C60.4936965,95.0573643 60.5136187,93.4896124 60.5435019,91.9218605 Z" id="Shape"></path>
                <path d="M71.341323,91.9218605 C73.5228016,91.9317829 75.7042802,91.9516279 77.8857588,91.9913178 C77.9355642,93.5193798 77.9754086,95.0573643 78.0152529,96.5953488 C75.7740078,96.6747287 73.5427237,96.7342636 71.3114397,96.7937984 C71.2217899,95.1665116 71.4010895,93.5392248 71.341323,91.9218605 Z" id="Shape"></path>
                <path d="M81.4817121,92.0210853 C83.593463,92.0111628 85.7151751,92.0210853 87.8269261,92.0508527 C87.8667704,93.44 87.9066148,94.8291473 87.9464591,96.2182946 C87.368716,96.6151938 86.2231907,97.4089922 85.6454475,97.815814 C84.2309728,97.3097674 82.8264591,96.783876 81.4119844,96.2877519 C81.4319066,94.8688372 81.4617899,93.44 81.4817121,92.0210853 Z" id="Shape"></path>
                <path d="M123.507549,92.7255814 C124.71284,92.675969 125.928093,92.6164341 127.133385,92.5668217 C127.113463,94.3429457 127.093541,96.1190698 127.073619,97.8951938 C125.89821,97.8356589 124.71284,97.795969 123.537432,97.7463566 C123.407938,96.0793798 123.397977,94.3925581 123.507549,92.7255814 Z" id="Shape"></path>
                <path d="M135.809494,92.6065116 C137.582568,92.5965891 139.355642,92.5866667 141.138677,92.5866667 C141.128716,94.3528682 141.128716,96.1190698 141.118755,97.8852713 C139.345681,97.8852713 137.582568,97.8753488 135.819455,97.8753488 C135.809494,96.1190698 135.809494,94.3627907 135.809494,92.6065116 Z" id="Shape"></path>
                <path d="M143.808249,95.9007752 C143.668794,91.7035659 149.02786,92.4973643 151.836887,92.7156589 C151.926537,94.4818605 152.026148,96.248062 152.125759,98.0142636 C149.227082,98.3615504 145.521556,98.9172093 143.808249,95.9007752 Z" id="Shape"></path>
                <path d="M156.140078,93.1026357 C157.99284,92.408062 160.034864,92.6362791 161.977276,92.4874419 C161.997198,94.3131783 162.017121,96.1488372 162.037043,97.9844961 C159.81572,97.9944186 157.594397,98.0043411 155.373074,98.0043411 C155.143969,96.3175194 154.207626,94.1544186 156.140078,93.1026357 Z" id="Shape"></path>
                <path d="M113.616187,96.5755039 C113.944903,93.7872868 116.126381,92.5866667 118.736187,92.4179845 C118.805914,93.5193798 118.94537,95.7122481 119.015097,96.8136434 C117.21214,96.7541085 115.409183,96.6747287 113.616187,96.5755039 Z" id="Shape"></path>
                <path d="M165.981634,98.1829457 C166.061323,96.0595349 165.882023,93.420155 168.332451,92.5469767 C169.946148,93.1423256 171.400467,94.0452713 172.884669,94.8986047 C172.306926,95.9900775 171.739144,97.0815504 171.171362,98.1730233 C169.438132,98.1829457 167.704903,98.1730233 165.981634,98.1829457 Z" id="Shape"></path>
                <path d="M176.809339,98.4706977 C177.118132,96.5953488 176.171829,93.8765891 178.164047,92.7156589 C179.83751,93.0927132 181.471128,93.6682171 183.104747,94.204031 C183.084825,95.4741085 183.074864,96.744186 183.064903,98.0142636 C180.983035,98.1730233 178.891206,98.3317829 176.809339,98.4706977 Z" id="Shape"></path>
                <path d="M186.919844,94.3429457 C187.537432,93.8865116 188.762646,92.9835659 189.380233,92.5271318 C190.665214,93.1522481 191.970117,93.7674419 193.195331,94.5116279 C193.424436,95.7221705 193.603735,96.9426357 193.713307,98.1730233 C191.521868,98.1829457 189.340389,98.1829457 187.168872,98.1829457 C187.079222,96.9029457 186.999533,95.6229457 186.919844,94.3429457 Z" id="Shape"></path>
                <path d="M39.9638911,99.9193798 C42.1951751,99.9987597 44.4164981,100.306357 46.5979767,100.762791 C46.3788327,101.576434 45.9305837,103.183876 45.7014786,103.987597 C43.7889494,103.977674 41.8664591,103.977674 39.95393,104.007442 C39.9638911,102.63814 39.9638911,101.27876 39.9638911,99.9193798 Z" id="Shape"></path>
                <path d="M50.313463,100.613953 C52.20607,99.6316279 54.3676265,100.127752 56.3897276,100.256744 C56.4594553,101.586357 56.5291829,102.906047 56.5889494,104.225736 C54.5270039,104.374574 52.4650584,104.513488 50.4031128,104.642481 C50.313463,103.302946 50.0743969,101.943566 50.313463,100.613953 Z" id="Shape"></path>
                <path d="M60.1151751,100.653643 C62.2468482,100.207132 64.4283268,99.9789147 66.6098054,99.9392248 C66.6297276,101.417674 66.6596109,102.896124 66.6894942,104.384496 C64.6972763,104.434109 62.7150195,104.463876 60.7327626,104.513488 C60.5733852,103.551008 60.2645914,101.616124 60.1151751,100.653643 Z" id="Shape"></path>
                <path d="M71.1520623,100.375814 C73.3435019,100.197209 75.5449027,100.048372 77.7463035,99.9392248 C77.7961089,101.447442 77.8359533,102.965581 77.8658366,104.493643 C75.5449027,104.473798 73.2239689,104.434109 70.903035,104.374574 C70.9926848,103.035039 71.0723735,101.705426 71.1520623,100.375814 Z" id="Shape"></path>
                <path d="M81.8701946,100.336124 C83.7229572,100.336124 85.5856809,100.336124 87.4484047,100.326202 C87.488249,101.685581 87.5380545,103.044961 87.5878599,104.404341 C85.5458366,104.434109 83.5137743,104.444031 81.4817121,104.444031 C81.6112062,103.074729 81.7407004,101.705426 81.8701946,100.336124 Z" id="Shape"></path>
                <path d="M135.809494,100.554419 C137.463035,100.633798 139.126537,100.673488 140.770117,100.931473 C142.184591,103.590698 139.724202,106.47814 136.86537,105.813333 C135.171984,104.592868 136.038599,102.300775 135.809494,100.554419 Z" id="Shape"></path>
                <path d="M143.140856,103.302946 C144.874086,101.933643 146.696965,99.9293023 149.157354,100.584186 C151.159533,100.663566 153.350973,103.48155 151.119689,104.88062 C148.56965,107.182636 145.322335,104.969922 143.140856,103.302946 Z" id="Shape"></path>
                <path d="M154.028327,103.183876 C155.9807,100.802481 158.8993,100.355969 161.817899,100.663566 C161.837821,102.36031 161.847782,104.066977 161.867704,105.773643 C158.8993,106.12093 155.940856,105.694264 154.028327,103.183876 Z" id="Shape"></path>
                <path d="M166.071284,101.864186 C168.511751,101.219225 170.852607,102.132093 173.014163,103.183876 C171.290895,104.364651 169.587549,105.952248 167.346304,105.882791 C165.971673,104.850853 165.543346,103.52124 166.071284,101.864186 Z" id="Shape"></path>
                <path d="M177.36716,101.665736 C179.439066,101.844341 181.520934,102.022946 183.59284,102.261085 C182.736187,103.828837 182.138521,105.932403 180.156265,106.408682 C178.442957,106.894884 177.317354,105.11876 176.042335,104.324961 C176.371051,103.660155 177.038444,102.330543 177.36716,101.665736 Z" id="Shape"></path>
                <path d="M186.202646,102.975504 C188.842335,101.516899 191.711128,101.745116 194.360778,103.025116 C192.976187,104.394419 191.8207,107.113178 189.44,106.47814 C187.965759,105.763721 187.258521,104.136434 186.202646,102.975504 Z" id="Shape"></path>
                <path d="M196.66179,102.985426 C199.142101,101.695504 201.821634,101.913798 204.351751,102.965581 C202.96716,104.503566 201.801712,107.192558 199.271595,106.617054 C198.285447,105.495814 197.48856,104.215814 196.66179,102.985426 Z" id="Shape"></path>
                <path d="M38.728716,110.089922 C40.7010117,107.430698 43.6395331,107.510078 46.4385992,108.730543 C46.3489494,109.702946 46.1596887,111.647752 46.0700389,112.610233 C43.3407004,112.649922 40.2029572,112.937674 38.728716,110.089922 Z" id="Shape"></path>
                <path d="M48.9388327,109.861705 C49.9150195,109.117519 50.9210895,108.422946 51.9470817,107.75814 C53.5707393,107.946667 55.1047471,108.512248 56.658677,108.978605 C56.6387549,109.802171 56.5789883,111.449302 56.5491051,112.272868 C54.6166537,112.451473 52.6941634,112.620155 50.7716732,112.788837 C50.313463,112.064496 49.3970428,110.595969 48.9388327,109.861705 Z" id="Shape"></path>
                <path d="M60.2247471,108.671008 C62.4759533,107.748217 64.8466926,108.174884 67.0779767,108.899225 C66.9684047,109.782326 66.7592218,111.55845 66.6496498,112.44155 C64.5976654,112.56062 62.5456809,112.610233 60.4936965,112.60031 C60.4239689,111.617984 60.2944747,109.653333 60.2247471,108.671008 Z" id="Shape"></path>
                <path d="M71.1022568,108.363411 C73.463035,108.452713 75.8337743,108.60155 78.1845914,108.829767 C77.8957198,110.15938 77.6068482,111.488992 77.3080156,112.818605 C75.24607,112.788837 73.1741634,112.768992 71.1122179,112.75907 C71.1022568,111.290543 71.0922957,109.831938 71.1022568,108.363411 Z" id="Shape"></path>
                <path d="M80.8143191,109.246512 C81.362179,108.770233 82.477821,107.827597 83.0256809,107.351318 C83.922179,108.522171 84.9979767,109.544186 85.8645914,110.724961 C84.5696498,111.16155 83.2747082,111.578295 81.9698054,112.014884 C81.591284,111.092093 81.2028016,110.169302 80.8143191,109.246512 Z" id="Shape"></path>
                <path d="M143.718599,108.651163 C146.64716,108.542016 149.57572,108.710698 152.444514,109.345736 C151.966381,111.042481 151.966381,113.046822 150.621634,114.366512 C148.768872,114.832868 146.308482,115.249612 144.91393,113.602481 C143.599066,112.312558 144.017432,110.298295 143.718599,108.651163 Z" id="Shape"></path>
                <path d="M154.69572,108.710698 C157.07642,108.671008 159.457121,108.651163 161.837821,108.64124 C161.897588,110.705116 161.947393,112.778915 161.997198,114.842791 C160.054786,114.723721 158.072529,114.773333 156.179922,114.287132 C154.446693,112.957519 154.924825,110.586047 154.69572,108.710698 Z" id="Shape"></path>
                <path d="M177.82537,108.730543 C179.558599,108.462636 181.30179,108.909147 183.025058,109.137364 C182.995175,111.052403 182.975253,112.967442 182.94537,114.882481 C180.963113,114.763411 178.960934,114.773333 177.018521,114.336744 C174.926693,112.967442 175.345058,109.375504 177.82537,108.730543 Z" id="Shape"></path>
                <path d="M187.965759,108.83969 C189.948016,108.393178 191.950195,108.968682 193.892607,109.335814 C193.802957,111.072248 193.73323,112.79876 193.653541,114.535194 C191.491984,114.654264 189.330428,114.763411 187.178833,114.862636 C187.129027,112.848372 186.591128,110.566202 187.965759,108.83969 Z" id="Shape"></path>
                <path d="M197.428794,108.353488 C199.550506,108.651163 201.672218,108.978605 203.783969,109.355659 C203.79393,111.171473 203.803891,112.987287 203.823813,114.803101 C201.403268,114.743566 198.972763,114.664186 196.552218,114.555039 C196.801245,112.48124 197.080156,110.407442 197.428794,108.353488 Z" id="Shape"></path>
                <path d="M114.353307,108.72062 C115.817588,108.740465 117.271907,108.76031 118.736187,108.790078 C118.815875,109.752558 118.965292,111.697364 119.044981,112.669767 C117.202179,112.659845 115.359377,112.649922 113.516576,112.60031 C113.795486,111.310388 114.074397,110.010543 114.353307,108.72062 Z" id="Shape"></path>
                <path d="M124.404047,108.819845 C126.207004,108.770233 128,108.750388 129.802957,108.72062 C129.862724,109.613643 129.972296,111.39969 130.032062,112.292713 C129.37463,112.64 128.059767,113.344496 127.402335,113.701705 C126.107393,113.215504 124.80249,112.739225 123.507549,112.253023 C123.806381,111.102016 124.105214,109.96093 124.404047,108.819845 Z" id="Shape"></path>
                <path d="M133.159844,109.891473 C135.171984,109.236589 137.253852,108.264186 139.415409,108.76031 C140.491206,109.722791 141.098833,111.052403 141.885759,112.243101 C140.132607,112.79876 138.4193,113.552868 136.566537,113.671938 C134.873152,113.066667 134.235642,111.16155 133.159844,109.891473 Z" id="Shape"></path>
                <path d="M166.908016,113.671938 C165.39393,112.302636 165.453696,109.673178 167.396109,108.730543 C169.68716,108.125271 171.420389,109.871628 172.914553,111.310388 C171.350661,112.71938 168.950039,116.420465 166.908016,113.671938 Z" id="Shape"></path>
                <path d="M29.5346304,116.67845 C31.5567315,116.688372 33.5887938,116.728062 35.6108949,116.827287 C35.5909728,118.127132 35.5810117,119.426977 35.5710506,120.726822 C33.618677,120.766512 31.6762646,120.826047 29.7238911,120.885581 C29.6541634,119.486512 29.5943969,118.077519 29.5346304,116.67845 Z" id="Shape"></path>
                <path d="M39.2666148,116.827287 C41.5975097,116.737984 43.9383658,116.688372 46.2692607,116.708217 C46.0202335,118.156899 45.751284,119.605581 45.4823346,121.054264 C42.5039689,121.272558 39.7248249,120.08186 39.2666148,116.827287 Z" id="Shape"></path>
                <path d="M49.6659922,116.797519 C51.9570428,116.767752 54.2480934,116.797519 56.5291829,116.886822 C56.4992996,118.176744 56.4694163,119.476589 56.4494942,120.776434 C54.2779767,120.786357 52.1164202,120.816124 49.9449027,120.855814 C49.8552529,119.496434 49.7656031,118.146977 49.6659922,116.797519 Z" id="Shape"></path>
                <path d="M60.43393,116.708217 C62.5058366,116.747907 64.5877043,116.797519 66.6596109,116.876899 C66.5799222,118.216434 66.5101946,119.546047 66.4404669,120.885581 C64.5378988,120.974884 62.6353307,121.074109 60.7327626,121.173333 C60.6231907,119.684961 60.5335409,118.196589 60.43393,116.708217 Z" id="Shape"></path>
                <path d="M70.9528405,116.886822 C73.2638132,116.807442 75.574786,116.777674 77.8957198,116.777674 C77.8757977,118.236279 77.8459144,119.684961 77.8160311,121.143566 C75.5449027,121.084031 73.2638132,121.004651 70.9926848,120.955039 C70.9827237,119.595659 70.9628016,118.236279 70.9528405,116.886822 Z" id="Shape"></path>
                <path d="M102.967782,117.273798 C104.920156,117.075349 106.862568,116.857054 108.814942,116.698295 C108.844825,118.266047 108.864747,119.833798 108.864747,121.40155 C106.772918,121.332093 104.671128,121.262636 102.5793,121.183256 C102.718755,119.883411 102.848249,118.573643 102.967782,117.273798 Z" id="Shape"></path>
                <path d="M112.849183,117.204341 C114.821479,117.055504 116.783813,116.916589 118.76607,116.797519 C118.805914,118.355349 118.835798,119.913178 118.865681,121.48093 C116.84358,121.36186 114.821479,121.232868 112.809339,121.093953 C112.8193,119.794109 112.839222,118.494264 112.849183,117.204341 Z" id="Shape"></path>
                <path d="M122.51144,120.270388 C124.155019,118.067597 126.485914,116.67845 129.275019,116.648682 C129.73323,117.91876 130.201401,119.188837 130.669572,120.458915 C128.049805,121.907597 125.141167,121.461085 122.51144,120.270388 Z" id="Shape"></path>
                <path d="M133.787393,117.263876 C136.217899,117.293643 138.648405,117.323411 141.088872,117.353178 C141.098833,118.603411 141.108794,119.853643 141.128716,121.103876 C138.668327,121.302326 136.207938,121.342016 133.747549,121.222946 C133.75751,119.903256 133.767471,118.583566 133.787393,117.263876 Z" id="Shape"></path>
                <path d="M143.947704,117.511938 C146.766693,117.373023 149.605603,117.353178 152.434553,117.442481 C151.86677,119.208682 151.86677,121.6 149.884514,122.473178 C147.683113,123.147907 145.680934,121.738915 143.748482,120.905426 C143.81821,119.774264 143.877977,118.643101 143.947704,117.511938 Z" id="Shape"></path>
                <path d="M154.386926,117.442481 C157.056498,117.392868 159.72607,117.392868 162.405603,117.452403 C161.977276,119.665116 161.359689,122.989147 158.381323,122.731163 C155.193774,123.286822 154.735564,119.704806 154.386926,117.442481 Z" id="Shape"></path>
                <path d="M164.607004,117.631008 C167.087315,117.482171 169.557665,117.392868 172.037977,117.343256 C171.938366,119.099535 171.828794,120.855814 171.719222,122.622016 C169.87642,122.542636 167.924047,122.860155 166.170895,122.185426 C164.686693,121.153488 164.995486,119.168992 164.607004,117.631008 Z" id="Shape"></path>
                <path d="M174.020233,120.071938 C176.131984,117.144806 179.698054,117.224186 182.955331,117.363101 C182.94537,119.149147 182.935409,120.945116 182.925447,122.741085 C179.698054,122.860155 176.211673,122.84031 174.020233,120.071938 Z" id="Shape"></path>
                <path d="M187.33821,117.392868 C189.320467,117.412713 191.312685,117.442481 193.304903,117.472248 C193.424436,119.188837 193.424436,120.915349 193.324825,122.64186 C191.332607,122.651783 189.35035,122.671628 187.368093,122.68155 C187.348171,120.915349 187.33821,119.15907 187.33821,117.392868 Z" id="Shape"></path>
                <path d="M195.825058,120.101705 C197.189728,119.11938 198.275486,117.214264 200.197977,117.422636 C201.622412,117.631008 202.837665,118.484341 204.132607,119.069767 C203.674397,120.32 203.216187,121.570233 202.757977,122.830388 C200.108327,122.889922 197.66786,122.036589 195.825058,120.101705 Z" id="Shape"></path>
                <path d="M207.589105,121.619845 C206.861946,116.986047 212.131362,118.623256 214.442335,120.131473 C212.280778,121.103876 209.959844,121.6 207.589105,121.619845 Z" id="Shape"></path>
                <path d="M58.9995331,126.293333 C59.7764981,125.023256 61.3702724,124.874419 62.7050584,124.715659 C67.6656809,124.249302 72.6561868,124.576744 77.6068482,125.013333 C77.7761868,132.097984 78.8719066,139.450543 77.1785214,146.386357 C73.6024903,151.020155 68.6817121,154.423566 64.6972763,158.700155 C61.330428,162.450853 55.4135409,165.229147 56.0908949,171.093333 C58.1329183,171.152868 60.4538521,171.738295 62.1771206,170.269767 C67.5959533,166.449612 72.6561868,162.123411 77.2382879,157.340775 C78.6328405,156.031008 79.9377432,154.433488 81.8004669,153.778605 C86.2132296,152.955039 90.7455253,153.977054 95.1582879,153.203101 C97.618677,151.724651 97.618677,148.450233 97.9175097,145.929922 C98.0768872,139.043721 97.7880156,132.147597 98.0270817,125.251473 C107.818833,124.090543 117.680311,125.033178 127.511907,124.755349 C136.476887,124.447752 145.441868,125.55907 154.406848,124.884341 C161.718288,125.191938 169.039689,125.499535 176.371051,125.350698 C179.150195,125.51938 182.756109,125.043101 184.529183,127.702326 C186.660856,130.788217 187.985681,134.310698 189.768716,137.595039 C194.241245,145.939845 199.600311,153.788527 203.953307,162.202791 C208.903969,171.32155 214.472218,180.112868 218.835175,189.539225 C214.004047,195.80031 209.860233,202.736124 203.724202,207.866047 C195.366848,215.367442 186.023346,221.826977 175.823191,226.589767 C161.768093,232.503566 146.955953,237.623566 131.526226,237.663256 C121.057121,237.583876 110.458521,238.328062 100.128872,236.194729 C85.5657588,233.733953 71.6700389,227.968992 59.3780545,219.862326 C49.6560311,213.928682 40.8006226,206.635659 33.1305837,198.251163 C29.7338521,194.450853 25.380856,190.819225 24.4245914,185.570233 C25.1218677,183.089612 26.5164202,180.896744 27.8611673,178.733643 C36.5372763,165.368062 44.2073152,151.397209 52.5447471,137.823256 C54.9055253,134.092403 56.4096498,129.875349 58.9995331,126.293333 Z M128.239066,133.745116 C126.366381,137.178295 129.205292,140.472558 131.048093,143.191318 C130.679533,144.888062 130.310973,146.574884 129.952374,148.28155 C131.436576,147.854884 133.139922,147.854884 134.404981,146.902326 C137.273774,142.23876 138.648405,136.573023 137.283735,131.185116 C134.195798,131.393488 129.713307,130.053953 128.239066,133.745116 Z M141.25821,131.413333 C141.746304,134.022946 143.778366,135.699845 145.850272,137.138605 C144.585214,140.76031 143.579144,144.491163 143.44965,148.351008 C144.684825,147.835039 146.487782,147.934264 147.155175,146.545116 C149.725136,141.792248 151.239222,136.533333 152.444514,131.284341 C148.729027,130.778295 144.963735,130.808062 141.25821,131.413333 Z M153.958599,144.768992 C155.193774,149.502016 163.252296,149.363101 164.377899,144.620155 C165.39393,141.435039 162.206381,139.053643 160.612607,136.682171 C161.28,135.005271 161.937432,133.31845 162.614786,131.631628 C161.538988,131.254574 160.473152,130.877519 159.397354,130.510388 C156.917043,134.896124 153.321089,139.450543 153.958599,144.768992 Z M120.021167,133.973333 C120.648716,138.587287 120.808093,143.24093 121.604981,147.825116 C124.563424,143.211163 122.780389,137.386667 122.860078,132.246822 C122.142879,132.673488 120.728405,133.546667 120.021167,133.973333 Z M73.3634241,176.907907 C73.0645914,183.724651 73.124358,190.551318 73.2638132,197.368062 C76.4214786,197.586357 78.8420233,195.790388 80.7445914,193.468527 C82.7467704,194.669147 84.7389883,195.91938 86.9005447,196.842171 C87.1894163,196.534574 87.7571984,195.91938 88.04607,195.611783 C86.8407782,192.496124 84.5596887,189.807132 83.9122179,186.493023 C84.2010895,183.585736 86.7212451,181.244031 86.591751,178.316899 C84.3604669,178.088682 82.4877821,179.636589 80.5453696,180.470078 C78.8221012,178.128372 76.3318288,176.71938 73.3634241,176.907907 Z M43.1215564,181.015814 C41.0795331,186.205271 39.3861479,191.533643 36.9656031,196.574264 C38.0812451,196.752868 39.1869261,196.941395 40.3224903,197.010853 C41.8365759,195.472868 42.9522179,193.597519 44.4663035,192.059535 C48.3610895,191.543566 50.9509728,195.502636 54.1584436,197.070388 C54.3775875,195.234729 54.7262257,193.329612 54.0687938,191.543566 C52.4351751,186.582326 50.4031128,181.740155 47.8729961,177.165891 C46.0102724,178.068837 43.7192218,178.763411 43.1215564,181.015814 Z M58.1229572,182.266047 C57.4157198,186.433488 61.8583658,188.854574 63.8505837,191.970233 C61.6392218,192.992248 59.4677043,194.123411 57.4754864,195.542326 C61.659144,199.074729 70.1858366,196.713178 69.339144,190.491783 C69.6877821,186.860155 65.9224903,185.391628 63.4521401,183.694884 C63.2728405,182.891163 63.0835798,182.097364 62.9042802,181.303566 C64.9961089,180.976124 67.0879377,180.608992 69.1797665,180.212093 C66.3707393,176.75907 58.3122179,176.927752 58.1229572,182.266047 Z M93.4649027,178.257364 C93.1561089,184.528372 92.9170428,190.848992 94.0227237,197.070388 C95.4272374,197.060465 96.831751,197.060465 98.2362646,197.050543 C99.4216342,190.898605 99.1327626,184.607752 98.4753307,178.406202 C96.8018677,178.416124 95.1383658,178.207752 93.4649027,178.257364 Z M104.900233,178.217674 C104.920156,184.51845 104.770739,190.829147 104.989883,197.139845 C106.05572,197.139845 107.111595,197.149767 108.177432,197.15969 C108.466304,194.649302 108.755175,192.138915 109.024125,189.628527 C112.211673,190.83907 115.588482,190.938295 118.785992,189.688062 C118.895564,192.168682 118.975253,194.659225 119.054942,197.149767 C121.037198,197.12 123.009494,197.110078 124.991751,197.100155 C124.922023,191.007752 124.902101,184.915349 124.991751,178.822946 C123.348171,178.862636 121.69463,178.902326 120.061012,178.951938 C118.726226,180.668527 117.520934,182.514109 115.907237,183.972713 C112.251518,184.905426 111.743502,179.130543 108.476265,178.564961 C107.290895,178.386357 106.095564,178.267287 104.900233,178.217674 Z M135.012607,178.07876 C135.241712,184.726822 138.24,190.789457 140.082802,197.08031 C141.746304,197.12 143.409805,197.169612 145.073307,197.209302 C147.204981,191.80155 149.874553,186.473178 150.731206,180.67845 C150.422412,179.944186 149.804825,178.485581 149.496031,177.751318 C147.29463,180.370853 146.228794,183.645271 145.46179,186.91969 C144.376031,186.989147 143.290272,187.088372 142.214475,187.177674 C141.317977,184.409302 140.560934,181.541705 139.06677,179.021395 C137.751907,178.574884 136.397198,178.257364 135.012607,178.07876 Z M158.640311,178.644341 C158.570584,184.816124 158.590506,190.987907 158.72,197.15969 C162.345837,197.129922 166.091206,197.635969 169.637354,196.683411 C171.201245,195.582016 172.725292,193.726512 172.15751,191.682481 C171.290895,187.584496 170.782879,183.426977 170.872529,179.23969 C166.838288,178.416124 162.724358,178.07876 158.640311,178.644341 Z M183.194397,179.547287 C182.865681,185.471008 182.736187,191.424496 183.483268,197.328372 C184.150661,197.417674 185.475486,197.596279 186.142879,197.695504 C187.318288,195.978915 188.52358,194.272248 189.80856,192.635039 C192.009961,194.698915 193.982257,198.310698 197.508482,197.685581 C198.12607,193.557829 194.19144,190.581085 193.73323,186.661705 C194.679533,183.893333 196.422724,181.482171 197.717665,178.872558 C194.141634,178.594729 191.980078,181.95845 189.121245,183.526202 C188.145058,181.908837 187.168872,180.301395 186.202646,178.684031 C185.196576,178.971783 184.200467,179.259535 183.194397,179.547287 Z M149.984125,193.339535 C150.12358,194.629457 150.263035,195.91938 150.40249,197.209302 C151.687471,197.189457 152.972451,197.169612 154.257432,197.149767 C154.078132,195.701085 153.908794,194.242481 153.729494,192.803721 C152.793152,192.932713 150.920467,193.20062 149.984125,193.339535 Z M174.368872,193.329612 C174.697588,194.629457 175.026304,195.939225 175.374942,197.23907 C176.590195,197.23907 177.805447,197.248992 179.030661,197.268837 C179.040623,195.949147 179.050584,194.63938 179.070506,193.329612 C177.496654,193.309767 175.932763,193.309767 174.368872,193.329612 Z M202.439222,193.220465 C202.439222,194.56 202.439222,195.899535 202.439222,197.248992 C203.823813,197.258915 205.208405,197.268837 206.592996,197.27876 C206.961556,194.59969 205.278132,192.446512 202.439222,193.220465 Z" id="Shape"></path>
                <path d="M86.3427237,126.591008 C87.2192996,125.261395 89.0919844,125.886512 89.3210895,127.345116 C90.60607,132.673488 89.9685603,138.24 89.4605447,143.637829 C88.265214,143.647752 87.0698833,143.657674 85.8745525,143.677519 C85.4263035,138.00186 84.8983658,132.167442 86.3427237,126.591008 Z" id="Shape"></path>
            </g>
            <g id="#0a090aff" fill="#0A090A">
                <path d="M108.974319,1.60744186 C117.421323,0.506046512 125.977899,0.466356589 134.484669,0.674728682 C140.819922,0.932713178 147.025681,2.36155039 153.311128,3.05612403 C162.674553,4.68341085 171.559844,8.21581395 180.375409,11.6489922 C187.527471,14.2883721 193.892607,18.5748837 200.128249,22.8713178 C222.052607,38.2015504 239.45463,60.3981395 247.712374,85.8989147 C249.286226,90.1060465 250.840156,94.3330233 251.826304,98.7286822 C253.499767,105.267597 253.6193,112.064496 254.844514,118.682791 C256.059767,125.102636 255.770895,131.691163 254.81463,138.12093 C253.738833,147.586977 253.001712,157.211783 249.674708,166.231318 C247.752218,171.271938 246.148482,176.451473 243.897276,181.363101 C239.564202,190.015504 235.400467,198.906047 228.995486,206.288372 C212.310661,227.929302 188.364202,244.112868 161.718288,250.68155 C145.790506,256.029767 128.667393,255.652713 112.131984,254.323101 C98.7442802,252.12031 85.5757198,248.28031 73.2737743,242.555039 C65.2849805,239.072248 58.3122179,233.773643 51.1003891,228.981085 C35.2622568,216.409302 21.9940856,200.513488 13.1187549,182.345426 C3.75533074,159.722171 -2.56996109,134.757209 1.94241245,110.258605 C3.85494163,100.663566 5.34910506,90.8700775 9.37338521,81.8703876 C14.9316732,66.8179845 23.6874708,53.1249612 34.395642,41.2179845 C46.4585214,28.9141085 60.2745525,18.0291473 76.3019455,11.3612403 C86.6714397,6.58852713 97.6983658,3.36372093 108.974319,1.60744186 Z M67.9744747,21.2341085 C50.4828016,30.700155 36.2384436,45.2564341 25.1318288,61.5590698 C19.6233463,70.7671318 14.4933852,80.4514729 12.2023346,91.0189147 C10.0905837,99.9689922 7.58038911,108.87938 6.71377432,118.057674 C6.18583658,126.025426 6.46474708,134.022946 7.51066148,141.931163 C7.99875486,144.808682 7.89914397,148.122791 9.88140078,150.464496 C13.686537,149.68062 15.4795331,145.582636 17.471751,142.635659 C26.6259922,125.817054 36.9954864,109.712868 46.3589105,93.0232558 C48.5105058,88.9451163 50.9111284,85.015814 53.3515953,81.1162791 C63.1234241,64.3770543 72.128249,47.1813953 82.477821,30.7795349 C84.9382101,26.2846512 87.4085603,21.7897674 90.0880934,17.4139535 C91.2535409,15.8263566 91.1439689,13.8815504 90.7953307,12.055814 C82.6073152,13.4151938 75.2560311,17.4734884 67.9744747,21.2341085 Z M165.593152,12.8793798 C166.051362,15.608062 166.94786,18.2672868 168.511751,20.5792248 C175.534319,31.9404651 181.441245,43.9268217 188.264591,55.3972093 C194.848872,67.0462016 200.974942,78.9531783 207.99751,90.344186 C219.173852,110.903566 231.306459,130.966822 242.144125,151.704806 C242.811518,153.163411 245.351595,155.852403 246.477198,153.570233 C249.844047,142.407442 249.774319,130.579845 249.385837,119.020155 C248.738366,111.985116 246.76607,105.15845 245.39144,98.2524031 C243.727938,89.6694574 239.713619,81.8406202 236.89463,73.6248062 C233.129339,63.3451163 225.628638,55.1987597 219.084202,46.6356589 C213.356576,39.4617054 206.44358,33.299845 198.823346,28.1699225 C189.021634,20.8372093 177.765603,14.9531783 165.593152,12.8793798 Z M122.391907,45.2762791 C117.202179,46.9134884 115.120311,52.3410853 112.420856,56.5283721 C105.248872,67.8995349 99.6009339,80.2331783 91.4826459,91.0189147 C89.8291051,93.6483721 87.816965,96.496124 88.0659922,99.7407752 C90.4964981,102.757209 94.9690272,101.288682 98.3358755,101.834419 C98.1466148,104.533333 98.0171206,107.242171 97.9772763,109.941085 C100.328093,109.613643 103.754708,110.357829 104.810584,107.549767 C105.32856,105.15845 102.658988,103.580775 101.543346,101.764961 C106.215097,101.387907 111.853074,102.876279 115.578521,99.2644961 C118.566848,96.3770543 121.903813,93.5293023 123.577276,89.6496124 C124.931984,83.0412403 123.228638,76.1848062 124.43393,69.5565891 C124.653074,67.591938 126.635331,66.6790698 128.408405,66.6096124 C131.635798,68.2071318 131.894786,72.215814 131.93463,75.3612403 C131.904747,80.6896124 132.163735,86.0675969 131.297121,91.3463566 C130.938521,94.6406202 128.617588,97.1807752 126.894319,99.859845 C129.055875,100.346047 131.267237,100.584186 133.48856,100.604031 C133.986615,96.7342636 133.129961,92.4477519 135.052451,88.8855814 C136.516732,86.0576744 140.670506,88.0223256 141.128716,90.612093 C141.935564,94.0452713 141.746304,97.6074419 141.875798,101.110078 C149.94428,102.330543 158.142257,101.645891 166.270506,101.774884 C167.206848,96.9227907 164.138833,93.0133333 161.638599,89.2328682 C154.496498,76.7503876 147.762802,64.0396899 140.361712,51.7060465 C136.785681,45.831938 128.966226,42.2796899 122.391907,45.2762791 Z M49.4269261,104.344806 C49.5863035,105.853023 49.6261479,107.450543 50.6720623,108.661085 C52.9033463,108.512248 52.3754086,106.230078 52.6543191,104.672248 C51.8474708,104.582946 50.2337743,104.424186 49.4269261,104.344806 Z M56.539144,103.71969 C56.3299611,105.247752 56.1407004,106.785736 55.9514397,108.313798 C58.1628016,108.422946 60.3741634,108.502326 62.5855253,108.502326 C62.5855253,106.954419 62.5954864,105.416434 62.6054475,103.87845 C60.5833463,103.818915 58.5612451,103.75938 56.539144,103.71969 Z M66.5201556,103.828837 C66.4902724,105.396589 66.4703502,106.964341 66.450428,108.532093 C68.6219455,108.542016 70.793463,108.542016 72.9550195,108.532093 C72.9450584,106.974264 72.9251362,105.406512 72.9151751,103.848682 C70.7835019,103.828837 68.6518288,103.818915 66.5201556,103.828837 Z M77.3179767,103.828837 C77.3777432,105.446202 77.1984436,107.073488 77.2880934,108.700775 C79.5193774,108.64124 81.7506615,108.581705 83.9919066,108.502326 C83.9520623,106.964341 83.9122179,105.426357 83.8624125,103.898295 C81.6809339,103.858605 79.4994553,103.83876 77.3179767,103.828837 Z M87.4583658,103.928062 C87.4384436,105.346977 87.4085603,106.775814 87.3886381,108.194729 C88.8031128,108.690853 90.2076265,109.216744 91.6221012,109.722791 C92.1998444,109.315969 93.3453696,108.522171 93.9231128,108.125271 C93.8832685,106.736124 93.8434241,105.346977 93.8035798,103.957829 C91.6918288,103.928062 89.5701167,103.91814 87.4583658,103.928062 Z M129.484202,104.632558 C129.37463,106.299535 129.384591,107.986357 129.514086,109.653333 C130.689494,109.702946 131.874864,109.742636 133.050272,109.802171 C133.070195,108.026047 133.090117,106.249922 133.110039,104.473798 C131.904747,104.523411 130.689494,104.582946 129.484202,104.632558 Z M141.786148,104.513488 C141.786148,106.269767 141.786148,108.026047 141.796109,109.782326 C143.559222,109.782326 145.322335,109.792248 147.095409,109.792248 C147.10537,108.026047 147.10537,106.259845 147.115331,104.493643 C145.332296,104.493643 143.559222,104.503566 141.786148,104.513488 Z M149.784903,107.807752 C151.49821,110.824186 155.203735,110.268527 158.102412,109.92124 C158.002802,108.155039 157.903191,106.388837 157.813541,104.622636 C155.004514,104.404341 149.645447,103.610543 149.784903,107.807752 Z M162.116732,105.009612 C160.18428,106.061395 161.120623,108.224496 161.349728,109.911318 C163.571051,109.911318 165.792374,109.901395 168.013696,109.891473 C167.993774,108.055814 167.973852,106.220155 167.95393,104.394419 C166.011518,104.543256 163.969494,104.315039 162.116732,105.009612 Z M119.59284,108.482481 C121.385837,108.581705 123.188794,108.661085 124.991751,108.72062 C124.922023,107.619225 124.782568,105.426357 124.71284,104.324961 C122.103035,104.493643 119.921556,105.694264 119.59284,108.482481 Z M171.958288,110.089922 C173.681556,110.08 175.414786,110.089922 177.148016,110.08 C177.715798,108.988527 178.28358,107.897054 178.861323,106.805581 C177.377121,105.952248 175.922802,105.049302 174.309105,104.453953 C171.858677,105.327132 172.037977,107.966512 171.958288,110.089922 Z M182.785992,110.377674 C184.86786,110.23876 186.959689,110.08 189.041556,109.92124 C189.051518,108.651163 189.061479,107.381085 189.081401,106.111008 C187.447782,105.575194 185.814163,104.99969 184.1407,104.622636 C182.148482,105.783566 183.094786,108.502326 182.785992,110.377674 Z M192.896498,106.249922 C192.976187,107.529922 193.055875,108.809922 193.145525,110.089922 C195.317043,110.089922 197.498521,110.089922 199.689961,110.08 C199.580389,108.849612 199.401089,107.629147 199.171984,106.418605 C197.94677,105.674419 196.641868,105.059225 195.356887,104.434109 C194.7393,104.890543 193.514086,105.793488 192.896498,106.249922 Z M45.9405447,111.826357 C45.9405447,113.185736 45.9405447,114.545116 45.9305837,115.914419 C47.8431128,115.884651 49.7656031,115.884651 51.6781323,115.894574 C51.9072374,115.090853 52.3554864,113.483411 52.5746304,112.669767 C50.3931518,112.213333 48.1718288,111.905736 45.9405447,111.826357 Z M56.2901167,112.52093 C56.0510506,113.850543 56.2901167,115.209922 56.3797665,116.549457 C58.4417121,116.420465 60.5036576,116.28155 62.5656031,116.132713 C62.5058366,114.813023 62.4361089,113.493333 62.3663813,112.163721 C60.3442802,112.034729 58.1827237,111.538605 56.2901167,112.52093 Z M66.0918288,112.56062 C66.2412451,113.523101 66.5500389,115.457984 66.7094163,116.420465 C68.6916732,116.370853 70.67393,116.341085 72.6661479,116.291473 C72.6362646,114.803101 72.6063813,113.324651 72.5864591,111.846202 C70.4049805,111.885891 68.2235019,112.114109 66.0918288,112.56062 Z M77.128716,112.282791 C77.0490272,113.612403 76.9693385,114.942016 76.8796887,116.28155 C79.2006226,116.341085 81.5215564,116.380775 83.8424903,116.40062 C83.812607,114.872558 83.7727626,113.354419 83.7229572,111.846202 C81.5215564,111.955349 79.3201556,112.104186 77.128716,112.282791 Z M87.8468482,112.243101 C87.7173541,113.612403 87.5878599,114.981705 87.4583658,116.351008 C89.490428,116.351008 91.5224903,116.341085 93.5645136,116.311318 C93.5147082,114.951938 93.4649027,113.592558 93.4250584,112.233178 C91.5623346,112.243101 89.6996109,112.243101 87.8468482,112.243101 Z M141.786148,112.461395 C142.015253,114.207752 141.148638,116.499845 142.842023,117.72031 C145.700856,118.385116 148.161245,115.497674 146.74677,112.83845 C145.103191,112.580465 143.439689,112.540775 141.786148,112.461395 Z M149.11751,115.209922 C151.298988,116.876899 154.546304,119.089612 157.096342,116.787597 C159.327626,115.388527 157.136187,112.570543 155.134008,112.491163 C152.673619,111.836279 150.850739,113.84062 149.11751,115.209922 Z M160.004981,115.090853 C161.91751,117.60124 164.875953,118.027907 167.844358,117.68062 C167.824436,115.973953 167.814475,114.267287 167.794553,112.570543 C164.875953,112.262946 161.957354,112.709457 160.004981,115.090853 Z M172.047938,113.771163 C171.52,115.428217 171.948327,116.757829 173.322957,117.789767 C175.564202,117.859225 177.267549,116.271628 178.990817,115.090853 C176.829261,114.03907 174.488405,113.126202 172.047938,113.771163 Z M183.343813,113.572713 C183.015097,114.237519 182.347704,115.567132 182.018988,116.231938 C183.294008,117.025736 184.419611,118.80186 186.132918,118.315659 C188.115175,117.83938 188.71284,115.735814 189.569494,114.168062 C187.497588,113.929922 185.41572,113.751318 183.343813,113.572713 Z M192.1793,114.882481 C193.235175,116.043411 193.942412,117.670698 195.416654,118.385116 C197.797354,119.020155 198.95284,116.301395 200.337432,114.932093 C197.687782,113.652093 194.818988,113.423876 192.1793,114.882481 Z M202.638444,114.892403 C203.465214,116.122791 204.262101,117.402791 205.248249,118.524031 C207.778366,119.099535 208.943813,116.410543 210.328405,114.872558 C207.798288,113.820775 205.118755,113.602481 202.638444,114.892403 Z M44.7053696,121.996899 C46.1796109,124.844651 49.3173541,124.556899 52.0466926,124.517209 C52.1363424,123.554729 52.3256031,121.609922 52.4152529,120.637519 C49.6161868,119.417054 46.6776654,119.337674 44.7053696,121.996899 Z M54.9154864,121.768682 C55.3736965,122.502946 56.2901167,123.971473 56.7483268,124.695814 C58.6708171,124.527132 60.5933074,124.35845 62.5257588,124.179845 C62.555642,123.356279 62.6154086,121.709147 62.6353307,120.885581 C61.0814008,120.419225 59.547393,119.853643 57.9237354,119.665116 C56.8977432,120.329922 55.8916732,121.024496 54.9154864,121.768682 Z M66.2014008,120.577984 C66.2711284,121.56031 66.4006226,123.524961 66.4703502,124.507287 C68.5223346,124.517209 70.5743191,124.467597 72.6263035,124.348527 C72.7358755,123.465426 72.9450584,121.689302 73.0546304,120.806202 C70.8233463,120.08186 68.452607,119.655194 66.2014008,120.577984 Z M77.0789105,120.270388 C77.0689494,121.738915 77.0789105,123.197519 77.0888716,124.666047 C79.1508171,124.675969 81.2227237,124.695814 83.2846693,124.725581 C83.5835019,123.395969 83.8723735,122.066357 84.1612451,120.736744 C81.810428,120.508527 79.4396887,120.35969 77.0789105,120.270388 Z M86.7909728,121.153488 C87.1794553,122.076279 87.5679377,122.99907 87.9464591,123.92186 C89.2513619,123.485271 90.5463035,123.068527 91.8412451,122.631938 C90.9746304,121.451163 89.8988327,120.429147 89.0023346,119.258295 C88.4544747,119.734574 87.3388327,120.677209 86.7909728,121.153488 Z M149.695253,120.55814 C149.994086,122.205271 149.57572,124.219535 150.890584,125.509457 C152.285136,127.156589 154.745525,126.739845 156.598288,126.273488 C157.943035,124.953798 157.943035,122.949457 158.421167,121.252713 C155.552374,120.617674 152.623813,120.448992 149.695253,120.55814 Z M160.672374,120.617674 C160.901479,122.493023 160.423346,124.864496 162.156576,126.194109 C164.049183,126.68031 166.03144,126.630698 167.973852,126.749767 C167.924047,124.685891 167.874241,122.612093 167.814475,120.548217 C165.433774,120.55814 163.053074,120.577984 160.672374,120.617674 Z M183.802023,120.637519 C181.321712,121.282481 180.903346,124.874419 182.995175,126.243721 C184.937588,126.68031 186.939767,126.670388 188.922023,126.789457 C188.951907,124.874419 188.971829,122.95938 189.001712,121.044341 C187.278444,120.816124 185.535253,120.369612 183.802023,120.637519 Z M193.942412,120.746667 C192.567782,122.473178 193.105681,124.755349 193.155486,126.769612 C195.307082,126.670388 197.468638,126.56124 199.630195,126.442171 C199.709883,124.705736 199.779611,122.979225 199.869261,121.242791 C197.926848,120.875659 195.924669,120.300155 193.942412,120.746667 Z M203.405447,120.260465 C203.056809,122.314419 202.777899,124.388217 202.528872,126.462016 C204.949416,126.571163 207.379922,126.650543 209.800467,126.710078 C209.780545,124.894264 209.770584,123.07845 209.760623,121.262636 C207.648872,120.885581 205.52716,120.55814 203.405447,120.260465 Z M120.329961,120.627597 C120.051051,121.917519 119.77214,123.217364 119.49323,124.507287 C121.336031,124.556899 123.178833,124.566822 125.021634,124.576744 C124.941946,123.604341 124.792529,121.659535 124.71284,120.697054 C123.24856,120.667287 121.794241,120.647442 120.329961,120.627597 Z M130.3807,120.726822 C130.081868,121.867907 129.783035,123.008992 129.484202,124.16 C130.779144,124.646202 132.084047,125.122481 133.378988,125.608682 C134.03642,125.251473 135.351284,124.546977 136.008716,124.19969 C135.948949,123.306667 135.839377,121.52062 135.779611,120.627597 C133.976654,120.657364 132.183658,120.677209 130.3807,120.726822 Z M139.136498,121.79845 C140.212296,123.068527 140.849805,124.973643 142.543191,125.578915 C144.395953,125.459845 146.109261,124.705736 147.862412,124.150078 C147.075486,122.95938 146.46786,121.629767 145.392062,120.667287 C143.230506,120.171163 141.148638,121.143566 139.136498,121.79845 Z M172.884669,125.578915 C174.926693,128.327442 177.327315,124.626357 178.891206,123.217364 C177.397043,121.778605 175.663813,120.032248 173.372763,120.637519 C171.43035,121.580155 171.370584,124.209612 172.884669,125.578915 Z M35.511284,128.585426 C35.5710506,129.984496 35.6308171,131.393488 35.7005447,132.792558 C37.6529183,132.733023 39.5953307,132.673488 41.5477043,132.633798 C41.5576654,131.333953 41.5676265,130.034109 41.5875486,128.734264 C39.5654475,128.635039 37.5333852,128.595349 35.511284,128.585426 Z M45.2432685,128.734264 C45.7014786,131.988837 48.4806226,133.179535 51.4589883,132.96124 C51.7279377,131.512558 51.9968872,130.063876 52.2459144,128.615194 C49.9150195,128.595349 47.5741634,128.644961 45.2432685,128.734264 Z M55.6426459,128.704496 C55.7422568,130.053953 55.8319066,131.403411 55.9215564,132.762791 C58.0930739,132.723101 60.2546304,132.693333 62.4261479,132.683411 C62.44607,131.383566 62.4759533,130.083721 62.5058366,128.793798 C60.2247471,128.704496 57.9336965,128.674729 55.6426459,128.704496 Z M66.4105837,128.615194 C66.5101946,130.103566 66.5998444,131.591938 66.7094163,133.08031 C68.6119844,132.981085 70.5145525,132.88186 72.4171206,132.792558 C72.4868482,131.453023 72.5565759,130.123411 72.6362646,128.783876 C70.564358,128.704496 68.4824903,128.654884 66.4105837,128.615194 Z M76.9294942,128.793798 C76.9394553,130.143256 76.9593774,131.502636 76.9693385,132.862016 C79.2404669,132.911628 81.5215564,132.991008 83.7926848,133.050543 C83.8225681,131.591938 83.8524514,130.143256 83.8723735,128.684651 C81.5514397,128.684651 79.2404669,128.714419 76.9294942,128.793798 Z M108.944436,129.180775 C108.824903,130.48062 108.695409,131.790388 108.555953,133.090233 C110.647782,133.169612 112.749572,133.23907 114.841401,133.308527 C114.841401,131.740775 114.821479,130.173023 114.791595,128.605271 C112.839222,128.764031 110.896809,128.982326 108.944436,129.180775 Z M118.825837,129.111318 C118.815875,130.40124 118.795953,131.701085 118.785992,133.00093 C120.798132,133.139845 122.820233,133.268837 124.842335,133.387907 C124.812451,131.820155 124.782568,130.262326 124.742724,128.704496 C122.760467,128.823566 120.798132,128.962481 118.825837,129.111318 Z M128.488093,132.177364 C131.117821,133.368062 134.026459,133.814574 136.646226,132.365891 C136.178054,131.095814 135.709883,129.825736 135.251673,128.555659 C132.462568,128.585426 130.131673,129.974574 128.488093,132.177364 Z M139.764047,129.170853 C139.744125,130.490543 139.734163,131.810233 139.724202,133.129922 C142.184591,133.248992 144.644981,133.209302 147.10537,133.010853 C147.085447,131.76062 147.075486,130.510388 147.065525,129.260155 C144.625058,129.230388 142.194553,129.20062 139.764047,129.170853 Z M149.924358,129.418915 C149.85463,130.550078 149.794864,131.68124 149.725136,132.812403 C151.657588,133.645891 153.659767,135.054884 155.861167,134.380155 C157.843424,133.506977 157.843424,131.115659 158.411206,129.349457 C155.582257,129.260155 152.743346,129.28 149.924358,129.418915 Z M160.36358,129.349457 C160.712218,131.611783 161.170428,135.193798 164.357977,134.63814 C167.336342,134.896124 167.95393,131.572093 168.382257,129.35938 C165.702724,129.299845 163.033152,129.299845 160.36358,129.349457 Z M170.583658,129.537984 C170.97214,131.075969 170.663346,133.060465 172.147549,134.092403 C173.9007,134.767132 175.853074,134.449612 177.695875,134.528992 C177.805447,132.762791 177.915019,131.006512 178.01463,129.250233 C175.534319,129.299845 173.063969,129.389147 170.583658,129.537984 Z M179.996887,131.978915 C182.188327,134.747287 185.674708,134.767132 188.902101,134.648062 C188.912062,132.852093 188.922023,131.056124 188.931984,129.270078 C185.674708,129.131163 182.108638,129.051783 179.996887,131.978915 Z M193.314864,129.299845 C193.314864,131.066047 193.324825,132.822326 193.344747,134.588527 C195.327004,134.578605 197.309261,134.55876 199.301479,134.548837 C199.401089,132.822326 199.401089,131.095814 199.281556,129.379225 C197.289339,129.349457 195.297121,129.31969 193.314864,129.299845 Z M201.801712,132.008682 C203.644514,133.943566 206.084981,134.796899 208.73463,134.737364 C209.19284,133.477209 209.651051,132.226977 210.109261,130.976744 C208.814319,130.391318 207.599066,129.537984 206.17463,129.329612 C204.25214,129.12124 203.166381,131.026357 201.801712,132.008682 Z M213.565759,133.526822 C215.936498,133.506977 218.257432,133.010853 220.418988,132.03845 C218.108016,130.530233 212.838599,128.893023 213.565759,133.526822 Z M64.9761868,138.20031 C62.3863035,141.782326 60.882179,145.99938 58.5214008,149.730233 C50.1839689,163.304186 42.51393,177.275039 33.837821,190.64062 C32.4930739,192.803721 31.0985214,194.996589 30.4012451,197.477209 C31.3575097,202.726202 35.7105058,206.357829 39.1072374,210.15814 C46.7772763,218.542636 55.6326848,225.835659 65.3547082,231.769302 C77.6466926,239.875969 91.5424125,245.64093 106.105525,248.101705 C116.435175,250.235039 127.033774,249.490853 137.502879,249.570233 C152.932607,249.530543 167.744747,244.410543 181.799844,238.496744 C192,233.733953 201.343502,227.274419 209.700856,219.773023 C215.836887,214.643101 219.9807,207.707287 224.811829,201.446202 C220.448872,192.019845 214.880623,183.228527 209.929961,174.109767 C205.576965,165.695504 200.217899,157.846822 195.74537,149.502016 C193.962335,146.217674 192.63751,142.695194 190.505837,139.609302 C188.732763,136.950078 185.126848,137.426357 182.347704,137.257674 C175.016342,137.406512 167.694942,137.098915 160.383502,136.791318 C151.418521,137.466047 142.453541,136.354729 133.48856,136.662326 C123.656965,136.940155 113.795486,135.997519 104.003735,137.15845 C103.764669,144.054574 104.053541,150.950698 103.894163,157.836899 C103.595331,160.357209 103.595331,163.631628 101.134942,165.110078 C96.722179,165.884031 92.1898833,164.862016 87.7771206,165.685581 C85.9143969,166.340465 84.6094942,167.937984 83.2149416,169.247752 C78.6328405,174.030388 73.572607,178.356589 68.1537743,182.176744 C66.4305058,183.645271 64.109572,183.059845 62.0675486,183.00031 C61.3901946,177.136124 67.3070817,174.357829 70.67393,170.607132 C74.6583658,166.330543 79.579144,162.927132 83.1551751,158.293333 C84.8485603,151.357519 83.7528405,144.004961 83.5835019,136.92031 C78.6328405,136.483721 73.6423346,136.156279 68.6817121,136.622636 C67.3469261,136.781395 65.7531518,136.930233 64.9761868,138.20031 Z M92.3193774,138.497984 C90.8750195,144.074419 91.4029572,149.908837 91.8512062,155.584496 C93.046537,155.564651 94.2418677,155.554729 95.4371984,155.544806 C95.945214,150.146977 96.5827237,144.580465 95.2977432,139.252093 C95.0686381,137.793488 93.1959533,137.168372 92.3193774,138.497984 Z" id="Shape"></path>
                <path d="M139.036887,69.12 C145.073307,66.9866667 151.896654,75.2421705 147.414163,80.3621705 C145.252607,84.5097674 139.295875,84.8074419 136.22786,81.5627907 C134.155953,77.6136434 134.464747,71.164031 139.036887,69.12 Z M139.754086,72.195969 C135.401089,73.1882171 136.267704,79.6973643 139.943346,81.1162791 C141.945525,82.4458915 144.007471,80.3423256 145.152996,78.844031 C147.543658,75.6787597 143.399844,70.3305426 139.754086,72.195969 Z" id="Shape"></path>
                <path d="M107.051829,85.6111628 C112.022412,83.0213953 117.859611,89.9075969 115.319533,94.6406202 C113.924981,99.9590698 105.68716,100.058295 103.40607,95.3054264 C100.417743,91.8226357 104.113307,87.6452713 107.051829,85.6111628 Z" id="Shape"></path>
                <path d="M134.21572,145.652093 C135.689961,141.96093 140.172451,143.300465 143.260389,143.092093 C144.625058,148.48 143.250428,154.145736 140.381634,158.809302 C139.116576,159.76186 137.41323,159.76186 135.929027,160.188527 C136.287626,158.48186 136.656187,156.795039 137.024747,155.098295 C135.181946,152.379535 132.343035,149.085271 134.21572,145.652093 Z" id="Shape"></path>
                <path d="M147.234864,143.32031 C150.940389,142.715039 154.705681,142.685271 158.421167,143.191318 C157.215875,148.44031 155.70179,153.699225 153.131829,158.452093 C152.464436,159.84124 150.661479,159.742016 149.426304,160.257984 C149.555798,156.39814 150.561868,152.667287 151.826926,149.045581 C149.755019,147.606822 147.722957,145.929922 147.234864,143.32031 Z" id="Shape"></path>
                <path d="M159.935253,156.675969 C159.297743,151.357519 162.893696,146.803101 165.374008,142.417364 C166.449805,142.784496 167.515642,143.16155 168.59144,143.538605 C167.914086,145.225426 167.256654,146.912248 166.589261,148.589147 C168.183035,150.96062 171.370584,153.342016 170.354553,156.527132 C169.228949,161.270078 161.170428,161.408992 159.935253,156.675969 Z" id="Shape"></path>
                <path d="M125.997821,145.88031 C126.705058,145.453643 128.119533,144.580465 128.836732,144.153798 C128.757043,149.293643 130.540078,155.11814 127.581634,159.732093 C126.784747,155.147907 126.62537,150.494264 125.997821,145.88031 Z" id="Shape"></path>
                <path d="M79.3400778,188.814884 C82.3084825,188.626357 84.7987549,190.035349 86.5220233,192.377054 C88.4644358,191.543566 90.3371206,189.995659 92.5684047,190.223876 C92.6978988,193.151008 90.1777432,195.492713 89.8888716,198.4 C90.5363424,201.714109 92.8174319,204.403101 94.0227237,207.51876 C93.7338521,207.826357 93.16607,208.44155 92.8771984,208.749147 C90.715642,207.826357 88.7234241,206.576124 86.7212451,205.375504 C84.818677,207.697364 82.3981323,209.493333 79.2404669,209.275039 C79.1010117,202.458295 79.0412451,195.631628 79.3400778,188.814884 Z" id="Shape"></path>
                <path d="M49.0982101,192.922791 C49.6958755,190.670388 51.9869261,189.975814 53.8496498,189.072868 C56.3797665,193.647132 58.4118288,198.489302 60.0454475,203.450543 C60.7028794,205.236589 60.3542412,207.141705 60.1350973,208.977364 C56.9276265,207.409612 54.3377432,203.450543 50.4429572,203.966512 C48.9288716,205.504496 47.8132296,207.379845 46.299144,208.917829 C45.1635798,208.848372 44.0578988,208.659845 42.9422568,208.48124 C45.3628016,203.44062 47.0561868,198.112248 49.0982101,192.922791 Z" id="Shape"></path>
                <path d="M64.0996109,194.173023 C64.2888716,188.834729 72.347393,188.666047 75.1564202,192.11907 C73.0645914,192.515969 70.9727626,192.883101 68.8809339,193.210543 C69.0602335,194.004341 69.2494942,194.79814 69.4287938,195.60186 C71.899144,197.298605 75.6644358,198.767132 75.3157977,202.39876 C76.1624903,208.620155 67.6357977,210.981705 63.4521401,207.449302 C65.444358,206.030388 67.6158755,204.899225 69.8272374,203.877209 C67.8350195,200.76155 63.3923735,198.340465 64.0996109,194.173023 Z" id="Shape"></path>
                <path d="M99.4415564,190.164341 C101.115019,190.114729 102.778521,190.323101 104.451984,190.313178 C105.109416,196.514729 105.398288,202.805581 104.212918,208.957519 C102.808405,208.967442 101.403891,208.967442 99.9993774,208.977364 C98.8936965,202.755969 99.1327626,196.435349 99.4415564,190.164341 Z" id="Shape"></path>
                <path d="M110.876887,190.124651 C112.072218,190.174264 113.267549,190.293333 114.452918,190.471938 C117.720156,191.037519 118.228171,196.812403 121.883891,195.87969 C123.497588,194.421085 124.702879,192.575504 126.037665,190.858915 C127.671284,190.809302 129.324825,190.769612 130.968405,190.729922 C130.878755,196.822326 130.898677,202.914729 130.968405,209.007132 C128.986148,209.017054 127.013852,209.026977 125.031595,209.056744 C124.951907,206.566202 124.872218,204.075659 124.762646,201.595039 C121.565136,202.845271 118.188327,202.746047 115.000778,201.535504 C114.731829,204.045891 114.442957,206.556279 114.154086,209.066667 C113.088249,209.056744 112.032374,209.046822 110.966537,209.046822 C110.747393,202.736124 110.896809,196.425426 110.876887,190.124651 Z" id="Shape"></path>
                <path d="M140.989261,189.985736 C142.373852,190.164341 143.72856,190.48186 145.043424,190.928372 C146.537588,193.448682 147.29463,196.316279 148.191128,199.084651 C149.266926,198.995349 150.352685,198.896124 151.438444,198.826667 C152.205447,195.552248 153.271284,192.277829 155.472685,189.658295 C155.781479,190.392558 156.399066,191.851163 156.70786,192.585426 C155.851206,198.380155 153.181634,203.708527 151.049961,209.116279 C149.386459,209.076589 147.722957,209.026977 146.059455,208.987287 C144.216654,202.696434 141.218366,196.633798 140.989261,189.985736 Z" id="Shape"></path>
                <path d="M164.616965,190.551318 C168.701012,189.985736 172.814942,190.323101 176.849183,191.146667 C176.759533,195.333953 177.267549,199.491473 178.134163,203.589457 C178.701946,205.633488 177.177899,207.488992 175.614008,208.590388 C172.06786,209.542946 168.32249,209.036899 164.696654,209.066667 C164.56716,202.894884 164.547237,196.723101 164.616965,190.551318 Z" id="Shape"></path>
                <path d="M189.171051,191.454264 C190.177121,191.166512 191.17323,190.87876 192.1793,190.591008 C193.145525,192.208372 194.121712,193.815814 195.097899,195.433178 C197.956732,193.865426 200.118288,190.501705 203.694319,190.779535 C202.399377,193.389147 200.656187,195.80031 199.709883,198.568682 C200.168093,202.488062 204.102724,205.464806 203.485136,209.592558 C199.958911,210.217674 197.986615,206.605891 195.785214,204.542016 C194.500233,206.179225 193.294942,207.885891 192.119533,209.602481 C191.45214,209.503256 190.127315,209.324651 189.459922,209.235349 C188.71284,203.331473 188.842335,197.377984 189.171051,191.454264 Z" id="Shape"></path>
                <path d="M155.960778,205.246512 C156.897121,205.107597 158.769805,204.83969 159.706148,204.710698 C159.885447,206.149457 160.054786,207.608062 160.234086,209.056744 C158.949105,209.076589 157.664125,209.096434 156.379144,209.116279 C156.239689,207.826357 156.100233,206.536434 155.960778,205.246512 Z" id="Shape"></path>
                <path d="M180.345525,205.236589 C181.909416,205.216744 183.473307,205.216744 185.04716,205.236589 C185.027237,206.546357 185.017276,207.856124 185.007315,209.175814 C183.782101,209.155969 182.566848,209.146047 181.351595,209.146047 C181.002957,207.846202 180.674241,206.536434 180.345525,205.236589 Z" id="Shape"></path>
                <path d="M208.415875,205.127442 C211.254786,204.353488 212.93821,206.506667 212.56965,209.185736 C211.185058,209.175814 209.800467,209.165891 208.415875,209.155969 C208.415875,207.806512 208.415875,206.466977 208.415875,205.127442 Z" id="Shape"></path>
            </g>
        </g>
    </g>
</svg>