<?xml version="1.0" encoding="UTF-8"?>
<svg width="256px" height="256px" viewBox="0 0 256 256" version="1.1" xmlns="http://www.w3.org/2000/svg" xmlns:xlink="http://www.w3.org/1999/xlink">
    <!-- Generator: Sketch 50.2 (55047) - http://www.bohemiancoding.com/sketch -->
    <title>logo/austrått</title>
    <desc>Created with Sketch.</desc>
    <defs></defs>
    <g id="logo/austrått" stroke="none" stroke-width="1" fill="none" fill-rule="evenodd">
        <g id="austrått" transform="translate(38.000000, 0.000000)" fill-rule="nonzero">
            <g id="#fefefeff" transform="translate(7.242775, 8.291498)" fill="#FEFEFE">
                <path d="M13.1197688,6.26008097 C30.3472254,3.65862348 47.750578,2.33198381 65.1228902,1.07789474 C78.9462428,1.25408907 92.8109827,0.580404858 106.613642,1.50283401 C105.703121,3.09894737 104.802948,4.69506073 103.985549,6.34299595 C104.533931,5.85587045 105.620347,4.88161943 106.168728,4.39449393 C107.079249,4.62251012 108.000116,4.86089069 108.910636,5.09927126 C108.476069,4.04210526 108.041503,2.9745749 107.59659,1.91740891 C122.506358,2.45635628 137.364393,4.22866397 152.139653,6.27044534 C149.470173,13.0798381 146.728266,19.8581377 144.327803,26.7608097 C135.201908,27.1546559 126.055318,26.8748178 116.919075,26.9266397 C84.9060116,26.8955466 52.892948,27.0613765 20.8902312,26.8644534 C18.3138728,19.9928745 15.4064162,13.2353036 13.1197688,6.26008097 Z M99.3294798,24.2940891 C101.750636,23.1332794 103.840694,21.1122267 106.551561,20.6872874 C109.283121,21.2573279 111.507688,23.1332794 114.001272,24.3044534 C112.387168,17.7748988 110.038439,11.4319028 107.017168,5.4205668 C102.526647,10.7374899 101.326416,17.8267206 99.3294798,24.2940891 Z M40.5078035,7.62817814 C40.3732948,11.5977328 39.9801156,15.5983806 40.4974566,19.5472065 C41.283815,25.5378138 51.9824277,25.7243725 52.6342775,19.588664 C53.0791908,15.6191093 52.7894798,11.6080972 52.6446243,7.62817814 C51.9306936,7.61781377 50.5131792,7.59708502 49.7992486,7.57635628 C49.5819653,12.4683401 50.5442197,17.8163563 47.5850289,22.0968421 C46.3123699,21.2055061 44.9879769,20.3867206 43.8498266,19.3088259 C43.1462428,15.4532794 43.4669942,11.4940891 43.3324855,7.59708502 C42.6289017,7.60744939 41.2113873,7.61781377 40.5078035,7.62817814 Z M58.2526012,8.52987854 C55.8831792,9.40048583 55.2313295,11.908664 55.9349133,14.1680972 C58.2526012,16.7384615 61.9050289,17.1323077 65.0297688,18.1065587 C65.019422,18.8838866 64.9987283,20.4281781 64.9780347,21.1951417 C61.4911561,21.0604049 58.3043353,19.6508502 55.1175145,18.365668 C56.0797688,20.1068826 56.4626012,22.511417 58.3457225,23.5478543 C60.746185,24.180081 63.4053179,24.2319028 65.7540462,23.3923887 C68.5166474,22.4492308 68.0717341,18.9357085 68.7546243,16.6555466 C65.5781503,15.3910931 62.2671676,14.4375709 59.183815,12.96583 C59.1217341,12.5616194 58.9872254,11.7531984 58.9251445,11.3489879 C61.6360116,9.21392713 64.8021387,11.9190283 67.5130058,12.6963563 C67.440578,11.825749 67.3060694,10.0845344 67.2439884,9.21392713 C64.3882659,8.14639676 61.1290173,6.62283401 58.2526012,8.52987854 Z M84.2852023,7.59708502 C84.2955491,12.9969231 84.2852023,18.3967611 84.243815,23.7965992 C85.2991908,23.7862348 86.3442197,23.7758704 87.3892486,23.7551417 C87.4409827,21.7133603 87.5030636,19.6612146 87.5754913,17.6194332 C89.3654913,17.6608907 91.1658382,17.7127126 92.9558382,17.7748988 C93.3904046,19.7441296 93.8353179,21.7133603 94.2698844,23.6825911 C95.0665896,23.7240486 96.66,23.8069636 97.4567052,23.8484211 C97.0014451,21.4127935 96.5254913,18.977166 96.0598844,16.5415385 C96.7634682,14.1059109 98.3258382,10.685668 95.5425434,8.94445344 C92.0453179,7.34834008 88.0307514,7.85619433 84.2852023,7.59708502 Z M128.466127,7.71109312 C128.404046,8.32259109 128.290231,9.54558704 128.22815,10.1674494 C129.852601,10.3332794 131.466705,10.4887449 133.091156,10.6649393 C132.977341,15.0697976 132.977341,19.4746559 133.018728,23.8795142 C133.898208,23.8795142 135.677861,23.8795142 136.567688,23.8795142 C136.629769,19.4435628 136.640116,15.0179757 136.598728,10.5923887 C138.005896,10.4265587 139.402717,10.2607287 140.809884,10.1052632 C140.747803,9.50412955 140.623642,8.31222672 140.551214,7.72145749 C136.526301,7.75255061 132.49104,7.75255061 128.466127,7.71109312 Z M30.0989017,8.04275304 C28.1536994,13.4633198 25.7428902,18.7595142 24.7806358,24.4806478 C26.8086127,23.2369231 28.7124277,21.817004 30.5955491,20.3659919 C33.6478613,21.3402429 36.4725434,22.8948988 39.3489595,24.2940891 C37.8383237,18.5729555 35.686185,13.0591093 33.4409249,7.59708502 C32.6028324,7.70072874 30.9369942,7.92874494 30.0989017,8.04275304 Z M68.4338728,9.75287449 C70.4515029,10.1052632 72.4794798,10.3954656 74.5074566,10.6753036 C74.4246821,15.0594332 74.4453757,19.4331984 74.5074566,23.8173279 C75.2731214,23.7965992 76.794104,23.7655061 77.5597688,23.7447773 C77.6321965,19.5161134 77.6425434,15.2874494 77.7460116,11.0587854 C79.6498266,10.2296356 81.532948,9.34866397 83.3746821,8.36404858 C78.4806358,8.08421053 72.5312139,6.09425101 68.4338728,9.75287449 Z M113.887457,8.30186235 C115.563642,9.47303644 117.426069,10.3332794 119.319538,11.1106073 C119.547168,15.3081781 119.547168,19.5161134 119.443699,23.7240486 C120.643931,23.7965992 121.844162,23.8691498 123.044393,23.9417004 C123.168555,19.6715789 123.147861,15.4014575 123.261676,11.131336 C124.968902,10.2710931 126.676127,9.40048583 128.238497,8.2811336 C123.47896,7.5659919 118.636647,7.58672065 113.887457,8.30186235 Z" id="Shape"></path>
                <path d="M87.6065318,10.0845344 C89.7690173,10.4576518 91.9211561,10.8618623 94.0732948,11.297166 C94.0526012,12.0537652 94.0008671,13.5565992 93.9801734,14.3131984 C91.8176879,14.4168421 89.6655491,14.5101215 87.5134104,14.6034008 C87.534104,13.1005668 87.5754913,11.5873684 87.6065318,10.0845344 Z" id="Shape"></path>
                <path d="M31.6095376,12.1366802 C32.4579769,13.9297166 33.2650289,15.7538462 34.0927746,17.5676113 C32.7166474,17.5779757 31.3301734,17.5987045 29.9540462,17.6090688 C30.5127746,15.7849393 31.0611561,13.9608097 31.6095376,12.1366802 Z" id="Shape"></path>
                <path d="M104.440809,17.5365182 C105.247861,15.7642105 106.03422,13.9815385 106.872312,12.2195951 C107.420694,14.0644534 107.969075,15.8989474 108.527803,17.7438057 C107.162023,17.6712551 105.80659,17.6090688 104.440809,17.5365182 Z" id="Shape"></path>
                <path d="M3.20751445,37.7470445 C6.45641618,37.7988664 9.70531792,37.8195951 12.9542197,37.8506883 C15.7892486,47.1786235 19.3278613,56.2681781 22.5974566,65.4510121 C35.6758382,102.679838 49.2819075,139.73247 62.2878613,176.992389 C64.4089595,183.003725 66.7266474,188.952874 68.8891329,194.953846 C68.7442775,177.80081 68.8167052,160.647773 68.8373988,143.494737 C64.8021387,141.432227 60.6427168,139.452632 57.1247977,136.550607 C48.8369942,129.668664 43.653237,119.356113 42.6289017,108.670445 C42.2771098,99.67417 44.5844509,90.4395142 49.9337572,83.1222672 C54.5794798,76.3128745 61.8015607,71.9909312 68.8787861,68.1353846 C68.7856647,58.0093927 68.7339306,47.8834008 68.9201734,37.7677733 C69.7686127,37.7263158 71.4551445,37.6434008 72.3035838,37.6019433 C72.582948,47.499919 72.3139306,57.4082591 72.3967052,67.3062348 C79.0807514,65.9277733 85.9820809,66.0417814 92.6661272,67.3165992 C92.5936994,57.4704453 92.5316185,47.6242915 92.7178613,37.7781377 C93.6180347,37.9128745 95.4183815,38.1719838 96.3289017,38.3067206 C95.9357225,48.277247 96.1219653,58.2581377 96.1633526,68.228664 C100.188266,70.4362753 104.264913,72.6024291 107.865607,75.462996 C117.664046,83.3295547 123.303064,96.2021053 121.999364,108.763725 C121.409595,119.117733 116.474162,129.036437 108.776127,135.928745 C105.123699,139.172794 100.705607,141.328583 96.3289017,143.411822 C96.0391908,159.994818 95.8219075,176.608907 96.4220231,193.191903 C99.5053757,186.268502 101.781676,179.03417 104.368382,171.924211 C110.897225,153.848745 117.219133,135.68 123.954913,117.677085 C129.066243,126.061862 128.22815,136.84081 124.451561,145.58834 C130.131965,145.650526 135.81237,145.640162 141.492775,145.640162 C142.630925,141.753522 143.531098,137.763239 143.562139,133.69004 C140.623642,137.255385 137.457514,140.696356 133.33948,142.903968 C132.097861,134.374089 130.887283,124.890688 135.770983,117.231417 C131.911618,117.138138 128.041908,117.075951 124.182543,116.93085 C133.215318,90.491336 143.086185,64.3316599 152.11896,37.871417 C155.512717,37.8506883 158.906474,37.8921457 162.300231,37.9854251 C163.355607,44.2765992 163.841908,50.671417 163.593584,57.0455061 C163.159017,67.0263968 164.017803,77.0591093 162.672717,86.9881781 C160.572312,111.261538 155.53341,135.379433 146.314393,157.98413 C141.782486,170.245182 134.953584,181.438704 128.021214,192.456032 C116.174104,210.034008 101.036705,225.663482 82.7331792,236.494251 C68.6615029,226.223158 55.779711,214.200486 45.5260116,200.042753 C27.9157225,177.002753 15.5616185,150.127935 8.59820809,121.999028 C6.32190751,110.494575 3.43514451,99.0626721 2.55566474,87.3302024 C1.45890173,70.8612146 -0.807052023,54.0087449 3.20751445,37.7470445 Z M71.3723699,93.2586235 C69.0236416,97.725668 68.5787283,103.46753 71.2999422,107.882753 C72.9347399,110.629312 76.4319653,109.437409 78.9979769,109.385587 C78.2736994,111.696842 77.4976879,113.987368 76.680289,116.26753 C76.0801734,116.122429 74.8695954,115.811498 74.2591329,115.666397 C73.39,113.821538 72.4587861,112.018138 71.4447977,110.266559 C70.4618497,113.178947 69.1478035,117.272874 72.3863584,119.32502 C75.9560116,122.05085 80.5396532,118.25749 81.2846243,114.557409 C83.0539306,107.52 83.8092486,99.4254251 80.0016185,92.9269636 C78.180578,89.682915 72.9968208,90.045668 71.3723699,93.2586235 Z M56.9282081,92.8233198 C58.2008671,95.2589474 60.0115607,97.6012955 59.9701734,100.492955 C60.1150289,106.804858 61.035896,113.769717 56.9178613,119.117733 C60.3840462,119.169555 63.8398844,119.148826 67.3060694,119.065911 C66.1368786,116.785749 64.2951445,114.661053 64.2330636,111.97668 C63.9536994,104.980729 64.3572254,97.974413 64.1192486,90.9888259 C61.7187861,91.5899595 59.3286705,92.2118219 56.9282081,92.8233198 Z M84.6369942,91.2375709 C84.2852023,94.2328745 83.9230636,97.2281781 83.726474,100.233846 C84.9060116,99.1870445 85.8372254,97.9018623 86.6339306,96.5544939 C88.8584971,96.5130364 91.0830636,96.4404858 93.3179769,96.3679352 C90.1828902,103.685182 87.1512717,111.199352 86.5201156,119.221377 C87.9893642,119.211012 89.4586127,119.200648 90.9278613,119.190283 C91.2693064,113.21004 92.272948,107.250526 94.2698844,101.601943 C95.4597688,98.2646154 96.5668786,94.8754656 96.7117341,91.3101215 C92.6868208,91.185749 88.6619075,91.1753846 84.6369942,91.2375709 Z M98.4603468,91.3619433 C98.336185,94.4090688 98.2637572,97.4561943 98.1913295,100.50332 C99.3501734,99.2181377 100.415896,97.8293117 101.760983,96.7410526 C103.716532,96.3472065 105.723815,96.3575709 107.710405,96.2435628 C104.47185,103.56081 101.160867,111.085344 100.995318,119.242105 C102.48526,119.231741 103.964855,119.231741 105.454798,119.231741 C104.833988,109.458138 109.61422,100.66915 111.114509,91.2479352 C106.893006,91.1753846 102.671503,91.2064777 98.4603468,91.3619433 Z M28.6606936,117.158866 C31.7233526,123.626235 31.2163584,130.89166 30.9576879,137.856518 C30.8542197,140.613441 29.5815607,143.100891 28.7434682,145.681619 C32.395896,145.660891 36.0483237,145.650526 39.7007514,145.671255 C35.3550867,136.861538 35.3550867,125.989312 39.6904046,117.179595 C36.0172832,117.086316 32.333815,117.086316 28.6606936,117.158866 Z M72.407052,144.769555 C72.3449711,162.855385 72.4587861,180.951579 72.3346243,199.037409 C72.2104624,202.623482 72.8830058,206.178462 74.1867052,209.515789 C77.1045087,217.413441 79.7739884,225.404372 82.515896,233.364211 C84.8646243,227.477247 86.7063584,221.403725 88.8171098,215.433846 C90.6071098,210.106559 92.9247977,204.758543 92.6454335,199.01668 C92.4488439,180.961943 92.7592486,162.896842 92.4902312,144.85247 C85.8372254,146.179109 79.049711,146.158381 72.407052,144.769555 Z" id="Shape"></path>
                <path d="M73.7624855,95.8289879 C74.9109827,95.0412955 76.1526012,94.4194332 77.373526,93.7664777 C78.066763,96.8446964 79.1738728,100.068016 78.3357803,103.218785 C77.4149133,104.669798 75.8008092,105.447126 74.4660694,106.442105 C73.7004046,102.980405 72.9243931,99.3425101 73.7624855,95.8289879 Z" id="Shape"></path>
            </g>
            <g id="#02236aff" fill="#02236A">
                <path d="M90.710578,0 L100.726301,0 C114.259942,0.994979757 127.845318,1.48210526 141.285838,3.51352227 C151.653353,4.69506073 161.824277,7.00631579 172.088324,8.84080972 C169.62578,17.75417 166.252717,26.3669636 163.303873,35.1248583 C167.452948,35.2077733 171.602023,35.2388664 175.751098,35.2699595 C177.065145,41.7062348 178.12052,48.1839676 179,54.6927935 L179,88.3562753 C177.189306,105.042915 175.958035,121.874656 172.222832,138.281457 C168.26,156.460567 162.362312,174.390931 152.967399,190.517895 C138.51289,217.496356 115.749884,239.023158 90.6174566,256 L89.2413295,256 C77.0527746,246.848259 65.5884971,236.732632 55.0657803,225.704939 C41.6976879,211.194818 30.5955491,194.622186 22.1628902,176.785101 C10.3157803,151.247287 3.92144509,123.356761 1.85208092,95.3418623 C0.869132948,86.1693927 0.755317919,76.9347368 0,67.7519028 L0,59.7195142 C0.744971098,51.5523887 2.26595376,43.4889069 3.54895954,35.4046964 C7.63595376,35.2595951 11.7332948,35.1870445 15.8306358,35.0523077 C13.109422,26.2425911 9.90190751,17.5883401 7.17034682,8.77862348 C21.8731792,6.14607287 36.5139306,3.03676113 51.4236994,1.81376518 C64.4606936,0.134736842 77.6321965,1.05716599 90.710578,0 Z M20.3625434,14.5515789 C22.6491908,21.5268016 25.5566474,28.2843725 28.1330058,35.1559514 C60.1357225,35.3528745 92.1487861,35.1870445 124.16185,35.2181377 C133.298092,35.1663158 142.444682,35.4461538 151.570578,35.0523077 C153.97104,28.1496356 156.712948,21.371336 159.382428,14.5619433 C144.607168,12.5201619 129.749133,10.7478543 114.839364,10.2089069 C115.284277,11.2660729 115.718844,12.3336032 116.15341,13.3907692 C115.24289,13.1523887 114.322023,12.9140081 113.411503,12.6859919 C112.863121,13.1731174 111.776705,14.1473684 111.228324,14.6344939 C112.045723,12.9865587 112.945896,11.3904453 113.856416,9.79433198 C100.053757,8.87190283 86.1890173,9.54558704 72.3656647,9.36939271 C54.9933526,10.6234818 37.59,11.9501215 20.3625434,14.5515789 Z M10.450289,46.0385425 C6.43572254,62.3002429 8.7016763,79.1527126 9.79843931,95.6217004 C10.6779191,107.35417 13.5646821,118.786073 15.8409827,130.290526 C22.8043931,158.419433 35.1584971,185.294251 52.7687861,208.334251 C63.0224855,222.491984 75.9042775,234.514656 89.9759538,244.785749 C108.27948,233.95498 123.416879,218.325506 135.263988,200.74753 C142.196358,189.730202 149.02526,178.53668 153.557168,166.275628 C162.776185,143.670931 167.815087,119.553036 169.915491,95.2796761 C171.260578,85.3506073 170.401792,75.3178947 170.836358,65.337004 C171.084682,58.962915 170.598382,52.5680972 169.543006,46.2769231 C166.149249,46.1836437 162.755491,46.1421862 159.361734,46.162915 C140.778844,45.7068826 122.17526,46.4220243 103.59237,45.7587045 L103.571676,46.5982186 C102.661156,46.4634818 100.860809,46.2043725 99.9606358,46.0696356 C99.7743931,55.9157895 99.836474,65.7619433 99.9089017,75.6080972 C93.2248555,74.3332794 86.323526,74.2192713 79.6394798,75.5977328 C79.5567052,65.6997571 79.8257225,55.791417 79.5463584,45.8934413 C78.6979191,45.9348988 77.0113873,46.0178138 76.162948,46.0592713 C57.5076301,46.0592713 38.8523121,45.91417 20.1969942,46.1421862 C16.9480925,46.1110931 13.6991908,46.0903644 10.450289,46.0385425 Z" id="Shape"></path>
                <path d="M106.572254,32.585587 C108.569191,26.1182186 109.769422,19.0289879 114.259942,13.7120648 C117.281214,19.7234008 119.629942,26.0663968 121.244046,32.5959514 C118.750462,31.4247773 116.525896,29.5488259 113.794335,28.9787854 C111.083468,29.4037247 108.99341,31.4247773 106.572254,32.585587 Z M111.683584,25.8280162 C113.049364,25.9005668 114.404798,25.962753 115.770578,26.0353036 C115.21185,24.1904453 114.663468,22.3559514 114.115087,20.5110931 C113.276994,22.2730364 112.490636,24.0557085 111.683584,25.8280162 Z" id="Shape"></path>
                <path d="M47.750578,15.9196761 C48.4541618,15.9093117 49.8716763,15.8989474 50.5752601,15.888583 C50.7097688,19.785587 50.3890173,23.7447773 51.0926012,27.6003239 C52.2307514,28.6782186 53.5551445,29.497004 54.8278035,30.3883401 C57.7869942,26.1078543 56.8247399,20.7598381 57.0420231,15.8678543 C57.7559538,15.888583 59.1734682,15.9093117 59.8873988,15.9196761 C60.0322543,19.8995951 60.3219653,23.9106073 59.877052,27.8801619 C59.2252023,34.0158704 48.5265896,33.8293117 47.7402312,27.8387045 C47.2228902,23.8898785 47.6160694,19.8892308 47.750578,15.9196761 Z" id="Shape"></path>
                <path d="M65.4953757,16.8213765 C68.3717919,14.914332 71.6310405,16.4378947 74.486763,17.5054251 C74.5488439,18.3760324 74.6833526,20.117247 74.7557803,20.9878543 C72.0449133,20.2105263 68.8787861,17.5054251 66.1679191,19.6404858 C66.23,20.0446964 66.3645087,20.8531174 66.4265896,21.2573279 C69.5099422,22.7290688 72.8209249,23.6825911 75.9973988,24.9470445 C75.3145087,27.2272065 75.759422,30.7407287 72.9968208,31.6838866 C70.6480925,32.5234008 67.9889595,32.4715789 65.5884971,31.8393522 C63.7053757,30.802915 63.3225434,28.3983806 62.360289,26.657166 C65.5471098,27.9423482 68.7339306,29.3519028 72.2208092,29.4866397 C72.2415029,28.7196761 72.2621965,27.1753846 72.2725434,26.3980567 C69.1478035,25.4238057 65.4953757,25.0299595 63.1776879,22.4595951 C62.474104,20.2001619 63.1259538,17.6919838 65.4953757,16.8213765 Z" id="Shape"></path>
                <path d="M91.5279769,15.888583 C95.273526,16.1476923 99.2880925,15.6398381 102.785318,17.2359514 C105.568613,18.977166 104.006243,22.3974089 103.302659,24.8330364 C103.768266,27.268664 104.24422,29.7042915 104.69948,32.139919 C103.902775,32.0984615 102.309364,32.0155466 101.512659,31.9740891 C101.078092,30.0048583 100.633179,28.0356275 100.198613,26.0663968 C98.4086127,26.0042105 96.6082659,25.9523887 94.8182659,25.9109312 C94.7458382,27.9527126 94.6837572,30.0048583 94.6320231,32.0466397 C93.5869942,32.0673684 92.5419653,32.0777328 91.4865896,32.0880972 C91.5279769,26.6882591 91.5383237,21.2884211 91.5279769,15.888583 Z M94.8493064,18.3760324 C94.8182659,19.8788664 94.7768786,21.3920648 94.756185,22.8948988 C96.9083237,22.8016194 99.0604624,22.7083401 101.222948,22.6046964 C101.243642,21.8480972 101.295376,20.3452632 101.316069,19.588664 C99.1639306,19.1533603 97.0117919,18.7491498 94.8493064,18.3760324 Z" id="Shape"></path>
                <path d="M135.708902,16.0025911 C139.733815,16.0440486 143.769075,16.0440486 147.793988,16.0129555 C147.866416,16.6037247 147.990578,17.7956275 148.052659,18.3967611 C146.645491,18.5522267 145.248671,18.7180567 143.841503,18.8838866 C143.88289,23.3094737 143.872543,27.7350607 143.810462,32.1710121 C142.920636,32.1710121 141.140983,32.1710121 140.261503,32.1710121 C140.220116,27.7661538 140.220116,23.3612955 140.333931,18.9564372 C138.70948,18.7802429 137.095376,18.6247773 135.470925,18.4589474 C135.533006,17.837085 135.646821,16.6140891 135.708902,16.0025911 Z" id="Shape"></path>
                <path d="M37.3416763,16.334251 C38.1797688,16.2202429 39.8456069,15.9922267 40.6836994,15.888583 C42.9289595,21.3506073 45.0810983,26.8644534 46.5917341,32.585587 C43.7153179,31.1863968 40.8906358,29.6317409 37.8383237,28.6574899 C35.9552023,30.108502 34.0513873,31.5284211 32.0234104,32.7721457 C32.9856647,27.0510121 35.396474,21.7548178 37.3416763,16.334251 Z M38.8523121,20.4281781 C38.3039306,22.2523077 37.7555491,24.0764372 37.1968208,25.9005668 C38.572948,25.8902024 39.959422,25.8694737 41.3355491,25.8591093 C40.5078035,24.0453441 39.7007514,22.2212146 38.8523121,20.4281781 Z" id="Shape"></path>
                <path d="M75.6766474,18.0443725 C79.7739884,14.385749 85.7234104,16.3757085 90.6174566,16.6555466 C88.7757225,17.6401619 86.8926012,18.5211336 84.9887861,19.3502834 C84.8853179,23.5789474 84.8749711,27.8076113 84.8025434,32.0362753 C84.0368786,32.057004 82.515896,32.0880972 81.7502312,32.1088259 C81.6881503,27.7246964 81.6674566,23.3509312 81.7502312,18.9668016 C79.7222543,18.6869636 77.6942775,18.3967611 75.6766474,18.0443725 Z" id="Shape"></path>
                <path d="M121.130231,16.5933603 C125.879422,15.8782186 130.721734,15.8574899 135.481272,16.5726316 C133.918902,17.6919838 132.211676,18.5625911 130.504451,19.422834 C130.390636,23.6929555 130.411329,27.9630769 130.287168,32.2331984 C129.086936,32.1606478 127.886705,32.0880972 126.686474,32.0155466 C126.789942,27.8076113 126.789942,23.5996761 126.562312,19.4021053 C124.668844,18.6247773 122.806416,17.7645344 121.130231,16.5933603 Z" id="Shape"></path>
                <path d="M78.6151445,101.550121 C80.2395954,98.337166 85.4233526,97.974413 87.2443931,101.218462 C91.0520231,107.716923 90.2967052,115.811498 88.5273988,122.848907 C87.7824277,126.548988 83.1987861,130.342348 79.6291329,127.616518 C76.390578,125.564372 77.7046243,121.470445 78.6875723,118.558057 C79.7015607,120.309636 80.6327746,122.113036 81.5019075,123.957895 C82.1123699,124.102996 83.322948,124.413927 83.9230636,124.559028 C84.7404624,122.278866 85.516474,119.98834 86.2407514,117.677085 C83.6747399,117.728907 80.1775145,118.92081 78.5427168,116.174251 C75.8215029,111.759028 76.2664162,106.017166 78.6151445,101.550121 Z M81.0052601,104.120486 C80.1671676,107.634008 80.9431792,111.271903 81.7088439,114.733603 C83.0435838,113.738623 84.6576879,112.961296 85.5785549,111.510283 C86.4166474,108.359514 85.3095376,105.136194 84.6163006,102.057976 C83.3953757,102.710931 82.1537572,103.332794 81.0052601,104.120486 Z" id="Shape"></path>
                <path d="M64.1709827,101.114818 C66.5714451,100.50332 68.9615607,99.8814575 71.3620231,99.2803239 C71.6,106.265911 71.196474,113.272227 71.4758382,120.268178 C71.5379191,122.952551 73.3796532,125.077247 74.5488439,127.357409 C71.082659,127.440324 67.6268208,127.461053 64.1606358,127.409231 C68.2786705,122.061215 67.3578035,115.096356 67.212948,108.784453 C67.2543353,105.892794 65.4436416,103.550445 64.1709827,101.114818 Z" id="Shape"></path>
                <path d="M91.8797688,99.5290688 C95.9046821,99.4668826 99.9295954,99.477247 103.954509,99.6016194 C103.809653,103.166964 102.702543,106.556113 101.512659,109.893441 C99.5157225,115.542024 98.5120809,121.501538 98.1706358,127.481781 C96.7013873,127.492146 95.2321387,127.50251 93.7628902,127.512874 C94.3940462,119.49085 97.4256647,111.97668 100.560751,104.659433 C98.3258382,104.731984 96.1012717,104.804534 93.8767052,104.845992 C93.08,106.19336 92.1487861,107.478543 90.9692486,108.525344 C91.1658382,105.519676 91.5279769,102.524372 91.8797688,99.5290688 Z" id="Shape"></path>
                <path d="M105.703121,99.6534413 C109.914277,99.4979757 114.13578,99.4668826 118.357283,99.5394332 C116.856994,108.960648 112.076763,117.749636 112.697572,127.523239 C111.20763,127.523239 109.728035,127.523239 108.238092,127.533603 C108.403642,119.376842 111.714624,111.852308 114.953179,104.535061 C112.96659,104.649069 110.959306,104.638704 109.003757,105.032551 C107.658671,106.12081 106.592948,107.509636 105.434104,108.794818 C105.506532,105.747692 105.57896,102.700567 105.703121,99.6534413 Z" id="Shape"></path>
                <path d="M35.9034682,125.450364 C39.5765896,125.377814 43.2600578,125.377814 46.9331792,125.471093 C42.5978613,134.28081 42.5978613,145.153036 46.943526,153.962753 C43.2910983,153.942024 39.6386705,153.952389 35.9862428,153.973117 C36.8243353,151.392389 38.0969942,148.904939 38.2004624,146.148016 C38.4591329,139.183158 38.9661272,131.917733 35.9034682,125.450364 Z" id="Shape"></path>
                <path d="M131.425318,125.222348 C135.284682,125.367449 139.154393,125.429636 143.013757,125.522915 C138.130058,133.182186 139.340636,142.665587 140.582254,151.195466 C144.700289,148.987854 147.866416,145.546883 150.804913,141.981538 C150.773873,146.054737 149.873699,150.04502 148.735549,153.93166 C143.055145,153.93166 137.37474,153.942024 131.694335,153.879838 C135.470925,145.132308 136.309017,134.35336 131.197688,125.968583 L131.425318,125.222348 Z" id="Shape"></path>
                <path d="M79.6498266,153.061053 C86.2924855,154.449879 93.08,154.470607 99.7330058,153.143968 C100.002023,171.18834 99.6916185,189.253441 99.8882081,207.308178 C100.167572,213.05004 97.8498844,218.398057 96.0598844,223.725344 C93.9491329,229.695223 92.1073988,235.768745 89.7586705,241.655709 C87.016763,233.69587 84.3472832,225.704939 81.4294798,217.807287 C80.1257803,214.46996 79.453237,210.91498 79.5773988,207.328907 C79.7015607,189.243077 79.5877457,171.146883 79.6498266,153.061053 Z" id="Shape"></path>
            </g>
            <g id="#d9001dff" transform="translate(19.658960, 45.603239)" fill="#D9001D">
                <path d="M0.538034682,0.538947368 C19.1933526,0.310931174 37.8486705,0.456032389 56.5039884,0.456032389 C56.3177457,10.5716599 56.3694798,20.6976518 56.4626012,30.8236437 C49.3853757,34.6791903 42.1632948,39.0011336 37.5175723,45.8105263 C32.1682659,53.1277733 29.8609249,62.3624291 30.2127168,71.3587045 C31.237052,82.0443725 36.4208092,92.3569231 44.7086127,99.2388664 C48.2265318,102.140891 52.3859538,104.120486 56.4212139,106.182996 C56.4005202,123.336032 56.3280925,140.489069 56.472948,157.642105 C54.3104624,151.641134 51.9927746,145.691984 49.8716763,139.680648 C36.8657225,102.420729 23.2596532,65.3680972 10.1812717,28.1392713 C6.9116763,18.9564372 3.37306358,9.86688259 0.538034682,0.538947368 Z" id="Shape"></path>
                <path d="M83.9334104,0.155465587 C102.516301,0.818785425 121.119884,0.103643725 139.702775,0.559676113 C130.67,27.019919 120.799133,53.1795951 111.766358,79.6191093 L111.538728,80.3653441 C104.802948,98.3682591 98.4810405,116.537004 91.9521965,134.61247 C89.3654913,141.722429 87.0891908,148.956761 84.0058382,155.880162 C83.4057225,139.297166 83.6230058,122.683077 83.9127168,106.100081 C88.289422,104.016842 92.7075145,101.861053 96.3599422,98.617004 C104.057977,91.7246964 108.99341,81.8059919 109.583179,71.4519838 C110.886879,58.8903644 105.247861,46.0178138 95.449422,38.1512551 C91.8487283,35.2906883 87.7720809,33.1245344 83.7471676,30.9169231 C83.7057803,20.9463968 83.5195376,10.9655061 83.9127168,0.994979757 L83.9334104,0.155465587 Z" id="Shape"></path>
            </g>
        </g>
    </g>
</svg>