<?xml version="1.0" encoding="UTF-8" ?>
<!DOCTYPE svg PUBLIC "-//W3C//DTD SVG 1.1//EN" "http://www.w3.org/Graphics/SVG/1.1/DTD/svg11.dtd">
<svg width="226pt" height="216pt" viewBox="0 0 226 216" version="1.1" xmlns="http://www.w3.org/2000/svg">
<g id="#fefefdff">
<path fill="#fefefd" opacity="1.00" d=" M 70.03 12.93 C 77.23 9.54 84.89 6.06 93.07 6.83 C 85.73 14.97 76.91 23.71 65.16 23.80 C 69.45 18.91 75.52 16.14 81.64 14.29 C 81.63 13.68 81.61 12.45 81.59 11.84 C 76.43 13.02 71.96 16.13 66.84 17.35 C 66.14 15.31 68.66 13.98 70.03 12.93 Z" />
<path fill="#fefefd" opacity="1.00" d=" M 135.40 6.85 C 143.73 6.11 151.38 9.86 158.77 13.14 C 160.71 13.80 160.97 16.04 161.72 17.67 C 156.20 16.48 151.31 11.56 145.48 12.77 C 150.92 16.97 158.86 17.70 162.74 23.95 C 151.39 23.21 142.26 15.29 135.40 6.85 Z" />
<path fill="#fefefd" opacity="1.00" d=" M 50.54 21.51 C 55.04 17.91 60.00 14.83 65.36 12.70 C 61.21 24.30 53.70 34.41 45.07 43.09 C 42.91 45.37 40.33 47.19 37.47 48.49 C 37.72 46.90 37.69 45.17 38.67 43.80 C 41.62 39.51 45.56 35.69 47.06 30.56 C 41.38 33.62 39.55 40.55 33.92 43.67 C 35.66 34.18 43.15 27.08 50.54 21.51 Z" />
<path fill="#fefefd" opacity="1.00" d=" M 86.48 16.18 C 93.14 11.93 101.38 13.21 108.25 16.20 C 102.67 17.69 97.96 21.06 93.36 24.39 C 90.99 26.35 87.84 25.91 85.04 25.46 C 85.15 24.44 85.31 23.44 85.51 22.44 C 88.60 20.44 92.57 20.67 95.73 18.77 C 92.73 17.87 89.64 18.52 86.60 18.78 C 86.57 18.13 86.51 16.83 86.48 16.18 Z" />
<path fill="#fefefd" opacity="1.00" d=" M 162.99 12.36 C 172.47 17.23 181.56 23.32 188.44 31.56 C 191.37 35.01 193.59 39.21 194.14 43.75 C 188.84 40.27 186.75 33.56 181.11 30.49 C 183.00 35.09 185.88 39.22 189.08 43.01 C 190.21 44.35 191.53 46.48 190.10 48.08 C 185.95 46.52 183.15 42.93 180.02 39.98 C 172.95 31.76 166.24 22.85 162.99 12.36 Z" />
<path fill="#fefefd" opacity="1.00" d=" M 120.13 16.25 C 126.27 13.56 133.55 12.03 139.83 15.20 C 141.54 15.49 141.62 17.34 142.17 18.64 C 138.87 18.73 135.42 17.61 132.32 19.24 C 135.96 20.88 141.50 20.04 143.63 24.00 C 141.92 27.12 137.79 26.48 135.36 24.66 C 130.52 21.43 125.87 17.76 120.13 16.25 Z" />
<path fill="#fefefd" opacity="1.00" d=" M 58.14 30.76 C 62.40 26.56 68.87 25.38 74.59 26.53 C 80.41 27.67 86.30 28.48 91.99 30.16 C 83.64 33.62 74.71 35.27 65.85 36.77 C 64.05 36.98 62.25 36.87 60.45 36.82 C 60.38 36.08 60.23 34.59 60.15 33.84 C 63.72 32.76 67.90 32.78 70.63 29.88 C 66.45 29.87 62.32 30.61 58.14 30.76 Z" />
<path fill="#fefefd" opacity="1.00" d=" M 136.45 30.15 C 142.84 28.27 149.45 27.15 156.06 26.29 C 161.24 25.49 166.40 27.54 170.37 30.79 C 166.12 30.89 161.80 29.34 157.63 30.59 C 160.87 32.30 164.53 32.83 167.99 33.93 C 167.89 34.69 167.70 36.22 167.61 36.98 C 156.98 36.44 146.32 34.18 136.45 30.15 Z" />
<path fill="#fefefd" opacity="1.00" d=" M 16.17 65.35 C 19.22 56.51 24.66 48.76 30.65 41.69 C 30.70 51.13 30.20 60.68 27.84 69.85 C 24.72 77.29 22.61 85.18 18.65 92.25 C 17.61 89.99 17.45 87.51 17.42 85.06 C 15.93 86.26 14.37 87.39 12.70 88.34 C 11.42 80.52 13.27 72.59 16.17 65.35 M 16.98 85.31 C 19.02 78.74 21.48 72.11 21.79 65.17 C 16.98 70.62 16.30 78.38 16.98 85.31 Z" />
<path fill="#fefefd" opacity="1.00" d=" M 197.42 41.52 C 205.34 50.37 211.34 60.94 214.50 72.40 C 215.51 77.70 216.49 83.30 215.11 88.62 C 214.01 87.70 212.78 86.89 211.89 85.75 C 211.14 78.79 211.54 70.74 206.56 65.18 C 206.76 74.32 212.30 82.88 210.09 92.20 C 205.43 85.88 204.02 77.98 200.89 70.92 C 197.69 61.49 197.41 51.39 197.42 41.52 Z" />
<path fill="#fefefd" opacity="1.00" d=" M 36.91 54.99 C 45.02 47.72 55.48 41.45 66.82 43.34 C 57.10 51.62 46.70 59.44 34.88 64.44 C 34.48 64.10 33.67 63.42 33.26 63.08 C 34.44 59.96 37.85 59.08 40.34 57.34 C 43.81 54.97 47.27 52.55 50.35 49.69 C 45.65 50.82 41.34 53.11 36.91 54.99 Z" />
<path fill="#fefefd" opacity="1.00" d=" M 161.25 43.33 C 172.61 41.43 183.12 47.67 191.28 54.92 C 186.86 53.27 182.81 50.57 178.07 49.86 C 183.23 54.60 189.33 58.07 195.13 61.92 C 194.47 62.80 193.81 63.70 193.06 64.52 C 181.34 59.26 171.15 51.38 161.25 43.33 Z" />
<path fill="#fefefd" opacity="1.00" d=" M 103.37 44.29 C 123.17 41.35 144.65 46.77 159.55 60.45 C 181.19 80.35 185.07 115.51 170.64 140.67 C 163.50 153.13 152.11 163.15 138.90 168.81 C 122.55 175.60 103.44 175.15 87.39 167.72 C 74.43 161.98 63.31 151.92 56.68 139.35 C 51.40 129.81 49.22 118.79 48.83 107.97 C 49.42 93.12 53.41 77.77 63.26 66.28 C 73.07 53.99 88.05 46.79 103.37 44.29 M 102.39 47.48 C 90.56 49.76 78.99 54.77 70.25 63.21 C 61.85 71.01 56.35 81.51 53.67 92.58 C 51.26 105.75 51.32 119.85 56.70 132.32 C 67.03 158.67 97.24 174.95 124.96 169.76 C 141.80 166.93 156.86 156.37 166.23 142.22 C 174.97 128.67 178.04 111.66 174.94 95.87 C 172.88 81.59 165.14 68.12 153.58 59.43 C 139.24 48.29 120.11 44.68 102.39 47.48 Z" />
<path fill="#fefefd" opacity="1.00" d=" M 30.50 72.49 C 34.06 69.33 38.62 67.62 43.19 66.49 C 40.79 78.02 36.46 89.16 29.99 99.03 C 28.56 101.43 25.75 101.80 23.20 101.78 C 22.05 99.65 21.53 97.03 22.83 94.82 C 25.60 90.00 29.18 85.69 32.09 80.94 C 28.21 82.80 25.14 85.81 22.73 89.32 C 22.79 82.91 26.01 76.92 30.50 72.49 Z" />
<path fill="#fefefd" opacity="1.00" d=" M 185.26 66.54 C 190.31 67.91 195.57 69.81 199.04 73.95 C 203.19 77.79 204.87 83.44 205.49 88.90 C 202.97 85.79 200.27 82.69 196.42 81.22 C 199.28 86.11 203.07 90.42 205.68 95.47 C 206.44 97.28 206.65 99.68 205.25 101.25 C 202.74 102.67 199.61 101.10 198.06 98.98 C 192.05 88.99 187.21 78.08 185.26 66.54 Z" />
<path fill="#fefefd" opacity="1.00" d=" M 71.19 74.24 C 76.58 74.26 81.98 74.28 87.37 74.27 C 87.38 96.74 87.23 119.22 87.42 141.69 C 82.02 141.68 76.63 141.77 71.23 141.70 C 71.11 119.21 71.20 96.73 71.19 74.24 Z" />
<path fill="#fefefd" opacity="1.00" d=" M 92.46 74.42 C 98.27 74.07 104.94 75.47 108.25 80.75 C 113.17 86.90 113.36 96.90 107.44 102.46 C 103.63 106.44 97.73 106.92 92.54 106.99 C 92.38 96.13 92.52 85.28 92.46 74.42 Z" />
<path fill="#fefefd" opacity="1.00" d=" M 118.65 74.62 C 123.94 74.67 129.23 74.66 134.52 74.65 C 134.61 97.01 134.51 119.37 134.54 141.73 C 129.24 141.93 123.92 141.84 118.62 141.78 C 118.69 119.39 118.65 97.01 118.65 74.62 Z" />
<path fill="#fefefd" opacity="1.00" d=" M 139.19 74.64 C 145.28 74.68 151.36 74.64 157.45 74.66 C 151.96 85.83 145.12 96.27 139.35 107.29 C 138.99 96.41 139.20 85.52 139.19 74.64 Z" />
<path fill="#fefefd" opacity="1.00" d=" M 9.26 101.69 C 12.26 104.40 15.64 107.01 17.11 110.94 C 19.86 117.82 21.98 124.95 24.01 132.08 C 26.15 139.16 28.81 146.10 30.10 153.41 C 25.53 148.92 21.72 143.66 19.32 137.70 C 16.75 132.68 16.86 126.91 15.17 121.62 C 14.57 125.62 14.55 129.67 14.65 133.70 C 9.74 123.85 8.43 112.57 9.26 101.69 Z" />
<path fill="#fefefd" opacity="1.00" d=" M 209.19 116.09 C 210.37 110.30 214.14 105.33 218.86 101.90 C 220.21 112.33 218.47 123.14 213.87 132.60 C 213.64 128.89 213.79 125.12 212.89 121.49 C 211.67 127.01 211.09 132.72 208.88 137.97 C 206.40 143.83 202.59 149.10 197.89 153.38 C 201.46 140.89 205.23 128.46 209.19 116.09 Z" />
<path fill="#fefefd" opacity="1.00" d=" M 25.16 122.45 C 25.75 117.17 28.62 112.53 31.36 108.10 C 34.25 119.91 35.38 132.17 35.13 144.31 C 33.20 138.80 31.55 133.18 29.08 127.88 C 28.07 133.94 29.97 139.76 31.99 145.37 C 26.97 138.99 23.71 130.64 25.16 122.45 Z" />
<path fill="#fefefd" opacity="1.00" d=" M 196.71 108.18 C 200.55 113.33 203.64 119.42 203.51 126.00 C 203.88 133.19 200.49 139.92 196.17 145.45 C 198.03 139.68 200.15 133.69 198.92 127.53 C 196.66 132.91 195.71 138.79 192.90 143.94 C 192.65 131.92 194.60 119.98 196.71 108.18 Z" />
<path fill="#fefefd" opacity="1.00" d=" M 139.37 120.37 C 141.32 116.72 143.44 113.16 145.26 109.43 C 146.55 112.35 147.58 115.38 148.59 118.40 C 150.88 126.30 154.27 133.84 156.42 141.79 C 150.68 141.84 144.94 141.84 139.20 141.81 C 139.28 134.67 138.88 127.49 139.37 120.37 Z" />
<path fill="#fefefd" opacity="1.00" d=" M 92.50 141.92 C 92.46 131.45 92.43 120.98 92.52 110.52 C 96.57 110.29 100.79 110.47 104.38 112.58 C 111.21 116.50 115.08 125.89 111.18 133.13 C 107.55 139.68 99.77 142.87 92.50 141.92 Z" />
<path fill="#fefefd" opacity="1.00" d=" M 44.06 150.55 C 54.63 156.31 63.33 166.22 66.27 178.03 C 61.90 174.39 58.14 170.03 53.39 166.87 C 57.23 171.93 60.80 177.30 63.08 183.28 C 52.02 176.21 44.32 163.80 44.06 150.55 Z" />
<path fill="#fefefd" opacity="1.00" d=" M 161.68 178.13 C 165.39 166.45 173.31 155.78 184.62 150.56 C 183.86 155.69 182.96 160.89 180.65 165.59 C 177.45 172.96 171.70 178.91 165.20 183.49 C 167.40 177.28 171.26 171.93 174.87 166.49 C 170.26 170.13 166.49 174.73 161.68 178.13 Z" />
<path fill="#fefefd" opacity="1.00" d=" M 26.85 158.89 C 35.86 163.62 46.23 167.98 51.17 177.52 C 46.84 175.28 43.09 171.92 38.30 170.60 C 45.40 174.75 52.16 179.90 56.73 186.85 C 42.59 184.02 30.19 173.10 26.85 158.89 Z" />
<path fill="#fefefd" opacity="1.00" d=" M 177.51 177.11 C 182.23 167.66 192.68 163.60 201.44 158.83 C 198.64 169.32 191.38 178.86 181.40 183.43 C 178.22 184.94 174.88 186.07 171.46 186.88 C 175.74 179.93 182.73 175.56 189.06 170.73 C 184.94 172.36 181.42 175.11 177.51 177.11 Z" />
<path fill="#fefefd" opacity="1.00" d=" M 75.76 178.60 C 84.38 182.30 92.70 186.91 99.84 193.03 C 96.40 193.94 92.96 192.98 89.57 192.39 C 93.25 195.57 96.88 198.82 100.80 201.71 C 96.96 202.03 92.76 202.02 89.53 199.59 C 82.81 194.33 78.64 186.48 75.76 178.60 Z" />
<path fill="#fefefd" opacity="1.00" d=" M 128.50 193.06 C 135.53 186.77 143.99 182.33 152.62 178.66 C 149.19 186.57 145.42 195.05 138.00 200.02 C 135.05 202.11 131.28 201.89 127.85 201.89 C 131.45 198.42 135.44 195.40 139.23 192.15 C 135.71 192.93 132.11 193.99 128.50 193.06 Z" />
<path fill="#fefefd" opacity="1.00" d=" M 58.49 193.97 C 64.04 191.97 70.13 191.71 75.91 192.76 C 80.00 193.34 81.91 197.47 84.25 200.34 C 82.27 200.35 80.30 200.38 78.33 200.42 C 84.78 202.23 91.02 204.78 96.82 208.13 C 82.74 208.73 69.03 203.11 58.49 193.97 Z" />
<path fill="#fefefd" opacity="1.00" d=" M 152.02 192.83 C 157.86 191.67 164.03 191.95 169.66 193.97 C 159.39 203.22 145.60 208.62 131.73 208.08 C 137.57 204.63 143.86 201.92 150.47 200.33 C 148.28 200.33 146.10 200.38 143.92 200.39 C 146.41 197.74 148.07 193.51 152.02 192.83 Z" />
<path fill="#fefefd" opacity="1.00" d=" M 107.13 193.16 C 109.42 193.80 111.65 194.68 113.96 195.29 C 116.23 194.76 118.38 193.82 120.61 193.18 C 119.01 198.81 117.84 204.61 118.44 210.51 C 115.79 210.72 113.13 210.93 110.48 210.65 C 109.93 207.83 110.50 204.92 110.00 202.09 C 109.48 198.98 108.17 196.10 107.13 193.16 Z" />
</g>
<g id="#030280ff">
<path fill="#030280" opacity="1.00" d=" M 67.42 12.39 C 75.91 5.99 86.77 3.94 97.21 4.63 C 95.39 6.93 93.70 9.33 91.82 11.58 C 99.43 9.86 106.97 12.55 113.43 16.46 C 105.99 18.92 98.92 22.64 93.00 27.79 C 94.20 28.76 95.41 29.72 96.60 30.71 C 86.96 34.92 76.72 37.56 66.42 39.60 C 68.04 40.28 69.68 40.91 71.32 41.54 C 65.08 48.30 57.72 53.91 50.16 59.11 C 48.70 60.28 46.28 60.95 46.09 63.12 C 44.90 71.33 43.02 79.45 40.21 87.26 C 38.36 92.11 35.65 96.57 33.57 101.31 C 35.35 112.84 37.67 124.38 38.50 136.06 C 38.88 138.43 37.98 141.26 39.74 143.20 C 41.67 145.44 44.61 146.38 46.91 148.16 C 54.15 153.83 61.41 159.77 66.47 167.57 C 68.36 169.95 69.55 173.41 72.78 174.24 C 83.95 178.21 94.80 183.47 103.90 191.18 C 107.21 190.00 110.98 189.41 114.03 191.62 C 117.12 189.35 120.86 189.72 124.23 191.13 C 133.69 183.49 144.67 178.01 156.10 174.01 C 158.64 173.40 159.56 170.76 160.87 168.81 C 166.09 160.59 173.65 154.23 181.20 148.23 C 184.07 145.99 188.94 145.00 189.53 140.82 C 190.34 130.30 191.43 119.79 193.19 109.38 C 193.61 106.66 194.75 104.04 194.73 101.26 C 187.96 89.25 183.49 75.88 182.37 62.10 C 173.27 56.08 164.59 49.38 156.94 41.57 C 158.54 40.90 160.14 40.21 161.70 39.46 C 151.24 37.71 141.00 34.66 131.24 30.51 C 132.63 29.66 134.03 28.82 135.42 27.98 C 129.48 22.70 122.29 19.07 114.85 16.41 C 121.37 12.61 128.98 9.64 136.60 11.76 C 134.67 9.49 132.91 7.09 130.97 4.84 C 141.45 3.42 152.05 6.40 160.82 12.15 C 160.88 11.29 161.00 9.59 161.06 8.73 C 172.51 13.32 183.12 20.43 190.70 30.26 C 192.62 33.11 194.23 36.14 195.99 39.08 C 196.07 38.08 196.22 36.07 196.30 35.06 C 200.84 40.73 205.70 46.21 209.24 52.60 C 216.65 65.92 221.70 82.28 216.24 97.21 C 217.76 95.33 219.30 93.46 220.95 91.68 C 222.86 106.25 222.02 121.40 215.97 134.97 C 213.87 141.90 208.84 147.37 205.96 153.89 C 202.60 168.49 192.93 181.76 179.35 188.41 C 176.21 189.77 174.58 192.94 172.20 195.22 C 164.55 203.01 154.00 207.08 143.54 209.47 C 136.71 211.26 129.50 210.60 122.71 212.56 C 117.29 213.84 111.58 213.83 106.15 212.64 C 97.70 210.54 88.76 211.21 80.47 208.31 C 69.00 205.62 58.33 199.25 51.23 189.76 C 37.46 183.39 26.63 170.89 22.95 156.10 C 22.54 153.81 21.67 151.62 20.29 149.73 C 8.39 133.06 4.04 111.48 7.65 91.38 C 8.93 93.34 10.31 95.23 11.64 97.15 C 8.37 84.93 9.79 71.68 15.23 60.30 C 18.95 50.92 25.38 43.04 31.65 35.28 C 31.87 36.39 32.31 38.61 32.53 39.72 C 38.27 24.59 52.72 14.73 67.16 8.81 C 67.23 9.70 67.35 11.49 67.42 12.39 M 70.03 12.93 C 68.66 13.98 66.14 15.31 66.84 17.35 C 71.96 16.13 76.43 13.02 81.59 11.84 C 81.61 12.45 81.63 13.68 81.64 14.29 C 75.52 16.14 69.45 18.91 65.16 23.80 C 76.91 23.71 85.73 14.97 93.07 6.83 C 84.89 6.06 77.23 9.54 70.03 12.93 M 135.40 6.85 C 142.26 15.29 151.39 23.21 162.74 23.95 C 158.86 17.70 150.92 16.97 145.48 12.77 C 151.31 11.56 156.20 16.48 161.72 17.67 C 160.97 16.04 160.71 13.80 158.77 13.14 C 151.38 9.86 143.73 6.11 135.40 6.85 M 50.54 21.51 C 43.15 27.08 35.66 34.18 33.92 43.67 C 39.55 40.55 41.38 33.62 47.06 30.56 C 45.56 35.69 41.62 39.51 38.67 43.80 C 37.69 45.17 37.72 46.90 37.47 48.49 C 40.33 47.19 42.91 45.37 45.07 43.09 C 53.70 34.41 61.21 24.30 65.36 12.70 C 60.00 14.83 55.04 17.91 50.54 21.51 M 86.48 16.18 C 86.51 16.83 86.57 18.13 86.60 18.78 C 89.64 18.52 92.73 17.87 95.73 18.77 C 92.57 20.67 88.60 20.44 85.51 22.44 C 85.31 23.44 85.15 24.44 85.04 25.46 C 87.84 25.91 90.99 26.35 93.36 24.39 C 97.96 21.06 102.67 17.69 108.25 16.20 C 101.38 13.21 93.14 11.93 86.48 16.18 M 162.99 12.36 C 166.24 22.85 172.95 31.76 180.02 39.98 C 183.15 42.93 185.95 46.52 190.10 48.08 C 191.53 46.48 190.21 44.35 189.08 43.01 C 185.88 39.22 183.00 35.09 181.11 30.49 C 186.75 33.56 188.84 40.27 194.14 43.75 C 193.59 39.21 191.37 35.01 188.44 31.56 C 181.56 23.32 172.47 17.23 162.99 12.36 M 120.13 16.25 C 125.87 17.76 130.52 21.43 135.36 24.66 C 137.79 26.48 141.92 27.12 143.63 24.00 C 141.50 20.04 135.96 20.88 132.32 19.24 C 135.42 17.61 138.87 18.73 142.17 18.64 C 141.62 17.34 141.54 15.49 139.83 15.20 C 133.55 12.03 126.27 13.56 120.13 16.25 M 58.14 30.76 C 62.32 30.61 66.45 29.87 70.63 29.88 C 67.90 32.78 63.72 32.76 60.15 33.84 C 60.23 34.59 60.38 36.08 60.45 36.82 C 62.25 36.87 64.05 36.98 65.85 36.77 C 74.71 35.27 83.64 33.62 91.99 30.16 C 86.30 28.48 80.41 27.67 74.59 26.53 C 68.87 25.38 62.40 26.56 58.14 30.76 M 136.45 30.15 C 146.32 34.18 156.98 36.44 167.61 36.98 C 167.70 36.22 167.89 34.69 167.99 33.93 C 164.53 32.83 160.87 32.30 157.63 30.59 C 161.80 29.34 166.12 30.89 170.37 30.79 C 166.40 27.54 161.24 25.49 156.06 26.29 C 149.45 27.15 142.84 28.27 136.45 30.15 M 16.17 65.35 C 13.27 72.59 11.42 80.52 12.70 88.34 C 14.37 87.39 15.93 86.26 17.42 85.06 C 17.45 87.51 17.61 89.99 18.65 92.25 C 22.61 85.18 24.72 77.29 27.84 69.85 C 30.20 60.68 30.70 51.13 30.65 41.69 C 24.66 48.76 19.22 56.51 16.17 65.35 M 197.42 41.52 C 197.41 51.39 197.69 61.49 200.89 70.92 C 204.02 77.98 205.43 85.88 210.09 92.20 C 212.30 82.88 206.76 74.32 206.56 65.18 C 211.54 70.74 211.14 78.79 211.89 85.75 C 212.78 86.89 214.01 87.70 215.11 88.62 C 216.49 83.30 215.51 77.70 214.50 72.40 C 211.34 60.94 205.34 50.37 197.42 41.52 M 36.91 54.99 C 41.34 53.11 45.65 50.82 50.35 49.69 C 47.27 52.55 43.81 54.97 40.34 57.34 C 37.85 59.08 34.44 59.96 33.26 63.08 C 33.67 63.42 34.48 64.10 34.88 64.44 C 46.70 59.44 57.10 51.62 66.82 43.34 C 55.48 41.45 45.02 47.72 36.91 54.99 M 161.25 43.33 C 171.15 51.38 181.34 59.26 193.06 64.52 C 193.81 63.70 194.47 62.80 195.13 61.92 C 189.33 58.07 183.23 54.60 178.07 49.86 C 182.81 50.57 186.86 53.27 191.28 54.92 C 183.12 47.67 172.61 41.43 161.25 43.33 M 30.50 72.49 C 26.01 76.92 22.79 82.91 22.73 89.32 C 25.14 85.81 28.21 82.80 32.09 80.94 C 29.18 85.69 25.60 90.00 22.83 94.82 C 21.53 97.03 22.05 99.65 23.20 101.78 C 25.75 101.80 28.56 101.43 29.99 99.03 C 36.46 89.16 40.79 78.02 43.19 66.49 C 38.62 67.62 34.06 69.33 30.50 72.49 M 185.26 66.54 C 187.21 78.08 192.05 88.99 198.06 98.98 C 199.61 101.10 202.74 102.67 205.25 101.25 C 206.65 99.68 206.44 97.28 205.68 95.47 C 203.07 90.42 199.28 86.11 196.42 81.22 C 200.27 82.69 202.97 85.79 205.49 88.90 C 204.87 83.44 203.19 77.79 199.04 73.95 C 195.57 69.81 190.31 67.91 185.26 66.54 M 9.26 101.69 C 8.43 112.57 9.74 123.85 14.65 133.70 C 14.55 129.67 14.57 125.62 15.17 121.62 C 16.86 126.91 16.75 132.68 19.32 137.70 C 21.72 143.66 25.53 148.92 30.10 153.41 C 28.81 146.10 26.15 139.16 24.01 132.08 C 21.98 124.95 19.86 117.82 17.11 110.94 C 15.64 107.01 12.26 104.40 9.26 101.69 M 209.19 116.09 C 205.23 128.46 201.46 140.89 197.89 153.38 C 202.59 149.10 206.40 143.83 208.88 137.97 C 211.09 132.72 211.67 127.01 212.89 121.49 C 213.79 125.12 213.64 128.89 213.87 132.60 C 218.47 123.14 220.21 112.33 218.86 101.90 C 214.14 105.33 210.37 110.30 209.19 116.09 M 25.16 122.45 C 23.71 130.64 26.97 138.99 31.99 145.37 C 29.97 139.76 28.07 133.94 29.08 127.88 C 31.55 133.18 33.20 138.80 35.13 144.31 C 35.38 132.17 34.25 119.91 31.36 108.10 C 28.62 112.53 25.75 117.17 25.16 122.45 M 196.71 108.18 C 194.60 119.98 192.65 131.92 192.90 143.94 C 195.71 138.79 196.66 132.91 198.92 127.53 C 200.15 133.69 198.03 139.68 196.17 145.45 C 200.49 139.92 203.88 133.19 203.51 126.00 C 203.64 119.42 200.55 113.33 196.71 108.18 M 44.06 150.55 C 44.32 163.80 52.02 176.21 63.08 183.28 C 60.80 177.30 57.23 171.93 53.39 166.87 C 58.14 170.03 61.90 174.39 66.27 178.03 C 63.33 166.22 54.63 156.31 44.06 150.55 M 161.68 178.13 C 166.49 174.73 170.26 170.13 174.87 166.49 C 171.26 171.93 167.40 177.28 165.20 183.49 C 171.70 178.91 177.45 172.96 180.65 165.59 C 182.96 160.89 183.86 155.69 184.62 150.56 C 173.31 155.78 165.39 166.45 161.68 178.13 M 26.85 158.89 C 30.19 173.10 42.59 184.02 56.73 186.85 C 52.16 179.90 45.40 174.75 38.30 170.60 C 43.09 171.92 46.84 175.28 51.17 177.52 C 46.23 167.98 35.86 163.62 26.85 158.89 M 177.51 177.11 C 181.42 175.11 184.94 172.36 189.06 170.73 C 182.73 175.56 175.74 179.93 171.46 186.88 C 174.88 186.07 178.22 184.94 181.40 183.43 C 191.38 178.86 198.64 169.32 201.44 158.83 C 192.68 163.60 182.23 167.66 177.51 177.11 M 75.76 178.60 C 78.64 186.48 82.81 194.33 89.53 199.59 C 92.76 202.02 96.96 202.03 100.80 201.71 C 96.88 198.82 93.25 195.57 89.57 192.39 C 92.96 192.98 96.40 193.94 99.84 193.03 C 92.70 186.91 84.38 182.30 75.76 178.60 M 128.50 193.06 C 132.11 193.99 135.71 192.93 139.23 192.15 C 135.44 195.40 131.45 198.42 127.85 201.89 C 131.28 201.89 135.05 202.11 138.00 200.02 C 145.42 195.05 149.19 186.57 152.62 178.66 C 143.99 182.33 135.53 186.77 128.50 193.06 M 58.49 193.97 C 69.03 203.11 82.74 208.73 96.82 208.13 C 91.02 204.78 84.78 202.23 78.33 200.42 C 80.30 200.38 82.27 200.35 84.25 200.34 C 81.91 197.47 80.00 193.34 75.91 192.76 C 70.13 191.71 64.04 191.97 58.49 193.97 M 152.02 192.83 C 148.07 193.51 146.41 197.74 143.92 200.39 C 146.10 200.38 148.28 200.33 150.47 200.33 C 143.86 201.92 137.57 204.63 131.73 208.08 C 145.60 208.62 159.39 203.22 169.66 193.97 C 164.03 191.95 157.86 191.67 152.02 192.83 M 107.13 193.16 C 108.17 196.10 109.48 198.98 110.00 202.09 C 110.50 204.92 109.93 207.83 110.48 210.65 C 113.13 210.93 115.79 210.72 118.44 210.51 C 117.84 204.61 119.01 198.81 120.61 193.18 C 118.38 193.82 116.23 194.76 113.96 195.29 C 111.65 194.68 109.42 193.80 107.13 193.16 Z" />
<path fill="#030280" opacity="1.00" d=" M 100.39 38.68 C 112.62 36.62 125.33 37.30 137.20 40.95 C 153.44 45.82 168.03 56.75 176.28 71.71 C 185.23 88.42 187.94 108.66 182.75 126.99 C 177.24 147.77 161.77 165.57 142.02 174.06 C 116.81 185.16 85.49 179.32 65.51 160.50 C 55.90 151.73 48.64 140.21 45.58 127.52 C 42.55 118.23 43.14 108.31 43.52 98.70 C 44.73 89.89 46.94 81.03 51.24 73.19 C 60.70 54.52 80.02 42.13 100.39 38.68 M 103.37 44.29 C 88.05 46.79 73.07 53.99 63.26 66.28 C 53.41 77.77 49.42 93.12 48.83 107.97 C 49.22 118.79 51.40 129.81 56.68 139.35 C 63.31 151.92 74.43 161.98 87.39 167.72 C 103.44 175.15 122.55 175.60 138.90 168.81 C 152.11 163.15 163.50 153.13 170.64 140.67 C 185.07 115.51 181.19 80.35 159.55 60.45 C 144.65 46.77 123.17 41.35 103.37 44.29 Z" />
<path fill="#030280" opacity="1.00" d=" M 102.39 47.48 C 120.11 44.68 139.24 48.29 153.58 59.43 C 165.14 68.12 172.88 81.59 174.94 95.87 C 178.04 111.66 174.97 128.67 166.23 142.22 C 156.86 156.37 141.80 166.93 124.96 169.76 C 97.24 174.95 67.03 158.67 56.70 132.32 C 51.32 119.85 51.26 105.75 53.67 92.58 C 56.35 81.51 61.85 71.01 70.25 63.21 C 78.99 54.77 90.56 49.76 102.39 47.48 M 71.19 74.24 C 71.20 96.73 71.11 119.21 71.23 141.70 C 76.63 141.77 82.02 141.68 87.42 141.69 C 87.23 119.22 87.38 96.74 87.37 74.27 C 81.98 74.28 76.58 74.26 71.19 74.24 M 92.46 74.42 C 92.52 85.28 92.38 96.13 92.54 106.99 C 97.73 106.92 103.63 106.44 107.44 102.46 C 113.36 96.90 113.17 86.90 108.25 80.75 C 104.94 75.47 98.27 74.07 92.46 74.42 M 118.65 74.62 C 118.65 97.01 118.69 119.39 118.62 141.78 C 123.92 141.84 129.24 141.93 134.54 141.73 C 134.51 119.37 134.61 97.01 134.52 74.65 C 129.23 74.66 123.94 74.67 118.65 74.62 M 139.19 74.64 C 139.20 85.52 138.99 96.41 139.35 107.29 C 145.12 96.27 151.96 85.83 157.45 74.66 C 151.36 74.64 145.28 74.68 139.19 74.64 M 139.37 120.37 C 138.88 127.49 139.28 134.67 139.20 141.81 C 144.94 141.84 150.68 141.84 156.42 141.79 C 154.27 133.84 150.88 126.30 148.59 118.40 C 147.58 115.38 146.55 112.35 145.26 109.43 C 143.44 113.16 141.32 116.72 139.37 120.37 M 92.50 141.92 C 99.77 142.87 107.55 139.68 111.18 133.13 C 115.08 125.89 111.21 116.50 104.38 112.58 C 100.79 110.47 96.57 110.29 92.52 110.52 C 92.43 120.98 92.46 131.45 92.50 141.92 Z" />
<path fill="#030280" opacity="1.00" d=" M 16.98 85.31 C 16.30 78.38 16.98 70.62 21.79 65.17 C 21.48 72.11 19.02 78.74 16.98 85.31 Z" />
</g>
</svg>
