<?xml version="1.0" encoding="UTF-8"?>
<svg width="256px" height="256px" viewBox="0 0 256 256" version="1.1" xmlns="http://www.w3.org/2000/svg" xmlns:xlink="http://www.w3.org/1999/xlink">
    <!-- Generator: Sketch 50.2 (55047) - http://www.bohemiancoding.com/sketch -->
    <title>logo/bergkameratene</title>
    <desc>Created with Sketch.</desc>
    <defs></defs>
    <g id="logo/bergkameratene" stroke="none" stroke-width="1" fill="none" fill-rule="evenodd">
        <g id="bergkameratene" transform="translate(0.000000, 4.000000)" fill-rule="nonzero">
            <g id="#fefefdff" transform="translate(3.555556, 2.370370)" fill="#FEFEFD">
                <path d="M72.3318519,8.21333333 C80.8651852,4.19555556 89.9437037,0.0711111111 99.6385185,0.983703704 C90.9392593,10.6311111 80.4859259,20.9896296 66.56,21.0962963 C71.6444444,15.3007407 78.8385185,12.0177778 86.0918519,9.82518519 C86.08,9.10222222 86.0562963,7.64444444 86.0325926,6.92148148 C79.917037,8.32 74.6192593,12.0059259 68.5511111,13.4518519 C67.7214815,11.0340741 70.7081481,9.45777778 72.3318519,8.21333333 Z" id="Shape"></path>
                <path d="M149.807407,1.00740741 C159.68,0.13037037 168.746667,4.57481481 177.505185,8.46222222 C179.804444,9.24444444 180.112593,11.8992593 181.001481,13.8311111 C174.459259,12.4207407 168.663704,6.58962963 161.754074,8.0237037 C168.201481,13.0014815 177.611852,13.8666667 182.21037,21.2740741 C168.758519,20.397037 157.937778,11.0103704 149.807407,1.00740741 Z" id="Shape"></path>
                <path d="M49.2325926,18.3822222 C54.5659259,14.1155556 60.4444444,10.4651852 66.797037,7.94074074 C61.8785185,21.6888889 52.9777778,33.6711111 42.7496296,43.9585185 C40.1896296,46.6607407 37.1318519,48.8177778 33.7422222,50.3585185 C34.0385185,48.4740741 34.002963,46.4237037 35.1644444,44.8 C38.6607407,39.7155556 43.3303704,35.1881481 45.1081481,29.1081481 C38.3762963,32.7348148 36.2074074,40.9481481 29.5348148,44.6459259 C31.597037,33.3985185 40.4740741,24.9837037 49.2325926,18.3822222 Z" id="Shape"></path>
                <path d="M91.8281481,12.0651852 C99.7214815,7.02814815 109.487407,8.54518519 117.62963,12.0888889 C111.016296,13.8548148 105.434074,17.8488889 99.9822222,21.7955556 C97.1733333,24.1185185 93.44,23.597037 90.1214815,23.0637037 C90.2518519,21.8548148 90.4414815,20.6696296 90.6785185,19.4844444 C94.3407407,17.1140741 99.0459259,17.3866667 102.791111,15.1348148 C99.2355556,14.0681481 95.5733333,14.8385185 91.9703704,15.1466667 C91.9348148,14.3762963 91.8637037,12.8355556 91.8281481,12.0651852 Z" id="Shape"></path>
                <path d="M182.506667,7.53777778 C193.742222,13.3096296 204.515556,20.5274074 212.66963,30.2933333 C216.142222,34.3822222 218.773333,39.36 219.425185,44.7407407 C213.143704,40.6162963 210.666667,32.6637037 203.982222,29.0251852 C206.222222,34.477037 209.635556,39.3718519 213.428148,43.8637037 C214.767407,45.4518519 216.331852,47.9762963 214.637037,49.8725926 C209.718519,48.0237037 206.4,43.7688889 202.69037,40.2725926 C194.311111,30.5303704 186.358519,19.9703704 182.506667,7.53777778 Z" id="Shape"></path>
                <path d="M131.70963,12.1481481 C138.986667,8.96 147.614815,7.14666667 155.057778,10.9037037 C157.084444,11.2474074 157.179259,13.44 157.831111,14.9807407 C153.92,15.0874074 149.831111,13.76 146.157037,15.6918519 C150.471111,17.6355556 157.037037,16.64 159.561481,21.3333333 C157.534815,25.0311111 152.64,24.2725926 149.76,22.1155556 C144.023704,18.2874074 138.512593,13.9377778 131.70963,12.1481481 Z" id="Shape"></path>
                <path d="M58.24,29.3451852 C63.2888889,24.3674074 70.957037,22.9688889 77.7362963,24.3318519 C84.6340741,25.682963 91.6148148,26.642963 98.3585185,28.6340741 C88.4622222,32.7348148 77.8785185,34.6903704 67.3777778,36.4681481 C65.2444444,36.717037 63.1111111,36.5866667 60.9777778,36.5274074 C60.8948148,35.6503704 60.717037,33.8844444 60.6222222,32.9955556 C64.8533333,31.7155556 69.8074074,31.7392593 73.042963,28.3022222 C68.0888889,28.2903704 63.1940741,29.1674074 58.24,29.3451852 Z" id="Shape"></path>
                <path d="M151.051852,28.6222222 C158.625185,26.3940741 166.459259,25.0666667 174.293333,24.0474074 C180.432593,23.0992593 186.548148,25.5288889 191.253333,29.3807407 C186.216296,29.4992593 181.096296,27.6622222 176.154074,29.1437037 C179.994074,31.1703704 184.331852,31.7985185 188.432593,33.1022222 C188.314074,34.002963 188.088889,35.8162963 187.982222,36.717037 C175.383704,36.077037 162.74963,33.3985185 151.051852,28.6222222 Z" id="Shape"></path>
                <path d="M8.49777778,70.3407407 C12.1125926,59.8637037 18.56,50.6785185 25.6592593,42.2992593 C25.7185185,53.4874074 25.1259259,64.8059259 22.3288889,75.6740741 C18.6311111,84.4918519 16.1303704,93.842963 11.437037,102.222222 C10.2044444,99.5437037 10.0148148,96.6044444 9.97925926,93.7007407 C8.21333333,95.122963 6.36444444,96.4622222 4.38518519,97.5881481 C2.86814815,88.32 5.06074074,78.9214815 8.49777778,70.3407407 Z M9.45777778,93.997037 C11.8755556,86.2103704 14.7911111,78.3525926 15.1585185,70.1274074 C9.45777778,76.5866667 8.65185185,85.7837037 9.45777778,93.997037 Z" id="Shape"></path>
                <path d="M223.312593,42.0977778 C232.699259,52.5866667 239.81037,65.1140741 243.555556,78.6962963 C244.752593,84.9777778 245.914074,91.6148148 244.278519,97.92 C242.974815,96.8296296 241.517037,95.8696296 240.462222,94.5185185 C239.573333,86.2696296 240.047407,76.7288889 234.145185,70.1392593 C234.382222,80.9718519 240.948148,91.117037 238.328889,102.162963 C232.805926,94.6725926 231.134815,85.3096296 227.425185,76.9422222 C223.632593,65.7659259 223.300741,53.7955556 223.312593,42.0977778 Z" id="Shape"></path>
                <path d="M33.0785185,58.0622222 C42.6903704,49.4459259 55.0874074,42.0148148 68.5274074,44.2548148 C57.0074074,54.0681481 44.6814815,63.3362963 30.6725926,69.2622222 C30.1985185,68.8592593 29.2385185,68.0533333 28.7525926,67.6503704 C30.1511111,63.9525926 34.1925926,62.9096296 37.1437037,60.8474074 C41.2562963,58.0385185 45.357037,55.1703704 49.0074074,51.7807407 C43.437037,53.12 38.3288889,55.8340741 33.0785185,58.0622222 Z" id="Shape"></path>
                <path d="M180.444444,44.242963 C193.908148,41.9911111 206.364444,49.3866667 216.035556,57.9792593 C210.797037,56.0237037 205.997037,52.8237037 200.379259,51.9822222 C206.494815,57.6 213.724444,61.7125926 220.598519,66.2755556 C219.816296,67.3185185 219.034074,68.3851852 218.145185,69.357037 C204.254815,63.122963 192.177778,53.7837037 180.444444,44.242963 Z" id="Shape"></path>
                <path d="M111.845926,45.3807407 C135.312593,41.8962963 160.77037,48.32 178.42963,64.5333333 C204.077037,88.1185185 208.675556,129.78963 191.573333,159.608889 C183.111111,174.376296 169.611852,186.251852 153.955556,192.96 C134.577778,201.007407 111.928889,200.474074 92.9066667,191.668148 C77.5466667,184.865185 64.3674074,172.942222 56.5096296,158.044444 C50.2518519,146.737778 47.6681481,133.677037 47.2059259,120.853333 C47.9051852,103.253333 52.6340741,85.0607407 64.3081481,71.442963 C75.9348148,56.877037 93.6888889,48.3437037 111.845926,45.3807407 Z M110.684444,49.1614815 C96.6637037,51.8637037 82.9511111,57.8014815 72.5925926,67.8044444 C62.637037,77.0488889 56.1185185,89.4933333 52.9422222,102.613333 C50.0859259,118.222222 50.157037,134.933333 56.5333333,149.712593 C68.7762963,180.942222 104.580741,200.237037 137.434074,194.085926 C157.392593,190.731852 175.241481,178.216296 186.346667,161.445926 C196.705185,145.386667 200.343704,125.226667 196.66963,106.512593 C194.228148,89.5881481 185.054815,73.6237037 171.354074,63.3244444 C154.358519,50.1214815 131.685926,45.842963 110.684444,49.1614815 Z" id="Shape"></path>
                <path d="M25.4814815,78.802963 C29.7007407,75.0577778 35.1051852,73.0311111 40.5214815,71.6918519 C37.677037,85.357037 32.5451852,98.56 24.877037,110.257778 C23.1822222,113.102222 19.8518519,113.540741 16.8296296,113.517037 C15.4666667,110.992593 14.8503704,107.887407 16.3911111,105.268148 C19.6740741,99.5555556 23.917037,94.4474074 27.3659259,88.8177778 C22.7674074,91.0222222 19.1288889,94.5896296 16.2725926,98.7496296 C16.3437037,91.1525926 20.16,84.0533333 25.4814815,78.802963 Z" id="Shape"></path>
                <path d="M208.900741,71.7511111 C214.885926,73.3748148 221.12,75.6266667 225.232593,80.5333333 C230.151111,85.0844444 232.142222,91.7807407 232.877037,98.2518519 C229.89037,94.5659259 226.69037,90.8918519 222.127407,89.1496296 C225.517037,94.9451852 230.008889,100.053333 233.102222,106.038519 C234.002963,108.183704 234.251852,111.028148 232.592593,112.888889 C229.617778,114.571852 225.908148,112.711111 224.071111,110.198519 C216.948148,98.3585185 211.211852,85.4281481 208.900741,71.7511111 Z" id="Shape"></path>
                <path d="M73.7066667,80.877037 C80.0948148,80.9007407 86.4948148,80.9244444 92.882963,80.9125926 C92.8948148,107.543704 92.717037,134.186667 92.9422222,160.817778 C86.5422222,160.805926 80.1540741,160.912593 73.7540741,160.82963 C73.6118519,134.174815 73.7185185,107.531852 73.7066667,80.877037 Z" id="Shape"></path>
                <path d="M98.9155556,81.0903704 C105.801481,80.6755556 113.706667,82.3348148 117.62963,88.5925926 C123.460741,95.8814815 123.685926,107.733333 116.66963,114.322963 C112.154074,119.04 105.161481,119.608889 99.0103704,119.691852 C98.8207407,106.820741 98.9866667,93.9614815 98.9155556,81.0903704 Z" id="Shape"></path>
                <path d="M129.955556,81.3274074 C136.225185,81.3866667 142.494815,81.3748148 148.764444,81.362963 C148.871111,107.863704 148.752593,134.364444 148.788148,160.865185 C142.506667,161.102222 136.201481,160.995556 129.92,160.924444 C130.002963,134.388148 129.955556,107.863704 129.955556,81.3274074 Z" id="Shape"></path>
                <path d="M154.299259,81.3511111 C161.517037,81.3985185 168.722963,81.3511111 175.940741,81.3748148 C169.434074,94.6133333 161.327407,106.986667 154.488889,120.047407 C154.062222,107.152593 154.311111,94.2459259 154.299259,81.3511111 Z" id="Shape"></path>
                <path d="M0.308148148,113.41037 C3.8637037,116.622222 7.86962963,119.715556 9.61185185,124.373333 C12.8711111,132.527407 15.3837037,140.977778 17.7896296,149.428148 C20.3259259,157.819259 23.4785185,166.044444 25.0074074,174.708148 C19.5911111,169.386667 15.0755556,163.152593 12.2311111,156.088889 C9.18518519,150.139259 9.31555556,143.300741 7.31259259,137.031111 C6.60148148,141.771852 6.57777778,146.571852 6.6962963,151.348148 C0.877037037,139.674074 -0.675555556,126.305185 0.308148148,113.41037 Z" id="Shape"></path>
                <path d="M237.262222,130.477037 C238.660741,123.614815 243.128889,117.724444 248.722963,113.659259 C250.322963,126.020741 248.260741,138.832593 242.808889,150.044444 C242.536296,145.647407 242.714074,141.179259 241.647407,136.877037 C240.201481,143.419259 239.514074,150.186667 236.894815,156.408889 C233.955556,163.354074 229.44,169.6 223.86963,174.672593 C228.100741,159.86963 232.568889,145.137778 237.262222,130.477037 Z" id="Shape"></path>
                <path d="M19.1525926,138.014815 C19.8518519,131.757037 23.2533333,126.257778 26.5007407,121.007407 C29.9259259,135.004444 31.2651852,149.534815 30.9688889,163.922963 C28.6814815,157.392593 26.7259259,150.731852 23.7985185,144.45037 C22.6014815,151.632593 24.8533333,158.53037 27.2474074,165.179259 C21.2977778,157.617778 17.4340741,147.721481 19.1525926,138.014815 Z" id="Shape"></path>
                <path d="M222.471111,121.102222 C227.022222,127.205926 230.684444,134.423704 230.53037,142.222222 C230.968889,150.743704 226.951111,158.72 221.831111,165.274074 C224.035556,158.435556 226.548148,151.336296 225.09037,144.035556 C222.411852,150.411852 221.285926,157.380741 217.955556,163.484444 C217.659259,149.238519 219.97037,135.087407 222.471111,121.102222 Z" id="Shape"></path>
                <path d="M154.512593,135.54963 C156.823704,131.223704 159.336296,127.004444 161.493333,122.583704 C163.022222,126.044444 164.242963,129.635556 165.44,133.214815 C168.154074,142.577778 172.171852,151.514074 174.72,160.936296 C167.917037,160.995556 161.114074,160.995556 154.311111,160.96 C154.405926,152.497778 153.931852,143.988148 154.512593,135.54963 Z" id="Shape"></path>
                <path d="M98.962963,161.09037 C98.9155556,148.681481 98.88,136.272593 98.9866667,123.875556 C103.786667,123.602963 108.788148,123.816296 113.042963,126.317037 C121.137778,130.962963 125.724444,142.091852 121.102222,150.672593 C116.8,158.435556 107.579259,162.216296 98.962963,161.09037 Z" id="Shape"></path>
                <path d="M41.5525926,171.318519 C54.08,178.145185 64.3911111,189.89037 67.8755556,203.887407 C62.6962963,199.573333 58.24,194.405926 52.6103704,190.660741 C57.1614815,196.657778 61.3925926,203.022222 64.0948148,210.10963 C50.9866667,201.73037 41.8607407,187.022222 41.5525926,171.318519 Z" id="Shape"></path>
                <path d="M180.954074,204.005926 C185.351111,190.162963 194.737778,177.517037 208.142222,171.33037 C207.241481,177.41037 206.174815,183.573333 203.437037,189.143704 C199.644444,197.878519 192.82963,204.93037 185.125926,210.358519 C187.733333,202.998519 192.308148,196.657778 196.586667,190.21037 C191.122963,194.524444 186.654815,199.976296 180.954074,204.005926 Z" id="Shape"></path>
                <path d="M21.1555556,181.202963 C31.8340741,186.808889 44.1244444,191.976296 49.9792593,203.282963 C44.8474074,200.628148 40.402963,196.645926 34.7259259,195.081481 C43.1407407,200 51.1525926,206.103704 56.5688889,214.340741 C39.8103704,210.986667 25.1140741,198.044444 21.1555556,181.202963 Z" id="Shape"></path>
                <path d="M199.715556,202.797037 C205.30963,191.597037 217.694815,186.785185 228.077037,181.131852 C224.758519,193.564444 216.154074,204.871111 204.325926,210.287407 C200.557037,212.077037 196.598519,213.416296 192.545185,214.376296 C197.617778,206.139259 205.902222,200.96 213.404444,195.235556 C208.521481,197.167407 204.34963,200.426667 199.715556,202.797037 Z" id="Shape"></path>
                <path d="M79.122963,204.562963 C89.3392593,208.948148 99.2,214.411852 107.662222,221.665185 C103.585185,222.743704 99.5081481,221.605926 95.4903704,220.906667 C99.8518519,224.675556 104.154074,228.527407 108.8,231.952593 C104.248889,232.331852 99.2711111,232.32 95.442963,229.44 C87.4785185,223.205926 82.5362963,213.902222 79.122963,204.562963 Z" id="Shape"></path>
                <path d="M141.62963,221.700741 C149.961481,214.245926 159.988148,208.983704 170.216296,204.634074 C166.151111,214.008889 161.682963,224.059259 152.888889,229.94963 C149.392593,232.426667 144.924444,232.165926 140.859259,232.165926 C145.125926,228.053333 149.854815,224.474074 154.346667,220.622222 C150.174815,221.546667 145.908148,222.802963 141.62963,221.700741 Z" id="Shape"></path>
                <path d="M58.6548148,222.779259 C65.2325926,220.408889 72.4503704,220.100741 79.3007407,221.345185 C84.1481481,222.032593 86.4118519,226.927407 89.1851852,230.328889 C86.8385185,230.340741 84.5037037,230.376296 82.1688889,230.423704 C89.8133333,232.568889 97.2088889,235.591111 104.082963,239.561481 C87.3955556,240.272593 71.1466667,233.611852 58.6548148,222.779259 Z" id="Shape"></path>
                <path d="M169.505185,221.428148 C176.426667,220.053333 183.739259,220.385185 190.411852,222.779259 C178.24,233.742222 161.896296,240.142222 145.457778,239.502222 C152.379259,235.413333 159.834074,232.201481 167.668148,230.317037 C165.072593,230.317037 162.488889,230.376296 159.905185,230.388148 C162.856296,227.247407 164.823704,222.234074 169.505185,221.428148 Z" id="Shape"></path>
                <path d="M116.302222,221.819259 C119.016296,222.577778 121.659259,223.620741 124.397037,224.343704 C127.087407,223.715556 129.635556,222.601481 132.278519,221.842963 C130.382222,228.515556 128.995556,235.38963 129.706667,242.382222 C126.565926,242.631111 123.413333,242.88 120.272593,242.548148 C119.620741,239.205926 120.296296,235.757037 119.703704,232.402963 C119.087407,228.717037 117.534815,225.303704 116.302222,221.819259 Z" id="Shape"></path>
            </g>
            <g id="#030280ff" fill="#030280">
                <path d="M72.7940741,9.9437037 C82.8562963,2.35851852 95.7274074,-0.0711111111 108.100741,0.746666667 C105.943704,3.47259259 103.940741,6.31703704 101.712593,8.9837037 C110.731852,6.94518519 119.668148,10.1333333 127.324444,14.7674074 C118.506667,17.682963 110.127407,22.0918519 103.111111,28.1955556 C104.533333,29.3451852 105.967407,30.482963 107.377778,31.6562963 C95.9525926,36.6459259 83.8162963,39.7748148 71.6088889,42.1925926 C73.5288889,42.9985185 75.4725926,43.7451852 77.4162963,44.4918519 C70.0207407,52.5037037 61.2977778,59.1525926 52.3377778,65.3155556 C50.6074074,66.7022222 47.7392593,67.4962963 47.5140741,70.0681481 C46.1037037,79.7985185 43.8755556,89.4222222 40.5451852,98.6785185 C38.3525926,104.426667 35.1407407,109.712593 32.6755556,115.33037 C34.7851852,128.995556 37.5348148,142.672593 38.5185185,156.515556 C38.9688889,159.324444 37.9022222,162.678519 39.9881481,164.977778 C42.2755556,167.632593 45.76,168.746667 48.4859259,170.856296 C57.0666667,177.576296 65.6711111,184.616296 71.6681481,193.860741 C73.9081481,196.681481 75.3185185,200.782222 79.1466667,201.765926 C92.3851852,206.471111 105.244444,212.705185 116.02963,221.842963 C119.952593,220.444444 124.420741,219.745185 128.035556,222.364444 C131.697778,219.674074 136.13037,220.112593 140.124444,221.783704 C151.336296,212.728889 164.34963,206.234074 177.896296,201.493333 C180.906667,200.77037 181.997037,197.641481 183.54963,195.33037 C189.736296,185.588148 198.696296,178.05037 207.644444,170.939259 C211.045926,168.284444 216.817778,167.111111 217.517037,162.157037 C218.477037,149.688889 219.768889,137.232593 221.854815,124.894815 C222.352593,121.671111 223.703704,118.565926 223.68,115.271111 C215.656296,101.037037 210.358519,85.1911111 209.031111,68.8592593 C198.245926,61.7244444 187.958519,53.7837037 178.891852,44.5274074 C180.788148,43.7333333 182.684444,42.9155556 184.533333,42.0266667 C172.136296,39.9525926 160,36.3377778 148.432593,31.4192593 C150.08,30.4118519 151.739259,29.4162963 153.386667,28.4207407 C146.346667,22.162963 137.825185,17.8607407 129.007407,14.7081481 C136.734815,10.2044444 145.754074,6.68444444 154.785185,9.19703704 C152.497778,6.50666667 150.411852,3.66222222 148.112593,0.995555556 C160.533333,-0.687407407 173.096296,2.84444444 183.49037,9.65925926 C183.561481,8.64 183.703704,6.62518519 183.774815,5.60592593 C197.345185,11.0459259 209.92,19.4725926 218.903704,31.122963 C221.179259,34.5007407 223.087407,38.0918519 225.173333,41.5762963 C225.268148,40.3911111 225.445926,38.0088889 225.540741,36.8118519 C230.921481,43.5318519 236.681481,50.0266667 240.877037,57.6 C249.659259,73.3866667 255.644444,92.7762963 249.173333,110.471111 C250.974815,108.242963 252.8,106.026667 254.755556,103.917037 C257.019259,121.185185 256.023704,139.140741 248.853333,155.223704 C246.364444,163.437037 240.402963,169.92 236.98963,177.647407 C233.007407,194.951111 221.546667,210.678519 205.451852,218.56 C201.73037,220.171852 199.798519,223.928889 196.977778,226.631111 C187.911111,235.863704 175.407407,240.687407 163.01037,243.52 C154.915556,245.641481 146.37037,244.859259 138.322963,247.182222 C131.899259,248.699259 125.131852,248.687407 118.696296,247.277037 C108.681481,244.788148 98.0859259,245.582222 88.2607407,242.145185 C74.6666667,238.957037 62.0207407,231.407407 53.6059259,220.16 C37.2859259,212.61037 24.4503704,197.795556 20.0888889,180.266667 C19.602963,177.552593 18.5718519,174.957037 16.9362963,172.717037 C2.83259259,152.96 -2.32296296,127.383704 1.95555556,103.561481 C3.47259259,105.884444 5.10814815,108.124444 6.68444444,110.4 C2.80888889,95.917037 4.49185185,80.2133333 10.9392593,66.7259259 C15.3481481,55.6088889 22.9688889,46.2696296 30.4,37.0725926 C30.6607407,38.3881481 31.1822222,41.0192593 31.442963,42.3348148 C38.2459259,24.402963 55.3718519,12.717037 72.4859259,5.70074074 C72.5688889,6.75555556 72.7111111,8.87703704 72.7940741,9.9437037 Z M75.8874074,10.5837037 C74.2637037,11.8281481 71.277037,13.4044444 72.1066667,15.8222222 C78.1748148,14.3762963 83.4725926,10.6903704 89.5881481,9.29185185 C89.6118519,10.0148148 89.6355556,11.4725926 89.6474074,12.1955556 C82.3940741,14.3881481 75.2,17.6711111 70.1155556,23.4666667 C84.0414815,23.36 94.4948148,13.0014815 103.194074,3.35407407 C93.4992593,2.44148148 84.4207407,6.56592593 75.8874074,10.5837037 Z M153.362963,3.37777778 C161.493333,13.3807407 172.314074,22.7674074 185.765926,23.6444444 C181.167407,16.237037 171.757037,15.3718519 165.30963,10.3940741 C172.219259,8.96 178.014815,14.7911111 184.557037,16.2014815 C183.668148,14.2696296 183.36,11.6148148 181.060741,10.8325926 C172.302222,6.94518519 163.235556,2.50074074 153.362963,3.37777778 Z M52.7881481,20.7525926 C44.0296296,27.3540741 35.1525926,35.7688889 33.0903704,47.0162963 C39.762963,43.3185185 41.9318519,35.1051852 48.6637037,31.4785185 C46.8859259,37.5585185 42.2162963,42.0859259 38.72,47.1703704 C37.5585185,48.7940741 37.5940741,50.8444444 37.2977778,52.7288889 C40.6874074,51.1881481 43.7451852,49.0311111 46.3051852,46.3288889 C56.5333333,36.0414815 65.4340741,24.0592593 70.3525926,10.3111111 C64,12.8355556 58.1214815,16.4859259 52.7881481,20.7525926 Z M95.3837037,14.4355556 C95.4192593,15.2059259 95.4903704,16.7466667 95.5259259,17.517037 C99.1288889,17.2088889 102.791111,16.4385185 106.346667,17.5051852 C102.601481,19.757037 97.8962963,19.4844444 94.2340741,21.8548148 C93.997037,23.04 93.8074074,24.2251852 93.677037,25.4340741 C96.9955556,25.9674074 100.728889,26.4888889 103.537778,24.1659259 C108.98963,20.2192593 114.571852,16.2251852 121.185185,14.4592593 C113.042963,10.9155556 103.277037,9.39851852 95.3837037,14.4355556 Z M186.062222,9.90814815 C189.914074,22.3407407 197.866667,32.9007407 206.245926,42.642963 C209.955556,46.1392593 213.274074,50.3940741 218.192593,52.242963 C219.887407,50.3466667 218.322963,47.8222222 216.983704,46.2340741 C213.191111,41.7422222 209.777778,36.8474074 207.537778,31.3955556 C214.222222,35.0340741 216.699259,42.9866667 222.980741,47.1111111 C222.328889,41.7303704 219.697778,36.7525926 216.225185,32.6637037 C208.071111,22.8977778 197.297778,15.68 186.062222,9.90814815 Z M135.265185,14.5185185 C142.068148,16.3081481 147.579259,20.6577778 153.315556,24.4859259 C156.195556,26.642963 161.09037,27.4014815 163.117037,23.7037037 C160.592593,19.0103704 154.026667,20.0059259 149.712593,18.0622222 C153.386667,16.1303704 157.475556,17.4577778 161.386667,17.3511111 C160.734815,15.8103704 160.64,13.6177778 158.613333,13.2740741 C151.17037,9.51703704 142.542222,11.3303704 135.265185,14.5185185 Z M61.7955556,31.7155556 C66.7496296,31.5377778 71.6444444,30.6607407 76.5985185,30.6725926 C73.362963,34.1096296 68.4088889,34.0859259 64.1777778,35.3659259 C64.2725926,36.2548148 64.4503704,38.0207407 64.5333333,38.8977778 C66.6666667,38.957037 68.8,39.0874074 70.9333333,38.8385185 C81.4340741,37.0607407 92.0177778,35.1051852 101.914074,31.0044444 C95.1703704,29.0133333 88.1896296,28.0533333 81.2918519,26.7022222 C74.5125926,25.3392593 66.8444444,26.7377778 61.7955556,31.7155556 Z M154.607407,30.9925926 C166.305185,35.7688889 178.939259,38.4474074 191.537778,39.0874074 C191.644444,38.1866667 191.86963,36.3733333 191.988148,35.4725926 C187.887407,34.1688889 183.54963,33.5407407 179.70963,31.5140741 C184.651852,30.0325926 189.771852,31.8696296 194.808889,31.7511111 C190.103704,27.8992593 183.988148,25.4696296 177.848889,26.4177778 C170.014815,27.437037 162.180741,28.7644444 154.607407,30.9925926 Z M12.0533333,72.7111111 C8.6162963,81.2918519 6.4237037,90.6903704 7.94074074,99.9585185 C9.92,98.8325926 11.7688889,97.4933333 13.5348148,96.0711111 C13.5703704,98.9748148 13.76,101.914074 14.9925926,104.592593 C19.6859259,96.2133333 22.1866667,86.8622222 25.8844444,78.0444444 C28.6814815,67.1762963 29.2740741,55.8577778 29.2148148,44.6696296 C22.1155556,53.0488889 15.6681481,62.2340741 12.0533333,72.7111111 Z M226.868148,44.4681481 C226.856296,56.1659259 227.188148,68.1362963 230.980741,79.3125926 C234.69037,87.68 236.361481,97.042963 241.884444,104.533333 C244.503704,93.4874074 237.937778,83.3422222 237.700741,72.5096296 C243.602963,79.0992593 243.128889,88.64 244.017778,96.8888889 C245.072593,98.24 246.53037,99.2 247.834074,100.29037 C249.46963,93.9851852 248.308148,87.3481481 247.111111,81.0666667 C243.365926,67.4844444 236.254815,54.957037 226.868148,44.4681481 Z M36.6340741,60.4325926 C41.8844444,58.2044444 46.9925926,55.4903704 52.562963,54.1511111 C48.9125926,57.5407407 44.8118519,60.4088889 40.6992593,63.2177778 C37.7481481,65.28 33.7066667,66.322963 32.3081481,70.0207407 C32.7940741,70.4237037 33.7540741,71.2296296 34.2281481,71.6325926 C48.237037,65.7066667 60.562963,56.4385185 72.082963,46.6251852 C58.642963,44.3851852 46.2459259,51.8162963 36.6340741,60.4325926 Z M184,46.6133333 C195.733333,56.1540741 207.81037,65.4933333 221.700741,71.7274074 C222.58963,70.7555556 223.371852,69.6888889 224.154074,68.6459259 C217.28,64.082963 210.05037,59.9703704 203.934815,54.3525926 C209.552593,55.1940741 214.352593,58.3940741 219.591111,60.3496296 C209.92,51.757037 197.463704,44.3614815 184,46.6133333 Z M29.037037,81.1733333 C23.7155556,86.4237037 19.8992593,93.522963 19.8281481,101.12 C22.6844444,96.96 26.322963,93.3925926 30.9214815,91.1881481 C27.4725926,96.8177778 23.2296296,101.925926 19.9466667,107.638519 C18.4059259,110.257778 19.0222222,113.362963 20.3851852,115.887407 C23.4074074,115.911111 26.7377778,115.472593 28.4325926,112.628148 C36.1007407,100.93037 41.2325926,87.7274074 44.077037,74.0622222 C38.6607407,75.4014815 33.2562963,77.4281481 29.037037,81.1733333 Z M212.456296,74.1214815 C214.767407,87.7985185 220.503704,100.728889 227.626667,112.568889 C229.463704,115.081481 233.173333,116.942222 236.148148,115.259259 C237.807407,113.398519 237.558519,110.554074 236.657778,108.408889 C233.564444,102.423704 229.072593,97.3155556 225.682963,91.52 C230.245926,93.2622222 233.445926,96.9362963 236.432593,100.622222 C235.697778,94.1511111 233.706667,87.4548148 228.788148,82.9037037 C224.675556,77.997037 218.441481,75.7451852 212.456296,74.1214815 Z M3.8637037,115.780741 C2.88,128.675556 4.43259259,142.044444 10.2518519,153.718519 C10.1333333,148.942222 10.157037,144.142222 10.8681481,139.401481 C12.8711111,145.671111 12.7407407,152.50963 15.7866667,158.459259 C18.6311111,165.522963 23.1466667,171.757037 28.562963,177.078519 C27.0340741,168.414815 23.8814815,160.18963 21.3451852,151.798519 C18.9392593,143.348148 16.4266667,134.897778 13.1674074,126.743704 C11.4251852,122.085926 7.41925926,118.992593 3.8637037,115.780741 Z M240.817778,132.847407 C236.124444,147.508148 231.656296,162.24 227.425185,177.042963 C232.995556,171.97037 237.511111,165.724444 240.45037,158.779259 C243.06963,152.557037 243.757037,145.78963 245.202963,139.247407 C246.26963,143.54963 246.091852,148.017778 246.364444,152.414815 C251.816296,141.202963 253.878519,128.391111 252.278519,116.02963 C246.684444,120.094815 242.216296,125.985185 240.817778,132.847407 Z M22.7081481,140.385185 C20.9896296,150.091852 24.8533333,159.988148 30.802963,167.54963 C28.4088889,160.900741 26.157037,154.002963 27.3540741,146.820741 C30.2814815,153.102222 32.237037,159.762963 34.5244444,166.293333 C34.8207407,151.905185 33.4814815,137.374815 30.0562963,123.377778 C26.8088889,128.628148 23.4074074,134.127407 22.7081481,140.385185 Z M226.026667,123.472593 C223.525926,137.457778 221.214815,151.608889 221.511111,165.854815 C224.841481,159.751111 225.967407,152.782222 228.645926,146.405926 C230.103704,153.706667 227.591111,160.805926 225.386667,167.644444 C230.506667,161.09037 234.524444,153.114074 234.085926,144.592593 C234.24,136.794074 230.577778,129.576296 226.026667,123.472593 Z M45.1081481,173.688889 C45.4162963,189.392593 54.5422222,204.100741 67.6503704,212.48 C64.9481481,205.392593 60.717037,199.028148 56.1659259,193.031111 C61.7955556,196.776296 66.2518519,201.943704 71.4311111,206.257778 C67.9466667,192.260741 57.6355556,180.515556 45.1081481,173.688889 Z M184.50963,206.376296 C190.21037,202.346667 194.678519,196.894815 200.142222,192.580741 C195.863704,199.028148 191.288889,205.368889 188.681481,212.728889 C196.385185,207.300741 203.2,200.248889 206.992593,191.514074 C209.73037,185.943704 210.797037,179.780741 211.697778,173.700741 C198.293333,179.887407 188.906667,192.533333 184.50963,206.376296 Z M24.7111111,183.573333 C28.6696296,200.414815 43.3659259,213.357037 60.1244444,216.711111 C54.7081481,208.474074 46.6962963,202.37037 38.2814815,197.451852 C43.9585185,199.016296 48.402963,202.998519 53.5348148,205.653333 C47.68,194.346667 35.3896296,189.179259 24.7111111,183.573333 Z M203.271111,205.167407 C207.905185,202.797037 212.077037,199.537778 216.96,197.605926 C209.457778,203.33037 201.173333,208.50963 196.100741,216.746667 C200.154074,215.786667 204.112593,214.447407 207.881481,212.657778 C219.70963,207.241481 228.314074,195.934815 231.632593,183.502222 C221.25037,189.155556 208.865185,193.967407 203.271111,205.167407 Z M82.6785185,206.933333 C86.0918519,216.272593 91.0340741,225.576296 98.9985185,231.81037 C102.826667,234.69037 107.804444,234.702222 112.355556,234.322963 C107.70963,230.897778 103.407407,227.045926 99.0459259,223.277037 C103.063704,223.976296 107.140741,225.114074 111.217778,224.035556 C102.755556,216.782222 92.8948148,211.318519 82.6785185,206.933333 Z M145.185185,224.071111 C149.463704,225.173333 153.73037,223.917037 157.902222,222.992593 C153.41037,226.844444 148.681481,230.423704 144.414815,234.536296 C148.48,234.536296 152.948148,234.797037 156.444444,232.32 C165.238519,226.42963 169.706667,216.379259 173.771852,207.004444 C163.543704,211.354074 153.517037,216.616296 145.185185,224.071111 Z M62.2103704,225.14963 C74.7022222,235.982222 90.9511111,242.642963 107.638519,241.931852 C100.764444,237.961481 93.3688889,234.939259 85.7244444,232.794074 C88.0592593,232.746667 90.3940741,232.711111 92.7407407,232.699259 C89.9674074,229.297778 87.7037037,224.402963 82.8562963,223.715556 C76.0059259,222.471111 68.7881481,222.779259 62.2103704,225.14963 Z M173.060741,223.798519 C168.379259,224.604444 166.411852,229.617778 163.460741,232.758519 C166.044444,232.746667 168.628148,232.687407 171.223704,232.687407 C163.38963,234.571852 155.934815,237.783704 149.013333,241.872593 C165.451852,242.512593 181.795556,236.112593 193.967407,225.14963 C187.294815,222.755556 179.982222,222.423704 173.060741,223.798519 Z M119.857778,224.18963 C121.09037,227.674074 122.642963,231.087407 123.259259,234.773333 C123.851852,238.127407 123.176296,241.576296 123.828148,244.918519 C126.968889,245.25037 130.121481,245.001481 133.262222,244.752593 C132.551111,237.76 133.937778,230.885926 135.834074,224.213333 C133.191111,224.971852 130.642963,226.085926 127.952593,226.714074 C125.214815,225.991111 122.571852,224.948148 119.857778,224.18963 Z" id="Shape"></path>
                <path d="M111.86963,41.1022222 C126.364444,38.6607407 141.428148,39.4666667 155.496296,43.7925926 C174.743704,49.5644444 192.035556,62.5185185 201.813333,80.2488889 C212.420741,100.053333 215.632593,124.041481 209.481481,145.765926 C202.951111,170.394074 184.616296,191.49037 161.208889,201.552593 C131.33037,214.708148 94.2103704,207.786667 70.5303704,185.481481 C59.1407407,175.087407 50.5362963,161.434074 46.9096296,146.394074 C43.3185185,135.383704 44.0177778,123.626667 44.4681481,112.237037 C45.9022222,101.795556 48.5214815,91.2948148 53.6177778,82.002963 C64.8296296,59.8755556 87.7274074,45.1911111 111.86963,41.1022222 Z M115.401481,47.7511111 C97.2444444,50.7140741 79.4903704,59.2474074 67.8637037,73.8133333 C56.1896296,87.4311111 51.4607407,105.623704 50.7614815,123.223704 C51.2237037,136.047407 53.8074074,149.108148 60.0651852,160.414815 C67.922963,175.312593 81.1022222,187.235556 96.4622222,194.038519 C115.484444,202.844444 138.133333,203.377778 157.511111,195.33037 C173.167407,188.622222 186.666667,176.746667 195.128889,161.979259 C212.231111,132.16 207.632593,90.4888889 181.985185,66.9037037 C164.325926,50.6903704 138.868148,44.2666667 115.401481,47.7511111 Z" id="Shape"></path>
                <path d="M114.24,51.5318519 C135.241481,48.2133333 157.914074,52.4918519 174.90963,65.6948148 C188.61037,75.9940741 197.783704,91.9585185 200.225185,108.882963 C203.899259,127.597037 200.260741,147.757037 189.902222,163.816296 C178.797037,180.586667 160.948148,193.102222 140.98963,196.456296 C108.136296,202.607407 72.3318519,183.312593 60.0888889,152.082963 C53.7125926,137.303704 53.6414815,120.592593 56.4977778,104.983704 C59.6740741,91.8637037 66.1925926,79.4192593 76.1481481,70.1748148 C86.5066667,60.1718519 100.219259,54.2340741 114.24,51.5318519 Z M77.2622222,83.2474074 C77.2740741,109.902222 77.1674074,136.545185 77.3096296,163.2 C83.7096296,163.282963 90.0977778,163.176296 96.4977778,163.188148 C96.2725926,136.557037 96.4503704,109.914074 96.4385185,83.282963 C90.0503704,83.2948148 83.6503704,83.2711111 77.2622222,83.2474074 Z M102.471111,83.4607407 C102.542222,96.3318519 102.376296,109.191111 102.565926,122.062222 C108.717037,121.979259 115.70963,121.41037 120.225185,116.693333 C127.241481,110.103704 127.016296,98.2518519 121.185185,90.962963 C117.262222,84.7051852 109.357037,83.0459259 102.471111,83.4607407 Z M133.511111,83.6977778 C133.511111,110.234074 133.558519,136.758519 133.475556,163.294815 C139.757037,163.365926 146.062222,163.472593 152.343704,163.235556 C152.308148,136.734815 152.426667,110.234074 152.32,83.7333333 C146.05037,83.7451852 139.780741,83.757037 133.511111,83.6977778 Z M157.854815,83.7214815 C157.866667,96.6162963 157.617778,109.522963 158.044444,122.417778 C164.882963,109.357037 172.98963,96.9837037 179.496296,83.7451852 C172.278519,83.7214815 165.072593,83.7688889 157.854815,83.7214815 Z M158.068148,137.92 C157.487407,146.358519 157.961481,154.868148 157.866667,163.33037 C164.66963,163.365926 171.472593,163.365926 178.275556,163.306667 C175.727407,153.884444 171.70963,144.948148 168.995556,135.585185 C167.798519,132.005926 166.577778,128.414815 165.048889,124.954074 C162.891852,129.374815 160.379259,133.594074 158.068148,137.92 Z M102.518519,163.460741 C111.134815,164.586667 120.355556,160.805926 124.657778,153.042963 C129.28,144.462222 124.693333,133.333333 116.598519,128.687407 C112.343704,126.186667 107.342222,125.973333 102.542222,126.245926 C102.435556,138.642963 102.471111,151.051852 102.518519,163.460741 Z" id="Shape"></path>
                <path d="M13.0133333,96.3674074 C12.2074074,88.1540741 13.0133333,78.957037 18.7140741,72.4977778 C18.3466667,80.722963 15.4311111,88.5807407 13.0133333,96.3674074 Z" id="Shape"></path>
            </g>
        </g>
    </g>
</svg>