<?xml version="1.0" encoding="UTF-8"?>
<svg width="256px" height="256px" viewBox="0 0 256 256" version="1.1" xmlns="http://www.w3.org/2000/svg" xmlns:xlink="http://www.w3.org/1999/xlink">
    <!-- Generator: Sketch 50.2 (55047) - http://www.bohemiancoding.com/sketch -->
    <title>logo/bktromsø</title>
    <desc>Created with Sketch.</desc>
    <defs></defs>
    <g id="logo/bktromsø" stroke="none" stroke-width="1" fill="none" fill-rule="evenodd">
        <g id="bktromso" fill-rule="nonzero">
            <g id="#ffffffff" fill="#FFFFFF">
                <path d="M117.975405,0.331391586 C129.516117,-0.347961165 141.172816,0.132556634 152.514693,2.50200647 C167.833269,5.91533981 182.76246,11.6318447 195.852427,20.3805825 C223.001683,37.8614887 242.868608,66.1788997 250.225502,97.6196764 C252.744078,107.354304 254.268479,117.494887 253.605696,127.560906 C253.912233,163.82343 237.914304,199.986537 210.541359,223.813592 C191.196375,241.120518 166.250874,251.932168 140.476893,254.699288 C136.25165,255.718317 131.910421,255.60233 127.610615,255.287508 C102.615405,255.569191 77.6864725,247.71521 57.0242071,233.730485 C42.5506796,223.888155 30.1317799,211.09644 20.6954045,196.357799 C8.68245955,177.335922 1.71495146,155.091262 0.903042071,132.606343 C-0.256828479,104.197799 8.50019417,75.5241424 25.2106149,52.5421359 C46.4776699,22.6588997 81.3814887,2.98252427 117.975405,0.331391586 Z M114.089838,15.3848544 C120.518835,15.8239482 126.956117,15.1445955 133.376828,15.4842718 C137.585502,15.6168285 141.761036,16.3293204 145.969709,16.3210356 C135.47288,14.3658252 124.702654,14.7469256 114.089838,15.3848544 Z M110.113139,15.9399353 C109.906019,17.3649191 112.963107,17.3649191 112.764272,15.9399353 C112.192621,15.1031715 110.676505,15.1031715 110.113139,15.9399353 Z M70.7023948,32.5509385 C43.4040129,48.8305502 23.7276375,77.3467961 18.433657,108.71301 C15.8239482,123.103689 16.6772816,137.941748 19.5272492,152.224725 C22.9322977,165.82835 28.4002589,179.034304 36.3619417,190.61644 C38.8308091,194.460583 43.0229126,197.575663 43.2880259,202.463689 C43.6194175,202.198576 44.2904854,201.65178 44.621877,201.378382 C47.7452427,204.352621 50.7029126,207.484272 53.7931392,210.49165 C66.7836893,221.841812 82.1519741,230.640259 98.9121036,234.989773 C109.881165,237.955728 121.297605,238.717929 132.614628,238.883625 C137.113269,238.577087 141.537346,237.541489 146.011133,237.019547 C163.500324,234.070162 180.194175,226.613851 194.220324,215.769061 C195.579029,214.799741 197.053722,214.029256 198.569838,213.325049 C197.459676,214.758317 196.250097,216.125307 194.816828,217.227184 C186.258641,223.904725 176.515728,228.900453 166.507702,233.017994 C160.592362,235.470291 154.262783,236.638447 148.181748,238.585372 C152.382136,238.08 156.474822,236.978123 160.50123,235.718835 C175.148738,231.071068 188.934628,223.531909 200.47534,213.358188 C200.011392,213.167638 199.083495,212.786537 198.619547,212.595987 C202.306278,208.627573 206.150421,204.791715 210.11055,201.096699 C210.3011,201.577217 210.682201,202.538252 210.872751,203.027055 C217.2189,195.645307 223.051392,187.650485 227.028091,178.736052 C221.601553,186.109515 218.353916,195.413333 210.806472,201.022136 C212.637411,196.7389 216.001036,193.433269 218.511327,189.572557 C229.919482,172.249061 236.414757,151.669644 236.88699,130.916246 C237.831456,119.73178 235.934239,108.48932 233.009709,97.7108091 C228.933592,82.9390291 221.75068,69.0868608 212.140324,57.1650485 C195.56246,36.8507443 171.577994,22.6009061 145.638317,18.3508091 C120.054887,14.2415534 92.7979288,18.7236246 70.7023948,32.5509385 Z M188.131003,32.9983172 C192.107702,36.2873786 196.241812,39.4107443 200.491909,42.3435599 C196.689191,38.8473786 192.521942,35.7157282 188.131003,32.9983172 Z M218.942136,63.171521 C219.348091,63.6023301 219.348091,63.6023301 218.942136,63.171521 Z M239.057605,123.990162 C238.543948,127.42835 238.618511,130.907961 238.403107,134.371003 C238.104854,139.101618 237.201812,143.782524 237.09411,148.529709 C238.220841,144.205049 238.336828,139.714693 238.709644,135.28233 C238.958188,131.521036 239.645825,127.743172 239.057605,123.990162 Z M234.484401,158.156634 C232.719741,165.115858 229.911197,171.743689 227.094369,178.321812 C229.588091,174.436246 231.095922,170.028738 232.661748,165.712362 C234.500971,160.260971 236.31534,154.726731 236.928414,148.985372 C235.851392,151.967896 235.288026,155.099547 234.484401,158.156634 Z M94.0572168,235.395728 C94.1814887,236.588738 94.7117152,236.787573 95.6478964,236.008803 C95.5236246,234.807508 94.9933981,234.600388 94.0572168,235.395728 Z M135.721424,240.076634 C139.706408,240.05178 143.707961,239.645825 147.601812,238.775922 C143.616828,238.974757 139.640129,239.364142 135.721424,240.076634 Z M112.374887,239.803236 C114.744337,240.142913 117.15521,240.142913 119.532945,239.803236 C117.146926,239.579547 114.752621,239.571262 112.374887,239.803236 Z M122.780583,240.664854 C125.274304,240.946537 127.80945,241.0211 130.294887,240.631715 C127.79288,240.366602 125.274304,240.441165 122.780583,240.664854 Z" id="Shape"></path>
                <path d="M120.278576,32.7414887 C123.194822,32.6586408 126.111068,32.5840777 129.027314,32.5592233 C129.027314,33.0397411 129.010744,34.0090615 129.00246,34.4895793 C126.989256,34.8209709 124.984337,35.1275081 122.971133,35.4506149 C123.111974,36.5276375 123.244531,37.612945 123.377087,38.6982524 C125.034045,38.7893851 126.699288,38.9302265 128.356246,39.0462136 C128.323107,39.5267314 128.256828,40.4960518 128.223689,40.9765696 C126.666149,41.117411 125.108608,41.2665372 123.551068,41.4156634 C123.534498,42.7163754 123.526214,44.0253722 123.517929,45.3260841 C125.870809,45.5332039 128.695922,45.1106796 130.286602,47.2978641 C127.080388,48.010356 123.791327,48.1346278 120.52712,48.0269256 C120.452557,42.9317799 120.11288,37.8366343 120.278576,32.7414887 Z" id="Shape"></path>
                <path d="M131.512751,32.4598058 C132.556634,32.5260841 133.600518,32.5840777 134.652686,32.650356 C135.464595,34.7795469 136.317929,36.8921683 137.204401,38.9965049 C138.703948,36.353657 139.689838,32.5012298 143.492557,32.8326214 C141.321942,37.7869256 137.718058,42.2938511 137.867184,47.9937864 C137.022136,48.0517799 136.185372,48.1014887 135.356893,48.1511974 C135.862265,42.5672492 133.351974,37.5383819 131.512751,32.4598058 Z" id="Shape"></path>
                <path d="M109.102395,34.0753398 C109.773463,34.0919094 111.123883,34.1250485 111.794951,34.1416181 C112.482589,38.1348867 113.145372,42.1281553 113.683883,46.1462783 C115.705372,46.1711327 117.726861,46.2705502 119.74835,46.394822 C118.124531,49.62589 114.00699,48.8056958 111.04932,49.269644 C110.27055,44.2242071 109.408932,39.1787702 109.102395,34.0753398 Z" id="Shape"></path>
                <path d="M146.864466,33.8599353 C149.896699,34.4978641 154.312492,34.0753398 155.803754,37.41411 C155.538641,40.1563754 154.693592,42.8655016 155.323236,45.6409061 C155.919741,47.8943689 153.624854,49.741877 151.570227,49.8661489 C149.059935,49.9572816 146.615922,49.269644 144.188479,48.7311327 C144.710421,43.718835 145.770874,38.7811003 146.864466,33.8599353 Z M149.383042,36.3785113 C149.059935,37.8614887 148.753398,39.3527508 148.46343,40.8440129 C150.634045,40.8854369 152.730097,40.4049191 153.61657,38.1845955 C152.208155,37.5798058 150.791456,36.9667314 149.383042,36.3785113 Z M148.190032,42.6749515 C147.933204,44.2242071 147.68466,45.7734628 147.452686,47.3310032 C149.076505,47.3144337 150.700324,47.2730097 152.332427,47.2150162 C152.241294,46.0054369 152.150162,44.8041424 152.059029,43.5945631 C150.766602,43.2880259 149.474175,42.9814887 148.190032,42.6749515 Z" id="Shape"></path>
                <path d="M97.8930744,37.1241424 C98.8623948,36.8507443 99.84,36.5939159 100.817605,36.3288026 C101.878058,40.330356 102.979935,44.3153398 104.255793,48.2506149 C105.96246,47.968932 107.677411,47.7121036 109.392362,47.4387055 C109.417217,48.010356 109.483495,49.1370874 109.516634,49.7004531 C106.989773,50.3880906 104.462913,51.0674434 101.927767,51.7053722 C100.453074,46.8753398 99.168932,41.9955987 97.8930744,37.1241424 Z" id="Shape"></path>
                <path d="M165.132427,38.3088673 C166.317152,38.5822654 167.501877,38.8639482 168.694887,39.1539159 C168.819159,44.7047249 168.719741,50.2638188 168.554045,55.8229126 C166.010615,55.2844013 165.281553,53.0143689 165.099288,50.6946278 C163.64945,50.1975405 162.216181,49.6176052 160.70835,49.3524919 C159.457346,49.9075728 158.388608,50.7774757 157.270162,51.5396764 C156.797929,51.2994175 155.861748,50.8271845 155.389515,50.5952104 C158.405178,46.3202589 161.801942,42.3352751 165.132427,38.3088673 Z M161.536828,47.0907443 C162.928673,47.4635599 164.328803,47.8363754 165.737217,48.2091909 C165.778641,46.1379935 165.79521,44.0667961 165.762071,42.0038835 C164.270809,43.6277023 162.87068,45.3343689 161.536828,47.0907443 Z" id="Shape"></path>
                <path d="M88.2330097,40.2475081 C93.0133333,38.8473786 96.5177994,43.9259547 97.0563107,48.0766343 C98.3570227,53.7102913 90.8427184,58.4823301 86.1618123,55.4583819 C83.4775405,53.4368932 82.0442718,49.9324272 82.2182524,46.6019417 C82.4253722,43.3957282 85.2836246,41.0014239 88.2330097,40.2475081 Z M87.396246,43.321165 C83.7757929,45.1603883 85.4824595,50.0401294 87.5950809,52.4095793 C89.5171521,55.1601294 94.5294498,52.9232362 94.0406472,49.6921683 C93.9826537,46.4611003 91.215534,41.5150809 87.396246,43.321165 Z" id="Shape"></path>
                <path d="M177.783301,43.7105502 C178.528932,44.2822006 179.282848,44.8538511 179.99534,45.4917799 C178.23068,49.1039482 175.86123,52.3764401 173.988867,55.9388997 C175.645825,57.2396117 177.137087,58.7805825 177.791586,60.8352104 C174.784207,60.1475728 172.191068,58.4409061 169.821618,56.5436893 C172.447896,52.2521683 175.099029,47.968932 177.783301,43.7105502 Z" id="Shape"></path>
                <path d="M74.7288026,49.4767638 C74.1488673,48.2174757 75.383301,47.181877 75.8721036,46.1379935 C78.6060841,50.9680259 80.9423948,56.0134628 83.0135922,61.1583172 C82.1022654,61.9785113 81.1909385,62.8069903 80.2878964,63.6271845 C75.5075728,61.3571521 70.9095146,58.7474434 66.2783172,56.1957282 C66.9245307,55.4335275 67.5707443,54.6713269 68.2169579,53.917411 C71.7794175,55.7732039 75.3087379,57.736699 79.0534628,59.236246 C77.8521683,55.8726214 75.971521,52.815534 74.7288026,49.4767638 Z" id="Shape"></path>
                <path d="M177.526472,61.5145631 C181.238058,58.092945 184.875081,54.5801942 188.785502,51.3822654 C189.332298,52.1610356 189.895663,52.9398058 190.450744,53.7185761 C187.459935,56.5602589 184.402848,59.3273786 181.395469,62.1442071 C182.464207,63.527767 183.54123,64.9030421 184.618252,66.2783172 C184.054887,66.8085437 183.491521,67.3304854 182.928155,67.8524272 C180.96466,65.8806472 179.142006,63.7763107 177.526472,61.5145631 Z" id="Shape"></path>
                <path d="M59.5427832,93.4772816 C73.3203883,69.7082201 101.132427,55.4335275 128.39767,56.6016828 C131.231068,56.5933981 134.064466,56.5436893 136.889579,56.7839482 C130.568285,57.1733333 124.197282,56.3365696 117.900841,57.3141748 C103.211909,59.7333333 90.0308091,68.4820712 80.9838188,80.147055 C64.98589,100.734757 61.2577346,129.739806 70.5284142,153.9811 C76.4603236,169.912751 88.2661489,183.930615 103.791845,191.171521 C109.218382,193.839223 115.166861,195.015663 121.032492,196.233528 C103.849838,195.206214 87.04,188.371262 74.0908738,177.004531 C63.1549515,167.452168 54.9944337,154.486472 52.0367638,140.203495 C48.5654369,124.420971 51.2828479,107.370874 59.5427832,93.4772816 Z" id="Shape"></path>
                <path d="M137.44466,57.1899029 C154.113657,58.8551456 169.979029,66.56 182.223948,77.9184466 C193.615534,89.1194822 201.618641,104.056958 203.101618,120.096311 C203.714693,132.888026 201.610356,146.035987 195.446472,157.377864 C190.699288,165.762071 184.775663,173.690615 176.954822,179.440259 C166.159741,188.097864 152.945502,193.466408 139.325307,195.661877 C135.464595,196.581489 131.496181,196.937735 127.527767,196.871456 C132.830032,195.993269 138.248285,195.645307 143.384854,193.963495 C157.303301,189.754822 169.125696,179.97877 176.954822,167.849838 C191.42835,145.472621 192.787055,115.465113 180.77411,91.7291909 C174.113139,78.4238188 163.086084,67.0902265 149.349903,61.1168932 C145.52233,59.4102265 141.413074,58.4823301 137.44466,57.1899029 Z" id="Shape"></path>
                <path d="M77.3467961,89.798835 C81.2406472,89.5337217 85.2339159,88.9869256 89.086343,89.8071197 C90.9338511,90.5196117 90.072233,92.8807767 90.3456311,94.3968932 C90.1302265,116.442718 90.5693204,138.496828 90.1219417,160.542654 C85.8469903,160.832621 81.5554693,160.840906 77.2888026,160.492945 C76.7171521,140.4189 77.2308091,120.328285 77.0236893,100.245955 C76.9905502,96.7580583 77.0485437,93.2701618 77.3467961,89.798835 Z" id="Shape"></path>
                <path d="M117.113786,89.798835 C120.999353,89.7822654 125.580841,88.3241424 129.035599,90.5361812 C129.607249,98.4398706 129.027314,106.393269 129.259288,114.313528 C143.625113,114.238964 157.974369,114.760906 172.331909,114.305243 C176.060065,114.40466 179.854498,113.957282 183.54123,114.653204 C185.165049,115.18343 184.576828,117.122071 184.783948,118.406214 C184.684531,124.876634 185.024207,131.371909 184.419417,137.817476 C182.712751,137.187832 181.030939,136.400777 179.796505,135.025502 C173.790032,128.886472 167.700712,122.822006 161.611392,116.765825 C161.362848,138.81165 161.835081,160.865761 161.371133,182.911586 C157.096181,183.193269 152.80466,183.201553 148.529709,182.870162 C148.049191,175.504984 148.422006,168.114951 148.281165,160.741489 C137.867184,160.575793 127.444919,160.990032 117.047508,160.509515 C116.517282,142.084142 116.96466,123.642201 116.815534,105.216828 C116.815534,100.071974 116.649838,94.9271197 117.113786,89.798835 Z M120.154304,92.789644 C120.11288,114.330097 120.11288,135.87055 120.154304,157.411003 C122.068091,157.411003 123.990162,157.411003 125.903948,157.411003 C125.945372,135.87055 125.945372,114.330097 125.903948,92.789644 C123.981877,92.789644 122.068091,92.789644 120.154304,92.789644 Z M132.490356,133.318835 C131.297346,134.586408 129.855793,135.754563 129.217864,137.428091 C129.922071,138.654239 130.982524,139.62356 131.976699,140.60945 C137.535793,145.812298 142.722071,151.387961 148.231456,156.640518 C148.339159,143.649968 148.347443,130.659417 148.223172,117.668867 C142.970615,122.88 137.809191,128.182265 132.490356,133.318835 Z M130.974239,144.147055 C130.858252,148.554563 130.874822,152.978641 130.916246,157.394434 C135.332039,157.435858 139.747832,157.452427 144.163625,157.33644 C139.805825,152.904078 135.406602,148.504854 130.974239,144.147055 Z" id="Shape"></path>
                <path d="M93.6346926,120.146019 C97.7688026,120.253722 102.110032,119.508091 106.078447,120.941359 C110.560518,123.426796 112.109773,128.878188 113.045955,133.575663 C114.081553,141.189385 113.567896,149.722718 108.911845,156.151715 C105.307961,160.824337 98.6801294,158.620583 93.6346926,159.034822 C93.6098382,146.077411 93.6015534,133.111715 93.6346926,120.146019 Z" id="Shape"></path>
                <path d="M89.5005825,201.196117 C91.2900971,201.602071 94.72,200.334498 94.8856958,203.068479 C94.9933981,205.678188 97.3297087,209.472621 94.1400647,211.013592 C92.6156634,211.311845 91.058123,211.320129 89.5088673,211.411262 C89.4508738,208.006214 89.4508738,204.601165 89.5005825,201.196117 Z M91.1326861,202.157152 C91.1326861,203.250744 91.1244013,204.352621 91.1244013,205.454498 C91.7457605,205.462783 92.9967638,205.462783 93.618123,205.462783 C93.618123,204.352621 93.618123,203.250744 93.6264078,202.148867 C92.9967638,202.148867 91.7540453,202.148867 91.1326861,202.157152 Z M91.215534,205.843883 C91.1906796,207.517411 91.1906796,209.199223 91.215534,210.881036 C92.4333981,210.069126 95.0845307,210.052557 94.4963107,208.014498 C94.4714563,206.539806 92.1931392,206.597799 91.215534,205.843883 Z" id="Shape"></path>
                <path d="M100.486214,201.345243 C100.991586,201.345243 101.994045,201.345243 102.491133,201.345243 C103.800129,204.684013 105.117411,208.022783 106.219288,211.436117 C104.97657,210.566214 103.816699,209.547184 102.449709,208.876117 C100.154822,208.15534 98.5061489,210.383948 96.7580583,211.436117 C97.8599353,208.014498 99.1772168,204.675728 100.486214,201.345243 Z M99.483754,207.96479 C100.801036,207.96479 102.126602,207.96479 103.443883,207.973074 C102.7811,206.291262 102.151456,204.601165 101.554951,202.902783 C100.892168,204.601165 100.204531,206.291262 99.483754,207.96479 Z" id="Shape"></path>
                <path d="M106.882071,201.320388 C107.288026,201.320388 108.099935,201.320388 108.50589,201.312104 C108.52246,204.253204 108.539029,207.186019 108.563883,210.118835 C110.06343,210.425372 111.579547,210.71534 113.070809,211.09644 C111.016181,211.220712 108.953269,211.270421 106.890356,211.320129 C106.857217,207.989644 106.857217,204.650874 106.882071,201.320388 Z" id="Shape"></path>
                <path d="M113.509903,201.320388 C113.915858,201.320388 114.727767,201.320388 115.142006,201.320388 C115.150291,204.319482 115.166861,207.326861 115.175146,210.325955 C116.550421,210.392233 117.925696,210.450227 119.309256,210.516505 L119.284401,211.30356 C117.36233,211.28699 115.440259,211.262136 113.518188,211.245566 C113.485049,207.939935 113.485049,204.626019 113.509903,201.320388 Z" id="Shape"></path>
                <path d="M120.137735,201.320388 C120.52712,201.320388 121.30589,201.312104 121.70356,201.303819 C121.753269,202.737087 121.794693,204.170356 121.844401,205.611909 C123.310809,203.880388 124.83521,202.198576 126.624725,200.798447 C125.771392,202.579676 124.628091,204.236634 123.965307,206.117282 C124.727508,208.072492 125.862524,209.853722 126.699288,211.775793 C124.686084,210.251392 123.194822,208.196764 121.786408,206.133851 C121.786408,207.848803 121.744984,209.563754 121.736699,211.278706 C121.339029,211.278706 120.535405,211.262136 120.137735,211.262136 C120.11288,207.94822 120.11288,204.634304 120.137735,201.320388 Z" id="Shape"></path>
                <path d="M128.422524,201.320388 C128.828479,201.320388 129.640388,201.320388 130.046343,201.320388 C130.062913,204.319482 130.079482,207.326861 130.087767,210.325955 C131.454757,210.392233 132.830032,210.458511 134.205307,210.52479 L134.221877,211.311845 C132.283236,211.28699 130.35288,211.262136 128.430809,211.245566 C128.39767,207.93165 128.39767,204.626019 128.422524,201.320388 Z" id="Shape"></path>
                <path d="M135.033786,201.320388 C135.439741,201.320388 136.259935,201.312104 136.66589,201.312104 C136.66589,203.756117 136.541618,206.208414 136.815016,208.644142 C136.798447,211.253851 141.562201,211.245566 141.553916,208.644142 C141.819029,206.208414 141.703042,203.756117 141.703042,201.312104 C142.108997,201.312104 142.929191,201.312104 143.34343,201.312104 C142.96233,204.534887 144.668997,209.041812 141.346796,211.11301 C139.192751,211.601812 136.317929,211.651521 135.265761,209.290356 C134.801812,206.655793 135.033786,203.971521 135.033786,201.320388 Z" id="Shape"></path>
                <path d="M145.008673,201.196117 C146.798188,201.602071 150.228091,200.334498 150.393786,203.060194 C150.501489,205.669903 152.837799,209.464337 149.65644,211.013592 C148.123754,211.311845 146.566214,211.320129 145.016958,211.411262 C144.958964,208.006214 144.958964,204.601165 145.008673,201.196117 Z M146.640777,202.148867 C146.640777,203.250744 146.640777,204.352621 146.640777,205.454498 C147.262136,205.462783 148.504854,205.462783 149.126214,205.462783 C149.126214,204.352621 149.126214,203.250744 149.126214,202.148867 C148.504854,202.148867 147.262136,202.148867 146.640777,202.148867 Z M146.723625,205.843883 C146.69877,207.517411 146.69877,209.199223 146.723625,210.881036 C147.941489,210.069126 150.592621,210.060841 150.004401,208.014498 C149.987832,206.539806 147.70123,206.597799 146.723625,205.843883 Z" id="Shape"></path>
                <path d="M153.293463,201.196117 C154.908997,201.510939 157.104466,200.765307 158.355469,201.941748 C159.018252,204.360906 159.449061,206.862913 159.656181,209.364919 C158.446602,211.759223 155.497217,211.171003 153.301748,211.411262 C153.243754,208.006214 153.243754,204.601165 153.293463,201.196117 Z M154.925566,202.157152 C154.925566,203.250744 154.917282,204.352621 154.917282,205.454498 C155.538641,205.454498 156.789644,205.462783 157.411003,205.462783 C157.411003,204.352621 157.411003,203.250744 157.411003,202.148867 C156.789644,202.148867 155.546926,202.157152 154.925566,202.157152 Z M155.008414,205.843883 C154.98356,207.517411 154.98356,209.199223 155.008414,210.881036 C156.226278,210.069126 158.877411,210.060841 158.289191,208.014498 C158.272621,206.539806 155.986019,206.597799 155.008414,205.843883 Z" id="Shape"></path>
                <path d="" id="Shape"></path>
                <path d="M94.9851133,219.55521 C97.3877023,219.522071 99.7902913,219.522071 102.19288,219.55521 C101.289838,219.961165 100.386796,220.358835 99.483754,220.756505 C99.4423301,223.672751 99.4091909,226.580712 99.3760518,229.488673 C98.9783819,229.488673 98.1996117,229.496958 97.8019417,229.496958 C97.7688026,226.580712 97.7356634,223.672751 97.6942395,220.76479 C96.7829126,220.36712 95.8798706,219.961165 94.9851133,219.55521 Z" id="Shape"></path>
                <path d="M103.601294,219.397799 C105.805049,219.621489 108.721294,219.058123 109.955728,221.435858 C109.135534,224.368673 109.49178,227.309773 110.676505,230.093463 C109.375793,228.685049 108.224207,227.152362 107.147184,225.569968 C106.766084,225.503689 106.003883,225.371133 105.622783,225.304854 C105.324531,227.011521 105.051133,228.784466 103.841553,230.118317 C103.410744,226.555858 103.526731,222.968544 103.601294,219.397799 Z M105.291392,219.928026 C105.274822,221.601553 105.274822,223.283366 105.307961,224.965178 C106.285566,224.211262 108.555599,224.260971 108.580453,222.794563 C109.185243,220.74822 106.509256,220.739935 105.291392,219.928026 Z" id="Shape"></path>
                <path d="M114.653204,219.754045 C116.401294,219.149256 118.389644,219.55521 119.856052,220.640518 C121.463301,222.877411 121.463301,226.158188 119.856052,228.395081 C117.519741,230.284013 112.913398,229.960906 112.06835,226.680129 C111.347573,224.227832 111.712104,220.483107 114.653204,219.754045 Z M115.465113,220.474822 C112.43288,222.106926 112.598576,227.806861 116.086472,228.660194 C120.916505,228.817605 120.419417,219.290097 115.465113,220.474822 Z" id="Shape"></path>
                <path d="M122.639741,219.497217 C123.211392,219.530356 124.346408,219.596634 124.918058,219.629773 C125.895663,222.032362 126.732427,224.50123 127.892298,226.829256 C128.149126,226.829256 128.671068,226.829256 128.936181,226.829256 C130.104337,224.50123 130.932816,222.032362 131.910421,219.629773 C132.482071,219.596634 133.617087,219.530356 134.180453,219.497217 C134.230162,222.827702 134.230162,226.158188 134.213592,229.488673 C133.807638,229.488673 132.995728,229.488673 132.589773,229.488673 C132.573204,226.912104 132.564919,224.327249 132.498641,221.75068 C131.330485,224.27754 130.336311,226.887249 128.927896,229.289838 C128.671068,229.289838 128.157411,229.273269 127.900583,229.264984 C126.483883,226.878964 125.489709,224.269256 124.329838,221.742395 C124.26356,224.327249 124.255275,226.903819 124.238706,229.488673 C123.832751,229.488673 123.029126,229.488673 122.623172,229.488673 C122.598317,226.158188 122.598317,222.827702 122.639741,219.497217 Z" id="Shape"></path>
                <path d="M135.978252,221.510421 C137.23754,218.900712 140.087508,219.406084 142.158706,220.607379 C140.551456,220.739935 138.869644,220.615663 137.361812,221.303301 C137.974887,223.921294 142.258123,224.517799 141.57877,227.525178 C140.302913,230.118317 137.452945,229.646084 135.381748,228.41165 C136.955858,228.245955 138.695663,228.552492 140.112362,227.682589 C139.822395,224.956893 135.2989,224.418382 135.978252,221.510421 Z" id="Shape"></path>
                <path d="M144.420453,220.640518 C146.12712,219.372945 148.405437,219.248673 150.418641,219.720906 C153.500583,221.982654 153.508867,228.917023 148.960518,229.314693 C147.610097,229.530097 146.251392,229.62123 144.892686,229.753786 C143.608544,226.936958 142.249838,223.407638 144.420453,220.640518 Z M145.174369,222.32233 C144.851262,224.045566 145.033528,225.810227 145.083236,227.550032 C147.469256,225.702524 148.48,222.802848 149.308479,220.019159 C147.850356,220.565955 145.944854,220.756505 145.174369,222.32233 Z M146.49165,229.008155 C147.949773,228.44479 149.788997,228.2211 150.625761,226.721553 C150.890874,225.006602 150.692039,223.258511 150.609191,221.54356 C148.629126,223.647896 147.311845,226.257605 146.49165,229.008155 Z" id="Shape"></path>
                <path d="" id="Shape"></path>
            </g>
            <g id="#005596ff" transform="translate(16.569579, 14.084142)" fill="#005596">
                <path d="M97.5202589,1.30071197 C108.133074,0.662783172 118.903301,0.281682848 129.400129,2.2368932 C125.191456,2.24517799 121.015922,1.53268608 116.807249,1.40012945 C110.386537,1.06045307 103.949256,1.73980583 97.5202589,1.30071197 Z" id="Shape"></path>
                <path d="M93.5435599,1.85579288 C94.1069256,1.01902913 95.6230421,1.01902913 96.1946926,1.85579288 C96.3935275,3.2807767 93.3364401,3.2807767 93.5435599,1.85579288 Z" id="Shape"></path>
                <path d="M54.1328155,18.4667961 C76.2283495,4.6394822 103.485307,0.157411003 129.068738,4.26666667 C155.008414,8.51676375 178.99288,22.7666019 195.570744,43.0809061 C205.1811,55.0027184 212.364013,68.8548867 216.440129,83.6266667 C219.36466,94.405178 221.261877,105.647638 220.317411,116.832104 C219.845178,137.585502 213.349903,158.164919 201.941748,175.488414 C199.431456,179.349126 196.067832,182.654757 194.236893,186.937994 C201.784337,181.329191 205.031974,172.025372 210.458511,164.651909 C206.481812,173.566343 200.64932,181.561165 194.303172,188.942913 C194.112621,188.45411 193.731521,187.493074 193.540971,187.012557 C189.580841,190.707573 185.736699,194.54343 182.049968,198.511845 C182.513916,198.702395 183.441812,199.083495 183.905761,199.274045 C172.365049,209.447767 158.579159,216.986926 143.93165,221.634693 C139.905243,222.893981 135.812557,223.995858 131.612168,224.50123 C137.693204,222.554304 144.022783,221.386149 149.938123,218.933851 C159.946149,214.816311 169.689061,209.820583 178.247249,203.143042 C179.680518,202.041165 180.890097,200.674175 182.000259,199.240906 C180.484142,199.945113 179.00945,200.715599 177.650744,201.684919 C163.624595,212.529709 146.930744,219.986019 129.441553,222.935405 C124.967767,223.457346 120.543689,224.492945 116.045049,224.799482 C104.728026,224.633786 93.3115858,223.871586 82.3425243,220.905631 C65.5823948,216.556117 50.21411,207.75767 37.2235599,196.407508 C34.1333333,193.400129 31.1756634,190.268479 28.0522977,187.294239 C27.7209061,187.567638 27.0498382,188.114434 26.7184466,188.379547 C26.4533333,183.491521 22.2612298,180.37644 19.7923625,176.532298 C11.8306796,164.950162 6.36271845,151.744207 2.9576699,138.140583 C0.107702265,123.857605 -0.745631068,109.019547 1.86407767,94.6288673 C7.15805825,63.2626537 26.8344337,34.7464078 54.1328155,18.4667961 Z M103.708997,18.6573463 C103.543301,23.7524919 103.882977,28.8476375 103.95754,33.9427832 C107.221748,34.0504854 110.510809,33.9262136 113.717023,33.2137217 C112.126343,31.0265372 109.30123,31.4490615 106.94835,31.2419417 C106.956634,29.9412298 106.964919,28.632233 106.981489,27.331521 C108.539029,27.1823948 110.09657,27.0332686 111.65411,26.8924272 C111.687249,26.4119094 111.753528,25.442589 111.786667,24.9620712 C110.129709,24.8460841 108.464466,24.7052427 106.807508,24.61411 C106.674951,23.5288026 106.542395,22.4434951 106.401553,21.3664725 C108.414757,21.0433657 110.419676,20.7368285 112.43288,20.4054369 C112.441165,19.9249191 112.457735,18.9555987 112.457735,18.4750809 C109.541489,18.4999353 106.625243,18.5744984 103.708997,18.6573463 Z M114.943172,18.3756634 C116.782395,23.4542395 119.292686,28.4831068 118.787314,34.067055 C119.615793,34.0173463 120.452557,33.9676375 121.297605,33.909644 C121.148479,28.2097087 124.752362,23.7027832 126.922977,18.748479 C123.120259,18.4170874 122.134369,22.2695146 120.634822,24.9123625 C119.74835,22.8080259 118.895016,20.6954045 118.083107,18.5662136 C117.030939,18.4999353 115.987055,18.4419417 114.943172,18.3756634 Z M92.5328155,19.9911974 C92.8393528,25.0946278 93.7009709,30.1400647 94.4797411,35.1855016 C97.437411,34.7215534 101.554951,35.5417476 103.17877,32.3106796 C101.157282,32.1864078 99.1357929,32.0869903 97.1143042,32.0621359 C96.5757929,28.0440129 95.9130097,24.0507443 95.2253722,20.0574757 C94.5543042,20.0409061 93.2038835,20.007767 92.5328155,19.9911974 Z M130.294887,19.7757929 C129.201294,24.6969579 128.140841,29.6346926 127.6189,34.6469903 C130.046343,35.1855016 132.490356,35.8731392 135.000647,35.7820065 C137.055275,35.6577346 139.350162,33.8102265 138.753657,31.5567638 C138.124013,28.7813592 138.969061,26.072233 139.234175,23.3299676 C137.742913,19.9911974 133.32712,20.4137217 130.294887,19.7757929 Z M81.3234951,23.04 C82.5993528,27.9114563 83.8834951,32.7911974 85.3581877,37.6212298 C87.8933333,36.983301 90.4201942,36.3039482 92.947055,35.6163107 C92.9139159,35.052945 92.8476375,33.9262136 92.8227832,33.3545631 C91.1078317,33.6279612 89.3928803,33.8847896 87.6862136,34.1664725 C86.410356,30.2311974 85.308479,26.2462136 84.2480259,22.2446602 C83.2704207,22.5097735 82.2928155,22.7666019 81.3234951,23.04 Z M148.562848,24.2247249 C145.232362,28.2511327 141.835599,32.2361165 138.819935,36.511068 C139.292168,36.7430421 140.22835,37.2152751 140.700583,37.455534 C141.819029,36.6933333 142.887767,35.8234304 144.13877,35.2683495 C145.646602,35.5334628 147.079871,36.1133981 148.529709,36.6104854 C148.711974,38.9302265 149.441036,41.2002589 151.984466,41.7387702 C152.150162,36.1796764 152.249579,30.6205825 152.125307,25.0697735 C150.932298,24.7798058 149.747573,24.498123 148.562848,24.2247249 Z M71.6634304,26.1633657 C68.7140453,26.9172816 65.8557929,29.3115858 65.6486731,32.5177994 C65.4746926,35.8482848 66.9079612,39.3527508 69.592233,41.3742395 C74.2731392,44.3981877 81.7874434,39.6261489 80.4867314,33.9924919 C79.9482201,29.8418123 76.443754,24.7632362 71.6634304,26.1633657 Z M161.213722,29.6264078 C158.52945,33.8847896 155.878317,38.1680259 153.252039,42.4595469 C155.621489,44.3567638 158.214628,46.0634304 161.222006,46.751068 C160.567508,44.6964401 159.076246,43.1554693 157.419288,41.8547573 C159.29165,38.2922977 161.6611,35.0198058 163.425761,31.4076375 C162.713269,30.7697087 161.959353,30.1980583 161.213722,29.6264078 Z M58.1592233,35.3926214 C59.4019417,38.7313916 61.282589,41.788479 62.4838835,45.1521036 C58.7391586,43.6525566 55.2098382,41.6890615 51.6473786,39.8332686 C51.001165,40.5871845 50.3549515,41.3493851 49.7087379,42.1115858 C54.3399353,44.663301 58.9379935,47.2730097 63.7183172,49.5430421 C64.6213592,48.7228479 65.5326861,47.8943689 66.4440129,47.0741748 C64.3728155,41.9293204 62.0365049,36.8838835 59.3025243,32.0538511 C58.8137217,33.0977346 57.579288,34.1333333 58.1592233,35.3926214 Z M160.956893,47.4304207 C162.572427,49.6921683 164.395081,51.7965049 166.358576,53.7682848 C166.921942,53.246343 167.485307,52.7244013 168.048673,52.1941748 C166.97165,50.8188997 165.894628,49.4436246 164.82589,48.0600647 C167.833269,45.2432362 170.890356,42.4761165 173.881165,39.6344337 C173.326084,38.8556634 172.762718,38.0768932 172.215922,37.298123 C168.305502,40.4960518 164.668479,44.0088026 160.956893,47.4304207 Z M42.9732039,79.3931392 C34.7132686,93.2867314 31.9958576,110.336828 35.4671845,126.119353 C38.4248544,140.40233 46.5853722,153.368026 57.5212945,162.920388 C70.4704207,174.28712 87.2802589,181.122071 104.462913,182.149385 C98.5972816,180.931521 92.6488026,179.755081 87.2222654,177.087379 C71.6965696,169.846472 59.8907443,155.828608 53.958835,139.896958 C44.6881553,115.655663 48.4163107,86.6506149 64.4142395,66.0629126 C73.4612298,54.3979288 86.6423301,45.6491909 101.331262,43.2300324 C107.627702,42.2524272 113.998706,43.0891909 120.32,42.6998058 C117.494887,42.4595469 114.661489,42.5092557 111.828091,42.5175405 C84.5628479,41.3493851 56.7508091,55.6240777 42.9732039,79.3931392 Z M120.875081,43.1057605 C124.843495,44.3981877 128.952751,45.3260841 132.780324,47.0327508 C146.516505,53.0060841 157.54356,64.3396764 164.204531,77.6450485 C176.217476,101.380971 174.85877,131.388479 160.385243,153.765696 C152.556117,165.894628 140.733722,175.67068 126.815275,179.879353 C121.678706,181.561165 116.260453,181.909126 110.958188,182.787314 C114.926602,182.853592 118.895016,182.497346 122.755728,181.577735 C136.375922,179.382265 149.590162,174.013722 160.385243,165.356117 C168.206084,159.606472 174.129709,151.677929 178.876893,143.293722 C185.040777,131.951845 187.145113,118.803883 186.532039,106.012168 C185.049061,89.9728155 177.045955,75.0353398 165.654369,63.8343042 C153.40945,52.4758576 137.544078,44.7710032 120.875081,43.1057605 Z M60.7772168,75.7146926 C60.4789644,79.1860194 60.4209709,82.6739159 60.45411,86.1618123 C60.6612298,106.244142 60.1475728,126.334757 60.7192233,146.408803 C64.98589,146.756764 69.277411,146.748479 73.5523625,146.458511 C73.9997411,124.412686 73.5606472,102.358576 73.7760518,80.3127508 C73.5026537,78.7966343 74.3642718,76.4354693 72.5167638,75.7229773 C68.6643366,74.9027832 64.671068,75.4495793 60.7772168,75.7146926 Z M100.544207,75.7146926 C100.080259,80.8429773 100.245955,85.9878317 100.245955,91.1326861 C100.395081,109.558058 99.9477023,128 100.477929,146.425372 C110.87534,146.90589 121.297605,146.49165 131.711586,146.657346 C131.852427,154.030809 131.479612,161.420841 131.960129,168.786019 C136.235081,169.117411 140.526602,169.109126 144.801553,168.827443 C145.265502,146.781618 144.793269,124.727508 145.041812,102.681683 C151.131133,108.737864 157.220453,114.80233 163.226926,120.941359 C164.461359,122.316634 166.143172,123.103689 167.849838,123.733333 C168.454628,117.287767 168.114951,110.792492 168.214369,104.322071 C168.007249,103.037929 168.595469,101.099288 166.97165,100.569061 C163.284919,99.8731392 159.490485,100.320518 155.76233,100.2211 C141.40479,100.676764 127.055534,100.154822 112.689709,100.229385 C112.457735,92.3091262 113.03767,84.3557282 112.466019,76.4520388 C109.011262,74.24 104.429773,75.698123 100.544207,75.7146926 Z M77.0651133,106.061877 C77.0319741,119.027573 77.0402589,131.993269 77.0651133,144.95068 C82.1105502,144.53644 88.7383819,146.740194 92.3422654,142.067573 C96.9983172,135.638576 97.5119741,127.105243 96.4763754,119.491521 C95.5401942,114.794045 93.9909385,109.342654 89.5088673,106.857217 C85.5404531,105.423948 81.1992233,106.169579 77.0651133,106.061877 Z M72.9310032,187.111974 C72.8812945,190.517023 72.8812945,193.922071 72.939288,197.32712 C74.4885437,197.235987 76.0460841,197.227702 77.5704854,196.92945 C80.7601294,195.388479 78.4238188,191.594045 78.3161165,188.984337 C78.1504207,186.250356 74.7205178,187.517929 72.9310032,187.111974 Z M83.9166343,187.2611 C82.6076375,190.591586 81.290356,193.930356 80.188479,197.351974 C81.9365696,196.299806 83.5852427,194.071197 85.8801294,194.791974 C87.2471197,195.463042 88.4069903,196.482071 89.6497087,197.351974 C88.5478317,193.938641 87.2305502,190.599871 85.9215534,187.2611 C85.424466,187.2611 84.4220065,187.2611 83.9166343,187.2611 Z M90.3124919,187.236246 C90.2876375,190.566731 90.2876375,193.905502 90.3207767,197.235987 C92.3836893,197.186278 94.4466019,197.13657 96.5012298,197.012298 C95.0099676,196.631197 93.4938511,196.34123 91.9943042,196.034693 C91.9694498,193.101877 91.9528803,190.169061 91.9363107,187.227961 C91.530356,187.236246 90.7184466,187.236246 90.3124919,187.236246 Z M96.9403236,187.236246 C96.9154693,190.541877 96.9154693,193.855793 96.9486084,197.161424 C98.8706796,197.177994 100.792751,197.202848 102.714822,197.219417 L102.739676,196.432362 C101.356117,196.366084 99.9808414,196.308091 98.6055663,196.241812 C98.5972816,193.242718 98.580712,190.23534 98.5724272,187.236246 C98.1581877,187.236246 97.3462783,187.236246 96.9403236,187.236246 Z M103.568155,187.236246 C103.543301,190.550162 103.543301,193.864078 103.568155,197.177994 C103.965825,197.177994 104.76945,197.194563 105.16712,197.194563 C105.175405,195.479612 105.216828,193.76466 105.216828,192.049709 C106.625243,194.112621 108.116505,196.167249 110.129709,197.69165 C109.292945,195.769579 108.157929,193.98835 107.395728,192.033139 C108.058511,190.152492 109.201812,188.495534 110.055146,186.714304 C108.265631,188.114434 106.74123,189.796246 105.274822,191.527767 C105.225113,190.086214 105.183689,188.652945 105.133981,187.219676 C104.736311,187.227961 103.95754,187.236246 103.568155,187.236246 Z M111.852945,187.236246 C111.828091,190.541877 111.828091,193.847508 111.86123,197.161424 C113.783301,197.177994 115.713657,197.202848 117.652298,197.227702 L117.635728,196.440647 C116.260453,196.374369 114.885178,196.308091 113.518188,196.241812 C113.509903,193.242718 113.493333,190.23534 113.476764,187.236246 C113.070809,187.236246 112.2589,187.236246 111.852945,187.236246 Z M118.464207,187.236246 C118.464207,189.887379 118.232233,192.57165 118.696181,195.206214 C119.74835,197.567379 122.623172,197.51767 124.777217,197.028867 C128.099417,194.95767 126.392751,190.450744 126.773851,187.227961 C126.359612,187.227961 125.539417,187.227961 125.133463,187.227961 C125.133463,189.671974 125.24945,192.124272 124.984337,194.56 C124.992621,197.161424 120.228867,197.169709 120.245437,194.56 C119.972039,192.124272 120.096311,189.671974 120.096311,187.227961 C119.690356,187.227961 118.870162,187.236246 118.464207,187.236246 Z M128.439094,187.111974 C128.389385,190.517023 128.389385,193.922071 128.447379,197.32712 C129.996634,197.235987 131.554175,197.227702 133.086861,196.92945 C136.26822,195.380194 133.931909,191.585761 133.824207,188.976052 C133.658511,186.250356 130.228608,187.517929 128.439094,187.111974 Z M136.723883,187.111974 C136.674175,190.517023 136.674175,193.922071 136.732168,197.32712 C138.927638,197.086861 141.877023,197.675081 143.086602,195.280777 C142.879482,192.77877 142.448673,190.276764 141.78589,187.857605 C140.534887,186.681165 138.339417,187.426796 136.723883,187.111974 Z M134.279871,204.054369 C132.954304,206.506667 137.030421,204.236634 134.279871,204.054369 Z M78.415534,205.471068 C79.3102913,205.877023 80.2133333,206.282977 81.1246602,206.680647 C81.1660841,209.588608 81.1992233,212.49657 81.2323625,215.412816 C81.6300324,215.412816 82.4088026,215.404531 82.8064725,215.404531 C82.8396117,212.49657 82.8727508,209.588608 82.9141748,206.672362 C83.8172168,206.274693 84.7202589,205.877023 85.623301,205.471068 C83.220712,205.437929 80.818123,205.437929 78.415534,205.471068 Z M87.0317152,205.313657 C86.9571521,208.884401 86.841165,212.471715 87.2719741,216.034175 C88.4815534,214.700324 88.7549515,212.927379 89.0532039,211.220712 C89.4343042,211.28699 90.1965049,211.419547 90.5776052,211.485825 C91.6546278,213.06822 92.8062136,214.600906 94.1069256,216.00932 C92.9222006,213.225631 92.5659547,210.284531 93.3861489,207.351715 C92.1517152,204.973981 89.2354693,205.537346 87.0317152,205.313657 Z M98.0836246,205.669903 C95.1425243,206.398964 94.7779935,210.143689 95.4987702,212.595987 C96.3438188,215.876764 100.950162,216.199871 103.286472,214.310939 C104.893722,212.074045 104.893722,208.793269 103.286472,206.556375 C101.820065,205.471068 99.8317152,205.065113 98.0836246,205.669903 Z M106.070162,205.413074 C106.028738,208.74356 106.028738,212.074045 106.053592,215.404531 C106.459547,215.404531 107.263172,215.404531 107.669126,215.404531 C107.685696,212.819676 107.693981,210.243107 107.760259,207.658252 C108.920129,210.185113 109.914304,212.794822 111.331003,215.180841 C111.587832,215.189126 112.101489,215.205696 112.358317,215.205696 C113.766731,212.803107 114.760906,210.193398 115.929061,207.666537 C115.99534,210.243107 116.003625,212.827961 116.020194,215.404531 C116.426149,215.404531 117.238058,215.404531 117.644013,215.404531 C117.660583,212.074045 117.660583,208.74356 117.610874,205.413074 C117.047508,205.446214 115.912492,205.512492 115.340841,205.545631 C114.363236,207.94822 113.534757,210.417087 112.366602,212.745113 C112.101489,212.745113 111.579547,212.745113 111.322718,212.745113 C110.162848,210.417087 109.326084,207.94822 108.348479,205.545631 C107.776828,205.512492 106.641812,205.446214 106.070162,205.413074 Z M119.408673,207.426278 C118.72932,210.334239 123.252816,210.872751 123.542783,213.598447 C122.126084,214.46835 120.386278,214.161812 118.812168,214.327508 C120.883366,215.561942 123.733333,216.034175 125.009191,213.441036 C125.688544,210.433657 121.405307,209.837152 120.792233,207.219159 C122.300065,206.531521 123.981877,206.655793 125.589126,206.523236 C123.517929,205.321942 120.667961,204.81657 119.408673,207.426278 Z M127.850874,206.556375 C125.680259,209.323495 127.038964,212.852816 128.323107,215.669644 C129.681812,215.537087 131.040518,215.445955 132.390939,215.23055 C136.939288,214.83288 136.931003,207.898511 133.849061,205.636764 C131.835858,205.164531 129.55754,205.288803 127.850874,206.556375 Z" id="Shape"></path>
                <path d="M132.813463,22.2943689 C134.221877,22.882589 135.638576,23.4956634 137.04699,24.1004531 C136.160518,26.3207767 134.064466,26.8012945 131.893851,26.7598706 C132.183819,25.2686084 132.490356,23.7773463 132.813463,22.2943689 Z" id="Shape"></path>
                <path d="M144.967249,33.0066019 C146.3011,31.2502265 147.70123,29.5435599 149.192492,27.9197411 C149.225631,29.9826537 149.209061,32.0538511 149.167638,34.1250485 C147.759223,33.752233 146.359094,33.3794175 144.967249,33.0066019 Z" id="Shape"></path>
                <path d="M70.8266667,29.2370227 C74.6459547,27.4309385 77.4130744,32.3769579 77.471068,35.6080259 C77.9598706,38.8390939 72.9475728,41.0759871 71.0255016,38.3254369 C68.9128803,35.9559871 67.2062136,31.076246 70.8266667,29.2370227 Z" id="Shape"></path>
                <path d="M131.620453,28.5908091 C132.904595,28.8973463 134.197023,29.2038835 135.48945,29.5104207 C135.580583,30.72 135.671715,31.9212945 135.762848,33.1308738 C134.130744,33.1888673 132.506926,33.2302913 130.883107,33.2468608 C131.115081,31.6893204 131.363625,30.1400647 131.620453,28.5908091 Z" id="Shape"></path>
                <path d="" id="Shape"></path>
                <path d="M103.584725,78.7055016 C105.498511,78.7055016 107.412298,78.7055016 109.334369,78.7055016 C109.375793,100.245955 109.375793,121.786408 109.334369,143.326861 C107.420583,143.326861 105.498511,143.326861 103.584725,143.326861 C103.543301,121.786408 103.543301,100.245955 103.584725,78.7055016 Z" id="Shape"></path>
                <path d="M115.920777,119.234693 C121.239612,114.098123 126.401036,108.795858 131.653592,103.584725 C131.777864,116.575275 131.769579,129.565825 131.661877,142.556375 C126.152492,137.303819 120.966214,131.728155 115.40712,126.525307 C114.412945,125.539417 113.352492,124.570097 112.648285,123.343948 C113.286214,121.670421 114.727767,120.502265 115.920777,119.234693 Z" id="Shape"></path>
                <path d="M114.40466,130.062913 C118.837023,134.420712 123.236246,138.819935 127.594045,143.252298 C123.178252,143.368285 118.76246,143.351715 114.346667,143.310291 C114.305243,138.894498 114.288673,134.470421 114.40466,130.062913 Z" id="Shape"></path>
                <path d="M74.5631068,188.07301 C75.184466,188.064725 76.4271845,188.064725 77.0568285,188.064725 C77.0485437,189.166602 77.0485437,190.268479 77.0485437,191.378641 C76.4271845,191.378641 75.1761812,191.378641 74.554822,191.370356 C74.554822,190.268479 74.5631068,189.166602 74.5631068,188.07301 Z" id="Shape"></path>
                <path d="M130.071197,188.064725 C130.692557,188.064725 131.935275,188.064725 132.556634,188.064725 C132.556634,189.166602 132.556634,190.268479 132.556634,191.378641 C131.935275,191.378641 130.692557,191.378641 130.071197,191.370356 C130.071197,190.268479 130.071197,189.166602 130.071197,188.064725 Z" id="Shape"></path>
                <path d="M138.355987,188.07301 C138.977346,188.07301 140.220065,188.064725 140.841424,188.064725 C140.841424,189.166602 140.841424,190.268479 140.841424,191.378641 C140.220065,191.378641 138.969061,191.370356 138.347702,191.370356 C138.347702,190.268479 138.355987,189.166602 138.355987,188.07301 Z" id="Shape"></path>
                <path d="M82.9141748,193.880647 C83.6349515,192.20712 84.322589,190.517023 84.9853722,188.818641 C85.581877,190.517023 86.211521,192.20712 86.8743042,193.888932 C85.5570227,193.880647 84.2314563,193.880647 82.9141748,193.880647 Z" id="Shape"></path>
                <path d="M74.6459547,191.759741 C75.6235599,192.513657 77.901877,192.455663 77.9267314,193.930356 C78.5149515,195.968414 75.8638188,195.984984 74.6459547,196.796893 C74.6211003,195.115081 74.6211003,193.433269 74.6459547,191.759741 Z" id="Shape"></path>
                <path d="M130.154045,191.759741 C131.13165,192.513657 133.418252,192.455663 133.434822,193.930356 C134.023042,195.976699 131.371909,195.984984 130.154045,196.796893 C130.129191,195.115081 130.129191,193.433269 130.154045,191.759741 Z" id="Shape"></path>
                <path d="M138.438835,191.759741 C139.41644,192.513657 141.703042,192.455663 141.719612,193.930356 C142.307832,195.976699 139.656699,195.984984 138.438835,196.796893 C138.413981,195.115081 138.413981,193.433269 138.438835,191.759741 Z" id="Shape"></path>
                <path d="M88.7218123,205.843883 C89.9396764,206.655793 92.6156634,206.664078 92.0108738,208.710421 C91.9860194,210.176828 89.7159871,210.12712 88.7383819,210.881036 C88.7052427,209.199223 88.7052427,207.517411 88.7218123,205.843883 Z" id="Shape"></path>
                <path d="M98.895534,206.39068 C103.849838,205.205955 104.346926,214.733463 99.5168932,214.576052 C96.0289968,213.722718 95.863301,208.022783 98.895534,206.39068 Z" id="Shape"></path>
                <path d="M128.60479,208.238188 C129.375275,206.672362 131.280777,206.481812 132.7389,205.935016 C131.910421,208.718706 130.899676,211.618382 128.513657,213.46589 C128.463948,211.726084 128.281683,209.961424 128.60479,208.238188 Z" id="Shape"></path>
                <path d="M129.922071,214.924013 C130.742265,212.173463 132.059547,209.563754 134.039612,207.459417 C134.12246,209.174369 134.321294,210.92246 134.056181,212.637411 C133.219417,214.136958 131.380194,214.360647 129.922071,214.924013 Z" id="Shape"></path>
                <path d="M77.4876375,221.311586 C78.4238188,220.516246 78.9540453,220.723366 79.0783172,221.92466 C78.1421359,222.70343 77.6119094,222.504595 77.4876375,221.311586 Z" id="Shape"></path>
                <path d="M95.8053074,225.719094 C98.1830421,225.48712 100.577346,225.495405 102.963366,225.719094 C100.585631,226.05877 98.1747573,226.05877 95.8053074,225.719094 Z" id="Shape"></path>
            </g>
        </g>
    </g>
</svg>