<?xml version="1.0" encoding="UTF-8"?>
<svg width="256px" height="256px" viewBox="0 0 256 256" version="1.1" xmlns="http://www.w3.org/2000/svg" xmlns:xlink="http://www.w3.org/1999/xlink">
    <!-- Generator: Sketch 50.2 (55047) - http://www.bohemiancoding.com/sketch -->
    <title>logo/blindheim</title>
    <desc>Created with Sketch.</desc>
    <defs></defs>
    <g id="logo/blindheim" stroke="none" stroke-width="1" fill="none" fill-rule="evenodd">
        <g id="blindheim" transform="translate(0.000000, 5.000000)" fill-rule="nonzero">
            <g id="#fdfdfdff" transform="translate(6.059172, 6.049383)" fill="#FDFDFD">
                <path d="M1.56023669,1.04351852 C81.8897041,0.84691358 162.204024,0.287345679 242.533491,0.287345679 C242.533491,17.2407407 242.563787,34.1941358 242.533491,51.1626543 C162.188876,51.5256173 81.8594083,51.3895062 1.52994083,51.5407407 C1.52994083,34.7083333 1.45420118,17.8759259 1.56023669,1.04351852 Z M35.9308876,32.1978395 C38.2788166,35.162037 42.2627219,34.829321 45.6407101,34.9654321 C43.2624852,38.2472222 40.8236686,41.5290123 39.0665089,45.1888889 C40.7933728,44.462963 43.0504142,44.2814815 43.9289941,42.3759259 C46.943432,37.2339506 51.2908876,32.6817901 53.0934911,26.95 C54.9263905,20.0688272 48.2461538,13.0666667 41.3084024,14.5033951 C33.3405917,15.6225309 30.3110059,26.7231481 35.9308876,32.1978395 Z M65.287574,13.308642 C65.3027219,23.5774691 65.499645,33.8614198 65.4693491,44.1302469 C75.2246154,43.737037 85.1919527,45.0830247 94.7957396,43.404321 C99.0826036,38.8975309 98.0525444,31.487037 93.6747929,27.4188272 C97.2345562,23.1842593 96.2802367,18.0271605 93.7959763,13.5354938 C84.2982249,13.142284 74.7853254,13.3540123 65.287574,13.308642 Z M112.20071,12.9003086 C112.231006,23.275 112.20071,33.6345679 112.231006,44.0092593 C117.623669,43.9790123 123.016331,44.0092593 128.408994,43.9790123 C128.302959,33.6345679 128.302959,23.2901235 128.348402,12.945679 C122.95574,12.779321 117.578225,12.8095679 112.20071,12.9003086 Z M143.950769,13.3237654 C143.950769,23.607716 143.996213,33.8916667 143.965917,44.1756173 C152.251834,44.1302469 160.552899,44.2966049 168.838817,43.9790123 C168.853964,42.875 168.899408,40.6669753 168.914556,39.562963 C166.142485,39.5175926 163.370414,39.5024691 160.598343,39.4570988 C160.507456,30.7459877 160.613491,22.0348765 160.537751,13.3237654 C155.008757,13.3237654 149.479763,13.3540123 143.950769,13.3237654 Z M19.0257988,26.2845679 C21.5706509,25.4527778 23.888284,24.137037 26.2059172,22.8515432 C26.2968047,29.3092593 26.024142,35.7669753 26.236213,42.2246914 C26.2210651,43.7975309 26.9330178,44.9469136 28.372071,45.7030864 C29.220355,35.4040123 28.6295858,25.0746914 28.7810651,14.7604938 C25.812071,18.8589506 21.555503,21.883642 19.0257988,26.2845679 Z M189.970178,15.3805556 C187.288994,17.0441358 186.486154,20.1898148 186.031716,23.0935185 C188.909822,21.1274691 191.151716,18.4052469 193.711716,16.0762346 C196.650414,17.8305556 199.180118,20.2351852 198.740828,23.9555556 C196.408047,25.3166667 193.984379,26.4962963 191.575858,27.7061728 C194.620592,29.1126543 199.195266,29.7478395 200.04355,33.6194444 C201.36142,37.6574074 198.271243,42.6179012 193.863195,42.4666667 C189.121893,43.0716049 187.804024,37.2037037 185.334911,34.3151235 C184.092781,38.0959877 185.456095,42.3910494 189.258225,44.0697531 C195.377988,48.1228395 204.345562,42.012963 203.19432,34.8595679 C203.451834,31.7592593 200.800947,29.762963 198.952899,27.6910494 C200.63432,25.1805556 202.724734,21.9895062 200.831243,18.9799383 C199.195266,14.7151235 193.817751,13.4901235 189.970178,15.3805556 Z M217.342485,15.4259259 C214.509822,20.2654321 210.889467,24.5907407 208.23858,29.5361111 C205.345325,34.6478395 207.36,42.2246914 213.146509,44.2966049 C221.311243,48.8790123 231.096805,37.4759259 226.007101,29.8688272 C224.113609,25.5435185 219.296568,24.1521605 214.96426,23.9404321 C217.130414,20.8854938 219.160237,17.7398148 221.235503,14.6092593 C220.266036,14.8058642 218.311953,15.2141975 217.342485,15.4259259 Z M103.096805,39.5024691 C101.08213,42.2095679 103.929941,43.7824074 105.747692,45.3703704 C106.868639,43.9790123 107.989586,42.5876543 109.110533,41.1962963 C107.307929,39.8503086 105.429586,37.8842593 103.096805,39.5024691 Z M132.801893,41.0753086 C134.240947,43.6160494 136.422249,45.6274691 139.466982,44.1907407 C139.360947,42.8447531 139.148876,40.1830247 139.04284,38.837037 C136.876686,39.3361111 134.786272,40.1074074 132.801893,41.0753086 Z M174.655621,39.9108025 C174.51929,40.7728395 174.261775,42.4969136 174.140592,43.3589506 C174.88284,43.8731481 176.352189,44.9166667 177.094438,45.4308642 C177.973018,44.9015432 179.71503,43.8126543 180.578462,43.2682099 C180.00284,41.8466049 179.396923,40.425 178.806154,39.0185185 C177.760947,39.2302469 175.68568,39.6839506 174.655621,39.9108025 Z" id="Shape"></path>
                <path d="M36.1429586,25.5283951 C34.6281657,20.129321 41.0660355,14.7756173 45.9436686,17.5734568 C51.9119527,19.9175926 51.2605917,28.6740741 46.5192899,31.9861111 C42.0052071,32.7574074 36.0672189,30.9274691 36.1429586,25.5283951 Z" id="Shape"></path>
                <path d="M80.5718343,17.6188272 C84.8889941,19.4033951 84.8435503,24.4697531 80.6172781,26.3299383 C80.3597633,23.4262346 80.3446154,20.5074074 80.5718343,17.6188272 Z" id="Shape"></path>
                <path d="M214.222012,27.5398148 C222.386746,24.0765432 228.188402,36.417284 221.220355,41.0904321 C215.99432,45.6123457 207.693254,38.7160494 210.086627,32.7725309 C210.586509,30.4737654 212.434556,28.8858025 214.222012,27.5398148 Z" id="Shape"></path>
                <path d="M80.5566864,29.8385802 C84.8586982,30.4737654 85.7221302,34.0580247 85.1616568,37.8540123 C83.5862722,38.2472222 82.0108876,38.6253086 80.420355,39.0033951 C80.2840237,35.9484568 80.3294675,32.8935185 80.5566864,29.8385802 Z" id="Shape"></path>
                <path d="M1.52994083,56.6675926 C7.68,56.712963 13.8452071,56.682716 19.9952663,56.682716 C20.4497041,87.8975309 20.7678107,119.127469 21.1616568,150.342284 C8.77065089,131.574074 3.99905325,108.873765 2.46911243,86.7632716 C0.727100592,76.8271605 1.78745562,66.679321 1.52994083,56.6675926 Z" id="Shape"></path>
                <path d="M62.0004734,56.5314815 C71.3921893,56.4861111 80.7990533,56.4709877 90.1907692,56.4709877 C89.9484024,110.446605 90.8572781,164.422222 90.0695858,218.39784 C79.6932544,214.344753 71.0892308,207.055247 62.1671006,200.597531 C61.8338462,152.580556 61.9398817,104.548457 62.0004734,56.5314815 Z" id="Shape"></path>
                <path d="M153.009231,56.3953704 C163.158343,56.2592593 173.322604,56.2592593 183.471716,56.2592593 C183.577751,102.567284 183.562604,148.875309 183.729231,195.183333 C183.714083,197.708951 184.123077,200.85463 181.487337,202.321605 C173.307456,208.960802 163.961183,214.133025 154.281657,218.261728 C154.03929,170.184259 154.357396,122.10679 154.099882,74.029321 C154.024142,68.1311728 153.403077,62.2783951 153.009231,56.3953704 Z" id="Shape"></path>
                <path d="M222.886627,56.1987654 C229.369941,56.1080247 235.838107,56.1231481 242.32142,56.1231481 C242.366864,87.8219136 240.503669,121.774074 222.932071,149.268519 C222.765444,118.250309 222.886627,87.2169753 222.886627,56.1987654 Z" id="Shape"></path>
            </g>
            <g id="#000000ff" fill="#000000">
                <path d="M0.984615385,1.20987654 C85.7978698,0.892283951 170.626272,0.84691358 255.439527,0.453703704 C255.454675,29.566358 255.575858,58.6790123 255.575858,87.7916667 C255.106272,153.245988 211.116686,216.023457 149.35858,238.315432 C141.724024,240.674691 133.968284,244.60679 125.80355,243.72963 C70.4833136,229.498457 22.8430769,185.534568 7.66485207,130.076852 C3.57491124,116.32963 3.31739645,101.932099 1.59053254,87.8219136 C1.31786982,76.6759259 1.78745562,65.5299383 1.21183432,54.3990741 C0.924023669,36.6743827 1.99952663,18.9345679 0.984615385,1.20987654 Z M7.61940828,7.09290123 C7.51337278,23.9253086 7.58911243,40.757716 7.58911243,57.5901235 C87.9185799,57.4388889 168.248047,57.575 248.592663,57.212037 C248.622959,40.2435185 248.592663,23.2901235 248.592663,6.3367284 C168.263195,6.3367284 87.9488757,6.8962963 7.61940828,7.09290123 Z M7.58911243,62.7169753 C7.84662722,72.7287037 6.78627219,82.8765432 8.52828402,92.8126543 C10.0582249,114.923148 14.8298225,137.623457 27.2208284,156.391667 C26.8269822,125.176852 26.5088757,93.9469136 26.0544379,62.7320988 C19.9043787,62.7320988 13.7391716,62.7623457 7.58911243,62.7169753 Z M68.059645,62.5808642 C67.9990533,110.59784 67.8930178,158.629938 68.2262722,206.646914 C77.1484024,213.10463 85.752426,220.394136 96.1287574,224.447222 C96.9164497,170.471605 96.007574,116.495988 96.2499408,62.5203704 C86.8582249,62.5203704 77.4513609,62.5354938 68.059645,62.5808642 Z M159.068402,62.4447531 C159.462249,68.3277778 160.083314,74.1805556 160.159053,80.0787037 C160.416568,128.156173 160.098462,176.233642 160.340828,224.311111 C170.020355,220.182407 179.366627,215.010185 187.546509,208.370988 C190.182249,206.904012 189.773254,203.758333 189.788402,201.232716 C189.621775,154.924691 189.636923,108.616667 189.530888,62.308642 C179.381775,62.308642 169.217515,62.308642 159.068402,62.4447531 Z M228.945799,62.2481481 C228.945799,93.266358 228.824615,124.299691 228.991243,155.317901 C246.56284,127.823457 248.426036,93.8712963 248.380592,62.1725309 C241.897278,62.1725309 235.429112,62.1574074 228.945799,62.2481481 Z" id="Shape"></path>
                <path d="M41.9900592,38.2472222 C36.3701775,32.7725309 39.3997633,21.6719136 47.367574,20.5527778 C54.3053254,19.1160494 60.9855621,26.1182099 59.1526627,32.9993827 C57.3500592,38.7311728 53.0026036,43.2833333 49.9881657,48.4253086 C49.1095858,50.3308642 46.8525444,50.5123457 45.1256805,51.2382716 C46.8828402,47.5783951 49.3216568,44.2966049 51.6998817,41.0148148 C48.3218935,40.8787037 44.3379882,41.2114198 41.9900592,38.2472222 Z M42.2021302,31.5777778 C42.1263905,36.9768519 48.0643787,38.8067901 52.5784615,38.0354938 C57.3197633,34.7234568 57.9711243,25.9669753 52.0028402,23.6228395 C47.1252071,20.825 40.6873373,26.1787037 42.2021302,31.5777778 Z" id="Shape"></path>
                <path d="M71.3467456,19.3580247 C80.844497,19.4033951 90.3573964,19.1916667 99.8551479,19.5848765 C102.339408,24.0765432 103.293728,29.233642 99.7339645,33.4682099 C104.111716,37.5364198 105.141775,44.9469136 100.854911,49.4537037 C91.2511243,51.1324074 81.283787,49.7864198 71.5285207,50.1796296 C71.5588166,39.9108025 71.3618935,29.6268519 71.3467456,19.3580247 Z M86.6310059,23.6682099 C86.403787,26.5567901 86.4189349,29.4756173 86.6764497,32.379321 C90.9027219,30.5191358 90.9481657,25.4527778 86.6310059,23.6682099 Z M86.615858,35.887963 C86.3886391,38.9429012 86.3431953,41.9978395 86.4795266,45.0527778 C88.0700592,44.6746914 89.6454438,44.2966049 91.2208284,43.9033951 C91.7813018,40.1074074 90.9178698,36.5231481 86.615858,35.887963 Z" id="Shape"></path>
                <path d="M118.259882,18.9496914 C123.637396,18.8589506 129.014911,18.8287037 134.407574,18.9950617 C134.36213,29.3395062 134.36213,39.6839506 134.468166,50.0283951 C129.075503,50.058642 123.68284,50.0283951 118.290178,50.058642 C118.259882,39.6839506 118.290178,29.3243827 118.259882,18.9496914 Z" id="Shape"></path>
                <path d="M150.009941,19.3731481 C155.538935,19.4033951 161.067929,19.3731481 166.596923,19.3731481 C166.672663,28.0842593 166.566627,36.7953704 166.657515,45.5064815 C169.429586,45.5518519 172.201657,45.5669753 174.973728,45.6123457 C174.95858,46.716358 174.913136,48.9243827 174.897988,50.0283951 C166.612071,50.3459877 158.311006,50.1796296 150.025089,50.225 C150.055385,39.9410494 150.009941,29.6570988 150.009941,19.3731481 Z" id="Shape"></path>
                <path d="M25.0849704,32.3339506 C27.6146746,27.9330247 31.8712426,24.9083333 34.8402367,20.8098765 C34.6887574,31.1240741 35.2795266,41.4533951 34.4312426,51.7524691 C32.9921893,50.9962963 32.2802367,49.8469136 32.2953846,48.2740741 C32.0833136,41.816358 32.3559763,35.358642 32.2650888,28.9009259 C29.9474556,30.1864198 27.6298225,31.5021605 25.0849704,32.3339506 Z" id="Shape"></path>
                <path d="M196.029349,21.4299383 C199.876923,19.5395062 205.254438,20.7645062 206.890414,25.029321 C208.783905,28.0388889 206.693491,31.2299383 205.012071,33.7404321 C206.860118,35.8123457 209.511006,37.808642 209.253491,40.9089506 C210.404734,48.0623457 201.43716,54.1722222 195.317396,50.1191358 C191.515266,48.4404321 190.151953,44.1453704 191.394083,40.3645062 C193.863195,43.2530864 195.181065,49.1209877 199.922367,48.5160494 C204.330414,48.667284 207.420592,43.7067901 206.102722,39.6688272 C205.254438,35.7972222 200.679763,35.162037 197.63503,33.7555556 C200.04355,32.545679 202.467219,31.3660494 204.8,30.0049383 C205.23929,26.2845679 202.709586,23.8799383 199.770888,22.1256173 C197.210888,24.4546296 194.968994,27.1768519 192.090888,29.1429012 C192.545325,26.2391975 193.348166,23.0935185 196.029349,21.4299383 Z" id="Shape"></path>
                <path d="M223.401657,21.4753086 C224.371124,21.2635802 226.325207,20.8552469 227.294675,20.658642 C225.219408,23.7891975 223.189586,26.9348765 221.023432,29.9898148 C225.35574,30.2015432 230.172781,31.5929012 232.066272,35.9182099 C237.155976,43.5253086 227.370414,54.9283951 219.20568,50.3459877 C213.419172,48.2740741 211.404497,40.6972222 214.297751,35.5854938 C216.948639,30.6401235 220.568994,26.3148148 223.401657,21.4753086 Z M220.281183,33.5891975 C218.493728,34.9351852 216.64568,36.5231481 216.145799,38.8219136 C213.752426,44.7654321 222.053491,51.6617284 227.279527,47.1398148 C234.247574,42.4666667 228.445917,30.1259259 220.281183,33.5891975 Z" id="Shape"></path>
                <path d="M109.155976,45.5518519 C111.488757,43.933642 113.367101,45.8996914 115.169704,47.245679 C114.048757,48.637037 112.927811,50.0283951 111.806864,51.4197531 C109.989112,49.8317901 107.141302,48.2589506 109.155976,45.5518519 Z" id="Shape"></path>
                <path d="M138.861065,47.1246914 C140.845444,46.1567901 142.935858,45.3854938 145.102012,44.8864198 C145.208047,46.2324074 145.420118,48.8941358 145.526154,50.2401235 C142.48142,51.6768519 140.300118,49.6654321 138.861065,47.1246914 Z" id="Shape"></path>
                <path d="M180.714793,45.9601852 C181.744852,45.7333333 183.820118,45.2796296 184.865325,45.0679012 C185.456095,46.4743827 186.062012,47.8959877 186.637633,49.3175926 C185.774201,49.862037 184.032189,50.9509259 183.153609,51.4802469 C182.411361,50.9660494 180.942012,49.9225309 180.199763,49.4083333 C180.320947,48.5462963 180.578462,46.8222222 180.714793,45.9601852 Z" id="Shape"></path>
            </g>
        </g>
    </g>
</svg>