<?xml version="1.0" encoding="UTF-8" ?>
<!DOCTYPE svg PUBLIC "-//W3C//DTD SVG 1.1//EN" "http://www.w3.org/Graphics/SVG/1.1/DTD/svg11.dtd">
<svg width="558pt" height="582pt" viewBox="0 0 558 582" version="1.1" xmlns="http://www.w3.org/2000/svg">
<g id="#fefefeff">
</g>
<g id="#970a02ff">
<path fill="#970a02" opacity="1.00" d=" M 248.85 47.74 C 257.60 43.77 266.41 39.29 275.93 37.59 C 280.37 37.91 277.17 43.45 279.60 45.75 C 282.25 45.58 283.29 42.63 285.46 41.52 C 287.99 41.00 290.49 42.05 292.94 42.61 C 294.04 45.36 294.69 48.88 297.73 50.18 C 299.53 51.43 302.07 51.89 303.38 53.68 C 303.55 56.31 301.91 58.67 301.06 61.07 C 302.49 62.25 303.93 63.41 305.38 64.57 C 305.42 68.76 306.41 72.88 306.33 77.06 C 305.51 81.74 302.50 85.61 301.00 90.05 C 299.91 92.94 299.60 96.04 299.34 99.10 C 302.78 99.63 306.32 100.12 309.47 101.72 C 332.39 113.90 351.31 132.48 366.73 153.16 C 369.77 157.50 372.83 161.83 375.99 166.08 C 376.72 165.84 378.18 165.37 378.91 165.14 C 373.49 149.87 366.54 135.07 357.57 121.56 C 352.36 113.89 346.41 106.76 340.43 99.70 C 332.82 90.72 322.00 84.60 316.05 74.21 C 320.44 75.48 324.90 76.77 328.76 79.30 C 349.21 92.32 365.23 111.09 378.70 131.02 C 383.20 138.34 387.28 145.92 391.34 153.50 C 397.55 164.89 401.91 177.14 406.59 189.20 C 408.57 194.30 409.62 199.68 411.42 204.83 C 417.20 202.33 424.19 199.73 430.24 202.92 C 437.33 207.25 441.61 215.16 443.21 223.13 C 443.73 230.38 444.21 238.17 440.63 244.78 C 438.61 249.50 434.68 252.93 431.96 257.18 C 430.87 258.75 432.00 260.63 432.29 262.28 C 434.25 268.33 433.24 274.76 433.47 281.01 C 433.88 288.74 431.19 296.11 428.88 303.35 C 425.60 312.91 417.70 319.85 413.68 329.03 C 409.68 336.82 407.60 345.37 405.32 353.78 C 403.78 361.08 403.39 369.05 406.59 375.99 C 409.65 385.24 413.17 394.31 416.27 403.54 C 423.35 421.39 432.78 438.30 444.14 453.77 C 449.03 460.15 454.42 466.14 459.57 472.32 C 464.25 478.01 470.20 482.42 475.44 487.55 C 482.27 494.23 490.32 499.45 498.04 505.02 C 508.47 512.59 520.72 517.18 530.96 525.06 C 527.89 525.34 524.74 525.65 521.75 524.74 C 504.83 520.16 489.37 511.50 474.72 502.07 C 454.73 488.62 437.16 471.68 422.51 452.58 C 420.16 449.35 418.07 445.75 414.50 443.71 C 413.17 449.91 416.20 455.46 418.84 460.80 C 425.20 476.33 433.81 490.82 443.10 504.76 C 448.91 513.49 455.55 521.65 462.47 529.54 C 469.58 536.77 476.00 544.68 483.56 551.48 C 485.81 553.36 487.11 556.01 488.08 558.73 C 479.45 556.47 472.83 550.27 465.96 544.97 C 436.99 521.44 411.38 492.66 395.91 458.40 C 391.21 447.72 386.79 436.84 383.96 425.50 C 382.56 417.87 379.54 410.62 378.67 402.89 C 377.80 395.17 375.18 387.75 374.64 379.98 C 374.29 373.98 373.35 368.02 373.58 362.00 C 373.87 345.36 372.35 328.42 376.53 312.12 C 378.13 306.05 378.98 299.78 381.12 293.85 C 383.40 287.53 385.01 280.95 388.12 274.96 C 390.10 270.56 393.10 266.60 394.39 261.91 C 395.72 252.84 393.02 243.86 390.25 235.32 C 377.01 186.03 345.02 142.82 304.08 112.81 C 300.64 110.42 298.14 106.99 294.95 104.32 C 290.90 105.03 287.14 106.82 283.24 108.07 C 279.40 109.29 276.24 112.48 272.05 112.50 C 268.56 112.61 264.85 112.70 261.68 111.01 C 257.90 109.19 254.43 106.04 249.98 106.26 C 246.03 105.89 243.59 109.52 240.68 111.54 C 229.85 119.63 219.51 128.38 209.94 137.93 C 205.10 142.76 199.94 147.29 195.62 152.60 C 189.92 159.64 184.31 166.77 179.38 174.37 C 170.47 188.80 162.34 203.84 156.87 219.95 C 152.84 232.13 148.39 244.40 147.43 257.29 C 146.94 262.29 149.83 266.64 152.04 270.88 C 157.32 280.44 160.38 291.00 163.44 301.42 C 165.05 310.23 167.54 318.91 168.40 327.84 C 168.42 335.91 169.76 343.92 169.47 352.01 C 169.59 357.98 168.42 363.89 168.53 369.87 C 168.64 379.26 165.90 388.33 164.62 397.56 C 163.92 402.64 163.07 407.71 161.61 412.63 C 159.73 418.93 158.80 425.47 156.72 431.71 C 152.75 444.64 147.25 457.05 141.13 469.09 C 138.75 473.87 135.87 478.38 132.47 482.51 C 128.89 486.78 126.73 492.00 123.55 496.54 C 107.48 517.29 88.76 536.13 67.25 551.24 C 64.95 552.81 62.35 553.84 59.75 554.78 C 66.42 544.96 75.07 536.75 83.47 528.45 C 88.09 523.94 90.81 517.91 95.46 513.43 C 102.25 506.71 105.81 497.68 110.72 489.66 C 116.00 480.96 120.77 471.94 124.66 462.53 C 128.10 454.61 131.32 446.49 132.80 437.95 C 125.29 442.26 122.78 451.06 117.00 457.03 C 111.29 462.98 105.84 469.17 100.09 475.08 C 92.07 482.77 83.72 490.15 74.77 496.75 C 62.29 505.44 49.22 513.39 35.16 519.26 C 31.05 521.58 26.29 521.91 21.68 521.47 C 24.37 517.64 29.05 516.33 32.81 513.86 C 39.78 509.41 47.08 505.48 53.73 500.54 C 60.36 495.66 67.37 491.09 72.76 484.78 C 75.38 481.74 78.27 478.94 81.32 476.33 C 85.85 472.48 89.44 467.71 93.47 463.37 C 97.20 459.31 99.58 454.27 102.84 449.86 C 105.32 446.48 107.66 442.97 109.38 439.14 C 112.75 431.69 117.72 425.09 120.80 417.50 C 127.24 404.16 131.62 389.98 136.42 376.01 C 140.87 366.47 138.64 355.54 135.63 345.93 C 133.54 336.39 129.25 327.44 123.73 319.43 C 119.69 313.96 115.76 308.25 113.79 301.68 C 111.93 295.25 109.40 288.83 109.57 282.04 C 109.61 277.33 109.44 272.62 109.61 267.92 C 109.69 264.57 111.43 261.54 111.67 258.22 C 110.67 255.79 108.72 253.94 107.11 251.92 C 95.33 238.48 97.19 215.37 111.08 204.09 C 117.11 199.35 125.49 201.72 131.66 204.95 C 133.40 200.54 134.25 195.85 135.75 191.37 C 141.51 175.51 147.98 159.85 156.32 145.15 C 159.59 138.45 164.14 132.53 168.56 126.56 C 175.44 116.62 183.11 107.22 191.58 98.60 C 199.13 91.71 206.74 84.69 215.69 79.63 C 217.96 78.28 220.55 77.69 223.13 77.25 C 220.11 83.26 214.36 87.07 209.72 91.71 C 201.85 98.94 195.32 107.44 188.83 115.88 C 179.90 127.74 173.33 141.14 167.51 154.74 C 165.53 159.15 162.83 164.29 165.61 169.01 C 168.73 165.58 171.57 161.91 174.07 158.01 C 181.86 145.82 191.97 135.34 202.34 125.33 C 211.19 116.98 221.09 109.73 231.65 103.68 C 235.20 101.63 239.15 100.48 243.04 99.28 C 242.07 94.48 237.80 91.58 235.64 87.43 C 234.55 83.29 236.87 79.13 236.11 74.95 C 235.58 71.12 234.76 67.03 236.40 63.35 C 238.97 57.17 242.28 50.46 248.85 47.74 M 265.96 50.00 C 264.00 51.82 262.94 54.34 261.68 56.65 C 264.60 56.38 267.59 56.18 270.36 55.12 C 272.58 53.63 272.26 50.48 272.94 48.17 C 270.59 48.56 267.92 48.43 265.96 50.00 Z" />
<path fill="#970a02" opacity="1.00" d=" M 251.21 239.06 C 254.91 237.67 259.10 238.58 263.00 238.35 C 269.99 238.70 277.58 237.08 283.98 240.72 C 288.05 242.62 290.77 246.74 291.42 251.13 C 290.98 255.60 287.71 259.34 287.52 263.87 C 288.92 268.20 294.24 270.85 293.74 275.94 C 294.55 281.78 291.00 287.33 286.14 290.26 C 280.49 292.91 274.08 292.50 268.00 292.55 C 263.37 292.46 258.71 292.82 254.10 292.28 C 251.99 291.87 249.00 290.74 249.43 288.08 C 249.26 274.04 249.48 259.99 249.33 245.94 C 249.52 243.64 249.09 240.60 251.21 239.06 M 263.39 247.63 C 259.01 248.10 258.69 253.80 260.04 257.00 C 261.52 259.96 265.21 259.54 267.98 259.65 C 271.75 259.57 276.22 260.05 279.08 257.05 C 282.38 254.17 279.63 248.13 275.62 247.64 C 271.56 247.23 267.44 247.23 263.39 247.63 M 263.37 269.38 C 260.53 270.14 259.50 273.37 259.47 276.00 C 259.39 278.40 259.88 281.82 262.79 282.22 C 267.03 282.92 271.37 282.69 275.64 282.46 C 278.71 282.19 282.75 280.40 282.66 276.80 C 282.68 275.33 282.74 273.56 281.38 272.63 C 276.49 268.60 269.35 267.47 263.37 269.38 Z" />
<path fill="#970a02" opacity="1.00" d=" M 247.37 330.42 C 250.08 326.92 256.06 328.16 258.01 331.89 C 262.79 340.25 264.33 349.94 268.04 358.75 C 268.86 360.90 270.49 362.58 271.99 364.28 C 275.43 356.15 277.73 347.60 280.40 339.19 C 281.57 335.77 283.06 332.26 285.84 329.82 C 287.84 328.05 291.44 327.77 293.54 329.42 C 296.16 333.63 293.47 338.81 291.94 342.99 C 287.08 355.11 283.39 367.67 278.52 379.79 C 276.97 383.90 271.76 385.24 267.84 384.19 C 263.57 382.48 261.91 377.76 260.42 373.80 C 256.40 361.56 251.87 349.50 247.65 337.33 C 247.22 335.14 245.60 332.37 247.37 330.42 Z" />
<path fill="#970a02" opacity="1.00" d=" M 250.75 422.75 C 253.22 419.99 258.86 421.13 259.36 425.06 C 259.88 430.65 259.37 436.28 259.65 441.88 C 261.93 441.39 264.39 440.89 266.00 439.04 C 271.15 433.81 275.31 427.56 281.15 423.03 C 284.54 420.40 289.11 421.58 293.05 421.53 C 292.34 426.51 287.86 429.26 284.62 432.57 C 282.17 435.06 279.30 437.34 277.78 440.56 C 276.79 443.57 278.62 446.44 280.24 448.83 C 284.41 454.69 288.07 460.90 292.45 466.63 C 293.51 468.37 295.49 470.53 294.06 472.63 C 292.33 475.98 287.45 475.03 284.88 473.24 C 278.29 468.25 276.55 459.57 271.70 453.23 C 270.41 451.29 267.75 451.19 265.74 451.84 C 263.73 453.08 262.28 455.02 261.03 456.98 C 257.88 461.82 261.19 468.18 258.11 473.04 C 257.16 475.42 254.12 474.76 252.14 474.36 C 249.44 472.93 249.30 469.72 249.34 467.05 C 249.42 454.35 249.42 441.65 249.35 428.94 C 249.52 426.85 249.05 424.34 250.75 422.75 Z" />
</g>
</svg>
