<?xml version="1.0" encoding="UTF-8"?>
<svg width="256px" height="256px" viewBox="0 0 256 256" version="1.1" xmlns="http://www.w3.org/2000/svg" xmlns:xlink="http://www.w3.org/1999/xlink">
    <!-- Generator: Sketch 50.2 (55047) - http://www.bohemiancoding.com/sketch -->
    <title>logo/blussuvoll</title>
    <desc>Created with Sketch.</desc>
    <defs></defs>
    <g id="logo/blussuvoll" stroke="none" stroke-width="1" fill="none" fill-rule="evenodd">
        <g id="blussuvoll" transform="translate(3.000000, 0.000000)" fill="#970A02" fill-rule="nonzero">
            <path d="M111.691176,5.26712644 C115.980392,3.32015326 120.29902,1.12306513 124.965686,0.289348659 C127.142157,0.446283525 125.573529,3.16321839 126.764706,4.29118774 C128.063725,4.20781609 128.573529,2.7610728 129.637255,2.21670498 C130.877451,1.96168582 132.102941,2.47662835 133.303922,2.75126437 C133.843137,4.09992337 134.161765,5.8262069 135.651961,6.46375479 C136.534314,7.07678161 137.779412,7.30237548 138.421569,8.18022989 C138.504902,9.47003831 137.70098,10.627433 137.284314,11.8044444 C137.985294,12.3831418 138.691176,12.9520307 139.401961,13.5209195 C139.421569,15.5757854 139.906863,17.5963218 139.867647,19.6462835 C139.465686,21.9414559 137.990196,23.839387 137.254902,26.0168582 C136.720588,27.4341762 136.568627,28.9544828 136.441176,30.4551724 C138.127451,30.7150958 139.862745,30.9554023 141.406863,31.7400766 C152.642157,37.71341 161.916667,46.8254406 169.47549,56.9673563 C170.965686,59.0957854 172.465686,61.2193103 174.014706,63.3036015 C174.372549,63.1859004 175.088235,62.9554023 175.446078,62.8426054 C172.789216,55.3538697 169.382353,48.0956322 164.985294,41.4700383 C162.431373,37.7085057 159.514706,34.2118008 156.583333,30.7494253 C152.852941,26.3454406 147.54902,23.3440613 144.632353,18.2485824 C146.784314,18.8714176 148.970588,19.5040613 150.862745,20.7448276 C160.887255,27.1301149 168.740196,36.3353257 175.343137,46.1094253 C177.54902,49.6993103 179.54902,53.416705 181.539216,57.1340996 C184.583333,62.72 186.720588,68.7276628 189.014706,74.6421456 C189.985294,77.143295 190.5,79.7817625 191.382353,82.307433 C194.215686,81.0813793 197.642157,79.8062835 200.607843,81.370728 C204.083333,83.4942529 206.181373,87.3734866 206.965686,91.2821456 C207.220588,94.8377011 207.455882,98.6580843 205.70098,101.89977 C204.710784,104.214559 202.784314,105.896705 201.45098,107.980996 C200.916667,108.750958 201.470588,109.67295 201.612745,110.482146 C202.573529,113.449195 202.078431,116.602605 202.191176,119.667739 C202.392157,123.458697 201.073529,127.073103 199.941176,130.623755 C198.333333,135.312184 194.460784,138.715709 192.490196,143.217778 C190.529412,147.038161 189.509804,151.231264 188.392157,155.355709 C187.637255,158.935785 187.446078,162.844444 189.014706,166.247969 C190.514706,170.784368 192.240196,175.23249 193.759804,179.75908 C197.230392,188.513103 201.852941,196.80613 207.421569,204.39295 C209.818627,207.521839 212.460784,210.459464 214.985294,213.490268 C217.279412,216.280766 220.196078,218.443525 222.764706,220.959387 C226.112745,224.235402 230.058824,226.795402 233.843137,229.52705 C238.955882,233.23954 244.960784,235.490575 249.980392,239.355096 C248.47549,239.492414 246.931373,239.644444 245.465686,239.198161 C237.171569,236.952031 229.593137,232.704981 222.411765,228.080307 C212.612745,221.484138 204,213.176398 196.818627,203.809349 C195.666667,202.225287 194.642157,200.45977 192.892157,199.45931 C192.240196,202.499923 193.72549,205.221762 195.019608,207.840613 C198.137255,215.456858 202.357843,222.563065 206.911765,229.39954 C209.759804,233.68092 213.014706,237.682759 216.406863,241.552184 C219.892157,245.097931 223.039216,248.977165 226.745098,252.312031 C227.848039,253.234023 228.485294,254.53364 228.960784,255.867586 C224.730392,254.759234 221.485294,251.718621 218.117647,249.119387 C203.916667,237.57977 191.362745,223.465441 183.779412,206.663602 C181.47549,201.4259 179.308824,196.090115 177.921569,190.528736 C177.235294,186.78682 175.754902,183.231264 175.328431,179.440307 C174.901961,175.654253 173.617647,172.015326 173.352941,168.204751 C173.181373,165.262222 172.720588,162.33931 172.833333,159.386973 C172.97549,151.22636 172.230392,142.918621 174.279412,134.924751 C175.063725,131.947893 175.480392,128.87295 176.529412,125.964751 C177.647059,122.865287 178.436275,119.638314 179.960784,116.70069 C180.931373,114.542835 182.401961,112.600766 183.034314,110.30069 C183.686275,105.852567 182.362745,101.448582 181.004902,97.2603831 C174.514706,73.0875096 158.833333,51.8963985 138.764706,37.1788506 C137.078431,36.0067433 135.852941,34.3245977 134.289216,33.0151724 C132.303922,33.3633716 130.460784,34.2412261 128.54902,34.8542529 C126.666667,35.452567 125.117647,37.0170115 123.063725,37.0268199 C121.352941,37.0807663 119.534314,37.1249042 117.980392,36.296092 C116.127451,35.4035249 114.426471,33.8586973 112.245098,33.96659 C110.308824,33.7851341 109.112745,35.565364 107.686275,36.5560153 C102.377451,40.5235249 97.3088235,44.8147126 92.6176471,49.4982375 C90.245098,51.8669732 87.7156863,54.0885824 85.5980392,56.6927203 C82.8039216,60.1452874 80.0539216,63.6419923 77.6372549,67.3691954 C73.2696078,74.445977 69.2843137,81.8219157 66.6029412,89.7226054 C64.627451,95.6959387 62.4460784,101.71341 61.9754902,108.034943 C61.7352941,110.48705 63.1519608,112.620383 64.2352941,114.69977 C66.8235294,119.388199 68.3235294,124.56705 69.8235294,129.677241 C70.6127451,133.997854 71.8333333,138.254713 72.254902,142.634176 C72.2647059,146.591877 72.9215686,150.520153 72.7794118,154.487663 C72.8382353,157.415479 72.2647059,160.31387 72.3186275,163.24659 C72.372549,167.851648 71.0294118,172.29977 70.4019608,176.82636 C70.0588235,179.317701 69.6421569,181.804138 68.9264706,184.217011 C68.004902,187.306667 67.5490196,190.514023 66.5294118,193.574253 C64.5833333,199.915402 61.8872549,206.001533 58.8872549,211.906207 C57.7205882,214.250421 56.3088235,216.462222 54.6421569,218.487663 C52.8872549,220.581762 51.8284314,223.141762 50.2696078,225.368276 C42.3921569,235.544521 33.2156863,244.784061 22.6715686,252.19433 C21.5441176,252.964291 20.2696078,253.469425 18.995098,253.930421 C22.2647059,249.114483 26.504902,245.088123 30.622549,241.017625 C32.8872549,238.805824 34.2205882,235.848582 36.5,233.651494 C39.8284314,230.355862 41.5735294,225.927356 43.9803922,221.994176 C46.5686275,217.72751 48.9068627,213.303908 50.8137255,208.689042 C52.5,204.804904 54.0784314,200.822682 54.8039216,196.634483 C51.122549,198.748199 49.8921569,203.063908 47.0588235,205.991724 C44.2598039,208.909732 41.5882353,211.945441 38.7696078,214.843831 C34.8382353,218.615172 30.745098,222.234483 26.3578431,225.471264 C20.2401961,229.733027 13.8333333,233.631877 6.94117647,236.510651 C4.92647059,237.648429 2.59313725,237.810268 0.333333333,237.594483 C1.65196078,235.716169 3.94607843,235.073716 5.78921569,233.862375 C9.20588235,231.68 12.7843137,229.752644 16.0441176,227.329962 C19.2941176,224.936705 22.7303922,222.695479 25.372549,219.60092 C26.6568627,218.110038 28.0735294,216.736858 29.5686275,215.456858 C31.7892157,213.568736 33.5490196,211.229425 35.5245098,209.100996 C37.3529412,207.109885 38.5196078,204.638161 40.1176471,202.475402 C41.3333333,200.817778 42.4803922,199.096398 43.3235294,197.218084 C44.9754902,193.564444 47.4117647,190.327663 48.9215686,186.605364 C52.0784314,180.063142 54.2254902,173.108966 56.5784314,166.257778 C58.7598039,161.579157 57.6666667,156.218851 56.1911765,151.5059 C55.1666667,146.82728 53.0637255,142.438008 50.3578431,138.509732 C48.377451,135.827126 46.4509804,133.02682 45.4852941,129.804751 C44.5735294,126.651341 43.3333333,123.502835 43.4166667,120.172874 C43.4362745,117.862989 43.3529412,115.553103 43.4362745,113.248123 C43.4754902,111.605211 44.3284314,110.119234 44.4460784,108.491034 C43.9558824,107.29931 43,106.392031 42.2107843,105.401379 C36.4362745,98.8101149 37.3480392,87.4764751 44.1568627,81.9445211 C47.1127451,79.6199234 51.2205882,80.7822222 54.245098,82.3662835 C55.0980392,80.2035249 55.5147059,77.9034483 56.25,75.7063602 C59.0735294,67.9282759 62.245098,60.2482759 66.3333333,53.0390805 C67.9362745,49.7532567 70.1666667,46.8499617 72.3333333,43.9221456 C75.7058824,39.0473563 79.4656863,34.4373946 83.6176471,30.2099617 C87.3186275,26.8309579 91.0490196,23.3881992 95.4362745,20.9066667 C96.5490196,20.2445977 97.8186275,19.955249 99.0833333,19.7394636 C97.6029412,22.6868966 94.7843137,24.5554023 92.5098039,26.8309579 C88.6519608,30.376705 85.4509804,34.5452874 82.2696078,38.6844444 C77.8921569,44.5008429 74.6715686,51.0724904 71.8186275,57.7422222 C70.8480392,59.9049808 69.5245098,62.4257471 70.8872549,64.7405364 C72.4166667,63.0583908 73.8088235,61.2585441 75.0343137,59.3459004 C78.8529412,53.3676628 83.8088235,48.228046 88.8921569,43.3189272 C93.2303922,39.223908 98.0833333,35.6683525 103.259804,32.7013027 C105,31.6959387 106.936275,31.131954 108.843137,30.5434483 C108.367647,28.1894253 106.27451,26.7672031 105.215686,24.731954 C104.681373,22.7016092 105.818627,20.6614559 105.446078,18.6114943 C105.186275,16.7331801 104.784314,14.7273563 105.588235,12.9226054 C106.848039,9.89180077 108.470588,6.6010728 111.691176,5.26712644 Z M120.078431,6.37547893 C119.117647,7.26804598 118.598039,8.50390805 117.980392,9.63678161 C119.411765,9.50436782 120.877451,9.40628352 122.235294,8.88643678 C123.323529,8.15570881 123.166667,6.61088123 123.5,5.47800766 C122.348039,5.66927203 121.039216,5.60551724 120.078431,6.37547893 Z" id="Shape"></path>
            <path d="M112.848039,99.0945594 C114.661765,98.4128736 116.715686,98.8591571 118.627451,98.7463602 C122.053922,98.9180077 125.77451,98.1235249 128.911765,99.908659 C130.906863,100.84046 132.240196,102.860996 132.558824,105.013946 C132.343137,107.20613 130.740196,109.040307 130.647059,111.261916 C131.333333,113.385441 133.941176,114.685057 133.696078,117.181303 C134.093137,120.045364 132.352941,122.767203 129.970588,124.204138 C127.20098,125.503755 124.058824,125.302682 121.078431,125.327203 C118.808824,125.283065 116.52451,125.459617 114.264706,125.194789 C113.230392,124.993716 111.764706,124.43954 111.97549,123.135019 C111.892157,116.249502 112,109.35908 111.926471,102.468659 C112.019608,101.34069 111.808824,99.8498084 112.848039,99.0945594 Z M118.818627,103.297471 C116.671569,103.527969 116.514706,106.323372 117.176471,107.89272 C117.901961,109.344368 119.710784,109.138391 121.068627,109.192337 C122.916667,109.153103 125.107843,109.388506 126.509804,107.917241 C128.127451,106.504828 126.779412,103.542682 124.813725,103.302375 C122.823529,103.101303 120.803922,103.101303 118.818627,103.297471 Z M118.808824,113.964138 C117.416667,114.336858 116.911765,115.92092 116.897059,117.210728 C116.857843,118.387739 117.098039,120.064981 118.52451,120.261149 C120.602941,120.604444 122.730392,120.491648 124.823529,120.378851 C126.328431,120.246437 128.308824,119.368582 128.264706,117.603065 C128.27451,116.882146 128.303922,116.0141 127.637255,115.558008 C125.240196,113.581609 121.740196,113.027433 118.808824,113.964138 Z" id="Shape"></path>
            <path d="M110.965686,143.899464 C112.294118,142.182989 115.22549,142.791111 116.181373,144.620383 C118.52451,148.720307 119.279412,153.47249 121.098039,157.793103 C121.5,158.84751 122.29902,159.671418 123.034314,160.505134 C124.720588,156.518008 125.848039,152.324904 127.156863,148.20046 C127.730392,146.523218 128.460784,144.801839 129.823529,143.605211 C130.803922,142.737165 132.568627,142.599847 133.598039,143.409042 C134.882353,145.473716 133.563725,148.0141 132.813725,150.064061 C130.431373,156.007969 128.622549,162.167663 126.235294,168.111571 C125.47549,170.127203 122.921569,170.784368 121,170.269425 C118.906863,169.430805 118.093137,167.116015 117.362745,165.173946 C115.392157,159.171188 113.171569,153.256705 111.102941,147.288276 C110.892157,146.214253 110.098039,144.855785 110.965686,143.899464 Z" id="Shape"></path>
            <path d="M112.622549,189.180077 C113.833333,187.826513 116.598039,188.385594 116.843137,190.31295 C117.098039,193.054406 116.848039,195.815479 116.985294,198.561839 C118.102941,198.321533 119.308824,198.076322 120.098039,197.169042 C122.622549,194.604138 124.661765,191.539004 127.52451,189.317395 C129.186275,188.027586 131.426471,188.606284 133.357843,188.581762 C133.009804,191.024061 130.813725,192.37272 129.22549,193.996015 C128.02451,195.217165 126.617647,196.335326 125.872549,197.914483 C125.387255,199.390651 126.284314,200.798161 127.078431,201.970268 C129.122549,204.844138 130.916667,207.889655 133.063725,210.69977 C133.583333,211.553103 134.553922,212.612414 133.852941,213.642299 C133.004902,215.285211 130.612745,214.81931 129.352941,213.941456 C126.122549,211.494253 125.269608,207.237395 122.892157,204.128123 C122.259804,203.176705 120.955882,203.127663 119.970588,203.446437 C118.985294,204.054559 118.27451,205.005977 117.661765,205.967203 C116.117647,208.340843 117.740196,211.459923 116.230392,213.843372 C115.764706,215.010575 114.27451,214.686897 113.303922,214.490728 C111.980392,213.789425 111.911765,212.215172 111.931373,210.905747 C111.970588,204.677395 111.970588,198.449042 111.936275,192.215785 C112.019608,191.190805 111.789216,189.959847 112.622549,189.180077 Z" id="Shape"></path>
        </g>
    </g>
</svg>