<?xml version="1.0" encoding="UTF-8" ?>
<!DOCTYPE svg PUBLIC "-//W3C//DTD SVG 1.1//EN" "http://www.w3.org/Graphics/SVG/1.1/DTD/svg11.dtd">
<svg width="512pt" height="512pt" viewBox="0 0 512 512" version="1.1" xmlns="http://www.w3.org/2000/svg">
<g id="#173a60ff">
<path fill="#173a60" opacity="1.00" d=" M 242.44 56.69 C 281.17 53.40 320.84 61.43 355.07 79.88 C 383.89 95.26 408.95 117.64 427.38 144.61 C 457.20 187.60 469.15 242.43 460.10 293.94 C 454.27 328.12 439.43 360.68 417.55 387.56 C 394.74 415.73 364.31 437.72 330.29 450.28 C 285.86 467.02 235.51 467.23 190.88 451.08 C 162.23 440.86 136.00 424.01 114.70 402.31 C 88.03 375.46 69.10 340.97 60.91 304.02 C 52.26 265.66 55.04 224.77 68.98 187.99 C 81.42 154.70 102.92 124.90 130.37 102.36 C 161.89 76.14 201.59 60.04 242.44 56.69 M 240.46 63.69 C 191.21 68.26 144.24 92.51 111.74 129.75 C 88.39 156.30 72.28 189.17 66.00 223.99 C 58.83 262.88 63.65 303.96 80.03 339.98 C 93.62 370.39 115.21 397.15 141.87 417.11 C 167.38 436.23 197.62 449.04 229.14 453.87 C 270.93 460.47 314.78 453.12 352.05 433.08 C 382.97 416.51 409.39 391.59 427.60 361.59 C 451.07 323.43 460.58 277.03 454.37 232.69 C 449.92 199.42 436.56 167.43 416.23 140.73 C 397.01 115.37 371.53 94.78 342.71 81.29 C 311.07 66.26 275.29 60.35 240.46 63.69 Z" />
<path fill="#173a60" opacity="1.00" d=" M 242.42 68.60 C 276.04 65.53 310.47 71.54 340.97 86.03 C 371.92 100.61 398.92 123.58 418.07 151.95 C 436.08 178.31 447.29 209.25 450.28 241.03 C 454.48 283.16 444.15 326.60 421.22 362.21 C 401.92 392.79 373.68 417.55 341.00 432.98 C 299.41 452.76 250.58 456.55 206.38 443.69 C 172.71 433.97 141.76 414.81 118.19 388.85 C 95.89 364.60 80.00 334.50 72.65 302.38 C 64.78 268.23 66.55 231.93 77.70 198.71 C 89.70 162.82 112.66 130.70 142.67 107.66 C 171.28 85.47 206.33 71.68 242.42 68.60 M 259.06 84.49 C 259.16 86.49 259.15 88.50 259.52 90.48 C 260.51 91.71 261.81 92.65 263.00 93.68 C 261.17 100.50 259.15 107.27 257.42 114.12 C 255.23 107.37 253.07 100.60 251.02 93.80 C 252.11 92.79 253.26 91.84 254.22 90.71 C 254.64 88.73 254.63 86.70 254.75 84.69 C 248.34 84.61 241.93 84.71 235.52 84.95 C 235.91 87.19 235.35 89.90 237.02 91.71 C 239.00 93.92 240.98 96.23 241.89 99.11 C 245.18 108.44 248.57 117.74 252.07 126.99 C 255.71 126.99 259.36 126.95 263.00 126.89 C 266.49 116.66 269.72 106.34 273.21 96.12 C 274.17 93.00 278.02 91.47 278.01 88.00 C 278.14 86.76 278.24 85.51 278.32 84.26 C 271.90 84.27 265.48 84.39 259.06 84.49 M 298.39 90.52 C 285.52 92.65 278.05 107.74 282.44 119.61 C 286.77 132.35 303.85 138.29 315.20 131.13 C 324.15 125.93 328.28 114.03 324.61 104.37 C 320.85 94.12 308.86 88.39 298.39 90.52 M 182.17 102.18 C 174.50 107.41 171.16 117.90 174.41 126.61 C 176.48 133.06 181.74 137.86 187.72 140.73 C 187.70 142.40 187.71 144.07 187.69 145.74 C 188.88 145.78 190.08 145.82 191.28 145.87 C 192.82 143.64 194.88 141.80 197.69 141.58 C 204.78 140.44 211.70 136.61 215.11 130.08 C 219.36 122.56 218.26 112.68 213.09 105.88 C 210.08 101.82 204.84 100.19 202.02 95.96 C 201.29 95.05 200.13 93.20 198.81 94.37 C 194.18 98.80 187.09 98.19 182.17 102.18 M 342.17 104.60 C 340.76 106.75 339.35 108.89 337.91 111.02 C 339.02 112.14 340.14 113.25 341.26 114.36 C 336.86 121.55 331.98 128.43 327.56 135.60 C 326.01 135.04 324.47 134.48 322.92 133.94 C 321.58 135.94 320.25 137.96 318.92 139.97 C 328.28 146.00 337.46 152.30 346.90 158.20 C 349.67 154.24 352.27 150.16 354.72 146.00 C 352.31 144.44 349.90 142.87 347.50 141.31 C 346.25 142.96 345.01 144.62 343.76 146.27 C 341.32 144.63 338.88 142.98 336.47 141.30 C 341.03 134.29 345.76 127.38 350.20 120.29 C 351.75 120.87 353.30 121.45 354.86 122.03 C 356.24 119.82 357.64 117.61 359.03 115.40 C 353.46 111.72 347.86 108.08 342.17 104.60 M 139.81 131.78 C 134.97 136.19 130.26 140.75 125.45 145.20 C 127.14 147.03 128.85 148.86 130.55 150.69 C 131.80 149.77 133.04 148.85 134.29 147.93 C 140.29 154.26 146.34 160.53 152.10 167.07 C 151.16 168.39 150.22 169.70 149.28 171.02 C 150.92 172.75 152.55 174.50 154.18 176.24 C 158.86 172.25 163.31 168.00 167.82 163.81 C 171.76 160.19 175.38 155.79 176.33 150.37 C 178.72 137.00 165.70 123.32 152.21 125.20 C 147.44 125.83 143.30 128.61 139.81 131.78 M 374.47 136.29 C 374.66 137.96 375.31 139.53 375.82 141.13 C 370.43 145.98 365.18 151.00 359.60 155.62 C 357.75 157.49 355.25 155.74 353.07 155.72 C 351.16 156.59 349.60 158.03 347.94 159.27 C 355.13 167.89 362.73 176.14 370.20 184.52 C 373.91 181.42 377.52 178.20 381.09 174.94 C 379.18 172.75 377.26 170.56 375.37 168.35 C 373.69 169.64 372.02 170.95 370.33 172.22 C 368.43 169.97 366.53 167.72 364.68 165.43 C 371.02 159.94 377.08 154.12 383.64 148.87 C 384.81 149.84 385.98 150.81 387.16 151.78 C 389.13 150.04 391.13 148.34 393.13 146.64 C 388.88 141.37 384.22 136.46 379.72 131.41 C 377.91 132.97 376.02 134.46 374.47 136.29 M 245.38 149.43 C 208.68 153.79 175.29 178.10 159.49 211.45 C 149.30 232.42 146.08 256.68 150.37 279.59 C 154.78 304.38 168.19 327.36 187.29 343.71 C 205.53 359.39 228.96 368.99 253.00 370.27 C 277.31 371.78 302.03 364.92 322.08 351.09 C 342.34 337.30 357.80 316.60 365.21 293.22 C 371.66 273.27 372.14 251.46 366.82 231.19 C 358.91 200.93 337.56 174.53 309.59 160.51 C 289.94 150.47 267.26 146.58 245.38 149.43 M 120.35 163.41 C 108.18 165.94 99.93 179.70 103.27 191.65 C 105.93 202.42 117.83 209.38 128.58 207.38 C 140.57 205.38 149.03 192.31 146.49 180.52 C 144.27 169.04 131.77 160.85 120.35 163.41 M 402.40 170.33 C 402.90 171.86 403.43 173.38 403.94 174.91 C 396.14 178.93 388.22 182.72 380.36 186.64 C 379.47 185.33 378.59 184.02 377.71 182.71 C 375.49 183.78 373.28 184.86 371.07 185.94 C 375.86 195.99 380.91 205.92 385.87 215.89 C 389.59 214.13 393.29 212.33 396.99 210.53 C 395.91 208.05 394.80 205.59 393.72 203.11 C 392.16 203.30 390.60 203.51 389.05 203.72 C 387.86 201.18 386.67 198.63 385.51 196.07 C 388.07 194.79 390.63 193.51 393.19 192.25 C 395.06 195.82 396.85 199.43 398.58 203.07 C 401.12 201.98 403.64 200.87 406.17 199.78 C 404.47 195.95 402.64 192.19 400.91 188.38 C 403.40 187.16 405.90 185.93 408.38 184.69 C 409.17 186.21 410.02 187.71 410.67 189.31 C 411.91 191.53 409.56 193.59 409.61 195.82 C 410.13 198.03 411.25 200.04 412.17 202.10 C 415.95 200.32 419.69 198.46 423.46 196.66 C 419.04 186.67 413.92 177.01 409.11 167.20 C 406.88 168.26 404.65 169.31 402.40 170.33 M 420.96 208.48 C 419.74 215.14 413.26 218.46 408.85 222.87 C 405.61 226.27 400.76 226.62 396.40 227.37 C 396.02 225.90 395.63 224.43 395.26 222.96 C 392.79 223.36 390.31 223.76 387.85 224.16 C 388.84 230.80 390.21 237.37 391.49 243.96 C 393.90 243.56 396.30 243.16 398.72 242.77 C 398.67 241.12 398.62 239.49 398.58 237.85 C 402.58 237.20 406.80 235.63 410.79 237.20 C 416.48 239.26 422.52 240.85 427.35 244.67 C 429.45 246.55 432.38 245.56 434.90 245.62 C 434.03 239.62 432.78 233.69 431.63 227.74 C 428.24 228.34 424.94 229.52 422.53 232.09 C 419.80 231.22 417.08 230.30 414.38 229.33 C 416.44 227.63 418.30 225.56 420.75 224.40 C 424.12 224.45 427.47 225.37 430.88 224.97 C 430.06 218.98 428.78 213.07 427.62 207.14 C 425.39 207.57 423.17 208.02 420.96 208.48 M 89.03 219.96 C 87.18 227.51 85.81 235.18 84.54 242.85 C 86.89 243.26 89.23 243.69 91.58 244.12 C 92.17 242.67 92.76 241.23 93.36 239.79 C 101.83 241.38 110.27 243.08 118.72 244.82 C 118.90 246.48 119.08 248.14 119.28 249.80 C 121.51 250.17 123.74 250.57 125.97 250.97 C 127.52 242.91 129.60 234.94 130.65 226.79 C 131.55 220.68 127.81 213.88 121.49 212.64 C 117.35 211.42 113.43 213.68 110.08 215.85 C 107.14 212.88 103.50 209.75 98.99 210.40 C 93.84 210.67 90.08 215.19 89.03 219.96 M 102.58 259.20 C 101.93 311.24 129.68 362.36 173.07 390.93 C 179.60 395.16 186.24 399.36 193.57 402.09 C 194.01 400.55 194.46 399.02 194.90 397.48 C 170.80 386.11 149.88 368.18 134.76 346.24 C 117.20 320.87 107.39 290.12 107.50 259.23 C 105.86 259.22 104.22 259.21 102.58 259.20 M 411.50 259.29 C 411.49 270.82 410.17 282.34 407.58 293.57 C 397.36 338.45 365.82 377.95 324.09 397.51 C 324.56 399.04 325.03 400.57 325.51 402.10 C 337.59 397.20 348.40 389.65 358.56 381.58 C 394.71 352.05 416.99 305.92 416.43 259.13 C 414.78 259.18 413.14 259.24 411.50 259.29 M 285.82 397.00 C 286.43 399.55 287.07 402.10 287.74 404.64 C 291.22 401.21 295.13 398.14 300.14 397.50 C 298.78 406.35 296.49 415.03 294.94 423.85 C 296.58 423.44 298.22 423.04 299.87 422.65 C 301.68 415.39 303.11 408.05 304.76 400.75 C 305.43 397.88 305.52 394.91 305.36 391.98 C 298.81 393.50 292.30 395.21 285.82 397.00 M 214.25 396.10 C 214.31 396.72 214.43 397.95 214.49 398.56 C 214.90 398.87 215.71 399.48 216.11 399.79 C 218.45 399.31 220.81 398.35 223.24 398.73 C 226.32 399.22 226.91 403.79 224.51 405.47 C 220.47 408.41 215.08 408.90 211.34 412.33 C 209.24 414.17 208.60 417.01 207.68 419.53 C 214.13 421.31 220.61 422.98 227.12 424.49 C 227.77 421.78 228.39 419.06 228.92 416.33 C 226.47 416.39 224.28 417.42 222.40 418.94 C 219.51 418.22 216.66 417.33 213.88 416.25 C 218.20 413.05 223.59 411.92 228.10 409.09 C 233.10 405.94 232.35 397.45 226.91 395.16 C 222.88 392.67 218.15 394.21 214.25 396.10 M 244.44 398.43 C 240.00 399.47 237.94 404.12 237.15 408.19 C 236.28 413.00 235.97 418.31 238.29 422.78 C 241.21 428.70 250.97 428.95 254.31 423.30 C 256.45 419.96 257.05 415.91 257.20 412.02 C 257.26 408.59 257.05 404.89 255.06 401.96 C 252.85 398.56 248.20 397.48 244.44 398.43 M 270.40 398.40 C 265.94 399.31 263.53 403.89 263.32 408.12 C 263.03 413.36 263.42 419.09 266.45 423.57 C 269.34 427.79 275.57 428.16 279.70 425.66 C 283.05 423.30 283.91 418.85 283.96 415.00 C 283.92 410.33 283.28 405.36 280.56 401.43 C 278.34 398.23 273.97 397.39 270.40 398.40 Z" />
<path fill="#173a60" opacity="1.00" d=" M 300.34 100.23 C 304.77 98.63 310.29 100.04 312.87 104.12 C 317.33 110.45 314.43 120.29 307.57 123.61 C 303.22 125.81 297.27 124.60 294.52 120.48 C 289.63 113.94 292.63 103.06 300.34 100.23 Z" />
<path fill="#173a60" opacity="1.00" d=" M 184.33 115.35 C 185.49 110.44 190.39 108.18 194.78 106.85 C 193.69 114.82 191.96 122.69 190.05 130.49 C 185.88 126.75 182.46 121.13 184.33 115.35 Z" />
<path fill="#173a60" opacity="1.00" d=" M 200.11 108.37 C 202.16 110.14 204.45 111.82 205.68 114.30 C 207.88 118.71 207.62 124.48 204.31 128.28 C 202.03 130.91 198.41 131.46 195.22 132.32 C 196.62 124.30 198.18 116.29 200.11 108.37 Z" />
<path fill="#173a60" opacity="1.00" d=" M 142.40 140.66 C 145.61 137.88 149.23 134.32 153.88 135.08 C 160.26 136.17 165.55 141.96 166.54 148.28 C 167.20 153.11 163.21 156.61 160.10 159.65 C 153.94 153.57 148.24 147.04 142.40 140.66 Z" />
<path fill="#173a60" opacity="1.00" d=" M 221.91 163.73 C 242.95 155.62 266.65 154.29 288.29 160.79 C 295.14 163.69 300.27 169.67 304.11 175.89 C 311.46 188.46 310.98 203.83 308.53 217.71 C 306.09 231.39 301.52 244.57 296.44 257.46 C 284.78 257.98 273.11 258.14 261.44 257.92 C 261.58 243.53 262.71 228.99 260.27 214.73 C 258.24 204.23 254.71 193.94 249.38 184.64 C 245.61 178.03 240.52 171.99 233.90 168.10 C 230.20 165.93 225.99 164.92 221.91 163.73 Z" />
<path fill="#173a60" opacity="1.00" d=" M 300.13 164.90 C 320.98 174.16 338.86 190.14 349.71 210.27 C 351.90 214.75 351.80 220.00 350.86 224.79 C 349.00 233.27 342.58 239.93 335.45 244.46 C 324.92 251.13 312.77 254.86 300.56 256.95 C 307.72 236.55 315.58 215.31 313.31 193.30 C 312.30 182.62 307.21 172.81 300.13 164.90 Z" />
<path fill="#173a60" opacity="1.00" d=" M 208.98 169.96 C 215.40 166.29 223.51 166.94 230.07 169.90 C 238.21 173.74 243.91 181.23 247.95 189.06 C 252.76 198.26 255.79 208.35 257.41 218.59 C 236.46 211.33 214.60 203.22 192.04 206.02 C 181.82 207.12 172.60 212.24 164.92 218.87 C 173.92 198.43 189.53 180.95 208.98 169.96 Z" />
<path fill="#173a60" opacity="1.00" d=" M 119.40 174.36 C 126.88 171.70 136.01 177.21 137.02 185.11 C 137.63 189.30 135.45 193.75 131.64 195.65 C 124.82 199.25 115.32 195.38 112.98 188.01 C 110.88 182.70 113.91 176.08 119.40 174.36 Z" />
<path fill="#173a60" opacity="1.00" d=" M 186.61 210.55 C 198.41 207.54 210.81 208.91 222.57 211.45 C 234.68 214.14 246.49 218.09 257.93 222.87 C 258.37 234.47 258.17 246.09 257.86 257.70 C 247.57 257.44 237.28 257.34 227.00 257.83 C 214.99 258.39 203.16 261.39 192.14 266.15 C 183.59 269.92 175.28 275.05 169.66 282.68 C 166.58 286.79 165.27 291.84 163.70 296.65 C 156.40 278.39 154.85 258.00 158.75 238.77 C 159.60 234.91 160.22 230.83 162.47 227.48 C 168.24 219.28 176.84 213.01 186.61 210.55 Z" />
<path fill="#173a60" opacity="1.00" d=" M 97.53 221.43 C 99.64 221.44 101.75 221.49 103.86 221.55 C 104.26 224.64 104.17 227.76 103.86 230.85 C 101.09 230.31 98.33 229.76 95.57 229.17 C 96.17 226.58 96.83 224.00 97.53 221.43 Z" />
<path fill="#173a60" opacity="1.00" d=" M 114.03 224.02 C 116.57 221.64 122.10 223.25 121.90 227.08 C 121.89 229.48 121.35 231.83 120.98 234.19 C 117.91 233.64 114.84 233.09 111.77 232.56 C 112.33 229.68 112.64 226.65 114.03 224.02 Z" />
<path fill="#173a60" opacity="1.00" d=" M 355.31 222.42 C 363.24 242.19 364.37 264.47 359.17 285.07 C 357.70 292.17 352.07 297.34 346.64 301.67 C 335.73 309.94 321.26 311.10 308.10 309.57 C 291.84 307.43 276.12 302.30 260.98 296.12 C 260.67 284.51 260.78 272.90 261.12 261.31 C 274.87 261.51 288.72 261.94 302.38 260.12 C 317.78 257.33 333.47 251.96 345.12 241.12 C 350.58 236.24 353.38 229.32 355.31 222.42 Z" />
<path fill="#173a60" opacity="1.00" d=" M 222.62 261.58 C 234.25 260.76 245.91 260.87 257.55 261.07 C 257.49 278.43 255.67 296.27 260.84 313.14 C 264.66 326.08 270.37 339.21 280.94 348.07 C 285.36 351.94 291.11 353.57 296.60 355.29 C 276.55 363.35 253.93 364.35 233.07 358.96 C 227.04 357.55 222.53 352.92 218.57 348.44 C 210.92 339.19 208.26 326.75 208.92 314.97 C 209.85 296.47 215.76 278.64 222.62 261.58 Z" />
<path fill="#173a60" opacity="1.00" d=" M 182.95 274.94 C 193.64 268.05 206.01 264.17 218.48 262.02 C 213.88 275.07 209.02 288.12 206.79 301.84 C 204.54 314.12 204.34 327.22 209.08 338.97 C 211.14 344.32 214.82 348.76 218.02 353.44 C 198.22 345.03 181.59 329.77 170.67 311.32 C 167.55 306.56 166.88 300.60 167.98 295.10 C 169.49 286.46 175.82 279.59 182.95 274.94 Z" />
<path fill="#173a60" opacity="1.00" d=" M 261.60 300.46 C 278.60 306.37 295.83 312.62 313.99 313.50 C 323.16 313.98 332.58 312.87 340.96 308.93 C 345.49 306.87 349.40 303.75 353.48 300.96 C 344.86 321.21 329.09 338.14 310.05 349.04 C 304.33 352.40 297.13 352.02 291.03 349.96 C 282.10 346.65 275.78 338.79 271.36 330.65 C 266.50 321.21 263.18 310.96 261.60 300.46 Z" />
<path fill="#173a60" opacity="1.00" d=" M 245.44 403.24 C 247.37 402.25 250.12 402.96 250.95 405.09 C 252.53 408.92 252.05 413.28 251.19 417.23 C 250.57 419.70 249.14 423.10 246.03 422.70 C 242.80 422.69 242.03 418.56 241.90 416.01 C 241.92 411.68 241.85 406.28 245.44 403.24 Z" />
<path fill="#173a60" opacity="1.00" d=" M 271.34 402.96 C 273.40 402.26 276.05 403.00 276.84 405.20 C 278.83 409.70 279.25 415.01 277.93 419.76 C 277.26 422.49 273.51 423.63 271.55 421.54 C 268.75 418.44 268.64 413.89 268.56 409.94 C 268.73 407.48 268.84 404.25 271.34 402.96 Z" />
</g>
<g id="#fcfdfaff">
<path fill="#fcfdfa" opacity="1.00" d=" M 240.49 46.82 C 279.55 43.31 319.58 50.74 354.64 68.35 C 381.32 81.75 405.28 100.68 424.24 123.77 C 443.59 147.22 457.91 174.83 465.76 204.21 C 477.02 245.87 475.13 290.94 460.53 331.54 C 449.16 363.35 429.95 392.24 405.36 415.36 C 380.43 438.59 349.99 456.00 317.11 465.11 C 268.66 478.83 215.34 474.61 169.72 453.24 C 140.64 439.66 114.59 419.57 94.32 394.67 C 72.18 367.71 56.71 335.28 50.06 301.02 C 41.87 260.07 46.07 216.70 62.08 178.12 C 77.14 141.67 102.50 109.53 134.50 86.47 C 165.40 64.03 202.43 50.08 240.49 46.82 M 242.44 56.69 C 201.59 60.04 161.89 76.14 130.37 102.36 C 102.92 124.90 81.42 154.70 68.98 187.99 C 55.04 224.77 52.26 265.66 60.91 304.02 C 69.10 340.97 88.03 375.46 114.70 402.31 C 136.00 424.01 162.23 440.86 190.88 451.08 C 235.51 467.23 285.86 467.02 330.29 450.28 C 364.31 437.72 394.74 415.73 417.55 387.56 C 439.43 360.68 454.27 328.12 460.10 293.94 C 469.15 242.43 457.20 187.60 427.38 144.61 C 408.95 117.64 383.89 95.26 355.07 79.88 C 320.84 61.43 281.17 53.40 242.44 56.69 Z" />
<path fill="#fcfdfa" opacity="1.00" d=" M 240.46 63.69 C 275.29 60.35 311.07 66.26 342.71 81.29 C 371.53 94.78 397.01 115.37 416.23 140.73 C 436.56 167.43 449.92 199.42 454.37 232.69 C 460.58 277.03 451.07 323.43 427.60 361.59 C 409.39 391.59 382.97 416.51 352.05 433.08 C 314.78 453.12 270.93 460.47 229.14 453.87 C 197.62 449.04 167.38 436.23 141.87 417.11 C 115.21 397.15 93.62 370.39 80.03 339.98 C 63.65 303.96 58.83 262.88 66.00 223.99 C 72.28 189.17 88.39 156.30 111.74 129.75 C 144.24 92.51 191.21 68.26 240.46 63.69 M 242.42 68.60 C 206.33 71.68 171.28 85.47 142.67 107.66 C 112.66 130.70 89.70 162.82 77.70 198.71 C 66.55 231.93 64.78 268.23 72.65 302.38 C 80.00 334.50 95.89 364.60 118.19 388.85 C 141.76 414.81 172.71 433.97 206.38 443.69 C 250.58 456.55 299.41 452.76 341.00 432.98 C 373.68 417.55 401.92 392.79 421.22 362.21 C 444.15 326.60 454.48 283.16 450.28 241.03 C 447.29 209.25 436.08 178.31 418.07 151.95 C 398.92 123.58 371.92 100.61 340.97 86.03 C 310.47 71.54 276.04 65.53 242.42 68.60 Z" />
<path fill="#fcfdfa" opacity="1.00" d=" M 259.06 84.49 C 265.48 84.39 271.90 84.27 278.32 84.26 C 278.24 85.51 278.14 86.76 278.01 88.00 C 278.02 91.47 274.17 93.00 273.21 96.12 C 269.72 106.34 266.49 116.66 263.00 126.89 C 259.36 126.95 255.71 126.99 252.07 126.99 C 248.57 117.74 245.18 108.44 241.89 99.11 C 240.98 96.23 239.00 93.92 237.02 91.71 C 235.35 89.90 235.91 87.19 235.52 84.95 C 241.93 84.71 248.34 84.61 254.75 84.69 C 254.63 86.70 254.64 88.73 254.22 90.71 C 253.26 91.84 252.11 92.79 251.02 93.80 C 253.07 100.60 255.23 107.37 257.42 114.12 C 259.15 107.27 261.17 100.50 263.00 93.68 C 261.81 92.65 260.51 91.71 259.52 90.48 C 259.15 88.50 259.16 86.49 259.06 84.49 Z" />
<path fill="#fcfdfa" opacity="1.00" d=" M 298.39 90.52 C 308.86 88.39 320.85 94.12 324.61 104.37 C 328.28 114.03 324.15 125.93 315.20 131.13 C 303.85 138.29 286.77 132.35 282.44 119.61 C 278.05 107.74 285.52 92.65 298.39 90.52 M 300.34 100.23 C 292.63 103.06 289.63 113.94 294.52 120.48 C 297.27 124.60 303.22 125.81 307.57 123.61 C 314.43 120.29 317.33 110.45 312.87 104.12 C 310.29 100.04 304.77 98.63 300.34 100.23 Z" />
<path fill="#fcfdfa" opacity="1.00" d=" M 182.17 102.18 C 187.09 98.19 194.18 98.80 198.81 94.37 C 200.13 93.20 201.29 95.05 202.02 95.96 C 204.84 100.19 210.08 101.82 213.09 105.88 C 218.26 112.68 219.36 122.56 215.11 130.08 C 211.70 136.61 204.78 140.44 197.69 141.58 C 194.88 141.80 192.82 143.64 191.28 145.87 C 190.08 145.82 188.88 145.78 187.69 145.74 C 187.71 144.07 187.70 142.40 187.72 140.73 C 181.74 137.86 176.48 133.06 174.41 126.61 C 171.16 117.90 174.50 107.41 182.17 102.18 M 184.33 115.35 C 182.46 121.13 185.88 126.75 190.05 130.49 C 191.96 122.69 193.69 114.82 194.78 106.85 C 190.39 108.18 185.49 110.44 184.33 115.35 M 200.11 108.37 C 198.18 116.29 196.62 124.30 195.22 132.32 C 198.41 131.46 202.03 130.91 204.31 128.28 C 207.62 124.48 207.88 118.71 205.68 114.30 C 204.45 111.82 202.16 110.14 200.11 108.37 Z" />
<path fill="#fcfdfa" opacity="1.00" d=" M 342.17 104.60 C 347.86 108.08 353.46 111.72 359.03 115.40 C 357.64 117.61 356.24 119.82 354.86 122.03 C 353.30 121.45 351.75 120.87 350.20 120.29 C 345.76 127.38 341.03 134.29 336.47 141.30 C 338.88 142.98 341.32 144.63 343.76 146.27 C 345.01 144.62 346.25 142.96 347.50 141.31 C 349.90 142.87 352.31 144.44 354.72 146.00 C 352.27 150.16 349.67 154.24 346.90 158.20 C 337.46 152.30 328.28 146.00 318.92 139.97 C 320.25 137.96 321.58 135.94 322.92 133.94 C 324.47 134.48 326.01 135.04 327.56 135.60 C 331.98 128.43 336.86 121.55 341.26 114.36 C 340.14 113.25 339.02 112.14 337.91 111.02 C 339.35 108.89 340.76 106.75 342.17 104.60 Z" />
<path fill="#fcfdfa" opacity="1.00" d=" M 139.81 131.78 C 143.30 128.61 147.44 125.83 152.21 125.20 C 165.70 123.32 178.72 137.00 176.33 150.37 C 175.38 155.79 171.76 160.19 167.82 163.81 C 163.31 168.00 158.86 172.25 154.18 176.24 C 152.55 174.50 150.92 172.75 149.28 171.02 C 150.22 169.70 151.16 168.39 152.10 167.07 C 146.34 160.53 140.29 154.26 134.29 147.93 C 133.04 148.85 131.80 149.77 130.55 150.69 C 128.85 148.86 127.14 147.03 125.45 145.20 C 130.26 140.75 134.97 136.19 139.81 131.78 M 142.40 140.66 C 148.24 147.04 153.94 153.57 160.10 159.65 C 163.21 156.61 167.20 153.11 166.54 148.28 C 165.55 141.96 160.26 136.17 153.88 135.08 C 149.23 134.32 145.61 137.88 142.40 140.66 Z" />
<path fill="#fcfdfa" opacity="1.00" d=" M 374.47 136.29 C 376.02 134.46 377.91 132.97 379.72 131.41 C 384.22 136.46 388.88 141.37 393.13 146.64 C 391.13 148.34 389.13 150.04 387.16 151.78 C 385.98 150.81 384.81 149.84 383.64 148.87 C 377.08 154.12 371.02 159.94 364.68 165.43 C 366.53 167.72 368.43 169.97 370.33 172.22 C 372.02 170.95 373.69 169.64 375.37 168.35 C 377.26 170.56 379.18 172.75 381.09 174.94 C 377.52 178.20 373.91 181.42 370.20 184.52 C 362.73 176.14 355.13 167.89 347.94 159.27 C 349.60 158.03 351.16 156.59 353.07 155.72 C 355.25 155.74 357.75 157.49 359.60 155.62 C 365.18 151.00 370.43 145.98 375.82 141.13 C 375.31 139.53 374.66 137.96 374.47 136.29 Z" />
<path fill="#fcfdfa" opacity="1.00" d=" M 245.38 149.43 C 267.26 146.58 289.94 150.47 309.59 160.51 C 337.56 174.53 358.91 200.93 366.82 231.19 C 372.14 251.46 371.66 273.27 365.21 293.22 C 357.80 316.60 342.34 337.30 322.08 351.09 C 302.03 364.92 277.31 371.78 253.00 370.27 C 228.96 368.99 205.53 359.39 187.29 343.71 C 168.19 327.36 154.78 304.38 150.37 279.59 C 146.08 256.68 149.30 232.42 159.49 211.45 C 175.29 178.10 208.68 153.79 245.38 149.43 M 221.91 163.73 C 225.99 164.92 230.20 165.93 233.90 168.10 C 240.52 171.99 245.61 178.03 249.38 184.64 C 254.71 193.94 258.24 204.23 260.27 214.73 C 262.71 228.99 261.58 243.53 261.44 257.92 C 273.11 258.14 284.78 257.98 296.44 257.46 C 301.52 244.57 306.09 231.39 308.53 217.71 C 310.98 203.83 311.46 188.46 304.11 175.89 C 300.27 169.67 295.14 163.69 288.29 160.79 C 266.65 154.29 242.95 155.62 221.91 163.73 M 300.13 164.90 C 307.21 172.81 312.30 182.62 313.31 193.30 C 315.58 215.31 307.72 236.55 300.56 256.95 C 312.77 254.86 324.92 251.13 335.45 244.46 C 342.58 239.93 349.00 233.27 350.86 224.79 C 351.80 220.00 351.90 214.75 349.71 210.27 C 338.86 190.14 320.98 174.16 300.13 164.90 M 208.98 169.96 C 189.53 180.95 173.92 198.43 164.92 218.87 C 172.60 212.24 181.82 207.12 192.04 206.02 C 214.60 203.22 236.46 211.33 257.41 218.59 C 255.79 208.35 252.76 198.26 247.95 189.06 C 243.91 181.23 238.21 173.74 230.07 169.90 C 223.51 166.94 215.40 166.29 208.98 169.96 M 186.61 210.55 C 176.84 213.01 168.24 219.28 162.47 227.48 C 160.22 230.83 159.60 234.91 158.75 238.77 C 154.85 258.00 156.40 278.39 163.70 296.65 C 165.27 291.84 166.58 286.79 169.66 282.68 C 175.28 275.05 183.59 269.92 192.14 266.15 C 203.16 261.39 214.99 258.39 227.00 257.83 C 237.28 257.34 247.57 257.44 257.86 257.70 C 258.17 246.09 258.37 234.47 257.93 222.87 C 246.49 218.09 234.68 214.14 222.57 211.45 C 210.81 208.91 198.41 207.54 186.61 210.55 M 355.31 222.42 C 353.38 229.32 350.58 236.24 345.12 241.12 C 333.47 251.96 317.78 257.33 302.38 260.12 C 288.72 261.94 274.87 261.51 261.12 261.31 C 260.78 272.90 260.67 284.51 260.98 296.12 C 276.12 302.30 291.84 307.43 308.10 309.57 C 321.26 311.10 335.73 309.94 346.64 301.67 C 352.07 297.34 357.70 292.17 359.17 285.07 C 364.37 264.47 363.24 242.19 355.31 222.42 M 222.62 261.58 C 215.76 278.64 209.85 296.47 208.92 314.97 C 208.26 326.75 210.92 339.19 218.57 348.44 C 222.53 352.92 227.04 357.55 233.07 358.96 C 253.93 364.35 276.55 363.35 296.60 355.29 C 291.11 353.57 285.36 351.94 280.94 348.07 C 270.37 339.21 264.66 326.08 260.84 313.14 C 255.67 296.27 257.49 278.43 257.55 261.07 C 245.91 260.87 234.25 260.76 222.62 261.58 M 182.95 274.94 C 175.82 279.59 169.49 286.46 167.98 295.10 C 166.88 300.60 167.55 306.56 170.67 311.32 C 181.59 329.77 198.22 345.03 218.02 353.44 C 214.82 348.76 211.14 344.32 209.08 338.97 C 204.34 327.22 204.54 314.12 206.79 301.84 C 209.02 288.12 213.88 275.07 218.48 262.02 C 206.01 264.17 193.64 268.05 182.95 274.94 M 261.60 300.46 C 263.18 310.96 266.50 321.21 271.36 330.65 C 275.78 338.79 282.10 346.65 291.03 349.96 C 297.13 352.02 304.33 352.40 310.05 349.04 C 329.09 338.14 344.86 321.21 353.48 300.96 C 349.40 303.75 345.49 306.87 340.96 308.93 C 332.58 312.87 323.16 313.98 313.99 313.50 C 295.83 312.62 278.60 306.37 261.60 300.46 Z" />
<path fill="#fcfdfa" opacity="1.00" d=" M 120.35 163.41 C 131.77 160.85 144.27 169.04 146.49 180.52 C 149.03 192.31 140.57 205.38 128.58 207.38 C 117.83 209.38 105.93 202.42 103.27 191.65 C 99.93 179.70 108.18 165.94 120.35 163.41 M 119.40 174.36 C 113.91 176.08 110.88 182.70 112.98 188.01 C 115.32 195.38 124.82 199.25 131.64 195.65 C 135.45 193.75 137.63 189.30 137.02 185.11 C 136.01 177.21 126.88 171.70 119.40 174.36 Z" />
<path fill="#fcfdfa" opacity="1.00" d=" M 402.40 170.33 C 404.65 169.31 406.88 168.26 409.11 167.20 C 413.92 177.01 419.04 186.67 423.46 196.66 C 419.69 198.46 415.95 200.32 412.17 202.10 C 411.25 200.04 410.13 198.03 409.61 195.82 C 409.56 193.59 411.91 191.53 410.67 189.31 C 410.02 187.71 409.17 186.21 408.38 184.69 C 405.90 185.93 403.40 187.16 400.91 188.38 C 402.64 192.19 404.47 195.95 406.17 199.78 C 403.64 200.87 401.12 201.98 398.58 203.07 C 396.85 199.43 395.06 195.82 393.19 192.25 C 390.63 193.51 388.07 194.79 385.51 196.07 C 386.67 198.63 387.86 201.18 389.05 203.72 C 390.60 203.51 392.16 203.30 393.72 203.11 C 394.80 205.59 395.91 208.05 396.99 210.53 C 393.29 212.33 389.59 214.13 385.87 215.89 C 380.91 205.92 375.86 195.99 371.07 185.94 C 373.28 184.86 375.49 183.78 377.71 182.71 C 378.59 184.02 379.47 185.33 380.36 186.64 C 388.22 182.72 396.14 178.93 403.94 174.91 C 403.43 173.38 402.90 171.86 402.40 170.33 Z" />
<path fill="#fcfdfa" opacity="1.00" d=" M 420.96 208.48 C 423.17 208.02 425.39 207.57 427.62 207.14 C 428.78 213.07 430.06 218.98 430.88 224.97 C 427.47 225.37 424.12 224.45 420.75 224.40 C 418.30 225.56 416.44 227.63 414.38 229.33 C 417.08 230.30 419.80 231.22 422.53 232.09 C 424.94 229.52 428.24 228.34 431.63 227.74 C 432.78 233.69 434.03 239.62 434.90 245.62 C 432.38 245.56 429.45 246.55 427.35 244.67 C 422.52 240.85 416.48 239.26 410.79 237.20 C 406.80 235.63 402.58 237.20 398.58 237.85 C 398.62 239.49 398.67 241.12 398.72 242.77 C 396.30 243.16 393.90 243.56 391.49 243.96 C 390.21 237.37 388.84 230.80 387.85 224.16 C 390.31 223.76 392.79 223.36 395.26 222.96 C 395.63 224.43 396.02 225.90 396.40 227.37 C 400.76 226.62 405.61 226.27 408.85 222.87 C 413.26 218.46 419.74 215.14 420.96 208.48 Z" />
<path fill="#fcfdfa" opacity="1.00" d=" M 89.03 219.96 C 90.08 215.19 93.84 210.67 98.99 210.40 C 103.50 209.75 107.14 212.88 110.08 215.85 C 113.43 213.68 117.35 211.42 121.49 212.64 C 127.81 213.88 131.55 220.68 130.65 226.79 C 129.60 234.94 127.52 242.91 125.97 250.97 C 123.74 250.57 121.51 250.17 119.28 249.80 C 119.08 248.14 118.90 246.48 118.72 244.82 C 110.27 243.08 101.83 241.38 93.36 239.79 C 92.76 241.23 92.17 242.67 91.58 244.12 C 89.23 243.69 86.89 243.26 84.54 242.85 C 85.81 235.18 87.18 227.51 89.03 219.96 M 97.53 221.43 C 96.83 224.00 96.17 226.58 95.57 229.17 C 98.33 229.76 101.09 230.31 103.86 230.85 C 104.17 227.76 104.26 224.64 103.86 221.55 C 101.75 221.49 99.64 221.44 97.53 221.43 M 114.03 224.02 C 112.64 226.65 112.33 229.68 111.77 232.56 C 114.84 233.09 117.91 233.64 120.98 234.19 C 121.35 231.83 121.89 229.48 121.90 227.08 C 122.10 223.25 116.57 221.64 114.03 224.02 Z" />
<path fill="#fcfdfa" opacity="1.00" d=" M 102.58 259.20 C 104.22 259.21 105.86 259.22 107.50 259.23 C 107.39 290.12 117.20 320.87 134.76 346.24 C 149.88 368.18 170.80 386.11 194.90 397.48 C 194.46 399.02 194.01 400.55 193.57 402.09 C 186.24 399.36 179.60 395.16 173.07 390.93 C 129.68 362.36 101.93 311.24 102.58 259.20 Z" />
<path fill="#fcfdfa" opacity="1.00" d=" M 411.50 259.29 C 413.14 259.24 414.78 259.18 416.43 259.13 C 416.99 305.92 394.71 352.05 358.56 381.58 C 348.40 389.65 337.59 397.20 325.51 402.10 C 325.03 400.57 324.56 399.04 324.09 397.51 C 365.82 377.95 397.36 338.45 407.58 293.57 C 410.17 282.34 411.49 270.82 411.50 259.29 Z" />
<path fill="#fcfdfa" opacity="1.00" d=" M 285.82 397.00 C 292.30 395.21 298.81 393.50 305.36 391.98 C 305.52 394.91 305.43 397.88 304.76 400.75 C 303.11 408.05 301.68 415.39 299.87 422.65 C 298.22 423.04 296.58 423.44 294.94 423.85 C 296.49 415.03 298.78 406.35 300.14 397.50 C 295.13 398.14 291.22 401.21 287.74 404.64 C 287.07 402.10 286.43 399.55 285.82 397.00 Z" />
<path fill="#fcfdfa" opacity="1.00" d=" M 214.25 396.10 C 218.15 394.21 222.88 392.67 226.91 395.16 C 232.35 397.45 233.10 405.94 228.10 409.09 C 223.59 411.92 218.20 413.05 213.88 416.25 C 216.66 417.33 219.51 418.22 222.40 418.94 C 224.28 417.42 226.47 416.39 228.92 416.33 C 228.39 419.06 227.77 421.78 227.12 424.49 C 220.61 422.98 214.13 421.31 207.68 419.53 C 208.60 417.01 209.24 414.17 211.34 412.33 C 215.08 408.90 220.47 408.41 224.51 405.47 C 226.91 403.79 226.32 399.22 223.24 398.73 C 220.81 398.35 218.45 399.31 216.11 399.79 C 215.71 399.48 214.90 398.87 214.49 398.56 C 214.43 397.95 214.31 396.72 214.25 396.10 Z" />
<path fill="#fcfdfa" opacity="1.00" d=" M 244.44 398.43 C 248.20 397.48 252.85 398.56 255.06 401.96 C 257.05 404.89 257.26 408.59 257.20 412.02 C 257.05 415.91 256.45 419.96 254.31 423.30 C 250.97 428.95 241.21 428.70 238.29 422.78 C 235.97 418.31 236.28 413.00 237.15 408.19 C 237.94 404.12 240.00 399.47 244.44 398.43 M 245.44 403.24 C 241.85 406.28 241.92 411.68 241.90 416.01 C 242.03 418.56 242.80 422.69 246.03 422.70 C 249.14 423.10 250.57 419.70 251.19 417.23 C 252.05 413.28 252.53 408.92 250.95 405.09 C 250.12 402.96 247.37 402.25 245.44 403.24 Z" />
<path fill="#fcfdfa" opacity="1.00" d=" M 270.40 398.40 C 273.97 397.39 278.34 398.23 280.56 401.43 C 283.28 405.36 283.92 410.33 283.96 415.00 C 283.91 418.85 283.05 423.30 279.70 425.66 C 275.57 428.16 269.34 427.79 266.45 423.57 C 263.42 419.09 263.03 413.36 263.32 408.12 C 263.53 403.89 265.94 399.31 270.40 398.40 M 271.34 402.96 C 268.84 404.25 268.73 407.48 268.56 409.94 C 268.64 413.89 268.75 418.44 271.55 421.54 C 273.51 423.63 277.26 422.49 277.93 419.76 C 279.25 415.01 278.83 409.70 276.84 405.20 C 276.05 403.00 273.40 402.26 271.34 402.96 Z" />
</g>
</svg>
