<?xml version="1.0" encoding="UTF-8"?>
<svg width="256px" height="256px" viewBox="0 0 256 256" version="1.1" xmlns="http://www.w3.org/2000/svg" xmlns:xlink="http://www.w3.org/1999/xlink">
    <!-- Generator: Sketch 50.2 (55047) - http://www.bohemiancoding.com/sketch -->
    <title>logo/bodø</title>
    <desc>Created with Sketch.</desc>
    <defs></defs>
    <g id="logo/bodø" stroke="none" stroke-width="1" fill="none" fill-rule="evenodd">
        <g id="bodø" fill-rule="nonzero">
            <g id="#173a60ff" transform="translate(5.967366, 5.967366)" fill="#173A60">
                <path d="M111.864242,1.00251748 C135.560653,-0.990582751 159.8538,4.08167832 180.6262,15.7001399 C197.299021,24.8958508 211.763916,38.0717949 222.457436,53.825641 C240.669837,80.2909091 247.556177,114.197483 241.159161,145.675338 C236.761212,167.981352 225.888671,188.962611 210.218368,205.432541 C196.881305,219.61697 180.047366,230.471608 161.649977,236.832821 C133.472075,246.684942 101.642145,245.53324 74.2519347,233.670117 C56.4274126,226.079627 40.5780886,214.037483 28.2495105,199.1131 C16.1238228,184.379674 7.47114219,166.775944 3.4193007,148.121958 C-1.79020979,124.622471 0.208857809,99.5655012 9.17184149,77.2177156 C17.8841958,55.162331 33.3217716,35.8877389 52.7574825,22.3418182 C70.1046154,10.1445221 90.7457343,2.77482517 111.864242,1.00251748 Z M110.682704,5.17370629 C77.7488112,8.21706294 46.5872261,26.0773893 27.2350583,52.8827972 C15.4674126,68.8872727 7.91272727,87.9351049 5.52578089,107.657249 C2.8225641,129.384429 6.30750583,151.887366 15.6882051,171.681119 C24.1141259,189.821911 37.355711,205.665268 53.5690443,217.355338 C69.6928671,228.979767 88.8182751,236.456876 108.588159,238.6469 C132.541166,241.457529 157.317669,236.635897 178.436177,224.981632 C196.380047,215.093706 211.704242,200.47366 222.338089,182.959441 C236.528485,159.883636 242.167646,131.765408 238.175478,104.995804 C235.436457,85.7928205 227.696783,67.3536597 216.072354,51.8385082 C204.537436,36.4009324 189.147599,23.8515618 171.687086,15.6941725 C152.812308,6.70731935 131.461072,3.21641026 110.682704,5.17370629 Z" id="Shape"></path>
                <path d="M111.852308,8.10965035 C131.908625,6.277669 152.448298,9.87599068 170.648765,18.522704 C189.774172,27.5155245 206.33958,41.9088112 217.844662,59.6378555 C228.013054,75.1351049 234.302657,93.1505828 235.919814,111.613613 C238.318695,136.56317 232.094732,162.240746 218.536876,183.32345 C207.24662,201.183776 190.860233,215.738182 171.866107,224.981632 C146.636084,237.346014 116.787319,239.774732 89.8565967,231.808298 C70.2239627,226.037855 52.1547786,214.902751 38.28662,199.841119 C24.9018182,185.507506 15.3062937,167.665082 10.7531935,148.587413 C5.80027972,127.928392 6.79682984,105.890909 13.5459207,85.7570163 C20.659021,64.4773893 34.2347786,45.4176224 51.9757576,31.6926807 C69.1080653,18.2840093 90.1728671,9.9774359 111.852308,8.10965035 Z M121.889417,17.5858275 C121.871515,18.7912354 121.799907,20.0085781 121.955058,21.2080186 C122.498089,21.9837762 123.393193,22.4014918 124.127179,22.9683916 C123.130629,27.0918415 121.787972,31.1198135 120.833193,35.2492308 C119.466667,31.2152914 118.088205,27.1753846 117.002145,23.0459674 C117.652587,22.4910023 118.320932,21.947972 118.899767,21.3154312 C119.275711,20.1756643 119.007179,18.9463869 119.019114,17.7708159 C115.307413,17.6216317 111.583776,17.6514685 107.878042,17.9259674 C107.872075,19.0537995 107.806434,20.1816317 107.94965,21.3034965 C108.85669,22.6401865 110.569324,23.3682051 111.034779,25.0331002 C113.248671,30.9825641 115.211935,37.0394406 117.652587,42.9113287 C119.77697,43.0426107 121.913287,43.0187413 124.037669,42.851655 C126.370909,36.6813986 128.196923,30.3261538 130.339207,24.084289 C130.727086,22.729697 132.111515,22.1329604 133.03049,21.1901166 C133.227413,19.9608392 133.102098,18.7076923 133.066294,17.4784149 C129.342657,17.4426107 125.613054,17.5082517 121.889417,17.5858275 Z M145.227786,21.1960839 C137.404569,22.5089044 132.935012,31.8358974 135.876923,38.9728671 C138.69352,46.3007925 148.623217,49.6126807 155.270862,45.4355245 C160.605688,42.3265268 163.07021,35.2313287 160.886154,29.4728205 C158.624522,23.350303 151.487552,19.9190676 145.227786,21.1960839 Z M82.9105828,25.4329138 C79.8791608,25.9998135 76.8298368,27.0262005 74.5861072,29.2281585 C70.6297436,32.725035 69.430303,38.7878788 71.5845221,43.5796737 C72.9092774,47.0347786 75.886993,49.4276923 79.0556643,51.1403263 C79.1213054,52.1488112 79.1869464,53.1513287 79.2525874,54.1657809 C79.9567366,54.2075524 80.6668531,54.2194872 81.3769697,54.2015851 C82.164662,53.2766434 82.7972028,51.9697902 84.1637296,51.868345 C87.5770629,51.2716084 91.0918415,50.1974825 93.5026573,47.5599068 C97.7215851,43.3887179 98.1870396,36.3770629 95.0661072,31.4301166 C93.8129604,29.1147786 91.5274592,27.7064802 89.3434033,26.3876923 C87.7918881,25.7372494 87.9947786,23.0877389 86.0792541,23.1295105 C84.9394872,23.7859207 84.3725874,25.3195338 82.9105828,25.4329138 Z M171.329044,29.6936131 C170.49958,30.8751515 169.711888,32.0865268 168.948065,33.3098368 C169.508998,34.0318881 170.075897,34.747972 170.642797,35.4700233 C168.309557,39.8262005 165.296037,43.7765967 162.664429,47.9597203 C161.73352,47.7210256 160.796643,47.4763636 159.865734,47.237669 C159.030303,48.3356643 158.260513,49.4754312 157.550396,50.6569697 C163.028438,54.3507692 168.494545,58.0863403 174.163543,61.4877389 C175.917949,59.2499767 177.445594,56.8391608 178.74648,54.3089977 C177.415758,53.3124476 176.025361,52.3994406 174.563357,51.5998135 C173.811469,52.5128205 173.047646,53.4198601 172.28979,54.3328671 C170.774079,53.5272727 169.353846,52.5605594 168.058928,51.4386946 C170.672634,47.2794406 173.42359,43.2037296 176.138741,39.1160839 C177.081585,39.3607459 178.024429,39.6113753 178.97324,39.8560373 C179.838508,38.6267599 180.65007,37.355711 181.354219,36.0249883 C178.072168,33.8230303 174.808019,31.5733333 171.329044,29.6936131 Z M50.2929604,46.1098368 C47.5718415,48.6817716 44.7552448,51.1522611 42.1236364,53.8196737 C43.0127739,54.9475058 43.9914219,56.0037296 45.0536131,56.9764103 C45.8114685,56.5169231 46.5752914,56.0574359 47.3331469,55.6039161 C50.9792075,59.1783683 54.4880186,62.9139394 57.787972,66.8106294 C57.3225175,67.6341259 56.8510956,68.4635897 56.3796737,69.2870862 C57.2688112,70.3015385 58.1877855,71.2980886 59.124662,72.2707692 C62.2933333,69.9017249 65.0084848,67.0015851 67.9265268,64.3401399 C70.7192541,61.8040093 72.8496037,58.2056876 72.5870396,54.3209324 C72.0857809,47.6136131 65.9334266,41.5567366 59.0948252,41.7954312 C55.6874592,41.8849417 52.6978089,43.8362704 50.2929604,46.1098368 Z M190.693147,48.4729138 C190.555897,49.4634965 191.164569,50.3884382 191.409231,51.3312821 C189.219207,53.6764569 186.659207,55.6277855 184.331935,57.8237762 C183.192168,58.8322611 182.112075,59.9600932 180.769417,60.7000466 C179.748998,60.7656876 178.865828,60.0018648 177.857343,59.9541259 C176.759347,60.5508625 175.87021,61.44 174.933333,62.2455944 C179.044848,67.4431702 183.603916,72.282704 188.073473,77.1819114 C190.382844,75.511049 192.495291,73.5835897 194.500326,71.5606527 C193.491841,70.212028 192.375944,68.940979 191.182471,67.7415385 C190.162051,68.4277855 189.165501,69.1617716 188.127179,69.8241492 C186.915804,68.6187413 185.817809,67.3059207 184.922704,65.8498834 C188.616503,62.6036364 192.083543,59.0530536 196.09958,56.2006527 C196.827599,56.6720746 197.555618,57.1494639 198.289604,57.6268531 C199.465175,56.7078788 200.598974,55.7411655 201.69697,54.738648 C199.345828,51.5043357 196.535198,48.6579021 193.826014,45.7338928 C192.722051,46.5633566 191.480839,47.30331 190.693147,48.4729138 Z M113.606713,56.3498368 C91.3961772,58.9754779 71.2324476,73.8759907 61.9591608,94.1889044 C56.0992075,106.660699 54.3865734,121.018182 57.0062471,134.534266 C59.6020513,148.438228 66.9240093,161.351608 77.3609324,170.875524 C88.2991142,180.936503 102.710303,187.166434 117.55711,188.097343 C132.248765,189.141632 147.25669,185.059953 159.37641,176.687739 C171.454359,168.446807 180.709744,156.112261 185.11366,142.154592 C189.702564,127.844848 189.266946,111.923916 183.711329,97.948345 C177.594779,82.2004662 165.212494,69.0245221 149.870396,61.9651282 C138.639814,56.6959441 125.905455,54.7744522 113.606713,56.3498368 Z M38.9907692,64.6981818 C31.7225175,66.201958 26.8173427,74.4249883 28.8104429,81.5500233 C30.3917949,87.9828438 37.5108625,92.1361305 43.9198135,90.93669 C50.8956643,89.7432168 55.8903497,82.3078788 54.6849417,75.3857343 C53.6167832,68.3144056 45.96662,63.1108625 38.9907692,64.6981818 Z M207.437576,68.7798601 C207.646434,69.7048019 207.861259,70.6297436 208.076084,71.5546853 C203.546853,74.0311422 198.892308,76.2629371 194.21986,78.446993 C193.641026,77.7428438 193.068159,77.0386946 192.495291,76.3405128 C191.176503,76.8596737 189.899487,77.468345 188.664242,78.1486247 C191.462937,84.1458275 194.398881,90.0833566 197.501911,95.9254079 C199.727739,95.0124009 201.887925,93.9502098 204.00634,92.8044755 C203.487179,91.3365035 202.848671,89.9222378 202.132587,88.5497436 C201.201678,88.5497436 200.276737,88.5616783 199.351795,88.5795804 C198.534266,87.1772494 197.848019,85.70331 197.299021,84.1816317 C198.755058,83.3820047 200.2469,82.6420513 201.762611,81.9677389 C202.926247,84.0205128 203.988438,86.1329604 204.990956,88.2752448 C206.530536,87.7620513 208.028345,87.1235431 209.484382,86.4014918 C208.553473,84.0861538 207.419674,81.8603263 206.47683,79.5569231 C207.891096,78.8348718 209.317296,78.1426573 210.755431,77.4743124 C211.477483,78.6558508 212.354685,79.8075524 212.694825,81.1740793 C212.408392,82.0572494 211.769883,82.7733333 211.393939,83.6206993 C211.698275,85.0767366 212.521772,86.3537529 213.190117,87.6606061 C215.451748,86.8013054 217.611935,85.7152448 219.724382,84.5277389 C219.091841,82.522704 218.190769,80.6191142 217.194219,78.7751981 C215.12951,74.8844755 213.440746,70.8027972 211.232821,66.983683 C209.961772,67.5684848 208.69669,68.1711888 207.437576,68.7798601 Z M218.345921,91.5931002 C217.850629,95.5017249 213.936037,97.2979021 211.477483,99.8937063 C209.532121,102.053893 206.596177,102.620793 203.815385,102.650629 C203.522984,101.880839 203.23655,101.111049 202.956084,100.341259 C201.529883,100.478508 200.103683,100.675431 198.695385,100.908159 C199.095198,104.888392 200.008205,108.791049 200.795897,112.711608 C202.192261,112.52662 203.582657,112.293893 204.967086,112.037296 C205.032727,111.094452 205.092401,110.157576 205.158042,109.220699 C207.616597,108.54042 210.301911,107.72289 212.760466,108.868625 C215.899301,110.264988 219.658741,110.676737 222.135198,113.248671 C223.26303,114.627133 225.160653,113.684289 226.646527,113.672354 C226.240746,110.157576 225.488858,106.702471 224.766807,103.247366 C222.690163,103.28317 220.732867,104.011189 219.39021,105.646247 C217.749184,105.228531 216.137995,104.691469 214.58648,104.005221 C215.911235,102.847552 217.110676,101.391515 218.793473,100.741072 C220.470303,101.815198 222.37986,101.827133 224.247646,101.248298 C223.841865,97.7335198 223.084009,94.2724476 222.338089,90.82331 C220.995431,91.0321678 219.664709,91.2887646 218.345921,91.5931002 Z M20.1756643,98.9150583 C19.2865268,103.30704 18.1288578,107.669184 17.7469464,112.138741 C19.077669,112.353566 20.4024242,112.568392 21.7271795,112.765315 C22.1508625,111.977622 22.5685781,111.18993 22.9862937,110.408205 C27.9929138,111.160093 32.9935664,112.108904 37.8927739,113.397855 C38.0717949,114.334732 38.2567832,115.283543 38.4477389,116.226387 C39.7247552,116.465082 41.0077389,116.697809 42.2847552,116.930536 C43.2216317,113.368019 43.8243357,109.73986 44.5821911,106.141538 C45.0894172,103.50993 45.6801865,100.639627 44.5105828,98.0915618 C43.3708159,95.2570629 40.1723077,93.4847552 37.1647552,93.9323077 C35.5893706,94.2664802 34.2407459,95.1854545 32.8682517,95.9791142 C31.0959441,94.230676 28.9476923,92.3211189 26.2444755,92.7507692 C22.974359,92.9118881 20.7425641,95.9194406 20.1756643,98.9150583 Z M28.5478788,121.847646 C28.1241958,125.445967 28.5538462,129.068159 28.9476923,132.654545 C30.1889044,143.377902 33.2680653,153.898368 38.1075991,163.559534 C46.9572028,181.700326 61.8457809,196.815664 79.8314219,205.969604 C80.7862005,206.399254 81.7887179,206.721492 82.7852681,207.031795 C83.0000932,206.13669 83.208951,205.25352 83.4058741,204.364382 C69.3407925,197.633193 57.0480186,187.261911 48.0910023,174.497716 C37.2900699,159.233193 31.2928671,140.603077 31.3167366,121.889417 C30.3917949,121.865548 29.4668531,121.853613 28.5478788,121.847646 Z M212.742564,121.919254 C212.778368,143.467413 204.817902,164.878322 190.746853,181.187133 C182.55366,190.991515 172.122704,198.808765 160.653427,204.382284 C160.862284,205.265455 161.089044,206.142657 161.315804,207.025828 C164.329324,206.267972 166.931096,204.519534 169.592541,202.991888 C172.808951,201.124103 175.852308,198.963916 178.806154,196.714219 C201.01669,179.802704 215.022098,152.621352 215.69641,124.694079 C215.684476,123.727366 215.618834,122.76662 215.553193,121.811841 C214.61035,121.835711 213.673473,121.877483 212.742564,121.919254 Z M137.834219,204.155524 C138.078881,205.498182 138.359347,206.834872 138.651748,208.171562 C138.997855,208.165594 139.696037,208.159627 140.042145,208.15366 C140.776131,207.252587 141.34303,206.154592 142.33958,205.516084 C143.568858,204.990956 144.905548,204.811935 146.206434,204.543403 C145.555991,209.794685 143.974639,214.872914 143.234685,220.112261 C144.159627,219.861632 145.090536,219.61697 146.021445,219.372308 C147.083636,216.197669 147.555058,212.873846 148.289044,209.621632 C148.867879,206.834872 149.93007,204.018275 149.267692,201.147972 C145.418741,201.995338 141.575758,202.914312 137.834219,204.155524 Z M95.0661072,203.684103 C95.0840093,204.018275 95.1078788,204.680653 95.1257809,205.008858 C95.3823776,205.187879 95.8955711,205.533986 96.1521678,205.713007 C97.5485315,205.450443 98.9448951,204.955152 100.377063,205.110303 C102.244848,205.402704 102.561119,208.12979 101.140886,209.156177 C98.8434499,210.821072 95.8239627,211.131375 93.6100699,212.951422 C92.0704895,213.995711 91.5632634,215.839627 91.3006993,217.576131 C95.0601399,218.632354 98.8374825,219.658741 102.668531,220.422564 C103.092214,218.930723 103.468159,217.426946 103.778462,215.911235 C102.191142,215.236923 100.9738,216.430396 99.6192075,217.027133 C97.9662471,217.009231 96.432634,216.269277 95.0004662,215.517389 C97.4112821,213.440746 100.699301,213.0469 103.301072,211.316364 C106.105734,209.520186 105.908811,204.764196 102.972867,203.200746 C100.532214,201.571655 97.3754779,202.096783 95.0661072,203.684103 Z M113.027879,204.943217 C110.384336,205.557855 109.17296,208.338648 108.701538,210.755431 C108.188345,213.625734 107.991422,216.794406 109.375851,219.461818 C110.855758,222.487273 115.31338,223.024336 117.825641,221.037203 C119.884382,219.199254 120.457249,216.293147 120.630303,213.667506 C120.725781,211.423776 120.684009,208.977156 119.389091,207.04373 C118.07627,204.990956 115.277576,204.382284 113.027879,204.943217 Z M128.525128,204.925315 C125.881585,205.474312 124.44345,208.183497 124.312168,210.695758 C124.139114,213.834592 124.359907,217.265828 126.179953,219.951142 C127.982098,222.564848 131.980233,222.714033 134.420886,220.947692 C136.13352,219.443916 136.593007,217.015198 136.628811,214.83711 C136.616876,212.044382 136.228998,209.066667 134.599907,206.721492 C133.275152,204.811935 130.655478,204.328578 128.525128,204.925315 Z" id="Shape"></path>
                <path d="M146.385455,27.002331 C149.172214,25.9640093 152.669091,26.9963636 154.113193,29.6816783 C157.132681,34.4197669 153.289697,42.117669 147.387972,41.5388345 C143.44951,41.4314219 140.984988,37.1647552 141.575758,33.5485315 C141.945734,30.7796737 143.646434,27.9511422 146.385455,27.002331 Z" id="Shape"></path>
                <path d="M77.3370629,35.5356643 C78.2262005,32.9279254 80.8458741,31.5434965 83.4058741,31.0541725 C82.767366,35.7325874 81.7887179,40.3632634 80.5713753,44.9163636 C77.778648,42.7800466 75.9884382,38.9848019 77.3370629,35.5356643 Z" id="Shape"></path>
                <path d="M86.5805128,32.05669 C90.7994406,34.0438228 92.1779021,40.1902098 89.0927739,43.7109557 C87.7859207,45.3400466 85.6436364,45.7159907 83.6982751,45.9845221 C84.4979021,41.318042 85.393007,36.6455944 86.5805128,32.05669 Z" id="Shape"></path>
                <path d="M52.2860606,51.2 C53.7779021,49.553007 55.5919814,47.8881119 57.9311888,47.7508625 C60.7358508,47.5837762 63.1705361,49.4455944 64.7936597,51.558042 C66.1840559,53.3243823 67.1209324,55.7531002 66.3093706,57.9729604 C65.6827972,59.8228438 64.11338,61.0879254 62.6871795,62.3172028 C58.9695105,58.8561305 55.6635897,54.98331 52.2860606,51.2 Z" id="Shape"></path>
                <path d="M99.6311422,64.8533333 C112.32373,60.0197669 126.645408,59.190303 139.642331,63.2898834 C145.209883,66.136317 149.178182,71.6620979 150.998228,77.5638228 C153.295664,85.6973427 152.102191,94.3321212 150.168765,102.411935 C148.539674,108.6538 146.582378,114.835991 144.022378,120.761585 C137.13007,121.191235 130.207925,121.22704 123.303683,121.059953 C123.100793,112.484848 124.043636,103.814266 122.498089,95.3167366 C121.513473,90.1907692 119.89035,85.1722145 117.64662,80.4579953 C115.164196,75.3439627 111.750862,70.4208858 106.762145,67.4849417 C104.554219,66.201958 102.041958,65.6350583 99.6311422,64.8533333 Z" id="Shape"></path>
                <path d="M146.301911,65.6111888 C158.755804,71.0951981 169.383683,80.6668531 175.864242,92.649324 C177.29641,95.6389744 177.129324,99.171655 176.293893,102.304522 C174.652867,107.806434 169.986387,111.726993 165.117016,114.394406 C159.37641,117.461632 153.068904,119.478601 146.636084,120.451282 C148.133893,115.259674 150.323916,110.288858 151.630769,105.037576 C154.119161,95.764289 155.84373,85.6675058 152.758601,76.3226107 C151.511422,72.2707692 148.975291,68.8335664 146.301911,65.6111888 Z" id="Shape"></path>
                <path d="M91.5155245,68.8037296 C95.9194406,66.1243823 101.725688,66.8165967 106.016224,69.3944988 C111.267506,72.5989744 114.471981,78.1307226 116.864895,83.632634 C118.661072,88.0902564 120.123077,92.7328671 120.701911,97.5186946 C111.470396,94.4872727 102.262751,90.9844289 92.518042,90.0415851 C85.6615385,89.3613054 78.3992541,89.8028904 72.2230303,93.1267133 C69.8301166,94.3738928 67.7713753,96.1342657 65.6350583,97.7633566 C70.8863403,85.6794406 80.1118881,75.3917016 91.5155245,68.8037296 Z" id="Shape"></path>
                <path d="M38.4119347,71.2264802 C43.4185548,69.3825641 49.6663869,73.8879254 48.9383683,79.3122611 C48.6041958,82.7375291 45.0774825,85.0946387 41.7834965,84.724662 C37.8211655,84.5217716 34.127366,81.1084382 34.2109091,77.0386946 C34.2109091,74.4667599 35.9891841,72.0440093 38.4119347,71.2264802 Z" id="Shape"></path>
                <path d="M67.162704,99.3685781 C71.5785548,94.8035431 77.8204196,92.2972494 84.1100233,91.915338 C93.1983217,91.312634 102.179207,93.5742657 110.76028,96.3311888 C114.233287,97.5306294 117.783869,98.5749184 121.053986,100.281585 C121.406061,107.155991 121.292681,114.060233 120.994312,120.934639 C110.730443,120.958508 100.209977,120.129044 90.2265734,123.053054 C82.4689977,125.260979 74.5562704,128.584802 69.2035431,134.856503 C66.870303,137.44634 65.9453613,140.865641 64.8951049,144.105921 C59.9302564,132.063776 59.4648019,118.362704 62.8184615,105.837203 C63.4629371,103.235431 65.3545921,101.230396 67.162704,99.3685781 Z" id="Shape"></path>
                <path d="M25.3971096,99.3327739 C26.5846154,99.3208392 27.7661538,99.3268065 28.9476923,99.3566434 C29.7174825,101.152821 29.4131469,103.08028 29.0491375,104.930163 C27.4319814,104.649697 25.8267599,104.30359 24.2394406,103.873939 C24.5437762,102.340326 24.9256876,100.824615 25.3971096,99.3327739 Z" id="Shape"></path>
                <path d="M35.2313287,100.884289 C36.7351049,99.4282517 40.0052214,100.4069 39.9694172,102.680466 C39.9932867,104.082797 39.5815385,105.449324 39.2831702,106.809883 C37.5168298,106.630862 35.7624242,106.344429 34.0199534,105.998322 C34.2109091,104.261818 34.258648,102.394033 35.2313287,100.884289 Z" id="Shape"></path>
                <path d="M179.176131,100.001119 C183.657622,110.802051 184.445315,122.987413 182.159814,134.408951 C181.586946,136.974918 181.157296,139.737809 179.444662,141.844289 C176.443077,145.711142 172.450909,148.90965 167.790396,150.520839 C161.339674,152.794406 154.286247,152.561678 147.632634,151.404009 C139.170909,149.798788 130.828531,147.310396 122.963543,143.78965 C122.671142,136.909277 122.742751,130.005035 123.059021,123.130629 C129.175571,123.172401 135.298089,123.33352 141.414639,122.99338 C148.59338,122.772587 155.652774,120.892867 162.234779,118.07627 C167.426387,115.725128 172.546387,112.610163 175.87021,107.848205 C177.54704,105.508998 178.263124,102.686434 179.176131,100.001119 Z" id="Shape"></path>
                <path d="M100.102564,123.327552 C106.965035,122.712914 113.875245,122.838228 120.755618,122.999347 C120.934639,128.757855 120.499021,134.516364 120.743683,140.274872 C120.851096,149.255758 123.482704,158.081492 127.641958,165.994219 C130.24373,170.505548 133.66303,174.891562 138.460793,177.188998 C140.268904,178.012494 142.202331,178.513753 144.088019,179.164196 C132.338275,184.027599 119.007179,184.552727 106.72634,181.509371 C102.519347,180.632168 99.4043823,177.332214 96.8324476,174.109837 C91.5453613,166.960932 91.115711,157.532494 92.4225641,149.052867 C93.8845688,140.209231 96.4982751,131.532681 100.102564,123.327552 Z" id="Shape"></path>
                <path d="M77.0744988,130.780793 C83.2805594,127.039254 90.3041492,124.706014 97.4470862,123.608019 C95.9671795,128.620606 93.8487646,133.430303 92.5657809,138.514499 C89.9878788,148.092121 88.1260606,158.51711 91.4558508,168.154406 C92.5896503,171.86014 95.0661072,174.879627 97.2322611,178.012494 C85.6734732,173.208765 75.9944056,164.335291 69.478042,153.707413 C67.4670396,150.855012 66.7032168,147.25669 67.3297902,143.825455 C68.0995804,138.132587 72.3662471,133.674965 77.0744988,130.780793 Z" id="Shape"></path>
                <path d="M123.345455,146.552541 C127.689697,147.769883 131.837016,149.58993 136.187226,150.807273 C143.139207,152.794406 150.300047,154.429464 157.574266,154.322051 C162.348159,154.274312 167.157855,153.301632 171.442424,151.147413 C173.799534,149.959907 175.852308,148.27711 178.048298,146.82704 C172.982005,158.916923 163.511795,168.954033 152.197669,175.470396 C148.647086,177.541072 144.165594,177.224802 140.424056,175.852308 C134.892308,173.578741 131.10303,168.50648 128.501259,163.302937 C126.024802,158.003916 124.067506,152.37669 123.345455,146.552541 Z" id="Shape"></path>
                <path d="M113.618648,207.81352 C114.943403,207.145175 116.781352,207.807552 117.10359,209.323263 C117.87338,212.235338 117.64662,215.553193 116.22042,218.232541 C115.665455,219.420047 114.239254,219.605035 113.09352,219.318601 C111.201865,217.6 111.434592,214.771469 111.637483,212.462098 C111.900047,210.821072 112.180513,208.857809 113.618648,207.81352 Z" id="Shape"></path>
                <path d="M129.092028,207.682238 C129.87972,207.288392 130.828531,207.550956 131.592354,207.897063 C133.161772,209.57986 133.32289,212.056317 133.454172,214.240373 C133.400466,215.899301 133.478042,218.035618 131.938462,219.091841 C130.64951,219.915338 128.99655,218.948625 128.45352,217.671608 C127.528578,215.666573 127.373427,213.38704 127.474872,211.214918 C127.606154,209.937902 127.761305,208.290909 129.092028,207.682238 Z" id="Shape"></path>
            </g>
            <g id="#fcfdfaff" fill="#FCFDFA">
                <path d="M116.667972,1.06219114 C138.204196,-0.823496503 160.217809,2.76885781 179.945921,11.642331 C198.217995,19.8474592 214.532774,32.3968298 227.111981,47.9895571 C238.455944,62.0248019 246.804289,78.4768298 251.33352,95.9492774 C257.891655,120.988345 256.507226,148.02648 247.490536,172.283823 C240.460979,191.283916 228.735105,208.487832 213.792821,222.1531 C199.154872,235.442424 181.461632,245.413893 162.383963,250.695012 C132.612774,259.120932 99.7624242,256.20289 72.0141725,242.454079 C53.7241958,233.461259 37.5884382,220.07049 25.5283916,203.618462 C14.5544056,188.920839 6.89827506,171.764662 3.21641026,153.790956 C-2.11244755,128.167086 0.686247086,100.890256 11.2663869,76.9372494 C20.4561305,55.9440559 35.4342191,37.5287646 54.1061072,24.2513753 C72.4020513,11.1351049 94.2426107,3.03142191 116.667972,1.06219114 Z M117.831608,6.96988345 C96.7131002,8.74219114 76.0719814,16.1118881 58.7248485,28.3091841 C39.2891375,41.8551049 23.8515618,61.129697 15.1392075,83.1850816 C6.17622378,105.532867 4.17715618,130.589837 9.38666667,154.089324 C13.4385082,172.74331 22.0911888,190.34704 34.2168765,205.080466 C46.5454545,220.004848 62.3947786,232.046993 80.2193007,239.637483 C107.60951,251.500606 139.439441,252.652308 167.617343,242.800186 C186.014732,236.438974 202.848671,225.584336 216.185734,211.399907 C231.856037,194.929977 242.728578,173.948718 247.126527,151.642704 C253.523543,120.164848 246.637203,86.2582751 228.424802,59.793007 C217.731282,44.0391608 203.266387,30.8632168 186.593566,21.6675058 C165.821166,10.0490443 141.528019,4.97678322 117.831608,6.96988345 Z" id="Shape"></path>
                <path d="M116.65007,11.1410723 C137.428438,9.18377622 158.779674,12.6746853 177.654452,21.6615385 C195.114965,29.8189277 210.504802,42.3682984 222.03972,57.8058741 C233.664149,73.3210256 241.403823,91.7601865 244.142844,110.96317 C248.135012,137.732774 242.495851,165.851002 228.305455,188.926807 C217.671608,206.441026 202.347413,221.061072 184.403543,230.948998 C163.285035,242.603263 138.508531,247.424895 114.555524,244.614266 C94.785641,242.424242 75.6602331,234.947133 59.5364103,223.322704 C43.3230769,211.632634 30.0814918,195.789277 21.6555711,177.648485 C12.2748718,157.854732 8.78993007,135.351795 11.4931469,113.624615 C13.8800932,93.9024709 21.4347786,74.8546387 33.2024242,58.8501632 C52.5545921,32.0447552 83.7161772,14.1844289 116.65007,11.1410723 Z M117.819674,14.0770163 C96.1402331,15.9448019 75.0754312,24.2513753 57.9431235,37.6600466 C40.2021445,51.3849883 26.6263869,70.4447552 19.5132867,91.7243823 C12.7641958,111.858275 11.7676457,133.895758 16.7205594,154.554779 C21.2736597,173.632448 30.8691841,191.474872 44.253986,205.808485 C58.1221445,220.870117 76.1913287,232.005221 95.8239627,237.775664 C122.754685,245.742098 152.60345,243.31338 177.833473,230.948998 C196.827599,221.705548 213.213986,207.151142 224.504242,189.290816 C238.062098,168.208112 244.286061,142.530536 241.887179,117.580979 C240.270023,99.1179487 233.98042,81.1024709 223.812028,65.6052214 C212.306946,47.8761772 195.741538,33.4828904 176.616131,24.4900699 C158.415664,15.8433566 137.875991,12.245035 117.819674,14.0770163 Z" id="Shape"></path>
                <path d="M127.856783,23.5531935 C131.58042,23.4756177 135.310023,23.4099767 139.03366,23.4457809 C139.069464,24.6750583 139.194779,25.9282051 138.997855,27.1574825 C138.078881,28.1003263 136.694452,28.6970629 136.306573,30.051655 C134.164289,36.2935198 132.338275,42.6487646 130.005035,48.819021 C127.880653,48.9861072 125.744336,49.0099767 123.619953,48.8786946 C121.179301,43.0068065 119.216037,36.9499301 117.002145,31.0004662 C116.53669,29.3355711 114.824056,28.6075524 113.917016,27.2708625 C113.7738,26.1489977 113.839441,25.0211655 113.845408,23.8933333 C117.551142,23.6188345 121.274779,23.5889977 124.98648,23.7381818 C124.974545,24.9137529 125.243077,26.1430303 124.867133,27.2827972 C124.288298,27.915338 123.619953,28.4583683 122.96951,29.0133333 C124.055571,33.1427506 125.434033,37.1826573 126.800559,41.2165967 C127.755338,37.0871795 129.097995,33.0592075 130.094545,28.9357576 C129.360559,28.3688578 128.465455,27.9511422 127.922424,27.1753846 C127.767273,25.9759441 127.838881,24.7586014 127.856783,23.5531935 Z" id="Shape"></path>
                <path d="M151.195152,27.1634499 C157.454918,25.8864336 164.591888,29.317669 166.85352,35.4401865 C169.037576,41.1986946 166.573054,48.2938928 161.238228,51.4028904 C154.590583,55.5800466 144.660886,52.2681585 141.844289,44.9402331 C138.902378,37.8032634 143.371935,28.4762704 151.195152,27.1634499 Z M152.352821,32.969697 C149.6138,33.9185082 147.9131,36.7470396 147.543124,39.5158974 C146.952354,43.1321212 149.416876,47.3987879 153.355338,47.5062005 C159.257063,48.085035 163.100047,40.3871329 160.080559,35.6490443 C158.636457,32.9637296 155.13958,31.9313753 152.352821,32.969697 Z" id="Shape"></path>
                <path d="M88.8779487,31.4002797 C90.3399534,31.2868998 90.9068531,29.7532867 92.04662,29.0968765 C93.9621445,29.0551049 93.7592541,31.7046154 95.3107692,32.3550583 C97.4948252,33.6738462 99.7803263,35.0821445 101.033473,37.3974825 C104.154406,42.3444289 103.688951,49.3560839 99.4700233,53.5272727 C97.0592075,56.1648485 93.5444289,57.2389744 90.1310956,57.835711 C88.7645688,57.9371562 88.132028,59.2440093 87.3443357,60.168951 C86.6342191,60.1868531 85.9241026,60.1749184 85.2199534,60.1331469 C85.1543124,59.1186946 85.0886713,58.1161772 85.0230303,57.1076923 C81.854359,55.3950583 78.8766434,53.0021445 77.5518881,49.5470396 C75.397669,44.7552448 76.5971096,38.6924009 80.5534732,35.1955245 C82.7972028,32.9935664 85.8465268,31.9671795 88.8779487,31.4002797 Z M83.3044289,41.5030303 C81.9558042,44.9521678 83.746014,48.7474126 86.5387413,50.8837296 C87.7560839,46.3306294 88.7347319,41.6999534 89.3732401,37.0215385 C86.8132401,37.5108625 84.1935664,38.8952914 83.3044289,41.5030303 Z M92.5478788,38.0240559 C91.360373,42.6129604 90.4652681,47.2854079 89.665641,51.9518881 C91.6110023,51.6833566 93.7532867,51.3074126 95.0601399,49.6783217 C98.1452681,46.1575758 96.7668065,40.0111888 92.5478788,38.0240559 Z" id="Shape"></path>
                <path d="M177.29641,35.660979 C180.775385,37.5406993 184.039534,39.7903963 187.321585,41.9923543 C186.617436,43.3230769 185.805874,44.5941259 184.940606,45.8234033 C183.991795,45.5787413 183.048951,45.3281119 182.106107,45.0834499 C179.390956,49.1710956 176.64,53.2468065 174.026294,57.4060606 C175.321212,58.5279254 176.741445,59.4946387 178.257156,60.3002331 C179.015012,59.3872261 179.778834,58.4801865 180.530723,57.5671795 C181.992727,58.3668065 183.383124,59.2798135 184.713846,60.2763636 C183.41296,62.8065268 181.885315,65.2173427 180.130909,67.4551049 C174.461911,64.0537063 168.995804,60.3181352 163.517762,56.6243357 C164.227879,55.4427972 164.997669,54.3030303 165.8331,53.205035 C166.764009,53.4437296 167.700886,53.6883916 168.631795,53.9270862 C171.263403,49.7439627 174.276923,45.7935664 176.610163,41.4373893 C176.043263,40.715338 175.476364,39.9992541 174.915431,39.2772028 C175.679254,38.0538928 176.466946,36.8425175 177.29641,35.660979 Z" id="Shape"></path>
                <path d="M56.2603263,52.0772028 C58.6651748,49.8036364 61.6548252,47.8523077 65.0621911,47.7627972 C71.9007925,47.5241026 78.0531469,53.580979 78.5544056,60.2882984 C78.8169697,64.1730536 76.68662,67.7713753 73.8938928,70.3075058 C70.9758508,72.968951 68.2606993,75.8690909 65.092028,78.2381352 C64.1551515,77.2654545 63.2361772,76.2689044 62.3470396,75.2544522 C62.8184615,74.4309557 63.2898834,73.6014918 63.755338,72.7779953 C60.4553846,68.8813054 56.9465734,65.1457343 53.3005128,61.5712821 C52.5426573,62.0248019 51.7788345,62.484289 51.020979,62.9437762 C49.9587879,61.9710956 48.9801399,60.9148718 48.0910023,59.7870396 C50.7226107,57.119627 53.5392075,54.6491375 56.2603263,52.0772028 Z M58.2534266,57.167366 C61.6309557,60.950676 64.9368765,64.8234965 68.6545455,68.2845688 C70.0807459,67.0552914 71.6501632,65.7902098 72.2767366,63.9403263 C73.0882984,61.7204662 72.1514219,59.2917483 70.7610256,57.5254079 C69.1379021,55.4129604 66.7032168,53.5511422 63.8985548,53.7182284 C61.5593473,53.8554779 59.7452681,55.520373 58.2534266,57.167366 Z" id="Shape"></path>
                <path d="M196.660513,54.4402797 C197.448205,53.270676 198.689417,52.5307226 199.79338,51.7012587 C202.502564,54.6252681 205.313193,57.4717016 207.664336,60.706014 C206.56634,61.7085315 205.432541,62.6752448 204.25697,63.5942191 C203.522984,63.1168298 202.794965,62.6394406 202.066946,62.1680186 C198.050909,65.0204196 194.583869,68.5710023 190.89007,71.8172494 C191.785175,73.2732867 192.88317,74.5861072 194.094545,75.7915152 C195.132867,75.1291375 196.129417,74.3951515 197.149837,73.7089044 C198.34331,74.908345 199.459207,76.1793939 200.467692,77.5280186 C198.462657,79.5509557 196.35021,81.4784149 194.040839,83.1492774 C189.571282,78.2500699 185.012214,73.4105361 180.900699,68.2129604 C181.837576,67.407366 182.726713,66.5182284 183.824709,65.9214918 C184.833193,65.9692308 185.716364,66.7330536 186.736783,66.6674126 C188.079441,65.9274592 189.159534,64.799627 190.299301,63.7911422 C192.626573,61.5951515 195.186573,59.6438228 197.376597,57.298648 C197.131935,56.3558042 196.523263,55.4308625 196.660513,54.4402797 Z" id="Shape"></path>
                <path d="M119.574079,62.3172028 C131.872821,60.7418182 144.607179,62.66331 155.837762,67.9324942 C171.17986,74.9918881 183.562145,88.1678322 189.678695,103.915711 C195.234312,117.891282 195.66993,133.812214 191.081026,148.121958 C186.67711,162.079627 177.421725,174.414172 165.343776,182.655105 C153.224056,191.027319 138.216131,195.108998 123.524476,194.064709 C108.677669,193.1338 94.2664802,186.903869 83.3282984,176.84289 C72.8913753,167.318974 65.5694172,154.405594 62.9736131,140.501632 C60.3539394,126.985548 62.0665734,112.628065 67.9265268,100.15627 C77.1998135,79.8433566 97.3635431,64.9428438 119.574079,62.3172028 Z M105.598508,70.8206993 C108.009324,71.6024242 110.521585,72.169324 112.72951,73.4523077 C117.718228,76.3882517 121.131562,81.3113287 123.613986,86.4253613 C125.857716,91.1395804 127.480839,96.1581352 128.465455,101.284103 C130.011002,109.781632 129.068159,118.452214 129.271049,127.027319 C136.175291,127.194406 143.097436,127.158601 149.989744,126.728951 C152.549744,120.803357 154.50704,114.621166 156.136131,108.379301 C158.069557,100.299487 159.26303,91.6647086 156.965594,83.5311888 C155.145548,77.6294639 151.177249,72.103683 145.609697,69.2572494 C132.612774,65.157669 118.291096,65.9871329 105.598508,70.8206993 Z M152.269277,71.5785548 C154.942657,74.8009324 157.478788,78.2381352 158.725967,82.2899767 C161.811096,91.6348718 160.086527,101.731655 157.598135,111.004942 C156.291282,116.256224 154.101259,121.22704 152.60345,126.418648 C159.03627,125.445967 165.343776,123.428998 171.084382,120.361772 C175.953753,117.694359 180.620233,113.7738 182.261259,108.271888 C183.09669,105.139021 183.263776,101.60634 181.831608,98.61669 C175.351049,86.6342191 164.72317,77.0625641 152.269277,71.5785548 Z M97.4828904,74.7710956 C86.0792541,81.3590676 76.8537063,91.6468065 71.6024242,103.730723 C73.7387413,102.101632 75.7974825,100.341259 78.1903963,99.0940793 C84.36662,95.7702564 91.6289044,95.3286713 98.4854079,96.008951 C108.230117,96.9517949 117.437762,100.454639 126.669277,103.486061 C126.090443,98.7002331 124.628438,94.0576224 122.832261,89.6 C120.439347,84.0980886 117.234872,78.5663403 111.98359,75.3618648 C107.693054,72.7839627 101.886807,72.0917483 97.4828904,74.7710956 Z M73.1300699,105.335944 C71.321958,107.197762 69.430303,109.202797 68.7858275,111.804569 C65.4321678,124.33007 65.8976224,138.031142 70.8624709,150.073287 C71.9127273,146.833007 72.837669,143.413706 75.1709091,140.823869 C80.5236364,134.552168 88.4363636,131.228345 96.1939394,129.02042 C106.177343,126.09641 116.697809,126.925874 126.961678,126.902005 C127.260047,120.027599 127.373427,113.123357 127.021352,106.248951 C123.751235,104.542284 120.200653,103.497995 116.727646,102.298555 C108.146573,99.5416317 99.1656876,97.28 90.0773893,97.882704 C83.7877855,98.2646154 77.5459207,100.770909 73.1300699,105.335944 Z M185.143497,105.968485 C184.23049,108.6538 183.514406,111.476364 181.837576,113.815571 C178.513753,118.577529 173.393753,121.692494 168.202145,124.043636 C161.62014,126.860233 154.560746,128.739953 147.382005,128.960746 C141.265455,129.300886 135.142937,129.139767 129.026387,129.097995 C128.710117,135.972401 128.638508,142.876643 128.930909,149.757016 C136.795897,153.277762 145.138275,155.766154 153.6,157.371375 C160.253613,158.529044 167.30704,158.761772 173.757762,156.488205 C178.418275,154.877016 182.410443,151.678508 185.412028,147.811655 C187.124662,145.705175 187.554312,142.942284 188.127179,140.376317 C190.412681,128.954779 189.624988,116.769417 185.143497,105.968485 Z M106.06993,129.294918 C102.465641,137.500047 99.8519347,146.176597 98.3899301,155.020233 C97.0830769,163.49986 97.5127273,172.928298 102.799814,180.077203 C105.371748,183.29958 108.486713,186.599534 112.693706,187.476737 C124.974545,190.520093 138.305641,189.994965 150.055385,185.131562 C148.169697,184.481119 146.23627,183.97986 144.428159,183.156364 C139.630396,180.858928 136.211096,176.472914 133.609324,171.961585 C129.45007,164.048858 126.818462,155.223124 126.711049,146.242238 C126.466387,140.48373 126.902005,134.725221 126.722984,128.966713 C119.842611,128.805594 112.932401,128.68028 106.06993,129.294918 Z M83.0418648,136.748159 C78.3336131,139.642331 74.0669464,144.099953 73.2971562,149.792821 C72.6705828,153.224056 73.4344056,156.822378 75.4454079,159.674779 C81.9617716,170.302657 91.6408392,179.176131 103.199627,183.97986 C101.033473,180.846993 98.5570163,177.827506 97.4232168,174.121772 C94.0934266,164.484476 95.9552448,154.059487 98.5331469,144.481865 C99.8161305,139.397669 101.934545,134.587972 103.414452,129.575385 C96.2715152,130.67338 89.2479254,133.00662 83.0418648,136.748159 Z M129.312821,152.519907 C130.034872,158.344056 131.992168,163.971282 134.468625,169.270303 C137.070396,174.473846 140.859674,179.546107 146.391422,181.819674 C150.13296,183.192168 154.614452,183.508438 158.165035,181.437762 C169.479161,174.921399 178.949371,164.884289 184.015664,152.794406 C181.819674,154.244476 179.7669,155.927273 177.40979,157.114779 C173.125221,159.268998 168.315524,160.241678 163.541632,160.289417 C156.267413,160.39683 149.106573,158.761772 142.154592,156.774639 C137.804382,155.557296 133.657063,153.737249 129.312821,152.519907 Z" id="Shape"></path>
                <path d="M44.9581352,70.6655478 C51.933986,69.0782284 59.5841492,74.2817716 60.6523077,81.3531002 C61.8577156,88.2752448 56.8630303,95.7105828 49.8871795,96.9040559 C43.4782284,98.1034965 36.3591608,93.9502098 34.7778089,87.5173893 C32.7847086,80.3923543 37.6898834,72.169324 44.9581352,70.6655478 Z M44.3793007,77.1938462 C41.9565501,78.0113753 40.1782751,80.4341259 40.1782751,83.0060606 C40.0947319,87.0758042 43.7885315,90.4891375 47.7508625,90.692028 C51.0448485,91.0620047 54.5715618,88.7048951 54.9057343,85.279627 C55.6337529,79.8552914 49.3859207,75.3499301 44.3793007,77.1938462 Z" id="Shape"></path>
                <path d="M213.404942,74.7472261 C214.664056,74.1385548 215.929138,73.5358508 217.200186,72.951049 C219.408112,76.7701632 221.096876,80.8518415 223.161585,84.7425641 C224.158135,86.5864802 225.059207,88.4900699 225.691748,90.4951049 C223.579301,91.6826107 221.419114,92.7686713 219.157483,93.627972 C218.489138,92.3211189 217.665641,91.0441026 217.361305,89.5880653 C217.737249,88.7406993 218.375758,88.0246154 218.662191,87.1414452 C218.322051,85.7749184 217.444848,84.6232168 216.722797,83.4416783 C215.284662,84.1100233 213.858462,84.8022378 212.444196,85.524289 C213.38704,87.8276923 214.520839,90.0535198 215.451748,92.3688578 C213.995711,93.0909091 212.497902,93.7294172 210.958322,94.2426107 C209.955804,92.1003263 208.893613,89.9878788 207.729977,87.9351049 C206.214266,88.6094172 204.722424,89.3493706 203.266387,90.1489977 C203.815385,91.670676 204.501632,93.1446154 205.319161,94.5469464 C206.244103,94.5290443 207.169044,94.5171096 208.099953,94.5171096 C208.816037,95.8896037 209.454545,97.3038695 209.973706,98.7718415 C207.855291,99.9175758 205.695105,100.979767 203.469277,101.892774 C200.366247,96.0507226 197.430303,90.1131935 194.631608,84.1159907 C195.866853,83.435711 197.143869,82.8270396 198.462657,82.3078788 C199.035524,83.0060606 199.608392,83.7102098 200.187226,84.414359 C204.859674,82.230303 209.514219,79.9985082 214.04345,77.5220513 C213.828625,76.5971096 213.6138,75.6721678 213.404942,74.7472261 Z" id="Shape"></path>
                <path d="M224.313287,97.5604662 C225.632075,97.2561305 226.962797,96.9995338 228.305455,96.790676 C229.051375,100.239814 229.809231,103.700886 230.215012,107.215664 C228.347226,107.794499 226.437669,107.782564 224.760839,106.708438 C223.078042,107.358881 221.878601,108.814918 220.553846,109.972587 C222.105361,110.658834 223.71655,111.195897 225.357576,111.613613 C226.700233,109.978555 228.657529,109.250536 230.734172,109.214732 C231.456224,112.669837 232.208112,116.124942 232.613893,119.63972 C231.128019,119.651655 229.230396,120.594499 228.102564,119.216037 C225.626107,116.644103 221.866667,116.232354 218.727832,114.835991 C216.269277,113.690256 213.583963,114.507786 211.125408,115.188065 C211.059767,116.124942 211.000093,117.061818 210.934452,118.004662 C209.550023,118.261259 208.159627,118.493986 206.763263,118.678974 C205.975571,114.758415 205.062564,110.855758 204.662751,106.875524 C206.071049,106.642797 207.497249,106.445874 208.92345,106.308625 C209.203916,107.078415 209.49035,107.848205 209.782751,108.617995 C212.563543,108.588159 215.499487,108.021259 217.444848,105.861072 C219.903403,103.265268 223.817995,101.469091 224.313287,97.5604662 Z" id="Shape"></path>
                <path d="M26.1430303,104.882424 C26.7099301,101.886807 28.9417249,98.8792541 32.2118415,98.7181352 C34.9150583,98.2884848 37.06331,100.198042 38.8356177,101.94648 C40.2081119,101.152821 41.5567366,100.233846 43.1321212,99.8996737 C46.1396737,99.4521212 49.3381818,101.224429 50.4779487,104.058928 C51.6475524,106.606993 51.0567832,109.477296 50.5495571,112.108904 C49.7917016,115.707226 49.1889977,119.335385 48.2521212,122.897902 C46.9751049,122.665175 45.6921212,122.432448 44.4151049,122.193753 C44.2241492,121.250909 44.0391608,120.302098 43.8601399,119.365221 C38.9609324,118.07627 33.9602797,117.127459 28.9536597,116.375571 C28.5359441,117.157296 28.1182284,117.944988 27.6945455,118.732681 C26.3697902,118.535758 25.045035,118.320932 23.7143124,118.106107 C24.0962238,113.63655 25.2538928,109.274406 26.1430303,104.882424 Z M31.3644755,105.30014 C30.8930536,106.791981 30.5111422,108.307692 30.2068065,109.841305 C31.7941259,110.270956 33.3993473,110.617063 35.0165035,110.897529 C35.3805128,109.047646 35.6848485,107.120186 34.9150583,105.324009 C33.7335198,105.294172 32.5519814,105.288205 31.3644755,105.30014 Z M41.1986946,106.851655 C40.226014,108.361399 40.1782751,110.229184 39.9873193,111.965688 C41.7297902,112.311795 43.4841958,112.598228 45.2505361,112.777249 C45.5489044,111.41669 45.9606527,110.050163 45.9367832,108.647832 C45.9725874,106.374266 42.7024709,105.395618 41.1986946,106.851655 Z" id="Shape"></path>
                <path d="M34.5152448,127.815012 C35.4342191,127.820979 36.3591608,127.832914 37.2841026,127.856783 C37.2602331,146.570443 43.2574359,165.200559 54.0583683,180.465082 C63.0153846,193.229277 75.3081585,203.600559 89.3732401,210.331748 C89.176317,211.220886 88.9674592,212.104056 88.752634,212.999161 C87.7560839,212.688858 86.7535664,212.36662 85.7987879,211.93697 C67.8131469,202.78303 52.9245688,187.667692 44.074965,169.5269 C39.2354312,159.865734 36.1562704,149.345268 34.9150583,138.621911 C34.5212121,135.035524 34.0915618,131.413333 34.5152448,127.815012 Z" id="Shape"></path>
                <path d="M218.70993,127.88662 C219.640839,127.844848 220.577716,127.803077 221.520559,127.779207 C221.5862,128.733986 221.651841,129.694732 221.663776,130.661445 C220.989464,158.588718 206.984056,185.77007 184.77352,202.681585 C181.819674,204.931282 178.776317,207.091469 175.559907,208.959254 C172.898462,210.4869 170.29669,212.235338 167.28317,212.993193 C167.05641,212.110023 166.82965,211.232821 166.620793,210.34965 C178.09007,204.776131 188.521026,196.958881 196.714219,187.154499 C210.785268,170.845688 218.745734,149.434779 218.70993,127.88662 Z" id="Shape"></path>
                <path d="M143.801585,210.12289 C147.543124,208.881678 151.386107,207.962704 155.235058,207.115338 C155.897436,209.985641 154.835245,212.802238 154.25641,215.588998 C153.522424,218.841212 153.051002,222.165035 151.988811,225.339674 C151.057902,225.584336 150.126993,225.828998 149.202051,226.079627 C149.942005,220.84028 151.523357,215.762051 152.1738,210.510769 C150.872914,210.779301 149.536224,210.958322 148.306946,211.48345 C147.310396,212.121958 146.743497,213.219953 146.00951,214.121026 C145.663403,214.126993 144.965221,214.13296 144.619114,214.138928 C144.326713,212.802238 144.046247,211.465548 143.801585,210.12289 Z" id="Shape"></path>
                <path d="M101.033473,209.651469 C103.342844,208.064149 106.49958,207.539021 108.940233,209.168112 C111.876177,210.731562 112.0731,215.487552 109.268438,217.28373 C106.666667,219.014266 103.378648,219.408112 100.967832,221.484755 C102.4,222.236643 103.933613,222.976597 105.586573,222.994499 C106.941166,222.397762 108.158508,221.204289 109.745828,221.878601 C109.435524,223.394312 109.05958,224.898089 108.635897,226.38993 C104.804848,225.626107 101.027506,224.59972 97.2680653,223.543497 C97.5306294,221.806993 98.0378555,219.963077 99.5774359,218.918788 C101.791329,217.098741 104.810816,216.788438 107.108252,215.123543 C108.528485,214.097156 108.212214,211.37007 106.344429,211.077669 C104.912261,210.922517 103.515897,211.417809 102.119534,211.680373 C101.862937,211.501352 101.349744,211.155245 101.093147,210.976224 C101.075245,210.648019 101.051375,209.985641 101.033473,209.651469 Z" id="Shape"></path>
                <path d="M118.995245,210.910583 C121.244942,210.34965 124.043636,210.958322 125.356457,213.011096 C126.651375,214.944522 126.693147,217.391142 126.597669,219.634872 C126.424615,222.260513 125.851748,225.16662 123.793007,227.004569 C121.280746,228.991702 116.823124,228.454639 115.343217,225.429184 C113.958788,222.761772 114.155711,219.5931 114.668904,216.722797 C115.140326,214.306014 116.351702,211.525221 118.995245,210.910583 Z M119.586014,213.780886 C118.147879,214.825175 117.867413,216.788438 117.604848,218.429464 C117.401958,220.738834 117.169231,223.567366 119.060886,225.285967 C120.20662,225.572401 121.632821,225.387413 122.187786,224.199907 C123.613986,221.520559 123.840746,218.202704 123.070956,215.290629 C122.748718,213.774918 120.910769,213.112541 119.586014,213.780886 Z" id="Shape"></path>
                <path d="M134.492494,210.892681 C136.622844,210.295944 139.242517,210.779301 140.567273,212.688858 C142.196364,215.034033 142.584242,218.011748 142.596177,220.804476 C142.560373,222.982564 142.100886,225.411282 140.388252,226.915058 C137.947599,228.681399 133.949464,228.532214 132.147319,225.918508 C130.327273,223.233193 130.10648,219.801958 130.279534,216.663124 C130.410816,214.150862 131.848951,211.441678 134.492494,210.892681 Z M135.059394,213.649604 C133.728671,214.258275 133.57352,215.905268 133.442238,217.182284 C133.340793,219.354406 133.495944,221.633939 134.420886,223.638974 C134.963916,224.915991 136.616876,225.882704 137.905828,225.059207 C139.445408,224.002984 139.367832,221.866667 139.421538,220.207739 C139.290256,218.023683 139.129138,215.547226 137.55972,213.864429 C136.795897,213.518322 135.847086,213.255758 135.059394,213.649604 Z" id="Shape"></path>
            </g>
        </g>
    </g>
</svg>