<?xml version="1.0" encoding="UTF-8"?>
<svg width="256px" height="256px" viewBox="0 0 256 256" version="1.1" xmlns="http://www.w3.org/2000/svg" xmlns:xlink="http://www.w3.org/1999/xlink">
    <!-- Generator: Sketch 50.2 (55047) - http://www.bohemiancoding.com/sketch -->
    <title>logo/borgen</title>
    <desc>Created with Sketch.</desc>
    <defs></defs>
    <g id="logo/borgen" stroke="none" stroke-width="1" fill="none" fill-rule="evenodd">
        <g id="borgen" transform="translate(16.000000, 0.000000)" fill-rule="nonzero">
            <g id="#ffffffff" fill="#FFFFFF">
                <path d="M0.974045802,1.81894737 C21.8152672,8.79157895 42.8076336,16.4210526 64.8076336,18.5431579 C62.6076336,12.9178947 60.340458,7.32631579 58.1236641,1.70105263 C92.6183206,1.68421053 127.096183,1.65052632 161.574046,1.71789474 C159.290076,7.30947368 157.10687,12.9684211 154.772519,18.56 C176.822901,16.4884211 197.815267,8.80842105 218.690076,1.81894737 C214.491603,27.4694737 210.141985,53.0863158 205.792366,78.72 C203.441221,78.72 201.073282,78.7368421 198.722137,78.7368421 C194.406107,111.528421 186.546565,144.185263 171.700763,173.894737 C156.351145,204.48 136.601527,233.701053 109.815267,255.376842 C87.5969466,237.524211 70.4503817,214.113684 56.2931298,189.541053 C36.6442748,155.738947 25.7282443,117.490526 21.0931298,78.7873684 C18.6748092,78.7536842 16.2564885,78.7031579 13.8381679,78.6526316 C9.60610687,53.0357895 5.22290076,27.4357895 0.974045802,1.81894737 Z M61.919084,4.24421053 C64.1526718,9.90315789 66.4366412,15.5452632 68.5358779,21.2547368 C46.3343511,20.2442105 25.3419847,12.2947368 4.31603053,5.77684211 C8.12824427,29.3052632 12.1083969,52.8168421 16.1557252,76.2947368 C18.5236641,76.1936842 20.9083969,76.0926316 23.2931298,75.9915789 C28.3145038,121.818947 42.6732824,167.141053 69.0564885,205.187368 C69.5938931,162.122105 69.0732824,119.023158 69.3251908,75.9410526 C70.551145,75.9578947 73.0198473,75.9747368 74.2458015,75.9915789 C74.3969466,120.286316 74.2793893,164.581053 74.2961832,208.892632 C73.7083969,213.793684 77.5374046,217.313684 80.0061069,221.069474 C80.459542,172.715789 79.989313,124.345263 80.2580153,75.9915789 C81.4839695,75.9915789 83.9526718,75.9915789 85.1954198,75.9915789 C85.2961832,125.355789 85.178626,174.72 85.2458015,224.084211 C84.8763359,228.092632 88.3358779,230.770526 90.3847328,233.768421 C91.140458,181.204211 90.4015267,128.589474 90.7541985,76.0084211 C92.0641221,76.0084211 94.7007634,76.0084211 96.010687,76.0084211 C96.3129771,129.263158 96.0610687,182.534737 96.1450382,235.789474 C95.6580153,239.764211 99.3022901,242.24 101.418321,245.086316 C101.922137,188.732632 101.300763,132.362105 101.737405,76.0084211 C103.047328,76.0084211 105.667176,76.0084211 106.977099,76.0084211 C107.245802,134.4 106.859542,192.808421 107.178626,251.2 C108.454962,251.233684 111.024427,251.301053 112.300763,251.334737 C112.821374,192.892632 112.334351,134.450526 112.552672,76.0084211 C113.912977,76.0084211 116.633588,76.0084211 117.993893,76.0084211 C118.11145,132.48 117.658015,188.968421 118.229008,245.423158 C120.378626,242.543158 123.989313,239.983158 123.451908,235.941053 C123.367939,182.618947 123.535878,129.313684 123.351145,75.9915789 C125.080916,76.0084211 126.827481,76.0084211 128.557252,75.9915789 C128.523664,128.707368 128.238168,181.44 128.708397,234.138947 C135.896183,228.884211 133.746565,219.856842 133.948092,212.210526 C133.89771,166.804211 133.964885,121.397895 133.914504,76.0084211 C135.274809,76.0084211 138.029008,76.0084211 139.389313,76.0084211 C139.59084,124.446316 138.98626,172.917895 139.691603,221.338947 C142.177099,217.6 145.50229,213.844211 144.880916,208.993684 C144.780153,164.665263 144.931298,120.336842 144.796947,76.0084211 C146.661069,76.0252632 148.525191,75.9915789 150.389313,75.9578947 C150.322137,119.141053 150.103817,162.324211 150.50687,205.490526 C158.887023,193.532632 165.705344,180.564211 171.969466,167.393684 C185.522137,138.694737 192.541985,107.368421 196.48855,75.9915789 C198.890076,76.0926316 201.308397,76.1936842 203.709924,76.2778947 C207.555725,52.7494737 211.670229,29.2715789 215.482443,5.74315789 C194.439695,12.2442105 173.41374,20.2947368 151.178626,21.2210526 C153.31145,15.5452632 155.59542,9.92 157.812214,4.26105263 C125.853435,4.16 93.8778626,4.21052632 61.919084,4.24421053 Z" id="Shape"></path>
                <path d="M128.120611,10.8631579 C130.891603,10.9136842 133.662595,10.9305263 136.433588,10.9642105 C136.467176,14.7368421 136.450382,18.5263158 136.467176,22.2989474 C118.699237,22.3494737 100.931298,22.2821053 83.1633588,22.3494737 C83.129771,18.56 83.1129771,14.7705263 83.0793893,10.9978947 C85.8839695,10.9473684 88.6885496,10.9136842 91.4931298,10.88 C91.5099237,12.3789474 91.5435115,15.3768421 91.5603053,16.8757895 C95.540458,16.8589474 99.5206107,16.8421053 103.517557,16.8589474 C103.618321,15.4778947 103.819847,12.7494737 103.903817,11.3684211 C107.615267,11.3684211 111.309924,11.3347368 115.021374,11.2505263 C115.340458,13.12 115.659542,14.9726316 115.978626,16.8252632 C119.975573,16.8421053 123.989313,16.8421053 128.003053,16.8421053 C128.036641,14.8547368 128.087023,12.8673684 128.120611,10.8631579 Z" id="Shape"></path>
                <path d="M26.0137405,30.1810526 C33,30.3326316 42.0183206,29.2547368 46.2167939,36.2778947 C48.8534351,40.8589474 45.5114504,45.3726316 42.5053435,48.6905263 C44.8061069,51.2842105 48.0977099,53.6589474 48.2824427,57.4484211 C49.021374,62.6021053 45.2931298,67.5705263 40.4732824,69.0694737 C35.821374,70.5347368 30.8671756,70.2989474 26.0641221,70.5010526 C25.9969466,57.0610526 26.0473282,43.6210526 26.0137405,30.1810526 Z M32.9496183,34.2905263 C32.7480916,38.9221053 32.7480916,43.5536842 32.9328244,48.1852632 C35.4351145,46.2484211 39.9358779,45.5915789 40.2717557,41.8357895 C41.1954198,37.3557895 35.7206107,36.2778947 32.9496183,34.2905263 Z M32.8992366,51.2673684 C32.7312977,56.2189474 32.7648855,61.1536842 32.9496183,66.1052632 C36.3251908,64.6063158 41.7832061,63.4778947 41.4473282,58.6778947 C41.6320611,53.8273684 36.4091603,52.7494737 32.8992366,51.2673684 Z" id="Shape"></path>
                <path d="M61.2473282,30.9221053 C66.7389313,28.2273684 74.0610687,30.2989474 76.7984733,35.9073684 C81.1312977,44.0926316 81.2152672,54.3326316 77.789313,62.8547368 C75.3374046,69.0694737 67.7465649,72.8589474 61.5328244,69.76 C54.6305344,66.24 52.951145,57.6 52.8671756,50.5263158 C52.9175573,43.4021053 54.4458015,34.6778947 61.2473282,30.9221053 Z M64.2870229,35.3515789 C60.0045802,39.7642105 60.0381679,46.4842105 60.0549618,52.2273684 C60.4244275,57.0778947 60.8274809,63.2589474 65.6977099,65.8021053 C69.6274809,65.9705263 71.340458,61.8105263 72.1129771,58.6273684 C73.5068702,52.3621053 73.389313,45.6589474 71.4412214,39.5115789 C70.6519084,36.48 67.4610687,33.7347368 64.2870229,35.3515789 Z" id="Shape"></path>
                <path d="M86.5221374,30.1136842 C92.4839695,30.5010526 100.444275,29.4063158 104.054962,35.4526316 C107.010687,40.2694737 105.045802,45.9957895 101.737405,50.0210526 C105.835115,56.1178947 107.766412,63.2589474 109.680916,70.2652632 C107.245802,70.2821053 104.827481,70.3157895 102.392366,70.3494737 C100.662595,63.7305263 98.9160305,56.96 94.8015267,51.3515789 C93.4748092,57.5831579 93.5419847,63.9663158 93.6259542,70.2989474 C91.2580153,70.3157895 88.8732824,70.3326316 86.5053435,70.3663158 C86.4717557,56.9431579 86.4549618,43.52 86.5221374,30.1136842 Z M93.8274809,34.1894737 C93.6259542,38.9557895 93.6091603,43.7221053 93.7770992,48.5052632 C95.7083969,46.5515789 99.1007634,45.0863158 98.7648855,41.8357895 C99.2183206,38.3663158 95.8259542,36.4126316 93.8274809,34.1894737 Z" id="Shape"></path>
                <path d="M120.496183,31.5789474 C125.769466,28.3621053 132.067176,30.3157895 137.541985,31.8821053 C137.625954,34.0210526 137.709924,36.16 137.810687,38.2989474 C133.763359,36.5305263 129.312977,33.1115789 124.761832,35.3010526 C120.848855,37.0021053 119.656489,41.5831579 119.135878,45.44 C118.49771,50.9473684 118.531298,57.0105263 121.419847,61.9284211 C123.367939,65.1621053 127.583206,65.28 130.807634,66.3410526 C130.941985,62.2484211 131.00916,58.1389474 131.059542,54.0294737 C129.833588,53.9284211 127.364885,53.7094737 126.138931,53.6084211 C126.222901,52.2947368 126.39084,49.6842105 126.474809,48.3705263 C130.219847,48.4042105 133.964885,48.4210526 137.709924,48.4378947 C137.709924,55.3431579 137.743511,62.2652632 137.592366,69.1873684 C132.151145,70.4168421 126.071756,71.9663158 120.865649,69.0863158 C114.148092,65.7010526 111.948092,57.5157895 112.015267,50.5263158 C111.89771,43.4694737 113.963359,35.3178947 120.496183,31.5789474 Z" id="Shape"></path>
                <path d="M144.830534,30.3157895 C150.993893,30.3157895 157.157252,30.3157895 163.337405,30.2989474 C163.320611,31.5621053 163.303817,34.0884211 163.303817,35.3515789 C159.508397,35.3684211 155.729771,35.3852632 151.951145,35.4021053 C151.984733,39.1747368 151.984733,42.9473684 151.967939,46.7031579 C155.309924,46.7031579 158.668702,46.6863158 162.027481,46.6863158 C162.044275,48.0673684 162.094656,50.8126316 162.128244,52.1936842 C158.735878,52.2105263 155.343511,52.2273684 151.967939,52.2610526 C151.984733,56.5894737 151.984733,60.9178947 151.967939,65.2463158 C155.89771,65.2463158 159.810687,65.2294737 163.740458,65.2294737 C163.757252,66.5094737 163.757252,69.0694737 163.774046,70.3494737 C157.459542,70.3157895 151.145038,70.2989474 144.830534,70.3326316 C144.847328,56.9936842 144.847328,43.6547368 144.830534,30.3157895 Z" id="Shape"></path>
                <path d="M172.120611,30.3157895 C173.564885,30.3157895 176.453435,30.3157895 177.914504,30.3326316 C181.30687,37.6589474 184.380153,45.1368421 188.20916,52.2778947 C188.662595,44.9684211 188.528244,37.6421053 188.494656,30.3326316 C190.593893,30.3326316 192.69313,30.3157895 194.80916,30.2989474 C194.607634,44.0421053 195.279389,57.8189474 194.372519,71.5452632 C192.155725,70.3663158 189.116031,69.9789474 188.141985,67.3178947 C184.632061,60.4968421 181.945038,53.2884211 178.535878,46.4168421 C178.351145,54.3663158 178.435115,62.3326316 178.468702,70.2989474 C176.873282,70.3157895 173.699237,70.3326316 172.120611,70.3494737 C172.137405,56.9936842 172.137405,43.6547368 172.120611,30.3157895 Z" id="Shape"></path>
                <path d="M45.2931298,89.1621053 C51.0198473,89.28 56.7465649,89.2463158 62.4732824,89.2463158 C60.6763359,90.4589474 58.8961832,91.6715789 57.0992366,92.8673684 C57.0824427,107.014737 57.1664122,121.145263 57.048855,135.292632 C58.7954198,136.589474 60.5419847,137.869474 62.2885496,139.2 C56.7129771,139.351579 51.1541985,139.351579 45.5954198,139.604211 C47.5938931,137.178947 50.9358779,135.124211 50.3648855,131.503158 C50.3816794,119.713684 50.5328244,107.907368 50.280916,96.1178947 C50.6503817,92.7494737 47.2412214,91.2505263 45.2931298,89.1621053 Z" id="Shape"></path>
                <path d="M152.18626,88.9094737 C157.577099,88.8252632 162.967939,88.8252632 168.358779,88.8926316 C161.993893,93.2715789 163.891603,101.187368 163.723664,107.789474 C163.891603,117.372632 163.270229,126.989474 164.429008,136.538947 C171.062595,136.690526 177.494656,134.72 181.625954,129.229474 C181.172519,132.530526 180.635115,135.814737 180.114504,139.082105 C170.861069,138.863158 161.624427,138.88 152.370992,139.098947 C154.335878,136.791579 157.577099,134.871579 156.989313,131.385263 C157.056489,119.646316 157.10687,107.907368 156.972519,96.1684211 C157.610687,92.6821053 154.151145,91.0821053 152.18626,88.9094737 Z" id="Shape"></path>
            </g>
            <g id="#da3934ff" transform="translate(3.358779, 3.368421)" fill="#DA3934">
                <path d="M58.5603053,0.875789474 C90.519084,0.842105263 122.494656,0.791578947 154.453435,0.892631579 C152.236641,6.55157895 149.952672,12.1768421 147.819847,17.8526316 C170.054962,16.9263158 191.080916,8.87578947 212.123664,2.37473684 C208.31145,25.9031579 204.196947,49.3810526 200.351145,72.9094737 C197.949618,72.8252632 195.531298,72.7242105 193.129771,72.6231579 C177.763359,72.2357895 162.396947,72.3705263 147.030534,72.5894737 C145.166412,72.6231579 143.30229,72.6568421 141.438168,72.64 C140.077863,72.64 137.374046,72.64 136.030534,72.64 C134.670229,72.64 131.916031,72.64 130.555725,72.64 C129.212214,72.64 126.541985,72.64 125.198473,72.6231579 C123.468702,72.64 121.722137,72.64 119.992366,72.6231579 C118.648855,72.6231579 115.978626,72.6231579 114.635115,72.64 C113.274809,72.64 110.554198,72.64 109.193893,72.64 C107.8,72.64 105.012214,72.64 103.618321,72.64 C102.308397,72.64 99.6885496,72.64 98.378626,72.64 C96.4641221,72.6231579 94.5664122,72.6231579 92.6519084,72.64 C91.3419847,72.64 88.7053435,72.64 87.3954198,72.64 C86.0015267,72.6231579 83.2305344,72.6231579 81.8366412,72.6231579 C80.5938931,72.6231579 78.1251908,72.6231579 76.8992366,72.6231579 C74.8839695,72.6231579 72.8854962,72.6063158 70.8870229,72.6231579 C69.6610687,72.6063158 67.1923664,72.5894737 65.9664122,72.5726316 C50.6167939,72.3705263 35.2671756,72.2357895 19.9343511,72.6231579 C17.5496183,72.7242105 15.1648855,72.8252632 12.7969466,72.9263158 C8.74961832,49.4484211 4.76946565,25.9368421 0.957251908,2.40842105 C21.9832061,8.92631579 42.9755725,16.8757895 65.1770992,17.8863158 C63.0778626,12.1768421 60.7938931,6.53473684 58.5603053,0.875789474 Z M124.761832,7.49473684 C124.728244,9.49894737 124.677863,11.4863158 124.644275,13.4736842 C120.630534,13.4736842 116.616794,13.4736842 112.619847,13.4568421 C112.300763,11.6042105 111.981679,9.75157895 111.662595,7.88210526 C107.951145,7.96631579 104.256489,8 100.545038,8 C100.461069,9.38105263 100.259542,12.1094737 100.158779,13.4905263 C96.1618321,13.4736842 92.1816794,13.4905263 88.2015267,13.5073684 C88.1847328,12.0084211 88.151145,9.01052632 88.1343511,7.51157895 C85.329771,7.54526316 82.5251908,7.57894737 79.7206107,7.62947368 C79.7541985,11.4021053 79.7709924,15.1915789 79.8045802,18.9810526 C97.5725191,18.9136842 115.340458,18.9810526 133.108397,18.9305263 C133.091603,15.1578947 133.108397,11.3684211 133.074809,7.59578947 C130.303817,7.56210526 127.532824,7.54526316 124.761832,7.49473684 Z M22.6549618,26.8126316 C22.6885496,40.2526316 22.6381679,53.6926316 22.7053435,67.1326316 C27.5083969,66.9305263 32.4625954,67.1663158 37.1145038,65.7010526 C41.9343511,64.2021053 45.6625954,59.2336842 44.9236641,54.08 C44.7389313,50.2905263 41.4473282,47.9157895 39.1465649,45.3221053 C42.1526718,42.0042105 45.4946565,37.4905263 42.8580153,32.9094737 C38.659542,25.8863158 29.6412214,26.9642105 22.6549618,26.8126316 Z M57.8885496,27.5536842 C51.0870229,31.3094737 49.5587786,40.0336842 49.5083969,47.1578947 C49.5923664,54.2315789 51.2717557,62.8715789 58.1740458,66.3915789 C64.3877863,69.4905263 71.978626,65.7010526 74.4305344,59.4863158 C77.8564885,50.9642105 77.7725191,40.7242105 73.4396947,32.5389474 C70.7022901,26.9305263 63.3801527,24.8589474 57.8885496,27.5536842 Z M83.1633588,26.7452632 C83.0961832,40.1515789 83.1129771,53.5747368 83.1465649,66.9978947 C85.5145038,66.9642105 87.8992366,66.9473684 90.2671756,66.9305263 C90.1832061,60.5978947 90.1160305,54.2147368 91.4427481,47.9831579 C95.5572519,53.5915789 97.3038168,60.3621053 99.0335878,66.9810526 C101.468702,66.9473684 103.887023,66.9136842 106.322137,66.8968421 C104.407634,59.8905263 102.476336,52.7494737 98.378626,46.6526316 C101.687023,42.6273684 103.651908,36.9010526 100.696183,32.0842105 C97.0854962,26.0378947 89.1251908,27.1326316 83.1633588,26.7452632 Z M117.137405,28.2105263 C110.60458,31.9494737 108.538931,40.1010526 108.656489,47.1578947 C108.589313,54.1473684 110.789313,62.3326316 117.50687,65.7178947 C122.712977,68.5978947 128.792366,67.0484211 134.233588,65.8189474 C134.384733,58.8968421 134.351145,51.9747368 134.351145,45.0694737 C130.606107,45.0526316 126.861069,45.0357895 123.116031,45.0021053 C123.032061,46.3157895 122.864122,48.9263158 122.780153,50.24 C124.006107,50.3410526 126.474809,50.56 127.700763,50.6610526 C127.650382,54.7705263 127.583206,58.88 127.448855,62.9726316 C124.224427,61.9115789 120.00916,61.7936842 118.061069,58.56 C115.172519,53.6421053 115.138931,47.5789474 115.777099,42.0715789 C116.29771,38.2147368 117.490076,33.6336842 121.403053,31.9326316 C125.954198,29.7431579 130.40458,33.1621053 134.451908,34.9305263 C134.351145,32.7915789 134.267176,30.6526316 134.183206,28.5136842 C128.708397,26.9473684 122.410687,24.9936842 117.137405,28.2105263 Z M141.471756,26.9473684 C141.48855,40.2863158 141.48855,53.6252632 141.471756,66.9642105 C147.78626,66.9305263 154.100763,66.9473684 160.415267,66.9810526 C160.398473,65.7010526 160.398473,63.1410526 160.381679,61.8610526 C156.451908,61.8610526 152.538931,61.8778947 148.60916,61.8778947 C148.625954,57.5494737 148.625954,53.2210526 148.60916,48.8926316 C151.984733,48.8589474 155.377099,48.8421053 158.769466,48.8252632 C158.735878,47.4442105 158.685496,44.6989474 158.668702,43.3178947 C155.309924,43.3178947 151.951145,43.3347368 148.60916,43.3347368 C148.625954,39.5789474 148.625954,35.8063158 148.592366,32.0336842 C152.370992,32.0168421 156.149618,32 159.945038,31.9831579 C159.945038,30.72 159.961832,28.1936842 159.978626,26.9305263 C153.798473,26.9473684 147.635115,26.9473684 141.471756,26.9473684 Z M168.761832,26.9473684 C168.778626,40.2863158 168.778626,53.6252632 168.761832,66.9810526 C170.340458,66.9642105 173.514504,66.9473684 175.109924,66.9305263 C175.076336,58.9642105 174.992366,50.9978947 175.177099,43.0484211 C178.58626,49.92 181.273282,57.1284211 184.783206,63.9494737 C185.757252,66.6105263 188.796947,66.9978947 191.01374,68.1768421 C191.920611,54.4505263 191.248855,40.6736842 191.450382,26.9305263 C189.334351,26.9473684 187.235115,26.9642105 185.135878,26.9642105 C185.169466,34.2736842 185.303817,41.6 184.850382,48.9094737 C181.021374,41.7684211 177.948092,34.2905263 174.555725,26.9642105 C173.094656,26.9473684 170.206107,26.9473684 168.761832,26.9473684 Z" id="Shape"></path>
                <path d="M29.5908397,30.9221053 C32.3618321,32.9094737 37.8366412,33.9873684 36.9129771,38.4673684 C36.5770992,42.2231579 32.0763359,42.88 29.5740458,44.8168421 C29.389313,40.1852632 29.389313,35.5536842 29.5908397,30.9221053 Z" id="Shape"></path>
                <path d="M60.9282443,31.9831579 C64.1022901,30.3663158 67.2931298,33.1115789 68.0824427,36.1431579 C70.0305344,42.2905263 70.1480916,48.9936842 68.7541985,55.2589474 C67.9816794,58.4421053 66.2687023,62.6021053 62.3389313,62.4336842 C57.4687023,59.8905263 57.0656489,53.7094737 56.6961832,48.8589474 C56.6793893,43.1157895 56.6458015,36.3957895 60.9282443,31.9831579 Z" id="Shape"></path>
                <path d="M90.4687023,30.8210526 C92.4671756,33.0442105 95.859542,34.9978947 95.4061069,38.4673684 C95.7419847,41.7178947 92.3496183,43.1831579 90.4183206,45.1368421 C90.2503817,40.3536842 90.2671756,35.5873684 90.4687023,30.8210526 Z" id="Shape"></path>
                <path d="M29.540458,47.8989474 C33.0503817,49.3810526 38.2732824,50.4589474 38.0885496,55.3094737 C38.4244275,60.1094737 32.9664122,61.2378947 29.5908397,62.7368421 C29.4061069,57.7852632 29.3725191,52.8505263 29.540458,47.8989474 Z" id="Shape"></path>
            </g>
            <g id="#0090c6ff" transform="translate(21.832061, 74.105263)" fill="#0090C6">
                <path d="M1.4610687,1.88631579 C16.7938931,1.49894737 32.1435115,1.63368421 47.4931298,1.83578947 C47.2412214,44.9178947 47.7618321,88.0168421 47.2244275,131.082105 C20.8412214,93.0357895 6.48244275,47.7136842 1.4610687,1.88631579 Z M23.4610687,15.0568421 C25.4091603,17.1452632 28.8183206,18.6442105 28.448855,22.0126316 C28.7007634,33.8021053 28.5496183,45.6084211 28.5328244,57.3978947 C29.1038168,61.0189474 25.7618321,63.0736842 23.7633588,65.4989474 C29.3221374,65.2463158 34.880916,65.2463158 40.4564885,65.0947368 C38.7099237,63.7642105 36.9633588,62.4842105 35.2167939,61.1873684 C35.3343511,47.04 35.2503817,32.9094737 35.2671756,18.7621053 C37.0641221,17.5663158 38.8442748,16.3536842 40.6412214,15.1410526 C34.9145038,15.1410526 29.1877863,15.1747368 23.4610687,15.0568421 Z" id="Shape"></path>
                <path d="M52.4137405,1.88631579 C54.4122137,1.86947368 56.410687,1.88631579 58.4259542,1.88631579 C58.1572519,50.24 58.6274809,98.6105263 58.1740458,146.964211 C55.7053435,143.208421 51.8763359,139.688421 52.4641221,134.787368 C52.4473282,90.4757895 52.5648855,46.1810526 52.4137405,1.88631579 Z" id="Shape"></path>
                <path d="M63.3633588,1.88631579 C64.7572519,1.88631579 67.5282443,1.88631579 68.9221374,1.90315789 C68.5694656,54.4842105 69.3083969,107.098947 68.5526718,159.663158 C66.5038168,156.665263 63.0442748,153.987368 63.4137405,149.978947 C63.3465649,100.614737 63.4641221,51.2505263 63.3633588,1.88631579 Z" id="Shape"></path>
                <path d="M74.178626,1.90315789 C76.0931298,1.88631579 77.9908397,1.88631579 79.9053435,1.90315789 C79.4687023,58.2568421 80.0900763,114.627368 79.5862595,170.981053 C77.470229,168.134737 73.8259542,165.658947 74.3129771,161.684211 C74.2290076,108.429474 74.480916,55.1578947 74.178626,1.90315789 Z" id="Shape"></path>
                <path d="M85.1450382,1.90315789 C86.5389313,1.90315789 89.3267176,1.90315789 90.7206107,1.90315789 C90.5022901,60.3452632 90.989313,118.787368 90.4687023,177.229474 C89.1923664,177.195789 86.6229008,177.128421 85.3465649,177.094737 C85.0274809,118.703158 85.4137405,60.2947368 85.1450382,1.90315789 Z" id="Shape"></path>
                <path d="M96.1618321,1.90315789 C97.5053435,1.88631579 100.175573,1.88631579 101.519084,1.88631579 C101.703817,55.2084211 101.535878,108.513684 101.619847,161.835789 C102.157252,165.877895 98.5465649,168.437895 96.3969466,171.317895 C95.8259542,114.863158 96.2793893,58.3747368 96.1618321,1.90315789 Z" id="Shape"></path>
                <path d="M106.725191,1.88631579 C108.068702,1.90315789 110.738931,1.90315789 112.082443,1.90315789 C112.132824,47.2926316 112.065649,92.6989474 112.116031,138.105263 C111.914504,145.751579 114.064122,154.778947 106.876336,160.033684 C106.406107,107.334737 106.691603,54.6021053 106.725191,1.88631579 Z" id="Shape"></path>
                <path d="M117.557252,1.90315789 C118.900763,1.90315789 121.60458,1.90315789 122.964885,1.90315789 C123.099237,46.2315789 122.948092,90.56 123.048855,134.888421 C123.670229,139.738947 120.345038,143.494737 117.859542,147.233684 C117.154198,98.8126316 117.758779,50.3410526 117.557252,1.90315789 Z" id="Shape"></path>
                <path d="M128.557252,1.85263158 C143.923664,1.63368421 159.290076,1.49894737 174.656489,1.88631579 C170.709924,33.2631579 163.690076,64.5894737 150.137405,93.2884211 C143.873282,106.458947 137.054962,119.427368 128.674809,131.385263 C128.271756,88.2189474 128.490076,45.0357895 128.557252,1.85263158 Z M130.354198,14.8042105 C132.319084,16.9768421 135.778626,18.5768421 135.140458,22.0631579 C135.274809,33.8021053 135.224427,45.5410526 135.157252,57.28 C135.745038,60.7663158 132.503817,62.6863158 130.538931,64.9936842 C139.792366,64.7747368 149.029008,64.7578947 158.282443,64.9768421 C158.803053,61.7094737 159.340458,58.4252632 159.793893,55.1242105 C155.662595,60.6147368 149.230534,62.5852632 142.596947,62.4336842 C141.438168,52.8842105 142.059542,43.2673684 141.891603,33.6842105 C142.059542,27.0821053 140.161832,19.1663158 146.526718,14.7873684 C141.135878,14.72 135.745038,14.72 130.354198,14.8042105 Z" id="Shape"></path>
            </g>
        </g>
    </g>
</svg>