<?xml version="1.0" encoding="UTF-8"?>
<svg width="256px" height="256px" viewBox="0 0 256 256" version="1.1" xmlns="http://www.w3.org/2000/svg" xmlns:xlink="http://www.w3.org/1999/xlink">
    <!-- Generator: Sketch 50.2 (55047) - http://www.bohemiancoding.com/sketch -->
    <title>logo/breimsbygda</title>
    <desc>Created with Sketch.</desc>
    <defs></defs>
    <g id="logo/breimsbygda" stroke="none" stroke-width="1" fill="none" fill-rule="evenodd">
        <g id="breimsbygda" transform="translate(16.000000, 16.000000)" fill-rule="nonzero">
            <g id="#ffffffff" transform="translate(49.000000, 45.000000)" fill="#FFFFFF">
                <path d="M79.58208,16.7616 C85.20384,10.79168 91.09184,4.96512 97.9936,0.45952 C104.71104,6.40896 110.80384,13.05472 117.78752,18.71744 C117.13216,21.69728 117.18336,25.1584 114.9408,27.49312 C108.42816,34.64064 101.08608,40.96896 94.04096,47.584 C78.13824,63.77344 60.84288,78.5088 45.0016,94.75968 C36.95296,102.368 29.13984,110.23232 20.94784,117.68704 C12.2336,111.05152 6.22272,101.66144 0.73408,92.36352 C2.73088,89.056 5.86432,86.69056 8.5984,84.0384 C21.32672,71.50464 34.5568,59.49312 47.41824,47.10272 C58.32384,37.1904 69.22944,27.2576 79.58208,16.7616 Z M78.56832,24.81024 C83.43232,30.18624 88.35776,35.51104 93.5392,40.5696 C96.12992,38.1632 98.63872,35.67488 100.95296,32.992 C100.12352,32.3776 99.28384,31.7632 98.4544,31.1488 C96.89792,32.46976 95.34144,33.77024 93.77472,35.08096 C89.47392,30.93376 85.62368,26.336 81.28192,22.22976 C80.3808,23.10016 79.47968,23.96032 78.56832,24.81024 Z M64.38592,38.90048 C69.29088,44.17408 74.20608,49.44768 79.33632,54.50624 C80.21696,53.5232 81.0976,52.52992 81.97824,51.54688 C76.94016,46.46784 72.24,41.06112 67.0176,36.1664 C66.13696,37.07776 65.26656,37.98912 64.38592,38.90048 Z M79.11104,42.12608 C79.58208,42.78144 80.51392,44.08192 80.98496,44.73728 C82.92032,43.00672 84.784,41.21472 86.63744,39.40224 C86.07424,38.85952 84.9376,37.76384 84.3744,37.22112 C82.60288,38.83904 80.86208,40.48768 79.11104,42.12608 Z M64.7136,55.95008 C65.47136,56.84096 66.23936,57.73184 67.00736,58.60224 C68.66624,56.93312 70.46848,55.37664 71.8304,53.45152 C71.71776,52.41728 71.15456,51.72096 70.15104,51.36256 C68.10304,52.59136 66.44416,54.3424 64.7136,55.95008 Z M42.98432,59.26784 C47.7664,64.65408 52.79424,69.79456 57.9552,74.80192 C61.17056,71.4432 66.66944,68.1664 65.7888,62.82112 C65.10272,59.14496 60.86336,58.7456 57.84256,58.58176 C56.99264,56.032 55.8048,52.83712 52.65088,52.62208 C48.30912,52.2944 45.84128,56.72832 42.98432,59.26784 Z M43.3632,76.21504 C44.04928,77.09568 44.7456,77.96608 45.43168,78.83648 C47.24416,77.21856 49.0464,75.58016 50.82816,73.91104 C50.09088,73.0816 49.36384,72.24192 48.6368,71.392 C46.86528,72.98944 45.104,74.58688 43.3632,76.21504 Z M21.72608,79.66592 C26.66176,84.82688 31.54624,90.04928 36.56384,95.12832 C39.69728,91.93344 44.57152,89.16864 44.7968,84.21248 C44.51008,79.96288 40.07616,78.7648 36.53312,78.72384 C35.48864,76.6656 34.80256,73.76768 32.17088,73.24544 C27.40928,71.89376 24.59328,76.84992 21.72608,79.66592 Z" id="Shape"></path>
                <path d="M48.2272,59.07328 C49.36384,58.16192 50.50048,57.24032 51.74976,56.48256 C53.26528,57.02528 53.95136,58.52032 54.7808,59.7696 C53.79776,60.6912 52.81472,61.6128 51.83168,62.5344 C50.62336,61.38752 49.42528,60.2304 48.2272,59.07328 Z" id="Shape"></path>
                <path d="M54.32,65.5552 C56.01984,63.99872 58.24192,60.75264 60.8224,62.72896 C63.35168,64.8384 60.50496,67.78752 59.2352,69.73312 C57.57632,68.36096 55.91744,66.99904 54.32,65.5552 Z" id="Shape"></path>
                <path d="M26.98944,79.06176 C28.22848,78.11968 29.46752,77.18784 30.72704,76.27648 C31.50528,77.16736 32.2016,78.14016 32.816,79.16416 C32.8672,80.62848 31.4848,81.66272 30.86016,82.89152 C29.55968,81.62176 28.26944,80.352 26.98944,79.06176 Z" id="Shape"></path>
                <path d="M32.8672,85.22624 C34.352,84.2944 35.6832,83.04512 37.36256,82.46144 C39.17504,82.2976 40.15808,84.22272 41.43808,85.14432 C40.1376,86.65984 38.86784,88.22656 37.33184,89.53728 C35.64224,88.3392 34.2496,86.752 32.8672,85.22624 Z" id="Shape"></path>
            </g>
            <g id="#010101ff" transform="translate(0.408000, 0.168000)" fill="#010101">
                <path d="M121.98912,0.99328 C125.31712,0.31744 128.768,1.13664 132.07552,0.22528 C137.80992,4.57728 145.60256,2.6624 151.7056,6.08256 C152.15616,5.41696 153.05728,4.08576 153.50784,3.42016 C157.24544,6.59456 162.02752,7.80288 166.36928,9.86112 C169.48224,11.3664 171.1104,14.67392 173.96736,16.49664 C174.41792,15.68768 175.31904,14.05952 175.7696,13.25056 C177.37728,18.81088 182.4256,21.94432 186.55232,25.53856 C190.18752,28.09856 192.13312,32.91136 196.9664,33.47456 C197.8368,35.72736 197.31456,38.59456 199.18848,40.3968 C203.02848,44.5952 206.37696,49.2544 208.86528,54.38464 C209.63328,56.17664 211.0464,57.50784 212.3776,58.88 C212.75648,63.72352 213.77024,68.54656 215.9616,72.9088 C218.19392,77.01504 218.7776,81.68448 219.77088,86.17984 C220.34432,86.55872 221.50144,87.33696 222.07488,87.71584 C219.83232,93.93152 221.57312,100.352 221.97248,106.69056 C223.36512,111.6672 221.85984,116.75648 221.99296,121.81504 C221.25568,125.48096 219.22816,128.80896 218.73664,132.56704 C217.89696,139.91936 217.62048,147.49696 214.79424,154.43968 C213.4528,157.40928 211.49696,160.04096 209.93024,162.88768 C210.46272,163.328 211.51744,164.20864 212.03968,164.64896 C206.09024,169.64608 203.25376,177.05984 198.17472,182.79424 C195.98336,185.52832 193.76128,188.24192 191.232,190.6688 C191.15008,191.22176 190.96576,192.32768 190.8736,192.88064 C189.67552,193.3824 188.47744,193.88416 187.26912,194.37568 C185.72288,196.08576 183.62368,196.99712 181.59616,197.9904 C179.21024,199.63904 177.39776,201.97376 175.09376,203.7248 C171.49952,206.8992 166.87104,208.40448 162.92864,211.02592 C160.99328,212.40832 158.6176,212.85888 156.35456,213.43232 C155.99616,213.92384 155.26912,214.90688 154.90048,215.3984 C151.87968,215.9616 149.00224,217.0368 146.44224,218.74688 C142.16192,221.61408 136.96,222.2592 132.12672,223.6928 C127.01696,224.37888 122.624,221.17376 118.05696,219.50464 C115.42528,221.11232 112.71168,223.17056 109.45536,222.94528 C105.89184,223.19104 103.31136,220.45696 100.57728,218.64448 C96.77824,220.8256 92.3648,221.0816 88.10496,221.58336 C78.61248,222.99648 70.53312,214.95808 61.0304,216.7296 C59.0848,215.54176 56.81152,215.296 54.64064,214.784 C54.54848,213.51424 54.49728,212.23424 54.49728,210.96448 C50.46272,209.89952 46.56128,208.1792 43.3664,205.4656 C38.27712,201.5744 34.97984,195.25632 28.38528,193.536 C27.33056,191.60064 28.12928,190.09536 30.07488,189.19424 C26.78784,185.9072 23.43936,182.58944 21.03296,178.57536 C19.33312,175.72864 18.81088,172.24704 16.54784,169.73824 C15.23712,168.05888 13.29152,166.88128 12.35968,164.9152 C12.8,164.4032 13.69088,163.36896 14.1312,162.84672 C11.71456,158.72 10.22976,154.19392 8.97024,149.6064 C7.90528,145.5104 4.90496,142.45888 2.46784,139.1616 C3.59424,138.42432 4.73088,137.69728 5.87776,136.99072 C3.16416,129.2288 3.15392,120.85248 0.62464,113.0496 C0.04096,111.2064 0.2048,109.2608 0.13312,107.37664 C0.57344,107.24352 1.4336,106.97728 1.86368,106.84416 C1.55648,103.3216 1.4336,99.76832 1.792,96.24576 C2.9184,91.51488 4.58752,86.86592 4.83328,81.96096 C5.35552,78.57152 3.79904,75.40736 2.94912,72.21248 C5.04832,72.81664 7.14752,73.43104 9.25696,74.0352 C9.82016,71.87456 10.52672,69.75488 11.34592,67.67616 C13.056,63.63136 14.80704,59.60704 16.61952,55.6032 C16.9472,54.09792 17.29536,52.59264 17.72544,51.11808 C17.92,48.22016 16.72192,45.312 17.68448,42.47552 C19.27168,43.04896 20.85888,43.64288 22.45632,44.22656 C25.52832,36.72064 32.4608,32 36.48512,25.12896 C37.4272,23.62368 37.41696,21.77024 37.81632,20.09088 C38.32832,19.84512 39.34208,19.36384 39.85408,19.11808 C41.13408,20.55168 42.28096,22.15936 43.86816,23.296 C47.84128,19.89632 49.5104,14.98112 51.06688,10.1888 C53.39136,10.5472 54.81472,12.56448 56.50432,13.98784 C59.32032,11.44832 61.97248,8.38656 65.73056,7.24992 C72.01792,4.62848 79.27808,5.9392 85.26848,2.43712 C89.72288,3.36896 93.83936,0.72704 98.32448,1.2288 C102.35904,0.55296 105.63584,3.71712 109.58848,3.4816 C113.94048,4.03456 117.82144,1.6896 121.98912,0.99328 Z M84.92032,7.15776 C82.944,9.1136 82.50368,12.05248 81.55136,14.5408 C84.85888,12.97408 88.0128,11.07968 91.2896,9.44128 C91.7504,9.63584 92.68224,10.0352 93.15328,10.24 C88.48384,12.68736 83.70176,15.14496 80.13824,19.1488 C86.95808,19.88608 93.61408,17.01888 98.7648,12.71808 C101.28384,10.53696 104.20224,8.46848 105.60512,5.34528 C99.16416,1.88416 90.6752,2.65216 84.92032,7.15776 Z M113.48992,5.86752 C115.42528,8.76544 117.53472,11.85792 120.92416,13.17888 C126.09536,15.68768 131.95264,14.37696 137.33888,13.50656 C135.35232,11.45856 132.77184,10.27072 130.10944,9.3696 C130.1504,9.10336 130.23232,8.57088 130.27328,8.2944 C131.91168,8.78592 133.53984,9.2672 135.18848,9.728 C134.8096,7.50592 134.63552,4.61824 131.9424,4.00384 C125.81888,2.304 119.43936,4.32128 113.48992,5.86752 Z M137.6256,5.79584 C138.10688,10.94656 138.79296,17.14176 143.5136,20.24448 C145.3056,21.37088 147.13856,22.87616 149.36064,22.86592 C151.02976,22.46656 154.1632,23.95136 154.61376,21.504 C152.832,19.8144 150.84544,18.36032 148.97152,16.77312 C150.44608,17.12128 151.92064,17.47968 153.38496,17.85856 C152.64768,14.4896 152.00256,11.1104 151.26528,7.75168 C146.76992,6.77888 142.2336,5.888 137.6256,5.79584 Z M58.32704,15.64672 C57.088,19.03616 57.856,22.87616 57.76384,26.42944 C61.9008,23.78752 64.6144,19.48672 68.82304,16.9472 C66.84672,20.96128 63.41632,23.93088 61.04064,27.65824 C64.01024,27.93472 67.03104,27.14624 69.4272,25.35424 C75.27424,21.1456 79.18592,14.6944 81.408,7.92576 C81.11104,7.68 80.52736,7.17824 80.2304,6.93248 C72.43776,7.92576 63.30368,8.6528 58.32704,15.64672 Z M154.39872,9.02144 C153.67168,12.96384 155.04384,16.97792 156.80512,20.45952 C159.6416,25.07776 165.3248,26.4704 169.44128,29.62432 C168.96,30.11584 168.46848,30.60736 167.9872,31.09888 C161.86368,25.68192 152.58624,23.25504 144.83456,26.18368 C149.02272,29.16352 153.5488,31.62112 157.81888,34.47808 C159.52896,34.22208 161.23904,33.95584 162.9184,33.536 C161.90464,32.1024 160.82944,30.70976 159.71328,29.34784 C162.92864,30.54592 166.03136,32.01024 169.22624,33.25952 C169.79968,32.57344 170.38336,31.8976 170.96704,31.232 C171.5712,31.81568 172.77952,33.00352 173.38368,33.59744 C171.73504,29.696 168.79616,26.60352 166.51264,23.10144 C169.28768,24.68864 171.45856,27.05408 173.76256,29.2352 C173.95712,25.82528 175.09376,21.8624 172.68736,18.944 C169.15456,14.71488 164.36224,11.63264 159.20128,9.78944 C157.65504,9.39008 155.99616,8.12032 154.39872,9.02144 Z M44.20608,26.4192 C44.29824,28.5184 44.36992,30.6176 44.41088,32.72704 C44.87168,32.6656 45.80352,32.54272 46.26432,32.49152 C47.50336,30.22848 48.76288,27.96544 50.00192,25.7024 C49.8688,27.78112 49.74592,29.85984 49.63328,31.93856 C52.75648,30.22848 56.19712,27.58656 55.77728,23.57248 C56.32,20.2752 54.90688,17.26464 52.25472,15.3088 C49.89952,19.24096 47.18592,22.9376 44.20608,26.4192 Z M176.29184,26.53184 C176.19968,30.60736 176.66048,35.36896 180.15232,38.0416 C183.26528,40.6528 185.43616,44.11392 187.20768,47.7184 C184.064,44.22656 180.87936,40.76544 177.27488,37.7344 C175.54432,37.07904 173.84448,36.36224 172.07296,35.86048 C167.7824,34.47808 163.29728,35.9424 158.976,36.42368 C163.61472,40.04864 168.09984,43.83744 172.41088,47.85152 C174.57152,50.03264 177.5616,50.86208 180.56192,50.944 C180.11136,49.65376 179.65056,48.36352 179.2,47.08352 C181.98528,49.9712 185.42592,52.06016 189.26592,53.25824 C190.53568,54.10816 191.82592,54.91712 193.14688,55.68512 C191.93856,50.3296 190.52544,44.97408 188.11904,40.00768 C189.60384,41.0112 191.0784,42.01472 192.58368,42.98752 C193.03424,40.56064 194.7136,37.75488 192.7168,35.55328 C188.64128,30.14656 183.3472,25.66144 177.67424,21.99552 C176.20992,23.02976 176.45568,24.96512 176.29184,26.53184 Z M34.46784,32.24576 C31.45728,35.80928 27.89376,38.95296 25.50784,42.99776 C23.87968,45.25056 26.13248,47.64672 26.83904,49.8176 C27.392,49.83808 28.50816,49.87904 29.07136,49.90976 C30.67904,46.32576 32.09216,42.5472 34.79552,39.60832 C34.33472,43.06944 32.6144,46.15168 31.54944,49.43872 C35.30752,46.1312 37.98016,41.87136 40.92928,37.87776 C42.72128,33.44384 42.496,28.19072 39.936,24.09472 C37.92896,26.68544 36.61824,29.75744 34.46784,32.24576 Z M52.8384,33.18784 C46.75584,36.61824 40.98048,40.9088 36.77184,46.5408 C38.98368,45.6192 41.09312,44.48256 43.2128,43.35616 C43.69408,43.74528 44.6464,44.52352 45.11744,44.91264 C47.9232,44.3392 51.08736,44.10368 53.26848,42.0352 C57.4464,38.0928 62.80192,35.77856 67.1744,32.07168 C67.16416,31.51872 67.14368,30.40256 67.13344,29.83936 C62.22848,30.13632 57.1904,30.74048 52.8384,33.18784 Z M72.92928,40.4992 C68.29056,48.4864 60.91776,54.59968 52.49024,58.27584 C56.6784,68.00384 57.06752,78.70464 57.7536,89.10848 C57.99936,95.92832 57.40544,102.77888 55.68512,109.39392 C53.8624,116.04992 52.7872,123.0336 49.46944,129.16736 C48.11776,131.84 46.10048,134.15424 45.08672,136.99072 C46.55104,142.16192 49.93024,146.52416 52.87936,150.9376 C57.6,157.26592 62.62784,163.45088 68.52608,168.72448 C71.0656,166.85056 73.53344,164.89472 75.93984,162.85696 C79.90272,165.61152 83.17952,169.216 87.00928,172.15488 C94.28992,178.8928 102.30784,184.75008 110.71488,190.0032 C122.7776,181.48352 134.144,172.02176 145.152,162.18112 C147.29216,164.73088 149.77024,166.9632 152.54528,168.79616 C159.8976,163.51232 164.88448,155.87328 170.36288,148.8384 C172.8512,145.59232 174.67392,141.90592 176.68096,138.3424 C175.34976,135.14752 173.91616,131.98336 172.51328,128.8192 C167.74144,117.54496 166.48192,105.20576 165.632,93.11232 C166.15424,82.33984 167.40352,71.49568 170.4448,61.12256 C167.55712,58.73664 164.06528,57.16992 161.31072,54.60992 C157.21472,50.59584 154.50112,45.43488 152.76032,40.01792 C146.04288,41.69728 138.97728,42.84416 132.10624,41.30816 C125.40928,39.65952 118.79424,36.89472 113.67424,32.1536 C102.59456,41.34912 86.7328,45.98784 72.92928,40.4992 Z M195.31776,42.68032 C194.6624,46.17216 193.90464,49.74592 194.68288,53.2992 C195.584,62.02368 202.89536,69.31456 201.05216,78.4384 C201.55392,78.08 202.56768,77.35296 203.06944,76.99456 C203.19232,71.20896 203.33568,65.39264 202.43456,59.66848 C202.82368,59.78112 203.58144,60.01664 203.96032,60.12928 C204.21632,61.85984 204.47232,63.5904 204.76928,65.32096 C206.34624,64.02048 207.80032,62.44352 208.29184,60.39552 C206.92992,53.248 202.3936,47.1552 197.40672,42.04544 C196.88448,42.19904 195.84,42.51648 195.31776,42.68032 Z M30.4128,56.94464 C26.56256,62.3104 26.25536,69.41696 21.9648,74.48576 C22.8864,69.65248 24.13568,64.84992 26.04032,60.30336 C26.89024,55.3984 25.48736,49.78688 20.43904,47.83104 C19.53792,56.55552 14.61248,63.95904 11.78624,72.06912 C10.32192,76.19584 14.86848,78.80704 16.96768,81.62304 C16.9984,76.29824 16.7424,70.8608 18.44224,65.73056 C19.56864,69.75488 18.61632,73.94304 18.61632,78.03904 C19.2,77.45536 20.3776,76.29824 20.96128,75.7248 C21.0944,76.67712 21.3504,78.60224 21.47328,79.5648 C25.27232,74.88512 27.63776,69.20192 31.8464,64.83968 C30.7712,67.56352 29.4912,70.1952 28.60032,72.99072 C31.54944,71.84384 34.38592,70.44096 37.21216,69.0176 C39.2704,64.44032 41.13408,59.57632 44.98432,56.15616 C47.94368,53.47328 49.94048,49.9712 51.23072,46.21312 C42.99776,45.94688 35.36896,50.6368 30.4128,56.94464 Z M172.77952,52.40832 C176.30208,56.96512 181.07392,60.88704 182.2208,66.83648 C185.16992,70.10304 188.8256,72.74496 193.32096,73.28768 C192.4096,70.74816 191.31392,68.29056 190.38208,65.76128 C192.67584,68.0448 194.4064,70.79936 195.65568,73.76896 C197.20192,74.7008 198.7584,75.6224 200.33536,76.52352 C199.29088,67.54304 194.51904,58.3168 186.19392,54.13888 C181.90336,52.69504 177.28512,52.5312 172.77952,52.40832 Z M208.57856,64.88064 C204.4416,71.68 204.57472,80.03584 206.12096,87.58272 C207.44192,92.71296 207.44192,98.06848 208.7424,103.19872 C210.54464,97.7408 210.7904,91.96544 211.79392,86.34368 C212.74624,89.57952 212.3776,92.96896 212.50048,96.28672 C214.66112,94.35136 217.83552,92.45696 217.4976,89.09824 C217.55904,80.64 213.15584,73.05216 211.02592,65.04448 C210.20672,64.99328 209.38752,64.93184 208.57856,64.88064 Z M27.66848,76.89216 C21.20704,82.01216 18.5856,90.79808 19.21024,98.78528 C22.016,95.7952 23.94112,92.11904 26.63424,89.0368 C25.6,93.0816 23.48032,96.70656 22.08768,100.61824 C25.74336,98.75456 29.11232,96.37888 32.28672,93.77792 C32.96256,89.56928 32.88064,85.28896 33.40288,81.07008 C34.39616,77.6192 36.92544,74.92608 38.83008,71.95648 C34.49856,71.70048 30.76096,74.14784 27.66848,76.89216 Z M186.17344,74.65984 C189.04064,79.44192 191.10912,84.61312 192.38912,90.04032 C192.93184,94.78144 198.02112,96.33792 201.5744,98.32448 C200.8064,96.68608 199.99744,95.06816 199.13728,93.47072 C199.24992,93.10208 199.4752,92.35456 199.58784,91.98592 C202.99776,96.04096 204.53376,101.13024 206.09024,106.0864 C208.7424,98.57024 205.48608,90.78784 202.8032,83.77344 C199.0144,79.85152 193.90464,77.71136 189.58336,74.47552 C188.73344,74.52672 187.02336,74.61888 186.17344,74.65984 Z M6.77888,77.47584 C6.67648,82.06336 6.68672,86.72256 5.30432,91.15648 C3.584,96.72704 2.53952,103.09632 5.09952,108.56448 C7.71072,110.57152 10.94656,111.53408 13.9776,112.71168 C13.3632,107.96032 11.52,103.39328 11.68384,98.54976 C13.69088,101.69344 14.3872,105.41056 15.8208,108.81024 C17.80736,103.1168 16.97792,96.99328 16.87552,91.09504 C16.65024,85.1456 12.8,78.91968 6.77888,77.47584 Z M211.49696,101.92896 C209.5616,106.00448 209.05984,110.55104 207.70816,114.81088 C208.41472,122.74688 204.30848,129.93536 204.14464,137.73824 C208.14848,132.37248 209.29536,125.39904 213.53472,120.14592 C213.10464,123.51488 211.9168,126.69952 211.06688,129.97632 C214.14912,128.17408 218.22464,126.60736 219.0336,122.70592 C221.57312,113.36704 219.98592,103.64928 218.48064,94.27968 C215.84896,96.50176 212.97152,98.7136 211.49696,101.92896 Z M194.33472,97.72032 C193.1264,104.02816 192.09216,110.78656 194.36544,116.98176 C196.15744,120.33024 198.74816,123.15648 201.10336,126.1056 C201.10336,122.81856 200.61184,119.58272 200.3968,116.31616 C202.42432,120.2688 202.4448,124.7744 203.4688,129.01376 C208.16896,120.17664 206.47936,109.0048 200.91904,100.93568 C199.05536,99.44064 197.2224,97.88416 195.21536,96.57344 C194.99008,96.86016 194.54976,97.4336 194.33472,97.72032 Z M19.74272,109.76256 C17.0496,116.0192 18.23744,123.0336 20.33664,129.28 C21.84192,125.52192 23.17312,121.68192 25.23136,118.17984 C25.57952,122.40896 22.94784,126.3104 23.86944,130.57024 C26.55232,127.01696 29.5936,123.70944 31.98976,119.95136 C32.88064,116.5312 32.37888,112.93696 31.72352,109.52704 C30.90432,105.5232 31.39584,101.41696 31.8464,97.40288 C26.9824,100.51584 21.73952,104.04864 19.74272,109.76256 Z M3.11296,111.44192 C4.00384,115.57888 5.55008,119.58272 5.94944,123.83232 C6.72768,128.06144 6.23616,132.74112 8.62208,136.52992 C11.35616,137.80992 14.29504,138.5472 17.22368,139.22304 C15.33952,134.27712 12.3904,129.83296 10.60864,124.84608 C14.24384,126.94528 15.84128,130.94912 17.32608,134.63552 C17.77664,134.74816 18.67776,134.9632 19.12832,135.07584 C17.4592,128.17408 17.0496,120.33024 12.14464,114.78016 C9.94304,112.08704 6.32832,111.72864 3.11296,111.44192 Z M193.024,121.1904 C192.38912,126.38208 190.54592,131.2768 188.66176,136.11008 C186.7264,141.14816 186.624,146.60608 186.96192,151.92064 C187.2384,155.38176 186.73664,159.01696 188.25216,162.26304 C189.72672,158.23872 190.40256,153.9584 192.08192,150.016 C192.1536,153.40544 191.60064,156.76416 191.17056,160.12288 C196.80256,156.43648 198.912,149.68832 200.30464,143.4624 C202.57792,135.60832 198.94272,127.55968 194.7648,121.0368 C194.32448,121.06752 193.45408,121.14944 193.024,121.1904 Z M33.25952,123.05408 C30.78144,126.49472 27.65824,129.6384 26.35776,133.76512 C25.27232,136.91904 24.63744,140.22656 24.41216,143.55456 C24.40192,149.17632 27.06432,154.2656 29.75744,159.03744 C30.28992,159.42656 31.34464,160.2048 31.87712,160.58368 C30.42304,156.416 29.80864,151.9616 30.78144,147.6096 C31.61088,152.13568 32.1024,156.76416 34.03776,161.00352 C35.74784,156.17024 37.5296,151.35744 39.23968,146.51392 C41.35936,138.0864 35.4816,130.78528 33.25952,123.05408 Z M200.5504,150.21056 C197.96992,157.87008 190.23872,162.2016 187.31008,169.63584 C192.60416,167.17824 196.49536,162.74432 200.57088,158.72 C199.28064,162.10944 197.0176,164.94592 194.99008,167.90528 C197.95968,167.49568 200.89856,166.912 203.8272,166.27712 C208.5376,159.91808 213.62688,153.4464 215.25504,145.50016 C215.82848,140.24704 217.18016,135.05536 216.87296,129.7408 C208.70144,133.86752 203.6224,141.86496 200.5504,150.21056 Z M7.23968,141.25056 C8.97024,144.15872 10.9056,147.05664 11.59168,150.4256 C12.53376,154.24512 12.93312,158.54592 15.72864,161.55648 C18.93376,163.90144 23.20384,163.2256 26.94144,163.62496 C25.07776,162.21184 23.1424,160.89088 21.17632,159.63136 C21.06368,159.0784 20.8384,157.97248 20.72576,157.41952 C23.78752,158.94528 26.61376,160.90112 29.58336,162.60096 C25.99936,156.69248 23.4496,150.13888 19.18976,144.67072 C17.07008,141.74208 13.44512,140.91264 10.20928,139.83744 C9.216,140.30848 8.23296,140.77952 7.23968,141.25056 Z M40.0896,149.71904 C38.62528,154.58304 36.37248,159.72352 38.12352,164.83328 C38.84032,170.25024 42.5984,174.34624 46.30528,178.03264 C46.336,177.75616 46.39744,177.19296 46.4384,176.91648 C44.544,173.55776 42.60864,169.9328 43.44832,165.9392 C44.544,168.51968 45.35296,171.20256 46.08,173.90592 C46.61248,173.88544 47.68768,173.83424 48.22016,173.81376 C48.82432,170.62912 50.8928,167.17824 49.2032,164.00384 C46.86848,159.24224 43.20256,155.16672 41.984,149.88288 C41.51296,149.84192 40.56064,149.76 40.0896,149.71904 Z M177.75616,157.24544 C172.50304,163.25632 169.85088,171.37664 169.73824,179.29216 C173.2096,176.7936 174.72512,172.67712 177.3056,169.4208 C176.4864,172.98432 174.76608,176.2304 173.42464,179.61984 C184.05376,173.84448 187.97568,159.92832 184.50432,148.80768 C181.8624,151.296 179.99872,154.42944 177.75616,157.24544 Z M186.38848,162.59072 C185.86624,164.03456 186.33728,164.54656 187.78112,164.12672 C188.28288,162.68288 187.82208,162.17088 186.38848,162.59072 Z M17.7664,166.98368 C21.79072,173.8752 24.28928,182.15936 31.24224,186.81856 C33.64864,189.1328 36.93568,186.83904 39.55712,186.3168 C37.84704,185.73312 36.12672,185.21088 34.4064,184.69888 C34.41664,184.064 34.43712,182.80448 34.4576,182.17984 C38.89152,182.74304 42.96704,184.58624 47.07328,186.23488 C43.30496,180.67456 38.9632,175.4112 33.73056,171.17184 C29.3376,167.63904 23.40864,164.83328 17.7664,166.98368 Z M51.75296,182.87616 C54.02624,189.55264 60.3648,193.60768 66.12992,197.04832 C68.77184,198.79936 71.94624,199.38304 75.07968,199.372932 C71.19872,195.62496 65.9456,192.90112 64,187.53536 C67.26656,189.76768 70.08256,192.58368 73.3696,194.79552 C73.24672,191.88736 73.49248,188.81536 72.36608,186.07104 C70.93248,183.05024 67.90144,181.38112 65.34144,179.44576 C60.70272,175.8208 56.08448,172.01152 53.07392,166.8608 C51.13856,171.90912 49.77664,177.62304 51.75296,182.87616 Z M163.14368,172.32896 C158.3616,176.34304 151.83872,178.7392 148.98176,184.6784 C147.22048,188.74368 145.37728,192.78848 143.63648,196.87424 C147.90656,195.6352 150.49728,191.77472 154.12224,189.48096 C152.45312,193.47456 148.85888,196.06528 146.31936,199.43424 C148.11136,199.33184 150.03648,199.66976 151.73632,198.93248 C157.81888,195.82976 162.92864,190.86336 166.17472,184.85248 C168.37632,180.0704 168.40704,174.6432 168.28416,169.472 C166.20544,169.51296 164.72064,171.20256 163.14368,172.32896 Z M168.50944,186.32704 C168.4992,186.7776 168.4992,187.66848 168.48896,188.1088 C172.81024,185.91744 177.26464,183.98208 181.8624,182.43584 C180.46976,184.1664 178.91328,185.74336 177.37728,187.3408 C180.35712,188.12928 183.18336,189.68576 186.2656,189.98272 C194.32448,185.11872 200.3456,177.41824 204.31872,168.98048 C190.5152,169.76896 179.4048,178.82112 168.50944,186.32704 Z M46.51008,181.6576 C45.38368,183.08096 47.79008,185.2416 49.17248,184.2176 C50.36032,182.76352 47.9232,180.64384 46.51008,181.6576 Z M77.824,196.6592 C81.60256,202.72128 88.5248,205.27104 94.7712,207.94368 C96.79872,208.30208 98.82624,208.65024 100.85376,209.01888 C100.87424,205.55776 100.85376,202.09664 101.03808,198.63552 C99.04128,196.23936 96.95232,193.8432 94.1568,192.34816 C90.6752,188.37504 85.56544,186.01984 80.24064,186.5728 C79.08352,184.7296 77.81376,182.528 75.27424,182.71232 C73.07264,187.33056 75.45856,192.58368 77.824,196.6592 Z M131.62496,190.09536 C126.81216,192.73728 123.32032,197.0688 119.35744,200.76544 C119.40864,201.68704 119.45984,202.61888 119.51104,203.54048 C122.23488,202.07616 124.928,200.4992 127.88736,199.51616 C125.4912,202.6496 120.95488,203.91936 119.66464,207.88224 C119.56224,209.5104 118.96832,211.92704 120.832,212.80768 C124.17024,214.38464 128,214.08768 131.5328,214.99904 C128.29696,216.13568 124.81536,216.1152 121.48736,216.81152 C123.4944,221.0304 128.89088,220.8256 132.80256,220.13952 C138.53696,218.61376 144.2304,216.70912 149.52448,213.99552 C149.00224,211.89632 147.59936,210.24768 146.37056,208.5376 C141.50656,206.9504 136.25344,206.67392 131.21536,207.48288 C128.23552,208.1792 125.184,208.68096 122.10176,208.45568 C126.35136,205.17888 132.16768,205.1584 136.31488,201.73824 C142.09024,197.33504 144.98816,190.21824 146.4832,183.31648 C141.30176,185.0368 136.42752,187.52512 131.62496,190.09536 Z M32.3072,192.26624 C39.96672,197.09952 45.01504,205.99808 54.28224,208.128 C58.04032,209.07008 61.37856,206.83776 64.23552,204.70784 C61.39904,204.46208 58.55232,203.99104 56.13568,202.40384 C60.47744,201.78944 64.8704,202.01472 69.24288,202.05568 C69.2736,201.68704 69.33504,200.96 69.36576,200.6016 C60.0064,198.10304 52.91008,190.13632 43.01824,189.16352 C39.26016,189.2352 35.67616,190.72 32.3072,192.26624 Z M160.99328,194.816 C156.44672,199.7312 149.83168,201.5744 144.05632,204.53376 C148.14208,204.32896 152.0128,202.9056 156.04736,202.3424 C153.3952,204.01152 150.49728,205.21984 147.7632,206.72512 C151.02976,208.31232 154.56256,210.61632 158.35136,209.42848 C168.62208,206.66368 176.86528,199.38304 184.61696,192.45056 C182.30272,191.20128 179.93728,189.68576 177.18272,189.83936 C171.45856,189.39904 165.00736,190.26944 160.99328,194.816 Z M104.84736,200.192 C102.59456,201.49248 102.99392,204.40064 102.54336,206.592 C103.13728,206.51008 104.33536,206.32576 104.92928,206.24384 C103.94624,210.176 104.06912,214.25152 104.04864,218.27584 C104.9088,218.80832 105.76896,219.3408 106.62912,219.87328 C106.88512,219.40224 107.40736,218.4704 107.6736,217.99936 C108.16512,218.63424 109.14816,219.88352 109.63968,220.50816 C112.27136,219.77088 114.72896,218.56256 117.10464,217.2416 C118.48704,212.11136 117.9136,206.7968 117.1968,201.61536 C113.68448,199.13728 108.72832,197.57056 104.84736,200.192 Z M63.46752,208.97792 C62.22848,209.83808 60.25216,210.55488 60.52864,212.39808 C64.49152,212.79744 68.90496,211.84512 72.31488,214.45632 C78.76608,218.81856 87.62368,221.7472 94.67904,216.96512 C93.00992,215.93088 91.2896,214.96832 89.55904,214.02624 C89.47712,213.66784 89.30304,212.96128 89.22112,212.60288 C92.2624,212.736 95.2832,213.17632 98.32448,213.18656 C100.28032,213.38112 100.67968,211.1488 101.23264,209.78688 C95.744,209.408 90.3168,208.22016 85.13536,206.3872 C77.95712,204.06272 69.90848,205.09696 63.46752,208.97792 Z" id="Shape"></path>
                <path d="M90.33728,199.92576 C93.97248,201.12384 97.3824,203.07968 99.67616,206.22336 C95.91808,205.2608 92.64128,203.04896 90.33728,199.92576 Z" id="Shape"></path>
            </g>
            <g id="#e99036ff" transform="translate(3.480000, 3.240000)" fill="#E99036">
                <path d="M81.84832,4.08576 C87.6032,-0.41984 96.09216,-1.18784 102.53312,2.27328 C101.13024,5.39648 98.21184,7.46496 95.6928,9.64608 C90.54208,13.94688 83.88608,16.81408 77.06624,16.0768 C80.62976,12.07296 85.41184,9.61536 90.08128,7.168 C89.61024,6.9632 88.6784,6.56384 88.2176,6.36928 C84.9408,8.00768 81.78688,9.90208 78.47936,11.4688 C79.43168,8.98048 79.872,6.0416 81.84832,4.08576 Z" id="Shape"></path>
                <path d="M110.41792,2.79552 C116.36736,1.24928 122.74688,-0.768 128.8704,0.93184 C131.56352,1.54624 131.7376,4.43392 132.11648,6.656 C130.46784,6.1952 128.83968,5.71392 127.20128,5.2224 C127.16032,5.49888 127.0784,6.03136 127.03744,6.2976 C129.69984,7.19872 132.28032,8.38656 134.26688,10.43456 C128.88064,11.30496 123.02336,12.61568 117.85216,10.10688 C114.46272,8.78592 112.35328,5.69344 110.41792,2.79552 Z" id="Shape"></path>
                <path d="M134.5536,2.72384 C139.1616,2.816 143.69792,3.70688 148.19328,4.67968 C148.93056,8.0384 149.57568,11.4176 150.31296,14.78656 C148.84864,14.40768 147.37408,14.04928 145.89952,13.70112 C147.77344,15.28832 149.76,16.7424 151.54176,18.432 C151.0912,20.87936 147.95776,19.39456 146.28864,19.79392 C144.06656,19.80416 142.2336,18.29888 140.4416,17.17248 C135.72096,14.06976 135.03488,7.87456 134.5536,2.72384 Z" id="Shape"></path>
                <path d="M55.25504,12.57472 C60.23168,5.5808 69.36576,4.85376 77.1584,3.86048 C77.45536,4.10624 78.03904,4.608 78.336,4.85376 C76.11392,11.6224 72.20224,18.0736 66.3552,22.28224 C63.95904,24.07424 60.93824,24.86272 57.96864,24.58624 C60.34432,20.85888 63.77472,17.88928 65.75104,13.8752 C61.5424,16.41472 58.8288,20.71552 54.69184,23.35744 C54.784,19.80416 54.016,15.96416 55.25504,12.57472 Z" id="Shape"></path>
                <path d="M151.32672,5.94944 C152.92416,5.04832 154.58304,6.31808 156.12928,6.71744 C161.29024,8.56064 166.08256,11.64288 169.61536,15.872 C172.02176,18.7904 170.88512,22.75328 170.69056,26.1632 C168.38656,23.98208 166.21568,21.61664 163.44064,20.02944 C165.72416,23.53152 168.66304,26.624 170.31168,30.52544 C169.70752,29.93152 168.4992,28.74368 167.89504,28.16 C167.31136,28.8256 166.72768,29.50144 166.15424,30.18752 C162.95936,28.93824 159.85664,27.47392 156.64128,26.27584 C157.75744,27.63776 158.83264,29.0304 159.8464,30.464 C158.16704,30.88384 156.45696,31.15008 154.74688,31.40608 C150.4768,28.54912 145.95072,26.09152 141.76256,23.11168 C149.51424,20.18304 158.79168,22.60992 164.9152,28.02688 C165.39648,27.53536 165.888,27.04384 166.36928,26.55232 C162.2528,23.3984 156.5696,22.00576 153.73312,17.38752 C151.97184,13.90592 150.59968,9.89184 151.32672,5.94944 Z" id="Shape"></path>
                <path d="M41.13408,23.3472 C44.11392,19.8656 46.82752,16.16896 49.18272,12.2368 C51.83488,14.19264 53.248,17.2032 52.70528,20.50048 C53.12512,24.51456 49.68448,27.15648 46.56128,28.86656 C46.67392,26.78784 46.7968,24.70912 46.92992,22.6304 C45.69088,24.89344 44.43136,27.15648 43.19232,29.41952 C42.73152,29.47072 41.79968,29.5936 41.33888,29.65504 C41.29792,27.5456 41.22624,25.4464 41.13408,23.3472 Z" id="Shape"></path>
                <path d="M173.21984,23.45984 C173.38368,21.89312 173.13792,19.95776 174.60224,18.92352 C180.2752,22.58944 185.56928,27.07456 189.6448,32.48128 C191.6416,34.68288 189.96224,37.48864 189.51168,39.91552 C188.0064,38.94272 186.53184,37.9392 185.04704,36.93568 C187.45344,41.90208 188.86656,47.2576 190.07488,52.61312 C188.75392,51.84512 187.46368,51.03616 186.19392,50.18624 C182.35392,48.98816 178.91328,46.8992 176.128,44.01152 C176.57856,45.29152 177.03936,46.58176 177.48992,47.872 C174.4896,47.79008 171.49952,46.96064 169.33888,44.77952 C165.02784,40.76544 160.54272,36.97664 155.904,33.35168 C160.22528,32.8704 164.7104,31.40608 169.00096,32.78848 C170.77248,33.29024 172.47232,34.00704 174.20288,34.6624 C177.80736,37.69344 180.992,41.15456 184.13568,44.6464 C182.36416,41.04192 180.19328,37.5808 177.08032,34.9696 C173.58848,32.29696 173.12768,27.53536 173.21984,23.45984 Z" id="Shape"></path>
                <path d="M31.39584,29.17376 C33.54624,26.68544 34.85696,23.61344 36.864,21.02272 C39.424,25.11872 39.64928,30.37184 37.85728,34.80576 C34.90816,38.79936 32.23552,43.0592 28.47744,46.36672 C29.5424,43.07968 31.26272,39.99744 31.72352,36.53632 C29.02016,39.4752 27.60704,43.25376 25.99936,46.83776 C25.43616,46.80704 24.32,46.76608 23.76704,46.7456 C23.06048,44.57472 20.80768,42.17856 22.43584,39.92576 C24.82176,35.88096 28.38528,32.73728 31.39584,29.17376 Z" id="Shape"></path>
                <path d="M49.7664,30.11584 C54.1184,27.66848 59.15648,27.06432 64.06144,26.76736 C64.07168,27.33056 64.09216,28.44672 64.1024,28.99968 C59.72992,32.70656 54.3744,35.0208 50.19648,38.9632 C48.01536,41.03168 44.8512,41.2672 42.04544,41.84064 C41.5744,41.45152 40.62208,40.67328 40.1408,40.28416 C38.02112,41.41056 35.91168,42.5472 33.69984,43.4688 C37.90848,37.8368 43.68384,33.54624 49.7664,30.11584 Z" id="Shape"></path>
                <path d="M69.85728,37.4272 C83.6608,42.91584 99.52256,38.27712 110.60224,29.0816 C115.72224,33.82272 122.33728,36.58752 129.03424,38.23616 C135.90528,39.77216 142.97088,38.62528 149.68832,36.94592 C151.42912,42.36288 154.14272,47.52384 158.23872,51.53792 C160.99328,54.09792 164.48512,55.66464 167.3728,58.05056 C164.33152,68.42368 163.08224,79.26784 162.56,90.04032 C163.40992,102.13376 164.66944,114.47296 169.44128,125.7472 C170.84416,128.91136 172.27776,132.07552 173.60896,135.2704 C171.60192,138.83392 169.7792,142.52032 167.29088,145.7664 C161.81248,152.80128 156.8256,160.44032 149.47328,165.72416 C146.69824,163.8912 144.22016,161.65888 142.08,159.10912 C131.072,168.94976 119.7056,178.41152 107.64288,186.9312 C99.23584,181.67808 91.21792,175.8208 83.93728,169.08288 C80.10752,166.144 76.83072,162.53952 72.86784,159.78496 C70.46144,161.82272 67.9936,163.77856 65.45408,165.65248 C59.55584,160.37888 54.528,154.19392 49.80736,147.8656 C46.85824,143.45216 43.47904,139.08992 42.01472,133.91872 C43.02848,131.08224 45.04576,128.768 46.39744,126.09536 C49.7152,119.9616 50.7904,112.97792 52.61312,106.32192 C54.33344,99.70688 54.92736,92.85632 54.6816,86.03648 C53.99552,75.63264 53.6064,64.93184 49.41824,55.20384 C57.84576,51.52768 65.21856,45.4144 69.85728,37.4272 Z M77.76256,43.3664 C75.13088,43.53024 72.00768,43.19232 70.144,45.48608 C65.59744,50.20672 61.22496,55.11168 56.20736,59.36128 C58.71616,69.05856 60.0576,79.07328 60.16,89.09824 C60.34432,98.43712 57.63072,107.45856 55.27552,116.40832 C62.26944,110.19264 69.16096,103.8848 75.84768,97.35168 C94.68928,79.91296 113.22368,62.16704 131.81952,44.47232 C124.32384,42.53696 117.0944,39.74144 109.99808,36.66944 C100.1984,42.11712 88.75008,43.04896 77.76256,43.3664 Z M125.10208,58.5216 C114.74944,69.0176 103.84384,78.9504 92.93824,88.86272 C80.0768,101.25312 66.84672,113.26464 54.1184,125.7984 C51.38432,128.45056 48.25088,130.816 46.25408,134.12352 C51.74272,143.42144 57.7536,152.81152 66.46784,159.44704 C74.65984,151.99232 82.47296,144.128 90.5216,136.51968 C106.36288,120.2688 123.65824,105.53344 139.56096,89.344 C146.60608,82.72896 153.94816,76.40064 160.4608,69.25312 C162.70336,66.9184 162.65216,63.45728 163.30752,60.47744 C156.32384,54.81472 150.23104,48.16896 143.5136,42.21952 C136.61184,46.72512 130.72384,52.55168 125.10208,58.5216 Z M108.05248,126.52544 C98.33472,136.35584 88.0128,145.57184 78.24384,155.3408 C86.15936,165.3248 96.04096,173.52704 106.5984,180.57216 C118.79424,171.776 131.06176,162.9184 141.62944,152.14592 C144.49664,154.79808 147.17952,157.6448 149.76,160.58368 C156.1088,154.0096 161.04448,146.28864 166.78912,139.22304 C163.7376,130.14016 161.6384,120.71936 160.27648,111.23712 C158.64832,100.42368 159.72352,89.42592 158.208,78.592 C141.4144,94.49472 124.94848,110.73536 108.05248,126.52544 Z" id="Shape"></path>
                <path d="M192.24576,39.60832 C192.768,39.44448 193.81248,39.12704 194.33472,38.97344 C199.3216,44.0832 203.85792,50.176 205.21984,57.32352 C204.72832,59.37152 203.27424,60.94848 201.69728,62.24896 C201.40032,60.5184 201.14432,58.78784 200.88832,57.05728 C200.50944,56.94464 199.75168,56.70912 199.36256,56.59648 C200.26368,62.32064 200.12032,68.13696 199.99744,73.92256 C199.49568,74.28096 198.48192,75.008 197.98016,75.3664 C199.82336,66.24256 192.512,58.95168 191.61088,50.2272 C190.83264,46.67392 191.5904,43.10016 192.24576,39.60832 Z" id="Shape"></path>
                <path d="M27.3408,53.87264 C32.29696,47.5648 39.92576,42.87488 48.15872,43.14112 C46.86848,46.8992 44.87168,50.40128 41.91232,53.08416 C38.06208,56.50432 36.1984,61.36832 34.14016,65.9456 C31.31392,67.36896 28.47744,68.77184 25.52832,69.91872 C26.4192,67.1232 27.6992,64.49152 28.7744,61.76768 C24.56576,66.12992 22.20032,71.81312 18.40128,76.4928 C18.2784,75.53024 18.0224,73.60512 17.88928,72.6528 C17.3056,73.22624 16.128,74.38336 15.54432,74.96704 C15.54432,70.87104 16.49664,66.68288 15.37024,62.65856 C13.6704,67.7888 13.9264,73.22624 13.89568,78.55104 C11.79648,75.73504 7.24992,73.12384 8.71424,68.99712 C11.54048,60.88704 16.46592,53.48352 17.36704,44.75904 C22.41536,46.71488 23.81824,52.3264 22.96832,57.23136 C21.06368,61.77792 19.8144,66.58048 18.8928,71.41376 C23.18336,66.34496 23.49056,59.2384 27.3408,53.87264 Z" id="Shape"></path>
                <path d="M98.48832,46.94016 C101.67296,50.10432 104.68352,53.42208 107.5712,56.85248 C106.96704,57.64096 106.36288,58.43968 105.7792,59.2384 C103.41376,56.73984 101.0688,54.23104 98.7648,51.68128 C97.37216,51.53792 95.97952,51.38432 94.59712,51.23072 C95.88736,49.78688 97.1776,48.36352 98.48832,46.94016 Z" id="Shape"></path>
                <path d="M169.70752,49.33632 C174.21312,49.4592 178.83136,49.62304 183.12192,51.06688 C191.44704,55.2448 196.21888,64.47104 197.26336,73.45152 C195.6864,72.5504 194.12992,71.6288 192.58368,70.69696 C191.3344,67.72736 189.60384,64.9728 187.31008,62.68928 C188.24192,65.21856 189.3376,67.67616 190.24896,70.21568 C185.7536,69.67296 182.09792,67.03104 179.1488,63.76448 C178.00192,57.81504 173.23008,53.89312 169.70752,49.33632 Z" id="Shape"></path>
                <path d="M86.71232,58.7776 C87.84896,57.3952 88.99584,56.02304 90.27584,54.77376 C94.1568,57.1904 96.70656,61.10208 99.72736,64.41984 C99.28704,64.9216 98.38592,65.91488 97.9456,66.41664 C95.46752,63.9488 93.07136,61.41952 90.69568,58.86976 C89.36448,58.84928 88.03328,58.81856 86.71232,58.7776 Z" id="Shape"></path>
                <path d="M205.50656,61.80864 C206.31552,61.85984 207.13472,61.92128 207.95392,61.97248 C210.08384,69.98016 214.48704,77.568 214.4256,86.02624 C214.76352,89.38496 211.58912,91.27936 209.42848,93.21472 C209.3056,89.89696 209.67424,86.50752 208.72192,83.27168 C207.7184,88.89344 207.47264,94.6688 205.6704,100.12672 C204.36992,94.99648 204.36992,89.64096 203.04896,84.51072 C201.50272,76.96384 201.3696,68.608 205.50656,61.80864 Z" id="Shape"></path>
                <path d="M124.08832,66.57024 C124.99968,65.72032 125.9008,64.86016 126.80192,63.98976 C131.14368,68.096 134.99392,72.69376 139.29472,76.84096 C140.86144,75.53024 142.41792,74.22976 143.9744,72.9088 C144.80384,73.5232 145.64352,74.1376 146.47296,74.752 C144.15872,77.43488 141.64992,79.9232 139.0592,82.3296 C133.87776,77.27104 128.95232,71.94624 124.08832,66.57024 Z" id="Shape"></path>
                <path d="M75.49952,73.99424 C72.16128,70.656 76.6976,64.45056 80.88576,66.4064 C85.12512,68.39296 84.67456,73.9328 85.6064,77.81376 C84.97152,78.21312 83.70176,79.02208 83.06688,79.42144 C82.74944,77.99808 82.44224,76.57472 82.13504,75.15136 C79.90272,75.23328 77.02528,76.2368 75.49952,73.99424 Z M78.73536,73.17504 C82.26816,73.25696 80.2304,69.81632 79.95392,67.79904 C78.51008,69.24288 75.60192,71.72096 78.73536,73.17504 Z" id="Shape"></path>
                <path d="M85.73952,70.46144 C87.23456,68.59776 88.79104,66.79552 90.48064,65.10592 C91.72992,68.39296 88.84224,70.67648 85.73952,70.46144 Z" id="Shape"></path>
                <path d="M24.59648,73.82016 C27.68896,71.07584 31.42656,68.62848 35.75808,68.88448 C33.85344,71.85408 31.32416,74.5472 30.33088,77.99808 C29.80864,82.21696 29.89056,86.49728 29.21472,90.70592 C26.04032,93.30688 22.67136,95.68256 19.01568,97.54624 C20.40832,93.63456 22.528,90.0096 23.56224,85.9648 C20.86912,89.04704 18.944,92.7232 16.13824,95.71328 C15.5136,87.72608 18.13504,78.94016 24.59648,73.82016 Z" id="Shape"></path>
                <path d="M183.10144,71.58784 C183.95136,71.54688 185.66144,71.45472 186.51136,71.40352 C190.83264,74.63936 195.9424,76.77952 199.7312,80.70144 C202.41408,87.71584 205.6704,95.49824 203.01824,103.0144 C201.46176,98.05824 199.92576,92.96896 196.51584,88.91392 C196.4032,89.28256 196.17792,90.03008 196.06528,90.39872 C196.92544,91.99616 197.7344,93.61408 198.5024,95.25248 C194.94912,93.26592 189.85984,91.70944 189.31712,86.96832 C188.03712,81.54112 185.96864,76.36992 183.10144,71.58784 Z" id="Shape"></path>
                <path d="M3.70688,74.40384 C9.728,75.84768 13.57824,82.0736 13.80352,88.02304 C13.90592,93.92128 14.73536,100.0448 12.7488,105.73824 C11.3152,102.33856 10.61888,98.62144 8.61184,95.47776 C8.448,100.32128 10.2912,104.88832 10.9056,109.63968 C7.87456,108.46208 4.63872,107.49952 2.02752,105.49248 C-0.53248,100.02432 0.512,93.65504 2.23232,88.08448 C3.61472,83.65056 3.60448,78.99136 3.70688,74.40384 Z" id="Shape"></path>
                <path d="M66.0992,77.8752 C67.23584,76.46208 68.38272,75.04896 69.5296,73.64608 C72.83712,76.88192 75.96032,80.29184 78.98112,83.79392 C78.42816,84.2752 77.33248,85.22752 76.77952,85.7088 C73.64608,82.60608 71.00416,78.11072 66.0992,77.8752 Z" id="Shape"></path>
                <path d="M109.90592,80.66048 C110.78656,79.74912 111.65696,78.83776 112.5376,77.9264 C117.76,82.82112 122.46016,88.22784 127.49824,93.30688 C126.6176,94.28992 125.73696,95.2832 124.85632,96.26624 C119.72608,91.20768 114.81088,85.93408 109.90592,80.66048 Z" id="Shape"></path>
                <path d="M124.63104,83.88608 C126.38208,82.24768 128.12288,80.59904 129.8944,78.98112 C130.4576,79.52384 131.59424,80.61952 132.15744,81.16224 C130.304,82.97472 128.44032,84.76672 126.50496,86.49728 C126.03392,85.84192 125.10208,84.54144 124.63104,83.88608 Z" id="Shape"></path>
                <path d="M208.42496,98.85696 C209.89952,95.6416 212.77696,93.42976 215.40864,91.20768 C216.91392,100.57728 218.50112,110.29504 215.9616,119.63392 C215.15264,123.53536 211.07712,125.10208 207.99488,126.90432 C208.8448,123.62752 210.03264,120.44288 210.46272,117.07392 C206.22336,122.32704 205.07648,129.30048 201.07264,134.66624 C201.23648,126.86336 205.34272,119.67488 204.63616,111.73888 C205.98784,107.47904 206.4896,102.93248 208.42496,98.85696 Z" id="Shape"></path>
                <path d="M110.2336,97.71008 C111.96416,96.1024 113.62304,94.35136 115.67104,93.12256 C116.67456,93.48096 117.23776,94.17728 117.3504,95.21152 C115.98848,97.13664 114.18624,98.69312 112.52736,100.36224 C111.75936,99.49184 110.99136,98.60096 110.2336,97.71008 Z" id="Shape"></path>
                <path d="M88.50432,101.02784 C91.36128,98.48832 93.82912,94.0544 98.17088,94.38208 C101.3248,94.59712 102.51264,97.792 103.36256,100.34176 C106.38336,100.5056 110.62272,100.90496 111.3088,104.58112 C112.18944,109.9264 106.69056,113.2032 103.4752,116.56192 C98.31424,111.55456 93.2864,106.41408 88.50432,101.02784 Z M93.7472,100.83328 C94.94528,101.9904 96.14336,103.14752 97.35168,104.2944 C98.33472,103.3728 99.31776,102.4512 100.3008,101.5296 C99.47136,100.28032 98.78528,98.78528 97.26976,98.24256 C96.02048,99.00032 94.88384,99.92192 93.7472,100.83328 Z M99.84,107.3152 C101.43744,108.75904 103.09632,110.12096 104.7552,111.49312 C106.02496,109.54752 108.87168,106.5984 106.3424,104.48896 C103.76192,102.51264 101.53984,105.75872 99.84,107.3152 Z" id="Shape"></path>
                <path d="M191.26272,94.64832 C191.47776,94.3616 191.91808,93.78816 192.14336,93.50144 C194.1504,94.81216 195.98336,96.36864 197.84704,97.86368 C203.40736,105.9328 205.09696,117.10464 200.3968,125.94176 C199.3728,121.7024 199.35232,117.1968 197.3248,113.24416 C197.53984,116.51072 198.03136,119.74656 198.03136,123.0336 C195.67616,120.08448 193.08544,117.25824 191.29344,113.90976 C189.02016,107.71456 190.0544,100.95616 191.26272,94.64832 Z" id="Shape"></path>
                <path d="M16.67072,106.69056 C18.66752,100.97664 23.9104,97.44384 28.7744,94.33088 C28.32384,98.34496 27.83232,102.4512 28.65152,106.45504 C29.30688,109.86496 29.80864,113.4592 28.91776,116.87936 C26.5216,120.63744 23.48032,123.94496 20.79744,127.49824 C19.87584,123.2384 22.50752,119.33696 22.15936,115.10784 C20.10112,118.60992 18.76992,122.44992 17.26464,126.208 C15.16544,119.9616 13.9776,112.9472 16.67072,106.69056 Z" id="Shape"></path>
                <path d="M134.01088,112.896 C135.85408,111.2064 137.69728,109.5168 139.54048,107.83744 C144.4864,112.87552 149.95456,117.52448 154.12224,123.24864 C153.51808,124.64128 152.40192,125.71648 151.67488,127.03744 C147.5584,122.55232 143.45216,118.04672 139.08992,113.80736 C138.0864,114.41152 137.09312,115.00544 136.09984,115.59936 C135.40352,114.69824 134.7072,113.79712 134.01088,112.896 Z" id="Shape"></path>
                <path d="M0.04096,108.36992 C3.25632,108.65664 6.87104,109.01504 9.07264,111.70816 C13.9776,117.25824 14.3872,125.10208 16.05632,132.00384 C15.60576,131.8912 14.70464,131.67616 14.25408,131.56352 C12.76928,127.87712 11.17184,123.87328 7.53664,121.77408 C9.3184,126.76096 12.26752,131.20512 14.15168,136.15104 C11.22304,135.4752 8.28416,134.73792 5.55008,133.45792 C3.16416,129.66912 3.65568,124.98944 2.87744,120.76032 C2.47808,116.51072 0.93184,112.50688 0.04096,108.36992 Z" id="Shape"></path>
                <path d="M88.8832,117.97504 C90.624,116.34688 92.38528,114.74944 94.1568,113.152 C94.88384,114.00192 95.61088,114.8416 96.34816,115.67104 C94.5664,117.34016 92.76416,118.97856 90.95168,120.59648 C90.2656,119.72608 89.56928,118.85568 88.8832,117.97504 Z" id="Shape"></path>
                <path d="M67.24608,121.42592 C70.11328,118.60992 72.92928,113.65376 77.69088,115.00544 C80.32256,115.52768 81.00864,118.4256 82.05312,120.48384 C85.59616,120.5248 90.03008,121.72288 90.3168,125.97248 C90.09152,130.92864 85.21728,133.69344 82.08384,136.88832 C77.06624,131.80928 72.18176,126.58688 67.24608,121.42592 Z M72.50944,120.82176 C73.78944,122.112 75.07968,123.38176 76.38016,124.65152 C77.0048,123.42272 78.3872,122.38848 78.336,120.92416 C77.7216,119.90016 77.02528,118.92736 76.24704,118.03648 C74.98752,118.94784 73.74848,119.87968 72.50944,120.82176 Z M78.3872,126.98624 C79.7696,128.512 81.16224,130.0992 82.85184,131.29728 C84.38784,129.98656 85.6576,128.41984 86.95808,126.90432 C85.67808,125.98272 84.69504,124.0576 82.88256,124.22144 C81.2032,124.80512 79.872,126.0544 78.3872,126.98624 Z" id="Shape"></path>
                <path d="M189.952,118.1184 C190.38208,118.07744 191.25248,117.99552 191.6928,117.9648 C195.87072,124.48768 199.50592,132.53632 197.23264,140.3904 C195.84,146.61632 193.73056,153.36448 188.09856,157.05088 C188.52864,153.69216 189.0816,150.33344 189.00992,146.944 C187.33056,150.8864 186.65472,155.16672 185.18016,159.19104 C183.66464,155.94496 184.1664,152.30976 183.88992,148.84864 C183.552,143.53408 183.6544,138.07616 185.58976,133.03808 C187.47392,128.2048 189.31712,123.31008 189.952,118.1184 Z" id="Shape"></path>
                <path d="M126.59712,119.76704 C131.54304,124.19072 136.0896,129.06496 140.288,134.18496 C142.32576,135.8848 139.59168,137.50272 138.71104,139.008 C134.2976,134.8608 130.41664,130.2016 126.208,125.85984 C125.17376,126.50496 124.13952,127.15008 123.10528,127.7952 C122.43968,126.91456 121.77408,126.04416 121.10848,125.16352 C122.9312,123.36128 124.76416,121.55904 126.59712,119.76704 Z" id="Shape"></path>
                <path d="M30.18752,119.98208 C32.4096,127.71328 38.28736,135.0144 36.16768,143.44192 C34.4576,148.28544 32.67584,153.09824 30.96576,157.93152 C29.0304,153.69216 28.53888,149.06368 27.70944,144.5376 C26.73664,148.8896 27.35104,153.344 28.80512,157.51168 C28.27264,157.1328 27.21792,156.35456 26.68544,155.96544 C23.99232,151.1936 21.32992,146.10432 21.34016,140.48256 C21.56544,137.15456 22.20032,133.84704 23.28576,130.69312 C24.58624,126.5664 27.70944,123.42272 30.18752,119.98208 Z" id="Shape"></path>
                <path d="M197.4784,147.13856 C200.5504,138.79296 205.62944,130.79552 213.80096,126.6688 C214.10816,131.98336 212.75648,137.17504 212.18304,142.42816 C210.55488,150.3744 205.4656,156.84608 200.7552,163.20512 C197.82656,163.84 194.88768,164.42368 191.91808,164.83328 C193.9456,161.87392 196.20864,159.03744 197.49888,155.648 C193.42336,159.67232 189.53216,164.10624 184.23808,166.56384 C187.16672,159.1296 194.89792,154.79808 197.4784,147.13856 Z" id="Shape"></path>
                <path d="M110.73536,134.2976 C113.70496,129.69984 121.18016,130.8672 123.51488,135.49568 C125.56288,139.89888 125.82912,144.85504 126.8736,149.54496 C125.58336,150.75328 124.28288,151.9616 122.9824,153.15968 C122.5728,150.24128 122.17344,147.32288 121.79456,144.39424 C118.90688,145.5104 115.52768,147.456 112.57856,145.43872 C108.544,143.34976 107.6224,137.59488 110.73536,134.2976 Z M114.08384,136.61184 C112.62976,137.48224 113.39776,139.79648 114.0224,141.0048 C115.712,143.70816 120.75008,141.39392 119.61344,138.36288 C119.23456,136.01792 115.72224,134.656 114.08384,136.61184 Z" id="Shape"></path>
                <path d="M4.16768,138.17856 C5.16096,137.70752 6.144,137.23648 7.13728,136.76544 C10.37312,137.84064 13.99808,138.67008 16.11776,141.59872 C20.3776,147.06688 22.92736,153.62048 26.51136,159.52896 C23.54176,157.82912 20.71552,155.87328 17.65376,154.34752 C17.7664,154.90048 17.99168,156.0064 18.10432,156.55936 C20.0704,157.81888 22.00576,159.13984 23.86944,160.55296 C20.13184,160.1536 15.86176,160.82944 12.65664,158.48448 C9.86112,155.47392 9.46176,151.17312 8.51968,147.3536 C7.8336,143.98464 5.89824,141.08672 4.16768,138.17856 Z" id="Shape"></path>
                <path d="M95.31392,149.41184 C97.26976,147.59936 99.25632,145.82784 101.26336,144.0768 C106.3424,149.21728 111.31904,154.44992 116.25472,159.72352 C115.11808,160.8704 113.98144,162.00704 112.8448,163.15392 C108.78976,158.8224 104.84736,154.37824 100.61824,150.20032 C99.57376,150.72256 98.53952,151.2448 97.49504,151.76704 C96.95232,151.18336 95.85664,150.00576 95.31392,149.41184 Z" id="Shape"></path>
                <path d="M37.0176,146.64704 C37.48864,146.688 38.44096,146.76992 38.912,146.81088 C40.13056,152.09472 43.79648,156.17024 46.1312,160.93184 C47.8208,164.10624 45.75232,167.55712 45.14816,170.74176 C44.61568,170.76224 43.54048,170.81344 43.008,170.83392 C42.28096,168.13056 41.472,165.44768 40.37632,162.8672 C39.53664,166.8608 41.472,170.48576 43.3664,173.84448 C43.32544,174.12096 43.264,174.68416 43.23328,174.96064 C39.5264,171.27424 35.76832,167.17824 35.05152,161.76128 C33.30048,156.65152 35.55328,151.51104 37.0176,146.64704 Z" id="Shape"></path>
                <path d="M174.68416,154.17344 C176.92672,151.35744 178.7904,148.224 181.43232,145.73568 C184.90368,156.85632 180.98176,170.77248 170.35264,176.54784 C171.69408,173.1584 173.4144,169.91232 174.2336,166.3488 C171.65312,169.60512 170.1376,173.7216 166.66624,176.22016 C166.77888,168.30464 169.43104,160.18432 174.68416,154.17344 Z" id="Shape"></path>
                <path d="M14.6944,163.91168 C20.33664,161.76128 26.2656,164.56704 30.65856,168.09984 C35.8912,172.3392 40.23296,177.60256 44.00128,183.16288 C39.89504,181.51424 35.81952,179.67104 31.3856,179.10784 C31.36512,179.73248 31.34464,180.992 31.3344,181.62688 C33.05472,182.13888 34.77504,182.66112 36.48512,183.2448 C33.86368,183.76704 30.57664,186.0608 28.17024,183.74656 C21.21728,179.08736 18.71872,170.8032 14.6944,163.91168 Z" id="Shape"></path>
                <path d="M48.68096,179.80416 C46.70464,174.55104 48.06656,168.83712 50.00192,163.7888 C53.01248,168.93952 57.63072,172.7488 62.26944,176.37376 C64.82944,178.30912 67.86048,179.97824 69.29408,182.99904 C70.42048,185.74336 70.17472,188.81536 70.2976,191.72352 C67.01056,189.51168 64.19456,186.69568 60.928,184.46336 C62.8736,189.82912 68.12672,192.55296 72.00768,196.300932 C68.87424,196.31104 65.69984,195.72736 63.05792,193.97632 C57.2928,190.53568 50.95424,186.48064 48.68096,179.80416 Z" id="Shape"></path>
                <path d="M160.07168,169.25696 C161.64864,168.13056 163.13344,166.44096 165.21216,166.4 C165.33504,171.5712 165.30432,176.9984 163.10272,181.78048 C159.85664,187.79136 154.74688,192.75776 148.66432,195.86048 C146.96448,196.59776 145.03936,196.25984 143.24736,196.36224 C145.78688,192.99328 149.38112,190.40256 151.05024,186.40896 C147.42528,188.70272 144.83456,192.5632 140.56448,193.80224 C142.30528,189.71648 144.14848,185.67168 145.90976,181.6064 C148.76672,175.6672 155.2896,173.27104 160.07168,169.25696 Z" id="Shape"></path>
                <path d="M165.43744,183.25504 C176.3328,175.74912 187.4432,166.69696 201.24672,165.90848 C197.2736,174.34624 191.25248,182.04672 183.1936,186.91072 C180.11136,186.61376 177.28512,185.05728 174.30528,184.2688 C175.84128,182.67136 177.39776,181.0944 178.7904,179.36384 C174.19264,180.91008 169.73824,182.84544 165.41696,185.0368 C165.4272,184.59648 165.4272,183.7056 165.43744,183.25504 Z" id="Shape"></path>
                <path d="M43.43808,178.5856 C44.8512,177.57184 47.28832,179.69152 46.10048,181.1456 C44.71808,182.1696 42.31168,180.00896 43.43808,178.5856 Z" id="Shape"></path>
                <path d="M74.752,193.5872 C72.38656,189.51168 70.00064,184.25856 72.20224,179.64032 C74.74176,179.456 76.01152,181.6576 77.16864,183.5008 C82.49344,182.94784 87.6032,185.30304 91.0848,189.27616 C93.88032,190.7712 95.96928,193.16736 97.96608,195.56352 C97.78176,199.02464 97.80224,202.48576 97.78176,205.94688 C95.75424,205.57824 93.72672,205.23008 91.6992,204.87168 C85.4528,202.19904 78.53056,199.64928 74.752,193.5872 Z M87.26528,196.85376 C89.56928,199.97696 92.84608,202.1888 96.60416,203.15136 C94.3104,200.00768 90.90048,198.05184 87.26528,196.85376 Z" id="Shape"></path>
                <path d="M128.55296,187.02336 C133.35552,184.45312 138.22976,181.9648 143.4112,180.24448 C141.91616,187.14624 139.01824,194.26304 133.24288,198.66624 C129.09568,202.0864 123.27936,202.10688 119.02976,205.38368 C122.112,205.60896 125.16352,205.1072 128.14336,204.41088 C133.18144,203.60192 138.43456,203.8784 143.29856,205.4656 C144.52736,207.17568 145.93024,208.82432 146.45248,210.92352 C141.1584,213.63712 135.46496,215.54176 129.73056,217.06752 C125.81888,217.7536 120.4224,217.9584 118.41536,213.73952 C121.74336,213.0432 125.22496,213.06368 128.4608,211.92704 C124.928,211.01568 121.09824,211.31264 117.76,209.73568 C115.89632,208.85504 116.49024,206.4384 116.59264,204.81024 C117.88288,200.84736 122.4192,199.5776 124.81536,196.44416 C121.856,197.4272 119.16288,199.00416 116.43904,200.46848 C116.38784,199.54688 116.33664,198.61504 116.28544,197.69344 C120.24832,193.9968 123.74016,189.66528 128.55296,187.02336 Z" id="Shape"></path>
                <path d="M29.2352,189.19424 C32.60416,187.648 36.18816,186.1632 39.94624,186.09152 C49.83808,187.06432 56.9344,195.03104 66.29376,197.5296 C66.26304,197.888 66.2016,198.61504 66.17088,198.98368 C61.7984,198.94272 57.40544,198.71744 53.06368,199.33184 C55.48032,200.91904 58.32704,201.39008 61.16352,201.63584 C58.30656,203.76576 54.96832,205.99808 51.21024,205.056 C41.94304,202.92608 36.89472,194.02752 29.2352,189.19424 Z" id="Shape"></path>
                <path d="M157.92128,191.744 C161.93536,187.19744 168.38656,186.32704 174.11072,186.76736 C176.86528,186.61376 179.23072,188.12928 181.54496,189.37856 C173.79328,196.31104 165.55008,203.59168 155.27936,206.35648 C151.49056,207.54432 147.95776,205.24032 144.6912,203.65312 C147.42528,202.14784 150.3232,200.93952 152.97536,199.2704 C148.9408,199.8336 145.07008,201.25696 140.98432,201.46176 C146.75968,198.5024 153.37472,196.6592 157.92128,191.744 Z" id="Shape"></path>
                <path d="M101.77536,197.12 C105.65632,194.49856 110.61248,196.06528 114.1248,198.54336 C114.8416,203.7248 115.41504,209.03936 114.03264,214.1696 C111.65696,215.49056 109.19936,216.69888 106.56768,217.43616 C106.07616,216.81152 105.09312,215.56224 104.6016,214.92736 C104.33536,215.3984 103.81312,216.33024 103.55712,216.80128 C102.69696,216.2688 101.8368,215.73632 100.97664,215.20384 C100.99712,211.17952 100.87424,207.104 101.85728,203.17184 C101.26336,203.25376 100.06528,203.43808 99.47136,203.52 C99.92192,201.32864 99.52256,198.42048 101.77536,197.12 Z M110.82752,203.008 C109.32224,203.02848 109.42464,205.53728 110.91968,205.45536 C112.41472,205.42464 112.31232,202.91584 110.82752,203.008 Z" id="Shape"></path>
                <path d="M60.39552,205.90592 C66.83648,202.02496 74.88512,200.99072 82.06336,203.3152 C87.2448,205.14816 92.672,206.336 98.16064,206.71488 C97.60768,208.0768 97.20832,210.30912 95.25248,210.11456 C92.2112,210.10432 89.1904,209.664 86.14912,209.53088 C86.23104,209.88928 86.40512,210.59584 86.48704,210.95424 C88.2176,211.89632 89.93792,212.85888 91.60704,213.89312 C84.55168,218.6752 75.69408,215.74656 69.24288,211.38432 C65.83296,208.77312 61.41952,209.72544 57.45664,209.32608 C57.18016,207.48288 59.15648,206.76608 60.39552,205.90592 Z" id="Shape"></path>
            </g>
            <g id="#ce2d19ff" transform="translate(57.752000, 39.080000)" fill="#CE2D19">
                <path d="M23.49056,7.5264 C34.47808,7.20896 45.9264,6.27712 55.72608,0.82944 C62.8224,3.90144 70.05184,6.69696 77.54752,8.63232 C58.95168,26.32704 40.41728,44.07296 21.57568,61.51168 C14.88896,68.0448 7.99744,74.35264 1.00352,80.56832 C3.35872,71.61856 6.07232,62.59712 5.888,53.25824 C5.7856,43.23328 4.44416,33.21856 1.93536,23.52128 C6.95296,19.27168 11.32544,14.36672 15.872,9.64608 C17.73568,7.35232 20.85888,7.69024 23.49056,7.5264 Z M44.21632,11.10016 C42.9056,12.52352 41.61536,13.94688 40.32512,15.39072 C41.70752,15.54432 43.10016,15.69792 44.4928,15.84128 C46.7968,18.39104 49.14176,20.89984 51.5072,23.3984 C52.09088,22.59968 52.69504,21.80096 53.2992,21.01248 C50.41152,17.58208 47.40096,14.26432 44.21632,11.10016 Z M32.44032,22.9376 C33.76128,22.97856 35.09248,23.00928 36.42368,23.02976 C38.79936,25.57952 41.19552,28.1088 43.6736,30.57664 C44.11392,30.07488 45.01504,29.0816 45.45536,28.57984 C42.43456,25.26208 39.8848,21.3504 36.00384,18.93376 C34.72384,20.18304 33.57696,21.5552 32.44032,22.9376 Z M21.22752,38.15424 C22.75328,40.3968 25.63072,39.39328 27.86304,39.31136 C28.17024,40.73472 28.47744,42.15808 28.79488,43.58144 C29.42976,43.18208 30.69952,42.37312 31.3344,41.97376 C30.40256,38.0928 30.85312,32.55296 26.61376,30.5664 C22.4256,28.61056 17.88928,34.816 21.22752,38.15424 Z M31.46752,34.62144 C34.57024,34.83648 37.45792,32.55296 36.20864,29.26592 C34.51904,30.95552 32.96256,32.75776 31.46752,34.62144 Z M11.8272,42.0352 C16.73216,42.27072 19.37408,46.76608 22.50752,49.8688 C23.06048,49.38752 24.15616,48.4352 24.70912,47.95392 C21.68832,44.45184 18.56512,41.04192 15.2576,37.80608 C14.11072,39.20896 12.96384,40.62208 11.8272,42.0352 Z" id="Shape"></path>
                <path d="M24.46336,37.33504 C21.32992,35.88096 24.23808,33.40288 25.68192,31.95904 C25.9584,33.97632 27.99616,37.41696 24.46336,37.33504 Z" id="Shape"></path>
                <path d="M53.78048,90.68544 C70.67648,74.89536 87.1424,58.65472 103.936,42.752 C105.45152,53.58592 104.37632,64.58368 106.00448,75.39712 C107.3664,84.87936 109.4656,94.30016 112.51712,103.38304 C106.77248,110.44864 101.8368,118.1696 95.488,124.74368 C92.90752,121.8048 90.22464,118.95808 87.35744,116.30592 C76.78976,127.0784 64.52224,135.936 52.3264,144.73216 C41.76896,137.68704 31.88736,129.4848 23.97184,119.5008 C33.7408,109.73184 44.06272,100.51584 53.78048,90.68544 Z M79.73888,77.056 C80.4352,77.95712 81.13152,78.85824 81.82784,79.75936 C82.82112,79.16544 83.8144,78.57152 84.81792,77.96736 C89.18016,82.20672 93.2864,86.71232 97.40288,91.19744 C98.12992,89.87648 99.24608,88.80128 99.85024,87.40864 C95.68256,81.68448 90.2144,77.03552 85.26848,71.99744 C83.42528,73.6768 81.58208,75.3664 79.73888,77.056 Z M72.32512,83.92704 C70.49216,85.71904 68.6592,87.52128 66.83648,89.32352 C67.50208,90.20416 68.16768,91.07456 68.83328,91.9552 C69.86752,91.31008 70.90176,90.66496 71.936,90.01984 C76.14464,94.3616 80.0256,99.0208 84.43904,103.168 C85.31968,101.66272 88.05376,100.0448 86.016,98.34496 C81.8176,93.22496 77.27104,88.35072 72.32512,83.92704 Z M56.46336,98.4576 C53.3504,101.75488 54.272,107.50976 58.30656,109.59872 C61.25568,111.616 64.63488,109.6704 67.52256,108.55424 C67.90144,111.48288 68.3008,114.40128 68.7104,117.31968 C70.01088,116.1216 71.31136,114.91328 72.6016,113.70496 C71.55712,109.01504 71.29088,104.05888 69.24288,99.65568 C66.90816,95.0272 59.43296,93.85984 56.46336,98.4576 Z M41.04192,113.57184 C41.58464,114.16576 42.68032,115.34336 43.22304,115.92704 C44.26752,115.4048 45.30176,114.88256 46.34624,114.36032 C50.57536,118.53824 54.51776,122.9824 58.5728,127.31392 C59.70944,126.16704 60.84608,125.0304 61.98272,123.88352 C57.04704,118.60992 52.0704,113.37728 46.99136,108.2368 C44.98432,109.98784 42.99776,111.75936 41.04192,113.57184 Z" id="Shape"></path>
                <path d="M59.81184,100.77184 C61.45024,98.816 64.96256,100.17792 65.34144,102.52288 C66.47808,105.55392 61.44,107.86816 59.7504,105.1648 C59.12576,103.95648 58.35776,101.64224 59.81184,100.77184 Z" id="Shape"></path>
                <path d="M129.04448,123.67872 C130.47808,123.25888 130.93888,123.77088 130.43712,125.21472 C128.99328,125.63456 128.52224,125.12256 129.04448,123.67872 Z" id="Shape"></path>
                <path d="M56.55552,167.168 C58.04032,167.07584 58.14272,169.58464 56.64768,169.61536 C55.15264,169.69728 55.05024,167.18848 56.55552,167.168 Z" id="Shape"></path>
            </g>
        </g>
    </g>
</svg>