<?xml version="1.0" encoding="UTF-8"?>
<svg width="256px" height="256px" viewBox="0 0 256 256" version="1.1" xmlns="http://www.w3.org/2000/svg" xmlns:xlink="http://www.w3.org/1999/xlink">
    <!-- Generator: Sketch 50.2 (55047) - http://www.bohemiancoding.com/sketch -->
    <title>logo/bsi</title>
    <desc>Created with Sketch.</desc>
    <defs></defs>
    <g id="logo/bsi" stroke="none" stroke-width="1" fill="none" fill-rule="evenodd">
        <g id="bsi" fill-rule="nonzero">
            <g id="#000000ff" fill="#000000">
                <path d="M81.5162416,9.32939597 C95.1237584,3.90872483 109.702013,1.2714094 124.288859,0.446711409 C124.16,1.52053691 124.658255,2.81771812 123.928054,3.74550336 C120.405906,8.27275168 114.822013,10.8069799 109.186577,11.3567785 C98.0961074,12.885906 87.5983893,16.8633557 77.2467114,20.9181208 C76.4391946,17.7395973 76.8601342,14.406443 78.3806711,11.4942282 C79.0679195,10.3602685 80.3822819,9.87060403 81.5162416,9.32939597 Z" id="Shape"></path>
                <path d="M130.190604,0.429530201 C144.07302,0.944966443 157.86094,3.47060403 171.013154,7.99785235 C172.705503,11.1677852 174.492349,14.5954362 173.641879,18.3151678 C171.425503,17.9973154 169.295034,17.3444295 167.207517,16.554094 C158.969128,13.5559732 150.344161,11.7004027 141.65047,10.609396 C137.226309,10.2743624 133.334765,7.63704698 130.345235,4.51006711 C129.056644,3.43624161 130.096107,1.76966443 130.190604,0.429530201 Z" id="Shape"></path>
                <path d="M126.634094,6.01342282 C129.829799,8.69369128 133.145772,11.2193289 136.350067,13.8910067 C133.26604,16.4338255 130.070336,18.8391946 126.891812,21.2531544 C123.610201,18.9422819 120.208322,16.8204027 116.892349,14.5696644 C120.131007,11.7089933 123.378255,8.84832215 126.634094,6.01342282 Z" id="Shape"></path>
                <path d="M177.413154,17.5162416 C176.047248,15.3084564 176.098792,12.6367785 177.438926,10.4289933 C190.943356,16.7344966 204.069799,24.4144966 214.704966,34.9809396 C216.053691,39.1989262 216.268456,43.7175839 215.349262,48.0472483 C207.78094,40.7795973 200.006443,33.606443 191.020671,28.0826846 C186.321611,24.8354362 180.084832,23.0142282 177.413154,17.5162416 Z" id="Shape"></path>
                <path d="M60.941745,19.6295302 C64.498255,17.421745 68.0977181,15.1710067 72.135302,13.9425503 C73.2091275,15.1452349 73.8791946,16.725906 73.2091275,18.3065772 C71.3020134,23.8990604 66.0531544,27.335302 61.3798658,30.4794631 C52.9524832,36.2265772 45.3154362,43.0904698 38.5804027,50.744698 C37.9275168,50.6845638 36.621745,50.5557047 35.9688591,50.4955705 C35.1183893,47.2912752 35.1441611,43.9495302 34.9551678,40.6679195 C42.7812081,32.6958389 51.4319463,25.5055034 60.941745,19.6295302 Z" id="Shape"></path>
                <path d="M76.757047,26.1154362 C85.8716779,21.5280537 95.6134228,18.1089933 105.638658,16.1932886 C112.339329,15.0163758 118.61906,18.4783893 123.799195,22.3441611 C123.507114,22.7307383 122.931544,23.5038926 122.639463,23.8904698 C111.102282,24.5948993 99.6681879,27.0518121 88.9557047,31.3986577 C84.7205369,33.1167785 80.3736913,30.8230872 76.5938255,29.027651 C74.9530201,28.658255 75.2880537,26.4762416 76.757047,26.1154362 Z" id="Shape"></path>
                <path d="M132.638926,20.1277852 C138.025235,16.6314094 144.743087,14.9562416 151.091544,16.2963758 C158.539597,17.8255034 165.807248,20.153557 172.817181,23.1001342 C174.140134,23.6413423 175.308456,24.4832215 176.476779,25.2907383 C173.538792,29.0791946 168.015034,30.5395973 163.393289,29.938255 C154.17557,26.794094 144.597047,24.6120805 134.855302,24.0536913 C133.446443,24.0107383 131.943087,23.8990604 130.800537,22.9712752 C130.379597,21.6053691 131.659597,20.7806711 132.638926,20.1277852 Z" id="Shape"></path>
                <path d="M172.533691,31.0034899 C179.474899,29.0963758 186.854228,31.4158389 193.022282,34.6716779 C199.843221,38.7522148 205.676242,44.3189262 211.139866,50.0488591 C212.815034,51.4748993 213.18443,54.5245638 211.096913,55.7787919 C207.583356,56.5347651 203.451275,56.1739597 200.796779,53.5108725 C192.644295,45.5731544 183.203221,39.0013423 172.980403,34.0016107 C171.846443,33.4861745 172.585235,31.9484564 172.533691,31.0034899 Z" id="Shape"></path>
                <path d="M46.9991946,47.858255 C53.5452349,41.6730201 60.202953,34.1304698 69.6354362,32.8504698 C72.2899329,32.4467114 75.0561074,32.4810738 77.6332886,33.28 C78.7328859,33.4002685 79.3771812,34.0102013 79.5747651,35.1183893 C78.3892617,36.5014765 76.7484564,37.3261745 75.2193289,38.2367785 C67.4018792,42.7726174 60.2888591,48.4510067 53.8716779,54.7908725 C52.4284564,56.3028188 50.2722148,56.5948993 48.3479195,57.0845638 C45.3927517,57.685906 42.4289933,58.7511409 39.3707383,58.1841611 C40.0665772,53.7342282 44.2502013,51.0711409 46.9991946,47.858255 Z" id="Shape"></path>
                <path d="M149.356242,46.449396 C152.380134,44.7484564 155.129128,41.9307383 158.86604,42.0595973 C160.541208,41.9221477 161.726711,43.3825503 162.293691,44.7828188 C161.159732,49.6536913 158.513826,54.0005369 156.417718,58.4934228 C162.602953,63.4158389 166.992752,70.9841611 166.674899,79.0507383 C166.211007,83.655302 164.742013,88.4316779 161.322953,91.7218792 C156.30604,96.7216107 149.081342,100.243758 141.873826,98.6974497 C139.047517,98.0789262 135.173154,97.0394631 134.889664,93.5602685 C134.941208,90.4504698 135.198926,86.5503356 137.776107,84.4542282 C141.006174,84.0418792 144.279195,84.394094 147.535034,84.2394631 C149.19302,82.2120805 150.868188,79.9613423 151.057181,77.2467114 C150.75651,73.8104698 148.668993,70.6061745 149.313289,67.0754362 C149.837315,64.7903356 151.254765,62.7973154 151.503893,60.4263087 C149.124295,62.307651 148.660403,65.5119463 146.91651,67.8743624 C145.868456,69.7986577 143.677852,70.5202685 141.959732,71.68 C143.660671,73.1661745 144.803221,75.0303356 144.50255,77.3669799 C142.234631,78.4837584 140.078389,77.3497987 138.128322,76.1557047 C136.272752,79.2053691 132.759195,82.005906 133.326174,85.9060403 C133.566711,89.0759732 133.308993,92.6067114 131.221477,95.1667114 C129.125369,96.7387919 125.096376,96.953557 124.168591,93.9554362 C122.407517,90.6566443 122.965906,86.9025503 123.541477,83.3889933 C122.587919,80.6228188 120.938523,78.1401342 119.203221,75.8120805 C117.021208,72.5734228 112.605638,72.3758389 110.191678,69.3777181 C106.764027,66.602953 105.518389,62.3420134 103.997852,58.4075168 C101.016913,58.1240268 97.1683221,58.8112752 95.0979866,56.1052349 C93.8351678,53.7428188 93.027651,51.157047 92.1685906,48.6228188 C91.7218792,47.1710067 91.5242953,44.9546309 93.2853691,44.3103356 C96.7302013,43.2365101 100.570201,43.9495302 103.671409,45.710604 C105.088859,46.3033557 106.471946,47.5318121 108.112752,47.1795973 C118.833826,44.6883221 129.975839,44.5594631 140.885906,45.6504698 C143.686443,46.0628188 146.512752,46.861745 149.356242,46.449396 Z" id="Shape"></path>
                <path d="M219.601611,46.0885906 C220.649664,43.846443 223.183893,45.0319463 225.013691,45.2467114 C233.690201,56.0365101 241.009396,67.9087248 246.33557,80.7001342 C246.730738,84.6861745 245.244564,88.5004027 243.036779,91.7562416 C242.444027,91.7991946 241.241342,91.9022819 240.64,91.9452349 C236.069799,79.0936913 229.97047,66.6888591 221.500134,55.9248322 C219.249396,53.2875168 218.132617,49.3100671 219.601611,46.0885906 Z" id="Shape"></path>
                <path d="M30.3162416,46.8102013 C31.3900671,47.9269799 33.0910067,48.9578523 32.7302013,50.7618792 C32.3092617,57.5226846 29.0877852,63.6993289 25.514094,69.3261745 C21.0985235,76.5680537 18.3924832,84.6260403 15.0163758,92.3575839 C13.0061745,91.3610738 10.8069799,90.2357047 9.83624161,88.0794631 C9.09744966,86.1895302 9.13181208,84.1191946 8.9685906,82.1261745 C12.3103356,73.827651 16.3736913,65.7868456 21.2875168,58.2958389 C23.9677852,54.2238926 26.6995973,50.1175839 30.3162416,46.8102013 Z" id="Shape"></path>
                <path d="M44.2587919,60.6668456 C45.1092617,60.3661745 45.9683221,60.3146309 46.8531544,60.5122148 C48.1331544,61.9897987 46.2689933,63.2354362 45.5559732,64.4638926 C39.3191946,72.4445638 34.4311409,81.4303356 30.72,90.837047 C30.0499329,93.0362416 27.5930201,93.5516779 25.8319463,94.6083221 C23.864698,95.4673826 22.0520805,96.8504698 19.8786577,97.1683221 C18.2120805,96.0944966 19.2257718,94.1358389 19.6295302,92.6668456 C22.5245638,84.067651 26.2013423,75.6660403 31.132349,68.0375839 C34.1132886,63.630604 39.3965101,62.0327517 44.2587919,60.6668456 Z" id="Shape"></path>
                <path d="M99.1441611,60.4177181 C100.570201,59.9194631 102.528859,60.2544966 103.181745,61.7750336 C104.307114,64.3178523 105.715973,66.8348993 106.119732,69.6096644 C105.406711,73.4926174 102.735034,77.2638926 104.178255,81.3444295 C105.681611,84.8751678 109.93396,85.7342282 113.378792,85.6225503 C115.320268,85.7428188 118.155168,84.6002685 119.091544,87.04 C120.019329,89.8061745 122.751141,93.1049664 120.955705,95.9656376 C114.959463,98.8778523 107.537181,100.149262 101.360537,97.0824161 C95.7422819,94.3763758 92.1084564,88.6722148 90.7769128,82.7103356 C89.7632215,78.1744966 88.9814765,73.1404027 91.1892617,68.8107383 C92.9675168,65.3744966 95.5532886,62.0499329 99.1441611,60.4177181 Z" id="Shape"></path>
                <path d="M208.476779,60.3575839 C210.151946,60.1256376 211.955973,59.6359732 213.579597,60.4177181 C220.237315,63.6649664 225.932886,68.9997315 229.248859,75.6660403 C232.350067,81.7653691 235.124832,88.0966443 236.868725,94.7285906 C237.427114,96.2147651 236.65396,97.6751678 236.181477,99.0668456 C232.023624,97.8212081 227.144161,95.957047 225.537718,91.5242953 C222.024161,82.418255 217.436779,73.7073826 211.552215,65.9157047 C210.272215,64.2147651 208.77745,62.5481879 208.476779,60.3575839 Z" id="Shape"></path>
                <path d="M112.004295,74.1197315 C115.131275,72.461745 116.565906,78.535302 113.292886,78.9304698 C110.629799,79.5575839 109.719195,75.064698 112.004295,74.1197315 Z" id="Shape"></path>
                <path d="M5.85879195,91.3954362 C7.78308725,91.6703356 9.96510067,92.0139597 10.8757047,93.9897987 C12.7484564,97.8040268 13.0147651,102.314094 11.9667114,106.411812 C9.41530201,118.730738 10.0252349,131.384698 10.7038926,143.858255 C6.4,141.839463 2.67167785,138.609396 0.549798658,134.296913 C-0.197583893,119.830336 1.80402685,105.286443 5.85879195,91.3954362 Z" id="Shape"></path>
                <path d="M163.436242,91.9452349 C163.98604,91.9881879 165.085638,92.0655034 165.635436,92.1084564 C166.717852,96.0944966 166.795168,100.235168 167.336376,104.315705 C169.827651,132.510067 167.602685,161.022282 162.035973,188.73557 C169.166174,190.86604 174.595436,196.484295 177.688054,203.09906 C177.945772,204.550872 178.255034,206.741477 176.459597,207.299866 C171.983893,209.464698 167.54255,211.998926 164.372617,215.942013 C162.723221,217.694497 161.099597,220.555168 158.264698,219.936644 C155.077584,218.544966 152.259866,215.984966 148.61745,215.924832 C143.609128,216.45745 139.623087,221.551678 134.279732,219.87651 C131.479195,218.02094 130.963758,214.009128 127.896913,212.368322 C123.87651,210.126174 120.191141,207.325638 116.179329,205.100671 C114.693154,204.044027 113.404564,205.916779 112.150336,206.535302 C115.449128,211.646711 120.569128,215.60698 126.496644,217.127517 C129.434631,217.771812 133.051275,220.323221 132.106309,223.742282 C130.13906,225.657987 127.544698,226.98094 126.101477,229.412081 C126.410738,230.674899 127.252617,231.68 127.957047,232.736644 C131.324564,231.121611 133.506577,228.028993 136.229799,225.606443 C139.425503,222.72 143.763758,220.220134 148.222282,221.130738 C156.821477,223.132349 162.13906,231.430872 170.789799,233.441074 C168.324295,230.520268 164.879463,228.338255 163.187114,224.816107 C162.001611,222.694228 164.12349,220.898792 165.652617,219.747651 C169.638658,216.869799 173.581745,213.923221 177.456107,210.899329 C179.921611,208.846174 183.46094,208.227651 186.424698,209.516242 C192.584161,212.033289 198.013423,216.17396 202.52349,221.036242 C204.482148,223.063624 204.636779,225.99302 204.66255,228.647517 C204.258792,229.875973 203.210738,230.700671 202.222819,231.465235 C183.392215,244.866577 160.927785,253.268188 137.844832,254.951946 C128.99651,256.206174 120.053691,255.312752 111.231141,254.29047 C98.7318121,252.615302 86.4902013,249.084564 75.0045638,243.861477 C66.1390604,239.884027 57.9436242,234.592215 50.005906,229.034094 C38.2110067,220.082685 28.1428188,208.906309 20.2136913,196.41557 C18.5728859,193.786846 16.3822819,191.467383 15.4974497,188.434899 C10.8842953,178.873557 6.77798658,169.011544 4.27812081,158.668456 C3.13557047,153.917852 1.76966443,149.132886 2.04456376,144.201879 C2.59436242,143.737987 3.70255034,142.827383 4.25234899,142.36349 C6.47731544,144.244832 8.7366443,146.160537 10.3774497,148.591678 C13.3927517,152.921342 13.6590604,158.384966 15.402953,163.247248 C17.9457718,171.897987 22.1379866,179.895839 26.098255,187.945235 C21.9404027,187.953826 17.9887248,186.59651 14.2346309,184.947114 C15.1280537,187.558658 16.5111409,190.024161 18.3838926,192.060134 C19.2257718,191.192483 20.1363758,189.946846 21.5366443,190.496644 C27.249396,191.639195 31.3986577,196.166443 34.972349,200.444564 C39.7573154,206.466577 45.0405369,212.110604 50.8993289,217.101745 C52.3769128,218.562148 54.7307383,219.945235 54.129396,222.367785 C53.5538255,225.503356 49.8169128,226.061745 47.2311409,226.568591 C49.3787919,228.26953 51.5006711,230.004832 53.7771812,231.54255 C54.0348993,229.334765 53.2789262,226.69745 54.8252349,224.833289 C58.3903356,220.168591 62.5653691,215.924832 67.4362416,212.634631 C69.7986577,211.2 72.6077852,210.20349 75.3911409,210.521342 C79.033557,211.320268 81.0265772,214.75651 83.7154362,216.998658 C85.5452349,218.699597 88.0279195,219.292349 90.3387919,220.039732 C87.2805369,214.928322 83.0024161,210.736107 77.9081879,207.669262 C78.1315436,205.873826 78.3978523,203.975302 79.7379866,202.626577 C82.4697987,199.628456 85.347651,196.449933 89.2134228,194.937987 C92.6238926,193.503356 96.326443,194.680268 99.882953,194.345235 C98.9981208,190.092886 97.6150336,185.969396 96.6271141,181.742819 C92.202953,163.565101 89.7975839,144.906309 89.1704698,126.221745 C88.6292617,116.548725 88.5261745,106.824161 89.3165101,97.1683221 C89.4195973,94.8918121 91.0432215,93.1307383 92.9932886,92.1514094 C95.3986577,95.3041611 97.7696644,98.7833557 101.592483,100.329664 C106.755436,102.4 112.588456,102.614765 118.009128,101.54094 C121.084564,100.991141 123.816376,98.8606711 127.055034,99.2902013 C129.889933,99.4620134 132.802148,98.5428188 135.54255,99.6595973 C140.988993,101.626846 147.088322,103.439463 152.758121,101.214497 C157.474362,99.7197315 160.326443,95.4759732 163.436242,91.9452349 Z M118.232483,117.364832 C117.287517,120.998658 117.631141,124.915973 117.940403,128.635705 C120.027919,134.68349 129.030872,129.391678 131.281611,135.018523 C131.599463,138.617987 131.590872,142.294765 131.195705,145.894228 C130.774765,148.943893 127.355705,150.292617 124.632483,149.62255 C121.703087,149.364832 121.402416,145.516242 118.722148,144.682953 C118.017718,147.328859 118.679195,150.713557 121.617181,151.589799 C125.122148,152.354362 128.781745,151.933423 132.338255,151.924832 C135.989262,151.881879 140.22443,149.287517 140.018255,145.241342 C139.880805,141.607517 140.645369,137.904966 139.829262,134.331275 C136.39302,130.353826 130.431141,129.821208 125.474362,129.778255 C125.551678,125.72349 125.113557,121.557047 126.161611,117.596779 C126.823087,114.959463 130.078926,114.804832 132.295302,114.796242 C135.53396,114.590067 136.040805,119.649933 139.37396,118.936913 C139.691812,114.34094 134.468725,112.279195 130.628725,112.459597 C126.15302,112.167517 120.259866,112.597047 118.232483,117.364832 Z M152.861208,114.478389 C152.577718,120.697987 153.041611,126.926174 152.89557,133.154362 C153.03302,147.406174 151.091544,161.56349 149.081342,175.634899 C150.387114,175.978523 152.354362,177.713826 153.196242,175.763758 C154.124027,173.341208 153.788993,170.592215 154.398926,168.066577 C155.859329,151.933423 155.790604,135.688591 154.914362,119.521074 C154.59651,117.699866 155.249396,115.019597 152.861208,114.478389 Z M102.408591,115.234362 C101.781477,127.544698 103.173154,139.855034 103.980671,152.131007 C105.140403,160.274899 104.82255,168.616376 107.021745,176.622819 C107.751946,176.433826 109.22094,176.047248 109.959732,175.858255 C110.122953,172.164295 109.616107,168.504698 109.203758,164.845101 C106.910067,149.33047 106.042416,133.609664 103.473826,118.129396 C103.216107,117.124295 102.863893,116.162148 102.408591,115.234362 Z M109.891007,181.210201 C108.164295,181.811544 105.09745,181.519463 105.166174,184.079463 C105.011544,188.366174 105.492617,193.030872 108.215839,196.527248 C109.006174,194.13047 109.22953,191.347114 111.841074,190.187383 C112.665772,193.262819 112.605638,197.068456 115.835705,198.752215 C117.820134,196.106309 115.05396,190.943356 119.340671,190.342013 C120.096644,192.781745 120.646443,195.401879 122.613691,197.205906 C123.704698,195.797047 124.323221,194.207785 123.842148,192.42953 C123.051812,188.787114 125.809396,185.136107 124.220134,181.605369 C121.866309,180.591678 119.134497,181.553826 116.849396,180.282416 C114.512752,178.753289 112.236242,180.866577 109.891007,181.210201 Z M130.250738,183.581208 C133.068456,187.352483 138.360268,185.591409 142.354899,186.338792 C143.36,187.747651 144.090201,189.448591 145.533423,190.496644 C146.796242,190.917584 148.076242,190.161611 149.313289,189.955436 C150.103624,191.123758 150.911141,192.292081 151.761611,193.42604 C154.295839,190.342013 155.489933,185.763221 153.771812,182.017718 C151.417987,181.742819 148.832215,182.052081 146.882148,180.445638 C144.725906,178.383893 141.968322,180.668993 139.459866,180.153557 C135.997852,179.474899 132.939597,181.734228 130.250738,183.581208 Z M152.508993,198.073557 C154.398926,203.66604 158.642685,208.50255 164.338255,210.34953 C164.492886,207.720805 162.250738,206.191678 160.755973,204.404832 C158.402148,201.870604 156.177181,198.674899 152.508993,198.073557 Z M99.3503356,218.785503 C94.8402685,220.391946 91.4469799,223.965638 88.1138255,227.247248 C85.1157047,230.666309 81.5763758,234.111141 80.5283221,238.689933 C86.5675168,234.849933 90.1841611,227.805638 97.0051007,225.030872 C101.781477,222.986309 107.459866,224.627114 110.999195,228.26953 C114.993826,232.324295 119.435168,235.906577 123.421208,239.961342 C128.103087,244.815034 135.147383,245.390604 141.160805,247.61557 C140.954631,245.424966 138.892886,244.402685 137.277852,243.311678 C134.68349,241.516242 130.998121,242.20349 128.721611,239.815302 C126.926174,237.873826 125.508725,235.588725 123.481342,233.853423 C121.118926,231.585503 117.863087,230.434362 115.76698,227.865772 C113.962953,225.623624 112.854765,222.840268 110.629799,220.950336 C107.571544,218.390336 103.130201,217.325101 99.3503356,218.785503 Z" id="Shape"></path>
                <path d="M244.007517,99.7798658 C244.694765,96.7216107 246.447248,93.2080537 250.063893,93.2338255 C252.838658,100.140671 253.680537,107.631678 254.625503,114.968054 C254.711409,120.225503 256.360805,125.58604 254.977718,130.783356 C253.465772,135.997852 250.45906,141.057718 245.347651,143.394362 C245.837315,133.326174 246.558926,123.16349 245.064161,113.146846 C244.608859,108.705503 243.251544,104.272752 244.007517,99.7798658 Z" id="Shape"></path>
                <path d="M24.1911409,98.147651 C25.144698,97.1683221 26.5363758,97.1081879 27.7820134,96.8075168 C27.833557,98.2765101 27.8507383,99.7626846 27.4297987,101.188725 C25.0072483,110.483758 23.7272483,120.113826 24.0365101,129.726711 C24.0708725,132.449933 24.3543624,135.39651 22.7822819,137.793289 C20.9868456,140.507919 19.6896644,144.038658 16.2791946,145.086711 C15.4630872,143.823893 14.8102013,142.440805 14.8016107,140.911678 C14.4837584,134.932617 13.6590604,128.953557 14.2174497,122.965906 C14.7242953,118.249664 14.4837584,113.387383 16.0558389,108.851544 C17.5763758,104.53906 20.6861745,100.98255 24.1911409,98.147651 Z" id="Shape"></path>
                <path d="M229.25745,102.013423 C233.295034,102.97557 235.94953,106.437584 238.329128,109.581745 C242.933691,115.870067 241.533423,124.108456 241.78255,131.41047 C241.249933,136.650738 242.306577,143.574765 237.478658,147.096913 C234.738255,144.511141 232.934228,141.006174 231.96349,137.406711 C231.662819,129.99302 232.556242,122.484832 231.216107,115.131275 C230.906846,110.698523 229.480805,106.446174 229.25745,102.013423 Z" id="Shape"></path>
                <path d="M43.7777181,114.847785 C49.1983893,112.416644 55.3063087,113.456107 61.0534228,113.413154 C65.1511409,113.378792 70.2625503,114.658792 71.765906,118.979866 C73.5441611,123.481342 71.5167785,128.094497 69.3691275,132.054765 C73.372349,135.482416 76.5251007,140.928859 74.9100671,146.306577 C73.8963758,150.730738 69.077047,152.594899 65.1081879,153.514094 C60.9073826,154.132617 56.6378523,153.703087 52.4026846,153.831946 C48.9320805,153.703087 45.3412081,154.270067 41.9736913,153.196242 C41.9822819,152.517584 42.0080537,151.17745 42.0166443,150.498792 C43.6746309,149.656913 46.3634899,149.210201 46.3119463,146.830604 C46.406443,137.990872 46.3377181,129.13396 46.3463087,120.294228 C46.4665772,118.146577 44.5938255,116.668993 43.7777181,114.847785 Z M55.0056376,117.347651 C55.0056376,121.763221 55.0228188,126.178792 54.9884564,130.594362 C57.6773154,130.577181 61.7922148,131.307383 62.5567785,127.776644 C62.7285906,124.804295 63.2869799,121.445369 61.6461745,118.773691 C60.2373154,116.591678 57.1790604,117.631141 55.0056376,117.347651 Z M55.0228188,133.996242 C54.9798658,139.451275 55.0228188,144.897718 54.997047,150.352752 C58.012349,150.378523 61.8609396,150.816644 63.7680537,147.895839 C65.6837584,144.433826 65.8555705,139.80349 63.8195973,136.358658 C61.9468456,133.300403 58.0381208,134.090738 55.0228188,133.996242 Z" id="Shape"></path>
                <path d="M185.625772,115.758389 C184.921342,114.426846 186.287248,113.688054 187.45557,113.696644 C192.180403,113.567785 196.913826,113.696644 201.638658,113.679463 C201.913557,114.06604 202.471946,114.856376 202.755436,115.242953 C200.96,117.536644 198.11651,119.581208 198.296913,122.811275 C198.314094,132.183624 198.150872,141.564564 198.408591,150.936913 C200.324295,152.242685 202.454765,153.488322 202.051007,156.168591 C196.853691,156.537987 191.630604,156.263087 186.424698,156.357584 C186.373154,155.653154 186.270067,154.235705 186.218523,153.531275 C187.661745,152.474631 189.792215,151.564027 189.775034,149.467919 C189.921074,140.593826 189.826577,131.711141 189.817987,122.828456 C189.921074,119.821745 187.421208,117.811544 185.625772,115.758389 Z" id="Shape"></path>
                <path d="M19.8786577,146.229262 C20.4542282,144.296376 22.1637584,143.119463 23.8732886,142.268993 C24.4230872,143.334228 25.230604,144.304966 25.4797315,145.507651 C27.0174497,154.544966 29.7578523,163.384698 33.6665772,171.683221 C36.1578523,176.562685 34.6888591,182.722148 31.2955705,186.785503 C29.1736913,185.075973 28.0483221,182.533154 26.8112752,180.179329 C23.5038926,173.676242 20.6518121,166.915436 18.7189262,159.879732 C17.3787919,155.369664 18.4612081,150.576107 19.8786577,146.229262 Z" id="Shape"></path>
                <path d="M231.284832,144.021477 C235.494228,150.739329 237.994094,159.458792 234.910067,167.130201 C232.487517,173.762148 229.506577,180.205101 225.726711,186.17557 C225.14255,186.261477 223.974228,186.424698 223.390067,186.510604 C222.393557,181.699866 219.971007,176.425235 222.359195,171.66604 C225.082416,165.738523 227.324564,159.587651 228.888054,153.256376 C229.69557,150.18094 230.082148,146.985235 231.284832,144.021477 Z" id="Shape"></path>
                <path d="M243.715436,151.787383 C244.969664,147.328859 249.45396,144.476779 253.86094,143.909799 C254.101477,148.213691 252.976107,152.405906 252.039732,156.563758 C249.806174,165.506577 247.091544,174.466577 242.787651,182.644832 C239.600537,185.763221 235.124832,187.532886 230.657718,186.73396 C233.793289,179.835705 237.427114,173.143624 239.712215,165.875973 C241.413154,161.288591 242.366711,156.477852 243.715436,151.787383 Z" id="Shape"></path>
                <path d="M36.5100671,181.510872 C37.987651,179.835705 39.1559732,182.275436 40.0150336,183.349262 C45.581745,192.120268 52.437047,200.075168 60.3489933,206.810201 C62.0069799,208.382282 64.3865772,210.255034 63.5361074,212.857987 C62.2561074,215.538255 58.424698,217.797584 55.7358389,215.74443 C49.4389262,210.933691 43.932349,205.143624 39.0786577,198.906846 C35.7712752,193.950067 33.9414765,187.154899 36.5100671,181.510872 Z" id="Shape"></path>
                <path d="M216.010738,183.314899 C216.483221,182.112215 217.763221,182.034899 218.845638,181.76 C221.405638,187.395436 220.692617,194.628725 216.629262,199.405101 C212.703356,204.052617 208.708725,208.700134 204.026846,212.600268 C201.758926,214.739329 197.798658,214.653423 195.70255,212.325369 C194.13906,210.684564 194.216376,207.798121 196.097718,206.423624 C203.777718,199.705772 210.572886,191.957047 216.010738,183.314899 Z" id="Shape"></path>
                <path d="M225.950067,194.13906 C228.819329,191.046443 232.805369,189.182282 236.971812,188.73557 C237.50443,189.663356 238.037047,190.608322 238.561074,191.544698 C233.312215,199.516779 228.028993,207.540403 221.379866,214.438658 C217.969396,218.106846 214.576107,221.938255 210.220671,224.524027 C207.445906,223.338523 205.177987,221.345503 203.296644,219.01745 C207.282685,214.911141 211.827114,211.371812 215.495302,206.947651 C219.361074,202.987383 222.367785,198.322685 225.950067,194.13906 Z" id="Shape"></path>
            </g>
            <g id="#ffffffff" fill="#FFFFFF">
                <path d="M124.288859,0.446711409 C126.256107,0.506845638 128.223356,0.498255034 130.190604,0.429530201 C130.096107,1.76966443 129.056644,3.43624161 130.345235,4.51006711 C133.334765,7.63704698 137.226309,10.2743624 141.65047,10.609396 C150.344161,11.7004027 158.969128,13.5559732 167.207517,16.554094 C169.295034,17.3444295 171.425503,17.9973154 173.641879,18.3151678 C174.492349,14.5954362 172.705503,11.1677852 171.013154,7.99785235 C173.126443,8.88268456 175.256913,9.72456376 177.438926,10.4289933 C176.098792,12.6367785 176.047248,15.3084564 177.413154,17.5162416 C180.084832,23.0142282 186.321611,24.8354362 191.020671,28.0826846 C200.006443,33.606443 207.78094,40.7795973 215.349262,48.0472483 C216.268456,43.7175839 216.053691,39.1989262 214.704966,34.9809396 C218.751141,37.7642953 221.431409,41.9651007 225.013691,45.2467114 C223.183893,45.0319463 220.649664,43.846443 219.601611,46.0885906 C218.132617,49.3100671 219.249396,53.2875168 221.500134,55.9248322 C229.97047,66.6888591 236.069799,79.0936913 240.64,91.9452349 C241.241342,91.9022819 242.444027,91.7991946 243.036779,91.7562416 C245.244564,88.5004027 246.730738,84.6861745 246.33557,80.7001342 C247.830336,84.8150336 249.058792,89.0330201 250.725369,93.0877852 L250.063893,93.2338255 C246.447248,93.2080537 244.694765,96.7216107 244.007517,99.7798658 C243.251544,104.272752 244.608859,108.705503 245.064161,113.146846 C246.558926,123.16349 245.837315,133.326174 245.347651,143.394362 C250.45906,141.057718 253.465772,135.997852 254.977718,130.783356 L255.347114,129.821208 C255.57906,134.477315 254.281879,139.073289 254.668456,143.763758 L253.86094,143.909799 C249.45396,144.476779 244.969664,147.328859 243.715436,151.787383 C242.366711,156.477852 241.413154,161.288591 239.712215,165.875973 C237.427114,173.143624 233.793289,179.835705 230.657718,186.73396 C235.124832,187.532886 239.600537,185.763221 242.787651,182.644832 C241.584966,185.711678 239.901208,188.546577 238.561074,191.544698 C238.037047,190.608322 237.50443,189.663356 236.971812,188.73557 C232.805369,189.182282 228.819329,191.046443 225.950067,194.13906 C222.367785,198.322685 219.361074,202.987383 215.495302,206.947651 C211.827114,211.371812 207.282685,214.911141 203.296644,219.01745 C205.177987,221.345503 207.445906,223.338523 210.220671,224.524027 L211.002416,224.927785 C208.77745,226.379597 206.689933,228.037584 204.714094,229.798658 L204.66255,228.647517 C204.636779,225.99302 204.482148,223.063624 202.52349,221.036242 C198.013423,216.17396 192.584161,212.033289 186.424698,209.516242 C183.46094,208.227651 179.921611,208.846174 177.456107,210.899329 C173.581745,213.923221 169.638658,216.869799 165.652617,219.747651 C164.12349,220.898792 162.001611,222.694228 163.187114,224.816107 C164.879463,228.338255 168.324295,230.520268 170.789799,233.441074 C162.13906,231.430872 156.821477,223.132349 148.222282,221.130738 C143.763758,220.220134 139.425503,222.72 136.229799,225.606443 C133.506577,228.028993 131.324564,231.121611 127.957047,232.736644 C127.252617,231.68 126.410738,230.674899 126.101477,229.412081 C127.544698,226.98094 130.13906,225.657987 132.106309,223.742282 C133.051275,220.323221 129.434631,217.771812 126.496644,217.127517 C120.569128,215.60698 115.449128,211.646711 112.150336,206.535302 C113.404564,205.916779 114.693154,204.044027 116.179329,205.100671 C120.191141,207.325638 123.87651,210.126174 127.896913,212.368322 C130.963758,214.009128 131.479195,218.02094 134.279732,219.87651 C139.623087,221.551678 143.609128,216.45745 148.61745,215.924832 C152.259866,215.984966 155.077584,218.544966 158.264698,219.936644 C161.099597,220.555168 162.723221,217.694497 164.372617,215.942013 C167.54255,211.998926 171.983893,209.464698 176.459597,207.299866 C178.255034,206.741477 177.945772,204.550872 177.688054,203.09906 C174.595436,196.484295 169.166174,190.86604 162.035973,188.73557 C167.602685,161.022282 169.827651,132.510067 167.336376,104.315705 C166.795168,100.235168 166.717852,96.0944966 165.635436,92.1084564 C165.085638,92.0655034 163.98604,91.9881879 163.436242,91.9452349 C160.326443,95.4759732 157.474362,99.7197315 152.758121,101.214497 C147.088322,103.439463 140.988993,101.626846 135.54255,99.6595973 C132.802148,98.5428188 129.889933,99.4620134 127.055034,99.2902013 C123.816376,98.8606711 121.084564,100.991141 118.009128,101.54094 C112.588456,102.614765 106.755436,102.4 101.592483,100.329664 C97.7696644,98.7833557 95.3986577,95.3041611 92.9932886,92.1514094 C91.0432215,93.1307383 89.4195973,94.8918121 89.3165101,97.1683221 C88.5261745,106.824161 88.6292617,116.548725 89.1704698,126.221745 C89.7975839,144.906309 92.202953,163.565101 96.6271141,181.742819 C97.6150336,185.969396 98.9981208,190.092886 99.882953,194.345235 C96.326443,194.680268 92.6238926,193.503356 89.2134228,194.937987 C85.347651,196.449933 82.4697987,199.628456 79.7379866,202.626577 C78.3978523,203.975302 78.1315436,205.873826 77.9081879,207.669262 C83.0024161,210.736107 87.2805369,214.928322 90.3387919,220.039732 C88.0279195,219.292349 85.5452349,218.699597 83.7154362,216.998658 C81.0265772,214.75651 79.033557,211.320268 75.3911409,210.521342 C72.6077852,210.20349 69.7986577,211.2 67.4362416,212.634631 C62.5653691,215.924832 58.3903356,220.168591 54.8252349,224.833289 C53.2789262,226.69745 54.0348993,229.334765 53.7771812,231.54255 C51.5006711,230.004832 49.3787919,228.26953 47.2311409,226.568591 C49.8169128,226.061745 53.5538255,225.503356 54.129396,222.367785 C54.7307383,219.945235 52.3769128,218.562148 50.8993289,217.101745 C45.0405369,212.110604 39.7573154,206.466577 34.972349,200.444564 C31.3986577,196.166443 27.249396,191.639195 21.5366443,190.496644 C20.1363758,189.946846 19.2257718,191.192483 18.3838926,192.060134 C16.5111409,190.024161 15.1280537,187.558658 14.2346309,184.947114 C17.9887248,186.59651 21.9404027,187.953826 26.098255,187.945235 C22.1379866,179.895839 17.9457718,171.897987 15.402953,163.247248 C13.6590604,158.384966 13.3927517,152.921342 10.3774497,148.591678 C8.7366443,146.160537 6.47731544,144.244832 4.25234899,142.36349 C3.70255034,142.827383 2.59436242,143.737987 2.04456376,144.201879 L1.32295302,144.811812 C1.61503356,141.263893 0.524026846,137.81906 0.549798658,134.296913 C2.67167785,138.609396 6.4,141.839463 10.7038926,143.858255 C10.0252349,131.384698 9.41530201,118.730738 11.9667114,106.411812 C13.0147651,102.314094 12.7484564,97.8040268 10.8757047,93.9897987 C9.96510067,92.0139597 7.78308725,91.6703356 5.85879195,91.3954362 C6.83812081,88.2942282 7.73154362,85.1500671 8.9685906,82.1261745 C9.13181208,84.1191946 9.09744966,86.1895302 9.83624161,88.0794631 C10.8069799,90.2357047 13.0061745,91.3610738 15.0163758,92.3575839 C18.3924832,84.6260403 21.0985235,76.5680537 25.514094,69.3261745 C29.0877852,63.6993289 32.3092617,57.5226846 32.7302013,50.7618792 C33.0910067,48.9578523 31.3900671,47.9269799 30.3162416,46.8102013 L29.9210738,46.4322148 C31.6821477,44.5852349 33.2284564,42.5492617 34.9551678,40.6679195 C35.1441611,43.9495302 35.1183893,47.2912752 35.9688591,50.4955705 C36.621745,50.5557047 37.9275168,50.6845638 38.5804027,50.744698 C45.3154362,43.0904698 52.9524832,36.2265772 61.3798658,30.4794631 C66.0531544,27.335302 71.3020134,23.8990604 73.2091275,18.3065772 C73.8791946,16.725906 73.2091275,15.1452349 72.135302,13.9425503 L71.765906,13.4099329 C74.1626846,12.4821477 76.4821477,11.3653691 78.8445638,10.3774497 L78.3806711,11.4942282 C76.8601342,14.406443 76.4391946,17.7395973 77.2467114,20.9181208 C87.5983893,16.8633557 98.0961074,12.885906 109.186577,11.3567785 C114.822013,10.8069799 120.405906,8.27275168 123.928054,3.74550336 C124.658255,2.81771812 124.16,1.52053691 124.288859,0.446711409 Z M126.634094,6.01342282 C123.378255,8.84832215 120.131007,11.7089933 116.892349,14.5696644 C120.208322,16.8204027 123.610201,18.9422819 126.891812,21.2531544 C130.070336,18.8391946 133.26604,16.4338255 136.350067,13.8910067 C133.145772,11.2193289 129.829799,8.69369128 126.634094,6.01342282 Z M76.757047,26.1154362 C75.2880537,26.4762416 74.9530201,28.658255 76.5938255,29.027651 C80.3736913,30.8230872 84.7205369,33.1167785 88.9557047,31.3986577 C99.6681879,27.0518121 111.102282,24.5948993 122.639463,23.8904698 C122.931544,23.5038926 123.507114,22.7307383 123.799195,22.3441611 C118.61906,18.4783893 112.339329,15.0163758 105.638658,16.1932886 C95.6134228,18.1089933 85.8716779,21.5280537 76.757047,26.1154362 Z M132.638926,20.1277852 C131.659597,20.7806711 130.379597,21.6053691 130.800537,22.9712752 C131.943087,23.8990604 133.446443,24.0107383 134.855302,24.0536913 C144.597047,24.6120805 154.17557,26.794094 163.393289,29.938255 C168.015034,30.5395973 173.538792,29.0791946 176.476779,25.2907383 C175.308456,24.4832215 174.140134,23.6413423 172.817181,23.1001342 C165.807248,20.153557 158.539597,17.8255034 151.091544,16.2963758 C144.743087,14.9562416 138.025235,16.6314094 132.638926,20.1277852 Z M172.533691,31.0034899 C172.585235,31.9484564 171.846443,33.4861745 172.980403,34.0016107 C183.203221,39.0013423 192.644295,45.5731544 200.796779,53.5108725 C203.451275,56.1739597 207.583356,56.5347651 211.096913,55.7787919 C213.18443,54.5245638 212.815034,51.4748993 211.139866,50.0488591 C205.676242,44.3189262 199.843221,38.7522148 193.022282,34.6716779 C186.854228,31.4158389 179.474899,29.0963758 172.533691,31.0034899 Z M46.9991946,47.858255 C44.2502013,51.0711409 40.0665772,53.7342282 39.3707383,58.1841611 C42.4289933,58.7511409 45.3927517,57.685906 48.3479195,57.0845638 C50.2722148,56.5948993 52.4284564,56.3028188 53.8716779,54.7908725 C60.2888591,48.4510067 67.4018792,42.7726174 75.2193289,38.2367785 C76.7484564,37.3261745 78.3892617,36.5014765 79.5747651,35.1183893 C79.3771812,34.0102013 78.7328859,33.4002685 77.6332886,33.28 C75.0561074,32.4810738 72.2899329,32.4467114 69.6354362,32.8504698 C60.202953,34.1304698 53.5452349,41.6730201 46.9991946,47.858255 Z M149.356242,46.449396 C146.512752,46.861745 143.686443,46.0628188 140.885906,45.6504698 C129.975839,44.5594631 118.833826,44.6883221 108.112752,47.1795973 C106.471946,47.5318121 105.088859,46.3033557 103.671409,45.710604 C100.570201,43.9495302 96.7302013,43.2365101 93.2853691,44.3103356 C91.5242953,44.9546309 91.7218792,47.1710067 92.1685906,48.6228188 C93.027651,51.157047 93.8351678,53.7428188 95.0979866,56.1052349 C97.1683221,58.8112752 101.016913,58.1240268 103.997852,58.4075168 C105.518389,62.3420134 106.764027,66.602953 110.191678,69.3777181 C112.605638,72.3758389 117.021208,72.5734228 119.203221,75.8120805 C120.938523,78.1401342 122.587919,80.6228188 123.541477,83.3889933 C122.965906,86.9025503 122.407517,90.6566443 124.168591,93.9554362 C125.096376,96.953557 129.125369,96.7387919 131.221477,95.1667114 C133.308993,92.6067114 133.566711,89.0759732 133.326174,85.9060403 C132.759195,82.005906 136.272752,79.2053691 138.128322,76.1557047 C140.078389,77.3497987 142.234631,78.4837584 144.50255,77.3669799 C144.803221,75.0303356 143.660671,73.1661745 141.959732,71.68 C143.677852,70.5202685 145.868456,69.7986577 146.91651,67.8743624 C148.660403,65.5119463 149.124295,62.307651 151.503893,60.4263087 C151.254765,62.7973154 149.837315,64.7903356 149.313289,67.0754362 C148.668993,70.6061745 150.75651,73.8104698 151.057181,77.2467114 C150.868188,79.9613423 149.19302,82.2120805 147.535034,84.2394631 C144.279195,84.394094 141.006174,84.0418792 137.776107,84.4542282 C135.198926,86.5503356 134.941208,90.4504698 134.889664,93.5602685 C135.173154,97.0394631 139.047517,98.0789262 141.873826,98.6974497 C149.081342,100.243758 156.30604,96.7216107 161.322953,91.7218792 C164.742013,88.4316779 166.211007,83.655302 166.674899,79.0507383 C166.992752,70.9841611 162.602953,63.4158389 156.417718,58.4934228 C158.513826,54.0005369 161.159732,49.6536913 162.293691,44.7828188 C161.726711,43.3825503 160.541208,41.9221477 158.86604,42.0595973 C155.129128,41.9307383 152.380134,44.7484564 149.356242,46.449396 Z M44.2587919,60.6668456 C39.3965101,62.0327517 34.1132886,63.630604 31.132349,68.0375839 C26.2013423,75.6660403 22.5245638,84.067651 19.6295302,92.6668456 C19.2257718,94.1358389 18.2120805,96.0944966 19.8786577,97.1683221 C22.0520805,96.8504698 23.864698,95.4673826 25.8319463,94.6083221 C27.5930201,93.5516779 30.0499329,93.0362416 30.72,90.837047 C34.4311409,81.4303356 39.3191946,72.4445638 45.5559732,64.4638926 C46.2689933,63.2354362 48.1331544,61.9897987 46.8531544,60.5122148 C45.9683221,60.3146309 45.1092617,60.3661745 44.2587919,60.6668456 Z M99.1441611,60.4177181 C95.5532886,62.0499329 92.9675168,65.3744966 91.1892617,68.8107383 C88.9814765,73.1404027 89.7632215,78.1744966 90.7769128,82.7103356 C92.1084564,88.6722148 95.7422819,94.3763758 101.360537,97.0824161 C107.537181,100.149262 114.959463,98.8778523 120.955705,95.9656376 C122.751141,93.1049664 120.019329,89.8061745 119.091544,87.04 C118.155168,84.6002685 115.320268,85.7428188 113.378792,85.6225503 C109.93396,85.7342282 105.681611,84.8751678 104.178255,81.3444295 C102.735034,77.2638926 105.406711,73.4926174 106.119732,69.6096644 C105.715973,66.8348993 104.307114,64.3178523 103.181745,61.7750336 C102.528859,60.2544966 100.570201,59.9194631 99.1441611,60.4177181 Z M208.476779,60.3575839 C208.77745,62.5481879 210.272215,64.2147651 211.552215,65.9157047 C217.436779,73.7073826 222.024161,82.418255 225.537718,91.5242953 C227.144161,95.957047 232.023624,97.8212081 236.181477,99.0668456 C236.65396,97.6751678 237.427114,96.2147651 236.868725,94.7285906 C235.124832,88.0966443 232.350067,81.7653691 229.248859,75.6660403 C225.932886,68.9997315 220.237315,63.6649664 213.579597,60.4177181 C211.955973,59.6359732 210.151946,60.1256376 208.476779,60.3575839 Z M112.004295,74.1197315 C109.719195,75.064698 110.629799,79.5575839 113.292886,78.9304698 C116.565906,78.535302 115.131275,72.461745 112.004295,74.1197315 Z M24.1911409,98.147651 C20.6861745,100.98255 17.5763758,104.53906 16.0558389,108.851544 C14.4837584,113.387383 14.7242953,118.249664 14.2174497,122.965906 C13.6590604,128.953557 14.4837584,134.932617 14.8016107,140.911678 C14.8102013,142.440805 15.4630872,143.823893 16.2791946,145.086711 C19.6896644,144.038658 20.9868456,140.507919 22.7822819,137.793289 C24.3543624,135.39651 24.0708725,132.449933 24.0365101,129.726711 C23.7272483,120.113826 25.0072483,110.483758 27.4297987,101.188725 C27.8507383,99.7626846 27.833557,98.2765101 27.7820134,96.8075168 C26.5363758,97.1081879 25.144698,97.1683221 24.1911409,98.147651 Z M229.25745,102.013423 C229.480805,106.446174 230.906846,110.698523 231.216107,115.131275 C232.556242,122.484832 231.662819,129.99302 231.96349,137.406711 C232.934228,141.006174 234.738255,144.511141 237.478658,147.096913 C242.306577,143.574765 241.249933,136.650738 241.78255,131.41047 C241.533423,124.108456 242.933691,115.870067 238.329128,109.581745 C235.94953,106.437584 233.295034,102.97557 229.25745,102.013423 Z M43.7777181,114.847785 C44.5938255,116.668993 46.4665772,118.146577 46.3463087,120.294228 C46.3377181,129.13396 46.406443,137.990872 46.3119463,146.830604 C46.3634899,149.210201 43.6746309,149.656913 42.0166443,150.498792 C42.0080537,151.17745 41.9822819,152.517584 41.9736913,153.196242 C45.3412081,154.270067 48.9320805,153.703087 52.4026846,153.831946 C56.6378523,153.703087 60.9073826,154.132617 65.1081879,153.514094 C69.077047,152.594899 73.8963758,150.730738 74.9100671,146.306577 C76.5251007,140.928859 73.372349,135.482416 69.3691275,132.054765 C71.5167785,128.094497 73.5441611,123.481342 71.765906,118.979866 C70.2625503,114.658792 65.1511409,113.378792 61.0534228,113.413154 C55.3063087,113.456107 49.1983893,112.416644 43.7777181,114.847785 Z M185.625772,115.758389 C187.421208,117.811544 189.921074,119.821745 189.817987,122.828456 C189.826577,131.711141 189.921074,140.593826 189.775034,149.467919 C189.792215,151.564027 187.661745,152.474631 186.218523,153.531275 C186.270067,154.235705 186.373154,155.653154 186.424698,156.357584 C191.630604,156.263087 196.853691,156.537987 202.051007,156.168591 C202.454765,153.488322 200.324295,152.242685 198.408591,150.936913 C198.150872,141.564564 198.314094,132.183624 198.296913,122.811275 C198.11651,119.581208 200.96,117.536644 202.755436,115.242953 C202.471946,114.856376 201.913557,114.06604 201.638658,113.679463 C196.913826,113.696644 192.180403,113.567785 187.45557,113.696644 C186.287248,113.688054 184.921342,114.426846 185.625772,115.758389 Z M19.8786577,146.229262 C18.4612081,150.576107 17.3787919,155.369664 18.7189262,159.879732 C20.6518121,166.915436 23.5038926,173.676242 26.8112752,180.179329 C28.0483221,182.533154 29.1736913,185.075973 31.2955705,186.785503 C34.6888591,182.722148 36.1578523,176.562685 33.6665772,171.683221 C29.7578523,163.384698 27.0174497,154.544966 25.4797315,145.507651 C25.230604,144.304966 24.4230872,143.334228 23.8732886,142.268993 C22.1637584,143.119463 20.4542282,144.296376 19.8786577,146.229262 Z M231.284832,144.021477 C230.082148,146.985235 229.69557,150.18094 228.888054,153.256376 C227.324564,159.587651 225.082416,165.738523 222.359195,171.66604 C219.971007,176.425235 222.393557,181.699866 223.390067,186.510604 C223.974228,186.424698 225.14255,186.261477 225.726711,186.17557 C229.506577,180.205101 232.487517,173.762148 234.910067,167.130201 C237.994094,159.458792 235.494228,150.739329 231.284832,144.021477 Z M36.5100671,181.510872 C33.9414765,187.154899 35.7712752,193.950067 39.0786577,198.906846 C43.932349,205.143624 49.4389262,210.933691 55.7358389,215.74443 C58.424698,217.797584 62.2561074,215.538255 63.5361074,212.857987 C64.3865772,210.255034 62.0069799,208.382282 60.3489933,206.810201 C52.437047,200.075168 45.581745,192.120268 40.0150336,183.349262 C39.1559732,182.275436 37.987651,179.835705 36.5100671,181.510872 Z M216.010738,183.314899 C210.572886,191.957047 203.777718,199.705772 196.097718,206.423624 C194.216376,207.798121 194.13906,210.684564 195.70255,212.325369 C197.798658,214.653423 201.758926,214.739329 204.026846,212.600268 C208.708725,208.700134 212.703356,204.052617 216.629262,199.405101 C220.692617,194.628725 221.405638,187.395436 218.845638,181.76 C217.763221,182.034899 216.483221,182.112215 216.010738,183.314899 Z" id="Shape"></path>
                <path d="M118.232483,117.364832 C120.259866,112.597047 126.15302,112.167517 130.628725,112.459597 C134.468725,112.279195 139.691812,114.34094 139.37396,118.936913 C136.040805,119.649933 135.53396,114.590067 132.295302,114.796242 C130.078926,114.804832 126.823087,114.959463 126.161611,117.596779 C125.113557,121.557047 125.551678,125.72349 125.474362,129.778255 C130.431141,129.821208 136.39302,130.353826 139.829262,134.331275 C140.645369,137.904966 139.880805,141.607517 140.018255,145.241342 C140.22443,149.287517 135.989262,151.881879 132.338255,151.924832 C128.781745,151.933423 125.122148,152.354362 121.617181,151.589799 C118.679195,150.713557 118.017718,147.328859 118.722148,144.682953 C121.402416,145.516242 121.703087,149.364832 124.632483,149.62255 C127.355705,150.292617 130.774765,148.943893 131.195705,145.894228 C131.590872,142.294765 131.599463,138.617987 131.281611,135.018523 C129.030872,129.391678 120.027919,134.68349 117.940403,128.635705 C117.631141,124.915973 117.287517,120.998658 118.232483,117.364832 Z" id="Shape"></path>
                <path d="M152.861208,114.478389 C155.249396,115.019597 154.59651,117.699866 154.914362,119.521074 C155.790604,135.688591 155.859329,151.933423 154.398926,168.066577 C153.788993,170.592215 154.124027,173.341208 153.196242,175.763758 C152.354362,177.713826 150.387114,175.978523 149.081342,175.634899 C151.091544,161.56349 153.03302,147.406174 152.89557,133.154362 C153.041611,126.926174 152.577718,120.697987 152.861208,114.478389 Z" id="Shape"></path>
                <path d="M102.408591,115.234362 C102.863893,116.162148 103.216107,117.124295 103.473826,118.129396 C106.042416,133.609664 106.910067,149.33047 109.203758,164.845101 C109.616107,168.504698 110.122953,172.164295 109.959732,175.858255 C109.22094,176.047248 107.751946,176.433826 107.021745,176.622819 C104.82255,168.616376 105.140403,160.274899 103.980671,152.131007 C103.173154,139.855034 101.781477,127.544698 102.408591,115.234362 Z" id="Shape"></path>
                <path d="M55.0056376,117.347651 C57.1790604,117.631141 60.2373154,116.591678 61.6461745,118.773691 C63.2869799,121.445369 62.7285906,124.804295 62.5567785,127.776644 C61.7922148,131.307383 57.6773154,130.577181 54.9884564,130.594362 C55.0228188,126.178792 55.0056376,121.763221 55.0056376,117.347651 Z" id="Shape"></path>
                <path d="M55.0228188,133.996242 C58.0381208,134.090738 61.9468456,133.300403 63.8195973,136.358658 C65.8555705,139.80349 65.6837584,144.433826 63.7680537,147.895839 C61.8609396,150.816644 58.012349,150.378523 54.997047,150.352752 C55.0228188,144.897718 54.9798658,139.451275 55.0228188,133.996242 Z" id="Shape"></path>
                <path d="M109.891007,181.210201 C112.236242,180.866577 114.512752,178.753289 116.849396,180.282416 C119.134497,181.553826 121.866309,180.591678 124.220134,181.605369 C125.809396,185.136107 123.051812,188.787114 123.842148,192.42953 C124.323221,194.207785 123.704698,195.797047 122.613691,197.205906 C120.646443,195.401879 120.096644,192.781745 119.340671,190.342013 C115.05396,190.943356 117.820134,196.106309 115.835705,198.752215 C112.605638,197.068456 112.665772,193.262819 111.841074,190.187383 C109.22953,191.347114 109.006174,194.13047 108.215839,196.527248 C105.492617,193.030872 105.011544,188.366174 105.166174,184.079463 C105.09745,181.519463 108.164295,181.811544 109.891007,181.210201 Z" id="Shape"></path>
                <path d="M130.250738,183.581208 C132.939597,181.734228 135.997852,179.474899 139.459866,180.153557 C141.968322,180.668993 144.725906,178.383893 146.882148,180.445638 C148.832215,182.052081 151.417987,181.742819 153.771812,182.017718 C155.489933,185.763221 154.295839,190.342013 151.761611,193.42604 C150.911141,192.292081 150.103624,191.123758 149.313289,189.955436 C148.076242,190.161611 146.796242,190.917584 145.533423,190.496644 C144.090201,189.448591 143.36,187.747651 142.354899,186.338792 C138.360268,185.591409 133.068456,187.352483 130.250738,183.581208 Z" id="Shape"></path>
                <path d="M152.508993,198.073557 C156.177181,198.674899 158.402148,201.870604 160.755973,204.404832 C162.250738,206.191678 164.492886,207.720805 164.338255,210.34953 C158.642685,208.50255 154.398926,203.66604 152.508993,198.073557 Z" id="Shape"></path>
                <path d="M99.3503356,218.785503 C103.130201,217.325101 107.571544,218.390336 110.629799,220.950336 C112.854765,222.840268 113.962953,225.623624 115.76698,227.865772 C117.863087,230.434362 121.118926,231.585503 123.481342,233.853423 C125.508725,235.588725 126.926174,237.873826 128.721611,239.815302 C130.998121,242.20349 134.68349,241.516242 137.277852,243.311678 C138.892886,244.402685 140.954631,245.424966 141.160805,247.61557 C135.147383,245.390604 128.103087,244.815034 123.421208,239.961342 C119.435168,235.906577 114.993826,232.324295 110.999195,228.26953 C107.459866,224.627114 101.781477,222.986309 97.0051007,225.030872 C90.1841611,227.805638 86.5675168,234.849933 80.5283221,238.689933 C81.5763758,234.111141 85.1157047,230.666309 88.1138255,227.247248 C91.4469799,223.965638 94.8402685,220.391946 99.3503356,218.785503 Z" id="Shape"></path>
            </g>
        </g>
    </g>
</svg>