<?xml version="1.0" encoding="UTF-8"?>
<svg width="256px" height="256px" viewBox="0 0 256 256" version="1.1" xmlns="http://www.w3.org/2000/svg" xmlns:xlink="http://www.w3.org/1999/xlink">
    <!-- Generator: Sketch 50.2 (55047) - http://www.bohemiancoding.com/sketch -->
    <title>logo/dristug</title>
    <desc>Created with Sketch.</desc>
    <defs></defs>
    <g id="logo/dristug" stroke="none" stroke-width="1" fill="none" fill-rule="evenodd">
        <g id="dristug" transform="translate(0.000000, 49.000000)" fill-rule="nonzero">
            <g id="#eba508fe" fill="#EBA508">
                <path d="M73.3002532,11.9449485 C103.420759,-1.90989691 138.790886,-3.57701031 170.272405,6.65226804 C205.464304,18.0145361 234.515443,43.9761856 254.233924,74.7449485 C256.891139,77.8040206 254.703797,81.4781443 252.808101,84.2458763 C234.790886,111.745155 209.223291,135.036186 178.422278,147.304845 C148.561013,159.15268 114.357468,159.945773 84.0425316,149.230928 C62.7037975,141.915052 43.6496203,128.982784 27.6253165,113.266598 C17.7903797,102.325155 7.43696203,91.4808247 1.11797468,77.9982474 C18.2926582,49.8353608 43.0339241,25.6703093 73.3002532,11.9449485 Z M75.6496203,17.3347423 C47.5706329,29.8623711 24.4172152,51.9880412 8.52253165,78.0791753 C29.8288608,116.438969 69.6708861,145.362577 113.806582,149.845979 C143.181772,153.471546 173.755949,146.414639 198.691646,130.504227 C219.187848,117.264433 237.124051,99.395567 248.887089,77.901134 C229.735696,47.1647423 200.587342,21.4458763 165.298228,11.362268 C135.955443,2.65443299 103.582785,4.8556701 75.6496203,17.3347423 Z" id="Shape"></path>
                <path d="M109.188861,13.9519588 C138.321013,9.42 169.122025,15.327732 194.138734,31.027732 C213.030886,42.8431959 229.589873,58.8507216 241.077468,77.9658763 C239.197975,84.2296907 234.24,88.9882474 230.33519,94.0705155 C208.234937,120.89 176.186329,140.927732 141.010633,143.598351 C126.055696,145.492062 110.809114,143.841134 96.243038,140.183196 C64.761519,131.863814 37.7032911,110.660722 19.3296203,84.1487629 C17.3691139,81.4295876 15.3275949,77.7230928 18.1306329,74.7935052 C38.8050633,43.6524742 71.7286076,19.5845361 109.188861,13.9519588 Z M65.7498734,36.9192784 C103.242532,60.5340206 154.134684,60.5340206 191.594937,36.8383505 C154.345316,12.6894845 102.967089,12.6571134 65.7498734,36.9192784 Z M25.6,75.8131959 C23.9635443,77.8687629 24.5468354,80.3613402 26.118481,82.2550515 C35.1594937,95.5595876 46.4850633,107.439794 59.9007595,116.406598 C81.0126582,102.826907 106.04557,94.8636082 131.289114,95.9965979 C154.847595,95.8347423 177.709367,103.992268 197.573671,116.277113 C207.603038,109.268763 216.271392,100.512371 224.307848,91.3513402 C227.564557,87.1754639 231.404557,83.0643299 232.911392,77.8849485 C224.178228,62.9618557 211.216203,50.8550515 197.589873,40.3829897 C184.401013,48.297732 170.337215,55.2089691 155.123038,58.09 C122.701772,65.3249485 87.6718987,58.6564948 59.9007595,40.5448454 C46.3716456,49.9810309 34.5762025,61.9745361 25.6,75.8131959 Z M65.7336709,120.080722 C102.983291,144.229588 154.312911,144.164845 191.513924,120.015979 C154.118481,96.0937113 103.129114,96.2231959 65.7336709,120.080722 Z" id="Shape"></path>
                <path d="M58.0860759,47.6341237 C63.9351899,48.6538144 70.7402532,49.9162887 74.1913924,55.3384536 C79.36,63.4312371 79.3762025,73.417732 79.084557,82.6758763 C78.8901266,89.1501031 78.08,96.0937113 73.8349367,101.289278 C70.0921519,106.015464 64.1944304,108.03866 58.7827848,110.175155 C58.3453165,89.3281443 58.8962025,68.481134 58.0860759,47.6341237 Z M65.7012658,59.0935052 C65.1503797,72.0095876 65.1827848,84.9742268 65.6526582,97.8903093 C71.2749367,95.0092784 70.6268354,87.9847423 71.0318987,82.6596907 C70.8374684,74.6640206 72.8465823,64.8070103 65.7012658,59.0935052 Z" id="Shape"></path>
                <path d="M179.750886,56.9570103 C182.991392,52.9106186 188.808101,51.7614433 193.134177,49.0098969 C195.159494,51.0169072 197.18481,53.0239175 199.193924,55.0471134 C195.143291,57.0217526 191.238481,59.2553608 187.171646,61.1976289 C187.317468,71.5563918 186.977215,81.9313402 187.317468,92.2901031 C186.94481,95.397732 190.169114,96.4821649 192.388861,97.5665979 C193.296203,90.7362887 191.773165,84.0516495 190.071899,77.4803093 C193.020759,77.1242268 195.985823,76.7195876 198.934684,76.2663918 C199.291139,87.2563918 198.983291,98.2463918 198.853671,109.236392 C192.664304,106.61433 184.368608,105.934536 180.917468,99.3631959 C178.535696,92.9698969 179.524051,85.9939175 179.345823,79.3092784 C179.572658,71.8639175 178.827342,64.37 179.750886,56.9570103 Z" id="Shape"></path>
                <path d="M82.4546835,57.3778351 C87.8825316,58.1385567 94.9144304,59.5143299 96.518481,65.6972165 C98.1387342,70.6338144 94.5255696,74.8906186 93.1321519,79.3578351 C93.6344304,84.9904124 95.6759494,90.3478351 96.9883544,95.8347423 C95.0602532,96.1584536 93.1321519,96.4983505 91.2202532,96.854433 C90.1670886,93.0184536 89.1625316,89.1824742 88.1579747,85.3464948 C88.0121519,89.6356701 87.6394937,93.9248454 87.3802532,98.2140206 C86.0678481,98.3435052 83.443038,98.5862887 82.1306329,98.6995876 C82.4060759,84.9256701 82.0820253,71.1517526 82.4546835,57.3778351 Z M88.0607595,63.9491753 C87.9149367,67.2348454 87.9149367,70.536701 88.1093671,73.8385567 C92.6622785,71.5725773 91.7549367,66.4579381 88.0607595,63.9491753 Z" id="Shape"></path>
                <path d="M171.017722,59.1906186 C172.783797,58.4460825 174.549873,57.7662887 176.364557,57.1512371 C176.429367,65.6162887 176.396962,74.0975258 176.76962,82.5625773 C176.996456,87.92 176.785823,93.4392784 174.468861,98.3758763 C169.15443,98.311134 161.182785,98.0359794 159.789367,91.5941237 C158.801013,81.8018557 159.465316,71.8962887 159.384304,62.0554639 C161.231392,61.4080412 163.078481,60.7282474 164.909367,59.9998969 C165.978734,69.5817526 164.747342,79.2121649 165.31443,88.7940206 C165.168608,91.5131959 168.749367,91.5617526 170.483038,92.6461856 C171.438987,81.5105155 170.758481,70.3424742 171.017722,59.1906186 Z" id="Shape"></path>
                <path d="M100.957975,61.8774227 C103.291139,62.4924742 105.656709,62.9780412 108.038481,63.3503093 C108.92962,73.4986598 109.059241,83.695567 108.346329,93.8439175 C105.834937,93.9734021 103.323544,94.2 100.828354,94.5560825 C100.795949,83.6631959 100.666329,72.7703093 100.957975,61.8774227 Z" id="Shape"></path>
                <path d="M135.647595,65.1307216 C142.744304,64.2243299 149.88962,63.6092784 157.034937,63.172268 C157.034937,65.1630928 156.986329,67.1539175 156.889114,69.1609278 C154.507342,70.164433 152.093165,71.1031959 149.678987,72.0257732 C149.597975,79.2445361 149.549367,86.463299 149.468354,93.6820619 C147.297215,93.601134 145.142278,93.5040206 142.987342,93.3583505 C142.906329,86.3014433 142.760506,79.2445361 142.420253,72.1876289 C140.216709,71.7506186 138.04557,71.2812371 135.87443,70.7471134 C135.825823,68.8695876 135.74481,66.9920619 135.647595,65.1307216 Z" id="Shape"></path>
                <path d="M117.160506,65.0497938 C122.961013,63.5445361 129.717468,63.4636082 134.448608,67.6718557 C133.444051,69.2256701 132.374684,70.7309278 131.256709,72.2038144 C127.335696,71.4754639 123.382278,70.8442268 119.396456,70.8118557 C123.544304,76.8490722 132.844557,74.8096907 136.846582,81.1058763 C138.126582,85.7835052 135.307342,90.6229897 130.657215,91.8692784 C124.241013,94.0219588 117.144304,92.7109278 111.457215,89.1986598 C112.202532,87.4829897 112.850633,85.7349485 113.433924,83.9707216 C118.197468,84.7961856 123.123038,86.2852577 127.93519,84.7152577 C122.620759,80.5070103 112.251139,81.041134 111.441013,72.7541237 C111.603038,69.3875258 113.693165,65.7943299 117.160506,65.0497938 Z" id="Shape"></path>
                <path d="M97.1665823,114.46433 C100.585316,112.441134 103.987848,110.401753 107.341772,108.281443 C107.633418,115.710619 108.540759,123.269278 107.195949,130.649897 C106.256203,130.860309 104.376709,131.313505 103.453165,131.540103 C103.355949,126.765361 103.080506,122.006804 103.193924,117.232062 C101.168608,116.32567 99.1594937,115.419278 97.1665823,114.46433 Z" id="Shape"></path>
                <path d="M114.146835,110.725464 C116.67443,108.087216 120.595443,109.220206 123.819747,109.139278 C125.31038,115.678247 126.055696,122.508557 125.099747,129.160825 C121.810633,133.530928 111.862278,132.495052 112.64,125.89134 C112.785823,120.825258 112.996456,115.678247 114.146835,110.725464 Z M118.327089,111.583299 C117.711392,113.088557 117.111899,114.626186 116.54481,116.163814 C117.452152,116.714124 119.266835,117.814742 120.174177,118.365052 C120.482025,116.892165 120.789873,115.403093 121.065316,113.930206 C120.38481,113.33134 119.023797,112.165979 118.327089,111.583299 Z M117.176709,121.602165 C117.030886,123.673918 116.949873,125.761856 116.917468,127.833608 C117.95443,127.75268 120.060759,127.574639 121.097722,127.493711 C121.194937,125.535258 121.211139,123.59299 121.162532,121.650722 C120.157975,121.634536 118.181266,121.618351 117.176709,121.602165 Z" id="Shape"></path>
                <path d="M130.446582,110.919691 C133.573671,107.504536 141.642532,108.346186 142.063797,113.606495 C142.517468,118.899175 142.890127,124.515567 141.075443,129.614021 C138.693671,132.300825 134.853671,131.248763 131.71038,131.572474 C130.803038,130.034845 129.960506,128.464845 129.166582,126.846289 C132.018228,127.105258 134.869873,127.46134 137.721519,127.687938 C137.786329,126.927216 137.899747,125.405773 137.964557,124.645052 C135.226329,124.078557 132.504304,123.382577 129.798481,122.638041 C129.555443,118.753505 128.518481,114.561443 130.446582,110.919691 Z M133.460253,120.096907 C134.52962,120.404433 136.700759,121.03567 137.770127,121.359381 C137.705316,118.008969 137.559494,114.674742 137.284051,111.356701 C133.201013,112.538247 133.768101,116.76268 133.460253,120.096907 Z" id="Shape"></path>
                <path d="M147.524051,109.171649 C150.780759,109.284948 154.021266,109.365876 157.277975,109.46299 C157.731646,110.061856 158.622785,111.259588 159.060253,111.858454 C155.673924,112.651546 152.287595,113.396082 148.949873,114.383402 C152.303797,116.260928 157.277975,116.293299 159.141266,120.129278 C160.226835,124.127113 158.882025,128.108763 157.196962,131.718144 C154.086076,131.523918 150.97519,131.394433 147.880506,131.151649 C147.2,128.901856 146.438481,126.684433 145.628354,124.483196 C148.690633,125.632371 151.671899,127.02433 154.717975,128.270619 C154.701772,125.519072 154.734177,122.767526 154.798987,120.015979 C152.012152,120.258763 149.209114,120.533918 146.422278,120.792887 C146.632911,116.908351 147.102785,113.04 147.524051,109.171649 Z" id="Shape"></path>
            </g>
            <g id="#fdfcfdff" transform="translate(8.101266, 4.855670)" fill="#FDFCFD">
                <path d="M67.5483544,12.4790722 C95.481519,0 127.854177,-2.20123711 157.196962,6.50659794 C192.486076,16.5902062 221.63443,42.3090722 240.785823,73.0454639 C229.022785,94.5398969 211.086582,112.408763 190.59038,125.648557 C165.654684,141.558969 135.080506,148.615876 105.705316,144.990309 C61.5696203,140.506907 21.7275949,111.583299 0.421265823,73.2235052 C16.3159494,47.1323711 39.4693671,25.006701 67.5483544,12.4790722 Z M101.087595,9.09628866 C63.6273418,14.728866 30.7037975,38.7968041 10.0293671,69.9378351 C7.22632911,72.8674227 9.2678481,76.5739175 11.2283544,79.2930928 C29.6020253,105.805052 56.6602532,127.008144 88.1417722,135.327526 C102.707848,138.985464 117.95443,140.636392 132.909367,138.74268 C168.085063,136.072062 200.133671,116.03433 222.233924,89.2148454 C226.138734,84.1325773 231.096709,79.3740206 232.976203,73.1102062 C221.488608,53.9950515 204.92962,37.9875258 186.037468,26.1720619 C161.020759,10.4720619 130.219747,4.5643299 101.087595,9.09628866 Z" id="Shape"></path>
                <path d="M17.4987342,70.9575258 C26.4749367,57.118866 38.2703797,45.1253608 51.7994937,35.6891753 C79.5706329,53.8008247 114.600506,60.4692784 147.021772,53.2343299 C162.235949,50.353299 176.299747,43.4420619 189.488608,35.5273196 C203.114937,45.9993814 216.076962,58.1061856 224.810127,73.0292784 C223.303291,78.2086598 219.463291,82.3197938 216.206582,86.4956701 C208.170127,95.656701 199.501772,104.413093 189.472405,111.421443 C169.608101,99.1365979 146.746329,90.9790722 123.187848,91.1409278 C97.9443038,90.0079381 72.9113924,97.9712371 51.7994937,111.550928 C38.3837975,102.584124 27.0582278,90.7039175 18.0172152,77.3993814 C16.4455696,75.5056701 15.8622785,73.0130928 17.4987342,70.9575258 Z M49.9848101,42.7784536 C50.7949367,63.6254639 50.2440506,84.4724742 50.681519,105.319485 C56.0931646,103.18299 61.9908861,101.159794 65.7336709,96.4336082 C69.9787342,91.2380412 70.7888608,84.294433 70.9832911,77.8202062 C71.2749367,68.5620619 71.2587342,58.575567 66.0901266,50.4827835 C62.6389873,45.0606186 55.8339241,43.7981443 49.9848101,42.7784536 Z M171.64962,52.1013402 C170.726076,59.5143299 171.471392,67.0082474 171.244557,74.4536082 C171.422785,81.1382474 170.43443,88.1142268 172.816203,94.5075258 C176.267342,101.078866 184.563038,101.75866 190.752405,104.380722 C190.882025,93.3907216 191.189873,82.4007216 190.833418,71.4107216 C187.884557,71.8639175 184.919494,72.2685567 181.970633,72.6246392 C183.671899,79.1959794 185.194937,85.8806186 184.287595,92.7109278 C182.067848,91.6264948 178.843544,90.5420619 179.216203,87.434433 C178.875949,77.0756701 179.216203,66.7007216 179.07038,56.3419588 C183.137215,54.3996907 187.042025,52.1660825 191.092658,50.1914433 C189.083544,48.1682474 187.058228,46.1612371 185.032911,44.1542268 C180.706835,46.9057732 174.890127,48.0549485 171.64962,52.1013402 Z M74.3534177,52.5221649 C73.9807595,66.2960825 74.3048101,80.07 74.0293671,93.8439175 C75.3417722,93.7306186 77.9665823,93.4878351 79.2789873,93.3583505 C79.5382278,89.0691753 79.9108861,84.78 80.0567089,80.4908247 C81.0612658,84.3268041 82.0658228,88.1627835 83.1189873,91.9987629 C85.0308861,91.6426804 86.9589873,91.3027835 88.8870886,90.9790722 C87.5746835,85.4921649 85.5331646,80.1347423 85.0308861,74.5021649 C86.4243038,70.0349485 90.0374684,65.7781443 88.4172152,60.8415464 C86.8131646,54.6586598 79.7812658,53.2828866 74.3534177,52.5221649 Z M162.916456,54.3349485 C162.657215,65.4868041 163.337722,76.6548454 162.381772,87.7905155 C160.648101,86.7060825 157.067342,86.6575258 157.213165,83.9383505 C156.646076,74.3564948 157.877468,64.7260825 156.808101,55.1442268 C154.977215,55.8725773 153.130127,56.5523711 151.283038,57.1997938 C151.364051,67.0406186 150.699747,76.9461856 151.688101,86.7384536 C153.081519,93.1803093 161.053165,93.4554639 166.367595,93.5202062 C168.684557,88.5836082 168.89519,83.0643299 168.668354,77.7069072 C168.295696,69.2418557 168.328101,60.7606186 168.263291,52.295567 C166.448608,52.9106186 164.682532,53.5904124 162.916456,54.3349485 Z M92.8567089,57.0217526 C92.5650633,67.9146392 92.6946835,78.8075258 92.7270886,89.7004124 C95.2222785,89.3443299 97.7336709,89.117732 100.245063,88.9882474 C100.957975,78.8398969 100.828354,68.6429897 99.9372152,58.4946392 C97.555443,58.1223711 95.1898734,57.6368041 92.8567089,57.0217526 Z M127.546329,60.2750515 C127.643544,62.1363918 127.724557,64.0139175 127.773165,65.8914433 C129.944304,66.425567 132.115443,66.8949485 134.318987,67.3319588 C134.659241,74.388866 134.805063,81.4457732 134.886076,88.5026804 C137.041013,88.6483505 139.195949,88.7454639 141.367089,88.8263918 C141.448101,81.6076289 141.496709,74.388866 141.577722,67.1701031 C143.991899,66.2475258 146.406076,65.3087629 148.787848,64.3052577 C148.885063,62.2982474 148.933671,60.3074227 148.933671,58.3165979 C141.788354,58.7536082 134.643038,59.3686598 127.546329,60.2750515 Z M109.059241,60.1941237 C105.591899,60.9386598 103.501772,64.5318557 103.339747,67.8984536 C104.149873,76.1854639 114.519494,75.6513402 119.833924,79.8595876 C115.021772,81.4295876 110.096203,79.9405155 105.332658,79.1150515 C104.749367,80.8792784 104.101266,82.6273196 103.355949,84.3429897 C109.043038,87.8552577 116.139747,89.1662887 122.555949,87.0136082 C127.206076,85.7673196 130.025316,80.9278351 128.745316,76.2502062 C124.743291,69.9540206 115.443038,71.9934021 111.29519,65.9561856 C115.281013,65.9885567 119.23443,66.6197938 123.155443,67.3481443 C124.273418,65.8752577 125.342785,64.37 126.347342,62.8161856 C121.616203,58.6079381 114.859747,58.688866 109.059241,60.1941237 Z" id="Shape"></path>
                <path d="M57.6,54.2378351 C64.7453165,59.9513402 62.7362025,69.8083505 62.9306329,77.8040206 C62.5255696,83.1290722 63.1736709,90.1536082 57.5513924,93.0346392 C57.081519,80.1185567 57.0491139,67.1539175 57.6,54.2378351 Z" id="Shape"></path>
                <path d="M79.9594937,59.0935052 C83.6536709,61.602268 84.5610127,66.7169072 80.0081013,68.9828866 C79.8136709,65.6810309 79.8136709,62.3791753 79.9594937,59.0935052 Z" id="Shape"></path>
            </g>
            <g id="#066d3fff" transform="translate(64.810127, 17.804124)" fill="#066D3F">
                <path d="M0.939746835,19.1151546 C38.156962,-5.14701031 89.5351899,-5.11463918 126.78481,19.0342268 C89.324557,42.7298969 38.4324051,42.7298969 0.939746835,19.1151546 Z" id="Shape"></path>
                <path d="M0.923544304,102.276598 C38.3189873,78.4190722 89.3083544,78.2895876 126.703797,102.211856 C89.5027848,126.360722 38.1731646,126.425464 0.923544304,102.276598 Z M32.3564557,96.6602062 C34.3493671,97.6151546 36.358481,98.5215464 38.3837975,99.4279381 C38.2703797,104.20268 38.5458228,108.961237 38.643038,113.735979 C39.5665823,113.509381 41.4460759,113.056186 42.3858228,112.845773 C43.7306329,105.465155 42.8232911,97.9064948 42.5316456,90.4773196 C39.1777215,92.5976289 35.7751899,94.6370103 32.3564557,96.6602062 Z M49.3367089,92.9213402 C48.1863291,97.8741237 47.9756962,103.021134 47.8298734,108.087216 C47.0521519,114.690928 57.0005063,115.726804 60.2896203,111.356701 C61.2455696,104.704433 60.5002532,97.8741237 59.0096203,91.3351546 C55.7853165,91.4160825 51.8643038,90.2830928 49.3367089,92.9213402 Z M65.6364557,93.115567 C63.7083544,96.7573196 64.7453165,100.949381 64.9883544,104.833918 C67.6941772,105.578454 70.4162025,106.274433 73.1544304,106.840928 C73.0896203,107.601649 72.9762025,109.123093 72.9113924,109.883814 C70.0597468,109.657216 67.2081013,109.301134 64.3564557,109.042165 C65.1503797,110.660722 65.9929114,112.230722 66.9002532,113.768351 C70.0435443,113.444639 73.8835443,114.496701 76.2653165,111.809897 C78.08,106.711443 77.7073418,101.095052 77.2536709,95.8023711 C76.8324051,90.5420619 68.7635443,89.7004124 65.6364557,93.115567 Z M82.7139241,91.3675258 C82.2926582,95.2358763 81.8227848,99.1042268 81.6121519,102.988763 C84.3989873,102.729794 87.2020253,102.454639 89.9888608,102.211856 C89.9240506,104.963402 89.8916456,107.714948 89.9078481,110.466495 C86.8617722,109.220206 83.8805063,107.828247 80.8182278,106.679072 C81.6283544,108.880309 82.3898734,111.097732 83.0703797,113.347526 C86.1650633,113.590309 89.2759494,113.719794 92.3868354,113.914021 C94.0718987,110.304639 95.4167089,106.32299 94.3311392,102.325155 C92.4678481,98.4891753 87.4936709,98.4568041 84.1397468,96.5792784 C87.4774684,95.5919588 90.8637975,94.8474227 94.2501266,94.0543299 C93.8126582,93.4554639 92.921519,92.257732 92.4678481,91.658866 C89.2111392,91.5617526 85.9706329,91.4808247 82.7139241,91.3675258 Z" id="Shape"></path>
                <path d="M53.516962,93.7791753 C54.2136709,94.3618557 55.5746835,95.5272165 56.2551899,96.1260825 C55.9797468,97.5989691 55.6718987,99.0880412 55.3640506,100.560928 C54.4567089,100.010619 52.6420253,98.91 51.7346835,98.3596907 C52.3017722,96.8220619 52.9012658,95.284433 53.516962,93.7791753 Z" id="Shape"></path>
                <path d="M68.6501266,102.292784 C68.9579747,98.9585567 68.3908861,94.7341237 72.4739241,93.5525773 C72.7493671,96.8706186 72.8951899,100.204845 72.96,103.555258 C71.8906329,103.231546 69.7194937,102.600309 68.6501266,102.292784 Z" id="Shape"></path>
                <path d="M52.3665823,103.798041 C53.3711392,103.814227 55.3478481,103.830412 56.3524051,103.846598 C56.4010127,105.788866 56.3848101,107.731134 56.2875949,109.689588 C55.2506329,109.770515 53.1443038,109.948557 52.1073418,110.029485 C52.1397468,107.957732 52.2207595,105.869794 52.3665823,103.798041 Z" id="Shape"></path>
            </g>
        </g>
    </g>
</svg>