<?xml version="1.0" encoding="UTF-8"?>
<svg width="256px" height="256px" viewBox="0 0 256 256" version="1.1" xmlns="http://www.w3.org/2000/svg" xmlns:xlink="http://www.w3.org/1999/xlink">
    <!-- Generator: Sketch 50.2 (55047) - http://www.bohemiancoding.com/sketch -->
    <title>logo/egersund</title>
    <desc>Created with Sketch.</desc>
    <defs></defs>
    <g id="logo/egersund" stroke="none" stroke-width="1" fill="none" fill-rule="evenodd">
        <g id="egersund" fill-rule="nonzero">
            <g id="#fefefeff" transform="translate(25.162393, 27.350427)" fill="#FEFEFE">
                <path d="M65.4222222,6.90324786 C77.5001709,2.31931624 90.3876923,-0.426666667 103.351795,0.185982906 C115.495385,-0.251623932 127.245128,3.40239316 138.513504,7.53777778 C154.715897,13.1938462 168.237949,24.5606838 179.276581,37.4482051 C197.820171,60.7070085 206.309744,92.4006838 199.570598,121.61094 C198.454701,125.746325 198.301538,130.866325 194.680342,133.721709 C190.70906,134.279658 186.694017,133.951453 182.700855,134.006154 C149.158291,133.973333 115.604786,133.984274 82.0622222,133.995214 C76.4936752,133.885812 70.6297436,134.914188 65.4222222,132.376068 C70.0936752,130.198974 75.4652991,130.374017 80.0820513,128.043761 C86.6352137,125.319658 91.4160684,119.860513 96.1750427,114.817094 C106.064957,101.984274 109.850256,84.0423932 103.975385,68.6823932 C101.360684,61.8557265 98.2974359,54.591453 92.1490598,50.2044444 C87.2588034,46.6598291 83.0358974,42.0102564 77.2813675,39.8331624 C64.4594872,35.2601709 49.92,35.1070085 37.3059829,40.4676923 C34.1223932,41.857094 31.3764103,44.0123077 28.7726496,46.2878632 C24.9654701,49.7230769 20.1408547,52.2064957 17.5261538,56.8123077 C11.6841026,66.242735 8.48957265,77.5767521 9.60547009,88.6810256 C10.7870085,95.9671795 12.6905983,103.275214 16.2023932,109.806496 C19.8564103,116.633162 25.8625641,121.775043 32,126.293333 C37.437265,130.286496 44.482735,129.805128 50.4670085,132.365128 C44.5702564,135.089231 37.9842735,133.75453 31.7264957,133.984274 C23.7182906,133.798291 15.677265,134.38906 7.69094017,133.75453 C5.01059829,131.435214 4.23384615,127.770256 3.34769231,124.510085 C-0.973675214,106.382222 -0.612649573,86.9196581 5.62324786,69.2731624 C8.94905983,59.1863248 14.4082051,49.9418803 20.2174359,41.1022222 C31.617094,25.7641026 47.2724786,13.2266667 65.4222222,6.90324786 Z M108.537436,67.7196581 C112.202393,74.9073504 111.228718,83.0796581 111.174017,90.8581197 C111.108376,93.7353846 110.156581,96.4813675 109.43453,99.2492308 C118.033504,100.551111 126.884103,100.354188 135.504957,99.2929915 C136.194188,96.2297436 136.139487,93.0789744 135.231453,90.0594872 C131.719658,92.7288889 128.098462,97.7613675 123.131624,96.4813675 C118.142906,94.4683761 118.296068,88.5825641 119.783932,84.2830769 C122.715897,85.5193162 125.330598,87.3463248 127.814017,89.3155556 C128.66735,85.2348718 128.61265,81.0119658 127.573333,76.9750427 C125.866667,78.2112821 124.18188,79.4803419 122.497094,80.7494017 C121.785983,80.5962393 120.34188,80.2789744 119.619829,80.1148718 C120.035556,77.2047863 118.733675,72.577094 122.672137,71.7347009 C125.822906,70.8266667 128.142222,73.474188 130.592821,74.9292308 C132.343248,76.285812 134.673504,75.8153846 136.719316,75.9904274 C139.870085,82.9046154 142.408205,90.0594872 145.077607,97.1596581 C145.94188,98.9319658 146.674872,102.028034 149.289573,100.966838 C151.390085,98.6803419 151.926154,95.4529915 153.162393,92.674188 C155.50359,87.0837607 157.746325,81.4495726 160.131282,75.8810256 C161.050256,73.4851282 163.303932,72.1066667 165.273162,70.6516239 C169.507009,79.4365812 168.93812,90.4642735 164.157265,98.942906 C168.774017,100.310427 173.642393,100.343248 178.248205,98.9647863 C176.61812,95.2451282 174.572308,91.1535043 176.913504,87.2150427 C178.729573,88.8888889 180.731624,90.4423932 182.099145,92.542906 C183.411966,94.654359 183.094701,97.2471795 183.324444,99.6211966 C187.448889,99.9384615 191.638974,100.45265 195.752479,99.7305983 C196.758974,98.8006838 197.163761,97.4550427 197.688889,96.2297436 C191.660855,93.1664957 187.317607,87.5323077 184.287179,81.6574359 C183.236923,76.0232479 190.008889,73.5945299 192.886154,69.7764103 C191.606154,65.6847863 186.103248,67.9275214 182.941538,67.7962393 C182.700855,70.1921368 182.492991,72.5880342 182.022564,74.9511111 C181.016068,77.4673504 178.707692,79.1411966 176.880684,81.0338462 C174.627009,76.7562393 176.64,72.3364103 178.204444,68.2447863 C170.371282,66.9976068 162.341197,67.008547 154.508034,68.1791453 C157.702564,75.1808547 154.24547,82.6311111 150.38359,88.5716239 C148.797265,84.3705983 147.035897,80.2023932 146.073162,75.8153846 C145.493333,73.2882051 147.123419,71.0454701 148.020513,68.8246154 C147.84547,68.4745299 147.495385,67.7634188 147.320342,67.4133333 C134.38906,67.5555556 121.446838,67.008547 108.537436,67.7196581 Z" id="Shape"></path>
                <path d="M27.1863248,60.1381197 C27.8099145,61.505641 28.5647863,62.8294017 28.9039316,64.3063248 C27.262906,67.7196581 24.4731624,70.6735043 23.9261538,74.5463248 C23.357265,79.4365812 22.0444444,84.3268376 22.9305983,89.2717949 C45.1610256,89.1952137 67.391453,89.2936752 89.6218803,89.2389744 C91.8536752,89.6 93.9323077,87.5870085 93.5494017,85.3333333 C93.0133333,81.022906 91.8208547,76.8109402 91.328547,72.4895726 C91.1097436,68.1791453 84.7316239,65.2252991 87.9480342,60.8164103 C98.8116239,73.474188 98.7350427,93.2211966 89.2389744,106.590085 C86.0882051,106.699487 83.0249573,105.736752 79.874188,105.671111 C74.9839316,105.353846 70.1702564,107.334017 65.28,106.425983 C60.7617094,105.57265 56.1340171,105.364786 51.6047863,106.26188 C47.1630769,107.257436 42.7760684,105.57265 38.3234188,105.57265 C34.2536752,105.386667 30.1729915,105.780513 26.1798291,106.622906 C23.5104274,101.229402 20.3268376,95.7593162 20.1299145,89.5890598 C19.9548718,84.9394872 19.8782906,80.2680342 20.3924786,75.6403419 C21.377094,70.0061538 24.4403419,65.0502564 27.1863248,60.1381197 Z M25.5671795,92.5757265 C21.7818803,96.3500855 26.7158974,103.65812 31.6608547,103.264274 C47.7319658,103.439316 63.8030769,103.187692 79.8851282,103.373675 C82.5764103,103.264274 85.5302564,103.647179 87.937094,102.170256 C90.7924786,99.7634188 91.6895726,95.9234188 91.4051282,92.3350427 C69.4591453,92.6194872 47.5022222,92.1271795 25.5671795,92.5757265 Z" id="Shape"></path>
                <path d="M10.7979487,142.933333 C15.0317949,142.823932 19.2109402,143.939829 23.4447863,143.655385 C32.5579487,142.517607 41.8461538,142.484786 50.9593162,143.688205 C55.8276923,144.00547 60.6851282,142.244103 65.5425641,143.425641 C70.3234188,144.475897 75.0823932,142.462906 79.874188,143.163077 C82.5435897,143.491282 85.245812,143.99453 87.9480342,143.688205 C97.0721368,142.473846 106.371282,142.506667 115.495385,143.688205 C120.035556,144.00547 124.553846,142.298803 129.083077,143.36 C134.531282,144.61812 139.968547,142.331624 145.438632,143.272479 C150.558632,144.114872 155.689573,142.233162 160.809573,143.38188 C166.279658,144.607179 171.760684,142.276923 177.241709,143.436581 C181.978803,144.224274 186.726838,143.042735 191.474872,143.064615 C190.501197,148.304957 187.864615,153.063932 184.34188,157.013333 C180.195556,161.673846 177.668376,167.70188 172.734359,171.662222 C169.747692,174.276923 165.76547,172.252991 162.319316,172.15453 C163.096068,174.05812 164.025983,175.928889 164.50735,177.93094 C160.098462,185.129573 151.466667,187.656752 144.377436,191.33265 C139.169915,194.614701 133.12,195.993162 127.463932,198.268718 C120.648205,200.98188 113.197949,200.598974 106.054017,201.58359 C97.28,202.524444 88.7247863,200.095726 80.0929915,199.04547 C76.734359,198.509402 73.5398291,197.305983 70.3890598,196.058803 C71.3408547,192.481368 71.7565812,188.707009 69.2403419,185.643761 C68.4526496,186.85812 67.6868376,188.083419 66.9210256,189.319658 C67.5117949,191.004444 68.1135043,192.678291 68.7152137,194.363077 C65.728547,194.384957 62.4574359,194.636581 60.0505983,192.503248 C54.9415385,188.455385 48.2461538,187.306667 43.1152137,183.302564 C39.7675214,180.884786 36.8574359,177.93094 33.7832479,175.184957 C30.3480342,172.13265 26.4752137,169.408547 23.9699145,165.481026 C22.4164103,163.085128 22.3945299,160.142222 22.0006838,157.41812 C14.6707692,157.144615 12.4061538,148.753504 10.7979487,142.933333 Z M52.2830769,169.419487 C51.4844444,171.705983 49.6355556,174.550427 51.9001709,176.62906 C53.9788034,177.001026 55.3463248,174.988034 56.9654701,174.047179 C55.4119658,172.493675 53.8475214,170.951111 52.2830769,169.419487 Z M69.2294017,169.61641 C68.1025641,171.060513 66.9757265,172.493675 65.8379487,173.926838 C66.8991453,174.998974 67.9822222,176.071111 69.054359,177.143248 C70.1264957,176.082051 71.1876923,175.009915 72.2488889,173.937778 C71.2423932,172.493675 70.2358974,171.049573 69.2294017,169.61641 Z M81.405812,174.331624 C83.9439316,175.491282 86.7446154,176.103932 89.2280342,174.441026 C87.9480342,173.128205 86.6461538,171.826325 85.3552137,170.535385 C84.0423932,171.804444 82.7186325,173.062564 81.405812,174.331624 Z M117.519316,185.479658 C116.447179,187.164444 115.396923,188.860171 114.335726,190.555897 C115.714188,191.671795 117.09265,192.798632 118.471111,193.90359 C118.963419,191.037265 118.733675,188.13812 117.519316,185.479658 Z M85.442735,186.923761 C84.5565812,188.083419 83.6813675,189.232137 82.7952137,190.391795 C83.648547,191.168547 84.5018803,191.956239 85.3552137,192.743932 C86.6023932,191.97812 87.8495726,191.190427 89.085812,190.402735 C87.871453,189.243077 86.657094,188.083419 85.442735,186.923761 Z" id="Shape"></path>
                <path d="M74.8854701,220.127179 C77.4345299,220.444444 79.9617094,220.82735 82.4779487,221.297778 C82.5435897,221.910427 82.685812,223.113846 82.751453,223.715556 C80.2461538,223.617094 77.7408547,223.529573 75.2355556,223.463932 C75.1261538,222.348034 75.005812,221.232137 74.8854701,220.127179 Z" id="Shape"></path>
            </g>
            <g id="#030303ff" fill="#030303">
                <path d="M95.5295726,2.92102564 C99.0523077,1.70666667 102.782906,1.0174359 106.502564,1.71760684 C104.653675,3.54461538 102.717265,5.28410256 100.693333,6.91418803 C102.585983,7.02358974 104.489573,7.14393162 106.382222,7.29709402 C104.817778,9.10222222 103.264274,10.9182906 101.667009,12.7015385 C104.588034,13.1938462 107.52,13.6205128 110.441026,14.1675214 C107.202735,17.2088889 102.815726,17.3182906 98.6475214,17.2198291 C97.1487179,12.5702564 95.8468376,7.81128205 95.5295726,2.92102564 Z" id="Shape"></path>
                <path d="M110.988034,0.503247863 C114.499829,0.404786325 118.022564,0.175042735 121.523419,0.57982906 C123.908376,4.67145299 123.481709,9.75863248 124.17094,14.3206838 C121.665641,13.0735043 119.291624,11.5747009 116.994188,9.96649573 C115.440684,11.6075214 113.887179,13.2594872 112.289915,14.8676923 C110.637949,10.2509402 110.74735,5.31692308 110.988034,0.503247863 Z" id="Shape"></path>
                <path d="M126.895043,0.754871795 C130.406838,0.47042735 133.940513,0.371965812 137.463248,0.339145299 C137.321026,1.59726496 138.174359,3.39145299 136.675556,4.11350427 C135.132991,3.96034188 133.623248,3.5774359 132.124444,3.21641026 C134.881368,5.85299145 139.695043,8.47863248 138.360342,12.9641026 C136.697436,15.4803419 133.229402,16.5415385 130.439658,15.4694017 C128.547009,14.5176068 126.927863,13.1063248 125.264957,11.8153846 C128.043761,9.33196581 131.544615,10.557265 134.607863,11.6622222 C132.190085,9.8242735 129.378462,8.30358974 127.682735,5.71076923 C127.267009,4.09162393 127.124786,2.40683761 126.895043,0.754871795 Z" id="Shape"></path>
                <path d="M142.09094,3.29299145 C142.08,0.940854701 144.574359,0.984615385 146.237265,0.404786325 C146.138803,4.5182906 145.89812,8.63179487 145.810598,12.7452991 C146.959316,12.6796581 148.097094,12.6140171 149.245812,12.5483761 C150.000684,9.68205128 150.635214,6.77196581 151.66359,3.98222222 C151.915214,2.36307692 153.665641,2.47247863 154.90188,2.47247863 C155.219145,6.68444444 154.88,11.1480342 152.768547,14.8895726 C151.083761,17.7777778 147.090598,17.4495726 144.311795,16.6728205 C139.782564,13.9377778 141.751795,7.62529915 142.09094,3.29299145 Z" id="Shape"></path>
                <path d="M155.416068,18.5764103 C155.941197,13.1500855 157.735385,7.86598291 160.897094,3.40239316 C162.702222,5.99521368 164.179145,8.79589744 165.437265,11.6950427 C167.318974,10.2947009 168.784957,6.10461538 171.476239,7.82222222 C171.268376,13.2594872 169.003761,18.3576068 166.279658,22.974359 C164.616752,21.0488889 163.019487,19.0687179 161.531624,17.0010256 C159.507692,17.5699145 157.46188,18.1059829 155.416068,18.5764103 Z" id="Shape"></path>
                <path d="M79.3381197,11.0276923 C80.64,7.38461538 84.4909402,4.41982906 88.4731624,5.01059829 C92.1928205,8.42393162 94.1729915,13.2157265 96.3282051,17.6683761 C92.5647863,19.4844444 88.2215385,23.7401709 83.9001709,21.1911111 C80.6618803,19.0577778 78.4519658,14.9442735 79.3381197,11.0276923 Z M83.4188034,10.6119658 C83.3094017,13.7517949 84.4471795,16.5415385 87.7073504,17.405812 C88.1668376,15.1740171 88.6700855,12.9422222 89.217094,10.7323077 C88.3309402,10.305641 87.4557265,9.86803419 86.5805128,9.43042735 C85.7818803,9.72581197 84.2064957,10.3165812 83.4188034,10.6119658 Z" id="Shape"></path>
                <path d="M175.480342,11.3558974 C177.26359,8.68649573 180.392479,11.1808547 182.37265,12.2967521 C186.125128,14.2112821 185.971966,18.8936752 188.105299,21.9788034 C191.835897,25.2499145 196.343248,27.4926496 200.216068,30.5996581 C229.021538,52.0861538 246.854017,87.1603419 248.101197,122.978462 C249.173333,127.912479 247.772991,132.846496 247.751111,137.813333 C247.543248,144.727521 246.591453,151.772991 243.725128,158.140171 C241.241709,155.219145 242.652991,151.466667 243.309402,148.162735 C245.453675,139.399658 244.381538,130.308376 244.644103,121.392137 C244.917607,114.313846 243.561026,107.334017 241.799658,100.518291 C234.666667,68.6495726 213.256752,40.4567521 184.93265,24.3418803 C182.088205,25.5671795 179.134359,27.5145299 175.896068,26.7596581 C173.729915,26.1798291 171.727863,24.9764103 170.097778,23.4447863 C169.933675,18.9264957 173.182906,15.0208547 175.480342,11.3558974 Z M177.493333,15.6225641 C176.65094,17.5589744 175.819487,19.4844444 174.998974,21.4317949 C175.841368,21.6834188 177.515214,22.1976068 178.357607,22.4492308 C181.650598,21.9569231 181.059829,18.302906 181.442735,15.8632479 C180.129915,15.7866667 178.806154,15.6991453 177.493333,15.6225641 Z" id="Shape"></path>
                <path d="M64.9408547,14.7364103 C67.4461538,12.6140171 70.5641026,11.454359 73.5070085,10.0868376 C74.3822222,12.5702564 75.5418803,14.9880342 75.968547,17.6136752 C75.1480342,19.7360684 73.8133333,21.6068376 72.6099145,23.5213675 C75.5528205,22.4820513 78.6598291,21.8365812 81.7668376,22.5476923 C78.7145299,25.2608547 74.9511111,28.674188 70.5531624,27.9630769 C68.0588034,23.937094 65.1049573,19.6047863 64.9408547,14.7364103 Z" id="Shape"></path>
                <path d="M187.634872,17.0119658 C189.768205,17.022906 192.076581,16.8806838 193.90359,18.2044444 C223.34359,36.5839316 245.322393,67.0851282 252.017778,101.284103 C253.560342,110.506667 256.032821,119.68547 255.638974,129.104957 C255.507692,139.301197 253.057094,149.278632 251.087863,159.234188 C249.895385,159.234188 248.713846,159.234188 247.521368,159.245128 C248.451282,154.26735 249.632821,149.344274 250.529915,144.366496 C251.678632,138.25094 251.065983,131.993162 251.197265,125.811966 C252.017778,107.443419 246.263248,89.5124786 238.823932,72.9381197 C230.793846,56.5059829 219.142564,41.8133333 204.931282,30.2933333 C199.373675,25.5781197 192.503248,22.5367521 187.634872,17.0119658 Z" id="Shape"></path>
                <path d="M31.9124786,40.6646154 C40.4239316,31.8687179 49.405812,23.2588034 60.2803419,17.4276923 C60.542906,18.0841026 61.0899145,19.3859829 61.3524786,20.0423932 C57.1405128,23.4338462 52.6550427,26.4642735 48.3993162,29.8010256 C33.7613675,41.6382906 21.5958974,56.6263248 13.5439316,73.6820513 C7.89880342,84.928547 4.61675214,97.1705983 2.35213675,109.500171 C1.29094017,115.243761 1.60820513,121.107692 1.56444444,126.905983 C1.63008547,134.049915 1.09401709,141.303248 2.8225641,148.304957 C4.13538462,153.840684 5.50290598,159.485812 4.74803419,165.229402 C2.87726496,162.242735 1.22529915,159.102906 0,155.798974 L0,101.502906 C3.55555556,89.3593162 7.23145299,77.1282051 13.5111111,66.0676923 C18.751453,57.0092308 24.5059829,48.125812 31.9124786,40.6646154 Z" id="Shape"></path>
                <path d="M110.955214,19.4953846 C118.42735,18.6092308 125.976068,17.4823932 133.481026,18.6748718 C153.282735,19.9548718 173.029744,26.4095726 188.871111,38.5531624 C200.555214,46.3863248 210.018462,57.085812 218.070427,68.5292308 C228.387009,85.3005128 235.629402,104.774017 234.787009,124.717949 C234.699487,130.406838 234.983932,136.106667 234.590085,141.795556 C233.310085,152.385641 230.498462,162.800684 226.078632,172.526496 C222.512137,181.74906 216.29812,189.527521 210.674872,197.546667 C201.189744,209.394872 189.286838,219.580171 175.33812,225.783248 C160.131282,232.522393 143.764786,237.937778 126.905983,236.920342 C115.156239,237.686154 103.515897,235.246496 92.3350427,231.822222 C72.9490598,225.170598 55.1384615,213.431795 42.0868376,197.546667 C33.9254701,188.630427 28.4991453,177.646496 24.0246154,166.520342 C19.5938462,155.175385 18.0731624,142.998974 16.957265,130.953846 C16.4649573,124.717949 17.6464957,118.547692 18.3247863,112.377436 C20.2611966,97.5425641 26.048547,83.4625641 33.3237607,70.4875214 C39.7894017,59.1535043 49.471453,50.2153846 59.1206838,41.6273504 C65.0940171,36.3651282 72.194188,32.6564103 79.2615385,29.0899145 C89.1405128,24.002735 100.069744,21.377094 110.955214,19.4953846 Z M90.5846154,34.2536752 C72.4348718,40.577094 56.7794872,53.1145299 45.3798291,68.4526496 C39.5705983,77.2923077 34.111453,86.5367521 30.785641,96.6235897 C24.5497436,114.270085 24.1887179,133.73265 28.5100855,151.860513 C29.3962393,155.120684 30.1729915,158.785641 32.8533333,161.104957 C40.8396581,161.739487 48.8806838,161.148718 56.8888889,161.334701 C63.1466667,161.104957 69.7326496,162.439658 75.6294017,159.715556 C69.6451282,157.155556 62.5996581,157.636923 57.1623932,153.643761 C51.0249573,149.12547 45.0188034,143.98359 41.3647863,137.156923 C37.8529915,130.625641 35.9494017,123.317607 34.7678632,116.031453 C33.6519658,104.927179 36.8464957,93.5931624 42.688547,84.162735 C45.3032479,79.5569231 50.1278632,77.0735043 53.9350427,73.6382906 C56.5388034,71.362735 59.2847863,69.2075214 62.4683761,67.8181197 C75.0823932,62.4574359 89.6218803,62.6105983 102.443761,67.1835897 C108.198291,69.3606838 112.421197,74.0102564 117.311453,77.5548718 C123.459829,81.9418803 126.523077,89.2061538 129.137778,96.0328205 C135.01265,111.392821 131.22735,129.334701 121.337436,142.167521 C116.578462,147.21094 111.797607,152.670085 105.244444,155.394188 C100.627692,157.724444 95.2560684,157.549402 90.5846154,159.726496 C95.7921368,162.264615 101.656068,161.236239 107.224615,161.345641 C140.767179,161.334701 174.320684,161.323761 207.863248,161.356581 C211.85641,161.30188 215.871453,161.630085 219.842735,161.072137 C223.463932,158.216752 223.617094,153.096752 224.732991,148.961368 C231.472137,119.751111 222.982564,88.0574359 204.438974,64.7986325 C193.400342,51.9111111 179.878291,40.5442735 163.675897,34.8882051 C152.407521,30.7528205 140.657778,27.0988034 128.514188,27.5364103 C115.550085,26.9237607 102.662564,29.6697436 90.5846154,34.2536752 Z M52.3487179,87.488547 C49.602735,92.4006838 46.5394872,97.3565812 45.5548718,102.990769 C45.0406838,107.618462 45.117265,112.289915 45.2923077,116.939487 C45.4892308,123.109744 48.6728205,128.579829 51.3422222,133.973333 C55.3353846,133.13094 59.4160684,132.737094 63.485812,132.923077 C67.9384615,132.923077 72.3254701,134.607863 76.7671795,133.612308 C81.2964103,132.715214 85.9241026,132.923077 90.4423932,133.77641 C95.3326496,134.684444 100.146325,132.704274 105.036581,133.021538 C108.18735,133.087179 111.250598,134.049915 114.401368,133.940513 C123.897436,120.571624 123.974017,100.824615 113.110427,88.1668376 C109.894017,92.5757265 116.272137,95.5295726 116.49094,99.84 C116.983248,104.161368 118.175726,108.373333 118.711795,112.683761 C119.094701,114.937436 117.016068,116.950427 114.784274,116.589402 C92.5538462,116.644103 70.3234188,116.545641 48.0929915,116.622222 C47.2068376,111.677265 48.5196581,106.787009 49.088547,101.896752 C49.6355556,98.0239316 52.4252991,95.0700855 54.0663248,91.6567521 C53.7271795,90.1798291 52.9723077,88.8560684 52.3487179,87.488547 Z M35.9603419,170.283761 C37.568547,176.103932 39.8331624,184.495043 47.1630769,184.768547 C47.5569231,187.49265 47.5788034,190.435556 49.1323077,192.831453 C51.6376068,196.758974 55.5104274,199.483077 58.945641,202.535385 C62.0198291,205.281368 64.9299145,208.235214 68.2776068,210.652991 C73.408547,214.657094 80.1039316,215.805812 85.2129915,219.853675 C87.6198291,221.987009 90.8909402,221.735385 93.8776068,221.713504 C93.2758974,220.028718 92.674188,218.354872 92.0834188,216.670085 C92.8492308,215.433846 93.6150427,214.208547 94.402735,212.994188 C96.9189744,216.057436 96.5032479,219.831795 95.551453,223.409231 C98.7022222,224.65641 101.896752,225.859829 105.255385,226.395897 C113.887179,227.446154 122.442393,229.874872 131.21641,228.934017 C138.360342,227.949402 145.810598,228.332308 152.626325,225.619145 C158.282393,223.34359 164.332308,221.965128 169.539829,218.683077 C176.62906,215.007179 185.260855,212.48 189.669744,205.281368 C189.188376,203.279316 188.258462,201.408547 187.481709,199.504957 C190.927863,199.603419 194.910085,201.62735 197.896752,199.01265 C202.830769,195.052308 205.357949,189.024274 209.504274,184.363761 C213.027009,180.414359 215.66359,175.655385 216.637265,170.415043 C211.889231,170.393162 207.141197,171.574701 202.404103,170.787009 C196.923077,169.62735 191.442051,171.957607 185.971966,170.732308 C180.851966,169.58359 175.721026,171.465299 170.601026,170.622906 C165.13094,169.682051 159.693675,171.968547 154.24547,170.710427 C149.716239,169.649231 145.197949,171.355897 140.657778,171.038632 C131.533675,169.857094 122.23453,169.824274 113.110427,171.038632 C110.408205,171.344957 107.705983,170.841709 105.036581,170.513504 C100.244786,169.813333 95.485812,171.826325 90.7049573,170.776068 C85.8475214,169.59453 80.9900855,171.355897 76.1217094,171.038632 C67.008547,169.835214 57.7203419,169.868034 48.6071795,171.005812 C44.3733333,171.290256 40.194188,170.174359 35.9603419,170.283761 Z" id="Shape"></path>
                <path d="M58.114188,26.3329915 C60.0834188,24.8998291 62.4902564,24.4403419 64.831453,24.0464957 C62.1182906,29.1008547 56.6482051,31.4092308 52.3705983,34.8663248 C29.4290598,52.8957265 13.762735,79.808547 9.11316239,108.603077 C7.62529915,115.342222 8.25982906,122.25641 8.17230769,129.094017 C8.20512821,134.203077 7.7565812,139.355897 8.75213675,144.410256 C9.61641026,149.070769 10.4806838,153.731282 10.7651282,158.479316 C10.1087179,158.358974 8.79589744,158.118291 8.13948718,157.997949 C6.17025641,150.602393 5.16376068,142.998974 4.54017094,135.384615 C3.54461538,129.870769 3.94940171,124.269402 4.73709402,118.777436 C6.78290598,90.365812 18.8280342,62.5449573 39.1986325,42.4916239 C45.0078632,36.5620513 51.2765812,31.0482051 58.114188,26.3329915 Z" id="Shape"></path>
                <path d="M182.41641,27.8646154 C189.385299,29.1774359 194.57094,34.3411966 199.986325,38.5094017 C218.540855,53.6834188 231.65812,74.9511111 238.05812,97.9582906 C239.99453,105.62735 241.580855,113.493333 241.241709,121.446838 C240.957265,131.566496 242.149744,141.904957 239.34906,151.783932 C238.878632,153.57812 237.128205,154.540855 235.924786,155.788034 C236.537436,148.315897 238.200342,140.975043 238.966154,133.524786 C239.786667,117.202051 236.231111,100.868376 230.520342,85.6396581 C222.512137,66.5162393 209.712137,49.1104274 192.63453,37.1309402 C188.958632,34.3630769 184.123077,32.5251282 182.41641,27.8646154 Z" id="Shape"></path>
                <path d="M45.9377778,44.8437607 C52.2283761,38.8704274 58.562735,32.1531624 67.074188,29.4947009 C65.8598291,33.9145299 61.6041026,35.9603419 58.2454701,38.5312821 C34.9757265,55.9042735 19.3641026,82.8061538 15.1083761,111.480342 C13.4345299,117.267692 14.1784615,123.186325 14.462906,129.083077 C12.8328205,137.102222 15.9726496,144.891624 16.2352137,152.867009 C15.5131624,152.834188 14.0690598,152.757607 13.3470085,152.713846 C11.6841026,145.93094 11.5965812,138.929231 10.5791453,132.058803 C9.68205128,125.199316 11.4215385,118.41641 11.8700855,111.600684 C15.3928205,86.4164103 27.2082051,62.1948718 45.9377778,44.8437607 Z" id="Shape"></path>
                <path d="M133.699829,95.0700855 C146.609231,94.3589744 159.551453,94.9059829 172.482735,94.7637607 C172.657778,95.1138462 173.007863,95.8249573 173.182906,96.1750427 C172.285812,98.3958974 170.655726,100.638632 171.235556,103.165812 C172.198291,107.552821 173.959658,111.721026 175.545983,115.922051 C179.407863,109.981538 182.864957,102.531282 179.670427,95.5295726 C187.50359,94.3589744 195.533675,94.3480342 203.366838,95.5952137 C201.802393,99.6868376 199.789402,104.106667 202.043077,108.384274 C203.870085,106.491624 206.178462,104.817778 207.184957,102.301538 C207.655385,99.9384615 207.863248,97.5425641 208.103932,95.1466667 C211.265641,95.2779487 216.768547,93.0352137 218.048547,97.1268376 C215.171282,100.944957 208.399316,103.373675 209.449573,109.007863 C212.48,114.882735 216.823248,120.516923 222.851282,123.580171 C222.326154,124.80547 221.921368,126.151111 220.914872,127.081026 C216.801368,127.803077 212.611282,127.288889 208.486838,126.971624 C208.257094,124.597607 208.574359,122.004786 207.261538,119.893333 C205.894017,117.792821 203.891966,116.239316 202.075897,114.56547 C199.734701,118.503932 201.780513,122.595556 203.410598,126.315214 C198.804786,127.693675 193.93641,127.660855 189.319658,126.293333 C194.100513,117.814701 194.669402,106.787009 190.435556,98.0020513 C188.466325,99.457094 186.21265,100.835556 185.293675,103.231453 C182.908718,108.8 180.665983,114.434188 178.324786,120.024615 C177.088547,122.803419 176.552479,126.030769 174.451966,128.317265 C171.837265,129.378462 171.104274,126.282393 170.24,124.510085 C167.570598,117.409915 165.032479,110.255043 161.881709,103.340855 C159.835897,103.165812 157.505641,103.636239 155.755214,102.279658 C153.304615,100.824615 150.985299,98.177094 147.83453,99.0851282 C143.896068,99.9275214 145.197949,104.555214 144.782222,107.465299 C145.504274,107.629402 146.948376,107.946667 147.659487,108.099829 C149.344274,106.830769 151.02906,105.561709 152.735726,104.32547 C153.775043,108.362393 153.829744,112.585299 152.97641,116.665983 C150.492991,114.696752 147.878291,112.869744 144.946325,111.633504 C143.458462,115.932991 143.305299,121.818803 148.294017,123.831795 C153.260855,125.111795 156.882051,120.079316 160.393846,117.409915 C161.30188,120.429402 161.356581,123.580171 160.66735,126.643419 C152.046496,127.704615 143.195897,127.901538 134.596923,126.599658 C135.318974,123.831795 136.270769,121.085812 136.33641,118.208547 C136.391111,110.430085 137.364786,102.257778 133.699829,95.0700855 Z" id="Shape"></path>
                <path d="M50.7295726,119.926154 C72.6646154,119.477607 94.6215385,119.969915 116.567521,119.68547 C116.851966,123.273846 115.954872,127.113846 113.099487,129.520684 C110.69265,130.997607 107.738803,130.614701 105.047521,130.724103 C88.9654701,130.53812 72.894359,130.789744 56.8232479,130.614701 C51.8782906,131.008547 46.9442735,123.700513 50.7295726,119.926154 Z" id="Shape"></path>
                <path d="M11.902906,161.772308 C13.5986325,159.879658 16.0382906,159.113846 18.4232479,158.544957 C18.8936752,162.800684 16.322735,166.093675 13.5220513,168.94906 C16.9135043,170.130598 20.3158974,171.246496 23.6964103,172.460855 C23.4994872,173.904957 23.3244444,175.34906 23.1384615,176.793162 C17.5261538,175.666325 11.0605128,176.672821 6.23589744,173.117265 C4.60581197,168.358291 8.96,164.780855 11.902906,161.772308 Z" id="Shape"></path>
                <path d="M228.802735,175.206838 C230.487521,169.769573 232.774017,164.518291 236.16547,159.934359 C239.99453,161.334701 246.646154,160.273504 247.718291,165.284103 C247.838632,171.290256 244.687863,176.771282 241.526154,181.683419 C237.018803,180.086154 232.795897,177.810598 228.802735,175.206838 Z M240.136752,168.774017 C240.060171,170.436923 239.98359,172.099829 239.907009,173.762735 C240.486838,173.631453 241.635556,173.379829 242.215385,173.248547 C242.707692,171.957607 243.21094,170.666667 243.725128,169.375726 C242.521709,169.167863 241.329231,168.97094 240.136752,168.774017 Z" id="Shape"></path>
                <path d="M17.9309402,179.648547 C21.8475214,177.537094 26.1470085,180.655043 28.5210256,183.70735 C31.7046154,187.842735 34.3630769,194.253675 30.5121368,198.837607 C28.9476923,201.331966 25.6218803,201.145983 23.1275214,200.478632 C18.6639316,198.170256 15.6553846,193.630085 14.2112821,188.914872 C13.0188034,185.501538 14.5176068,181.13641 17.9309402,179.648547 Z M18.9374359,184.702906 C18.9921368,186.836239 18.9264957,188.980513 19.2328205,191.102906 C19.714188,194.735043 25.1295726,197.273162 27.4598291,193.750427 C30.0198291,188.739829 24.0246154,182.930598 18.9374359,184.702906 Z" id="Shape"></path>
                <path d="M227.085128,181.081709 C230.903248,180.370598 235.180855,181.74906 237.904957,184.484103 C239.458462,185.906325 238.342564,187.864615 237.894017,189.505641 C236.198291,194.319316 232.94906,198.345299 229.842051,202.327521 C225.619145,199.920684 221.779145,196.934017 218.21265,193.651966 C220.80547,189.254017 222.905983,184.243419 227.085128,181.081709 Z M230.585983,189.089915 C229.984274,190.873162 229.371624,192.65641 228.769915,194.450598 C229.929573,194.264615 231.100171,194.078632 232.259829,193.89265 C232.817778,192.098462 233.397607,190.304274 233.955556,188.521026 C232.828718,188.707009 231.70188,188.892991 230.585983,189.089915 Z" id="Shape"></path>
                <path d="M77.4454701,196.769915 C79.0099145,198.301538 80.574359,199.844103 82.1278632,201.397607 C80.5087179,202.338462 79.1411966,204.351453 77.0625641,203.979487 C74.7979487,201.900855 76.6468376,199.05641 77.4454701,196.769915 Z" id="Shape"></path>
                <path d="M94.3917949,196.966838 C95.3982906,198.4 96.4047863,199.844103 97.4112821,201.288205 C96.3500855,202.360342 95.2888889,203.432479 94.2167521,204.493675 C93.1446154,203.421538 92.0615385,202.349402 91.0003419,201.277265 C92.1381197,199.844103 93.2649573,198.41094 94.3917949,196.966838 Z" id="Shape"></path>
                <path d="M106.568205,201.682051 C107.881026,200.412991 109.204786,199.154872 110.517607,197.885812 C111.808547,199.176752 113.110427,200.478632 114.390427,201.791453 C111.907009,203.454359 109.106325,202.841709 106.568205,201.682051 Z" id="Shape"></path>
                <path d="M213.74906,201.277265 C213.442735,199.592479 213.978803,198.203077 215.346325,197.13094 C219.241026,198.192137 222.468376,201.080342 224.579829,204.438974 C226.067692,207.863248 223.803077,211.407863 221.593162,213.913162 C219.49265,216.166838 216.724786,218.584615 213.420855,218.278291 C209.26359,216.888889 206.550427,213.180171 203.629402,210.138803 C204.679658,209.044786 205.740855,207.950769 206.802051,206.856752 C209.28547,208.66188 211.648547,210.663932 214.328889,212.184615 C217.063932,214.339829 221.286838,210.445128 220.16,207.535043 C218.22359,205.248547 215.65265,203.596581 213.74906,201.277265 Z" id="Shape"></path>
                <path d="M26.114188,206.769231 C29.3962393,203.334017 33.0830769,200.31453 37.1965812,197.918632 C38.2358974,199.02359 39.2752137,200.150427 40.3035897,201.277265 C37.8748718,203.848205 35.391453,206.386325 32.962735,208.957265 C34.942906,212.294017 40.0191453,215.630769 37.8201709,219.897436 C33.5097436,215.904274 29.5603419,211.528205 26.114188,206.769231 Z" id="Shape"></path>
                <path d="M39.7894017,220.991453 C41.5179487,216.495043 45.8611966,213.694359 49.154188,210.390427 C50.2919658,211.364103 51.4188034,212.348718 52.5565812,213.333333 C50.5654701,216.429402 48.4211966,219.405128 46.1784615,222.326154 C49.0666667,225.050256 52.0642735,227.654017 54.8540171,230.476581 C53.245812,231.406496 51.4297436,231.384615 49.9747009,230.192137 C46.1347009,227.697778 42.4369231,224.765812 39.7894017,220.991453 Z" id="Shape"></path>
                <path d="M142.681709,212.830085 C143.896068,215.488547 144.125812,218.387692 143.633504,221.254017 C142.255043,220.14906 140.876581,219.022222 139.49812,217.906325 C140.559316,216.210598 141.609573,214.514872 142.681709,212.830085 Z" id="Shape"></path>
                <path d="M110.605128,214.274188 C111.819487,215.433846 113.033846,216.593504 114.248205,217.753162 C113.011966,218.540855 111.764786,219.328547 110.517607,220.094359 C109.664274,219.306667 108.81094,218.518974 107.957607,217.742222 C108.843761,216.582564 109.718974,215.433846 110.605128,214.274188 Z" id="Shape"></path>
                <path d="M190.358974,220.80547 C191.814017,220.094359 193.26906,219.383248 194.724103,218.661197 C196.813675,221.210256 198.892308,223.781197 200.992821,226.319316 C204.679658,224.689231 208.049231,219.777094 212.359658,221.680684 C208.65094,226.231795 203.870085,229.710769 199.01265,232.927179 C195.752479,229.163761 192.798632,225.148718 190.358974,220.80547 Z" id="Shape"></path>
                <path d="M53.8037607,232.194188 C56.8451282,228.572991 59.8317949,224.897094 63.168547,221.549402 C68.1682051,224.361026 73.8680342,226.53812 77.2157265,231.483077 C73.5726496,231.483077 70.1264957,230.279658 66.8444444,228.802735 C69.0652991,230.673504 71.1876923,232.653675 73.1350427,234.797949 C69.1965812,235.49812 65.728547,233.244444 62.1182906,232.095726 C64.4266667,236.045128 68.671453,238.06906 71.8769231,241.132308 C64.6673504,242.248205 58.9347009,236.384274 53.8037607,232.194188 Z" id="Shape"></path>
                <path d="M179.81265,231.406496 C181.76,228.397949 183.893333,225.509744 186.442393,222.982564 C186.989402,225.750427 186.617436,228.540171 185.58906,231.143932 C189.297778,232.183248 192.962735,233.419487 196.354188,235.257436 C191.967179,237.620513 186.945641,236.909402 182.197607,236.690598 C182.142906,238.911453 182.088205,241.132308 182.011624,243.364103 C180.348718,243.418803 178.685812,243.473504 177.033846,243.550085 C175.283419,239.163077 172.285812,234.765128 173.576752,229.820171 C175.666325,230.290598 177.744957,230.837607 179.81265,231.406496 Z" id="Shape"></path>
                <path d="M77.0297436,230.925128 C78.4300855,231.111111 79.8304274,231.286154 81.2417094,231.472137 C82.4232479,233.60547 83.648547,235.716923 84.797265,237.872137 C87.9042735,236.701538 91.2191453,235.005812 94.4574359,236.865641 C90.4861538,240.333675 86.8211966,244.129915 82.8608547,247.608889 C82.3466667,247.69641 81.3073504,247.882393 80.7931624,247.969915 C79.9507692,242.204444 79.3490598,236.340513 77.0297436,230.925128 Z" id="Shape"></path>
                <path d="M155.602051,238.462906 C156.728889,237.41265 157.844786,236.362393 158.971624,235.312137 C161.170598,238.627009 162.877265,242.226325 164.441709,245.869402 C168.369231,244.895726 172.614017,242.160684 176.508718,244.731624 C171.301197,248.002735 165.382564,250.201709 159.201368,250.398632 C157.910427,246.438291 156.77265,242.445128 155.602051,238.462906 Z" id="Shape"></path>
                <path d="M97.1487179,237.762735 C102.585983,238.014359 108.592137,238.036239 113.208889,241.30735 C114.893675,244.436239 114.215385,248.232479 114.095043,251.634872 C112.103932,253.768205 109.128205,254.73094 106.26188,254.326154 C102.214017,253.833846 98.0786325,253.068034 94.4355556,251.186325 C93.7682051,246.525812 95.8905983,242.127863 97.1487179,237.762735 Z M100.047863,247.477607 C100.168205,248.582564 100.288547,249.698462 100.397949,250.814359 C102.903248,250.88 105.408547,250.967521 107.913846,251.065983 C107.848205,250.464274 107.705983,249.260855 107.640342,248.648205 C105.124103,248.177778 102.596923,247.794872 100.047863,247.477607 Z" id="Shape"></path>
                <path d="M138.557265,243.878291 C138.25094,241.449573 140.942222,240.475897 142.441026,239.206838 C143.753846,242.685812 144.749402,246.274188 145.449573,249.939145 C149.530256,250.103248 154.114188,248.713846 157.615043,251.481709 C152.199658,253.42906 146.456068,254.216752 140.734359,254.621538 C139.837265,251.087863 138.754188,247.543248 138.557265,243.878291 Z" id="Shape"></path>
                <path d="M115.254701,254.172991 C117.519316,249.490598 120.681026,245.322393 123.558291,241.011966 C125.330598,241.197949 127.157607,241.121368 128.864274,241.690256 C132.430769,245.234872 134.947009,249.731282 137.288205,254.140171 C136.905299,254.490256 136.139487,255.168547 135.756581,255.518632 C132.748034,254.851282 129.969231,253.254017 126.862222,253.078974 C123.350427,252.860171 120.221538,254.763761 116.895726,255.540513 C116.49094,255.201368 115.659487,254.523077 115.254701,254.172991 Z" id="Shape"></path>
            </g>
        </g>
    </g>
</svg>