<?xml version="1.0" encoding="UTF-8" ?>
<!DOCTYPE svg PUBLIC "-//W3C//DTD SVG 1.1//EN" "http://www.w3.org/Graphics/SVG/1.1/DTD/svg11.dtd">
<svg width="240pt" height="240pt" viewBox="0 0 240 240" version="1.1" xmlns="http://www.w3.org/2000/svg">
<g id="#fefefeff">
<path fill="#fefefe" opacity="1.00" d=" M 82.80 32.31 C 93.84 28.12 105.62 25.61 117.47 26.17 C 128.57 25.77 139.31 29.11 149.61 32.89 C 164.42 38.06 176.78 48.45 186.87 60.23 C 203.82 81.49 211.58 110.46 205.42 137.16 C 204.40 140.94 204.26 145.62 200.95 148.23 C 197.32 148.74 193.65 148.44 190.00 148.49 C 159.34 148.46 128.67 148.47 98.01 148.48 C 92.92 148.38 87.56 149.32 82.80 147.00 C 87.07 145.01 91.98 145.17 96.20 143.04 C 102.19 140.55 106.56 135.56 110.91 130.95 C 119.95 119.22 123.41 102.82 118.04 88.78 C 115.65 82.54 112.85 75.90 107.23 71.89 C 102.76 68.65 98.90 64.40 93.64 62.41 C 81.92 58.23 68.63 58.09 57.10 62.99 C 54.19 64.26 51.68 66.23 49.30 68.31 C 45.82 71.45 41.41 73.72 39.02 77.93 C 33.68 86.55 30.76 96.91 31.78 107.06 C 32.86 113.72 34.60 120.40 37.81 126.37 C 41.15 132.61 46.64 137.31 52.25 141.44 C 57.22 145.09 63.66 144.65 69.13 146.99 C 63.74 149.48 57.72 148.26 52.00 148.47 C 44.68 148.30 37.33 148.84 30.03 148.26 C 27.58 146.14 26.87 142.79 26.06 139.81 C 22.11 123.24 22.44 105.45 28.14 89.32 C 31.18 80.10 36.17 71.65 41.48 63.57 C 51.90 49.55 66.21 38.09 82.80 32.31 M 122.21 87.90 C 125.56 94.47 124.67 101.94 124.62 109.05 C 124.56 111.68 123.69 114.19 123.03 116.72 C 130.89 117.91 138.98 117.73 146.86 116.76 C 147.49 113.96 147.44 111.08 146.61 108.32 C 143.40 110.76 140.09 115.36 135.55 114.19 C 130.99 112.35 131.13 106.97 132.49 103.04 C 135.17 104.17 137.56 105.84 139.83 107.64 C 140.61 103.91 140.56 100.05 139.61 96.36 C 138.05 97.49 136.51 98.65 134.97 99.81 C 134.32 99.67 133.00 99.38 132.34 99.23 C 132.72 96.57 131.53 92.34 135.13 91.57 C 138.01 90.74 140.13 93.16 142.37 94.49 C 143.97 95.73 146.10 95.30 147.97 95.46 C 150.85 101.78 153.17 108.32 155.61 114.81 C 156.40 116.43 157.07 119.26 159.46 118.29 C 161.38 116.20 161.87 113.25 163.00 110.71 C 165.14 105.60 167.19 100.45 169.37 95.36 C 170.21 93.17 172.27 91.91 174.07 90.58 C 177.94 98.61 177.42 108.69 173.05 116.44 C 177.27 117.69 181.72 117.72 185.93 116.46 C 184.44 113.06 182.57 109.32 184.71 105.72 C 186.37 107.25 188.20 108.67 189.45 110.59 C 190.65 112.52 190.36 114.89 190.57 117.06 C 194.34 117.35 198.17 117.82 201.93 117.16 C 202.85 116.31 203.22 115.08 203.70 113.96 C 198.19 111.16 194.22 106.01 191.45 100.64 C 190.49 95.49 196.68 93.27 199.31 89.78 C 198.14 86.04 193.11 88.09 190.22 87.97 C 190.00 90.16 189.81 92.35 189.38 94.51 C 188.46 96.81 186.35 98.34 184.68 100.07 C 182.62 96.16 184.46 92.12 185.89 88.38 C 178.73 87.24 171.39 87.25 164.23 88.32 C 167.15 94.72 163.99 101.53 160.46 106.96 C 159.01 103.12 157.40 99.31 156.52 95.30 C 155.99 92.99 157.48 90.94 158.30 88.91 C 158.14 88.59 157.82 87.94 157.66 87.62 C 145.84 87.75 134.01 87.25 122.21 87.90 Z" />
<path fill="#fefefe" opacity="1.00" d=" M 47.85 80.97 C 48.42 82.22 49.11 83.43 49.42 84.78 C 47.92 87.90 45.37 90.60 44.87 94.14 C 44.35 98.61 43.15 103.08 43.96 107.60 C 64.28 107.53 84.60 107.62 104.92 107.57 C 106.96 107.90 108.86 106.06 108.51 104.00 C 108.02 100.06 106.93 96.21 106.48 92.26 C 106.28 88.32 100.45 85.62 103.39 81.59 C 113.32 93.16 113.25 111.21 104.57 123.43 C 101.69 123.53 98.89 122.65 96.01 122.59 C 91.54 122.30 87.14 124.11 82.67 123.28 C 78.54 122.50 74.31 122.31 70.17 123.13 C 66.11 124.04 62.10 122.50 58.03 122.50 C 54.31 122.33 50.58 122.69 46.93 123.46 C 44.49 118.53 41.58 113.53 41.40 107.89 C 41.24 103.64 41.17 99.37 41.64 95.14 C 42.54 89.99 45.34 85.46 47.85 80.97 M 46.37 110.62 C 42.91 114.07 47.42 120.75 51.94 120.39 C 66.63 120.55 81.32 120.32 96.02 120.49 C 98.48 120.39 101.18 120.74 103.38 119.39 C 105.99 117.19 106.81 113.68 106.55 110.40 C 86.49 110.66 66.42 110.21 46.37 110.62 Z" />
<path fill="#fefefe" opacity="1.00" d=" M 32.87 156.65 C 36.74 156.55 40.56 157.57 44.43 157.31 C 52.76 156.27 61.25 156.24 69.58 157.34 C 74.03 157.63 78.47 156.02 82.91 157.10 C 87.28 158.06 91.63 156.22 96.01 156.86 C 98.45 157.16 100.92 157.62 103.39 157.34 C 111.73 156.23 120.23 156.26 128.57 157.34 C 132.72 157.63 136.85 156.07 140.99 157.04 C 145.97 158.19 150.94 156.10 155.94 156.96 C 160.62 157.73 165.31 156.01 169.99 157.06 C 174.99 158.18 180.00 156.05 185.01 157.11 C 189.34 157.83 193.68 156.75 198.02 156.77 C 197.13 161.56 194.72 165.91 191.50 169.52 C 187.71 173.78 185.40 179.29 180.89 182.91 C 178.16 185.30 174.52 183.45 171.37 183.36 C 172.08 185.10 172.93 186.81 173.37 188.64 C 169.34 195.22 161.45 197.53 154.97 200.89 C 150.21 203.89 144.68 205.15 139.51 207.23 C 133.28 209.71 126.47 209.36 119.94 210.26 C 111.92 211.12 104.10 208.90 96.21 207.94 C 93.14 207.45 90.22 206.35 87.34 205.21 C 88.21 201.94 88.59 198.49 86.29 195.69 C 85.57 196.80 84.87 197.92 84.17 199.05 C 84.71 200.59 85.26 202.12 85.81 203.66 C 83.08 203.68 80.09 203.91 77.89 201.96 C 73.22 198.26 67.10 197.21 62.41 193.55 C 59.35 191.34 56.69 188.64 53.88 186.13 C 50.74 183.34 47.20 180.85 44.91 177.26 C 43.49 175.07 43.47 172.38 43.11 169.89 C 36.41 169.64 34.34 161.97 32.87 156.65 M 70.79 180.86 C 70.06 182.95 68.37 185.55 70.44 187.45 C 72.34 187.79 73.59 185.95 75.07 185.09 C 73.65 183.67 72.22 182.26 70.79 180.86 M 86.28 181.04 C 85.25 182.36 84.22 183.67 83.18 184.98 C 84.15 185.96 85.14 186.94 86.12 187.92 C 87.10 186.95 88.07 185.97 89.04 184.99 C 88.12 183.67 87.20 182.35 86.28 181.04 M 97.41 185.35 C 99.73 186.41 102.29 186.97 104.56 185.45 C 103.39 184.25 102.20 183.06 101.02 181.88 C 99.82 183.04 98.61 184.19 97.41 185.35 M 130.42 195.54 C 129.44 197.08 128.48 198.63 127.51 200.18 C 128.77 201.20 130.03 202.23 131.29 203.24 C 131.74 200.62 131.53 197.97 130.42 195.54 M 101.10 196.86 C 100.29 197.92 99.49 198.97 98.68 200.03 C 99.46 200.74 100.24 201.46 101.02 202.18 C 102.16 201.48 103.30 200.76 104.43 200.04 C 103.32 198.98 102.21 197.92 101.10 196.86 Z" />
<path fill="#fefefe" opacity="1.00" d=" M 91.45 227.21 C 93.78 227.50 96.09 227.85 98.39 228.28 C 98.45 228.84 98.58 229.94 98.64 230.49 C 96.35 230.40 94.06 230.32 91.77 230.26 C 91.67 229.24 91.56 228.22 91.45 227.21 Z" />
</g>
<g id="#030303ff">
<path fill="#030303" opacity="1.00" d=" M 87.32 3.67 C 90.54 2.56 93.95 1.93 97.35 2.57 C 95.66 4.24 93.89 5.83 92.04 7.32 C 93.77 7.42 95.51 7.53 97.24 7.67 C 95.81 9.32 94.39 10.98 92.93 12.61 C 95.60 13.06 98.28 13.45 100.95 13.95 C 97.99 16.73 93.98 16.83 90.17 16.74 C 88.80 12.49 87.61 8.14 87.32 3.67 Z" />
<path fill="#030303" opacity="1.00" d=" M 101.45 1.46 C 104.66 1.37 107.88 1.16 111.08 1.53 C 113.26 5.27 112.87 9.92 113.50 14.09 C 111.21 12.95 109.04 11.58 106.94 10.11 C 105.52 11.61 104.10 13.12 102.64 14.59 C 101.13 10.37 101.23 5.86 101.45 1.46 Z" />
<path fill="#030303" opacity="1.00" d=" M 115.99 1.69 C 119.20 1.43 122.43 1.34 125.65 1.31 C 125.52 2.46 126.30 4.10 124.93 4.76 C 123.52 4.62 122.14 4.27 120.77 3.94 C 123.29 6.35 127.69 8.75 126.47 12.85 C 124.95 15.15 121.78 16.12 119.23 15.14 C 117.50 14.27 116.02 12.98 114.50 11.80 C 117.04 9.53 120.24 10.65 123.04 11.66 C 120.83 9.98 118.26 8.59 116.71 6.22 C 116.33 4.74 116.20 3.20 115.99 1.69 Z" />
<path fill="#030303" opacity="1.00" d=" M 129.88 4.01 C 129.87 1.86 132.15 1.90 133.67 1.37 C 133.58 5.13 133.36 8.89 133.28 12.65 C 134.33 12.59 135.37 12.53 136.42 12.47 C 137.11 9.85 137.69 7.19 138.63 4.64 C 138.86 3.16 140.46 3.26 141.59 3.26 C 141.88 7.11 141.57 11.19 139.64 14.61 C 138.10 17.25 134.45 16.95 131.91 16.24 C 127.77 13.74 129.57 7.97 129.88 4.01 Z" />
<path fill="#030303" opacity="1.00" d=" M 142.06 17.98 C 142.54 13.02 144.18 8.19 147.07 4.11 C 148.72 6.48 150.07 9.04 151.22 11.69 C 152.94 10.41 154.28 6.58 156.74 8.15 C 156.55 13.12 154.48 17.78 151.99 22.00 C 150.47 20.24 149.01 18.43 147.65 16.54 C 145.80 17.06 143.93 17.55 142.06 17.98 Z" />
<path fill="#030303" opacity="1.00" d=" M 72.52 11.08 C 73.71 7.75 77.23 5.04 80.87 5.58 C 84.27 8.70 86.08 13.08 88.05 17.15 C 84.61 18.81 80.64 22.70 76.69 20.37 C 73.73 18.42 71.71 14.66 72.52 11.08 M 76.25 10.70 C 76.15 13.57 77.19 16.12 80.17 16.91 C 80.59 14.87 81.05 12.83 81.55 10.81 C 80.74 10.42 79.94 10.02 79.14 9.62 C 78.41 9.89 76.97 10.43 76.25 10.70 Z" />
<path fill="#030303" opacity="1.00" d=" M 160.40 11.38 C 162.03 8.94 164.89 11.22 166.70 12.24 C 170.13 13.99 169.99 18.27 171.94 21.09 C 175.35 24.08 179.47 26.13 183.01 28.97 C 209.34 48.61 225.64 80.67 226.78 113.41 C 227.76 117.92 226.48 122.43 226.46 126.97 C 226.27 133.29 225.40 139.73 222.78 145.55 C 220.51 142.88 221.80 139.45 222.40 136.43 C 224.36 128.42 223.38 120.11 223.62 111.96 C 223.87 105.49 222.63 99.11 221.02 92.88 C 214.50 63.75 194.93 37.98 169.04 23.25 C 166.44 24.37 163.74 26.15 160.78 25.46 C 158.80 24.93 156.97 23.83 155.48 22.43 C 155.33 18.30 158.30 14.73 160.40 11.38 M 162.24 15.28 C 161.47 17.05 160.71 18.81 159.96 20.59 C 160.73 20.82 162.26 21.29 163.03 21.52 C 166.04 21.07 165.50 17.73 165.85 15.50 C 164.65 15.43 163.44 15.35 162.24 15.28 Z" />
<path fill="#030303" opacity="1.00" d=" M 59.36 14.47 C 61.65 12.53 64.50 11.47 67.19 10.22 C 67.99 12.49 69.05 14.70 69.44 17.10 C 68.69 19.04 67.47 20.75 66.37 22.50 C 69.06 21.55 71.90 20.96 74.74 21.61 C 71.95 24.09 68.51 27.21 64.49 26.56 C 62.21 22.88 59.51 18.92 59.36 14.47 Z" />
<path fill="#030303" opacity="1.00" d=" M 171.51 16.55 C 173.46 16.56 175.57 16.43 177.24 17.64 C 204.15 34.44 224.24 62.32 230.36 93.58 C 231.77 102.01 234.03 110.40 233.67 119.01 C 233.55 128.33 231.31 137.45 229.51 146.55 C 228.42 146.55 227.34 146.55 226.25 146.56 C 227.10 142.01 228.18 137.51 229.00 132.96 C 230.05 127.37 229.49 121.65 229.61 116.00 C 230.36 99.21 225.10 82.82 218.30 67.67 C 210.96 52.65 200.31 39.22 187.32 28.69 C 182.24 24.38 175.96 21.60 171.51 16.55 Z" />
<path fill="#030303" opacity="1.00" d=" M 29.17 38.17 C 36.95 30.13 45.16 22.26 55.10 16.93 C 55.34 17.53 55.84 18.72 56.08 19.32 C 52.23 22.42 48.13 25.19 44.24 28.24 C 30.86 39.06 19.74 52.76 12.38 68.35 C 7.22 78.63 4.22 89.82 2.15 101.09 C 1.18 106.34 1.47 111.70 1.43 117.00 C 1.49 123.53 1.00 130.16 2.58 136.56 C 3.78 141.62 5.03 146.78 4.34 152.03 C 2.63 149.30 1.12 146.43 0.00 143.41 L 0.00 93.78 C 3.25 82.68 6.61 71.50 12.35 61.39 C 17.14 53.11 22.40 44.99 29.17 38.17 Z" />
<path fill="#030303" opacity="1.00" d=" M 101.42 18.82 C 108.25 18.01 115.15 16.98 122.01 18.07 C 140.11 19.24 158.16 25.14 172.64 36.24 C 183.32 43.40 191.97 53.18 199.33 63.64 C 208.76 78.97 215.38 96.77 214.61 115.00 C 214.53 120.20 214.79 125.41 214.43 130.61 C 213.26 140.29 210.69 149.81 206.65 158.70 C 203.39 167.13 197.71 174.24 192.57 181.57 C 183.90 192.40 173.02 201.71 160.27 207.38 C 146.37 213.54 131.41 218.49 116.00 217.56 C 105.26 218.26 94.62 216.03 84.40 212.90 C 66.68 206.82 50.40 196.09 38.47 181.57 C 31.01 173.42 26.05 163.38 21.96 153.21 C 17.91 142.84 16.52 131.71 15.50 120.70 C 15.05 115.00 16.13 109.36 16.75 103.72 C 18.52 90.16 23.81 77.29 30.46 65.43 C 36.37 55.07 45.22 46.90 54.04 39.05 C 59.50 34.24 65.99 30.85 72.45 27.59 C 81.48 22.94 91.47 20.54 101.42 18.82 M 82.80 32.31 C 66.21 38.09 51.90 49.55 41.48 63.57 C 36.17 71.65 31.18 80.10 28.14 89.32 C 22.44 105.45 22.11 123.24 26.06 139.81 C 26.87 142.79 27.58 146.14 30.03 148.26 C 37.33 148.84 44.68 148.30 52.00 148.47 C 57.72 148.26 63.74 149.48 69.13 146.99 C 63.66 144.65 57.22 145.09 52.25 141.44 C 46.64 137.31 41.15 132.61 37.81 126.37 C 34.60 120.40 32.86 113.72 31.78 107.06 C 30.76 96.91 33.68 86.55 39.02 77.93 C 41.41 73.72 45.82 71.45 49.30 68.31 C 51.68 66.23 54.19 64.26 57.10 62.99 C 68.63 58.09 81.92 58.23 93.64 62.41 C 98.90 64.40 102.76 68.65 107.23 71.89 C 112.85 75.90 115.65 82.54 118.04 88.78 C 123.41 102.82 119.95 119.22 110.91 130.95 C 106.56 135.56 102.19 140.55 96.20 143.04 C 91.98 145.17 87.07 145.01 82.80 147.00 C 87.56 149.32 92.92 148.38 98.01 148.48 C 128.67 148.47 159.34 148.46 190.00 148.49 C 193.65 148.44 197.32 148.74 200.95 148.23 C 204.26 145.62 204.40 140.94 205.42 137.16 C 211.58 110.46 203.82 81.49 186.87 60.23 C 176.78 48.45 164.42 38.06 149.61 32.89 C 139.31 29.11 128.57 25.77 117.47 26.17 C 105.62 25.61 93.84 28.12 82.80 32.31 M 47.85 80.97 C 45.34 85.46 42.54 89.99 41.64 95.14 C 41.17 99.37 41.24 103.64 41.40 107.89 C 41.58 113.53 44.49 118.53 46.93 123.46 C 50.58 122.69 54.31 122.33 58.03 122.50 C 62.10 122.50 66.11 124.04 70.17 123.13 C 74.31 122.31 78.54 122.50 82.67 123.28 C 87.14 124.11 91.54 122.30 96.01 122.59 C 98.89 122.65 101.69 123.53 104.57 123.43 C 113.25 111.21 113.32 93.16 103.39 81.59 C 100.45 85.62 106.28 88.32 106.48 92.26 C 106.93 96.21 108.02 100.06 108.51 104.00 C 108.86 106.06 106.96 107.90 104.92 107.57 C 84.60 107.62 64.28 107.53 43.96 107.60 C 43.15 103.08 44.35 98.61 44.87 94.14 C 45.37 90.60 47.92 87.90 49.42 84.78 C 49.11 83.43 48.42 82.22 47.85 80.97 M 32.87 156.65 C 34.34 161.97 36.41 169.64 43.11 169.89 C 43.47 172.38 43.49 175.07 44.91 177.26 C 47.20 180.85 50.74 183.34 53.88 186.13 C 56.69 188.64 59.35 191.34 62.41 193.55 C 67.10 197.21 73.22 198.26 77.89 201.96 C 80.09 203.91 83.08 203.68 85.81 203.66 C 85.26 202.12 84.71 200.59 84.17 199.05 C 84.87 197.92 85.57 196.80 86.29 195.69 C 88.59 198.49 88.21 201.94 87.34 205.21 C 90.22 206.35 93.14 207.45 96.21 207.94 C 104.10 208.90 111.92 211.12 119.94 210.26 C 126.47 209.36 133.28 209.71 139.51 207.23 C 144.68 205.15 150.21 203.89 154.97 200.89 C 161.45 197.53 169.34 195.22 173.37 188.64 C 172.93 186.81 172.08 185.10 171.37 183.36 C 174.52 183.45 178.16 185.30 180.89 182.91 C 185.40 179.29 187.71 173.78 191.50 169.52 C 194.72 165.91 197.13 161.56 198.02 156.77 C 193.68 156.75 189.34 157.83 185.01 157.11 C 180.00 156.05 174.99 158.18 169.99 157.06 C 165.31 156.01 160.62 157.73 155.94 156.96 C 150.94 156.10 145.97 158.19 140.99 157.04 C 136.85 156.07 132.72 157.63 128.57 157.34 C 120.23 156.26 111.73 156.23 103.39 157.34 C 100.92 157.62 98.45 157.16 96.01 156.86 C 91.63 156.22 87.28 158.06 82.91 157.10 C 78.47 156.02 74.03 157.63 69.58 157.34 C 61.25 156.24 52.76 156.27 44.43 157.31 C 40.56 157.57 36.74 156.55 32.87 156.65 Z" />
<path fill="#030303" opacity="1.00" d=" M 53.12 25.07 C 54.92 23.76 57.12 23.34 59.26 22.98 C 56.78 27.60 51.78 29.71 47.87 32.87 C 26.90 49.35 12.58 73.95 8.33 100.27 C 6.97 106.43 7.55 112.75 7.47 119.00 C 7.50 123.67 7.09 128.38 8.00 133.00 C 8.79 137.26 9.58 141.52 9.84 145.86 C 9.24 145.75 8.04 145.53 7.44 145.42 C 5.64 138.66 4.72 131.71 4.15 124.75 C 3.24 119.71 3.61 114.59 4.33 109.57 C 6.20 83.60 17.21 58.17 35.83 39.84 C 41.14 34.42 46.87 29.38 53.12 25.07 Z" />
<path fill="#030303" opacity="1.00" d=" M 166.74 26.47 C 173.11 27.67 177.85 32.39 182.80 36.20 C 199.76 50.07 211.75 69.51 217.60 90.54 C 219.37 97.55 220.82 104.74 220.51 112.01 C 220.25 121.26 221.34 130.71 218.78 139.74 C 218.35 141.38 216.75 142.26 215.65 143.40 C 216.21 136.57 217.73 129.86 218.43 123.05 C 219.18 108.13 215.93 93.20 210.71 79.28 C 203.39 61.80 191.69 45.89 176.08 34.94 C 172.72 32.41 168.30 30.73 166.74 26.47 Z" />
<path fill="#030303" opacity="1.00" d=" M 41.99 41.99 C 47.74 36.53 53.53 30.39 61.31 27.96 C 60.20 32.00 56.31 33.87 53.24 36.22 C 31.97 52.10 17.70 76.69 13.81 102.90 C 12.28 108.19 12.96 113.60 13.22 118.99 C 11.73 126.32 14.60 133.44 14.84 140.73 C 14.18 140.70 12.86 140.63 12.20 140.59 C 10.68 134.39 10.60 127.99 9.67 121.71 C 8.85 115.44 10.44 109.24 10.85 103.01 C 14.07 79.99 24.87 57.85 41.99 41.99 Z" />
<path fill="#030303" opacity="1.00" d=" M 122.21 87.90 C 134.01 87.25 145.84 87.75 157.66 87.62 C 157.82 87.94 158.14 88.59 158.30 88.91 C 157.48 90.94 155.99 92.99 156.52 95.30 C 157.40 99.31 159.01 103.12 160.46 106.96 C 163.99 101.53 167.15 94.72 164.23 88.32 C 171.39 87.25 178.73 87.24 185.89 88.38 C 184.46 92.12 182.62 96.16 184.68 100.07 C 186.35 98.34 188.46 96.81 189.38 94.51 C 189.81 92.35 190.00 90.16 190.22 87.97 C 193.11 88.09 198.14 86.04 199.31 89.78 C 196.68 93.27 190.49 95.49 191.45 100.64 C 194.22 106.01 198.19 111.16 203.70 113.96 C 203.22 115.08 202.85 116.31 201.93 117.16 C 198.17 117.82 194.34 117.35 190.57 117.06 C 190.36 114.89 190.65 112.52 189.45 110.59 C 188.20 108.67 186.37 107.25 184.71 105.72 C 182.57 109.32 184.44 113.06 185.93 116.46 C 181.72 117.72 177.27 117.69 173.05 116.44 C 177.42 108.69 177.94 98.61 174.07 90.58 C 172.27 91.91 170.21 93.17 169.37 95.36 C 167.19 100.45 165.14 105.60 163.00 110.71 C 161.87 113.25 161.38 116.20 159.46 118.29 C 157.07 119.26 156.40 116.43 155.61 114.81 C 153.17 108.32 150.85 101.78 147.97 95.46 C 146.10 95.30 143.97 95.73 142.37 94.49 C 140.13 93.16 138.01 90.74 135.13 91.57 C 131.53 92.34 132.72 96.57 132.34 99.23 C 133.00 99.38 134.32 99.67 134.97 99.81 C 136.51 98.65 138.05 97.49 139.61 96.36 C 140.56 100.05 140.61 103.91 139.83 107.64 C 137.56 105.84 135.17 104.17 132.49 103.04 C 131.13 106.97 130.99 112.35 135.55 114.19 C 140.09 115.36 143.40 110.76 146.61 108.32 C 147.44 111.08 147.49 113.96 146.86 116.76 C 138.98 117.73 130.89 117.91 123.03 116.72 C 123.69 114.19 124.56 111.68 124.62 109.05 C 124.67 101.94 125.56 94.47 122.21 87.90 Z" />
<path fill="#030303" opacity="1.00" d=" M 46.37 110.62 C 66.42 110.21 86.49 110.66 106.55 110.40 C 106.81 113.68 105.99 117.19 103.38 119.39 C 101.18 120.74 98.48 120.39 96.02 120.49 C 81.32 120.32 66.63 120.55 51.94 120.39 C 47.42 120.75 42.91 114.07 46.37 110.62 Z" />
<path fill="#030303" opacity="1.00" d=" M 10.88 148.87 C 12.43 147.14 14.66 146.44 16.84 145.92 C 17.27 149.81 14.92 152.82 12.36 155.43 C 15.46 156.51 18.57 157.53 21.66 158.64 C 21.48 159.96 21.32 161.28 21.15 162.60 C 16.02 161.57 10.11 162.49 5.70 159.24 C 4.21 154.89 8.19 151.62 10.88 148.87 Z" />
<path fill="#030303" opacity="1.00" d=" M 209.14 161.15 C 210.68 156.18 212.77 151.38 215.87 147.19 C 219.37 148.47 225.45 147.50 226.43 152.08 C 226.54 157.57 223.66 162.58 220.77 167.07 C 216.65 165.61 212.79 163.53 209.14 161.15 M 219.50 155.27 C 219.43 156.79 219.36 158.31 219.29 159.83 C 219.82 159.71 220.87 159.48 221.40 159.36 C 221.85 158.18 222.31 157.00 222.78 155.82 C 221.68 155.63 220.59 155.45 219.50 155.27 Z" />
<path fill="#030303" opacity="1.00" d=" M 16.39 165.21 C 19.97 163.28 23.90 166.13 26.07 168.92 C 28.98 172.70 31.41 178.56 27.89 182.75 C 26.46 185.03 23.42 184.86 21.14 184.25 C 17.06 182.14 14.31 177.99 12.99 173.68 C 11.90 170.56 13.27 166.57 16.39 165.21 M 17.31 169.83 C 17.36 171.78 17.30 173.74 17.58 175.68 C 18.02 179.00 22.97 181.32 25.10 178.10 C 27.44 173.52 21.96 168.21 17.31 169.83 Z" />
<path fill="#030303" opacity="1.00" d=" M 207.57 166.52 C 211.06 165.87 214.97 167.13 217.46 169.63 C 218.88 170.93 217.86 172.72 217.45 174.22 C 215.90 178.62 212.93 182.30 210.09 185.94 C 206.23 183.74 202.72 181.01 199.46 178.01 C 201.83 173.99 203.75 169.41 207.57 166.52 M 210.77 173.84 C 210.22 175.47 209.66 177.10 209.11 178.74 C 210.17 178.57 211.24 178.40 212.30 178.23 C 212.81 176.59 213.34 174.95 213.85 173.32 C 212.82 173.49 211.79 173.66 210.77 173.84 Z" />
<path fill="#030303" opacity="1.00" d=" M 70.79 180.86 C 72.22 182.26 73.65 183.67 75.07 185.09 C 73.59 185.95 72.34 187.79 70.44 187.45 C 68.37 185.55 70.06 182.95 70.79 180.86 Z" />
<path fill="#030303" opacity="1.00" d=" M 86.28 181.04 C 87.20 182.35 88.12 183.67 89.04 184.99 C 88.07 185.97 87.10 186.95 86.12 187.92 C 85.14 186.94 84.15 185.96 83.18 184.98 C 84.22 183.67 85.25 182.36 86.28 181.04 Z" />
<path fill="#030303" opacity="1.00" d=" M 97.41 185.35 C 98.61 184.19 99.82 183.04 101.02 181.88 C 102.20 183.06 103.39 184.25 104.56 185.45 C 102.29 186.97 99.73 186.41 97.41 185.35 Z" />
<path fill="#030303" opacity="1.00" d=" M 195.38 184.98 C 195.10 183.44 195.59 182.17 196.84 181.19 C 200.40 182.16 203.35 184.80 205.28 187.87 C 206.64 191.00 204.57 194.24 202.55 196.53 C 200.63 198.59 198.10 200.80 195.08 200.52 C 191.28 199.25 188.80 195.86 186.13 193.08 C 187.09 192.08 188.06 191.08 189.03 190.08 C 191.30 191.73 193.46 193.56 195.91 194.95 C 198.41 196.92 202.27 193.36 201.24 190.70 C 199.47 188.61 197.12 187.10 195.38 184.98 Z" />
<path fill="#030303" opacity="1.00" d=" M 23.87 190.00 C 26.87 186.86 30.24 184.10 34.00 181.91 C 34.95 182.92 35.90 183.95 36.84 184.98 C 34.62 187.33 32.35 189.65 30.13 192.00 C 31.94 195.05 36.58 198.10 34.57 202.00 C 30.63 198.35 27.02 194.35 23.87 190.00 Z" />
<path fill="#030303" opacity="1.00" d=" M 36.37 203.00 C 37.95 198.89 41.92 196.33 44.93 193.31 C 45.97 194.20 47.00 195.10 48.04 196.00 C 46.22 198.83 44.26 201.55 42.21 204.22 C 44.85 206.71 47.59 209.09 50.14 211.67 C 48.67 212.52 47.01 212.50 45.68 211.41 C 42.17 209.13 38.79 206.45 36.37 203.00 Z" />
<path fill="#030303" opacity="1.00" d=" M 130.42 195.54 C 131.53 197.97 131.74 200.62 131.29 203.24 C 130.03 202.23 128.77 201.20 127.51 200.18 C 128.48 198.63 129.44 197.08 130.42 195.54 Z" />
<path fill="#030303" opacity="1.00" d=" M 101.10 196.86 C 102.21 197.92 103.32 198.98 104.43 200.04 C 103.30 200.76 102.16 201.48 101.02 202.18 C 100.24 201.46 99.46 200.74 98.68 200.03 C 99.49 198.97 100.29 197.92 101.10 196.86 Z" />
<path fill="#030303" opacity="1.00" d=" M 174.00 202.83 C 175.33 202.18 176.66 201.53 177.99 200.87 C 179.90 203.20 181.80 205.55 183.72 207.87 C 187.09 206.38 190.17 201.89 194.11 203.63 C 190.72 207.79 186.35 210.97 181.91 213.91 C 178.93 210.47 176.23 206.80 174.00 202.83 Z" />
<path fill="#030303" opacity="1.00" d=" M 49.18 213.24 C 51.96 209.93 54.69 206.57 57.74 203.51 C 62.31 206.08 67.52 208.07 70.58 212.59 C 67.25 212.59 64.10 211.49 61.10 210.14 C 63.13 211.85 65.07 213.66 66.85 215.62 C 63.25 216.26 60.08 214.20 56.78 213.15 C 58.89 216.76 62.77 218.61 65.70 221.41 C 59.11 222.43 53.87 217.07 49.18 213.24 Z" />
<path fill="#030303" opacity="1.00" d=" M 164.36 212.52 C 166.14 209.77 168.09 207.13 170.42 204.82 C 170.92 207.35 170.58 209.90 169.64 212.28 C 173.03 213.23 176.38 214.36 179.48 216.04 C 175.47 218.20 170.88 217.55 166.54 217.35 C 166.49 219.38 166.44 221.41 166.37 223.45 C 164.85 223.50 163.33 223.55 161.82 223.62 C 160.22 219.61 157.48 215.59 158.66 211.07 C 160.57 211.50 162.47 212.00 164.36 212.52 Z" />
<path fill="#030303" opacity="1.00" d=" M 70.41 212.08 C 71.69 212.25 72.97 212.41 74.26 212.58 C 75.34 214.53 76.46 216.46 77.51 218.43 C 80.35 217.36 83.38 215.81 86.34 217.51 C 82.71 220.68 79.36 224.15 75.74 227.33 C 75.27 227.41 74.32 227.58 73.85 227.66 C 73.08 222.39 72.53 217.03 70.41 212.08 Z" />
<path fill="#030303" opacity="1.00" d=" M 142.23 218.97 C 143.26 218.01 144.28 217.05 145.31 216.09 C 147.32 219.12 148.88 222.41 150.31 225.74 C 153.90 224.85 157.78 222.35 161.34 224.70 C 156.58 227.69 151.17 229.70 145.52 229.88 C 144.34 226.26 143.30 222.61 142.23 218.97 Z" />
<path fill="#030303" opacity="1.00" d=" M 88.80 218.33 C 93.77 218.56 99.26 218.58 103.48 221.57 C 105.02 224.43 104.40 227.90 104.29 231.01 C 102.47 232.96 99.75 233.84 97.13 233.47 C 93.43 233.02 89.65 232.32 86.32 230.60 C 85.71 226.34 87.65 222.32 88.80 218.33 M 91.45 227.21 C 91.56 228.22 91.67 229.24 91.77 230.26 C 94.06 230.32 96.35 230.40 98.64 230.49 C 98.58 229.94 98.45 228.84 98.39 228.28 C 96.09 227.85 93.78 227.50 91.45 227.21 Z" />
<path fill="#030303" opacity="1.00" d=" M 126.65 223.92 C 126.37 221.70 128.83 220.81 130.20 219.65 C 131.40 222.83 132.31 226.11 132.95 229.46 C 136.68 229.61 140.87 228.34 144.07 230.87 C 139.12 232.65 133.87 233.37 128.64 233.74 C 127.82 230.51 126.83 227.27 126.65 223.92 Z" />
<path fill="#030303" opacity="1.00" d=" M 105.35 233.33 C 107.42 229.05 110.31 225.24 112.94 221.30 C 114.56 221.47 116.23 221.40 117.79 221.92 C 121.05 225.16 123.35 229.27 125.49 233.30 C 125.14 233.62 124.44 234.24 124.09 234.56 C 121.34 233.95 118.80 232.49 115.96 232.33 C 112.75 232.13 109.89 233.87 106.85 234.58 C 106.48 234.27 105.72 233.65 105.35 233.33 Z" />
</g>
</svg>
