<?xml version="1.0" encoding="UTF-8" ?>
<!DOCTYPE svg PUBLIC "-//W3C//DTD SVG 1.1//EN" "http://www.w3.org/Graphics/SVG/1.1/DTD/svg11.dtd">
<svg width="320pt" height="320pt" viewBox="0 0 320 320" version="1.1" xmlns="http://www.w3.org/2000/svg">
<g id="#fefefeff">
<path fill="#fefefe" opacity="1.00" d=" M 102.14 25.48 C 119.81 18.15 138.82 13.65 158.00 13.55 C 182.70 13.02 207.52 18.97 229.29 30.67 C 247.65 40.71 264.00 54.56 276.76 71.16 C 296.66 97.24 307.60 130.17 306.60 163.00 C 306.26 195.68 294.09 228.06 273.19 253.16 C 256.28 273.72 233.67 289.52 208.55 298.36 C 177.49 309.24 142.70 309.15 111.71 298.05 C 120.51 293.17 124.09 283.32 129.95 275.72 C 131.80 272.81 135.50 275.30 138.20 275.34 C 136.70 273.47 135.04 270.53 132.18 271.78 C 128.67 273.27 125.34 275.45 122.70 278.19 C 120.91 284.13 118.16 290.09 113.45 294.28 C 109.93 294.88 106.12 296.06 102.69 294.51 C 96.68 292.11 90.99 288.96 85.43 285.65 C 45.11 261.96 17.71 217.66 14.59 170.98 C 13.76 154.83 14.58 138.45 18.89 122.79 C 22.44 110.31 27.03 98.00 33.80 86.87 C 49.05 59.63 73.78 38.23 102.14 25.48 M 146.47 21.60 C 147.30 31.45 148.37 41.28 148.58 51.16 C 150.88 51.24 153.19 51.25 155.49 51.25 C 154.65 41.23 153.71 31.21 153.30 21.17 C 151.02 21.22 148.74 21.36 146.47 21.60 M 161.85 20.46 C 161.64 30.60 160.72 40.70 160.14 50.82 C 164.69 51.14 169.51 51.54 173.81 49.71 C 177.94 47.41 179.95 42.58 180.19 38.03 C 180.39 33.54 180.61 28.31 177.15 24.88 C 173.32 20.67 167.16 20.41 161.85 20.46 M 183.18 53.71 C 184.87 54.03 186.55 54.35 188.24 54.67 C 189.46 51.63 190.58 48.54 191.98 45.58 C 192.42 48.82 192.33 52.13 193.02 55.34 C 194.44 57.32 197.42 57.05 199.52 57.88 C 199.02 53.60 198.13 49.31 198.39 44.98 C 199.94 42.30 202.90 40.71 204.26 37.88 C 204.86 35.38 204.96 32.68 204.22 30.20 C 201.09 26.03 195.58 25.24 190.83 24.24 C 188.65 34.16 184.53 43.61 183.18 53.71 M 109.12 30.03 C 111.48 39.65 114.78 49.01 116.78 58.72 C 121.62 58.29 126.93 57.10 130.09 53.07 C 133.24 49.63 132.87 44.54 131.97 40.31 C 130.60 35.70 128.66 30.20 123.69 28.45 C 118.86 26.34 113.80 28.67 109.12 30.03 M 201.49 59.14 C 205.33 61.03 209.17 63.07 213.41 63.94 C 214.05 62.30 214.70 60.66 215.36 59.03 C 213.45 57.90 211.55 56.76 209.67 55.59 C 210.58 53.76 211.52 51.95 212.49 50.16 C 214.39 50.94 216.30 51.73 218.21 52.52 C 218.78 50.63 219.37 48.75 219.91 46.84 C 218.37 46.30 216.83 45.75 215.30 45.22 C 215.56 43.50 215.83 41.78 216.14 40.07 C 218.70 40.47 221.22 41.11 223.74 41.72 C 224.33 40.14 224.91 38.55 225.50 36.95 C 221.96 35.00 218.33 33.25 214.70 31.50 C 209.29 40.18 205.49 49.76 201.49 59.14 M 94.40 37.65 C 96.84 42.55 99.56 47.31 101.76 52.32 C 97.21 49.02 93.43 44.78 88.91 41.45 C 86.89 41.39 85.02 42.35 83.11 42.87 C 84.80 48.92 88.59 54.01 91.29 59.60 C 93.03 62.96 94.42 66.52 96.58 69.63 C 98.61 70.98 102.87 68.33 101.17 65.81 C 98.94 61.15 96.02 56.85 94.10 52.03 C 99.25 55.41 102.88 60.69 108.24 63.75 C 110.29 63.78 111.94 62.22 113.70 61.35 C 110.19 54.86 106.75 48.33 103.35 41.78 C 102.07 39.47 100.87 37.05 98.98 35.17 C 97.39 35.88 95.91 36.80 94.40 37.65 M 229.72 44.14 C 230.43 45.99 231.17 47.84 231.85 49.71 C 227.55 56.02 222.40 61.84 219.19 68.82 C 220.84 69.75 222.49 70.67 224.14 71.59 C 228.85 66.03 232.15 59.41 236.96 53.95 C 239.65 53.03 245.30 53.52 244.38 49.22 C 240.94 45.68 236.61 43.14 232.18 41.07 C 231.36 42.09 230.54 43.12 229.72 44.14 M 67.78 55.24 C 72.87 62.25 80.78 67.04 84.28 75.21 C 82.61 75.70 80.57 77.68 78.95 76.06 C 73.17 71.26 68.60 65.17 63.00 60.16 C 61.50 61.63 59.99 63.10 58.49 64.57 C 64.28 70.08 69.07 76.59 75.26 81.67 C 82.26 87.69 94.25 76.57 88.84 69.03 C 83.79 62.88 78.15 57.24 72.65 51.51 C 71.02 52.74 69.39 53.99 67.78 55.24 M 248.97 52.69 C 248.11 53.80 247.19 54.87 246.47 56.08 C 246.60 57.76 247.26 59.33 247.72 60.94 C 242.50 66.63 236.92 72.00 232.13 78.08 C 233.62 79.37 234.88 81.10 236.81 81.76 C 242.62 77.05 246.49 70.30 252.50 65.81 C 255.34 65.64 258.30 65.85 260.78 64.13 C 257.44 59.76 253.30 56.06 248.97 52.69 M 144.44 54.88 C 117.15 58.86 91.77 74.21 75.43 96.41 C 66.52 107.96 60.56 121.58 56.98 135.67 C 54.28 146.55 54.29 157.85 54.60 168.98 C 55.47 180.61 58.67 191.98 63.21 202.69 C 77.89 236.89 111.81 262.26 149.04 265.51 C 160.09 265.84 171.28 266.26 182.18 264.03 C 207.25 258.76 230.36 244.24 245.52 223.52 C 256.84 208.41 264.05 190.16 265.83 171.34 C 270.38 135.08 253.73 97.31 224.69 75.36 C 202.14 58.10 172.50 50.54 144.44 54.88 M 257.00 73.91 C 253.82 77.02 254.36 81.83 253.37 85.83 C 253.30 88.14 250.53 87.46 249.01 87.94 C 248.23 86.00 247.47 84.05 246.70 82.11 C 245.25 83.35 243.39 84.32 242.51 86.08 C 241.65 89.56 244.81 92.19 247.27 94.05 C 251.22 95.75 256.27 94.19 258.63 90.57 C 260.93 86.90 259.28 82.01 261.53 78.37 C 262.25 76.92 263.95 77.24 265.25 77.47 C 266.51 79.03 267.21 80.94 268.08 82.73 C 269.64 80.88 272.37 79.12 271.51 76.33 C 270.71 74.05 268.75 72.25 266.57 71.28 C 263.25 69.67 259.45 71.58 257.00 73.91 M 50.69 73.55 C 45.58 77.29 47.38 86.08 53.20 88.06 C 57.58 89.29 62.20 88.30 66.68 88.39 C 67.35 89.20 68.02 90.01 68.69 90.82 C 67.02 92.82 65.40 94.87 63.96 97.05 C 65.90 97.69 67.82 99.06 69.96 98.58 C 72.78 96.31 75.14 92.75 74.55 88.98 C 74.21 86.07 72.04 83.67 69.49 82.40 C 64.52 79.68 58.30 84.62 53.87 80.38 C 54.97 78.52 56.20 76.73 57.11 74.76 C 56.35 72.21 52.50 71.56 50.69 73.55 M 267.67 91.44 C 262.48 94.40 257.21 97.21 252.02 100.16 C 254.66 105.64 257.55 111.01 260.24 116.47 C 262.33 116.70 264.41 116.96 266.48 117.28 C 267.25 120.37 265.73 122.96 263.72 125.16 C 264.34 126.79 264.97 128.43 265.61 130.06 C 274.34 124.57 282.53 118.25 290.75 112.03 C 290.17 110.20 289.66 108.35 288.87 106.60 C 285.45 106.30 282.08 107.12 278.75 107.73 C 272.61 108.94 266.45 110.00 260.29 111.07 C 261.06 110.30 261.82 109.52 262.59 108.75 C 262.06 106.75 261.51 104.75 261.00 102.75 C 267.23 98.37 274.22 95.28 280.80 91.50 C 280.30 89.72 279.79 87.95 279.30 86.17 C 274.91 86.59 271.38 89.36 267.67 91.44 M 34.11 101.99 C 42.67 107.14 51.52 111.79 60.31 116.54 C 61.14 114.89 62.41 113.33 62.59 111.43 C 60.95 109.52 58.72 108.25 56.83 106.64 C 59.73 106.53 62.65 106.83 65.54 106.48 C 66.84 105.04 67.83 103.37 68.93 101.78 C 64.22 100.88 59.48 100.30 54.73 99.72 C 53.25 95.27 50.23 90.42 44.95 90.42 C 38.57 90.16 36.40 97.34 34.11 101.99 M 27.79 116.49 C 27.40 118.55 26.99 120.61 26.59 122.67 C 35.66 127.45 44.36 132.89 53.36 137.78 C 53.84 136.24 54.46 134.72 54.63 133.10 C 53.73 131.41 52.37 130.02 51.17 128.55 C 51.30 127.28 51.43 126.02 51.56 124.76 C 53.71 124.38 55.86 123.99 58.00 123.57 C 58.29 121.90 58.57 120.24 58.86 118.57 C 48.55 117.44 38.18 116.32 27.79 116.49 M 270.27 133.13 C 266.30 136.33 266.54 142.74 269.59 146.47 C 274.06 150.31 280.34 149.79 285.83 149.58 C 285.77 145.51 285.61 141.38 284.29 137.49 C 282.93 137.72 281.57 137.96 280.22 138.21 C 279.93 140.10 279.67 142.01 279.43 143.91 C 277.71 143.77 275.99 143.63 274.28 143.50 C 273.92 142.02 273.54 140.54 273.38 139.02 C 277.80 133.74 285.38 134.48 291.55 134.71 C 291.87 138.03 290.77 141.15 289.20 144.03 C 290.17 145.28 291.15 146.54 292.14 147.80 C 294.64 145.62 297.68 143.42 298.34 139.93 C 298.99 134.98 295.54 129.75 290.53 128.82 C 283.60 127.54 275.91 128.68 270.27 133.13 M 23.61 133.42 C 23.06 137.73 22.41 142.04 22.34 146.40 C 32.33 147.41 42.15 149.89 52.20 150.32 C 52.33 148.72 52.46 147.12 52.59 145.53 C 48.63 143.97 44.40 143.43 40.23 142.81 C 40.37 140.52 40.53 138.24 40.66 135.95 C 39.06 135.78 37.47 135.61 35.87 135.44 C 35.31 137.51 34.76 139.59 34.22 141.67 C 32.34 141.52 30.47 141.38 28.60 141.23 C 28.93 138.69 29.28 136.16 29.53 133.61 C 27.56 133.54 25.59 133.48 23.61 133.42 M 224.86 271.32 C 225.95 274.45 228.14 278.67 232.00 278.37 C 240.18 277.79 240.28 264.01 232.92 261.87 C 230.95 261.58 228.95 261.65 226.97 261.60 C 228.34 258.09 229.75 254.60 230.91 251.02 C 225.07 255.81 222.14 264.08 224.86 271.32 M 90.86 261.14 C 90.71 265.28 92.12 269.38 91.52 273.52 C 89.95 277.26 83.89 275.75 83.54 272.02 C 83.52 269.91 84.11 267.86 84.47 265.80 C 82.46 267.77 80.51 269.80 78.63 271.89 C 81.84 274.41 84.71 278.18 89.11 278.41 C 92.64 278.88 95.88 275.45 95.55 272.00 C 95.30 267.83 94.40 263.71 94.56 259.51 C 96.29 259.65 98.15 259.25 99.78 259.97 C 101.97 261.77 101.36 264.87 101.73 267.36 C 103.17 265.94 104.63 264.54 106.08 263.13 C 102.97 260.45 99.84 256.40 95.18 257.34 C 92.89 257.19 91.50 259.21 90.86 261.14 M 209.55 264.90 C 214.53 271.19 214.14 279.74 214.73 287.32 C 216.12 286.73 217.52 286.13 218.92 285.53 C 216.02 278.07 215.82 269.98 214.20 262.22 C 212.65 263.11 211.10 264.01 209.55 264.90 M 103.50 272.65 C 100.88 276.22 96.54 278.88 96.01 283.61 C 97.07 283.57 98.12 283.53 99.18 283.49 C 101.00 279.90 103.57 276.61 106.94 274.37 C 108.75 274.08 110.58 274.39 112.35 274.76 C 112.67 276.36 112.46 278.04 111.30 279.27 C 109.16 282.09 106.90 284.91 105.96 288.40 C 107.88 288.40 109.81 288.39 111.74 288.35 C 111.83 283.46 114.79 279.51 117.63 275.79 C 114.99 274.77 112.28 273.93 109.49 273.48 C 110.05 271.73 110.63 269.98 111.24 268.24 C 108.45 269.30 105.21 269.93 103.50 272.65 M 117.26 270.18 C 117.69 271.37 118.23 272.51 118.75 273.67 C 119.85 272.41 120.94 271.14 122.01 269.86 C 120.43 269.82 118.73 269.39 117.26 270.18 M 192.44 282.41 C 193.71 285.65 197.64 285.28 200.45 285.82 C 198.62 289.15 196.29 292.15 194.13 295.27 C 201.22 292.36 205.61 284.59 204.85 277.03 C 204.75 273.65 203.11 268.90 198.91 269.43 C 192.37 268.67 189.86 277.61 192.44 282.41 M 178.13 297.60 C 179.60 297.31 181.08 297.02 182.55 296.73 C 182.10 288.95 183.57 281.26 184.29 273.55 C 183.36 273.50 181.49 273.42 180.56 273.38 C 180.64 281.51 180.01 289.67 178.13 297.60 M 132.53 282.29 C 130.99 286.26 128.84 290.00 127.66 294.11 C 128.62 296.21 130.63 294.96 132.25 294.58 C 131.40 287.72 137.70 283.09 139.74 277.03 C 137.21 278.52 133.67 279.27 132.53 282.29 M 158.37 285.09 C 157.62 289.65 156.22 294.07 155.27 298.60 C 158.02 299.01 160.51 297.99 162.35 295.97 C 161.13 295.76 159.91 295.57 158.69 295.40 C 160.26 290.08 163.24 285.15 163.64 279.53 C 161.70 281.09 158.57 282.22 158.37 285.09 M 140.39 297.55 C 143.80 297.59 147.58 298.23 150.49 295.99 C 148.15 295.69 145.81 295.54 143.46 295.40 C 142.97 294.19 142.48 292.98 141.99 291.77 C 146.75 291.08 152.17 290.59 154.89 286.00 C 153.45 284.63 152.21 282.35 149.89 282.63 C 142.68 282.56 136.54 290.90 140.39 297.55 Z" />
<path fill="#fefefe" opacity="1.00" d=" M 167.69 26.73 C 169.99 27.56 173.44 28.17 173.68 31.18 C 173.90 34.88 174.47 39.03 172.38 42.33 C 171.36 44.21 169.11 44.65 167.32 45.47 C 167.18 39.22 167.47 32.98 167.69 26.73 Z" />
<path fill="#fefefe" opacity="1.00" d=" M 194.99 31.42 C 195.86 31.38 197.60 31.31 198.47 31.27 C 198.34 33.35 198.98 35.75 197.63 37.55 C 196.47 38.04 195.28 38.47 194.08 38.85 C 194.33 36.37 194.64 33.89 194.99 31.42 Z" />
<path fill="#fefefe" opacity="1.00" d=" M 117.30 33.09 C 119.61 33.70 122.23 34.26 123.56 36.47 C 126.59 40.21 125.63 45.27 125.67 49.70 C 124.37 50.37 123.07 51.04 121.78 51.71 C 119.81 45.64 117.67 39.50 117.30 33.09 Z" />
<path fill="#fefefe" opacity="1.00" d=" M 98.94 81.91 C 113.79 70.15 132.01 62.55 150.94 60.98 C 174.02 58.64 197.88 64.74 216.89 78.09 C 226.46 85.06 234.99 93.43 241.93 103.03 C 252.89 119.16 259.68 138.38 259.66 158.00 C 260.32 178.18 254.19 198.38 243.11 215.19 C 239.16 220.75 234.62 225.88 230.14 231.01 C 227.89 232.76 225.44 234.84 222.41 234.66 C 216.90 234.45 211.42 233.66 205.90 233.55 C 202.92 233.40 198.99 233.18 197.85 229.82 C 196.65 225.76 197.53 221.46 198.14 217.38 C 199.22 211.64 199.49 205.80 200.05 200.00 C 202.79 200.80 205.51 201.69 208.24 202.55 C 209.77 200.40 211.06 197.99 213.10 196.26 C 215.51 194.96 218.40 194.89 220.80 193.57 C 222.38 192.59 223.71 191.28 225.23 190.23 C 228.31 188.06 232.66 188.90 235.65 186.60 C 239.70 181.58 240.18 174.83 242.37 168.96 C 239.65 167.57 236.91 166.23 234.16 164.91 C 235.77 161.66 237.77 158.49 238.42 154.87 C 238.65 151.12 236.16 147.97 234.37 144.89 C 235.28 141.89 236.14 138.89 236.87 135.85 C 234.24 134.36 231.62 132.88 229.03 131.35 C 230.22 127.91 232.10 124.41 231.54 120.66 C 229.78 118.50 227.03 117.57 224.63 116.33 C 224.55 113.47 224.48 110.61 224.32 107.76 C 220.58 105.52 217.08 102.85 214.30 99.47 C 211.47 95.54 205.50 97.26 202.48 93.55 C 198.24 89.31 198.10 82.83 194.86 78.02 C 191.14 73.95 185.07 75.21 180.20 75.68 C 178.59 73.20 177.20 70.43 174.79 68.62 C 172.14 68.16 169.56 69.28 167.03 69.88 C 167.36 76.95 167.99 84.13 166.17 91.07 C 165.13 91.27 164.09 91.48 163.05 91.68 C 161.70 87.98 160.55 84.21 159.54 80.40 C 156.88 80.15 154.22 79.91 151.56 79.68 C 151.67 77.49 151.78 75.31 151.88 73.12 C 147.04 73.11 142.08 72.91 137.41 74.45 C 134.48 75.47 131.23 75.27 128.41 76.59 C 120.93 81.10 112.63 84.04 104.97 88.23 C 103.12 89.18 102.00 91.01 101.37 92.93 C 100.14 96.46 98.91 99.99 97.73 103.53 C 96.55 107.11 97.97 110.87 97.49 114.52 C 96.68 116.53 95.17 118.14 93.89 119.86 C 88.85 126.03 86.29 134.05 86.33 141.98 C 86.36 150.34 86.99 158.70 88.07 166.99 C 88.93 172.89 92.26 178.90 98.17 180.96 C 102.39 182.40 103.34 187.12 105.64 190.40 C 107.67 193.32 110.12 196.35 113.59 197.56 C 119.33 198.55 125.44 193.52 130.78 197.30 C 135.46 200.69 139.62 205.08 142.39 210.18 C 144.03 215.28 143.77 220.92 142.69 226.12 C 141.57 231.40 135.50 232.35 131.34 234.29 C 126.90 235.80 123.67 239.25 120.35 242.37 C 117.84 244.81 114.07 244.44 110.85 244.57 C 107.63 244.39 104.84 242.52 102.30 240.70 C 95.35 235.40 88.47 229.80 83.31 222.66 C 70.90 207.05 62.79 187.84 61.40 167.87 C 61.17 159.91 60.93 151.86 62.34 143.98 C 66.22 119.67 79.59 97.11 98.94 81.91 Z" />
<path fill="#fefefe" opacity="1.00" d=" M 41.18 99.21 C 42.16 98.11 43.14 97.02 44.13 95.94 C 46.79 97.11 49.03 99.03 49.13 102.14 C 46.35 101.54 43.72 100.46 41.18 99.21 Z" />
<path fill="#fefefe" opacity="1.00" d=" M 107.74 107.42 C 113.84 108.46 119.77 110.24 125.69 111.98 C 135.90 114.75 146.15 117.36 156.38 120.05 C 156.43 122.61 156.45 125.17 156.44 127.73 C 143.98 125.07 131.94 120.63 119.31 118.75 C 119.12 123.99 119.12 129.23 119.35 134.46 C 122.94 134.47 126.52 134.53 130.10 134.63 C 130.11 136.92 130.13 139.21 130.15 141.50 C 126.34 141.64 122.53 141.71 118.72 141.74 C 118.59 149.92 118.83 158.10 118.55 166.28 C 115.04 167.56 111.41 168.52 107.71 169.03 C 107.54 148.50 107.46 127.95 107.74 107.42 Z" />
<path fill="#fefefe" opacity="1.00" d=" M 271.03 115.20 C 274.12 114.12 277.28 113.24 280.48 112.55 C 278.08 115.01 275.07 116.72 271.95 118.12 C 271.64 117.15 271.33 116.18 271.03 115.20 Z" />
<path fill="#fefefe" opacity="1.00" d=" M 39.16 122.64 C 41.67 122.68 44.16 122.93 46.65 123.26 C 46.64 123.98 46.63 125.41 46.62 126.12 C 43.87 125.62 40.89 125.12 39.16 122.64 Z" />
<path fill="#fefefe" opacity="1.00" d=" M 168.59 124.21 C 171.14 124.63 174.34 123.87 176.29 125.99 C 177.08 131.86 176.01 137.84 177.09 143.70 C 187.02 140.91 197.01 138.28 207.01 135.69 C 212.84 134.23 218.71 136.25 224.19 138.15 C 216.72 140.87 208.82 142.07 201.22 144.35 C 190.33 147.09 179.71 150.95 168.61 152.79 C 168.34 143.27 168.35 133.73 168.59 124.21 Z" />
<path fill="#fefefe" opacity="1.00" d=" M 142.66 134.66 C 145.28 134.58 147.91 134.52 150.54 134.48 C 150.83 142.45 150.91 150.45 150.49 158.43 C 147.92 158.61 145.37 158.78 142.81 158.94 C 142.46 150.85 142.54 142.75 142.66 134.66 Z" />
<path fill="#fefefe" opacity="1.00" d=" M 168.61 206.96 C 168.39 204.43 168.94 201.94 170.21 199.75 C 171.84 206.06 171.69 212.63 171.62 219.09 C 171.71 221.73 170.32 224.03 169.14 226.29 C 168.42 219.87 168.91 213.40 168.61 206.96 Z" />
<path fill="#fefefe" opacity="1.00" d=" M 182.63 222.80 C 182.43 215.04 182.89 206.85 186.29 199.75 C 186.78 205.50 186.55 211.29 186.47 217.05 C 186.43 219.52 185.90 223.08 182.63 222.80 Z" />
<path fill="#fefefe" opacity="1.00" d=" M 153.53 206.13 C 153.49 204.69 154.74 203.74 155.51 202.68 C 156.91 208.46 157.24 214.74 155.15 220.41 C 154.60 215.65 153.41 210.94 153.53 206.13 Z" />
<path fill="#fefefe" opacity="1.00" d=" M 175.13 237.59 C 178.62 237.44 181.50 239.73 184.74 240.61 C 187.22 241.07 189.76 240.52 192.26 240.73 C 194.62 240.99 196.77 242.17 199.13 242.46 C 201.70 242.28 204.01 240.62 206.62 240.72 C 209.32 241.16 211.87 242.21 214.43 243.14 C 186.30 262.60 147.47 264.57 117.04 249.26 C 121.27 247.82 126.61 248.53 129.83 244.95 C 131.36 243.47 132.71 241.77 134.51 240.60 C 142.27 239.27 150.24 241.69 157.93 239.76 C 163.58 238.55 169.35 237.78 175.13 237.59 Z" />
<path fill="#fefefe" opacity="1.00" d=" M 227.02 265.47 C 228.82 265.18 231.01 263.45 232.53 265.26 C 236.20 268.13 235.69 273.29 234.26 277.20 C 228.66 276.21 227.72 270.12 227.02 265.47 Z" />
<path fill="#fefefe" opacity="1.00" d=" M 196.50 282.50 C 193.35 278.64 194.51 273.01 198.00 269.77 C 202.79 273.07 201.95 279.24 200.72 284.12 C 199.29 283.62 197.83 283.20 196.50 282.50 Z" />
<path fill="#fefefe" opacity="1.00" d=" M 143.14 290.27 C 144.47 286.88 147.21 284.37 150.96 284.14 C 150.84 285.06 150.60 286.88 150.48 287.80 C 148.09 288.76 145.65 289.62 143.14 290.27 Z" />
</g>
<g id="#030303ff">
<path fill="#030303" opacity="1.00" d=" M 150.72 0.00 L 169.29 0.00 C 201.38 2.37 233.02 13.62 258.33 33.68 C 283.43 53.25 302.66 80.31 312.25 110.71 C 316.59 123.64 318.78 137.17 320.00 150.72 L 320.00 169.29 C 317.57 200.86 306.75 232.10 287.17 257.17 C 268.01 282.20 241.42 301.55 211.49 311.53 C 197.88 316.24 183.58 318.62 169.28 320.00 L 151.68 320.00 C 133.90 318.58 116.19 315.08 99.66 308.24 C 69.06 296.03 43.00 273.66 25.01 246.18 C 16.88 233.28 10.65 219.21 6.32 204.60 C 2.93 193.10 1.22 181.20 0.00 169.30 L 0.00 150.71 C 1.51 134.90 4.32 119.10 10.04 104.24 C 15.95 88.02 24.56 72.80 35.48 59.42 C 52.31 39.06 73.75 22.23 98.35 12.31 C 114.93 5.19 132.81 1.65 150.72 0.00 M 102.14 25.48 C 73.78 38.23 49.05 59.63 33.80 86.87 C 27.03 98.00 22.44 110.31 18.89 122.79 C 14.58 138.45 13.76 154.83 14.59 170.98 C 17.71 217.66 45.11 261.96 85.43 285.65 C 90.99 288.96 96.68 292.11 102.69 294.51 C 106.12 296.06 109.93 294.88 113.45 294.28 C 118.16 290.09 120.91 284.13 122.70 278.19 C 125.34 275.45 128.67 273.27 132.18 271.78 C 135.04 270.53 136.70 273.47 138.20 275.34 C 135.50 275.30 131.80 272.81 129.95 275.72 C 124.09 283.32 120.51 293.17 111.71 298.05 C 142.70 309.15 177.49 309.24 208.55 298.36 C 233.67 289.52 256.28 273.72 273.19 253.16 C 294.09 228.06 306.26 195.68 306.60 163.00 C 307.60 130.17 296.66 97.24 276.76 71.16 C 264.00 54.56 247.65 40.71 229.29 30.67 C 207.52 18.97 182.70 13.02 158.00 13.55 C 138.82 13.65 119.81 18.15 102.14 25.48 Z" />
<path fill="#030303" opacity="1.00" d=" M 146.47 21.60 C 148.74 21.36 151.02 21.22 153.30 21.17 C 153.71 31.21 154.65 41.23 155.49 51.25 C 153.19 51.25 150.88 51.24 148.58 51.16 C 148.37 41.28 147.30 31.45 146.47 21.60 Z" />
<path fill="#030303" opacity="1.00" d=" M 161.85 20.46 C 167.16 20.41 173.32 20.67 177.15 24.88 C 180.61 28.31 180.39 33.54 180.19 38.03 C 179.95 42.58 177.94 47.41 173.81 49.71 C 169.51 51.54 164.69 51.14 160.14 50.82 C 160.72 40.70 161.64 30.60 161.85 20.46 M 167.69 26.73 C 167.47 32.98 167.18 39.22 167.32 45.47 C 169.11 44.65 171.36 44.21 172.38 42.33 C 174.47 39.03 173.90 34.88 173.68 31.18 C 173.44 28.17 169.99 27.56 167.69 26.73 Z" />
<path fill="#030303" opacity="1.00" d=" M 183.18 53.71 C 184.53 43.61 188.65 34.16 190.83 24.24 C 195.58 25.24 201.09 26.03 204.22 30.20 C 204.96 32.68 204.86 35.38 204.26 37.88 C 202.90 40.71 199.94 42.30 198.39 44.98 C 198.13 49.31 199.02 53.60 199.52 57.88 C 197.42 57.05 194.44 57.32 193.02 55.34 C 192.33 52.13 192.42 48.82 191.98 45.58 C 190.58 48.54 189.46 51.63 188.24 54.67 C 186.55 54.35 184.87 54.03 183.18 53.71 M 194.99 31.42 C 194.64 33.89 194.33 36.37 194.08 38.85 C 195.28 38.47 196.47 38.04 197.63 37.55 C 198.98 35.75 198.34 33.35 198.47 31.27 C 197.60 31.31 195.86 31.38 194.99 31.42 Z" />
<path fill="#030303" opacity="1.00" d=" M 109.12 30.03 C 113.80 28.67 118.86 26.34 123.69 28.45 C 128.66 30.20 130.60 35.70 131.97 40.31 C 132.87 44.54 133.24 49.63 130.09 53.07 C 126.93 57.10 121.62 58.29 116.78 58.72 C 114.78 49.01 111.48 39.65 109.12 30.03 M 117.30 33.09 C 117.67 39.50 119.81 45.64 121.78 51.71 C 123.07 51.04 124.37 50.37 125.67 49.70 C 125.63 45.27 126.59 40.21 123.56 36.47 C 122.23 34.26 119.61 33.70 117.30 33.09 Z" />
<path fill="#030303" opacity="1.00" d=" M 201.49 59.14 C 205.49 49.76 209.29 40.18 214.70 31.50 C 218.33 33.25 221.96 35.00 225.50 36.95 C 224.91 38.55 224.33 40.14 223.74 41.72 C 221.22 41.11 218.70 40.47 216.14 40.07 C 215.83 41.78 215.56 43.50 215.30 45.22 C 216.83 45.75 218.37 46.30 219.91 46.84 C 219.37 48.75 218.78 50.63 218.21 52.52 C 216.30 51.73 214.39 50.94 212.49 50.16 C 211.52 51.95 210.58 53.76 209.67 55.59 C 211.55 56.76 213.45 57.90 215.36 59.03 C 214.70 60.66 214.05 62.30 213.41 63.94 C 209.17 63.07 205.33 61.03 201.49 59.14 Z" />
<path fill="#030303" opacity="1.00" d=" M 94.40 37.65 C 95.91 36.80 97.39 35.88 98.98 35.17 C 100.87 37.05 102.07 39.47 103.35 41.78 C 106.75 48.33 110.19 54.86 113.70 61.35 C 111.94 62.22 110.29 63.78 108.24 63.75 C 102.88 60.69 99.25 55.41 94.10 52.03 C 96.02 56.85 98.94 61.15 101.17 65.81 C 102.87 68.33 98.61 70.98 96.58 69.63 C 94.42 66.52 93.03 62.96 91.29 59.60 C 88.59 54.01 84.80 48.92 83.11 42.87 C 85.02 42.35 86.89 41.39 88.91 41.45 C 93.43 44.78 97.21 49.02 101.76 52.32 C 99.56 47.31 96.84 42.55 94.40 37.65 Z" />
<path fill="#030303" opacity="1.00" d=" M 229.72 44.14 C 230.54 43.12 231.36 42.09 232.18 41.07 C 236.61 43.14 240.94 45.68 244.38 49.22 C 245.30 53.52 239.65 53.03 236.96 53.95 C 232.15 59.41 228.85 66.03 224.14 71.59 C 222.49 70.67 220.84 69.75 219.19 68.82 C 222.40 61.84 227.55 56.02 231.85 49.71 C 231.17 47.84 230.43 45.99 229.72 44.14 Z" />
<path fill="#030303" opacity="1.00" d=" M 67.78 55.24 C 69.39 53.99 71.02 52.74 72.65 51.51 C 78.15 57.24 83.79 62.88 88.84 69.03 C 94.25 76.57 82.26 87.69 75.26 81.67 C 69.07 76.59 64.28 70.08 58.49 64.57 C 59.99 63.10 61.50 61.63 63.00 60.16 C 68.60 65.17 73.17 71.26 78.95 76.06 C 80.57 77.68 82.61 75.70 84.28 75.21 C 80.78 67.04 72.87 62.25 67.78 55.24 Z" />
<path fill="#030303" opacity="1.00" d=" M 248.97 52.69 C 253.30 56.06 257.44 59.76 260.78 64.13 C 258.30 65.85 255.34 65.64 252.50 65.81 C 246.49 70.30 242.62 77.05 236.81 81.76 C 234.88 81.10 233.62 79.37 232.13 78.08 C 236.92 72.00 242.50 66.63 247.72 60.94 C 247.26 59.33 246.60 57.76 246.47 56.08 C 247.19 54.87 248.11 53.80 248.97 52.69 Z" />
<path fill="#030303" opacity="1.00" d=" M 144.44 54.88 C 172.50 50.54 202.14 58.10 224.69 75.36 C 253.73 97.31 270.38 135.08 265.83 171.34 C 264.05 190.16 256.84 208.41 245.52 223.52 C 230.36 244.24 207.25 258.76 182.18 264.03 C 171.28 266.26 160.09 265.84 149.04 265.51 C 111.81 262.26 77.89 236.89 63.21 202.69 C 58.67 191.98 55.47 180.61 54.60 168.98 C 54.29 157.85 54.28 146.55 56.98 135.67 C 60.56 121.58 66.52 107.96 75.43 96.41 C 91.77 74.21 117.15 58.86 144.44 54.88 M 98.94 81.91 C 79.59 97.11 66.22 119.67 62.34 143.98 C 60.93 151.86 61.17 159.91 61.40 167.87 C 62.79 187.84 70.90 207.05 83.31 222.66 C 88.47 229.80 95.35 235.40 102.30 240.70 C 104.84 242.52 107.63 244.39 110.85 244.57 C 112.35 246.30 113.90 247.99 115.49 249.64 C 115.88 249.54 116.65 249.35 117.04 249.26 C 147.47 264.57 186.30 262.60 214.43 243.14 L 215.03 243.36 C 220.22 239.46 226.37 236.51 230.14 231.01 C 234.62 225.88 239.16 220.75 243.11 215.19 C 254.19 198.38 260.32 178.18 259.66 158.00 C 259.68 138.38 252.89 119.16 241.93 103.03 C 234.99 93.43 226.46 85.06 216.89 78.09 C 197.88 64.74 174.02 58.64 150.94 60.98 C 132.01 62.55 113.79 70.15 98.94 81.91 Z" />
<path fill="#030303" opacity="1.00" d=" M 257.00 73.91 C 259.45 71.58 263.25 69.67 266.57 71.28 C 268.75 72.25 270.71 74.05 271.51 76.33 C 272.37 79.12 269.64 80.88 268.08 82.73 C 267.21 80.94 266.51 79.03 265.25 77.47 C 263.95 77.24 262.25 76.92 261.53 78.37 C 259.28 82.01 260.93 86.90 258.63 90.57 C 256.27 94.19 251.22 95.75 247.27 94.05 C 244.81 92.19 241.65 89.56 242.51 86.08 C 243.39 84.32 245.25 83.35 246.70 82.11 C 247.47 84.05 248.23 86.00 249.01 87.94 C 250.53 87.46 253.30 88.14 253.37 85.83 C 254.36 81.83 253.82 77.02 257.00 73.91 Z" />
<path fill="#030303" opacity="1.00" d=" M 50.69 73.55 C 52.50 71.56 56.35 72.21 57.11 74.76 C 56.20 76.73 54.97 78.52 53.87 80.38 C 58.30 84.62 64.52 79.68 69.49 82.40 C 72.04 83.67 74.21 86.07 74.55 88.98 C 75.14 92.75 72.78 96.31 69.96 98.58 C 67.82 99.06 65.90 97.69 63.96 97.05 C 65.40 94.87 67.02 92.82 68.69 90.82 C 68.02 90.01 67.35 89.20 66.68 88.39 C 62.20 88.30 57.58 89.29 53.20 88.06 C 47.38 86.08 45.58 77.29 50.69 73.55 Z" />
<path fill="#030303" opacity="1.00" d=" M 267.67 91.44 C 271.38 89.36 274.91 86.59 279.30 86.17 C 279.79 87.95 280.30 89.72 280.80 91.50 C 274.22 95.28 267.23 98.37 261.00 102.75 C 261.51 104.75 262.06 106.75 262.59 108.75 C 261.82 109.52 261.06 110.30 260.29 111.07 C 266.45 110.00 272.61 108.94 278.75 107.73 C 282.08 107.12 285.45 106.30 288.87 106.60 C 289.66 108.35 290.17 110.20 290.75 112.03 C 282.53 118.25 274.34 124.57 265.61 130.06 C 264.97 128.43 264.34 126.79 263.72 125.16 C 265.73 122.96 267.25 120.37 266.48 117.28 C 264.41 116.96 262.33 116.70 260.24 116.47 C 257.55 111.01 254.66 105.64 252.02 100.16 C 257.21 97.21 262.48 94.40 267.67 91.44 M 271.03 115.20 C 271.33 116.18 271.64 117.15 271.95 118.12 C 275.07 116.72 278.08 115.01 280.48 112.55 C 277.28 113.24 274.12 114.12 271.03 115.20 Z" />
<path fill="#030303" opacity="1.00" d=" M 34.11 101.99 C 36.40 97.34 38.57 90.16 44.95 90.42 C 50.23 90.42 53.25 95.27 54.73 99.72 C 59.48 100.30 64.22 100.88 68.93 101.78 C 67.83 103.37 66.84 105.04 65.54 106.48 C 62.65 106.83 59.73 106.53 56.83 106.64 C 58.72 108.25 60.95 109.52 62.59 111.43 C 62.41 113.33 61.14 114.89 60.31 116.54 C 51.52 111.79 42.67 107.14 34.11 101.99 M 41.18 99.21 C 43.72 100.46 46.35 101.54 49.13 102.14 C 49.03 99.03 46.79 97.11 44.13 95.94 C 43.14 97.02 42.16 98.11 41.18 99.21 Z" />
<path fill="#030303" opacity="1.00" d=" M 27.79 116.49 C 38.18 116.32 48.55 117.44 58.86 118.57 C 58.57 120.24 58.29 121.90 58.00 123.57 C 55.86 123.99 53.71 124.38 51.56 124.76 C 51.43 126.02 51.30 127.28 51.17 128.55 C 52.37 130.02 53.73 131.41 54.63 133.10 C 54.46 134.72 53.84 136.24 53.36 137.78 C 44.36 132.89 35.66 127.45 26.59 122.67 C 26.99 120.61 27.40 118.55 27.79 116.49 M 39.16 122.64 C 40.89 125.12 43.87 125.62 46.62 126.12 C 46.63 125.41 46.64 123.98 46.65 123.26 C 44.16 122.93 41.67 122.68 39.16 122.64 Z" />
<path fill="#030303" opacity="1.00" d=" M 270.27 133.13 C 275.91 128.68 283.60 127.54 290.53 128.82 C 295.54 129.75 298.99 134.98 298.34 139.93 C 297.68 143.42 294.64 145.62 292.14 147.80 C 291.15 146.54 290.17 145.28 289.20 144.03 C 290.77 141.15 291.87 138.03 291.55 134.71 C 285.38 134.48 277.80 133.74 273.38 139.02 C 273.54 140.54 273.92 142.02 274.28 143.50 C 275.99 143.63 277.71 143.77 279.43 143.91 C 279.67 142.01 279.93 140.10 280.22 138.21 C 281.57 137.96 282.93 137.72 284.29 137.49 C 285.61 141.38 285.77 145.51 285.83 149.58 C 280.34 149.79 274.06 150.31 269.59 146.47 C 266.54 142.74 266.30 136.33 270.27 133.13 Z" />
<path fill="#030303" opacity="1.00" d=" M 23.61 133.42 C 25.59 133.48 27.56 133.54 29.53 133.61 C 29.28 136.16 28.93 138.69 28.60 141.23 C 30.47 141.38 32.34 141.52 34.22 141.67 C 34.76 139.59 35.31 137.51 35.87 135.44 C 37.47 135.61 39.06 135.78 40.66 135.95 C 40.53 138.24 40.37 140.52 40.23 142.81 C 44.40 143.43 48.63 143.97 52.59 145.53 C 52.46 147.12 52.33 148.72 52.20 150.32 C 42.15 149.89 32.33 147.41 22.34 146.40 C 22.41 142.04 23.06 137.73 23.61 133.42 Z" />
<path fill="#030303" opacity="1.00" d=" M 224.86 271.32 C 222.14 264.08 225.07 255.81 230.91 251.02 C 229.75 254.60 228.34 258.09 226.97 261.60 C 228.95 261.65 230.95 261.58 232.92 261.87 C 240.28 264.01 240.18 277.79 232.00 278.37 C 228.14 278.67 225.95 274.45 224.86 271.32 M 227.02 265.47 C 227.72 270.12 228.66 276.21 234.26 277.20 C 235.69 273.29 236.20 268.13 232.53 265.26 C 231.01 263.45 228.82 265.18 227.02 265.47 Z" />
<path fill="#030303" opacity="1.00" d=" M 90.86 261.14 C 91.50 259.21 92.89 257.19 95.18 257.34 C 99.84 256.40 102.97 260.45 106.08 263.13 C 104.63 264.54 103.17 265.94 101.73 267.36 C 101.36 264.87 101.97 261.77 99.78 259.97 C 98.15 259.25 96.29 259.65 94.56 259.51 C 94.40 263.71 95.30 267.83 95.55 272.00 C 95.88 275.45 92.64 278.88 89.11 278.41 C 84.71 278.18 81.84 274.41 78.63 271.89 C 80.51 269.80 82.46 267.77 84.47 265.80 C 84.11 267.86 83.52 269.91 83.54 272.02 C 83.89 275.75 89.95 277.26 91.52 273.52 C 92.12 269.38 90.71 265.28 90.86 261.14 Z" />
<path fill="#030303" opacity="1.00" d=" M 209.55 264.90 C 211.10 264.01 212.65 263.11 214.20 262.22 C 215.82 269.98 216.02 278.07 218.92 285.53 C 217.52 286.13 216.12 286.73 214.73 287.32 C 214.14 279.74 214.53 271.19 209.55 264.90 Z" />
<path fill="#030303" opacity="1.00" d=" M 103.50 272.65 C 105.21 269.93 108.45 269.30 111.24 268.24 C 110.63 269.98 110.05 271.73 109.49 273.48 C 112.28 273.93 114.99 274.77 117.63 275.79 C 114.79 279.51 111.83 283.46 111.74 288.35 C 109.81 288.39 107.88 288.40 105.96 288.40 C 106.90 284.91 109.16 282.09 111.30 279.27 C 112.46 278.04 112.67 276.36 112.35 274.76 C 110.58 274.39 108.75 274.08 106.94 274.37 C 103.57 276.61 101.00 279.90 99.18 283.49 C 98.12 283.53 97.07 283.57 96.01 283.61 C 96.54 278.88 100.88 276.22 103.50 272.65 Z" />
<path fill="#030303" opacity="1.00" d=" M 117.26 270.18 C 118.73 269.39 120.43 269.82 122.01 269.86 C 120.94 271.14 119.85 272.41 118.75 273.67 C 118.23 272.51 117.69 271.37 117.26 270.18 Z" />
<path fill="#030303" opacity="1.00" d=" M 192.44 282.41 C 189.86 277.61 192.37 268.67 198.91 269.43 C 203.11 268.90 204.75 273.65 204.85 277.03 C 205.61 284.59 201.22 292.36 194.13 295.27 C 196.29 292.15 198.62 289.15 200.45 285.82 C 197.64 285.28 193.71 285.65 192.44 282.41 M 196.50 282.50 C 197.83 283.20 199.29 283.62 200.72 284.12 C 201.95 279.24 202.79 273.07 198.00 269.77 C 194.51 273.01 193.35 278.64 196.50 282.50 Z" />
<path fill="#030303" opacity="1.00" d=" M 178.13 297.60 C 180.01 289.67 180.64 281.51 180.56 273.38 C 181.49 273.42 183.36 273.50 184.29 273.55 C 183.57 281.26 182.10 288.95 182.55 296.73 C 181.08 297.02 179.60 297.31 178.13 297.60 Z" />
<path fill="#030303" opacity="1.00" d=" M 132.53 282.29 C 133.67 279.27 137.21 278.52 139.74 277.03 C 137.70 283.09 131.40 287.72 132.25 294.58 C 130.63 294.96 128.62 296.21 127.66 294.11 C 128.84 290.00 130.99 286.26 132.53 282.29 Z" />
<path fill="#030303" opacity="1.00" d=" M 158.37 285.09 C 158.57 282.22 161.70 281.09 163.64 279.53 C 163.24 285.15 160.26 290.08 158.69 295.40 C 159.91 295.57 161.13 295.76 162.35 295.97 C 160.51 297.99 158.02 299.01 155.27 298.60 C 156.22 294.07 157.62 289.65 158.37 285.09 Z" />
<path fill="#030303" opacity="1.00" d=" M 140.39 297.55 C 136.54 290.90 142.68 282.56 149.89 282.63 C 152.21 282.35 153.45 284.63 154.89 286.00 C 152.17 290.59 146.75 291.08 141.99 291.77 C 142.48 292.98 142.97 294.19 143.46 295.40 C 145.81 295.54 148.15 295.69 150.49 295.99 C 147.58 298.23 143.80 297.59 140.39 297.55 M 143.14 290.27 C 145.65 289.62 148.09 288.76 150.48 287.80 C 150.60 286.88 150.84 285.06 150.96 284.14 C 147.21 284.37 144.47 286.88 143.14 290.27 Z" />
</g>
<g id="#126c2dff">
<path fill="#126c2d" opacity="1.00" d=" M 167.03 69.88 C 169.56 69.28 172.14 68.16 174.79 68.62 C 177.20 70.43 178.59 73.20 180.20 75.68 C 185.07 75.21 191.14 73.95 194.86 78.02 C 198.10 82.83 198.24 89.31 202.48 93.55 C 205.50 97.26 211.47 95.54 214.30 99.47 C 217.08 102.85 220.58 105.52 224.32 107.76 C 224.48 110.61 224.55 113.47 224.63 116.33 C 227.03 117.57 229.78 118.50 231.54 120.66 C 232.10 124.41 230.22 127.91 229.03 131.35 C 231.62 132.88 234.24 134.36 236.87 135.85 C 236.14 138.89 235.28 141.89 234.37 144.89 C 236.16 147.97 238.65 151.12 238.42 154.87 C 237.77 158.49 235.77 161.66 234.16 164.91 C 236.91 166.23 239.65 167.57 242.37 168.96 C 240.18 174.83 239.70 181.58 235.65 186.60 C 232.66 188.90 228.31 188.06 225.23 190.23 C 223.71 191.28 222.38 192.59 220.80 193.57 C 218.40 194.89 215.51 194.96 213.10 196.26 C 211.06 197.99 209.77 200.40 208.24 202.55 C 205.51 201.69 202.79 200.80 200.05 200.00 C 199.49 205.80 199.22 211.64 198.14 217.38 C 197.53 221.46 196.65 225.76 197.85 229.82 C 198.99 233.18 202.92 233.40 205.90 233.55 C 211.42 233.66 216.90 234.45 222.41 234.66 C 225.44 234.84 227.89 232.76 230.14 231.01 C 226.37 236.51 220.22 239.46 215.03 243.36 L 214.43 243.14 C 211.87 242.21 209.32 241.16 206.62 240.72 C 204.01 240.62 201.70 242.28 199.13 242.46 C 196.77 242.17 194.62 240.99 192.26 240.73 C 189.76 240.52 187.22 241.07 184.74 240.61 C 181.50 239.73 178.62 237.44 175.13 237.59 C 169.35 237.78 163.58 238.55 157.93 239.76 C 150.24 241.69 142.27 239.27 134.51 240.60 C 132.71 241.77 131.36 243.47 129.83 244.95 C 126.61 248.53 121.27 247.82 117.04 249.26 C 116.65 249.35 115.88 249.54 115.49 249.64 C 113.90 247.99 112.35 246.30 110.85 244.57 C 114.07 244.44 117.84 244.81 120.35 242.37 C 123.67 239.25 126.90 235.80 131.34 234.29 C 135.50 232.35 141.57 231.40 142.69 226.12 C 143.77 220.92 144.03 215.28 142.39 210.18 C 139.62 205.08 135.46 200.69 130.78 197.30 C 125.44 193.52 119.33 198.55 113.59 197.56 C 110.12 196.35 107.67 193.32 105.64 190.40 C 103.34 187.12 102.39 182.40 98.17 180.96 C 92.26 178.90 88.93 172.89 88.07 166.99 C 86.99 158.70 86.36 150.34 86.33 141.98 C 86.29 134.05 88.85 126.03 93.89 119.86 C 95.17 118.14 96.68 116.53 97.49 114.52 C 97.97 110.87 96.55 107.11 97.73 103.53 C 98.91 99.99 100.14 96.46 101.37 92.93 C 102.00 91.01 103.12 89.18 104.97 88.23 C 112.63 84.04 120.93 81.10 128.41 76.59 C 131.23 75.27 134.48 75.47 137.41 74.45 C 142.08 72.91 147.04 73.11 151.88 73.12 C 151.78 75.31 151.67 77.49 151.56 79.68 C 154.22 79.91 156.88 80.15 159.54 80.40 C 160.55 84.21 161.70 87.98 163.05 91.68 C 164.09 91.48 165.13 91.27 166.17 91.07 C 167.99 84.13 167.36 76.95 167.03 69.88 M 107.74 107.42 C 107.46 127.95 107.54 148.50 107.71 169.03 C 111.41 168.52 115.04 167.56 118.55 166.28 C 118.83 158.10 118.59 149.92 118.72 141.74 C 122.53 141.71 126.34 141.64 130.15 141.50 C 130.13 139.21 130.11 136.92 130.10 134.63 C 126.52 134.53 122.94 134.47 119.35 134.46 C 119.12 129.23 119.12 123.99 119.31 118.75 C 131.94 120.63 143.98 125.07 156.44 127.73 C 156.45 125.17 156.43 122.61 156.38 120.05 C 146.15 117.36 135.90 114.75 125.69 111.98 C 119.77 110.24 113.84 108.46 107.74 107.42 M 168.59 124.21 C 168.35 133.73 168.34 143.27 168.61 152.79 C 179.71 150.95 190.33 147.09 201.22 144.35 C 208.82 142.07 216.72 140.87 224.19 138.15 C 218.71 136.25 212.84 134.23 207.01 135.69 C 197.01 138.28 187.02 140.91 177.09 143.70 C 176.01 137.84 177.08 131.86 176.29 125.99 C 174.34 123.87 171.14 124.63 168.59 124.21 M 142.66 134.66 C 142.54 142.75 142.46 150.85 142.81 158.94 C 145.37 158.78 147.92 158.61 150.49 158.43 C 150.91 150.45 150.83 142.45 150.54 134.48 C 147.91 134.52 145.28 134.58 142.66 134.66 M 168.61 206.96 C 168.91 213.40 168.42 219.87 169.14 226.29 C 170.32 224.03 171.71 221.73 171.62 219.09 C 171.69 212.63 171.84 206.06 170.21 199.75 C 168.94 201.94 168.39 204.43 168.61 206.96 M 182.63 222.80 C 185.90 223.08 186.43 219.52 186.47 217.05 C 186.55 211.29 186.78 205.50 186.29 199.75 C 182.89 206.85 182.43 215.04 182.63 222.80 M 153.53 206.13 C 153.41 210.94 154.60 215.65 155.15 220.41 C 157.24 214.74 156.91 208.46 155.51 202.68 C 154.74 203.74 153.49 204.69 153.53 206.13 Z" />
</g>
</svg>
