<?xml version="1.0" encoding="UTF-8"?>
<svg width="256px" height="256px" viewBox="0 0 256 256" version="1.1" xmlns="http://www.w3.org/2000/svg" xmlns:xlink="http://www.w3.org/1999/xlink">
    <!-- Generator: Sketch 50.2 (55047) - http://www.bohemiancoding.com/sketch -->
    <title>logo/farsund</title>
    <desc>Created with Sketch.</desc>
    <defs></defs>
    <g id="logo/farsund" stroke="none" stroke-width="1" fill="none" fill-rule="evenodd">
        <g id="#fefefeff" transform="translate(11.200000, 10.400000)" fill="#FEFEFE" fill-rule="nonzero">
            <path d="M70.512,9.984 C84.648,4.12 99.856,0.52 115.2,0.44 C134.96,0.016 154.816,4.776 172.232,14.136 C186.92,22.168 200,33.248 210.208,46.528 C226.128,67.392 234.88,93.736 234.08,120 C233.808,146.144 224.072,172.048 207.352,192.128 C193.824,208.576 175.736,221.216 155.64,228.288 C130.792,236.992 102.96,236.92 78.168,228.04 C85.208,224.136 88.072,216.256 92.76,210.176 C94.24,207.848 97.2,209.84 99.36,209.872 C98.16,208.376 96.832,206.024 94.544,207.024 C91.736,208.216 89.072,209.96 86.96,212.152 C85.528,216.904 83.328,221.672 79.56,225.024 C76.744,225.504 73.696,226.448 70.952,225.208 C66.144,223.288 61.592,220.768 57.144,218.12 C24.888,199.168 2.968,163.728 0.472,126.384 C-0.192,113.464 0.464,100.36 3.912,87.832 C6.752,77.848 10.424,68 15.84,59.096 C28.04,37.304 47.824,20.184 70.512,9.984 Z M105.976,6.88 C106.64,14.76 107.496,22.624 107.664,30.528 C109.504,30.592 111.352,30.6 113.192,30.6 C112.52,22.584 111.768,14.568 111.44,6.536 C109.616,6.576 107.792,6.688 105.976,6.88 Z M118.28,5.968 C118.112,14.08 117.376,22.16 116.912,30.256 C120.552,30.512 124.408,30.832 127.848,29.368 C131.152,27.528 132.76,23.664 132.952,20.024 C133.112,16.432 133.288,12.248 130.52,9.504 C127.456,6.136 122.528,5.928 118.28,5.968 Z M135.344,32.568 C136.696,32.824 138.04,33.08 139.392,33.336 C140.368,30.904 141.264,28.432 142.384,26.064 C142.736,28.656 142.664,31.304 143.216,33.872 C144.352,35.456 146.736,35.24 148.416,35.904 C148.016,32.48 147.304,29.048 147.512,25.584 C148.752,23.44 151.12,22.168 152.208,19.904 C152.688,17.904 152.768,15.744 152.176,13.76 C149.672,10.424 145.264,9.792 141.464,8.992 C139.72,16.928 136.424,24.488 135.344,32.568 Z M76.096,13.624 C77.984,21.32 80.624,28.808 82.224,36.576 C86.096,36.232 90.344,35.28 92.872,32.056 C95.392,29.304 95.096,25.232 94.376,21.848 C93.28,18.16 91.728,13.76 87.752,12.36 C83.888,10.672 79.84,12.536 76.096,13.624 Z M149.992,36.912 C153.064,38.424 156.136,40.056 159.528,40.752 C160.04,39.44 160.56,38.128 161.088,36.824 C159.56,35.92 158.04,35.008 156.536,34.072 C157.264,32.608 158.016,31.16 158.792,29.728 C160.312,30.352 161.84,30.984 163.368,31.616 C163.824,30.104 164.296,28.6 164.728,27.072 C163.496,26.64 162.264,26.2 161.04,25.776 C161.248,24.4 161.464,23.024 161.712,21.656 C163.76,21.976 165.776,22.488 167.792,22.976 C168.264,21.712 168.728,20.44 169.2,19.16 C166.368,17.6 163.464,16.2 160.56,14.8 C156.232,21.744 153.192,29.408 149.992,36.912 Z M64.32,19.72 C66.272,23.64 68.448,27.448 70.208,31.456 C66.568,28.816 63.544,25.424 59.928,22.76 C58.312,22.712 56.816,23.48 55.288,23.896 C56.64,28.736 59.672,32.808 61.832,37.28 C63.224,39.968 64.336,42.816 66.064,45.304 C67.688,46.384 71.096,44.264 69.736,42.248 C67.952,38.52 65.616,35.08 64.08,31.224 C68.2,33.928 71.104,38.152 75.392,40.6 C77.032,40.624 78.352,39.376 79.76,38.68 C76.952,33.488 74.2,28.264 71.48,23.024 C70.456,21.176 69.496,19.24 67.984,17.736 C66.712,18.304 65.528,19.04 64.32,19.72 Z M172.576,24.912 C173.144,26.392 173.736,27.872 174.28,29.368 C170.84,34.416 166.72,39.072 164.152,44.656 C165.472,45.4 166.792,46.136 168.112,46.872 C171.88,42.424 174.52,37.128 178.368,32.76 C180.52,32.024 185.04,32.416 184.304,28.976 C181.552,26.144 178.088,24.112 174.544,22.456 C173.888,23.272 173.232,24.096 172.576,24.912 Z M43.024,33.792 C47.096,39.4 53.424,43.232 56.224,49.768 C54.888,50.16 53.256,51.744 51.96,50.448 C47.336,46.608 43.68,41.736 39.2,37.728 C38,38.904 36.792,40.08 35.592,41.256 C40.224,45.664 44.056,50.872 49.008,54.936 C54.608,59.752 64.2,50.856 59.872,44.824 C55.832,39.904 51.32,35.392 46.92,30.808 C45.616,31.792 44.312,32.792 43.024,33.792 Z M187.976,31.752 C187.288,32.64 186.552,33.496 185.976,34.464 C186.08,35.808 186.608,37.064 186.976,38.352 C182.8,42.904 178.336,47.2 174.504,52.064 C175.696,53.096 176.704,54.48 178.248,55.008 C182.896,51.24 185.992,45.84 190.8,42.248 C193.072,42.112 195.44,42.28 197.424,40.904 C194.752,37.408 191.44,34.448 187.976,31.752 Z M104.352,33.504 C82.52,36.688 62.216,48.968 49.144,66.728 C42.016,75.968 37.248,86.864 34.384,98.136 C32.224,106.84 32.232,115.88 32.48,124.784 C33.176,134.088 35.736,143.184 39.368,151.752 C51.112,179.112 78.248,199.408 108.032,202.008 C116.872,202.272 125.824,202.608 134.544,200.824 C154.6,196.608 173.088,184.992 185.216,168.416 C194.272,156.328 200.04,141.728 201.464,126.672 C205.104,97.664 191.784,67.448 168.552,49.888 C150.512,36.08 126.8,30.032 104.352,33.504 Z M194.4,48.728 C191.856,51.216 192.288,55.064 191.496,58.264 C191.44,60.112 189.224,59.568 188.008,59.952 C187.384,58.4 186.776,56.84 186.16,55.288 C185,56.28 183.512,57.056 182.808,58.464 C182.12,61.248 184.648,63.352 186.616,64.84 C189.776,66.2 193.816,64.952 195.704,62.056 C197.544,59.12 196.224,55.208 198.024,52.296 C198.6,51.136 199.96,51.392 201,51.576 C202.008,52.824 202.568,54.352 203.264,55.784 C204.512,54.304 206.696,52.896 206.008,50.664 C205.368,48.84 203.8,47.4 202.056,46.624 C199.4,45.336 196.36,46.864 194.4,48.728 Z M29.352,48.44 C25.264,51.432 26.704,58.464 31.36,60.048 C34.864,61.032 38.56,60.24 42.144,60.312 C42.68,60.96 43.216,61.608 43.752,62.256 C42.416,63.856 41.12,65.496 39.968,67.24 C41.52,67.752 43.056,68.848 44.768,68.464 C47.024,66.648 48.912,63.8 48.44,60.784 C48.168,58.456 46.432,56.536 44.392,55.52 C40.416,53.344 35.44,57.296 31.896,53.904 C32.776,52.416 33.76,50.984 34.488,49.408 C33.88,47.368 30.8,46.848 29.352,48.44 Z M202.936,62.752 C198.784,65.12 194.568,67.368 190.416,69.728 C192.528,74.112 194.84,78.408 196.992,82.776 C198.664,82.96 200.328,83.168 201.984,83.424 C202.6,85.896 201.384,87.968 199.776,89.728 C200.272,91.032 200.776,92.344 201.288,93.648 C208.272,89.256 214.824,84.2 221.4,79.224 C220.936,77.76 220.528,76.28 219.896,74.88 C217.16,74.64 214.464,75.296 211.8,75.784 C206.888,76.752 201.96,77.6 197.032,78.456 C197.648,77.84 198.256,77.216 198.872,76.6 C198.448,75 198.008,73.4 197.6,71.8 C202.584,68.296 208.176,65.824 213.44,62.8 C213.04,61.376 212.632,59.96 212.24,58.536 C208.728,58.872 205.904,61.088 202.936,62.752 Z M16.088,71.192 C22.936,75.312 30.016,79.032 37.048,82.832 C37.712,81.512 38.728,80.264 38.872,78.744 C37.56,77.216 35.776,76.2 34.264,74.912 C36.584,74.824 38.92,75.064 41.232,74.784 C42.272,73.632 43.064,72.296 43.944,71.024 C40.176,70.304 36.384,69.84 32.584,69.376 C31.4,65.816 28.984,61.936 24.76,61.936 C19.656,61.728 17.92,67.472 16.088,71.192 Z M11.032,82.792 C10.72,84.44 10.392,86.088 10.072,87.736 C17.328,91.56 24.288,95.912 31.488,99.824 C31.872,98.592 32.368,97.376 32.504,96.08 C31.784,94.728 30.696,93.616 29.736,92.44 C29.84,91.424 29.944,90.416 30.048,89.408 C31.768,89.104 33.488,88.792 35.2,88.456 C35.432,87.12 35.656,85.792 35.888,84.456 C27.64,83.552 19.344,82.656 11.032,82.792 Z M205.016,96.104 C201.84,98.664 202.032,103.792 204.472,106.776 C208.048,109.848 213.072,109.432 217.464,109.264 C217.416,106.008 217.288,102.704 216.232,99.592 C215.144,99.776 214.056,99.968 212.976,100.168 C212.744,101.68 212.536,103.208 212.344,104.728 C210.968,104.616 209.592,104.504 208.224,104.4 C207.936,103.216 207.632,102.032 207.504,100.816 C211.04,96.592 217.104,97.184 222.04,97.368 C222.296,100.024 221.416,102.52 220.16,104.824 C220.936,105.824 221.72,106.832 222.512,107.84 C224.512,106.096 226.944,104.336 227.472,101.544 C227.992,97.584 225.232,93.4 221.224,92.656 C215.68,91.632 209.528,92.544 205.016,96.104 Z M7.688,96.336 C7.248,99.784 6.728,103.232 6.672,106.72 C14.664,107.528 22.52,109.512 30.56,109.856 C30.664,108.576 30.768,107.296 30.872,106.024 C27.704,104.776 24.32,104.344 20.984,103.848 C21.096,102.016 21.224,100.192 21.328,98.36 C20.048,98.224 18.776,98.088 17.496,97.952 C17.048,99.608 16.608,101.272 16.176,102.936 C14.672,102.816 13.176,102.704 11.68,102.584 C11.944,100.552 12.224,98.528 12.424,96.488 C10.848,96.432 9.272,96.384 7.688,96.336 Z M168.688,206.656 C169.56,209.16 171.312,212.536 174.4,212.296 C180.944,211.832 181.024,200.808 175.136,199.096 C173.56,198.864 171.96,198.92 170.376,198.88 C171.472,196.072 172.6,193.28 173.528,190.416 C168.856,194.248 166.512,200.864 168.688,206.656 Z M61.488,198.512 C61.368,201.824 62.496,205.104 62.016,208.416 C60.76,211.408 55.912,210.2 55.632,207.216 C55.616,205.528 56.088,203.888 56.376,202.24 C54.768,203.816 53.208,205.44 51.704,207.112 C54.272,209.128 56.568,212.144 60.088,212.328 C62.912,212.704 65.504,209.96 65.24,207.2 C65.04,203.864 64.32,200.568 64.448,197.208 C65.832,197.32 67.32,197 68.624,197.576 C70.376,199.016 69.888,201.496 70.184,203.488 C71.336,202.352 72.504,201.232 73.664,200.104 C71.176,197.96 68.672,194.72 64.944,195.472 C63.112,195.352 62,196.968 61.488,198.512 Z M156.44,201.52 C160.424,206.552 160.112,213.392 160.584,219.456 C161.696,218.984 162.816,218.504 163.936,218.024 C161.616,212.056 161.456,205.584 160.16,199.376 C158.92,200.088 157.68,200.808 156.44,201.52 Z M71.6,207.72 C69.504,210.576 66.032,212.704 65.608,216.488 C66.456,216.456 67.296,216.424 68.144,216.392 C69.6,213.52 71.656,210.888 74.352,209.096 C75.8,208.864 77.264,209.112 78.68,209.408 C78.936,210.688 78.768,212.032 77.84,213.016 C76.128,215.272 74.32,217.528 73.568,220.32 C75.104,220.32 76.648,220.312 78.192,220.28 C78.264,216.368 80.632,213.208 82.904,210.232 C80.792,209.416 78.624,208.744 76.392,208.384 C76.84,206.984 77.304,205.584 77.792,204.192 C75.56,205.04 72.968,205.544 71.6,207.72 Z M82.608,205.744 C82.952,206.696 83.384,207.608 83.8,208.536 C84.68,207.528 85.552,206.512 86.408,205.488 C85.144,205.456 83.784,205.112 82.608,205.744 Z M142.752,215.528 C143.768,218.12 146.912,217.824 149.16,218.256 C147.696,220.92 145.832,223.32 144.104,225.816 C149.776,223.488 153.288,217.272 152.68,211.224 C152.6,208.52 151.288,204.72 147.928,205.144 C142.696,204.536 140.688,211.688 142.752,215.528 Z M131.304,227.68 C132.48,227.448 133.664,227.216 134.84,226.984 C134.48,220.76 135.656,214.608 136.232,208.44 C135.488,208.4 133.992,208.336 133.248,208.304 C133.312,214.808 132.808,221.336 131.304,227.68 Z M94.824,215.432 C93.592,218.608 91.872,221.6 90.928,224.888 C91.696,226.568 93.304,225.568 94.6,225.264 C93.92,219.776 98.96,216.072 100.592,211.224 C98.568,212.416 95.736,213.016 94.824,215.432 Z M115.496,217.672 C114.896,221.32 113.776,224.856 113.016,228.48 C115.216,228.808 117.208,227.992 118.68,226.376 C117.704,226.208 116.728,226.056 115.752,225.92 C117.008,221.664 119.392,217.72 119.712,213.224 C118.16,214.472 115.656,215.376 115.496,217.672 Z M101.112,227.64 C103.84,227.672 106.864,228.184 109.192,226.392 C107.32,226.152 105.448,226.032 103.568,225.92 C103.176,224.952 102.784,223.984 102.392,223.016 C106.2,222.464 110.536,222.072 112.712,218.4 C111.56,217.304 110.568,215.48 108.712,215.704 C102.944,215.648 98.032,222.32 101.112,227.64 Z" id="Shape"></path>
            <path d="M122.952,10.984 C124.792,11.648 127.552,12.136 127.744,14.544 C127.92,17.504 128.376,20.824 126.704,23.464 C125.888,24.968 124.088,25.32 122.656,25.976 C122.544,20.976 122.776,15.984 122.952,10.984 Z" id="Shape"></path>
            <path d="M144.792,14.736 C145.488,14.704 146.88,14.648 147.576,14.616 C147.472,16.28 147.984,18.2 146.904,19.64 C145.976,20.032 145.024,20.376 144.064,20.68 C144.264,18.696 144.512,16.712 144.792,14.736 Z" id="Shape"></path>
            <path d="M82.64,16.072 C84.488,16.56 86.584,17.008 87.648,18.776 C90.072,21.768 89.304,25.816 89.336,29.36 C88.296,29.896 87.256,30.432 86.224,30.968 C84.648,26.112 82.936,21.2 82.64,16.072 Z" id="Shape"></path>
            <path d="M67.952,55.128 C79.832,45.72 94.408,39.64 109.552,38.384 C128.016,36.512 147.104,41.392 162.312,52.072 C169.968,57.648 176.792,64.344 182.344,72.024 C191.112,84.928 196.544,100.304 196.528,116 C197.056,132.144 192.152,148.304 183.288,161.752 C180.128,166.2 176.496,170.304 172.912,174.408 C171.112,175.808 169.152,177.472 166.728,177.328 C162.32,177.16 157.936,176.528 153.52,176.44 C151.136,176.32 147.992,176.144 147.08,173.456 C146.12,170.208 146.824,166.768 147.312,163.504 C148.176,158.912 148.392,154.24 148.84,149.6 C151.032,150.24 153.208,150.952 155.392,151.64 C156.616,149.92 157.648,147.992 159.28,146.608 C161.208,145.568 163.52,145.512 165.44,144.456 C166.704,143.672 167.768,142.624 168.984,141.784 C171.448,140.048 174.928,140.72 177.32,138.88 C180.56,134.864 180.944,129.464 182.696,124.768 C180.52,123.656 178.328,122.584 176.128,121.528 C177.416,118.928 179.016,116.392 179.536,113.496 C179.72,110.496 177.728,107.976 176.296,105.512 C177.024,103.112 177.712,100.712 178.296,98.28 C176.192,97.088 174.096,95.904 172.024,94.68 C172.976,91.928 174.48,89.128 174.032,86.128 C172.624,84.4 170.424,83.656 168.504,82.664 C168.44,80.376 168.384,78.088 168.256,75.808 C165.264,74.016 162.464,71.88 160.24,69.176 C157.976,66.032 153.2,67.408 150.784,64.44 C147.392,61.048 147.28,55.864 144.688,52.016 C141.712,48.76 136.856,49.768 132.96,50.144 C131.672,48.16 130.56,45.944 128.632,44.496 C126.512,44.128 124.448,45.024 122.424,45.504 C122.688,51.16 123.192,56.904 121.736,62.456 C120.904,62.616 120.072,62.784 119.24,62.944 C118.16,59.984 117.24,56.968 116.432,53.92 C114.304,53.72 112.176,53.528 110.048,53.344 C110.136,51.592 110.224,49.848 110.304,48.096 C106.432,48.088 102.464,47.928 98.728,49.16 C96.384,49.976 93.784,49.816 91.528,50.872 C85.544,54.48 78.904,56.832 72.776,60.184 C71.296,60.944 70.4,62.408 69.896,63.944 C68.912,66.768 67.928,69.592 66.984,72.424 C66.04,75.288 67.176,78.296 66.792,81.216 C66.144,82.824 64.936,84.112 63.912,85.488 C59.88,90.424 57.832,96.84 57.864,103.184 C57.888,109.872 58.392,116.56 59.256,123.192 C59.944,127.912 62.608,132.72 67.336,134.368 C70.712,135.52 71.472,139.296 73.312,141.92 C74.936,144.256 76.896,146.68 79.672,147.648 C84.264,148.44 89.152,144.416 93.424,147.44 C97.168,150.152 100.496,153.664 102.712,157.744 C104.024,161.824 103.816,166.336 102.952,170.496 C102.056,174.72 97.2,175.48 93.872,177.032 C90.32,178.24 87.736,181 85.08,183.496 C83.072,185.448 80.056,185.152 77.48,185.256 C74.904,185.112 72.672,183.616 70.64,182.16 C65.08,177.92 59.576,173.44 55.448,167.728 C45.52,155.24 39.032,139.872 37.92,123.896 C37.736,117.528 37.544,111.088 38.672,104.784 C41.776,85.336 52.472,67.288 67.952,55.128 Z" id="Shape"></path>
            <path d="M21.744,68.968 C22.528,68.088 23.312,67.216 24.104,66.352 C26.232,67.288 28.024,68.824 28.104,71.312 C25.88,70.832 23.776,69.968 21.744,68.968 Z" id="Shape"></path>
            <path d="M74.992,75.536 C79.872,76.368 84.616,77.792 89.352,79.184 C97.52,81.4 105.72,83.488 113.904,85.64 C113.944,87.688 113.96,89.736 113.952,91.784 C103.984,89.656 94.352,86.104 84.248,84.6 C84.096,88.792 84.096,92.984 84.28,97.168 C87.152,97.176 90.016,97.224 92.88,97.304 C92.888,99.136 92.904,100.968 92.92,102.8 C89.872,102.912 86.824,102.968 83.776,102.992 C83.672,109.536 83.864,116.08 83.64,122.624 C80.832,123.648 77.928,124.416 74.968,124.824 C74.832,108.4 74.768,91.96 74.992,75.536 Z" id="Shape"></path>
            <path d="M205.624,81.76 C208.096,80.896 210.624,80.192 213.184,79.64 C211.264,81.608 208.856,82.976 206.36,84.096 C206.112,83.32 205.864,82.544 205.624,81.76 Z" id="Shape"></path>
            <path d="M20.128,87.712 C22.136,87.744 24.128,87.944 26.12,88.208 C26.112,88.784 26.104,89.928 26.096,90.496 C23.896,90.096 21.512,89.696 20.128,87.712 Z" id="Shape"></path>
            <path d="M123.672,88.968 C125.712,89.304 128.272,88.696 129.832,90.392 C130.464,95.088 129.608,99.872 130.472,104.56 C138.416,102.328 146.408,100.224 154.408,98.152 C159.072,96.984 163.768,98.6 168.152,100.12 C162.176,102.296 155.856,103.256 149.776,105.08 C141.064,107.272 132.568,110.36 123.688,111.832 C123.472,104.216 123.48,96.584 123.672,88.968 Z" id="Shape"></path>
            <path d="M102.928,97.328 C105.024,97.264 107.128,97.216 109.232,97.184 C109.464,103.56 109.528,109.96 109.192,116.344 C107.136,116.488 105.096,116.624 103.048,116.752 C102.768,110.28 102.832,103.8 102.928,97.328 Z" id="Shape"></path>
            <path d="M123.688,155.168 C123.512,153.144 123.952,151.152 124.968,149.4 C126.272,154.448 126.152,159.704 126.096,164.872 C126.168,166.984 125.056,168.824 124.112,170.632 C123.536,165.496 123.928,160.32 123.688,155.168 Z" id="Shape"></path>
            <path d="M134.904,167.84 C134.744,161.632 135.112,155.08 137.832,149.4 C138.224,154 138.04,158.632 137.976,163.24 C137.944,165.216 137.52,168.064 134.904,167.84 Z" id="Shape"></path>
            <path d="M111.624,154.504 C111.592,153.352 112.592,152.592 113.208,151.744 C114.328,156.368 114.592,161.392 112.92,165.928 C112.48,162.12 111.528,158.352 111.624,154.504 Z" id="Shape"></path>
            <path d="M128.904,179.672 C131.696,179.552 134,181.384 136.592,182.088 C138.576,182.456 140.608,182.016 142.608,182.184 C144.496,182.392 146.216,183.336 148.104,183.568 C150.16,183.424 152.008,182.096 154.096,182.176 C156.256,182.528 158.296,183.368 160.344,184.112 C137.84,199.68 106.776,201.256 82.432,189.008 C85.816,187.856 90.088,188.424 92.664,185.56 C93.888,184.376 94.968,183.016 96.408,182.08 C102.616,181.016 108.992,182.952 115.144,181.408 C119.664,180.44 124.28,179.824 128.904,179.672 Z" id="Shape"></path>
            <path d="M170.416,201.976 C171.856,201.744 173.608,200.36 174.824,201.808 C177.76,204.104 177.352,208.232 176.208,211.36 C171.728,210.568 170.976,205.696 170.416,201.976 Z" id="Shape"></path>
            <path d="M146,215.6 C143.48,212.512 144.408,208.008 147.2,205.416 C151.032,208.056 150.36,212.992 149.376,216.896 C148.232,216.496 147.064,216.16 146,215.6 Z" id="Shape"></path>
            <path d="M103.312,221.816 C104.376,219.104 106.568,217.096 109.568,216.912 C109.472,217.648 109.28,219.104 109.184,219.84 C107.272,220.608 105.32,221.296 103.312,221.816 Z" id="Shape"></path>
        </g>
        <g id="#030303ff" fill="#030303" fill-rule="nonzero">
            <path d="M120.576,0 L135.432,0 C161.104,1.896 186.416,10.896 206.664,26.944 C226.744,42.6 242.128,64.248 249.8,88.568 C253.272,98.912 255.024,109.736 256,120.576 L256,135.432 C254.056,160.688 245.4,185.68 229.736,205.736 C214.408,225.76 193.136,241.24 169.192,249.224 C158.304,252.992 146.864,254.896 135.424,256 L121.344,256 C107.12,254.864 92.952,252.064 79.728,246.592 C55.248,236.824 34.4,218.928 20.008,196.944 C13.504,186.624 8.52,175.368 5.056,163.68 C2.344,154.48 0.976,144.96 0,135.44 L0,120.568 C1.208,107.92 3.456,95.28 8.032,83.392 C12.76,70.416 19.648,58.24 28.384,47.536 C41.848,31.248 59,17.784 78.68,9.848 C91.944,4.152 106.248,1.32 120.576,0 Z M81.712,20.384 C59.024,30.584 39.24,47.704 27.04,69.496 C21.624,78.4 17.952,88.248 15.112,98.232 C11.664,110.76 11.008,123.864 11.672,136.784 C14.168,174.128 36.088,209.568 68.344,228.52 C72.792,231.168 77.344,233.688 82.152,235.608 C84.896,236.848 87.944,235.904 90.76,235.424 C94.528,232.072 96.728,227.304 98.16,222.552 C100.272,220.36 102.936,218.616 105.744,217.424 C108.032,216.424 109.36,218.776 110.56,220.272 C108.4,220.24 105.44,218.248 103.96,220.576 C99.272,226.656 96.408,234.536 89.368,238.44 C114.16,247.32 141.992,247.392 166.84,238.688 C186.936,231.616 205.024,218.976 218.552,202.528 C235.272,182.448 245.008,156.544 245.28,130.4 C246.08,104.136 237.328,77.792 221.408,56.928 C211.2,43.648 198.12,32.568 183.432,24.536 C166.016,15.176 146.16,10.416 126.4,10.84 C111.056,10.92 95.848,14.52 81.712,20.384 Z" id="Shape"></path>
            <path d="M117.176,17.28 C118.992,17.088 120.816,16.976 122.64,16.936 C122.968,24.968 123.72,32.984 124.392,41 C122.552,41 120.704,40.992 118.864,40.928 C118.696,33.024 117.84,25.16 117.176,17.28 Z" id="Shape"></path>
            <path d="M129.48,16.368 C133.728,16.328 138.656,16.536 141.72,19.904 C144.488,22.648 144.312,26.832 144.152,30.424 C143.96,34.064 142.352,37.928 139.048,39.768 C135.608,41.232 131.752,40.912 128.112,40.656 C128.576,32.56 129.312,24.48 129.48,16.368 Z M134.152,21.384 C133.976,26.384 133.744,31.376 133.856,36.376 C135.288,35.72 137.088,35.368 137.904,33.864 C139.576,31.224 139.12,27.904 138.944,24.944 C138.752,22.536 135.992,22.048 134.152,21.384 Z" id="Shape"></path>
            <path d="M146.544,42.968 C147.624,34.888 150.92,27.328 152.664,19.392 C156.464,20.192 160.872,20.824 163.376,24.16 C163.968,26.144 163.888,28.304 163.408,30.304 C162.32,32.568 159.952,33.84 158.712,35.984 C158.504,39.448 159.216,42.88 159.616,46.304 C157.936,45.64 155.552,45.856 154.416,44.272 C153.864,41.704 153.936,39.056 153.584,36.464 C152.464,38.832 151.568,41.304 150.592,43.736 C149.24,43.48 147.896,43.224 146.544,42.968 Z M155.992,25.136 C155.712,27.112 155.464,29.096 155.264,31.08 C156.224,30.776 157.176,30.432 158.104,30.04 C159.184,28.6 158.672,26.68 158.776,25.016 C158.08,25.048 156.688,25.104 155.992,25.136 Z" id="Shape"></path>
            <path d="M87.296,24.024 C91.04,22.936 95.088,21.072 98.952,22.76 C102.928,24.16 104.48,28.56 105.576,32.248 C106.296,35.632 106.592,39.704 104.072,42.456 C101.544,45.68 97.296,46.632 93.424,46.976 C91.824,39.208 89.184,31.72 87.296,24.024 Z M93.84,26.472 C94.136,31.6 95.848,36.512 97.424,41.368 C98.456,40.832 99.496,40.296 100.536,39.76 C100.504,36.216 101.272,32.168 98.848,29.176 C97.784,27.408 95.688,26.96 93.84,26.472 Z" id="Shape"></path>
            <path d="M161.192,47.312 C164.392,39.808 167.432,32.144 171.76,25.2 C174.664,26.6 177.568,28 180.4,29.56 C179.928,30.84 179.464,32.112 178.992,33.376 C176.976,32.888 174.96,32.376 172.912,32.056 C172.664,33.424 172.448,34.8 172.24,36.176 C173.464,36.6 174.696,37.04 175.928,37.472 C175.496,39 175.024,40.504 174.568,42.016 C173.04,41.384 171.512,40.752 169.992,40.128 C169.216,41.56 168.464,43.008 167.736,44.472 C169.24,45.408 170.76,46.32 172.288,47.224 C171.76,48.528 171.24,49.84 170.728,51.152 C167.336,50.456 164.264,48.824 161.192,47.312 Z" id="Shape"></path>
            <path d="M75.52,30.12 C76.728,29.44 77.912,28.704 79.184,28.136 C80.696,29.64 81.656,31.576 82.68,33.424 C85.4,38.664 88.152,43.888 90.96,49.08 C89.552,49.776 88.232,51.024 86.592,51 C82.304,48.552 79.4,44.328 75.28,41.624 C76.816,45.48 79.152,48.92 80.936,52.648 C82.296,54.664 78.888,56.784 77.264,55.704 C75.536,53.216 74.424,50.368 73.032,47.68 C70.872,43.208 67.84,39.136 66.488,34.296 C68.016,33.88 69.512,33.112 71.128,33.16 C74.744,35.824 77.768,39.216 81.408,41.856 C79.648,37.848 77.472,34.04 75.52,30.12 Z" id="Shape"></path>
            <path d="M183.776,35.312 C184.432,34.496 185.088,33.672 185.744,32.856 C189.288,34.512 192.752,36.544 195.504,39.376 C196.24,42.816 191.72,42.424 189.568,43.16 C185.72,47.528 183.08,52.824 179.312,57.272 C177.992,56.536 176.672,55.8 175.352,55.056 C177.92,49.472 182.04,44.816 185.48,39.768 C184.936,38.272 184.344,36.792 183.776,35.312 Z" id="Shape"></path>
            <path d="M54.224,44.192 C55.512,43.192 56.816,42.192 58.12,41.208 C62.52,45.792 67.032,50.304 71.072,55.224 C75.4,61.256 65.808,70.152 60.208,65.336 C55.256,61.272 51.424,56.064 46.792,51.656 C47.992,50.48 49.2,49.304 50.4,48.128 C54.88,52.136 58.536,57.008 63.16,60.848 C64.456,62.144 66.088,60.56 67.424,60.168 C64.624,53.632 58.296,49.8 54.224,44.192 Z" id="Shape"></path>
            <path d="M199.176,42.152 C202.64,44.848 205.952,47.808 208.624,51.304 C206.64,52.68 204.272,52.512 202,52.648 C197.192,56.24 194.096,61.64 189.448,65.408 C187.904,64.88 186.896,63.496 185.704,62.464 C189.536,57.6 194,53.304 198.176,48.752 C197.808,47.464 197.28,46.208 197.176,44.864 C197.752,43.896 198.488,43.04 199.176,42.152 Z" id="Shape"></path>
            <path d="M115.552,43.904 C138,40.432 161.712,46.48 179.752,60.288 C202.984,77.848 216.304,108.064 212.664,137.072 C211.24,152.128 205.472,166.728 196.416,178.816 C184.288,195.392 165.8,207.008 145.744,211.224 C137.024,213.008 128.072,212.672 119.232,212.408 C89.448,209.808 62.312,189.512 50.568,162.152 C46.936,153.584 44.376,144.488 43.68,135.184 C43.432,126.28 43.424,117.24 45.584,108.536 C48.448,97.264 53.216,86.368 60.344,77.128 C73.416,59.368 93.72,47.088 115.552,43.904 Z M79.152,65.528 C63.672,77.688 52.976,95.736 49.872,115.184 C48.744,121.488 48.936,127.928 49.12,134.296 C50.232,150.272 56.72,165.64 66.648,178.128 C70.776,183.84 76.28,188.32 81.84,192.56 C83.872,194.016 86.104,195.512 88.68,195.656 C89.88,197.04 91.12,198.392 92.392,199.712 C92.704,199.632 93.32,199.48 93.632,199.408 C117.976,211.656 149.04,210.08 171.544,194.512 L172.024,194.688 C176.176,191.568 181.096,189.208 184.112,184.808 C187.696,180.704 191.328,176.6 194.488,172.152 C203.352,158.704 208.256,142.544 207.728,126.4 C207.744,110.704 202.312,95.328 193.544,82.424 C187.992,74.744 181.168,68.048 173.512,62.472 C158.304,51.792 139.216,46.912 120.752,48.784 C105.608,50.04 91.032,56.12 79.152,65.528 Z" id="Shape"></path>
            <path d="M205.6,59.128 C207.56,57.264 210.6,55.736 213.256,57.024 C215,57.8 216.568,59.24 217.208,61.064 C217.896,63.296 215.712,64.704 214.464,66.184 C213.768,64.752 213.208,63.224 212.2,61.976 C211.16,61.792 209.8,61.536 209.224,62.696 C207.424,65.608 208.744,69.52 206.904,72.456 C205.016,75.352 200.976,76.6 197.816,75.24 C195.848,73.752 193.32,71.648 194.008,68.864 C194.712,67.456 196.2,66.68 197.36,65.688 C197.976,67.24 198.584,68.8 199.208,70.352 C200.424,69.968 202.64,70.512 202.696,68.664 C203.488,65.464 203.056,61.616 205.6,59.128 Z" id="Shape"></path>
            <path d="M40.552,58.84 C42,57.248 45.08,57.768 45.688,59.808 C44.96,61.384 43.976,62.816 43.096,64.304 C46.64,67.696 51.616,63.744 55.592,65.92 C57.632,66.936 59.368,68.856 59.64,71.184 C60.112,74.2 58.224,77.048 55.968,78.864 C54.256,79.248 52.72,78.152 51.168,77.64 C52.32,75.896 53.616,74.256 54.952,72.656 C54.416,72.008 53.88,71.36 53.344,70.712 C49.76,70.64 46.064,71.432 42.56,70.448 C37.904,68.864 36.464,61.832 40.552,58.84 Z" id="Shape"></path>
            <path d="M214.136,73.152 C217.104,71.488 219.928,69.272 223.44,68.936 C223.832,70.36 224.24,71.776 224.64,73.2 C219.376,76.224 213.784,78.696 208.8,82.2 C209.208,83.8 209.648,85.4 210.072,87 C209.456,87.616 208.848,88.24 208.232,88.856 C213.16,88 218.088,87.152 223,86.184 C225.664,85.696 228.36,85.04 231.096,85.28 C231.728,86.68 232.136,88.16 232.6,89.624 C226.024,94.6 219.472,99.656 212.488,104.048 C211.976,102.744 211.472,101.432 210.976,100.128 C212.584,98.368 213.8,96.296 213.184,93.824 C211.528,93.568 209.864,93.36 208.192,93.176 C206.04,88.808 203.728,84.512 201.616,80.128 C205.768,77.768 209.984,75.52 214.136,73.152 Z M216.824,92.16 C217.064,92.944 217.312,93.72 217.56,94.496 C220.056,93.376 222.464,92.008 224.384,90.04 C221.824,90.592 219.296,91.296 216.824,92.16 Z" id="Shape"></path>
            <path d="M27.288,81.592 C29.12,77.872 30.856,72.128 35.96,72.336 C40.184,72.336 42.6,76.216 43.784,79.776 C47.584,80.24 51.376,80.704 55.144,81.424 C54.264,82.696 53.472,84.032 52.432,85.184 C50.12,85.464 47.784,85.224 45.464,85.312 C46.976,86.6 48.76,87.616 50.072,89.144 C49.928,90.664 48.912,91.912 48.248,93.232 C41.216,89.432 34.136,85.712 27.288,81.592 Z M32.944,79.368 C34.976,80.368 37.08,81.232 39.304,81.712 C39.224,79.224 37.432,77.688 35.304,76.752 C34.512,77.616 33.728,78.488 32.944,79.368 Z" id="Shape"></path>
            <path d="M22.232,93.192 C30.544,93.056 38.84,93.952 47.088,94.856 C46.856,96.192 46.632,97.52 46.4,98.856 C44.688,99.192 42.968,99.504 41.248,99.808 C41.144,100.816 41.04,101.824 40.936,102.84 C41.896,104.016 42.984,105.128 43.704,106.48 C43.568,107.776 43.072,108.992 42.688,110.224 C35.488,106.312 28.528,101.96 21.272,98.136 C21.592,96.488 21.92,94.84 22.232,93.192 Z M31.328,98.112 C32.712,100.096 35.096,100.496 37.296,100.896 C37.304,100.328 37.312,99.184 37.32,98.608 C35.328,98.344 33.336,98.144 31.328,98.112 Z" id="Shape"></path>
            <path d="M216.216,106.504 C220.728,102.944 226.88,102.032 232.424,103.056 C236.432,103.8 239.192,107.984 238.672,111.944 C238.144,114.736 235.712,116.496 233.712,118.24 C232.92,117.232 232.136,116.224 231.36,115.224 C232.616,112.92 233.496,110.424 233.24,107.768 C228.304,107.584 222.24,106.992 218.704,111.216 C218.832,112.432 219.136,113.616 219.424,114.8 C220.792,114.904 222.168,115.016 223.544,115.128 C223.736,113.608 223.944,112.08 224.176,110.568 C225.256,110.368 226.344,110.176 227.432,109.992 C228.488,113.104 228.616,116.408 228.664,119.664 C224.272,119.832 219.248,120.248 215.672,117.176 C213.232,114.192 213.04,109.064 216.216,106.504 Z" id="Shape"></path>
            <path d="M18.888,106.736 C20.472,106.784 22.048,106.832 23.624,106.888 C23.424,108.928 23.144,110.952 22.88,112.984 C24.376,113.104 25.872,113.216 27.376,113.336 C27.808,111.672 28.248,110.008 28.696,108.352 C29.976,108.488 31.248,108.624 32.528,108.76 C32.424,110.592 32.296,112.416 32.184,114.248 C35.52,114.744 38.904,115.176 42.072,116.424 C41.968,117.696 41.864,118.976 41.76,120.256 C33.72,119.912 25.864,117.928 17.872,117.12 C17.928,113.632 18.448,110.184 18.888,106.736 Z" id="Shape"></path>
            <path d="M179.888,217.056 C177.712,211.264 180.056,204.648 184.728,200.816 C183.8,203.68 182.672,206.472 181.576,209.28 C183.16,209.32 184.76,209.264 186.336,209.496 C192.224,211.208 192.144,222.232 185.6,222.696 C182.512,222.936 180.76,219.56 179.888,217.056 Z M181.616,212.376 C182.176,216.096 182.928,220.968 187.408,221.76 C188.552,218.632 188.96,214.504 186.024,212.208 C184.808,210.76 183.056,212.144 181.616,212.376 Z" id="Shape"></path>
            <path d="M72.688,208.912 C73.2,207.368 74.312,205.752 76.144,205.872 C79.872,205.12 82.376,208.36 84.864,210.504 C83.704,211.632 82.536,212.752 81.384,213.888 C81.088,211.896 81.576,209.416 79.824,207.976 C78.52,207.4 77.032,207.72 75.648,207.608 C75.52,210.968 76.24,214.264 76.44,217.6 C76.704,220.36 74.112,223.104 71.288,222.728 C67.768,222.544 65.472,219.528 62.904,217.512 C64.408,215.84 65.968,214.216 67.576,212.64 C67.288,214.288 66.816,215.928 66.832,217.616 C67.112,220.6 71.96,221.808 73.216,218.816 C73.696,215.504 72.568,212.224 72.688,208.912 Z" id="Shape"></path>
            <path d="M167.64,211.92 C168.88,211.208 170.12,210.488 171.36,209.776 C172.656,215.984 172.816,222.456 175.136,228.424 C174.016,228.904 172.896,229.384 171.784,229.856 C171.312,223.792 171.624,216.952 167.64,211.92 Z" id="Shape"></path>
            <path d="M82.8,218.12 C84.168,215.944 86.76,215.44 88.992,214.592 C88.504,215.984 88.04,217.384 87.592,218.784 C89.824,219.144 91.992,219.816 94.104,220.632 C91.832,223.608 89.464,226.768 89.392,230.68 C87.848,230.712 86.304,230.72 84.768,230.72 C85.52,227.928 87.328,225.672 89.04,223.416 C89.968,222.432 90.136,221.088 89.88,219.808 C88.464,219.512 87,219.264 85.552,219.496 C82.856,221.288 80.8,223.92 79.344,226.792 C78.496,226.824 77.656,226.856 76.808,226.888 C77.232,223.104 80.704,220.976 82.8,218.12 Z" id="Shape"></path>
            <path d="M93.808,216.144 C94.984,215.512 96.344,215.856 97.608,215.888 C96.752,216.912 95.88,217.928 95,218.936 C94.584,218.008 94.152,217.096 93.808,216.144 Z" id="Shape"></path>
            <path d="M153.952,225.928 C151.888,222.088 153.896,214.936 159.128,215.544 C162.488,215.12 163.8,218.92 163.88,221.624 C164.488,227.672 160.976,233.888 155.304,236.216 C157.032,233.72 158.896,231.32 160.36,228.656 C158.112,228.224 154.968,228.52 153.952,225.928 Z M157.2,226 C158.264,226.56 159.432,226.896 160.576,227.296 C161.56,223.392 162.232,218.456 158.4,215.816 C155.608,218.408 154.68,222.912 157.2,226 Z" id="Shape"></path>
            <path d="M142.504,238.08 C144.008,231.736 144.512,225.208 144.448,218.704 C145.192,218.736 146.688,218.8 147.432,218.84 C146.856,225.008 145.68,231.16 146.04,237.384 C144.864,237.616 143.68,237.848 142.504,238.08 Z" id="Shape"></path>
            <path d="M106.024,225.832 C106.936,223.416 109.768,222.816 111.792,221.624 C110.16,226.472 105.12,230.176 105.8,235.664 C104.504,235.968 102.896,236.968 102.128,235.288 C103.072,232 104.792,229.008 106.024,225.832 Z" id="Shape"></path>
            <path d="M126.696,228.072 C126.856,225.776 129.36,224.872 130.912,223.624 C130.592,228.12 128.208,232.064 126.952,236.32 C127.928,236.456 128.904,236.608 129.88,236.776 C128.408,238.392 126.416,239.208 124.216,238.88 C124.976,235.256 126.096,231.72 126.696,228.072 Z" id="Shape"></path>
            <path d="M112.312,238.04 C109.232,232.72 114.144,226.048 119.912,226.104 C121.768,225.88 122.76,227.704 123.912,228.8 C121.736,232.472 117.4,232.864 113.592,233.416 C113.984,234.384 114.376,235.352 114.768,236.32 C116.648,236.432 118.52,236.552 120.392,236.792 C118.064,238.584 115.04,238.072 112.312,238.04 Z M114.512,232.216 C116.52,231.696 118.472,231.008 120.384,230.24 C120.48,229.504 120.672,228.048 120.768,227.312 C117.768,227.496 115.576,229.504 114.512,232.216 Z" id="Shape"></path>
        </g>
        <g id="#126c2dff" transform="translate(68.800000, 54.400000)" fill="#126C2D" fill-rule="nonzero">
            <path d="M64.824,1.504 C66.848,1.024 68.912,0.128 71.032,0.496 C72.96,1.944 74.072,4.16 75.36,6.144 C79.256,5.768 84.112,4.76 87.088,8.016 C89.68,11.864 89.792,17.048 93.184,20.44 C95.6,23.408 100.376,22.032 102.64,25.176 C104.864,27.88 107.664,30.016 110.656,31.808 C110.784,34.088 110.84,36.376 110.904,38.664 C112.824,39.656 115.024,40.4 116.432,42.128 C116.88,45.128 115.376,47.928 114.424,50.68 C116.496,51.904 118.592,53.088 120.696,54.28 C120.112,56.712 119.424,59.112 118.696,61.512 C120.128,63.976 122.12,66.496 121.936,69.496 C121.416,72.392 119.816,74.928 118.528,77.528 C120.728,78.584 122.92,79.656 125.096,80.768 C123.344,85.464 122.96,90.864 119.72,94.88 C117.328,96.72 113.848,96.048 111.384,97.784 C110.168,98.624 109.104,99.672 107.84,100.456 C105.92,101.512 103.608,101.568 101.68,102.608 C100.048,103.992 99.016,105.92 97.792,107.64 C95.608,106.952 93.432,106.24 91.24,105.6 C90.792,110.24 90.576,114.912 89.712,119.504 C89.224,122.768 88.52,126.208 89.48,129.456 C90.392,132.144 93.536,132.32 95.92,132.44 C100.336,132.528 104.72,133.16 109.128,133.328 C111.552,133.472 113.512,131.808 115.312,130.408 C112.296,134.808 107.376,137.168 103.224,140.288 L102.744,140.112 C100.696,139.368 98.656,138.528 96.496,138.176 C94.408,138.096 92.56,139.424 90.504,139.568 C88.616,139.336 86.896,138.392 85.008,138.184 C83.008,138.016 80.976,138.456 78.992,138.088 C76.4,137.384 74.096,135.552 71.304,135.672 C66.68,135.824 62.064,136.44 57.544,137.408 C51.392,138.952 45.016,137.016 38.808,138.08 C37.368,139.016 36.288,140.376 35.064,141.56 C32.488,144.424 28.216,143.856 24.832,145.008 C24.52,145.08 23.904,145.232 23.592,145.312 C22.32,143.992 21.08,142.64 19.88,141.256 C22.456,141.152 25.472,141.448 27.48,139.496 C30.136,137 32.72,134.24 36.272,133.032 C39.6,131.48 44.456,130.72 45.352,126.496 C46.216,122.336 46.424,117.824 45.112,113.744 C42.896,109.664 39.568,106.152 35.824,103.44 C31.552,100.416 26.664,104.44 22.072,103.648 C19.296,102.68 17.336,100.256 15.712,97.92 C13.872,95.296 13.112,91.52 9.736,90.368 C5.008,88.72 2.344,83.912 1.656,79.192 C0.792,72.56 0.288,65.872 0.264,59.184 C0.232,52.84 2.28,46.424 6.312,41.488 C7.336,40.112 8.544,38.824 9.192,37.216 C9.576,34.296 8.44,31.288 9.384,28.424 C10.328,25.592 11.312,22.768 12.296,19.944 C12.8,18.408 13.696,16.944 15.176,16.184 C21.304,12.832 27.944,10.48 33.928,6.872 C36.184,5.816 38.784,5.976 41.128,5.16 C44.864,3.928 48.832,4.088 52.704,4.096 C52.624,5.848 52.536,7.592 52.448,9.344 C54.576,9.528 56.704,9.72 58.832,9.92 C59.64,12.968 60.56,15.984 61.64,18.944 C62.472,18.784 63.304,18.616 64.136,18.456 C65.592,12.904 65.088,7.16 64.824,1.504 Z M17.392,31.536 C17.168,47.96 17.232,64.4 17.368,80.824 C20.328,80.416 23.232,79.648 26.04,78.624 C26.264,72.08 26.072,65.536 26.176,58.992 C29.224,58.968 32.272,58.912 35.32,58.8 C35.304,56.968 35.288,55.136 35.28,53.304 C32.416,53.224 29.552,53.176 26.68,53.168 C26.496,48.984 26.496,44.792 26.648,40.6 C36.752,42.104 46.384,45.656 56.352,47.784 C56.36,45.736 56.344,43.688 56.304,41.64 C48.12,39.488 39.92,37.4 31.752,35.184 C27.016,33.792 22.272,32.368 17.392,31.536 Z M66.072,44.968 C65.88,52.584 65.872,60.216 66.088,67.832 C74.968,66.36 83.464,63.272 92.176,61.08 C98.256,59.256 104.576,58.296 110.552,56.12 C106.168,54.6 101.472,52.984 96.808,54.152 C88.808,56.224 80.816,58.328 72.872,60.56 C72.008,55.872 72.864,51.088 72.232,46.392 C70.672,44.696 68.112,45.304 66.072,44.968 Z M45.328,53.328 C45.232,59.8 45.168,66.28 45.448,72.752 C47.496,72.624 49.536,72.488 51.592,72.344 C51.928,65.96 51.864,59.56 51.632,53.184 C49.528,53.216 47.424,53.264 45.328,53.328 Z M66.088,111.168 C66.328,116.32 65.936,121.496 66.512,126.632 C67.456,124.824 68.568,122.984 68.496,120.872 C68.552,115.704 68.672,110.448 67.368,105.4 C66.352,107.152 65.912,109.144 66.088,111.168 Z M77.304,123.84 C79.92,124.064 80.344,121.216 80.376,119.24 C80.44,114.632 80.624,110 80.232,105.4 C77.512,111.08 77.144,117.632 77.304,123.84 Z M54.024,110.504 C53.928,114.352 54.88,118.12 55.32,121.928 C56.992,117.392 56.728,112.368 55.608,107.744 C54.992,108.592 53.992,109.352 54.024,110.504 Z" id="Shape"></path>
        </g>
    </g>
</svg>