<?xml version="1.0" encoding="UTF-8" ?>
<!DOCTYPE svg PUBLIC "-//W3C//DTD SVG 1.1//EN" "http://www.w3.org/Graphics/SVG/1.1/DTD/svg11.dtd">
<svg width="935pt" height="935pt" viewBox="0 0 935 935" version="1.1" xmlns="http://www.w3.org/2000/svg">
<g id="#ffffffff">
<path fill="#ffffff" opacity="1.00" d=" M 444.03 114.74 C 456.61 114.43 469.40 113.46 481.78 116.32 C 488.04 117.69 493.95 120.97 498.10 125.90 C 503.86 132.70 505.02 142.72 501.98 150.95 C 499.29 157.85 492.74 161.96 486.50 165.30 C 488.92 171.60 492.38 177.43 495.49 183.40 C 499.46 190.54 503.55 197.82 509.45 203.57 C 512.73 206.93 517.61 207.70 522.04 208.42 C 526.43 208.81 528.16 203.97 529.86 200.83 C 538.55 181.80 547.04 162.67 555.59 143.57 C 556.89 140.21 558.82 136.75 558.37 133.04 C 557.19 129.95 553.81 128.71 551.31 126.94 C 552.01 125.31 552.32 121.63 554.96 122.73 C 570.06 128.35 585.08 134.34 599.55 141.44 C 613.52 148.59 627.71 158.54 633.12 173.97 C 641.90 197.47 628.40 226.06 605.36 235.34 C 592.47 240.57 577.81 239.45 564.85 235.10 C 548.37 230.01 534.09 219.80 517.80 214.26 C 512.86 214.02 507.88 214.90 502.96 214.06 C 494.68 213.19 486.93 208.68 482.18 201.84 C 476.83 194.14 472.72 185.66 468.90 177.12 C 467.71 174.45 466.05 171.43 462.89 170.89 C 460.43 170.60 457.76 170.31 455.46 171.41 C 454.16 176.86 455.43 182.47 455.29 188.00 C 455.46 193.50 454.72 199.20 456.43 204.53 C 458.45 208.62 463.86 207.88 467.61 209.04 C 467.65 210.74 467.68 212.45 467.70 214.16 C 461.47 214.54 455.23 213.99 449.00 213.95 C 440.13 214.29 431.25 214.38 422.38 214.73 C 422.22 213.01 422.15 211.29 422.16 209.57 C 425.78 208.24 430.90 208.95 433.20 205.29 C 434.97 200.42 434.39 195.09 434.48 190.00 C 433.98 179.01 434.52 168.01 434.07 157.02 C 433.90 147.41 434.34 137.77 433.48 128.19 C 433.21 126.14 432.55 123.55 430.33 122.85 C 427.71 122.01 424.94 121.80 422.25 121.33 C 422.21 119.68 422.21 118.04 422.25 116.41 C 429.45 115.26 436.77 115.28 444.03 114.74 M 456.33 122.10 C 454.42 123.26 454.89 126.03 454.70 127.96 C 454.94 138.94 454.27 149.95 455.16 160.91 C 454.96 163.06 457.38 163.52 459.03 163.66 C 464.06 163.98 469.64 164.06 473.85 160.84 C 478.64 157.16 480.41 150.82 480.49 145.01 C 480.78 138.68 479.29 131.90 474.81 127.18 C 470.21 122.33 462.73 120.28 456.33 122.10 M 580.46 143.25 C 578.55 145.26 577.54 147.89 576.39 150.36 C 568.40 168.36 560.25 186.29 552.28 204.30 C 550.63 208.65 548.22 213.73 550.64 218.25 C 553.63 223.56 559.67 226.03 565.24 227.66 C 573.74 230.11 583.16 228.41 590.40 223.39 C 600.99 216.15 607.77 204.49 611.68 192.49 C 614.50 183.57 615.07 173.53 611.16 164.84 C 606.65 154.47 596.79 147.48 586.57 143.40 C 584.69 142.83 582.10 141.67 580.46 143.25 Z" />
<path fill="#ffffff" opacity="1.00" d=" M 361.22 125.12 C 363.86 125.02 366.50 125.22 369.04 125.94 C 368.72 129.79 368.00 133.58 367.35 137.38 C 379.74 139.98 390.54 148.11 397.33 158.69 C 405.27 171.01 409.83 186.31 406.69 200.92 C 404.33 212.50 397.08 222.67 387.71 229.70 C 376.33 238.22 362.30 243.55 347.96 243.06 C 347.17 247.33 346.37 251.60 345.52 255.86 C 342.70 256.14 339.91 255.65 337.44 254.23 C 338.13 250.18 338.92 246.14 339.62 242.09 C 310.05 235.03 292.84 198.93 304.22 171.16 C 312.75 149.55 336.20 136.25 358.91 136.46 C 359.67 132.67 360.34 128.87 361.22 125.12 M 320.81 165.62 C 318.27 176.38 321.27 187.54 325.56 197.44 C 329.76 206.87 335.33 215.89 343.09 222.80 C 347.66 198.92 352.04 174.98 356.22 151.03 C 352.52 147.77 346.93 147.14 342.12 147.35 C 332.11 148.15 323.11 155.83 320.81 165.62 M 363.92 156.03 C 359.63 178.18 355.82 200.42 351.69 222.60 C 351.51 224.59 350.56 226.68 351.19 228.65 C 363.55 236.71 382.51 230.09 386.79 215.86 C 390.08 204.52 386.46 192.60 382.07 182.08 C 377.94 172.27 372.13 162.94 363.92 156.03 Z" />
<path fill="#ffffff" opacity="1.00" d=" M 678.39 193.79 C 679.73 192.64 681.14 191.57 682.62 190.59 C 694.41 204.36 706.90 217.50 719.12 230.90 C 723.60 235.79 728.16 240.61 732.88 245.28 C 727.53 251.34 722.02 257.27 716.49 263.17 C 715.04 262.08 712.68 261.19 712.73 259.06 C 714.40 254.43 717.74 250.14 717.47 244.99 C 716.81 239.33 712.98 234.80 709.20 230.82 C 706.13 227.65 703.46 224.04 699.94 221.35 C 697.78 221.49 696.40 223.57 694.78 224.79 C 687.73 231.61 680.12 237.85 673.36 244.95 C 677.57 249.92 681.70 255.11 686.76 259.25 C 691.32 262.30 696.05 257.68 700.04 255.70 C 701.32 257.02 702.55 258.40 703.71 259.86 C 696.23 266.32 688.80 272.83 681.86 279.87 C 680.79 280.74 679.86 282.45 678.24 281.83 C 676.98 281.10 675.38 279.72 675.75 278.13 C 677.20 274.96 680.10 272.45 680.71 268.91 C 681.05 266.32 679.18 264.22 677.69 262.35 C 674.20 258.44 670.65 254.57 666.93 250.86 C 661.85 254.76 657.41 259.41 652.59 263.61 C 648.59 267.37 644.05 270.99 641.82 276.16 C 640.32 280.57 643.81 284.43 646.37 287.61 C 650.62 292.30 654.62 297.76 660.66 300.25 C 667.02 302.67 673.66 299.96 679.98 298.80 C 682.40 298.25 682.93 301.35 683.99 302.86 C 677.12 308.16 669.35 312.27 661.19 315.18 C 643.83 295.43 625.99 276.10 607.86 257.06 C 605.77 255.36 608.81 252.07 610.87 252.58 C 614.77 254.63 617.47 258.98 621.99 259.75 C 625.37 259.11 627.88 256.51 630.44 254.40 C 646.05 240.03 661.70 225.69 677.31 211.30 C 679.64 208.92 682.51 206.50 683.03 203.02 C 682.28 199.60 680.02 196.81 678.39 193.79 Z" />
<path fill="#ffffff" opacity="1.00" d=" M 255.38 191.73 C 261.48 197.20 267.68 202.55 273.66 208.16 C 272.57 209.59 271.72 211.43 269.92 212.08 C 265.52 210.84 261.73 207.59 257.01 207.52 C 251.99 207.70 248.02 211.29 244.73 214.72 C 241.08 218.81 237.17 222.68 233.87 227.07 C 237.95 231.68 242.71 235.60 247.19 239.79 C 251.80 243.83 256.07 248.28 261.00 251.94 C 265.16 248.10 268.86 243.81 272.65 239.63 C 274.28 237.64 276.35 235.21 275.58 232.45 C 274.48 229.29 272.11 226.83 270.62 223.88 C 270.68 221.54 273.96 218.49 275.89 221.06 C 283.13 228.44 290.96 235.21 298.74 242.01 C 297.48 243.19 296.69 245.50 294.86 245.73 C 291.12 244.76 288.13 241.37 284.05 241.62 C 280.47 242.78 278.20 246.05 275.66 248.62 C 273.05 251.73 269.81 254.37 267.84 257.96 C 268.98 259.84 270.67 261.28 272.29 262.74 C 278.32 268.02 284.03 273.66 290.14 278.86 C 292.18 280.40 294.30 282.26 296.97 282.47 C 300.95 281.54 303.46 277.89 306.95 275.99 C 308.37 276.86 309.60 278.01 310.86 279.10 C 300.93 290.09 290.43 300.59 280.98 312.03 C 279.85 313.01 279.07 315.06 277.27 314.67 C 276.08 313.89 275.09 312.87 274.06 311.92 C 275.95 307.82 281.63 303.42 278.36 298.70 C 273.67 292.74 267.54 288.12 262.08 282.91 C 250.08 271.92 238.10 260.90 226.02 250.00 C 223.40 247.93 220.70 245.00 217.10 245.16 C 214.05 245.99 211.86 248.50 208.99 249.71 C 207.49 248.99 206.20 247.79 205.92 246.10 C 209.67 241.49 214.23 237.60 218.11 233.10 C 230.55 219.33 243.41 205.93 255.38 191.73 Z" />
<path fill="#ffffff" opacity="1.00" d=" M 430.10 254.80 C 437.23 254.60 443.99 251.95 451.09 251.40 C 457.70 250.25 464.39 251.47 471.02 250.84 C 476.04 250.44 481.47 252.34 484.40 256.60 C 486.36 259.37 486.36 262.91 487.60 265.98 C 489.81 262.64 489.96 258.59 490.59 254.77 C 519.14 255.71 546.04 267.30 570.19 281.83 C 576.09 285.52 582.39 288.71 587.54 293.46 C 601.79 305.53 615.60 318.69 624.95 335.05 C 627.53 339.30 629.14 344.05 631.67 348.33 C 642.12 366.91 650.07 386.99 654.15 407.95 C 658.75 431.41 658.24 455.79 653.12 479.12 C 652.38 482.94 650.17 486.23 648.96 489.89 C 645.73 498.31 644.27 507.34 640.57 515.57 C 635.16 524.59 630.31 533.97 624.49 542.73 C 619.40 536.63 622.48 528.25 620.74 521.19 C 620.27 518.81 618.42 517.15 616.64 515.71 C 616.98 526.21 616.70 536.94 613.17 546.95 C 607.17 565.32 593.51 579.98 578.56 591.65 C 573.16 591.86 568.19 594.41 565.03 598.82 C 561.87 596.93 559.46 593.85 558.89 590.17 C 557.40 583.60 558.50 576.82 557.49 570.21 C 556.92 565.83 553.96 562.32 552.65 558.19 C 550.04 550.82 549.00 542.47 543.41 536.56 C 544.29 558.85 550.76 580.66 550.15 603.05 C 550.13 605.89 548.64 608.77 546.02 610.04 C 541.20 612.44 535.37 611.84 530.72 614.70 C 529.39 615.42 528.31 616.60 526.85 617.05 C 511.34 617.93 496.58 624.36 480.93 623.96 C 475.48 623.74 470.14 622.49 465.02 620.62 C 472.04 599.84 474.01 577.80 474.60 556.00 C 474.55 548.88 475.17 541.76 474.57 534.65 C 474.08 534.94 473.10 535.52 472.61 535.81 C 472.16 564.23 463.80 591.64 455.57 618.59 C 449.62 623.27 441.42 622.56 434.41 621.33 C 429.07 620.15 423.66 619.19 418.39 617.76 C 410.80 613.73 403.44 609.26 395.89 605.15 C 394.66 604.39 393.23 603.86 392.32 602.71 C 393.51 584.99 389.37 567.52 388.16 549.91 C 386.29 550.76 384.19 551.85 383.84 554.11 C 384.05 568.24 384.25 582.41 383.61 596.54 C 370.59 595.97 358.65 589.43 349.18 580.82 C 338.29 571.30 329.67 559.60 320.36 548.61 C 311.96 538.94 306.48 527.23 299.27 516.72 C 297.45 514.10 295.26 511.63 294.49 508.45 C 284.65 477.78 276.30 445.23 281.59 412.86 C 287.60 373.50 305.12 335.22 334.30 307.66 C 337.35 309.58 340.28 311.70 343.33 313.65 C 341.39 308.58 340.07 302.38 343.74 297.73 C 349.39 290.28 358.72 286.77 364.51 279.39 C 375.29 275.93 383.80 267.13 395.24 265.51 C 399.28 265.14 403.91 264.99 407.29 267.62 C 410.77 270.13 414.06 272.89 417.73 275.15 C 419.00 270.87 415.30 267.97 413.13 264.87 C 411.28 262.66 412.68 258.84 415.54 258.44 C 420.40 257.25 425.20 255.80 430.10 254.80 M 432.86 289.90 C 410.00 294.72 387.54 301.61 366.11 310.96 C 364.25 311.38 363.66 313.04 363.82 314.79 C 372.35 311.90 380.85 308.92 389.50 306.42 C 433.70 293.17 479.76 287.50 525.71 284.89 C 525.61 284.24 525.42 282.92 525.33 282.26 C 494.35 280.56 463.20 283.51 432.86 289.90 M 590.90 305.75 C 599.94 319.92 611.54 332.31 620.30 346.70 C 630.02 362.03 634.71 379.97 636.61 397.88 C 637.62 408.22 638.76 418.65 637.82 429.05 C 637.05 441.83 636.37 454.63 635.23 467.39 C 634.99 471.61 632.63 475.28 631.14 479.14 C 628.29 485.50 626.24 492.38 627.05 499.43 C 637.13 479.32 643.04 457.22 645.39 434.88 C 646.23 424.29 647.19 413.57 645.66 403.00 C 642.69 380.23 634.75 358.06 622.24 338.78 C 613.84 326.08 603.55 314.34 590.90 305.75 M 318.42 383.40 C 315.91 395.43 315.79 407.82 316.08 420.07 C 316.88 438.14 320.50 456.11 327.00 473.00 C 330.76 482.39 334.69 491.95 341.23 499.78 C 351.37 513.19 359.55 528.92 373.93 538.38 C 362.05 516.61 344.66 498.10 334.82 475.16 C 326.51 451.57 320.00 426.01 325.13 401.00 C 322.60 390.05 324.68 378.75 328.27 368.29 C 331.29 358.78 335.71 349.46 336.11 339.34 C 327.95 353.00 324.34 368.74 318.42 383.40 M 371.15 377.12 C 359.37 382.56 347.57 388.11 336.53 394.93 C 341.71 393.17 346.60 390.64 351.71 388.69 C 428.65 357.31 512.44 345.35 595.17 346.14 C 587.24 344.20 579.08 343.46 571.00 342.44 C 502.82 335.36 433.40 349.09 371.15 377.12 M 588.56 430.51 C 520.39 455.61 447.49 466.38 375.03 466.80 C 370.23 467.36 365.43 466.23 360.63 466.88 C 376.18 470.30 392.16 471.52 408.04 472.25 C 469.55 474.43 531.11 460.40 586.96 434.91 C 597.95 429.77 608.99 424.56 619.30 418.13 C 609.06 422.26 598.96 426.76 588.56 430.51 M 580.18 495.23 C 538.75 507.92 494.98 509.03 453.00 519.18 C 448.38 520.17 443.85 522.32 439.03 521.50 C 431.61 521.21 422.86 520.85 417.29 526.68 C 425.51 527.20 433.72 526.18 441.91 525.51 C 458.94 523.54 475.93 521.08 493.04 519.93 C 511.10 515.59 529.44 512.54 547.56 508.50 C 564.08 504.64 580.80 499.82 595.05 490.31 C 590.06 491.85 585.20 493.80 580.18 495.23 Z" />
<path fill="#ffffff" opacity="1.00" d=" M 244.13 378.75 C 244.92 378.79 246.50 378.88 247.29 378.92 C 246.13 388.23 244.82 397.52 243.96 406.86 C 242.89 406.74 241.82 406.61 240.76 406.50 C 240.52 404.58 240.27 402.67 239.99 400.77 C 234.16 401.55 228.56 403.39 222.86 404.79 C 215.16 406.81 207.41 408.63 199.75 410.84 C 206.24 415.03 213.21 418.37 219.94 422.14 C 225.33 424.89 230.58 428.00 236.26 430.15 C 237.10 428.25 237.94 426.35 238.82 424.47 C 239.56 424.69 241.05 425.12 241.80 425.34 C 240.72 431.79 239.90 438.28 239.34 444.80 C 239.26 446.51 237.61 447.37 236.34 446.02 C 235.48 443.03 235.49 439.36 232.58 437.46 C 224.87 431.52 216.08 427.16 207.75 422.17 C 199.32 417.17 190.58 412.73 181.96 408.07 C 179.30 407.01 180.59 403.83 180.55 401.69 C 197.08 397.71 213.47 393.17 229.92 388.87 C 233.02 388.02 236.18 387.35 239.18 386.17 C 242.38 385.16 242.83 381.37 244.13 378.75 Z" />
<path fill="#ffffff" opacity="1.00" d=" M 727.68 387.68 C 731.70 383.29 738.21 382.34 743.81 383.48 C 748.89 384.52 752.77 388.71 754.66 393.38 C 757.66 400.50 758.42 408.31 758.84 415.95 C 759.24 422.34 760.20 428.67 760.98 435.02 C 759.97 435.26 758.98 435.50 757.99 435.75 C 756.98 433.40 756.04 431.02 755.01 428.69 C 752.36 428.43 749.69 428.34 747.06 428.65 C 734.84 430.04 722.61 431.29 710.39 432.62 C 708.37 432.92 706.25 433.14 704.46 434.17 C 703.15 436.03 703.40 438.56 702.82 440.72 C 702.09 440.76 700.64 440.85 699.91 440.90 C 697.95 431.02 696.55 421.02 695.84 410.98 C 695.64 406.26 695.92 401.31 697.98 396.99 C 700.93 390.84 709.10 387.99 715.27 390.79 C 718.93 392.51 720.78 396.29 722.85 399.53 C 723.73 395.35 724.62 390.88 727.68 387.68 M 730.22 402.22 C 726.64 406.38 727.24 412.26 728.28 417.25 C 733.76 417.00 739.21 416.29 744.66 415.69 C 747.88 415.21 751.99 414.40 753.14 410.85 C 754.56 406.15 752.35 400.14 747.44 398.53 C 741.71 396.45 734.38 397.53 730.22 402.22 M 701.21 411.18 C 700.14 414.13 700.94 417.27 701.83 420.15 C 709.05 419.66 716.23 418.78 723.41 417.95 C 723.53 413.58 723.16 408.48 719.51 405.50 C 713.62 401.20 703.24 403.77 701.21 411.18 Z" />
<path fill="#ffffff" opacity="1.00" d=" M 208.40 445.61 C 217.51 444.23 227.24 446.68 234.26 452.73 C 245.49 462.22 248.84 479.20 243.62 492.68 C 240.09 501.59 231.86 508.20 222.61 510.40 C 213.73 512.60 203.70 512.18 195.82 507.12 C 187.71 502.13 183.00 492.98 181.51 483.79 C 179.86 475.11 181.13 465.60 186.30 458.27 C 191.28 450.98 199.80 446.75 208.40 445.61 M 211.38 460.55 C 205.31 461.67 199.29 463.68 194.14 467.14 C 190.34 469.68 187.11 473.46 186.22 478.05 C 184.91 484.08 187.46 490.99 193.02 493.99 C 199.82 497.73 207.97 497.40 215.41 496.25 C 223.77 494.94 232.48 491.74 237.94 484.96 C 243.08 478.75 241.64 468.52 235.05 463.91 C 228.21 459.14 219.29 459.18 211.38 460.55 Z" />
<path fill="#ffffff" opacity="1.00" d=" M 701.69 452.69 C 706.11 447.59 714.64 446.93 719.90 451.10 C 722.98 453.68 723.82 457.80 724.91 461.47 C 726.71 457.93 728.36 454.08 731.64 451.63 C 739.53 445.50 752.97 449.10 756.29 458.69 C 758.88 466.32 757.88 474.63 756.74 482.45 C 755.30 489.81 754.56 497.27 753.67 504.71 C 752.63 504.71 751.59 504.72 750.57 504.74 C 750.21 502.36 750.16 499.91 749.29 497.65 C 747.21 495.97 744.41 495.86 741.89 495.41 C 730.05 493.81 718.20 492.29 706.36 490.68 C 703.80 490.40 701.15 489.93 698.63 490.66 C 696.52 494.80 693.80 500.93 696.99 505.04 C 706.93 511.92 719.03 514.67 729.56 520.50 C 734.75 523.41 739.66 527.80 741.08 533.82 C 742.95 542.12 739.94 550.61 735.64 557.64 C 732.25 562.99 726.67 567.63 720.02 567.55 C 710.28 567.65 701.72 562.37 692.86 559.07 C 686.95 556.98 681.43 553.42 675.13 552.68 C 673.31 554.12 672.06 556.11 670.70 557.96 C 669.70 557.59 668.71 557.23 667.73 556.86 C 671.12 548.85 674.68 540.91 677.72 532.75 C 677.98 530.94 679.88 530.77 681.34 530.49 C 681.47 533.16 680.65 535.96 681.41 538.57 C 683.20 540.30 685.61 541.17 687.85 542.19 C 695.61 545.33 703.29 548.68 711.07 551.81 C 716.04 553.74 721.50 555.38 726.85 554.10 C 732.50 552.34 735.94 546.49 736.61 540.86 C 737.15 536.70 735.17 532.62 732.18 529.82 C 727.14 524.93 720.38 522.58 714.06 519.87 C 707.49 517.22 700.98 514.13 693.99 512.75 C 689.25 512.08 688.84 520.76 683.86 518.17 C 687.31 508.69 693.48 499.78 693.39 489.36 C 693.87 481.79 694.66 474.22 695.98 466.75 C 696.96 461.79 698.26 456.59 701.69 452.69 M 701.76 466.76 C 699.75 469.45 699.58 472.93 699.53 476.16 C 706.74 477.69 714.10 478.71 721.47 478.98 C 722.34 474.49 723.29 468.98 719.62 465.43 C 714.74 460.97 705.72 461.12 701.76 466.76 M 732.28 465.21 C 727.32 468.20 726.20 474.42 726.18 479.76 C 731.39 480.85 736.69 481.48 741.97 482.12 C 745.09 482.34 748.87 482.80 751.22 480.22 C 754.53 476.23 753.76 469.56 749.56 466.46 C 744.69 462.92 737.56 462.15 732.28 465.21 Z" />
<path fill="#ffffff" opacity="1.00" d=" M 247.78 508.86 C 248.79 508.58 249.81 508.31 250.82 508.06 C 254.33 517.10 258.48 525.87 262.28 534.79 C 261.30 535.14 260.33 535.49 259.35 535.85 C 257.96 534.06 256.76 532.03 254.88 530.70 C 252.08 530.63 249.51 531.92 246.98 532.97 C 236.36 537.73 225.62 542.24 214.98 546.99 C 212.20 548.35 208.34 550.21 208.72 553.91 C 209.75 558.47 211.66 562.88 214.22 566.79 C 217.53 571.45 223.86 570.90 228.87 571.84 C 228.89 572.69 228.93 574.39 228.95 575.24 C 223.81 576.65 218.52 577.51 213.18 577.74 C 206.85 562.35 199.99 547.18 193.37 531.92 C 194.41 531.58 195.46 531.26 196.51 530.94 C 197.98 532.95 198.92 535.73 201.27 536.88 C 203.91 537.13 206.35 535.69 208.75 534.79 C 219.88 529.91 231.01 525.03 242.17 520.22 C 244.40 519.19 246.76 518.19 248.48 516.37 C 249.06 513.86 248.13 511.33 247.78 508.86 Z" />
<path fill="#ffffff" opacity="1.00" d=" M 268.77 555.47 C 269.52 555.35 271.03 555.11 271.78 554.99 C 276.81 563.15 283.26 570.32 288.40 578.38 C 287.76 578.76 286.48 579.53 285.83 579.91 C 284.22 578.53 282.74 576.93 280.81 575.99 C 278.24 575.84 276.19 577.79 274.14 579.08 C 264.36 586.33 254.50 593.47 244.75 600.76 C 242.43 602.60 239.26 605.18 240.50 608.54 C 242.37 612.95 245.38 616.88 248.84 620.18 C 253.14 623.72 259.07 621.98 264.10 621.68 C 264.39 622.78 264.68 623.89 264.96 625.01 C 260.26 627.42 255.40 629.76 250.17 630.76 C 249.13 629.79 248.32 628.63 247.50 627.50 C 239.21 615.53 230.42 603.92 221.69 592.28 C 220.08 591.09 221.93 588.54 223.61 589.26 C 225.52 590.69 227.04 592.62 229.14 593.81 C 231.98 593.16 234.33 591.33 236.65 589.68 C 246.41 582.43 256.26 575.29 266.03 568.06 C 267.86 566.56 270.07 565.19 270.98 562.91 C 270.58 560.34 269.41 557.98 268.77 555.47 Z" />
<path fill="#ffffff" opacity="1.00" d=" M 635.49 598.52 C 641.42 590.01 648.04 581.99 654.03 573.51 C 654.94 574.00 655.86 574.51 656.79 575.03 C 655.96 577.01 654.91 578.92 654.44 581.03 C 654.91 583.63 657.44 585.10 659.29 586.73 C 668.05 593.27 676.75 599.91 685.46 606.52 C 688.58 608.57 691.82 612.05 695.87 611.30 C 700.14 608.90 702.81 604.45 705.39 600.42 C 708.65 595.14 704.82 589.38 703.11 584.29 C 704.02 583.66 704.94 583.05 705.87 582.44 C 709.74 586.19 713.13 590.42 715.92 595.04 C 705.77 608.06 695.70 621.15 686.07 634.55 C 685.34 634.18 683.86 633.44 683.13 633.07 C 684.24 630.72 685.63 628.48 686.33 625.97 C 685.28 623.42 682.92 621.81 680.87 620.15 C 671.53 613.14 662.22 606.11 652.93 599.04 C 650.45 597.24 648.05 595.03 645.00 594.32 C 641.98 594.81 640.76 597.93 639.18 600.13 C 636.91 603.12 634.32 606.09 633.61 609.91 C 632.06 617.17 631.92 624.65 631.75 632.05 C 641.01 635.41 650.42 638.37 659.85 641.21 C 663.20 642.10 666.52 643.35 670.02 643.52 C 672.78 643.24 675.09 641.48 677.73 640.76 C 678.23 641.30 679.21 642.37 679.70 642.91 C 672.01 648.94 664.45 655.16 656.84 661.28 C 652.96 660.75 656.04 656.76 657.13 654.90 C 648.64 652.01 640.14 649.07 631.51 646.66 C 629.51 645.83 627.65 646.91 625.93 647.84 C 628.82 652.57 632.57 656.67 635.97 661.02 C 637.79 663.13 639.46 665.61 642.11 666.76 C 644.37 666.20 646.35 664.86 648.62 664.32 C 649.27 665.04 649.90 665.80 650.49 666.61 C 643.00 672.15 635.87 678.17 628.66 684.05 C 627.29 685.53 625.04 682.81 626.43 681.54 C 627.47 680.00 628.72 678.59 629.59 676.94 C 629.33 674.77 627.93 673.00 626.68 671.31 C 619.14 661.86 611.47 652.52 603.93 643.07 C 601.80 640.59 599.95 637.60 596.87 636.22 C 594.35 636.72 592.16 638.16 589.81 639.12 C 589.77 638.01 588.21 636.42 589.48 635.64 C 596.88 629.90 604.29 624.16 611.26 617.90 C 611.92 618.85 612.67 619.75 613.48 620.62 C 612.01 622.33 610.36 623.96 609.39 626.04 C 609.84 628.65 611.63 630.73 613.19 632.78 C 616.56 636.88 619.73 641.15 623.40 645.00 C 626.35 642.14 626.46 637.82 626.51 634.00 C 626.41 626.85 626.76 619.68 625.99 612.57 C 623.91 613.17 619.20 615.25 619.93 611.23 C 624.94 606.80 630.69 603.21 635.49 598.52 Z" />
<path fill="#ffffff" opacity="1.00" d=" M 299.60 597.42 C 300.22 597.01 301.47 596.20 302.09 595.79 C 312.77 605.86 324.14 615.14 335.15 624.84 C 336.88 626.46 338.65 628.09 340.76 629.25 C 347.47 633.06 354.29 636.67 361.22 640.08 C 360.80 641.04 360.39 642.00 359.98 642.98 C 357.86 642.60 355.75 642.20 353.63 641.86 C 352.54 650.90 351.90 660.00 351.59 669.10 C 359.57 664.06 367.55 658.89 374.86 652.90 C 373.37 651.46 371.85 650.07 370.30 648.71 C 370.71 647.76 371.13 646.81 371.56 645.88 C 377.41 648.50 382.57 652.58 388.72 654.54 C 398.26 656.69 407.95 658.47 417.14 661.90 C 422.28 663.87 427.61 667.04 429.45 672.56 C 430.76 677.45 429.94 683.47 425.79 686.80 C 422.93 689.25 418.99 689.49 415.45 690.15 C 418.76 692.55 422.61 694.68 424.45 698.54 C 427.58 704.82 425.98 713.09 420.94 717.93 C 417.23 721.40 411.91 722.47 406.98 722.16 C 393.76 721.38 381.62 715.49 368.69 713.16 C 368.74 712.43 368.85 710.97 368.90 710.24 C 371.41 710.01 374.04 710.27 376.46 709.45 C 378.29 707.57 378.74 704.87 379.51 702.47 C 382.67 690.54 385.86 678.63 389.02 666.71 C 389.46 664.65 390.15 662.52 389.71 660.41 C 387.55 657.84 383.45 656.59 380.37 658.20 C 373.95 661.22 368.16 665.37 362.17 669.13 C 357.65 672.15 352.38 674.67 349.69 679.66 C 347.28 684.05 344.55 688.35 342.91 693.11 C 341.84 696.62 346.42 698.16 348.46 700.18 C 347.99 701.20 347.51 702.23 347.04 703.26 C 338.13 698.24 329.17 693.32 319.99 688.83 C 320.32 687.79 320.66 686.75 321.01 685.72 C 324.09 686.22 328.48 689.32 330.58 685.57 C 334.40 679.26 339.03 672.75 339.02 665.06 C 339.37 657.04 339.58 649.02 340.02 641.02 C 340.03 638.81 340.23 636.53 339.52 634.42 C 338.35 632.41 336.35 631.09 334.70 629.51 C 332.76 632.01 331.02 634.67 328.99 637.11 C 328.07 638.67 326.35 637.40 325.07 637.18 C 326.03 633.13 328.84 628.69 326.34 624.66 C 323.53 619.99 318.73 617.04 314.77 613.46 C 309.51 618.68 304.84 624.46 300.07 630.12 C 303.58 633.07 306.63 636.95 311.01 638.60 C 313.31 637.93 315.19 636.37 317.14 635.06 C 318.11 635.62 319.07 636.20 320.04 636.78 C 315.90 642.01 311.28 646.84 307.07 652.01 C 306.09 653.76 304.66 651.69 303.50 651.25 C 304.52 648.87 305.89 646.60 306.32 644.02 C 304.31 639.80 299.87 637.50 296.63 634.32 C 292.56 638.37 288.84 642.76 285.25 647.24 C 283.96 649.14 282.18 651.37 282.87 653.82 C 284.02 656.27 286.15 658.06 288.08 659.90 C 290.71 662.18 293.44 664.74 296.99 665.40 C 301.11 666.00 304.77 663.36 308.78 663.07 C 309.35 663.54 310.49 664.47 311.06 664.94 C 307.00 668.65 302.59 672.66 297.24 674.19 C 284.76 663.08 272.10 652.16 259.38 641.32 C 259.88 640.70 260.87 639.47 261.36 638.85 C 263.89 640.25 266.25 642.03 269.03 642.92 C 271.35 642.23 272.90 640.21 274.52 638.54 C 282.11 629.79 289.67 621.01 297.29 612.29 C 299.42 609.70 302.04 607.30 303.09 604.03 C 302.24 601.67 300.72 599.64 299.60 597.42 M 402.96 665.84 C 401.17 671.90 399.67 678.04 398.08 684.15 C 401.93 685.59 406.37 687.37 410.37 685.36 C 415.45 682.85 417.14 676.32 415.96 671.13 C 414.75 666.37 409.78 663.54 405.13 663.30 C 403.64 663.09 403.37 664.82 402.96 665.84 M 397.34 689.26 C 395.11 692.33 394.96 696.44 393.76 699.99 C 392.92 704.25 390.56 708.97 392.83 713.15 C 396.27 717.60 403.90 717.94 407.57 713.55 C 411.37 708.99 413.12 702.10 410.49 696.57 C 408.03 691.79 402.46 689.51 397.34 689.26 Z" />
<path fill="#ffffff" opacity="1.00" d=" M 542.37 656.93 C 551.46 653.29 560.17 648.79 569.14 644.86 C 569.34 645.83 569.52 646.81 569.66 647.81 C 568.20 649.40 566.28 650.51 564.99 652.26 C 564.89 655.45 566.53 658.32 567.76 661.16 C 572.71 671.63 577.35 682.24 582.35 692.69 C 583.70 695.16 585.62 698.67 588.98 698.13 C 593.46 697.11 597.75 695.12 601.59 692.61 C 606.34 689.24 605.88 682.78 606.57 677.65 C 607.65 677.52 608.75 677.40 609.85 677.29 C 611.63 682.47 612.48 687.92 612.78 693.39 C 598.74 699.30 584.91 705.73 571.19 712.34 C 569.80 712.94 568.35 713.39 566.89 713.79 C 566.71 712.76 566.53 711.75 566.37 710.74 C 568.40 709.27 571.16 708.26 572.26 705.86 C 572.26 703.61 571.20 701.55 570.37 699.51 C 565.02 687.89 559.70 676.26 554.34 664.65 C 553.19 662.53 552.27 659.88 549.91 658.84 C 547.56 658.98 545.29 659.61 542.99 659.98 C 542.83 659.21 542.52 657.69 542.37 656.93 Z" />
<path fill="#ffffff" opacity="1.00" d=" M 494.19 667.39 C 503.20 665.64 512.21 663.82 521.16 661.72 C 521.26 662.53 521.46 664.14 521.56 664.95 C 519.65 665.85 517.57 666.53 515.94 667.91 C 514.79 670.08 515.66 672.61 515.97 674.89 C 518.50 686.78 520.91 698.70 523.46 710.59 C 524.26 713.88 525.74 718.55 529.99 718.21 C 534.49 717.82 539.09 717.07 543.23 715.20 C 547.86 712.63 548.83 706.96 550.45 702.39 C 551.56 702.33 552.67 702.29 553.79 702.25 C 554.65 707.73 554.03 713.29 553.20 718.73 C 541.11 720.84 529.13 723.47 517.13 725.99 C 512.79 726.84 508.53 728.32 504.07 728.47 C 504.10 727.69 504.14 726.13 504.17 725.35 C 506.33 724.51 508.72 723.99 510.51 722.43 C 511.88 720.40 510.79 717.89 510.58 715.69 C 507.89 702.88 505.24 690.06 502.51 677.26 C 501.89 675.16 501.58 672.57 499.67 671.24 C 497.39 670.39 494.88 670.90 492.51 670.70 C 492.66 669.38 492.26 667.42 494.19 667.39 Z" />
<path fill="#ffffff" opacity="1.00" d=" M 459.40 672.37 C 462.15 669.94 465.55 668.23 468.31 665.75 C 470.19 669.45 471.10 673.53 472.37 677.46 C 476.81 691.13 481.19 704.83 485.59 718.51 C 486.42 720.82 487.13 723.32 488.85 725.17 C 490.82 726.35 493.18 726.57 495.38 727.15 C 495.39 727.98 495.42 729.63 495.43 730.45 C 485.90 729.95 476.37 729.70 466.83 729.64 C 466.87 728.61 466.93 727.59 466.99 726.58 C 469.08 726.16 471.17 725.72 473.25 725.22 C 471.62 719.76 470.91 713.77 468.11 708.82 C 462.80 708.09 457.41 708.31 452.06 708.30 C 450.05 713.58 448.10 718.90 446.83 724.41 C 449.62 725.44 454.02 725.28 453.74 729.39 C 446.23 729.38 438.72 728.89 431.21 728.77 C 431.30 727.77 431.40 726.79 431.50 725.82 C 433.46 725.43 435.51 725.25 437.36 724.41 C 439.94 722.38 440.87 719.03 442.19 716.16 C 447.93 701.56 453.87 687.04 459.40 672.37 M 453.90 702.76 C 458.14 703.19 462.40 703.38 466.65 703.23 C 465.20 696.68 463.22 690.26 460.95 683.96 C 458.01 689.99 455.94 696.39 453.90 702.76 Z" />
<path fill="#ffffff" opacity="1.00" d=" M 625.83 764.80 C 625.94 761.76 629.37 761.18 631.51 759.96 C 631.61 761.65 631.65 763.35 631.40 765.05 C 629.19 779.54 626.55 793.98 624.64 808.53 C 629.28 806.63 633.73 804.32 638.15 801.95 C 636.06 796.86 632.73 792.28 631.22 786.99 C 632.42 783.32 636.08 780.79 639.01 778.41 C 643.32 783.69 645.12 790.59 649.06 796.15 C 651.73 795.25 654.23 793.91 656.88 792.93 C 657.41 794.24 657.97 795.54 658.38 796.91 C 656.68 799.11 653.76 799.84 651.45 801.24 C 653.05 804.73 654.41 808.51 657.13 811.33 C 659.61 812.10 664.00 808.49 664.37 812.88 C 656.36 817.15 648.09 820.96 640.07 825.23 C 639.68 824.24 639.30 823.26 638.94 822.28 C 640.89 820.81 643.70 820.00 644.89 817.78 C 645.18 813.71 642.27 810.32 640.71 806.77 C 633.26 809.69 626.70 814.93 618.79 816.51 C 619.00 809.07 620.57 801.75 621.53 794.39 C 623.01 784.53 624.26 774.64 625.83 764.80 Z" />
<path fill="#ffffff" opacity="1.00" d=" M 294.06 764.87 C 300.98 767.04 308.05 768.56 315.22 769.64 C 307.58 784.43 299.09 798.81 291.74 813.75 C 289.86 817.61 295.03 819.22 297.32 821.17 C 296.88 822.12 296.45 823.09 296.01 824.06 C 288.33 819.67 280.55 815.44 272.65 811.44 C 270.77 810.78 270.09 809.23 270.62 807.34 C 273.35 807.98 275.92 809.32 278.72 809.69 C 280.57 809.03 281.40 806.95 282.45 805.44 C 287.43 796.36 292.21 787.16 297.21 778.09 C 297.99 776.31 299.35 774.39 298.79 772.38 C 297.24 770.44 295.09 769.12 293.17 767.61 C 293.46 766.68 293.76 765.77 294.06 764.87 Z" />
<path fill="#ffffff" opacity="1.00" d=" M 564.49 795.57 C 577.70 791.43 590.57 786.26 603.75 782.04 C 599.29 804.91 595.47 827.92 591.30 850.85 C 589.48 850.63 585.75 851.03 586.48 848.10 C 588.71 835.77 591.05 823.47 593.32 811.15 C 594.21 805.97 595.64 800.81 595.27 795.51 C 587.80 797.17 580.75 800.25 573.52 802.68 C 570.32 803.46 569.38 806.79 568.46 809.52 C 567.81 809.58 566.52 809.71 565.87 809.78 C 565.56 805.02 565.20 800.27 564.49 795.57 Z" />
<path fill="#ffffff" opacity="1.00" d=" M 326.08 798.00 C 325.98 791.57 330.92 785.61 337.17 784.29 C 344.39 782.81 352.23 785.44 357.43 790.58 C 361.82 794.99 362.41 802.64 358.54 807.56 C 355.92 810.85 351.56 811.61 347.71 812.53 C 350.18 815.97 352.75 819.61 353.20 823.95 C 353.85 830.19 350.87 837.32 344.74 839.73 C 339.35 841.81 333.29 840.81 328.02 838.85 C 323.13 836.92 318.18 834.09 315.55 829.35 C 312.14 823.36 314.57 814.98 320.46 811.50 C 323.36 809.62 326.86 809.27 330.20 808.84 C 328.23 805.51 325.99 802.02 326.08 798.00 M 343.35 789.24 C 339.26 790.69 336.65 795.63 338.15 799.80 C 339.28 802.96 341.36 805.82 344.00 807.91 C 349.35 806.03 352.55 799.74 351.55 794.28 C 350.94 790.66 346.89 787.91 343.35 789.24 M 325.25 828.79 C 325.97 833.44 331.53 837.31 335.99 835.01 C 339.84 833.14 341.34 828.34 340.79 824.34 C 340.12 819.74 336.80 816.26 333.91 812.88 C 328.26 815.85 324.10 822.28 325.25 828.79 Z" />
<path fill="#ffffff" opacity="1.00" d=" M 526.34 809.30 C 532.38 798.82 548.47 796.43 557.29 804.69 C 563.88 810.77 566.04 820.40 565.09 829.06 C 564.09 839.16 558.39 848.28 550.81 854.82 C 545.91 859.02 540.37 862.83 533.97 864.25 C 533.91 863.48 533.78 861.96 533.72 861.20 C 539.79 858.10 545.24 853.52 548.56 847.49 C 554.44 836.97 554.01 823.72 549.07 812.93 C 547.39 809.41 545.00 805.58 540.94 804.60 C 536.85 804.03 534.43 808.44 534.53 811.99 C 534.69 817.96 537.12 824.26 542.01 827.94 C 544.30 829.69 547.33 829.17 550.02 829.33 C 549.97 829.97 549.87 831.26 549.82 831.90 C 545.01 835.45 538.35 837.19 532.78 834.34 C 523.61 830.18 521.33 817.46 526.34 809.30 Z" />
<path fill="#ffffff" opacity="1.00" d=" M 395.42 805.43 C 405.50 798.19 422.05 802.78 426.06 814.82 C 430.52 827.76 424.08 842.51 413.42 850.40 C 404.44 857.07 393.05 860.61 381.86 859.88 C 381.91 859.12 382.02 857.61 382.07 856.86 C 388.80 856.24 395.52 854.14 400.85 849.86 C 410.85 842.04 415.61 828.68 414.55 816.22 C 414.16 812.59 413.10 808.25 409.47 806.59 C 406.20 805.23 403.05 808.04 401.80 810.87 C 399.43 816.23 399.26 822.77 401.89 828.06 C 403.14 830.77 406.06 831.88 408.70 832.78 C 408.82 833.36 409.07 834.52 409.20 835.11 C 403.22 837.24 395.88 836.42 391.53 831.46 C 384.44 824.00 387.29 810.95 395.42 805.43 Z" />
<path fill="#ffffff" opacity="1.00" d=" M 485.82 811.89 C 492.04 810.40 497.80 807.63 503.73 805.34 C 505.00 820.82 506.17 836.31 507.51 851.79 C 507.80 853.78 507.83 856.11 509.40 857.60 C 511.83 858.44 514.46 858.23 517.00 858.43 C 516.95 859.42 516.90 860.42 516.86 861.44 C 507.03 861.69 497.26 862.94 487.46 863.64 C 486.41 859.67 491.11 860.30 493.52 859.30 C 496.43 858.67 495.68 855.22 495.73 853.05 C 494.99 842.94 494.06 832.85 493.30 822.75 C 493.00 820.59 493.01 818.15 491.50 816.42 C 488.93 815.55 486.16 815.77 483.51 815.48 C 483.93 814.02 483.76 811.88 485.82 811.89 Z" />
<path fill="#ffffff" opacity="1.00" d=" M 364.47 836.56 C 369.76 834.96 375.02 840.69 373.09 845.85 C 371.94 851.39 363.96 852.66 360.60 848.45 C 357.26 844.56 359.32 837.59 364.47 836.56 Z" />
<path fill="#ffffff" opacity="1.00" d=" M 437.43 849.46 C 442.83 847.57 448.20 853.24 446.51 858.55 C 445.44 863.87 437.89 865.62 434.40 861.61 C 430.47 858.08 432.37 850.76 437.43 849.46 Z" />
</g>
<g id="#e00024ff">
<path fill="#e00024" opacity="1.00" d=" M 456.59 0.00 L 479.39 0.00 C 524.94 1.36 570.37 8.94 613.66 23.25 C 684.95 46.60 750.37 87.57 802.56 141.44 C 853.31 193.34 891.64 257.31 913.42 326.55 C 926.78 368.58 933.79 412.53 935.00 456.59 L 935.00 479.40 C 933.42 533.85 922.76 588.10 902.67 638.78 C 865.74 733.22 796.91 814.68 710.20 867.21 C 665.95 894.18 617.14 913.66 566.47 924.55 C 537.85 930.75 508.64 934.04 479.38 935.00 L 456.59 935.00 C 390.93 933.38 325.59 918.08 266.31 889.70 C 199.57 857.90 140.65 809.94 95.79 751.18 C 49.13 690.30 17.85 617.73 5.86 541.96 C 2.48 521.26 0.73 500.33 0.00 479.38 L 0.00 456.59 C 1.81 380.79 22.08 305.43 59.30 239.32 C 99.80 166.84 159.98 105.51 231.69 63.67 C 299.61 23.70 377.86 1.86 456.59 0.00 M 438.50 50.91 C 413.55 52.74 388.67 56.51 364.46 62.92 C 347.90 66.74 331.72 72.12 315.99 78.56 C 300.99 83.60 286.97 91.05 272.81 98.03 C 257.42 106.14 242.64 115.36 228.42 125.37 C 219.03 131.49 210.33 138.57 201.65 145.62 C 186.53 157.76 173.03 171.69 159.54 185.56 C 146.53 200.07 134.06 215.13 123.31 231.40 C 111.67 248.14 101.25 265.74 92.36 284.08 C 87.56 294.04 82.65 304.00 79.12 314.50 C 61.17 359.45 51.32 407.65 50.15 456.00 C 48.89 467.34 50.38 478.70 50.47 490.06 C 52.15 517.43 56.05 544.75 63.24 571.27 C 64.86 580.55 68.11 589.44 70.92 598.42 C 77.35 616.29 83.66 634.29 92.61 651.11 C 98.65 663.82 105.73 676.00 112.92 688.10 C 120.72 699.54 128.03 711.35 136.77 722.11 C 146.30 735.12 157.30 746.94 168.43 758.58 C 191.02 781.96 216.44 802.56 243.83 820.06 C 259.20 830.12 275.55 838.53 292.05 846.54 C 302.01 850.60 311.73 855.24 321.85 858.93 C 361.60 873.70 403.64 882.32 445.96 884.43 C 453.67 884.07 461.32 885.28 469.00 885.33 C 478.62 884.00 488.37 884.97 498.00 883.78 C 510.44 883.43 522.68 881.06 535.02 879.71 C 554.42 876.42 573.64 871.96 592.33 865.80 C 603.15 862.91 613.60 858.85 623.98 854.67 C 718.69 816.63 798.10 742.35 842.76 650.63 C 860.70 614.21 872.96 575.08 879.72 535.07 C 880.19 527.65 881.77 520.37 882.39 512.97 C 885.27 491.10 884.73 468.98 884.44 446.97 C 884.51 441.27 883.44 435.63 883.47 429.93 C 882.50 419.76 880.59 409.69 879.64 399.52 C 878.39 392.68 876.93 385.87 875.63 379.04 C 858.81 300.74 818.73 227.54 761.58 171.42 C 738.46 148.10 712.27 127.98 684.39 110.70 C 662.27 97.45 639.17 85.61 614.86 76.93 C 600.37 71.47 585.69 66.28 570.55 62.95 C 546.83 56.65 522.46 52.78 497.99 51.14 C 492.38 50.14 486.66 50.59 481.00 50.28 C 472.03 49.47 462.97 49.43 454.00 50.27 C 448.83 50.59 443.62 50.11 438.50 50.91 Z" />
</g>
<g id="#0068afff">
<path fill="#0068af" opacity="1.00" d=" M 438.50 50.91 C 443.62 50.11 448.83 50.59 454.00 50.27 C 462.97 49.43 472.03 49.47 481.00 50.28 C 486.66 50.59 492.38 50.14 497.99 51.14 C 522.46 52.78 546.83 56.65 570.55 62.95 C 585.69 66.28 600.37 71.47 614.86 76.93 C 639.17 85.61 662.27 97.45 684.39 110.70 C 712.27 127.98 738.46 148.10 761.58 171.42 C 818.73 227.54 858.81 300.74 875.63 379.04 C 876.93 385.87 878.39 392.68 879.64 399.52 C 880.59 409.69 882.50 419.76 883.47 429.93 C 883.44 435.63 884.51 441.27 884.44 446.97 C 884.73 468.98 885.27 491.10 882.39 512.97 C 881.77 520.37 880.19 527.65 879.72 535.07 C 872.96 575.08 860.70 614.21 842.76 650.63 C 798.10 742.35 718.69 816.63 623.98 854.67 C 613.60 858.85 603.15 862.91 592.33 865.80 C 573.64 871.96 554.42 876.42 535.02 879.71 C 522.68 881.06 510.44 883.43 498.00 883.78 C 488.37 884.97 478.62 884.00 469.00 885.33 C 461.32 885.28 453.67 884.07 445.96 884.43 C 403.64 882.32 361.60 873.70 321.85 858.93 C 311.73 855.24 302.01 850.60 292.05 846.54 C 275.55 838.53 259.20 830.12 243.83 820.06 C 216.44 802.56 191.02 781.96 168.43 758.58 C 157.30 746.94 146.30 735.12 136.77 722.11 C 128.03 711.35 120.72 699.54 112.92 688.10 C 105.73 676.00 98.65 663.82 92.61 651.11 C 83.66 634.29 77.35 616.29 70.92 598.42 C 68.11 589.44 64.86 580.55 63.24 571.27 C 56.05 544.75 52.15 517.43 50.47 490.06 C 50.38 478.70 48.89 467.34 50.15 456.00 C 51.32 407.65 61.17 359.45 79.12 314.50 C 82.65 304.00 87.56 294.04 92.36 284.08 C 101.25 265.74 111.67 248.14 123.31 231.40 C 134.06 215.13 146.53 200.07 159.54 185.56 C 173.03 171.69 186.53 157.76 201.65 145.62 C 210.33 138.57 219.03 131.49 228.42 125.37 C 242.64 115.36 257.42 106.14 272.81 98.03 C 286.97 91.05 300.99 83.60 315.99 78.56 C 331.72 72.12 347.90 66.74 364.46 62.92 C 388.67 56.51 413.55 52.74 438.50 50.91 M 444.03 114.74 C 436.77 115.28 429.45 115.26 422.25 116.41 C 422.21 118.04 422.21 119.68 422.25 121.33 C 424.94 121.80 427.71 122.01 430.33 122.85 C 432.55 123.55 433.21 126.14 433.48 128.19 C 434.34 137.77 433.90 147.41 434.07 157.02 C 434.52 168.01 433.98 179.01 434.48 190.00 C 434.39 195.09 434.97 200.42 433.20 205.29 C 430.90 208.95 425.78 208.24 422.16 209.57 C 422.15 211.29 422.22 213.01 422.38 214.73 C 431.25 214.38 440.13 214.29 449.00 213.95 C 455.23 213.99 461.47 214.54 467.70 214.16 C 467.68 212.45 467.65 210.74 467.61 209.04 C 463.86 207.88 458.45 208.62 456.43 204.53 C 454.72 199.20 455.46 193.50 455.29 188.00 C 455.43 182.47 454.16 176.86 455.46 171.41 C 457.76 170.31 460.43 170.60 462.89 170.89 C 466.05 171.43 467.71 174.45 468.90 177.12 C 472.72 185.66 476.83 194.14 482.18 201.84 C 486.93 208.68 494.68 213.19 502.96 214.06 C 507.88 214.90 512.86 214.02 517.80 214.26 C 534.09 219.80 548.37 230.01 564.85 235.10 C 577.81 239.45 592.47 240.57 605.36 235.34 C 628.40 226.06 641.90 197.47 633.12 173.97 C 627.71 158.54 613.52 148.59 599.55 141.44 C 585.08 134.34 570.06 128.35 554.96 122.73 C 552.32 121.63 552.01 125.31 551.31 126.94 C 553.81 128.71 557.19 129.95 558.37 133.04 C 558.82 136.75 556.89 140.21 555.59 143.57 C 547.04 162.67 538.55 181.80 529.86 200.83 C 528.16 203.97 526.43 208.81 522.04 208.42 C 517.61 207.70 512.73 206.93 509.45 203.57 C 503.55 197.82 499.46 190.54 495.49 183.40 C 492.38 177.43 488.92 171.60 486.50 165.30 C 492.74 161.96 499.29 157.85 501.98 150.95 C 505.02 142.72 503.86 132.70 498.10 125.90 C 493.95 120.97 488.04 117.69 481.78 116.32 C 469.40 113.46 456.61 114.43 444.03 114.74 M 361.22 125.12 C 360.34 128.87 359.67 132.67 358.91 136.46 C 336.20 136.25 312.75 149.55 304.22 171.16 C 292.84 198.93 310.05 235.03 339.62 242.09 C 338.92 246.14 338.13 250.18 337.44 254.23 C 339.91 255.65 342.70 256.14 345.52 255.86 C 346.37 251.60 347.17 247.33 347.96 243.06 C 362.30 243.55 376.33 238.22 387.71 229.70 C 397.08 222.67 404.33 212.50 406.69 200.92 C 409.83 186.31 405.27 171.01 397.33 158.69 C 390.54 148.11 379.74 139.98 367.35 137.38 C 368.00 133.58 368.72 129.79 369.04 125.94 C 366.50 125.22 363.86 125.02 361.22 125.12 M 678.39 193.79 C 680.02 196.81 682.28 199.60 683.03 203.02 C 682.51 206.50 679.64 208.92 677.31 211.30 C 661.70 225.69 646.05 240.03 630.44 254.40 C 627.88 256.51 625.37 259.11 621.99 259.75 C 617.47 258.98 614.77 254.63 610.87 252.58 C 608.81 252.07 605.77 255.36 607.86 257.06 C 625.99 276.10 643.83 295.43 661.19 315.18 C 669.35 312.27 677.12 308.16 683.99 302.86 C 682.93 301.35 682.40 298.25 679.98 298.80 C 673.66 299.96 667.02 302.67 660.66 300.25 C 654.62 297.76 650.62 292.30 646.37 287.61 C 643.81 284.43 640.32 280.57 641.82 276.16 C 644.05 270.99 648.59 267.37 652.59 263.61 C 657.41 259.41 661.85 254.76 666.93 250.86 C 670.65 254.57 674.20 258.44 677.69 262.35 C 679.18 264.22 681.05 266.32 680.71 268.91 C 680.10 272.45 677.20 274.96 675.75 278.13 C 675.38 279.72 676.98 281.10 678.24 281.83 C 679.86 282.45 680.79 280.74 681.86 279.87 C 688.80 272.83 696.23 266.32 703.71 259.86 C 702.55 258.40 701.32 257.02 700.04 255.70 C 696.05 257.68 691.32 262.30 686.76 259.25 C 681.70 255.11 677.57 249.92 673.36 244.95 C 680.12 237.85 687.73 231.61 694.78 224.79 C 696.40 223.57 697.78 221.49 699.94 221.35 C 703.46 224.04 706.13 227.65 709.20 230.82 C 712.98 234.80 716.81 239.33 717.47 244.99 C 717.74 250.14 714.40 254.43 712.73 259.06 C 712.68 261.19 715.04 262.08 716.49 263.17 C 722.02 257.27 727.53 251.34 732.88 245.28 C 728.16 240.61 723.60 235.79 719.12 230.90 C 706.90 217.50 694.41 204.36 682.62 190.59 C 681.14 191.57 679.73 192.64 678.39 193.79 M 255.38 191.73 C 243.41 205.93 230.55 219.33 218.11 233.10 C 214.23 237.60 209.67 241.49 205.92 246.10 C 206.20 247.79 207.49 248.99 208.99 249.71 C 211.86 248.50 214.05 245.99 217.10 245.16 C 220.70 245.00 223.40 247.93 226.02 250.00 C 238.10 260.90 250.08 271.92 262.08 282.91 C 267.54 288.12 273.67 292.74 278.36 298.70 C 281.63 303.42 275.95 307.82 274.06 311.92 C 275.09 312.87 276.08 313.89 277.27 314.67 C 279.07 315.06 279.85 313.01 280.98 312.03 C 290.43 300.59 300.93 290.09 310.86 279.10 C 309.60 278.01 308.37 276.86 306.95 275.99 C 303.46 277.89 300.95 281.54 296.97 282.47 C 294.30 282.26 292.18 280.40 290.14 278.86 C 284.03 273.66 278.32 268.02 272.29 262.74 C 270.67 261.28 268.98 259.84 267.84 257.96 C 269.81 254.37 273.05 251.73 275.66 248.62 C 278.20 246.05 280.47 242.78 284.05 241.62 C 288.13 241.37 291.12 244.76 294.86 245.73 C 296.69 245.50 297.48 243.19 298.74 242.01 C 290.96 235.21 283.13 228.44 275.89 221.06 C 273.96 218.49 270.68 221.54 270.62 223.88 C 272.11 226.83 274.48 229.29 275.58 232.45 C 276.35 235.21 274.28 237.64 272.65 239.63 C 268.86 243.81 265.16 248.10 261.00 251.94 C 256.07 248.28 251.80 243.83 247.19 239.79 C 242.71 235.60 237.95 231.68 233.87 227.07 C 237.17 222.68 241.08 218.81 244.73 214.72 C 248.02 211.29 251.99 207.70 257.01 207.52 C 261.73 207.59 265.52 210.84 269.92 212.08 C 271.72 211.43 272.57 209.59 273.66 208.16 C 267.68 202.55 261.48 197.20 255.38 191.73 M 443.39 241.37 C 431.66 243.71 419.69 245.26 408.40 249.39 C 403.11 251.25 398.52 254.83 392.95 255.93 C 371.49 260.75 352.43 273.68 338.38 290.40 C 333.66 296.38 326.97 300.27 321.67 305.67 C 299.60 327.00 286.50 355.91 279.44 385.41 C 274.30 407.48 270.99 430.34 273.51 452.99 C 276.52 489.84 290.93 525.43 313.04 554.93 C 329.91 577.93 351.64 597.06 375.55 612.46 C 382.17 615.68 389.11 618.21 395.86 621.13 C 418.77 628.95 442.76 633.79 466.95 634.96 C 477.91 635.93 488.89 634.91 499.80 633.85 C 519.28 631.46 538.55 625.69 555.39 615.45 C 564.02 611.17 572.90 607.30 580.93 601.91 C 598.31 590.79 613.38 576.25 625.85 559.86 C 647.28 531.18 661.58 496.83 665.31 461.13 C 668.01 434.71 665.32 407.78 657.62 382.37 C 643.16 334.19 610.03 291.66 566.15 266.87 C 558.13 263.30 550.54 258.84 542.42 255.50 C 516.94 244.93 488.93 244.88 461.92 242.05 C 455.75 241.67 449.53 239.56 443.39 241.37 M 244.13 378.75 C 242.83 381.37 242.38 385.16 239.18 386.17 C 236.18 387.35 233.02 388.02 229.92 388.87 C 213.47 393.17 197.08 397.71 180.55 401.69 C 180.59 403.83 179.30 407.01 181.96 408.07 C 190.58 412.73 199.32 417.17 207.75 422.17 C 216.08 427.16 224.87 431.52 232.58 437.46 C 235.49 439.36 235.48 443.03 236.34 446.02 C 237.61 447.37 239.26 446.51 239.34 444.80 C 239.90 438.28 240.72 431.79 241.80 425.34 C 241.05 425.12 239.56 424.69 238.82 424.47 C 237.94 426.35 237.10 428.25 236.26 430.15 C 230.58 428.00 225.33 424.89 219.94 422.14 C 213.21 418.37 206.24 415.03 199.75 410.84 C 207.41 408.63 215.16 406.81 222.86 404.79 C 228.56 403.39 234.16 401.55 239.99 400.77 C 240.27 402.67 240.52 404.58 240.76 406.50 C 241.82 406.61 242.89 406.74 243.96 406.86 C 244.82 397.52 246.13 388.23 247.29 378.92 C 246.50 378.88 244.92 378.79 244.13 378.75 M 727.68 387.68 C 724.62 390.88 723.73 395.35 722.85 399.53 C 720.78 396.29 718.93 392.51 715.27 390.79 C 709.10 387.99 700.93 390.84 697.98 396.99 C 695.92 401.31 695.64 406.26 695.84 410.98 C 696.55 421.02 697.95 431.02 699.91 440.90 C 700.64 440.85 702.09 440.76 702.82 440.72 C 703.40 438.56 703.15 436.03 704.46 434.17 C 706.25 433.14 708.37 432.92 710.39 432.62 C 722.61 431.29 734.84 430.04 747.06 428.65 C 749.69 428.34 752.36 428.43 755.01 428.69 C 756.04 431.02 756.98 433.40 757.99 435.75 C 758.98 435.50 759.97 435.26 760.98 435.02 C 760.20 428.67 759.24 422.34 758.84 415.95 C 758.42 408.31 757.66 400.50 754.66 393.38 C 752.77 388.71 748.89 384.52 743.81 383.48 C 738.21 382.34 731.70 383.29 727.68 387.68 M 208.40 445.61 C 199.80 446.75 191.28 450.98 186.30 458.27 C 181.13 465.60 179.86 475.11 181.51 483.79 C 183.00 492.98 187.71 502.13 195.82 507.12 C 203.70 512.18 213.73 512.60 222.61 510.40 C 231.86 508.20 240.09 501.59 243.62 492.68 C 248.84 479.20 245.49 462.22 234.26 452.73 C 227.24 446.68 217.51 444.23 208.40 445.61 M 701.69 452.69 C 698.26 456.59 696.96 461.79 695.98 466.75 C 694.66 474.22 693.87 481.79 693.39 489.36 C 693.48 499.78 687.31 508.69 683.86 518.17 C 688.84 520.76 689.25 512.08 693.99 512.75 C 700.98 514.13 707.49 517.22 714.06 519.87 C 720.38 522.58 727.14 524.93 732.18 529.82 C 735.17 532.62 737.15 536.70 736.61 540.86 C 735.94 546.49 732.50 552.34 726.85 554.10 C 721.50 555.38 716.04 553.74 711.07 551.81 C 703.29 548.68 695.61 545.33 687.85 542.19 C 685.61 541.17 683.20 540.30 681.41 538.57 C 680.65 535.96 681.47 533.16 681.34 530.49 C 679.88 530.77 677.98 530.94 677.72 532.75 C 674.68 540.91 671.12 548.85 667.73 556.86 C 668.71 557.23 669.70 557.59 670.70 557.96 C 672.06 556.11 673.31 554.12 675.13 552.68 C 681.43 553.42 686.95 556.98 692.86 559.07 C 701.72 562.37 710.28 567.65 720.02 567.55 C 726.67 567.63 732.25 562.99 735.64 557.64 C 739.94 550.61 742.95 542.12 741.08 533.82 C 739.66 527.80 734.75 523.41 729.56 520.50 C 719.03 514.67 706.93 511.92 696.99 505.04 C 693.80 500.93 696.52 494.80 698.63 490.66 C 701.15 489.93 703.80 490.40 706.36 490.68 C 718.20 492.29 730.05 493.81 741.89 495.41 C 744.41 495.86 747.21 495.97 749.29 497.65 C 750.16 499.91 750.21 502.36 750.57 504.74 C 751.59 504.72 752.63 504.71 753.67 504.71 C 754.56 497.27 755.30 489.81 756.74 482.45 C 757.88 474.63 758.88 466.32 756.29 458.69 C 752.97 449.10 739.53 445.50 731.64 451.63 C 728.36 454.08 726.71 457.93 724.91 461.47 C 723.82 457.80 722.98 453.68 719.90 451.10 C 714.64 446.93 706.11 447.59 701.69 452.69 M 247.78 508.86 C 248.13 511.33 249.06 513.86 248.48 516.37 C 246.76 518.19 244.40 519.19 242.17 520.22 C 231.01 525.03 219.88 529.91 208.75 534.79 C 206.35 535.69 203.91 537.13 201.27 536.88 C 198.92 535.73 197.98 532.95 196.51 530.94 C 195.46 531.26 194.41 531.58 193.37 531.92 C 199.99 547.18 206.85 562.35 213.18 577.74 C 218.52 577.51 223.81 576.65 228.95 575.24 C 228.93 574.39 228.89 572.69 228.87 571.84 C 223.86 570.90 217.53 571.45 214.22 566.79 C 211.66 562.88 209.75 558.47 208.72 553.91 C 208.34 550.21 212.20 548.35 214.98 546.99 C 225.62 542.24 236.36 537.73 246.98 532.97 C 249.51 531.92 252.08 530.63 254.88 530.70 C 256.76 532.03 257.96 534.06 259.35 535.85 C 260.33 535.49 261.30 535.14 262.28 534.79 C 258.48 525.87 254.33 517.10 250.82 508.06 C 249.81 508.31 248.79 508.58 247.78 508.86 M 268.77 555.47 C 269.41 557.98 270.58 560.34 270.98 562.91 C 270.07 565.19 267.86 566.56 266.03 568.06 C 256.26 575.29 246.41 582.43 236.65 589.68 C 234.33 591.33 231.98 593.16 229.14 593.81 C 227.04 592.62 225.52 590.69 223.61 589.26 C 221.93 588.54 220.08 591.09 221.69 592.28 C 230.42 603.92 239.21 615.53 247.50 627.50 C 248.32 628.63 249.13 629.79 250.17 630.76 C 255.40 629.76 260.26 627.42 264.96 625.01 C 264.68 623.89 264.39 622.78 264.10 621.68 C 259.07 621.98 253.14 623.72 248.84 620.18 C 245.38 616.88 242.37 612.95 240.50 608.54 C 239.26 605.18 242.43 602.60 244.75 600.76 C 254.50 593.47 264.36 586.33 274.14 579.08 C 276.19 577.79 278.24 575.84 280.81 575.99 C 282.74 576.93 284.22 578.53 285.83 579.91 C 286.48 579.53 287.76 578.76 288.40 578.38 C 283.26 570.32 276.81 563.15 271.78 554.99 C 271.03 555.11 269.52 555.35 268.77 555.47 M 635.49 598.52 C 630.69 603.21 624.94 606.80 619.93 611.23 C 619.20 615.25 623.91 613.17 625.99 612.57 C 626.76 619.68 626.41 626.85 626.51 634.00 C 626.46 637.82 626.35 642.14 623.40 645.00 C 619.73 641.15 616.56 636.88 613.19 632.78 C 611.63 630.73 609.84 628.65 609.39 626.04 C 610.36 623.96 612.01 622.33 613.48 620.62 C 612.67 619.75 611.92 618.85 611.26 617.90 C 604.29 624.16 596.88 629.90 589.48 635.64 C 588.21 636.42 589.77 638.01 589.81 639.12 C 592.16 638.16 594.35 636.72 596.87 636.22 C 599.95 637.60 601.80 640.59 603.93 643.07 C 611.47 652.52 619.14 661.86 626.68 671.31 C 627.93 673.00 629.33 674.77 629.59 676.94 C 628.72 678.59 627.47 680.00 626.43 681.54 C 625.04 682.81 627.29 685.53 628.66 684.05 C 635.87 678.17 643.00 672.15 650.49 666.61 C 649.90 665.80 649.27 665.04 648.62 664.32 C 646.35 664.86 644.37 666.20 642.11 666.76 C 639.46 665.61 637.79 663.13 635.97 661.02 C 632.57 656.67 628.82 652.57 625.93 647.84 C 627.65 646.91 629.51 645.83 631.51 646.66 C 640.14 649.07 648.64 652.01 657.13 654.90 C 656.04 656.76 652.96 660.75 656.84 661.28 C 664.45 655.16 672.01 648.94 679.70 642.91 C 679.21 642.37 678.23 641.30 677.73 640.76 C 675.09 641.48 672.78 643.24 670.02 643.52 C 666.52 643.35 663.20 642.10 659.85 641.21 C 650.42 638.37 641.01 635.41 631.75 632.05 C 631.92 624.65 632.06 617.17 633.61 609.91 C 634.32 606.09 636.91 603.12 639.18 600.13 C 640.76 597.93 641.98 594.81 645.00 594.32 C 648.05 595.03 650.45 597.24 652.93 599.04 C 662.22 606.11 671.53 613.14 680.87 620.15 C 682.92 621.81 685.28 623.42 686.33 625.97 C 685.63 628.48 684.24 630.72 683.13 633.07 C 683.86 633.44 685.34 634.18 686.07 634.55 C 695.70 621.15 705.77 608.06 715.92 595.04 C 713.13 590.42 709.74 586.19 705.87 582.44 C 704.94 583.05 704.02 583.66 703.11 584.29 C 704.82 589.38 708.65 595.14 705.39 600.42 C 702.81 604.45 700.14 608.90 695.87 611.30 C 691.82 612.05 688.58 608.57 685.46 606.52 C 676.75 599.91 668.05 593.27 659.29 586.73 C 657.44 585.10 654.91 583.63 654.44 581.03 C 654.91 578.92 655.96 577.01 656.79 575.03 C 655.86 574.51 654.94 574.00 654.03 573.51 C 648.04 581.99 641.42 590.01 635.49 598.52 M 299.60 597.42 C 300.72 599.64 302.24 601.67 303.09 604.03 C 302.04 607.30 299.42 609.70 297.29 612.29 C 289.67 621.01 282.11 629.79 274.52 638.54 C 272.90 640.21 271.35 642.23 269.03 642.92 C 266.25 642.03 263.89 640.25 261.36 638.85 C 260.87 639.47 259.88 640.70 259.38 641.32 C 272.10 652.16 284.76 663.08 297.24 674.19 C 302.59 672.66 307.00 668.65 311.06 664.94 C 310.49 664.47 309.35 663.54 308.78 663.07 C 304.77 663.36 301.11 666.00 296.99 665.40 C 293.44 664.74 290.71 662.18 288.08 659.90 C 286.15 658.06 284.02 656.27 282.87 653.82 C 282.18 651.37 283.96 649.14 285.25 647.24 C 288.84 642.76 292.56 638.37 296.63 634.32 C 299.87 637.50 304.31 639.80 306.32 644.02 C 305.89 646.60 304.52 648.87 303.50 651.25 C 304.66 651.69 306.09 653.76 307.07 652.01 C 311.28 646.84 315.90 642.01 320.04 636.78 C 319.07 636.20 318.11 635.62 317.14 635.06 C 315.19 636.37 313.31 637.93 311.01 638.60 C 306.63 636.95 303.58 633.07 300.07 630.12 C 304.84 624.46 309.51 618.68 314.77 613.46 C 318.73 617.04 323.53 619.99 326.34 624.66 C 328.84 628.69 326.03 633.13 325.07 637.18 C 326.35 637.40 328.07 638.67 328.99 637.11 C 331.02 634.67 332.76 632.01 334.70 629.51 C 336.35 631.09 338.35 632.41 339.52 634.42 C 340.23 636.53 340.03 638.81 340.02 641.02 C 339.58 649.02 339.37 657.04 339.02 665.06 C 339.03 672.75 334.40 679.26 330.58 685.57 C 328.48 689.32 324.09 686.22 321.01 685.72 C 320.66 686.75 320.32 687.79 319.99 688.83 C 329.17 693.32 338.13 698.24 347.04 703.26 C 347.51 702.23 347.99 701.20 348.46 700.18 C 346.42 698.16 341.84 696.62 342.91 693.11 C 344.55 688.35 347.28 684.05 349.69 679.66 C 352.38 674.67 357.65 672.15 362.17 669.13 C 368.16 665.37 373.95 661.22 380.37 658.20 C 383.45 656.59 387.55 657.84 389.71 660.41 C 390.15 662.52 389.46 664.65 389.02 666.71 C 385.86 678.63 382.67 690.54 379.51 702.47 C 378.74 704.87 378.29 707.57 376.46 709.45 C 374.04 710.27 371.41 710.01 368.90 710.24 C 368.85 710.97 368.74 712.43 368.69 713.16 C 381.62 715.49 393.76 721.38 406.98 722.16 C 411.91 722.47 417.23 721.40 420.94 717.93 C 425.98 713.09 427.58 704.82 424.45 698.54 C 422.61 694.68 418.76 692.55 415.45 690.15 C 418.99 689.49 422.93 689.25 425.79 686.80 C 429.94 683.47 430.76 677.45 429.45 672.56 C 427.61 667.04 422.28 663.87 417.14 661.90 C 407.95 658.47 398.26 656.69 388.72 654.54 C 382.57 652.58 377.41 648.50 371.56 645.88 C 371.13 646.81 370.71 647.76 370.30 648.71 C 371.85 650.07 373.37 651.46 374.86 652.90 C 367.55 658.89 359.57 664.06 351.59 669.10 C 351.90 660.00 352.54 650.90 353.63 641.86 C 355.75 642.20 357.86 642.60 359.98 642.98 C 360.39 642.00 360.80 641.04 361.22 640.08 C 354.29 636.67 347.47 633.06 340.76 629.25 C 338.65 628.09 336.88 626.46 335.15 624.84 C 324.14 615.14 312.77 605.86 302.09 595.79 C 301.47 596.20 300.22 597.01 299.60 597.42 M 542.37 656.93 C 542.52 657.69 542.83 659.21 542.99 659.98 C 545.29 659.61 547.56 658.98 549.91 658.84 C 552.27 659.88 553.19 662.53 554.34 664.65 C 559.70 676.26 565.02 687.89 570.37 699.51 C 571.20 701.55 572.26 703.61 572.26 705.86 C 571.16 708.26 568.40 709.27 566.37 710.74 C 566.53 711.75 566.71 712.76 566.89 713.79 C 568.35 713.39 569.80 712.94 571.19 712.34 C 584.91 705.73 598.74 699.30 612.78 693.39 C 612.48 687.92 611.63 682.47 609.85 677.29 C 608.75 677.40 607.65 677.52 606.57 677.65 C 605.88 682.78 606.34 689.24 601.59 692.61 C 597.75 695.12 593.46 697.11 588.98 698.13 C 585.62 698.67 583.70 695.16 582.35 692.69 C 577.35 682.24 572.71 671.63 567.76 661.16 C 566.53 658.32 564.89 655.45 564.99 652.26 C 566.28 650.51 568.20 649.40 569.66 647.81 C 569.52 646.81 569.34 645.83 569.14 644.86 C 560.17 648.79 551.46 653.29 542.37 656.93 M 494.19 667.39 C 492.26 667.42 492.66 669.38 492.51 670.70 C 494.88 670.90 497.39 670.39 499.67 671.24 C 501.58 672.57 501.89 675.16 502.51 677.26 C 505.24 690.06 507.89 702.88 510.58 715.69 C 510.79 717.89 511.88 720.40 510.51 722.43 C 508.72 723.99 506.33 724.51 504.17 725.35 C 504.14 726.13 504.10 727.69 504.07 728.47 C 508.53 728.32 512.79 726.84 517.13 725.99 C 529.13 723.47 541.11 720.84 553.20 718.73 C 554.03 713.29 554.65 707.73 553.79 702.25 C 552.67 702.29 551.56 702.33 550.45 702.39 C 548.83 706.96 547.86 712.63 543.23 715.20 C 539.09 717.07 534.49 717.82 529.99 718.21 C 525.74 718.55 524.26 713.88 523.46 710.59 C 520.91 698.70 518.50 686.78 515.97 674.89 C 515.66 672.61 514.79 670.08 515.94 667.91 C 517.57 666.53 519.65 665.85 521.56 664.95 C 521.46 664.14 521.26 662.53 521.16 661.72 C 512.21 663.82 503.20 665.64 494.19 667.39 M 459.40 672.37 C 453.87 687.04 447.93 701.56 442.19 716.16 C 440.87 719.03 439.94 722.38 437.36 724.41 C 435.51 725.25 433.46 725.43 431.50 725.82 C 431.40 726.79 431.30 727.77 431.21 728.77 C 438.72 728.89 446.23 729.38 453.74 729.39 C 454.02 725.28 449.62 725.44 446.83 724.41 C 448.10 718.90 450.05 713.58 452.06 708.30 C 457.41 708.31 462.80 708.09 468.11 708.82 C 470.91 713.77 471.62 719.76 473.25 725.22 C 471.17 725.72 469.08 726.16 466.99 726.58 C 466.93 727.59 466.87 728.61 466.83 729.64 C 476.37 729.70 485.90 729.95 495.43 730.45 C 495.42 729.63 495.39 727.98 495.38 727.15 C 493.18 726.57 490.82 726.35 488.85 725.17 C 487.13 723.32 486.42 720.82 485.59 718.51 C 481.19 704.83 476.81 691.13 472.37 677.46 C 471.10 673.53 470.19 669.45 468.31 665.75 C 465.55 668.23 462.15 669.94 459.40 672.37 M 625.83 764.80 C 624.26 774.64 623.01 784.53 621.53 794.39 C 620.57 801.75 619.00 809.07 618.79 816.51 C 626.70 814.93 633.26 809.69 640.71 806.77 C 642.27 810.32 645.18 813.71 644.89 817.78 C 643.70 820.00 640.89 820.81 638.94 822.28 C 639.30 823.26 639.68 824.24 640.07 825.23 C 648.09 820.96 656.36 817.15 664.37 812.88 C 664.00 808.49 659.61 812.10 657.13 811.33 C 654.41 808.51 653.05 804.73 651.45 801.24 C 653.76 799.84 656.68 799.11 658.38 796.91 C 657.97 795.54 657.41 794.24 656.88 792.93 C 654.23 793.91 651.73 795.25 649.06 796.15 C 645.12 790.59 643.32 783.69 639.01 778.41 C 636.08 780.79 632.42 783.32 631.22 786.99 C 632.73 792.28 636.06 796.86 638.15 801.95 C 633.73 804.32 629.28 806.63 624.64 808.53 C 626.55 793.98 629.19 779.54 631.40 765.05 C 631.65 763.35 631.61 761.65 631.51 759.96 C 629.37 761.18 625.94 761.76 625.83 764.80 M 294.06 764.87 C 293.76 765.77 293.46 766.68 293.17 767.61 C 295.09 769.12 297.24 770.44 298.79 772.38 C 299.35 774.39 297.99 776.31 297.21 778.09 C 292.21 787.16 287.43 796.36 282.45 805.44 C 281.40 806.95 280.57 809.03 278.72 809.69 C 275.92 809.32 273.35 807.98 270.62 807.34 C 270.09 809.23 270.77 810.78 272.65 811.44 C 280.55 815.44 288.33 819.67 296.01 824.06 C 296.45 823.09 296.88 822.12 297.32 821.17 C 295.03 819.22 289.86 817.61 291.74 813.75 C 299.09 798.81 307.58 784.43 315.22 769.64 C 308.05 768.56 300.98 767.04 294.06 764.87 M 564.49 795.57 C 565.20 800.27 565.56 805.02 565.87 809.78 C 566.52 809.71 567.81 809.58 568.46 809.52 C 569.38 806.79 570.32 803.46 573.52 802.68 C 580.75 800.25 587.80 797.17 595.27 795.51 C 595.64 800.81 594.21 805.97 593.32 811.15 C 591.05 823.47 588.71 835.77 586.48 848.10 C 585.75 851.03 589.48 850.63 591.30 850.85 C 595.47 827.92 599.29 804.91 603.75 782.04 C 590.57 786.26 577.70 791.43 564.49 795.57 M 326.08 798.00 C 325.99 802.02 328.23 805.51 330.20 808.84 C 326.86 809.27 323.36 809.62 320.46 811.50 C 314.57 814.98 312.14 823.36 315.55 829.35 C 318.18 834.09 323.13 836.92 328.02 838.85 C 333.29 840.81 339.35 841.81 344.74 839.73 C 350.87 837.32 353.85 830.19 353.20 823.95 C 352.75 819.61 350.18 815.97 347.71 812.53 C 351.56 811.61 355.92 810.85 358.54 807.56 C 362.41 802.64 361.82 794.99 357.43 790.58 C 352.23 785.44 344.39 782.81 337.17 784.29 C 330.92 785.61 325.98 791.57 326.08 798.00 M 526.34 809.30 C 521.33 817.46 523.61 830.18 532.78 834.34 C 538.35 837.19 545.01 835.45 549.82 831.90 C 549.87 831.26 549.97 829.97 550.02 829.33 C 547.33 829.17 544.30 829.69 542.01 827.94 C 537.12 824.26 534.69 817.96 534.53 811.99 C 534.43 808.44 536.85 804.03 540.94 804.60 C 545.00 805.58 547.39 809.41 549.07 812.93 C 554.01 823.72 554.44 836.97 548.56 847.49 C 545.24 853.52 539.79 858.10 533.72 861.20 C 533.78 861.96 533.91 863.48 533.97 864.25 C 540.37 862.83 545.91 859.02 550.81 854.82 C 558.39 848.28 564.09 839.16 565.09 829.06 C 566.04 820.40 563.88 810.77 557.29 804.69 C 548.47 796.43 532.38 798.82 526.34 809.30 M 395.42 805.43 C 387.29 810.95 384.44 824.00 391.53 831.46 C 395.88 836.42 403.22 837.24 409.20 835.11 C 409.07 834.52 408.82 833.36 408.70 832.78 C 406.06 831.88 403.14 830.77 401.89 828.06 C 399.26 822.77 399.43 816.23 401.80 810.87 C 403.05 808.04 406.20 805.23 409.47 806.59 C 413.10 808.25 414.16 812.59 414.55 816.22 C 415.61 828.68 410.85 842.04 400.85 849.86 C 395.52 854.14 388.80 856.24 382.07 856.86 C 382.02 857.61 381.91 859.12 381.86 859.88 C 393.05 860.61 404.44 857.07 413.42 850.40 C 424.08 842.51 430.52 827.76 426.06 814.82 C 422.05 802.78 405.50 798.19 395.42 805.43 M 485.82 811.89 C 483.76 811.88 483.93 814.02 483.51 815.48 C 486.16 815.77 488.93 815.55 491.50 816.42 C 493.01 818.15 493.00 820.59 493.30 822.75 C 494.06 832.85 494.99 842.94 495.73 853.05 C 495.68 855.22 496.43 858.67 493.52 859.30 C 491.11 860.30 486.41 859.67 487.46 863.64 C 497.26 862.94 507.03 861.69 516.86 861.44 C 516.90 860.42 516.95 859.42 517.00 858.43 C 514.46 858.23 511.83 858.44 509.40 857.60 C 507.83 856.11 507.80 853.78 507.51 851.79 C 506.17 836.31 505.00 820.82 503.73 805.34 C 497.80 807.63 492.04 810.40 485.82 811.89 M 364.47 836.56 C 359.32 837.59 357.26 844.56 360.60 848.45 C 363.96 852.66 371.94 851.39 373.09 845.85 C 375.02 840.69 369.76 834.96 364.47 836.56 M 437.43 849.46 C 432.37 850.76 430.47 858.08 434.40 861.61 C 437.89 865.62 445.44 863.87 446.51 858.55 C 448.20 853.24 442.83 847.57 437.43 849.46 Z" />
<path fill="#0068af" opacity="1.00" d=" M 456.33 122.10 C 462.73 120.28 470.21 122.33 474.81 127.18 C 479.29 131.90 480.78 138.68 480.49 145.01 C 480.41 150.82 478.64 157.16 473.85 160.84 C 469.64 164.06 464.06 163.98 459.03 163.66 C 457.38 163.52 454.96 163.06 455.16 160.91 C 454.27 149.95 454.94 138.94 454.70 127.96 C 454.89 126.03 454.42 123.26 456.33 122.10 Z" />
<path fill="#0068af" opacity="1.00" d=" M 580.46 143.25 C 582.10 141.67 584.69 142.83 586.57 143.40 C 596.79 147.48 606.65 154.47 611.16 164.84 C 615.07 173.53 614.50 183.57 611.68 192.49 C 607.77 204.49 600.99 216.15 590.40 223.39 C 583.16 228.41 573.74 230.11 565.24 227.66 C 559.67 226.03 553.63 223.56 550.64 218.25 C 548.22 213.73 550.63 208.65 552.28 204.30 C 560.25 186.29 568.40 168.36 576.39 150.36 C 577.54 147.89 578.55 145.26 580.46 143.25 Z" />
<path fill="#0068af" opacity="1.00" d=" M 320.81 165.62 C 323.11 155.83 332.11 148.15 342.12 147.35 C 346.93 147.14 352.52 147.77 356.22 151.03 C 352.04 174.98 347.66 198.92 343.09 222.80 C 335.33 215.89 329.76 206.87 325.56 197.44 C 321.27 187.54 318.27 176.38 320.81 165.62 Z" />
<path fill="#0068af" opacity="1.00" d=" M 363.92 156.03 C 372.13 162.94 377.94 172.27 382.07 182.08 C 386.46 192.60 390.08 204.52 386.79 215.86 C 382.51 230.09 363.55 236.71 351.19 228.65 C 350.56 226.68 351.51 224.59 351.69 222.60 C 355.82 200.42 359.63 178.18 363.92 156.03 Z" />
<path fill="#0068af" opacity="1.00" d=" M 730.22 402.22 C 734.38 397.53 741.71 396.45 747.44 398.53 C 752.35 400.14 754.56 406.15 753.14 410.85 C 751.99 414.40 747.88 415.21 744.66 415.69 C 739.21 416.29 733.76 417.00 728.28 417.25 C 727.24 412.26 726.64 406.38 730.22 402.22 Z" />
<path fill="#0068af" opacity="1.00" d=" M 701.21 411.18 C 703.24 403.77 713.62 401.20 719.51 405.50 C 723.16 408.48 723.53 413.58 723.41 417.95 C 716.23 418.78 709.05 419.66 701.83 420.15 C 700.94 417.27 700.14 414.13 701.21 411.18 Z" />
<path fill="#0068af" opacity="1.00" d=" M 211.38 460.55 C 219.29 459.18 228.21 459.14 235.05 463.91 C 241.64 468.52 243.08 478.75 237.94 484.96 C 232.48 491.74 223.77 494.94 215.41 496.25 C 207.97 497.40 199.82 497.73 193.02 493.99 C 187.46 490.99 184.91 484.08 186.22 478.05 C 187.11 473.46 190.34 469.68 194.14 467.14 C 199.29 463.68 205.31 461.67 211.38 460.55 Z" />
<path fill="#0068af" opacity="1.00" d=" M 701.76 466.76 C 705.72 461.12 714.74 460.97 719.62 465.43 C 723.29 468.98 722.34 474.49 721.47 478.98 C 714.10 478.71 706.74 477.69 699.53 476.16 C 699.58 472.93 699.75 469.45 701.76 466.76 Z" />
<path fill="#0068af" opacity="1.00" d=" M 732.28 465.21 C 737.56 462.15 744.69 462.92 749.56 466.46 C 753.76 469.56 754.53 476.23 751.22 480.22 C 748.87 482.80 745.09 482.34 741.97 482.12 C 736.69 481.48 731.39 480.85 726.18 479.76 C 726.20 474.42 727.32 468.20 732.28 465.21 Z" />
<path fill="#0068af" opacity="1.00" d=" M 402.96 665.84 C 403.37 664.82 403.64 663.09 405.13 663.30 C 409.78 663.54 414.75 666.37 415.96 671.13 C 417.14 676.32 415.45 682.85 410.37 685.36 C 406.37 687.37 401.93 685.59 398.08 684.15 C 399.67 678.04 401.17 671.90 402.96 665.84 Z" />
<path fill="#0068af" opacity="1.00" d=" M 453.90 702.76 C 455.94 696.39 458.01 689.99 460.95 683.96 C 463.22 690.26 465.20 696.68 466.65 703.23 C 462.40 703.38 458.14 703.19 453.90 702.76 Z" />
<path fill="#0068af" opacity="1.00" d=" M 397.34 689.26 C 402.46 689.51 408.03 691.79 410.49 696.57 C 413.12 702.10 411.37 708.99 407.57 713.55 C 403.90 717.94 396.27 717.60 392.83 713.15 C 390.56 708.97 392.92 704.25 393.76 699.99 C 394.96 696.44 395.11 692.33 397.34 689.26 Z" />
<path fill="#0068af" opacity="1.00" d=" M 343.35 789.24 C 346.89 787.91 350.94 790.66 351.55 794.28 C 352.55 799.74 349.35 806.03 344.00 807.91 C 341.36 805.82 339.28 802.96 338.15 799.80 C 336.65 795.63 339.26 790.69 343.35 789.24 Z" />
<path fill="#0068af" opacity="1.00" d=" M 325.25 828.79 C 324.10 822.28 328.26 815.85 333.91 812.88 C 336.80 816.26 340.12 819.74 340.79 824.34 C 341.34 828.34 339.84 833.14 335.99 835.01 C 331.53 837.31 325.97 833.44 325.25 828.79 Z" />
</g>
<g id="#010102ff">
<path fill="#010102" opacity="1.00" d=" M 443.39 241.37 C 449.53 239.56 455.75 241.67 461.92 242.05 C 488.93 244.88 516.94 244.93 542.42 255.50 C 550.54 258.84 558.13 263.30 566.15 266.87 C 610.03 291.66 643.16 334.19 657.62 382.37 C 665.32 407.78 668.01 434.71 665.31 461.13 C 661.58 496.83 647.28 531.18 625.85 559.86 C 613.38 576.25 598.31 590.79 580.93 601.91 C 572.90 607.30 564.02 611.17 555.39 615.45 C 538.55 625.69 519.28 631.46 499.80 633.85 C 488.89 634.91 477.91 635.93 466.95 634.96 C 442.76 633.79 418.77 628.95 395.86 621.13 C 389.11 618.21 382.17 615.68 375.55 612.46 C 351.64 597.06 329.91 577.93 313.04 554.93 C 290.93 525.43 276.52 489.84 273.51 452.99 C 270.99 430.34 274.30 407.48 279.44 385.41 C 286.50 355.91 299.60 327.00 321.67 305.67 C 326.97 300.27 333.66 296.38 338.38 290.40 C 352.43 273.68 371.49 260.75 392.95 255.93 C 398.52 254.83 403.11 251.25 408.40 249.39 C 419.69 245.26 431.66 243.71 443.39 241.37 M 430.10 254.80 C 425.20 255.80 420.40 257.25 415.54 258.44 C 412.68 258.84 411.28 262.66 413.13 264.87 C 415.30 267.97 419.00 270.87 417.73 275.15 C 414.06 272.89 410.77 270.13 407.29 267.62 C 403.91 264.99 399.28 265.14 395.24 265.51 C 383.80 267.13 375.29 275.93 364.51 279.39 C 358.72 286.77 349.39 290.28 343.74 297.73 C 340.07 302.38 341.39 308.58 343.33 313.65 C 340.28 311.70 337.35 309.58 334.30 307.66 C 305.12 335.22 287.60 373.50 281.59 412.86 C 276.30 445.23 284.65 477.78 294.49 508.45 C 295.26 511.63 297.45 514.10 299.27 516.72 C 306.48 527.23 311.96 538.94 320.36 548.61 C 329.67 559.60 338.29 571.30 349.18 580.82 C 358.65 589.43 370.59 595.97 383.61 596.54 C 384.25 582.41 384.05 568.24 383.84 554.11 C 384.19 551.85 386.29 550.76 388.16 549.91 C 389.37 567.52 393.51 584.99 392.32 602.71 C 393.23 603.86 394.66 604.39 395.89 605.15 C 403.44 609.26 410.80 613.73 418.39 617.76 C 423.66 619.19 429.07 620.15 434.41 621.33 C 441.42 622.56 449.62 623.27 455.57 618.59 C 463.80 591.64 472.16 564.23 472.61 535.81 C 473.10 535.52 474.08 534.94 474.57 534.65 C 475.17 541.76 474.55 548.88 474.60 556.00 C 474.01 577.80 472.04 599.84 465.02 620.62 C 470.14 622.49 475.48 623.74 480.93 623.96 C 496.58 624.36 511.34 617.93 526.85 617.05 C 528.31 616.60 529.39 615.42 530.72 614.70 C 535.37 611.84 541.20 612.44 546.02 610.04 C 548.64 608.77 550.13 605.89 550.15 603.05 C 550.76 580.66 544.29 558.85 543.41 536.56 C 549.00 542.47 550.04 550.82 552.65 558.19 C 553.96 562.32 556.92 565.83 557.49 570.21 C 558.50 576.82 557.40 583.60 558.89 590.17 C 559.46 593.85 561.87 596.93 565.03 598.82 C 568.19 594.41 573.16 591.86 578.56 591.65 C 593.51 579.98 607.17 565.32 613.17 546.95 C 616.70 536.94 616.98 526.21 616.64 515.71 C 618.42 517.15 620.27 518.81 620.74 521.19 C 622.48 528.25 619.40 536.63 624.49 542.73 C 630.31 533.97 635.16 524.59 640.57 515.57 C 644.27 507.34 645.73 498.31 648.96 489.89 C 650.17 486.23 652.38 482.94 653.12 479.12 C 658.24 455.79 658.75 431.41 654.15 407.95 C 650.07 386.99 642.12 366.91 631.67 348.33 C 629.14 344.05 627.53 339.30 624.95 335.05 C 615.60 318.69 601.79 305.53 587.54 293.46 C 582.39 288.71 576.09 285.52 570.19 281.83 C 546.04 267.30 519.14 255.71 490.59 254.77 C 489.96 258.59 489.81 262.64 487.60 265.98 C 486.36 262.91 486.36 259.37 484.40 256.60 C 481.47 252.34 476.04 250.44 471.02 250.84 C 464.39 251.47 457.70 250.25 451.09 251.40 C 443.99 251.95 437.23 254.60 430.10 254.80 Z" />
<path fill="#010102" opacity="1.00" d=" M 432.86 289.90 C 463.20 283.51 494.35 280.56 525.33 282.26 C 525.42 282.92 525.61 284.24 525.71 284.89 C 479.76 287.50 433.70 293.17 389.50 306.42 C 380.85 308.92 372.35 311.90 363.82 314.79 C 363.66 313.04 364.25 311.38 366.11 310.96 C 387.54 301.61 410.00 294.72 432.86 289.90 Z" />
<path fill="#010102" opacity="1.00" d=" M 590.90 305.75 C 603.55 314.34 613.84 326.08 622.24 338.78 C 634.75 358.06 642.69 380.23 645.66 403.00 C 647.19 413.57 646.23 424.29 645.39 434.88 C 643.04 457.22 637.13 479.32 627.05 499.43 C 626.24 492.38 628.29 485.50 631.14 479.14 C 632.63 475.28 634.99 471.61 635.23 467.39 C 636.37 454.63 637.05 441.83 637.82 429.05 C 638.76 418.65 637.62 408.22 636.61 397.88 C 634.71 379.97 630.02 362.03 620.30 346.70 C 611.54 332.31 599.94 319.92 590.90 305.75 Z" />
<path fill="#010102" opacity="1.00" d=" M 318.42 383.40 C 324.34 368.74 327.95 353.00 336.11 339.34 C 335.71 349.46 331.29 358.78 328.27 368.29 C 324.68 378.75 322.60 390.05 325.13 401.00 C 320.00 426.01 326.51 451.57 334.82 475.16 C 344.66 498.10 362.05 516.61 373.93 538.38 C 359.55 528.92 351.37 513.19 341.23 499.78 C 334.69 491.95 330.76 482.39 327.00 473.00 C 320.50 456.11 316.88 438.14 316.08 420.07 C 315.79 407.82 315.91 395.43 318.42 383.40 Z" />
<path fill="#010102" opacity="1.00" d=" M 371.15 377.12 C 433.40 349.09 502.82 335.36 571.00 342.44 C 579.08 343.46 587.24 344.20 595.17 346.14 C 512.44 345.35 428.65 357.31 351.71 388.69 C 346.60 390.64 341.71 393.17 336.53 394.93 C 347.57 388.11 359.37 382.56 371.15 377.12 Z" />
<path fill="#010102" opacity="1.00" d=" M 588.56 430.51 C 598.96 426.76 609.06 422.26 619.30 418.13 C 608.99 424.56 597.95 429.77 586.96 434.91 C 531.11 460.40 469.55 474.43 408.04 472.25 C 392.16 471.52 376.18 470.30 360.63 466.88 C 365.43 466.23 370.23 467.36 375.03 466.80 C 447.49 466.38 520.39 455.61 588.56 430.51 Z" />
<path fill="#010102" opacity="1.00" d=" M 580.18 495.23 C 585.20 493.80 590.06 491.85 595.05 490.31 C 580.80 499.82 564.08 504.64 547.56 508.50 C 529.44 512.54 511.10 515.59 493.04 519.93 C 475.93 521.08 458.94 523.54 441.91 525.51 C 433.72 526.18 425.51 527.20 417.29 526.68 C 422.86 520.85 431.61 521.21 439.03 521.50 C 443.85 522.32 448.38 520.17 453.00 519.18 C 494.98 509.03 538.75 507.92 580.18 495.23 Z" />
</g>
</svg>
