<?xml version="1.0" encoding="UTF-8" ?>
<!DOCTYPE svg PUBLIC "-//W3C//DTD SVG 1.1//EN" "http://www.w3.org/Graphics/SVG/1.1/DTD/svg11.dtd">
<svg width="754pt" height="802pt" viewBox="0 0 754 802" version="1.1" xmlns="http://www.w3.org/2000/svg">
<g id="#231f20ff">
<path fill="#231f20" opacity="1.00" d=" M 70.13 3.21 C 77.73 0.24 86.03 1.10 94.00 1.00 C 283.00 1.00 472.00 1.01 660.99 0.99 C 669.66 0.97 678.79 0.43 686.86 4.19 C 690.47 6.07 693.58 9.08 695.35 12.78 C 696.90 18.04 697.43 23.53 697.41 29.00 C 697.14 74.35 697.60 119.71 697.17 165.06 C 691.95 165.38 686.70 165.50 681.49 164.89 C 681.32 123.60 680.81 82.30 680.48 41.00 C 680.31 33.98 681.32 26.44 678.11 19.92 C 675.51 14.81 669.39 13.21 664.07 13.26 C 472.70 13.28 281.33 13.26 89.96 13.27 C 85.80 13.40 81.22 14.06 78.15 17.16 C 74.52 20.74 73.93 26.14 73.76 30.98 C 73.44 75.62 72.98 120.27 72.61 164.92 C 67.37 165.50 62.09 165.37 56.84 165.04 C 56.57 121.69 56.84 78.35 56.70 35.00 C 56.58 27.58 56.48 20.00 58.76 12.85 C 61.05 8.26 65.36 4.94 70.13 3.21 Z" />
<path fill="#231f20" opacity="1.00" d=" M 32.96 181.99 C 38.45 177.10 46.30 178.75 53.00 178.52 C 269.00 178.54 485.00 178.54 701.00 178.52 C 707.71 178.78 715.57 177.07 721.11 181.92 C 724.46 184.52 725.40 188.92 725.30 192.96 C 725.60 254.97 725.84 316.98 726.27 379.00 C 726.30 391.99 726.12 404.98 726.51 417.96 C 726.55 437.15 726.46 456.33 726.75 475.51 C 716.46 472.85 706.36 469.47 696.00 467.12 C 694.98 470.97 694.34 474.90 693.91 478.86 C 689.34 504.37 681.64 529.37 671.12 553.06 C 665.11 565.50 659.21 578.05 651.73 589.68 C 641.97 605.22 630.92 619.98 618.42 633.43 C 608.69 643.37 598.96 653.36 588.22 662.23 C 560.46 685.48 529.58 704.68 497.76 721.82 C 462.47 740.90 425.97 757.59 389.78 774.86 C 385.64 776.74 381.80 779.77 377.19 780.30 C 371.29 779.26 366.28 775.61 360.90 773.18 C 306.15 747.07 250.44 722.11 200.06 687.99 C 173.02 669.63 147.84 648.27 126.77 623.21 C 105.54 598.17 88.96 569.30 77.12 538.72 C 69.84 519.28 63.69 499.32 60.23 478.83 C 59.76 474.94 59.19 471.07 58.46 467.23 C 48.03 469.07 38.15 473.13 27.76 475.17 C 27.30 468.45 27.55 461.72 27.55 455.01 C 27.94 437.68 27.61 420.34 27.76 403.01 C 28.36 382.68 27.64 362.33 28.24 342.00 C 28.38 324.01 28.04 306.02 28.53 288.04 C 28.38 257.36 28.92 226.68 28.69 196.00 C 28.72 191.12 28.79 185.35 32.96 181.99 M 191.08 196.05 C 180.50 198.34 170.97 204.99 165.02 214.02 C 157.79 224.84 155.90 239.22 160.62 251.41 C 162.83 256.99 166.72 262.26 172.38 264.66 C 177.08 266.73 182.42 266.20 187.25 264.89 C 182.01 259.55 176.25 254.16 174.42 246.59 C 169.18 230.89 178.52 212.46 194.06 207.04 C 208.44 201.30 226.33 207.86 233.52 221.59 C 237.17 227.56 237.01 234.72 238.65 241.32 C 239.74 241.62 240.83 241.95 241.91 242.30 C 244.01 226.91 236.60 210.90 223.74 202.29 C 214.33 195.83 202.21 193.59 191.08 196.05 M 324.08 208.42 C 318.77 209.02 313.36 209.22 308.24 210.85 C 310.37 216.59 315.19 221.20 321.11 222.86 C 330.61 225.52 340.56 224.05 350.27 224.78 C 348.42 230.47 345.59 235.77 343.25 241.26 C 333.77 262.84 324.47 284.54 316.96 306.90 C 315.00 312.80 313.69 319.97 317.64 325.37 C 322.21 331.39 329.76 334.12 336.90 335.70 C 346.35 299.96 358.22 264.87 371.22 230.26 C 372.41 228.08 372.73 224.03 376.02 224.31 C 388.09 224.17 400.18 223.83 412.22 222.85 C 411.19 217.44 408.88 211.92 404.52 208.38 C 399.18 206.78 393.48 207.13 387.97 206.73 C 366.67 206.30 345.31 206.43 324.08 208.42 M 567.97 219.97 C 557.35 230.48 551.35 244.40 544.54 257.43 C 538.70 258.12 532.80 257.99 526.95 258.53 C 529.59 263.56 534.40 266.76 539.65 268.58 C 538.21 273.90 535.84 278.89 534.22 284.15 C 531.10 293.88 528.42 303.79 526.84 313.90 C 525.25 324.56 524.57 335.73 527.83 346.15 C 530.45 354.64 536.21 362.55 544.57 366.09 C 541.75 342.35 545.83 318.44 551.42 295.40 C 553.71 286.88 555.73 278.22 559.29 270.11 C 570.17 269.20 581.27 269.67 591.91 266.78 C 590.59 263.21 589.16 259.23 585.87 257.03 C 579.38 255.54 572.63 256.69 566.03 256.18 C 575.16 239.51 590.32 225.68 608.98 220.80 C 605.87 213.28 598.11 207.88 590.01 207.55 C 581.22 208.09 574.02 214.08 567.97 219.97 M 627.31 212.26 C 623.92 218.42 621.22 224.93 618.30 231.32 C 610.91 248.29 604.12 265.61 599.67 283.61 C 597.04 294.74 595.06 306.57 598.16 317.81 C 600.56 326.72 607.04 334.53 615.65 338.01 C 615.69 335.01 615.63 332.00 615.58 329.00 C 615.01 308.53 618.71 288.03 625.76 268.83 C 629.52 258.18 633.29 247.48 638.38 237.36 C 640.54 232.87 643.46 227.70 641.23 222.66 C 638.49 217.31 632.90 213.98 627.31 212.26 M 114.32 278.33 C 110.58 289.28 111.58 301.76 117.16 311.92 C 123.14 323.00 134.30 331.17 146.76 333.26 C 157.38 334.97 168.81 332.93 177.66 326.64 C 178.34 322.86 178.68 319.03 179.20 315.23 C 179.96 309.66 181.77 304.31 182.98 298.84 C 179.60 302.17 176.87 306.14 173.11 309.08 C 164.15 316.02 151.37 317.46 141.01 312.98 C 129.59 307.95 122.05 295.44 123.13 282.97 C 123.85 271.63 131.62 261.41 141.97 256.98 C 145.35 255.25 150.16 254.50 151.10 250.15 C 134.62 250.85 119.38 262.68 114.32 278.33 M 386.19 249.97 C 378.93 266.31 374.63 284.13 373.97 302.02 C 373.25 314.86 381.18 327.88 393.54 332.04 C 395.08 314.80 397.39 296.40 408.22 282.23 C 416.73 270.92 430.24 264.41 444.08 262.62 C 442.92 258.99 440.61 255.59 437.04 254.02 C 430.58 251.23 422.83 253.11 417.64 257.65 C 408.21 265.20 403.03 276.37 396.16 286.00 C 396.68 279.59 398.59 273.42 400.24 267.24 C 401.01 263.75 401.84 259.57 399.44 256.52 C 396.20 252.56 391.06 250.87 386.19 249.97 M 234.58 253.53 C 228.14 256.13 221.53 259.82 217.83 265.92 C 221.88 267.04 225.39 264.69 228.59 262.57 C 238.01 256.38 250.98 256.46 260.44 262.50 C 265.99 265.93 270.32 271.21 272.73 277.26 C 276.60 286.90 275.06 298.47 268.72 306.72 C 260.53 317.75 244.46 322.02 232.01 315.99 C 222.87 312.02 216.82 303.30 214.33 293.87 C 209.11 300.28 210.37 309.90 214.38 316.62 C 221.99 329.81 238.18 336.03 252.91 334.62 C 265.69 333.66 277.80 326.49 284.69 315.66 C 289.97 307.55 292.29 297.59 291.13 287.99 C 289.68 274.29 280.84 261.72 268.62 255.45 C 258.19 250.11 245.53 249.35 234.58 253.53 M 465.79 259.79 C 452.41 267.73 442.38 280.86 437.67 295.64 C 435.02 304.08 435.84 313.76 440.77 321.23 C 445.48 328.74 453.97 333.14 462.56 334.43 C 476.75 336.61 491.45 332.18 503.13 324.12 C 508.04 320.84 511.00 315.04 510.22 309.09 C 501.26 313.99 492.31 319.62 481.98 321.03 C 475.61 321.99 468.04 321.66 463.42 316.55 C 459.05 311.93 458.60 305.18 459.04 299.17 C 470.54 298.21 482.27 297.38 493.15 293.19 C 500.12 290.50 507.19 286.83 511.58 280.57 C 515.75 274.61 514.88 266.09 510.40 260.55 C 505.86 254.69 498.25 252.12 491.05 252.01 C 482.07 251.90 473.42 255.29 465.79 259.79 M 189.44 318.42 C 187.83 325.93 185.80 334.70 190.54 341.52 C 194.88 346.44 201.87 347.50 208.00 348.68 C 204.36 334.71 200.71 320.47 201.35 305.91 C 201.39 298.43 202.87 291.08 203.81 283.69 C 196.55 294.03 192.57 306.30 189.44 318.42 M 398.98 374.23 C 399.33 376.18 399.73 378.13 400.17 380.07 C 405.68 379.37 410.86 377.29 416.14 375.70 C 416.09 373.52 415.52 371.43 414.84 369.38 C 409.48 370.73 404.19 372.38 398.98 374.23 M 214.23 383.24 C 210.41 386.69 210.53 392.27 210.44 397.00 C 210.52 401.79 210.31 407.38 213.97 411.03 C 217.62 414.72 223.19 414.54 228.00 414.51 C 236.68 414.37 245.36 414.57 254.03 414.46 C 256.66 414.49 260.01 413.72 260.77 410.80 C 261.63 406.65 261.55 402.29 260.92 398.12 C 260.56 395.24 257.64 393.76 255.00 393.70 C 249.34 393.30 243.65 393.53 237.97 393.52 C 236.06 393.78 233.27 393.25 232.37 395.47 C 231.98 397.25 232.03 400.21 234.37 400.51 C 240.81 401.21 247.32 400.26 253.77 401.00 C 253.77 403.04 253.78 405.08 253.79 407.13 C 245.22 407.93 236.59 407.24 228.00 407.51 C 224.62 407.45 219.74 407.57 218.51 403.61 C 217.61 399.60 217.70 395.35 218.39 391.31 C 218.88 388.70 221.48 387.15 224.00 387.12 C 236.16 386.45 248.42 387.81 260.55 386.47 C 260.97 384.81 261.68 383.02 260.88 381.36 C 259.68 379.31 257.01 379.93 255.04 379.70 C 245.69 379.73 236.35 379.74 227.01 379.71 C 222.58 379.75 217.62 380.01 214.23 383.24 M 267.51 380.47 C 266.40 388.26 267.28 396.16 266.96 404.00 C 267.24 407.30 266.15 411.21 268.23 414.07 C 277.43 415.06 286.75 414.16 296.00 414.48 C 301.88 414.27 308.63 415.58 313.61 411.66 C 317.65 408.40 317.82 402.78 317.82 398.02 C 317.79 393.10 318.07 387.42 314.40 383.59 C 311.27 380.18 306.33 379.78 301.99 379.72 C 292.99 379.70 283.99 379.79 274.99 379.68 C 272.47 379.61 269.97 379.94 267.51 380.47 M 330.29 382.42 C 328.29 388.12 327.52 394.16 325.96 400.00 C 325.02 404.63 323.08 409.26 323.97 414.07 C 326.12 414.30 329.59 415.32 330.43 412.48 C 331.78 408.77 332.13 404.79 333.14 400.98 C 343.39 400.52 353.68 400.62 363.93 400.93 C 365.29 404.75 365.82 408.85 367.47 412.58 C 368.56 415.18 371.74 414.41 373.89 413.97 C 374.43 407.86 371.82 402.11 370.70 396.22 C 369.21 391.04 368.78 385.48 366.38 380.62 C 363.75 379.46 360.80 379.75 358.00 379.68 C 350.65 379.82 343.30 379.64 335.95 379.72 C 333.80 379.75 330.93 379.87 330.29 382.42 M 380.44 380.34 C 379.48 387.52 380.22 394.78 379.98 402.00 C 380.11 406.12 379.34 410.45 381.02 414.37 C 382.95 414.51 384.89 414.37 386.80 413.97 C 388.52 406.39 386.89 398.55 387.73 390.88 C 399.97 397.93 411.59 406.03 423.69 413.33 C 425.75 414.68 428.31 414.87 430.46 413.60 C 430.99 408.08 430.70 402.53 430.73 397.00 C 430.68 391.53 431.05 386.03 430.35 380.58 C 428.04 379.55 424.07 379.12 423.48 382.39 C 422.80 389.32 423.67 396.31 423.08 403.26 C 410.51 396.27 398.53 388.22 386.21 380.80 C 384.45 379.60 382.37 379.64 380.44 380.34 M 438.45 383.39 C 435.90 386.86 436.03 391.71 437.35 395.64 C 438.62 399.12 442.51 400.63 445.96 400.69 C 455.32 400.90 464.69 400.61 474.06 400.71 C 475.89 400.70 477.68 401.20 479.46 401.62 C 479.75 403.69 480.12 406.80 477.33 407.25 C 463.94 408.33 450.38 406.56 437.02 408.09 C 436.52 410.02 436.54 411.98 437.07 413.91 C 441.66 414.81 446.35 414.46 451.00 414.48 C 459.34 414.42 467.68 414.51 476.02 414.50 C 479.50 414.53 483.56 413.82 485.54 410.60 C 487.73 406.85 487.75 401.89 485.90 397.99 C 484.06 394.39 479.64 393.65 475.99 393.56 C 466.99 393.40 457.98 393.61 448.98 393.57 C 447.67 393.47 446.25 393.59 445.07 392.94 C 443.17 391.67 444.38 389.31 444.46 387.52 C 458.40 385.92 472.56 388.13 486.48 386.40 C 486.68 384.44 486.68 382.48 486.52 380.53 C 482.12 379.29 477.53 379.72 473.03 379.87 C 464.67 380.20 456.30 379.86 447.93 380.01 C 444.55 380.09 440.67 380.50 438.45 383.39 M 493.31 381.34 C 492.53 387.52 493.20 393.78 493.00 400.00 C 493.15 404.51 492.44 409.15 493.56 413.57 C 495.34 415.12 497.78 414.25 499.84 413.97 C 500.35 409.95 500.27 405.89 500.34 401.85 C 502.45 402.25 504.57 402.70 506.62 403.41 C 516.31 406.79 526.08 409.94 535.81 413.21 C 537.73 413.68 539.77 414.70 541.76 414.04 C 543.21 412.85 544.37 410.60 543.21 408.84 C 541.31 407.47 538.99 406.91 536.81 406.19 C 528.35 403.69 519.98 400.89 511.51 398.44 C 510.22 398.15 509.12 397.50 508.09 396.74 C 519.91 392.93 531.99 389.83 543.57 385.35 C 544.38 382.27 541.51 378.66 538.26 380.16 C 525.53 384.13 513.05 388.91 500.31 392.83 C 500.23 388.65 500.54 384.42 499.69 380.29 C 497.56 379.84 494.72 379.10 493.31 381.34 M 420.06 439.65 C 326.03 444.62 231.87 458.98 142.69 489.94 C 141.76 490.27 140.89 490.71 140.07 491.26 C 136.95 491.95 133.90 492.89 130.92 494.02 C 115.57 499.74 100.42 505.98 85.44 512.62 C 88.07 522.66 91.84 532.44 96.36 541.79 C 102.16 539.77 107.34 536.38 112.89 533.81 C 122.45 529.27 132.08 524.89 141.80 520.74 C 147.86 518.07 154.24 516.14 160.11 513.04 C 222.96 489.07 288.49 472.79 354.55 460.48 C 376.36 456.52 398.22 452.58 420.23 449.95 C 418.29 452.04 416.23 454.02 414.16 455.99 C 420.53 452.32 426.84 448.51 433.59 445.56 C 439.58 442.73 445.98 440.95 452.11 438.48 C 441.41 438.16 430.75 439.22 420.06 439.65 M 437.66 455.11 C 437.73 460.19 438.89 465.14 439.89 470.09 C 441.41 477.20 442.77 484.38 445.09 491.28 C 450.24 489.17 455.03 486.30 460.14 484.12 C 475.90 477.06 492.84 472.43 510.11 471.46 C 527.34 470.50 544.58 473.70 560.86 479.17 C 566.36 480.98 571.60 483.51 577.16 485.16 C 568.07 473.99 556.20 465.31 543.62 458.44 C 511.35 441.01 470.97 439.86 437.66 455.11 M 416.42 467.41 C 411.11 471.36 405.75 475.39 401.34 480.36 C 399.98 481.65 400.49 483.64 400.54 485.31 C 402.56 503.47 406.42 521.57 413.62 538.43 C 424.83 565.15 445.45 588.26 471.66 600.91 C 477.37 588.34 481.80 575.03 483.71 561.33 C 479.83 557.80 475.41 554.96 471.52 551.45 C 457.86 539.66 446.75 524.79 440.04 508.00 C 433.74 492.64 431.38 476.09 429.81 459.68 C 424.78 461.14 420.68 464.52 416.42 467.41 M 208.12 530.27 C 207.05 530.81 205.99 531.40 205.05 532.16 C 200.36 533.41 196.02 535.60 191.74 537.82 C 166.40 550.27 141.69 564.15 118.44 580.17 C 124.00 588.73 130.23 596.94 137.15 604.46 C 159.62 588.57 183.24 574.35 207.58 561.51 C 213.64 558.25 220.06 555.65 225.90 551.97 C 272.64 528.77 321.20 509.37 370.59 492.58 C 373.55 491.57 376.66 490.87 379.42 489.35 C 381.55 487.83 382.90 485.51 384.52 483.52 C 388.71 477.85 394.03 473.20 398.89 468.13 C 333.98 484.35 269.28 502.79 208.12 530.27 M 489.26 479.32 C 474.12 482.56 459.44 487.99 445.75 495.20 C 446.83 509.11 454.30 521.81 463.19 532.24 C 470.08 529.76 476.40 525.97 483.17 523.21 C 504.54 513.68 528.12 507.45 551.65 510.34 C 568.50 512.04 584.45 517.95 600.19 523.83 C 598.06 516.56 594.44 509.85 590.73 503.29 C 588.77 500.05 586.92 496.38 583.36 494.65 C 572.32 489.05 560.73 484.52 548.80 481.24 C 529.46 475.94 508.89 475.25 489.26 479.32 M 381.06 507.01 C 379.49 509.96 377.46 512.95 377.44 516.42 C 378.58 546.72 387.31 577.57 406.62 601.43 C 417.88 615.47 431.83 627.29 447.06 636.83 C 454.15 631.67 459.65 624.55 463.88 616.92 C 466.31 612.30 468.89 607.64 469.88 602.46 C 453.40 591.59 437.09 579.94 424.18 564.83 C 413.61 552.63 406.01 538.02 401.40 522.59 C 397.83 511.47 396.28 499.89 394.08 488.47 C 388.86 493.97 384.89 500.50 381.06 507.01 M 464.27 534.37 C 467.34 539.86 471.63 544.53 475.72 549.28 C 480.85 554.84 486.15 560.32 492.16 564.94 C 495.60 563.97 498.86 562.53 502.15 561.17 C 515.48 555.98 529.69 552.89 544.01 552.70 C 560.85 552.54 577.47 556.72 592.99 563.03 C 597.90 564.96 602.54 567.58 607.62 569.07 C 608.13 559.04 606.81 549.01 604.89 539.19 C 604.14 536.33 603.95 532.52 600.65 531.43 C 575.78 520.15 548.39 512.86 520.90 515.12 C 500.80 516.69 481.26 523.59 464.27 534.37 M 303.45 544.54 C 300.40 546.01 297.41 547.63 294.59 549.52 C 293.45 549.19 292.42 550.10 291.41 550.48 C 279.64 556.95 267.85 563.40 256.37 570.39 C 224.42 589.14 194.61 611.36 166.51 635.46 C 170.58 640.07 175.60 643.70 180.11 647.85 C 185.14 652.07 189.90 656.64 195.38 660.29 C 199.79 654.76 205.03 650.00 210.02 645.02 C 235.95 620.86 264.40 599.57 293.75 579.74 C 303.00 573.44 312.70 567.82 321.83 561.36 C 331.99 555.33 341.95 548.97 352.31 543.30 C 354.10 542.18 356.15 541.25 357.46 539.54 C 358.68 537.16 359.13 534.49 359.88 531.94 C 361.25 526.57 363.61 521.52 365.00 516.16 C 344.10 524.73 323.66 534.44 303.45 544.54 M 365.99 565.00 C 365.53 598.47 379.98 631.73 404.63 654.36 C 408.48 657.74 412.16 661.48 416.77 663.85 C 426.36 656.29 435.56 648.13 443.83 639.15 C 434.89 633.24 425.90 627.32 417.93 620.11 C 403.02 607.13 390.96 590.78 383.50 572.44 C 377.49 557.93 374.32 542.43 372.50 526.88 C 367.97 539.03 366.12 552.07 365.99 565.00 M 527.38 562.12 C 526.34 579.24 524.70 596.45 519.98 613.00 C 515.94 627.42 509.11 641.06 499.79 652.80 C 490.19 665.08 478.21 675.15 466.14 684.90 C 475.31 686.93 484.76 686.89 494.09 686.70 C 499.26 686.75 502.96 682.63 507.00 680.01 C 527.27 665.72 544.88 646.94 555.15 624.15 C 563.62 605.62 567.45 585.29 568.51 565.03 C 561.85 561.84 554.41 560.65 547.09 560.29 C 540.49 560.17 533.76 560.25 527.38 562.12 M 484.77 570.68 C 483.77 576.13 483.35 581.68 482.19 587.11 C 479.19 601.99 473.55 616.42 464.94 628.97 C 455.21 643.32 442.15 655.13 427.93 664.90 C 426.38 665.95 425.05 667.27 423.80 668.65 C 432.29 674.39 441.90 678.28 451.59 681.51 C 454.15 682.25 457.21 683.59 459.53 681.51 C 481.71 665.59 501.71 645.51 513.55 620.61 C 522.25 602.27 526.37 581.68 525.06 561.43 C 511.32 562.72 497.61 565.54 484.77 570.68 M 571.99 566.75 C 571.42 573.25 571.35 579.78 570.47 586.25 C 568.07 605.97 562.03 625.45 551.28 642.25 C 543.48 654.75 533.39 665.69 522.16 675.18 C 518.64 678.14 514.83 680.78 511.65 684.13 C 528.17 681.35 543.73 673.95 557.39 664.37 C 585.33 644.55 604.00 612.24 607.05 578.11 C 602.41 575.65 597.34 574.23 592.41 572.53 C 585.67 570.38 579.01 567.82 571.99 566.75 M 331.11 589.17 C 302.53 611.63 275.20 635.84 250.98 662.99 C 247.83 666.34 244.58 669.66 242.18 673.62 C 295.36 697.61 348.85 720.91 402.00 744.95 C 406.32 747.17 410.84 744.49 414.70 742.58 C 422.48 738.42 430.23 734.19 437.92 729.85 C 454.66 719.77 471.58 709.94 487.94 699.24 C 475.00 698.03 461.97 696.66 449.55 692.61 C 420.21 683.80 392.99 665.64 376.38 639.56 C 367.45 626.35 361.96 611.16 358.11 595.79 C 356.10 587.97 355.68 579.90 354.71 571.92 C 346.35 576.95 338.97 583.41 331.11 589.17 Z" />
<path fill="#231f20" opacity="1.00" d=" M 480.25 264.28 C 484.05 262.14 489.13 261.72 492.91 264.14 C 495.77 266.05 496.56 269.79 496.26 273.02 C 495.76 279.63 491.27 285.41 485.59 288.56 C 477.83 292.89 468.86 294.87 460.02 294.77 C 461.52 287.14 465.36 280.17 469.99 274.00 C 472.88 270.28 476.11 266.65 480.25 264.28 Z" />
<path fill="#231f20" opacity="1.00" d=" M 274.73 387.08 C 283.84 386.88 292.96 387.03 302.07 386.98 C 305.13 386.86 309.12 387.67 309.87 391.19 C 310.59 395.29 310.64 399.63 309.71 403.70 C 308.58 407.34 304.15 407.45 301.00 407.50 C 292.24 407.36 283.47 407.71 274.72 407.29 C 274.39 400.56 274.36 393.80 274.73 387.08 Z" />
<path fill="#231f20" opacity="1.00" d=" M 336.01 387.13 C 344.37 386.84 352.73 387.00 361.09 387.02 C 361.88 389.04 362.53 391.11 363.02 393.24 C 353.56 393.65 344.07 393.61 334.61 393.26 C 335.01 391.19 335.48 389.15 336.01 387.13 Z" />
</g>
<g id="#08519bff">
<path fill="#08519b" opacity="1.00" d=" M 49.03 25.02 C 52.13 20.85 55.37 16.78 58.76 12.85 C 56.48 20.00 56.58 27.58 56.70 35.00 C 56.84 78.35 56.57 121.69 56.84 165.04 C 49.30 164.79 41.70 164.29 34.20 165.27 C 22.66 167.02 14.59 178.63 14.74 189.94 C 14.69 284.63 14.74 379.32 14.72 474.01 C 14.71 481.40 14.26 488.79 14.73 496.18 C 21.11 494.48 27.08 491.65 33.22 489.30 C 42.23 485.83 51.21 482.27 60.23 478.83 C 63.69 499.32 69.84 519.28 77.12 538.72 C 88.96 569.30 105.54 598.17 126.77 623.21 C 147.84 648.27 173.02 669.63 200.06 687.99 C 250.44 722.11 306.15 747.07 360.90 773.18 C 366.28 775.61 371.29 779.26 377.19 780.30 C 381.80 779.77 385.64 776.74 389.78 774.86 C 425.97 757.59 462.47 740.90 497.76 721.82 C 529.58 704.68 560.46 685.48 588.22 662.23 C 598.96 653.36 608.69 643.37 618.42 633.43 C 630.92 619.98 641.97 605.22 651.73 589.68 C 659.21 578.05 665.11 565.50 671.12 553.06 C 681.64 529.37 689.34 504.37 693.91 478.86 C 709.20 484.47 724.15 490.98 739.53 496.31 C 739.23 394.20 739.52 292.08 739.38 189.96 C 739.63 178.52 731.51 166.91 719.81 165.25 C 712.31 164.28 704.71 164.80 697.17 165.06 C 697.60 119.71 697.14 74.35 697.41 29.00 C 697.43 23.53 696.90 18.04 695.35 12.78 C 698.80 16.65 702.00 20.75 705.08 24.92 C 708.14 28.93 708.22 34.19 708.29 39.01 C 708.20 77.60 708.26 116.19 708.40 154.78 C 716.70 155.71 725.64 153.53 733.34 157.69 C 743.14 162.74 751.76 172.43 751.96 183.93 C 752.12 195.30 751.69 206.67 752.12 218.03 C 752.83 226.67 752.48 235.34 752.55 244.00 C 752.56 325.33 752.52 406.66 752.57 487.99 C 752.49 494.21 753.27 501.15 749.51 506.55 C 746.05 511.23 739.40 510.90 734.35 509.62 C 724.11 506.76 714.40 502.28 704.20 499.31 C 699.03 514.64 694.08 530.06 688.04 545.09 C 680.24 564.52 671.95 583.93 660.48 601.53 C 644.34 626.67 624.44 649.29 602.21 669.21 C 575.10 693.57 544.69 713.97 513.16 732.11 C 470.07 756.90 424.83 777.64 379.98 798.97 C 376.58 801.08 373.11 798.34 369.99 797.02 C 305.99 766.42 240.64 737.04 183.30 694.69 C 144.92 666.44 110.70 631.66 86.84 590.18 C 76.36 571.07 68.10 550.84 60.57 530.42 C 56.63 520.17 53.72 509.56 49.88 499.29 C 40.00 502.31 30.51 506.49 20.61 509.44 C 15.67 510.68 9.45 511.47 5.49 507.52 C 1.64 503.37 1.72 497.30 1.70 492.00 C 1.81 403.34 1.68 314.67 1.77 226.00 C 2.74 211.67 2.12 197.29 2.29 182.94 C 2.34 176.25 6.03 170.21 10.44 165.44 C 15.83 159.87 22.98 155.34 30.93 155.09 C 35.85 154.90 40.79 155.23 45.71 154.85 C 45.83 139.23 45.68 123.61 45.74 107.99 C 46.31 86.00 45.96 64.00 46.01 42.00 C 46.10 36.29 45.35 29.87 49.03 25.02 Z" />
<path fill="#08519b" opacity="1.00" d=" M 205.24 83.02 C 205.66 71.33 214.60 60.36 226.17 58.11 C 236.75 55.80 248.48 60.50 254.32 69.66 C 257.90 75.04 258.86 81.66 258.79 88.00 C 258.84 105.45 251.55 122.84 238.84 134.84 C 222.83 150.39 198.29 157.15 176.81 150.37 C 184.70 149.45 192.97 148.42 199.60 143.64 C 207.18 138.59 211.73 129.85 212.92 120.96 C 213.98 112.36 210.75 104.06 207.75 96.17 C 206.09 92.00 204.90 87.55 205.24 83.02 M 222.87 61.46 C 232.00 60.85 241.63 63.15 248.37 69.62 C 252.60 73.49 254.12 79.18 256.69 84.10 C 255.96 76.13 252.15 68.16 245.08 63.97 C 238.63 59.42 230.23 59.75 222.87 61.46 Z" />
</g>
<g id="#ffffffff">
<path fill="#ffffff" opacity="1.00" d=" M 78.15 17.16 C 81.22 14.06 85.80 13.40 89.96 13.27 C 281.33 13.26 472.70 13.28 664.07 13.26 C 669.39 13.21 675.51 14.81 678.11 19.92 C 681.32 26.44 680.31 33.98 680.48 41.00 C 680.81 82.30 681.32 123.60 681.49 164.89 C 686.70 165.50 691.95 165.38 697.17 165.06 C 704.71 164.80 712.31 164.28 719.81 165.25 C 731.51 166.91 739.63 178.52 739.38 189.96 C 739.52 292.08 739.23 394.20 739.53 496.31 C 724.15 490.98 709.20 484.47 693.91 478.86 C 694.34 474.90 694.98 470.97 696.00 467.12 C 706.36 469.47 716.46 472.85 726.75 475.51 C 726.46 456.33 726.55 437.15 726.51 417.96 C 726.12 404.98 726.30 391.99 726.27 379.00 C 725.84 316.98 725.60 254.97 725.30 192.96 C 725.40 188.92 724.46 184.52 721.11 181.92 C 715.57 177.07 707.71 178.78 701.00 178.52 C 485.00 178.54 269.00 178.54 53.00 178.52 C 46.30 178.75 38.45 177.10 32.96 181.99 C 28.79 185.35 28.72 191.12 28.69 196.00 C 28.92 226.68 28.38 257.36 28.53 288.04 C 28.04 306.02 28.38 324.01 28.24 342.00 C 27.64 362.33 28.36 382.68 27.76 403.01 C 27.61 420.34 27.94 437.68 27.55 455.01 C 27.55 461.72 27.30 468.45 27.76 475.17 C 38.15 473.13 48.03 469.07 58.46 467.23 C 59.19 471.07 59.76 474.94 60.23 478.83 C 51.21 482.27 42.23 485.83 33.22 489.30 C 27.08 491.65 21.11 494.48 14.73 496.18 C 14.26 488.79 14.71 481.40 14.72 474.01 C 14.74 379.32 14.69 284.63 14.74 189.94 C 14.59 178.63 22.66 167.02 34.20 165.27 C 41.70 164.29 49.30 164.79 56.84 165.04 C 62.09 165.37 67.37 165.50 72.61 164.92 C 72.98 120.27 73.44 75.62 73.76 30.98 C 73.93 26.14 74.52 20.74 78.15 17.16 M 201.06 30.93 C 191.03 31.66 181.38 36.24 173.92 42.91 C 168.08 48.51 162.85 55.71 162.30 64.05 C 161.85 69.51 164.48 74.94 168.81 78.23 C 176.65 84.33 186.91 86.15 194.76 92.25 C 197.83 94.60 199.82 97.98 202.03 101.09 C 203.29 87.17 191.86 75.87 192.97 61.97 C 193.41 53.06 199.12 44.98 207.05 41.08 C 214.74 36.81 223.71 36.75 232.25 36.89 C 227.11 33.57 221.20 31.41 215.12 30.71 C 210.47 30.56 205.59 29.51 201.06 30.93 M 131.67 102.42 C 134.46 116.26 142.32 128.83 153.06 137.93 C 158.31 142.58 164.78 146.40 171.99 146.50 C 181.27 147.14 190.53 142.33 195.67 134.65 C 202.89 124.25 200.73 108.96 191.59 100.41 C 187.62 96.51 182.26 94.66 177.15 92.79 C 170.31 90.21 163.30 87.19 158.23 81.73 C 151.55 74.38 147.95 63.94 150.02 54.08 C 151.28 46.83 155.63 40.73 159.75 34.84 C 137.43 48.52 126.07 77.02 131.67 102.42 M 366.37 42.42 C 360.43 44.05 355.00 47.34 350.60 51.61 C 341.16 60.84 336.80 74.07 335.84 86.99 C 334.61 102.66 337.17 119.42 346.66 132.34 C 353.33 141.59 364.33 148.24 375.99 147.54 C 388.47 147.40 399.33 138.94 405.49 128.55 C 413.66 114.60 415.26 97.69 413.14 81.91 C 411.24 68.31 404.89 54.55 393.06 46.89 C 385.37 41.52 375.37 40.29 366.37 42.42 M 511.38 42.47 C 503.41 44.67 496.46 49.92 491.56 56.51 C 482.23 69.20 479.90 85.71 481.09 101.08 C 482.26 115.74 487.75 131.03 499.63 140.37 C 508.78 147.87 522.15 149.74 532.97 144.94 C 542.76 140.62 549.98 131.85 554.08 122.15 C 559.47 109.07 560.38 94.48 558.30 80.59 C 556.14 67.41 549.78 54.14 538.23 46.76 C 530.46 41.46 520.41 40.30 511.38 42.47 M 578.72 47.74 C 569.01 55.09 565.25 68.23 567.18 79.94 C 568.44 87.29 573.07 93.58 578.47 98.51 C 582.70 102.61 587.99 105.71 591.34 110.64 C 594.25 114.88 591.22 121.72 585.94 121.94 C 578.85 122.30 573.56 116.82 567.77 113.61 C 567.42 123.36 567.33 133.15 567.78 142.89 C 578.80 147.87 592.46 149.57 603.30 143.25 C 618.54 134.50 624.50 113.50 617.14 97.75 C 613.91 91.02 607.89 86.30 601.96 82.07 C 598.78 79.67 595.01 76.97 594.43 72.71 C 594.09 68.66 598.21 65.66 602.01 65.96 C 608.36 65.84 613.36 70.20 617.93 74.04 C 617.85 64.79 618.21 55.54 617.72 46.30 C 605.75 40.10 589.75 38.99 578.72 47.74 M 283.68 43.14 C 283.15 48.75 283.45 54.38 283.41 60.00 C 283.38 86.66 283.40 113.33 283.35 140.00 C 283.37 141.70 283.51 143.41 283.63 145.11 C 293.74 145.53 303.87 145.16 314.00 145.27 C 320.19 145.18 326.41 145.67 332.58 144.89 C 332.58 136.96 332.58 129.04 332.58 121.12 C 325.47 120.20 318.30 121.03 311.17 120.70 C 310.69 94.86 311.16 69.00 310.85 43.15 C 301.80 42.99 292.73 43.02 283.68 43.14 M 418.15 43.15 C 418.00 51.45 417.96 59.77 418.16 68.07 C 423.29 68.42 428.43 68.10 433.57 68.35 C 433.73 93.93 433.24 119.53 433.76 145.11 C 442.80 145.41 451.86 145.43 460.90 145.10 C 461.31 119.49 460.61 93.87 461.14 68.26 C 466.16 68.15 471.19 68.40 476.21 68.09 C 476.60 59.79 476.61 51.46 476.20 43.16 C 456.85 43.01 437.50 43.03 418.15 43.15 M 205.24 83.02 C 204.90 87.55 206.09 92.00 207.75 96.17 C 210.75 104.06 213.98 112.36 212.92 120.96 C 211.73 129.85 207.18 138.59 199.60 143.64 C 192.97 148.42 184.70 149.45 176.81 150.37 C 198.29 157.15 222.83 150.39 238.84 134.84 C 251.55 122.84 258.84 105.45 258.79 88.00 C 258.86 81.66 257.90 75.04 254.32 69.66 C 248.48 60.50 236.75 55.80 226.17 58.11 C 214.60 60.36 205.66 71.33 205.24 83.02 Z" />
<path fill="#ffffff" opacity="1.00" d=" M 222.87 61.46 C 230.23 59.75 238.63 59.42 245.08 63.97 C 252.15 68.16 255.96 76.13 256.69 84.10 C 254.12 79.18 252.60 73.49 248.37 69.62 C 241.63 63.15 232.00 60.85 222.87 61.46 Z" />
<path fill="#ffffff" opacity="1.00" d=" M 372.31 67.17 C 376.65 65.06 380.78 69.03 382.08 72.93 C 385.27 81.53 385.50 90.92 385.15 99.99 C 384.65 106.31 384.24 113.16 380.50 118.53 C 378.08 122.00 372.52 122.50 369.68 119.28 C 365.76 114.76 365.08 108.46 364.49 102.74 C 364.01 93.91 363.93 84.87 366.21 76.25 C 367.31 72.79 368.75 68.79 372.31 67.17 Z" />
<path fill="#ffffff" opacity="1.00" d=" M 517.36 67.22 C 520.98 65.22 525.12 67.95 526.66 71.34 C 530.11 78.31 530.51 86.31 530.74 93.96 C 530.70 101.25 530.38 108.79 527.55 115.61 C 526.18 119.12 522.57 122.37 518.58 121.37 C 514.25 120.29 512.35 115.67 511.25 111.79 C 508.97 102.72 509.01 93.20 510.02 83.95 C 511.03 78.04 511.78 70.70 517.36 67.22 Z" />
<path fill="#ffffff" opacity="1.00" d=" M 398.98 374.23 C 404.19 372.38 409.48 370.73 414.84 369.38 C 415.52 371.43 416.09 373.52 416.14 375.70 C 410.86 377.29 405.68 379.37 400.17 380.07 C 399.73 378.13 399.33 376.18 398.98 374.23 Z" />
<path fill="#ffffff" opacity="1.00" d=" M 214.23 383.24 C 217.62 380.01 222.58 379.75 227.01 379.71 C 236.35 379.74 245.69 379.73 255.04 379.70 C 257.01 379.93 259.68 379.31 260.88 381.36 C 261.68 383.02 260.97 384.81 260.55 386.47 C 248.42 387.81 236.16 386.45 224.00 387.12 C 221.48 387.15 218.88 388.70 218.39 391.31 C 217.70 395.35 217.61 399.60 218.51 403.61 C 219.74 407.57 224.62 407.45 228.00 407.51 C 236.59 407.24 245.22 407.93 253.79 407.13 C 253.78 405.08 253.77 403.04 253.77 401.00 C 247.32 400.26 240.81 401.21 234.37 400.51 C 232.03 400.21 231.98 397.25 232.37 395.47 C 233.27 393.25 236.06 393.78 237.97 393.52 C 243.65 393.53 249.34 393.30 255.00 393.70 C 257.64 393.76 260.56 395.24 260.92 398.12 C 261.55 402.29 261.63 406.65 260.77 410.80 C 260.01 413.72 256.66 414.49 254.03 414.46 C 245.36 414.57 236.68 414.37 228.00 414.51 C 223.19 414.54 217.62 414.72 213.97 411.03 C 210.31 407.38 210.52 401.79 210.44 397.00 C 210.53 392.27 210.41 386.69 214.23 383.24 Z" />
<path fill="#ffffff" opacity="1.00" d=" M 267.51 380.47 C 269.97 379.94 272.47 379.61 274.99 379.68 C 283.99 379.79 292.99 379.70 301.99 379.72 C 306.33 379.78 311.27 380.18 314.40 383.59 C 318.07 387.42 317.79 393.10 317.82 398.02 C 317.82 402.78 317.65 408.40 313.61 411.66 C 308.63 415.58 301.88 414.27 296.00 414.48 C 286.75 414.16 277.43 415.06 268.23 414.07 C 266.15 411.21 267.24 407.30 266.96 404.00 C 267.28 396.16 266.40 388.26 267.51 380.47 M 274.73 387.08 C 274.36 393.80 274.39 400.56 274.72 407.29 C 283.47 407.71 292.24 407.36 301.00 407.50 C 304.15 407.45 308.58 407.34 309.71 403.70 C 310.64 399.63 310.59 395.29 309.87 391.19 C 309.12 387.67 305.13 386.86 302.07 386.98 C 292.96 387.03 283.84 386.88 274.73 387.08 Z" />
<path fill="#ffffff" opacity="1.00" d=" M 330.29 382.42 C 330.93 379.87 333.80 379.75 335.95 379.72 C 343.30 379.64 350.65 379.82 358.00 379.68 C 360.80 379.75 363.75 379.46 366.38 380.62 C 368.78 385.48 369.21 391.04 370.70 396.22 C 371.82 402.11 374.43 407.86 373.89 413.97 C 371.74 414.41 368.56 415.18 367.47 412.58 C 365.82 408.85 365.29 404.75 363.93 400.93 C 353.68 400.62 343.39 400.52 333.14 400.98 C 332.13 404.79 331.78 408.77 330.43 412.48 C 329.59 415.32 326.12 414.30 323.97 414.07 C 323.08 409.26 325.02 404.63 325.96 400.00 C 327.52 394.16 328.29 388.12 330.29 382.42 M 336.01 387.13 C 335.48 389.15 335.01 391.19 334.61 393.26 C 344.07 393.61 353.56 393.65 363.02 393.24 C 362.53 391.11 361.88 389.04 361.09 387.02 C 352.73 387.00 344.37 386.84 336.01 387.13 Z" />
<path fill="#ffffff" opacity="1.00" d=" M 380.44 380.34 C 382.37 379.64 384.45 379.60 386.21 380.80 C 398.53 388.22 410.51 396.27 423.08 403.26 C 423.67 396.31 422.80 389.32 423.48 382.39 C 424.07 379.12 428.04 379.55 430.35 380.58 C 431.05 386.03 430.68 391.53 430.73 397.00 C 430.70 402.53 430.99 408.08 430.46 413.60 C 428.31 414.87 425.75 414.68 423.69 413.33 C 411.59 406.03 399.97 397.93 387.73 390.88 C 386.89 398.55 388.52 406.39 386.80 413.97 C 384.89 414.37 382.95 414.51 381.02 414.37 C 379.34 410.45 380.11 406.12 379.98 402.00 C 380.22 394.78 379.48 387.52 380.44 380.34 Z" />
<path fill="#ffffff" opacity="1.00" d=" M 438.45 383.39 C 440.67 380.50 444.55 380.09 447.93 380.01 C 456.30 379.86 464.67 380.20 473.03 379.87 C 477.53 379.72 482.12 379.29 486.52 380.53 C 486.68 382.48 486.68 384.44 486.48 386.40 C 472.56 388.13 458.40 385.92 444.46 387.52 C 444.38 389.31 443.17 391.67 445.07 392.94 C 446.25 393.59 447.67 393.47 448.98 393.57 C 457.98 393.61 466.99 393.40 475.99 393.56 C 479.64 393.65 484.06 394.39 485.90 397.99 C 487.75 401.89 487.73 406.85 485.54 410.60 C 483.56 413.82 479.50 414.53 476.02 414.50 C 467.68 414.51 459.34 414.42 451.00 414.48 C 446.35 414.46 441.66 414.81 437.07 413.91 C 436.54 411.98 436.52 410.02 437.02 408.09 C 450.38 406.56 463.94 408.33 477.33 407.25 C 480.12 406.80 479.75 403.69 479.46 401.62 C 477.68 401.20 475.89 400.70 474.06 400.71 C 464.69 400.61 455.32 400.90 445.96 400.69 C 442.51 400.63 438.62 399.12 437.35 395.64 C 436.03 391.71 435.90 386.86 438.45 383.39 Z" />
<path fill="#ffffff" opacity="1.00" d=" M 493.31 381.34 C 494.72 379.10 497.56 379.84 499.69 380.29 C 500.54 384.42 500.23 388.65 500.31 392.83 C 513.05 388.91 525.53 384.13 538.26 380.16 C 541.51 378.66 544.38 382.27 543.57 385.35 C 531.99 389.83 519.91 392.93 508.09 396.74 C 509.12 397.50 510.22 398.15 511.51 398.44 C 519.98 400.89 528.35 403.69 536.81 406.19 C 538.99 406.91 541.31 407.47 543.21 408.84 C 544.37 410.60 543.21 412.85 541.76 414.04 C 539.77 414.70 537.73 413.68 535.81 413.21 C 526.08 409.94 516.31 406.79 506.62 403.41 C 504.57 402.70 502.45 402.25 500.34 401.85 C 500.27 405.89 500.35 409.95 499.84 413.97 C 497.78 414.25 495.34 415.12 493.56 413.57 C 492.44 409.15 493.15 404.51 493.00 400.00 C 493.20 393.78 492.53 387.52 493.31 381.34 Z" />
</g>
<g id="#ffe809ff">
<path fill="#b71525" opacity="1.00" d=" M 201.06 30.93 C 205.59 29.51 210.47 30.56 215.12 30.71 C 213.65 30.79 212.18 30.91 210.72 31.05 C 212.48 31.66 214.24 32.26 216.01 32.82 C 210.73 32.59 205.15 32.63 200.42 35.31 C 195.87 37.54 192.85 41.82 188.68 44.55 C 185.39 44.48 182.65 42.37 179.92 40.79 C 186.32 34.90 195.08 33.38 203.21 31.36 C 202.67 31.25 201.60 31.04 201.06 30.93 Z" />
<path fill="#b71525" opacity="1.00" d=" M 139.63 59.57 C 142.08 53.58 146.16 48.28 151.05 44.06 C 148.86 48.68 145.93 53.06 145.03 58.18 C 144.21 62.09 145.10 66.05 145.62 69.93 C 142.82 67.16 137.81 64.21 139.63 59.57 Z" />
<path fill="#ffe809" opacity="1.00" d=" M 191.08 196.05 C 202.21 193.59 214.33 195.83 223.74 202.29 C 236.60 210.90 244.01 226.91 241.91 242.30 C 240.83 241.95 239.74 241.62 238.65 241.32 C 237.01 234.72 237.17 227.56 233.52 221.59 C 226.33 207.86 208.44 201.30 194.06 207.04 C 178.52 212.46 169.18 230.89 174.42 246.59 C 176.25 254.16 182.01 259.55 187.25 264.89 C 182.42 266.20 177.08 266.73 172.38 264.66 C 166.72 262.26 162.83 256.99 160.62 251.41 C 155.90 239.22 157.79 224.84 165.02 214.02 C 170.97 204.99 180.50 198.34 191.08 196.05 Z" />
<path fill="#ffe809" opacity="1.00" d=" M 324.08 208.42 C 345.31 206.43 366.67 206.30 387.97 206.73 C 393.48 207.13 399.18 206.78 404.52 208.38 C 408.88 211.92 411.19 217.44 412.22 222.85 C 400.18 223.83 388.09 224.17 376.02 224.31 C 372.73 224.03 372.41 228.08 371.22 230.26 C 358.22 264.87 346.35 299.96 336.90 335.70 C 329.76 334.12 322.21 331.39 317.64 325.37 C 313.69 319.97 315.00 312.80 316.96 306.90 C 324.47 284.54 333.77 262.84 343.25 241.26 C 345.59 235.77 348.42 230.47 350.27 224.78 C 340.56 224.05 330.61 225.52 321.11 222.86 C 315.19 221.20 310.37 216.59 308.24 210.85 C 313.36 209.22 318.77 209.02 324.08 208.42 Z" />
<path fill="#ffe809" opacity="1.00" d=" M 567.97 219.97 C 574.02 214.08 581.22 208.09 590.01 207.55 C 598.11 207.88 605.87 213.28 608.98 220.80 C 590.32 225.68 575.16 239.51 566.03 256.18 C 572.63 256.69 579.38 255.54 585.87 257.03 C 589.16 259.23 590.59 263.21 591.91 266.78 C 581.27 269.67 570.17 269.20 559.29 270.11 C 555.73 278.22 553.71 286.88 551.42 295.40 C 545.83 318.44 541.75 342.35 544.57 366.09 C 536.21 362.55 530.45 354.64 527.83 346.15 C 524.57 335.73 525.25 324.56 526.84 313.90 C 528.42 303.79 531.10 293.88 534.22 284.15 C 535.84 278.89 538.21 273.90 539.65 268.58 C 534.40 266.76 529.59 263.56 526.95 258.53 C 532.80 257.99 538.70 258.12 544.54 257.43 C 551.35 244.40 557.35 230.48 567.97 219.97 Z" />
<path fill="#ffe809" opacity="1.00" d=" M 627.31 212.26 C 632.90 213.98 638.49 217.31 641.23 222.66 C 643.46 227.70 640.54 232.87 638.38 237.36 C 633.29 247.48 629.52 258.18 625.76 268.83 C 618.71 288.03 615.01 308.53 615.58 329.00 C 615.63 332.00 615.69 335.01 615.65 338.01 C 607.04 334.53 600.56 326.72 598.16 317.81 C 595.06 306.57 597.04 294.74 599.67 283.61 C 604.12 265.61 610.91 248.29 618.30 231.32 C 621.22 224.93 623.92 218.42 627.31 212.26 Z" />
<path fill="#ffe809" opacity="1.00" d=" M 114.32 278.33 C 119.38 262.68 134.62 250.85 151.10 250.15 C 150.16 254.50 145.35 255.25 141.97 256.98 C 131.62 261.41 123.85 271.63 123.13 282.97 C 122.05 295.44 129.59 307.95 141.01 312.98 C 151.37 317.46 164.15 316.02 173.11 309.08 C 176.87 306.14 179.60 302.17 182.98 298.84 C 181.77 304.31 179.96 309.66 179.20 315.23 C 178.68 319.03 178.34 322.86 177.66 326.64 C 168.81 332.93 157.38 334.97 146.76 333.26 C 134.30 331.17 123.14 323.00 117.16 311.92 C 111.58 301.76 110.58 289.28 114.32 278.33 Z" />
<path fill="#ffe809" opacity="1.00" d=" M 386.19 249.97 C 391.06 250.87 396.20 252.56 399.44 256.52 C 401.84 259.57 401.01 263.75 400.24 267.24 C 398.59 273.42 396.68 279.59 396.16 286.00 C 403.03 276.37 408.21 265.20 417.64 257.65 C 422.83 253.11 430.58 251.23 437.04 254.02 C 440.61 255.59 442.92 258.99 444.08 262.62 C 430.24 264.41 416.73 270.92 408.22 282.23 C 397.39 296.40 395.08 314.80 393.54 332.04 C 381.18 327.88 373.25 314.86 373.97 302.02 C 374.63 284.13 378.93 266.31 386.19 249.97 Z" />
<path fill="#ffe809" opacity="1.00" d=" M 234.58 253.53 C 245.53 249.35 258.19 250.11 268.62 255.45 C 280.84 261.72 289.68 274.29 291.13 287.99 C 292.29 297.59 289.97 307.55 284.69 315.66 C 277.80 326.49 265.69 333.66 252.91 334.62 C 238.18 336.03 221.99 329.81 214.38 316.62 C 210.37 309.90 209.11 300.28 214.33 293.87 C 216.82 303.30 222.87 312.02 232.01 315.99 C 244.46 322.02 260.53 317.75 268.72 306.72 C 275.06 298.47 276.60 286.90 272.73 277.26 C 270.32 271.21 265.99 265.93 260.44 262.50 C 250.98 256.46 238.01 256.38 228.59 262.57 C 225.39 264.69 221.88 267.04 217.83 265.92 C 221.53 259.82 228.14 256.13 234.58 253.53 Z" />
<path fill="#ffe809" opacity="1.00" d=" M 465.79 259.79 C 473.42 255.29 482.07 251.90 491.05 252.01 C 498.25 252.12 505.86 254.69 510.40 260.55 C 514.88 266.09 515.75 274.61 511.58 280.57 C 507.19 286.83 500.12 290.50 493.15 293.19 C 482.27 297.38 470.54 298.21 459.04 299.17 C 458.60 305.18 459.05 311.93 463.42 316.55 C 468.04 321.66 475.61 321.99 481.98 321.03 C 492.31 319.62 501.26 313.99 510.22 309.09 C 511.00 315.04 508.04 320.84 503.13 324.12 C 491.45 332.18 476.75 336.61 462.56 334.43 C 453.97 333.14 445.48 328.74 440.77 321.23 C 435.84 313.76 435.02 304.08 437.67 295.64 C 442.38 280.86 452.41 267.73 465.79 259.79 M 480.25 264.28 C 476.11 266.65 472.88 270.28 469.99 274.00 C 465.36 280.17 461.52 287.14 460.02 294.77 C 468.86 294.87 477.83 292.89 485.59 288.56 C 491.27 285.41 495.76 279.63 496.26 273.02 C 496.56 269.79 495.77 266.05 492.91 264.14 C 489.13 261.72 484.05 262.14 480.25 264.28 Z" />
<path fill="#ffe809" opacity="1.00" d=" M 189.44 318.42 C 192.57 306.30 196.55 294.03 203.81 283.69 C 202.87 291.08 201.39 298.43 201.35 305.91 C 200.71 320.47 204.36 334.71 208.00 348.68 C 201.87 347.50 194.88 346.44 190.54 341.52 C 185.80 334.70 187.83 325.93 189.44 318.42 Z" />
<path fill="#ffe809" opacity="1.00" d=" M 420.06 439.65 C 430.75 439.22 441.41 438.16 452.11 438.48 C 445.98 440.95 439.58 442.73 433.59 445.56 C 426.84 448.51 420.53 452.32 414.16 455.99 C 416.23 454.02 418.29 452.04 420.23 449.95 C 398.22 452.58 376.36 456.52 354.55 460.48 C 288.49 472.79 222.96 489.07 160.11 513.04 C 150.68 508.82 140.92 505.23 131.92 500.13 C 134.41 496.98 137.02 493.89 140.07 491.26 C 140.89 490.71 141.76 490.27 142.69 489.94 C 231.87 458.98 326.03 444.62 420.06 439.65 Z" />
<path fill="#ffe809" opacity="1.00" d=" M 437.66 455.11 C 470.97 439.86 511.35 441.01 543.62 458.44 C 556.20 465.31 568.07 473.99 577.16 485.16 C 571.60 483.51 566.36 480.98 560.86 479.17 C 544.58 473.70 527.34 470.50 510.11 471.46 C 492.84 472.43 475.90 477.06 460.14 484.12 C 455.03 486.30 450.24 489.17 445.09 491.28 C 442.77 484.38 441.41 477.20 439.89 470.09 C 438.89 465.14 437.73 460.19 437.66 455.11 Z" />
<path fill="#ffe809" opacity="1.00" d=" M 416.42 467.41 C 420.68 464.52 424.78 461.14 429.81 459.68 C 431.38 476.09 433.74 492.64 440.04 508.00 C 446.75 524.79 457.86 539.66 471.52 551.45 C 475.41 554.96 479.83 557.80 483.71 561.33 C 481.80 575.03 477.37 588.34 471.66 600.91 C 445.45 588.26 424.83 565.15 413.62 538.43 C 406.42 521.57 402.56 503.47 400.54 485.31 C 400.49 483.64 399.98 481.65 401.34 480.36 C 405.75 475.39 411.11 471.36 416.42 467.41 Z" />
<path fill="#ffe809" opacity="1.00" d=" M 208.12 530.27 C 269.28 502.79 333.98 484.35 398.89 468.13 C 394.03 473.20 388.71 477.85 384.52 483.52 C 382.90 485.51 381.55 487.83 379.42 489.35 C 376.66 490.87 373.55 491.57 370.59 492.58 C 321.20 509.37 272.64 528.77 225.90 551.97 C 216.54 548.23 207.32 544.14 198.24 539.80 C 200.33 537.11 202.49 534.43 205.05 532.16 C 205.99 531.40 207.05 530.81 208.12 530.27 Z" />
<path fill="#ffe809" opacity="1.00" d=" M 489.26 479.32 C 508.89 475.25 529.46 475.94 548.80 481.24 C 560.73 484.52 572.32 489.05 583.36 494.65 C 586.92 496.38 588.77 500.05 590.73 503.29 C 594.44 509.85 598.06 516.56 600.19 523.83 C 584.45 517.95 568.50 512.04 551.65 510.34 C 528.12 507.45 504.54 513.68 483.17 523.21 C 476.40 525.97 470.08 529.76 463.19 532.24 C 454.30 521.81 446.83 509.11 445.75 495.20 C 459.44 487.99 474.12 482.56 489.26 479.32 Z" />
<path fill="#ffe809" opacity="1.00" d=" M 381.06 507.01 C 384.89 500.50 388.86 493.97 394.08 488.47 C 396.28 499.89 397.83 511.47 401.40 522.59 C 406.01 538.02 413.61 552.63 424.18 564.83 C 437.09 579.94 453.40 591.59 469.88 602.46 C 468.89 607.64 466.31 612.30 463.88 616.92 C 459.65 624.55 454.15 631.67 447.06 636.83 C 431.83 627.29 417.88 615.47 406.62 601.43 C 387.31 577.57 378.58 546.72 377.44 516.42 C 377.46 512.95 379.49 509.96 381.06 507.01 Z" />
<path fill="#ffe809" opacity="1.00" d=" M 464.27 534.37 C 481.26 523.59 500.80 516.69 520.90 515.12 C 548.39 512.86 575.78 520.15 600.65 531.43 C 603.95 532.52 604.14 536.33 604.89 539.19 C 606.81 549.01 608.13 559.04 607.62 569.07 C 602.54 567.58 597.90 564.96 592.99 563.03 C 577.47 556.72 560.85 552.54 544.01 552.70 C 529.69 552.89 515.48 555.98 502.15 561.17 C 498.86 562.53 495.60 563.97 492.16 564.94 C 486.15 560.32 480.85 554.84 475.72 549.28 C 471.63 544.53 467.34 539.86 464.27 534.37 Z" />
<path fill="#ffe809" opacity="1.00" d=" M 303.45 544.54 C 323.66 534.44 344.10 524.73 365.00 516.16 C 363.61 521.52 361.25 526.57 359.88 531.94 C 359.13 534.49 358.68 537.16 357.46 539.54 C 356.15 541.25 354.10 542.18 352.31 543.30 C 341.95 548.97 331.99 555.33 321.83 561.36 C 312.48 558.05 303.79 553.20 294.59 549.52 C 297.41 547.63 300.40 546.01 303.45 544.54 Z" />
<path fill="#ffe809" opacity="1.00" d=" M 365.99 565.00 C 366.12 552.07 367.97 539.03 372.50 526.88 C 374.32 542.43 377.49 557.93 383.50 572.44 C 390.96 590.78 403.02 607.13 417.93 620.11 C 425.90 627.32 434.89 633.24 443.83 639.15 C 435.56 648.13 426.36 656.29 416.77 663.85 C 412.16 661.48 408.48 657.74 404.63 654.36 C 379.98 631.73 365.53 598.47 365.99 565.00 Z" />
<path fill="#ffe809" opacity="1.00" d=" M 527.38 562.12 C 533.76 560.25 540.49 560.17 547.09 560.29 C 554.41 560.65 561.85 561.84 568.51 565.03 C 567.45 585.29 563.62 605.62 555.15 624.15 C 544.88 646.94 527.27 665.72 507.00 680.01 C 502.96 682.63 499.26 686.75 494.09 686.70 C 484.76 686.89 475.31 686.93 466.14 684.90 C 478.21 675.15 490.19 665.08 499.79 652.80 C 509.11 641.06 515.94 627.42 519.98 613.00 C 524.70 596.45 526.34 579.24 527.38 562.12 Z" />
<path fill="#ffe809" opacity="1.00" d=" M 484.77 570.68 C 497.61 565.54 511.32 562.72 525.06 561.43 C 526.37 581.68 522.25 602.27 513.55 620.61 C 501.71 645.51 481.71 665.59 459.53 681.51 C 457.21 683.59 454.15 682.25 451.59 681.51 C 441.90 678.28 432.29 674.39 423.80 668.65 C 425.05 667.27 426.38 665.95 427.93 664.90 C 442.15 655.13 455.21 643.32 464.94 628.97 C 473.55 616.42 479.19 601.99 482.19 587.11 C 483.35 581.68 483.77 576.13 484.77 570.68 Z" />
<path fill="#ffe809" opacity="1.00" d=" M 571.99 566.75 C 579.01 567.82 585.67 570.38 592.41 572.53 C 597.34 574.23 602.41 575.65 607.05 578.11 C 604.00 612.24 585.33 644.55 557.39 664.37 C 543.73 673.95 528.17 681.35 511.65 684.13 C 514.83 680.78 518.64 678.14 522.16 675.18 C 533.39 665.69 543.48 654.75 551.28 642.25 C 562.03 625.45 568.07 605.97 570.47 586.25 C 571.35 579.78 571.42 573.25 571.99 566.75 Z" />
</g>
<g id="#b71525ff">
<path fill="#b71525" opacity="1.00" d=" M 173.92 42.91 C 181.38 36.24 191.03 31.66 201.06 30.93 C 201.60 31.04 202.67 31.25 203.21 31.36 C 195.08 33.38 186.32 34.90 179.92 40.79 C 182.65 42.37 185.39 44.48 188.68 44.55 C 192.85 41.82 195.87 37.54 200.42 35.31 C 205.15 32.63 210.73 32.59 216.01 32.82 C 214.24 32.26 212.48 31.66 210.72 31.05 C 212.18 30.91 213.65 30.79 215.12 30.71 C 221.20 31.41 227.11 33.57 232.25 36.89 C 223.71 36.75 214.74 36.81 207.05 41.08 C 199.12 44.98 193.41 53.06 192.97 61.97 C 191.86 75.87 203.29 87.17 202.03 101.09 C 199.82 97.98 197.83 94.60 194.76 92.25 C 186.91 86.15 176.65 84.33 168.81 78.23 C 164.48 74.94 161.85 69.51 162.30 64.05 C 162.85 55.71 168.08 48.51 173.92 42.91 Z" />
<path fill="#b71525" opacity="1.00" d=" M 131.67 102.42 C 126.07 77.02 137.43 48.52 159.75 34.84 C 155.63 40.73 151.28 46.83 150.02 54.08 C 147.95 63.94 151.55 74.38 158.23 81.73 C 163.30 87.19 170.31 90.21 177.15 92.79 C 182.26 94.66 187.62 96.51 191.59 100.41 C 200.73 108.96 202.89 124.25 195.67 134.65 C 190.53 142.33 181.27 147.14 171.99 146.50 C 164.78 146.40 158.31 142.58 153.06 137.93 C 142.32 128.83 134.46 116.26 131.67 102.42 M 139.63 59.57 C 137.81 64.21 142.82 67.16 145.62 69.93 C 145.10 66.05 144.21 62.09 145.03 58.18 C 145.93 53.06 148.86 48.68 151.05 44.06 C 146.16 48.28 142.08 53.58 139.63 59.57 Z" />
<path fill="#b71525" opacity="1.00" d=" M 366.37 42.42 C 375.37 40.29 385.37 41.52 393.06 46.89 C 404.89 54.55 411.24 68.31 413.14 81.91 C 415.26 97.69 413.66 114.60 405.49 128.55 C 399.33 138.94 388.47 147.40 375.99 147.54 C 364.33 148.24 353.33 141.59 346.66 132.34 C 337.17 119.42 334.61 102.66 335.84 86.99 C 336.80 74.07 341.16 60.84 350.60 51.61 C 355.00 47.34 360.43 44.05 366.37 42.42 M 372.31 67.17 C 368.75 68.79 367.31 72.79 366.21 76.25 C 363.93 84.87 364.01 93.91 364.49 102.74 C 365.08 108.46 365.76 114.76 369.68 119.28 C 372.52 122.50 378.08 122.00 380.50 118.53 C 384.24 113.16 384.65 106.31 385.15 99.99 C 385.50 90.92 385.27 81.53 382.08 72.93 C 380.78 69.03 376.65 65.06 372.31 67.17 Z" />
<path fill="#b71525" opacity="1.00" d=" M 511.38 42.47 C 520.41 40.30 530.46 41.46 538.23 46.76 C 549.78 54.14 556.14 67.41 558.30 80.59 C 560.38 94.48 559.47 109.07 554.08 122.15 C 549.98 131.85 542.76 140.62 532.97 144.94 C 522.15 149.74 508.78 147.87 499.63 140.37 C 487.75 131.03 482.26 115.74 481.09 101.08 C 479.90 85.71 482.23 69.20 491.56 56.51 C 496.46 49.92 503.41 44.67 511.38 42.47 M 517.36 67.22 C 511.78 70.70 511.03 78.04 510.02 83.95 C 509.01 93.20 508.97 102.72 511.25 111.79 C 512.35 115.67 514.25 120.29 518.58 121.37 C 522.57 122.37 526.18 119.12 527.55 115.61 C 530.38 108.79 530.70 101.25 530.74 93.96 C 530.51 86.31 530.11 78.31 526.66 71.34 C 525.12 67.95 520.98 65.22 517.36 67.22 Z" />
<path fill="#b71525" opacity="1.00" d=" M 578.72 47.74 C 589.75 38.99 605.75 40.10 617.72 46.30 C 618.21 55.54 617.85 64.79 617.93 74.04 C 613.36 70.20 608.36 65.84 602.01 65.96 C 598.21 65.66 594.09 68.66 594.43 72.71 C 595.01 76.97 598.78 79.67 601.96 82.07 C 607.89 86.30 613.91 91.02 617.14 97.75 C 624.50 113.50 618.54 134.50 603.30 143.25 C 592.46 149.57 578.80 147.87 567.78 142.89 C 567.33 133.15 567.42 123.36 567.77 113.61 C 573.56 116.82 578.85 122.30 585.94 121.94 C 591.22 121.72 594.25 114.88 591.34 110.64 C 587.99 105.71 582.70 102.61 578.47 98.51 C 573.07 93.58 568.44 87.29 567.18 79.94 C 565.25 68.23 569.01 55.09 578.72 47.74 Z" />
<path fill="#b71525" opacity="1.00" d=" M 283.68 43.14 C 292.73 43.02 301.80 42.99 310.85 43.15 C 311.16 69.00 310.69 94.86 311.17 120.70 C 318.30 121.03 325.47 120.20 332.58 121.12 C 332.58 129.04 332.58 136.96 332.58 144.89 C 326.41 145.67 320.19 145.18 314.00 145.27 C 303.87 145.16 293.74 145.53 283.63 145.11 C 283.51 143.41 283.37 141.70 283.35 140.00 C 283.40 113.33 283.38 86.66 283.41 60.00 C 283.45 54.38 283.15 48.75 283.68 43.14 Z" />
<path fill="#b71525" opacity="1.00" d=" M 418.15 43.15 C 437.50 43.03 456.85 43.01 476.20 43.16 C 476.61 51.46 476.60 59.79 476.21 68.09 C 471.19 68.40 466.16 68.15 461.14 68.26 C 460.61 93.87 461.31 119.49 460.90 145.10 C 451.86 145.43 442.80 145.41 433.76 145.11 C 433.24 119.53 433.73 93.93 433.57 68.35 C 428.43 68.10 423.29 68.42 418.16 68.07 C 417.96 59.77 418.00 51.45 418.15 43.15 Z" />
<path fill="#ffe809" opacity="1.00" d=" M 130.92 494.02 C 133.90 492.89 136.95 491.95 140.07 491.26 C 137.02 493.89 134.41 496.98 131.92 500.13 C 140.92 505.23 150.68 508.82 160.11 513.04 C 154.24 516.14 147.86 518.07 141.80 520.74 C 132.08 524.89 122.45 529.27 112.89 533.81 C 107.34 536.38 102.16 539.77 96.36 541.79 C 91.84 532.44 88.07 522.66 85.44 512.62 C 100.42 505.98 115.57 499.74 130.92 494.02 Z" />
<path fill="#ffe809" opacity="1.00" d=" M 191.74 537.82 C 196.02 535.60 200.36 533.41 205.05 532.16 C 202.49 534.43 200.33 537.11 198.24 539.80 C 207.32 544.14 216.54 548.23 225.90 551.97 C 220.06 555.65 213.64 558.25 207.58 561.51 C 183.24 574.35 159.62 588.57 137.15 604.46 C 130.23 596.94 124.00 588.73 118.44 580.17 C 141.69 564.15 166.40 550.27 191.74 537.82 Z" />
<path fill="#ffe809" opacity="1.00" d=" M 291.41 550.48 C 292.42 550.10 293.45 549.19 294.59 549.52 C 303.79 553.20 312.48 558.05 321.83 561.36 C 312.70 567.82 303.00 573.44 293.75 579.74 C 264.40 599.57 235.95 620.86 210.02 645.02 C 205.03 650.00 199.79 654.76 195.38 660.29 C 189.90 656.64 185.14 652.07 180.11 647.85 C 175.60 643.70 170.58 640.07 166.51 635.46 C 194.61 611.36 224.42 589.14 256.37 570.39 C 267.85 563.40 279.64 556.95 291.41 550.48 Z" />
<path fill="#ffe809" opacity="1.00" d=" M 331.11 589.17 C 338.97 583.41 346.35 576.95 354.71 571.92 C 355.68 579.90 356.10 587.97 358.11 595.79 C 361.96 611.16 367.45 626.35 376.38 639.56 C 392.99 665.64 420.21 683.80 449.55 692.61 C 461.97 696.66 475.00 698.03 487.94 699.24 C 471.58 709.94 454.66 719.77 437.92 729.85 C 430.23 734.19 422.48 738.42 414.70 742.58 C 410.84 744.49 406.32 747.17 402.00 744.95 C 348.85 720.91 295.36 697.61 242.18 673.62 C 244.58 669.66 247.83 666.34 250.98 662.99 C 275.20 635.84 302.53 611.63 331.11 589.17 Z" />
</g>
</svg>
