<?xml version="1.0" encoding="UTF-8" ?>
<!DOCTYPE svg PUBLIC "-//W3C//DTD SVG 1.1//EN" "http://www.w3.org/Graphics/SVG/1.1/DTD/svg11.dtd">
<svg width="754pt" height="802pt" viewBox="0 0 754 802" version="1.1" xmlns="http://www.w3.org/2000/svg">
<g id="#231f20ff">
<path fill="#231f20" opacity="1.00" d=" M 58.82 12.74 C 63.27 4.01 73.82 1.07 82.94 1.00 C 278.97 1.00 475.00 1.00 671.03 1.00 C 680.21 1.09 690.95 3.54 695.32 12.58 C 697.68 21.88 696.94 31.52 697.01 41.00 C 697.03 82.42 696.98 123.83 697.03 165.25 C 691.85 165.26 686.67 165.28 681.50 165.17 C 681.31 120.45 680.70 75.73 680.45 31.01 C 680.24 26.33 679.72 21.20 676.45 17.57 C 673.35 14.14 668.47 13.32 664.07 13.25 C 472.75 13.25 281.43 13.25 90.11 13.25 C 85.89 13.35 81.26 14.03 78.16 17.16 C 74.76 20.46 74.01 25.45 73.80 29.97 C 73.36 75.03 72.99 120.09 72.64 165.16 C 67.47 165.29 62.30 165.26 57.12 165.24 C 57.48 123.83 57.17 82.41 57.28 41.00 C 57.45 31.58 56.42 21.97 58.82 12.74 Z" />
<path fill="#231f20" opacity="1.00" d=" M 31.05 184.07 C 33.58 180.70 37.73 178.55 41.95 178.51 C 265.31 178.49 488.68 178.51 712.04 178.50 C 718.02 178.50 724.32 182.86 725.09 189.04 C 725.85 214.33 725.16 239.66 725.76 264.96 C 725.57 294.98 726.19 324.98 725.99 355.00 C 726.63 375.98 725.86 396.98 726.50 417.96 C 726.49 437.14 726.43 456.32 726.74 475.50 C 716.43 472.71 706.20 469.65 695.87 467.00 C 695.14 470.88 694.39 474.76 693.80 478.67 C 685.65 522.70 668.93 565.43 643.23 602.22 C 625.52 627.69 603.55 650.03 579.27 669.27 C 551.16 691.55 520.18 709.92 488.47 726.55 C 452.93 745.22 416.34 761.78 380.25 779.32 C 378.24 780.45 375.89 780.38 373.89 779.29 C 327.84 756.92 280.92 736.14 236.52 710.54 C 205.05 692.39 174.81 671.66 148.68 646.31 C 126.12 624.61 106.92 599.40 92.31 571.69 C 77.02 542.56 66.30 511.01 60.38 478.66 C 59.78 474.76 59.02 470.89 58.38 467.00 C 48.05 469.65 37.82 472.64 27.56 475.50 C 27.41 452.00 27.97 428.50 27.74 405.00 C 28.37 383.67 27.62 362.33 28.26 341.00 C 28.34 323.68 28.02 306.36 28.51 289.05 C 28.31 258.36 28.95 227.69 28.73 197.01 C 28.85 192.66 28.35 187.80 31.05 184.07 M 165.04 214.03 C 157.91 224.69 155.96 238.75 160.40 250.83 C 162.58 256.64 166.54 262.16 172.38 264.67 C 177.16 266.81 182.62 266.16 187.52 264.81 C 180.95 259.29 175.14 252.28 173.65 243.57 C 170.08 227.97 180.34 211.04 195.58 206.50 C 210.20 201.49 227.65 208.91 234.22 222.89 C 237.36 228.57 236.94 235.23 238.64 241.33 C 239.76 241.58 240.85 241.96 241.89 242.47 C 244.03 227.03 236.66 210.93 223.73 202.30 C 215.68 196.76 205.64 194.33 195.95 195.27 C 183.53 196.46 171.86 203.59 165.04 214.03 M 308.10 210.64 C 310.38 216.38 315.05 221.24 321.11 222.87 C 330.74 225.40 340.80 224.12 350.64 224.60 C 338.78 251.47 326.63 278.29 317.23 306.15 C 315.21 312.07 313.59 319.13 317.24 324.77 C 321.68 331.31 329.68 334.02 337.04 335.72 C 344.97 304.09 355.69 273.24 366.60 242.54 C 368.76 236.78 370.80 230.96 373.36 225.37 C 373.85 223.83 375.76 224.39 376.95 224.23 C 388.77 224.25 400.59 223.78 412.37 222.87 C 411.45 219.08 410.23 215.29 407.91 212.11 C 406.43 210.11 404.87 207.52 402.03 207.65 C 387.74 206.24 373.36 206.45 359.03 206.55 C 342.02 207.18 324.86 207.47 308.10 210.64 M 571.57 216.61 C 558.91 227.42 551.88 242.90 544.62 257.50 C 538.69 257.91 532.75 258.11 526.83 258.61 C 529.84 263.37 534.29 267.20 539.88 268.50 C 533.86 284.20 528.59 300.33 526.40 317.06 C 524.83 328.70 524.80 341.18 530.17 351.92 C 533.20 358.18 538.39 363.28 544.64 366.33 C 542.78 352.12 543.68 337.72 545.75 323.60 C 548.66 305.37 552.68 287.20 559.27 269.92 C 570.24 269.68 581.32 269.35 592.05 266.81 C 590.47 263.27 589.08 259.19 585.80 256.89 C 579.21 255.88 572.50 256.32 565.86 256.33 C 575.17 239.72 590.23 225.42 609.15 220.90 C 605.98 213.66 598.82 208.44 591.01 207.50 C 583.55 207.44 577.04 211.98 571.57 216.61 M 627.34 212.11 C 616.69 233.60 607.33 255.85 600.85 278.97 C 597.63 291.54 594.65 304.92 598.14 317.76 C 600.55 326.76 607.12 334.50 615.75 338.11 C 614.30 314.39 617.58 290.36 626.02 268.10 C 629.83 257.21 633.76 246.32 639.00 236.02 C 641.07 231.97 643.32 227.18 641.23 222.66 C 638.53 217.22 632.81 214.15 627.34 212.11 M 114.38 278.17 C 110.53 289.16 111.56 301.72 117.19 311.92 C 124.08 324.89 138.23 333.66 152.95 333.85 C 161.77 334.24 170.45 331.44 177.82 326.70 C 178.48 317.13 180.39 307.74 183.17 298.58 C 179.82 301.76 177.28 305.74 173.66 308.65 C 163.56 316.89 148.15 317.93 137.13 310.90 C 131.26 307.00 126.54 301.22 124.50 294.42 C 120.86 283.70 124.16 271.11 132.41 263.41 C 136.59 259.14 142.14 256.73 147.57 254.51 C 149.64 253.90 150.53 251.95 151.18 250.09 C 134.75 250.85 119.49 262.55 114.38 278.17 M 386.11 249.86 C 380.18 263.53 376.32 278.10 374.57 292.89 C 373.72 300.46 373.31 308.45 376.37 315.61 C 379.39 323.31 385.98 329.21 393.59 332.22 C 394.76 316.48 397.00 300.09 405.32 286.35 C 413.60 272.78 428.65 264.32 444.28 262.64 C 442.68 258.34 439.52 254.26 434.82 253.25 C 427.50 251.30 420.02 254.74 414.98 259.98 C 407.11 267.47 402.26 277.34 396.15 286.17 C 396.79 279.72 398.44 273.42 400.26 267.21 C 401.11 263.74 401.84 259.55 399.44 256.52 C 396.20 252.47 390.95 250.99 386.11 249.86 M 237.58 252.52 C 229.97 254.90 222.30 259.03 217.79 265.82 C 221.33 267.04 224.58 265.37 227.36 263.30 C 235.77 257.36 247.25 256.26 256.64 260.46 C 265.40 264.29 272.07 272.46 274.13 281.79 C 276.07 290.38 274.08 299.73 268.71 306.72 C 260.86 317.32 245.68 321.71 233.45 316.60 C 223.56 312.89 216.69 303.68 214.28 293.59 C 212.32 296.32 211.07 299.56 211.00 302.95 C 210.28 311.91 215.52 320.26 222.23 325.77 C 238.54 338.99 264.75 337.53 279.32 322.33 C 288.19 313.45 292.69 300.43 291.13 287.97 C 289.72 275.28 282.09 263.48 271.17 256.90 C 261.23 250.84 248.74 249.22 237.58 252.52 M 483.61 252.70 C 461.12 257.40 442.82 276.09 437.01 298.09 C 434.63 307.96 437.36 319.12 444.83 326.17 C 452.03 333.02 462.40 335.37 472.08 334.97 C 483.39 334.33 494.50 330.31 503.68 323.68 C 508.38 320.40 511.01 314.67 510.20 308.95 C 500.60 314.74 490.41 320.49 478.99 321.38 C 473.03 321.94 466.23 320.58 462.50 315.49 C 458.85 310.86 458.80 304.72 458.99 299.11 C 472.00 298.19 485.37 297.00 497.36 291.44 C 503.20 288.73 509.01 285.04 512.32 279.34 C 516.27 272.40 513.96 263.08 508.01 258.02 C 501.43 252.28 491.95 250.98 483.61 252.70 M 189.04 320.22 C 187.63 327.37 186.04 335.88 190.97 342.07 C 195.47 346.50 202.09 347.59 208.07 348.62 C 205.95 340.67 203.75 332.74 202.58 324.59 C 200.25 310.90 201.47 296.91 203.96 283.34 C 196.39 294.34 192.12 307.32 189.04 320.22 M 398.84 374.20 C 399.32 376.23 399.79 378.28 400.25 380.33 C 405.79 379.00 411.26 377.32 416.63 375.38 C 416.00 373.37 415.34 371.37 414.78 369.34 C 409.43 370.84 404.13 372.52 398.84 374.20 M 214.23 383.23 C 210.73 386.45 210.43 391.56 210.47 396.01 C 210.52 400.52 210.11 405.46 212.67 409.42 C 215.07 413.16 219.76 414.58 224.00 414.51 C 234.35 414.47 244.70 414.56 255.05 414.47 C 258.12 414.63 261.15 412.23 261.15 409.05 C 261.31 405.41 261.49 401.72 260.98 398.10 C 260.43 394.86 256.95 393.52 254.02 393.56 C 247.70 393.50 241.35 393.30 235.05 393.68 C 232.10 393.68 231.67 397.19 232.59 399.32 C 233.42 400.96 235.43 400.64 236.96 400.76 C 242.56 400.78 248.15 400.70 253.74 400.79 C 253.74 402.99 253.76 405.20 253.79 407.41 C 244.52 407.59 235.25 407.47 225.98 407.50 C 223.08 407.55 219.46 406.75 218.47 403.61 C 217.61 400.13 218.00 396.46 218.07 392.91 C 218.04 389.74 220.75 387.04 223.91 387.07 C 235.26 386.83 246.62 387.16 257.97 386.94 C 262.46 387.38 262.35 379.38 257.96 379.81 C 247.65 379.63 237.33 379.82 227.01 379.73 C 222.58 379.71 217.63 380.01 214.23 383.23 M 268.41 380.30 C 266.96 380.79 267.16 382.72 267.01 383.94 C 267.00 392.95 266.95 401.97 267.03 410.98 C 266.88 412.71 268.04 414.71 270.01 414.46 C 282.01 414.52 294.02 414.56 306.03 414.43 C 311.69 414.38 317.00 410.09 317.46 404.30 C 317.86 398.92 318.24 393.35 316.99 388.06 C 315.62 382.81 310.18 379.95 305.05 379.84 C 294.70 379.60 284.33 379.85 273.97 379.72 C 272.12 379.79 270.16 379.56 268.41 380.30 M 329.69 383.93 C 327.78 391.95 326.01 400.01 324.09 408.03 C 323.69 409.93 322.99 412.06 324.26 413.81 C 326.19 414.98 329.61 415.01 330.49 412.49 C 331.76 408.68 332.18 404.66 333.09 400.76 C 343.41 400.74 353.72 400.73 364.04 400.77 C 365.22 404.69 365.84 408.80 367.43 412.59 C 368.81 415.84 375.13 415.02 374.16 410.96 C 372.11 401.43 369.63 391.98 367.36 382.50 C 366.97 380.02 364.09 379.65 362.06 379.74 C 352.71 379.80 343.35 379.65 334.00 379.81 C 331.61 379.61 330.06 381.81 329.69 383.93 M 380.11 382.15 C 379.86 391.75 380.03 401.37 380.03 410.98 C 379.20 415.51 387.39 415.99 387.41 411.56 C 387.69 404.58 387.34 397.59 387.57 390.60 C 398.24 397.15 408.74 403.96 419.33 410.63 C 422.30 412.35 425.20 415.18 428.93 414.48 C 431.34 413.33 430.59 410.20 430.78 408.05 C 430.50 398.91 431.23 389.73 430.35 380.62 C 428.02 379.47 424.13 379.16 423.39 382.37 C 422.98 389.42 423.47 396.50 423.17 403.56 C 410.56 395.95 398.06 388.14 385.54 380.39 C 383.69 379.23 380.23 379.40 380.11 382.15 M 438.01 383.96 C 436.04 387.17 436.12 391.29 437.05 394.84 C 438.04 398.73 442.22 400.69 445.96 400.72 C 456.29 400.91 466.64 400.53 476.97 400.87 C 480.91 400.95 480.44 407.64 476.60 407.42 C 464.08 407.71 451.55 407.27 439.04 407.61 C 435.56 408.00 436.09 412.47 437.88 414.46 C 450.93 414.55 463.98 414.48 477.03 414.50 C 480.71 414.63 484.77 412.95 486.21 409.34 C 487.58 405.75 487.62 401.48 485.89 398.01 C 484.25 394.77 480.37 393.71 477.01 393.60 C 466.83 393.28 456.63 393.71 446.46 393.41 C 442.73 393.32 443.26 386.52 447.02 387.04 C 459.32 386.86 471.64 387.17 483.95 386.91 C 487.38 386.99 486.86 382.82 486.47 380.54 C 483.09 379.42 479.51 379.72 476.02 379.77 C 466.32 380.27 456.60 379.82 446.89 380.05 C 443.59 380.13 439.93 381.03 438.01 383.96 M 493.03 383.02 C 493.00 392.64 492.91 402.28 493.07 411.90 C 493.11 415.51 500.19 415.61 500.17 411.96 C 500.39 408.48 500.20 404.98 500.25 401.50 C 511.39 404.90 522.35 408.88 533.47 412.39 C 535.93 413.10 538.31 414.37 540.93 414.37 C 543.81 413.56 544.95 408.39 541.34 407.72 C 530.25 404.07 519.02 400.84 507.94 397.13 C 519.18 392.91 530.88 390.02 542.20 386.03 C 545.64 384.46 542.28 378.84 539.18 379.87 C 526.13 384.01 513.27 388.71 500.25 392.94 C 500.11 389.05 500.61 385.10 499.95 381.25 C 498.35 378.58 492.59 379.44 493.03 383.02 M 388.05 441.68 C 342.82 445.22 297.71 450.95 253.25 460.05 C 247.51 460.41 241.97 462.05 236.37 463.21 C 184.53 474.60 133.64 490.67 85.21 512.49 C 87.61 522.82 91.81 532.67 96.23 542.28 C 101.67 540.37 106.51 537.18 111.71 534.75 C 157.67 512.24 206.45 495.99 255.85 482.90 C 257.47 482.42 258.99 481.68 260.49 480.90 C 265.62 480.32 270.51 478.47 275.55 477.40 C 323.35 465.80 371.74 456.40 420.50 449.86 C 418.42 452.04 416.13 454.00 414.01 456.14 C 419.62 452.99 425.01 449.41 430.90 446.77 C 437.73 443.43 444.98 441.13 452.12 438.57 C 430.73 438.63 409.38 440.22 388.05 441.68 M 437.40 455.10 C 438.95 467.42 441.71 479.59 445.07 491.54 C 457.39 485.00 470.19 479.22 483.72 475.71 C 503.46 470.31 524.49 469.94 544.43 474.53 C 555.81 476.90 566.60 481.29 577.42 485.42 C 556.00 460.10 523.09 445.06 490.00 444.49 C 471.94 443.96 453.92 447.88 437.40 455.10 M 400.22 481.43 C 402.80 510.55 410.57 540.10 428.04 563.99 C 439.32 579.62 454.50 592.35 471.64 601.10 C 477.39 588.41 481.63 575.01 483.85 561.25 C 468.83 550.36 455.20 537.10 446.17 520.74 C 435.49 502.10 431.52 480.56 429.83 459.39 C 418.64 464.65 408.81 472.61 400.22 481.43 M 356.17 479.23 C 342.51 483.11 328.71 486.54 315.29 491.17 C 311.74 490.79 308.25 492.88 304.81 493.72 C 253.46 509.69 203.05 529.49 156.30 556.25 C 143.29 563.76 130.30 571.37 118.07 580.11 C 123.77 588.79 130.07 597.12 137.05 604.81 C 194.00 564.80 257.61 535.41 322.33 510.39 C 328.34 507.94 334.62 506.15 340.40 503.17 C 352.70 498.82 364.97 494.36 377.40 490.36 C 380.40 489.71 381.86 486.82 383.64 484.64 C 388.13 478.55 393.63 473.34 399.00 468.06 C 384.67 471.57 370.41 475.39 356.17 479.23 M 445.53 495.14 C 447.00 509.17 454.40 521.80 463.24 532.50 C 486.68 521.08 511.40 509.78 538.00 509.73 C 559.65 509.14 580.51 516.17 600.39 524.02 C 597.63 515.86 593.69 508.14 589.19 500.80 C 587.78 498.63 586.49 496.13 584.02 495.00 C 561.52 483.54 536.51 475.78 511.03 476.77 C 488.05 477.34 465.91 484.97 445.53 495.14 M 379.65 509.65 C 378.62 511.80 377.09 513.96 377.36 516.47 C 378.33 533.85 381.16 551.28 387.39 567.60 C 398.18 597.00 420.95 620.48 447.11 636.95 C 458.17 628.28 465.90 615.81 470.06 602.49 C 447.12 587.68 424.35 570.40 411.08 545.94 C 401.25 528.21 397.17 508.09 394.17 488.24 C 388.40 494.69 383.75 502.06 379.65 509.65 M 464.14 534.40 C 471.81 546.03 481.57 556.18 492.20 565.14 C 499.44 562.35 506.53 559.13 514.06 557.16 C 532.78 551.67 552.91 551.30 571.82 556.07 C 584.27 558.91 595.87 564.34 607.58 569.24 C 608.07 556.94 606.49 544.57 603.23 532.71 C 578.02 520.72 550.04 513.03 521.93 515.06 C 501.41 516.41 481.50 523.49 464.14 534.40 M 342.58 525.46 C 279.20 553.93 218.19 589.19 166.26 635.72 C 175.58 644.44 185.16 652.97 195.40 660.60 C 200.83 653.36 207.85 647.56 214.38 641.36 C 257.30 602.64 305.77 570.58 355.69 541.67 C 358.75 540.20 358.88 536.47 359.81 533.64 C 361.25 527.51 363.99 521.80 365.48 515.70 C 357.61 518.35 350.21 522.19 342.58 525.46 M 366.82 580.10 C 370.65 613.40 389.10 644.96 416.74 664.04 C 426.24 656.22 435.53 648.09 443.97 639.12 C 422.04 625.76 402.04 608.13 389.67 585.33 C 379.65 567.38 374.79 547.07 372.46 526.78 C 366.44 543.78 364.77 562.22 366.82 580.10 M 527.31 561.96 C 525.85 589.79 522.16 618.85 506.84 642.83 C 496.37 659.58 481.40 672.84 465.99 684.92 C 475.23 686.78 484.70 686.98 494.09 686.70 C 495.66 686.58 497.36 686.55 498.73 685.65 C 521.73 670.92 542.39 651.24 554.14 626.25 C 563.40 607.14 567.40 585.91 568.49 564.83 C 555.50 559.56 540.93 559.12 527.31 561.96 M 484.67 570.60 C 482.89 588.56 478.35 606.51 469.18 622.20 C 459.36 639.38 444.68 653.28 428.55 664.52 C 426.76 665.71 425.10 667.07 423.58 668.59 C 433.86 675.23 445.34 679.88 457.13 683.08 C 479.18 667.88 499.04 648.54 511.55 624.62 C 521.65 605.31 526.34 583.23 525.19 561.49 C 511.35 562.57 497.67 565.70 484.67 570.60 M 571.91 566.48 C 571.39 594.06 565.07 622.24 549.33 645.27 C 539.21 660.82 525.15 673.18 510.67 684.55 C 529.12 681.04 546.61 672.87 561.40 661.35 C 587.24 641.38 604.09 610.43 607.13 577.95 C 595.69 573.29 583.90 569.44 571.91 566.48 M 345.20 578.18 C 303.05 609.45 263.68 644.96 230.98 686.14 C 240.64 693.02 251.05 698.80 261.33 704.70 C 294.33 723.36 329.12 738.48 363.38 754.59 C 367.85 756.52 372.43 760.24 377.56 758.43 C 394.50 753.31 410.46 745.39 425.91 736.85 C 442.50 727.69 458.69 717.80 474.83 707.86 C 479.38 704.99 484.20 702.50 488.37 699.06 C 481.40 698.02 474.31 697.99 467.39 696.60 C 429.40 690.13 393.13 668.28 373.51 634.54 C 362.40 615.43 356.30 593.56 354.89 571.55 C 351.41 573.37 348.32 575.81 345.20 578.18 Z" />
<path fill="#231f20" opacity="1.00" d=" M 478.44 265.44 C 483.14 261.63 491.81 260.86 495.20 266.72 C 498.31 273.81 494.40 282.14 488.57 286.57 C 480.33 292.52 469.93 294.76 459.90 294.81 C 462.68 283.40 469.18 272.72 478.44 265.44 Z" />
<path fill="#231f20" opacity="1.00" d=" M 274.52 387.00 C 284.37 387.04 294.23 386.92 304.08 387.05 C 307.35 386.90 310.26 389.67 310.21 392.96 C 310.23 396.53 310.64 400.21 309.75 403.71 C 308.69 406.89 304.94 407.57 302.02 407.50 C 292.85 407.50 283.69 407.52 274.53 407.47 C 274.48 400.65 274.49 393.83 274.52 387.00 Z" />
<path fill="#231f20" opacity="1.00" d=" M 336.02 387.02 C 344.50 387.04 352.99 386.88 361.47 387.11 C 361.95 389.23 362.49 391.35 363.03 393.48 C 353.50 393.50 343.96 393.56 334.42 393.44 C 334.91 391.29 335.49 389.16 336.02 387.02 Z" />
</g>
<g id="#757364ff">
<path fill="#757364" opacity="1.00" d=" M 48.99 25.01 C 52.23 20.89 55.38 16.69 58.82 12.74 C 56.42 21.97 57.45 31.58 57.28 41.00 C 57.17 82.41 57.48 123.83 57.12 165.24 C 49.78 165.37 42.42 164.99 35.09 165.38 C 23.22 166.53 14.69 178.41 15.01 189.92 C 14.98 251.61 15.01 313.31 15.00 375.00 C 14.86 415.40 15.35 455.82 14.60 496.22 C 30.00 490.73 45.02 484.24 60.38 478.66 C 66.30 511.01 77.02 542.56 92.31 571.69 C 106.92 599.40 126.12 624.61 148.68 646.31 C 174.81 671.66 205.05 692.39 236.52 710.54 C 280.92 736.14 327.84 756.92 373.89 779.29 C 375.89 780.38 378.24 780.45 380.25 779.32 C 416.34 761.78 452.93 745.22 488.47 726.55 C 520.18 709.92 551.16 691.55 579.27 669.27 C 603.55 650.03 625.52 627.69 643.23 602.22 C 668.93 565.43 685.65 522.70 693.80 478.67 C 709.17 484.24 724.18 490.74 739.58 496.21 C 738.91 449.48 739.41 402.74 739.26 356.00 C 739.22 300.66 739.33 245.31 739.20 189.97 C 739.42 178.67 731.37 167.05 719.78 165.46 C 712.21 164.91 704.61 165.40 697.03 165.25 C 696.98 123.83 697.03 82.42 697.01 41.00 C 696.94 31.52 697.68 21.88 695.32 12.58 C 698.77 16.55 701.89 20.78 705.13 24.92 C 707.81 28.31 708.15 32.83 708.25 36.99 C 708.25 66.99 708.24 97.00 708.25 127.01 C 708.63 136.31 708.49 145.62 708.46 154.92 C 716.52 155.49 725.13 153.62 732.67 157.35 C 742.23 162.04 750.65 170.98 751.91 181.90 C 752.19 193.94 751.82 205.99 752.07 218.03 C 752.78 225.00 752.42 232.01 752.50 239.00 C 752.50 321.66 752.50 404.33 752.50 487.00 C 752.38 492.68 753.15 498.63 750.94 504.04 C 749.68 507.37 746.55 509.86 743.01 510.30 C 737.97 511.03 732.98 509.41 728.28 507.75 C 720.24 504.90 712.24 501.93 704.16 499.18 C 697.72 519.52 690.65 539.67 682.22 559.27 C 675.80 574.29 668.77 589.12 659.70 602.75 C 638.42 635.59 610.72 663.94 579.88 687.88 C 549.71 711.41 516.66 730.94 482.88 748.78 C 448.11 766.98 412.55 783.62 377.02 800.29 C 340.01 782.79 302.87 765.50 266.68 746.32 C 232.58 728.15 199.34 708.04 169.15 683.82 C 140.86 661.21 115.51 634.71 95.55 604.42 C 85.15 588.96 77.26 572.00 70.09 554.86 C 62.41 536.65 56.07 517.93 49.93 499.16 C 40.61 502.39 31.40 505.92 22.05 509.04 C 17.06 510.47 11.06 511.68 6.51 508.44 C 2.79 505.56 1.84 500.47 1.75 496.03 C 1.75 405.69 1.75 315.34 1.75 225.00 C 2.78 210.68 1.98 196.31 2.30 181.97 C 2.71 175.66 6.24 169.98 10.43 165.43 C 16.03 159.59 23.63 154.97 31.94 154.99 C 36.55 154.96 41.16 155.05 45.76 154.96 C 45.58 116.30 46.23 77.66 45.98 39.00 C 45.93 34.24 45.92 28.96 48.99 25.01 Z" />
<path fill="#b71525" opacity="1.00" d=" M 200.01 30.88 C 205.25 30.42 210.61 30.05 215.83 30.67 C 214.14 30.70 212.46 30.84 210.77 30.92 C 212.54 31.63 214.32 32.33 216.10 33.02 C 210.84 33.16 205.25 32.78 200.49 35.46 C 193.88 38.61 189.66 44.78 184.86 50.04 C 181.39 48.73 178.10 46.99 175.10 44.81 C 178.41 41.47 182.10 38.46 186.35 36.39 C 191.66 33.56 197.69 32.71 203.38 30.95 C 202.54 30.93 200.85 30.90 200.01 30.88 Z" />
<path fill="#b71525" opacity="1.00" d=" M 139.07 60.82 C 141.57 54.22 145.75 48.19 151.21 43.70 C 149.32 48.53 146.06 52.93 145.49 58.21 C 145.19 60.85 145.01 63.51 144.72 66.16 C 142.67 64.56 140.81 62.75 139.07 60.82 Z" />
<path fill="#ffe809" opacity="1.00" d=" M 236.37 463.21 C 241.97 462.05 247.51 460.41 253.25 460.05 C 249.04 464.06 245.03 468.28 241.21 472.65 C 247.64 475.38 254.00 478.29 260.49 480.90 C 258.99 481.68 257.47 482.42 255.85 482.90 C 206.45 495.99 157.67 512.24 111.71 534.75 C 106.51 537.18 101.67 540.37 96.23 542.28 C 91.81 532.67 87.61 522.82 85.21 512.49 C 133.64 490.67 184.53 474.60 236.37 463.21 Z" />
<path fill="#ffe809" opacity="1.00" d=" M 304.81 493.72 C 308.25 492.88 311.74 490.79 315.29 491.17 C 323.35 495.81 332.13 498.96 340.40 503.17 C 334.62 506.15 328.34 507.94 322.33 510.39 C 257.61 535.41 194.00 564.80 137.05 604.81 C 130.07 597.12 123.77 588.79 118.07 580.11 C 130.30 571.37 143.29 563.76 156.30 556.25 C 203.05 529.49 253.46 509.69 304.81 493.72 Z" />
<path fill="#ffe809" opacity="1.00" d=" M 342.58 525.46 C 350.21 522.19 357.61 518.35 365.48 515.70 C 363.99 521.80 361.25 527.51 359.81 533.64 C 358.88 536.47 358.75 540.20 355.69 541.67 C 305.77 570.58 257.30 602.64 214.38 641.36 C 207.85 647.56 200.83 653.36 195.40 660.60 C 185.16 652.97 175.58 644.44 166.26 635.72 C 218.19 589.19 279.20 553.93 342.58 525.46 Z" />
<path fill="#ffe809" opacity="1.00" d=" M 345.20 578.18 C 348.32 575.81 351.41 573.37 354.89 571.55 C 356.30 593.56 362.40 615.43 373.51 634.54 C 393.13 668.28 429.40 690.13 467.39 696.60 C 474.31 697.99 481.40 698.02 488.37 699.06 C 484.20 702.50 479.38 704.99 474.83 707.86 C 458.69 717.80 442.50 727.69 425.91 736.85 C 410.46 745.39 394.50 753.31 377.56 758.43 C 372.43 760.24 367.85 756.52 363.38 754.59 C 329.12 738.48 294.33 723.36 261.33 704.70 C 251.05 698.80 240.64 693.02 230.98 686.14 C 263.68 644.96 303.05 609.45 345.20 578.18 Z" />
</g>
<g id="#ffffffff">
<path fill="#ffffff" opacity="1.00" d=" M 78.16 17.16 C 81.26 14.03 85.89 13.35 90.11 13.25 C 281.43 13.25 472.75 13.25 664.07 13.25 C 668.47 13.32 673.35 14.14 676.45 17.57 C 679.72 21.20 680.24 26.33 680.45 31.01 C 680.70 75.73 681.31 120.45 681.50 165.17 C 686.67 165.28 691.85 165.26 697.03 165.25 C 704.61 165.40 712.21 164.91 719.78 165.46 C 731.37 167.05 739.42 178.67 739.20 189.97 C 739.33 245.31 739.22 300.66 739.26 356.00 C 739.41 402.74 738.91 449.48 739.58 496.21 C 724.18 490.74 709.17 484.24 693.80 478.67 C 694.39 474.76 695.14 470.88 695.87 467.00 C 706.20 469.65 716.43 472.71 726.74 475.50 C 726.43 456.32 726.49 437.14 726.50 417.96 C 725.86 396.98 726.63 375.98 725.99 355.00 C 726.19 324.98 725.57 294.98 725.76 264.96 C 725.16 239.66 725.85 214.33 725.09 189.04 C 724.32 182.86 718.02 178.50 712.04 178.50 C 488.68 178.51 265.31 178.49 41.95 178.51 C 37.73 178.55 33.58 180.70 31.05 184.07 C 28.35 187.80 28.85 192.66 28.73 197.01 C 28.95 227.69 28.31 258.36 28.51 289.05 C 28.02 306.36 28.34 323.68 28.26 341.00 C 27.62 362.33 28.37 383.67 27.74 405.00 C 27.97 428.50 27.41 452.00 27.56 475.50 C 37.82 472.64 48.05 469.65 58.38 467.00 C 59.02 470.89 59.78 474.76 60.38 478.66 C 45.02 484.24 30.00 490.73 14.60 496.22 C 15.35 455.82 14.86 415.40 15.00 375.00 C 15.01 313.31 14.98 251.61 15.01 189.92 C 14.69 178.41 23.22 166.53 35.09 165.38 C 42.42 164.99 49.78 165.37 57.12 165.24 C 62.30 165.26 67.47 165.29 72.64 165.16 C 72.99 120.09 73.36 75.03 73.80 29.97 C 74.01 25.45 74.76 20.46 78.16 17.16 M 200.01 30.88 C 188.56 32.50 177.46 38.03 170.03 47.01 C 165.67 52.34 161.98 58.86 162.32 65.96 C 162.46 70.79 164.97 75.35 168.80 78.25 C 177.03 84.60 187.92 86.34 195.86 93.16 C 198.49 95.38 200.14 98.46 201.99 101.31 C 203.28 90.04 195.77 80.64 193.62 70.02 C 191.44 60.96 194.27 50.58 201.70 44.68 C 210.17 37.41 221.92 36.15 232.63 37.20 C 227.72 33.57 221.72 31.89 215.83 30.67 C 210.61 30.05 205.25 30.42 200.01 30.88 M 130.50 84.10 C 128.95 101.93 135.42 120.25 147.93 133.06 C 154.39 139.68 162.24 146.35 171.99 146.53 C 183.76 147.34 195.45 139.30 198.85 128.01 C 202.00 117.75 198.42 105.72 189.99 99.02 C 185.66 95.42 180.11 94.03 174.99 91.97 C 168.65 89.51 162.31 86.37 157.75 81.18 C 151.42 73.86 147.89 63.72 150.01 54.08 C 151.33 46.76 155.58 40.51 160.01 34.72 C 142.86 45.05 131.98 64.29 130.50 84.10 M 365.44 42.67 C 355.22 45.79 346.94 53.64 342.22 63.10 C 335.53 76.40 334.41 91.91 336.46 106.48 C 338.54 120.00 344.67 133.77 356.26 141.71 C 365.08 148.01 377.18 149.45 387.16 145.14 C 397.02 140.99 404.37 132.25 408.53 122.57 C 414.13 109.56 415.04 94.90 412.99 81.00 C 410.98 67.75 404.63 54.41 393.13 46.91 C 385.14 41.41 374.70 40.08 365.44 42.67 M 512.33 42.21 C 501.04 44.97 491.95 53.68 487.01 64.00 C 481.07 76.50 479.85 90.82 481.44 104.44 C 483.12 117.96 488.64 131.78 499.64 140.37 C 508.57 147.69 521.54 149.75 532.21 145.23 C 541.66 141.40 548.80 133.31 553.13 124.25 C 559.37 110.97 560.37 95.77 558.42 81.39 C 556.39 67.69 549.77 53.80 537.63 46.36 C 530.21 41.53 520.88 40.43 512.33 42.21 M 581.68 45.69 C 565.75 55.01 561.56 79.38 573.61 93.39 C 578.53 99.80 585.91 103.73 590.94 110.01 C 594.58 114.21 591.44 121.74 585.85 121.98 C 578.69 122.14 573.13 116.86 567.57 113.10 C 567.48 123.06 567.38 133.03 567.62 142.99 C 574.12 145.52 580.95 147.55 588.01 147.30 C 597.42 147.47 606.61 142.75 612.37 135.37 C 619.70 126.23 622.06 113.47 618.86 102.24 C 616.83 94.88 611.44 89.03 605.41 84.61 C 601.69 81.64 597.04 79.30 594.96 74.78 C 593.14 71.11 596.09 66.55 600.04 66.14 C 607.08 65.00 613.18 69.70 617.98 74.26 C 617.89 64.93 618.01 55.60 617.88 46.27 C 606.73 40.84 592.70 39.01 581.68 45.69 M 283.34 43.04 C 283.28 77.10 283.18 111.17 283.30 145.23 C 299.71 145.18 316.12 145.44 332.53 145.10 C 332.49 137.03 332.49 128.97 332.52 120.90 C 325.36 120.58 318.20 120.82 311.04 120.76 C 310.94 94.86 310.95 68.96 310.94 43.06 C 301.74 43.07 292.54 43.09 283.34 43.04 M 418.05 43.06 C 418.09 51.44 418.02 59.83 418.07 68.21 C 423.23 68.26 428.38 68.21 433.54 68.27 C 433.54 93.92 433.43 119.57 433.54 145.22 C 442.69 145.28 451.84 145.28 460.99 145.22 C 461.09 119.56 460.85 93.89 461.03 68.22 C 466.16 68.24 471.29 68.25 476.42 68.21 C 476.52 59.83 476.48 51.45 476.44 43.07 C 456.97 43.06 437.51 43.09 418.05 43.06 M 225.32 58.29 C 213.82 60.98 205.22 72.26 205.20 84.01 C 204.99 88.44 206.35 92.73 208.01 96.79 C 210.92 104.48 213.95 112.59 212.93 120.96 C 211.74 129.85 207.17 138.56 199.62 143.66 C 192.69 148.56 184.06 149.69 175.81 150.36 C 193.03 155.39 212.22 153.03 227.49 143.55 C 244.75 133.28 256.61 114.55 258.43 94.54 C 259.17 86.15 259.14 76.95 254.32 69.66 C 248.33 60.24 236.10 55.55 225.32 58.29 Z" />
<path fill="#ffffff" opacity="1.00" d=" M 222.78 61.42 C 229.71 59.98 237.51 59.46 243.78 63.35 C 251.43 67.45 255.73 75.90 256.69 84.29 C 254.83 80.50 253.72 76.32 251.21 72.86 C 247.19 66.97 240.45 63.64 233.74 61.83 C 230.13 61.17 226.42 61.65 222.78 61.42 Z" />
<path fill="#ffffff" opacity="1.00" d=" M 372.30 67.16 C 376.36 65.12 380.43 68.66 381.83 72.32 C 385.13 80.40 385.33 89.35 385.23 97.96 C 384.77 104.94 384.59 112.54 380.50 118.51 C 378.07 122.04 372.55 122.54 369.67 119.28 C 365.65 114.61 365.08 108.11 364.46 102.23 C 363.97 93.57 364.02 84.71 366.23 76.26 C 367.27 72.76 368.76 68.80 372.30 67.16 Z" />
<path fill="#ffffff" opacity="1.00" d=" M 517.35 67.21 C 519.92 65.69 523.25 66.80 525.04 69.00 C 527.91 72.42 528.89 76.94 529.68 81.23 C 531.09 90.35 531.15 99.71 529.57 108.80 C 528.78 112.69 527.70 116.85 524.73 119.68 C 522.02 122.32 517.22 122.00 514.83 119.10 C 511.34 114.98 510.58 109.38 509.91 104.21 C 509.10 95.23 509.22 86.06 511.28 77.25 C 512.31 73.49 513.71 69.21 517.35 67.21 Z" />
<path fill="#ffffff" opacity="1.00" d=" M 398.84 374.20 C 404.13 372.52 409.43 370.84 414.78 369.34 C 415.34 371.37 416.00 373.37 416.63 375.38 C 411.26 377.32 405.79 379.00 400.25 380.33 C 399.79 378.28 399.32 376.23 398.84 374.20 Z" />
<path fill="#ffffff" opacity="1.00" d=" M 214.23 383.23 C 217.63 380.01 222.58 379.71 227.01 379.73 C 237.33 379.82 247.65 379.63 257.96 379.81 C 262.35 379.38 262.46 387.38 257.97 386.94 C 246.62 387.16 235.26 386.83 223.91 387.07 C 220.75 387.04 218.04 389.74 218.07 392.91 C 218.00 396.46 217.61 400.13 218.47 403.61 C 219.46 406.75 223.08 407.55 225.98 407.50 C 235.25 407.47 244.52 407.59 253.79 407.41 C 253.76 405.20 253.74 402.99 253.74 400.79 C 248.15 400.70 242.56 400.78 236.96 400.76 C 235.43 400.64 233.42 400.96 232.59 399.32 C 231.67 397.19 232.10 393.68 235.05 393.68 C 241.35 393.30 247.70 393.50 254.02 393.56 C 256.95 393.52 260.43 394.86 260.98 398.10 C 261.49 401.72 261.31 405.41 261.15 409.05 C 261.15 412.23 258.12 414.63 255.05 414.47 C 244.70 414.56 234.35 414.47 224.00 414.51 C 219.76 414.58 215.07 413.16 212.67 409.42 C 210.11 405.46 210.52 400.52 210.47 396.01 C 210.43 391.56 210.73 386.45 214.23 383.23 Z" />
<path fill="#ffffff" opacity="1.00" d=" M 268.41 380.30 C 270.16 379.56 272.12 379.79 273.97 379.72 C 284.33 379.85 294.70 379.60 305.05 379.84 C 310.18 379.95 315.62 382.81 316.99 388.06 C 318.24 393.35 317.86 398.92 317.46 404.30 C 317.00 410.09 311.69 414.38 306.03 414.43 C 294.02 414.56 282.01 414.52 270.01 414.46 C 268.04 414.71 266.88 412.71 267.03 410.98 C 266.95 401.97 267.00 392.95 267.01 383.94 C 267.16 382.72 266.96 380.79 268.41 380.30 M 274.52 387.00 C 274.49 393.83 274.48 400.65 274.53 407.47 C 283.69 407.52 292.85 407.50 302.02 407.50 C 304.94 407.57 308.69 406.89 309.75 403.71 C 310.64 400.21 310.23 396.53 310.21 392.96 C 310.26 389.67 307.35 386.90 304.08 387.05 C 294.23 386.92 284.37 387.04 274.52 387.00 Z" />
<path fill="#ffffff" opacity="1.00" d=" M 329.69 383.93 C 330.06 381.81 331.61 379.61 334.00 379.81 C 343.35 379.65 352.71 379.80 362.06 379.74 C 364.09 379.65 366.97 380.02 367.36 382.50 C 369.63 391.98 372.11 401.43 374.16 410.96 C 375.13 415.02 368.81 415.84 367.43 412.59 C 365.84 408.80 365.22 404.69 364.04 400.77 C 353.72 400.73 343.41 400.74 333.09 400.76 C 332.18 404.66 331.76 408.68 330.49 412.49 C 329.61 415.01 326.19 414.98 324.26 413.81 C 322.99 412.06 323.69 409.93 324.09 408.03 C 326.01 400.01 327.78 391.95 329.69 383.93 M 336.02 387.02 C 335.49 389.16 334.91 391.29 334.42 393.44 C 343.96 393.56 353.50 393.50 363.03 393.48 C 362.49 391.35 361.95 389.23 361.47 387.11 C 352.99 386.88 344.50 387.04 336.02 387.02 Z" />
<path fill="#ffffff" opacity="1.00" d=" M 380.11 382.15 C 380.23 379.40 383.69 379.23 385.54 380.39 C 398.06 388.14 410.56 395.95 423.17 403.56 C 423.47 396.50 422.98 389.42 423.39 382.37 C 424.13 379.16 428.02 379.47 430.35 380.62 C 431.23 389.73 430.50 398.91 430.78 408.05 C 430.59 410.20 431.34 413.33 428.93 414.48 C 425.20 415.18 422.30 412.35 419.33 410.63 C 408.74 403.96 398.24 397.15 387.57 390.60 C 387.34 397.59 387.69 404.58 387.41 411.56 C 387.39 415.99 379.20 415.51 380.03 410.98 C 380.03 401.37 379.86 391.75 380.11 382.15 Z" />
<path fill="#ffffff" opacity="1.00" d=" M 438.01 383.96 C 439.93 381.03 443.59 380.13 446.89 380.05 C 456.60 379.82 466.32 380.27 476.02 379.77 C 479.51 379.72 483.09 379.42 486.47 380.54 C 486.86 382.82 487.38 386.99 483.95 386.91 C 471.64 387.17 459.32 386.86 447.02 387.04 C 443.26 386.52 442.73 393.32 446.46 393.41 C 456.63 393.71 466.83 393.28 477.01 393.60 C 480.37 393.71 484.25 394.77 485.89 398.01 C 487.62 401.48 487.58 405.75 486.21 409.34 C 484.77 412.95 480.71 414.63 477.03 414.50 C 463.98 414.48 450.93 414.55 437.88 414.46 C 436.09 412.47 435.56 408.00 439.04 407.61 C 451.55 407.27 464.08 407.71 476.60 407.42 C 480.44 407.64 480.91 400.95 476.97 400.87 C 466.64 400.53 456.29 400.91 445.96 400.72 C 442.22 400.69 438.04 398.73 437.05 394.84 C 436.12 391.29 436.04 387.17 438.01 383.96 Z" />
<path fill="#ffffff" opacity="1.00" d=" M 493.03 383.02 C 492.59 379.44 498.35 378.58 499.95 381.25 C 500.61 385.10 500.11 389.05 500.25 392.94 C 513.27 388.71 526.13 384.01 539.18 379.87 C 542.28 378.84 545.64 384.46 542.20 386.03 C 530.88 390.02 519.18 392.91 507.94 397.13 C 519.02 400.84 530.25 404.07 541.34 407.72 C 544.95 408.39 543.81 413.56 540.93 414.37 C 538.31 414.37 535.93 413.10 533.47 412.39 C 522.35 408.88 511.39 404.90 500.25 401.50 C 500.20 404.98 500.39 408.48 500.17 411.96 C 500.19 415.61 493.11 415.51 493.07 411.90 C 492.91 402.28 493.00 392.64 493.03 383.02 Z" />
</g>
<g id="#b71525ff">
<path fill="#b71525" opacity="1.00" d=" M 170.03 47.01 C 177.46 38.03 188.56 32.50 200.01 30.88 C 200.85 30.90 202.54 30.93 203.38 30.95 C 197.69 32.71 191.66 33.56 186.35 36.39 C 182.10 38.46 178.41 41.47 175.10 44.81 C 178.10 46.99 181.39 48.73 184.86 50.04 C 189.66 44.78 193.88 38.61 200.49 35.46 C 205.25 32.78 210.84 33.16 216.10 33.02 C 214.32 32.33 212.54 31.63 210.77 30.92 C 212.46 30.84 214.14 30.70 215.83 30.67 C 221.72 31.89 227.72 33.57 232.63 37.20 C 221.92 36.15 210.17 37.41 201.70 44.68 C 194.27 50.58 191.44 60.96 193.62 70.02 C 195.77 80.64 203.28 90.04 201.99 101.31 C 200.14 98.46 198.49 95.38 195.86 93.16 C 187.92 86.34 177.03 84.60 168.80 78.25 C 164.97 75.35 162.46 70.79 162.32 65.96 C 161.98 58.86 165.67 52.34 170.03 47.01 Z" />
<path fill="#b71525" opacity="1.00" d=" M 130.50 84.10 C 131.98 64.29 142.86 45.05 160.01 34.72 C 155.58 40.51 151.33 46.76 150.01 54.08 C 147.89 63.72 151.42 73.86 157.75 81.18 C 162.31 86.37 168.65 89.51 174.99 91.97 C 180.11 94.03 185.66 95.42 189.99 99.02 C 198.42 105.72 202.00 117.75 198.85 128.01 C 195.45 139.30 183.76 147.34 171.99 146.53 C 162.24 146.35 154.39 139.68 147.93 133.06 C 135.42 120.25 128.95 101.93 130.50 84.10 M 139.07 60.82 C 140.81 62.75 142.67 64.56 144.72 66.16 C 145.01 63.51 145.19 60.85 145.49 58.21 C 146.06 52.93 149.32 48.53 151.21 43.70 C 145.75 48.19 141.57 54.22 139.07 60.82 Z" />
<path fill="#b71525" opacity="1.00" d=" M 365.44 42.67 C 374.70 40.08 385.14 41.41 393.13 46.91 C 404.63 54.41 410.98 67.75 412.99 81.00 C 415.04 94.90 414.13 109.56 408.53 122.57 C 404.37 132.25 397.02 140.99 387.16 145.14 C 377.18 149.45 365.08 148.01 356.26 141.71 C 344.67 133.77 338.54 120.00 336.46 106.48 C 334.41 91.91 335.53 76.40 342.22 63.10 C 346.94 53.64 355.22 45.79 365.44 42.67 M 372.30 67.16 C 368.76 68.80 367.27 72.76 366.23 76.26 C 364.02 84.71 363.97 93.57 364.46 102.23 C 365.08 108.11 365.65 114.61 369.67 119.28 C 372.55 122.54 378.07 122.04 380.50 118.51 C 384.59 112.54 384.77 104.94 385.23 97.96 C 385.33 89.35 385.13 80.40 381.83 72.32 C 380.43 68.66 376.36 65.12 372.30 67.16 Z" />
<path fill="#b71525" opacity="1.00" d=" M 512.33 42.21 C 520.88 40.43 530.21 41.53 537.63 46.36 C 549.77 53.80 556.39 67.69 558.42 81.39 C 560.37 95.77 559.37 110.97 553.13 124.25 C 548.80 133.31 541.66 141.40 532.21 145.23 C 521.54 149.75 508.57 147.69 499.64 140.37 C 488.64 131.78 483.12 117.96 481.44 104.44 C 479.85 90.82 481.07 76.50 487.01 64.00 C 491.95 53.68 501.04 44.97 512.33 42.21 M 517.35 67.21 C 513.71 69.21 512.31 73.49 511.28 77.25 C 509.22 86.06 509.10 95.23 509.91 104.21 C 510.58 109.38 511.34 114.98 514.83 119.10 C 517.22 122.00 522.02 122.32 524.73 119.68 C 527.70 116.85 528.78 112.69 529.57 108.80 C 531.15 99.71 531.09 90.35 529.68 81.23 C 528.89 76.94 527.91 72.42 525.04 69.00 C 523.25 66.80 519.92 65.69 517.35 67.21 Z" />
<path fill="#b71525" opacity="1.00" d=" M 581.68 45.69 C 592.70 39.01 606.73 40.84 617.88 46.27 C 618.01 55.60 617.89 64.93 617.98 74.26 C 613.18 69.70 607.08 65.00 600.04 66.14 C 596.09 66.55 593.14 71.11 594.96 74.78 C 597.04 79.30 601.69 81.64 605.41 84.61 C 611.44 89.03 616.83 94.88 618.86 102.24 C 622.06 113.47 619.70 126.23 612.37 135.37 C 606.61 142.75 597.42 147.47 588.01 147.30 C 580.95 147.55 574.12 145.52 567.62 142.99 C 567.38 133.03 567.48 123.06 567.57 113.10 C 573.13 116.86 578.69 122.14 585.85 121.98 C 591.44 121.74 594.58 114.21 590.94 110.01 C 585.91 103.73 578.53 99.80 573.61 93.39 C 561.56 79.38 565.75 55.01 581.68 45.69 Z" />
<path fill="#b71525" opacity="1.00" d=" M 283.34 43.04 C 292.54 43.09 301.74 43.07 310.94 43.06 C 310.95 68.96 310.94 94.86 311.04 120.76 C 318.20 120.82 325.36 120.58 332.52 120.90 C 332.49 128.97 332.49 137.03 332.53 145.10 C 316.12 145.44 299.71 145.18 283.30 145.23 C 283.18 111.17 283.28 77.10 283.34 43.04 Z" />
<path fill="#b71525" opacity="1.00" d=" M 418.05 43.06 C 437.51 43.09 456.97 43.06 476.44 43.07 C 476.48 51.45 476.52 59.83 476.42 68.21 C 471.29 68.25 466.16 68.24 461.03 68.22 C 460.85 93.89 461.09 119.56 460.99 145.22 C 451.84 145.28 442.69 145.28 433.54 145.22 C 433.43 119.57 433.54 93.92 433.54 68.27 C 428.38 68.21 423.23 68.26 418.07 68.21 C 418.02 59.83 418.09 51.44 418.05 43.06 Z" />
</g>
<g id="#08519bff">
<path fill="#08519b" opacity="1.00" d=" M 225.32 58.29 C 236.10 55.55 248.33 60.24 254.32 69.66 C 259.14 76.95 259.17 86.15 258.43 94.54 C 256.61 114.55 244.75 133.28 227.49 143.55 C 212.22 153.03 193.03 155.39 175.81 150.36 C 184.06 149.69 192.69 148.56 199.62 143.66 C 207.17 138.56 211.74 129.85 212.93 120.96 C 213.95 112.59 210.92 104.48 208.01 96.79 C 206.35 92.73 204.99 88.44 205.20 84.01 C 205.22 72.26 213.82 60.98 225.32 58.29 M 222.78 61.42 C 226.42 61.65 230.13 61.17 233.74 61.83 C 240.45 63.64 247.19 66.97 251.21 72.86 C 253.72 76.32 254.83 80.50 256.69 84.29 C 255.73 75.90 251.43 67.45 243.78 63.35 C 237.51 59.46 229.71 59.98 222.78 61.42 Z" />
</g>
<g id="#ffe809ff">
<path fill="#ffe809" opacity="1.00" d=" M 165.04 214.03 C 171.86 203.59 183.53 196.46 195.95 195.27 C 205.64 194.33 215.68 196.76 223.73 202.30 C 236.66 210.93 244.03 227.03 241.89 242.47 C 240.85 241.96 239.76 241.58 238.64 241.33 C 236.94 235.23 237.36 228.57 234.22 222.89 C 227.65 208.91 210.20 201.49 195.58 206.50 C 180.34 211.04 170.08 227.97 173.65 243.57 C 175.14 252.28 180.95 259.29 187.52 264.81 C 182.62 266.16 177.16 266.81 172.38 264.67 C 166.54 262.16 162.58 256.64 160.40 250.83 C 155.96 238.75 157.91 224.69 165.04 214.03 Z" />
<path fill="#ffe809" opacity="1.00" d=" M 308.10 210.64 C 324.86 207.47 342.02 207.18 359.03 206.55 C 373.36 206.45 387.74 206.24 402.03 207.65 C 404.87 207.52 406.43 210.11 407.91 212.11 C 410.23 215.29 411.45 219.08 412.37 222.87 C 400.59 223.78 388.77 224.25 376.95 224.23 C 375.76 224.39 373.85 223.83 373.36 225.37 C 370.80 230.96 368.76 236.78 366.60 242.54 C 355.69 273.24 344.97 304.09 337.04 335.72 C 329.68 334.02 321.68 331.31 317.24 324.77 C 313.59 319.13 315.21 312.07 317.23 306.15 C 326.63 278.29 338.78 251.47 350.64 224.60 C 340.80 224.12 330.74 225.40 321.11 222.87 C 315.05 221.24 310.38 216.38 308.10 210.64 Z" />
<path fill="#ffe809" opacity="1.00" d=" M 571.57 216.61 C 577.04 211.98 583.55 207.44 591.01 207.50 C 598.82 208.44 605.98 213.66 609.15 220.90 C 590.23 225.42 575.17 239.72 565.86 256.33 C 572.50 256.32 579.21 255.88 585.80 256.89 C 589.08 259.19 590.47 263.27 592.05 266.81 C 581.32 269.35 570.24 269.68 559.27 269.92 C 552.68 287.20 548.66 305.37 545.75 323.60 C 543.68 337.72 542.78 352.12 544.64 366.33 C 538.39 363.28 533.20 358.18 530.17 351.92 C 524.80 341.18 524.83 328.70 526.40 317.06 C 528.59 300.33 533.86 284.20 539.88 268.50 C 534.29 267.20 529.84 263.37 526.83 258.61 C 532.75 258.11 538.69 257.91 544.62 257.50 C 551.88 242.90 558.91 227.42 571.57 216.61 Z" />
<path fill="#ffe809" opacity="1.00" d=" M 627.34 212.11 C 632.81 214.15 638.53 217.22 641.23 222.66 C 643.32 227.18 641.07 231.97 639.00 236.02 C 633.76 246.32 629.83 257.21 626.02 268.10 C 617.58 290.36 614.30 314.39 615.75 338.11 C 607.12 334.50 600.55 326.76 598.14 317.76 C 594.65 304.92 597.63 291.54 600.85 278.97 C 607.33 255.85 616.69 233.60 627.34 212.11 Z" />
<path fill="#ffe809" opacity="1.00" d=" M 114.38 278.17 C 119.49 262.55 134.75 250.85 151.18 250.09 C 150.53 251.95 149.64 253.90 147.57 254.51 C 142.14 256.73 136.59 259.14 132.41 263.41 C 124.16 271.11 120.86 283.70 124.50 294.42 C 126.54 301.22 131.26 307.00 137.13 310.90 C 148.15 317.93 163.56 316.89 173.66 308.65 C 177.28 305.74 179.82 301.76 183.17 298.58 C 180.39 307.74 178.48 317.13 177.82 326.70 C 170.45 331.44 161.77 334.24 152.95 333.85 C 138.23 333.66 124.08 324.89 117.19 311.92 C 111.56 301.72 110.53 289.16 114.38 278.17 Z" />
<path fill="#ffe809" opacity="1.00" d=" M 386.11 249.86 C 390.95 250.99 396.20 252.47 399.44 256.52 C 401.84 259.55 401.11 263.74 400.26 267.21 C 398.44 273.42 396.79 279.72 396.15 286.17 C 402.26 277.34 407.11 267.47 414.98 259.98 C 420.02 254.74 427.50 251.30 434.82 253.25 C 439.52 254.26 442.68 258.34 444.28 262.64 C 428.65 264.32 413.60 272.78 405.32 286.35 C 397.00 300.09 394.76 316.48 393.59 332.22 C 385.98 329.21 379.39 323.31 376.37 315.61 C 373.31 308.45 373.72 300.46 374.57 292.89 C 376.32 278.10 380.18 263.53 386.11 249.86 Z" />
<path fill="#ffe809" opacity="1.00" d=" M 237.58 252.52 C 248.74 249.22 261.23 250.84 271.17 256.90 C 282.09 263.48 289.72 275.28 291.13 287.97 C 292.69 300.43 288.19 313.45 279.32 322.33 C 264.75 337.53 238.54 338.99 222.23 325.77 C 215.52 320.26 210.28 311.91 211.00 302.95 C 211.07 299.56 212.32 296.32 214.28 293.59 C 216.69 303.68 223.56 312.89 233.45 316.60 C 245.68 321.71 260.86 317.32 268.71 306.72 C 274.08 299.73 276.07 290.38 274.13 281.79 C 272.07 272.46 265.40 264.29 256.64 260.46 C 247.25 256.26 235.77 257.36 227.36 263.30 C 224.58 265.37 221.33 267.04 217.79 265.82 C 222.30 259.03 229.97 254.90 237.58 252.52 Z" />
<path fill="#ffe809" opacity="1.00" d=" M 483.61 252.70 C 491.95 250.98 501.43 252.28 508.01 258.02 C 513.96 263.08 516.27 272.40 512.32 279.34 C 509.01 285.04 503.20 288.73 497.36 291.44 C 485.37 297.00 472.00 298.19 458.99 299.11 C 458.80 304.72 458.85 310.86 462.50 315.49 C 466.23 320.58 473.03 321.94 478.99 321.38 C 490.41 320.49 500.60 314.74 510.20 308.95 C 511.01 314.67 508.38 320.40 503.68 323.68 C 494.50 330.31 483.39 334.33 472.08 334.97 C 462.40 335.37 452.03 333.02 444.83 326.17 C 437.36 319.12 434.63 307.96 437.01 298.09 C 442.82 276.09 461.12 257.40 483.61 252.70 M 478.44 265.44 C 469.18 272.72 462.68 283.40 459.90 294.81 C 469.93 294.76 480.33 292.52 488.57 286.57 C 494.40 282.14 498.31 273.81 495.20 266.72 C 491.81 260.86 483.14 261.63 478.44 265.44 Z" />
<path fill="#ffe809" opacity="1.00" d=" M 189.04 320.22 C 192.12 307.32 196.39 294.34 203.96 283.34 C 201.47 296.91 200.25 310.90 202.58 324.59 C 203.75 332.74 205.95 340.67 208.07 348.62 C 202.09 347.59 195.47 346.50 190.97 342.07 C 186.04 335.88 187.63 327.37 189.04 320.22 Z" />
<path fill="#ffe809" opacity="1.00" d=" M 388.05 441.68 C 409.38 440.22 430.73 438.63 452.12 438.57 C 444.98 441.13 437.73 443.43 430.90 446.77 C 425.01 449.41 419.62 452.99 414.01 456.14 C 416.13 454.00 418.42 452.04 420.50 449.86 C 371.74 456.40 323.35 465.80 275.55 477.40 C 270.51 478.47 265.62 480.32 260.49 480.90 C 254.00 478.29 247.64 475.38 241.21 472.65 C 245.03 468.28 249.04 464.06 253.25 460.05 C 297.71 450.95 342.82 445.22 388.05 441.68 Z" />
<path fill="#ffe809" opacity="1.00" d=" M 437.40 455.10 C 453.92 447.88 471.94 443.96 490.00 444.49 C 523.09 445.06 556.00 460.10 577.42 485.42 C 566.60 481.29 555.81 476.90 544.43 474.53 C 524.49 469.94 503.46 470.31 483.72 475.71 C 470.19 479.22 457.39 485.00 445.07 491.54 C 441.71 479.59 438.95 467.42 437.40 455.10 Z" />
<path fill="#ffe809" opacity="1.00" d=" M 400.22 481.43 C 408.81 472.61 418.64 464.65 429.83 459.39 C 431.52 480.56 435.49 502.10 446.17 520.74 C 455.20 537.10 468.83 550.36 483.85 561.25 C 481.63 575.01 477.39 588.41 471.64 601.10 C 454.50 592.35 439.32 579.62 428.04 563.99 C 410.57 540.10 402.80 510.55 400.22 481.43 Z" />
<path fill="#ffe809" opacity="1.00" d=" M 356.17 479.23 C 370.41 475.39 384.67 471.57 399.00 468.06 C 393.63 473.34 388.13 478.55 383.64 484.64 C 381.86 486.82 380.40 489.71 377.40 490.36 C 364.97 494.36 352.70 498.82 340.40 503.17 C 332.13 498.96 323.35 495.81 315.29 491.17 C 328.71 486.54 342.51 483.11 356.17 479.23 Z" />
<path fill="#ffe809" opacity="1.00" d=" M 445.53 495.14 C 465.91 484.97 488.05 477.34 511.03 476.77 C 536.51 475.78 561.52 483.54 584.02 495.00 C 586.49 496.13 587.78 498.63 589.19 500.80 C 593.69 508.14 597.63 515.86 600.39 524.02 C 580.51 516.17 559.65 509.14 538.00 509.73 C 511.40 509.78 486.68 521.08 463.24 532.50 C 454.40 521.80 447.00 509.17 445.53 495.14 Z" />
<path fill="#ffe809" opacity="1.00" d=" M 379.65 509.65 C 383.75 502.06 388.40 494.69 394.17 488.24 C 397.17 508.09 401.25 528.21 411.08 545.94 C 424.35 570.40 447.12 587.68 470.06 602.49 C 465.90 615.81 458.17 628.28 447.11 636.95 C 420.95 620.48 398.18 597.00 387.39 567.60 C 381.16 551.28 378.33 533.85 377.36 516.47 C 377.09 513.96 378.62 511.80 379.65 509.65 Z" />
<path fill="#ffe809" opacity="1.00" d=" M 464.14 534.40 C 481.50 523.49 501.41 516.41 521.93 515.06 C 550.04 513.03 578.02 520.72 603.23 532.71 C 606.49 544.57 608.07 556.94 607.58 569.24 C 595.87 564.34 584.27 558.91 571.82 556.07 C 552.91 551.30 532.78 551.67 514.06 557.16 C 506.53 559.13 499.44 562.35 492.20 565.14 C 481.57 556.18 471.81 546.03 464.14 534.40 Z" />
<path fill="#ffe809" opacity="1.00" d=" M 366.82 580.10 C 364.77 562.22 366.44 543.78 372.46 526.78 C 374.79 547.07 379.65 567.38 389.67 585.33 C 402.04 608.13 422.04 625.76 443.97 639.12 C 435.53 648.09 426.24 656.22 416.74 664.04 C 389.10 644.96 370.65 613.40 366.82 580.10 Z" />
<path fill="#ffe809" opacity="1.00" d=" M 527.31 561.96 C 540.93 559.12 555.50 559.56 568.49 564.83 C 567.40 585.91 563.40 607.14 554.14 626.25 C 542.39 651.24 521.73 670.92 498.73 685.65 C 497.36 686.55 495.66 686.58 494.09 686.70 C 484.70 686.98 475.23 686.78 465.99 684.92 C 481.40 672.84 496.37 659.58 506.84 642.83 C 522.16 618.85 525.85 589.79 527.31 561.96 Z" />
<path fill="#ffe809" opacity="1.00" d=" M 484.67 570.60 C 497.67 565.70 511.35 562.57 525.19 561.49 C 526.34 583.23 521.65 605.31 511.55 624.62 C 499.04 648.54 479.18 667.88 457.13 683.08 C 445.34 679.88 433.86 675.23 423.58 668.59 C 425.10 667.07 426.76 665.71 428.55 664.52 C 444.68 653.28 459.36 639.38 469.18 622.20 C 478.35 606.51 482.89 588.56 484.67 570.60 Z" />
<path fill="#ffe809" opacity="1.00" d=" M 571.91 566.48 C 583.90 569.44 595.69 573.29 607.13 577.95 C 604.09 610.43 587.24 641.38 561.40 661.35 C 546.61 672.87 529.12 681.04 510.67 684.55 C 525.15 673.18 539.21 660.82 549.33 645.27 C 565.07 622.24 571.39 594.06 571.91 566.48 Z" />
</g>
</svg>
