<?xml version="1.0" encoding="UTF-8"?>
<svg width="256px" height="256px" viewBox="0 0 256 256" version="1.1" xmlns="http://www.w3.org/2000/svg" xmlns:xlink="http://www.w3.org/1999/xlink">
    <!-- Generator: Sketch 50.2 (55047) - http://www.bohemiancoding.com/sketch -->
    <title>logo/gdansk</title>
    <desc>Created with Sketch.</desc>
    <defs></defs>
    <g id="logo/gdansk" stroke="none" stroke-width="1" fill="none" fill-rule="evenodd">
        <g id="gdansk" transform="translate(8.000000, 0.000000)" fill-rule="nonzero">
            <g id="#231f20ff" transform="translate(8.332447, 0.000000)" fill="#231F20">
                <path d="M13.8222473,1.0272 C16.2578856,0.0768 18.917859,0.352 21.4720745,0.32 C82.0425532,0.32 142.613032,0.3232 203.180306,0.3168 C205.958856,0.3104 208.884827,0.1376 211.47109,1.3408 C212.628019,1.9424 213.624707,2.9056 214.191955,4.0896 C214.688697,5.7728 214.858551,7.5296 214.852141,9.28 C214.765612,23.792 214.913032,38.3072 214.775226,52.8192 C213.102327,52.9216 211.419814,52.96 209.75012,52.7648 C209.695638,39.552 209.532194,26.336 209.426436,13.12 C209.371955,10.8736 209.695638,8.4608 208.666902,6.3744 C207.833657,4.7392 205.872327,4.2272 204.16738,4.2432 C142.837367,4.2496 81.5073537,4.2432 20.1773404,4.2464 C18.8441489,4.288 17.3763564,4.4992 16.3924867,5.4912 C15.2291489,6.6368 15.0400665,8.3648 14.9855851,9.9136 C14.8830319,24.1984 14.7356117,38.4864 14.6170346,52.7744 C12.9377261,52.96 11.2455984,52.9184 9.56308511,52.8128 C9.47655585,38.9408 9.56308511,25.072 9.51821809,11.2 C9.47976064,8.8256 9.44771277,6.4 10.1784043,4.112 C10.9123005,2.6432 12.2935638,1.5808 13.8222473,1.0272 Z" id="Shape"></path>
                <path d="M1.91005319,58.2368 C3.66948138,56.672 6.18523936,57.2 8.33244681,57.1264 C77.5558511,57.1328 146.779255,57.1328 216.00266,57.1264 C218.153072,57.2096 220.672035,56.6624 222.447487,58.2144 C223.52109,59.0464 223.82234,60.4544 223.790293,61.7472 C223.886436,81.5904 223.963351,101.4336 224.101157,121.28 C224.110771,125.4368 224.053085,129.5936 224.178072,133.7472 C224.190891,139.888 224.162048,146.0256 224.254987,152.1632 C220.957261,151.312 217.720426,150.2304 214.400266,149.4784 C214.073378,150.7104 213.868271,151.968 213.730465,153.2352 C212.265878,161.3984 209.798191,169.3984 206.426755,176.9792 C204.500678,180.96 202.609854,184.976 200.212673,188.6976 C197.084801,193.6704 193.543511,198.3936 189.537527,202.6976 C186.419269,205.8784 183.301011,209.0752 179.859069,211.9136 C170.96258,219.3536 161.066197,225.4976 150.868564,230.9824 C139.55887,237.088 127.861396,242.4288 116.263271,247.9552 C114.936489,248.5568 113.705851,249.5264 112.228444,249.696 C110.33762,249.3632 108.732021,248.1952 107.007846,247.4176 C89.4616356,239.0624 71.607766,231.0752 55.4620479,220.1568 C46.7963032,214.2816 38.7266489,207.4464 31.9741622,199.4272 C25.1703989,191.4144 19.8568617,182.176 16.0623936,172.3904 C13.7293085,166.1696 11.7583644,159.7824 10.649508,153.2256 C10.498883,151.9808 10.3162101,150.7424 10.0822606,149.5136 C6.73966755,150.1024 3.57333777,151.4016 0.24356383,152.0544 C0.096143617,149.904 0.176263298,147.7504 0.176263298,145.6032 C0.30125,140.0576 0.195492021,134.5088 0.24356383,128.9632 C0.435851064,122.4576 0.205106383,115.9456 0.397393617,109.44 C0.442260638,103.6832 0.333297872,97.9264 0.490332447,92.1728 C0.442260638,82.3552 0.615319149,72.5376 0.541609043,62.72 C0.551223404,61.1584 0.573656915,59.312 1.91005319,58.2368 Z M52.5841489,62.736 C49.193484,63.4688 46.1393218,65.5968 44.2324734,68.4864 C41.9154122,71.9488 41.3097074,76.5504 42.822367,80.4512 C43.530625,82.2368 44.7772872,83.9232 46.5911968,84.6912 C48.0974468,85.3536 49.8088032,85.184 51.3567154,84.7648 C49.6774069,83.056 47.8314495,81.3312 47.2449734,78.9088 C45.5656649,73.8848 48.5589362,67.9872 53.5391755,66.2528 C58.1476596,64.416 63.8810239,66.5152 66.185266,70.9088 C67.3550133,72.8192 67.3037367,75.1104 67.8293218,77.2224 C68.1786436,77.3184 68.5279654,77.424 68.8740824,77.536 C69.5470878,72.6112 67.1723404,67.488 63.050984,64.7328 C60.0352793,62.6656 56.1510771,61.9488 52.5841489,62.736 Z M95.2078191,66.6944 C93.5060771,66.8864 91.7722872,66.9504 90.1314362,67.472 C90.8140559,69.3088 92.3587633,70.784 94.2559973,71.3152 C97.3005452,72.1664 100.489309,71.696 103.601157,71.9296 C103.008271,73.7504 102.101316,75.4464 101.351396,77.2032 C98.313258,84.1088 95.3328059,91.0528 92.9260106,98.208 C92.2978723,100.096 91.8780452,102.3904 93.1439362,104.1184 C94.6085239,106.0448 97.0281383,106.9184 99.3163564,107.424 C102.34488,95.9872 106.148963,84.7584 110.315186,73.6832 C110.696556,72.9856 110.799109,71.6896 111.853484,71.7792 C115.721662,71.7344 119.59625,71.6256 123.454814,71.312 C123.124721,69.5808 122.384415,67.8144 120.987128,66.6816 C119.275771,66.1696 117.449043,66.2816 115.683205,66.1536 C108.857008,66.016 102.011582,66.0576 95.2078191,66.6944 Z M173.369375,70.3904 C169.965891,73.7536 168.043019,78.208 165.860559,82.3776 C163.988963,82.5984 162.098138,82.5568 160.223338,82.7296 C161.069402,84.3392 162.610904,85.3632 164.293418,85.9456 C163.831928,87.648 163.072394,89.2448 162.553218,90.928 C161.553324,94.0416 160.694441,97.2128 160.188085,100.448 C159.678524,103.8592 159.460598,107.4336 160.505359,110.768 C161.345013,113.4848 163.190971,116.016 165.870173,117.1488 C164.966423,109.552 166.273976,101.9008 168.065452,94.528 C168.799348,91.8016 169.446715,89.0304 170.58762,86.4352 C174.074428,86.144 177.631742,86.2944 181.041636,85.3696 C180.618604,84.2272 180.160319,82.9536 179.105944,82.2496 C177.026037,81.7728 174.862806,82.1408 172.747646,81.9776 C175.673617,76.6432 180.532074,72.2176 186.512207,70.656 C185.515519,68.2496 183.028604,66.5216 180.432726,66.416 C177.615718,66.5888 175.308271,68.5056 173.369375,70.3904 Z M192.386582,67.9232 C191.30016,69.8944 190.434867,71.9776 189.499069,74.0224 C187.130731,79.4528 184.954681,84.9952 183.528551,90.7552 C182.685691,94.3168 182.051144,98.1024 183.044628,101.6992 C183.813777,104.5504 185.890479,107.0496 188.649801,108.1632 C188.66262,107.2032 188.643391,106.24 188.627367,105.28 C188.444694,98.7296 189.630465,92.1696 191.88984,86.0256 C193.09484,82.6176 194.303045,79.1936 195.934282,75.9552 C196.626516,74.5184 197.562314,72.864 196.847646,71.2512 C195.969535,69.5392 194.178059,68.4736 192.386582,67.9232 Z M27.9842021,89.0656 C26.7856117,92.5696 27.1060904,96.5632 28.8943617,99.8144 C30.8108245,103.36 34.387367,105.9744 38.3805319,106.6432 C41.784016,107.1904 45.4470878,106.5376 48.2833245,104.5248 C48.50125,103.3152 48.6102128,102.0896 48.7768617,100.8736 C49.0204255,99.0912 49.600492,97.3792 49.9882713,95.6288 C48.9050532,96.6944 48.0301463,97.9648 46.8251463,98.9056 C43.9536569,101.1264 39.8579388,101.5872 36.5377793,100.1536 C32.8779122,98.544 30.4615027,94.5408 30.8076197,90.5504 C31.0383644,86.9216 33.528484,83.6512 36.8454388,82.2336 C37.9286569,81.68 39.4701596,81.44 39.7714096,80.048 C34.4899202,80.272 29.6058245,84.0576 27.9842021,89.0656 Z M115.112753,79.9904 C112.786077,85.2192 111.408019,90.9216 111.196503,96.6464 C110.965758,100.7552 113.507154,104.9216 117.468271,106.2528 C117.961809,100.736 118.702114,94.848 122.172899,90.3136 C124.900173,86.6944 129.22984,84.6112 133.665266,84.0384 C133.293511,82.8768 132.553205,81.7888 131.409096,81.2864 C129.338803,80.3936 126.855093,80.9952 125.191809,82.448 C122.169694,84.864 120.509614,88.4384 118.307926,91.52 C118.474574,89.4688 119.086689,87.4944 119.615479,85.5168 C119.862247,84.4 120.128245,83.0624 119.359096,82.0864 C118.320745,80.8192 116.673484,80.2784 115.112753,79.9904 Z M66.5249734,81.1296 C64.4610904,81.9616 62.3427261,83.1424 61.1569548,85.0944 C62.4548936,85.4528 63.5797739,84.7008 64.6053059,84.0224 C67.6242154,82.0416 71.7808245,82.0672 74.8125532,84 C76.5912101,85.0976 77.978883,86.7872 78.7512367,88.7232 C79.9914894,91.808 79.4979521,95.5104 77.466117,98.1504 C74.8413963,101.68 69.6913032,103.0464 65.7013431,101.1168 C62.7721676,99.8464 60.8332713,97.056 60.0352793,94.0384 C58.3623803,96.0896 58.7661835,99.168 60.0513032,101.3184 C62.4901463,105.5392 67.6786968,107.5296 72.3993484,107.0784 C76.4950665,106.7712 80.3760638,104.4768 82.5841622,101.0112 C84.2762899,98.416 85.0198005,95.2288 84.6480452,92.1568 C84.1833511,87.7728 81.3503191,83.7504 77.4340691,81.744 C74.0914761,80.0352 70.0342154,79.792 66.5249734,81.1296 Z M140.622859,83.1328 C136.334854,85.6736 133.120452,89.8752 131.610997,94.6048 C130.761729,97.3056 131.024521,100.4032 132.604481,102.7936 C134.113936,105.1968 136.834801,106.6048 139.587713,107.0176 C144.135306,107.7152 148.846343,106.2976 152.589535,103.7184 C154.163085,102.6688 155.111702,100.8128 154.861729,98.9088 C151.990239,100.4768 149.121955,102.2784 145.81141,102.7296 C143.76996,103.0368 141.343936,102.9312 139.863324,101.296 C138.462832,99.8176 138.318617,97.6576 138.459628,95.7344 C142.145133,95.4272 145.904348,95.1616 149.391157,93.8208 C151.624894,92.96 153.890678,91.7856 155.29758,89.7824 C156.633976,87.8752 156.35516,85.1488 154.919415,83.376 C153.464441,81.5008 151.025598,80.6784 148.718152,80.6432 C145.840253,80.608 143.068112,81.6928 140.622859,83.1328 Z M52.0585638,101.8944 C51.5425931,104.2976 50.8920213,107.104 52.4110904,109.2864 C53.8019681,110.8608 56.0421144,111.2 58.0066489,111.5776 C56.8401064,107.1072 55.670359,102.5504 55.8754654,97.8912 C55.8882846,95.4976 56.3625931,93.1456 56.6638431,90.7808 C54.3371676,94.0896 53.0616622,98.016 52.0585638,101.8944 Z M119.211676,119.7536 C119.323843,120.3776 119.452035,121.0016 119.593045,121.6224 C121.358883,121.3984 123.018963,120.7328 124.71109,120.224 C124.695066,119.5264 124.512394,118.8576 124.294468,118.2016 C122.576702,118.6336 120.88137,119.1616 119.211676,119.7536 Z M60.0032314,122.6368 C58.7790027,123.7408 58.8174601,125.5264 58.788617,127.04 C58.8142553,128.5728 58.7469548,130.3616 59.9199069,131.5296 C61.0896543,132.7104 62.8747207,132.6528 64.4162234,132.6432 C67.1979787,132.5984 69.979734,132.6624 72.7582846,132.6272 C73.6011436,132.6368 74.6747473,132.3904 74.9183112,131.456 C75.1939229,130.128 75.1682846,128.7328 74.966383,127.3984 C74.8510106,126.4768 73.9152128,126.0032 73.0691489,125.984 C71.2552394,125.856 69.4317154,125.9296 67.6113963,125.9264 C66.9992819,126.0096 66.1051463,125.84 65.8167154,126.5504 C65.6917287,127.12 65.7077527,128.0672 66.4576729,128.1632 C68.5215559,128.3872 70.6078723,128.0832 72.6749601,128.32 C72.6749601,128.9728 72.6781649,129.6256 72.6813697,130.2816 C69.934867,130.5376 67.1691356,130.3168 64.4162234,130.4032 C63.3330053,130.384 61.7690691,130.4224 61.3748803,129.1552 C61.0864495,127.872 61.1152926,126.512 61.3364229,125.2192 C61.4934574,124.384 62.3267021,123.888 63.1343085,123.8784 C67.0313298,123.664 70.9603989,124.0992 74.8478059,123.6704 C74.9824069,123.1392 75.2099468,122.5664 74.9535638,122.0352 C74.5689894,121.3792 73.7133112,121.5776 73.0819681,121.504 C70.085492,121.5136 67.0922207,121.5168 64.0989495,121.5072 C62.6792287,121.52 61.0896543,121.6032 60.0032314,122.6368 Z M77.0783378,121.7504 C76.7226064,124.2432 77.0046277,126.7712 76.9020745,129.28 C76.9918085,130.336 76.6424867,131.5872 77.3090824,132.5024 C80.2574867,132.8192 83.2443484,132.5312 86.2087766,132.6336 C88.0931915,132.5664 90.2564229,132.9856 91.8524069,131.7312 C93.147141,130.688 93.2016223,128.8896 93.2016223,127.3664 C93.192008,125.792 93.281742,123.9744 92.1055851,122.7488 C91.1024867,121.6576 89.5193218,121.5296 88.1284441,121.5104 C85.2441356,121.504 82.3598271,121.5328 79.4755186,121.4976 C78.6679122,121.4752 77.8667154,121.5808 77.0783378,121.7504 Z M97.197992,122.3744 C96.5570346,124.1984 96.310266,126.1312 95.8103191,128 C95.5090691,129.4816 94.8873404,130.9632 95.1725665,132.5024 C95.8615957,132.576 96.9736569,132.9024 97.242859,131.9936 C97.6755053,130.8064 97.7876729,129.5328 98.1113564,128.3136 C101.396263,128.1664 104.693989,128.1984 107.978896,128.2976 C108.414747,129.52 108.584601,130.832 109.113391,132.0256 C109.462713,132.8576 110.481835,132.6112 111.170864,132.4704 C111.343923,130.5152 110.507473,128.6752 110.148537,126.7904 C109.671024,125.1328 109.533218,123.3536 108.764069,121.7984 C107.92121,121.4272 106.975798,121.52 106.078457,121.4976 C103.722939,121.5424 101.36742,121.4848 99.0119016,121.5104 C98.3228723,121.52 97.4030984,121.5584 97.197992,122.3744 Z M113.27,121.7088 C112.96234,124.0064 113.199495,126.3296 113.12258,128.64 C113.164242,129.9584 112.917473,131.344 113.455878,132.5984 C114.074402,132.6432 114.69613,132.5984 115.308245,132.4704 C115.859468,130.0448 115.337088,127.536 115.60629,125.0816 C119.528949,127.3376 123.252912,129.9296 127.130705,132.2656 C127.790891,132.6976 128.611316,132.7584 129.300346,132.352 C129.470199,130.5856 129.377261,128.8096 129.386875,127.04 C129.370851,125.2896 129.489428,123.5296 129.265093,121.7856 C128.524787,121.456 127.252487,121.3184 127.063404,122.3648 C126.845479,124.5824 127.124295,126.8192 126.935213,129.0432 C122.906795,126.8064 119.06746,124.2304 115.119162,121.856 C114.55512,121.472 113.888524,121.4848 113.27,121.7088 Z M131.860971,122.6848 C131.04375,123.7952 131.085412,125.3472 131.508444,126.6048 C131.915452,127.7184 133.162114,128.2016 134.267766,128.2208 C137.267447,128.288 140.270332,128.1952 143.273218,128.2272 C143.859694,128.224 144.433351,128.384 145.003803,128.5184 C145.096742,129.1808 145.215319,130.176 144.321184,130.32 C140.029973,130.6656 135.684282,130.0992 131.402686,130.5888 C131.242447,131.2064 131.248856,131.8336 131.41871,132.4512 C132.889707,132.7392 134.392753,132.6272 135.882979,132.6336 C138.555771,132.6144 141.228564,132.6432 143.901356,132.64 C145.016622,132.6496 146.317766,132.4224 146.952314,131.392 C147.654162,130.192 147.660572,128.6048 147.067686,127.3568 C146.478005,126.2048 145.061489,125.968 143.891742,125.9392 C141.007434,125.888 138.11992,125.9552 135.235612,125.9424 C134.815785,125.9104 134.360705,125.9488 133.98254,125.7408 C133.37363,125.3344 133.76141,124.5792 133.787048,124.0064 C138.254521,123.4944 142.7925,124.2016 147.253564,123.648 C147.31766,123.0208 147.31766,122.3936 147.266383,121.7696 C145.856277,121.3728 144.385279,121.5104 142.943125,121.5584 C140.263923,121.664 137.581516,121.5552 134.899109,121.6032 C133.815891,121.6288 132.572434,121.76 131.860971,122.6848 Z M149.442434,122.0288 C149.19246,124.0064 149.407181,126.0096 149.343085,128 C149.391157,129.4432 149.163617,130.928 149.522553,132.3424 C150.093005,132.8384 150.874973,132.56 151.53516,132.4704 C151.698604,131.184 151.672965,129.8848 151.695399,128.592 C152.371609,128.72 153.051024,128.864 153.708005,129.0912 C156.813444,130.1728 159.944521,131.1808 163.062779,132.2272 C163.678098,132.3776 164.331875,132.704 164.969628,132.4928 C165.434322,132.112 165.806077,131.392 165.434322,130.8288 C164.825412,130.3904 164.081902,130.2112 163.383258,129.9808 C160.672008,129.1808 157.989601,128.2848 155.275146,127.5008 C154.861729,127.408 154.509202,127.2 154.179109,126.9568 C157.967168,125.7376 161.838551,124.7456 165.549694,123.312 C165.809282,122.3264 164.889508,121.1712 163.847952,121.6512 C159.768258,122.9216 155.768684,124.4512 151.685785,125.7056 C151.660146,124.368 151.759495,123.0144 151.487088,121.6928 C150.804468,121.5488 149.894309,121.312 149.442434,122.0288 Z M125.967367,140.688 C95.8327527,142.2784 65.6564761,146.8736 37.0761835,156.7808 C36.7781383,156.8864 36.4993218,157.0272 36.2365293,157.2032 C35.2366356,157.424 34.2591755,157.7248 33.3041489,158.0864 C28.3848005,159.9168 23.5295479,161.9136 18.7287766,164.0384 C19.5716356,167.2512 20.7798404,170.3808 22.2284043,173.3728 C24.0871809,172.7264 25.7472606,171.6416 27.5259176,170.8192 C30.5896941,169.3664 33.6759043,167.9648 36.7909574,166.6368 C38.7330585,165.7824 40.7777128,165.1648 42.6589229,164.1728 C62.8010106,156.5024 83.8019814,151.2928 104.972806,147.3536 C111.962447,146.0864 118.968112,144.8256 126.021848,143.984 C125.40012,144.6528 124.739934,145.2864 124.076543,145.9168 C126.117992,144.7424 128.140213,143.5232 130.303444,142.5792 C132.223112,141.6736 134.274176,141.104 136.23871,140.3136 C132.809588,140.2112 129.393285,140.5504 125.967367,140.688 Z M131.607793,145.6352 C131.630226,147.2608 132.001981,148.8448 132.32246,150.4288 C132.809588,152.704 133.245439,155.0016 133.988949,157.2096 C135.639415,156.5344 137.174508,155.616 138.812154,154.9184 C143.862899,152.6592 149.291809,151.1776 154.826476,150.8672 C160.348324,150.56 165.873378,151.584 171.090771,153.3344 C172.853404,153.9136 174.532713,154.7232 176.314574,155.2512 C173.401423,151.6768 169.59734,148.8992 165.565718,146.7008 C155.22387,141.1232 142.282939,140.7552 131.607793,145.6352 Z M124.800824,149.5712 C123.099082,150.8352 121.381316,152.1248 119.968005,153.7152 C119.532154,154.128 119.695598,154.7648 119.711622,155.2992 C120.358989,161.1104 121.596037,166.9024 123.903484,172.2976 C127.496051,180.848 134.104322,188.2432 142.504069,192.2912 C144.334003,188.2688 145.753723,184.0096 146.365838,179.6256 C145.12238,178.496 143.705864,177.5872 142.459202,176.464 C138.081463,172.6912 134.520944,167.9328 132.370532,162.56 C130.351516,157.6448 129.595186,152.3488 129.092035,147.0976 C127.480027,147.5648 126.166064,148.6464 124.800824,149.5712 Z M58.0451064,169.6864 C57.7021941,169.8592 57.3624867,170.048 57.0612367,170.2912 C55.5581915,170.6912 54.1673138,171.392 52.7956649,172.1024 C44.674734,176.0864 36.7557048,180.528 29.3045745,185.6544 C31.0864362,188.3936 33.0830186,191.0208 35.3007314,193.4272 C42.5018883,188.3424 50.0715957,183.792 57.8720479,179.6832 C59.8141489,178.64 61.8716223,177.808 63.7432181,176.6304 C78.7223936,169.2064 94.2848404,162.9984 110.113285,157.6256 C111.061902,157.3024 112.05859,157.0784 112.943112,156.592 C113.625731,156.1056 114.058378,155.3632 114.577553,154.7264 C115.920359,152.912 117.625306,151.424 119.182832,149.8016 C98.3805585,154.992 77.6455851,160.8928 58.0451064,169.6864 Z M148.144495,153.3824 C143.292447,154.4192 138.587819,156.1568 134.200465,158.464 C134.546582,162.9152 136.940559,166.9792 139.789614,170.3168 C141.997713,169.5232 144.023138,168.3104 146.192779,167.4272 C153.04141,164.3776 160.598298,162.384 168.139162,163.3088 C173.539229,163.8528 178.650864,165.744 183.695199,167.6256 C183.01258,165.2992 181.852447,163.152 180.663471,161.0528 C180.035332,160.016 179.442447,158.8416 178.301543,158.288 C174.763457,156.496 171.049109,155.0464 167.225798,153.9968 C161.027739,152.3008 154.435492,152.08 148.144495,153.3824 Z M113.468697,162.2432 C112.965545,163.1872 112.314973,164.144 112.308564,165.2544 C112.67391,174.9504 115.471689,184.8224 121.660133,192.4576 C125.268723,196.9504 129.739402,200.7328 134.620293,203.7856 C136.892487,202.1344 138.65512,199.856 140.010745,197.4144 C140.789508,195.936 141.616343,194.4448 141.933617,192.7872 C136.652128,189.3088 131.42512,185.5808 127.287739,180.7456 C123.900279,176.8416 121.464641,172.1664 119.987234,167.2288 C118.843125,163.6704 118.346383,159.9648 117.64133,156.3104 C115.968431,158.0704 114.69613,160.16 113.468697,162.2432 Z M140.135731,170.9984 C141.119601,172.7552 142.494455,174.2496 143.805213,175.7696 C145.449269,177.5488 147.147806,179.3024 149.073883,180.7808 C150.17633,180.4704 151.22109,180.0096 152.275465,179.5744 C156.547447,177.9136 161.101449,176.9248 165.690705,176.864 C171.087566,176.8128 176.413923,178.1504 181.387753,180.1696 C182.961303,180.7872 184.448324,181.6256 186.076356,182.1024 C186.239801,178.8928 185.816769,175.6832 185.201449,172.5408 C184.96109,171.6256 184.900199,170.4064 183.84262,170.0576 C175.872314,166.448 167.094402,164.1152 158.284441,164.8384 C151.842819,165.3408 145.580665,167.5488 140.135731,170.9984 Z M88.5963431,174.2528 C87.618883,174.7232 86.6606516,175.2416 85.7569016,175.8464 C85.3915559,175.7408 85.0614628,176.032 84.7377793,176.1536 C80.9657447,178.224 77.1873005,180.288 73.5082048,182.5248 C63.2689096,188.5248 53.7154388,195.6352 44.7099867,203.3472 C46.0143351,204.8224 47.6231383,205.984 49.0684973,207.312 C50.6805053,208.6624 52.205984,210.1248 53.9622074,211.2928 C55.3755186,209.5232 57.0548271,208 58.654016,206.4064 C66.9640293,198.6752 76.0816489,191.8624 85.4876995,185.5168 C88.4521277,183.5008 91.5607713,181.7024 94.486742,179.6352 C97.7428059,177.7056 100.934774,175.6704 104.254934,173.856 C104.82859,173.4976 105.485572,173.2 105.905399,172.6528 C106.296383,171.8912 106.440598,171.0368 106.680957,170.2208 C107.120013,168.5024 107.876343,166.8864 108.321809,165.1712 C101.623803,167.9136 95.0732181,171.0208 88.5963431,174.2528 Z M108.639082,180.8 C108.491662,191.5104 113.12258,202.1536 121.02238,209.3952 C122.256223,210.4768 123.435585,211.6736 124.912992,212.432 C127.986383,210.0128 130.934787,207.4016 133.585146,204.528 C130.720066,202.6368 127.838963,200.7424 125.284747,198.4352 C120.50641,194.2816 116.641436,189.0496 114.250665,183.1808 C112.324588,178.5376 111.30867,173.5776 110.725399,168.6016 C109.27363,172.4896 108.680745,176.6624 108.639082,180.8 Z M160.361144,179.8784 C160.027846,185.3568 159.502261,190.864 157.989601,196.16 C156.694867,200.7744 154.505997,205.1392 151.519136,208.896 C148.44254,212.8256 144.603205,216.048 140.735027,219.168 C143.673816,219.8176 146.70234,219.8048 149.692407,219.744 C151.349282,219.76 152.535053,218.4416 153.829787,217.6032 C160.325891,213.0304 165.969521,207.0208 169.260838,199.728 C171.975293,193.7984 173.202726,187.2928 173.542434,180.8096 C171.408045,179.7888 169.023684,179.408 166.677779,179.2928 C164.56262,179.2544 162.405798,179.28 160.361144,179.8784 Z M146.705545,182.6176 C146.385066,184.3616 146.250465,186.1376 145.87871,187.8752 C144.917274,192.6368 143.109774,197.2544 140.350452,201.2704 C137.232194,205.8624 133.046742,209.6416 128.489535,212.768 C127.992793,213.104 127.566556,213.5264 127.165957,213.968 C129.886822,215.8048 132.966622,217.0496 136.072061,218.0832 C136.892487,218.32 137.873152,218.7488 138.616662,218.0832 C145.72488,212.9888 152.134455,206.5632 155.928923,198.5952 C158.717088,192.7264 160.03746,186.1376 159.617633,179.6576 C155.214255,180.0704 150.820492,180.9728 146.705545,182.6176 Z M174.657699,181.36 C174.475027,183.44 174.452593,185.5296 174.170572,187.6 C173.401423,193.9104 171.465731,200.144 168.020585,205.52 C165.520851,209.52 162.287221,213.0208 158.688245,216.0576 C157.56016,217.0048 156.339136,217.8496 155.320013,218.9216 C160.614322,218.032 165.600971,215.664 169.97871,212.5984 C178.932886,206.256 184.916223,195.9168 185.893684,184.9952 C184.406662,184.208 182.781835,183.7536 181.201875,183.2096 C179.041848,182.5216 176.90746,181.7024 174.657699,181.36 Z M97.4607846,188.5344 C88.3015027,195.7216 79.5428191,203.4688 71.7808245,212.1568 C70.7713165,213.2288 69.7297606,214.2912 68.9606117,215.5584 C86.0036702,223.2352 103.146077,230.6912 120.179521,238.384 C121.563989,239.0944 123.012553,238.2368 124.249601,237.6256 C126.742926,236.2944 129.226636,234.9408 131.691117,233.552 C137.055931,230.3264 142.478431,227.1808 147.721463,223.7568 C143.574468,223.3696 139.39863,222.9312 135.418285,221.6352 C126.015439,218.816 117.292008,213.0048 111.968856,204.6592 C109.106981,200.432 107.347553,195.5712 106.11371,190.6528 C105.469548,188.1504 105.334947,185.568 105.024082,183.0144 C102.34488,184.624 99.9797473,186.6912 97.4607846,188.5344 Z" id="Shape"></path>
                <path d="M145.256981,84.5696 C146.474801,83.8848 148.102832,83.7504 149.314242,84.5248 C150.230811,85.136 150.483989,86.3328 150.387846,87.3664 C150.227606,89.4816 148.788657,91.3312 146.968338,92.3392 C144.481423,93.7248 141.606729,94.3584 138.773697,94.3264 C139.254415,91.8848 140.485053,89.6544 141.96887,87.68 C142.895053,86.4896 143.930199,85.328 145.256981,84.5696 Z" id="Shape"></path>
                <path d="M79.3921941,123.8656 C82.3117553,123.8016 85.2345213,123.8496 88.1540824,123.8336 C89.1347473,123.7952 90.4134574,124.0544 90.6538165,125.1808 C90.8845612,126.4928 90.9005851,127.8816 90.6025399,129.184 C90.2403989,130.3488 88.8206782,130.384 87.8111702,130.4 C85.0037766,130.3552 82.1931782,130.4672 79.3889894,130.3328 C79.2832314,128.1792 79.273617,126.016 79.3921941,123.8656 Z" id="Shape"></path>
                <path d="M99.0311303,123.8816 C101.710332,123.7888 104.389535,123.84 107.068737,123.8464 C107.321915,124.4928 107.530226,125.1552 107.687261,125.8368 C104.655532,125.968 101.614189,125.9552 98.5824601,125.8432 C98.7106516,125.1808 98.8612766,124.528 99.0311303,123.8816 Z" id="Shape"></path>
            </g>
            <g id="#08519bff" transform="translate(0.000000, 3.840000)" fill="#08519B">
                <path d="M15.3925931,4.1664 C16.3860771,2.832 17.4244282,1.5296 18.5108511,0.272 C17.7801596,2.56 17.8122074,4.9856 17.8506649,7.36 C17.8955319,21.232 17.8090027,35.1008 17.8955319,48.9728 C15.4791223,48.8928 13.043484,48.7328 10.6398936,49.0464 C6.94156915,49.6064 4.35530585,53.3216 4.40337766,56.9408 C4.38735372,87.2416 4.40337766,117.5424 4.39696809,147.8432 C4.3937633,150.208 4.24954787,152.5728 4.40017287,154.9376 C6.44482713,154.3936 8.35808511,153.488 10.3258245,152.736 C13.2133378,151.6256 16.0912367,150.4864 18.9819548,149.3856 C20.0908112,155.9424 22.0617553,162.3296 24.3948404,168.5504 C28.1893085,178.336 33.5028457,187.5744 40.306609,195.5872 C47.0590957,203.6064 55.12875,210.4416 63.7944947,216.3168 C79.9402128,227.2352 97.7940824,235.2224 115.340293,243.5776 C117.064468,244.3552 118.670066,245.5232 120.560891,245.856 C122.038298,245.6864 123.268936,244.7168 124.595718,244.1152 C136.193843,238.5888 147.891316,233.248 159.201011,227.1424 C169.398644,221.6576 179.295027,215.5136 188.191516,208.0736 C191.633457,205.2352 194.751715,202.0384 197.869973,198.8576 C201.875957,194.5536 205.417247,189.8304 208.54512,184.8576 C210.942301,181.136 212.833125,177.12 214.759202,173.1392 C218.130638,165.5584 220.598324,157.5584 222.062912,149.3952 C226.963032,151.1904 231.754189,153.2736 236.683152,154.9792 C236.587008,122.304 236.679947,89.6256 236.63508,56.9472 C236.715199,53.2864 234.112912,49.5712 230.363311,49.04 C227.959721,48.7296 225.524082,48.896 223.107673,48.9792 C223.245479,34.4672 223.098059,19.952 223.184588,5.44 C223.190997,3.6896 223.021144,1.9328 222.524402,0.2496 C223.630053,1.488 224.655585,2.8 225.64266,4.1344 C226.623324,5.4176 226.648963,7.1008 226.671396,8.6432 C226.642553,20.992 226.661782,33.3408 226.706649,45.6896 C229.366622,45.9872 232.231702,45.2896 234.699388,46.6208 C237.84008,48.2368 240.602606,51.3376 240.666702,55.0176 C240.717979,58.656 240.580173,62.2944 240.717979,65.9296 C240.945519,68.6944 240.833351,71.4688 240.855785,74.24 C240.858989,100.2656 240.84617,126.2912 240.862194,152.3168 C240.836556,154.3072 241.086529,156.528 239.881529,158.256 C238.772673,159.7536 236.641489,159.648 235.023072,159.2384 C231.74137,158.3232 228.629521,156.8896 225.360638,155.9392 C223.703763,160.8448 222.117394,165.7792 220.181702,170.5888 C217.681968,176.8064 215.025199,183.0176 211.349309,188.6496 C206.176782,196.6944 199.799255,203.9328 192.675013,210.3072 C183.986835,218.1024 174.241077,224.6304 164.136383,230.4352 C150.326955,238.368 135.828497,245.0048 121.455027,251.8304 C120.365399,252.5056 119.253338,251.6288 118.253444,251.2064 C97.7428059,241.4144 76.7995213,232.0128 58.4232713,218.4608 C46.1232979,209.4208 35.156516,198.2912 27.5098936,185.0176 C24.1512766,178.9024 21.5041223,172.4288 19.0909176,165.8944 C17.8282314,162.6144 16.8956383,159.2192 15.665,155.9328 C12.4986702,156.8992 9.45732713,158.2368 6.28458777,159.1808 C4.70142287,159.5776 2.70804521,159.8304 1.43894947,158.5664 C0.205106383,157.2384 0.230744681,155.296 0.224335106,153.6 C0.259587766,125.2288 0.217925532,96.8544 0.246768617,68.48 C0.557632979,63.8944 0.35893617,59.2928 0.413417553,54.7008 C0.429441489,52.56 1.61200798,50.6272 3.02531915,49.1008 C4.75269947,47.3184 7.04412234,45.8688 9.59192819,45.7888 C11.1686835,45.728 12.7518484,45.8336 14.3286037,45.712 C14.3670612,40.7136 14.3189894,35.7152 14.3382181,30.7168 C14.520891,23.68 14.4087234,16.64 14.4247473,9.6 C14.4535904,7.7728 14.2132314,5.7184 15.3925931,4.1664 Z" id="Shape"></path>
                <path d="M65.4545745,22.7264 C65.5891755,18.9856 68.4542553,15.4752 72.1621941,14.7552 C75.552859,14.016 79.3120745,15.52 81.1836702,18.4512 C82.330984,20.1728 82.6386436,22.2912 82.6162101,24.32 C82.632234,29.904 80.2959441,35.4688 76.2226596,39.3088 C71.0917952,44.2848 63.2272473,46.448 56.3433644,44.2784 C58.8719415,43.984 61.5223005,43.6544 63.6470745,42.1248 C66.0763032,40.5088 67.5344814,37.712 67.9158511,34.8672 C68.2555585,32.1152 67.2204122,29.4592 66.2589761,26.9344 C65.7269814,25.6 65.3456117,24.176 65.4545745,22.7264 Z M71.1046144,15.8272 C74.0305851,15.632 77.1167952,16.368 79.2768218,18.4384 C80.6324468,19.6768 81.1195745,21.4976 81.9432048,23.072 C81.7092553,20.5216 80.4882314,17.9712 78.2224468,16.6304 C76.155359,15.1744 73.4633378,15.28 71.1046144,15.8272 Z" id="Shape"></path>
            </g>
            <g id="#ffffffff" transform="translate(4.166223, 4.160000)" fill="#FFFFFF">
                <path d="M20.5587101,1.3312 C21.5425798,0.3392 23.0103723,0.128 24.3435638,0.0864 C85.6735771,0.0832 147.00359,0.0896 208.333604,0.0832 C210.038551,0.0672 211.99988,0.5792 212.833125,2.2144 C213.861862,4.3008 213.538178,6.7136 213.59266,8.96 C213.698418,22.176 213.861862,35.392 213.916343,48.6048 C215.586037,48.8 217.268551,48.7616 218.941449,48.6592 C221.357859,48.576 223.793497,48.4096 226.197088,48.72 C229.946689,49.2512 232.548976,52.9664 232.468856,56.6272 C232.513723,89.3056 232.420785,121.984 232.516928,154.6592 C227.587965,152.9536 222.796809,150.8704 217.896689,149.0752 C218.034495,147.808 218.239601,146.5504 218.566489,145.3184 C221.886649,146.0704 225.123484,147.152 228.42121,148.0032 C228.328271,141.8656 228.357114,135.728 228.344295,129.5872 C228.219309,125.4336 228.276995,121.2768 228.26738,117.12 C228.129574,97.2736 228.05266,77.4304 227.956516,57.5872 C227.988564,56.2944 227.687314,54.8864 226.61371,54.0544 C224.838258,52.5024 222.319295,53.0496 220.168883,52.9664 C150.945479,52.9728 81.7220745,52.9728 12.4986702,52.9664 C10.3514628,53.04 7.83570479,52.512 6.0762766,54.0768 C4.73988032,55.152 4.71744681,56.9984 4.70783245,58.56 C4.78154255,68.3776 4.60848404,78.1952 4.65655585,88.0128 C4.49952128,93.7664 4.60848404,99.5232 4.56361702,105.28 C4.37132979,111.7856 4.60207447,118.2976 4.40978723,124.8032 C4.36171543,130.3488 4.4674734,135.8976 4.3424867,141.4432 C4.3424867,143.5904 4.26236702,145.744 4.40978723,147.8944 C7.73956117,147.2416 10.905891,145.9424 14.248484,145.3536 C14.4824335,146.5824 14.6651064,147.8208 14.8157314,149.0656 C11.9250133,150.1664 9.04711436,151.3056 6.15960106,152.416 C4.1918617,153.168 2.27860372,154.0736 0.233949468,154.6176 C0.0833244681,152.2528 0.227539894,149.888 0.230744681,147.5232 C0.237154255,117.2224 0.221130319,86.9216 0.237154255,56.6208 C0.189082447,53.0016 2.77534574,49.2864 6.47367021,48.7264 C8.87726064,48.4128 11.3128989,48.5728 13.7293085,48.6528 C15.4118218,48.7584 17.1039495,48.8 18.783258,48.6144 C18.9018351,34.3264 19.0492553,20.0384 19.1518085,5.7536 C19.2062899,4.2048 19.3953723,2.4768 20.5587101,1.3312 Z M59.94875,5.7376 C56.7343484,5.9712 53.6417287,7.4368 51.2509574,9.5712 C49.3793617,11.3632 47.703258,13.6672 47.5269947,16.336 C47.3827793,18.0832 48.2256383,19.8208 49.6133112,20.8736 C52.1258644,22.8256 55.4139761,23.408 57.929734,25.36 C58.9136037,26.112 59.5513564,27.1936 60.2596144,28.1888 C60.6634176,23.7344 57.0003457,20.1184 57.3560771,15.6704 C57.4970878,12.8192 59.3270213,10.2336 61.8684176,8.9856 C64.3328989,7.6192 67.2075931,7.6 69.9444814,7.6448 C68.2972207,6.5824 66.4031915,5.8912 64.4546809,5.6672 C62.9644548,5.6192 61.4005186,5.2832 59.94875,5.7376 Z M37.7107314,28.6144 C38.604867,33.0432 41.1238298,37.0656 44.5657713,39.9776 C46.2482846,41.4656 48.3217819,42.688 50.6324335,42.72 C53.6064761,42.9248 56.574109,41.3856 58.2213697,38.928 C60.5352261,35.6 59.842992,30.7072 56.9138165,27.9712 C55.641516,26.7232 53.92375,26.1312 52.2861037,25.5328 C50.0940293,24.7072 47.8474734,23.7408 46.2226463,21.9936 C44.0818484,19.6416 42.928125,16.3008 43.591516,13.1456 C43.9953191,10.8256 45.3894016,8.8736 46.7097739,6.9888 C39.5566888,11.3664 35.9160505,20.4864 37.7107314,28.6144 Z M112.927088,9.4144 C111.023444,9.936 109.283245,10.9888 107.873138,12.3552 C104.847819,15.3088 103.450532,19.5424 103.142872,23.6768 C102.748684,28.6912 103.569109,34.0544 106.610452,38.1888 C108.748045,41.1488 112.273311,43.2768 116.010093,43.0528 C120.009668,43.008 123.490066,40.3008 125.464215,36.976 C128.082527,32.512 128.595293,27.1008 127.915878,22.0512 C127.306968,17.6992 125.271928,13.296 121.480665,10.8448 C119.016184,9.1264 115.811396,8.7328 112.927088,9.4144 Z M159.399707,9.4304 C156.845492,10.1344 154.618165,11.8144 153.047819,13.9232 C150.057753,17.984 149.311037,23.2672 149.692407,28.1856 C150.067367,32.8768 151.826795,37.7696 155.634082,40.7584 C158.566463,43.1584 162.851263,43.7568 166.318843,42.2208 C169.45633,40.8384 171.770186,38.032 173.084149,34.928 C174.811529,30.7424 175.103165,26.0736 174.436569,21.6288 C173.744335,17.4112 171.70609,13.1648 168.004561,10.8032 C165.514441,9.1072 162.29363,8.736 159.399707,9.4304 Z M180.980745,11.1168 C177.868896,13.4688 176.663896,17.6736 177.28242,21.4208 C177.686223,23.7728 179.17004,25.7856 180.900625,27.3632 C182.25625,28.6752 183.951582,29.6672 185.025186,31.2448 C185.957779,32.6016 184.986729,34.7904 183.294601,34.8608 C181.022407,34.976 179.327074,33.2224 177.471503,32.1952 C177.359335,35.3152 177.330492,38.448 177.474707,41.5648 C181.006383,43.1584 185.384122,43.7024 188.858112,41.68 C193.742207,38.88 195.652261,32.16 193.293537,27.12 C192.258391,24.9664 190.329109,23.456 188.42867,22.1024 C187.409548,21.3344 186.201343,20.4704 186.015465,19.1072 C185.906503,17.8112 187.226875,16.8512 188.444694,16.9472 C190.479734,16.9088 192.082128,18.304 193.546715,19.5328 C193.521077,16.5728 193.636449,13.6128 193.479415,10.656 C189.643285,8.672 184.515625,8.3168 180.980745,11.1168 Z M86.4267021,9.6448 C86.2568484,11.44 86.352992,13.2416 86.3401729,15.04 C86.3305585,23.5712 86.3369681,32.1056 86.3209441,40.64 C86.3273537,41.184 86.3722207,41.7312 86.4106782,42.2752 C89.6507181,42.4096 92.8971676,42.2912 96.143617,42.3264 C98.1273803,42.2976 100.120758,42.4544 102.098112,42.2048 C102.098112,39.6672 102.098112,37.1328 102.098112,34.5984 C99.819508,34.304 97.5216755,34.5696 95.2366622,34.464 C95.0828324,26.1952 95.2334574,17.92 95.134109,9.648 C92.2337766,9.5968 89.3270346,9.6064 86.4267021,9.6448 Z M129.521476,9.648 C129.473404,12.304 129.460585,14.9664 129.524681,17.6224 C131.168737,17.7344 132.815997,17.632 134.463258,17.712 C134.514535,25.8976 134.3575,34.0896 134.524149,42.2752 C137.421277,42.3712 140.324814,42.3776 143.221941,42.272 C143.353338,34.0768 143.129003,25.8784 143.298856,17.6832 C144.90766,17.648 146.519668,17.728 148.128471,17.6288 C148.253457,14.9728 148.256662,12.3072 148.125266,9.6512 C141.924003,9.6032 135.722739,9.6096 129.521476,9.648 Z M61.2883511,22.4064 C61.1793883,23.856 61.560758,25.28 62.0927527,26.6144 C63.0541888,29.1392 64.0893351,31.7952 63.7496277,34.5472 C63.368258,37.392 61.9100798,40.1888 59.4808511,41.8048 C57.3560771,43.3344 54.7057181,43.664 52.177141,43.9584 C59.0610239,46.128 66.9255718,43.9648 72.0564362,38.9888 C76.1297207,35.1488 78.4660106,29.584 78.4499867,24 C78.4724202,21.9712 78.1647606,19.8528 77.0174468,18.1312 C75.1458511,15.2 71.3866356,13.696 67.9959707,14.4352 C64.2880319,15.1552 61.4229521,18.6656 61.2883511,22.4064 Z" id="Shape"></path>
                <path d="M66.938391,15.5072 C69.2971144,14.96 71.9891356,14.8544 74.0562234,16.3104 C76.322008,17.6512 77.5430319,20.2016 77.7769814,22.752 C76.9533511,21.1776 76.4662234,19.3568 75.1105984,18.1184 C72.9505718,16.048 69.8643617,15.312 66.938391,15.5072 Z" id="Shape"></path>
                <path d="M114.830731,17.3344 C116.221609,16.6592 117.545186,17.9296 117.961809,19.1776 C118.984136,21.9296 119.057846,24.9344 118.945678,27.8368 C118.785439,29.8592 118.654043,32.0512 117.455452,33.7696 C116.679894,34.88 114.898032,35.04 113.987872,34.0096 C112.731596,32.5632 112.51367,30.5472 112.324588,28.7168 C112.170758,25.8912 112.14512,22.9984 112.875811,20.24 C113.228338,19.1328 113.689827,17.8528 114.830731,17.3344 Z" id="Shape"></path>
                <path d="M161.31617,17.3504 C162.476303,16.7104 163.803085,17.584 164.296622,18.6688 C165.402274,20.8992 165.530465,23.4592 165.604176,25.9072 C165.591356,28.24 165.488803,30.6528 164.581848,32.8352 C164.142793,33.9584 162.985864,34.9984 161.707154,34.6784 C160.319481,34.3328 159.710572,32.8544 159.358045,31.6128 C158.627354,28.7104 158.640173,25.664 158.963856,22.704 C159.28754,20.8128 159.527899,18.464 161.31617,17.3504 Z" id="Shape"></path>
                <path d="M123.377899,115.5936 C125.047593,115.0016 126.742926,114.4736 128.460691,114.0416 C128.678617,114.6976 128.86129,115.3664 128.877314,116.064 C127.185186,116.5728 125.525106,117.2384 123.759269,117.4624 C123.618258,116.8416 123.490066,116.2176 123.377899,115.5936 Z" id="Shape"></path>
                <path d="M64.1694548,118.4768 C65.2558777,117.4432 66.8454521,117.36 68.2651729,117.3472 C71.2584441,117.3568 74.2517154,117.3536 77.2481915,117.344 C77.8795346,117.4176 78.7352128,117.2192 79.1197872,117.8752 C79.3761702,118.4064 79.1486303,118.9792 79.0140293,119.5104 C75.1266223,119.9392 71.1975532,119.504 67.3005319,119.7184 C66.4929255,119.728 65.6596809,120.224 65.5026463,121.0592 C65.281516,122.352 65.2526729,123.712 65.5411037,124.9952 C65.9352926,126.2624 67.4992287,126.224 68.5824468,126.2432 C71.335359,126.1568 74.1010904,126.3776 76.8475931,126.1216 C76.8443883,125.4656 76.8411835,124.8128 76.8411835,124.16 C74.7740957,123.9232 72.6877793,124.2272 70.6238963,124.0032 C69.8739761,123.9072 69.8579521,122.96 69.9829388,122.3904 C70.2713697,121.68 71.1655053,121.8496 71.7776197,121.7664 C73.5979388,121.7696 75.4214628,121.696 77.2353723,121.824 C78.0814362,121.8432 79.017234,122.3168 79.1326064,123.2384 C79.334508,124.5728 79.3601463,125.968 79.0845346,127.296 C78.8409707,128.2304 77.767367,128.4768 76.924508,128.4672 C74.1459574,128.5024 71.3642021,128.4384 68.5824468,128.4832 C67.0409441,128.4928 65.2558777,128.5504 64.0861303,127.3696 C62.9131782,126.2016 62.9804787,124.4128 62.9548404,122.88 C62.9836835,121.3664 62.9452261,119.5808 64.1694548,118.4768 Z" id="Shape"></path>
                <path d="M81.2445612,117.5904 C82.0329388,117.4208 82.8341356,117.3152 83.641742,117.3376 C86.5260505,117.3728 89.410359,117.344 92.2946676,117.3504 C93.6855452,117.3696 95.2687101,117.4976 96.2718085,118.5888 C97.4479654,119.8144 97.3582314,121.632 97.3678457,123.2064 C97.3678457,124.7296 97.3133644,126.528 96.0186303,127.5712 C94.4226463,128.8256 92.2594149,128.4064 90.375,128.4736 C87.4105718,128.3712 84.4237101,128.6592 81.4753059,128.3424 C80.8087101,127.4272 81.1580319,126.176 81.0682979,125.12 C81.1708511,122.6112 80.8888298,120.0832 81.2445612,117.5904 Z M83.5584176,119.7056 C83.4398404,121.856 83.4494548,124.0192 83.5552128,126.1728 C86.3594016,126.3072 89.17,126.1952 91.9773936,126.24 C92.9869016,126.224 94.4066223,126.1888 94.7687633,125.024 C95.0668085,123.7216 95.0507846,122.3328 94.8200399,121.0208 C94.5796809,119.8944 93.3009707,119.6352 92.3203059,119.6736 C89.4007447,119.6896 86.4779787,119.6416 83.5584176,119.7056 Z" id="Shape"></path>
                <path d="M101.364215,118.2144 C101.569322,117.3984 102.489096,117.36 103.178125,117.3504 C105.533644,117.3248 107.889162,117.3824 110.244681,117.3376 C111.142021,117.36 112.087434,117.2672 112.930293,117.6384 C113.699441,119.1936 113.837247,120.9728 114.314761,122.6304 C114.673697,124.5152 115.510146,126.3552 115.337088,128.3104 C114.648059,128.4512 113.628936,128.6976 113.279614,127.8656 C112.750824,126.672 112.580971,125.36 112.14512,124.1376 C108.860213,124.0384 105.562487,124.0064 102.27758,124.1536 C101.953896,125.3728 101.841729,126.6464 101.409082,127.8336 C101.13988,128.7424 100.027819,128.416 99.3387899,128.3424 C99.0535638,126.8032 99.6752926,125.3216 99.9765426,123.84 C100.476489,121.9712 100.723258,120.0384 101.364215,118.2144 Z M103.197354,119.7216 C103.0275,120.368 102.876875,121.0208 102.748684,121.6832 C105.780412,121.7952 108.821755,121.808 111.853484,121.6768 C111.696449,120.9952 111.488138,120.3328 111.23496,119.6864 C108.555758,119.68 105.876556,119.6288 103.197354,119.7216 Z" id="Shape"></path>
                <path d="M117.436223,117.5488 C118.054747,117.3248 118.721343,117.312 119.285386,117.696 C123.233684,120.0704 127.073019,122.6464 131.101436,124.8832 C131.290519,122.6592 131.011702,120.4224 131.229628,118.2048 C131.41871,117.1584 132.691011,117.296 133.431316,117.6256 C133.655652,119.3696 133.537074,121.1296 133.553098,122.88 C133.543484,124.6496 133.636423,126.4256 133.466569,128.192 C132.77754,128.5984 131.957114,128.5376 131.296928,128.1056 C127.419136,125.7696 123.695173,123.1776 119.772513,120.9216 C119.503311,123.376 120.025691,125.8848 119.474468,128.3104 C118.862354,128.4384 118.240625,128.4832 117.622101,128.4384 C117.083697,127.184 117.330465,125.7984 117.288803,124.48 C117.365718,122.1696 117.128564,119.8464 117.436223,117.5488 Z" id="Shape"></path>
                <path d="M136.027194,118.5248 C136.738657,117.6 137.982114,117.4688 139.065332,117.4432 C141.747739,117.3952 144.430146,117.504 147.109348,117.3984 C148.551503,117.3504 150.0225,117.2128 151.432606,117.6096 C151.483883,118.2336 151.483883,118.8608 151.419787,119.488 C146.958723,120.0416 142.420745,119.3344 137.953271,119.8464 C137.927633,120.4192 137.539854,121.1744 138.148763,121.5808 C138.526928,121.7888 138.982008,121.7504 139.401835,121.7824 C142.286144,121.7952 145.173657,121.728 148.057965,121.7792 C149.227713,121.808 150.644229,122.0448 151.23391,123.1968 C151.826795,124.4448 151.820386,126.032 151.118537,127.232 C150.483989,128.2624 149.182846,128.4896 148.06758,128.48 C145.394787,128.4832 142.721995,128.4544 140.049202,128.4736 C138.558976,128.4672 137.055931,128.5792 135.584934,128.2912 C135.41508,127.6736 135.40867,127.0464 135.56891,126.4288 C139.850505,125.9392 144.196197,126.5056 148.487407,126.16 C149.381543,126.016 149.262965,125.0208 149.170027,124.3584 C148.599574,124.224 148.025918,124.064 147.439441,124.0672 C144.436556,124.0352 141.43367,124.128 138.433989,124.0608 C137.328338,124.0416 136.081676,123.5584 135.674668,122.4448 C135.251636,121.1872 135.209973,119.6352 136.027194,118.5248 Z" id="Shape"></path>
                <path d="M153.608657,117.8688 C154.060532,117.152 154.970691,117.3888 155.653311,117.5328 C155.925718,118.8544 155.82637,120.208 155.852008,121.5456 C159.934907,120.2912 163.934481,118.7616 168.014176,117.4912 C169.055731,117.0112 169.975505,118.1664 169.715918,119.152 C166.004774,120.5856 162.133391,121.5776 158.345332,122.7968 C158.675426,123.04 159.027952,123.248 159.44137,123.3408 C162.155824,124.1248 164.838231,125.0208 167.549481,125.8208 C168.248125,126.0512 168.991636,126.2304 169.600545,126.6688 C169.972301,127.232 169.600545,127.952 169.135851,128.3328 C168.498098,128.544 167.844322,128.2176 167.229003,128.0672 C164.110745,127.0208 160.979668,126.0128 157.874229,124.9312 C157.217247,124.704 156.537832,124.56 155.861622,124.432 C155.839189,125.7248 155.864827,127.024 155.701383,128.3104 C155.041197,128.4 154.259229,128.6784 153.688777,128.1824 C153.32984,126.768 153.55738,125.2832 153.509309,123.84 C153.573404,121.8496 153.358684,119.8464 153.608657,117.8688 Z" id="Shape"></path>
            </g>
            <g id="#ffe809ff" transform="translate(35.573138, 9.600000)">
                <path d="M28.5418351,0.2976 C29.9936037,-0.1568 31.5575399,0.1792 33.047766,0.2272 C32.5766622,0.2528 32.1055585,0.2912 31.6376596,0.336 C32.2017021,0.5312 32.7657447,0.7232 33.332992,0.9024 C31.6408644,0.8288 29.8525931,0.8416 28.3367287,1.6992 C26.8785505,2.4128 25.9107048,3.7824 24.5743085,4.656 C23.5199335,4.6336 22.6418218,3.9584 21.7669149,3.4528 C23.8179787,1.568 26.6253723,1.0816 29.2308644,0.4352 C29.0578059,0.4 28.7148936,0.3328 28.5418351,0.2976 Z" id="Shape" fill="#B71525"></path>
                <path d="M8.85482713,9.4624 C9.64,7.5456 10.9475532,5.8496 12.5146941,4.4992 C11.8128457,5.9776 10.8738431,7.3792 10.5854122,9.0176 C10.3226197,10.2688 10.6078457,11.536 10.7744947,12.7776 C9.87715426,11.8912 8.27155585,10.9472 8.85482713,9.4624 Z" id="Shape" fill="#B71525"></path>
                <path d="M25.3434574,53.136 C28.9103856,52.3488 32.7945878,53.0656 35.8102926,55.1328 C39.9316489,57.888 42.3063963,63.0112 41.633391,67.936 C41.2872739,67.824 40.9379521,67.7184 40.5886303,67.6224 C40.0630452,65.5104 40.1143218,63.2192 38.9445745,61.3088 C36.6403324,56.9152 30.9069681,54.816 26.298484,56.6528 C21.3182447,58.3872 18.3249734,64.2848 20.0042819,69.3088 C20.590758,71.7312 22.4367154,73.456 24.1160239,75.1648 C22.5681117,75.584 20.8567553,75.7536 19.3505053,75.0912 C17.5365957,74.3232 16.2899335,72.6368 15.5816755,70.8512 C14.069016,66.9504 14.6747207,62.3488 16.9917819,58.8864 C18.8986303,55.9968 21.9527926,53.8688 25.3434574,53.136 Z" id="Shape" fill="#FFE809"></path>
                <path d="M67.9671277,57.0944 C74.770891,56.4576 81.6163165,56.416 88.4425133,56.5536 C90.2083511,56.6816 92.0350798,56.5696 93.7464362,57.0816 C95.1437234,58.2144 95.8840293,59.9808 96.2141223,61.712 C92.3555585,62.0256 88.4809707,62.1344 84.6127926,62.1792 C83.5584176,62.0896 83.4558644,63.3856 83.0744947,64.0832 C78.9082713,75.1584 75.1041888,86.3872 72.0756649,97.824 C69.7874468,97.3184 67.3678324,96.4448 65.9032447,94.5184 C64.6373537,92.7904 65.0571809,90.496 65.6853191,88.608 C68.0921144,81.4528 71.0725665,74.5088 74.1107048,67.6032 C74.860625,65.8464 75.7675798,64.1504 76.3604654,62.3296 C73.248617,62.096 70.0598537,62.5664 67.0153059,61.7152 C65.1180718,61.184 63.5733644,59.7088 62.8907447,57.872 C64.5315957,57.3504 66.2653856,57.2864 67.9671277,57.0944 Z" id="Shape" fill="#FFE809"></path>
                <path d="M146.128684,60.7904 C148.06758,58.9056 150.375027,56.9888 153.192035,56.816 C155.787912,56.9216 158.274827,58.6496 159.271516,61.056 C153.291383,62.6176 148.432926,67.0432 145.506955,72.3776 C147.622114,72.5408 149.785346,72.1728 151.865253,72.6496 C152.919628,73.3536 153.377912,74.6272 153.800944,75.7696 C150.391051,76.6944 146.833737,76.544 143.346928,76.8352 C142.206024,79.4304 141.558657,82.2016 140.824761,84.928 C139.033285,92.3008 137.725731,99.952 138.629481,107.5488 C135.950279,106.416 134.104322,103.8848 133.264668,101.168 C132.219907,97.8336 132.437832,94.2592 132.947394,90.848 C133.45375,87.6128 134.312633,84.4416 135.312527,81.328 C135.831702,79.6448 136.591237,78.048 137.052726,76.3456 C135.370213,75.7632 133.82871,74.7392 132.982646,73.1296 C134.857447,72.9568 136.748271,72.9984 138.619867,72.7776 C140.802327,68.608 142.725199,64.1536 146.128684,60.7904 Z" id="Shape" fill="#FFE809"></path>
                <path d="M165.145891,58.3232 C166.937367,58.8736 168.728843,59.9392 169.606955,61.6512 C170.321622,63.264 169.385824,64.9184 168.69359,66.3552 C167.062354,69.5936 165.854149,73.0176 164.649149,76.4256 C162.389774,82.5696 161.204003,89.1296 161.386676,95.68 C161.402699,96.64 161.421928,97.6032 161.409109,98.5632 C158.649787,97.4496 156.573085,94.9504 155.803936,92.0992 C154.810452,88.5024 155.445,84.7168 156.287859,81.1552 C157.713989,75.3952 159.89004,69.8528 162.258378,64.4224 C163.194176,62.3776 164.059468,60.2944 165.145891,58.3232 Z" id="Shape" fill="#FFE809"></path>
                <path d="M0.743510638,79.4656 C2.36513298,74.4576 7.24922872,70.672 12.5307181,70.448 C12.2294681,71.84 10.6879654,72.08 9.60474734,72.6336 C6.28779255,74.0512 3.79767287,77.3216 3.56692819,80.9504 C3.22081117,84.9408 5.63722074,88.944 9.29708777,90.5536 C12.6172473,91.9872 16.7129654,91.5264 19.5844548,89.3056 C20.7894548,88.3648 21.6643617,87.0944 22.7475798,86.0288 C22.3598005,87.7792 21.779734,89.4912 21.5361702,91.2736 C21.3695213,92.4896 21.2605585,93.7152 21.042633,94.9248 C18.2063963,96.9376 14.5433245,97.5904 11.1398404,97.0432 C7.14667553,96.3744 3.57013298,93.76 1.65367021,90.2144 C-0.134601064,86.9632 -0.455079787,82.9696 0.743510638,79.4656 Z" id="Shape" fill="#FFE809"></path>
                <path d="M87.8720612,70.3904 C89.4327926,70.6784 91.0800532,71.2192 92.1184043,72.4864 C92.8875532,73.4624 92.6215559,74.8 92.3747872,75.9168 C91.8459973,77.8944 91.233883,79.8688 91.067234,81.92 C93.2689229,78.8384 94.9290027,75.264 97.951117,72.848 C99.6144016,71.3952 102.098112,70.7936 104.168404,71.6864 C105.312513,72.1888 106.052819,73.2768 106.424574,74.4384 C101.989149,75.0112 97.6594814,77.0944 94.9322074,80.7136 C91.4614229,85.248 90.721117,91.136 90.2275798,96.6528 C86.2664628,95.3216 83.7250665,91.1552 83.9558112,87.0464 C84.1673271,81.3216 85.5453856,75.6192 87.8720612,70.3904 Z" id="Shape" fill="#FFE809"></path>
                <path d="M39.2842819,71.5296 C42.7935239,70.192 46.8507846,70.4352 50.1933777,72.144 C54.1096277,74.1504 56.9426596,78.1728 57.4073537,82.5568 C57.779109,85.6288 57.0355984,88.816 55.3434707,91.4112 C53.1353723,94.8768 49.254375,97.1712 45.1586569,97.4784 C40.4380053,97.9296 35.2494548,95.9392 32.8106117,91.7184 C31.525492,89.568 31.1216888,86.4896 32.7945878,84.4384 C33.5925798,87.456 35.5314761,90.2464 38.4606516,91.5168 C42.4506117,93.4464 47.6007048,92.08 50.2254255,88.5504 C52.2572606,85.9104 52.7507979,82.208 51.5105452,79.1232 C50.7381915,77.1872 49.3505186,75.4976 47.5718617,74.4 C44.540133,72.4672 40.3835239,72.4416 37.3646144,74.4224 C36.3390824,75.1008 35.2142021,75.8528 33.9162633,75.4944 C35.1020346,73.5424 37.2203989,72.3616 39.2842819,71.5296 Z" id="Shape" fill="#FFE809"></path>
                <path d="M113.382168,73.5328 C115.82742,72.0928 118.599561,71.008 121.47746,71.0432 C123.784907,71.0784 126.22375,71.9008 127.678723,73.776 C129.114468,75.5488 129.393285,78.2752 128.056888,80.1824 C126.649987,82.1856 124.384202,83.36 122.150465,84.2208 C118.663657,85.5616 114.904441,85.8272 111.218936,86.1344 C111.077926,88.0576 111.222141,90.2176 112.622633,91.696 C114.103245,93.3312 116.529269,93.4368 118.570718,93.1296 C121.881263,92.6784 124.749548,90.8768 127.621037,89.3088 C127.871011,91.2128 126.922394,93.0688 125.348843,94.1184 C121.605652,96.6976 116.894614,98.1152 112.347021,97.4176 C109.594109,97.0048 106.873245,95.5968 105.36379,93.1936 C103.78383,90.8032 103.521037,87.7056 104.370306,85.0048 C105.879761,80.2752 109.094162,76.0736 113.382168,73.5328 Z M118.01629,74.9696 C116.689508,75.728 115.654362,76.8896 114.728178,78.08 C113.244362,80.0544 112.013723,82.2848 111.533005,84.7264 C114.366037,84.7584 117.240731,84.1248 119.727646,82.7392 C121.547965,81.7312 122.986915,79.8816 123.147154,77.7664 C123.243298,76.7328 122.99012,75.536 122.073551,74.9248 C120.862141,74.1504 119.234109,74.2848 118.01629,74.9696 Z" id="Shape" fill="#FFE809"></path>
                <path d="M24.8178723,92.2944 C25.8209707,88.416 27.0964761,84.4896 29.4231516,81.1808 C29.1219016,83.5456 28.6475931,85.8976 28.6347739,88.2912 C28.4296676,92.9504 29.5994149,97.5072 30.7659574,101.9776 C28.8014229,101.6 26.5612766,101.2608 25.1703989,99.6864 C23.6513298,97.504 24.3019016,94.6976 24.8178723,92.2944 Z" id="Shape" fill="#FFE809"></path>
                <path d="M98.7266755,131.088 C102.152593,130.9504 105.568896,130.6112 108.998019,130.7136 C107.033484,131.504 104.98242,132.0736 103.062753,132.9792 C100.899521,133.9232 98.8773005,135.1424 96.8358511,136.3168 C97.499242,135.6864 98.1594282,135.0528 98.7811569,134.384 C91.7274202,135.2256 84.7217553,136.4864 77.7321144,137.7536 C56.5612899,141.6928 35.5603191,146.9024 15.4182314,154.5728 C12.396117,153.2224 9.26824468,152.0736 6.38393617,150.4416 C7.18192819,149.4336 8.01837766,148.4448 8.99583777,147.6032 C9.25863032,147.4272 9.53744681,147.2864 9.83549202,147.1808 C38.4157846,137.2736 68.5920612,132.6784 98.7266755,131.088 Z" id="Shape" fill="#FFE809"></path>
                <path d="M104.367101,136.0352 C115.042247,131.1552 127.983178,131.5232 138.325027,137.1008 C142.356649,139.2992 146.160731,142.0768 149.073883,145.6512 C147.292021,145.1232 145.612713,144.3136 143.85008,143.7344 C138.632686,141.984 133.107633,140.96 127.585785,141.2672 C122.051117,141.5776 116.622207,143.0592 111.571463,145.3184 C109.933816,146.016 108.398723,146.9344 106.748258,147.6096 C106.004747,145.4016 105.568896,143.104 105.081769,140.8288 C104.76129,139.2448 104.389535,137.6608 104.367101,136.0352 Z" id="Shape" fill="#FFE809"></path>
                <path d="M97.560133,139.9712 C98.9253723,139.0464 100.239335,137.9648 101.851343,137.4976 C102.354495,142.7488 103.110824,148.0448 105.12984,152.96 C107.280253,158.3328 110.840771,163.0912 115.218511,166.864 C116.465173,167.9872 117.881689,168.896 119.125146,170.0256 C118.513032,174.4096 117.093311,178.6688 115.263378,182.6912 C106.86363,178.6432 100.255359,171.248 96.6627926,162.6976 C94.3553457,157.3024 93.1182979,151.5104 92.4709309,145.6992 C92.4549069,145.1648 92.2914628,144.528 92.7273138,144.1152 C94.140625,142.5248 95.858391,141.2352 97.560133,139.9712 Z" id="Shape" fill="#FFE809"></path>
                <path d="M30.8044149,160.0864 C50.4048936,151.2928 71.139867,145.392 91.942141,140.2016 C90.3846144,141.824 88.6796676,143.312 87.3368617,145.1264 C86.8176862,145.7632 86.3850399,146.5056 85.7024202,146.992 C84.8178989,147.4784 83.8212101,147.7024 82.8725931,148.0256 C67.0441489,153.3984 51.4817021,159.6064 36.5025266,167.0304 C33.5028457,165.8336 30.5480319,164.5248 27.6380851,163.136 C28.3078856,162.2752 29.0001197,161.4176 29.8205452,160.6912 C30.1217952,160.448 30.4615027,160.2592 30.8044149,160.0864 Z" id="Shape" fill="#FFE809"></path>
                <path d="M120.903803,143.7824 C127.194801,142.48 133.787048,142.7008 139.985106,144.3968 C143.808418,145.4464 147.522766,146.896 151.060851,148.688 C152.201755,149.2416 152.794641,150.416 153.422779,151.4528 C154.611755,153.552 155.771888,155.6992 156.454508,158.0256 C151.410173,156.144 146.298537,154.2528 140.898471,153.7088 C133.357606,152.784 125.800718,154.7776 118.952088,157.8272 C116.782447,158.7104 114.757021,159.9232 112.548923,160.7168 C109.699867,157.3792 107.305891,153.3152 106.959774,148.864 C111.347128,146.5568 116.051755,144.8192 120.903803,143.7824 Z" id="Shape" fill="#FFE809"></path>
                <path d="M86.2280053,152.6432 C87.4554388,150.56 88.7277394,148.4704 90.4006383,146.7104 C91.1056915,150.3648 91.6024335,154.0704 92.7465426,157.6288 C94.2239495,162.5664 96.6595878,167.2416 100.047048,171.1456 C104.184428,175.9808 109.411436,179.7088 114.692926,183.1872 C114.375652,184.8448 113.548816,186.336 112.770053,187.8144 C111.414428,190.256 109.651795,192.5344 107.379601,194.1856 C102.49871,191.1328 98.0280319,187.3504 94.4194415,182.8576 C88.2309973,175.2224 85.4332181,165.3504 85.0678723,155.6544 C85.0742819,154.544 85.7248537,153.5872 86.2280053,152.6432 Z" id="Shape" fill="#FFE809"></path>
                <path d="M112.89504,161.3984 C118.339973,157.9488 124.602128,155.7408 131.04375,155.2384 C139.85371,154.5152 148.631622,156.848 156.601928,160.4576 C157.659508,160.8064 157.720399,162.0256 157.960758,162.9408 C158.576077,166.0832 158.999109,169.2928 158.835665,172.5024 C157.207633,172.0256 155.720612,171.1872 154.147061,170.5696 C149.173231,168.5504 143.846875,167.2128 138.450013,167.264 C133.860758,167.3248 129.306755,168.3136 125.034774,169.9744 C123.980399,170.4096 122.935638,170.8704 121.833191,171.1808 C119.907114,169.7024 118.208577,167.9488 116.564521,166.1696 C115.253763,164.6496 113.87891,163.1552 112.89504,161.3984 Z" id="Shape" fill="#FFE809"></path>
                <path d="M61.3556516,164.6528 C67.8325266,161.4208 74.3831117,158.3136 81.081117,155.5712 C80.6356516,157.2864 79.8793218,158.9024 79.440266,160.6208 C79.1999069,161.4368 79.0556915,162.2912 78.6647074,163.0528 C78.2448803,163.6 77.5878989,163.8976 77.014242,164.256 C73.6940824,166.0704 70.5021144,168.1056 67.2460505,170.0352 C64.2495745,168.976 61.4646144,167.424 58.5162101,166.2464 C59.4199601,165.6416 60.3781915,165.1232 61.3556516,164.6528 Z" id="Shape" fill="#FFE809"></path>
                <path d="M81.398391,171.2 C81.4400532,167.0624 82.0329388,162.8896 83.4847074,159.0016 C84.0679787,163.9776 85.0838963,168.9376 87.0099734,173.5808 C89.4007447,179.4496 93.2657181,184.6816 98.0440559,188.8352 C100.598271,191.1424 103.479375,193.0368 106.344455,194.928 C103.694096,197.8016 100.745691,200.4128 97.6723005,202.832 C96.1948936,202.0736 95.0155319,200.8768 93.7816888,199.7952 C85.8818883,192.5536 81.2509707,181.9104 81.398391,171.2 Z" id="Shape" fill="#FFE809"></path>
                <path d="M133.120452,170.2784 C135.165106,169.68 137.321928,169.6544 139.437088,169.6928 C141.782992,169.808 144.167354,170.1888 146.301742,171.2096 C145.962035,177.6928 144.734601,184.1984 142.020146,190.128 C138.72883,197.4208 133.085199,203.4304 126.589096,208.0032 C125.294362,208.8416 124.10859,210.16 122.451715,210.144 C119.461649,210.2048 116.433125,210.2176 113.494335,209.568 C117.362513,206.448 121.201848,203.2256 124.278444,199.296 C127.265306,195.5392 129.454176,191.1744 130.74891,186.56 C132.261569,181.264 132.787154,175.7568 133.120452,170.2784 Z" id="Shape" fill="#FFE809"></path>
                <path d="M119.464854,173.0176 C123.579801,171.3728 127.973564,170.4704 132.376941,170.0576 C132.796769,176.5376 131.476396,183.1264 128.688231,188.9952 C124.893763,196.9632 118.484189,203.3888 111.375971,208.4832 C110.63246,209.1488 109.651795,208.72 108.83137,208.4832 C105.725931,207.4496 102.64613,206.2048 99.925266,204.368 C100.325864,203.9264 100.752101,203.504 101.248843,203.168 C105.806051,200.0416 109.991503,196.2624 113.109761,191.6704 C115.869082,187.6544 117.676582,183.0368 118.638019,178.2752 C119.009774,176.5376 119.144375,174.7616 119.464854,173.0176 Z" id="Shape" fill="#FFE809"></path>
                <path d="M147.417008,171.76 C149.666769,172.1024 151.801157,172.9216 153.961184,173.6096 C155.541144,174.1536 157.165971,174.608 158.652992,175.3952 C157.675532,186.3168 151.692194,196.656 142.738019,202.9984 C138.360279,206.064 133.37363,208.432 128.079322,209.3216 C129.098444,208.2496 130.319468,207.4048 131.447553,206.4576 C135.046529,203.4208 138.28016,199.92 140.779894,195.92 C144.22504,190.544 146.160731,184.3104 146.92988,178 C147.211902,175.9296 147.234335,173.84 147.417008,171.76 Z" id="Shape" fill="#FFE809"></path>
            </g>
            <g id="#b71525ff" transform="translate(26.920213, 9.600000)">
                <path d="M28.4969681,4.1312 C30.8877394,1.9968 33.980359,0.5312 37.1947606,0.2976 C37.3678191,0.3328 37.7107314,0.4 37.8837899,0.4352 C35.2782979,1.0816 32.4709043,1.568 30.4198404,3.4528 C31.2947473,3.9584 32.172859,4.6336 33.227234,4.656 C34.5636303,3.7824 35.5314761,2.4128 36.9896543,1.6992 C38.5055186,0.8416 40.2937899,0.8288 41.9859176,0.9024 C41.4186702,0.7232 40.8546277,0.5312 40.2905851,0.336 C40.758484,0.2912 41.2295878,0.2528 41.7006915,0.2272 C43.6492021,0.4512 45.5432314,1.1424 47.190492,2.2048 C44.4536037,2.16 41.5789096,2.1792 39.1144282,3.5456 C36.5730319,4.7936 34.7430984,7.3792 34.6020878,10.2304 C34.2463564,14.6784 37.9094282,18.2944 37.505625,22.7488 C36.797367,21.7536 36.1596144,20.672 35.1757447,19.92 C32.6599867,17.968 29.371875,17.3856 26.8593218,15.4336 C25.4716489,14.3808 24.6287899,12.6432 24.7730053,10.896 C24.9492686,8.2272 26.6253723,5.9232 28.4969681,4.1312 Z" id="Shape" fill="#B71525"></path>
                <path d="M14.956742,23.1744 C13.1620612,15.0464 16.8026995,5.9264 23.9557846,1.5488 C22.6354122,3.4336 21.2413298,5.3856 20.8375266,7.7056 C20.1741356,10.8608 21.327859,14.2016 23.4686569,16.5536 C25.093484,18.3008 27.3400399,19.2672 29.5321144,20.0928 C31.1697606,20.6912 32.8875266,21.2832 34.1598271,22.5312 C37.0890027,25.2672 37.7812367,30.16 35.4673803,33.488 C33.8201197,35.9456 30.8524867,37.4848 27.8784441,37.28 C25.5677926,37.248 23.4942952,36.0256 21.8117819,34.5376 C18.3698404,31.6256 15.8508777,27.6032 14.956742,23.1744 Z M17.5077527,9.4624 C16.9244814,10.9472 18.5300798,11.8912 19.4274202,12.7776 C19.2607713,11.536 18.9755452,10.2688 19.2383378,9.0176 C19.5267686,7.3792 20.4657713,5.9776 21.1676197,4.4992 C19.6004787,5.8496 18.2929255,7.5456 17.5077527,9.4624 Z" id="Shape" fill="#B71525"></path>
                <path d="M90.1730984,3.9744 C93.0574069,3.2928 96.2621941,3.6864 98.7266755,5.4048 C102.517939,7.856 104.552979,12.2592 105.161888,16.6112 C105.841303,21.6608 105.328537,27.072 102.710226,31.536 C100.736077,34.8608 97.2556782,37.568 93.2561037,37.6128 C89.5193218,37.8368 85.9940559,35.7088 83.8564628,32.7488 C80.8151197,28.6144 79.9946941,23.2512 80.388883,18.2368 C80.6965426,14.1024 82.0938298,9.8688 85.1191489,6.9152 C86.5292553,5.5488 88.2694548,4.496 90.1730984,3.9744 Z M92.076742,11.8944 C90.9358378,12.4128 90.4743484,13.6928 90.1218218,14.8 C89.3911303,17.5584 89.4167686,20.4512 89.5705984,23.2768 C89.7596809,25.1072 89.9776064,27.1232 91.233883,28.5696 C92.1440426,29.6 93.9259043,29.44 94.7014628,28.3296 C95.9000532,26.6112 96.0314495,24.4192 96.1916888,22.3968 C96.3038564,19.4944 96.2301463,16.4896 95.2078191,13.7376 C94.7911968,12.4896 93.4676197,11.2192 92.076742,11.8944 Z" id="Shape" fill="#B71525"></path>
                <path d="M136.645718,3.9904 C139.539641,3.296 142.760452,3.6672 145.250572,5.3632 C148.952101,7.7248 150.990346,11.9712 151.68258,16.1888 C152.349176,20.6336 152.05754,25.3024 150.33016,29.488 C149.016197,32.592 146.70234,35.3984 143.564854,36.7808 C140.097274,38.3168 135.812473,37.7184 132.880093,35.3184 C129.072806,32.3296 127.313378,27.4368 126.938418,22.7456 C126.557048,17.8272 127.303763,12.544 130.29383,8.4832 C131.864176,6.3744 134.091503,4.6944 136.645718,3.9904 Z M138.562181,11.9104 C136.77391,13.024 136.533551,15.3728 136.209867,17.264 C135.886184,20.224 135.873364,23.2704 136.604056,26.1728 C136.956582,27.4144 137.565492,28.8928 138.953165,29.2384 C140.231875,29.5584 141.388803,28.5184 141.827859,27.3952 C142.734814,25.2128 142.837367,22.8 142.850186,20.4672 C142.776476,18.0192 142.648285,15.4592 141.542633,13.2288 C141.049096,12.144 139.722314,11.2704 138.562181,11.9104 Z" id="Shape" fill="#B71525"></path>
                <path d="M158.226755,5.6768 C161.761636,2.8768 166.889295,3.232 170.725426,5.216 C170.88246,8.1728 170.767088,11.1328 170.792726,14.0928 C169.328138,12.864 167.725745,11.4688 165.690705,11.5072 C164.472886,11.4112 163.152513,12.3712 163.261476,13.6672 C163.447354,15.0304 164.655559,15.8944 165.674681,16.6624 C167.57512,18.016 169.504402,19.5264 170.539548,21.68 C172.898271,26.72 170.988218,33.44 166.104122,36.24 C162.630133,38.2624 158.252394,37.7184 154.720718,36.1248 C154.576503,33.008 154.605346,29.8752 154.717513,26.7552 C156.573085,27.7824 158.268418,29.536 160.540612,29.4208 C162.232739,29.3504 163.20379,27.1616 162.271197,25.8048 C161.197593,24.2272 159.502261,23.2352 158.146636,21.9232 C156.416051,20.3456 154.932234,18.3328 154.528431,15.9808 C153.909907,12.2336 155.114907,8.0288 158.226755,5.6768 Z" id="Shape" fill="#B71525"></path>
                <path d="M63.6727128,4.2048 C66.5730452,4.1664 69.4797872,4.1568 72.3801197,4.208 C72.4794681,12.48 72.3288431,20.7552 72.4826729,29.024 C74.7676862,29.1296 77.0655186,28.864 79.3441223,29.1584 C79.3441223,31.6928 79.3441223,34.2272 79.3441223,36.7648 C77.3667686,37.0144 75.373391,36.8576 73.3896277,36.8864 C70.1431782,36.8512 66.8967287,36.9696 63.6566888,36.8352 C63.6182314,36.2912 63.5733644,35.744 63.5669548,35.2 C63.5829787,26.6656 63.5765691,18.1312 63.5861835,9.6 C63.5990027,7.8016 63.502859,6 63.6727128,4.2048 Z" id="Shape" fill="#B71525"></path>
                <path d="M106.767487,4.208 C112.96875,4.1696 119.170013,4.1632 125.371277,4.2112 C125.502673,6.8672 125.499468,9.5328 125.374481,12.1888 C123.765678,12.288 122.15367,12.208 120.544867,12.2432 C120.375013,20.4384 120.599348,28.6368 120.467952,36.832 C117.570824,36.9376 114.667287,36.9312 111.77016,36.8352 C111.603511,28.6496 111.760545,20.4576 111.709269,12.272 C110.062008,12.192 108.414747,12.2944 106.770691,12.1824 C106.706596,9.5264 106.719415,6.864 106.767487,4.208 Z" id="Shape" fill="#B71525"></path>
                <path d="M14.716383,148.4864 C15.6714096,148.1248 16.6488697,147.824 17.6487633,147.6032 C16.6713032,148.4448 15.8348537,149.4336 15.0368617,150.4416 C17.9211702,152.0736 21.0490426,153.2224 24.0711569,154.5728 C22.1899468,155.5648 20.1452926,156.1824 18.2031915,157.0368 C15.0881383,158.3648 12.0019282,159.7664 8.9381516,161.2192 C7.15949468,162.0416 5.49941489,163.1264 3.6406383,163.7728 C2.19207447,160.7808 0.983869681,157.6512 0.141010638,154.4384 C4.94178191,152.3136 9.79703457,150.3168 14.716383,148.4864 Z" id="Shape" fill="#FFE809"></path>
                <path d="M34.2078989,162.5024 C35.5795479,161.792 36.9704255,161.0912 38.4734707,160.6912 C37.6530452,161.4176 36.9608112,162.2752 36.2910106,163.136 C39.2009574,164.5248 42.1557713,165.8336 45.1554521,167.0304 C43.2838564,168.208 41.226383,169.04 39.2842819,170.0832 C31.4838298,174.192 23.9141223,178.7424 16.7129654,183.8272 C14.4952527,181.4208 12.4986702,178.7936 10.7168085,176.0544 C18.1679388,170.928 26.0869681,166.4864 34.2078989,162.5024 Z" id="Shape" fill="#FFE809"></path>
                <path d="M66.1500133,166.5536 C66.4736968,166.432 66.8037899,166.1408 67.1691356,166.2464 C70.1175399,167.424 72.9025,168.976 75.8989761,170.0352 C72.9730053,172.1024 69.8643617,173.9008 66.8999335,175.9168 C57.493883,182.2624 48.3762633,189.0752 40.06625,196.8064 C38.4670612,198.4 36.7877527,199.9232 35.3744415,201.6928 C33.6182181,200.5248 32.0927394,199.0624 30.4807314,197.712 C29.0353723,196.384 27.4265691,195.2224 26.1222207,193.7472 C35.1276729,186.0352 44.6811436,178.9248 54.9204388,172.9248 C58.5995346,170.688 62.3779787,168.624 66.1500133,166.5536 Z" id="Shape" fill="#FFE809"></path>
                <path d="M78.8730186,178.9344 C81.3919814,177.0912 83.7571144,175.024 86.4363165,173.4144 C86.7471809,175.968 86.8817819,178.5504 87.5259441,181.0528 C88.7597872,185.9712 90.5192154,190.832 93.3810904,195.0592 C98.704242,203.4048 107.427673,209.216 116.830519,212.0352 C120.810864,213.3312 124.986702,213.7696 129.133697,214.1568 C123.890665,217.5808 118.468165,220.7264 113.103351,223.952 C110.63887,225.3408 108.15516,226.6944 105.661835,228.0256 C104.424787,228.6368 102.976223,229.4944 101.591755,228.784 C84.5583112,221.0912 67.4159043,213.6352 50.3728457,205.9584 C51.1419947,204.6912 52.1835505,203.6288 53.1930585,202.5568 C60.9550532,193.8688 69.7137367,186.1216 78.8730186,178.9344 Z" id="Shape" fill="#FFE809"></path>
            </g>
        </g>
    </g>
</svg>