<?xml version="1.0" encoding="UTF-8"?>
<svg width="256px" height="256px" viewBox="0 0 256 256" version="1.1" xmlns="http://www.w3.org/2000/svg" xmlns:xlink="http://www.w3.org/1999/xlink">
    <!-- Generator: Sketch 51.3 (57544) - http://www.bohemiancoding.com/sketch -->
    <title>logo/gjesdal</title>
    <desc>Created with Sketch.</desc>
    <defs></defs>
    <g id="logo/gjesdal" stroke="none" stroke-width="1" fill="none" fill-rule="evenodd">
        <g id="gjesdal" transform="translate(0.000000, 11.000000)" fill-rule="nonzero">
            <g id="#ffffffff" transform="translate(49.000000, 31.000000)" fill="#FFFFFF">
                <path d="M78.849172,0.779234783 C79.3057325,0.868765217 79.3464968,1.46292174 79.6033121,1.78034783 C82.171465,6.87544348 85.3755414,11.6327652 88.9098089,16.1052174 C92.863949,21.106713 97.7393631,25.3390609 103.120255,28.7493565 C110.649427,33.5066783 118.732994,37.3727652 125.989045,42.5655304 C131.846879,46.6310261 137.513121,51.0709217 142.217325,56.4590261 C152.180127,67.5160348 157.878981,82.3129739 157.768917,97.1953739 C157.679236,106.176904 156.334013,115.2032 153.321529,123.680104 C151.385223,129.279826 147.920255,134.159235 144.475669,138.916557 C136.330955,149.93287 125.291975,158.906261 112.516433,164.001357 C102.924586,167.891861 92.5785987,169.731304 82.2529936,170.016174 C66.4771975,170.541148 50.2733758,167.517461 36.543949,159.48007 C24.0619108,152.301357 14.1806369,141.248417 7.02242038,128.876939 C4.20968153,123.63127 2.63210191,117.81993 1.5110828,112.004522 C-0.42522293,101.366678 -0.706496815,90.2079304 2.43235669,79.7654261 C5.92585987,67.2718609 13.7770701,56.2799652 23.7847134,48.120487 C29.4917197,43.534087 35.5289172,39.3342957 41.9207643,35.7449391 C49.4458599,31.3620174 57.3867516,27.4145391 63.7052229,21.3101913 C69.9625478,15.4418783 74.4343949,8.04747826 78.849172,0.779234783 Z M76.7661146,16.0970783 C73.5498089,16.9720348 71.2466242,20.2195478 71.4015287,23.5321739 C71.4056051,26.7959652 73.8107006,29.9010435 77.0107006,30.6457739 C78.7431847,30.9591304 80.6387261,30.9062261 82.2081529,30.0231304 C84.5928662,28.8022609 86.1704459,26.1896 86.1867516,23.5199652 C86.2886624,20.7485913 84.7233121,17.9650087 82.2489172,16.6830957 C80.5979618,15.7511652 78.576051,15.6738435 76.7661146,16.0970783 Z M74.1368153,34.1252522 C61.1492994,34.8862609 48.3615287,39.134887 37.5997452,46.4478957 C27.8448408,53.0650087 19.7449682,62.197113 14.6942675,72.8593739 C9.2766879,84.1483478 7.43821656,97.109913 9.51312102,109.456974 C11.9426752,124.546922 20.3156688,138.42007 32.0435669,148.1504 C43.8,157.994678 58.8298089,163.806017 74.1327389,164.644348 C88.628535,165.600696 103.421911,162.227026 115.965096,154.877391 C128.638726,147.503339 138.996943,136.023096 144.45121,122.373774 C149.954395,108.813983 150.366115,93.2845217 145.584459,79.4520696 C140.896561,65.660313 131.227261,53.7649739 119.055032,45.8252522 C105.892229,37.1611478 89.8392357,33.116 74.1368153,34.1252522 Z" id="Shape"></path>
            </g>
            <g id="#020303ff" fill="#020303">
                <path d="M121.42879,1.66445217 C121.88535,0.610434783 123.144968,-0.252313043 124.278217,0.378469565 C125.236178,1.0173913 125.219873,2.27081739 125.130191,3.28413913 C124.963057,5.95784348 123.825732,8.63561739 124.482038,11.3174609 C125.395159,14.4998609 131.081783,14.3452174 131.607643,10.9878261 C132.170191,7.8624 130.56,4.83057391 130.898344,1.70514783 C130.996178,0.769147826 131.933758,-0.0488347826 132.899873,0.203478261 C133.804841,0.358121739 134.34293,1.19238261 134.726115,1.94525217 C136.234395,5.07881739 137.449172,8.424 139.617834,11.1831652 C142.707771,14.4673043 147.273376,15.8875826 150.334777,19.2083478 C151.631083,20.7669913 152.499363,22.6267826 153.241274,24.4987826 C154.59465,27.9741913 154.415287,31.7833043 154.199236,35.4377739 C154.138089,36.1702957 154.447898,36.849913 154.684331,37.5254609 C155.842038,34.754087 157.077197,31.9013217 157.26879,28.8694957 C157.338089,26.5824 155.503694,25.0156174 154.439745,23.2046609 C154.643567,21.6093913 156.408662,21.0193043 157.774268,20.7832696 C164.133503,20.1972522 170.904459,23.4773217 173.729427,29.3374957 C176.17121,33.5413565 176.456561,38.4899478 177.553121,43.121113 C180.019363,41.7903652 180.59414,38.7870261 182.624204,37.0330435 C183.90828,35.8610087 185.534777,35.1610435 187.157197,34.5994435 C191.262166,33.2646261 195.652484,32.9878957 199.928662,33.4070609 C200.067261,35.1895304 200.242548,37.0126957 201.012994,38.6527304 C202.427516,41.9368696 205.444076,44.1303652 207.164331,47.2191652 C209.381911,51.012 209.773248,55.5292174 209.63465,59.8348174 C209.414522,66.3664696 209.504204,73.0283478 207.604586,79.3483826 C208.326115,77.8589217 209.483822,76.6746783 210.44586,75.348 C212.728662,72.4830261 216.764331,71.3313391 218.329682,67.8477913 C219.939873,64.7142261 218.953376,61.0963826 219.63414,57.779687 C219.866497,56.4285913 220.702166,55.3094609 221.550064,54.2757913 C227.004331,57.9506087 232.299618,62.121913 236.062166,67.5832696 C239.620892,72.7027826 241.068025,79.2262957 239.971465,85.3672696 C239.307006,88.7165217 237.990318,91.8826435 236.734777,95.0406261 C235.81758,97.3562087 234.737325,99.6677217 234.460127,102.170504 C234.590573,102.329217 234.855541,102.642574 234.985987,102.797217 C236.702166,101.828661 237.207643,99.8182957 238.088153,98.2026783 C239.294777,95.8423304 240.623694,93.1279304 243.261146,92.1105391 C244.247643,91.6791652 245.307516,92.261113 245.980127,92.9814261 C249.538854,96.5219478 251.825732,101.079861 253.749809,105.654052 C255.433376,109.528278 256.187516,113.809461 255.665732,118.017391 C254.789299,125.993739 249.89758,133.017809 243.795159,138.003026 C241.642803,139.887235 238.89121,141.079617 237.203567,143.468452 C240.803057,143.574261 244.439236,144.4248 247.553631,146.260174 C249.754904,147.843235 251.707516,149.784417 253.342166,151.949426 C250.88,153.8784 247.806369,155.00567 245.772229,157.459617 C241.769172,161.27687 239.249936,166.33127 235.189809,170.095617 C232.462675,172.997217 229.132229,175.325009 225.414522,176.777843 C218.615032,179.642817 211.08586,180.098609 204.27414,182.910678 C208.105987,184.790817 212.166115,186.390157 216.442293,186.862226 C219.303949,187.163374 222.157452,186.35353 225.010955,186.723861 C226.409172,186.959896 227.990828,187.749391 228.316943,189.25513 C228.590064,190.842261 227.970446,192.409043 227.273376,193.808974 C225.015032,198.05353 221.802803,201.862643 217.616306,204.316591 C214.452994,206.562991 210.437707,206.884487 206.679236,206.823443 C199.402803,206.624035 192.379108,204.483443 185.473631,202.383548 C182.424459,201.679513 179.024713,200.548174 176.024459,201.98473 C180.87949,204.524139 186.288917,205.842678 191.649427,206.823443 C194.258344,207.067617 197.148535,207.531548 198.950318,209.639583 C200.352611,211.320313 200.315924,213.705078 200.046879,215.760209 C199.272357,220.71287 196.162038,225.368452 191.58828,227.574157 C186.517197,230.0688 180.500382,229.706609 175.209172,228.139826 C169.82828,225.95447 166.245096,220.509391 160.370955,219.333287 C161.410446,221.441322 162.083057,223.866783 161.385987,226.198643 C160.24051,230.178678 156.367898,232.815757 152.438217,233.552348 C149.70293,233.548278 146.869809,233.9064 144.24051,232.962261 C140.461656,231.855339 137.31465,229.372904 134.404076,226.825357 C133.148535,225.694017 131.734013,224.64407 130.054522,224.273739 C127.470064,223.60633 124.535032,224.26153 122.647643,226.194574 C118.876943,229.869391 114.20535,233.031443 108.840764,233.580835 C106.362293,233.491304 103.757452,233.971513 101.409427,232.941913 C98.0952866,231.75767 95.0950318,229.0392 94.4550318,225.470191 C93.9536306,223.349948 94.7526115,221.237843 95.6371975,219.341426 C89.750828,220.497183 86.1717197,225.966678 80.7867516,228.147965 C75.8624204,229.60487 70.3796178,230.024035 65.5286624,228.078783 C59.7401274,225.836452 55.830828,219.797217 55.8063694,213.656243 C55.7900637,211.8168 56.3933758,209.8512 57.9750318,208.764626 C60.433121,206.823443 63.7064968,207.120522 66.5966879,206.416487 C71.1785987,205.386887 75.8094268,204.210783 79.971465,201.9888 C79.1602548,201.675443 78.3408917,201.276626 77.4522293,201.305113 C72.7887898,201.252209 68.4351592,203.148626 63.9959236,204.316591 C57.3880255,206.086852 50.4458599,207.572243 43.5974522,206.424626 C40.6216561,206.0136 38.1105732,204.2352 35.7625478,202.489357 C33.2881529,200.670261 31.4374522,198.171548 29.7701911,195.636209 C28.6695541,193.813043 27.4996178,191.818957 27.6300637,189.621391 C27.736051,187.928452 29.468535,186.959896 30.9808917,186.72793 C33.8507006,186.345391 36.7205096,187.175583 39.5943949,186.858157 C43.8542675,186.377948 47.9103185,184.798957 51.7299363,182.918817 C44.8081529,180.053843 37.1322293,179.630609 30.2471338,176.639478 C24.1528662,174.209948 19.4975796,169.277635 15.7064968,164.08487 C13.7457325,161.203617 11.426242,158.590957 8.93146497,156.161426 C7.1011465,154.43593 4.4922293,153.703409 2.80050955,151.847687 C4.14573248,149.808835 6.04127389,148.193217 7.90420382,146.642713 C11.0756688,144.481774 14.9890446,143.606817 18.7882803,143.468452 C17.2392357,141.234261 14.7159236,140.078504 12.6736306,138.385565 C7.49656051,134.275304 3.20815287,128.822087 1.2433121,122.457287 C0.13044586,118.78247 -0.118216561,114.855339 0.554394904,111.074713 C1.10471338,108.315548 2.17273885,105.690678 3.33859873,103.14313 C5.17299363,99.2851826 7.30496815,95.4475826 10.5049682,92.5500522 C11.6626752,91.4797565 13.3299363,92.1390261 14.3571975,93.0424696 C16.9905732,95.2970087 17.9403822,98.7683478 19.689172,101.637391 C20.0601274,102.109461 20.7898089,103.179757 21.3564331,102.361774 C21.5235669,101.18567 21.12,99.9810783 20.7571975,98.8619478 C19.1347771,94.3894957 16.9783439,90.0757565 16.0326115,85.3835478 C14.9034395,79.120487 16.4361783,72.4667478 20.1375796,67.2943304 C23.896051,61.991687 29.0690446,57.8854957 34.4336306,54.3002087 C38.2980892,57.9913043 35.3549045,63.8229913 37.8007643,68.1163826 C39.0726115,70.7086957 41.8201274,71.9580522 43.9235669,73.7568 C45.8435669,75.2462609 47.2295541,77.2769739 48.423949,79.3646609 C47.2947771,75.282887 45.2728662,71.445287 44.8163057,67.1925913 C44.3352866,64.2055304 44.6369427,61.1777739 45.0975796,58.2110609 C45.684586,54.5118261 46.936051,50.8817739 49.0272611,47.7522783 C50.9228025,44.8140522 53.543949,42.3316174 54.9258599,39.0718957 C55.7126115,37.2894261 55.9327389,35.3360348 56.075414,33.4111304 C60.2252229,32.9960348 64.4769427,33.256487 68.48,34.4814261 C70.2206369,35.0593043 71.9775796,35.7714783 73.3594904,37.0126957 C75.4058599,38.7707478 75.9643312,41.7985043 78.4509554,43.1170435 C79.5556688,38.3882087 79.8614013,33.3338087 82.4132484,29.0770435 C84.2272611,25.617913 87.3824204,22.8953739 91.1205096,21.7152 C93.7742675,20.8768696 96.7174522,20.2176 99.444586,21.0925565 C100.439236,21.4140522 101.707006,22.2035478 101.466497,23.4203478 C100.341401,25.113287 98.6619108,26.6882087 98.7312102,28.8898435 C98.9309554,31.9420174 100.174268,34.8110609 101.36051,37.5946435 L101.552102,37.0574609 C102.016815,36.0115826 101.678471,34.8721043 101.686624,33.7773913 C101.64586,30.9816 101.560255,28.1125565 102.440764,25.4185043 C103.150064,23.3023304 104.108025,21.2349913 105.461401,19.4484522 C108.555414,15.8753739 113.434904,14.4957913 116.565605,10.9674783 C118.681274,8.15133913 119.871592,4.78987826 121.42879,1.66445217 Z M117.609172,16.0503652 C117.205605,17.3200696 118.249172,18.3415304 118.770955,19.3833391 C120.083567,21.2472 117.511338,24.0714783 115.517962,22.9889739 C114.50293,22.4517913 114.425478,21.1698783 114.115669,20.1972522 C110.512102,21.5605565 107.308025,24.2057739 105.852739,27.8317565 C103.521019,33.5454261 104.193631,39.8736 104.752102,45.8558609 C106.965605,44.9849739 108.967134,43.6867826 110.850446,42.2542957 C114.661911,39.3160696 118.163567,35.9261217 120.96,31.9989913 C123.210191,28.9061217 124.371975,24.9830609 123.943949,21.1658087 C123.678981,18.7606957 122.313376,16.3637217 120.055032,15.3300522 C119.231592,14.9719304 117.894522,15.0248348 117.609172,16.0503652 Z M131.807389,20.5757217 C131.322293,24.336 132.316943,28.2427826 134.481529,31.3519304 C136.878471,34.8517565 139.899108,37.8876522 143.135796,40.6142609 C145.52051,42.5717217 148.043822,44.4396522 150.938089,45.5669217 C151.516943,39.5480348 152.193631,33.1547478 149.792611,27.4248 C148.329172,23.8557913 145.145478,21.2919652 141.607134,19.9205217 C141.272866,21.0111652 141.101656,22.5087652 139.809427,22.8872348 C138.109554,23.2982609 136.389299,21.6175304 136.601274,19.9205217 C136.931465,18.5124522 138.451975,17.4665739 138.109554,15.9038609 C137.975032,14.8701913 136.61758,14.6260174 135.810446,14.9963478 C133.560255,15.9242087 132.133503,18.2316522 131.807389,20.5757217 Z M83.5261146,32.9960348 C80.6807643,41.4241043 83.8603822,50.5643478 81.3003822,59.0412522 C80.4198726,62.1910957 77.6642038,64.5270261 74.4642038,65.0845565 C73.5510828,60.1929391 75.7115924,55.3013217 74.6272611,50.4259826 C73.5877707,46.5517565 70.5589809,43.6501565 67.4690446,41.2816696 C65.6713376,39.9549913 63.7961783,38.5306435 61.5582166,38.0829913 C59.7482803,37.598713 58.0687898,39.751513 58.8188535,41.4159652 C60.1151592,44.6227826 63.8369427,46.3849043 64.3383439,50.0068174 C64.9335032,51.919513 63.7921019,54.4548522 61.5500637,54.3775304 C58.3663694,54.1903304 56.9273885,50.9387478 54.8280255,49.0382609 C54.2165605,48.3423652 52.8020382,47.9435478 52.4840764,49.1196522 C50.5681529,53.7630261 49.6876433,58.8947478 50.2420382,63.9084522 C50.588535,67.8844174 51.8236943,71.7057391 53.1648408,75.4456696 C54.7505732,81.2895652 51.811465,87.0154435 49.6020382,92.2814609 C48.4321019,95.126087 46.691465,98.6503304 43.153121,98.7805565 C42.908535,97.7550261 42.5498089,96.6928696 42.8433121,95.6388522 C43.5689172,92.3465739 45.5663694,89.3350957 45.3992357,85.859687 C45.223949,81.7046609 43.7278981,77.4641739 40.8254777,74.4242087 C39.0236943,72.5074435 36.1620382,72.9266087 33.8140127,73.2155478 C33.8547771,75.3439304 34.6578344,77.5089391 34.0504459,79.6088348 C33.5694268,81.3913043 30.7159236,81.777913 29.9495541,79.9954435 C28.7592357,77.1711652 30.5365605,74.2817739 31.388535,71.6202783 C32.4321019,68.9913391 32.8723567,66.0978783 32.1793631,63.3224348 C29.2321019,64.584 27.397707,67.3513043 25.4654777,69.760487 C22.7628025,73.5289043 19.962293,77.7816 20.2150318,82.620313 C20.3047134,90.0798261 23.8349045,96.9940174 28.3312102,102.76873 C31.3722293,106.781322 34.955414,110.464278 37.1689172,115.03847 C38.7220382,118.367374 39.7370701,122.042191 39.6066242,125.733287 C39.4028025,127.381461 39.2356688,129.554609 37.5317197,130.372591 C36.5166879,130.392939 35.7014013,129.692974 35.0369427,129.013357 C32.611465,126.445461 31.3477707,123.047374 29.0282803,120.402157 C27.5159236,118.640035 25.8405096,116.991861 23.9082803,115.69367 C22.6201274,114.85127 21.1036943,114.082122 19.5179618,114.342574 C17.9770701,114.631513 16.9498089,116.149461 16.9579618,117.667409 C16.7296815,118.676661 17.186242,120.27193 15.9347771,120.707374 C14.6507006,120.817252 13.7375796,119.685913 13.1587261,118.692939 C11.6341401,115.905287 11.1775796,112.564174 11.8542675,109.459096 C12.3556688,106.923757 13.5011465,104.591896 14.3898089,102.178643 C14.7648408,101.006609 15.2132484,99.6799304 14.6670064,98.4875478 C13.9943949,97.4172522 12.3801274,97.4131826 11.4058599,98.0521043 C10.3704459,98.8212522 9.79974522,100.021774 9.16789809,101.108348 C6.85248408,105.418017 5.16484076,110.220104 5.18929936,115.160557 C5.34420382,121.183513 8.79286624,126.587896 13.0323567,130.653391 C18.2420382,135.711861 25.0782166,138.475096 31.1602548,142.272 C33.1495541,143.594609 35.2815287,144.978261 36.4433121,147.1392 C37.12,148.311235 36.903949,150.03673 35.7258599,150.801809 C34.5029299,151.184348 33.2392357,150.643096 32.1059873,150.211722 C29.8313376,149.324557 27.7197452,147.908348 25.2616561,147.586852 C23.9938854,147.411861 23.3457325,149.023409 23.8267516,150.024522 C24.8499363,152.132557 27.1205096,153.247617 28.3230573,155.229496 C29.1831847,156.157357 28.1559236,158.049704 26.908535,157.447409 C24.5768153,156.255026 23.0603822,153.996417 21.2219108,152.201739 C19.7543949,150.752974 18.3480255,149.0112 16.2975796,148.396696 C15.0461146,147.953113 13.7090446,149.332696 14.2675159,150.561704 C15.0175796,152.592417 16.7092994,154.06153 18.070828,155.685287 C21.9434395,160.24727 26.3704459,164.3616 31.3722293,167.666087 C36.753121,171.129287 42.9207643,173.021635 48.7663694,175.524417 C53.7396178,177.571409 58.268535,180.538122 63.2132484,182.654296 C64.0815287,182.951374 65.035414,183.480417 65.9566879,183.073461 C66.0259873,182.031652 65.3207643,181.197391 64.7052229,180.440452 C62.8178344,178.251026 60.6043312,176.383096 58.5457325,174.368661 C56.2017834,172.142609 54.4611465,169.391583 52.7286624,166.693461 C45.863949,155.717843 42.5294268,142.719652 42.6313376,129.81913 C42.7006369,120.988174 44.0580892,112.124661 46.9156688,103.757635 C50.4907006,94.9022609 56.2017834,87.0357913 62.6221656,80.0198609 C67.3793631,74.7619826 73.2861146,70.7778783 78.8626752,66.4641391 C83.1592357,63.2166261 87.3457325,59.8266783 91.3650955,56.2413913 C93.0935032,54.6746087 94.4876433,52.7781913 95.6983439,50.8003826 C97.0191083,48.6394435 97.430828,46.0593391 97.4512102,43.5646957 C97.4512102,40.716 96.2690446,37.7655652 93.8802548,36.101113 C92.1477707,34.7866435 89.9383439,34.4895652 87.8593631,34.1477217 C89.2535032,31.1606609 92.6002548,29.8909565 94.2878981,27.1358609 C89.9220382,26.0737043 84.8957962,28.6334609 83.5261146,32.9960348 Z M162.31949,26.9649391 C162.266497,27.1277217 162.16051,27.4573565 162.107516,27.6242087 C163.913376,30.0252522 166.938089,31.3437913 168.250701,34.1558609 C165.678471,34.4977043 162.910573,35.0674435 161.096561,37.094087 C158.071847,40.2561391 158.226752,45.1884522 159.567898,49.0789565 C161.092484,52.5706435 163.681019,55.5210783 166.636433,57.8977043 C172.596178,63.1230261 179.02879,67.7582609 185.30242,72.5929043 C190.911592,76.8456 195.693248,82.0953391 199.90828,87.7072696 C203.80535,93.0261913 207.412994,98.6706783 209.606115,104.917461 C211.970446,112.438017 213.266752,120.300417 213.458344,128.183165 C213.829299,141.364487 210.682293,154.737078 203.780892,166.038261 C201.881274,169.070087 199.953121,172.158887 197.307516,174.608765 C195.310064,176.554017 193.198471,178.385322 191.364076,180.489287 C190.760764,181.274713 189.892484,182.165948 190.283822,183.248452 C191.449682,183.285078 192.542166,182.817078 193.585732,182.357217 C197.747771,180.485217 201.648917,178.084174 205.806879,176.204035 C211.913376,173.428591 218.456051,171.560661 224.195669,168.01607 C230.656815,163.934296 235.980637,158.342713 240.794904,152.4744 C241.406369,151.587235 242.168662,150.537287 241.871083,149.401878 C241.479745,148.209496 239.930701,148.095548 238.997197,148.693774 C236.539108,150.065217 234.806624,152.360452 232.886624,154.35047 C231.643312,155.616104 230.428535,157.101496 228.663439,157.630539 C227.803312,157.398574 227.2,156.417809 227.615796,155.575409 C228.70828,153.390052 231.190828,152.2872 232.250701,150.073357 C232.886624,149.047826 232.030573,147.379304 230.75465,147.594991 C227.407898,148.0752 224.701146,150.553565 221.329936,150.927965 C219.821656,151.172139 219.055287,149.308278 219.328408,148.091478 C219.878726,145.967165 221.741656,144.559096 223.41707,143.30567 C228.162038,140.009322 233.538854,137.750713 238.300127,134.482852 C243.55465,130.913843 248.197707,125.965252 250.150318,119.820209 C251.86242,114.47687 250.447898,108.734713 248.254777,103.753565 C247.349809,101.881565 246.497834,99.9159652 245.091465,98.3573217 C243.990828,97.1690087 241.316688,97.3846957 241.214777,99.2933217 C241.169936,102.052487 242.833121,104.441322 243.587261,107.025496 C245.009936,110.895652 244.936561,115.441357 242.755669,119.022574 C242.136051,119.99927 240.974268,121.142817 239.722803,120.544591 C238.736306,118.985948 239.677962,116.763965 238.300127,115.355896 C237.342166,114.147235 235.605605,114.061774 234.268535,114.619304 C231.516943,115.714017 229.389045,117.887165 227.416051,120.027757 C224.929427,122.672974 223.665732,126.201287 221.203567,128.866852 C220.567643,129.53833 219.829809,130.213878 218.884076,130.38073 C217.510318,130.230157 217.061911,128.70407 216.768408,127.5768 C216.026497,123.714783 217.000764,119.763235 218.29707,116.125043 C220.824459,109.442817 226.380637,104.652939 230.200255,98.7642783 C233.877197,93.3598957 236.424968,86.8485913 235.801274,80.2233391 C235.05121,75.9096 232.487134,72.194087 229.890446,68.7715826 C228.178344,66.7042435 226.507006,64.3520348 223.910318,63.3427826 C223.30293,65.8414957 223.571975,68.450087 224.456561,70.8470609 C225.288153,73.7242435 227.265223,76.6665391 226.282803,79.7390609 C225.675414,81.8104696 222.389809,81.4930435 222.014777,79.4501217 C221.574522,77.3827826 222.202293,75.2788174 222.324586,73.2033391 C220.355669,73.008 218.211465,72.6336 216.372994,73.5858783 C214.68535,74.6236174 213.613248,76.3776 212.724586,78.0990261 C210.865732,81.8593043 209.948535,86.3887304 211.509809,90.4176 C212.353631,93.1197913 214.212484,95.9847652 212.863185,98.8416 C209.968917,98.589287 208.138599,96.062087 207.099108,93.6040696 C205.138344,89.0176696 202.778089,84.4149913 202.484586,79.344313 C202.203312,75.8566957 204.155924,72.7882435 204.865223,69.4715478 C206.72,62.7526957 206.353121,55.4274783 203.57707,49.0138435 C203.356943,48.3301565 202.451975,48.1348174 201.917962,48.5824696 C200.446369,49.5266087 199.56586,51.1056 198.347006,52.3183304 C197.262675,53.4781565 195.774777,54.6135652 194.087134,54.3286957 C192.909045,54.1862609 191.947006,53.2136348 191.75949,52.0578783 C191.421146,50.0027478 192.216051,47.9028522 193.540892,46.3442087 C194.812739,44.7489391 196.504459,43.4141217 197.278981,41.4729391 C198.012739,39.9183652 196.602293,37.8266087 194.869809,38.0463652 C192.945732,38.2742609 191.290701,39.4056 189.73758,40.4758957 C186.390828,42.897287 183.027771,45.7785391 181.662166,49.8114783 C180.109045,54.8577391 182.734268,60.0342261 181.609172,65.117113 C180.100892,64.6409739 178.527389,64.1566957 177.349299,63.0619826 C175.24586,61.2225391 174.426497,58.3982609 174.063694,55.7245565 C173.362548,50.3405217 174.084076,44.9035826 173.757962,39.4992 C173.562293,36.475513 173.162803,33.293113 171.422166,30.7252174 C169.473631,27.8195478 165.698854,26.5701913 162.31949,26.9649391 Z M127.849172,31.7792348 C123.434395,39.0474783 118.962548,46.4418783 112.705223,52.3101913 C106.386752,58.4145391 98.4458599,62.3620174 90.9207643,66.7449391 C84.5289172,70.3342957 78.4917197,74.534087 72.7847134,79.120487 C62.7770701,87.2799652 54.9258599,98.2718609 51.4323567,110.765426 C48.2935032,121.20793 48.5747771,132.366678 50.5110828,143.004522 C51.6321019,148.81993 53.2096815,154.63127 56.0224204,159.876939 C63.1806369,172.248417 73.0619108,183.301357 85.543949,190.48007 C99.2733758,198.517461 115.477197,201.541148 131.252994,201.016174 C141.578599,200.731304 151.924586,198.891861 161.516433,195.001357 C174.291975,189.906261 185.330955,180.93287 193.475669,169.916557 C196.920255,165.159235 200.385223,160.279826 202.321529,154.680104 C205.334013,146.2032 206.679236,137.176904 206.768917,128.195374 C206.878981,113.312974 201.180127,98.5160348 191.217325,87.4590261 C186.513121,82.0709217 180.846879,77.6310261 174.989045,73.5655304 C167.732994,68.3727652 159.649427,64.5066783 152.120255,59.7493565 C146.739363,56.3390609 141.863949,52.106713 137.909809,47.1052174 C134.375541,42.6327652 131.171465,37.8754435 128.603312,32.7803478 C128.346497,32.4629217 128.305732,31.8687652 127.849172,31.7792348 Z M187.911338,188.034261 C180.818344,189.564417 173.916943,192.010226 167.443567,195.278087 C165.800764,196.295478 163.835924,197.2152 163.045096,199.103478 C166.302166,199.009878 169.363567,197.809357 172.50242,197.064626 C177.263694,195.884452 182.208408,194.854852 187.128662,195.493774 C193.45121,196.665809 199.304968,199.892974 205.819108,200.181913 C209.655032,200.706887 213.768153,199.868557 216.715414,197.251826 C217.685605,196.344313 219.340637,195.212974 218.578344,193.682817 C217.844586,192.653217 216.60535,193.821183 215.806369,194.228139 C213.197452,196.18153 209.854777,197.243687 206.622166,196.397217 C205.056815,195.945496 202.863694,196.083861 201.966879,194.49673 L202.032102,194.065357 C204.57172,192.555548 207.824713,194.769391 210.286879,193.182261 C210.339873,191.900348 209.182166,191.106783 208.195669,190.557391 C202.060637,187.212209 194.686369,186.528522 187.911338,188.034261 Z M58.3663694,187.704626 C54.7872611,188.070887 51.2570701,189.088278 48.0896815,190.801565 C47.1072611,191.342817 46.0351592,192.091617 45.8924841,193.300278 C46.6425478,194.4072 48.2038217,193.922922 49.3329936,193.971757 C50.9717197,193.951409 52.9936306,193.308417 54.3347771,194.553704 C54.0290446,195.701322 52.7735032,195.957704 51.7829299,196.214087 C49.0884076,196.861148 46.1248408,197.4024 43.491465,196.238504 C41.6163057,195.554817 40.1936306,193.979896 38.249172,193.47527 C37.3442038,193.833391 37.1933758,195.143791 37.8211465,195.823409 C39.2438217,197.577391 41.1597452,198.940696 43.2631847,199.754609 C46.2389809,200.951061 49.5286624,200.552243 52.6349045,200.238887 C58.0402548,199.486017 63.0257325,197.080904 68.3250955,195.892591 C73.9994904,194.936243 79.7228025,196.303617 85.1933758,197.723896 C87.7452229,198.33433 90.2563057,199.351722 92.9182166,199.319165 C92.9263694,199.160452 92.9426752,198.843026 92.950828,198.680243 C91.7319745,197.251826 90.0769427,196.271061 88.4545223,195.371687 C84.508535,193.393878 80.3913376,191.774191 76.1966879,190.414957 C70.4489172,188.628417 64.4402548,187.00873 58.3663694,187.704626 Z M82.3113376,206.335096 C79.6861146,207.13273 76.8611465,207.820487 74.8107006,209.765739 C76.6002548,210.245948 78.9319745,210.12793 80.1385987,211.767965 C80.2323567,212.895235 79.086879,213.578922 78.2715924,214.128313 C74.117707,216.472383 69.1363057,216.443896 64.5217834,216.004383 C67.2081529,220.126852 72.0346497,223.04473 77.0486624,222.694748 C81.063949,222.462783 84.6634395,220.3344 87.6881529,217.823478 C92.2456051,214.344 96.6318471,210.22967 102.277707,208.622191 C105.722293,207.735026 109.391083,207.189704 112.909045,207.9792 C115.787006,208.679165 118.550828,210.656974 119.537325,213.530087 C120.324076,216.252626 118.648662,218.914122 116.76535,220.749496 C115.346752,222.055826 113.716178,223.410991 111.71465,223.577843 C110.830064,223.642957 109.484841,223.004035 109.810955,221.941878 C110.899363,221.136104 112.607389,221.070991 113.206624,219.691409 C113.895541,218.600765 112.786752,217.408383 111.690191,217.278157 C108.049936,216.167165 103.944968,218.897843 103.39465,222.605217 C103.129682,224.745809 104.817325,226.617809 106.753631,227.26487 C109.346242,228.241565 112.158981,227.435791 114.564076,226.32073 C117.927134,224.782435 121.18828,222.413948 122.668025,218.914122 C124.270064,214.852696 123.242803,209.619235 119.56586,207.006574 C115.644331,204.227061 110.724076,203.213739 105.979108,203.164904 C97.9892994,203.038748 90.0198726,204.288104 82.3113376,206.335096 Z M141.093503,204.442748 C138.248153,205.45607 135.390573,207.096104 133.959745,209.867478 C132.25172,213.273704 132.439236,217.672904 134.758726,220.761704 C136.996688,223.773183 140.392357,225.726574 143.898089,226.918957 C146.588535,227.850887 150.037197,227.598574 151.944968,225.266713 C153.31465,223.683652 152.972229,221.225635 151.728917,219.671061 C150.065732,217.188626 146.641529,216.057287 143.861401,217.233391 C143.054268,217.546748 142.561019,218.507165 142.968662,219.317009 C143.551592,220.826817 145.410446,220.851235 146.539618,221.766887 C146.44586,223.179026 144.778599,223.549357 143.649427,223.170887 C141.582675,222.523826 139.899108,221.022157 138.500892,219.422817 C136.992611,217.640348 135.879745,215.100939 136.854013,212.797565 C138.337834,209.456452 142.002548,207.527478 145.561274,207.360626 C149.372739,207.193774 153.253503,207.857113 156.759236,209.362852 C161.993376,211.845287 166.200255,215.93113 170.851465,219.292591 C173.888408,221.412835 177.62242,222.812765 181.372739,222.361043 C185.608153,221.893043 189.374777,219.235617 191.710573,215.748 C187.263185,216.134609 182.538599,216.199722 178.454013,214.132383 C177.45121,213.566713 176.28535,212.883026 176.040764,211.666226 C177.092484,209.814574 179.644331,210.001774 181.458344,209.464591 C179.770701,207.97513 177.638726,207.177496 175.514904,206.530435 C168.67465,204.51193 161.589809,203.307339 154.464204,202.932939 C149.976051,202.762017 145.345223,202.823061 141.093503,204.442748 Z" id="Shape"></path>
                <path d="M125.766115,47.0970783 C127.576051,46.6738435 129.597962,46.7511652 131.248917,47.6830957 C133.723312,48.9650087 135.288662,51.7485913 135.186752,54.5199652 C135.170446,57.1896 133.592866,59.8022609 131.208153,61.0231304 C129.638726,61.9062261 127.743185,61.9591304 126.010701,61.6457739 C122.810701,60.9010435 120.405605,57.7959652 120.401529,54.5321739 C120.246624,51.2195478 122.549809,47.9720348 125.766115,47.0970783 Z" id="Shape"></path>
                <path d="M123.136815,65.1252522 C138.839236,64.116 154.892229,68.1611478 168.055032,76.8252522 C180.227261,84.7649739 189.896561,96.660313 194.584459,110.45207 C199.366115,124.284522 198.954395,139.813983 193.45121,153.373774 C187.996943,167.023096 177.638726,178.503339 164.965096,185.877391 C152.421911,193.227026 137.628535,196.600696 123.132739,195.644348 C107.829809,194.806017 92.8,188.994678 81.0435669,179.1504 C69.3156688,169.42007 60.9426752,155.546922 58.513121,140.456974 C56.4382166,128.109913 58.2766879,115.148348 63.6942675,103.859374 C68.7449682,93.197113 76.8448408,84.0650087 86.5997452,77.4478957 C97.3615287,70.134887 110.149299,65.8862609 123.136815,65.1252522 Z M120.059108,69.4837565 C105.445096,70.9935652 91.2835669,77.2729043 80.668535,87.4630957 C72.8825478,94.8371478 67.0369427,104.278539 64.1426752,114.611165 C60.9345223,126.034435 61.3625478,138.462887 65.4185987,149.621635 C68.1008917,157.089287 72.3607643,163.962783 77.7171975,169.810748 C86.0371975,178.881809 97.0191083,185.4216 108.885605,188.665043 C125.550064,193.251443 143.955159,191.460835 159.278471,183.419374 C171.683057,176.989461 182.024968,166.473704 187.740127,153.6912 C194.197197,139.480278 194.458089,122.61193 188.44535,108.20567 C183.374268,95.8586087 173.990318,85.4527304 162.531465,78.6565565 C149.87414,71.0871652 134.705732,67.9373217 120.059108,69.4837565 Z" id="Shape"></path>
                <path d="M70.6527389,107.770226 C70.9625478,104.510504 73.4614013,101.490887 76.6817834,100.750226 C78.7974522,100.379896 81.1006369,100.449078 83.0369427,101.474609 C85.1403822,102.597809 86.7750318,104.64073 87.2315924,107.001078 C87.7859873,109.650365 87.7859873,112.376974 87.7615287,115.075096 C85.242293,115.054748 82.7271338,115.071026 80.2119745,115.062887 C80.1426752,112.539757 80.4321019,109.98 79.9470064,107.489426 C79.6371975,106.622609 78.2797452,106.704 78.1044586,107.615583 C77.7171975,109.837565 77.8598726,112.116522 77.8843312,114.362922 C77.9087898,119.653357 77.863949,124.947861 77.9006369,130.238296 C77.9780892,131.117322 77.8517197,132.142852 78.4509554,132.875374 C79.209172,133.392209 80.1915924,132.749217 80.2282803,131.894609 C80.6522293,129.383687 80.395414,126.819861 80.4687898,124.288591 C79.9551592,124.288591 79.4415287,124.284522 78.9319745,124.284522 C78.9442038,122.392174 78.9442038,120.499826 78.9278981,118.607478 C81.8792357,118.574922 84.8264968,118.5912 87.7778344,118.59527 C87.7696815,125.269357 87.7615287,131.947513 87.7819108,138.6216 C86.1880255,138.646017 84.5982166,138.633809 83.0043312,138.637878 C82.8086624,137.840243 82.6089172,137.042609 82.3724841,136.257183 C81.6264968,137.164696 81.063949,138.279757 79.9836943,138.845426 C77.8109554,140.033739 75.0430573,139.27273 73.3513376,137.604209 C71.284586,135.752557 70.5304459,132.895722 70.4244586,130.217948 C70.2369427,125.88793 70.3429299,121.549774 70.3143949,117.215687 C70.3388535,114.065843 70.2614013,110.899722 70.6527389,107.770226 Z" id="Shape"></path>
                <path d="M119.655541,102.390261 C121.860892,100.445009 125.048662,100.278157 127.816561,100.786852 C130.09121,101.307757 132.386242,102.805357 133.075159,105.141287 C133.731465,107.578957 133.58879,110.126504 133.654013,112.621148 C131.31414,112.629287 128.978344,112.617078 126.642548,112.629287 C126.565096,110.91193 126.83414,109.129461 126.385732,107.4528 C125.941401,106.42727 124.575796,106.931896 124.412739,107.871965 C123.91949,109.967791 123.939873,112.669983 125.823185,114.110609 C128.383185,116.2512 131.285605,118.200522 132.977325,121.155026 C134.302166,123.967096 134.261401,127.177983 134.249172,130.217948 C134.143185,132.281217 134.073885,134.539826 132.82242,136.289739 C129.369682,140.823235 121.065987,140.469183 118.424459,135.25607 C117.111847,132.106226 117.380892,128.586052 117.323822,125.244939 C119.671847,125.244939 122.023949,125.2368 124.376051,125.257148 C124.441274,127.5768 124.176306,129.924939 124.55949,132.224243 C124.791847,133.518365 126.77707,133.156174 126.878981,131.951583 C127.237707,130.0104 127.262166,127.86167 126.520255,126.005948 C124.416815,123.116557 121.098599,121.378852 118.929936,118.538296 C117.058854,115.7832 117.034395,112.287443 117.168917,109.084696 C117.270828,106.691791 117.711083,104.018087 119.655541,102.390261 Z" id="Shape"></path>
                <path d="M92.2619108,101.283339 C94.7648408,101.254852 97.2636943,101.27113 99.7666242,101.27113 C99.7543949,111.750261 99.8155414,122.225322 99.7380892,132.700383 C99.7707006,134.804348 99.0124841,137.3112 96.884586,138.15767 C94.4672611,138.939026 91.886879,138.544278 89.3961783,138.637878 C89.4002548,136.47287 89.4043312,134.31193 89.4002548,132.146922 C90.7128662,132.395165 92.2904459,131.739965 92.2048408,130.1976 C92.3475159,120.564939 92.2252229,110.924139 92.2619108,101.283339 Z" id="Shape"></path>
                <path d="M102.636433,101.27113 C106.802548,101.267061 110.972739,101.2752 115.14293,101.267061 C115.175541,103.794261 115.151083,106.321461 115.163312,108.85273 C113.487898,108.848661 111.816561,108.840522 110.141146,108.8568 C110.169682,111.188661 110.161529,113.524591 110.153376,115.860522 C111.70242,115.856452 113.251465,115.856452 114.80051,115.840174 C114.833121,118.22087 114.808662,120.605635 114.824968,122.98633 C113.267771,123.006678 111.710573,122.998539 110.153376,122.998539 C110.161529,125.70887 110.165605,128.42327 110.149299,131.141739 C111.987771,131.13767 113.826242,131.13767 115.664713,131.141739 C115.652484,133.640452 115.652484,136.139165 115.664713,138.637878 C111.315159,138.62567 106.969682,138.662296 102.620127,138.61753 C102.648662,126.16873 102.620127,113.71993 102.636433,101.27113 Z" id="Shape"></path>
                <path d="M136.576815,101.27113 C140.245605,101.27113 143.930701,101.206017 147.591338,101.56007 C149.384968,101.730991 151.256051,102.422817 152.324076,103.952974 C153.604076,105.641843 153.816051,107.8272 153.852739,109.874191 C153.995414,115.836104 153.88535,121.802087 153.922038,127.76807 C153.873121,129.969704 153.950573,132.195757 153.526624,134.368904 C153.261656,135.691513 152.540127,136.977496 151.353885,137.677461 C149.857834,138.593113 148.035669,138.589043 146.339873,138.637878 C143.070573,138.641948 139.801274,138.641948 136.531975,138.633809 C136.536051,126.17687 136.454522,113.71993 136.576815,101.27113 Z M144.081529,132.313774 C144.762293,132.077739 145.74879,132.07367 146.042293,131.280104 C146.454013,129.607513 146.376561,127.86167 146.417325,126.152452 C146.409172,121.130609 146.441783,116.108765 146.396943,111.090991 C146.327643,110.150922 146.429554,109.113183 145.928153,108.274852 C145.430828,107.82313 144.692994,107.814991 144.097834,107.578957 C144.024459,115.823896 144.05707,124.068835 144.081529,132.313774 Z" id="Shape"></path>
                <path d="M154.953376,138.637878 C156.233376,126.17687 157.460382,113.711791 158.801529,101.258922 C162.409172,101.283339 166.016815,101.262991 169.624459,101.27113 C171.047134,113.72807 172.469809,126.185009 173.916943,138.637878 C171.344713,138.637878 168.772484,138.637878 166.204331,138.637878 C166.077962,136.403687 165.947516,134.173565 165.804841,131.943443 C164.928408,131.947513 164.060127,131.947513 163.191847,131.951583 C162.97172,134.165426 162.992102,136.399617 162.665987,138.601252 C160.097834,138.702991 157.521529,138.605322 154.953376,138.637878 Z M163.094013,125.277496 C163.937834,125.269357 164.785732,125.265287 165.633631,125.249009 C165.099618,120.251583 164.871338,115.229739 164.463694,110.224174 C163.917452,115.233809 163.42828,120.251583 163.094013,125.277496 Z" id="Shape"></path>
                <path d="M175.111338,101.267061 C177.630573,101.27113 180.149809,101.267061 182.673121,101.27113 C182.669045,111.225287 182.689427,121.179443 182.660892,131.12953 C184.177325,131.141739 185.693758,131.13767 187.210191,131.141739 C187.210191,133.636383 187.202038,136.126957 187.218344,138.6216 C183.174522,138.650087 179.134777,138.646017 175.090955,138.62567 C175.123567,126.1728 175.090955,113.71993 175.111338,101.267061 Z" id="Shape"></path>
                <path d="M118.130955,144.681183 C120.642038,144.681183 123.153121,144.681183 125.664204,144.681183 C125.660127,156.039339 125.664204,167.397496 125.664204,178.751583 C123.153121,178.751583 120.642038,178.751583 118.135032,178.751583 C118.135032,167.397496 118.139108,156.039339 118.130955,144.681183 Z" id="Shape"></path>
                <path d="M128.595159,178.759722 C128.578854,167.397496 128.591083,156.03527 128.587006,144.677113 C131.098089,144.685252 133.609172,144.673043 136.124331,144.689322 C136.087643,153.748174 136.120255,162.811096 136.108025,171.869948 C137.640764,171.878087 139.169427,171.874017 140.706242,171.882157 C140.702166,174.173322 140.702166,176.460417 140.702166,178.751583 C136.666497,178.755652 132.630828,178.743443 128.595159,178.759722 Z" id="Shape"></path>
            </g>
            <g id="#547636ff" transform="translate(4.891720, 14.650435)" fill="#547636">
                <path d="M112.717452,1.39993043 C113.002803,0.3744 114.339873,0.321495652 115.163312,0.679617391 C117.421656,1.71328696 118.787261,4.11026087 119.052229,6.51537391 C119.480255,10.3326261 118.318471,14.255687 116.06828,17.3485565 C113.271847,21.275687 109.770191,24.6656348 105.958726,27.6038609 C104.075414,29.0363478 102.073885,30.3345391 99.8603822,31.2054261 C99.3019108,25.2231652 98.6292994,18.8949913 100.961019,13.1813217 C102.416306,9.55533913 105.620382,6.91012174 109.223949,5.54681739 C109.533758,6.51944348 109.61121,7.80135652 110.626242,8.33853913 C112.619618,9.42104348 115.191847,6.59676522 113.879236,4.73290435 C113.357452,3.69109565 112.313885,2.66963478 112.717452,1.39993043 Z" id="Shape"></path>
                <path d="M126.915669,5.92528696 C127.241783,3.58121739 128.668535,1.27377391 130.918726,0.345913043 C131.72586,-0.0244173913 133.083312,0.219756522 133.217834,1.25342609 C133.560255,2.81613913 132.039745,3.86201739 131.709554,5.27008696 C131.49758,6.96709565 133.217834,8.64782609 134.917707,8.2368 C136.209936,7.85833043 136.381146,6.36073043 136.715414,5.27008696 C140.253758,6.64153043 143.437452,9.20535652 144.900892,12.7743652 C147.301911,18.504313 146.625223,24.8976 146.046369,30.916487 C143.152102,29.7892174 140.62879,27.921287 138.244076,25.9638261 C135.007389,23.2372174 131.986752,20.2013217 129.589809,16.7014957 C127.425223,13.5923478 126.430573,9.68556522 126.915669,5.92528696 Z" id="Shape"></path>
                <path d="M78.6343949,18.3456 C80.0040764,13.9830261 85.0303185,11.4232696 89.3961783,12.4854261 C87.708535,15.2405217 84.3617834,16.5102261 82.9676433,19.497287 C85.0466242,19.8391304 87.256051,20.1362087 88.988535,21.4506783 C91.3773248,23.1151304 92.5594904,26.0655652 92.5594904,28.9142609 C92.5391083,31.4089043 92.1273885,33.9890087 90.8066242,36.1499478 C89.5959236,38.1277565 88.2017834,40.0241739 86.4733758,41.5909565 C82.4540127,45.1762435 78.2675159,48.5661913 73.9709554,51.8137043 C68.3943949,56.1274435 62.4876433,60.1115478 57.7304459,65.3694261 C51.3100637,72.3853565 45.5989809,80.2518261 42.023949,89.1072 C39.1663694,97.4742261 37.8089172,106.337739 37.7396178,115.168696 C37.637707,128.069217 40.9722293,141.067409 47.8369427,152.043026 C49.5694268,154.741148 51.3100637,157.492174 53.6540127,159.718226 C55.7126115,161.732661 57.9261146,163.600591 59.8135032,165.790017 C60.4290446,166.546957 61.1342675,167.381217 61.0649682,168.423026 C60.1436943,168.829983 59.1898089,168.300939 58.3215287,168.003861 C53.3768153,165.887687 48.8478981,162.920974 43.8746497,160.873983 C38.0290446,158.3712 31.8614013,156.478852 26.4805096,153.015652 C21.4787261,149.711165 17.0517197,145.596835 13.1791083,141.034852 C11.8175796,139.411096 10.1258599,137.941983 9.37579618,135.91127 C8.81732484,134.682261 10.1543949,133.302678 11.4058599,133.746261 C13.4563057,134.360765 14.8626752,136.102539 16.3301911,137.551304 C18.1686624,139.345983 19.6850955,141.604591 22.0168153,142.796974 C23.2642038,143.39927 24.291465,141.506922 23.4313376,140.579061 C22.2287898,138.597183 19.9582166,137.482122 18.9350318,135.374087 C18.4540127,134.372974 19.1021656,132.761426 20.3699363,132.936417 C22.8280255,133.257913 24.9396178,134.674122 27.2142675,135.561287 C28.3475159,135.992661 29.6112102,136.533913 30.8341401,136.151374 C32.0122293,135.386296 32.2282803,133.6608 31.5515924,132.488765 C30.3898089,130.327826 28.2578344,128.944174 26.268535,127.621565 C20.1864968,123.824661 13.3503185,121.061426 8.14063694,116.002957 C3.9011465,111.937461 0.452484076,106.533078 0.297579618,100.510122 C0.273121019,95.5696696 1.96076433,90.7675826 4.27617834,86.457913 C4.90802548,85.3713391 5.47872611,84.1708174 6.51414013,83.4016696 C7.48840764,82.7627478 9.10267516,82.7668174 9.77528662,83.837113 C10.3215287,85.0294957 9.87312102,86.3561739 9.49808917,87.5282087 C8.60942675,89.9414609 7.46394904,92.2733217 6.96254777,94.8086609 C6.28585987,97.9137391 6.74242038,101.254852 8.26700637,104.042504 C8.84585987,105.035478 9.75898089,106.166817 11.0430573,106.056939 C12.2945223,105.621496 11.8379618,104.026226 12.066242,103.016974 C12.0580892,101.499026 13.0853503,99.9810783 14.626242,99.6921391 C16.2119745,99.431687 17.7284076,100.200835 19.0165605,101.043235 C20.9487898,102.341426 22.6242038,103.9896 24.1365605,105.751722 C26.456051,108.396939 27.7197452,111.795026 30.1452229,114.362922 C30.8096815,115.042539 31.6249682,115.742504 32.64,115.722157 C34.343949,114.904174 34.5110828,112.731026 34.7149045,111.082852 C34.8453503,107.391757 33.8303185,103.716939 32.2771975,100.388035 C30.0636943,95.8138435 26.4805096,92.130887 23.4394904,88.1182957 C18.9431847,82.3435826 15.4129936,75.4293913 15.3233121,67.9698783 C15.0705732,63.1311652 17.8710828,58.8784696 20.573758,55.1100522 C22.5059873,52.7008696 24.3403822,49.9335652 27.2876433,48.672 C27.9806369,51.4474435 27.5403822,54.3409043 26.4968153,56.9698435 C25.6448408,59.6313391 23.8675159,62.5207304 25.0578344,65.3450087 C25.8242038,67.1274783 28.677707,66.7408696 29.1587261,64.9584 C29.7661146,62.8585043 28.9630573,60.6934957 28.922293,58.565113 C31.2703185,58.2761739 34.1319745,57.8570087 35.933758,59.7737739 C38.8361783,62.8137391 40.3322293,67.0542261 40.5075159,71.2092522 C40.6746497,74.6846609 38.6771975,77.6961391 37.9515924,80.9884174 C37.6580892,82.0424348 38.0168153,83.1045913 38.2614013,84.1301217 C41.7997452,83.9998957 43.5403822,80.4756522 44.7103185,77.6310261 C46.9197452,72.3650087 49.8588535,66.6391304 48.273121,60.7952348 C46.9319745,57.0553043 45.6968153,53.2339826 45.3503185,49.2580174 C44.7959236,44.244313 45.6764331,39.1125913 47.5923567,34.4692174 C47.9103185,33.293113 49.3248408,33.6919304 49.9363057,34.3878261 C52.0356688,36.288313 53.4746497,39.5398957 56.6583439,39.7270957 C58.9003822,39.8044174 60.0417834,37.2690783 59.4466242,35.3563826 C58.9452229,31.7344696 55.2234395,29.9723478 53.9271338,26.7655304 C53.1770701,25.1010783 54.8565605,22.9482783 56.6664968,23.4325565 C58.9044586,23.8802087 60.7796178,25.3045565 62.5773248,26.6312348 C65.6672611,28.9997217 68.696051,31.9013217 69.7355414,35.7755478 C70.8198726,40.650887 68.6593631,45.5425043 69.5724841,50.4341217 C72.7724841,49.8765913 75.5281529,47.5406609 76.4086624,44.3908174 C78.9686624,35.913913 75.7890446,26.7736696 78.6343949,18.3456 Z" id="Shape"></path>
                <path d="M157.427771,12.3145043 C160.807134,11.9197565 164.581911,13.169113 166.530446,16.0747826 C168.271083,18.6426783 168.670573,21.8250783 168.866242,24.8487652 C169.192357,30.2531478 168.470828,35.690087 169.171975,41.0741217 C169.534777,43.7478261 170.35414,46.5721043 172.45758,48.4115478 C173.635669,49.5062609 175.209172,49.9905391 176.717452,50.4666783 C177.842548,45.3837913 175.217325,40.2073043 176.770446,35.1610435 C178.136051,31.1281043 181.499108,28.2468522 184.84586,25.8254609 C186.398981,24.7551652 188.054013,23.6238261 189.978089,23.3959304 C191.710573,23.1761739 193.121019,25.2679304 192.387261,26.8225043 C191.612739,28.763687 189.921019,30.0985043 188.649172,31.6937739 C187.324331,33.2524174 186.529427,35.352313 186.867771,37.4074435 C187.055287,38.5632 188.017325,39.5358261 189.195414,39.6782609 C190.883057,39.9631304 192.370955,38.8277217 193.455287,37.6678957 C194.67414,36.4551652 195.55465,34.8761739 197.026242,33.9320348 C197.560255,33.4843826 198.465223,33.6797217 198.68535,34.3634087 C201.461401,40.7770435 201.82828,48.1022609 199.973503,54.821113 C199.264204,58.1378087 197.311592,61.2062609 197.592866,64.6938783 C197.886369,69.7645565 200.246624,74.3672348 202.207389,78.9536348 C203.246879,81.4116522 205.077197,83.9388522 207.971465,84.1911652 C209.320764,81.3343304 207.461911,78.4693565 206.618089,75.7671652 C205.056815,71.7382957 205.974013,67.2088696 207.832866,63.4485913 C208.721529,61.7271652 209.793631,59.9731826 211.481274,58.9354435 C213.319745,57.9831652 215.463949,58.3575652 217.432866,58.5529043 C217.310573,60.6283826 216.682803,62.7323478 217.123057,64.799687 C217.498089,66.8426087 220.783694,67.1600348 221.391083,65.0886261 C222.373503,62.0161043 220.396433,59.0738087 219.564841,56.1966261 C218.680255,53.7996522 218.41121,51.1910609 219.018599,48.6923478 C221.615287,49.7016 223.286624,52.0538087 224.998726,54.1211478 C227.595414,57.5436522 230.15949,61.2591652 230.909554,65.5729043 C231.533248,72.1981565 228.985478,78.7094609 225.308535,84.1138435 C221.488917,90.0025043 215.932739,94.7923826 213.40535,101.474609 C212.109045,105.1128 211.134777,109.064348 211.876688,112.926365 C212.170191,114.053635 212.618599,115.579722 213.992357,115.730296 C214.938089,115.563443 215.675924,114.887896 216.311847,114.216417 C218.774013,111.550852 220.037707,108.022539 222.524331,105.377322 C224.497325,103.23673 226.625223,101.063583 229.376815,99.9688696 C230.713885,99.4113391 232.450446,99.4968 233.408408,100.705461 C234.786242,102.11353 233.844586,104.335513 234.831083,105.894157 C236.082548,106.492383 237.244331,105.348835 237.863949,104.372139 C240.044841,100.790922 240.118217,96.2452174 238.695541,92.3750609 C237.941401,89.790887 236.278217,87.4020522 236.323057,84.642887 C236.424968,82.7342609 239.099108,82.5185739 240.199745,83.706887 C241.606115,85.2655304 242.458089,87.2311304 243.363057,89.1031304 C245.556178,94.0842783 246.970701,99.8264348 245.258599,105.169774 C243.305987,111.314817 238.66293,116.263409 233.408408,119.832417 C228.647134,123.100278 223.270318,125.358887 218.52535,128.655235 C216.849936,129.908661 214.987006,131.31673 214.436688,133.441043 C214.163567,134.657843 214.929936,136.521704 216.438217,136.27753 C219.809427,135.90313 222.516178,133.424765 225.86293,132.944557 C227.138854,132.72887 227.994904,134.397391 227.358981,135.422922 C226.299108,137.636765 223.816561,138.739617 222.724076,140.924974 C222.30828,141.767374 222.911592,142.748139 223.77172,142.980104 C225.536815,142.451061 226.751592,140.96567 227.994904,139.700035 C229.914904,137.710017 231.647389,135.414783 234.105478,134.043339 C235.038981,133.445113 236.588025,133.559061 236.979363,134.751443 C237.276943,135.886852 236.51465,136.9368 235.903185,137.823965 C231.088917,143.692278 225.765096,149.283861 219.303949,153.365635 C213.564331,156.910226 207.021656,158.778157 200.915159,161.5536 C196.757197,163.433739 192.856051,165.834783 188.694013,167.706783 C187.650446,168.166643 186.557962,168.634643 185.392102,168.598017 C185.000764,167.515513 185.869045,166.624278 186.472357,165.838852 C188.306752,163.734887 190.418344,161.903583 192.415796,159.95833 C195.061401,157.508452 196.989554,154.419652 198.889172,151.387826 C205.790573,140.086643 208.93758,126.714052 208.566624,113.53273 C208.375032,105.649983 207.078726,97.7875826 204.714395,90.2670261 C202.521274,84.0202435 198.913631,78.3757565 195.016561,73.0568348 C190.801529,67.4449043 186.019873,62.1951652 180.410701,57.9424696 C174.13707,53.1078261 167.704459,48.4725913 161.744713,43.2472696 C158.789299,40.8706435 156.200764,37.9202087 154.676178,34.4285217 C153.335032,30.5380174 153.180127,25.6057043 156.204841,22.4436522 C158.018854,20.4170087 160.786752,19.8472696 163.358981,19.5054261 C162.046369,16.6933565 159.021656,15.3748174 157.215796,12.9737739 C157.26879,12.8069217 157.374777,12.477287 157.427771,12.3145043 Z" id="Shape"></path>
                <path d="M183.019618,173.383826 C189.79465,171.878087 197.168917,172.561774 203.303949,175.906957 C204.290446,176.456348 205.448153,177.249913 205.395159,178.531826 C202.932994,180.118957 199.68,177.905113 197.140382,179.414922 L197.075159,179.846296 C197.971975,181.433426 200.165096,181.295061 201.730446,181.746783 C204.963057,182.593252 208.305732,181.531096 210.91465,179.577704 C211.713631,179.170748 212.952866,178.002783 213.686624,179.032383 C214.448917,180.562539 212.793885,181.693878 211.823694,182.601391 C208.876433,185.218122 204.763312,186.056452 200.927389,185.531478 C194.413248,185.242539 188.55949,182.015374 182.236943,180.843339 C177.316688,180.204417 172.371975,181.234017 167.610701,182.414191 C164.471847,183.158922 161.410446,184.359443 158.153376,184.453043 C158.944204,182.564765 160.909045,181.645043 162.551847,180.627652 C169.025223,177.359791 175.926624,174.913983 183.019618,173.383826 Z" id="Shape"></path>
                <path d="M53.4746497,173.054191 C59.548535,172.358296 65.5571975,173.977983 71.3049682,175.764522 C75.4996178,177.123757 79.6168153,178.743443 83.5628025,180.721252 C85.1852229,181.620626 86.8402548,182.601391 88.0591083,184.029809 C88.0509554,184.192591 88.0346497,184.510017 88.0264968,184.66873 C85.364586,184.701287 82.8535032,183.683896 80.3016561,183.073461 C74.8310828,181.653183 69.1077707,180.285809 63.4333758,181.242157 C58.1340127,182.43047 53.148535,184.835583 47.7431847,185.588452 C44.6369427,185.901809 41.3472611,186.300626 38.371465,185.104174 C36.2680255,184.290261 34.3521019,182.926957 32.9294268,181.172974 C32.3016561,180.493357 32.4524841,179.182957 33.3574522,178.824835 C35.3019108,179.329461 36.724586,180.904383 38.5997452,181.58807 C41.233121,182.751965 44.1966879,182.210713 46.8912102,181.563652 C47.8817834,181.30727 49.1373248,181.050887 49.4430573,179.90327 C48.1019108,178.657983 46.08,179.300974 44.4412739,179.321322 C43.3121019,179.272487 41.750828,179.756765 41.0007643,178.649843 C41.1434395,177.441183 42.2155414,176.692383 43.1979618,176.15113 C46.3653503,174.437843 49.8955414,173.420452 53.4746497,173.054191 Z" id="Shape"></path>
                <path d="M77.4196178,191.684661 C85.1281529,189.63767 93.0975796,188.388313 101.087389,188.51447 C105.832357,188.563304 110.752611,189.576626 114.67414,192.356139 C118.351083,194.9688 119.378344,200.202261 117.776306,204.263687 C116.296561,207.763513 113.035414,210.132 109.672357,211.670296 C107.267261,212.785357 104.454522,213.59113 101.861911,212.614435 C99.9256051,211.967374 98.2379618,210.095374 98.5029299,207.954783 C99.0532484,204.247409 103.158217,201.51673 106.798471,202.627722 C107.895032,202.757948 109.003822,203.95033 108.314904,205.040974 C107.715669,206.420557 106.007643,206.48567 104.919236,207.291443 C104.593121,208.3536 105.938344,208.992522 106.82293,208.927409 C108.824459,208.760557 110.455032,207.405391 111.873631,206.099061 C113.756943,204.263687 115.432357,201.602191 114.645605,198.879652 C113.659108,196.006539 110.895287,194.02873 108.017325,193.328765 C104.499363,192.53927 100.830573,193.084591 97.3859873,193.971757 C91.7401274,195.579235 87.3538854,199.693565 82.7964331,203.173043 C79.7717197,205.683965 76.1722293,207.812348 72.1569427,208.044313 C67.1429299,208.394296 62.3164331,205.476417 59.6300637,201.353948 C64.244586,201.793461 69.2259873,201.821948 73.3798726,199.477878 C74.1951592,198.928487 75.3406369,198.2448 75.246879,197.11753 C74.0402548,195.477496 71.708535,195.595513 69.9189809,195.115304 C71.9694268,193.170052 74.7943949,192.482296 77.4196178,191.684661 Z" id="Shape"></path>
                <path d="M136.201783,189.792313 C140.453503,188.172626 145.084331,188.111583 149.572484,188.282504 C156.698089,188.656904 163.78293,189.861496 170.623185,191.88 C172.747006,192.527061 174.878981,193.324696 176.566624,194.814157 C174.752611,195.351339 172.200764,195.164139 171.149045,197.015791 C171.393631,198.232591 172.55949,198.916278 173.562293,199.481948 C177.646879,201.549287 182.371465,201.484174 186.818854,201.097565 C184.483057,204.585183 180.716433,207.242609 176.481019,207.710609 C172.730701,208.16233 168.996688,206.7624 165.959745,204.642157 C161.308535,201.280696 157.101656,197.194852 151.867516,194.712417 C148.361783,193.206678 144.481019,192.543339 140.669554,192.710191 C137.110828,192.877043 133.446115,194.806017 131.962293,198.14713 C130.988025,200.450504 132.100892,202.989913 133.609172,204.772383 C135.007389,206.371722 136.690955,207.873391 138.757707,208.520452 C139.886879,208.898922 141.55414,208.528591 141.647898,207.116452 C140.518726,206.2008 138.659873,206.176383 138.076943,204.666574 C137.669299,203.85673 138.162548,202.896313 138.969682,202.582957 C141.749809,201.406852 145.174013,202.538191 146.837197,205.020626 C148.08051,206.5752 148.42293,209.033217 147.053248,210.616278 C145.145478,212.948139 141.696815,213.200452 139.006369,212.268522 C135.500637,211.076139 132.104968,209.122748 129.867006,206.11127 C127.547516,203.02247 127.36,198.62327 129.068025,195.217043 C130.498854,192.44567 133.356433,190.805635 136.201783,189.792313 Z" id="Shape"></path>
            </g>
            <g id="#e9c84fff" transform="translate(61.961783, 68.775652)" fill="#E9C84F">
                <path d="M58.0973248,0.708104348 C72.743949,-0.838330435 87.9123567,2.31151304 100.569682,9.88090435 C112.028535,16.6770783 121.412484,27.0829565 126.483567,39.4300174 C132.496306,53.8362783 132.235414,70.7046261 125.778344,84.9155478 C120.063185,97.6980522 109.721274,108.213809 97.3166879,114.643722 C81.9933758,122.685183 63.5882803,124.475791 46.9238217,119.889391 C35.0573248,116.645948 24.075414,110.106157 15.755414,101.035096 C10.3989809,95.1871304 6.13910828,88.3136348 3.45681529,80.8459826 C-0.599235669,69.6872348 -1.02726115,57.2587826 2.18089172,45.835513 C5.07515924,35.502887 10.9207643,26.0614957 18.7067516,18.6874435 C29.3217834,8.49725217 43.4833121,2.21791304 58.0973248,0.708104348 Z M8.69095541,38.9945739 C8.29961783,42.1240696 8.37707006,45.2901913 8.35261146,48.4400348 C8.3811465,52.7741217 8.27515924,57.1122783 8.46267516,61.4422957 C8.56866242,64.1200696 9.32280255,66.9769043 11.3895541,68.8285565 C13.0812739,70.4970783 15.849172,71.258087 18.0219108,70.0697739 C19.1021656,69.5041043 19.6647134,68.3890435 20.4107006,67.4815304 C20.6471338,68.2669565 20.846879,69.0645913 21.0425478,69.8622261 C22.6364331,69.8581565 24.226242,69.8703652 25.8201274,69.8459478 C25.7997452,63.1718609 25.8078981,56.4937043 25.816051,49.8196174 C22.8647134,49.8155478 19.9174522,49.7992696 16.9661146,49.8318261 C16.9824204,51.7241739 16.9824204,53.6165217 16.9701911,55.5088696 C17.4797452,55.5088696 17.9933758,55.5129391 18.5070064,55.5129391 C18.4336306,58.0442087 18.6904459,60.6080348 18.2664968,63.1189565 C18.2298089,63.9735652 17.2473885,64.6165565 16.489172,64.0997217 C15.8899363,63.3672 16.0163057,62.3416696 15.9388535,61.4626435 C15.9021656,56.1722087 15.9470064,50.8777043 15.9225478,45.5872696 C15.8980892,43.3408696 15.755414,41.061913 16.1426752,38.8399304 C16.3179618,37.9283478 17.675414,37.8469565 17.9852229,38.7137739 C18.4703185,41.2043478 18.1808917,43.7641043 18.2501911,46.2872348 C20.7653503,46.2953739 23.2805096,46.2790957 25.7997452,46.2994435 C25.8242038,43.6013217 25.8242038,40.874713 25.2698089,38.2254261 C24.8132484,35.8650783 23.1785987,33.8221565 21.0751592,32.6989565 C19.1388535,31.6734261 16.8356688,31.6042435 14.72,31.9745739 C11.4996178,32.7152348 9.00076433,35.7348522 8.69095541,38.9945739 Z M57.693758,33.6146087 C55.7492994,35.2424348 55.3090446,37.9161391 55.2071338,40.3090435 C55.0726115,43.5117913 55.0970701,47.0075478 56.9681529,49.7626435 C59.1368153,52.6032 62.4550318,54.3409043 64.5584713,57.2302957 C65.3003822,59.0860174 65.2759236,61.2347478 64.9171975,63.1759304 C64.8152866,64.3805217 62.8300637,64.742713 62.597707,63.4485913 C62.2145223,61.149287 62.4794904,58.8011478 62.4142675,56.4814957 C60.0621656,56.4611478 57.7100637,56.469287 55.3620382,56.469287 C55.4191083,59.8104 55.1500637,63.3305739 56.4626752,66.4804174 C59.1042038,71.6935304 67.4078981,72.0475826 70.8606369,67.514087 C72.1121019,65.7641739 72.1814013,63.5055652 72.2873885,61.4422957 C72.2996178,58.4023304 72.3403822,55.1914435 71.0155414,52.3793739 C69.3238217,49.4248696 66.4214013,47.4755478 63.8614013,45.3349565 C61.9780892,43.8943304 61.957707,41.1921391 62.4509554,39.096313 C62.6140127,38.1562435 63.9796178,37.6516174 64.423949,38.6771478 C64.8723567,40.3538087 64.6033121,42.1362783 64.6807643,43.8536348 C67.0165605,43.8414261 69.3523567,43.8536348 71.6922293,43.8454957 C71.6270064,41.3508522 71.7696815,38.8033043 71.1133758,36.3656348 C70.4244586,34.0297043 68.1294268,32.5321043 65.8547771,32.0112 C63.086879,31.5025043 59.8991083,31.6693565 57.693758,33.6146087 Z M30.3001274,32.507687 C30.2634395,42.148487 30.3857325,51.789287 30.2430573,61.4219478 C30.3286624,62.964313 28.7510828,63.619513 27.4384713,63.3712696 C27.4425478,65.5362783 27.4384713,67.6972174 27.4343949,69.8622261 C29.9250955,69.7686261 32.5054777,70.1633739 34.9228025,69.3820174 C37.0507006,68.5355478 37.8089172,66.0286957 37.7763057,63.9247304 C37.853758,53.4496696 37.7926115,42.9746087 37.8048408,32.4954783 C35.3019108,32.4954783 32.8030573,32.4792 30.3001274,32.507687 Z M40.6746497,32.4954783 C40.6583439,44.9442783 40.686879,57.3930783 40.6583439,69.8418783 C45.0078981,69.8866435 49.3533758,69.8500174 53.7029299,69.8622261 C53.6907006,67.363513 53.6907006,64.8648 53.7029299,62.366087 C51.8644586,62.3620174 50.0259873,62.3620174 48.1875159,62.366087 C48.2038217,59.6476174 48.1997452,56.9332174 48.1915924,54.222887 C49.7487898,54.222887 51.3059873,54.2310261 52.8631847,54.2106783 C52.846879,51.8299826 52.8713376,49.4452174 52.8387261,47.0645217 C51.2896815,47.0808 49.7406369,47.0808 48.1915924,47.0848696 C48.1997452,44.7489391 48.2078981,42.4130087 48.1793631,40.0811478 C49.8547771,40.0648696 51.5261146,40.0730087 53.2015287,40.0770783 C53.1892994,37.5458087 53.213758,35.0186087 53.1811465,32.4914087 C49.0109554,32.4995478 44.8407643,32.4914087 40.6746497,32.4954783 Z M74.6150318,32.4954783 C74.4927389,44.9442783 74.5742675,57.4012174 74.5701911,69.8581565 C77.8394904,69.8662957 81.1087898,69.8662957 84.3780892,69.8622261 C86.0738854,69.8133913 87.896051,69.8174609 89.3921019,68.9018087 C90.5783439,68.2018435 91.2998726,66.9158609 91.5648408,65.5932522 C91.9887898,63.4201043 91.9113376,61.1940522 91.9602548,58.9924174 C91.9235669,53.0264348 92.0336306,47.0604522 91.8909554,41.0985391 C91.8542675,39.0515478 91.642293,36.8661913 90.362293,35.1773217 C89.2942675,33.6471652 87.4231847,32.9553391 85.6295541,32.7844174 C81.9689172,32.4303652 78.2838217,32.4954783 74.6150318,32.4954783 Z M92.9915924,69.8622261 C95.5597452,69.8296696 98.136051,69.9273391 100.704204,69.8256 C101.030318,67.6239652 101.009936,65.3897739 101.230064,63.1759304 C102.098344,63.1718609 102.966624,63.1718609 103.843057,63.1677913 C103.985732,65.397913 104.116178,67.6280348 104.242548,69.8622261 C106.810701,69.8622261 109.38293,69.8622261 111.955159,69.8622261 C110.508025,57.4093565 109.08535,44.9524174 107.662675,32.4954783 C104.055032,32.4873391 100.447389,32.507687 96.8397452,32.4832696 C95.4985987,44.9361391 94.2715924,57.4012174 92.9915924,69.8622261 Z M113.149554,32.4914087 C113.129172,44.9442783 113.161783,57.3971478 113.129172,69.8500174 C117.172994,69.8703652 121.212739,69.8744348 125.256561,69.8459478 C125.240255,67.3513043 125.248408,64.8607304 125.248408,62.366087 C123.731975,62.3620174 122.215541,62.366087 120.699108,62.3538783 C120.727643,52.4037913 120.707261,42.4496348 120.711338,32.4954783 C118.188025,32.4914087 115.66879,32.4954783 113.149554,32.4914087 Z M56.169172,75.9055304 C56.1773248,87.263687 56.1732484,98.6218435 56.1732484,109.97593 C58.6802548,109.97593 61.1913376,109.97593 63.7024204,109.97593 C63.7024204,98.6218435 63.6983439,87.263687 63.7024204,75.9055304 C61.1913376,75.9055304 58.6802548,75.9055304 56.169172,75.9055304 Z M66.6333758,109.98407 C70.6690446,109.967791 74.7047134,109.98 78.7403822,109.97593 C78.7403822,107.684765 78.7403822,105.39767 78.7444586,103.106504 C77.2076433,103.098365 75.6789809,103.102435 74.146242,103.094296 C74.1584713,94.0354435 74.1258599,84.9725217 74.1625478,75.9136696 C71.6473885,75.8973913 69.1363057,75.9096 66.6252229,75.9014609 C66.6292994,87.2596174 66.6170701,98.6218435 66.6333758,109.98407 Z" id="Shape"></path>
                <path d="M82.1197452,63.5381217 C82.0952866,55.2931826 82.0626752,47.0482435 82.136051,38.8033043 C82.7312102,39.0393391 83.4690446,39.0474783 83.9663694,39.4992 C84.4677707,40.3375304 84.3658599,41.3752696 84.4351592,42.3153391 C84.48,47.333113 84.4473885,52.3549565 84.4555414,57.3768 C84.4147771,59.0860174 84.4922293,60.8318609 84.0805096,62.5044522 C83.7870064,63.2980174 82.8005096,63.302087 82.1197452,63.5381217 Z" id="Shape"></path>
                <path d="M101.132229,56.5018435 C101.466497,51.4759304 101.955669,46.4581565 102.501911,41.4485217 C102.909554,46.454087 103.137834,51.4759304 103.671847,56.4733565 C102.823949,56.4896348 101.976051,56.4937043 101.132229,56.5018435 Z" id="Shape"></path>
            </g>
        </g>
    </g>
</svg>