<?xml version="1.0" encoding="UTF-8"?>
<svg width="256px" height="256px" viewBox="0 0 256 256" version="1.1" xmlns="http://www.w3.org/2000/svg" xmlns:xlink="http://www.w3.org/1999/xlink">
    <!-- Generator: Sketch 50.2 (55047) - http://www.bohemiancoding.com/sketch -->
    <title>logo/gneist</title>
    <desc>Created with Sketch.</desc>
    <defs></defs>
    <g id="logo/gneist" stroke="none" stroke-width="1" fill="none" fill-rule="evenodd">
        <g id="gneist" transform="translate(0.000000, 32.000000)" fill-rule="nonzero">
            <g id="#00428fff" fill="#00428F">
                <path d="M32.1247179,25.5780822 C50.2153846,9.56054795 74.3318974,0.762739726 98.4484103,0.88109589 C115.081846,0.93369863 131.715282,0.90739726 148.348718,0.90739726 C155.79241,0.946849315 163.275487,0.565479452 170.679795,1.60438356 C188.205949,3.64273973 205.193846,10.3364384 219.241026,21.0410959 C238.040615,35.0860274 251.365744,56.5216438 254.962872,79.7983562 C256.065641,86.4657534 255.776821,93.2383562 255.803077,99.9715068 C255.973744,118.290411 249.540923,136.412055 238.815179,151.153973 C224.715487,170.524932 203.172103,184.227945 179.738256,189.014795 C172.780308,190.579726 165.599179,190.632329 158.614974,192 L98.6978462,192 C90.7027692,190.527123 82.497641,190.527123 74.6075897,188.423014 C43.7300513,181.361096 16.5809231,158.334247 5.99958974,128.232329 C0.787692308,114.226849 0.341333333,99.0378082 1.40471795,84.3090411 C3.61025641,61.7293151 15.1368205,40.4646575 32.1247179,25.5780822 Z M90.7552821,12.1512329 C90.9653333,16.9643836 91.2278974,21.7775342 91.2147692,26.5906849 C94.3261538,26.6038356 97.4244103,26.5775342 100.522667,26.4328767 C99.6299487,23.3424658 96.0459487,23.8947945 93.6041026,23.0268493 C94.2473846,20.2257534 97.1093333,20.409863 99.3542564,19.949589 C99.3673846,19.4893151 99.4067692,18.5556164 99.4330256,18.0953425 C97.2012308,17.6350685 94.5362051,17.6219178 93.4203077,15.2284932 C95.8752821,14.7419178 98.3171282,14.2290411 100.758974,13.7030137 C97.8970256,11.4279452 94.1029744,12.3616438 90.7552821,12.1512329 Z M100.443897,12.5589041 C102.189949,13.6241096 104.054154,14.4920548 105.944615,15.2679452 C105.905231,19.1605479 105.905231,23.0663014 106.102154,26.9589041 C111.156513,25.6175342 108.478359,19.0421918 109.003487,15.1627397 C110.434462,14.3210959 114.451692,14.6367123 112.679385,12.0854795 C108.662154,11.2043836 104.448,11.8093151 100.443897,12.5589041 Z M114.267897,12.0986301 C113.270154,14.5841096 116.630974,14.3473973 118.035692,15.2416438 C117.930667,19.0158904 117.917538,22.8032877 117.930667,26.5775342 C118.718359,26.5775342 120.306872,26.5906849 121.094564,26.5906849 C121.107692,22.790137 121.081436,18.989589 121.055179,15.1890411 C122.958769,14.5052055 124.849231,13.7950685 126.660923,12.9008219 C122.591179,12.1117808 118.403282,11.8224658 114.267897,12.0986301 Z M130.323692,12.1249315 C127.488,12.6509589 127.474872,15.8465753 126.870974,18.0558904 C129.286564,19.6471233 131.767795,21.12 134.209641,22.6849315 C131.662769,23.500274 129.037128,24.0657534 126.464,24.7758904 C129.16841,27.3665753 135.614359,27.8268493 136.625231,23.4213699 C137.675487,19.1868493 132.450462,17.9375342 129.995487,15.7545205 C132.358564,14.8865753 134.721641,14.0712329 137.058462,13.1243836 C134.892308,12.48 132.608,11.020274 130.323692,12.1249315 Z M139.684103,26.6038356 C142.874256,26.6169863 146.06441,26.5643836 149.254564,26.3539726 C148.217436,23.8816438 145.513026,23.8421918 143.268103,23.3030137 C143.333744,19.2657534 143.281231,15.2021918 142.572308,11.2043836 C137.885538,14.7024658 140.43241,21.5934247 139.684103,26.6038356 Z M155.214769,12.1249315 C153.127385,17.0958904 150.908718,22.0142466 149.35959,27.1824658 C151.709538,25.9989041 153.783795,24.3156164 156.225641,23.3161644 C159.192615,23.750137 161.161846,26.4723288 163.800615,27.7084932 C162.619077,22.4087671 160.531692,17.3852055 158.444308,12.4010959 C157.643487,12.3353425 156.01559,12.1906849 155.214769,12.1249315 Z M75.4346667,14.2027397 C76.4586667,19.0290411 77.5351795,23.8553425 78.6379487,28.6684932 C79.3206154,28.4054795 80.6859487,27.8794521 81.3686154,27.6164384 C81.1716923,25.4728767 80.961641,23.3424658 80.830359,21.1989041 C83.4297436,23.4608219 85.5433846,26.6958904 89.3374359,26.8142466 C86.4886154,22.9216438 85.0970256,18.5424658 85.8190769,13.7161644 C82.3532308,12.940274 78.848,13.4531507 75.4346667,14.2027397 Z M171.113026,13.4926027 C166.373744,14.9128767 164.548923,21.5671233 167.450256,25.4071233 C169.918359,28.3791781 174.093128,28.0241096 177.545846,28.3791781 C178.044718,25.6306849 178.54359,22.8821918 179.029333,20.1468493 C176.850051,19.8575342 174.670769,19.5945205 172.491487,19.3446575 C173.607385,21.5013699 174.618256,23.7238356 175.419077,26.0120548 C171.992615,25.4728767 168.159179,23.0005479 169.878974,19.0290411 C171.231179,14.5446575 176.456205,16.6356164 179.803897,16.6750685 C179.554462,15.9780822 179.068718,14.5841096 178.819282,13.8871233 C176.259282,13.6241096 173.686154,13.2164384 171.113026,13.4926027 Z M185.252103,16.070137 C183.479795,20.6334247 181.654974,25.1835616 179.987692,29.7863014 C183.164718,30.930411 186.381128,32.1008219 189.755077,32.5479452 C187.75959,30.2728767 185.278359,28.3923288 183.978667,25.5912329 C186.407385,25.7621918 188.849231,26.0383562 191.291077,26.2487671 C189.479385,24.249863 187.497026,22.4087671 185.698462,20.409863 C188.442256,20.5676712 191.186051,20.8438356 193.942974,20.9490411 C191.737436,18.2531507 188.350359,17.28 185.252103,16.070137 Z M59.2607179,20.9227397 C61.2299487,25.3939726 63.2779487,29.8126027 65.2865641,34.2575342 C68.4242051,32.7057534 72.4020513,31.6273973 74.0168205,28.1950685 C75.1721026,24.8021918 73.4523077,20.5545205 70.3671795,18.8186301 C66.5206154,17.5430137 62.7396923,19.5024658 59.2607179,20.9227397 Z M195.373949,20.5413699 C196.135385,22.4482192 197.225026,24.210411 197.894564,26.1567123 C196.319179,29.4969863 194.336821,32.64 192.708923,35.9539726 C193.864205,36.0854795 195.032615,36.1512329 196.201026,36.1643836 C198.078359,33.3238356 199.548718,30.220274 201.045333,27.1693151 C203.001436,27.2745205 204.970667,27.3271233 206.939897,27.3271233 C203.618462,24.2630137 199.561846,22.1589041 195.373949,20.5413699 Z M52.3552821,25.1441096 C54.9021538,29.549589 57.4621538,33.9682192 60.416,38.1238356 C60.8492308,37.4794521 61.7156923,36.2038356 62.1489231,35.5726027 C60.2584615,31.3117808 57.4884103,27.5112329 55.1647179,23.4871233 C54.4689231,23.8947945 53.0642051,24.7232877 52.3552821,25.1441096 Z M60.3372308,47.250411 C46.9333333,56.429589 37.7435897,71.3687671 35.5774359,87.4915068 C27.1622564,87.4389041 18.7602051,87.4520548 10.3450256,87.4915068 C10.3318974,93.2909589 10.3318974,99.1035616 10.3450256,104.903014 C18.6026667,104.995068 26.8603077,104.745205 35.1179487,104.968767 C37.1790769,109.900274 37.5729231,115.476164 40.0147692,120.315616 C49.4933333,142.040548 72.4808205,156.059178 95.8490256,156.795616 C116.407795,157.045479 136.966564,156.821918 157.525333,156.913973 C172.097641,156.887671 186.801231,152.469041 198.419692,143.526575 C210.681436,134.321096 219.254154,120.236712 221.223385,104.968767 C229.52041,104.876712 237.817436,104.876712 246.114462,104.968767 C246.166974,99.129863 246.153846,93.2909589 246.12759,87.4652055 C237.856821,87.4783562 229.586051,87.4520548 221.315282,87.4783562 C219.293538,72.0789041 210.812718,57.6789041 198.301538,48.5128767 C186.722462,39.5441096 172.045128,35.2569863 157.499077,35.1780822 C138.712615,35.0071233 119.913026,35.1254795 101.113436,35.1123288 C86.7380513,35.059726 72.0869744,38.7156164 60.3372308,47.250411 Z M207.451897,149.812603 C209.197949,151.614247 210.917744,153.442192 212.598154,155.309589 C214.488615,154.020822 216.405333,152.784658 218.400821,151.666849 C219.687385,154.993973 217.061744,157.374247 215.289436,159.833425 C219.949949,160.832877 224.347897,154.612603 220.921436,150.877808 C218.755282,147.45863 214.882462,150.088767 212.020513,150.864658 C213.13641,148.576438 214.344205,146.340822 215.355077,144 C212.151795,145.065205 209.788718,147.498082 207.451897,149.812603 Z M39.5158974,148.852603 C40.2116923,151.758904 41.1306667,154.625753 41.9052308,157.532055 C39.4633846,156.427397 37.1134359,155.151781 34.6847179,154.020822 C35.1442051,158.110685 39.7522051,162.147945 43.7037949,159.54411 C47.169641,156.795616 43.4281026,152.44274 43.1392821,149.076164 C45.0428718,150.023014 46.9070769,151.061918 48.7187692,152.192877 C49.0469744,151.587945 49.7033846,150.391233 50.0447179,149.786301 C47.9967179,148.497534 46.1325128,146.406575 43.5725128,146.327671 C42.1152821,146.985205 40.8549744,147.984658 39.5158974,148.852603 Z M50.7405128,151.48274 C51.3706667,153.429041 52.0664615,155.349041 52.8410256,157.24274 C50.8586667,160.609315 45.5942564,164.067945 48.5087179,168.302466 C51.0162051,165.435616 53.2742564,162.358356 55.4141538,159.215342 C57.3833846,159.425753 59.3526154,159.636164 61.3349744,159.754521 C58.6568205,156.046027 54.6921026,153.613151 50.7405128,151.48274 Z M200.992821,155.414795 C201.386667,159.386301 201.728,163.357808 202.305641,167.316164 C205.377641,165.948493 208.52841,164.646575 211.954872,165.488219 C211.876103,163.870685 211.810462,162.253151 211.784205,160.648767 C208.370872,158.899726 206.073436,155.796164 203.749744,152.850411 C203.067077,153.494795 201.688615,154.770411 200.992821,155.414795 Z M62.3195897,159.189041 C59.8252308,163.594521 57.0683077,167.881644 55.0859487,172.563288 C55.7817436,172.563288 57.1733333,172.550137 57.8691282,172.550137 C61.1774359,169.117808 62.9234872,164.528219 65.3259487,160.477808 C64.3282051,160.043836 63.3304615,159.623014 62.3195897,159.189041 Z M189.033026,162.161096 C187.825231,164.751781 189.715692,167.342466 190.411487,169.788493 C192.945231,169.512329 195.452718,169.14411 197.986462,168.828493 C196.214154,170.958904 194.297436,172.957808 192.617026,175.167123 C194.993231,174.509589 198.380308,174.627945 199.456821,171.892603 C201.110974,167.408219 198.708513,161.621918 194.310564,159.662466 C192.341333,159.807123 190.253949,160.50411 189.033026,162.161096 Z M62.3721026,176.64 C65.4047179,176.692603 66.494359,173.891507 67.6627692,171.64274 C69.5138462,171.787397 71.3517949,171.932055 73.1897436,172.010959 C71.4830769,170.11726 69.7764103,168.210411 68.608,165.935342 C72.1132308,166.632329 75.5396923,167.723836 78.9530256,168.77589 C79.1630769,173.010411 75.8678974,178.875616 80.3708718,181.597808 C81.2110769,177.863014 81.7362051,174.062466 82.2219487,170.248767 C84.0205128,169.34137 85.7665641,168.302466 87.4469744,167.171507 C80.7122051,166.237808 73.8986667,165.369863 67.8334359,162.069041 C65.7197949,166.803288 63.6192821,171.576986 62.3721026,176.64 Z M178.793026,170.012055 C180.013949,170.077808 182.455795,170.222466 183.66359,170.288219 C184.477538,173.141918 185.383385,175.969315 186.302359,178.796712 C187.090051,178.494247 188.691692,177.876164 189.492513,177.573699 C187.772718,172.892055 186.197333,168.144658 184.385641,163.489315 C181.956923,165.133151 180.224,167.500274 178.793026,170.012055 Z M88.4578462,166.527123 C88.4578462,171.366575 88.4447179,176.206027 88.4709744,181.045479 C91.6086154,180.992877 94.7725128,180.913973 97.9101538,180.585205 C96.2953846,178.126027 93.2365128,178.126027 90.689641,177.507945 C92.0681026,174.812055 95.2713846,174.627945 97.7526154,173.510137 C95.3764103,172.563288 92.9476923,171.761096 90.5189744,170.958904 C92.9345641,169.53863 95.4420513,168.328767 97.8707692,166.961096 C94.7462564,166.645479 91.6086154,166.553425 88.4578462,166.527123 Z M98.3565128,167.710685 C100.010667,168.618082 101.677949,169.486027 103.371487,170.314521 C103.213949,173.865205 103.200821,177.41589 103.187692,180.966575 C103.949128,180.953425 105.485128,180.927123 106.246564,180.913973 C106.246564,177.323836 106.246564,173.720548 106.246564,170.130411 C108.084513,169.459726 109.896205,168.736438 111.694769,167.973699 C107.506872,165.909041 102.662564,166.211507 98.3565128,167.710685 Z M118.718359,170.906301 C120.162462,171.313973 121.619692,171.682192 123.076923,172.02411 C122.985026,175.390685 123.02441,178.770411 123.195077,182.136986 C123.825231,181.82137 125.085538,181.216438 125.715692,180.900822 C126.542769,176.087671 126.267077,171.156164 126.424615,166.290411 C123.457641,167.092603 120.871385,168.749589 118.718359,170.906301 Z M129.299692,177.113425 C129.378462,180.335342 133.172513,182.860274 136.086974,181.282192 C139.605333,180.203836 138.699487,175.995616 138.791385,173.194521 C136.415179,172.497534 134.012718,171.879452 131.649641,171.169315 C134.144,170.038356 136.743385,169.196712 139.290256,168.19726 C138.24,167.776438 136.139487,166.921644 135.076103,166.500822 C129.824821,166.750685 128.564513,172.905205 129.299692,177.113425 Z M140.839385,182.4 C142.257231,181.426849 143.990154,180.624658 144.305231,178.74411 C145.854359,174.627945 147.350974,170.472329 148.164923,166.145753 C142.953026,169.617534 142.769231,176.916164 140.839385,182.4 Z M150.226051,171.353425 C151.657026,171.64274 153.114256,171.892603 154.558359,172.142466 C154.453333,175.561644 154.47959,178.993973 154.624,182.426301 C155.267282,182.110685 156.540718,181.492603 157.170872,181.176986 C158.089846,176.376986 157.971692,171.432329 157.853538,166.566575 C154.886564,167.42137 152.274051,169.065205 150.226051,171.353425 Z M160.164103,169.709589 C162.619077,169.972603 165.074051,170.183014 167.515897,170.551233 C165.087179,174.430685 161.726359,177.613151 159.442051,181.584658 C163.380513,181.518904 168.027897,182.899726 171.231179,179.835616 C169.288205,179.441096 167.332103,179.072877 165.376,178.730959 C167.739077,176.035068 171.099897,172.694795 169.235692,168.789041 C166.872615,165.830137 162.185846,166.829589 160.164103,169.709589 Z" id="Shape"></path>
                <path d="M80.0951795,16.0438356 C81.854359,14.7419178 84.0205128,17.6482192 82.0644103,18.8186301 C80.3446154,20.1994521 78.2178462,17.1747945 80.0951795,16.0438356 Z" id="Shape"></path>
                <path d="M156.383179,17.3720548 C158.509949,17.030137 159.179487,20.9358904 157.105231,21.4356164 C154.702769,21.9353425 154.427077,18.0558904 156.383179,17.3720548 Z" id="Shape"></path>
                <path d="M63.2910769,21.6328767 C65.9429744,21.1989041 69.6451282,20.8964384 70.5378462,24.1972603 C71.9425641,27.0378082 69.2775385,29.1024658 67.5314872,30.8909589 C65.982359,27.8663014 64.577641,24.7758904 63.2910769,21.6328767 Z" id="Shape"></path>
                <path d="M111.392821,54.470137 C134.564103,54.509589 157.722256,54.4964384 180.893538,54.4832877 C180.906667,55.9035616 180.906667,57.3238356 180.919795,58.7572603 C157.722256,58.770411 134.524718,58.7572603 111.327179,58.7572603 C111.366564,57.3369863 111.379692,55.9035616 111.392821,54.470137 Z" id="Shape"></path>
                <path d="M93.4990769,64.6224658 C128.472615,64.6356164 163.446154,64.6093151 198.419692,64.6356164 C198.419692,66.6739726 198.419692,68.7123288 198.406564,70.7638356 C163.446154,70.7769863 128.472615,70.7506849 93.5122051,70.7769863 C93.5122051,68.7254795 93.4990769,66.6739726 93.4990769,64.6224658 Z" id="Shape"></path>
                <path d="M53.4317949,81.1265753 C57.8166154,77.4180822 64.512,75.9320548 69.6845128,78.8383562 C72.8352821,80.5216438 74.0299487,84.1249315 75.6315897,87.0706849 C73.1634872,88.4515068 70.6822564,89.7665753 68.1878974,91.1079452 C66.5074872,88.8986301 65.1946667,84.8876712 61.7156923,85.6109589 C56.5300513,86.7550685 54.272,92.6860274 53.9306667,97.459726 C53.5762051,101.141918 54.8365128,106.336438 59.1556923,106.901918 C62.6609231,107.598904 64.6170256,104.140274 66.5074872,101.878356 C64.3675897,101.615342 62.2276923,101.365479 60.0877949,101.141918 C60.4422564,98.7747945 60.7835897,96.3945205 61.0986667,94.0273973 C66.0611282,94.0668493 71.0235897,94.0405479 75.9860513,94.1063014 C75.0408205,99.8794521 73.7148718,106.033973 69.3825641,110.294795 C65.4572308,114.766027 58.6436923,115.857534 53.248,113.740274 C47.5241026,111.228493 45.4104615,104.416438 45.7255385,98.6038356 C46.2244103,92.1863014 48.3643077,85.4005479 53.4317949,81.1265753 Z" id="Shape"></path>
                <path d="M82.7339487,79.7457534 C86.2654359,79.7063014 89.7837949,79.7063014 93.3152821,79.7063014 C95.297641,87.0443836 96.9517949,94.4745205 99.3673846,101.681096 C100.772103,94.3430137 102.019282,86.9786301 103.424,79.6405479 C106.115282,79.6931507 108.793436,79.7194521 111.484718,79.7457534 C109.292308,91.1210959 107.165538,102.496438 104.96,113.871781 C101.52041,113.845479 98.0939487,113.845479 94.654359,113.845479 C92.5538462,106.481096 90.6371282,99.0509589 88.5234872,91.6734247 C86.8168205,98.9983562 85.7009231,106.441644 84.3618462,113.845479 C81.6574359,113.845479 78.9661538,113.845479 76.2748718,113.85863 C78.3491282,102.470137 80.6859487,91.1342466 82.7339487,79.7457534 Z" id="Shape"></path>
                <path d="M109.20041,113.832329 C111.616,102.430685 114.057846,91.0421918 116.578462,79.6668493 C124.599795,79.7589041 132.621128,79.6668493 140.629333,79.7457534 C140.169846,81.9419178 139.723487,84.1380822 139.264,86.3210959 C134.314667,86.2947945 129.365333,86.2947945 124.429128,86.3210959 C123.995897,88.5172603 123.562667,90.7134247 123.129436,92.9227397 C127.789949,92.8832877 132.450462,92.8832877 137.110974,92.9227397 C136.55959,95.2372603 135.995077,97.5517808 135.443692,99.8663014 C130.783179,99.7873973 126.122667,99.7742466 121.462154,99.9715068 C121.002667,102.272877 120.530051,104.561096 120.070564,106.862466 C125.177436,106.875616 130.284308,106.862466 135.391179,106.875616 C134.892308,109.190137 134.406564,111.504658 133.933949,113.819178 C125.689436,113.85863 117.444923,113.845479 109.20041,113.832329 Z" id="Shape"></path>
                <path d="M137.938051,113.806027 C140.209231,102.391233 142.637949,91.0158904 145.053538,79.6405479 C148.204308,79.6931507 151.355077,79.7194521 154.518974,79.7457534 C152.103385,91.1079452 149.779692,102.483288 147.403487,113.85863 C144.252718,113.845479 141.088821,113.845479 137.938051,113.806027 Z" id="Shape"></path>
                <path d="M160.728615,80.8241096 C167.332103,78.72 174.421333,80.0613699 181.248,79.7326027 C180.709744,82.0208219 180.171487,84.3090411 179.646359,86.5972603 C174.053744,86.7024658 168.30359,86.0712329 162.947282,88.0569863 C166.925128,92.0679452 172.570256,93.9221918 176.311795,98.1961644 C180.434051,102.90411 178.097231,111.55726 171.716923,112.846027 C165.047795,114.174247 158.142359,113.187945 151.381333,113.411507 C151.932718,111.136438 152.497231,108.86137 153.061744,106.586301 C158.536205,105.731507 164.811487,107.914521 169.695179,104.968767 C169.143795,99.6032877 162.684718,98.7616438 159.37641,95.500274 C154.361436,92.1205479 154.663385,82.8624658 160.728615,80.8241096 Z" id="Shape"></path>
                <path d="M183.716103,79.7326027 C192.472615,79.6931507 201.242256,79.7063014 209.998769,79.7194521 C209.526154,81.9813699 209.053538,84.2432877 208.594051,86.5052055 C205.745231,86.610411 202.89641,86.7024658 200.04759,86.860274 C198.235897,95.8816438 196.24041,104.863562 194.336821,113.85863 C191.159795,113.845479 187.995897,113.845479 184.832,113.845479 C186.683077,104.771507 188.652308,95.7238356 190.555897,86.6761644 C187.785846,86.6367123 185.028923,86.6235616 182.272,86.5841096 C182.744615,84.2958904 183.230359,82.0076712 183.716103,79.7326027 Z" id="Shape"></path>
                <path d="M78.848,122.748493 C113.650872,122.761644 148.440615,122.787945 183.243487,122.748493 C183.243487,124.681644 183.243487,126.627945 183.256615,128.574247 C148.440615,128.547945 113.624615,128.587397 78.8217436,128.547945 C78.8217436,126.614795 78.8348718,124.681644 78.848,122.748493 Z" id="Shape"></path>
                <path d="M96.190359,134.413151 C119.217231,134.413151 142.244103,134.452603 165.257846,134.4 C165.284103,135.452055 165.349744,137.582466 165.376,138.647671 C142.309744,138.463562 119.256615,138.936986 96.2034872,139.055342 C96.2034872,137.503562 96.2034872,135.964932 96.190359,134.413151 Z" id="Shape"></path>
                <path d="M203.618462,158.807671 C205.67959,157.860822 207.635692,161.516712 206.060308,162.976438 C203.841641,164.067945 202.029949,160.32 203.618462,158.807671 Z" id="Shape"></path>
                <path d="M192.262564,163.147397 C194.376205,161.174795 196.765538,165.948493 194.139897,166.737534 C192.393846,166.934795 191.186051,164.475616 192.262564,163.147397 Z" id="Shape"></path>
                <path d="M133.014974,175.193425 C134.971077,173.602192 136.953436,177.100274 135.049846,178.37589 C133.080615,179.980274 131.137641,176.469041 133.014974,175.193425 Z" id="Shape"></path>
            </g>
            <g id="#ffffffff" transform="translate(9.189744, 10.520548)" fill="#FFFFFF">
                <path d="M81.5655385,1.63068493 C84.9132308,1.84109589 88.7072821,0.90739726 91.5692308,3.18246575 C89.1273846,3.70849315 86.6855385,4.22136986 84.2305641,4.70794521 C85.3464615,7.10136986 88.0114872,7.11452055 90.2432821,7.57479452 C90.2170256,8.03506849 90.177641,8.96876712 90.1645128,9.4290411 C87.9195897,9.88931507 85.057641,9.70520548 84.414359,12.5063014 C86.8562051,13.3742466 90.4402051,12.8219178 91.3329231,15.9123288 C88.2346667,16.0569863 85.1364103,16.0832877 82.0250256,16.070137 C82.0381538,11.2569863 81.7755897,6.44383562 81.5655385,1.63068493 Z" id="Shape"></path>
                <path d="M91.2541538,2.03835616 C95.2582564,1.28876712 99.4724103,0.683835616 103.489641,1.56493151 C105.261949,4.11616438 101.244718,3.80054795 99.8137436,4.64219178 C99.2886154,8.52164384 101.966769,15.0969863 96.9124103,16.4383562 C96.7154872,12.5457534 96.7154872,8.64 96.7548718,4.74739726 C94.8644103,3.97150685 93.0002051,3.10356164 91.2541538,2.03835616 Z" id="Shape"></path>
                <path d="M105.078154,1.57808219 C109.213538,1.30191781 113.401436,1.59123288 117.471179,2.38027397 C115.659487,3.27452055 113.769026,3.98465753 111.865436,4.66849315 C111.891692,8.4690411 111.917949,12.269589 111.904821,16.070137 C111.117128,16.070137 109.528615,16.0569863 108.740923,16.0569863 C108.727795,12.2827397 108.740923,8.49534247 108.845949,4.72109589 C107.441231,3.82684932 104.08041,4.06356164 105.078154,1.57808219 Z" id="Shape"></path>
                <path d="M121.133949,1.60438356 C123.418256,0.499726027 125.702564,1.95945205 127.868718,2.60383562 C125.531897,3.55068493 123.168821,4.3660274 120.805744,5.2339726 C123.260718,7.4169863 128.485744,8.66630137 127.435487,12.9008219 C126.424615,17.3063014 119.978667,16.8460274 117.274256,14.2553425 C119.847385,13.5452055 122.473026,12.979726 125.019897,12.1643836 C122.578051,10.5994521 120.096821,9.12657534 117.681231,7.53534247 C118.285128,5.3260274 118.298256,2.13041096 121.133949,1.60438356 Z" id="Shape"></path>
                <path d="M130.494359,16.0832877 C131.242667,11.0728767 128.695795,4.18191781 133.382564,0.683835616 C134.091487,4.68164384 134.144,8.74520548 134.078359,12.7824658 C136.323282,13.3216438 139.027692,13.3610959 140.064821,15.8334247 C136.874667,16.0438356 133.684513,16.0964384 130.494359,16.0832877 Z" id="Shape"></path>
                <path d="M146.025026,1.60438356 C146.825846,1.67013699 148.453744,1.81479452 149.254564,1.88054795 C151.341949,6.86465753 153.429333,11.8882192 154.610872,17.1879452 C151.972103,15.9517808 150.002872,13.229589 147.035897,12.7956164 C144.594051,13.7950685 142.519795,15.4783562 140.169846,16.6619178 C141.718974,11.4936986 143.937641,6.57534247 146.025026,1.60438356 Z M147.193436,6.85150685 C145.237333,7.53534247 145.513026,11.4147945 147.915487,10.9150685 C149.989744,10.4153425 149.320205,6.50958904 147.193436,6.85150685 Z" id="Shape"></path>
                <path d="M66.2449231,3.68219178 C69.6582564,2.93260274 73.1634872,2.41972603 76.6293333,3.19561644 C75.9072821,8.02191781 77.2988718,12.4010959 80.1476923,16.2936986 C76.353641,16.1753425 74.24,12.940274 71.6406154,10.6783562 C71.7718974,12.8219178 71.9819487,14.9523288 72.1788718,17.0958904 C71.4962051,17.3589041 70.1308718,17.8849315 69.4482051,18.1479452 C68.3454359,13.3347945 67.2689231,8.50849315 66.2449231,3.68219178 Z M70.9054359,5.52328767 C69.0281026,6.65424658 71.1548718,9.67890411 72.8746667,8.29808219 C74.8307692,7.12767123 72.6646154,4.22136986 70.9054359,5.52328767 Z" id="Shape"></path>
                <path d="M161.923282,2.97205479 C164.49641,2.69589041 167.069538,3.10356164 169.629538,3.36657534 C169.878974,4.06356164 170.364718,5.45753425 170.614154,6.15452055 C167.266462,6.11506849 162.041436,4.02410959 160.689231,8.50849315 C158.969436,12.48 162.802872,14.9523288 166.229333,15.4915068 C165.428513,13.2032877 164.417641,10.9808219 163.301744,8.82410959 C165.481026,9.0739726 167.660308,9.3369863 169.83959,9.62630137 C169.353846,12.3616438 168.854974,15.110137 168.356103,17.8586301 C164.903385,17.5035616 160.728615,17.8586301 158.260513,14.8865753 C155.359179,11.0465753 157.184,4.39232877 161.923282,2.97205479 Z" id="Shape"></path>
                <path d="M176.062359,5.54958904 C179.160615,6.75945205 182.547692,7.73260274 184.753231,10.4284932 C181.996308,10.3232877 179.252513,10.0471233 176.508718,9.88931507 C178.307282,11.8882192 180.289641,13.7293151 182.101333,15.7282192 C179.659487,15.5178082 177.217641,15.2416438 174.788923,15.0706849 C176.088615,17.8717808 178.569846,19.7523288 180.565333,22.0273973 C177.191385,21.580274 173.974974,20.409863 170.797949,19.2657534 C172.465231,14.6630137 174.290051,10.1128767 176.062359,5.54958904 Z" id="Shape"></path>
                <path d="M50.0709744,10.4021918 C53.5499487,8.98191781 57.3308718,7.02246575 61.1774359,8.29808219 C64.2625641,10.0339726 65.982359,14.2816438 64.8270769,17.6745205 C63.2123077,21.1068493 59.2344615,22.1852055 56.0968205,23.7369863 C54.0882051,19.2920548 52.0402051,14.8734247 50.0709744,10.4021918 Z M54.1013333,11.1123288 C55.3878974,14.2553425 56.7926154,17.3457534 58.3417436,20.370411 C60.0877949,18.5819178 62.7528205,16.5172603 61.3481026,13.6767123 C60.4553846,10.3758904 56.7532308,10.6783562 54.1013333,11.1123288 Z" id="Shape"></path>
                <path d="M186.184205,10.0208219 C190.372103,11.6383562 194.428718,13.7424658 197.750154,16.8065753 C195.780923,16.8065753 193.811692,16.7539726 191.85559,16.6487671 C190.358974,19.699726 188.888615,22.8032877 187.011282,25.6438356 C185.842872,25.6306849 184.674462,25.5649315 183.519179,25.4334247 C185.147077,22.1194521 187.129436,18.9764384 188.704821,15.6361644 C188.035282,13.689863 186.945641,11.9276712 186.184205,10.0208219 Z" id="Shape"></path>
                <path d="M43.1655385,14.6235616 C43.8744615,14.2027397 45.2791795,13.3742466 45.9749744,12.9665753 C48.2986667,16.9906849 51.0687179,20.7912329 52.9591795,25.0520548 C52.5259487,25.6832877 51.6594872,26.9589041 51.2262564,27.6032877 C48.2724103,23.4476712 45.7124103,19.0290411 43.1655385,14.6235616 Z" id="Shape"></path>
                <path d="M51.1474872,36.729863 C62.8972308,28.1950685 77.5483077,24.5391781 91.9236923,24.5917808 C110.723282,24.6049315 129.522872,24.4865753 148.309333,24.6575342 C162.855385,24.7364384 177.532718,29.0235616 189.111795,37.9923288 C201.622974,47.1583562 210.103795,61.5583562 212.125538,76.9578082 C220.396308,76.9315068 228.667077,76.9578082 236.937846,76.9446575 C236.964103,82.770411 236.977231,88.6093151 236.924718,94.4482192 C228.627692,94.3561644 220.330667,94.3561644 212.033641,94.4482192 C210.06441,109.716164 201.491692,123.800548 189.229949,133.006027 C177.611487,141.948493 162.907897,146.367123 148.33559,146.393425 C127.776821,146.30137 107.218051,146.524932 86.6592821,146.275068 C63.2910769,145.53863 40.3035897,131.52 30.8250256,109.795068 C28.3831795,104.955616 27.9893333,99.379726 25.9282051,94.4482192 C17.6705641,94.2246575 9.41292308,94.4745205 1.15528205,94.3824658 C1.14215385,88.5830137 1.14215385,82.770411 1.15528205,76.9709589 C9.57046154,76.9315068 17.9725128,76.9183562 26.3876923,76.9709589 C28.5538462,60.8482192 37.7435897,45.9090411 51.1474872,36.729863 Z M102.203077,43.949589 C102.189949,45.3830137 102.176821,46.8164384 102.137436,48.2367123 C125.334974,48.2367123 148.532513,48.249863 171.730051,48.2367123 C171.716923,46.8032877 171.716923,45.3830137 171.703795,43.9627397 C148.532513,43.9758904 125.374359,43.9890411 102.203077,43.949589 Z M84.3093333,54.1019178 C84.3093333,56.1534247 84.3224615,58.2049315 84.3224615,60.2564384 C119.282872,60.230137 154.25641,60.2564384 189.216821,60.2432877 C189.229949,58.1917808 189.229949,56.1534247 189.229949,54.1150685 C154.25641,54.0887671 119.282872,54.1150685 84.3093333,54.1019178 Z M44.2420513,70.6060274 C39.1745641,74.88 37.0346667,81.6657534 36.5357949,88.0832877 C36.2207179,93.8958904 38.334359,100.707945 44.0582564,103.219726 C49.4539487,105.336986 56.2674872,104.245479 60.1928205,99.7742466 C64.5251282,95.5134247 65.8510769,89.3589041 66.7963077,83.5857534 C61.8338462,83.52 56.8713846,83.5463014 51.9089231,83.5068493 C51.5938462,85.8739726 51.2525128,88.2542466 50.8980513,90.6213699 C53.0379487,90.8449315 55.1778462,91.0947945 57.3177436,91.3578082 C55.4272821,93.619726 53.4711795,97.0783562 49.9659487,96.3813699 C45.6467692,95.8158904 44.3864615,90.6213699 44.7409231,86.9391781 C45.0822564,82.1654795 47.3403077,76.2345205 52.5259487,75.090411 C56.0049231,74.3671233 57.3177436,78.3780822 58.9981538,80.5873973 C61.4925128,79.2460274 63.9737436,77.9309589 66.4418462,76.550137 C64.8402051,73.6043836 63.6455385,70.0010959 60.4947692,68.3178082 C55.3222564,65.4115068 48.6268718,66.8975342 44.2420513,70.6060274 Z M73.5442051,69.2252055 C71.4962051,80.6136986 69.1593846,91.949589 67.0851282,103.338082 C69.7764103,103.324932 72.4676923,103.324932 75.1721026,103.324932 C76.5111795,95.9210959 77.6270769,88.4778082 79.3337436,81.1528767 C81.4473846,88.530411 83.3641026,95.9605479 85.4646154,103.324932 C88.9042051,103.324932 92.3306667,103.324932 95.7702564,103.351233 C97.9757949,91.9758904 100.102564,80.6005479 102.294974,69.2252055 C99.6036923,69.1989041 96.9255385,69.1726027 94.2342564,69.12 C92.8295385,76.4580822 91.582359,83.8224658 90.177641,91.1605479 C87.7620513,83.9539726 86.1078974,76.5238356 84.1255385,69.1857534 C80.5940513,69.1857534 77.0756923,69.1857534 73.5442051,69.2252055 Z M100.010667,103.311781 C108.255179,103.324932 116.499692,103.338082 124.744205,103.29863 C125.216821,100.98411 125.702564,98.669589 126.201436,96.3550685 C121.094564,96.3419178 115.987692,96.3550685 110.880821,96.3419178 C111.340308,94.0405479 111.812923,91.7523288 112.27241,89.4509589 C116.932923,89.2536986 121.593436,89.2668493 126.253949,89.3457534 C126.805333,87.0312329 127.369846,84.7167123 127.921231,82.4021918 C123.260718,82.3627397 118.600205,82.3627397 113.939692,82.4021918 C114.372923,80.1928767 114.806154,77.9967123 115.239385,75.8005479 C120.17559,75.7742466 125.124923,75.7742466 130.074256,75.8005479 C130.533744,73.6175342 130.980103,71.4213699 131.43959,69.2252055 C123.431385,69.1463014 115.410051,69.2383562 107.388718,69.1463014 C104.868103,80.5216438 102.426256,91.910137 100.010667,103.311781 Z M128.748308,103.285479 C131.899077,103.324932 135.062974,103.324932 138.213744,103.338082 C140.589949,91.9627397 142.913641,80.5873973 145.329231,69.2252055 C142.165333,69.1989041 139.014564,69.1726027 135.863795,69.12 C133.448205,80.4953425 131.019487,91.8706849 128.748308,103.285479 Z M151.538872,70.3035616 C145.473641,72.3419178 145.171692,81.6 150.186667,84.979726 C153.494974,88.2410959 159.954051,89.0827397 160.505436,94.4482192 C155.621744,97.3939726 149.346462,95.2109589 143.872,96.0657534 C143.307487,98.3408219 142.742974,100.61589 142.19159,102.890959 C148.952615,102.667397 155.858051,103.653699 162.527179,102.325479 C168.907487,101.036712 171.244308,92.3835616 167.122051,87.6756164 C163.380513,83.4016438 157.735385,81.5473973 153.757538,77.5364384 C159.113846,75.5506849 164.864,76.1819178 170.456615,76.0767123 C170.981744,73.7884932 171.52,71.500274 172.058256,69.2120548 C165.23159,69.5408219 158.142359,68.1994521 151.538872,70.3035616 Z M174.526359,69.2120548 C174.040615,71.4871233 173.554872,73.7753425 173.082256,76.0635616 C175.839179,76.1030137 178.596103,76.1161644 181.366154,76.1556164 C179.462564,85.2032877 177.493333,94.2509589 175.642256,103.324932 C178.806154,103.324932 181.970051,103.324932 185.147077,103.338082 C187.050667,94.3430137 189.046154,85.3610959 190.857846,76.339726 C193.706667,76.1819178 196.555487,76.089863 199.404308,75.9846575 C199.863795,73.7227397 200.33641,71.4608219 200.809026,69.1989041 C192.052513,69.1857534 183.282872,69.1726027 174.526359,69.2120548 Z M69.6582564,112.227945 C69.6451282,114.161096 69.632,116.094247 69.632,118.027397 C104.434872,118.066849 139.250872,118.027397 174.066872,118.053699 C174.053744,116.107397 174.053744,114.161096 174.053744,112.227945 C139.250872,112.267397 104.461128,112.241096 69.6582564,112.227945 Z M87.0006154,123.892603 C87.0137436,125.444384 87.0137436,126.983014 87.0137436,128.534795 C110.066872,128.416438 133.12,127.943014 156.186256,128.127123 C156.16,127.061918 156.094359,124.931507 156.068103,123.879452 C133.054359,123.932055 110.027487,123.892603 87.0006154,123.892603 Z" id="Shape"></path>
                <path d="M198.262154,139.292055 C200.598974,136.977534 202.962051,134.544658 206.165333,133.479452 C205.154462,135.820274 203.946667,138.05589 202.830769,140.34411 C205.692718,139.568219 209.565538,136.938082 211.731692,140.35726 C215.158154,144.092055 210.760205,150.312329 206.099692,149.312877 C207.872,146.853699 210.497641,144.473425 209.211077,141.146301 C207.21559,142.26411 205.298872,143.500274 203.40841,144.789041 C201.728,142.921644 200.008205,141.093699 198.262154,139.292055 Z" id="Shape"></path>
                <path d="M30.3261538,138.332055 C31.6652308,137.46411 32.9255385,136.464658 34.3827692,135.807123 C36.9427692,135.886027 38.8069744,137.976986 40.8549744,139.265753 C40.513641,139.870685 39.8572308,141.067397 39.5290256,141.672329 C37.7173333,140.54137 35.8531282,139.502466 33.9495385,138.555616 C34.238359,141.922192 37.9798974,146.275068 34.5140513,149.023562 C30.5624615,151.627397 25.9544615,147.590137 25.4949744,143.500274 C27.9236923,144.631233 30.273641,145.906849 32.7154872,147.011507 C31.9409231,144.105205 31.0219487,141.238356 30.3261538,138.332055 Z" id="Shape"></path>
                <path d="M41.5507692,140.962192 C45.502359,143.092603 49.4670769,145.525479 52.1452308,149.233973 C50.1628718,149.115616 48.193641,148.905205 46.2244103,148.694795 C44.0845128,151.837808 41.8264615,154.915068 39.3189744,157.781918 C36.4045128,153.547397 41.6689231,150.088767 43.6512821,146.722192 C42.8767179,144.828493 42.1809231,142.908493 41.5507692,140.962192 Z" id="Shape"></path>
                <path d="M191.803077,144.894247 C192.498872,144.249863 193.877333,142.974247 194.56,142.329863 C196.883692,145.275616 199.181128,148.379178 202.594462,150.128219 C202.620718,151.732603 202.686359,153.350137 202.765128,154.967671 C199.338667,154.126027 196.187897,155.427945 193.115897,156.795616 C192.538256,152.83726 192.196923,148.865753 191.803077,144.894247 Z M194.428718,148.287123 C192.840205,149.799452 194.651897,153.547397 196.870564,152.45589 C198.445949,150.996164 196.489846,147.340274 194.428718,148.287123 Z" id="Shape"></path>
                <path d="M53.1298462,148.668493 C54.1407179,149.102466 55.1384615,149.523288 56.1362051,149.95726 C53.7337436,154.007671 51.9876923,158.59726 48.6793846,162.029589 C47.9835897,162.029589 46.592,162.04274 45.8962051,162.04274 C47.8785641,157.361096 50.6354872,153.073973 53.1298462,148.668493 Z" id="Shape"></path>
                <path d="M179.843282,151.640548 C181.064205,149.983562 183.15159,149.286575 185.120821,149.141918 C189.518769,151.10137 191.921231,156.887671 190.267077,161.372055 C189.190564,164.107397 185.803487,163.989041 183.427282,164.646575 C185.107692,162.43726 187.02441,160.438356 188.796718,158.307945 C186.262974,158.623562 183.755487,158.991781 181.221744,159.267945 C180.525949,156.821918 178.635487,154.231233 179.843282,151.640548 Z M183.072821,152.626849 C181.996308,153.955068 183.204103,156.414247 184.950154,156.216986 C187.575795,155.427945 185.186462,150.654247 183.072821,152.626849 Z" id="Shape"></path>
                <path d="M53.182359,166.119452 C54.4295385,161.056438 56.5300513,156.28274 58.6436923,151.548493 C64.7089231,154.849315 71.5224615,155.71726 78.2572308,156.650959 C76.5768205,157.781918 74.8307692,158.820822 73.0322051,159.728219 C72.5464615,163.541918 72.0213333,167.342466 71.1811282,171.07726 C66.6781538,168.355068 69.9733333,162.489863 69.7632821,158.255342 C66.3499487,157.203288 62.9234872,156.111781 59.4182564,155.414795 C60.5866667,157.689863 62.2933333,159.596712 64,161.490411 C62.1620513,161.411507 60.3241026,161.266849 58.4730256,161.122192 C57.3046154,163.370959 56.2149744,166.172055 53.182359,166.119452 Z" id="Shape"></path>
                <path d="M169.603282,159.491507 C171.034256,156.979726 172.767179,154.612603 175.195897,152.968767 C177.00759,157.62411 178.582974,162.371507 180.302769,167.053151 C179.501949,167.355616 177.900308,167.973699 177.112615,168.276164 C176.193641,165.448767 175.287795,162.62137 174.473846,159.767671 C173.266051,159.701918 170.824205,159.55726 169.603282,159.491507 Z" id="Shape"></path>
                <path d="M79.2681026,156.006575 C82.4188718,156.032877 85.5565128,156.124932 88.6810256,156.440548 C86.2523077,157.808219 83.7448205,159.018082 81.3292308,160.438356 C83.7579487,161.240548 86.1866667,162.04274 88.5628718,162.989589 C86.081641,164.107397 82.878359,164.291507 81.4998974,166.987397 C84.0467692,167.605479 87.105641,167.605479 88.7204103,170.064658 C85.5827692,170.393425 82.4188718,170.472329 79.2812308,170.524932 C79.2549744,165.685479 79.2681026,160.846027 79.2681026,156.006575 Z" id="Shape"></path>
                <path d="M89.1667692,157.190137 C93.4728205,155.690959 98.3171282,155.388493 102.505026,157.453151 C100.706462,158.21589 98.8947692,158.939178 97.0568205,159.609863 C97.0568205,163.2 97.0568205,166.803288 97.0568205,170.393425 C96.2953846,170.406575 94.7593846,170.432877 93.9979487,170.446027 C94.0110769,166.895342 94.0242051,163.344658 94.1817436,159.793973 C92.4882051,158.965479 90.8209231,158.097534 89.1667692,157.190137 Z" id="Shape"></path>
                <path d="M109.528615,160.385753 C111.681641,158.229041 114.267897,156.572055 117.234872,155.769863 C117.077333,160.635616 117.353026,165.567123 116.525949,170.380274 C115.895795,170.69589 114.635487,171.300822 114.005333,171.616438 C113.834667,168.249863 113.795282,164.870137 113.887179,161.503562 C112.429949,161.161644 110.972718,160.793425 109.528615,160.385753 Z" id="Shape"></path>
                <path d="M120.109949,166.592877 C119.374769,162.384658 120.635077,156.230137 125.886359,155.980274 C126.949744,156.401096 129.050256,157.25589 130.100513,157.676712 C127.553641,158.676164 124.954256,159.517808 122.459897,160.648767 C124.822974,161.358904 127.225436,161.976986 129.601641,162.673973 C129.509744,165.475068 130.41559,169.683288 126.897231,170.761644 C123.982769,172.339726 120.188718,169.814795 120.109949,166.592877 Z M123.825231,164.672877 C121.947897,165.948493 123.890872,169.459726 125.860103,167.855342 C127.763692,166.579726 125.781333,163.081644 123.825231,164.672877 Z" id="Shape"></path>
                <path d="M131.649641,171.879452 C133.579487,166.395616 133.763282,159.096986 138.975179,155.625205 C138.161231,159.951781 136.664615,164.107397 135.115487,168.223562 C134.80041,170.10411 133.067487,170.906301 131.649641,171.879452 Z" id="Shape"></path>
                <path d="M141.036308,160.832877 C143.084308,158.544658 145.696821,156.900822 148.663795,156.046027 C148.781949,160.911781 148.900103,165.856438 147.981128,170.656438 C147.350974,170.972055 146.077538,171.590137 145.434256,171.905753 C145.289846,168.473425 145.26359,165.041096 145.368615,161.621918 C143.924513,161.372055 142.467282,161.122192 141.036308,160.832877 Z" id="Shape"></path>
                <path d="M150.974359,159.189041 C152.996103,156.309041 157.682872,155.309589 160.045949,158.268493 C161.910154,162.174247 158.549333,165.514521 156.186256,168.210411 C158.142359,168.552329 160.098462,168.920548 162.041436,169.315068 C158.838154,172.379178 154.190769,170.998356 150.252308,171.06411 C152.536615,167.092603 155.897436,163.910137 158.326154,160.030685 C155.884308,159.662466 153.429333,159.452055 150.974359,159.189041 Z" id="Shape"></path>
            </g>
        </g>
    </g>
</svg>