<?xml version="1.0" encoding="UTF-8" standalone="no"?>
<!-- Created with Inkscape (http://www.inkscape.org/) -->

<svg
   width="256"
   height="275"
   viewBox="0 0 67.733332 72.760418"
   version="1.1"
   id="svg5"
   inkscape:version="1.1 (c68e22c387, 2021-05-23)"
   sodipodi:docname="grong.svg"
   xmlns:inkscape="http://www.inkscape.org/namespaces/inkscape"
   xmlns:sodipodi="http://sodipodi.sourceforge.net/DTD/sodipodi-0.dtd"
   xmlns="http://www.w3.org/2000/svg"
   xmlns:svg="http://www.w3.org/2000/svg">
  <sodipodi:namedview
     id="namedview7"
     pagecolor="#ffffff"
     bordercolor="#666666"
     borderopacity="1.0"
     inkscape:pageshadow="2"
     inkscape:pageopacity="0.0"
     inkscape:pagecheckerboard="0"
     inkscape:document-units="mm"
     showgrid="false"
     units="px"
     inkscape:zoom="0.69977474"
     inkscape:cx="396.55618"
     inkscape:cy="384.40942"
     inkscape:window-width="1920"
     inkscape:window-height="986"
     inkscape:window-x="-11"
     inkscape:window-y="-11"
     inkscape:window-maximized="1"
     inkscape:current-layer="layer1" />
  <defs
     id="defs2" />
  <g
     inkscape:label="Lag 1"
     inkscape:groupmode="layer"
     id="layer1">
    <path
       style="display:inline;fill:#000000;stroke:#000000;stroke-width:0.299712"
       d="m 33.224312,72.213956 c -0.352871,-0.14333 -1.211137,-0.57985 -1.907257,-0.97004 -5.928528,-3.32311 -12.301358,-9.1445 -17.434176,-15.92561 -4.7605583,-6.28931 -8.5891313,-13.66546 -11.2400773,-21.65521 -0.95412,-2.875642 -2.17542496,-7.656329 -2.35388896,-9.214077 -0.180356,-1.57426 -0.179049,-10.525071 0.0018,-12.103512 0.165551,-1.445182 -0.458291,-0.605113 5.49042796,-7.393441 l 4.208244,-4.80220102 24.1992113,0.0032 24.199201,0.0032 4.59786,5.05842102 4.59785,5.05842 v 5.670793 c 0,6.059234 -0.0786,7.187899 -0.75695,10.874902 -2.93477,15.950295 -12.00269,30.777595 -25.05168,40.962925 -2.689469,2.09925 -6.97997,4.72363 -7.68439,4.70033 -0.123507,-0.004 -0.513271,-0.12469 -0.866142,-0.26802 z m 2.072026,-2.60111 c 3.433243,-1.87084 8.351319,-5.73178 11.716009,-9.19768 5.008,-5.15864 8.83531,-10.58509 12.04631,-17.07955 3.10808,-6.2863 4.94144,-12.03087 6.21736,-19.481268 0.25592,-1.494356 0.29886,-2.378627 0.35065,-7.220332 l 0.059,-5.517422 -4.12577,-4.521515 -4.12577,-4.521515 -23.22767,-0.0061 -23.227666,-0.0061 -1.9913073,2.283803 c -3.745678,4.295867 -6.364145,7.359263 -6.606303,7.728844 -0.219087,0.334368 -0.247429,0.882499 -0.298263,5.768428 l -0.05617,5.398947 0.508454,2.179724 c 2.876248,12.330366 8.0726773,22.934716 15.7194823,32.078736 2.743697,3.2809 5.589837,5.9725 9.140141,8.64386 2.577199,1.93916 6.029783,4.0208 6.6754,4.02475 0.112393,7.2e-4 0.664135,-0.2493 1.226094,-0.55552 z"
       id="path948" />
    <path
       style="display:inline;fill:#000000;stroke:#000000;stroke-width:0.299712"
       d="M 31.219223,48.442206 C 23.166217,47.209036 17.056408,41.370076 15.326918,33.2544 c -0.340787,-1.599153 -0.346709,-5.177825 -0.01135,-6.857855 1.156479,-5.793498 4.811027,-10.67498 9.984215,-13.336195 4.412783,-2.270044 9.578451,-2.697786 14.254644,-1.180356 3.01451,0.978213 5.26836,2.395597 7.70622,4.846235 0.92331,0.928151 1.65897,1.74195 1.6348,1.808445 -0.0242,0.0665 -1.44852,1.134437 -3.16521,2.373203 l -3.12124,2.252304 -1.08847,-1.023949 c -1.29005,-1.213587 -2.749029,-2.105168 -4.248815,-2.59645 -1.313549,-0.430277 -3.958691,-0.586677 -5.47302,-0.323605 -3.234526,0.561906 -6.289067,2.906661 -7.755725,5.953521 -0.810232,1.683185 -1.045726,2.918316 -0.980242,5.141205 0.05041,1.711294 0.102351,2.051984 0.474256,3.110967 1.277487,3.637566 4.133498,6.244116 7.80861,7.126556 1.419994,0.34096 3.920598,0.31468 5.336917,-0.0561 2.713448,-0.71032 5.525789,-2.85154 6.656589,-5.06809 0.49669,-0.973602 0.57008,-0.943762 -2.32099,-0.943762 h -2.588418 v -3.678283 -3.678283 h 7.001408 c 6.25869,0 7.01018,0.02285 7.0841,0.215493 0.1692,0.440932 0.0813,4.524994 -0.12257,5.693987 -0.42513,2.437898 -1.5083,5.077478 -2.99621,7.301488 -0.93726,1.40095 -3.22981,3.743 -4.66517,4.76591 -2.10242,1.49829 -4.9702,2.73528 -7.434372,3.20676 -1.582873,0.30285 -4.549946,0.36859 -6.077652,0.13464 z"
       id="path987" />
    <path
       style="display:inline;fill:#000000;stroke:#000000;stroke-width:0.299712"
       d="m 26.849913,56.073366 v -3.20147 h 0.544931 0.544931 v 3.20147 3.20147 h -0.544931 -0.544931 z"
       id="path1026" />
    <path
       style="display:inline;fill:#000000;stroke:#000000;stroke-width:0.299712"
       d="m 30.845711,59.018586 c -0.667982,-0.31226 -0.847451,-0.59861 -0.957491,-1.52773 -0.07857,-0.6634 -0.06468,-0.70002 0.415578,-1.09588 0.273274,-0.22526 0.496863,-0.46324 0.496863,-0.52886 0,-0.0656 -0.149455,-0.28056 -0.332122,-0.47766 -0.445427,-0.48062 -0.545597,-1.01861 -0.299382,-1.60788 0.246721,-0.59049 0.858126,-0.93138 1.670471,-0.93138 1.493109,0 2.350159,1.41751 1.481336,2.45005 -0.423324,0.50309 -0.423142,0.58095 0.0023,0.98062 0.18858,0.17716 0.411056,0.54969 0.494391,0.82784 0.127396,0.42521 0.110763,0.58778 -0.104466,1.02111 -0.140791,0.28346 -0.420006,0.63519 -0.620476,0.78161 -0.527753,0.38547 -1.548645,0.43461 -2.246995,0.10816 z m 1.654694,-0.55765 c 0.175662,-0.19411 0.241485,-0.48355 0.236486,-1.03992 -0.0075,-0.83536 -0.15093,-1.07179 -0.737339,-1.2155 -0.288767,-0.0708 -0.445878,-0.0121 -0.731273,0.27336 -0.327501,0.3275 -0.357251,0.43872 -0.300478,1.12333 0.04391,0.52946 0.139277,0.8156 0.314555,0.94377 0.363629,0.26589 0.936668,0.22588 1.218049,-0.085 z m -0.125048,-3.05796 c 0.374597,-0.27421 0.369214,-1.65903 -0.0075,-1.93451 -0.63365,-0.46334 -1.294711,0.0165 -1.294711,0.9398 0,1.00907 0.627659,1.4885 1.302231,0.99471 z"
       id="path1065" />
    <path
       style="display:inline;fill:#000000;stroke:#000000;stroke-width:0.299712;stroke-opacity:1"
       d="m 39.824827,59.003106 c -0.515368,-0.31423 -0.949327,-0.9665 -1.07084,-1.60956 -0.119236,-0.63101 0.295206,-1.76022 1.22731,-3.344 l 0.77326,-1.31388 h 0.55158 0.55159 l -0.30657,0.51087 c -0.16861,0.28098 -0.48236,0.77779 -0.69721,1.10401 -0.45757,0.69475 -0.35025,0.97354 0.37474,0.97354 0.59124,0 1.23747,0.54908 1.43938,1.22299 0.52261,1.74431 -1.35311,3.36457 -2.84324,2.45603 z m 1.70371,-0.90918 c 0.0939,-0.12842 0.17074,-0.52591 0.17074,-0.88331 0,-0.95847 -0.63165,-1.46018 -1.3526,-1.07434 -0.58861,0.31502 -0.69256,1.51998 -0.17999,2.08637 0.28482,0.31471 1.09349,0.23828 1.36185,-0.12872 z"
       id="path1182" />
    <path
       style="display:inline;fill:#000000;stroke:#000000;stroke-width:0.299712"
       d="m 35.415734,59.036426 c 0.07094,-0.13112 0.348969,-0.60263 0.617842,-1.04779 0.590449,-0.97758 0.608564,-1.16599 0.11209,-1.16599 -0.564288,0 -1.273563,-0.43908 -1.554023,-0.96203 -0.467475,-0.87166 -0.236975,-1.9495 0.560391,-2.62044 0.619259,-0.52107 1.706448,-0.52645 2.318466,-0.0115 0.572317,0.48157 0.822955,1.00873 0.822955,1.7309 0,0.81732 -0.264875,1.50943 -1.15924,3.02909 -0.755508,1.28372 -0.757951,1.28613 -1.302196,1.28613 -0.477616,0 -0.529265,-0.0296 -0.416285,-0.2384 z m 1.570033,-3.28875 c 0.171983,-0.19003 0.222168,-0.44539 0.191406,-0.97389 -0.03451,-0.59289 -0.104758,-0.76325 -0.407659,-0.98864 -0.999318,-0.74362 -1.95537,0.98949 -1.093182,1.9817 0.27673,0.31846 1.013651,0.30767 1.309435,-0.0192 z"
       id="path1221" />
    <path
       style="display:inline;fill:#000000;stroke:#000000;stroke-width:0.13915"
       d="m 33.831528,69.917466 c -0.975227,-0.34214 -3.926326,-2.15282 -5.99052,-3.67555 -4.633446,-3.41804 -8.34546,-7.17719 -12.14115,-12.29533 C 9.4479947,45.516526 5.2705337,36.261766 2.6164797,24.961637 l -0.419557,-1.786344 0.07167,-5.028404 c 0.03942,-2.765622 0.09565,-5.208726 0.124957,-5.429121 0.03538,-0.266033 0.108573,-0.478623 0.217769,-0.632503 0.317372,-0.447245 2.629387,-3.144093 7.7227063,-9.008143 l 0.695755,-0.801037 23.181254,0.0022 23.181253,0.0022 4.04802,4.447061 4.04802,4.447062 -0.0204,2.964282 c -0.0265,3.835887 -0.11941,7.745465 -0.20129,8.467062 -0.12028,1.06003 -0.52169,3.262065 -0.95455,5.236476 -0.9419,4.296359 -2.21329,8.244668 -3.94532,12.252238 -0.56328,1.30333 -2.0824,4.39394 -2.84985,5.79798 -4.07554,7.45608 -9.5002,13.98973 -15.8423,19.08104 -2.532258,2.03285 -5.129541,3.80499 -6.822235,4.65485 -0.731697,0.36737 -0.767828,0.3776 -1.020807,0.28884 z m 0.821532,-0.34385 c 2.452036,-1.24938 6.711207,-4.36005 9.844067,-7.18959 1.02662,-0.92722 2.99951,-2.91233 3.92239,-3.94666 4.22141,-4.73126 7.70596,-9.87256 10.39559,-15.33821 2.84802,-5.78755 4.70882,-11.462382 5.91236,-18.030802 0.57303,-3.127345 0.60148,-3.56426 0.60218,-9.246475 l 7.2e-4,-4.507147 -3.90571,-4.277658 c -2.14829,-2.352712 -3.9862,-4.373308 -4.0844,-4.490216 l -0.17854,-0.212557 -22.971091,0.002 -22.971086,0.002 -4.1312563,4.725907 c -2.272191,2.599277 -4.210892,4.845414 -4.308224,4.991443 -0.09733,0.146029 -0.195981,0.384407 -0.219218,0.529726 -0.175424,1.097041 -0.271422,5.937117 -0.172404,8.692317 0.09087,2.528567 0.121316,2.739946 0.769721,5.344657 2.608114,10.477065 6.9350933,19.686555 13.0459683,27.766905 1.826991,2.41581 3.495687,4.33883 5.545526,6.39071 3.500551,3.50404 7.071543,6.25548 10.816881,8.33438 0.992929,0.55114 1.314331,0.70469 1.479049,0.7066 0.06554,7.2e-4 0.338912,-0.11057 0.607491,-0.24742 z"
       id="path1948" />
  </g>
</svg>
