<?xml version="1.0" encoding="UTF-8" standalone="no"?>
<!-- Created with Inkscape (http://www.inkscape.org/) -->

<svg
   width="256"
   height="256"
   viewBox="0 0 67.733332 67.733335"
   version="1.1"
   id="svg3992"
   inkscape:version="1.1 (c68e22c387, 2021-05-23)"
   sodipodi:docname="gulset.svg"
   xmlns:inkscape="http://www.inkscape.org/namespaces/inkscape"
   xmlns:sodipodi="http://sodipodi.sourceforge.net/DTD/sodipodi-0.dtd"
   xmlns="http://www.w3.org/2000/svg"
   xmlns:svg="http://www.w3.org/2000/svg">
  <sodipodi:namedview
     id="namedview3994"
     pagecolor="#ffffff"
     bordercolor="#666666"
     borderopacity="1.0"
     inkscape:pageshadow="2"
     inkscape:pageopacity="0.0"
     inkscape:pagecheckerboard="0"
     inkscape:document-units="mm"
     showgrid="false"
     units="px"
     width="256px"
     inkscape:zoom="1.4254587"
     inkscape:cx="187.65889"
     inkscape:cy="65.242157"
     inkscape:window-width="1920"
     inkscape:window-height="986"
     inkscape:window-x="-11"
     inkscape:window-y="-11"
     inkscape:window-maximized="1"
     inkscape:current-layer="layer1" />
  <defs
     id="defs3989" />
  <g
     inkscape:label="Lag 1"
     inkscape:groupmode="layer"
     id="layer1">
    <g
       id="g4214">
      <path
         style="display:inline;fill:#a92b24;stroke-width:0.301037"
         d="M 28.179207,64.54806 C 22.308374,63.436785 16.706342,60.602792 12.060427,56.393783 7.9551971,52.674609 4.3555719,46.586476 2.8059802,40.741511 1.7274077,36.6732 1.656216,30.37876 2.6439443,26.415037 4.1722687,20.281915 7.0414465,15.244815 11.649074,10.605718 15.747658,6.479141 19.16317,4.3989748 24.542312,2.7532832 28.64181,1.4990849 31.929766,1.0802581 35.955814,1.2994066 45.495638,1.8186843 54.330662,6.393346 59.771009,13.630608 c 3.430191,4.563161 5.726338,11.098426 6.061251,17.251462 0.541785,9.953671 -2.805018,18.518271 -9.85992,25.231926 -4.175997,3.974005 -9.062876,6.672471 -14.579749,8.050736 -3.246447,0.811051 -9.929469,1.004931 -13.213384,0.383328 z m 10.363114,-1.164324 c 2.732835,-0.411969 6.922274,-1.684534 7.754879,-2.35559 0.607071,-0.489279 0.05799,-0.825688 -3.092752,-1.89486 -2.793614,-0.94798 -2.961286,-0.96861 -5.806197,-0.714358 -1.611232,0.143998 -4.830284,0.266644 -7.15345,0.272553 l -4.223936,0.01074 -1.721544,1.076834 c -0.946849,0.592257 -1.721544,1.198377 -1.721544,1.346936 0,0.412785 1.477124,1.086912 3.569788,1.629176 4.263373,1.104752 7.98425,1.293448 12.394756,0.628571 z M 21.759344,59.130571 c 0.946849,-0.592257 1.721544,-1.249677 1.721544,-1.460933 0,-0.211255 -0.730673,-1.928012 -1.623717,-3.815018 -1.574159,-3.326203 -1.682117,-3.469105 -3.537185,-4.682041 -1.052408,-0.688116 -2.976725,-2.178249 -4.27626,-3.311407 -3.718324,-3.242268 -3.401966,-3.154254 -5.7171067,-1.590589 -1.0883647,0.73509 -2.0538741,1.520709 -2.145576,1.745819 -0.4429327,1.087315 4.0854837,7.153371 7.5322477,10.089852 1.857109,1.582166 5.639267,4.10115 6.157722,4.10115 0.09173,0 0.941481,-0.484573 1.888331,-1.076833 z M 51.653203,58.07217 c 2.141318,-1.481506 5.717807,-4.914938 6.331955,-6.078684 0.25049,-0.474654 0.520264,-2.114797 0.621699,-3.779731 l 0.179186,-2.941222 -1.170802,-0.918042 c -1.966275,-1.541788 -2.470087,-1.724521 -3.224585,-1.169562 -2.023234,1.488155 -6.003407,4.049935 -7.507207,4.831903 l -1.734031,0.901684 -0.784135,2.558815 c -1.442563,4.707424 -1.613197,5.53465 -1.221963,5.923993 0.395716,0.393802 5.115028,1.849629 6.101586,1.882234 0.345085,0.01141 1.428819,-0.533721 2.408297,-1.211388 z M 24.869293,46.663228 c 1.968288,-1.323193 3.578706,-2.57626 3.578706,-2.784592 0,-0.265663 -1.393529,-0.53435 -4.666074,-0.899674 -2.566341,-0.286488 -6.278881,-0.857191 -8.25009,-1.268229 -3.520991,-0.734203 -4.092428,-0.750287 -4.092428,-0.115198 0,0.901109 8.354619,7.4735 9.500082,7.4735 0.193104,0 1.961515,-1.082614 3.929804,-2.405807 z m 36.536142,0.310541 c 0.334504,-0.655686 0.608192,-1.333019 0.608192,-1.505185 0,-0.439117 -1.06556,-0.391192 -1.444123,0.06495 -0.44077,0.531093 -0.758002,1.934317 -0.523193,2.314244 0.358315,0.579764 0.743994,0.331745 1.359124,-0.874007 z M 48.00321,45.81365 c 3.012246,-1.666188 4.068256,-2.382768 5.60008,-3.800062 0.923133,-0.854118 1.137538,-1.21911 0.890778,-1.516438 -0.263377,-0.31735 -0.981757,-0.222644 -3.789942,0.499649 -1.90573,0.490173 -5.593244,1.19689 -8.194471,1.570486 -3.523091,0.505998 -4.751253,0.79155 -4.814756,1.119458 -0.111812,0.577361 6.677714,3.927615 7.398815,3.650901 0.277135,-0.106344 1.586408,-0.792143 2.909496,-1.523994 z M 35.072089,40.037439 c 0.586129,-0.222845 0.767979,-0.478134 0.696931,-0.97837 -0.07901,-0.556292 -0.310607,-0.691139 -1.300281,-0.757087 -2.769589,-0.184554 -2.558815,0.263094 -2.558815,-5.434474 0,-5.412052 -0.0944,-5.774176 -1.505185,-5.774176 -1.439003,0 -1.505185,0.298258 -1.505185,6.783367 0,3.333485 0.09031,6.151191 0.200692,6.26157 0.315123,0.315125 5.089844,0.234504 5.971843,-0.10083 z m 8.193954,-0.917841 c 2.293761,-0.98489 3.191104,-3.748982 1.896904,-5.843044 -0.681702,-1.103015 -1.637482,-1.613781 -3.496666,-1.868612 -1.420304,-0.194675 -2.408404,-1.008314 -2.124138,-1.749101 0.244003,-0.635857 1.671276,-1.139818 2.666628,-0.94157 0.959059,0.19102 1.26804,-0.171923 1.012647,-1.189493 -0.165824,-0.660689 -0.342045,-0.735483 -1.732854,-0.735483 -3.117392,0 -5.437063,2.309772 -4.777945,4.75755 0.414964,1.541066 1.289251,2.295464 3.625133,3.128046 2.037361,0.726179 2.520742,1.342068 1.766551,2.250811 -0.314174,0.378557 -0.777641,0.438443 -2.295955,0.29666 -2.126682,-0.198594 -2.445838,0.04846 -1.95702,1.514921 0.449812,1.34944 2.777689,1.512455 5.416715,0.379315 z m -18.976516,-0.27084 c 0.527536,-0.321661 1.087358,-0.829155 1.244049,-1.127762 0.502997,-0.958572 1.70947,-9.840841 1.403844,-10.335354 -0.09936,-0.16077 -0.573841,-0.29231 -1.054399,-0.29231 -0.757001,0 -0.912797,0.150832 -1.166045,1.128889 -0.160767,0.620889 -0.441574,2.397441 -0.624016,3.947893 -0.359492,3.055095 -0.91909,4.763113 -1.652782,5.044655 -0.749804,0.287728 -1.914029,-0.139766 -2.116308,-0.777091 -0.102726,-0.323663 0.106113,-2.583509 0.464087,-5.021876 0.625237,-4.258839 0.629536,-4.448992 0.109175,-4.829489 -0.584536,-0.427423 -2.109604,-0.538601 -2.336247,-0.170314 -0.293888,0.477557 -1.401775,7.621483 -1.401775,9.038985 0,2.533212 1.662162,3.946686 4.666074,3.967957 0.976195,0.0069 1.842277,-0.194882 2.464343,-0.574183 z m -10.159364,-0.99779 c 0.575841,-0.291726 0.854029,-0.848747 1.290948,-2.584884 0.609205,-2.420741 0.493487,-2.848873 -0.861958,-3.189069 -1.019215,-0.255806 -1.478604,0.178903 -1.881988,1.780884 -0.401715,1.595358 -0.785013,1.895076 -1.544518,1.207736 -1.3944362,-1.261947 -0.96264,-5.415641 0.751974,-7.233661 1.232674,-1.307015 2.417012,-1.37877 3.783185,-0.229211 0.928965,0.781672 0.977917,0.790324 1.377764,0.2435 0.641749,-0.877645 0.494325,-1.599341 -0.423677,-2.074059 -2.04099,-1.055437 -4.923835,-0.819643 -7.0473274,0.576415 -2.3643403,1.554401 -3.6531081,5.648019 -2.52594,8.023349 1.3401287,2.824112 4.9112124,4.578505 7.0815374,3.479 z m 36.895612,-0.235143 c 2.509478,-0.649138 3.762963,-1.23445 3.762963,-1.757111 0,-0.988933 -0.55429,-1.197567 -2.099041,-0.790068 -0.794644,0.209621 -1.588166,0.292532 -1.763381,0.184243 -0.400855,-0.247744 -0.940609,-2.578523 -0.689595,-2.977843 0.102837,-0.163598 0.69498,-0.508966 1.315869,-0.767482 1.190297,-0.495597 1.296338,-0.674386 0.832626,-1.403862 -0.188515,-0.296556 -0.772428,-0.451555 -1.7011,-0.451555 -1.309625,0 -1.431807,-0.06537 -1.654382,-0.885167 -0.326691,-1.203281 0.0103,-1.514753 2.435817,-2.251488 3.338829,-1.014138 3.078032,-1.217901 4.688902,3.663469 0.778605,2.359378 1.592185,4.477685 1.807956,4.707353 0.333239,0.354696 0.543131,0.328052 1.393913,-0.176956 1.276357,-0.757617 1.250589,-1.18754 -0.333522,-5.564397 -1.490173,-4.117302 -1.520918,-4.598451 -0.320581,-5.01689 0.994973,-0.346849 1.209486,-1.222305 0.453287,-1.849896 -0.526535,-0.436983 -1.031768,-0.340917 -4.065731,0.773061 -1.241778,0.455943 -3.951111,1.262718 -6.02074,1.792833 -2.461038,0.63037 -3.79276,1.114002 -3.84909,1.397843 -0.08879,0.447439 1.70483,7.721609 2.529563,10.258827 0.517019,1.590568 0.91477,1.725945 3.276267,1.115086 z M 23.250656,21.373629 c 1.905642,-2.529222 4.745787,-6.826229 4.745787,-7.180155 0,-0.193803 -1.033974,-1.434618 -2.29772,-2.757367 -1.913998,-2.0033585 -2.454439,-2.4046357 -3.236148,-2.4028373 -1.66629,0.00384 -9.643185,2.0610673 -10.027751,2.5861473 -0.792302,1.081794 -2.124237,8.376545 -1.658082,9.080994 0.45547,0.688304 9.836755,2.57048 10.949804,2.19687 0.276891,-0.09294 0.96274,-0.778586 1.52411,-1.523652 z m 27.352749,-0.157917 c 3.611812,-0.915547 6.114655,-1.823769 6.583858,-2.389125 0.52375,-0.63108 -0.161215,-6.471535 -0.83642,-7.131848 -0.279663,-0.273493 -2.462456,-0.995694 -4.850651,-1.604891 -3.537836,-0.902454 -4.478053,-1.045722 -5.075686,-0.7734217 -1.058179,0.4821382 -5.182434,4.2563687 -5.182434,4.7426017 0,0.389657 3.783075,6.270154 4.754088,7.38986 0.599545,0.691355 1.049909,0.668562 4.607245,-0.233176 z M 9.1601704,19.903165 C 9.5487065,19.2745 9.9006808,15.500177 9.5982969,15.205003 9.2295531,14.845051 8.177214,16.049909 7.1524301,18.005357 6.482384,19.28391 6.4809634,19.309585 7.056648,19.73632 c 0.650668,0.482318 1.8497683,0.577427 2.1035224,0.166845 z M 60.063999,17.64269 c 0.563912,-0.412341 0.563722,-0.438137 -0.01093,-1.505185 -0.805786,-1.496266 -1.350853,-1.407965 -1.350853,0.21884 0,1.76653 0.307654,2.057141 1.36178,1.286345 z M 41.278007,11.989261 C 43.344346,10.386514 45.123556,8.7253383 45.487793,8.0587578 45.696207,7.6773421 45.535272,7.0682707 44.886453,5.7829685 44.399198,4.8177227 43.820147,3.8826069 43.599674,3.7049334 42.937224,3.1710828 39.088932,2.4278647 35.930238,2.2237402 32.868309,2.0258688 28.814263,2.4565593 28.091353,3.0565216 c -0.969417,0.804544 -3.429011,4.8267704 -3.265878,5.3407577 0.09491,0.2990222 1.171427,1.5122282 2.39227,2.6960137 l 2.219714,2.152336 h 5.11039 5.110389 z"
         id="path4222" />
      <path
         style="display:inline;fill:#31496a;stroke-width:0.301037"
         d="M 28.179207,64.54806 C 22.308374,63.436785 16.706342,60.602792 12.060427,56.393783 7.9551971,52.674609 4.3555719,46.586476 2.8059802,40.741511 1.7274077,36.6732 1.656216,30.37876 2.6439443,26.415037 4.1722687,20.281915 7.0414465,15.244815 11.649074,10.605718 15.747658,6.479141 19.16317,4.3989748 24.542312,2.7532832 28.64181,1.4990849 31.929766,1.0802581 35.955814,1.2994066 45.495638,1.8186843 54.330662,6.393346 59.771009,13.630608 c 3.430191,4.563161 5.726338,11.098426 6.061251,17.251462 0.541785,9.953671 -2.805018,18.518271 -9.85992,25.231926 -4.175997,3.974005 -9.062876,6.672471 -14.579749,8.050736 -3.246447,0.811051 -9.929469,1.004931 -13.213384,0.383328 z m 10.363114,-1.164324 c 2.732835,-0.411969 6.922274,-1.684534 7.754879,-2.35559 0.607071,-0.489279 0.05799,-0.825688 -3.092752,-1.89486 -2.793614,-0.94798 -2.961286,-0.96861 -5.806197,-0.714358 -1.611232,0.143998 -4.830284,0.266644 -7.15345,0.272553 l -4.223936,0.01074 -1.721544,1.076834 c -0.946849,0.592257 -1.721544,1.198377 -1.721544,1.346936 0,0.412785 1.477124,1.086912 3.569788,1.629176 4.263373,1.104752 7.98425,1.293448 12.394756,0.628571 z M 21.759344,59.130571 c 0.946849,-0.592257 1.721544,-1.249677 1.721544,-1.460933 0,-0.211255 -0.730673,-1.928012 -1.623717,-3.815018 -1.574159,-3.326203 -1.682117,-3.469105 -3.537185,-4.682041 -1.052408,-0.688116 -2.976725,-2.178249 -4.27626,-3.311407 -3.718324,-3.242268 -3.401966,-3.154254 -5.7171067,-1.590589 -1.0883647,0.73509 -2.0538741,1.520709 -2.145576,1.745819 -0.4429327,1.087315 4.0854837,7.153371 7.5322477,10.089852 1.857109,1.582166 5.639267,4.10115 6.157722,4.10115 0.09173,0 0.941481,-0.484573 1.888331,-1.076833 z M 51.653203,58.07217 c 2.141318,-1.481506 5.717807,-4.914938 6.331955,-6.078684 0.25049,-0.474654 0.520264,-2.114797 0.621699,-3.779731 l 0.179186,-2.941222 -1.170802,-0.918042 c -1.966275,-1.541788 -2.470087,-1.724521 -3.224585,-1.169562 -2.023234,1.488155 -6.003407,4.049935 -7.507207,4.831903 l -1.734031,0.901684 -0.784135,2.558815 c -1.442563,4.707424 -1.613197,5.53465 -1.221963,5.923993 0.395716,0.393802 5.115028,1.849629 6.101586,1.882234 0.345085,0.01141 1.428819,-0.533721 2.408297,-1.211388 z M 24.869293,46.663228 c 1.968288,-1.323193 3.578706,-2.57626 3.578706,-2.784592 0,-0.265663 -1.393529,-0.53435 -4.666074,-0.899674 -2.566341,-0.286488 -6.278881,-0.857191 -8.25009,-1.268229 -3.520991,-0.734203 -4.092428,-0.750287 -4.092428,-0.115198 0,0.901109 8.354619,7.4735 9.500082,7.4735 0.193104,0 1.961515,-1.082614 3.929804,-2.405807 z m 36.536142,0.310541 c 0.334504,-0.655686 0.608192,-1.333019 0.608192,-1.505185 0,-0.439117 -1.06556,-0.391192 -1.444123,0.06495 -0.44077,0.531093 -0.758002,1.934317 -0.523193,2.314244 0.358315,0.579764 0.743994,0.331745 1.359124,-0.874007 z M 48.00321,45.81365 c 3.012246,-1.666188 4.068256,-2.382768 5.60008,-3.800062 0.923133,-0.854118 1.137538,-1.21911 0.890778,-1.516438 -0.263377,-0.31735 -0.981757,-0.222644 -3.789942,0.499649 -1.90573,0.490173 -5.593244,1.19689 -8.194471,1.570486 -3.523091,0.505998 -4.751253,0.79155 -4.814756,1.119458 -0.111812,0.577361 6.677714,3.927615 7.398815,3.650901 0.277135,-0.106344 1.586408,-0.792143 2.909496,-1.523994 z m -5.406471,-5.02034 c 4.047981,-0.610103 8.259459,-1.632828 12.643555,-3.070391 3.819109,-1.252299 8.624963,-3.296867 8.949909,-3.807585 0.122374,-0.192339 0.224576,-1.416672 0.227111,-2.720737 0.005,-2.559486 -0.820696,-6.613081 -1.923985,-9.445704 -0.615398,-1.579997 -0.750178,-1.726539 -1.555118,-1.690791 -0.48473,0.02153 -1.490925,0.271895 -2.235992,0.556374 -15.2902,5.838059 -35.278625,6.528296 -50.1997498,1.733489 C 6.3321057,21.650533 5.9646277,21.604943 5.6032045,21.988281 4.7299717,22.91446 3.5474543,27.39079 3.3522339,30.509157 c -0.2802236,4.47618 -0.1538748,5.527335 0.7343407,6.109315 1.8660309,1.22267 12.1123204,3.716299 18.3406834,4.463551 4.698984,0.563764 15.543306,0.408534 20.169481,-0.288713 z M 23.250656,21.373629 c 1.905642,-2.529222 4.745787,-6.826229 4.745787,-7.180155 0,-0.193803 -1.033974,-1.434618 -2.29772,-2.757367 -1.913998,-2.0033585 -2.454439,-2.4046357 -3.236148,-2.4028373 -1.66629,0.00384 -9.643185,2.0610673 -10.027751,2.5861473 -0.792302,1.081794 -2.124237,8.376545 -1.658082,9.080994 0.45547,0.688304 9.836755,2.57048 10.949804,2.19687 0.276891,-0.09294 0.96274,-0.778586 1.52411,-1.523652 z m 27.352749,-0.157917 c 3.611812,-0.915547 6.114655,-1.823769 6.583858,-2.389125 0.52375,-0.63108 -0.161215,-6.471535 -0.83642,-7.131848 -0.279663,-0.273493 -2.462456,-0.995694 -4.850651,-1.604891 -3.537836,-0.902454 -4.478053,-1.045722 -5.075686,-0.7734217 -1.058179,0.4821382 -5.182434,4.2563687 -5.182434,4.7426017 0,0.389657 3.783075,6.270154 4.754088,7.38986 0.599545,0.691355 1.049909,0.668562 4.607245,-0.233176 z M 9.1601704,19.903165 C 9.5487065,19.2745 9.9006808,15.500177 9.5982969,15.205003 9.2295531,14.845051 8.177214,16.049909 7.1524301,18.005357 6.482384,19.28391 6.4809634,19.309585 7.056648,19.73632 c 0.650668,0.482318 1.8497683,0.577427 2.1035224,0.166845 z M 60.063999,17.64269 c 0.563912,-0.412341 0.563722,-0.438137 -0.01093,-1.505185 -0.805786,-1.496266 -1.350853,-1.407965 -1.350853,0.21884 0,1.76653 0.307654,2.057141 1.36178,1.286345 z M 41.278007,11.989261 C 43.344346,10.386514 45.123556,8.7253383 45.487793,8.0587578 45.696207,7.6773421 45.535272,7.0682707 44.886453,5.7829685 44.399198,4.8177227 43.820147,3.8826069 43.599674,3.7049334 42.937224,3.1710828 39.088932,2.4278647 35.930238,2.2237402 32.868309,2.0258688 28.814263,2.4565593 28.091353,3.0565216 c -0.969417,0.804544 -3.429011,4.8267704 -3.265878,5.3407577 0.09491,0.2990222 1.171427,1.5122282 2.39227,2.6960137 l 2.219714,2.152336 h 5.11039 5.110389 z"
         id="path4220" />
      <path
         style="display:inline;fill:#0e2a58;stroke-width:0.301037"
         d="M 27.394369,64.133322 C 14.678895,61.413747 4.9144276,51.215082 2.7396002,38.38222 2.1935391,35.160113 2.1817798,34.923359 2.4408521,32.367392 c 0.1406685,-1.387817 0.2794741,-2.972889 0.3084566,-3.522385 0.1207143,-2.288682 1.8497621,-8.13953 2.712664,-9.179263 0.2900669,-0.349509 0.4280972,-0.338509 0.8796028,0.0701 0.7384603,0.668297 2.9304289,0.946324 3.1321833,0.397281 C 9.7736856,19.316921 10.193924,15.595451 10.033402,15.177137 9.831088,14.649915 8.9878089,14.623354 8.4450807,15.12711 7.6846494,15.832936 8.4493644,14.692913 10.138872,12.602041 17.385795,3.6335072 30.479156,-0.48665522 42.189839,2.5163815 48.13715,4.0414846 52.76008,6.6354767 56.769661,10.697329 c 5.765606,5.840767 8.504922,12.361644 8.784613,20.911558 0.204714,6.257877 -0.728089,10.725531 -3.297018,15.791057 -4.325851,8.529899 -12.572501,14.810636 -21.965582,16.729217 -3.769056,0.769848 -9.308941,0.771633 -12.897305,0.0042 z m 9.359581,-0.315289 c 3.153435,-0.299041 7.144723,-1.294657 8.966268,-2.236617 1.690202,-0.874037 1.245784,-1.42594 -2.04533,-2.540012 -2.968343,-1.004811 -3.007616,-1.00941 -6.698074,-0.784611 -2.041723,0.124367 -5.417884,0.241986 -7.502578,0.261372 l -3.790356,0.03525 -1.70357,1.131107 c -0.936964,0.622108 -1.70357,1.32319 -1.70357,1.55796 0,0.808796 4.447511,2.162521 8.429036,2.565612 1.241778,0.125719 2.393245,0.247414 2.558815,0.270434 0.16557,0.02303 1.735782,-0.0942 3.489359,-0.260495 z M 22.140682,59.157514 c 0.902683,-0.57744 1.641243,-1.195111 1.641243,-1.372606 0,-0.177494 -0.520267,-1.432243 -1.156149,-2.788331 -0.635882,-1.35609 -1.328214,-2.902415 -1.538515,-3.43628 -0.267613,-0.679357 -1.208056,-1.5588 -3.133629,-2.930373 -1.513194,-1.077842 -3.73972,-2.842377 -4.947835,-3.921188 -1.208115,-1.078814 -2.372203,-1.961479 -2.586863,-1.961479 -0.5873939,0 -4.6993468,2.970775 -4.6984566,3.394509 0.00117,0.565365 2.0048647,3.764504 3.6676821,5.855943 2.8434835,3.576444 8.7031835,8.209695 10.3828505,8.209695 0.400636,0 1.466988,-0.47245 2.369672,-1.04989 z m 29.512521,-0.783946 c 2.453367,-1.696906 6.384272,-5.632977 6.728571,-6.737416 0.156272,-0.501278 0.376474,-2.10178 0.489342,-3.556671 0.181276,-2.33668 0.139498,-2.718271 -0.358138,-3.271186 -0.891346,-0.990361 -3.119059,-2.427683 -3.522644,-2.272811 -0.202051,0.07753 -1.431898,0.904739 -2.732998,1.838234 -1.3011,0.933498 -3.499002,2.315065 -4.884227,3.070153 -1.385227,0.755085 -2.518593,1.40774 -2.518593,1.450336 0,0.0426 -0.474133,1.688749 -1.053629,3.658109 -1.138844,3.870249 -1.259073,4.783144 -0.677334,5.142986 0.505246,0.312527 5.670271,1.87142 6.271872,1.892957 0.2623,0.0094 1.2783,-0.537222 2.257778,-1.214691 z M 22.021812,48.744475 c 0.67445,-0.34408 2.50484,-1.510848 4.067532,-2.59282 3.301698,-2.286018 3.53683,-2.905333 1.151799,-3.033722 -2.589867,-0.139416 -10.345331,-1.276114 -12.986592,-1.903412 -1.391088,-0.330382 -2.66131,-0.519078 -2.822716,-0.419323 -0.908936,0.561753 0.489186,2.25598 4.296871,5.206896 1.837578,1.424103 4.70219,3.367978 4.96326,3.367978 0.05697,0 0.655396,-0.281518 1.329846,-0.625597 z m 39.583322,-1.7827 c 0.868345,-1.698484 0.879191,-2.107259 0.0559,-2.107259 -1.110276,0 -1.754667,0.854395 -1.754667,2.326508 0,1.756527 0.737306,1.661366 1.698767,-0.219249 z M 47.527662,46.359701 c 1.16874,-0.662281 2.190851,-1.204148 2.271363,-1.204148 0.211431,0 2.023773,-1.251356 3.461318,-2.389912 1.584638,-1.255059 2.034655,-2.049435 1.476951,-2.60714 -0.347647,-0.347646 -0.922549,-0.271701 -3.717091,0.491043 -1.818209,0.496262 -5.596838,1.233842 -8.396955,1.639065 -5.016984,0.726041 -5.865875,0.982088 -5.455793,1.645616 0.351051,0.568015 6.583056,3.597633 7.434332,3.614115 0.440492,0.0085 1.757138,-0.526357 2.925875,-1.188639 z M 42.596739,40.79331 c 4.047981,-0.610103 8.259459,-1.632828 12.643555,-3.070391 3.819109,-1.252299 8.624963,-3.296867 8.949909,-3.807585 0.122374,-0.192339 0.224576,-1.416672 0.227111,-2.720737 0.005,-2.559486 -0.820696,-6.613081 -1.923985,-9.445704 -0.615398,-1.579997 -0.750178,-1.726539 -1.555118,-1.690791 -0.48473,0.02153 -1.490925,0.271895 -2.235992,0.556374 -15.2902,5.838059 -35.278625,6.528296 -50.1997498,1.733489 C 6.3321057,21.650533 5.9646277,21.604943 5.6032045,21.988281 4.7299717,22.91446 3.5474543,27.39079 3.3522339,30.509157 c -0.2802236,4.47618 -0.1538748,5.527335 0.7343407,6.109315 1.8660309,1.22267 12.1123204,3.716299 18.3406834,4.463551 4.698984,0.563764 15.543306,0.408534 20.169481,-0.288713 z M 22.644551,22.653036 c 1.277724,-1.459742 5.652929,-8.013659 5.652929,-8.467906 0,-0.287348 -1.074618,-1.632287 -2.38804,-2.988753 -1.916549,-1.9793597 -2.561586,-2.4663034 -3.267025,-2.4663034 -0.809355,0 -9.886857,2.0025054 -10.336102,2.2801534 -0.282422,0.174546 -1.361555,4.41335 -1.770161,6.95314 -0.487131,3.027877 -0.342895,3.214658 3.082774,3.992123 6.159458,1.397907 8.26983,1.561007 9.025625,0.697546 z m 27.327595,-0.983768 c 3.748856,-0.883812 7.227504,-2.146331 7.544177,-2.738037 0.342665,-0.640274 -0.27923,-6.719894 -0.753776,-7.368872 C 56.314559,10.9497 47.418987,8.6256063 46.451458,8.8684414 46.041331,8.9713762 45.403129,9.3548862 45.03323,9.7206862 44.663331,10.086486 43.591266,11.039718 42.650859,11.83898 c -1.108512,0.94214 -1.709827,1.683222 -1.709833,2.107259 -6e-6,0.359731 1.169234,2.381256 2.598311,4.492279 1.961391,2.897355 2.754672,3.837705 3.236157,3.836113 0.35081,-0.0012 1.789304,-0.273574 3.196652,-0.605363 z m 10.277169,-3.885275 0.710682,-0.579265 -0.576636,-1.080926 c -1.196147,-2.242221 -1.982179,-2.142961 -1.982179,0.250309 0,2.166984 0.474841,2.529226 1.848133,1.409882 z m -19.19444,-5.178698 c 1.962927,-1.300188 5.003789,-4.2741234 5.003789,-4.8936582 0,-0.789357 -1.808338,-4.079142 -2.42308,-4.4081414 C 41.58275,2.2048515 33.668426,1.537191 30.120027,2.1633088 l -2.241453,0.3955059 -1.786835,2.6533304 c -1.542303,2.2902171 -1.744071,2.7471862 -1.474353,3.3391535 0.435413,0.9556267 3.675026,4.4061934 4.420402,4.7082454 0.337897,0.136927 2.8602,0.257545 5.605119,0.26804 l 4.990757,0.01908 z"
         id="path4218" />
      <path
         style="display:inline;fill:#271d33;stroke-width:0.301037"
         d="m 45.757627,61.863108 c 0.413926,-0.236621 0.955793,-0.430221 1.204148,-0.430221 0.260954,0 0.133887,0.181598 -0.301037,0.430221 -0.413925,0.236621 -0.955792,0.430221 -1.204148,0.430221 -0.260954,0 -0.133886,-0.181597 0.301037,-0.430221 z M 23.566784,42.455185 c -1.525675,-0.1369 -3.422209,-0.394262 -4.214518,-0.57191 -3.650377,-0.818481 -4.31847,-0.94224 -5.086569,-0.94224 -0.451319,0 -3.121497,-0.778933 -5.9337286,-1.730963 -5.8290949,-1.973334 -5.9236722,-2.059999 -5.9236722,-5.428137 0,-2.635109 0.7943455,-8.080841 1.5074962,-10.334827 0.935042,-2.955294 1.368333,-3.05161 6.7710216,-1.505128 7.525568,2.15414 18.037131,3.021646 27.394369,2.260822 2.814696,-0.22886 5.72723,-0.552503 6.472296,-0.719209 3.357758,-0.751285 5.672203,-1.251238 6.923852,-1.49565 0.745066,-0.145491 2.370666,-0.681433 3.612444,-1.190982 1.241778,-0.509549 2.508228,-0.926918 2.814332,-0.927485 0.306103,-5.72e-4 0.915703,-0.377791 1.354667,-0.838273 0.848888,-0.890505 2.333268,-1.091549 3.136625,-0.424823 1.133476,0.940703 2.888074,8.141296 3.140231,12.887033 0.145681,2.741821 0.145022,2.744939 -0.709722,3.347357 -1.427568,1.006138 -3.087797,1.737215 -7.0268,3.094224 -2.069629,0.713003 -3.852629,1.432662 -3.962222,1.599244 -0.109589,0.166585 -0.854656,0.326438 -1.655704,0.355233 -0.801044,0.02881 -1.889982,0.277176 -2.419865,0.551957 -0.529882,0.274784 -1.334527,0.499607 -1.788099,0.499607 -0.977744,0 -3.816129,0.489772 -6.129072,1.057588 -2.042819,0.501501 -14.350355,0.808941 -18.277362,0.456562 z M 42.596739,40.79331 c 4.047981,-0.610103 8.259459,-1.632828 12.643555,-3.070391 3.819109,-1.252299 8.624963,-3.296867 8.949909,-3.807585 0.122374,-0.192339 0.224576,-1.416672 0.227111,-2.720737 0.005,-2.559486 -0.820696,-6.613081 -1.923985,-9.445704 -0.615398,-1.579997 -0.750178,-1.726539 -1.555118,-1.690791 -0.48473,0.02153 -1.490925,0.271895 -2.235992,0.556374 -15.2902,5.838059 -35.278625,6.528296 -50.1997498,1.733489 C 6.3321057,21.650533 5.9646277,21.604943 5.6032045,21.988281 4.7299717,22.91446 3.5474543,27.39079 3.3522339,30.509157 c -0.2802236,4.47618 -0.1538748,5.527335 0.7343407,6.109315 1.8660309,1.22267 12.1123204,3.716299 18.3406834,4.463551 4.698984,0.563764 15.543306,0.408534 20.169481,-0.288713 z"
         id="path4216" />
    </g>
  </g>
</svg>
