<?xml version="1.0" encoding="UTF-8"?>
<svg width="256px" height="256px" viewBox="0 0 256 256" version="1.1" xmlns="http://www.w3.org/2000/svg" xmlns:xlink="http://www.w3.org/1999/xlink">
    <!-- Generator: Sketch 50.2 (55047) - http://www.bohemiancoding.com/sketch -->
    <title>logo/haugesund</title>
    <desc>Created with Sketch.</desc>
    <defs></defs>
    <g id="logo/haugesund" stroke="none" stroke-width="1" fill="none" fill-rule="evenodd">
        <g id="haugesund" transform="translate(0.000000, 9.000000)" fill-rule="nonzero">
            <g id="#ffffffff" transform="translate(39.263804, 68.398026)" fill="#FFFFFF">
                <path d="M0.63607362,0.267302632 C7.02822086,0.251578947 13.4203681,0.243717105 19.8046626,0.180822368 C26.2596319,0.227993421 32.7067485,0.330197368 39.153865,0.180822368 C45.7894479,0.259440789 52.4328834,0.267302632 59.0684663,0.180822368 C65.5155828,0.227993421 71.9705521,0.330197368 78.4176687,0.180822368 C85.0532515,0.259440789 91.6966871,0.267302632 98.3322699,0.180822368 C104.826503,0.251578947 111.328589,0.322335526 117.822822,0.141513158 L118.506012,0.125789474 C124.992393,0.275164474 131.478773,0.259440789 137.965153,0.188684211 C144.55362,0.251578947 151.142086,0.267302632 157.730552,0.204407895 C164.052025,0.180822368 170.38135,0.377368421 176.694969,0.125789474 C173.915092,5.51115132 170.69546,10.6606579 167.742822,15.9516776 C164.15411,22.1310855 160.59681,28.3183553 157.039509,34.5134868 C153.851288,39.9931908 150.686626,45.4964803 147.553374,51.0076316 C144.200245,56.7389145 140.870675,62.4859211 137.596074,68.2565132 C134.533497,73.5475329 131.423804,78.8228289 128.400491,84.1374342 C124.953129,90.1674671 121.442945,96.1581908 117.995583,102.180362 C114.933006,107.510691 111.823313,112.817434 108.823558,118.187072 C108.642945,118.485822 108.289571,119.099046 108.11681,119.405658 C104.905031,124.830329 101.756074,130.294309 98.6777914,135.797599 C95.3403681,141.442401 92.1050307,147.157961 88.681227,152.755592 C85.4380368,147.087204 82.1006135,141.465987 78.8103067,135.821184 C75.716319,130.286447 72.5438037,124.798882 69.316319,119.342763 C65.9474847,113.375625 62.5001227,107.447796 59.1234356,101.48852 C55.9823313,96.1267434 52.8961963,90.7335197 49.7393865,85.3874671 C46.3469939,79.4439145 42.9467485,73.5082237 39.5386503,67.5803947 C36.4446626,62.2736513 33.3977914,56.9354605 30.3116564,51.6287171 C26.8642945,45.6458553 23.4169325,39.6708553 19.9617178,33.6958553 C16.7970552,28.1532566 13.5931288,22.6342434 10.3892025,17.1073684 C7.16957055,11.4704276 3.95779141,5.84134868 0.63607362,0.267302632 Z M58.6444172,34.2776316 C58.911411,34.2854934 59.4532515,34.3012171 59.7202454,34.3169408 C62.162454,40.2604934 65.8925153,45.5750987 69.0257669,51.1648684 C72.1433129,56.7860855 75.3629448,62.3522697 78.6689571,67.8634211 C81.7865031,73.4767763 84.9433129,79.0744079 88.2807362,84.5541118 C88.5084663,84.5541118 88.9639264,84.54625 89.1916564,84.5383882 C92.4741104,79.2552303 95.4346012,73.7676645 98.5521472,68.3823026 C101.975951,62.4701974 105.478282,56.6052632 108.768589,50.6145395 C111.776196,45.1977303 115.42773,40.0875329 117.752147,34.3169408 C118.019141,34.3090789 118.560982,34.2854934 118.827975,34.2776316 C116.919755,34.0417763 114.995828,33.8845395 113.079755,33.8924013 C100.248344,33.9395724 87.4247853,34.1518421 74.601227,33.9395724 C69.2770552,34.0496382 63.9371779,33.5857895 58.6444172,34.2776316 Z" id="Shape"></path>
            </g>
            <g id="#0068c8ff" transform="translate(19.631902, 0.000000)" fill="#0068C8">
                <path d="M59.1391411,0.267302632 C91.9558282,0.172960526 124.780368,0.172960526 157.597055,0.267302632 C160.840245,5.95927632 164.177669,11.6040789 167.373742,17.3275 C154.071166,17.3668092 140.768589,17.0680592 127.473865,17.5161842 C121.120982,17.2331579 114.760245,17.2488816 108.399509,17.2881908 C101.873865,17.3589474 95.3403681,17.0444737 88.8304294,17.5633553 L88.2571779,17.6026645 C81.888589,17.1545395 75.5042945,17.2803289 69.1278528,17.2881908 C62.555092,17.2724671 55.9823313,17.3196382 49.4095706,17.2803289 C52.5585276,11.5569079 55.9116564,5.95141447 59.1391411,0.267302632 Z" id="Shape"></path>
                <path d="M117.909202,34.2776316 L118.435337,34.2304605 C121.356564,34.4584539 124.277791,34.8200987 127.222577,34.7807895 C137.211288,34.655 147.2,34.7100329 157.188712,34.7650658 C153.866994,40.1582895 150.67092,45.6379934 147.718282,51.2513487 L147.019387,51.2749342 C134.195828,51.0469408 121.364417,50.8268092 108.540859,51.1255592 C101.975951,51.4321711 95.3953374,51.4872039 88.8304294,51.1255592 C85.7757055,45.5829605 82.4539877,40.1897368 79.3835583,34.655 C92.2228221,34.2304605 105.10135,35.3232566 117.909202,34.2776316 Z" id="Shape"></path>
                <path d="M40.1276074,34.655 C46.5276074,34.5999671 52.9433129,34.4191447 59.3433129,34.8200987 C62.3352147,40.2133224 65.4056442,45.559375 68.4446626,50.9290132 C62.1703067,51.534375 55.8566871,51.4714803 49.5666258,51.1255592 C46.5040491,45.5829605 43.190184,40.1897368 40.1276074,34.655 Z" id="Shape"></path>
                <path d="M167.750675,50.7717763 C171.095951,45.3628289 174.072147,39.7416118 177.346748,34.2854934 C183.746748,34.1911513 190.154601,34.2697697 196.562454,34.2540461 C193.468466,39.9302961 190.021104,45.3942763 186.997791,51.1019737 C180.582086,50.8818421 174.158528,51.1019737 167.750675,50.7717763 Z" id="Shape"></path>
                <path d="M196.326871,68.5238158 L197.041472,68.5002303 C203.425767,68.2250658 209.817914,68.5395395 216.202209,68.3194079 C213.084663,73.9170395 209.731534,79.3731579 206.692515,85.0179605 C200.253252,84.7427961 193.759018,85.4739474 187.374724,84.3497039 C190.327362,79.0586842 193.546994,73.9091776 196.326871,68.5238158 Z" id="Shape"></path>
                <path d="M216.681227,102.282566 C223.199018,102.518421 229.724663,102.400493 236.242454,102.376908 C233.022822,108.320461 228.97865,113.863059 226.520736,120.191842 L226.120245,119.838059 C219.728098,119.028289 213.265276,119.900954 206.873129,119.138355 C210.249816,113.580033 213.312393,107.840888 216.681227,102.282566 Z" id="Shape"></path>
                <path d="M1.24858896,103.564046 C7.36588957,102.455526 13.5852761,103.084474 19.757546,102.958684 C16.443681,108.186809 13.3811043,113.572171 10.4284663,119.012566 C7.14601227,113.996711 4.32687117,108.705691 1.24858896,103.564046 Z" id="Shape"></path>
                <path d="M79.3521472,102.714967 C85.5479755,103.108059 91.8066258,102.093882 97.9631902,102.997993 C99.3452761,104.082928 100.177669,105.686743 101.065031,107.16477 C103.342331,111.252928 105.619632,115.341086 108.014724,119.358487 C101.559755,119.610066 95.1047853,119.437105 88.6576687,119.562895 C85.5244172,113.973125 81.7943558,108.65852 79.3521472,102.714967 Z" id="Shape"></path>
                <path d="M118.678773,102.848618 C124.913865,102.494836 131.148957,102.880066 137.384049,102.714967 C135.059632,108.485559 131.408098,113.595757 128.400491,119.012566 C124.733252,113.894507 121.843436,108.281151 118.678773,102.848618 Z" id="Shape"></path>
                <path d="M176.671411,102.911513 C183.228466,102.950822 189.785521,102.911513 196.342577,103.060888 C193.005153,108.422664 189.871902,113.91023 186.895706,119.484276 C180.322945,119.5 173.750184,119.570757 167.185276,119.405658 C170.318528,113.894507 173.48319,108.391217 176.671411,102.911513 Z" id="Shape"></path>
                <path d="M10.043681,153.974178 C16.443681,154.037072 22.8515337,153.94273 29.243681,154.265066 C26.0083436,159.697599 23.0007362,165.255921 19.757546,170.688454 C13.3496933,170.578388 6.94184049,170.539079 0.53398773,170.680592 C3.64368098,165.075099 7.02822086,159.626842 10.043681,153.974178 Z" id="Shape"></path>
                <path d="M49.3074847,153.974178 C55.7467485,153.974178 62.1860123,154.202171 68.6095706,153.927007 C65.5077301,159.548224 62.193865,165.051513 59.1469939,170.704178 C52.6920245,170.2875 46.2292025,170.491908 39.7742331,170.444737 C43.0959509,165.043651 46.276319,159.540362 49.3074847,153.974178 Z" id="Shape"></path>
                <path d="M148.550675,153.848388 C154.79362,154.296513 161.060123,153.989901 167.31092,153.989901 C170.318528,159.579671 173.577423,165.020066 176.844172,170.460461 C170.475583,170.295362 164.099141,170.20102 157.730552,170.594112 C154.730798,164.980757 151.016442,159.736908 148.550675,153.848388 Z" id="Shape"></path>
                <path d="M187.633865,154.052796 C193.798282,153.832664 199.970552,153.919145 206.134969,154.029211 C202.915337,159.453882 199.577914,164.839243 196.89227,170.554803 C193.892515,165.004342 190.586503,159.626842 187.633865,154.052796 Z" id="Shape"></path>
                <path d="M29.7384049,187.882303 C36.1305521,188.047401 42.5226994,187.905888 48.8991411,188.243947 C45.7030675,193.715789 42.6090798,199.250526 39.3973006,204.714507 C32.9894479,204.816711 26.5815951,204.73023 20.1737423,204.745954 C23.2598773,199.061842 26.7307975,193.605724 29.7384049,187.882303 Z" id="Shape"></path>
                <path d="M69.0100613,187.882303 C75.6534969,188.055263 82.3047853,188.149605 88.9482209,187.740789 C92.1757055,193.196908 95.3482209,198.684474 98.4422086,204.219211 C85.4694479,204.297829 72.4888344,204.525822 59.5239264,204.282105 C62.8220859,198.896743 66.0103067,193.440625 69.0100613,187.882303 Z" id="Shape"></path>
                <path d="M118.309693,204.195625 C121.387975,198.692336 124.536933,193.228355 127.748712,187.803684 C134.337178,187.992368 140.933497,187.811546 147.521963,187.992368 C150.867239,193.369868 153.819877,198.975362 156.98454,204.462928 C150.553129,204.612303 144.113865,204.777401 137.682454,204.659474 C131.235337,204.054112 124.772515,204.352862 118.309693,204.195625 Z" id="Shape"></path>
                <path d="M167.954847,188.008092 C174.22135,187.842993 180.495706,187.835132 186.762209,187.992368 C189.973988,193.487796 193.36638,198.896743 196.216933,204.588717 C189.926871,204.667336 183.644663,204.675197 177.354601,204.612303 C174.292025,199.038257 170.852515,193.668618 167.954847,188.008092 Z" id="Shape"></path>
                <path d="M108.438773,221.711809 C115.129325,221.735395 121.82773,221.782566 128.518282,221.483816 C134.863313,221.75898 141.208344,221.75898 147.553374,221.680362 C154.14184,221.719671 160.73816,221.711809 167.334479,221.6725 C164.20908,227.427368 160.832393,233.032862 157.597055,238.732697 C124.780368,238.834901 91.9558282,238.827039 59.1391411,238.732697 C55.8880982,233.040724 52.5663804,227.388059 49.3467485,221.680362 C55.9430675,221.711809 62.5393865,221.711809 69.1357055,221.696086 C75.684908,221.719671 82.2262577,221.696086 88.7754601,221.688224 C95.3246626,221.727533 101.881718,221.680362 108.438773,221.711809 Z" id="Shape"></path>
            </g>
            <g id="#008ed5ff" transform="translate(9.423313, 16.509868)" fill="#008ED5">
                <path d="M39.7899387,0.762598684 C46.4019632,0.801907895 53.006135,0.770460526 59.6181595,0.770460526 C62.7435583,6.32092105 66.0495706,11.7613158 69.0807362,17.3668092 C62.5943558,17.6734211 56.1001227,17.7205921 49.6137423,17.3746711 C46.3862577,12.0364803 43.5278528,6.47815789 40.0961963,1.25789474 L39.7899387,0.762598684 Z" id="Shape"></path>
                <path d="M137.682454,1.00631579 C150.977178,0.558190789 164.279755,0.856940789 177.582331,0.817631579 C174.331288,6.70615132 171.06454,12.6025329 167.397301,18.2551974 C157.408589,18.2001645 147.419877,18.1451316 137.431166,18.2709211 C134.48638,18.3102303 131.565153,17.9485855 128.643926,17.7205921 C131.306012,11.9578618 134.918282,6.71401316 137.682454,1.00631579 Z" id="Shape"></path>
                <path d="M98.4657669,1.09279605 L99.0390184,1.05348684 C102.08589,6.51746711 105.384049,11.8399342 108.336687,17.3589474 C102.007362,17.7205921 95.6623313,17.6183882 89.3251534,17.4611513 C92.2620859,11.9421382 95.5209816,6.60394737 98.4657669,1.09279605 Z" id="Shape"></path>
                <path d="M157.227975,34.7650658 L157.926871,34.7414803 C154.903558,40.5906908 151.401227,46.1804605 148.346503,52.0139474 L147.663313,52.0296711 C145.315337,46.1411513 141.310429,41.1331579 138.766135,35.3389803 C144.914847,34.8908553 151.087117,35.3782895 157.227975,34.7650658 Z" id="Shape"></path>
                <path d="M167.805644,52.0768421 C170.624785,45.8345395 174.252761,40.0010526 177.959264,34.2619079 C184.367117,34.5921053 190.790675,34.3719737 197.20638,34.5921053 C194.269448,40.5828289 190.602209,46.156875 187.571043,52.0925658 C180.982577,52.1554605 174.39411,52.1397368 167.805644,52.0768421 Z" id="Shape"></path>
                <path d="M20.9590184,35.3547039 C27.3276074,34.9694737 33.7040491,35.1267105 40.0804908,35.1660197 C43.4728834,40.6850329 46.7317791,46.2826645 49.6451534,52.0689803 C43.2608589,52.131875 36.8687117,52.1397368 30.4765644,52.1554605 C27.272638,46.5656908 23.7310429,41.1724671 20.9590184,35.3547039 Z" id="Shape"></path>
                <path d="M69.4105521,51.4872039 C72.8186503,46.1725987 75.6377914,40.5042105 79.195092,35.2760855 C82.8230675,40.6378618 85.9798773,46.30625 88.9089571,52.0689803 C82.2733742,52.1554605 75.6299387,52.1475987 68.9943558,52.0689803 L69.4105521,51.4872039 Z" id="Shape"></path>
                <path d="M108.674356,51.4793421 C112.121718,46.156875 114.964417,40.4570395 118.388221,35.1188487 C122.016196,40.5435197 125.220123,46.2512171 128.172761,52.0689803 C121.537178,52.1554605 114.893742,52.1475987 108.25816,52.0689803 L108.674356,51.4793421 Z" id="Shape"></path>
                <path d="M186.88,86.4016447 C190.437301,80.2065132 193.994601,74.0192434 197.583313,67.8398355 C203.967607,68.9640789 210.46184,68.2329276 216.901104,68.5080921 C213.752147,74.6875 210.296933,80.7175329 206.551166,86.5510197 C199.99411,86.4016447 193.437055,86.4409539 186.88,86.4016447 Z" id="Shape"></path>
                <path d="M0.714601227,68.8461513 C7.10674847,68.41375 13.5303067,69.0662829 19.9146012,68.3901645 C23.4954601,74.2708224 27.2490798,80.0964474 29.966135,86.4488158 C23.793865,86.5746053 17.5744785,85.9456579 11.4571779,87.0541776 C7.7192638,81.0791776 4.15411043,74.9941118 0.714601227,68.8461513 Z" id="Shape"></path>
                <path d="M30.3430675,119.460691 C33.5626994,113.949539 36.7352147,108.422664 39.9155828,102.903651 C43.2373006,108.721414 46.8731288,114.366217 49.8257669,120.388388 C46.5904294,125.875954 43.6534969,131.567928 40.0490798,136.835362 C36.6959509,131.111941 33.0679755,125.522171 30.3430675,119.460691 Z" id="Shape"></path>
                <path d="M118.223313,102.848618 C121.772761,108.556316 125.35362,114.264013 128.392638,120.270461 C125.275092,125.655822 122.314601,131.143388 119.032147,136.426546 C118.804417,136.434408 118.348957,136.44227 118.121227,136.44227 C114.783804,130.962566 111.626994,125.364934 108.509448,119.751579 C112.011779,114.271875 115.294233,108.650658 118.223313,102.848618 Z" id="Shape"></path>
                <path d="M177.393865,102.895789 C183.958773,103.060888 190.531534,102.990132 197.104294,102.974408 C194.120245,108.737138 190.822086,114.33477 187.398282,119.845921 C183.833129,114.33477 180.770552,108.524868 177.393865,102.895789 Z" id="Shape"></path>
                <path d="M197.03362,136.536612 C204.022577,125.419967 209.912147,113.635066 217.081718,102.628487 C223.473865,103.391086 229.936687,102.518421 236.328834,103.328191 C229.669693,114.727862 223.418896,126.37125 216.343558,137.519342 C209.959264,136.324342 203.441472,137.464309 197.03362,136.536612 Z" id="Shape"></path>
                <path d="M167.436564,120.144671 C171.048834,125.765888 174.44908,131.53648 177.519509,137.480033 C171.268712,137.480033 165.002209,137.786645 158.759264,137.33852 C158.625767,137.016184 158.366626,136.355789 158.240982,136.025592 C161.264294,130.710987 164.373988,125.435691 167.436564,120.144671 Z" id="Shape"></path>
                <path d="M49.9828221,153.934868 C56.4377914,153.982039 62.9006135,153.777632 69.3555828,154.194309 C66.4422086,159.894145 63.3089571,165.491776 59.7123926,170.790658 C56.2807362,165.279507 53.0296933,159.666151 49.9828221,153.934868 Z" id="Shape"></path>
                <path d="M147.836074,154.06852 C151.110675,159.516776 154.56589,164.870691 157.275092,170.633421 C151.079264,170.869276 144.773497,171.513947 138.664049,170.07523 C141.663804,164.705592 144.773497,159.398849 147.836074,154.06852 Z" id="Shape"></path>
                <path d="M187.052761,153.950592 C190.319509,159.453882 193.813988,164.839243 196.538896,170.633421 C190.162454,170.963618 183.762454,171.175888 177.401718,170.476184 C180.888344,165.130132 183.966626,159.5325 187.052761,153.950592 Z" id="Shape"></path>
                <path d="M118.521718,204.64375 C121.945521,199.046118 125.180859,193.330559 128.518282,187.685757 C134.981104,187.842993 141.443926,187.544243 147.891043,188.149605 C145.18184,193.943783 141.506748,199.211217 138.726871,204.973947 C132.036319,205.272697 125.337914,205.225526 118.647362,205.201941 L118.521718,204.64375 Z" id="Shape"></path>
                <path d="M69.9131288,188.613454 C76.3995092,188.29898 82.8937423,188.251809 89.3722699,188.613454 C92.6547239,194.085296 95.7094479,199.698651 98.9840491,205.178355 C92.4348466,205.186217 85.8934969,205.209803 79.3442945,205.186217 C76.2817178,199.620033 72.8814724,194.242533 69.9131288,188.613454 Z" id="Shape"></path>
                <path d="M167.522945,188.440493 C171.229448,193.794408 174.103558,199.65148 177.543067,205.162632 C170.946748,205.201941 164.350429,205.209803 157.761963,205.170493 C160.840245,199.502105 163.973497,193.841579 167.522945,188.440493 Z" id="Shape"></path>
            </g>
            <g id="#3496e2ff" transform="translate(0.000000, 16.509868)" fill="#3496E2">
                <path d="M69.0414724,0.770460526 C75.6142331,0.809769737 82.1869939,0.762598684 88.7597546,0.778322368 C92.2934969,6.21085526 95.0733742,12.1072368 98.7484663,17.4611513 C105.085644,17.6183882 111.430675,17.7205921 117.76,17.3589474 C114.807362,11.8399342 111.509202,6.51746711 108.462331,1.05348684 C114.97227,0.534605263 121.505767,0.849078947 128.031411,0.778322368 C131.360982,6.34450658 134.863313,11.8399342 137.541104,17.7677632 C124.733252,18.8133882 111.854724,17.7205921 99.0154601,18.1451316 C102.08589,23.6798684 105.407607,29.0730921 108.462331,34.6156908 C111.595583,40.2840789 114.940859,45.8266776 118.097669,51.4793421 L117.681472,52.0689803 C111.234356,52.2183553 104.779387,52.1161513 98.3322699,52.0689803 C95.4031902,46.30625 92.2463804,40.6378618 88.6184049,35.2760855 C88.484908,35.0638158 88.2179141,34.6314145 88.0765644,34.4191447 C85.037546,29.0495066 81.9671166,23.7034539 78.9752147,18.3102303 C72.5752147,17.9092763 66.1595092,18.0900987 59.7595092,18.1451316 C62.8220859,23.6798684 66.1359509,29.0730921 69.1985276,34.6156908 C72.3317791,40.2840789 75.6770552,45.8266776 78.833865,51.4872039 L78.4176687,52.0689803 C71.9705521,52.2183553 65.5234356,52.1161513 59.0684663,52.0689803 C56.155092,46.2826645 52.8961963,40.6850329 49.5038037,35.1660197 C43.127362,35.1267105 36.7509202,34.9694737 30.3823313,35.3547039 C33.1543558,41.1724671 36.6959509,46.5656908 39.8998773,52.1554605 C43.2215951,57.7295066 46.4333742,63.3585855 49.6530061,68.9955263 C46.2056442,74.7975658 43.0566871,80.7725658 39.3894479,86.4488158 C36.6723926,80.0964474 32.918773,74.2708224 29.3379141,68.3901645 C26.1889571,62.9104605 22.9143558,57.4857895 19.9774233,51.8881579 C23.1263804,46.0782566 26.4323926,40.3469737 29.9033129,34.7178947 C36.232638,34.655 42.5619632,34.9144408 48.8834356,34.5842434 C46.276319,28.8686842 42.3499387,23.8371053 39.876319,18.0665132 C40.3003681,16.0696053 41.4782822,14.3557237 42.4755828,12.6103947 C44.8471166,8.83671053 46.6611043,4.70924342 49.5195092,1.25789474 C52.9511656,6.47815789 55.8095706,12.0364803 59.0370552,17.3746711 C65.5234356,17.7205921 72.0176687,17.6734211 78.5040491,17.3668092 C75.4728834,11.7613158 72.1668712,6.32092105 69.0414724,0.770460526 Z" id="Shape"></path>
                <path d="M128.172761,34.6156908 C140.996319,34.3169408 153.82773,34.5370724 166.651288,34.7650658 C160.510429,35.3782895 154.33816,34.8908553 148.189448,35.3389803 C150.733742,41.1331579 154.73865,46.1411513 157.086626,52.0296711 C150.592393,52.2104934 144.090307,52.1397368 137.596074,52.0689803 C134.643436,46.2512171 131.439509,40.5435197 127.811534,35.1188487 L128.172761,34.6156908 Z" id="Shape"></path>
                <path d="M0.832392638,84.9393421 C3.82429448,79.5146711 7.04392638,74.2157895 10.1379141,68.8461513 C13.5774233,74.9941118 17.1425767,81.0791776 20.8804908,87.0541776 C23.958773,92.1958224 26.7779141,97.4868421 30.0603681,102.502697 C26.9663804,108.595625 23.5190184,114.515592 19.8517791,120.286184 C13.8208589,109.303191 7.41300613,98.5246053 1.14650307,87.6752632 C0.730306748,86.8261842 0.141349693,85.8198684 0.832392638,84.9393421 Z" id="Shape"></path>
                <path d="M59.2255215,85.5840132 C62.6807362,91.5590132 66.1280982,97.5340132 69.5754601,103.516875 C65.4527607,108.689967 62.7121472,114.775033 59.2490798,120.388388 C56.2964417,114.366217 52.6606135,108.721414 49.3388957,102.903651 C52.6370552,97.1251974 56.0451534,91.4175 59.2255215,85.5840132 Z" id="Shape"></path>
                <path d="M97.9082209,86.1657895 C103.200982,85.4739474 108.540859,85.9377961 113.865031,85.8277303 C126.688589,86.04 139.512147,85.8277303 152.343558,85.7805592 C154.259632,85.7726974 156.183558,85.9299342 158.091779,86.1657895 C157.824785,86.1736513 157.282945,86.1972368 157.015951,86.2050987 C150.780859,86.3701974 144.545767,85.9849671 138.310675,86.33875 C141.475337,91.7712829 144.365153,97.3846382 148.032393,102.502697 C144.742086,108.493421 141.239755,114.358355 137.815951,120.270461 C134.776933,114.264013 131.196074,108.556316 127.646626,102.848618 C125.251534,98.8312171 122.974233,94.7430592 120.696933,90.6549013 C119.809571,89.176875 118.977178,87.5730592 117.595092,86.488125 C111.438528,85.5840132 105.179877,86.5981908 98.9840491,86.2050987 C98.7170552,86.189375 98.1752147,86.1736513 97.9082209,86.1657895 Z" id="Shape"></path>
                <path d="M176.859877,120.144671 C180.134479,114.374079 183.464049,108.627072 186.817178,102.895789 C190.193865,108.524868 193.256442,114.33477 196.821595,119.845921 C200.088344,125.380658 203.143067,131.033322 206.456933,136.536612 C212.864785,137.464309 219.382577,136.324342 225.766871,137.519342 C219.602454,137.409276 213.430184,137.322796 207.265767,137.542928 C210.218405,143.116974 213.524417,148.494474 216.524172,154.044934 C219.79092,159.658289 222.963436,165.310954 226.316564,170.869276 C223.112638,176.915033 219.610307,182.803553 216.076564,188.660625 L215.848834,188.078849 C212.998282,182.386875 209.60589,176.977928 206.39411,171.4825 C200.127607,171.325263 193.853252,171.333125 187.586748,171.498224 C190.484417,177.15875 193.923926,182.528388 196.986503,188.102434 C200.206135,193.684342 203.111656,199.470658 206.865276,204.714507 L207.171534,205.15477 C200.433865,205.201941 193.704049,205.24125 186.96638,205.162632 C183.526871,199.65148 180.652761,193.794408 176.946258,188.440493 L176.616442,187.953059 C173.451779,182.465493 170.499141,176.86 167.153865,171.4825 C160.565399,171.301678 153.96908,171.4825 147.380613,171.293816 C147.553374,170.987204 147.906748,170.37398 148.087362,170.07523 C154.19681,171.513947 160.502577,170.869276 166.698405,170.633421 C163.989202,164.870691 160.533988,159.516776 157.259387,154.06852 C160.706748,148.046349 164.216933,142.055625 167.664294,136.025592 C167.789939,136.355789 168.04908,137.016184 168.182577,137.33852 C170.648344,143.227039 174.362699,148.470888 177.362454,154.084243 C180.472147,159.571809 183.526871,165.090822 186.825031,170.476184 C193.185767,171.175888 199.585767,170.963618 205.962209,170.633421 C203.237301,164.839243 199.742822,159.453882 196.476074,153.950592 C193.209325,148.510197 189.950429,143.069803 186.942822,137.480033 C183.872393,131.53648 180.472147,125.765888 176.859877,120.144671 Z" id="Shape"></path>
                <path d="M29.6755828,137.464309 C32.7617178,131.308487 36.3818405,125.451414 39.7663804,119.460691 C42.4912883,125.522171 46.1192638,131.111941 49.4723926,136.835362 C49.3231902,137.063355 49.0247853,137.527204 48.8755828,137.755197 C42.4834356,137.432862 36.0755828,137.527204 29.6755828,137.464309 Z" id="Shape"></path>
                <path d="M78.802454,119.468553 C82.2105521,125.396382 85.6107975,131.332072 89.0031902,137.275625 L88.2414724,137.417138 C81.8179141,137.692303 75.3786503,137.464309 68.9393865,137.464309 C71.9312883,131.300625 75.7869939,125.616513 78.802454,119.468553 Z" id="Shape"></path>
                <path d="M98.3872393,153.376678 C101.763926,159.335954 105.211288,165.263783 108.580123,171.230921 C101.936687,171.639737 95.2853988,171.545395 88.6419632,171.372434 C91.5710429,165.200888 95.5838037,159.611118 98.3872393,153.376678 Z" id="Shape"></path>
                <path d="M49.3703067,171.372434 C52.4171779,165.397434 55.7467485,159.556086 59.406135,153.934868 C62.4530061,159.666151 65.7040491,165.279507 69.1357055,170.790658 C68.9865031,171.026513 68.6802454,171.498224 68.5310429,171.734079 C62.1546012,171.39602 55.762454,171.537533 49.3703067,171.372434 Z" id="Shape"></path>
                <path d="M68.9786503,205.170493 C72.2296933,199.289836 75.488589,193.409178 79.1558282,187.772237 C92.1207362,188.015954 105.10135,187.787961 118.07411,187.709342 C121.364417,193.354145 124.70184,198.975362 127.945031,204.64375 L128.070675,205.201941 C121.51362,205.170493 114.956564,205.217664 108.407362,205.178355 C105.132761,199.698651 102.078037,194.085296 98.7955828,188.613454 C92.3170552,188.251809 85.8228221,188.29898 79.3364417,188.613454 C82.3047853,194.242533 85.7050307,199.620033 88.7676074,205.186217 C82.1712883,205.201941 75.5749693,205.201941 68.9786503,205.170493 Z" id="Shape"></path>
            </g>
            <g id="#303147ff" transform="translate(10.208589, 16.509868)" fill="#303147">
                <path d="M78.5511656,0.778322368 C84.9276074,0.770460526 91.3119018,0.644671053 97.6804908,1.09279605 C94.7357055,6.60394737 91.4768098,11.9421382 88.5398773,17.4611513 C84.8647853,12.1072368 82.084908,6.21085526 78.5511656,0.778322368 Z" id="Shape"></path>
                <path d="M117.822822,0.778322368 C124.183558,0.739013158 130.544294,0.723289474 136.897178,1.00631579 C134.133006,6.71401316 130.520736,11.9578618 127.85865,17.7205921 L127.332515,17.7677632 C124.654724,11.8399342 121.152393,6.34450658 117.822822,0.778322368 Z" id="Shape"></path>
                <path d="M176.797055,0.817631579 C183.330552,0.762598684 189.871902,0.746875 196.413252,0.833355263 C193.342822,6.56463816 189.958282,12.1150987 186.770061,17.775625 C183.49546,23.2317434 180.519264,28.8529605 177.173988,34.2619079 C173.467485,40.0010526 169.839509,45.8345395 167.020368,52.0768421 C160.533988,52.1475987 154.047607,52.1633224 147.561227,52.0139474 C150.615951,46.1804605 154.118282,40.5906908 157.141595,34.7414803 C160.094233,29.128125 163.290307,23.6484211 166.612025,18.2551974 C170.279264,12.6025329 173.546012,6.70615132 176.797055,0.817631579 Z" id="Shape"></path>
                <path d="M205.985767,17.7441776 C209.37816,22.854375 212.322945,28.2554605 215.330552,33.5936513 C216.257178,34.804375 215.346258,36.1801974 214.780859,37.3123026 C212.008834,42.2023684 208.993374,46.9587829 206.464785,51.9903618 L205.750184,52.0139474 C199.436564,52.2655263 193.107239,52.0689803 186.785767,52.0925658 C189.816933,46.156875 193.484172,40.5828289 196.421104,34.5921053 C199.444417,28.8844079 202.891779,23.4204276 205.985767,17.7441776 Z" id="Shape"></path>
                <path d="M58.9899387,34.6156908 C65.28,34.9616118 71.5936196,35.0245066 77.8679755,34.4191447 C78.0093252,34.6314145 78.276319,35.0638158 78.409816,35.2760855 C74.8525153,40.5042105 72.0333742,46.1725987 68.6252761,51.4872039 C65.4684663,45.8266776 62.1231902,40.2840789 58.9899387,34.6156908 Z" id="Shape"></path>
                <path d="M98.2537423,34.6156908 C104.81865,34.9773355 111.399264,34.9223026 117.964172,34.6156908 L117.602945,35.1188487 C114.179141,40.4570395 111.336442,46.156875 107.88908,51.4793421 C104.73227,45.8266776 101.386994,40.2840789 98.2537423,34.6156908 Z" id="Shape"></path>
                <path d="M225.625521,51.8095395 C228.161963,55.3316447 230.070184,59.2468421 232.323926,62.9497697 C233.439018,64.9466776 234.891779,66.8335197 235.425767,69.0977303 C232.747975,74.8683224 229.096442,80.1514803 226.10454,85.7726974 C222.735706,91.3310197 219.673129,97.0701645 216.296442,102.628487 C209.126871,113.635066 203.237301,125.419967 196.248344,136.536612 C192.934479,131.033322 189.879755,125.380658 186.613006,119.845921 C190.03681,114.33477 193.334969,108.737138 196.319018,102.974408 C199.295215,97.4003618 202.428466,91.9127961 205.76589,86.5510197 C209.511656,80.7175329 212.966871,74.6875 216.115828,68.5080921 C219.154847,62.8632895 222.507975,57.4071711 225.625521,51.8095395 Z" id="Shape"></path>
                <path d="M39.4444172,68.9955263 C42.6483436,74.5224013 45.8522699,80.0414145 49.0169325,85.5840132 C45.8365644,91.4175 42.4284663,97.1251974 39.1303067,102.903651 C35.9499387,108.422664 32.7774233,113.949539 29.5577914,119.460691 C26.1732515,125.451414 22.5531288,131.308487 19.4669939,137.464309 C16.4515337,143.116974 13.0669939,148.56523 9.95730061,154.170724 C7.4208589,150.640757 5.51263804,146.725559 3.25104294,143.030493 C2.13595092,141.033586 0.691042945,139.146743 0.164907975,136.890395 C2.89766871,131.15125 6.35288344,125.734441 9.64319018,120.286184 C13.3104294,114.515592 16.7577914,108.595625 19.8517791,102.502697 C22.8044172,97.0623026 25.8669939,91.6769408 29.1808589,86.4488158 C32.8480982,80.7725658 35.9970552,74.7975658 39.4444172,68.9955263 Z" id="Shape"></path>
                <path d="M98.0809816,103.053026 C104.528098,102.927237 110.983067,103.100197 117.438037,102.848618 C114.508957,108.650658 111.226503,114.271875 107.724172,119.751579 C104.41816,114.240428 101.198528,108.674243 98.0809816,103.053026 Z" id="Shape"></path>
                <path d="M49.0404908,120.388388 C52.5035583,114.775033 55.2441718,108.689967 59.3668712,103.516875 C62.4530061,108.823618 65.4998773,114.161809 68.593865,119.468553 C65.5784049,125.616513 61.7226994,131.300625 58.7307975,137.464309 C55.6996319,143.030493 52.5192638,148.533783 49.197546,153.934868 C45.5381595,159.556086 42.208589,165.397434 39.1617178,171.372434 C36.1541104,177.095855 32.6831902,182.551974 29.5970552,188.236086 C26.2125153,183.118026 23.2520245,177.724803 20.2522699,172.386612 C19.2235583,170.979342 20.4564417,169.446283 21.0768098,168.172664 C23.8252761,163.534178 26.4952147,158.84852 29.1808589,154.178586 C32.4240491,148.746053 35.4316564,143.18773 38.6669939,137.755197 C38.8161963,137.527204 39.1146012,137.063355 39.2638037,136.835362 C42.8682209,131.567928 45.8051534,125.875954 49.0404908,120.388388 Z" id="Shape"></path>
                <path d="M215.558282,137.519342 C222.63362,126.37125 228.884417,114.727862 235.543558,103.328191 L235.944049,103.681974 C238.158528,106.496513 239.548466,109.845658 241.448834,112.872467 C242.752393,115.278191 244.534969,117.479507 245.343804,120.121086 C244.911902,121.347533 244.220859,122.463914 243.584785,123.588158 C234.287117,139.272533 225.499877,155.247796 216.107975,170.869276 C212.754847,165.310954 209.582331,159.658289 206.315583,154.044934 C209.001227,148.329375 212.33865,142.944013 215.558282,137.519342 Z" id="Shape"></path>
                <path d="M78.0328834,137.417138 L78.7946012,137.275625 C81.951411,142.621678 85.037546,148.014901 88.1786503,153.376678 C85.3752147,159.611118 81.362454,165.200888 78.4333742,171.372434 C75.4336196,176.930757 72.2453988,182.386875 68.9472393,187.772237 C65.28,193.409178 62.0211043,199.289836 58.7700613,205.170493 C52.2365644,205.209803 45.7030675,205.233388 39.1774233,205.146908 C42.2321472,199.407763 45.6402454,193.873026 48.8206135,188.204638 C52.0323926,182.740658 55.1263804,177.205921 58.322454,171.734079 C58.4716564,171.498224 58.7779141,171.026513 58.9271166,170.790658 C62.523681,165.491776 65.6569325,159.894145 68.5703067,154.194309 C71.6171779,148.541645 74.9310429,143.038355 78.0328834,137.417138 Z" id="Shape"></path>
                <path d="M167.153865,154.084243 C173.522454,153.691151 179.898896,153.785493 186.267485,153.950592 C183.18135,159.5325 180.103067,165.130132 176.616442,170.476184 C173.318282,165.090822 170.263558,159.571809 167.153865,154.084243 Z" id="Shape"></path>
                <path d="M147.105767,188.149605 C153.537178,188.267533 159.976442,188.102434 166.407853,187.953059 L166.737669,188.440493 C163.188221,193.841579 160.054969,199.502105 156.976687,205.170493 C150.631656,205.249112 144.286626,205.249112 137.941595,204.973947 C140.721472,199.211217 144.396564,193.943783 147.105767,188.149605 Z" id="Shape"></path>
                <path d="M186.777914,188.102434 C193.067975,188.165329 199.350184,188.157467 205.640245,188.078849 L205.867975,188.660625 C203.040982,194.140329 199.774233,199.392039 196.656687,204.714507 C192.903067,199.470658 189.997546,193.684342 186.777914,188.102434 Z" id="Shape"></path>
            </g>
        </g>
    </g>
</svg>