<?xml version="1.0" encoding="UTF-8" ?>
<!DOCTYPE svg PUBLIC "-//W3C//DTD SVG 1.1//EN" "http://www.w3.org/Graphics/SVG/1.1/DTD/svg11.dtd">
<svg width="372pt" height="341pt" viewBox="0 0 372 341" version="1.1" xmlns="http://www.w3.org/2000/svg">
<g id="#ffffffff">
<path fill="#ffffff" opacity="1.00" d=" M 70.81 102.34 C 78.95 102.32 87.09 102.31 95.22 102.23 C 103.44 102.29 111.65 102.42 119.86 102.23 C 128.31 102.33 136.77 102.34 145.22 102.23 C 153.43 102.29 161.65 102.42 169.86 102.23 C 178.31 102.33 186.77 102.34 195.22 102.23 C 203.49 102.32 211.77 102.41 220.04 102.18 L 220.91 102.16 C 229.17 102.35 237.43 102.33 245.69 102.24 C 254.08 102.32 262.47 102.34 270.86 102.26 C 278.91 102.23 286.97 102.48 295.01 102.16 C 291.47 109.01 287.37 115.56 283.61 122.29 C 279.04 130.15 274.51 138.02 269.98 145.90 C 265.92 152.87 261.89 159.87 257.90 166.88 C 253.63 174.17 249.39 181.48 245.22 188.82 C 241.32 195.55 237.36 202.26 233.51 209.02 C 229.12 216.69 224.65 224.31 220.26 231.97 C 216.36 238.75 212.40 245.50 208.58 252.33 C 208.35 252.71 207.90 253.49 207.68 253.88 C 203.59 260.78 199.58 267.73 195.66 274.73 C 191.41 281.91 187.29 289.18 182.93 296.30 C 178.80 289.09 174.55 281.94 170.36 274.76 C 166.42 267.72 162.38 260.74 158.27 253.80 C 153.98 246.21 149.59 238.67 145.29 231.09 C 141.29 224.27 137.36 217.41 133.34 210.61 C 129.02 203.05 124.69 195.50 120.35 187.96 C 116.41 181.21 112.53 174.42 108.60 167.67 C 104.21 160.06 99.82 152.46 95.42 144.86 C 91.39 137.81 87.31 130.79 83.23 123.76 C 79.13 116.59 75.04 109.43 70.81 102.34 M 144.68 145.60 C 145.02 145.61 145.71 145.63 146.05 145.65 C 149.16 153.21 153.91 159.97 157.90 167.08 C 161.87 174.23 165.97 181.31 170.18 188.32 C 174.15 195.46 178.17 202.58 182.42 209.55 C 182.71 209.55 183.29 209.54 183.58 209.53 C 187.76 202.81 191.53 195.83 195.50 188.98 C 199.86 181.46 204.32 174.00 208.51 166.38 C 212.34 159.49 216.99 152.99 219.95 145.65 C 220.29 145.64 220.98 145.61 221.32 145.60 C 218.89 145.30 216.44 145.10 214.00 145.11 C 197.66 145.17 181.33 145.44 165.00 145.17 C 158.22 145.31 151.42 144.72 144.68 145.60 Z" />
</g>
<g id="#0068c8ff">
<path fill="#0068c8" opacity="1.00" d=" M 120.31 15.34 C 162.10 15.22 203.90 15.22 245.69 15.34 C 249.82 22.58 254.07 29.76 258.14 37.04 C 241.20 37.09 224.26 36.71 207.33 37.28 C 199.24 36.92 191.14 36.94 183.04 36.99 C 174.73 37.08 166.41 36.68 158.12 37.34 L 157.39 37.39 C 149.28 36.82 141.15 36.98 133.03 36.99 C 124.66 36.97 116.29 37.03 107.92 36.98 C 111.93 29.70 116.20 22.57 120.31 15.34 Z" />
<path fill="#0068c8" opacity="1.00" d=" M 195.15 58.60 L 195.82 58.54 C 199.54 58.83 203.26 59.29 207.01 59.24 C 219.73 59.08 232.45 59.15 245.17 59.22 C 240.94 66.08 236.87 73.05 233.11 80.19 L 232.22 80.22 C 215.89 79.93 199.55 79.65 183.22 80.03 C 174.86 80.42 166.48 80.49 158.12 80.03 C 154.23 72.98 150.00 66.12 146.09 59.08 C 162.44 58.54 178.84 59.93 195.15 58.60 Z" />
<path fill="#0068c8" opacity="1.00" d=" M 96.10 59.08 C 104.25 59.01 112.42 58.78 120.57 59.29 C 124.38 66.15 128.29 72.95 132.16 79.78 C 124.17 80.55 116.13 80.47 108.12 80.03 C 104.22 72.98 100.00 66.12 96.10 59.08 Z" />
<path fill="#0068c8" opacity="1.00" d=" M 258.62 79.58 C 262.88 72.70 266.67 65.55 270.84 58.61 C 278.99 58.49 287.15 58.59 295.31 58.57 C 291.37 65.79 286.98 72.74 283.13 80.00 C 274.96 79.72 266.78 80.00 258.62 79.58 Z" />
<path fill="#0068c8" opacity="1.00" d=" M 295.01 102.16 L 295.92 102.13 C 304.05 101.78 312.19 102.18 320.32 101.90 C 316.35 109.02 312.08 115.96 308.21 123.14 C 300.01 122.79 291.74 123.72 283.61 122.29 C 287.37 115.56 291.47 109.01 295.01 102.16 Z" />
<path fill="#0068c8" opacity="1.00" d=" M 320.93 145.10 C 329.23 145.40 337.54 145.25 345.84 145.22 C 341.74 152.78 336.59 159.83 333.46 167.88 L 332.95 167.43 C 324.81 166.40 316.58 167.51 308.44 166.54 C 312.74 159.47 316.64 152.17 320.93 145.10 Z" />
<path fill="#0068c8" opacity="1.00" d=" M 46.59 146.73 C 54.38 145.32 62.30 146.12 70.16 145.96 C 65.94 152.61 62.04 159.46 58.28 166.38 C 54.10 160.00 50.51 153.27 46.59 146.73 Z" />
<path fill="#0068c8" opacity="1.00" d=" M 146.05 145.65 C 153.94 146.15 161.91 144.86 169.75 146.01 C 171.51 147.39 172.57 149.43 173.70 151.31 C 176.60 156.51 179.50 161.71 182.55 166.82 C 174.33 167.14 166.11 166.92 157.90 167.08 C 153.91 159.97 149.16 153.21 146.05 145.65 Z" />
<path fill="#0068c8" opacity="1.00" d=" M 196.13 145.82 C 204.07 145.37 212.01 145.86 219.95 145.65 C 216.99 152.99 212.34 159.49 208.51 166.38 C 203.84 159.87 200.16 152.73 196.13 145.82 Z" />
<path fill="#0068c8" opacity="1.00" d=" M 269.98 145.90 C 278.33 145.95 286.68 145.90 295.03 146.09 C 290.78 152.91 286.79 159.89 283.00 166.98 C 274.63 167.00 266.26 167.09 257.90 166.88 C 261.89 159.87 265.92 152.87 269.98 145.90 Z" />
<path fill="#0068c8" opacity="1.00" d=" M 57.79 210.85 C 65.94 210.93 74.10 210.81 82.24 211.22 C 78.12 218.13 74.29 225.20 70.16 232.11 C 62.00 231.97 53.84 231.92 45.68 232.10 C 49.64 224.97 53.95 218.04 57.79 210.85 Z" />
<path fill="#0068c8" opacity="1.00" d=" M 107.79 210.85 C 115.99 210.85 124.19 211.14 132.37 210.79 C 128.42 217.94 124.20 224.94 120.32 232.13 C 112.10 231.60 103.87 231.86 95.65 231.80 C 99.88 224.93 103.93 217.93 107.79 210.85 Z" />
<path fill="#0068c8" opacity="1.00" d=" M 234.17 210.69 C 242.12 211.26 250.10 210.87 258.06 210.87 C 261.89 217.98 266.04 224.90 270.20 231.82 C 262.09 231.61 253.97 231.49 245.86 231.99 C 242.04 224.85 237.31 218.18 234.17 210.69 Z" />
<path fill="#0068c8" opacity="1.00" d=" M 283.94 210.95 C 291.79 210.67 299.65 210.78 307.50 210.92 C 303.40 217.82 299.15 224.67 295.73 231.94 C 291.91 224.88 287.70 218.04 283.94 210.95 Z" />
<path fill="#0068c8" opacity="1.00" d=" M 82.87 253.98 C 91.01 254.19 99.15 254.01 107.27 254.44 C 103.20 261.40 99.26 268.44 95.17 275.39 C 87.01 275.52 78.85 275.41 70.69 275.43 C 74.62 268.20 79.04 261.26 82.87 253.98 Z" />
<path fill="#0068c8" opacity="1.00" d=" M 132.88 253.98 C 141.34 254.20 149.81 254.32 158.27 253.80 C 162.38 260.74 166.42 267.72 170.36 274.76 C 153.84 274.86 137.31 275.15 120.80 274.84 C 125.00 267.99 129.06 261.05 132.88 253.98 Z" />
<path fill="#0068c8" opacity="1.00" d=" M 195.66 274.73 C 199.58 267.73 203.59 260.78 207.68 253.88 C 216.07 254.12 224.47 253.89 232.86 254.12 C 237.12 260.96 240.88 268.09 244.91 275.07 C 236.72 275.26 228.52 275.47 220.33 275.32 C 212.12 274.55 203.89 274.93 195.66 274.73 Z" />
<path fill="#0068c8" opacity="1.00" d=" M 258.88 254.14 C 266.86 253.93 274.85 253.92 282.83 254.12 C 286.92 261.11 291.24 267.99 294.87 275.23 C 286.86 275.33 278.86 275.34 270.85 275.26 C 266.95 268.17 262.57 261.34 258.88 254.14 Z" />
<path fill="#0068c8" opacity="1.00" d=" M 183.09 297.01 C 191.61 297.04 200.14 297.10 208.66 296.72 C 216.74 297.07 224.82 297.07 232.90 296.97 C 241.29 297.02 249.69 297.01 258.09 296.96 C 254.11 304.28 249.81 311.41 245.69 318.66 C 203.90 318.79 162.10 318.78 120.31 318.66 C 116.17 311.42 111.94 304.23 107.84 296.97 C 116.24 297.01 124.64 297.01 133.04 296.99 C 141.38 297.02 149.71 296.99 158.05 296.98 C 166.39 297.03 174.74 296.97 183.09 297.01 Z" />
</g>
<g id="#008ed5ff">
<path fill="#008ed5" opacity="1.00" d=" M 82.67 36.97 C 91.09 37.02 99.50 36.98 107.92 36.98 C 111.90 44.04 116.11 50.96 119.97 58.09 C 111.71 58.48 103.44 58.54 95.18 58.10 C 91.07 51.31 87.43 44.24 83.06 37.60 L 82.67 36.97 Z" />
<path fill="#008ed5" opacity="1.00" d=" M 207.33 37.28 C 224.26 36.71 241.20 37.09 258.14 37.04 C 254.00 44.53 249.84 52.03 245.17 59.22 C 232.45 59.15 219.73 59.08 207.01 59.24 C 203.26 59.29 199.54 58.83 195.82 58.54 C 199.21 51.21 203.81 44.54 207.33 37.28 Z" />
<path fill="#008ed5" opacity="1.00" d=" M 157.39 37.39 L 158.12 37.34 C 162.00 44.29 166.20 51.06 169.96 58.08 C 161.90 58.54 153.82 58.41 145.75 58.21 C 149.49 51.19 153.64 44.40 157.39 37.39 Z" />
<path fill="#008ed5" opacity="1.00" d=" M 232.22 80.22 L 233.11 80.19 C 229.26 87.63 224.80 94.74 220.91 102.16 L 220.04 102.18 C 217.05 94.69 211.95 88.32 208.71 80.95 C 216.54 80.38 224.40 81.00 232.22 80.22 Z" />
<path fill="#008ed5" opacity="1.00" d=" M 245.69 102.24 C 249.28 94.30 253.90 86.88 258.62 79.58 C 266.78 80.00 274.96 79.72 283.13 80.00 C 279.39 87.62 274.72 94.71 270.86 102.26 C 262.47 102.34 254.08 102.32 245.69 102.24 Z" />
<path fill="#008ed5" opacity="1.00" d=" M 58.69 80.97 C 66.80 80.48 74.92 80.68 83.04 80.73 C 87.36 87.75 91.51 94.87 95.22 102.23 C 87.09 102.31 78.95 102.32 70.81 102.34 C 66.73 95.23 62.22 88.37 58.69 80.97 Z" />
<path fill="#008ed5" opacity="1.00" d=" M 120.39 101.49 C 124.73 94.73 128.32 87.52 132.85 80.87 C 137.47 87.69 141.49 94.90 145.22 102.23 C 136.77 102.34 128.31 102.33 119.86 102.23 L 120.39 101.49 Z" />
<path fill="#008ed5" opacity="1.00" d=" M 170.39 101.48 C 174.78 94.71 178.40 87.46 182.76 80.67 C 187.38 87.57 191.46 94.83 195.22 102.23 C 186.77 102.34 178.31 102.33 169.86 102.23 L 170.39 101.48 Z" />
<path fill="#008ed5" opacity="1.00" d=" M 269.98 145.90 C 274.51 138.02 279.04 130.15 283.61 122.29 C 291.74 123.72 300.01 122.79 308.21 123.14 C 304.20 131.00 299.80 138.67 295.03 146.09 C 286.68 145.90 278.33 145.95 269.98 145.90 Z" />
<path fill="#008ed5" opacity="1.00" d=" M 32.91 123.57 C 41.05 123.02 49.23 123.85 57.36 122.99 C 61.92 130.47 66.70 137.88 70.16 145.96 C 62.30 146.12 54.38 145.32 46.59 146.73 C 41.83 139.13 37.29 131.39 32.91 123.57 Z" />
<path fill="#008ed5" opacity="1.00" d=" M 70.64 187.95 C 74.74 180.94 78.78 173.91 82.83 166.89 C 87.06 174.29 91.69 181.47 95.45 189.13 C 91.33 196.11 87.59 203.35 83.00 210.05 C 78.73 202.77 74.11 195.66 70.64 187.95 Z" />
<path fill="#008ed5" opacity="1.00" d=" M 182.55 166.82 C 187.07 174.08 191.63 181.34 195.50 188.98 C 191.53 195.83 187.76 202.81 183.58 209.53 C 183.29 209.54 182.71 209.55 182.42 209.55 C 178.17 202.58 174.15 195.46 170.18 188.32 C 174.64 181.35 178.82 174.20 182.55 166.82 Z" />
<path fill="#008ed5" opacity="1.00" d=" M 257.90 166.88 C 266.26 167.09 274.63 167.00 283.00 166.98 C 279.20 174.31 275.00 181.43 270.64 188.44 C 266.10 181.43 262.20 174.04 257.90 166.88 Z" />
<path fill="#008ed5" opacity="1.00" d=" M 282.91 209.67 C 291.81 195.53 299.31 180.54 308.44 166.54 C 316.58 167.51 324.81 166.40 332.95 167.43 C 324.47 181.93 316.51 196.74 307.50 210.92 C 299.37 209.40 291.07 210.85 282.91 209.67 Z" />
<path fill="#008ed5" opacity="1.00" d=" M 245.22 188.82 C 249.82 195.97 254.15 203.31 258.06 210.87 C 250.10 210.87 242.12 211.26 234.17 210.69 C 234.00 210.28 233.67 209.44 233.51 209.02 C 237.36 202.26 241.32 195.55 245.22 188.82 Z" />
<path fill="#008ed5" opacity="1.00" d=" M 95.65 231.80 C 103.87 231.86 112.10 231.60 120.32 232.13 C 116.61 239.38 112.62 246.50 108.04 253.24 C 103.67 246.23 99.53 239.09 95.65 231.80 Z" />
<path fill="#008ed5" opacity="1.00" d=" M 220.26 231.97 C 224.43 238.90 228.83 245.71 232.28 253.04 C 224.39 253.34 216.36 254.16 208.58 252.33 C 212.40 245.50 216.36 238.75 220.26 231.97 Z" />
<path fill="#008ed5" opacity="1.00" d=" M 270.20 231.82 C 274.36 238.82 278.81 245.67 282.28 253.04 C 274.16 253.46 266.01 253.73 257.91 252.84 C 262.35 246.04 266.27 238.92 270.20 231.82 Z" />
<path fill="#008ed5" opacity="1.00" d=" M 182.93 296.30 C 187.29 289.18 191.41 281.91 195.66 274.73 C 203.89 274.93 212.12 274.55 220.33 275.32 C 216.88 282.69 212.20 289.39 208.66 296.72 C 200.14 297.10 191.61 297.04 183.09 297.01 L 182.93 296.30 Z" />
<path fill="#008ed5" opacity="1.00" d=" M 121.03 275.91 C 129.29 275.51 137.56 275.45 145.81 275.91 C 149.99 282.87 153.88 290.01 158.05 296.98 C 149.71 296.99 141.38 297.02 133.04 296.99 C 129.14 289.91 124.81 283.07 121.03 275.91 Z" />
<path fill="#008ed5" opacity="1.00" d=" M 245.33 275.69 C 250.05 282.50 253.71 289.95 258.09 296.96 C 249.69 297.01 241.29 297.02 232.90 296.97 C 236.82 289.76 240.81 282.56 245.33 275.69 Z" />
</g>
<g id="#3496e2ff">
<path fill="#3496e2" opacity="1.00" d=" M 107.92 36.98 C 116.29 37.03 124.66 36.97 133.03 36.99 C 137.53 43.90 141.07 51.40 145.75 58.21 C 153.82 58.41 161.90 58.54 169.96 58.08 C 166.20 51.06 162.00 44.29 158.12 37.34 C 166.41 36.68 174.73 37.08 183.04 36.99 C 187.28 44.07 191.74 51.06 195.15 58.60 C 178.84 59.93 162.44 58.54 146.09 59.08 C 150.00 66.12 154.23 72.98 158.12 80.03 C 162.11 87.24 166.37 94.29 170.39 101.48 L 169.86 102.23 C 161.65 102.42 153.43 102.29 145.22 102.23 C 141.49 94.90 137.47 87.69 132.85 80.87 C 132.68 80.60 132.34 80.05 132.16 79.78 C 128.29 72.95 124.38 66.15 120.57 59.29 C 112.42 58.78 104.25 59.01 96.10 59.08 C 100.00 66.12 104.22 72.98 108.12 80.03 C 112.11 87.24 116.37 94.29 120.39 101.49 L 119.86 102.23 C 111.65 102.42 103.44 102.29 95.22 102.23 C 91.51 94.87 87.36 87.75 83.04 80.73 C 74.92 80.68 66.80 80.48 58.69 80.97 C 62.22 88.37 66.73 95.23 70.81 102.34 C 75.04 109.43 79.13 116.59 83.23 123.76 C 78.84 131.14 74.83 138.74 70.16 145.96 C 66.70 137.88 61.92 130.47 57.36 122.99 C 53.35 116.02 49.18 109.12 45.44 102.00 C 49.45 94.61 53.66 87.32 58.08 80.16 C 66.14 80.08 74.20 80.41 82.25 79.99 C 78.93 72.72 73.93 66.32 70.78 58.98 C 71.32 56.44 72.82 54.26 74.09 52.04 C 77.11 47.24 79.42 41.99 83.06 37.60 C 87.43 44.24 91.07 51.31 95.18 58.10 C 103.44 58.54 111.71 58.48 119.97 58.09 C 116.11 50.96 111.90 44.04 107.92 36.98 Z" />
<path fill="#3496e2" opacity="1.00" d=" M 183.22 80.03 C 199.55 79.65 215.89 79.93 232.22 80.22 C 224.40 81.00 216.54 80.38 208.71 80.95 C 211.95 88.32 217.05 94.69 220.04 102.18 C 211.77 102.41 203.49 102.32 195.22 102.23 C 191.46 94.83 187.38 87.57 182.76 80.67 L 183.22 80.03 Z" />
<path fill="#3496e2" opacity="1.00" d=" M 21.06 144.04 C 24.87 137.14 28.97 130.40 32.91 123.57 C 37.29 131.39 41.83 139.13 46.59 146.73 C 50.51 153.27 54.10 160.00 58.28 166.38 C 54.34 174.13 49.95 181.66 45.28 189.00 C 37.60 175.03 29.44 161.32 21.46 147.52 C 20.93 146.44 20.18 145.16 21.06 144.04 Z" />
<path fill="#3496e2" opacity="1.00" d=" M 95.42 144.86 C 99.82 152.46 104.21 160.06 108.60 167.67 C 103.35 174.25 99.86 181.99 95.45 189.13 C 91.69 181.47 87.06 174.29 82.83 166.89 C 87.03 159.54 91.37 152.28 95.42 144.86 Z" />
<path fill="#3496e2" opacity="1.00" d=" M 144.68 145.60 C 151.42 144.72 158.22 145.31 165.00 145.17 C 181.33 145.44 197.66 145.17 214.00 145.11 C 216.44 145.10 218.89 145.30 221.32 145.60 C 220.98 145.61 220.29 145.64 219.95 145.65 C 212.01 145.86 204.07 145.37 196.13 145.82 C 200.16 152.73 203.84 159.87 208.51 166.38 C 204.32 174.00 199.86 181.46 195.50 188.98 C 191.63 181.34 187.07 174.08 182.55 166.82 C 179.50 161.71 176.60 156.51 173.70 151.31 C 172.57 149.43 171.51 147.39 169.75 146.01 C 161.91 144.86 153.94 146.15 146.05 145.65 C 145.71 145.63 145.02 145.61 144.68 145.60 Z" />
<path fill="#3496e2" opacity="1.00" d=" M 245.22 188.82 C 249.39 181.48 253.63 174.17 257.90 166.88 C 262.20 174.04 266.10 181.43 270.64 188.44 C 274.80 195.48 278.69 202.67 282.91 209.67 C 291.07 210.85 299.37 209.40 307.50 210.92 C 299.65 210.78 291.79 210.67 283.94 210.95 C 287.70 218.04 291.91 224.88 295.73 231.94 C 299.89 239.08 303.93 246.27 308.20 253.34 C 304.12 261.03 299.66 268.52 295.16 275.97 L 294.87 275.23 C 291.24 267.99 286.92 261.11 282.83 254.12 C 274.85 253.92 266.86 253.93 258.88 254.14 C 262.57 261.34 266.95 268.17 270.85 275.26 C 274.95 282.36 278.65 289.72 283.43 296.39 L 283.82 296.95 C 275.24 297.01 266.67 297.06 258.09 296.96 C 253.71 289.95 250.05 282.50 245.33 275.69 L 244.91 275.07 C 240.88 268.09 237.12 260.96 232.86 254.12 C 224.47 253.89 216.07 254.12 207.68 253.88 C 207.90 253.49 208.35 252.71 208.58 252.33 C 216.36 254.16 224.39 253.34 232.28 253.04 C 228.83 245.71 224.43 238.90 220.26 231.97 C 224.65 224.31 229.12 216.69 233.51 209.02 C 233.67 209.44 234.00 210.28 234.17 210.69 C 237.31 218.18 242.04 224.85 245.86 231.99 C 249.82 238.97 253.71 245.99 257.91 252.84 C 266.01 253.73 274.16 253.46 282.28 253.04 C 278.81 245.67 274.36 238.82 270.20 231.82 C 266.04 224.90 261.89 217.98 258.06 210.87 C 254.15 203.31 249.82 195.97 245.22 188.82 Z" />
<path fill="#3496e2" opacity="1.00" d=" M 57.79 210.85 C 61.72 203.02 66.33 195.57 70.64 187.95 C 74.11 195.66 78.73 202.77 83.00 210.05 C 82.81 210.34 82.43 210.93 82.24 211.22 C 74.10 210.81 65.94 210.93 57.79 210.85 Z" />
<path fill="#3496e2" opacity="1.00" d=" M 120.35 187.96 C 124.69 195.50 129.02 203.05 133.34 210.61 L 132.37 210.79 C 124.19 211.14 115.99 210.85 107.79 210.85 C 111.60 203.01 116.51 195.78 120.35 187.96 Z" />
<path fill="#3496e2" opacity="1.00" d=" M 145.29 231.09 C 149.59 238.67 153.98 246.21 158.27 253.80 C 149.81 254.32 141.34 254.20 132.88 253.98 C 136.61 246.13 141.72 239.02 145.29 231.09 Z" />
<path fill="#3496e2" opacity="1.00" d=" M 82.87 253.98 C 86.75 246.38 90.99 238.95 95.65 231.80 C 99.53 239.09 103.67 246.23 108.04 253.24 C 107.85 253.54 107.46 254.14 107.27 254.44 C 99.15 254.01 91.01 254.19 82.87 253.98 Z" />
<path fill="#3496e2" opacity="1.00" d=" M 107.84 296.97 C 111.98 289.49 116.13 282.01 120.80 274.84 C 137.31 275.15 153.84 274.86 170.36 274.76 C 174.55 281.94 178.80 289.09 182.93 296.30 L 183.09 297.01 C 174.74 296.97 166.39 297.03 158.05 296.98 C 153.88 290.01 149.99 282.87 145.81 275.91 C 137.56 275.45 129.29 275.51 121.03 275.91 C 124.81 283.07 129.14 289.91 133.04 296.99 C 124.64 297.01 116.24 297.01 107.84 296.97 Z" />
</g>
<g id="#303147ff">
<path fill="#303147" opacity="1.00" d=" M 133.03 36.99 C 141.15 36.98 149.28 36.82 157.39 37.39 C 153.64 44.40 149.49 51.19 145.75 58.21 C 141.07 51.40 137.53 43.90 133.03 36.99 Z" />
<path fill="#303147" opacity="1.00" d=" M 183.04 36.99 C 191.14 36.94 199.24 36.92 207.33 37.28 C 203.81 44.54 199.21 51.21 195.82 58.54 L 195.15 58.60 C 191.74 51.06 187.28 44.07 183.04 36.99 Z" />
<path fill="#303147" opacity="1.00" d=" M 258.14 37.04 C 266.46 36.97 274.79 36.95 283.12 37.06 C 279.21 44.35 274.90 51.41 270.84 58.61 C 266.67 65.55 262.88 72.70 258.62 79.58 C 253.90 86.88 249.28 94.30 245.69 102.24 C 237.43 102.33 229.17 102.35 220.91 102.16 C 224.80 94.74 229.26 87.63 233.11 80.19 C 236.87 73.05 240.94 66.08 245.17 59.22 C 249.84 52.03 254.00 44.53 258.14 37.04 Z" />
<path fill="#303147" opacity="1.00" d=" M 295.31 58.57 C 299.63 65.07 303.38 71.94 307.21 78.73 C 308.39 80.27 307.23 82.02 306.51 83.46 C 302.98 89.68 299.14 95.73 295.92 102.13 L 295.01 102.16 C 286.97 102.48 278.91 102.23 270.86 102.26 C 274.72 94.71 279.39 87.62 283.13 80.00 C 286.98 72.74 291.37 65.79 295.31 58.57 Z" />
<path fill="#303147" opacity="1.00" d=" M 108.12 80.03 C 116.13 80.47 124.17 80.55 132.16 79.78 C 132.34 80.05 132.68 80.60 132.85 80.87 C 128.32 87.52 124.73 94.73 120.39 101.49 C 116.37 94.29 112.11 87.24 108.12 80.03 Z" />
<path fill="#303147" opacity="1.00" d=" M 158.12 80.03 C 166.48 80.49 174.86 80.42 183.22 80.03 L 182.76 80.67 C 178.40 87.46 174.78 94.71 170.39 101.48 C 166.37 94.29 162.11 87.24 158.12 80.03 Z" />
<path fill="#303147" opacity="1.00" d=" M 320.32 101.90 C 323.55 106.38 325.98 111.36 328.85 116.07 C 330.27 118.61 332.12 121.01 332.80 123.89 C 329.39 131.23 324.74 137.95 320.93 145.10 C 316.64 152.17 312.74 159.47 308.44 166.54 C 299.31 180.54 291.81 195.53 282.91 209.67 C 278.69 202.67 274.80 195.48 270.64 188.44 C 275.00 181.43 279.20 174.31 283.00 166.98 C 286.79 159.89 290.78 152.91 295.03 146.09 C 299.80 138.67 304.20 131.00 308.21 123.14 C 312.08 115.96 316.35 109.02 320.32 101.90 Z" />
<path fill="#303147" opacity="1.00" d=" M 83.23 123.76 C 87.31 130.79 91.39 137.81 95.42 144.86 C 91.37 152.28 87.03 159.54 82.83 166.89 C 78.78 173.91 74.74 180.94 70.64 187.95 C 66.33 195.57 61.72 203.02 57.79 210.85 C 53.95 218.04 49.64 224.97 45.68 232.10 C 42.45 227.61 40.02 222.63 37.14 217.93 C 35.72 215.39 33.88 212.99 33.21 210.12 C 36.69 202.82 41.09 195.93 45.28 189.00 C 49.95 181.66 54.34 174.13 58.28 166.38 C 62.04 159.46 65.94 152.61 70.16 145.96 C 74.83 138.74 78.84 131.14 83.23 123.76 Z" />
<path fill="#303147" opacity="1.00" d=" M 157.90 167.08 C 166.11 166.92 174.33 167.14 182.55 166.82 C 178.82 174.20 174.64 181.35 170.18 188.32 C 165.97 181.31 161.87 174.23 157.90 167.08 Z" />
<path fill="#303147" opacity="1.00" d=" M 95.45 189.13 C 99.86 181.99 103.35 174.25 108.60 167.67 C 112.53 174.42 116.41 181.21 120.35 187.96 C 116.51 195.78 111.60 203.01 107.79 210.85 C 103.93 217.93 99.88 224.93 95.65 231.80 C 90.99 238.95 86.75 246.38 82.87 253.98 C 79.04 261.26 74.62 268.20 70.69 275.43 C 66.38 268.92 62.61 262.06 58.79 255.27 C 57.48 253.48 59.05 251.53 59.84 249.91 C 63.34 244.01 66.74 238.05 70.16 232.11 C 74.29 225.20 78.12 218.13 82.24 211.22 C 82.43 210.93 82.81 210.34 83.00 210.05 C 87.59 203.35 91.33 196.11 95.45 189.13 Z" />
<path fill="#303147" opacity="1.00" d=" M 307.50 210.92 C 316.51 196.74 324.47 181.93 332.95 167.43 L 333.46 167.88 C 336.28 171.46 338.05 175.72 340.47 179.57 C 342.13 182.63 344.40 185.43 345.43 188.79 C 344.88 190.35 344.00 191.77 343.19 193.20 C 331.35 213.15 320.16 233.47 308.20 253.34 C 303.93 246.27 299.89 239.08 295.73 231.94 C 299.15 224.67 303.40 217.82 307.50 210.92 Z" />
<path fill="#303147" opacity="1.00" d=" M 132.37 210.79 L 133.34 210.61 C 137.36 217.41 141.29 224.27 145.29 231.09 C 141.72 239.02 136.61 246.13 132.88 253.98 C 129.06 261.05 125.00 267.99 120.80 274.84 C 116.13 282.01 111.98 289.49 107.84 296.97 C 99.52 297.02 91.20 297.05 82.89 296.94 C 86.78 289.64 91.12 282.60 95.17 275.39 C 99.26 268.44 103.20 261.40 107.27 254.44 C 107.46 254.14 107.85 253.54 108.04 253.24 C 112.62 246.50 116.61 239.38 120.32 232.13 C 124.20 224.94 128.42 217.94 132.37 210.79 Z" />
<path fill="#303147" opacity="1.00" d=" M 245.86 231.99 C 253.97 231.49 262.09 231.61 270.20 231.82 C 266.27 238.92 262.35 246.04 257.91 252.84 C 253.71 245.99 249.82 238.97 245.86 231.99 Z" />
<path fill="#303147" opacity="1.00" d=" M 220.33 275.32 C 228.52 275.47 236.72 275.26 244.91 275.07 L 245.33 275.69 C 240.81 282.56 236.82 289.76 232.90 296.97 C 224.82 297.07 216.74 297.07 208.66 296.72 C 212.20 289.39 216.88 282.69 220.33 275.32 Z" />
<path fill="#303147" opacity="1.00" d=" M 270.85 275.26 C 278.86 275.34 286.86 275.33 294.87 275.23 L 295.16 275.97 C 291.56 282.94 287.40 289.62 283.43 296.39 C 278.65 289.72 274.95 282.36 270.85 275.26 Z" />
</g>
</svg>
