<?xml version="1.0" encoding="UTF-8"?>
<svg width="256px" height="256px" viewBox="0 0 256 256" version="1.1" xmlns="http://www.w3.org/2000/svg" xmlns:xlink="http://www.w3.org/1999/xlink">
    <!-- Generator: Sketch 50.2 (55047) - http://www.bohemiancoding.com/sketch -->
    <title>logo/holstad</title>
    <desc>Created with Sketch.</desc>
    <defs></defs>
    <g id="logo/holstad" stroke="none" stroke-width="1" fill="none" fill-rule="evenodd">
        <g id="holstad" transform="translate(0.000000, 57.000000)" fill-rule="nonzero">
            <g id="#ed1b24ff" transform="translate(4.063492, 2.704762)" fill="#ED1B24">
                <path d="M3.34560847,2.1232381 C5.74306878,1.31180952 8.30306878,1.2712381 10.8088889,1.19009524 C86.2273016,1.23066667 161.632169,1.21714286 237.050582,1.20361905 C240.314921,1.43352381 244.635767,0.973714286 246.518519,4.34114286 C247.439577,6.35619048 247.412487,8.61466667 247.466667,10.7784762 C247.398942,49.1184762 247.439577,87.4584762 247.439577,125.798476 C247.385397,128.881905 247.277037,132.939048 243.850159,134.250857 C240.342011,135.305714 236.630688,134.913524 233.027725,134.981143 C157.609312,134.872952 82.1773545,135.07581 6.7589418,134.886476 C2.50582011,135.197524 -0.406349206,131.208 0.18962963,127.204952 C0.0948148148,88.391619 0.216719577,49.5782857 0.135449735,10.7649524 C0.216719577,7.68152381 0.0541798942,3.692 3.34560847,2.1232381 Z M220.26836,14.2270476 C219.983915,21.0700952 219.753651,27.9401905 219.103492,34.7697143 C221.108148,34.3234286 223.112804,33.8771429 225.11746,33.4038095 C225.33418,26.628381 225.794709,19.8529524 226.038519,13.064 C224.115132,13.4561905 222.178201,13.8348571 220.26836,14.2270476 Z M229.451852,12.847619 C229.533122,19.6095238 227.663915,26.4390476 229.194497,33.1468571 C233.339259,32.1190476 239.122963,33.1198095 241.100529,28.3188571 C238.797884,28.5893333 236.481693,28.8598095 234.179048,29.1438095 C234.734392,23.3420952 234.991746,17.5133333 235.208466,11.6845714 C233.285079,12.0767619 231.375238,12.4554286 229.451852,12.847619 Z M201.386667,16.8912381 C201.305397,17.7567619 201.142857,19.4742857 201.061587,20.3398095 C197.079365,20.8807619 192.975238,21.0700952 189.22328,22.6118095 C188.017778,27.8590476 188.071958,33.3091429 187.895873,38.6645714 C192.948148,38.5158095 197.973333,37.8125714 202.917249,36.7982857 C204.176931,36.4872381 205.870053,35.9598095 206.032593,34.431619 C206.764021,28.2241905 206.723386,21.9491429 206.994286,15.7011429 C205.125079,16.1068571 203.255873,16.4990476 201.386667,16.8912381 Z M152.177778,23.9506667 C151.527619,30.6990476 151.04,37.4609524 151.161905,44.2499048 C155.618201,43.7089524 161.28,44.4662857 163.94836,39.9493333 C161.52381,40.0169524 159.112804,40.1657143 156.701799,40.328 C157.013333,36.852381 157.324868,33.3632381 157.582222,29.887619 C159.424339,29.5765714 161.28,29.2790476 163.122116,28.9815238 C163.135661,28.2106667 163.149206,26.6689524 163.162751,25.8980952 C161.33418,26.1685714 159.492063,26.4390476 157.663492,26.7095238 C157.704127,25.844 157.785397,24.1129524 157.826032,23.2474286 C155.94328,23.4773333 154.060529,23.7072381 152.177778,23.9506667 Z M170.842751,24.8702857 C168.90582,25.0866667 167.930582,26.8853333 166.684444,28.1430476 C171.235556,27.9266667 175.746032,27.2504762 180.256508,26.5742857 C180.310688,33.5660952 171.045926,29.3737143 167.497143,33.228 C166.833439,36.0139048 167.023069,38.8944762 166.995979,41.7344762 C172.833862,40.9500952 179.646984,41.748 184.685714,38.3535238 C185.525503,33.4173333 185.539048,28.3864762 185.972487,23.4097143 C180.893122,23.0580952 175.786667,23.7342857 170.842751,24.8702857 Z M121.051429,28.684 C120.794074,35.567619 120.143915,42.4377143 119.832381,49.3213333 C121.755767,48.9291429 123.679153,48.5234286 125.616085,48.1312381 C126.157884,41.3152381 126.496508,34.4857143 126.835132,27.6561905 C124.911746,27.9942857 122.974815,28.332381 121.051429,28.684 Z M130.993439,30.888381 C130.64127,34.012381 130.465185,37.1634286 130.45164,40.3144762 C134.569312,40.0980952 138.673439,39.5977143 142.791111,39.259619 C142.723386,40.0980952 142.601481,41.7750476 142.533757,42.6135238 C138.795344,43.2491429 135.043386,43.8306667 131.291429,44.3580952 C130.790265,45.2100952 129.787937,46.9005714 129.273228,47.7525714 C135.002751,46.7518095 140.894815,46.508381 146.502434,44.939619 C149.468783,42.7487619 147.951746,38.4617143 148.276825,35.3106667 C144.240423,35.5946667 140.217566,36.0815238 136.194709,36.5278095 C136.221799,35.6622857 136.262434,33.9447619 136.289524,33.0792381 C140.122751,32.443619 143.955979,31.8350476 147.802751,31.2805714 C148.195556,30.4285714 148.954074,28.7380952 149.333333,27.899619 C143.22455,28.8868571 137.061587,29.6712381 130.993439,30.888381 Z M99.7993651,35.8921905 C99.4065608,41.2611429 99.0408466,46.6571429 99.3659259,52.0531429 C105.257989,51.404 111.136508,50.552 116.893122,49.1590476 C117.380741,43.7900952 118.030899,38.3805714 117.421376,33.011619 C111.461587,33.0927619 105.515344,34.1746667 99.7993651,35.8921905 Z M89.8167196,41.2205714 C87.6224339,41.6262857 85.4146032,42.0184762 83.2203175,42.4241905 C83.3286772,39.76 83.437037,37.0958095 83.5318519,34.431619 C81.6084656,34.8102857 79.6850794,35.2024762 77.7616931,35.5946667 C77.5314286,42.4377143 76.813545,49.2672381 76.5832804,56.1102857 C78.4931217,55.7451429 80.402963,55.38 82.3263492,55.0013333 C82.5566138,51.7961905 82.8275132,48.5910476 83.0713228,45.372381 C85.2791534,45.1289524 87.5005291,44.8855238 89.7354497,44.655619 C89.4374603,47.7525714 89.1530159,50.8630476 88.9092063,53.9735238 C90.9274074,53.7165714 92.9456085,53.4731429 94.9502646,53.2161905 C95.2753439,46.4001905 95.6410582,39.5977143 95.9390476,32.7817143 C94.5168254,32.9575238 91.658836,33.295619 90.2366138,33.4579048 C90.087619,36.0544762 89.9521693,38.6375238 89.8167196,41.2205714 Z M34.1468783,35.2565714 C34.1062434,36.000381 34.0114286,37.4744762 33.9707937,38.2182857 C36.0025397,39.192 37.9936508,40.2874286 39.9034921,41.4910476 C39.8222222,38.7592381 39.7409524,36.0139048 39.5784127,33.295619 C38.8469841,34.7832381 37.4112169,37.7584762 36.6797884,39.2460952 C36.3817989,38.2588571 35.7722751,36.2573333 35.4742857,35.2700952 C35.1356614,35.2565714 34.4719577,35.2565714 34.1468783,35.2565714 Z M41.8268783,40.5984762 C42.9511111,38.9620952 43.7502646,36.6900952 43.3439153,34.6885714 C41.2986243,34.7291429 39.9712169,39.7735238 41.8268783,40.5984762 Z M44.6848677,40.4497143 C47.109418,40.7066667 47.9221164,36.5007619 46.6759788,34.9049524 C44.3056085,34.8102857 43.4116402,38.8133333 44.6848677,40.4497143 Z M31.1534392,36.3790476 C30.0292063,38.272381 30.4761905,40.9095238 30.8960847,42.9786667 C33.1716402,42.5188571 33.4289947,37.2310476 31.1534392,36.3790476 Z M27.3337566,38.4752381 C25.4239153,42.5864762 31.8984127,38.6375238 27.3337566,38.4752381 Z M22.9451852,38.2047619 C23.8933333,41.0312381 24.9498413,43.8171429 26.2230688,46.5219048 C26.9409524,43.2491429 26.7242328,39.4489524 22.9451852,38.2047619 Z M72.4249735,64.2380952 C72.4385185,64.8466667 72.4656085,66.0908571 72.4926984,66.7129524 C74.5244444,66.4154286 76.5697354,66.1314286 78.6150265,65.8339048 C77.9106878,68.16 77.1928042,70.4725714 76.4749206,72.7986667 C75.4996825,73.055619 73.5221164,73.5830476 72.5468783,73.8535238 C73.3731217,74.3539048 75.0391534,75.3546667 75.8653968,75.8550476 C74.8359788,77.7889524 73.5627513,79.5740952 72.0592593,81.1699048 C72.3030688,81.6297143 72.8177778,82.5222857 73.0751323,82.9685714 C71.5039153,85.8626667 70.637037,89.0272381 70.4744974,92.3270476 C69.2825397,92.3811429 66.9257143,92.4893333 65.7473016,92.5434286 C68.1853968,96.1407619 72.3437037,97.7771429 75.9060317,100.008571 C91.7401058,109.529333 107.560635,119.063619 123.408254,128.557333 C158.571005,99.048381 193.571217,69.3365714 228.625608,39.7059048 C176.545185,47.8201905 124.491852,56.0967619 72.4249735,64.2380952 Z M13.6533333,47.5902857 C14.9265608,46.792381 17.4594709,45.1830476 18.7326984,44.3851429 C18.0960847,47.0087619 17.2292063,49.5512381 16.5248677,52.1613333 C15.7528042,51.052381 14.2086772,48.8209524 13.4230688,47.712 C12.8677249,48.3070476 11.7299471,49.5241905 11.1610582,50.1327619 C11.7028571,50.2409524 12.786455,50.4708571 13.328254,50.5790476 C14.344127,51.8232381 15.373545,53.0674286 16.402963,54.311619 C17.5678307,52.5670476 18.7597884,50.8495238 19.9111111,49.0914286 C20.3174603,49.1860952 21.1301587,49.3619048 21.5500529,49.4565714 C20.6696296,47.0358095 19.7756614,44.6150476 18.8410582,42.2213333 C17.0666667,43.9659048 15.3329101,45.7510476 13.6533333,47.5902857 Z M14.4931217,71.8790476 C21.3468783,60.708381 31.749418,51.620381 44.4546032,47.8472381 C41.5424339,46.6030476 38.386455,44.4662857 35.1627513,46.075619 C23.5953439,49.2266667 15.4683598,60.1133333 14.4931217,71.8790476 Z M43.0865608,44.5609524 C47.3125926,47.928381 51.8095238,51.2687619 54.4778836,56.0967619 C56.6721693,60.6001905 57.0107937,65.6986667 57.5525926,70.6078095 C60.1803175,72.4470476 62.8757672,74.191619 65.6253968,75.8550476 C68.5104762,61.5468571 58.5955556,45.0072381 43.0865608,44.5609524 Z M16.0372487,74.124 C13.8835979,78.384 16.8499471,82.8739048 17.9877249,86.9851429 C26.128254,73.3260952 37.8175661,61.4792381 52.730582,55.38 C50.6175661,53.0539048 48.4097354,50.8224762 46.1206349,48.6721905 C33.1174603,52.4859048 21.8344974,61.8579048 16.0372487,74.124 Z M8.8584127,53.7706667 C7.89671958,55.8939048 6.94857143,58.0171429 6.08169312,60.1674286 C6.89439153,59.0314286 7.70708995,57.8819048 8.49269841,56.7188571 C10.0639153,57.151619 11.6351323,57.5708571 13.2063492,57.9900952 C11.784127,56.5430476 10.3348148,55.1500952 8.8584127,53.7706667 Z M9.03449735,59.9645714 C9.5221164,60.9653333 10.4973545,62.9668571 10.9849735,63.9811429 C9.30539683,63.048 7.61227513,62.128381 5.93269841,61.2087619 C5.8378836,61.7632381 5.63470899,62.8857143 5.53989418,63.4401905 C7.32783069,64.2110476 9.08867725,64.9954286 10.8495238,65.8068571 C11.5267725,63.8594286 12.298836,61.9390476 13.1521693,60.0457143 C12.1227513,60.0321905 10.0639153,59.9780952 9.03449735,59.9645714 Z M20.6289947,88.2969524 C19.5860317,93.1249524 26.1553439,93.652381 29.4332275,94.4232381 C35.9889947,84.2533333 44.3868783,74.9219048 55.4395767,69.5529524 C55.4531217,65.5904762 55.1009524,61.628 54.4507937,57.7060952 C39.8357672,63.048 27.5369312,74.4485714 20.6289947,88.2969524 Z M65.2055026,56.2860952 C66.3026455,60.9382857 67.9957672,65.5499048 68.0093122,70.4049524 C68.3343915,73.272 66.8986243,77.2209524 70.6234921,78.3569524 C71.5716402,70.5942857 69.4179894,62.8180952 65.2055026,56.2860952 Z M46.7978836,78.0188571 C52.0939683,83.3878095 58.4736508,87.5937143 65.557672,90.244381 C67.3862434,86.9580952 68.9032804,83.5095238 70.162963,79.9662857 C65.2867725,77.7754286 60.7221164,74.976 56.5502646,71.6491429 C53.0962963,73.4342857 49.8184127,75.5575238 46.7978836,78.0188571 Z M37.885291,86.6740952 C42.6666667,91.948381 48.4232804,96.8845714 55.5614815,98.4127619 C59.3134392,97.1009524 61.9005291,93.9228571 64.6095238,91.2045714 C57.3900529,88.5944762 50.9291005,84.3074286 45.6736508,78.735619 C42.991746,81.291619 40.4046561,83.9422857 37.885291,86.6740952 Z M26.4804233,97.0333333 C27.7942857,97.412 30.4220106,98.1693333 31.735873,98.548 L29.3519577,100.901143 C31.234709,100.035619 32.5892063,98.5750476 33.6998942,96.8575238 C38.1697354,103.511238 46.6217989,101.901905 53.1504762,100.103238 C47.109418,97.0198095 41.4205291,93.1655238 36.869418,88.0805714 C34.1739683,91.7860952 31.8713228,97.0062857 26.4804233,97.0333333 Z" id="Shape"></path>
                <path d="M193.828571,34.932 C194.004656,31.3481905 194.180741,27.7779048 194.438095,24.207619 C196.673016,23.9777143 198.894392,23.7342857 201.129312,23.504381 C200.871958,27.1017143 200.560423,30.6990476 200.154074,34.2828571 C198.041058,34.4992381 195.941587,34.715619 193.828571,34.932 Z" id="Shape"></path>
                <path d="M172.752593,34.5533333 C175.001058,34.1611429 177.235979,33.7554286 179.470899,33.3361905 C179.457354,34.6074286 179.457354,35.8651429 179.44381,37.136381 C177.208889,37.5420952 174.973968,37.9613333 172.739048,38.3805714 C172.739048,37.1093333 172.752593,35.8245714 172.752593,34.5533333 Z" id="Shape"></path>
                <path d="M105.352804,37.488 C107.57418,37.204 109.795556,36.9335238 112.016931,36.6495238 C111.827302,40.2333333 111.651217,43.8171429 111.448042,47.3874286 C109.240212,47.6579048 107.018836,47.928381 104.79746,48.212381 C105.000635,44.6420952 105.190265,41.0582857 105.352804,37.488 Z" id="Shape"></path>
                <path d="M159.844233,58.2064762 C175.515767,56.6377143 191.241481,55.447619 206.899471,53.6219048 C196.659471,62.7504762 186.040212,71.4598095 175.813757,80.6019048 C164.341164,79.7634286 152.882116,78.9249524 141.409524,78.0053333 C146.068995,72.5958095 150.620106,67.1051429 155.171217,61.6009524 C156.471534,60.1944762 157.663492,58.2470476 159.844233,58.2064762 Z" id="Shape"></path>
                <path d="M126.902857,61.4251429 C136.126984,60.3297143 145.405291,59.64 154.670053,58.7609524 C149.211429,65.0765714 143.888254,71.500381 138.510899,77.883619 C131.508148,77.3561905 124.532487,76.7070476 117.51619,76.3148571 C120.631534,71.3380952 123.855238,66.4424762 126.902857,61.4251429 Z" id="Shape"></path>
                <path d="M106.395767,63.1832381 C112.55873,62.8451429 118.681058,62.0742857 124.830476,61.5333333 C121.715132,66.4695238 118.545608,71.3651429 115.33545,76.2337143 C110.350899,75.7062857 105.352804,75.3005714 100.354709,74.9489524 C102.37291,71.0270476 104.336931,67.0780952 106.395767,63.1832381 Z" id="Shape"></path>
                <path d="M91.631746,64.752 C95.8713228,64.116381 100.178624,63.967619 104.431746,63.5078095 C102.697989,67.3620952 100.828783,71.1622857 98.9189418,74.9354286 C95.0857143,74.6514286 91.2389418,74.3133333 87.4057143,74.0158095 C88.7602116,70.932381 89.3155556,67.2944762 91.631746,64.752 Z" id="Shape"></path>
                <path d="M79.9017989,65.8339048 C83.0577778,65.5093333 86.2273016,65.252381 89.3832804,65.0224762 C88.2590476,68.0247619 87.0941799,71 85.8886772,73.9752381 C83.1796825,73.7588571 80.4571429,73.5424762 77.7481481,73.339619 C78.4931217,70.8512381 79.2380952,68.3493333 79.9017989,65.8339048 Z" id="Shape"></path>
                <path d="M76.9354497,75.2464762 C79.6308995,75.4087619 82.3398942,75.5575238 85.0488889,75.7062857 C84.3039153,77.9241905 83.5318519,80.1285714 82.7733333,82.3464762 C80.375873,81.792 77.9784127,81.2375238 75.5944974,80.6830476 C76.0414815,78.8708571 76.4884656,77.0586667 76.9354497,75.2464762 Z" id="Shape"></path>
                <path d="M86.6201058,75.9902857 C90.3585185,76.2607619 94.1104762,76.5177143 97.8624339,76.8287619 C96.5079365,79.5605714 95.1534392,82.3059048 93.7853968,85.0377143 C90.5346032,84.2262857 87.2702646,83.428381 84.0059259,82.644 C84.8728042,80.4260952 85.7396825,78.2081905 86.6201058,75.9902857 Z" id="Shape"></path>
                <path d="M99.0137566,77.3561905 C104.066032,77.248 109.104762,77.6537143 114.143492,78.0053333 C112.071111,81.5620952 109.86328,85.0377143 107.54709,88.4457143 C103.456508,87.2961905 99.311746,86.3089524 95.1669841,85.3622857 C96.4808466,82.711619 97.794709,80.0609524 99.0137566,77.3561905 Z" id="Shape"></path>
                <path d="M109.538201,88.6485714 C111.813757,85.1594286 114.075767,81.6567619 116.364868,78.167619 C123.177989,78.8438095 130.031746,79.1819048 136.871958,79.6822857 C133.323175,84.1045714 129.611852,88.391619 125.981799,92.7598095 C120.496085,91.3939048 114.98328,90.1497143 109.538201,88.6485714 Z" id="Shape"></path>
                <path d="M128.623069,93.4089524 C132.212487,88.8784762 136.032169,84.5238095 139.675767,80.0339048 C150.95873,80.6289524 162.214603,81.724381 173.497566,82.427619 C166.901164,88.1481905 160.318307,93.9093333 153.57291,99.467619 C145.310476,97.2767619 136.953228,95.3969524 128.623069,93.4089524 Z" id="Shape"></path>
                <path d="M74.24,82.7251429 C76.8,83.1849524 79.36,83.6853333 81.906455,84.2262857 C81.2021164,86.1466667 80.4706878,88.0805714 79.7663492,90.0144762 C77.6262434,89.2030476 75.4861376,88.3780952 73.3460317,87.5666667 C73.6440212,85.9438095 73.9420106,84.3344762 74.24,82.7251429 Z" id="Shape"></path>
                <path d="M80.7957672,90.5689524 C81.6626455,88.5809524 82.5159788,86.5929524 83.3828571,84.6184762 C86.538836,85.4434286 89.7083598,86.2142857 92.8778836,87.0257143 C91.6859259,89.3382857 90.4804233,91.6508571 89.3155556,93.9769524 C86.4711111,92.8409524 83.6402116,91.6914286 80.7957672,90.5689524 Z" id="Shape"></path>
                <path d="M90.629418,94.6125714 C91.8078307,92.1512381 92.9997884,89.6899048 94.218836,87.255619 C98.322963,88.2834286 102.440635,89.2706667 106.544762,90.2579048 C104.702646,93.0979048 103.063704,96.1001905 100.706878,98.5615238 C97.293545,97.3984762 93.9885714,95.924381 90.629418,94.6125714 Z" id="Shape"></path>
                <path d="M70.9485714,93.5306667 C71.5580952,92.016 72.167619,90.5013333 72.7771429,89.0001905 C74.8088889,89.8657143 76.8541799,90.7312381 78.8994709,91.5967619 C78.330582,93.3548571 77.7616931,95.1264762 77.2063492,96.8980952 C75.1068783,95.7891429 73.0344974,94.6666667 70.9485714,93.5306667 Z" id="Shape"></path>
                <path d="M108.373333,90.6771429 C113.737143,91.9754286 119.100952,93.2601905 124.464762,94.5584762 C121.552593,98.0070476 118.694603,101.49619 115.701164,104.877143 C111.393862,102.970286 107.032381,101.198667 102.711534,99.3459048 C104.607831,96.4518095 106.490582,93.5712381 108.373333,90.6771429 Z" id="Shape"></path>
                <path d="M79.9830688,92.1647619 C82.8410582,93.1925714 85.6719577,94.3015238 88.4893122,95.424 C87.4734392,97.4931429 86.4575661,99.5622857 85.4416931,101.644952 C83.0306878,100.292571 80.6196825,98.9537143 78.2086772,97.5878095 C78.8182011,95.775619 79.4006349,93.9769524 79.9830688,92.1647619 Z" id="Shape"></path>
                <path d="M118.071534,105.675048 C121.132698,102.212952 124.112593,98.6697143 127.051852,95.0994286 C135.300741,97.2361905 143.60381,99.1295238 151.879788,101.144571 C146.922328,105.215238 142.140952,109.51581 137.169947,113.586476 C130.871534,110.787048 124.437672,108.31219 118.071534,105.675048 Z" id="Shape"></path>
                <path d="M89.6406349,96.1001905 C93.162328,97.344381 96.6298413,98.7102857 100.124444,100.049143 C98.6615873,102.469905 97.1851852,104.877143 95.735873,107.311429 C92.661164,105.702095 89.6406349,103.998095 86.6742857,102.185905 C87.6766138,100.157333 88.6653968,98.1287619 89.6406349,96.1001905 Z" id="Shape"></path>
                <path d="M101.817566,100.847048 C106.138413,102.618667 110.472804,104.363238 114.780106,106.188952 C112.463915,108.893714 110.147725,111.612 107.790899,114.289714 C104.228571,112.220571 100.666243,110.192 97.0768254,108.190476 C98.6751323,105.75619 100.246349,103.294857 101.817566,100.847048 Z" id="Shape"></path>
                <path d="M109.89037,115.331048 C112.328466,112.57219 114.739471,109.786286 117.177566,107.027429 C123.408254,109.691619 129.706667,112.193524 135.964444,114.763048 C132.361481,117.887048 128.717884,120.984 125.020106,123.99981 C120.049101,120.997524 114.915556,118.25219 109.89037,115.331048 Z" id="Shape"></path>
            </g>
            <g id="#fcfdfdff" fill="#FCFDFD">
                <path d="M2.97989418,2.92114286 C4.22603175,2.25847619 5.48571429,1.63638095 6.7589418,1.04133333 C16.7280423,0.662666667 26.6971429,0.987238095 36.6662434,0.892571429 C107.49291,1.0007619 178.319577,0.649142857 249.132698,1.06838095 L249.796402,1.09542857 C251.408254,2.71828571 253.006561,4.35466667 254.564233,6.04514286 C254.659048,48.2529524 254.537143,90.4742857 254.686138,132.682095 C255.160212,136.157714 252.126138,138.402667 249.945397,140.566476 C247.439577,140.823429 244.920212,140.945143 242.414392,140.945143 C164.666243,140.904571 86.9180952,140.958667 9.18349206,140.918095 C4.78137566,141.215619 0.663703704,136.901524 1.02941799,132.546857 C1.01587302,95.5998095 1.02941799,58.6392381 1.02941799,21.6921905 C0.975238095,17.5674286 1.32740741,13.4020952 0.460529101,9.34495238 C1.20550265,7.16761905 2.05883598,5.03085714 2.97989418,2.92114286 Z M7.40910053,4.828 C4.11767196,6.3967619 4.28021164,10.3862857 4.1989418,13.4697143 C4.28021164,52.2830476 4.15830688,91.096381 4.25312169,129.909714 C3.65714286,133.912762 6.56931217,137.902286 10.8224339,137.591238 C86.2408466,137.780571 161.672804,137.577714 237.091217,137.685905 C240.69418,137.618286 244.405503,138.010476 247.913651,136.955619 C251.340529,135.64381 251.448889,131.586667 251.503069,128.503238 C251.503069,90.1632381 251.462434,51.8232381 251.530159,13.4832381 C251.475979,11.3194286 251.503069,9.06095238 250.582011,7.04590476 C248.699259,3.67847619 244.378413,4.13828571 241.114074,3.90838095 C165.695661,3.92190476 90.2907937,3.93542857 14.872381,3.89485714 C12.3665608,3.976 9.80656085,4.01657143 7.40910053,4.828 Z" id="Shape"></path>
                <path d="M224.331852,16.9318095 C226.241693,16.539619 228.178624,16.1609524 230.102011,15.7687619 C229.858201,22.5577143 229.397672,29.3331429 229.180952,36.1085714 C227.176296,36.5819048 225.17164,37.0281905 223.166984,37.4744762 C223.817143,30.6449524 224.047407,23.7748571 224.331852,16.9318095 Z" id="Shape"></path>
                <path d="M233.515344,15.552381 C235.43873,15.1601905 237.348571,14.7815238 239.271958,14.3893333 C239.055238,20.2180952 238.797884,26.0468571 238.24254,31.8485714 C240.545185,31.5645714 242.861376,31.2940952 245.164021,31.023619 C243.186455,35.8245714 237.402751,34.8238095 233.257989,35.851619 C231.727407,29.1438095 233.596614,22.3142857 233.515344,15.552381 Z" id="Shape"></path>
                <path d="M205.450159,19.596 C207.319365,19.2038095 209.188571,18.811619 211.057778,18.4059048 C210.786878,24.6539048 210.827513,30.9289524 210.096085,37.136381 C209.933545,38.6645714 208.240423,39.192 206.980741,39.5030476 C202.036825,40.5173333 197.01164,41.2205714 191.959365,41.3693333 C192.13545,36.0139048 192.08127,30.5638095 193.286772,25.3165714 C197.03873,23.7748571 201.142857,23.5855238 205.125079,23.0445714 C205.206349,22.1790476 205.368889,20.4615238 205.450159,19.596 Z M197.892063,37.6367619 C200.005079,37.420381 202.10455,37.204 204.217566,36.987619 C204.623915,33.4038095 204.93545,29.8064762 205.192804,26.2091429 C202.957884,26.4390476 200.736508,26.6824762 198.501587,26.912381 C198.244233,30.4826667 198.068148,34.0529524 197.892063,37.6367619 Z" id="Shape"></path>
                <path d="M156.24127,26.6554286 C158.124021,26.412 160.006772,26.1820952 161.889524,25.9521905 C161.848889,26.8177143 161.767619,28.5487619 161.726984,29.4142857 C163.555556,29.1438095 165.397672,28.8733333 167.226243,28.6028571 C167.212698,29.3737143 167.199153,30.9154286 167.185608,31.6862857 C165.343492,31.9838095 163.487831,32.2813333 161.645714,32.592381 C161.38836,36.068 161.076825,39.5571429 160.765291,43.0327619 C163.176296,42.8704762 165.587302,42.7217143 168.011852,42.6540952 C165.343492,47.1710476 159.681693,46.4137143 155.225397,46.9546667 C155.103492,40.1657143 155.591111,33.4038095 156.24127,26.6554286 Z" id="Shape"></path>
                <path d="M174.906243,27.5750476 C179.850159,26.4390476 184.956614,25.7628571 190.035979,26.1144762 C189.60254,31.0912381 189.588995,36.1220952 188.749206,41.0582857 C183.710476,44.4527619 176.897354,43.6548571 171.059471,44.4392381 C171.086561,41.5992381 170.896931,38.7186667 171.560635,35.9327619 C175.109418,32.0784762 184.37418,36.2708571 184.32,29.2790476 C179.809524,29.9552381 175.299048,30.6314286 170.747937,30.8478095 C171.994074,29.5900952 172.969312,27.7914286 174.906243,27.5750476 Z M176.816085,37.2580952 C176.816085,38.5293333 176.80254,39.8140952 176.80254,41.0853333 C179.03746,40.6660952 181.272381,40.2468571 183.507302,39.8411429 C183.520847,38.5699048 183.520847,37.3121905 183.534392,36.0409524 C181.299471,36.4601905 179.06455,36.8659048 176.816085,37.2580952 Z" id="Shape"></path>
                <path d="M125.114921,31.3887619 C127.038307,31.0371429 128.975238,30.6990476 130.898624,30.3609524 C130.56,37.1904762 130.221376,44.02 129.679577,50.836 C127.742646,51.2281905 125.819259,51.6339048 123.895873,52.0260952 C124.207407,45.1424762 124.857566,38.272381 125.114921,31.3887619 Z" id="Shape"></path>
                <path d="M135.056931,33.5931429 C141.125079,32.376 147.288042,31.591619 153.396825,30.604381 C153.017566,31.4428571 152.259048,33.1333333 151.866243,33.9853333 C148.019471,34.5398095 144.186243,35.148381 140.353016,35.784 C140.325926,36.6495238 140.285291,38.3670476 140.258201,39.2325714 C144.281058,38.7862857 148.303915,38.2994286 152.340317,38.0154286 C152.015238,41.1664762 153.532275,45.4535238 150.565926,47.644381 C144.958307,49.2131429 139.066243,49.4565714 133.33672,50.4573333 C133.851429,49.6053333 134.853757,47.9148571 135.354921,47.0628571 C139.106878,46.5354286 142.858836,45.9539048 146.597249,45.3182857 C146.664974,44.4798095 146.786878,42.8028571 146.854603,41.964381 C142.736931,42.3024762 138.632804,42.8028571 134.515132,43.0192381 C134.528677,39.8681905 134.704762,36.7171429 135.056931,33.5931429 Z" id="Shape"></path>
                <path d="M103.862857,38.5969524 C109.578836,36.8794286 115.525079,35.7975238 121.484868,35.716381 C122.094392,41.0853333 121.444233,46.4948571 120.956614,51.8638095 C115.2,53.2567619 109.321481,54.1087619 103.429418,54.7579048 C103.104339,49.3619048 103.470053,43.9659048 103.862857,38.5969524 Z M109.416296,40.1927619 C109.253757,43.7630476 109.064127,47.3468571 108.860952,50.9171429 C111.082328,50.6331429 113.303704,50.3626667 115.511534,50.0921905 C115.714709,46.5219048 115.890794,42.9380952 116.080423,39.3542857 C113.859048,39.6382857 111.637672,39.9087619 109.416296,40.1927619 Z" id="Shape"></path>
                <path d="M93.8802116,43.9253333 C94.0156614,41.3422857 94.1511111,38.7592381 94.3001058,36.1626667 C95.722328,36.000381 98.5803175,35.6622857 100.00254,35.4864762 C99.7045503,42.3024762 99.338836,49.1049524 99.0137566,55.9209524 C97.0091005,56.1779048 94.9908995,56.4213333 92.9726984,56.6782857 C93.2165079,53.5678095 93.5009524,50.4573333 93.7989418,47.360381 C91.5640212,47.5902857 89.3426455,47.8337143 87.1348148,48.0771429 C86.8910053,51.2958095 86.6201058,54.5009524 86.3898413,57.7060952 C84.466455,58.0847619 82.5566138,58.4499048 80.6467725,58.8150476 C80.877037,51.972 81.5949206,45.1424762 81.8251852,38.2994286 C83.7485714,37.9072381 85.6719577,37.5150476 87.5953439,37.136381 C87.5005291,39.8005714 87.3921693,42.4647619 87.2838095,45.1289524 C89.4780952,44.7232381 91.6859259,44.3310476 93.8802116,43.9253333 Z" id="Shape"></path>
                <path d="M38.2103704,37.9613333 C38.5354497,37.9613333 39.1991534,37.9613333 39.5377778,37.9748571 C39.8357672,38.9620952 40.445291,40.963619 40.7432804,41.9508571 C41.474709,40.4632381 42.9104762,37.488 43.6419048,36.000381 C43.8044444,38.7186667 43.8857143,41.464 43.9669841,44.1958095 C42.0571429,42.9921905 40.0660317,41.8967619 38.0342857,40.9230476 C38.0749206,40.1792381 38.1697354,38.7051429 38.2103704,37.9613333 Z" id="Shape"></path>
                <path d="M45.8903704,43.3032381 C44.034709,42.4782857 45.3621164,37.4339048 47.4074074,37.3933333 C47.8137566,39.3948571 47.0146032,41.6668571 45.8903704,43.3032381 Z" id="Shape"></path>
                <path d="M48.7483598,43.1544762 C47.4751323,41.5180952 48.3691005,37.5150476 50.7394709,37.6097143 C51.9856085,39.2055238 51.1729101,43.4114286 48.7483598,43.1544762 Z" id="Shape"></path>
                <path d="M35.2169312,39.0838095 C37.4924868,39.9358095 37.2351323,45.223619 34.9595767,45.6834286 C34.5396825,43.6142857 34.0926984,40.9771429 35.2169312,39.0838095 Z" id="Shape"></path>
                <path d="" id="Shape"></path>
                <path d="M27.0086772,40.9095238 C30.7877249,42.1537143 31.0044444,45.9539048 30.2865608,49.2266667 C29.0133333,46.5219048 27.9568254,43.736 27.0086772,40.9095238 Z" id="Shape"></path>
                <path d="M76.4884656,66.9428571 C128.555344,58.8015238 180.608677,50.5249524 232.689101,42.4106667 C197.634709,72.0413333 162.634497,101.753143 127.471746,131.262095 C111.624127,121.768381 95.8035979,112.234095 79.9695238,102.713333 C76.4071958,100.481905 72.2488889,98.8455238 69.8107937,95.2481905 C70.9892063,95.1940952 73.3460317,95.0859048 74.5379894,95.0318095 C74.7005291,91.732 75.5674074,88.5674286 77.1386243,85.6733333 C76.8812698,85.2270476 76.3665608,84.3344762 76.1227513,83.8746667 C77.6262434,82.2788571 78.8994709,80.4937143 79.9288889,78.5598095 C79.1026455,78.0594286 77.4366138,77.0586667 76.6103704,76.5582857 C77.5856085,76.2878095 79.5631746,75.760381 80.5384127,75.5034286 C81.2562963,73.1773333 81.9741799,70.8647619 82.6785185,68.5386667 C80.6332275,68.8361905 78.5879365,69.1201905 76.5561905,69.4177143 C76.5291005,68.795619 76.5020106,67.5514286 76.4884656,66.9428571 Z M163.907725,60.9112381 C161.726984,60.9518095 160.535026,62.8992381 159.234709,64.3057143 C154.683598,69.8099048 150.132487,75.3005714 145.473016,80.7100952 C156.945608,81.6297143 168.404656,82.4681905 179.877249,83.3066667 C190.103704,74.1645714 200.722963,65.4552381 210.962963,56.3266667 C195.304974,58.152381 179.579259,59.3424762 163.907725,60.9112381 Z M130.966349,64.1299048 C127.91873,69.1472381 124.695026,74.0428571 121.579683,79.019619 C128.595979,79.4118095 135.57164,80.0609524 142.574392,80.588381 C147.951746,74.2051429 153.274921,67.7813333 158.733545,61.4657143 C149.468783,62.3447619 140.190476,63.0344762 130.966349,64.1299048 Z M110.459259,65.888 C108.400423,69.7828571 106.436402,73.7318095 104.418201,77.6537143 C109.416296,78.0053333 114.414392,78.4110476 119.398942,78.9384762 C122.609101,74.0699048 125.778624,69.1742857 128.893968,64.2380952 C122.74455,64.7790476 116.622222,65.5499048 110.459259,65.888 Z M95.6952381,67.4567619 C93.3790476,69.9992381 92.8237037,73.6371429 91.4692063,76.7205714 C95.3024339,77.0180952 99.1492063,77.3561905 102.982434,77.6401905 C104.892275,73.8670476 106.761481,70.0668571 108.495238,66.2125714 C104.242116,66.672381 99.9348148,66.8211429 95.6952381,67.4567619 Z M83.965291,68.5386667 C83.3015873,71.0540952 82.5566138,73.556 81.8116402,76.044381 C84.5206349,76.2472381 87.2431746,76.463619 89.9521693,76.68 C91.157672,73.7047619 92.3225397,70.7295238 93.4467725,67.7272381 C90.2907937,67.9571429 87.1212698,68.2140952 83.965291,68.5386667 Z M80.9989418,77.9512381 C80.5519577,79.7634286 80.1049735,81.575619 79.6579894,83.3878095 C82.0419048,83.9422857 84.4393651,84.4967619 86.8368254,85.0512381 C87.5953439,82.8333333 88.3674074,80.6289524 89.112381,78.4110476 C86.4033862,78.2622857 83.6943915,78.1135238 80.9989418,77.9512381 Z M90.6835979,78.6950476 C89.8031746,80.9129524 88.9362963,83.1308571 88.069418,85.3487619 C91.3337566,86.1331429 94.5980952,86.9310476 97.8488889,87.7424762 C99.2169312,85.0106667 100.571429,82.2653333 101.925926,79.5335238 C98.1739683,79.2224762 94.4220106,78.9655238 90.6835979,78.6950476 Z M103.077249,80.0609524 C101.858201,82.7657143 100.544339,85.416381 99.2304762,88.0670476 C103.375238,89.0137143 107.52,90.0009524 111.610582,91.1504762 C113.926772,87.7424762 116.134603,84.2668571 118.206984,80.7100952 C113.168254,80.3584762 108.129524,79.9527619 103.077249,80.0609524 Z M113.601693,91.3533333 C119.046772,92.8544762 124.559577,94.0986667 130.045291,95.4645714 C133.675344,91.096381 137.386667,86.8093333 140.93545,82.3870476 C134.095238,81.8866667 127.241481,81.5485714 120.42836,80.872381 C118.139259,84.3615238 115.877249,87.8641905 113.601693,91.3533333 Z M132.686561,96.1137143 C141.01672,98.1017143 149.373968,99.9815238 157.636402,102.172381 C164.381799,96.6140952 170.964656,90.8529524 177.561058,85.132381 C166.278095,84.4291429 155.022222,83.3337143 143.739259,82.7386667 C140.095661,87.2285714 136.275979,91.5832381 132.686561,96.1137143 Z M78.3034921,85.4299048 C78.0055026,87.0392381 77.7075132,88.6485714 77.4095238,90.2714286 C79.5496296,91.0828571 81.6897354,91.9078095 83.8298413,92.7192381 C84.5341799,90.7853333 85.2656085,88.8514286 85.9699471,86.9310476 C83.4234921,86.3900952 80.8634921,85.8897143 78.3034921,85.4299048 Z M84.8592593,93.2737143 C87.7037037,94.3961905 90.5346032,95.5457143 93.3790476,96.6817143 C94.5439153,94.355619 95.749418,92.0430476 96.9413757,89.7304762 C93.7718519,88.9190476 90.602328,88.1481905 87.4463492,87.3232381 C86.5794709,89.2977143 85.7261376,91.2857143 84.8592593,93.2737143 Z M94.6929101,97.3173333 C98.0520635,98.6291429 101.357037,100.103238 104.77037,101.266286 C107.127196,98.8049524 108.766138,95.8026667 110.608254,92.9626667 C106.504127,91.9754286 102.386455,90.9881905 98.282328,89.960381 C97.0632804,92.3946667 95.8713228,94.856 94.6929101,97.3173333 Z M75.0120635,96.2354286 C77.0979894,97.3714286 79.1703704,98.4939048 81.2698413,99.6028571 C81.8251852,97.8312381 82.3940741,96.059619 82.962963,94.3015238 C80.917672,93.436 78.872381,92.5704762 76.8406349,91.7049524 C76.2311111,93.2060952 75.6215873,94.7207619 75.0120635,96.2354286 Z M112.436825,93.3819048 C110.554074,96.276 108.671323,99.1565714 106.775026,102.050667 C111.095873,103.903429 115.457354,105.675048 119.764656,107.581905 C122.758095,104.200952 125.616085,100.71181 128.528254,97.2632381 C123.164444,95.9649524 117.800635,94.6801905 112.436825,93.3819048 Z M84.0465608,94.8695238 C83.464127,96.6817143 82.8816931,98.480381 82.2721693,100.292571 C84.6831746,101.658476 87.0941799,102.997333 89.5051852,104.349714 C90.5210582,102.267048 91.5369312,100.197905 92.5528042,98.1287619 C89.7354497,97.0062857 86.9045503,95.8973333 84.0465608,94.8695238 Z M122.135026,108.37981 C128.501164,111.016952 134.935026,113.49181 141.233439,116.291238 C146.204444,112.220571 150.98582,107.92 155.94328,103.849333 C147.667302,101.834286 139.364233,99.9409524 131.115344,97.8041905 C128.176085,101.374476 125.19619,104.917714 122.135026,108.37981 Z M93.704127,98.8049524 C92.7288889,100.833524 91.7401058,102.862095 90.7377778,104.890667 C93.704127,106.702857 96.7246561,108.406857 99.7993651,110.01619 C101.248677,107.581905 102.725079,105.174667 104.187937,102.753905 C100.693333,101.415048 97.2258201,100.049143 93.704127,98.8049524 Z M105.881058,103.55181 C104.309841,105.999619 102.738624,108.460952 101.140317,110.895238 C104.729735,112.896762 108.292063,114.925333 111.854392,116.994476 C114.211217,114.316762 116.527407,111.598476 118.843598,108.893714 C114.536296,107.068 110.201905,105.323429 105.881058,103.55181 Z M113.953862,118.03581 C118.979048,120.956952 124.112593,123.702286 129.083598,126.704571 C132.781376,123.688762 136.424974,120.59181 140.027937,117.46781 C133.770159,114.898286 127.471746,112.396381 121.241058,109.73219 C118.802963,112.491048 116.391958,115.276952 113.953862,118.03581 Z" id="Shape"></path>
                <path d="M17.7168254,50.2950476 C19.3964021,48.4558095 21.1301587,46.6706667 22.9045503,44.9260952 C23.8391534,47.3198095 24.7331217,49.7405714 25.613545,52.1613333 C25.1936508,52.0666667 24.3809524,51.8908571 23.9746032,51.7961905 C22.8232804,53.5542857 21.6313228,55.2718095 20.466455,57.016381 C19.437037,55.7721905 18.407619,54.528 17.391746,53.2838095 C16.8499471,53.175619 15.7663492,52.9457143 15.2245503,52.8375238 C15.7934392,52.2289524 16.9312169,51.0118095 17.4865608,50.4167619 C18.2721693,51.5257143 19.8162963,53.7571429 20.5883598,54.8660952 C21.2926984,52.256 22.1595767,49.7135238 22.7961905,47.0899048 C21.522963,47.8878095 18.9900529,49.4971429 17.7168254,50.2950476 Z" id="Shape"></path>
                <path d="M18.5566138,74.5838095 C19.5318519,62.8180952 27.658836,51.9314286 39.2262434,48.780381 C42.4499471,47.1710476 45.6059259,49.3078095 48.5180952,50.552 C35.8129101,54.3251429 25.4103704,63.4131429 18.5566138,74.5838095 Z" id="Shape"></path>
                <path d="M47.1500529,47.2657143 C62.6590476,47.712 72.5739683,64.251619 69.6888889,78.5598095 C66.9392593,76.896381 64.2438095,75.1518095 61.6160847,73.3125714 C61.0742857,68.4034286 60.7356614,63.3049524 58.5413757,58.8015238 C55.8730159,53.9735238 51.3760847,50.6331429 47.1500529,47.2657143 Z" id="Shape"></path>
                <path d="M20.1007407,76.8287619 C25.8979894,64.5626667 37.1809524,55.1906667 50.184127,51.3769524 C52.4732275,53.5272381 54.6810582,55.7586667 56.7940741,58.0847619 C41.8810582,64.184 30.191746,76.0308571 22.0512169,89.6899048 C20.9134392,85.5786667 17.9470899,81.0887619 20.1007407,76.8287619 Z" id="Shape"></path>
                <path d="M12.9219048,56.4754286 C14.3983069,57.8548571 15.847619,59.2478095 17.2698413,60.6948571 C15.6986243,60.275619 14.1274074,59.856381 12.5561905,59.423619 C11.770582,60.5866667 10.9578836,61.7361905 10.1451852,62.8721905 C11.0120635,60.7219048 11.9602116,58.5986667 12.9219048,56.4754286 Z" id="Shape"></path>
                <path d="M13.0979894,62.6693333 C14.1274074,62.6828571 16.1862434,62.7369524 17.2156614,62.7504762 C16.362328,64.6438095 15.5902646,66.5641905 14.9130159,68.511619 C13.1521693,67.7001905 11.3913228,66.9158095 9.60338624,66.1449524 C9.69820106,65.5904762 9.90137566,64.468 9.99619048,63.9135238 C11.6757672,64.8331429 13.3688889,65.7527619 15.0484656,66.6859048 C14.5608466,65.671619 13.5856085,63.6700952 13.0979894,62.6693333 Z" id="Shape"></path>
                <path d="M24.6924868,91.0017143 C31.6004233,77.1533333 43.8992593,65.7527619 58.5142857,60.4108571 C59.1644444,64.3327619 59.5166138,68.2952381 59.5030688,72.2577143 C48.4503704,77.6266667 40.0524868,86.9580952 33.4967196,97.128 C30.218836,96.3571429 23.6495238,95.8297143 24.6924868,91.0017143 Z" id="Shape"></path>
                <path d="M69.2689947,58.9908571 C73.4814815,65.5228571 75.6351323,73.2990476 74.6869841,81.0617143 C70.9621164,79.9257143 72.3978836,75.9767619 72.0728042,73.1097143 C72.0592593,68.2546667 70.3661376,63.6430476 69.2689947,58.9908571 Z" id="Shape"></path>
                <path d="M50.8613757,80.723619 C53.8819048,78.2622857 57.1597884,76.1390476 60.6137566,74.3539048 C64.7856085,77.6807619 69.3502646,80.4801905 74.226455,82.6710476 C72.9667725,86.2142857 71.4497354,89.6628571 69.621164,92.9491429 C62.5371429,90.2984762 56.1574603,86.0925714 50.8613757,80.723619 Z" id="Shape"></path>
                <path d="M41.9487831,89.3788571 C44.4681481,86.6470476 47.0552381,83.996381 49.7371429,81.440381 C54.9925926,87.0121905 61.453545,91.2992381 68.6730159,93.9093333 C65.9640212,96.627619 63.3769312,99.8057143 59.6249735,101.117524 C52.4867725,99.5893333 46.7301587,94.6531429 41.9487831,89.3788571 Z" id="Shape"></path>
                <path d="M30.5439153,99.7380952 C35.9348148,99.7110476 38.2374603,94.4908571 40.9329101,90.7853333 C45.4840212,95.8702857 51.1729101,99.7245714 57.2139683,102.808 C50.685291,104.606667 42.2332275,106.216 37.7633862,99.5622857 C36.6526984,101.27981 35.2982011,102.740381 33.4154497,103.605905 L35.7993651,101.252762 C34.4855026,100.874095 31.8577778,100.116762 30.5439153,99.7380952 Z" id="Shape"></path>
            </g>
        </g>
    </g>
</svg>