<?xml version="1.0" encoding="UTF-8" ?>
<!DOCTYPE svg PUBLIC "-//W3C//DTD SVG 1.1//EN" "http://www.w3.org/Graphics/SVG/1.1/DTD/svg11.dtd">
<svg width="200pt" height="170pt" viewBox="0 0 200 170" version="1.1" xmlns="http://www.w3.org/2000/svg">
<g id="#ed1b24ff">
<path fill="#ed1b24" opacity="1.00" d=" M 10.47 36.57 C 12.24 35.97 14.13 35.94 15.98 35.88 C 71.66 35.91 127.33 35.90 183.01 35.89 C 185.42 36.06 188.61 35.72 190.00 38.21 C 190.68 39.70 190.66 41.37 190.70 42.97 C 190.65 71.32 190.68 99.67 190.68 128.02 C 190.64 130.30 190.56 133.30 188.03 134.27 C 185.44 135.05 182.70 134.76 180.04 134.81 C 124.36 134.73 68.67 134.88 12.99 134.74 C 9.85 134.97 7.70 132.02 8.14 129.06 C 8.07 100.36 8.16 71.66 8.10 42.96 C 8.16 40.68 8.04 37.73 10.47 36.57 M 170.62 45.52 C 170.41 50.58 170.24 55.66 169.76 60.71 C 171.24 60.38 172.72 60.05 174.20 59.70 C 174.36 54.69 174.70 49.68 174.88 44.66 C 173.46 44.95 172.03 45.23 170.62 45.52 M 177.40 44.50 C 177.46 49.50 176.08 54.55 177.21 59.51 C 180.27 58.75 184.54 59.49 186.00 55.94 C 184.30 56.14 182.59 56.34 180.89 56.55 C 181.30 52.26 181.49 47.95 181.65 43.64 C 180.23 43.93 178.82 44.21 177.40 44.50 M 156.68 47.49 C 156.62 48.13 156.50 49.40 156.44 50.04 C 153.50 50.44 150.47 50.58 147.70 51.72 C 146.81 55.60 146.85 59.63 146.72 63.59 C 150.45 63.48 154.16 62.96 157.81 62.21 C 158.74 61.98 159.99 61.59 160.11 60.46 C 160.65 55.87 160.62 51.23 160.82 46.61 C 159.44 46.91 158.06 47.20 156.68 47.49 M 120.35 52.71 C 119.87 57.70 119.51 62.70 119.60 67.72 C 122.89 67.32 127.07 67.88 129.04 64.54 C 127.25 64.59 125.47 64.70 123.69 64.82 C 123.92 62.25 124.15 59.67 124.34 57.10 C 125.70 56.87 127.07 56.65 128.43 56.43 C 128.44 55.86 128.45 54.72 128.46 54.15 C 127.11 54.35 125.75 54.55 124.40 54.75 C 124.43 54.11 124.49 52.83 124.52 52.19 C 123.13 52.36 121.74 52.53 120.35 52.71 M 134.13 53.39 C 132.70 53.55 131.98 54.88 131.06 55.81 C 134.42 55.65 137.75 55.15 141.08 54.65 C 141.12 59.82 134.28 56.72 131.66 59.57 C 131.17 61.63 131.31 63.76 131.29 65.86 C 135.60 65.28 140.63 65.87 144.35 63.36 C 144.97 59.71 144.98 55.99 145.30 52.31 C 141.55 52.05 137.78 52.55 134.13 53.39 M 97.37 56.21 C 97.18 61.30 96.70 66.38 96.47 71.47 C 97.89 71.18 99.31 70.88 100.74 70.59 C 101.14 65.55 101.39 60.50 101.64 55.45 C 100.22 55.70 98.79 55.95 97.37 56.21 M 104.71 57.84 C 104.45 60.15 104.32 62.48 104.31 64.81 C 107.35 64.65 110.38 64.28 113.42 64.03 C 113.37 64.65 113.28 65.89 113.23 66.51 C 110.47 66.98 107.70 67.41 104.93 67.80 C 104.56 68.43 103.82 69.68 103.44 70.31 C 107.67 69.57 112.02 69.39 116.16 68.23 C 118.35 66.61 117.23 63.44 117.47 61.11 C 114.49 61.32 111.52 61.68 108.55 62.01 C 108.57 61.37 108.60 60.10 108.62 59.46 C 111.45 58.99 114.28 58.54 117.12 58.13 C 117.41 57.50 117.97 56.25 118.25 55.63 C 113.74 56.36 109.19 56.94 104.71 57.84 M 81.68 61.54 C 81.39 65.51 81.12 69.50 81.36 73.49 C 85.71 73.01 90.05 72.38 94.30 71.35 C 94.66 67.38 95.14 63.38 94.69 59.41 C 90.29 59.47 85.90 60.27 81.68 61.54 M 74.31 65.48 C 72.69 65.78 71.06 66.07 69.44 66.37 C 69.52 64.40 69.60 62.43 69.67 60.46 C 68.25 60.74 66.83 61.03 65.41 61.32 C 65.24 66.38 64.71 71.43 64.54 76.49 C 65.95 76.22 67.36 75.95 68.78 75.67 C 68.95 73.30 69.15 70.93 69.33 68.55 C 70.96 68.37 72.60 68.19 74.25 68.02 C 74.03 70.31 73.82 72.61 73.64 74.91 C 75.13 74.72 76.62 74.54 78.10 74.35 C 78.34 69.31 78.61 64.28 78.83 59.24 C 77.78 59.37 75.67 59.62 74.62 59.74 C 74.51 61.66 74.41 63.57 74.31 65.48 M 33.21 61.07 C 33.18 61.62 33.11 62.71 33.08 63.26 C 34.58 63.98 36.05 64.79 37.46 65.68 C 37.40 63.66 37.34 61.63 37.22 59.62 C 36.68 60.72 35.62 62.92 35.08 64.02 C 34.86 63.29 34.41 61.81 34.19 61.08 C 33.94 61.07 33.45 61.07 33.21 61.07 M 38.88 65.02 C 39.71 63.81 40.30 62.13 40.00 60.65 C 38.49 60.68 37.51 64.41 38.88 65.02 M 40.99 64.91 C 42.78 65.10 43.38 61.99 42.46 60.81 C 40.71 60.74 40.05 63.70 40.99 64.91 M 31.00 61.90 C 30.17 63.30 30.50 65.25 30.81 66.78 C 32.49 66.44 32.68 62.53 31.00 61.90 M 28.18 63.45 C 26.77 66.49 31.55 63.57 28.18 63.45 M 24.94 63.25 C 25.64 65.34 26.42 67.40 27.36 69.40 C 27.89 66.98 27.73 64.17 24.94 63.25 M 61.47 82.50 C 61.48 82.95 61.50 83.87 61.52 84.33 C 63.02 84.11 64.53 83.90 66.04 83.68 C 65.52 85.40 64.99 87.11 64.46 88.83 C 63.74 89.02 62.28 89.41 61.56 89.61 C 62.17 89.98 63.40 90.72 64.01 91.09 C 63.25 92.52 62.31 93.84 61.20 95.02 C 61.38 95.36 61.76 96.02 61.95 96.35 C 60.79 98.49 60.15 100.83 60.03 103.27 C 59.15 103.31 57.41 103.39 56.54 103.43 C 58.34 106.09 61.41 107.30 64.04 108.95 C 75.73 115.99 87.41 123.04 99.11 130.06 C 125.07 108.24 150.91 86.27 176.79 64.36 C 138.34 70.36 99.91 76.48 61.47 82.50 M 18.08 70.19 C 19.02 69.60 20.89 68.41 21.83 67.82 C 21.36 69.76 20.72 71.64 20.20 73.57 C 19.63 72.75 18.49 71.10 17.91 70.28 C 17.50 70.72 16.66 71.62 16.24 72.07 C 16.64 72.15 17.44 72.32 17.84 72.40 C 18.59 73.32 19.35 74.24 20.11 75.16 C 20.97 73.87 21.85 72.60 22.70 71.30 C 23.00 71.37 23.60 71.50 23.91 71.57 C 23.26 69.78 22.60 67.99 21.91 66.22 C 20.60 67.51 19.32 68.83 18.08 70.19 M 18.70 88.15 C 23.76 79.89 31.44 73.17 40.82 70.38 C 38.67 69.46 36.34 67.88 33.96 69.07 C 25.42 71.40 19.42 79.45 18.70 88.15 M 39.81 67.95 C 42.93 70.44 46.25 72.91 48.22 76.48 C 49.84 79.81 50.09 83.58 50.49 87.21 C 52.43 88.57 54.42 89.86 56.45 91.09 C 58.58 80.51 51.26 68.28 39.81 67.95 M 19.84 89.81 C 18.25 92.96 20.44 96.28 21.28 99.32 C 27.29 89.22 35.92 80.46 46.93 75.95 C 45.37 74.23 43.74 72.58 42.05 70.99 C 32.45 73.81 24.12 80.74 19.84 89.81 M 14.54 74.76 C 13.83 76.33 13.13 77.90 12.49 79.49 C 13.09 78.65 13.69 77.80 14.27 76.94 C 15.43 77.26 16.59 77.57 17.75 77.88 C 16.70 76.81 15.63 75.78 14.54 74.76 M 14.67 79.34 C 15.03 80.08 15.75 81.56 16.11 82.31 C 14.87 81.62 13.62 80.94 12.38 80.26 C 12.31 80.67 12.16 81.50 12.09 81.91 C 13.41 82.48 14.71 83.06 16.01 83.66 C 16.51 82.22 17.08 80.80 17.71 79.40 C 16.95 79.39 15.43 79.35 14.67 79.34 M 23.23 100.29 C 22.46 103.86 27.31 104.25 29.73 104.82 C 34.57 97.30 40.77 90.40 48.93 86.43 C 48.94 83.50 48.68 80.57 48.20 77.67 C 37.41 81.62 28.33 90.05 23.23 100.29 M 56.14 76.62 C 56.95 80.06 58.20 83.47 58.21 87.06 C 58.45 89.18 57.39 92.10 60.14 92.94 C 60.84 87.20 59.25 81.45 56.14 76.62 M 42.55 92.69 C 46.46 96.66 51.17 99.77 56.40 101.73 C 57.75 99.30 58.87 96.75 59.80 94.13 C 56.20 92.51 52.83 90.44 49.75 87.98 C 47.20 89.30 44.78 90.87 42.55 92.69 M 35.97 99.09 C 39.50 102.99 43.75 106.64 49.02 107.77 C 51.79 106.80 53.70 104.45 55.70 102.44 C 50.37 100.51 45.60 97.34 41.72 93.22 C 39.74 95.11 37.83 97.07 35.97 99.09 M 27.55 106.75 C 28.52 107.03 30.46 107.59 31.43 107.87 L 29.67 109.61 C 31.06 108.97 32.06 107.89 32.88 106.62 C 36.18 111.54 42.42 110.35 47.24 109.02 C 42.78 106.74 38.58 103.89 35.22 100.13 C 33.23 102.87 31.53 106.73 27.55 106.75 Z" />
<path fill="#ed1b24" opacity="1.00" d=" M 151.10 60.83 C 151.23 58.18 151.36 55.54 151.55 52.90 C 153.20 52.73 154.84 52.55 156.49 52.38 C 156.30 55.04 156.07 57.70 155.77 60.35 C 154.21 60.51 152.66 60.67 151.10 60.83 Z" />
<path fill="#ed1b24" opacity="1.00" d=" M 135.54 60.55 C 137.20 60.26 138.85 59.96 140.50 59.65 C 140.49 60.59 140.49 61.52 140.48 62.46 C 138.83 62.76 137.18 63.07 135.53 63.38 C 135.53 62.44 135.54 61.49 135.54 60.55 Z" />
<path fill="#ed1b24" opacity="1.00" d=" M 85.78 62.72 C 87.42 62.51 89.06 62.31 90.70 62.10 C 90.56 64.75 90.43 67.40 90.28 70.04 C 88.65 70.24 87.01 70.44 85.37 70.65 C 85.52 68.01 85.66 65.36 85.78 62.72 Z" />
<path fill="#ed1b24" opacity="1.00" d=" M 126.01 78.04 C 137.58 76.88 149.19 76.00 160.75 74.65 C 153.19 81.40 145.35 87.84 137.80 94.60 C 129.33 93.98 120.87 93.36 112.40 92.68 C 115.84 88.68 119.20 84.62 122.56 80.55 C 123.52 79.51 124.40 78.07 126.01 78.04 Z" />
<path fill="#ed1b24" opacity="1.00" d=" M 101.69 80.42 C 108.50 79.61 115.35 79.10 122.19 78.45 C 118.16 83.12 114.23 87.87 110.26 92.59 C 105.09 92.20 99.94 91.72 94.76 91.43 C 97.06 87.75 99.44 84.13 101.69 80.42 Z" />
<path fill="#ed1b24" opacity="1.00" d=" M 86.55 81.72 C 91.10 81.47 95.62 80.90 100.16 80.50 C 97.86 84.15 95.52 87.77 93.15 91.37 C 89.47 90.98 85.78 90.68 82.09 90.42 C 83.58 87.52 85.03 84.60 86.55 81.72 Z" />
<path fill="#ed1b24" opacity="1.00" d=" M 75.65 82.88 C 78.78 82.41 81.96 82.30 85.10 81.96 C 83.82 84.81 82.44 87.62 81.03 90.41 C 78.20 90.20 75.36 89.95 72.53 89.73 C 73.53 87.45 73.94 84.76 75.65 82.88 Z" />
<path fill="#ed1b24" opacity="1.00" d=" M 66.99 83.68 C 69.32 83.44 71.66 83.25 73.99 83.08 C 73.16 85.30 72.30 87.50 71.41 89.70 C 69.41 89.54 67.40 89.38 65.40 89.23 C 65.95 87.39 66.50 85.54 66.99 83.68 Z" />
<path fill="#ed1b24" opacity="1.00" d=" M 64.80 90.64 C 66.79 90.76 68.79 90.87 70.79 90.98 C 70.24 92.62 69.67 94.25 69.11 95.89 C 67.34 95.48 65.57 95.07 63.81 94.66 C 64.14 93.32 64.47 91.98 64.80 90.64 Z" />
<path fill="#ed1b24" opacity="1.00" d=" M 71.95 91.19 C 74.71 91.39 77.48 91.58 80.25 91.81 C 79.25 93.83 78.25 95.86 77.24 97.88 C 74.84 97.28 72.43 96.69 70.02 96.11 C 70.66 94.47 71.30 92.83 71.95 91.19 Z" />
<path fill="#ed1b24" opacity="1.00" d=" M 81.10 92.20 C 84.83 92.12 88.55 92.42 92.27 92.68 C 90.74 95.31 89.11 97.88 87.40 100.40 C 84.38 99.55 81.32 98.82 78.26 98.12 C 79.23 96.16 80.20 94.20 81.10 92.20 Z" />
<path fill="#ed1b24" opacity="1.00" d=" M 88.87 100.55 C 90.55 97.97 92.22 95.38 93.91 92.80 C 98.94 93.30 104.00 93.55 109.05 93.92 C 106.43 97.19 103.69 100.36 101.01 103.59 C 96.96 102.58 92.89 101.66 88.87 100.55 Z" />
<path fill="#ed1b24" opacity="1.00" d=" M 102.96 104.07 C 105.61 100.72 108.43 97.50 111.12 94.18 C 119.45 94.62 127.76 95.43 136.09 95.95 C 131.22 100.18 126.36 104.44 121.38 108.55 C 115.28 106.93 109.11 105.54 102.96 104.07 Z" />
<path fill="#ed1b24" opacity="1.00" d=" M 62.81 96.17 C 64.70 96.51 66.59 96.88 68.47 97.28 C 67.95 98.70 67.41 100.13 66.89 101.56 C 65.31 100.96 63.73 100.35 62.15 99.75 C 62.37 98.55 62.59 97.36 62.81 96.17 Z" />
<path fill="#ed1b24" opacity="1.00" d=" M 67.65 101.97 C 68.29 100.50 68.92 99.03 69.56 97.57 C 71.89 98.18 74.23 98.75 76.57 99.35 C 75.69 101.06 74.80 102.77 73.94 104.49 C 71.84 103.65 69.75 102.80 67.65 101.97 Z" />
<path fill="#ed1b24" opacity="1.00" d=" M 74.91 104.96 C 75.78 103.14 76.66 101.32 77.56 99.52 C 80.59 100.28 83.63 101.01 86.66 101.74 C 85.30 103.84 84.09 106.06 82.35 107.88 C 79.83 107.02 77.39 105.93 74.91 104.96 Z" />
<path fill="#ed1b24" opacity="1.00" d=" M 60.38 104.16 C 60.83 103.04 61.28 101.92 61.73 100.81 C 63.23 101.45 64.74 102.09 66.25 102.73 C 65.83 104.03 65.41 105.34 65.00 106.65 C 63.45 105.83 61.92 105.00 60.38 104.16 Z" />
<path fill="#ed1b24" opacity="1.00" d=" M 88.01 102.05 C 91.97 103.01 95.93 103.96 99.89 104.92 C 97.74 107.47 95.63 110.05 93.42 112.55 C 90.24 111.14 87.02 109.83 83.83 108.46 C 85.23 106.32 86.62 104.19 88.01 102.05 Z" />
<path fill="#ed1b24" opacity="1.00" d=" M 67.05 103.15 C 69.16 103.91 71.25 104.73 73.33 105.56 C 72.58 107.09 71.83 108.62 71.08 110.16 C 69.30 109.16 67.52 108.17 65.74 107.16 C 66.19 105.82 66.62 104.49 67.05 103.15 Z" />
<path fill="#ed1b24" opacity="1.00" d=" M 95.17 113.14 C 97.43 110.58 99.63 107.96 101.80 105.32 C 107.89 106.90 114.02 108.30 120.13 109.79 C 116.47 112.80 112.94 115.98 109.27 118.99 C 104.62 116.92 99.87 115.09 95.17 113.14 Z" />
<path fill="#ed1b24" opacity="1.00" d=" M 74.18 106.06 C 76.78 106.98 79.34 107.99 81.92 108.98 C 80.84 110.77 79.75 112.55 78.68 114.35 C 76.41 113.16 74.18 111.90 71.99 110.56 C 72.73 109.06 73.46 107.56 74.18 106.06 Z" />
<path fill="#ed1b24" opacity="1.00" d=" M 83.17 109.57 C 86.36 110.88 89.56 112.17 92.74 113.52 C 91.03 115.52 89.32 117.53 87.58 119.51 C 84.95 117.98 82.32 116.48 79.67 115.00 C 80.85 113.20 82.01 111.38 83.17 109.57 Z" />
<path fill="#ed1b24" opacity="1.00" d=" M 89.13 120.28 C 90.93 118.24 92.71 116.18 94.51 114.14 C 99.11 116.11 103.76 117.96 108.38 119.86 C 105.72 122.17 103.03 124.46 100.30 126.69 C 96.63 124.47 92.84 122.44 89.13 120.28 Z" />
</g>
<g id="#fcfdfdff">
<path fill="#fcfdfd" opacity="1.00" d=" M 7.20 35.16 C 8.12 34.67 9.05 34.21 9.99 33.77 C 17.35 33.49 24.71 33.73 32.07 33.66 C 84.36 33.74 136.65 33.48 188.93 33.79 L 189.42 33.81 C 190.61 35.01 191.79 36.22 192.94 37.47 C 193.01 68.68 192.92 99.90 193.03 131.11 C 193.38 133.68 191.14 135.34 189.53 136.94 C 187.68 137.13 185.82 137.22 183.97 137.22 C 126.57 137.19 69.17 137.23 11.78 137.20 C 8.53 137.42 5.49 134.23 5.76 131.01 C 5.75 103.69 5.76 76.36 5.76 49.04 C 5.72 45.99 5.98 42.91 5.34 39.91 C 5.89 38.30 6.52 36.72 7.20 35.16 M 10.47 36.57 C 8.04 37.73 8.16 40.68 8.10 42.96 C 8.16 71.66 8.07 100.36 8.14 129.06 C 7.70 132.02 9.85 134.97 12.99 134.74 C 68.67 134.88 124.36 134.73 180.04 134.81 C 182.70 134.76 185.44 135.05 188.03 134.27 C 190.56 133.30 190.64 130.30 190.68 128.02 C 190.68 99.67 190.65 71.32 190.70 42.97 C 190.66 41.37 190.68 39.70 190.00 38.21 C 188.61 35.72 185.42 36.06 183.01 35.89 C 127.33 35.90 71.66 35.91 15.98 35.88 C 14.13 35.94 12.24 35.97 10.47 36.57 Z" />
<path fill="#fcfdfd" opacity="1.00" d=" M 170.62 45.52 C 172.03 45.23 173.46 44.95 174.88 44.66 C 174.70 49.68 174.36 54.69 174.20 59.70 C 172.72 60.05 171.24 60.38 169.76 60.71 C 170.24 55.66 170.41 50.58 170.62 45.52 Z" />
<path fill="#fcfdfd" opacity="1.00" d=" M 177.40 44.50 C 178.82 44.21 180.23 43.93 181.65 43.64 C 181.49 47.95 181.30 52.26 180.89 56.55 C 182.59 56.34 184.30 56.14 186.00 55.94 C 184.54 59.49 180.27 58.75 177.21 59.51 C 176.08 54.55 177.46 49.50 177.40 44.50 Z" />
<path fill="#fcfdfd" opacity="1.00" d=" M 156.68 47.49 C 158.06 47.20 159.44 46.91 160.82 46.61 C 160.62 51.23 160.65 55.87 160.11 60.46 C 159.99 61.59 158.74 61.98 157.81 62.21 C 154.16 62.96 150.45 63.48 146.72 63.59 C 146.85 59.63 146.81 55.60 147.70 51.72 C 150.47 50.58 153.50 50.44 156.44 50.04 C 156.50 49.40 156.62 48.13 156.68 47.49 M 151.10 60.83 C 152.66 60.67 154.21 60.51 155.77 60.35 C 156.07 57.70 156.30 55.04 156.49 52.38 C 154.84 52.55 153.20 52.73 151.55 52.90 C 151.36 55.54 151.23 58.18 151.10 60.83 Z" />
<path fill="#fcfdfd" opacity="1.00" d=" M 120.35 52.71 C 121.74 52.53 123.13 52.36 124.52 52.19 C 124.49 52.83 124.43 54.11 124.40 54.75 C 125.75 54.55 127.11 54.35 128.46 54.15 C 128.45 54.72 128.44 55.86 128.43 56.43 C 127.07 56.65 125.70 56.87 124.34 57.10 C 124.15 59.67 123.92 62.25 123.69 64.82 C 125.47 64.70 127.25 64.59 129.04 64.54 C 127.07 67.88 122.89 67.32 119.60 67.72 C 119.51 62.70 119.87 57.70 120.35 52.71 Z" />
<path fill="#fcfdfd" opacity="1.00" d=" M 134.13 53.39 C 137.78 52.55 141.55 52.05 145.30 52.31 C 144.98 55.99 144.97 59.71 144.35 63.36 C 140.63 65.87 135.60 65.28 131.29 65.86 C 131.31 63.76 131.17 61.63 131.66 59.57 C 134.28 56.72 141.12 59.82 141.08 54.65 C 137.75 55.15 134.42 55.65 131.06 55.81 C 131.98 54.88 132.70 53.55 134.13 53.39 M 135.54 60.55 C 135.54 61.49 135.53 62.44 135.53 63.38 C 137.18 63.07 138.83 62.76 140.48 62.46 C 140.49 61.52 140.49 60.59 140.50 59.65 C 138.85 59.96 137.20 60.26 135.54 60.55 Z" />
<path fill="#fcfdfd" opacity="1.00" d=" M 97.37 56.21 C 98.79 55.95 100.22 55.70 101.64 55.45 C 101.39 60.50 101.14 65.55 100.74 70.59 C 99.31 70.88 97.89 71.18 96.47 71.47 C 96.70 66.38 97.18 61.30 97.37 56.21 Z" />
<path fill="#fcfdfd" opacity="1.00" d=" M 104.71 57.84 C 109.19 56.94 113.74 56.36 118.25 55.63 C 117.97 56.25 117.41 57.50 117.12 58.13 C 114.28 58.54 111.45 58.99 108.62 59.46 C 108.60 60.10 108.57 61.37 108.55 62.01 C 111.52 61.68 114.49 61.32 117.47 61.11 C 117.23 63.44 118.35 66.61 116.16 68.23 C 112.02 69.39 107.67 69.57 103.44 70.31 C 103.82 69.68 104.56 68.43 104.93 67.80 C 107.70 67.41 110.47 66.98 113.23 66.51 C 113.28 65.89 113.37 64.65 113.42 64.03 C 110.38 64.28 107.35 64.65 104.31 64.81 C 104.32 62.48 104.45 60.15 104.71 57.84 Z" />
<path fill="#fcfdfd" opacity="1.00" d=" M 81.68 61.54 C 85.90 60.27 90.29 59.47 94.69 59.41 C 95.14 63.38 94.66 67.38 94.30 71.35 C 90.05 72.38 85.71 73.01 81.36 73.49 C 81.12 69.50 81.39 65.51 81.68 61.54 M 85.78 62.72 C 85.66 65.36 85.52 68.01 85.37 70.65 C 87.01 70.44 88.65 70.24 90.28 70.04 C 90.43 67.40 90.56 64.75 90.70 62.10 C 89.06 62.31 87.42 62.51 85.78 62.72 Z" />
<path fill="#fcfdfd" opacity="1.00" d=" M 74.31 65.48 C 74.41 63.57 74.51 61.66 74.62 59.74 C 75.67 59.62 77.78 59.37 78.83 59.24 C 78.61 64.28 78.34 69.31 78.10 74.35 C 76.62 74.54 75.13 74.72 73.64 74.91 C 73.82 72.61 74.03 70.31 74.25 68.02 C 72.60 68.19 70.96 68.37 69.33 68.55 C 69.15 70.93 68.95 73.30 68.78 75.67 C 67.36 75.95 65.95 76.22 64.54 76.49 C 64.71 71.43 65.24 66.38 65.41 61.32 C 66.83 61.03 68.25 60.74 69.67 60.46 C 69.60 62.43 69.52 64.40 69.44 66.37 C 71.06 66.07 72.69 65.78 74.31 65.48 Z" />
<path fill="#fcfdfd" opacity="1.00" d=" M 33.21 61.07 C 33.45 61.07 33.94 61.07 34.19 61.08 C 34.41 61.81 34.86 63.29 35.08 64.02 C 35.62 62.92 36.68 60.72 37.22 59.62 C 37.34 61.63 37.40 63.66 37.46 65.68 C 36.05 64.79 34.58 63.98 33.08 63.26 C 33.11 62.71 33.18 61.62 33.21 61.07 Z" />
<path fill="#fcfdfd" opacity="1.00" d=" M 38.88 65.02 C 37.51 64.41 38.49 60.68 40.00 60.65 C 40.30 62.13 39.71 63.81 38.88 65.02 Z" />
<path fill="#fcfdfd" opacity="1.00" d=" M 40.99 64.91 C 40.05 63.70 40.71 60.74 42.46 60.81 C 43.38 61.99 42.78 65.10 40.99 64.91 Z" />
<path fill="#fcfdfd" opacity="1.00" d=" M 31.00 61.90 C 32.68 62.53 32.49 66.44 30.81 66.78 C 30.50 65.25 30.17 63.30 31.00 61.90 Z" />
<path fill="#fcfdfd" opacity="1.00" d=" M 28.18 63.45 C 31.55 63.57 26.77 66.49 28.18 63.45 Z" />
<path fill="#fcfdfd" opacity="1.00" d=" M 24.94 63.25 C 27.73 64.17 27.89 66.98 27.36 69.40 C 26.42 67.40 25.64 65.34 24.94 63.25 Z" />
<path fill="#fcfdfd" opacity="1.00" d=" M 61.47 82.50 C 99.91 76.48 138.34 70.36 176.79 64.36 C 150.91 86.27 125.07 108.24 99.11 130.06 C 87.41 123.04 75.73 115.99 64.04 108.95 C 61.41 107.30 58.34 106.09 56.54 103.43 C 57.41 103.39 59.15 103.31 60.03 103.27 C 60.15 100.83 60.79 98.49 61.95 96.35 C 61.76 96.02 61.38 95.36 61.20 95.02 C 62.31 93.84 63.25 92.52 64.01 91.09 C 63.40 90.72 62.17 89.98 61.56 89.61 C 62.28 89.41 63.74 89.02 64.46 88.83 C 64.99 87.11 65.52 85.40 66.04 83.68 C 64.53 83.90 63.02 84.11 61.52 84.33 C 61.50 83.87 61.48 82.95 61.47 82.50 M 126.01 78.04 C 124.40 78.07 123.52 79.51 122.56 80.55 C 119.20 84.62 115.84 88.68 112.40 92.68 C 120.87 93.36 129.33 93.98 137.80 94.60 C 145.35 87.84 153.19 81.40 160.75 74.65 C 149.19 76.00 137.58 76.88 126.01 78.04 M 101.69 80.42 C 99.44 84.13 97.06 87.75 94.76 91.43 C 99.94 91.72 105.09 92.20 110.26 92.59 C 114.23 87.87 118.16 83.12 122.19 78.45 C 115.35 79.10 108.50 79.61 101.69 80.42 M 86.55 81.72 C 85.03 84.60 83.58 87.52 82.09 90.42 C 85.78 90.68 89.47 90.98 93.15 91.37 C 95.52 87.77 97.86 84.15 100.16 80.50 C 95.62 80.90 91.10 81.47 86.55 81.72 M 75.65 82.88 C 73.94 84.76 73.53 87.45 72.53 89.73 C 75.36 89.95 78.20 90.20 81.03 90.41 C 82.44 87.62 83.82 84.81 85.10 81.96 C 81.96 82.30 78.78 82.41 75.65 82.88 M 66.99 83.68 C 66.50 85.54 65.95 87.39 65.40 89.23 C 67.40 89.38 69.41 89.54 71.41 89.70 C 72.30 87.50 73.16 85.30 73.99 83.08 C 71.66 83.25 69.32 83.44 66.99 83.68 M 64.80 90.64 C 64.47 91.98 64.14 93.32 63.81 94.66 C 65.57 95.07 67.34 95.48 69.11 95.89 C 69.67 94.25 70.24 92.62 70.79 90.98 C 68.79 90.87 66.79 90.76 64.80 90.64 M 71.95 91.19 C 71.30 92.83 70.66 94.47 70.02 96.11 C 72.43 96.69 74.84 97.28 77.24 97.88 C 78.25 95.86 79.25 93.83 80.25 91.81 C 77.48 91.58 74.71 91.39 71.95 91.19 M 81.10 92.20 C 80.20 94.20 79.23 96.16 78.26 98.12 C 81.32 98.82 84.38 99.55 87.40 100.40 C 89.11 97.88 90.74 95.31 92.27 92.68 C 88.55 92.42 84.83 92.12 81.10 92.20 M 88.87 100.55 C 92.89 101.66 96.96 102.58 101.01 103.59 C 103.69 100.36 106.43 97.19 109.05 93.92 C 104.00 93.55 98.94 93.30 93.91 92.80 C 92.22 95.38 90.55 97.97 88.87 100.55 M 102.96 104.07 C 109.11 105.54 115.28 106.93 121.38 108.55 C 126.36 104.44 131.22 100.18 136.09 95.95 C 127.76 95.43 119.45 94.62 111.12 94.18 C 108.43 97.50 105.61 100.72 102.96 104.07 M 62.81 96.17 C 62.59 97.36 62.37 98.55 62.15 99.75 C 63.73 100.35 65.31 100.96 66.89 101.56 C 67.41 100.13 67.95 98.70 68.47 97.28 C 66.59 96.88 64.70 96.51 62.81 96.17 M 67.65 101.97 C 69.75 102.80 71.84 103.65 73.94 104.49 C 74.80 102.77 75.69 101.06 76.57 99.35 C 74.23 98.75 71.89 98.18 69.56 97.57 C 68.92 99.03 68.29 100.50 67.65 101.97 M 74.91 104.96 C 77.39 105.93 79.83 107.02 82.35 107.88 C 84.09 106.06 85.30 103.84 86.66 101.74 C 83.63 101.01 80.59 100.28 77.56 99.52 C 76.66 101.32 75.78 103.14 74.91 104.96 M 60.38 104.16 C 61.92 105.00 63.45 105.83 65.00 106.65 C 65.41 105.34 65.83 104.03 66.25 102.73 C 64.74 102.09 63.23 101.45 61.73 100.81 C 61.28 101.92 60.83 103.04 60.38 104.16 M 88.01 102.05 C 86.62 104.19 85.23 106.32 83.83 108.46 C 87.02 109.83 90.24 111.14 93.42 112.55 C 95.63 110.05 97.74 107.47 99.89 104.92 C 95.93 103.96 91.97 103.01 88.01 102.05 M 67.05 103.15 C 66.62 104.49 66.19 105.82 65.74 107.16 C 67.52 108.17 69.30 109.16 71.08 110.16 C 71.83 108.62 72.58 107.09 73.33 105.56 C 71.25 104.73 69.16 103.91 67.05 103.15 M 95.17 113.14 C 99.87 115.09 104.62 116.92 109.27 118.99 C 112.94 115.98 116.47 112.80 120.13 109.79 C 114.02 108.30 107.89 106.90 101.80 105.32 C 99.63 107.96 97.43 110.58 95.17 113.14 M 74.18 106.06 C 73.46 107.56 72.73 109.06 71.99 110.56 C 74.18 111.90 76.41 113.16 78.68 114.35 C 79.75 112.55 80.84 110.77 81.92 108.98 C 79.34 107.99 76.78 106.98 74.18 106.06 M 83.17 109.57 C 82.01 111.38 80.85 113.20 79.67 115.00 C 82.32 116.48 84.95 117.98 87.58 119.51 C 89.32 117.53 91.03 115.52 92.74 113.52 C 89.56 112.17 86.36 110.88 83.17 109.57 M 89.13 120.28 C 92.84 122.44 96.63 124.47 100.30 126.69 C 103.03 124.46 105.72 122.17 108.38 119.86 C 103.76 117.96 99.11 116.11 94.51 114.14 C 92.71 116.18 90.93 118.24 89.13 120.28 Z" />
<path fill="#fcfdfd" opacity="1.00" d=" M 18.08 70.19 C 19.32 68.83 20.60 67.51 21.91 66.22 C 22.60 67.99 23.26 69.78 23.91 71.57 C 23.60 71.50 23.00 71.37 22.70 71.30 C 21.85 72.60 20.97 73.87 20.11 75.16 C 19.35 74.24 18.59 73.32 17.84 72.40 C 17.44 72.32 16.64 72.15 16.24 72.07 C 16.66 71.62 17.50 70.72 17.91 70.28 C 18.49 71.10 19.63 72.75 20.20 73.57 C 20.72 71.64 21.36 69.76 21.83 67.82 C 20.89 68.41 19.02 69.60 18.08 70.19 Z" />
<path fill="#fcfdfd" opacity="1.00" d=" M 18.70 88.15 C 19.42 79.45 25.42 71.40 33.96 69.07 C 36.34 67.88 38.67 69.46 40.82 70.38 C 31.44 73.17 23.76 79.89 18.70 88.15 Z" />
<path fill="#fcfdfd" opacity="1.00" d=" M 39.81 67.95 C 51.26 68.28 58.58 80.51 56.45 91.09 C 54.42 89.86 52.43 88.57 50.49 87.21 C 50.09 83.58 49.84 79.81 48.22 76.48 C 46.25 72.91 42.93 70.44 39.81 67.95 Z" />
<path fill="#fcfdfd" opacity="1.00" d=" M 19.84 89.81 C 24.12 80.74 32.45 73.81 42.05 70.99 C 43.74 72.58 45.37 74.23 46.93 75.95 C 35.92 80.46 27.29 89.22 21.28 99.32 C 20.44 96.28 18.25 92.96 19.84 89.81 Z" />
<path fill="#fcfdfd" opacity="1.00" d=" M 14.54 74.76 C 15.63 75.78 16.70 76.81 17.75 77.88 C 16.59 77.57 15.43 77.26 14.27 76.94 C 13.69 77.80 13.09 78.65 12.49 79.49 C 13.13 77.90 13.83 76.33 14.54 74.76 Z" />
<path fill="#fcfdfd" opacity="1.00" d=" M 14.67 79.34 C 15.43 79.35 16.95 79.39 17.71 79.40 C 17.08 80.80 16.51 82.22 16.01 83.66 C 14.71 83.06 13.41 82.48 12.09 81.91 C 12.16 81.50 12.31 80.67 12.38 80.26 C 13.62 80.94 14.87 81.62 16.11 82.31 C 15.75 81.56 15.03 80.08 14.67 79.34 Z" />
<path fill="#fcfdfd" opacity="1.00" d=" M 23.23 100.29 C 28.33 90.05 37.41 81.62 48.20 77.67 C 48.68 80.57 48.94 83.50 48.93 86.43 C 40.77 90.40 34.57 97.30 29.73 104.82 C 27.31 104.25 22.46 103.86 23.23 100.29 Z" />
<path fill="#fcfdfd" opacity="1.00" d=" M 56.14 76.62 C 59.25 81.45 60.84 87.20 60.14 92.94 C 57.39 92.10 58.45 89.18 58.21 87.06 C 58.20 83.47 56.95 80.06 56.14 76.62 Z" />
<path fill="#fcfdfd" opacity="1.00" d=" M 42.55 92.69 C 44.78 90.87 47.20 89.30 49.75 87.98 C 52.83 90.44 56.20 92.51 59.80 94.13 C 58.87 96.75 57.75 99.30 56.40 101.73 C 51.17 99.77 46.46 96.66 42.55 92.69 Z" />
<path fill="#fcfdfd" opacity="1.00" d=" M 35.97 99.09 C 37.83 97.07 39.74 95.11 41.72 93.22 C 45.60 97.34 50.37 100.51 55.70 102.44 C 53.70 104.45 51.79 106.80 49.02 107.77 C 43.75 106.64 39.50 102.99 35.97 99.09 Z" />
<path fill="#fcfdfd" opacity="1.00" d=" M 27.55 106.75 C 31.53 106.73 33.23 102.87 35.22 100.13 C 38.58 103.89 42.78 106.74 47.24 109.02 C 42.42 110.35 36.18 111.54 32.88 106.62 C 32.06 107.89 31.06 108.97 29.67 109.61 L 31.43 107.87 C 30.46 107.59 28.52 107.03 27.55 106.75 Z" />
</g>
</svg>
