<?xml version="1.0" encoding="UTF-8" ?>
<!DOCTYPE svg PUBLIC "-//W3C//DTD SVG 1.1//EN" "http://www.w3.org/Graphics/SVG/1.1/DTD/svg11.dtd">
<svg width="622pt" height="438pt" viewBox="0 0 622 438" version="1.1" xmlns="http://www.w3.org/2000/svg">
<g id="#a99431ff">
<path fill="#a99431" opacity="1.00" d=" M 295.76 56.78 C 300.50 52.41 304.20 46.28 310.87 44.67 C 307.52 53.70 300.69 60.95 297.62 70.09 C 296.76 72.52 296.03 74.98 295.30 77.44 C 302.21 77.59 309.12 77.55 316.03 77.56 C 321.61 77.55 326.99 79.44 332.57 79.49 C 345.76 79.60 358.71 82.56 371.36 86.06 C 380.34 88.57 389.52 90.65 398.04 94.56 C 409.34 99.54 420.82 104.59 430.61 112.26 C 442.39 120.65 454.64 129.51 462.15 142.16 C 458.48 140.60 455.19 138.34 452.11 135.84 C 442.05 127.71 430.40 121.82 418.60 116.66 C 411.68 113.89 404.85 110.82 397.64 108.89 C 386.39 106.24 375.30 102.95 363.96 100.69 C 355.02 99.64 346.12 98.21 337.25 96.68 C 331.53 95.91 325.75 95.57 320.03 94.75 C 312.36 94.25 304.66 94.73 296.99 94.16 C 292.03 93.45 286.99 93.63 282.04 92.86 C 277.65 92.21 272.95 93.40 268.84 91.27 C 276.40 78.76 285.24 66.97 295.76 56.78 Z" />
<path fill="#a99431" opacity="1.00" d=" M 211.19 69.13 C 214.29 64.88 217.05 60.33 220.78 56.58 C 218.98 67.66 214.10 77.96 211.47 88.84 C 207.92 103.81 205.52 118.99 202.80 134.11 C 200.80 151.35 201.73 168.75 201.73 186.07 C 202.63 196.44 204.39 206.73 206.45 216.92 C 207.80 222.26 209.18 227.60 210.20 233.01 C 211.72 240.77 215.82 247.76 217.08 255.58 C 210.21 255.84 203.34 255.50 196.48 255.75 C 190.96 243.49 187.82 230.33 185.08 217.22 C 183.43 209.19 181.28 201.18 181.49 192.92 C 180.13 182.34 180.18 171.59 181.45 161.00 C 181.42 147.66 184.92 134.68 188.36 121.91 C 191.29 110.20 195.62 98.86 201.04 88.08 C 204.69 81.90 207.02 75.02 211.19 69.13 Z" />
<path fill="#a99431" opacity="1.00" d=" M 118.69 155.95 C 121.40 148.09 123.18 139.78 127.69 132.68 C 127.89 140.87 125.51 148.83 124.91 156.97 C 123.07 178.42 125.40 200.06 130.23 220.99 C 133.46 232.48 136.50 244.01 139.89 255.45 C 133.98 256.43 127.71 257.03 121.94 255.09 C 118.91 243.86 116.73 232.41 114.86 220.93 C 113.20 205.40 112.96 189.63 114.90 174.11 C 116.69 168.17 117.28 161.97 118.69 155.95 Z" />
<path fill="#a99431" opacity="1.00" d=" M 253.94 139.88 C 255.77 138.08 258.45 137.53 260.94 137.53 C 274.63 137.43 288.33 137.33 302.03 137.63 C 308.05 137.98 313.95 139.47 319.99 139.67 C 329.35 140.17 338.38 142.84 347.54 144.57 C 354.49 146.44 361.25 148.95 368.04 151.33 C 373.14 152.84 378.14 154.66 383.05 156.70 C 405.20 166.91 426.09 180.29 443.40 197.58 C 449.81 203.22 454.86 210.15 460.48 216.54 C 467.82 225.77 473.52 236.14 479.84 246.07 C 481.13 247.89 481.67 250.07 481.90 252.28 C 473.70 245.83 467.25 237.47 459.28 230.76 C 455.13 227.27 451.38 223.31 446.96 220.14 C 438.86 214.24 431.33 207.55 422.77 202.30 C 417.01 197.92 410.82 194.18 404.48 190.70 C 383.99 178.13 361.13 169.94 337.88 164.22 C 330.47 163.10 323.27 160.80 315.79 160.20 C 311.14 159.44 306.43 159.61 301.76 159.24 C 295.89 158.40 289.91 158.13 284.01 158.65 C 281.49 160.22 282.65 163.58 282.49 166.04 C 284.17 179.34 288.03 192.31 293.29 204.62 C 295.10 208.83 296.15 213.42 298.78 217.24 C 303.81 218.09 308.95 217.29 314.03 217.60 C 318.12 217.61 321.98 219.19 326.02 219.60 C 329.80 220.01 333.58 220.58 337.22 221.74 C 343.32 223.69 349.79 224.50 355.61 227.31 C 366.68 231.65 377.10 237.50 387.13 243.86 C 389.04 245.37 392.33 246.75 391.60 249.73 C 391.00 252.04 389.12 253.77 387.78 255.69 C 375.59 255.52 363.39 255.97 351.21 255.52 C 343.80 253.56 336.65 250.60 329.17 248.79 C 319.39 246.68 309.79 243.09 299.64 243.41 C 296.79 247.32 294.90 251.98 291.43 255.40 C 287.98 255.93 284.47 255.64 281.00 255.69 C 272.66 255.60 264.30 256.00 255.98 255.33 C 259.78 251.04 263.71 246.85 267.70 242.72 C 270.74 239.55 274.52 236.79 276.25 232.62 C 276.88 230.38 275.02 228.52 274.04 226.71 C 268.28 218.58 264.81 209.12 261.80 199.69 C 257.03 186.92 255.76 173.23 253.87 159.82 C 253.61 153.19 253.40 146.49 253.94 139.88 Z" />
<path fill="#a99431" opacity="1.00" d=" M 210.46 371.02 C 214.88 369.65 219.22 367.56 223.95 367.62 C 232.97 367.62 241.99 367.67 251.00 367.62 C 256.06 367.65 261.27 366.99 266.11 368.86 C 259.13 372.18 251.60 374.07 244.24 376.34 C 229.97 381.05 214.78 380.67 200.01 382.33 C 191.28 383.13 182.62 381.82 173.93 381.26 C 181.17 376.69 189.95 376.93 197.92 374.54 C 202.10 373.39 206.31 372.30 210.46 371.02 Z" />
<path fill="#a99431" opacity="1.00" d=" M 351.73 375.69 C 355.51 372.65 358.43 367.37 363.93 367.64 C 369.95 367.66 376.10 367.09 381.99 368.64 C 374.16 376.46 364.95 382.66 355.96 389.04 C 342.49 397.15 328.39 404.61 313.08 408.57 C 303.56 411.14 293.76 414.45 283.78 413.26 C 288.93 411.29 294.21 409.67 299.34 407.65 C 308.45 403.79 317.28 399.31 326.08 394.81 C 335.15 389.17 343.41 382.36 351.73 375.69 Z" />
</g>
<g id="#0220a8ff">
<path fill="#0220a8" opacity="1.00" d=" M 461.51 269.98 C 460.78 265.91 465.36 263.26 468.94 263.58 C 479.61 263.70 490.30 263.35 500.96 263.79 C 506.62 264.89 512.74 265.96 517.23 269.87 C 521.82 274.30 524.47 282.01 520.44 287.66 C 516.52 294.54 507.83 295.02 501.24 297.72 C 508.03 303.38 515.59 308.04 522.58 313.45 C 523.69 318.96 517.73 322.23 513.05 322.12 C 507.00 321.11 502.77 316.36 498.21 312.72 C 492.26 308.19 486.77 303.02 480.37 299.09 C 479.89 304.37 480.58 309.70 479.98 314.97 C 479.73 318.00 477.39 320.98 474.08 320.63 C 469.88 320.52 463.83 322.16 461.66 317.36 C 461.27 301.58 461.59 285.77 461.51 269.98 M 479.73 274.48 C 479.48 279.18 479.52 283.90 479.57 288.60 C 485.35 288.69 491.17 288.99 496.94 288.42 C 500.39 287.91 502.36 284.76 503.98 282.01 C 502.32 278.65 499.75 275.40 495.85 274.68 C 490.49 274.23 485.10 274.52 479.73 274.48 Z" />
<path fill="#0220a8" opacity="1.00" d=" M 34.29 268.94 C 34.12 265.55 37.84 263.25 40.95 263.50 C 45.14 263.03 50.74 263.18 52.13 268.11 C 52.73 274.24 52.10 280.43 52.49 286.58 C 64.84 286.55 77.19 286.52 89.54 286.61 C 91.56 280.43 89.81 273.81 90.64 267.47 C 92.94 262.79 98.66 263.23 103.04 263.58 C 105.33 263.54 106.74 265.62 108.43 266.83 C 108.47 282.92 108.45 299.00 108.44 315.08 C 108.64 317.29 107.46 319.60 105.21 320.18 C 100.64 322.41 93.30 322.53 90.80 317.27 C 89.92 311.24 90.90 305.08 90.32 299.02 C 90.01 298.67 89.39 297.97 89.08 297.61 C 76.87 297.51 64.64 297.49 52.42 297.61 C 52.29 303.43 52.42 309.24 52.36 315.06 C 52.59 317.36 50.93 319.43 48.90 320.32 C 44.89 321.15 40.76 320.65 36.71 320.54 C 35.48 318.92 33.89 317.28 34.24 315.06 C 34.28 299.69 34.18 284.31 34.29 268.94 Z" />
<path fill="#0220a8" opacity="1.00" d=" M 114.41 266.61 C 117.10 263.25 121.96 263.14 125.87 263.74 C 129.87 264.43 131.63 268.53 133.54 271.62 C 138.61 281.19 144.40 290.37 149.10 300.13 C 153.00 297.85 154.56 293.46 156.64 289.71 C 159.65 284.11 162.81 278.60 165.84 273.01 C 167.57 269.98 169.26 266.76 172.05 264.55 C 175.92 263.91 180.10 263.68 183.88 264.88 C 187.28 267.25 185.49 271.85 184.04 274.85 C 175.14 288.78 167.32 303.37 158.55 317.38 C 156.18 321.12 151.28 321.90 147.20 321.43 C 143.84 320.70 141.49 317.84 139.86 315.00 C 136.02 308.23 131.88 301.63 128.14 294.81 C 124.25 287.73 119.92 280.90 115.99 273.85 C 114.76 271.67 113.83 269.14 114.41 266.61 Z" />
<path fill="#0220a8" opacity="1.00" d=" M 191.59 266.89 C 193.47 265.37 195.22 263.15 197.92 263.49 C 201.39 263.59 205.85 262.50 208.13 265.91 C 209.96 267.40 209.55 269.85 209.62 271.94 C 209.53 286.27 209.65 300.60 209.58 314.93 C 209.77 317.09 208.29 318.76 207.24 320.47 C 203.17 320.66 199.03 321.16 194.99 320.37 C 192.75 319.70 191.28 317.42 191.54 315.11 C 191.54 299.04 191.51 282.96 191.59 266.89 Z" />
<path fill="#0220a8" opacity="1.00" d=" M 223.40 265.04 C 225.35 263.88 227.75 264.35 229.91 264.13 C 239.95 264.25 250.00 264.09 260.05 264.22 C 271.91 264.92 284.03 270.68 290.13 281.23 C 293.46 286.56 292.53 293.13 292.24 299.09 C 290.58 304.96 286.65 310.18 281.62 313.61 C 275.70 317.28 268.86 319.19 262.05 320.37 C 250.69 320.89 239.30 320.53 227.93 320.60 C 224.16 321.19 220.27 317.84 220.45 314.03 C 220.44 299.42 220.46 284.80 220.45 270.18 C 220.16 267.99 221.61 266.11 223.40 265.04 M 238.68 274.50 C 238.44 286.19 238.43 297.90 238.69 309.60 C 245.10 309.61 251.52 309.78 257.93 309.56 C 264.66 308.62 270.90 303.98 273.39 297.60 C 274.20 291.70 274.21 284.89 269.31 280.66 C 260.90 273.32 249.06 274.39 238.68 274.50 Z" />
<path fill="#0220a8" opacity="1.00" d=" M 326.28 263.91 C 332.79 263.04 339.42 263.38 345.98 263.37 C 357.37 263.19 368.58 268.41 376.14 276.88 C 383.96 285.81 383.60 300.72 375.07 309.06 C 366.13 319.21 351.85 322.00 338.95 322.40 C 328.33 321.43 317.09 319.39 308.60 312.44 C 302.73 307.75 298.36 300.68 298.40 293.01 C 298.02 286.24 301.01 279.56 305.70 274.76 C 311.18 269.06 318.70 265.78 326.28 263.91 M 330.57 275.02 C 327.05 276.30 323.49 278.05 321.15 281.08 C 318.59 284.16 317.55 288.12 316.92 291.99 C 317.78 296.76 318.66 302.07 322.63 305.33 C 331.51 312.77 344.76 312.93 354.68 307.49 C 359.58 304.31 362.67 298.68 363.43 292.97 C 363.16 287.62 360.90 281.92 356.38 278.75 C 349.18 273.19 339.06 272.27 330.57 275.02 Z" />
<path fill="#0220a8" opacity="1.00" d=" M 383.33 266.80 C 386.98 263.16 392.18 263.00 396.99 263.66 C 401.56 266.08 403.19 271.34 405.71 275.51 C 409.85 283.63 414.95 291.22 418.82 299.47 C 419.27 299.49 420.17 299.53 420.61 299.55 C 425.68 290.39 430.68 281.18 435.91 272.11 C 437.59 269.10 439.23 265.80 442.31 263.98 C 447.18 262.54 452.72 263.33 456.55 266.91 C 456.46 273.08 451.57 277.48 448.89 282.65 C 443.89 291.59 438.59 300.34 433.33 309.12 C 430.61 313.47 428.78 319.40 423.31 320.99 C 418.86 322.67 413.63 320.80 410.96 316.93 C 406.31 310.06 402.86 302.46 398.31 295.53 C 393.84 288.58 390.19 281.14 385.68 274.22 C 384.11 272.04 383.42 269.46 383.33 266.80 Z" />
<path fill="#0220a8" opacity="1.00" d=" M 532.08 264.92 C 534.74 263.25 537.99 263.62 540.99 263.56 C 550.68 263.64 560.37 263.52 570.06 263.62 C 573.06 263.48 577.24 265.39 576.58 269.00 C 577.18 272.16 573.73 274.17 571.03 274.41 C 563.03 274.60 555.04 274.38 547.04 274.50 C 546.36 278.47 546.28 282.59 547.21 286.54 C 554.16 286.60 561.12 286.42 568.07 286.59 C 570.89 287.09 574.77 287.88 575.71 291.00 C 576.52 294.40 573.03 296.35 570.32 297.24 C 562.45 298.32 554.36 296.56 546.55 298.21 C 546.58 302.21 546.56 306.20 546.67 310.20 C 554.78 310.23 562.88 310.03 570.99 310.26 C 574.57 310.17 577.60 312.80 578.73 316.08 C 577.10 317.80 575.83 320.76 573.05 320.51 C 560.34 320.72 547.62 320.68 534.91 320.55 C 530.99 320.76 528.32 316.67 528.55 313.09 C 528.60 299.71 528.54 286.32 528.58 272.93 C 528.76 270.05 529.29 266.46 532.08 264.92 Z" />
<path fill="#0220a8" opacity="1.00" d=" M 131.84 333.68 C 133.39 332.83 135.50 331.33 137.14 332.85 C 140.37 338.19 141.76 344.42 145.01 349.77 C 146.56 344.44 148.66 339.26 151.11 334.28 C 151.73 332.56 153.34 331.77 155.09 332.33 C 157.48 333.51 156.54 336.58 155.71 338.48 C 152.73 344.68 150.28 351.10 147.59 357.42 C 146.94 358.92 145.06 359.29 143.86 360.25 C 141.80 357.68 140.24 354.76 139.09 351.69 C 136.74 345.66 133.76 339.88 131.84 333.68 Z" />
<path fill="#0220a8" opacity="1.00" d=" M 169.35 332.26 C 175.91 330.04 183.50 333.98 186.20 340.19 C 186.87 343.09 186.68 346.10 186.60 349.05 C 186.77 353.18 183.37 356.38 180.15 358.43 C 174.01 361.19 165.78 360.03 161.65 354.31 C 158.65 350.92 159.52 346.12 159.59 341.97 C 160.56 337.22 164.74 333.50 169.35 332.26 M 170.14 337.77 C 164.66 340.48 163.60 348.81 168.30 352.70 C 170.14 354.94 173.37 354.85 175.93 354.16 C 179.32 353.03 181.02 349.25 181.48 345.99 C 180.87 342.70 179.43 338.84 175.99 337.60 C 174.06 337.28 172.01 337.17 170.14 337.77 Z" />
<path fill="#0220a8" opacity="1.00" d=" M 378.89 332.36 C 380.46 332.35 382.03 332.36 383.61 332.37 C 384.42 335.63 384.41 339.01 384.57 342.35 C 388.16 339.67 390.94 336.11 394.43 333.32 C 395.58 332.33 397.93 331.54 398.97 333.08 C 400.73 334.21 399.19 336.13 398.21 337.15 C 395.67 339.92 392.78 342.35 390.14 345.01 C 393.32 348.19 396.67 351.21 399.81 354.43 C 401.07 355.61 400.84 357.76 400.22 359.22 C 398.73 360.09 396.81 359.55 395.61 358.45 C 391.62 355.20 388.44 351.09 384.56 347.71 C 384.00 351.60 385.37 355.96 383.07 359.43 C 381.37 359.62 379.37 360.05 378.42 358.20 C 377.96 353.82 378.27 349.40 378.22 345.01 C 378.29 340.79 377.82 336.49 378.89 332.36 Z" />
<path fill="#0220a8" opacity="1.00" d=" M 426.27 332.35 C 427.38 332.19 428.47 332.33 429.52 332.78 C 430.19 338.44 429.44 344.16 429.94 349.83 C 431.06 354.59 437.43 355.96 441.04 353.05 C 444.18 347.12 441.47 340.10 442.89 333.80 C 443.51 331.78 445.92 332.42 447.51 332.48 C 449.06 334.28 448.41 336.78 448.56 338.96 C 448.34 343.58 448.95 348.27 448.16 352.85 C 444.20 360.73 432.27 362.22 426.47 355.62 C 422.23 350.34 423.92 343.17 423.70 336.95 C 424.03 335.28 423.86 332.16 426.27 332.35 Z" />
<path fill="#0220a8" opacity="1.00" d=" M 453.66 337.93 C 453.53 335.69 454.12 331.95 457.17 332.41 C 461.81 332.81 467.60 330.93 471.18 334.81 C 473.38 337.07 472.61 340.54 471.15 342.98 C 469.25 345.37 473.21 346.52 474.48 348.08 C 474.43 351.05 475.61 354.82 472.99 357.04 C 471.03 358.59 468.56 359.56 466.05 359.49 C 462.17 359.52 458.19 359.84 454.44 358.67 C 453.09 351.84 453.92 344.84 453.66 337.93 M 460.36 343.21 C 463.20 344.17 466.99 342.46 466.44 339.03 C 465.11 337.00 462.53 337.63 460.50 337.28 C 460.39 339.25 460.36 341.22 460.36 343.21 M 460.37 348.32 C 460.37 350.33 460.37 352.35 460.38 354.37 C 463.70 354.72 467.00 354.23 469.55 351.93 C 468.83 350.78 468.13 349.63 467.46 348.48 C 465.09 348.39 462.73 348.34 460.37 348.32 Z" />
<path fill="#0220a8" opacity="1.00" d=" M 192.46 334.91 C 192.33 333.11 194.56 332.40 196.00 332.82 C 196.39 333.03 197.17 333.45 197.55 333.66 C 198.00 340.34 197.26 347.06 198.00 353.73 L 198.05 354.33 C 201.61 354.48 205.66 353.45 208.58 356.08 C 204.21 360.30 197.84 358.42 192.42 358.60 C 192.36 350.71 192.05 342.80 192.46 334.91 Z" />
<path fill="#0220a8" opacity="1.00" d=" M 211.38 334.91 C 210.53 331.85 215.91 331.06 216.47 333.91 C 216.75 340.69 216.36 347.49 216.64 354.28 C 219.64 354.30 222.63 354.33 225.63 354.27 C 226.07 355.68 226.49 357.10 226.87 358.53 C 221.73 358.86 216.57 358.78 211.42 358.58 C 211.28 350.69 211.27 342.80 211.38 334.91 Z" />
<path fill="#0220a8" opacity="1.00" d=" M 230.93 332.95 C 234.58 332.14 238.37 332.13 242.08 332.45 C 243.56 332.51 245.45 333.13 245.17 334.98 C 244.99 335.28 244.62 335.88 244.44 336.19 C 241.51 337.04 238.51 337.63 235.59 338.52 C 235.71 339.21 235.96 340.58 236.09 341.27 C 236.19 341.84 236.40 342.97 236.51 343.53 C 239.43 343.52 242.36 343.53 245.29 343.45 C 245.15 344.54 244.98 345.64 244.77 346.73 C 241.96 348.37 238.50 347.72 235.42 348.48 C 235.57 350.49 235.89 352.49 236.24 354.48 C 238.52 354.57 240.83 354.24 243.10 354.71 C 244.57 354.77 245.20 355.52 244.97 356.95 C 244.85 357.36 244.62 358.17 244.50 358.58 C 239.82 358.95 235.12 358.75 230.43 358.57 C 230.55 350.04 229.38 341.37 230.93 332.95 Z" />
<path fill="#0220a8" opacity="1.00" d=" M 248.79 334.13 C 249.42 333.59 250.67 332.51 251.29 331.97 C 254.31 334.72 257.04 337.76 259.61 340.93 C 262.20 338.31 264.40 335.30 267.18 332.87 C 268.46 332.93 269.75 333.03 271.03 333.18 C 269.90 336.11 268.42 338.91 266.44 341.37 C 264.81 343.70 262.46 345.95 262.58 349.02 C 262.56 352.89 262.30 356.81 260.60 360.36 C 259.82 359.76 258.27 358.56 257.50 357.96 C 257.47 353.98 257.52 349.92 256.31 346.09 C 255.53 345.02 254.66 344.02 253.87 342.96 C 251.81 340.24 250.18 337.23 248.79 334.13 Z" />
<path fill="#0220a8" opacity="1.00" d=" M 275.98 332.60 C 281.08 332.57 287.09 331.04 291.39 334.58 C 293.91 337.64 292.43 341.94 290.56 344.96 C 295.27 346.27 297.42 352.38 293.98 356.09 C 289.78 361.66 282.01 358.77 276.11 359.54 C 275.32 358.15 274.27 356.78 274.49 355.09 C 274.58 348.08 274.24 341.05 274.69 334.06 C 275.01 333.70 275.66 332.97 275.98 332.60 M 280.71 337.71 C 280.52 339.19 280.38 340.67 280.28 342.16 C 280.99 342.59 282.42 343.44 283.13 343.87 C 284.72 342.47 287.40 341.47 286.75 338.88 C 285.41 336.73 282.76 337.46 280.71 337.71 M 280.43 348.40 C 280.44 350.15 280.43 351.90 280.43 353.66 C 283.17 354.57 286.07 354.54 288.77 353.50 C 288.67 351.90 288.64 350.31 288.39 348.73 C 285.77 348.16 283.08 348.37 280.43 348.40 Z" />
<path fill="#0220a8" opacity="1.00" d=" M 306.85 334.13 C 308.05 331.63 311.09 332.41 313.32 332.20 C 317.09 337.96 318.71 344.75 321.41 351.02 C 322.23 353.65 324.18 357.90 321.17 359.70 C 317.95 360.37 317.80 356.47 316.55 354.45 C 312.68 354.33 308.81 354.30 304.94 354.50 C 304.26 356.75 302.96 358.70 301.18 360.24 C 299.90 359.24 298.63 358.26 297.39 357.25 C 300.99 349.73 303.56 341.77 306.85 334.13 M 307.12 348.60 C 309.40 348.66 311.68 348.67 313.97 348.63 C 313.70 345.30 312.41 342.22 311.00 339.24 C 308.92 341.99 307.77 345.24 307.12 348.60 Z" />
<path fill="#0220a8" opacity="1.00" d=" M 327.44 352.04 C 327.59 345.45 327.29 338.85 327.67 332.26 C 329.13 332.29 330.59 332.37 332.04 332.51 C 333.86 334.58 333.33 337.42 333.43 339.94 C 333.39 344.46 333.41 348.98 333.38 353.51 C 336.38 353.96 339.41 354.16 342.42 354.61 C 343.09 355.67 343.65 356.80 344.21 357.94 C 339.41 360.71 333.71 359.10 328.47 359.46 C 327.57 357.09 327.34 354.56 327.44 352.04 Z" />
<path fill="#0220a8" opacity="1.00" d=" M 347.41 332.26 C 348.44 332.29 350.50 332.35 351.53 332.38 C 353.45 339.51 351.92 346.99 352.49 354.28 C 355.56 354.30 358.63 354.32 361.71 354.40 C 361.68 356.09 361.63 357.78 361.59 359.48 C 356.54 359.14 351.18 360.50 346.43 358.29 C 346.47 351.52 346.44 344.74 346.41 337.97 C 346.33 336.01 346.75 334.09 347.41 332.26 Z" />
<path fill="#0220a8" opacity="1.00" d=" M 405.74 333.08 C 407.26 333.06 408.78 333.05 410.31 333.04 C 410.71 340.15 410.47 347.27 410.67 354.38 C 413.20 354.38 415.74 354.39 418.28 354.35 C 418.71 354.34 419.56 354.33 419.99 354.33 C 420.59 355.71 421.19 357.10 421.78 358.49 C 421.44 358.50 420.77 358.54 420.43 358.55 C 415.54 358.77 410.64 358.76 405.76 358.39 C 405.27 349.96 405.51 341.51 405.74 333.08 Z" />
</g>
</svg>
