<?xml version="1.0" encoding="UTF-8"?>
<svg width="256px" height="256px" viewBox="0 0 256 256" version="1.1" xmlns="http://www.w3.org/2000/svg" xmlns:xlink="http://www.w3.org/1999/xlink">
    <!-- Generator: Sketch 50.2 (55047) - http://www.bohemiancoding.com/sketch -->
    <title>logo/hvidovre</title>
    <desc>Created with Sketch.</desc>
    <defs></defs>
    <g id="logo/hvidovre" stroke="none" stroke-width="1" fill="none" fill-rule="evenodd">
        <g id="hvidovre" transform="translate(0.000000, 41.000000)" fill-rule="nonzero">
            <g id="#a99431ff" transform="translate(37.108257, 0.000000)" fill="#A99431">
                <path d="M85.8468991,6.01005405 C88.0733945,3.95497297 89.8113761,1.07221622 92.9444404,0.315081081 C91.3708624,4.56162162 88.1626422,7.97108108 86.7205872,12.2693514 C86.3166239,13.4121081 85.9737248,14.568973 85.6308257,15.7258378 C88.8766239,15.7963784 92.122422,15.7775676 95.3682202,15.7822703 C97.9892844,15.7775676 100.516404,16.6663784 103.137468,16.6898919 C109.333138,16.7416216 115.416073,18.1336216 121.358092,19.7795676 C125.57622,20.9599459 129.888294,21.9381081 133.890349,23.7768649 C139.198239,26.1188108 144.590679,28.4936757 149.189284,32.1006486 C154.722642,36.0462162 160.476771,40.2128108 164.004404,46.1617297 C162.280514,45.4281081 160.735119,44.3652973 159.288367,43.1896216 C154.562936,39.3663243 149.090642,36.5964324 143.54789,34.1698378 C140.297394,32.8671892 137.089174,31.4234595 133.702459,30.5158378 C128.418055,29.2696216 123.208807,27.7224324 117.882128,26.6596216 C113.682789,26.1658378 109.502239,25.4933514 105.33578,24.7738378 C102.648954,24.4117297 99.933945,24.2518378 97.2471193,23.8662162 C93.6443303,23.6310811 90.0274495,23.8568108 86.4246606,23.5887568 C84.0948257,23.2548649 81.7274128,23.3395135 79.4022752,22.9774054 C77.3401835,22.6717297 75.1324771,23.2313514 73.2019083,22.2296757 C76.7530275,16.3465946 80.9053945,10.8021081 85.8468991,6.01005405 Z" id="Shape"></path>
                <path d="M46.1222752,11.8178919 C47.578422,9.81924324 48.8748624,7.67951351 50.6269358,5.916 C49.7814312,11.1265946 47.4891743,15.9703784 46.2537982,21.0869189 C44.5862752,28.1268649 43.4589358,35.2655676 42.1812844,42.3760541 C41.2418349,50.4835135 41.6786789,58.6662162 41.6786789,66.8112973 C42.1014312,71.688 42.9281468,76.5270811 43.8957798,81.3191351 C44.5299083,83.8303784 45.1781284,86.3416216 45.6572477,88.8857838 C46.3712294,92.5350811 48.2971009,95.8222703 48.8889541,99.4997838 C45.661945,99.6220541 42.4349358,99.4621622 39.2126239,99.5797297 C36.6197431,93.8142162 35.1448073,87.6254595 33.8577615,81.4602162 C33.0827156,77.6839459 32.0728073,73.9170811 32.1714495,70.0326486 C31.5326239,65.0571892 31.5561101,60.0017838 32.1526606,55.0216216 C32.1385688,48.7482162 33.7826055,42.6441081 35.3984587,36.6387568 C36.7747523,31.1318919 38.8086606,25.799027 41.3545688,20.7295135 C43.0690642,17.8232432 44.1635229,14.5877838 46.1222752,11.8178919 Z" id="Shape"></path>
                <path d="M2.67273394,52.6467568 C3.94568807,48.9504324 4.78179817,45.0424865 6.90025688,41.7035676 C6.99420183,45.5550811 5.87625688,49.2984324 5.59442202,53.1264324 C4.73012844,63.2137297 5.82458716,73.3903784 8.0933578,83.2331351 C9.61056881,88.6365405 11.0385321,94.0587568 12.6308991,99.4386486 C9.85482569,99.8995135 6.90965138,100.181676 4.19933945,99.2693514 C2.77607339,93.9882162 1.75207339,88.6036216 0.873688073,83.2049189 C0.0939449541,75.9016216 -0.0187889908,68.4854595 0.892477064,61.1868649 C1.7332844,58.3934595 2.01042202,55.4777838 2.67273394,52.6467568 Z" id="Shape"></path>
                <path d="M66.2030092,45.0895135 C67.0626055,44.243027 68.3214679,43.9843784 69.4910826,43.9843784 C75.9216147,43.9373514 82.356844,43.8903243 88.7920734,44.0314054 C91.6198165,44.196 94.3911927,44.8967027 97.2283303,44.9907568 C101.624954,45.2258919 105.866569,46.4815135 110.169248,47.2950811 C113.433835,48.1744865 116.609174,49.3548649 119.798606,50.4741081 C122.194202,51.1842162 124.542826,52.0401081 126.849174,52.9994595 C137.253578,57.8009189 147.066128,64.0931351 155.197064,72.2241081 C158.208,74.8764324 160.58011,78.1354054 163.219963,81.1404324 C166.667743,85.481027 169.345174,90.3577297 172.313835,95.0275135 C172.91978,95.8834054 173.173431,96.9085946 173.281468,97.9478919 C169.429725,94.9146486 166.4,90.9831892 162.656294,87.8276757 C160.706936,86.1864324 158.945468,84.3241622 156.869284,82.8334054 C153.064514,80.0588108 149.527486,76.9127027 145.506642,74.4437838 C142.801028,72.384 139.893431,70.6251892 136.915376,68.9886486 C127.290716,63.0773514 116.552807,59.2258378 105.631706,56.5358919 C102.151046,56.0091892 98.7690275,54.9275676 95.2554862,54.6454054 C93.0712661,54.288 90.8588624,54.3679459 88.6652477,54.1939459 C85.9079633,53.7989189 83.0990092,53.6719459 80.327633,53.9164865 C79.1439266,54.6548108 79.6888073,56.2349189 79.6136514,57.3917838 C80.402789,63.6463784 82.2159266,69.7457838 84.6866789,75.5348108 C85.5368807,77.5146486 86.0300917,79.6731892 87.2654679,81.4696216 C89.6281835,81.8693514 92.0425688,81.4931351 94.4287706,81.6389189 C96.349945,81.6436216 98.1630826,82.3866486 100.060771,82.5794595 C101.83633,82.7722703 103.61189,83.0403243 105.321688,83.5858378 C108.187009,84.5028649 111.226128,84.8837838 113.959927,86.2052432 C119.15978,88.2462162 124.054312,90.9972973 128.765651,93.9882162 C129.662826,94.6983243 131.20822,95.3472973 130.865321,96.7487027 C130.583486,97.835027 129.700404,98.6485946 129.070972,99.5515135 C123.345028,99.4715676 117.614385,99.6831892 111.893138,99.4715676 C108.412477,98.5498378 105.053945,97.1578378 101.540404,96.3066486 C96.9464954,95.3143784 92.4371376,93.6261081 87.6694312,93.7765946 C86.3307156,95.6153514 85.4429358,97.8068108 83.8129908,99.4151351 C82.1924404,99.6643784 80.5437064,99.528 78.9137615,99.5515135 C74.9962569,99.5091892 71.0693578,99.6972973 67.1612477,99.3822162 C68.9462018,97.3647568 70.7922202,95.3943243 72.666422,93.4521081 C74.0943853,91.9613514 75.869945,90.6634054 76.6825688,88.7023784 C76.9784954,87.648973 76.1048073,86.7742703 75.6444771,85.9230811 C72.9388624,82.0997838 71.3089174,77.651027 69.8950459,73.2163784 C67.6544587,67.211027 67.0579083,60.773027 66.1701284,54.4667027 C66.048,51.3488108 65.9493578,48.198 66.2030092,45.0895135 Z" id="Shape"></path>
                <path d="M45.7793761,153.787784 C47.8555596,153.143514 49.8941651,152.160649 52.1159633,152.188865 C56.3528807,152.188865 60.5897982,152.212378 64.8220183,152.188865 C67.1988257,152.202973 69.6460917,151.892595 71.9195596,152.772 C68.6408807,154.333297 65.1038532,155.222108 61.6466789,156.289622 C54.9437064,158.504595 47.8085872,158.325892 40.8707523,159.106541 C36.770055,159.482757 32.7022385,158.866703 28.6203303,158.603351 C32.0211376,156.454216 36.1453211,156.567081 39.8890275,155.443135 C41.8524771,154.902324 43.8300183,154.38973 45.7793761,153.787784 Z" id="Shape"></path>
                <path d="M112.137394,155.983946 C113.912954,154.554324 115.28455,152.071297 117.868037,152.19827 C120.69578,152.207676 123.584587,151.939622 126.351266,152.668541 C122.673321,156.346054 118.347156,159.26173 114.12433,162.262054 C107.797138,166.075946 101.174018,169.584162 93.9825321,171.446432 C89.5107523,172.655027 84.9074495,174.211622 80.2195963,173.652 C82.6386789,172.725568 85.1188257,171.96373 87.5285138,171.013784 C91.8077064,169.198541 95.9553761,167.09173 100.088954,164.975514 C104.349358,162.323189 108.229284,159.120649 112.137394,155.983946 Z" id="Shape"></path>
            </g>
            <g id="#0220a8ff" transform="translate(0.000000, 102.989189)" fill="#0220A8">
                <path d="M200.812037,3.28248649 C200.469138,1.36848649 202.620477,0.12227027 204.302092,0.272756757 C209.314055,0.329189189 214.335413,0.164594595 219.342679,0.371513514 C222.001321,0.888810811 224.876037,1.392 226.985101,3.23075676 C229.141138,5.31405405 230.385908,8.93983784 228.492917,11.5968649 C226.651596,14.8323243 222.569688,15.0580541 219.474202,16.3277838 C222.663633,18.9895135 226.214752,21.180973 229.498128,23.7251351 C230.019523,26.3163243 227.219963,27.8541081 225.021651,27.8023784 C222.179817,27.3274054 220.192881,25.0936216 218.050936,23.3818378 C215.256073,21.2515135 212.677284,18.8202162 209.671046,16.9720541 C209.445578,19.4550811 209.769688,21.9616216 209.487853,24.4399459 C209.370422,25.8648649 208.271266,27.2662703 206.716477,27.1016757 C204.743633,27.0499459 201.901798,27.8211892 200.882495,25.5638919 C200.699303,18.143027 200.849615,10.7080541 200.812037,3.28248649 Z M209.370422,5.3987027 C209.252991,7.60897297 209.27178,9.82864865 209.295266,12.0389189 C212.010275,12.0812432 214.744073,12.2223243 217.454385,11.9542703 C219.074936,11.7144324 220.000294,10.2330811 220.761248,8.93983784 C219.981505,7.35972973 218.774312,5.83135135 216.942385,5.49275676 C214.424661,5.28113514 211.892844,5.41751351 209.370422,5.3987027 Z" id="Shape"></path>
                <path d="M0.136220183,2.79340541 C0.0563669725,1.19918919 1.80374312,0.117567568 3.26458716,0.235135135 C5.23273394,0.0141081081 7.86319266,0.0846486486 8.51611009,2.40308108 C8.79794495,5.28583784 8.50201835,8.19681081 8.68521101,11.088973 C14.4863119,11.0748649 20.2874128,11.0607568 26.0885138,11.1030811 C27.0373578,8.19681081 26.2153394,5.08362162 26.605211,2.10210811 C27.685578,-0.0987567568 30.3724037,0.108162162 32.4297982,0.272756757 C33.5054679,0.253945946 34.1677798,1.23210811 34.9616147,1.80113514 C34.9804037,9.36778378 34.9710092,16.9297297 34.9663119,24.4916757 C35.0602569,25.530973 34.5059817,26.6172973 33.4491009,26.8900541 C31.3024587,27.9387568 27.8546789,27.9951892 26.680367,25.5215676 C26.2670092,22.6858378 26.7273394,19.788973 26.4548991,16.9391351 C26.3092844,16.7745405 26.018055,16.4453514 25.8724404,16.2760541 C20.1371009,16.229027 14.392367,16.2196216 8.65233028,16.2760541 C8.59126606,19.013027 8.65233028,21.7452973 8.62414679,24.4822703 C8.73218349,25.5638919 7.95244037,26.5373514 6.99889908,26.9558919 C5.11530275,27.3462162 3.17533945,27.1110811 1.27295413,27.0593514 C0.695192661,26.2975135 -0.0516697248,25.5262703 0.112733945,24.4822703 C0.131522936,17.2542162 0.0845504587,10.0214595 0.136220183,2.79340541 Z" id="Shape"></path>
                <path d="M37.7705688,1.69767568 C39.0341284,0.117567568 41.3169908,0.0658378378 43.1536147,0.348 C45.0325138,0.672486486 45.8592294,2.60059459 46.7564037,4.05372973 C49.1379083,8.55421622 51.8576147,12.8712973 54.0653211,17.4611351 C55.8972477,16.3889189 56.6300183,14.3244324 57.6070459,12.5609189 C59.0209174,9.92740541 60.5052477,7.33621622 61.9285138,4.70740541 C62.7411376,3.28248649 63.5349725,1.76821622 64.8455046,0.728918919 C66.6633394,0.427945946 68.626789,0.319783784 70.4023486,0.884108108 C71.9994128,1.99864865 71.1586055,4.16189189 70.4775046,5.5727027 C66.2969541,12.1235676 62.6237064,18.9848108 58.5042202,25.5732973 C57.3909725,27.3321081 55.0893211,27.6989189 53.172844,27.4778919 C51.5945688,27.1345946 50.4907156,25.7896216 49.7250642,24.4540541 C47.9213211,21.2703243 45.9766606,18.1665405 44.2198899,14.9592973 C42.3926606,11.6297838 40.3587523,8.41783784 38.5127339,5.10243243 C37.9349725,4.07724324 37.4981284,2.88745946 37.7705688,1.69767568 Z" id="Shape"></path>
                <path d="M74.0239266,1.82935135 C74.9070092,1.11454054 75.7290275,0.0705405405 76.9972844,0.230432432 C78.6272294,0.277459459 80.7222018,-0.235135135 81.7931743,1.36848649 C82.6527706,2.06918919 82.4601835,3.22135135 82.4930642,4.20421622 C82.450789,10.9431892 82.507156,17.6821622 82.4742752,24.4211351 C82.5635229,25.4369189 81.8683303,26.2222703 81.3751193,27.0264324 C79.4633394,27.1157838 77.5186789,27.3509189 75.6209908,26.9794054 C74.5688073,26.6643243 73.8783119,25.5921081 74.0004404,24.5057838 C74.0004404,16.9485405 73.9863486,9.38659459 74.0239266,1.82935135 Z" id="Shape"></path>
                <path d="M88.9658716,0.959351351 C89.8818349,0.413837838 91.0091743,0.634864865 92.0237798,0.531405405 C96.7398165,0.587837838 101.46055,0.512594595 106.181284,0.57372973 C111.75222,0.902918919 117.445284,3.61167568 120.310606,8.57302703 C121.874789,11.0795676 121.437945,14.1692432 121.301725,16.9720541 C120.521982,19.7325405 118.675963,22.1873514 116.313248,23.8003784 C113.532477,25.5262703 110.31956,26.4244865 107.120734,26.9794054 C101.784661,27.2239459 96.4344954,27.0546486 91.0937248,27.0875676 C89.3228624,27.365027 87.495633,25.7896216 87.5801835,23.9978919 C87.5754862,17.1272432 87.5848807,10.2518919 87.5801835,3.37654054 C87.4439633,2.34664865 88.1250642,1.46254054 88.9658716,0.959351351 Z M96.1432661,5.40810811 C96.0305321,10.9055676 96.0258349,16.4124324 96.1479633,21.9145946 C99.1588991,21.9192973 102.174532,21.9992432 105.185468,21.8957838 C108.346716,21.4537297 111.277798,19.2716757 112.447413,16.2713514 C112.82789,13.4967568 112.832587,10.2942162 110.530936,8.30497297 C106.58055,4.85318919 101.019009,5.35637838 96.1432661,5.40810811 Z" id="Shape"></path>
                <path d="M137.291156,0.427945946 C140.349064,0.0188108108 143.463339,0.178702703 146.544734,0.174 C151.894899,0.0893513514 157.160514,2.54416216 160.711633,6.52735135 C164.384881,10.7268649 164.21578,17.7385946 160.209028,21.6606486 C156.009688,26.4338919 149.302018,27.7459459 143.242569,27.9340541 C138.254092,27.4778919 132.974385,26.5185405 128.986422,23.2501622 C126.229138,21.0445946 124.17644,17.7197838 124.195229,14.1128108 C124.016734,10.9290811 125.421211,7.78767568 127.62422,5.53037838 C130.198312,2.84983784 133.730642,1.30735135 137.291156,0.427945946 Z M139.306275,5.65264865 C137.652844,6.25459459 135.980624,7.07756757 134.881468,8.50248649 C133.678972,9.95091892 133.190459,11.8131892 132.894532,13.6331351 C133.298495,15.8763243 133.711853,18.3734595 135.576661,19.9065405 C139.747817,23.4053514 145.97167,23.4805946 150.631339,20.9223243 C152.932991,19.4268649 154.38444,16.7792432 154.741431,14.094 C154.614606,11.5780541 153.553028,8.89751351 151.429872,7.40675676 C148.047853,4.79205405 143.294239,4.35940541 139.306275,5.65264865 Z" id="Shape"></path>
                <path d="M164.088954,1.78702703 C165.80345,0.0752432432 168.246018,-2.72004641e-15 170.505394,0.310378378 C172.652037,1.44843243 173.417688,3.92205405 174.601394,5.88308108 C176.546055,9.70167568 178.941651,13.271027 180.759486,17.1507568 C180.970862,17.1601622 181.393615,17.178973 181.600294,17.1883784 C183.981798,12.8807027 186.330422,8.54951351 188.787083,4.28416216 C189.57622,2.86864865 190.346569,1.31675676 191.793321,0.460864865 C194.080881,-0.216324324 196.683156,0.155189189 198.482202,1.83875676 C198.439927,4.74032432 196.142972,6.80951351 194.88411,9.24081081 C192.535486,13.445027 190.045945,17.5598919 187.575193,21.6888649 C186.297541,23.7345405 185.437945,26.5232432 182.86855,27.270973 C180.778275,28.061027 178.321615,27.1816216 177.06745,25.3616757 C174.883229,22.1309189 173.262679,18.5568649 171.125431,15.2978919 C169.025761,12.0295135 167.311266,8.5307027 165.192807,5.27643243 C164.455339,4.25124324 164.131229,3.03794595 164.088954,1.78702703 Z" id="Shape"></path>
                <path d="M233.960514,0.902918919 C235.209982,0.117567568 236.736587,0.291567568 238.145761,0.263351351 C242.697394,0.300972973 247.249028,0.244540541 251.800661,0.291567568 C253.209835,0.22572973 255.173284,1.12394595 254.863266,2.82162162 C255.145101,4.30767568 253.52455,5.25291892 252.256294,5.36578378 C248.498495,5.45513514 244.745394,5.35167568 240.987596,5.40810811 C240.668183,7.27508108 240.630606,9.21259459 241.06745,11.0701622 C244.332037,11.0983784 247.601321,11.0137297 250.865908,11.0936757 C252.190532,11.3288108 254.013064,11.7003243 254.454606,13.1675676 C254.835083,14.7664865 253.195743,15.6835135 251.922789,16.1020541 C248.226055,16.6099459 244.425982,15.7822703 240.757431,16.5582162 C240.771523,18.4392973 240.762128,20.3156757 240.813798,22.1967568 C244.623266,22.2108649 248.428037,22.1168108 252.237505,22.224973 C253.919119,22.1826486 255.342385,23.4194595 255.873174,24.9619459 C255.107523,25.7708108 254.510972,27.1628108 253.205138,27.0452432 C247.234936,27.144 241.260037,27.1251892 235.289835,27.0640541 C233.448514,27.1628108 232.194349,25.2394054 232.302385,23.5558378 C232.325872,17.2636216 232.297688,10.9667027 232.316477,4.66978378 C232.401028,3.31540541 232.649982,1.62713514 233.960514,0.902918919 Z" id="Shape"></path>
                <path d="M45.9578716,33.2387027 C46.685945,32.838973 47.6770642,32.1335676 48.4474128,32.8483784 C49.9646239,35.3596216 50.6175413,38.2894054 52.1441468,40.8053514 C52.8722202,38.2988108 53.8586422,35.8628108 55.0094679,33.5208649 C55.3006972,32.712 56.0569541,32.3404865 56.8789725,32.6038378 C58.0016147,33.1587568 57.5600734,34.6024865 57.1702018,35.496 C55.770422,38.4116757 54.6195963,41.4308108 53.3560367,44.4029189 C53.0507156,45.1083243 52.167633,45.2823243 51.6039633,45.7337838 C50.6363303,44.5251892 49.9035596,43.152 49.3633761,41.7082703 C48.2595229,38.8725405 46.8597431,36.1543784 45.9578716,33.2387027 Z" id="Shape"></path>
                <path d="M63.5772477,32.5709189 C66.6586422,31.5269189 70.2238532,33.3797838 71.4921101,36.3001622 C71.8068257,37.6639459 71.717578,39.0794595 71.68,40.4667568 C71.7598532,42.408973 70.162789,43.9138378 68.6502752,44.8778919 C65.7661651,46.1758378 61.9003303,45.6303243 59.960367,42.9403784 C58.5511927,41.3461622 58.9598532,39.0888649 58.9927339,37.1372432 C59.448367,34.9034595 61.4118165,33.1540541 63.5772477,32.5709189 Z M63.9483303,35.1621081 C61.3742385,36.4365405 60.8763303,40.3538919 63.0840367,42.1832432 C63.9483303,43.2366486 65.4655413,43.1943243 66.6680367,42.8698378 C68.2604037,42.3384324 69.0589358,40.5608108 69.2750092,39.0277297 C68.9884771,37.4805405 68.3120734,35.6652973 66.6962202,35.0821622 C65.7896514,34.9316757 64.8267156,34.8799459 63.9483303,35.1621081 Z" id="Shape"></path>
                <path d="M162.003376,32.6179459 C162.740844,32.6132432 163.478312,32.6179459 164.220477,32.6226486 C164.600954,34.1557297 164.596257,35.7452432 164.671413,37.3159459 C166.357725,36.0556216 167.66356,34.3814595 169.302899,33.0694054 C169.843083,32.6038378 170.946936,32.2323243 171.43545,32.9565405 C172.262165,33.4879459 171.538789,34.3908649 171.078459,34.8705405 C169.885358,36.1731892 168.527853,37.3159459 167.28778,38.5668649 C168.781505,40.0623243 170.355083,41.4825405 171.830018,42.9968108 C172.421872,43.5517297 172.313835,44.5628108 172.022606,45.2494054 C171.322716,45.6585405 170.420844,45.4045946 169.857174,44.8872973 C167.982972,43.3589189 166.489248,41.4261081 164.666716,39.8365946 C164.40367,41.6659459 165.047193,43.7163243 163.966826,45.3481622 C163.168294,45.4375135 162.228844,45.6397297 161.782606,44.7697297 C161.566532,42.7099459 161.712147,40.6313514 161.688661,38.5668649 C161.721541,36.5823243 161.500771,34.5601622 162.003376,32.6179459 Z" id="Shape"></path>
                <path d="M184.258936,32.6132432 C184.78033,32.538 185.29233,32.6038378 185.785541,32.8154595 C186.100257,35.4771892 185.747963,38.1671351 185.982826,40.8335676 C186.508917,43.0720541 189.501064,43.7163243 191.196771,42.3478378 C192.671706,39.5591351 191.398752,36.2578378 192.065761,33.2951351 C192.356991,32.3451892 193.489028,32.6461622 194.23589,32.6743784 C194.963963,33.5208649 194.658642,34.6965405 194.729101,35.7217297 C194.625761,37.8943784 194.912294,40.0999459 194.541211,42.2537838 C192.681101,45.9595135 187.077284,46.6602162 184.352881,43.5564324 C182.361248,41.0734054 183.155083,37.7015676 183.051743,34.7764865 C183.206752,33.9911351 183.126899,32.5238919 184.258936,32.6132432 Z" id="Shape"></path>
                <path d="M197.124697,35.2373514 C197.063633,34.1839459 197.340771,32.4251351 198.773431,32.6414595 C200.952954,32.8295676 203.672661,31.9454595 205.354275,33.7701081 C206.38767,34.8329189 206.025982,36.4647568 205.340183,37.6122162 C204.447706,38.7361622 206.307817,39.276973 206.904367,40.0105946 C206.880881,41.4072973 207.435156,43.1802162 206.204477,44.2242162 C205.283817,44.9531351 204.123596,45.4092973 202.944587,45.3763784 C201.122055,45.3904865 199.25255,45.540973 197.491083,44.9907568 C196.856954,41.7788108 197.246826,38.4869189 197.124697,35.2373514 Z M200.271853,37.7203784 C201.605872,38.1718378 203.386128,37.3676757 203.12778,35.7546486 C202.503046,34.8 201.291156,35.0962703 200.337615,34.9316757 C200.285945,35.8581081 200.271853,36.7845405 200.271853,37.7203784 Z M200.27655,40.1234595 C200.27655,41.0687027 200.27655,42.0186486 200.281248,42.9685946 C201.840734,43.1331892 203.390826,42.9027568 204.588624,41.8211351 C204.250422,41.2803243 203.921615,40.7395135 203.606899,40.1987027 C202.493651,40.1563784 201.385101,40.1328649 200.27655,40.1234595 Z" id="Shape"></path>
                <path d="M74.4325872,33.8171351 C74.3715229,32.9706486 75.4190092,32.6367568 76.0954128,32.8342703 C76.2786055,32.933027 76.6449908,33.1305405 76.8234862,33.2292973 C77.0348624,36.3707027 76.6872661,39.5309189 77.0348624,42.6676216 L77.0583486,42.9497838 C78.7305688,43.0203243 80.6329541,42.5359459 82.0045505,43.7727568 C79.9518532,45.7572973 76.9597064,44.8731892 74.4137982,44.9578378 C74.3856147,41.2474054 74.24,37.5275676 74.4325872,33.8171351 Z" id="Shape"></path>
                <path d="M83.3197798,33.8171351 C82.9205138,32.3781081 85.447633,32.0065946 85.7106789,33.3468649 C85.8422018,36.5352973 85.6590092,39.7331351 85.7905321,42.9262703 C87.1997064,42.9356757 88.6041835,42.9497838 90.0133578,42.9215676 C90.2200367,43.5846486 90.4173211,44.2524324 90.5958165,44.9249189 C88.1814312,45.0801081 85.7576514,45.0424865 83.3385688,44.9484324 C83.2728073,41.238 83.2681101,37.5275676 83.3197798,33.8171351 Z" id="Shape"></path>
                <path d="M92.5028991,32.8954054 C94.2173945,32.5144865 95.9976514,32.5097838 97.7403303,32.6602703 C98.4355229,32.6884865 99.3233028,32.9800541 99.1917798,33.8500541 C99.1072294,33.9911351 98.9334312,34.2732973 98.8488807,34.4190811 C97.4725872,34.8188108 96.0634128,35.0962703 94.6918165,35.5148108 C94.7481835,35.8392973 94.8656147,36.4835676 94.9266789,36.8080541 C94.9736514,37.0761081 95.0722936,37.6075135 95.1239633,37.8708649 C96.4955596,37.8661622 97.8718532,37.8708649 99.2481468,37.8332432 C99.1823853,38.3458378 99.1025321,38.8631351 99.0038899,39.3757297 C97.6839633,40.146973 96.0587156,39.8412973 94.6119633,40.1987027 C94.682422,41.1439459 94.8327339,42.0844865 94.9971376,43.0203243 C96.0681101,43.0626486 97.1531743,42.9074595 98.2194495,43.1284865 C98.909945,43.1567027 99.2058716,43.5094054 99.0978349,44.1818919 C99.0414679,44.3747027 98.9334312,44.7556216 98.8770642,44.9484324 C96.6787523,45.1224324 94.4710459,45.0283784 92.2680367,44.9437297 C92.3244037,40.9323243 91.7748257,36.8550811 92.5028991,32.8954054 Z" id="Shape"></path>
                <path d="M100.892183,33.4503243 C101.18811,33.1963784 101.775266,32.6884865 102.066495,32.4345405 C103.485064,33.7277838 104.767413,35.1574054 105.974606,36.6481622 C107.191193,35.4160541 108.224587,34.0005405 109.530422,32.8577838 C110.13167,32.886 110.737615,32.933027 111.338862,33.0035676 C110.808073,34.3814595 110.112881,35.6982162 109.182826,36.8550811 C108.417174,37.9508108 107.313321,39.0089189 107.369688,40.4526486 C107.360294,42.2725946 107.238165,44.1160541 106.439633,45.7855135 C106.073248,45.5033514 105.345174,44.939027 104.983486,44.6568649 C104.969394,42.7851892 104.992881,40.8758919 104.424514,39.0747568 C104.058128,38.5715676 103.649468,38.1012973 103.278385,37.6028108 C102.310752,36.3236757 101.545101,34.9081622 100.892183,33.4503243 Z" id="Shape"></path>
                <path d="M113.664,32.7308108 C116.059596,32.7167027 118.882642,31.9971892 120.902459,33.6619459 C122.086165,35.100973 121.390972,37.1231351 120.512587,38.5433514 C122.724991,39.1594054 123.734899,42.0327568 122.119046,43.7774595 C120.146202,46.3968649 116.49644,45.0377838 113.725064,45.3998919 C113.353982,44.7462162 112.860771,44.1019459 112.96411,43.3071892 C113.006385,40.0105946 112.846679,36.7045946 113.058055,33.4174054 C113.208367,33.2481081 113.513688,32.9048108 113.664,32.7308108 Z M115.885798,35.1338919 C115.79655,35.8298919 115.730789,36.5258919 115.683817,37.2265946 C116.017321,37.4288108 116.689028,37.8285405 117.022532,38.0307568 C117.769394,37.3723784 119.028257,36.9021081 118.722936,35.6841081 C118.093505,34.673027 116.848734,35.0163243 115.885798,35.1338919 Z M115.754275,40.1610811 C115.758972,40.9840541 115.754275,41.807027 115.754275,42.6347027 C117.041321,43.0626486 118.403523,43.0485405 119.67178,42.5594595 C119.624807,41.807027 119.610716,41.0592973 119.493284,40.3162703 C118.262606,40.0482162 116.999046,40.146973 115.754275,40.1610811 Z" id="Shape"></path>
                <path d="M128.164404,33.4503243 C128.728073,32.2746486 130.156037,32.6414595 131.203523,32.5427027 C132.974385,35.2514595 133.735339,38.4445946 135.003596,41.3931892 C135.388771,42.63 136.304734,44.6286486 134.890862,45.4751351 C133.378349,45.7902162 133.30789,43.9561622 132.720734,43.0062162 C130.902899,42.9497838 129.085064,42.9356757 127.267229,43.0297297 C126.947817,44.0878378 126.337174,45.0048649 125.501064,45.7290811 C124.899817,45.2588108 124.303266,44.7979459 123.720807,44.322973 C125.411817,40.7865405 126.619009,37.0431892 128.164404,33.4503243 Z M128.291229,40.2551351 C129.362202,40.2833514 130.433174,40.2880541 131.508844,40.2692432 C131.382018,38.7032432 130.776073,37.2548108 130.113761,35.8534054 C129.136734,37.1466486 128.59655,38.675027 128.291229,40.2551351 Z" id="Shape"></path>
                <path d="M137.836037,41.8728649 C137.906495,38.7737838 137.765578,35.67 137.944073,32.5709189 C138.629872,32.585027 139.31567,32.6226486 139.996771,32.6884865 C140.85167,33.6619459 140.602716,34.9975135 140.649688,36.1825946 C140.630899,38.3082162 140.640294,40.4338378 140.626202,42.5641622 C142.035376,42.7757838 143.458642,42.8698378 144.872514,43.0814595 C145.187229,43.5799459 145.450275,44.1113514 145.713321,44.6474595 C143.458642,45.9501081 140.781211,45.192973 138.319853,45.3622703 C137.897101,44.2477297 137.789064,43.0579459 137.836037,41.8728649 Z" id="Shape"></path>
                <path d="M147.21644,32.5709189 C147.700257,32.585027 148.66789,32.6132432 149.151706,32.6273514 C150.053578,35.9803784 149.334899,39.498 149.602642,42.9262703 C151.044697,42.9356757 152.486752,42.9450811 153.933505,42.9827027 C153.919413,43.7774595 153.895927,44.5722162 153.877138,45.3716757 C151.505028,45.2117838 148.987303,45.8513514 146.75611,44.8120541 C146.774899,41.6283243 146.760807,38.4398919 146.746716,35.2561622 C146.709138,34.3344324 146.906422,33.4315135 147.21644,32.5709189 Z" id="Shape"></path>
                <path d="M174.615486,32.9565405 C175.329468,32.9471351 176.04345,32.9424324 176.762128,32.9377297 C176.950018,36.2813514 176.837284,39.6296757 176.931229,42.9732973 C178.119633,42.9732973 179.312734,42.978 180.505835,42.9591892 C180.707817,42.9544865 181.107083,42.9497838 181.309064,42.9497838 C181.590899,43.5987568 181.872734,44.2524324 182.149872,44.9061081 C181.990165,44.9108108 181.67545,44.9296216 181.515743,44.9343243 C179.218789,45.0377838 176.917138,45.0330811 174.624881,44.8590811 C174.394716,40.8947027 174.50745,36.9209189 174.615486,32.9565405 Z" id="Shape"></path>
            </g>
        </g>
    </g>
</svg>