<?xml version="1.0" encoding="UTF-8" standalone="no"?>
<!-- Created with Inkscape (http://www.inkscape.org/) -->

<svg
   width="256"
   height="256"
   viewBox="0 0 67.733331 67.733331"
   version="1.1"
   id="svg5280"
   inkscape:version="1.1 (c68e22c387, 2021-05-23)"
   sodipodi:docname="jardar.svg"
   xmlns:inkscape="http://www.inkscape.org/namespaces/inkscape"
   xmlns:sodipodi="http://sodipodi.sourceforge.net/DTD/sodipodi-0.dtd"
   xmlns="http://www.w3.org/2000/svg"
   xmlns:svg="http://www.w3.org/2000/svg">
  <sodipodi:namedview
     id="namedview5282"
     pagecolor="#ffffff"
     bordercolor="#666666"
     borderopacity="1.0"
     inkscape:pageshadow="2"
     inkscape:pageopacity="0.0"
     inkscape:pagecheckerboard="0"
     inkscape:document-units="mm"
     showgrid="false"
     inkscape:zoom="1"
     inkscape:cx="397"
     inkscape:cy="258"
     inkscape:window-width="1920"
     inkscape:window-height="986"
     inkscape:window-x="-11"
     inkscape:window-y="-11"
     inkscape:window-maximized="1"
     inkscape:current-layer="layer1"
     units="px"
     width="256px" />
  <defs
     id="defs5277">
    <inkscape:path-effect
       effect="fill_between_many"
       method="originald"
       linkedpaths="#path5400,0,1"
       id="path-effect5477"
       is_visible="true"
       lpeversion="0"
       join="true"
       close="true"
       autoreverse="true"
       applied="false" />
    <inkscape:path-effect
       effect="fill_between_many"
       method="originald"
       linkedpaths="#path5400,0,1"
       id="path-effect5518"
       is_visible="true"
       lpeversion="0"
       join="true"
       close="true"
       autoreverse="true"
       applied="false" />
  </defs>
  <g
     inkscape:label="Lag 1"
     inkscape:groupmode="layer"
     id="layer1"
     style="display:inline">
    <path
       style="display:inline;fill:#0051a0;fill-opacity:1;fill-rule:nonzero;stroke:#0051a0;stroke-width:0.170648;stroke-opacity:1"
       d="m 11.333571,39.451364 v -0.816129 l 0.776285,-0.03119 c 1.205495,-0.0484 1.119342,0.175159 1.146479,-2.975263 l 0.02237,-2.596442 h 0.927834 0.927835 v 2.633466 c 0,1.61085 -0.0329,2.786854 -0.08471,3.028461 -0.118399,0.552074 -0.478729,0.999703 -1.024218,1.272367 -0.417934,0.208906 -0.528524,0.227405 -1.570729,0.26279 l -1.121141,0.03805 z"
       id="path26803" />
    <path
       style="display:inline;fill:#0051a0;fill-opacity:1;fill-rule:nonzero;stroke:#0051a0;stroke-width:0.170648"
       d="m 16.264532,39.567389 c 0.14654,-0.373289 0.798654,-2.014233 1.449144,-3.646532 l 1.182705,-2.96782 0.999291,0.02028 0.99929,0.02028 1.341046,3.374174 c 0.737577,1.855801 1.363878,3.465627 1.39178,3.577396 0.04929,0.197438 0.03895,0.204198 -0.363309,0.237555 -0.227721,0.0189 -0.646022,0.01957 -0.929555,0.0015 l -0.515516,-0.03283 -0.151078,-0.398646 -0.151076,-0.398645 -0.534764,-0.04855 c -0.730589,-0.06632 -2.28513,-0.07843 -2.576895,-0.02008 -0.19913,0.03985 -0.266875,0.115728 -0.408714,0.457944 -0.198662,0.479306 -0.259861,0.502691 -1.315619,0.502691 h -0.683167 z m 4.532248,-1.922715 c 0,-0.131733 -0.408325,-1.210385 -0.732972,-1.936256 -0.194918,-0.435808 -0.215187,-0.45588 -0.318759,-0.315635 -0.118979,0.161106 -0.887451,2.068978 -0.887451,2.203262 0,0.09584 0.335882,0.137105 1.260469,0.154867 0.564637,0.01086 0.678713,-0.007 0.678713,-0.106238 z"
       id="path26842" />
    <path
       style="display:inline;fill:#0051a0;fill-opacity:1;fill-rule:nonzero;stroke:#0051a0;stroke-width:0.170648"
       d="M 30.083816,40.172595 29.248322,40.129725 28.678131,39.08257 28.107942,38.03541 H 27.380527 26.65311 l -0.02158,1.066551 -0.02158,1.06655 h -0.928624 -0.928618 v -3.568094 -3.568095 l 2.152491,5.12e-4 c 2.946997,10e-4 3.372689,0.08493 4.028125,0.795991 0.230614,0.250186 0.340929,0.454354 0.403742,0.747244 0.189397,0.883129 0.03378,1.967493 -0.355623,2.478025 -0.111538,0.146232 -0.371852,0.370969 -0.578477,0.499414 -0.206626,0.128445 -0.375683,0.250662 -0.375683,0.271594 0,0.02095 0.265931,0.543398 0.59096,1.161039 0.465939,0.885409 0.568501,1.137213 0.484795,1.190237 -0.05839,0.03698 -0.123617,0.06089 -0.144947,0.05311 -0.02133,-0.0078 -0.414756,-0.03344 -0.874279,-0.05699 z m -0.804745,-3.917501 c 0.313845,-0.290862 0.315929,-1.119021 0.0036,-1.438697 -0.183967,-0.188306 -0.225314,-0.194678 -1.428906,-0.220127 l -1.239457,-0.02622 v 0.937623 0.937619 h 1.22975 c 1.197839,0 1.235075,-0.0051 1.434994,-0.190211 z"
       id="path26881" />
    <path
       style="display:inline;fill:#0051a0;fill-opacity:1;fill-rule:nonzero;stroke:#0051a0;stroke-width:0.170648"
       d="m 33.498424,40.188784 -0.446014,-0.02801 v -3.572171 -3.572176 l 2.191277,0.03688 c 2.295115,0.03862 2.601525,0.07881 3.292244,0.431957 0.989968,0.506143 1.488599,1.736094 1.3887,3.425442 -0.103122,1.743837 -0.648583,2.61254 -1.898213,3.023093 -0.766429,0.251804 -2.775603,0.364946 -4.527994,0.25498 z m 3.76613,-1.789548 c 0.220864,-0.0977 0.404818,-0.255256 0.526436,-0.450901 0.173775,-0.279548 0.186943,-0.375466 0.186943,-1.361596 0,-0.946956 -0.01709,-1.084374 -0.159165,-1.27986 -0.293176,-0.403384 -0.737051,-0.54768 -1.838192,-0.59758 l -0.988982,-0.04481 v 1.988143 1.988139 l 0.966733,-0.04568 c 0.70989,-0.03355 1.056929,-0.08558 1.306227,-0.195855 z"
       id="path26920" />
    <path
       style="display:inline;fill:#0051a0;fill-opacity:1;fill-rule:nonzero;stroke:#0051a0;stroke-width:0.170648"
       d="m 41.963112,36.599169 1.444531,-3.646942 0.996246,0.02069 0.996244,0.02069 1.433111,3.556253 c 0.788211,1.955939 1.421965,3.56644 1.408341,3.578891 -0.01362,0.01244 -0.437965,0.03524 -0.942982,0.0506 l -0.918213,0.02802 -0.172125,-0.426621 -0.172127,-0.42662 -0.538574,-0.04855 c -0.7316,-0.06594 -2.180693,-0.07675 -2.530697,-0.01885 -0.257706,0.04261 -0.301841,0.08713 -0.451246,0.45525 -0.191286,0.471291 -0.274279,0.501851 -1.366964,0.503331 l -0.630076,10e-4 z m 2.985052,1.115456 c 0.23847,-0.03267 0.359878,-0.08696 0.359878,-0.1609 0,-0.146709 -0.755876,-1.98293 -0.892247,-2.167502 -0.09705,-0.131349 -0.123042,-0.104666 -0.313908,0.322195 -0.185496,0.414851 -0.733026,1.862162 -0.733026,1.937634 0,0.09888 1.031482,0.143661 1.579303,0.06857 z"
       id="path26998" />
    <path
       style="display:inline;fill:#0051a0;fill-opacity:1;fill-rule:nonzero;stroke:#0051a0;stroke-width:0.170648"
       d="M 54.43811,40.175745 54.066189,40.129755 53.502171,39.0826 52.938154,38.03544 h -0.731756 -0.731755 l -0.02156,1.06655 -0.02156,1.06655 h -0.928616 -0.928619 v -3.573866 -3.573871 l 2.462763,0.02904 c 2.10719,0.02484 2.513155,0.0485 2.811811,0.163923 0.573493,0.221653 0.881102,0.471096 1.125787,0.912907 0.220019,0.397278 0.231528,0.463014 0.22932,1.310282 -0.002,0.776093 -0.02597,0.940292 -0.184449,1.26341 -0.172573,0.351896 -0.604899,0.775417 -1.002146,0.981736 -0.217986,0.113218 -0.230954,0.07401 0.437375,1.322954 0.739423,1.3818 0.740237,1.243179 -0.0072,1.228889 -0.350585,-0.0067 -0.804795,-0.03288 -1.009358,-0.05818 z m -0.542793,-3.811714 c 0.128234,-0.04471 0.279778,-0.168394 0.336761,-0.274867 0.134212,-0.25078 0.1331,-0.90062 -0.002,-1.153003 -0.150094,-0.280455 -0.498947,-0.351537 -1.727699,-0.352034 l -1.06655,-4.05e-4 v 0.930807 0.930807 h 1.113152 c 0.612232,0 1.218068,-0.03657 1.346303,-0.08128 z"
       id="path27037" />
    <path
       style="display:inline;fill:#0051a0;fill-opacity:1;fill-rule:nonzero;stroke:#0051a0;stroke-width:0.29812;stroke-opacity:1"
       d="m 33.216505,54.866788 c -1.17678,-0.923089 -3.309469,-1.997828 -4.742826,-2.390083 -0.891592,-0.243993 -1.45701,-0.297729 -3.184469,-0.302661 -2.285907,-0.0065 -2.510051,0.02873 -6.910976,1.087354 -3.383819,0.813947 -4.531399,1.000236 -6.161749,1.000236 -2.9790746,0 -5.2806336,-1.088912 -7.8634666,-3.72036 -1.418313,-1.445007 -2.342178,-2.897373 -2.95021,-4.637892 -0.35403,-1.013429 -0.42589304,-1.44241 -0.47262604,-2.821266 -0.05083,-1.499598 -0.0052,-1.889685 0.58688104,-5.013848 0.595601,-3.142929 0.642791,-3.549303 0.653036,-5.623638 0.01244,-2.519675 0.02931,-2.435604 -1.164933,-5.80649 l -0.83291904,-2.351 1.21345504,-1.19059 c 0.667401,-0.654824 1.69514,-1.853107 2.283864,-2.662844 0.588726,-0.809738 1.086076,-1.493678 1.105223,-1.519865 0.01915,-0.02617 0.68182,0.205352 1.472605,0.514538 1.9016,0.743484 4.0493116,1.298785 6.3716926,1.647423 2.53416,0.380434 7.576849,0.416392 10.095445,0.07199 3.533025,-0.483117 6.502988,-1.234345 9.28239,-2.347901 l 1.626111,-0.651495 2.303659,0.768283 c 4.409342,1.470533 7.5922,2.008159 12.478125,2.107712 2.694325,0.0549 3.775927,0.02218 5.217108,-0.157924 3.099589,-0.387322 5.892512,-1.102289 8.322559,-2.130514 l 0.948563,-0.401371 0.203267,0.311374 c 0.76416,1.170595 1.961818,2.580847 3.118222,3.671735 l 1.349012,1.272587 -0.66521,2.157398 c -0.930438,3.017582 -1.081372,3.661558 -1.177792,5.0251 -0.100404,1.419983 0.04021,2.576622 0.784903,6.455429 1.16428,6.06443 0.869655,8.348966 -1.473724,11.427209 -2.595546,3.409483 -5.970996,5.196219 -9.821301,5.198744 -1.264808,0.001 -1.868272,-0.09318 -4.742828,-0.738828 -7.762121,-1.743438 -10.44355,-1.542277 -14.405395,1.080696 -0.59624,0.394743 -1.231907,0.875888 -1.412591,1.069208 -0.180685,0.19332 -0.363623,0.350175 -0.406528,0.348562 -0.04291,-0.0015 -0.504866,-0.337766 -1.026577,-0.747008 z M 15.973561,48.984729 c 5.621589,-1.24869 8.438341,-1.587936 11.353674,-1.367399 2.332324,0.176429 3.936005,0.605938 5.85702,1.568652 l 0.994652,0.498472 1.077156,-0.541012 c 2.423563,-1.217253 4.742976,-1.710296 8.055888,-1.712462 2.288725,-0.0015 2.522613,0.02535 6.707711,0.76921 2.384963,0.423911 5.04076,0.843027 5.90177,0.93136 1.552089,0.159236 1.571787,0.157669 2.30366,-0.183461 1.828124,-0.852098 3.660171,-3.274237 4.2664,-5.640586 0.255292,-0.996507 0.175979,-1.721712 -0.62837,-5.745384 -0.891617,-4.460248 -0.946003,-6.855114 -0.251297,-11.066463 0.334646,-2.028629 0.338687,-2.358149 0.02776,-2.262093 -0.898433,0.277561 -3.427675,0.813317 -4.94084,1.046596 -2.568514,0.395973 -8.281597,0.498886 -11.354158,0.204522 -3.755349,-0.359773 -8.253823,-1.241658 -10.741575,-2.105782 l -0.781638,-0.271507 -1.391557,0.455844 c -2.083297,0.682435 -6.055532,1.642143 -7.818158,1.888897 -5.290662,0.740652 -11.585752,0.639223 -16.4941116,-0.265745 -2.188708,-0.403542 -2.403542,-0.412331 -2.275712,-0.09314 0.05223,0.130427 0.23869,0.797169 0.414348,1.481652 0.876207,3.414282 0.766602,8.294513 -0.287536,12.802628 -0.606809,2.595085 -0.576631,5.101408 0.07928,6.584202 0.748483,1.692073 4.1538416,3.652145 6.4023876,3.685123 0.279828,0.0041 1.865287,-0.293853 3.523242,-0.662127 z"
       id="path46845" />
  </g>
</svg>
