<?xml version="1.0" encoding="UTF-8"?>
<svg width="256px" height="256px" viewBox="0 0 256 256" version="1.1" xmlns="http://www.w3.org/2000/svg" xmlns:xlink="http://www.w3.org/1999/xlink">
    <!-- Generator: Sketch 50.2 (55047) - http://www.bohemiancoding.com/sketch -->
    <title>logo/kfumstavanger</title>
    <desc>Created with Sketch.</desc>
    <defs></defs>
    <g id="logo/kfumstavanger" stroke="none" stroke-width="1" fill="none" fill-rule="evenodd">
        <g id="kfumstavanger" transform="translate(0.000000, 15.000000)" fill-rule="nonzero">
            <g id="#4f8aecff" fill="#4F8AEC">
                <path d="M1.74730159,1.64918919 C20.6425397,0.916216216 39.5377778,1.26234234 58.4330159,1.40486486 C67.1898413,18.4464865 76.9828571,34.9383784 86.552381,51.5320721 C100.205714,75.9645045 114.326349,100.132252 127.979683,124.564685 L128.670476,125.827027 C118.735238,142.461441 108.210794,158.871892 100.490159,176.727928 C74.7073016,129.980541 47.7866667,83.8643243 21.5974603,37.3409009 C14.8520635,25.5115315 7.68,13.9264865 1.74730159,1.64918919 Z" id="Shape"></path>
            </g>
            <g id="#353547ff" transform="translate(56.888889, 0.000000)" fill="#353547">
                <path d="M1.54412698,1.40486486 C48.4165079,0.916216216 95.2888889,1.1809009 142.16127,1.26234234 C132.713651,17.8967568 123.408254,34.632973 113.615238,51.0841441 C85.6380952,51.5931532 57.6406349,50.7990991 29.6634921,51.5320721 C20.0939683,34.9383784 10.3009524,18.4464865 1.54412698,1.40486486 Z" id="Shape"></path>
                <path d="M71.7815873,125.827027 C81.127619,141.952432 89.9250794,158.423964 99.9212698,174.182883 C90.8393651,191.122703 81.432381,207.92 71.3752381,224.31009 C61.6025397,208.734414 53.2520635,192.344324 43.6012698,176.727928 C51.3219048,158.871892 61.8463492,142.461441 71.7815873,125.827027 Z" id="Shape"></path>
            </g>
            <g id="#dd3320ff" transform="translate(125.968254, 0.000000)" fill="#DD3320">
                <path d="M73.0819048,1.26234234 C91.6520635,1.24198198 110.222222,0.814414414 128.792381,1.56774775 C125.52127,8.14414414 122.168889,14.7001802 118.410159,21.0322523 C89.0107937,71.9535135 60.6273016,123.485586 30.8419048,174.182883 C20.8457143,158.423964 12.048254,141.952432 2.70222222,125.827027 L2.01142857,124.564685 C17.0666667,100.600541 29.9073016,75.312973 44.535873,51.0841441 C54.3288889,34.632973 63.6342857,17.8967568 73.0819048,1.26234234 Z" id="Shape"></path>
            </g>
        </g>
    </g>
</svg>