<?xml version="1.0" encoding="UTF-8" ?>
<!DOCTYPE svg PUBLIC "-//W3C//DTD SVG 1.1//EN" "http://www.w3.org/Graphics/SVG/1.1/DTD/svg11.dtd">
<svg width="132pt" height="119pt" viewBox="0 0 132 119" version="1.1" xmlns="http://www.w3.org/2000/svg">
<g id="#ffffffff">
</g>
<g id="#4f8aecff">
<path fill="#4f8aec" opacity="1.00" d=" M 2.86 3.81 C 12.16 3.45 21.46 3.62 30.76 3.69 C 35.07 12.06 39.89 20.16 44.60 28.31 C 51.32 40.31 58.27 52.18 64.99 64.18 L 65.33 64.80 C 60.44 72.97 55.26 81.03 51.46 89.80 C 38.77 66.84 25.52 44.19 12.63 21.34 C 9.31 15.53 5.78 9.84 2.86 3.81 Z" />
</g>
<g id="#353547ff">
<path fill="#353547" opacity="1.00" d=" M 30.76 3.69 C 53.83 3.45 76.90 3.58 99.97 3.62 C 95.32 11.79 90.74 20.01 85.92 28.09 C 72.15 28.34 58.37 27.95 44.60 28.31 C 39.89 20.16 35.07 12.06 30.76 3.69 Z" />
<path fill="#353547" opacity="1.00" d=" M 65.33 64.80 C 69.93 72.72 74.26 80.81 79.18 88.55 C 74.71 96.87 70.08 105.12 65.13 113.17 C 60.32 105.52 56.21 97.47 51.46 89.80 C 55.26 81.03 60.44 72.97 65.33 64.80 Z" />
</g>
<g id="#dd3320ff">
<path fill="#dd3320" opacity="1.00" d=" M 99.97 3.62 C 109.11 3.61 118.25 3.40 127.39 3.77 C 125.78 7.00 124.13 10.22 122.28 13.33 C 107.81 38.34 93.84 63.65 79.18 88.55 C 74.26 80.81 69.93 72.72 65.33 64.80 L 64.99 64.18 C 72.40 52.41 78.72 39.99 85.92 28.09 C 90.74 20.01 95.32 11.79 99.97 3.62 Z" />
</g>
</svg>
