<?xml version="1.0" encoding="UTF-8"?>
<svg width="256px" height="256px" viewBox="0 0 256 256" version="1.1" xmlns="http://www.w3.org/2000/svg" xmlns:xlink="http://www.w3.org/1999/xlink">
    <!-- Generator: Sketch 50.2 (55047) - http://www.bohemiancoding.com/sketch -->
    <title>logo/kolbotn</title>
    <desc>Created with Sketch.</desc>
    <defs></defs>
    <g id="logo/kolbotn" stroke="none" stroke-width="1" fill="none" fill-rule="evenodd">
        <g id="kolbotn" transform="translate(26.000000, 0.000000)" fill-rule="nonzero">
            <g id="#fefefeff" fill="#FEFEFE">
                <path d="M0,0 L0.546428571,0 C0.455357143,4.37990521 0.200357143,8.75981043 0,13.1336493 L0,0 Z" id="Shape"></path>
                <path d="M202.269643,0 L204,0 L204,21.6265403 C203.562857,14.4136493 203.575,7.12796209 202.269643,0 Z" id="Shape"></path>
                <path d="M6.70892857,6.8307109 C70.0582143,6.8064455 133.401429,6.80037915 196.750714,6.83677725 C199.063929,27.9416114 198.4325,49.2769668 196.216429,70.3636019 C191.316786,115.163602 177.048929,159.460095 151.47,196.822749 C140.213571,213.317156 126.929286,228.446635 111.787143,241.489289 C109.498214,243.424455 107.433929,245.669005 104.877857,247.264455 C103.876071,247.252322 103.056429,246.572891 102.248929,246.07545 C86.2689286,233.845687 72.3714286,219.055924 60.3621429,202.961896 C36.7564286,171.344076 20.8432143,134.254408 12.8471429,95.6966825 C8.31178571,73.6151659 5.93178571,51.0665403 6.26571429,28.5118483 C6.36285714,21.2868246 6.10785714,14.0436019 6.70892857,6.8307109 Z M10.54,9.17838863 C10.5764286,16.9615166 10.5764286,24.7446445 10.5460714,32.5277725 C71.7339286,32.5338389 132.915714,32.4853081 194.0975,32.5520379 C194.127857,24.7264455 194.091429,16.9069194 194.121786,9.08132701 C187.163929,8.92966825 180.2,8.85080569 173.248214,9.12379147 C173.296786,13.5036967 173.308929,17.8836019 173.1875,22.2574408 C169.465714,22.2635071 165.743929,22.2877725 162.022143,22.2574408 C161.858214,17.8896682 161.8825,13.5218957 161.918929,9.15412322 C157.274286,8.85687204 152.6175,8.95393365 147.966786,9.02066351 C147.887857,13.4309005 147.875714,17.8472038 147.918214,22.2635071 C144.020357,22.2756398 140.1225,22.2635071 136.224643,22.2453081 C136.315714,17.8472038 136.315714,13.4490995 136.188214,9.05706161 C131.932143,8.92966825 127.67,8.90540284 123.413929,9.09345972 C123.413929,13.4854976 123.468571,17.8836019 123.256071,22.2756398 C119.036429,22.2877725 114.822857,22.2938389 110.603214,22.2513744 C110.360357,17.8775355 110.415,13.5036967 110.390714,9.12985782 C105.758214,8.88113744 101.1075,8.87507109 96.475,9.13592417 C96.3292857,13.5036967 96.3535714,17.8836019 96.39,22.2574408 C92.1642857,22.2695735 87.9446429,22.2695735 83.7189286,22.2635071 C83.5792857,17.8957346 83.6157143,13.5279621 83.6217857,9.16018957 C79.0803571,8.87507109 74.5328571,8.92966825 69.9914286,9.06312796 C69.9853571,13.4733649 70.0217857,17.8775355 69.9064286,22.2817062 C66.6764286,22.2756398 63.4525,22.2635071 60.2225,22.2574408 C60.1982143,17.8411374 60.2103571,13.4248341 60.1435714,9.01459716 C55.4017857,8.9357346 50.6539286,8.9357346 45.9121429,9.01459716 C45.8089286,13.4187678 45.7907143,17.8229384 45.8878571,22.227109 C41.4071429,22.2817062 36.9264286,22.2635071 32.4517857,22.2574408 C32.5975,17.8532701 32.5853571,13.4430332 32.4335714,9.03886256 C25.1357143,8.96606635 17.8317857,8.79620853 10.54,9.17838863 Z M48.2435714,36.2282464 C43.5564286,37.2352607 40.1321429,41.5241706 39.4339286,46.1527962 C38.6628571,50.7086256 39.2092857,55.9438863 42.5060714,59.4441706 C46.4767857,63.6117536 53.2039286,64.2972512 58.2735714,61.8707109 C62.5114286,59.7656872 64.8185714,54.9914692 64.7942857,50.387109 C65.0857143,46.0739336 63.8714286,41.3664455 60.3621429,38.5819905 C57.0592857,35.718673 52.3539286,35.5184834 48.2435714,36.2282464 Z M91.4175,36.1675829 C91.3203571,44.9759242 91.46,53.7842654 91.3325,62.5865403 C95.4914286,62.7745972 99.6625,62.7988626 103.8275,62.7260664 C106.225714,62.6472038 108.848571,62.5137441 110.833929,60.9850237 C113.183571,59.1408531 113.948571,55.8225592 113.2625,53.0017062 C112.679643,51.0665403 110.931071,49.8532701 109.473929,48.5914692 C110.864286,46.8504265 112.527857,44.9273934 112.2425,42.5311848 C112.115,39.1886256 109.030714,36.67109 105.837143,36.3859716 C101.046786,35.9067299 96.22,36.307109 91.4175,36.1675829 Z M125.951786,36.2282464 C121.483214,37.2109953 118.119643,41.2087204 117.293929,45.6189573 C116.340714,50.3143128 116.911429,55.7376303 120.244643,59.4199052 C123.863214,63.3023697 129.886071,64.1395261 134.749286,62.4106161 C138.859643,60.9243602 141.78,56.9327014 142.3325,52.6498578 C143.085357,47.6815166 142.138214,41.9366825 138.070357,38.5759242 C134.785714,35.6762085 130.062143,35.5366825 125.951786,36.2282464 Z M145.046429,36.0887204 C144.894643,37.6841706 144.846071,39.2856872 144.718571,40.8811374 C147.341429,40.856872 149.964286,40.8811374 152.593214,40.9721327 C152.690357,48.19109 152.66,55.4100474 152.611429,62.6350711 C154.408571,62.6836019 156.211786,62.6836019 158.008929,62.7139336 C158.148571,55.4221801 158.081786,48.1304265 158.051429,40.8447393 C160.601429,40.8447393 163.151429,40.838673 165.7075,40.7780095 C165.658929,39.2250237 165.646786,37.6659716 165.586071,36.1129858 C158.7375,36.2161137 151.888929,36.2525118 145.046429,36.0887204 Z M13.6425,36.4890995 C13.7214286,45.1943128 13.7275,53.8995261 13.6364286,62.6047393 C15.4335714,62.6896682 17.2307143,62.7018009 19.0278571,62.7442654 C19.1067857,60.1478673 18.7971429,57.5029384 19.3132143,54.936872 C20.1935714,53.1776303 21.8571429,51.9886256 23.2110714,50.6176303 C25.7428571,53.9480569 27.5521429,57.7273934 29.7864286,61.2337441 C31.3164286,63.8422749 34.8014286,62.4227488 37.2542857,62.6229384 C34.2975,57.0600948 30.4360714,52.0553555 27.1696429,46.6805687 C30.09,43.1438863 33.8785714,40.3351659 36.2282143,36.3495735 C34.3035714,36.28891 32.3425,36.0219905 30.4360714,36.4223697 C28.9060714,36.9926066 27.8860714,38.3636019 26.7932143,39.5040758 C24.3282143,42.4159242 21.6871429,45.163981 19.0521429,47.9181043 C19.1067857,44.0174408 19.0825,40.1167773 18.9914286,36.2161137 C17.2064286,36.2767773 15.4214286,36.3677725 13.6425,36.4890995 Z M69.105,36.6043602 C68.8925,45.2913744 68.9592857,53.984455 69.0746429,62.6714692 C75.2675,62.7806635 81.4603571,62.7624645 87.6471429,62.6836019 C87.6167857,61.1912796 87.635,59.6989573 87.5864286,58.2127014 C83.2332143,58.0792417 78.88,58.0853081 74.5328571,58.1338389 C74.3325,50.957346 74.4721429,43.7747867 74.4539286,36.5922275 C72.6689286,36.6104265 70.8839286,36.6164929 69.105,36.6043602 Z M169.241071,36.2707109 C169.058929,45.0729858 169.131786,53.881327 169.210714,62.6836019 C170.85,62.6775355 172.483214,62.7018009 174.1225,62.6775355 C174.171071,57.1086256 173.946429,51.5275829 174.310714,45.9647393 C177.455714,50.4174408 180.145357,55.1673934 182.980714,59.8202844 C183.6425,60.8030332 184.2375,61.9253081 185.275714,62.5744076 C186.896786,62.8595261 188.548214,62.6957346 190.181429,62.7381991 C190.236071,53.9177251 190.327143,45.0911848 190.145,36.2707109 C188.536071,36.28891 186.927143,36.2949763 185.324286,36.3374408 C185.208929,42.0519431 185.530714,47.7846445 185.051071,53.4870142 C181.608571,48.3791469 178.578929,43.0104265 175.288214,37.8054976 C174.116429,35.597346 171.262857,36.428436 169.241071,36.2707109 Z M13.0232143,66.4144076 C13.0353571,74.6221801 14.3832143,82.7389573 15.5489286,90.8375355 C18.1717857,104.589953 22.2942857,118.020853 27.2546429,131.099905 C29.24,136.086445 31.1039286,141.163981 33.7875,145.829005 C34.3157143,141.11545 34.0910714,136.371564 34.1153571,131.63981 C34.1335714,119.513175 34.1032143,107.38654 34.1335714,95.2599052 C38.3896429,95.0051185 42.6578571,95.0354502 46.92,95.2113744 C47.1142857,119.701232 46.9321429,144.19109 47.005,168.680948 C47.0778571,171.683791 48.6807143,174.32872 50.0285714,176.919052 C52.7667857,181.778199 55.6932143,186.752607 60.1739286,190.234692 C60.3925,186.886066 60.35,183.525308 60.3378571,180.170616 C60.3135714,151.889289 60.3621429,123.601896 60.3135714,95.3145024 C64.0110714,95.0111848 67.7267857,95.0111848 71.4182143,95.3205687 C71.3089286,131.70654 71.4425,168.092512 71.3575,204.472417 C71.1207143,206.692701 72.3289286,208.621801 73.7860714,210.174787 C77.3439286,214.057251 80.495,218.29763 84.1560714,222.095166 C84.3260714,179.794502 84.0892857,137.493839 84.2775,95.1931754 C88.8371429,95.0415166 93.4089286,95.0779147 97.9746429,95.187109 C98.2357143,105.111659 98.0171429,115.042275 98.09,124.966825 C98.0657143,160.351848 98.1264286,195.742938 98.0596429,231.127962 C98.175,233.481706 97.5375,236.205498 99.1525,238.201327 C100.858571,240.476209 102.8925,242.484171 104.817143,244.577062 C106.486786,242.326445 108.429643,240.288152 110.062857,238.007204 C110.918929,236.939526 110.931071,235.513934 110.973571,234.215735 C110.900714,209.125308 110.961429,184.028815 110.943214,158.938389 C111.003929,137.730427 110.821786,116.516398 111.034286,95.3145024 C116.049286,94.9990521 121.0825,95.0051185 126.0975,95.308436 C126.030714,135.322085 126.103571,175.335735 126.061071,215.349384 C126.061071,217.478673 126.109643,219.601896 126.243214,221.725118 C129.406429,218.667678 131.968571,215.076398 134.8525,211.764171 C136.018214,210.332512 137.499643,208.846256 137.445,206.856493 C137.523929,169.645498 137.311429,132.428436 137.548214,95.2174408 C141.646429,95.0597156 145.756786,94.9990521 149.848929,95.2963033 C149.970357,125.203412 149.818571,155.110521 149.848929,185.023697 C149.885357,186.728341 150.037143,188.432986 150.188929,190.13763 C154.026071,186.085308 156.539643,181.056303 159.557143,176.421611 C160.880714,174.21346 162.653571,172.011374 162.605,169.293649 C162.69,144.597536 162.422857,119.883223 162.7325,95.187109 C166.290357,95.0475829 169.854286,95.0051185 173.4,95.3448341 C173.302857,108.047773 173.381786,120.756777 173.3575,133.459716 C173.381786,137.651564 173.211786,141.849479 173.57,146.029194 C176.466071,142.747299 178.075,138.62218 179.6475,134.612322 C183.442143,124.329858 185.834286,113.598483 187.819643,102.842844 C189.902143,90.7708057 191.456429,78.6017062 192.3125,66.3840758 C132.551429,66.438673 72.7842857,66.3658768 13.0232143,66.4144076 Z" id="Shape"></path>
                <path d="M49.4032143,40.856872 C52.6453571,39.6072038 56.9378571,40.9114692 58.3221429,44.2540284 C59.7064286,47.8999052 59.8460714,52.4254028 57.6421429,55.7740284 C55.3471429,59.3895735 49.4821429,59.6200948 46.8228571,56.3321327 C44.5157143,53.5598104 44.2728571,49.6106161 45.0196429,46.2134597 C45.4992857,43.8597156 47.0353571,41.6090995 49.4032143,40.856872 Z" id="Shape"></path>
                <path d="M96.7421429,40.8265403 C99.4560714,40.8144076 102.194286,40.5778199 104.89,40.9660664 C107.160714,41.1723223 107.883214,44.6847393 105.934286,45.8434123 C103.171786,47.4267299 99.8203571,46.8564929 96.8028571,46.6199052 C96.8028571,44.6847393 96.7846429,42.7556398 96.7421429,40.8265403 Z" id="Shape"></path>
                <path d="M127.147857,40.9114692 C130.086429,39.7042654 133.899286,40.6566825 135.641786,43.3926066 C136.989643,45.6553555 137.141429,48.4094787 136.947143,50.9816114 C136.783214,53.2382938 136.012143,55.5859716 134.202857,57.0661611 C131.039643,59.8991469 125.344643,58.7890047 123.59,54.8580095 C121.446786,50.283981 121.908214,43.1681517 127.147857,40.9114692 Z" id="Shape"></path>
                <path d="M96.7603571,51.1818009 C99.875,51.2970616 103.105,50.8238863 106.1225,51.7520379 C108.648214,52.6377251 109.024643,56.665782 106.444286,57.7091943 C103.287143,58.4856872 99.9903571,58.0125118 96.7725,58.0853081 C96.8028571,55.7861611 96.7967857,53.4870142 96.7603571,51.1818009 Z" id="Shape"></path>
                <path d="M91.4539286,70.2240758 C93.2085714,70.2301422 94.9692857,70.2362085 96.73,70.2483412 C96.8514286,76.3935545 96.8453571,82.5387678 96.7239286,88.6779147 C94.9753571,88.683981 93.2267857,88.683981 91.4842857,88.6900474 C91.3021429,82.5327014 91.3325,76.3753555 91.4539286,70.2240758 Z" id="Shape"></path>
                <path d="M108.569286,70.2604739 C110.3725,70.2544076 112.175714,70.2544076 113.972857,70.2604739 C113.960714,74.8769668 113.893929,79.4873934 114.07,84.0978199 C116.844643,84.0614218 119.613214,84.0856872 122.381786,84.2434123 C122.363571,85.6447393 122.369643,87.0460664 122.375714,88.441327 C117.797857,88.8841706 113.183571,88.8356398 108.593571,88.5141232 C108.429643,82.4295735 108.466071,76.3450237 108.569286,70.2604739 Z" id="Shape"></path>
                <path d="M101.077143,77.8312796 C102.728571,76.7454028 105.387857,77.4794313 105.679286,79.6087204 C106.474643,81.8532701 103.724286,84.1463507 101.641786,83.0180095 C99.4257143,82.3749763 99.2375,78.9778199 101.077143,77.8312796 Z" id="Shape"></path>
            </g>
            <g id="#0f5ba6ff" fill="#0F5BA6">
                <path d="M0.546428571,0 L202.269643,0 C203.575,7.12796209 203.562857,14.4136493 204,21.6265403 L204,40.2381043 C202.743214,66.681327 199.428214,93.1427488 192.27,118.676019 C182.258214,155.814218 164.833214,191.132512 140.219643,220.796967 C133.796071,228.4891 126.923214,235.805118 119.673929,242.720758 C114.889643,247.337251 109.698571,251.498768 104.811071,256 L104.112857,256 C101.222857,253.518863 98.2539286,251.134787 95.2789286,248.762844 C78.7342857,234.919431 64.5028571,218.479621 52.1717857,200.82654 C26.0160714,163.112038 9.87821429,118.894408 3.46071429,73.5727014 C1.60892857,60.3055924 0.613214286,46.9414218 0,33.5651185 L0,13.1336493 C0.200357143,8.75981043 0.455357143,4.37990521 0.546428571,0 Z M6.70892857,6.8307109 C6.10785714,14.0436019 6.36285714,21.2868246 6.26571429,28.5118483 C5.93178571,51.0665403 8.31178571,73.6151659 12.8471429,95.6966825 C20.8432143,134.254408 36.7564286,171.344076 60.3621429,202.961896 C72.3714286,219.055924 86.2689286,233.845687 102.248929,246.07545 C103.056429,246.572891 103.876071,247.252322 104.877857,247.264455 C107.433929,245.669005 109.498214,243.424455 111.787143,241.489289 C126.929286,228.446635 140.213571,213.317156 151.47,196.822749 C177.048929,159.460095 191.316786,115.163602 196.216429,70.3636019 C198.4325,49.2769668 199.063929,27.9416114 196.750714,6.83677725 C133.401429,6.80037915 70.0582143,6.8064455 6.70892857,6.8307109 Z" id="Shape"></path>
                <path d="M10.54,9.17838863 C17.8317857,8.79620853 25.1357143,8.96606635 32.4335714,9.03886256 C32.5853571,13.4430332 32.5975,17.8532701 32.4517857,22.2574408 C36.9264286,22.2635071 41.4071429,22.2817062 45.8878571,22.227109 C45.7907143,17.8229384 45.8089286,13.4187678 45.9121429,9.01459716 C50.6539286,8.9357346 55.4017857,8.9357346 60.1435714,9.01459716 C60.2103571,13.4248341 60.1982143,17.8411374 60.2225,22.2574408 C63.4525,22.2635071 66.6764286,22.2756398 69.9064286,22.2817062 C70.0217857,17.8775355 69.9853571,13.4733649 69.9914286,9.06312796 C74.5328571,8.92966825 79.0803571,8.87507109 83.6217857,9.16018957 C83.6157143,13.5279621 83.5792857,17.8957346 83.7189286,22.2635071 C87.9446429,22.2695735 92.1642857,22.2695735 96.39,22.2574408 C96.3535714,17.8836019 96.3292857,13.5036967 96.475,9.13592417 C101.1075,8.87507109 105.758214,8.88113744 110.390714,9.12985782 C110.415,13.5036967 110.360357,17.8775355 110.603214,22.2513744 C114.822857,22.2938389 119.036429,22.2877725 123.256071,22.2756398 C123.468571,17.8836019 123.413929,13.4854976 123.413929,9.09345972 C127.67,8.90540284 131.932143,8.92966825 136.188214,9.05706161 C136.315714,13.4490995 136.315714,17.8472038 136.224643,22.2453081 C140.1225,22.2635071 144.020357,22.2756398 147.918214,22.2635071 C147.875714,17.8472038 147.887857,13.4309005 147.966786,9.02066351 C152.6175,8.95393365 157.274286,8.85687204 161.918929,9.15412322 C161.8825,13.5218957 161.858214,17.8896682 162.022143,22.2574408 C165.743929,22.2877725 169.465714,22.2635071 173.1875,22.2574408 C173.308929,17.8836019 173.296786,13.5036967 173.248214,9.12379147 C180.2,8.85080569 187.163929,8.92966825 194.121786,9.08132701 C194.091429,16.9069194 194.127857,24.7264455 194.0975,32.5520379 C132.915714,32.4853081 71.7339286,32.5338389 10.5460714,32.5277725 C10.5764286,24.7446445 10.5764286,16.9615166 10.54,9.17838863 Z" id="Shape"></path>
                <path d="M48.2435714,36.2282464 C52.3539286,35.5184834 57.0592857,35.718673 60.3621429,38.5819905 C63.8714286,41.3664455 65.0857143,46.0739336 64.7942857,50.387109 C64.8185714,54.9914692 62.5114286,59.7656872 58.2735714,61.8707109 C53.2039286,64.2972512 46.4767857,63.6117536 42.5060714,59.4441706 C39.2092857,55.9438863 38.6628571,50.7086256 39.4339286,46.1527962 C40.1321429,41.5241706 43.5564286,37.2352607 48.2435714,36.2282464 Z M49.4032143,40.856872 C47.0353571,41.6090995 45.4992857,43.8597156 45.0196429,46.2134597 C44.2728571,49.6106161 44.5157143,53.5598104 46.8228571,56.3321327 C49.4821429,59.6200948 55.3471429,59.3895735 57.6421429,55.7740284 C59.8460714,52.4254028 59.7064286,47.8999052 58.3221429,44.2540284 C56.9378571,40.9114692 52.6453571,39.6072038 49.4032143,40.856872 Z" id="Shape"></path>
                <path d="M91.4175,36.1675829 C96.22,36.307109 101.046786,35.9067299 105.837143,36.3859716 C109.030714,36.67109 112.115,39.1886256 112.2425,42.5311848 C112.527857,44.9273934 110.864286,46.8504265 109.473929,48.5914692 C110.931071,49.8532701 112.679643,51.0665403 113.2625,53.0017062 C113.948571,55.8225592 113.183571,59.1408531 110.833929,60.9850237 C108.848571,62.5137441 106.225714,62.6472038 103.8275,62.7260664 C99.6625,62.7988626 95.4914286,62.7745972 91.3325,62.5865403 C91.46,53.7842654 91.3203571,44.9759242 91.4175,36.1675829 Z M96.7421429,40.8265403 C96.7846429,42.7556398 96.8028571,44.6847393 96.8028571,46.6199052 C99.8203571,46.8564929 103.171786,47.4267299 105.934286,45.8434123 C107.883214,44.6847393 107.160714,41.1723223 104.89,40.9660664 C102.194286,40.5778199 99.4560714,40.8144076 96.7421429,40.8265403 Z M96.7603571,51.1818009 C96.7967857,53.4870142 96.8028571,55.7861611 96.7725,58.0853081 C99.9903571,58.0125118 103.287143,58.4856872 106.444286,57.7091943 C109.024643,56.665782 108.648214,52.6377251 106.1225,51.7520379 C103.105,50.8238863 99.875,51.2970616 96.7603571,51.1818009 Z" id="Shape"></path>
                <path d="M125.951786,36.2282464 C130.062143,35.5366825 134.785714,35.6762085 138.070357,38.5759242 C142.138214,41.9366825 143.085357,47.6815166 142.3325,52.6498578 C141.78,56.9327014 138.859643,60.9243602 134.749286,62.4106161 C129.886071,64.1395261 123.863214,63.3023697 120.244643,59.4199052 C116.911429,55.7376303 116.340714,50.3143128 117.293929,45.6189573 C118.119643,41.2087204 121.483214,37.2109953 125.951786,36.2282464 Z M127.147857,40.9114692 C121.908214,43.1681517 121.446786,50.283981 123.59,54.8580095 C125.344643,58.7890047 131.039643,59.8991469 134.202857,57.0661611 C136.012143,55.5859716 136.783214,53.2382938 136.947143,50.9816114 C137.141429,48.4094787 136.989643,45.6553555 135.641786,43.3926066 C133.899286,40.6566825 130.086429,39.7042654 127.147857,40.9114692 Z" id="Shape"></path>
                <path d="M145.046429,36.0887204 C151.888929,36.2525118 158.7375,36.2161137 165.586071,36.1129858 C165.646786,37.6659716 165.658929,39.2250237 165.7075,40.7780095 C163.151429,40.838673 160.601429,40.8447393 158.051429,40.8447393 C158.081786,48.1304265 158.148571,55.4221801 158.008929,62.7139336 C156.211786,62.6836019 154.408571,62.6836019 152.611429,62.6350711 C152.66,55.4100474 152.690357,48.19109 152.593214,40.9721327 C149.964286,40.8811374 147.341429,40.856872 144.718571,40.8811374 C144.846071,39.2856872 144.894643,37.6841706 145.046429,36.0887204 Z" id="Shape"></path>
                <path d="M13.6425,36.4890995 C15.4214286,36.3677725 17.2064286,36.2767773 18.9914286,36.2161137 C19.0825,40.1167773 19.1067857,44.0174408 19.0521429,47.9181043 C21.6871429,45.163981 24.3282143,42.4159242 26.7932143,39.5040758 C27.8860714,38.3636019 28.9060714,36.9926066 30.4360714,36.4223697 C32.3425,36.0219905 34.3035714,36.28891 36.2282143,36.3495735 C33.8785714,40.3351659 30.09,43.1438863 27.1696429,46.6805687 C30.4360714,52.0553555 34.2975,57.0600948 37.2542857,62.6229384 C34.8014286,62.4227488 31.3164286,63.8422749 29.7864286,61.2337441 C27.5521429,57.7273934 25.7428571,53.9480569 23.2110714,50.6176303 C21.8571429,51.9886256 20.1935714,53.1776303 19.3132143,54.936872 C18.7971429,57.5029384 19.1067857,60.1478673 19.0278571,62.7442654 C17.2307143,62.7018009 15.4335714,62.6896682 13.6364286,62.6047393 C13.7275,53.8995261 13.7214286,45.1943128 13.6425,36.4890995 Z" id="Shape"></path>
                <path d="M69.105,36.6043602 C70.8839286,36.6164929 72.6689286,36.6104265 74.4539286,36.5922275 C74.4721429,43.7747867 74.3325,50.957346 74.5328571,58.1338389 C78.88,58.0853081 83.2332143,58.0792417 87.5864286,58.2127014 C87.635,59.6989573 87.6167857,61.1912796 87.6471429,62.6836019 C81.4603571,62.7624645 75.2675,62.7806635 69.0746429,62.6714692 C68.9592857,53.984455 68.8925,45.2913744 69.105,36.6043602 Z" id="Shape"></path>
                <path d="M169.241071,36.2707109 C171.262857,36.428436 174.116429,35.597346 175.288214,37.8054976 C178.578929,43.0104265 181.608571,48.3791469 185.051071,53.4870142 C185.530714,47.7846445 185.208929,42.0519431 185.324286,36.3374408 C186.927143,36.2949763 188.536071,36.28891 190.145,36.2707109 C190.327143,45.0911848 190.236071,53.9177251 190.181429,62.7381991 C188.548214,62.6957346 186.896786,62.8595261 185.275714,62.5744076 C184.2375,61.9253081 183.6425,60.8030332 182.980714,59.8202844 C180.145357,55.1673934 177.455714,50.4174408 174.310714,45.9647393 C173.946429,51.5275829 174.171071,57.1086256 174.1225,62.6775355 C172.483214,62.7018009 170.85,62.6775355 169.210714,62.6836019 C169.131786,53.881327 169.058929,45.0729858 169.241071,36.2707109 Z" id="Shape"></path>
                <path d="M13.0232143,66.4144076 C72.7842857,66.3658768 132.551429,66.438673 192.3125,66.3840758 C191.456429,78.6017062 189.902143,90.7708057 187.819643,102.842844 C185.834286,113.598483 183.442143,124.329858 179.6475,134.612322 C178.075,138.62218 176.466071,142.747299 173.57,146.029194 C173.211786,141.849479 173.381786,137.651564 173.3575,133.459716 C173.381786,120.756777 173.302857,108.047773 173.4,95.3448341 C169.854286,95.0051185 166.290357,95.0475829 162.7325,95.187109 C162.422857,119.883223 162.69,144.597536 162.605,169.293649 C162.653571,172.011374 160.880714,174.21346 159.557143,176.421611 C156.539643,181.056303 154.026071,186.085308 150.188929,190.13763 C150.037143,188.432986 149.885357,186.728341 149.848929,185.023697 C149.818571,155.110521 149.970357,125.203412 149.848929,95.2963033 C145.756786,94.9990521 141.646429,95.0597156 137.548214,95.2174408 C137.311429,132.428436 137.523929,169.645498 137.445,206.856493 C137.499643,208.846256 136.018214,210.332512 134.8525,211.764171 C131.968571,215.076398 129.406429,218.667678 126.243214,221.725118 C126.109643,219.601896 126.061071,217.478673 126.061071,215.349384 C126.103571,175.335735 126.030714,135.322085 126.0975,95.308436 C121.0825,95.0051185 116.049286,94.9990521 111.034286,95.3145024 C110.821786,116.516398 111.003929,137.730427 110.943214,158.938389 C110.961429,184.028815 110.900714,209.125308 110.973571,234.215735 C110.931071,235.513934 110.918929,236.939526 110.062857,238.007204 C108.429643,240.288152 106.486786,242.326445 104.817143,244.577062 C102.8925,242.484171 100.858571,240.476209 99.1525,238.201327 C97.5375,236.205498 98.175,233.481706 98.0596429,231.127962 C98.1264286,195.742938 98.0657143,160.351848 98.09,124.966825 C98.0171429,115.042275 98.2357143,105.111659 97.9746429,95.187109 C93.4089286,95.0779147 88.8371429,95.0415166 84.2775,95.1931754 C84.0892857,137.493839 84.3260714,179.794502 84.1560714,222.095166 C80.495,218.29763 77.3439286,214.057251 73.7860714,210.174787 C72.3289286,208.621801 71.1207143,206.692701 71.3575,204.472417 C71.4425,168.092512 71.3089286,131.70654 71.4182143,95.3205687 C67.7267857,95.0111848 64.0110714,95.0111848 60.3135714,95.3145024 C60.3621429,123.601896 60.3135714,151.889289 60.3378571,180.170616 C60.35,183.525308 60.3925,186.886066 60.1739286,190.234692 C55.6932143,186.752607 52.7667857,181.778199 50.0285714,176.919052 C48.6807143,174.32872 47.0778571,171.683791 47.005,168.680948 C46.9321429,144.19109 47.1142857,119.701232 46.92,95.2113744 C42.6578571,95.0354502 38.3896429,95.0051185 34.1335714,95.2599052 C34.1032143,107.38654 34.1335714,119.513175 34.1153571,131.63981 C34.0910714,136.371564 34.3157143,141.11545 33.7875,145.829005 C31.1039286,141.163981 29.24,136.086445 27.2546429,131.099905 C22.2942857,118.020853 18.1717857,104.589953 15.5489286,90.8375355 C14.3832143,82.7389573 13.0353571,74.6221801 13.0232143,66.4144076 Z M91.4539286,70.2240758 C91.3325,76.3753555 91.3021429,82.5327014 91.4842857,88.6900474 C93.2267857,88.683981 94.9753571,88.683981 96.7239286,88.6779147 C96.8453571,82.5387678 96.8514286,76.3935545 96.73,70.2483412 C94.9692857,70.2362085 93.2085714,70.2301422 91.4539286,70.2240758 Z M108.569286,70.2604739 C108.466071,76.3450237 108.429643,82.4295735 108.593571,88.5141232 C113.183571,88.8356398 117.797857,88.8841706 122.375714,88.441327 C122.369643,87.0460664 122.363571,85.6447393 122.381786,84.2434123 C119.613214,84.0856872 116.844643,84.0614218 114.07,84.0978199 C113.893929,79.4873934 113.960714,74.8769668 113.972857,70.2604739 C112.175714,70.2544076 110.3725,70.2544076 108.569286,70.2604739 Z M101.077143,77.8312796 C99.2375,78.9778199 99.4257143,82.3749763 101.641786,83.0180095 C103.724286,84.1463507 106.474643,81.8532701 105.679286,79.6087204 C105.387857,77.4794313 102.728571,76.7454028 101.077143,77.8312796 Z" id="Shape"></path>
            </g>
        </g>
    </g>
</svg>