<?xml version="1.0" encoding="UTF-8" ?>
<!DOCTYPE svg PUBLIC "-//W3C//DTD SVG 1.1//EN" "http://www.w3.org/Graphics/SVG/1.1/DTD/svg11.dtd">
<svg width="336pt" height="422pt" viewBox="0 0 336 422" version="1.1" xmlns="http://www.w3.org/2000/svg">
<g id="#fefefeff">
<path fill="#fefefe" opacity="1.00" d=" M 0.00 0.00 L 0.90 0.00 C 0.75 7.22 0.33 14.44 0.00 21.65 L 0.00 0.00 Z" />
<path fill="#fefefe" opacity="1.00" d=" M 333.15 0.00 L 336.00 0.00 L 336.00 35.65 C 335.28 23.76 335.30 11.75 333.15 0.00 Z" />
<path fill="#fefefe" opacity="1.00" d=" M 11.05 11.26 C 115.39 11.22 219.72 11.21 324.06 11.27 C 327.87 46.06 326.83 81.23 323.18 115.99 C 315.11 189.84 291.61 262.86 249.48 324.45 C 230.94 351.64 209.06 376.58 184.12 398.08 C 180.35 401.27 176.95 404.97 172.74 407.60 C 171.09 407.58 169.74 406.46 168.41 405.64 C 142.09 385.48 119.20 361.10 99.42 334.57 C 60.54 282.45 34.33 221.31 21.16 157.75 C 13.69 121.35 9.77 84.18 10.32 47.00 C 10.48 35.09 10.06 23.15 11.05 11.26 M 17.36 15.13 C 17.42 27.96 17.42 40.79 17.37 53.62 C 118.15 53.63 218.92 53.55 319.69 53.66 C 319.74 40.76 319.68 27.87 319.73 14.97 C 308.27 14.72 296.80 14.59 285.35 15.04 C 285.43 22.26 285.45 29.48 285.25 36.69 C 279.12 36.70 272.99 36.74 266.86 36.69 C 266.59 29.49 266.63 22.29 266.69 15.09 C 259.04 14.60 251.37 14.76 243.71 14.87 C 243.58 22.14 243.56 29.42 243.63 36.70 C 237.21 36.72 230.79 36.70 224.37 36.67 C 224.52 29.42 224.52 22.17 224.31 14.93 C 217.30 14.72 210.28 14.68 203.27 14.99 C 203.27 22.23 203.36 29.48 203.01 36.72 C 196.06 36.74 189.12 36.75 182.17 36.68 C 181.77 29.47 181.86 22.26 181.82 15.05 C 174.19 14.64 166.53 14.63 158.90 15.06 C 158.66 22.26 158.70 29.48 158.76 36.69 C 151.80 36.71 144.85 36.71 137.89 36.70 C 137.66 29.50 137.72 22.30 137.73 15.10 C 130.25 14.63 122.76 14.72 115.28 14.94 C 115.27 22.21 115.33 29.47 115.14 36.73 C 109.82 36.72 104.51 36.70 99.19 36.69 C 99.15 29.41 99.17 22.13 99.06 14.86 C 91.25 14.73 83.43 14.73 75.62 14.86 C 75.45 22.12 75.42 29.38 75.58 36.64 C 68.20 36.73 60.82 36.70 53.45 36.69 C 53.69 29.43 53.67 22.16 53.42 14.90 C 41.40 14.78 29.37 14.50 17.36 15.13 M 79.46 59.72 C 71.74 61.38 66.10 68.45 64.95 76.08 C 63.68 83.59 64.58 92.22 70.01 97.99 C 76.55 104.86 87.63 105.99 95.98 101.99 C 102.96 98.52 106.76 90.65 106.72 83.06 C 107.20 75.95 105.20 68.19 99.42 63.60 C 93.98 58.88 86.23 58.55 79.46 59.72 M 150.57 59.62 C 150.41 74.14 150.64 88.66 150.43 103.17 C 157.28 103.48 164.15 103.52 171.01 103.40 C 174.96 103.27 179.28 103.05 182.55 100.53 C 186.42 97.49 187.68 92.02 186.55 87.37 C 185.59 84.18 182.71 82.18 180.31 80.10 C 182.60 77.23 185.34 74.06 184.87 70.11 C 184.66 64.60 179.58 60.45 174.32 59.98 C 166.43 59.19 158.48 59.85 150.57 59.62 M 207.45 59.72 C 200.09 61.34 194.55 67.93 193.19 75.20 C 191.62 82.94 192.56 91.88 198.05 97.95 C 204.01 104.35 213.93 105.73 221.94 102.88 C 228.71 100.43 233.52 93.85 234.43 86.79 C 235.67 78.60 234.11 69.13 227.41 63.59 C 222.00 58.81 214.22 58.58 207.45 59.72 M 238.90 59.49 C 238.65 62.12 238.57 64.76 238.36 67.39 C 242.68 67.35 247.00 67.39 251.33 67.54 C 251.49 79.44 251.44 91.34 251.36 103.25 C 254.32 103.33 257.29 103.33 260.25 103.38 C 260.48 91.36 260.37 79.34 260.32 67.33 C 264.52 67.33 268.72 67.32 272.93 67.22 C 272.85 64.66 272.83 62.09 272.73 59.53 C 261.45 59.70 250.17 59.76 238.90 59.49 M 22.47 60.15 C 22.60 74.50 22.61 88.85 22.46 103.20 C 25.42 103.34 28.38 103.36 31.34 103.43 C 31.47 99.15 30.96 94.79 31.81 90.56 C 33.26 87.66 36.00 85.70 38.23 83.44 C 42.40 88.93 45.38 95.16 49.06 100.94 C 51.58 105.24 57.32 102.90 61.36 103.23 C 56.49 94.06 50.13 85.81 44.75 76.95 C 49.56 71.12 55.80 66.49 59.67 59.92 C 56.50 59.82 53.27 59.38 50.13 60.04 C 47.61 60.98 45.93 63.24 44.13 65.12 C 40.07 69.92 35.72 74.45 31.38 78.99 C 31.47 72.56 31.43 66.13 31.28 59.70 C 28.34 59.80 25.40 59.95 22.47 60.15 M 113.82 60.34 C 113.47 74.66 113.58 88.99 113.77 103.31 C 123.97 103.49 134.17 103.46 144.36 103.33 C 144.31 100.87 144.34 98.41 144.26 95.96 C 137.09 95.74 129.92 95.75 122.76 95.83 C 122.43 84.00 122.66 72.16 122.63 60.32 C 119.69 60.35 116.75 60.36 113.82 60.34 M 278.75 59.79 C 278.45 74.30 278.57 88.82 278.70 103.33 C 281.40 103.32 284.09 103.36 286.79 103.32 C 286.87 94.14 286.50 84.94 287.10 75.77 C 292.28 83.11 296.71 90.94 301.38 98.61 C 302.47 100.23 303.45 102.08 305.16 103.15 C 307.83 103.62 310.55 103.35 313.24 103.42 C 313.33 88.88 313.48 74.33 313.18 59.79 C 310.53 59.82 307.88 59.83 305.24 59.90 C 305.05 69.32 305.58 78.77 304.79 88.17 C 299.12 79.75 294.13 70.90 288.71 62.32 C 286.78 58.68 282.08 60.05 278.75 59.79 M 21.45 109.48 C 21.47 123.01 23.69 136.39 25.61 149.74 C 29.93 172.41 36.72 194.55 44.89 216.11 C 48.16 224.33 51.23 232.70 55.65 240.39 C 56.52 232.62 56.15 224.80 56.19 217.00 C 56.22 197.01 56.17 177.02 56.22 157.03 C 63.23 156.61 70.26 156.66 77.28 156.95 C 77.60 197.32 77.30 237.69 77.42 278.06 C 77.54 283.01 80.18 287.37 82.40 291.64 C 86.91 299.65 91.73 307.85 99.11 313.59 C 99.47 308.07 99.40 302.53 99.38 297.00 C 99.34 250.38 99.42 203.75 99.34 157.12 C 105.43 156.62 111.55 156.62 117.63 157.13 C 117.45 217.11 117.67 277.09 117.53 337.06 C 117.14 340.72 119.13 343.90 121.53 346.46 C 127.39 352.86 132.58 359.85 138.61 366.11 C 138.89 296.38 138.50 226.65 138.81 156.92 C 146.32 156.67 153.85 156.73 161.37 156.91 C 161.80 173.27 161.44 189.64 161.56 206.00 C 161.52 264.33 161.62 322.67 161.51 381.00 C 161.70 384.88 160.65 389.37 163.31 392.66 C 166.12 396.41 169.47 399.72 172.64 403.17 C 175.39 399.46 178.59 396.10 181.28 392.34 C 182.69 390.58 182.71 388.23 182.78 386.09 C 182.66 344.73 182.76 303.36 182.73 262.00 C 182.83 227.04 182.53 192.07 182.88 157.12 C 191.14 156.60 199.43 156.61 207.69 157.11 C 207.58 223.07 207.70 289.03 207.63 354.99 C 207.63 358.50 207.71 362.00 207.93 365.50 C 213.14 360.46 217.36 354.54 222.11 349.08 C 224.03 346.72 226.47 344.27 226.38 340.99 C 226.51 279.65 226.16 218.30 226.55 156.96 C 233.30 156.70 240.07 156.60 246.81 157.09 C 247.01 206.39 246.76 255.69 246.81 305.00 C 246.87 307.81 247.12 310.62 247.37 313.43 C 253.69 306.75 257.83 298.46 262.80 290.82 C 264.98 287.18 267.90 283.55 267.82 279.07 C 267.96 238.36 267.52 197.62 268.03 156.91 C 273.89 156.68 279.76 156.61 285.60 157.17 C 285.44 178.11 285.57 199.06 285.53 220.00 C 285.57 226.91 285.29 233.83 285.88 240.72 C 290.65 235.31 293.30 228.51 295.89 221.90 C 302.14 204.95 306.08 187.26 309.35 169.53 C 312.78 149.63 315.34 129.57 316.75 109.43 C 218.32 109.52 119.88 109.40 21.45 109.48 Z" />
<path fill="#fefefe" opacity="1.00" d=" M 81.37 67.35 C 86.71 65.29 93.78 67.44 96.06 72.95 C 98.34 78.96 98.57 86.42 94.94 91.94 C 91.16 97.90 81.50 98.28 77.12 92.86 C 73.32 88.29 72.92 81.78 74.15 76.18 C 74.94 72.30 77.47 68.59 81.37 67.35 Z" />
<path fill="#fefefe" opacity="1.00" d=" M 159.34 67.30 C 163.81 67.28 168.32 66.89 172.76 67.53 C 176.50 67.87 177.69 73.66 174.48 75.57 C 169.93 78.18 164.41 77.24 159.44 76.85 C 159.44 73.66 159.41 70.48 159.34 67.30 Z" />
<path fill="#fefefe" opacity="1.00" d=" M 209.42 67.44 C 214.26 65.45 220.54 67.02 223.41 71.53 C 225.63 75.26 225.88 79.80 225.56 84.04 C 225.29 87.76 224.02 91.63 221.04 94.07 C 215.83 98.74 206.45 96.91 203.56 90.43 C 200.03 82.89 200.79 71.16 209.42 67.44 Z" />
<path fill="#fefefe" opacity="1.00" d=" M 159.37 84.37 C 164.50 84.56 169.82 83.78 174.79 85.31 C 178.95 86.77 179.57 93.41 175.32 95.13 C 170.12 96.41 164.69 95.63 159.39 95.75 C 159.44 91.96 159.43 88.17 159.37 84.37 Z" />
<path fill="#fefefe" opacity="1.00" d=" M 150.63 115.76 C 153.52 115.77 156.42 115.78 159.32 115.80 C 159.52 125.93 159.51 136.06 159.31 146.18 C 156.43 146.19 153.55 146.19 150.68 146.20 C 150.38 136.05 150.43 125.90 150.63 115.76 Z" />
<path fill="#fefefe" opacity="1.00" d=" M 178.82 115.82 C 181.79 115.81 184.76 115.81 187.72 115.82 C 187.70 123.43 187.59 131.03 187.88 138.63 C 192.45 138.57 197.01 138.61 201.57 138.87 C 201.54 141.18 201.55 143.49 201.56 145.79 C 194.02 146.52 186.42 146.44 178.86 145.91 C 178.59 135.88 178.65 125.85 178.82 115.82 Z" />
<path fill="#fefefe" opacity="1.00" d=" M 166.48 128.30 C 169.20 126.51 173.58 127.72 174.06 131.23 C 175.37 134.93 170.84 138.71 167.41 136.85 C 163.76 135.79 163.45 130.19 166.48 128.30 Z" />
</g>
<g id="#0f5ba6ff">
<path fill="#0f5ba6" opacity="1.00" d=" M 0.90 0.00 L 333.15 0.00 C 335.30 11.75 335.28 23.76 336.00 35.65 L 336.00 66.33 C 333.93 109.92 328.47 153.54 316.68 195.63 C 300.19 256.85 271.49 315.07 230.95 363.97 C 220.37 376.65 209.05 388.71 197.11 400.11 C 189.23 407.72 180.68 414.58 172.63 422.00 L 171.48 422.00 C 166.72 417.91 161.83 413.98 156.93 410.07 C 129.68 387.25 106.24 360.15 85.93 331.05 C 42.85 268.88 16.27 195.99 5.70 121.28 C 2.65 99.41 1.01 77.38 0.00 55.33 L 0.00 21.65 C 0.33 14.44 0.75 7.22 0.90 0.00 M 11.05 11.26 C 10.06 23.15 10.48 35.09 10.32 47.00 C 9.77 84.18 13.69 121.35 21.16 157.75 C 34.33 221.31 60.54 282.45 99.42 334.57 C 119.20 361.10 142.09 385.48 168.41 405.64 C 169.74 406.46 171.09 407.58 172.74 407.60 C 176.95 404.97 180.35 401.27 184.12 398.08 C 209.06 376.58 230.94 351.64 249.48 324.45 C 291.61 262.86 315.11 189.84 323.18 115.99 C 326.83 81.23 327.87 46.06 324.06 11.27 C 219.72 11.21 115.39 11.22 11.05 11.26 Z" />
<path fill="#0f5ba6" opacity="1.00" d=" M 17.36 15.13 C 29.37 14.50 41.40 14.78 53.42 14.90 C 53.67 22.16 53.69 29.43 53.45 36.69 C 60.82 36.70 68.20 36.73 75.58 36.64 C 75.42 29.38 75.45 22.12 75.62 14.86 C 83.43 14.73 91.25 14.73 99.06 14.86 C 99.17 22.13 99.15 29.41 99.19 36.69 C 104.51 36.70 109.82 36.72 115.14 36.73 C 115.33 29.47 115.27 22.21 115.28 14.94 C 122.76 14.72 130.25 14.63 137.73 15.10 C 137.72 22.30 137.66 29.50 137.89 36.70 C 144.85 36.71 151.80 36.71 158.76 36.69 C 158.70 29.48 158.66 22.26 158.90 15.06 C 166.53 14.63 174.19 14.64 181.82 15.05 C 181.86 22.26 181.77 29.47 182.17 36.68 C 189.12 36.75 196.06 36.74 203.01 36.72 C 203.36 29.48 203.27 22.23 203.27 14.99 C 210.28 14.68 217.30 14.72 224.31 14.93 C 224.52 22.17 224.52 29.42 224.37 36.67 C 230.79 36.70 237.21 36.72 243.63 36.70 C 243.56 29.42 243.58 22.14 243.71 14.87 C 251.37 14.76 259.04 14.60 266.69 15.09 C 266.63 22.29 266.59 29.49 266.86 36.69 C 272.99 36.74 279.12 36.70 285.25 36.69 C 285.45 29.48 285.43 22.26 285.35 15.04 C 296.80 14.59 308.27 14.72 319.73 14.97 C 319.68 27.87 319.74 40.76 319.69 53.66 C 218.92 53.55 118.15 53.63 17.37 53.62 C 17.42 40.79 17.42 27.96 17.36 15.13 Z" />
<path fill="#0f5ba6" opacity="1.00" d=" M 79.46 59.72 C 86.23 58.55 93.98 58.88 99.42 63.60 C 105.20 68.19 107.20 75.95 106.72 83.06 C 106.76 90.65 102.96 98.52 95.98 101.99 C 87.63 105.99 76.55 104.86 70.01 97.99 C 64.58 92.22 63.68 83.59 64.95 76.08 C 66.10 68.45 71.74 61.38 79.46 59.72 M 81.37 67.35 C 77.47 68.59 74.94 72.30 74.15 76.18 C 72.92 81.78 73.32 88.29 77.12 92.86 C 81.50 98.28 91.16 97.90 94.94 91.94 C 98.57 86.42 98.34 78.96 96.06 72.95 C 93.78 67.44 86.71 65.29 81.37 67.35 Z" />
<path fill="#0f5ba6" opacity="1.00" d=" M 150.57 59.62 C 158.48 59.85 166.43 59.19 174.32 59.98 C 179.58 60.45 184.66 64.60 184.87 70.11 C 185.34 74.06 182.60 77.23 180.31 80.10 C 182.71 82.18 185.59 84.18 186.55 87.37 C 187.68 92.02 186.42 97.49 182.55 100.53 C 179.28 103.05 174.96 103.27 171.01 103.40 C 164.15 103.52 157.28 103.48 150.43 103.17 C 150.64 88.66 150.41 74.14 150.57 59.62 M 159.34 67.30 C 159.41 70.48 159.44 73.66 159.44 76.85 C 164.41 77.24 169.93 78.18 174.48 75.57 C 177.69 73.66 176.50 67.87 172.76 67.53 C 168.32 66.89 163.81 67.28 159.34 67.30 M 159.37 84.37 C 159.43 88.17 159.44 91.96 159.39 95.75 C 164.69 95.63 170.12 96.41 175.32 95.13 C 179.57 93.41 178.95 86.77 174.79 85.31 C 169.82 83.78 164.50 84.56 159.37 84.37 Z" />
<path fill="#0f5ba6" opacity="1.00" d=" M 207.45 59.72 C 214.22 58.58 222.00 58.81 227.41 63.59 C 234.11 69.13 235.67 78.60 234.43 86.79 C 233.52 93.85 228.71 100.43 221.94 102.88 C 213.93 105.73 204.01 104.35 198.05 97.95 C 192.56 91.88 191.62 82.94 193.19 75.20 C 194.55 67.93 200.09 61.34 207.45 59.72 M 209.42 67.44 C 200.79 71.16 200.03 82.89 203.56 90.43 C 206.45 96.91 215.83 98.74 221.04 94.07 C 224.02 91.63 225.29 87.76 225.56 84.04 C 225.88 79.80 225.63 75.26 223.41 71.53 C 220.54 67.02 214.26 65.45 209.42 67.44 Z" />
<path fill="#0f5ba6" opacity="1.00" d=" M 238.90 59.49 C 250.17 59.76 261.45 59.70 272.73 59.53 C 272.83 62.09 272.85 64.66 272.93 67.22 C 268.72 67.32 264.52 67.33 260.32 67.33 C 260.37 79.34 260.48 91.36 260.25 103.38 C 257.29 103.33 254.32 103.33 251.36 103.25 C 251.44 91.34 251.49 79.44 251.33 67.54 C 247.00 67.39 242.68 67.35 238.36 67.39 C 238.57 64.76 238.65 62.12 238.90 59.49 Z" />
<path fill="#0f5ba6" opacity="1.00" d=" M 22.47 60.15 C 25.40 59.95 28.34 59.80 31.28 59.70 C 31.43 66.13 31.47 72.56 31.38 78.99 C 35.72 74.45 40.07 69.92 44.13 65.12 C 45.93 63.24 47.61 60.98 50.13 60.04 C 53.27 59.38 56.50 59.82 59.67 59.92 C 55.80 66.49 49.56 71.12 44.75 76.95 C 50.13 85.81 56.49 94.06 61.36 103.23 C 57.32 102.90 51.58 105.24 49.06 100.94 C 45.38 95.16 42.40 88.93 38.23 83.44 C 36.00 85.70 33.26 87.66 31.81 90.56 C 30.96 94.79 31.47 99.15 31.34 103.43 C 28.38 103.36 25.42 103.34 22.46 103.20 C 22.61 88.85 22.60 74.50 22.47 60.15 Z" />
<path fill="#0f5ba6" opacity="1.00" d=" M 113.82 60.34 C 116.75 60.36 119.69 60.35 122.63 60.32 C 122.66 72.16 122.43 84.00 122.76 95.83 C 129.92 95.75 137.09 95.74 144.26 95.96 C 144.34 98.41 144.31 100.87 144.36 103.33 C 134.17 103.46 123.97 103.49 113.77 103.31 C 113.58 88.99 113.47 74.66 113.82 60.34 Z" />
<path fill="#0f5ba6" opacity="1.00" d=" M 278.75 59.79 C 282.08 60.05 286.78 58.68 288.71 62.32 C 294.13 70.90 299.12 79.75 304.79 88.17 C 305.58 78.77 305.05 69.32 305.24 59.90 C 307.88 59.83 310.53 59.82 313.18 59.79 C 313.48 74.33 313.33 88.88 313.24 103.42 C 310.55 103.35 307.83 103.62 305.16 103.15 C 303.45 102.08 302.47 100.23 301.38 98.61 C 296.71 90.94 292.28 83.11 287.10 75.77 C 286.50 84.94 286.87 94.14 286.79 103.32 C 284.09 103.36 281.40 103.32 278.70 103.33 C 278.57 88.82 278.45 74.30 278.75 59.79 Z" />
<path fill="#0f5ba6" opacity="1.00" d=" M 21.45 109.48 C 119.88 109.40 218.32 109.52 316.75 109.43 C 315.34 129.57 312.78 149.63 309.35 169.53 C 306.08 187.26 302.14 204.95 295.89 221.90 C 293.30 228.51 290.65 235.31 285.88 240.72 C 285.29 233.83 285.57 226.91 285.53 220.00 C 285.57 199.06 285.44 178.11 285.60 157.17 C 279.76 156.61 273.89 156.68 268.03 156.91 C 267.52 197.62 267.96 238.36 267.82 279.07 C 267.90 283.55 264.98 287.18 262.80 290.82 C 257.83 298.46 253.69 306.75 247.37 313.43 C 247.12 310.62 246.87 307.81 246.81 305.00 C 246.76 255.69 247.01 206.39 246.81 157.09 C 240.07 156.60 233.30 156.70 226.55 156.96 C 226.16 218.30 226.51 279.65 226.38 340.99 C 226.47 344.27 224.03 346.72 222.11 349.08 C 217.36 354.54 213.14 360.46 207.93 365.50 C 207.71 362.00 207.63 358.50 207.63 354.99 C 207.70 289.03 207.58 223.07 207.69 157.11 C 199.43 156.61 191.14 156.60 182.88 157.12 C 182.53 192.07 182.83 227.04 182.73 262.00 C 182.76 303.36 182.66 344.73 182.78 386.09 C 182.71 388.23 182.69 390.58 181.28 392.34 C 178.59 396.10 175.39 399.46 172.64 403.17 C 169.47 399.72 166.12 396.41 163.31 392.66 C 160.65 389.37 161.70 384.88 161.51 381.00 C 161.62 322.67 161.52 264.33 161.56 206.00 C 161.44 189.64 161.80 173.27 161.37 156.91 C 153.85 156.73 146.32 156.67 138.81 156.92 C 138.50 226.65 138.89 296.38 138.61 366.11 C 132.58 359.85 127.39 352.86 121.53 346.46 C 119.13 343.90 117.14 340.72 117.53 337.06 C 117.67 277.09 117.45 217.11 117.63 157.13 C 111.55 156.62 105.43 156.62 99.34 157.12 C 99.42 203.75 99.34 250.38 99.38 297.00 C 99.40 302.53 99.47 308.07 99.11 313.59 C 91.73 307.85 86.91 299.65 82.40 291.64 C 80.18 287.37 77.54 283.01 77.42 278.06 C 77.30 237.69 77.60 197.32 77.28 156.95 C 70.26 156.66 63.23 156.61 56.22 157.03 C 56.17 177.02 56.22 197.01 56.19 217.00 C 56.15 224.80 56.52 232.62 55.65 240.39 C 51.23 232.70 48.16 224.33 44.89 216.11 C 36.72 194.55 29.93 172.41 25.61 149.74 C 23.69 136.39 21.47 123.01 21.45 109.48 M 150.63 115.76 C 150.43 125.90 150.38 136.05 150.68 146.20 C 153.55 146.19 156.43 146.19 159.31 146.18 C 159.51 136.06 159.52 125.93 159.32 115.80 C 156.42 115.78 153.52 115.77 150.63 115.76 M 178.82 115.82 C 178.65 125.85 178.59 135.88 178.86 145.91 C 186.42 146.44 194.02 146.52 201.56 145.79 C 201.55 143.49 201.54 141.18 201.57 138.87 C 197.01 138.61 192.45 138.57 187.88 138.63 C 187.59 131.03 187.70 123.43 187.72 115.82 C 184.76 115.81 181.79 115.81 178.82 115.82 M 166.48 128.30 C 163.45 130.19 163.76 135.79 167.41 136.85 C 170.84 138.71 175.37 134.93 174.06 131.23 C 173.58 127.72 169.20 126.51 166.48 128.30 Z" />
</g>
</svg>
