<?xml version="1.0" encoding="UTF-8"?>
<svg width="256px" height="256px" viewBox="0 0 256 256" version="1.1" xmlns="http://www.w3.org/2000/svg" xmlns:xlink="http://www.w3.org/1999/xlink">
    <!-- Generator: Sketch 50.2 (55047) - http://www.bohemiancoding.com/sketch -->
    <title>logo/koll</title>
    <desc>Created with Sketch.</desc>
    <defs></defs>
    <g id="logo/koll" stroke="none" stroke-width="1" fill="none" fill-rule="evenodd">
        <g id="koll" transform="translate(40.000000, 0.000000)" fill-rule="nonzero">
            <g id="#fefefdff" transform="translate(6.314991, 4.857685)" fill="#FEFEFD">
                <path d="M30.5305503,0.888956357 C32.6533586,0.621783681 34.7421632,0.0728652751 36.8989753,0.16516129 C58.7537002,0.170018975 80.6035674,0.14573055 102.458292,0.17487666 C103.969032,5.29001898 105.29518,10.4780266 107.432562,15.3794307 C112.081366,26.2023529 118.134042,36.5977989 126.464972,45.0015939 C128.510057,47.3187097 130.608577,49.5823909 132.619658,51.9335104 C144.74444,64.0582922 152.749905,79.9429222 156.563188,96.5804934 C156.869222,98.1058065 156.971233,99.669981 157.374421,101.175863 C158.180797,104.639393 157.971917,108.214649 158.292524,111.721898 C158.812296,113.805844 158.622846,115.957799 158.214801,118.041746 C158.122505,121.733586 157.787324,125.405996 157.588159,129.092979 C157.024668,131.346945 156.699203,133.64463 156.704061,135.976319 C154.581252,150.539658 151.418899,165.073852 145.871423,178.757951 C144.545275,182.104896 142.58277,185.165237 141.373207,188.560759 C140.897154,189.50315 141.465503,190.683567 142.335028,191.174194 C143.189981,191.295636 144.054649,191.295636 144.919317,191.339355 C150.165617,184.077116 154.192638,176.023074 157.79704,167.842732 C159.502087,163.786565 161.284858,159.740114 162.460417,155.494497 C162.635294,156.767211 162.946186,158.020493 162.912182,159.317495 C162.878178,176.329108 162.91704,193.345579 162.897609,210.357192 C162.217533,222.754004 154.595825,234.412448 143.709753,240.30482 C138.992941,242.981404 133.605769,244.268691 128.267173,244.929336 C85.6312713,244.943909 42.99537,244.948767 0.354611006,244.929336 C0.276888046,176.076509 0.340037951,107.228539 0.325464896,38.3805693 C0.17487666,30.5402657 2.4288425,22.607666 6.95134725,16.1712334 C12.4113852,8.25806452 21.0337761,2.54056926 30.5305503,0.888956357 Z M108.501252,158.666565 C108.345806,159.51666 108.146641,160.361898 108.161214,161.236281 C108.136926,177.062619 108.180645,192.888956 108.141784,208.715294 C114.08759,208.749298 120.033397,208.739583 125.979203,208.720152 C125.96463,206.461328 126.241518,204.153928 125.571157,201.958254 C122.136774,202.006831 118.702391,201.96797 115.268008,201.963112 C115.224288,187.550361 115.282581,173.137609 115.234004,158.724858 C112.989753,158.651992 110.745503,158.700569 108.501252,158.666565 Z M53.5851233,158.375104 C51.2485769,159.045465 49.5581025,160.94482 48.1202277,162.800455 C45.3416319,166.948918 45.0793169,172.064061 44.1903605,176.824592 C43.8988994,180.696167 44.1660721,184.59203 44.0689184,188.478178 C43.9134725,192.024288 44.8607211,195.478102 45.4096395,198.956205 C46.2160152,201.963112 47.3770019,205.101176 49.7864137,207.204554 C53.7745731,210.439772 60.0895636,210.750664 64.1165844,207.413435 C68.6050854,203.362125 69.474611,197.013131 70.2421252,191.34907 C70.3587097,186.335939 70.2858444,181.317951 70.2858444,176.30482 C70.3587097,174.167438 69.6009108,172.132068 69.4357495,170.018975 C68.673093,165.166148 66.1762429,159.812979 61.0902467,158.311954 C58.6225427,157.933055 56.043112,157.874763 53.5851233,158.375104 Z M12.3093738,159.030892 C12.0324858,160.735939 11.9596205,162.465275 12.0033397,164.194611 C12.105351,179.039696 11.8673245,193.889639 12.1199241,208.729867 C14.3496015,208.734725 16.5841366,208.725009 18.813814,208.739583 C19.5133207,200.72926 18.6875142,192.65093 19.2655787,184.630892 C23.1808729,192.544061 26.4889564,200.758406 30.5062619,208.613283 C32.9933966,208.890171 35.5048197,208.705579 37.9968121,208.671575 C36.6560911,204.945731 34.5818596,201.545351 32.9933966,197.926376 C30.6325617,192.607211 27.8636812,187.477495 25.4688425,182.172903 C27.9705503,177.397799 30.3896774,172.578975 32.8525237,167.779583 C34.2369639,164.898975 35.8788615,162.130095 36.9475522,159.108615 C34.6158634,159.016319 32.2841746,159.074611 29.9524858,159.026034 C26.0566224,166.06482 23.0302846,173.55537 19.2558634,180.662163 C18.6777989,173.467932 19.5570398,166.205693 18.7603795,159.030892 C16.6132827,159.050323 14.4613283,159.05518 12.3093738,159.030892 Z M80.9533207,164.194611 C80.9678937,179.034839 80.9387476,193.875066 80.9727514,208.715294 C86.9185579,208.759013 92.8643643,208.725009 98.8150285,208.729867 C98.8538899,206.58277 98.8587476,204.440531 98.7810247,202.293435 C95.2106262,202.30315 91.6450854,202.274004 88.0795446,202.278861 C88.0309677,190.392106 88.0746869,178.505351 88.0552562,166.618596 C88.0163947,164.078027 88.273852,161.508311 87.7249336,159.001746 C85.5924099,159.074611 83.4550285,159.074611 81.3273624,159.001746 C80.8755977,160.69222 80.9338899,162.45556 80.9533207,164.194611 Z M36.7678178,215.579203 C36.5735104,217.060797 36.2577609,218.542391 36.3014801,220.048273 C36.3549146,225.425731 36.2917647,230.803188 36.3306262,236.180645 C38.9197723,236.248653 41.5089184,236.185503 44.1029222,236.238937 C44.2049336,235.170247 44.1563567,234.091841 43.9814801,233.032865 C42.4901708,233.066869 40.9940038,233.052296 39.5026945,233.028008 C39.4978368,227.213359 39.5512713,221.39871 39.4541176,215.584061 C38.5603036,215.579203 37.6616319,215.579203 36.7678178,215.579203 Z M110.148008,215.574345 C110.055712,222.452827 110.114004,229.331309 110.118861,236.209791 C112.484554,236.224364 114.855104,236.229222 117.225655,236.195218 C117.225655,235.155674 117.215939,234.116129 117.196509,233.076584 C115.899507,233.062011 114.602505,233.052296 113.305503,233.042581 C113.072334,227.227932 113.747552,221.354991 112.853738,215.579203 C111.950209,215.579203 111.046679,215.574345 110.148008,215.574345 Z M9.0401518,215.856091 C8.78755218,218.644402 9.93396584,221.238406 10.2691461,223.95871 C10.9395066,227.937154 11.9353321,231.857306 12.353093,235.869753 C13.2663378,236.04463 14.6216319,236.676129 15.1608349,235.539431 C16.0643643,233.848956 15.8457685,231.871879 16.239241,230.050247 C17.3613662,225.386869 17.7694118,220.582619 18.9352562,215.928956 C18.0560152,215.890095 17.1816319,215.860949 16.3072486,215.841518 C15.6563188,218.003188 15.1996964,220.213435 15.1122581,222.477116 C15.0248197,224.862239 13.9804175,227.038482 13.4752182,229.341025 C13.5335104,224.794231 12.1879317,220.427173 11.8624668,215.914383 C10.9200759,215.89981 9.97768501,215.88038 9.0401518,215.856091 Z M47.9404934,215.870664 C47.6927514,222.549981 47.9016319,229.243871 47.8287666,235.932903 C50.136167,235.98148 52.448425,235.966907 54.7558254,235.971765 C54.7558254,235.408273 54.7606831,234.276433 54.7606831,233.712941 C53.3082353,233.717799 51.8557875,233.722657 50.4033397,233.712941 C50.1313093,227.762277 50.4859203,221.801898 50.2041746,215.851233 C49.4512334,215.860949 48.6934345,215.865806 47.9404934,215.870664 Z M121.16038,215.851233 C120.558027,219.324478 120.917495,222.860873 120.830057,226.368121 C120.912638,229.656774 120.543454,232.979431 121.184668,236.229222 C123.492068,236.214649 125.799469,236.204934 128.111727,236.23408 C128.476053,235.31112 128.417761,234.334725 128.170019,233.397192 C126.790436,233.348615 125.410854,233.319469 124.031271,233.261176 C123.370626,227.499962 123.938975,221.67074 123.686376,215.885237 C122.841139,215.875522 122.000759,215.865806 121.16038,215.851233 Z M25.2551044,215.870664 C22.7339658,217.153093 21.8110057,220.276584 21.9713093,222.943454 C22.0344592,225.984364 21.7818596,229.044706 22.1413283,232.071044 C22.7291082,233.814953 23.6229222,236.093207 25.7408729,236.302087 C27.0475901,236.336091 28.6409108,236.656698 29.6804554,235.660873 C31.9829981,233.824668 32.308463,230.599165 32.3910436,227.854573 C32.3181784,224.255028 32.8816698,220.194004 30.6617078,217.089943 C29.4521442,215.297457 27.1010247,215.758937 25.2551044,215.870664 Z M58.603112,215.972676 C58.1756357,222.588843 58.5982543,229.248729 58.3990892,235.879469 C60.7599241,236.336091 63.1887666,236.355522 65.5641746,235.971765 C65.4427324,235.286831 65.4815939,234.548463 65.1512713,233.926679 C63.7619734,233.853814 62.3726755,233.88296 60.9882353,233.863529 C60.8959393,231.444402 60.91537,229.025275 60.9590892,226.611006 C62.4601139,226.567287 63.9611385,226.562429 65.4621632,226.552713 C65.4475901,225.790057 65.4330171,225.0274 65.4281594,224.269602 C63.9271347,224.264744 62.4261101,224.245313 60.9250854,224.211309 C60.9396584,222.282808 60.9250854,220.34945 60.9639469,218.420949 C62.4503985,218.416091 63.9417078,218.411233 65.4281594,218.416091 C65.4330171,217.561139 65.4281594,216.711044 65.4233017,215.865806 C63.1499051,215.928956 60.8716509,215.758937 58.603112,215.972676 Z M68.503074,215.914383 C69.1540038,219.581935 70.5870209,223.045465 71.5779886,226.620721 C72.6466793,229.515901 72.0297533,232.658824 72.1463378,235.665731 C72.4426565,235.830892 73.0450095,236.161214 73.3413283,236.321518 C73.6862239,236.185503 74.3662998,235.913472 74.7111954,235.777457 C74.7014801,233.338899 74.4683112,230.866338 74.9200759,228.452068 C75.5224288,224.157875 77.6743833,220.22315 78.1504364,215.909526 C77.3051992,215.885237 76.4648197,215.865806 75.6244402,215.856091 C74.9735104,218.289791 74.1768501,220.699203 73.9971157,223.230057 C73.6036433,223.176622 73.2150285,223.108615 72.8264137,223.030892 C72.6563947,220.553472 71.9860342,218.168349 71.1359393,215.846376 C70.2566983,215.865806 69.3774573,215.890095 68.503074,215.914383 Z M81.8957116,222.967742 C81.9540038,227.179355 81.7985579,231.395825 81.9491461,235.607438 C82.1240228,235.738596 82.4689184,236.005769 82.6437951,236.141784 C85.2183681,236.277799 88.3564326,236.714991 90.2557875,234.53389 C92.0531309,232.964858 91.7956736,230.443719 91.6013662,228.30148 C91.2224668,227.164782 90.2800759,226.32926 89.7020114,225.294573 C91.1787476,223.176622 91.7228083,220.34945 90.6298292,217.949753 C88.6916129,215.316888 85.1163567,215.958102 82.2843264,215.831803 C81.6333966,218.153776 81.9588615,220.587476 81.8957116,222.967742 Z M98.9218975,215.885237 C97.3868691,222.53055 95.9441366,229.205009 94.72,235.908615 C95.6526755,235.937761 96.585351,235.962049 97.5228843,235.976622 C97.5277419,234.820493 97.5325996,233.664364 97.542315,232.513093 C99.1016319,232.187628 100.704668,231.930171 102.288273,232.284782 C102.618596,233.518634 102.973207,234.747628 103.371537,235.962049 C104.352789,235.952334 105.334042,235.942619 106.320152,235.932903 C105.144592,232.168197 104.542239,228.257761 103.585275,224.43962 C102.876053,221.559013 102.604023,218.527818 101.273017,215.841518 C100.49093,215.856091 99.7039848,215.870664 98.9218975,215.885237 Z" id="Shape"></path>
                <path d="M107.315977,0.199165085 C112.994611,0.11658444 118.678102,0.179734345 124.356736,0.160303605 C132.138748,-0.0291461101 140.037343,2.07908918 146.517495,6.46072106 C155.669374,12.4065275 161.722049,22.6708159 162.85389,33.4888805 C162.946186,38.2251233 162.897609,42.9710816 162.878178,47.7073245 C159.113472,48.023074 155.431347,47.1632638 151.763795,46.4588994 C143.394004,44.4818216 135.850019,39.9058824 129.471879,34.2321063 C121.004934,26.3626565 114.413055,16.6035674 109.516509,6.16440228 C108.63241,4.24075901 107.70945,2.29768501 107.315977,0.199165085 Z M146.954687,27.4799241 C144.307249,28.4125996 141.72296,30.0739279 140.508539,32.6922201 C139.736167,34.6110057 140.513397,36.8503985 142.028994,38.1814042 C144.326679,40.8434156 147.799924,41.9558254 151.117723,42.718482 C154.071195,43.335408 157.228691,42.4124478 159.545806,40.5325237 C161.450019,38.570019 161.333435,35.5533966 160.852524,33.0565465 C158.564554,27.9851233 152.064972,25.9448956 146.954687,27.4799241 Z" id="Shape"></path>
                <path d="M56.057685,164.393776 C57.4421252,164.248046 59.1617457,164.014877 60.0992789,165.297306 C61.872334,167.395825 62.411537,170.247287 62.7612903,172.899583 C62.6835674,177.456091 63.8348387,181.964023 63.1644782,186.515674 C62.4989753,189.867476 63.2179127,193.350436 62.2900949,196.668235 C61.6828843,198.795901 61.2408349,201.234459 59.4677799,202.735484 C57.816167,203.707021 55.3338899,203.502998 54.2020493,201.817381 C51.8995066,198.29556 51.7683491,193.938216 51.6614801,189.867476 C51.1951423,187.322049 51.122277,184.71833 51.3408729,182.138899 C52.079241,178.286755 51.4331689,174.279165 52.5310057,170.480455 C53.143074,168.255636 53.8085769,165.447894 56.057685,164.393776 Z" id="Shape"></path>
                <path d="M24.9442125,221.495863 C24.9102087,219.936546 26.1440607,218.794991 27.2078937,217.833169 C30.0399241,220.194004 29.4667173,224.10444 29.4910057,227.363947 C29.6270209,229.870512 28.9906641,232.517951 27.2127514,234.373586 C26.3043643,233.314611 24.8276281,232.352789 24.9344972,230.783757 C24.8956357,227.689412 24.8810626,224.590209 24.9442125,221.495863 Z" id="Shape"></path>
                <path d="M84.7471727,218.974725 C85.0677799,218.799848 85.713852,218.450095 86.0344592,218.275218 C87.5354839,218.770702 88.983074,220.218292 88.628463,221.913624 C88.1184061,223.390361 86.5493738,223.900417 85.2863757,224.541632 C84.557723,222.768577 84.7957495,220.835218 84.7471727,218.974725 Z" id="Shape"></path>
                <path d="M99.9905882,221.340417 C100.830968,223.740114 101.724782,226.198102 101.690778,228.782391 C101.151575,229.923947 99.7574194,229.399317 98.766436,229.593624 C98.7615939,226.785882 99.8934345,224.143302 99.9905882,221.340417 Z" id="Shape"></path>
                <path d="M84.8297533,226.387552 C86.2870588,226.489564 88.0261101,227.014194 88.6527514,228.452068 C88.7304744,229.846224 89.2308159,231.726148 87.9289564,232.7074 C87.0740038,233.440911 85.8644402,233.382619 84.8248956,233.606072 C84.7471727,231.201518 84.7666034,228.792106 84.8297533,226.387552 Z" id="Shape"></path>
            </g>
            <g id="#2b3d74ff" fill="#2B3D74">
                <path d="M34.0377989,0 L141.926983,0 C145.885996,1.93821632 150.185047,3.14777989 153.954611,5.47461101 C160.065579,9.24417457 165.243871,14.5001898 168.945427,20.6451613 C170.975939,23.9581025 172.166072,27.6790892 173.905123,31.1377609 L173.905123,224.114156 C171.743454,228.898975 169.907249,233.921822 166.647742,238.109146 C161.207135,245.687135 153.167666,251.326907 144.258672,254.052068 C141.650095,255.14019 138.837495,255.591954 136.024896,255.572524 C93.5978748,255.577381 51.1708539,255.577381 8.74383302,255.572524 C5.82922201,255.548235 2.89032258,255.737685 0,255.251917 L0,254.732144 C1.24842505,252.779355 0.723795066,250.403947 0.820948767,248.227704 C0.806375712,178.597647 0.811233397,108.972448 0.816091082,39.3423909 C0.743225806,36.3257685 1.57874763,33.4111575 2.24910816,30.5014042 C4.93540797,20.5285769 11.7944592,12.0227704 20.2614042,6.27612903 C24.4730171,3.42466793 29.3258444,1.80220114 34.0377989,0 Z M36.8455408,5.74664137 C27.3487666,7.39825427 18.7263757,13.1157495 13.2663378,21.0289184 C8.74383302,27.465351 6.48986717,35.3979507 6.64045541,43.2382543 C6.65502846,112.086224 6.59187856,180.934194 6.66960152,249.787021 C49.3103605,249.806452 91.9462619,249.801594 134.582163,249.787021 C139.920759,249.126376 145.307932,247.839089 150.024744,245.162505 C160.910816,239.270133 168.532524,227.611689 169.2126,215.214877 C169.23203,198.203264 169.193169,181.186793 169.227173,164.17518 C169.261176,162.878178 168.950285,161.624896 168.775408,160.352182 C167.599848,164.597799 165.817078,168.64425 164.11203,172.700417 C160.507628,180.880759 156.480607,188.934801 151.234307,196.19704 C150.369639,196.153321 149.504972,196.153321 148.650019,196.031879 C147.780493,195.541252 147.212144,194.360835 147.688197,193.418444 C148.897761,190.022922 150.860266,186.962581 152.186414,183.615636 C157.73389,169.931537 160.896243,155.397343 163.019051,140.834004 C163.014194,138.502315 163.339658,136.20463 163.90315,133.950664 C164.102315,130.263681 164.437495,126.591271 164.529791,122.899431 C164.937837,120.815484 165.127287,118.663529 164.607514,116.579583 C164.286907,113.072334 164.495787,109.497078 163.689412,106.033548 C163.286224,104.527666 163.184213,102.963491 162.878178,101.438178 C159.064896,84.8006072 151.059431,68.9159772 138.934649,56.7911954 C136.923567,54.4400759 134.825047,52.1763947 132.779962,49.8592789 C124.449032,41.4554839 118.396357,31.060038 113.747552,20.2371157 C111.610171,15.3357116 110.284023,10.147704 108.773283,5.03256167 C86.9185579,5.00341556 65.0686907,5.02770398 43.2139658,5.0228463 C41.0571537,4.93055028 38.9683491,5.47946869 36.8455408,5.74664137 Z M113.630968,5.05685009 C114.02444,7.15537002 114.9474,9.09844402 115.831499,11.0220873 C120.728046,21.4612524 127.319924,31.2203416 135.786869,39.0897913 C142.165009,44.7635674 149.708994,49.3395066 158.078786,51.3165844 C161.746338,52.0209488 165.428463,52.880759 169.193169,52.5650095 C169.2126,47.8287666 169.261176,43.0828083 169.16888,38.3465655 C168.03704,27.5285009 161.984364,17.2642125 152.832486,11.3184061 C146.352334,6.93677419 138.453738,4.8285389 130.671727,5.01798861 C124.993093,5.03741935 119.309602,4.97426945 113.630968,5.05685009 Z" id="Shape"></path>
                <path d="M153.269677,32.3376091 C158.379962,30.8025806 164.879545,32.8428083 167.167514,37.9142315 C167.648425,40.4110816 167.765009,43.427704 165.860797,45.3902087 C163.543681,47.2701328 160.386186,48.193093 157.432713,47.576167 C154.114915,46.8135104 150.64167,45.7011006 148.343985,43.0390892 C146.828387,41.7080835 146.051157,39.4686907 146.823529,37.5499051 C148.037951,34.9316129 150.622239,33.2702846 153.269677,32.3376091 Z" id="Shape"></path>
                <path d="M114.816243,163.52425 C117.060493,163.558254 119.304744,163.509677 121.548994,163.582543 C121.597571,177.995294 121.539279,192.408046 121.582998,206.820797 C125.017381,206.825655 128.451765,206.864516 131.886148,206.815939 C132.556509,209.011613 132.27962,211.319013 132.294194,213.577837 C126.348387,213.597268 120.402581,213.606983 114.456774,213.572979 C114.495636,197.746641 114.451917,181.920304 114.476205,166.093966 C114.461632,165.219583 114.660797,164.374345 114.816243,163.52425 Z" id="Shape"></path>
                <path d="M59.9001139,163.232789 C62.3581025,162.732448 64.9375332,162.79074 67.4052372,163.169639 C72.4912334,164.670664 74.9880835,170.023833 75.75074,174.87666 C75.9159013,176.989753 76.6737002,179.025123 76.6008349,181.162505 C76.6008349,186.175636 76.6737002,191.193624 76.5571157,196.206755 C75.7896015,201.870816 74.9200759,208.21981 70.431575,212.27112 C66.4045541,215.608349 60.0895636,215.297457 56.1014042,212.062239 C53.6919924,209.958861 52.5310057,206.820797 51.72463,203.81389 C51.1757116,200.335787 50.228463,196.881973 50.3839089,193.335863 C50.4810626,189.449715 50.2138899,185.553852 50.505351,181.682277 C51.3943074,176.921746 51.6566224,171.806603 54.4352182,167.65814 C55.873093,165.802505 57.5635674,163.90315 59.9001139,163.232789 Z M62.3726755,169.251461 C60.1235674,170.305579 59.4580645,173.113321 58.8459962,175.33814 C57.7481594,179.13685 58.3942315,183.14444 57.6558634,186.996584 C57.4372676,189.576015 57.5101328,192.179734 57.9764706,194.725161 C58.0833397,198.795901 58.2144972,203.153245 60.5170398,206.675066 C61.6488805,208.360683 64.1311575,208.564706 65.7827704,207.593169 C67.5558254,206.092144 67.9978748,203.653586 68.6050854,201.52592 C69.5329032,198.208121 68.8139658,194.725161 69.4794687,191.373359 C70.1498292,186.821708 68.9985579,182.313776 69.0762808,177.757268 C68.7265275,175.104972 68.1873245,172.25351 66.4142694,170.154991 C65.4767362,168.872562 63.7571157,169.105731 62.3726755,169.251461 Z" id="Shape"></path>
                <path d="M18.6243643,163.888577 C20.7763188,163.912865 22.9282732,163.908008 25.07537,163.888577 C25.8720304,171.063378 24.9927894,178.325617 25.5708539,185.519848 C29.3452751,178.413055 32.3716129,170.922505 36.2674763,163.883719 C38.5991651,163.932296 40.9308539,163.874004 43.2625427,163.9663 C42.193852,166.98778 40.5519545,169.75666 39.1675142,172.637268 C36.7046679,177.43666 34.2855408,182.255484 31.783833,187.030588 C34.1786717,192.33518 36.9475522,197.464896 39.3083871,202.784061 C40.8968501,206.403036 42.9710816,209.803416 44.3118027,213.52926 C41.8198102,213.563264 39.3083871,213.747856 36.8212524,213.470968 C32.8039469,205.616091 29.4958634,197.401746 25.5805693,189.488577 C25.0025047,197.508615 25.8283112,205.586945 25.1288046,213.597268 C22.8991271,213.582694 20.664592,213.59241 18.4349146,213.587552 C18.182315,198.747324 18.4203416,183.897381 18.3183302,169.052296 C18.274611,167.32296 18.3474763,165.593624 18.6243643,163.888577 Z" id="Shape"></path>
                <path d="M87.2683112,169.052296 C87.2488805,167.313245 87.1905882,165.549905 87.6423529,163.859431 C89.770019,163.932296 91.9074004,163.932296 94.0399241,163.859431 C94.5888425,166.365996 94.3313852,168.935712 94.3702467,171.476281 C94.3896774,183.363036 94.3459583,195.249791 94.3945351,207.136546 C97.9600759,207.131689 101.525617,207.160835 105.096015,207.15112 C105.173738,209.298216 105.16888,211.440455 105.130019,213.587552 C99.1793548,213.582694 93.2335484,213.616698 87.2877419,213.572979 C87.2537381,198.732751 87.2828843,183.892524 87.2683112,169.052296 Z" id="Shape"></path>
                <path d="M43.0828083,220.436888 C43.9766224,220.436888 44.8752941,220.436888 45.7691082,220.441746 C45.8662619,226.256395 45.8128273,232.071044 45.817685,237.885693 C47.3089943,237.909981 48.8051613,237.924554 50.2964706,237.89055 C50.4713472,238.949526 50.5199241,240.027932 50.4179127,241.096622 C47.8239089,241.043188 45.2347628,241.106338 42.6456167,241.03833 C42.6067552,235.660873 42.6699051,230.283416 42.6164706,224.905958 C42.5727514,223.400076 42.8885009,221.918482 43.0828083,220.436888 Z" id="Shape"></path>
                <path d="M116.462998,220.43203 C117.36167,220.43203 118.265199,220.436888 119.168729,220.436888 C120.062543,226.212676 119.387324,232.085617 119.620493,237.900266 C120.917495,237.909981 122.214497,237.919696 123.511499,237.934269 C123.53093,238.973814 123.540645,240.013359 123.540645,241.052903 C121.170095,241.086907 118.799545,241.082049 116.433852,241.067476 C116.428994,234.188994 116.370702,227.310512 116.462998,220.43203 Z" id="Shape"></path>
                <path d="M15.3551423,220.713776 C16.2926755,220.738065 17.2350664,220.757495 18.1774573,220.772068 C18.5029222,225.284858 19.8485009,229.651917 19.7902087,234.19871 C20.295408,231.896167 21.3398102,229.719924 21.4272486,227.334801 C21.5146869,225.07112 21.9713093,222.860873 22.6222391,220.699203 C23.4966224,220.718634 24.3710057,220.74778 25.2502467,220.786641 C24.0844023,225.440304 23.6763567,230.244554 22.5542315,234.907932 C22.160759,236.729564 22.3793548,238.706641 21.4758254,240.397116 C20.9366224,241.533814 19.5813283,240.902315 18.6680835,240.727438 C18.2503226,236.714991 17.2544972,232.794839 16.5841366,228.816395 C16.2489564,226.096091 15.1025427,223.502087 15.3551423,220.713776 Z" id="Shape"></path>
                <path d="M54.2554839,220.728349 C55.008425,220.723491 55.7662239,220.718634 56.5191651,220.708918 C56.8009108,226.659583 56.4462998,232.619962 56.7183302,238.570626 C58.170778,238.580342 59.6232258,238.575484 61.0756736,238.570626 C61.0756736,239.134118 61.0708159,240.265958 61.0708159,240.82945 C58.7634156,240.824592 56.4511575,240.839165 54.1437571,240.790588 C54.2166224,234.101556 54.0077419,227.407666 54.2554839,220.728349 Z" id="Shape"></path>
                <path d="M127.47537,220.708918 C128.31575,220.723491 129.156129,220.733207 130.001366,220.742922 C130.253966,226.528425 129.685617,232.357647 130.346262,238.118861 C131.725844,238.177154 133.105427,238.2063 134.485009,238.254877 C134.732751,239.19241 134.791044,240.168805 134.426717,241.091765 C132.114459,241.062619 129.807059,241.072334 127.499658,241.086907 C126.858444,237.837116 127.227628,234.514459 127.145047,231.225806 C127.232486,227.718558 126.873017,224.182163 127.47537,220.708918 Z" id="Shape"></path>
                <path d="M31.5700949,220.728349 C33.4160152,220.616622 35.7671347,220.155142 36.9766983,221.947628 C39.1966603,225.051689 38.6331689,229.112713 38.7060342,232.712258 C38.6234535,235.45685 38.2979886,238.682353 35.9954459,240.518558 C34.9559013,241.514383 33.3625806,241.193776 32.0558634,241.159772 C29.9379127,240.950892 29.0440987,238.672638 28.4563188,236.928729 C28.0968501,233.902391 28.3494497,230.842049 28.2862998,227.801139 C28.1259962,225.134269 29.0489564,222.010778 31.5700949,220.728349 Z M31.259203,226.353548 C31.1960531,229.447894 31.2106262,232.547097 31.2494877,235.641442 C31.1426186,237.210474 32.6193548,238.172296 33.5277419,239.231271 C35.3056546,237.375636 35.9420114,234.728197 35.8059962,232.221632 C35.7817078,228.962125 36.3549146,225.051689 33.5228843,222.690854 C32.4590512,223.652676 31.2251992,224.794231 31.259203,226.353548 Z" id="Shape"></path>
                <path d="M64.9181025,220.830361 C67.1866414,220.616622 69.4648956,220.786641 71.7382922,220.723491 C71.7431499,221.568729 71.7480076,222.418824 71.7431499,223.273776 C70.2566983,223.268918 68.765389,223.273776 67.2789374,223.278634 C67.2400759,225.207135 67.254649,227.140493 67.2400759,229.068994 C68.7411006,229.102998 70.2421252,229.122429 71.7431499,229.127287 C71.7480076,229.885085 71.7625806,230.647742 71.7771537,231.410398 C70.276129,231.420114 68.7751044,231.424972 67.2740797,231.468691 C67.2303605,233.88296 67.2109298,236.302087 67.3032258,238.721214 C68.687666,238.740645 70.0769639,238.711499 71.4662619,238.784364 C71.7965844,239.406148 71.757723,240.144516 71.8791651,240.82945 C69.5037571,241.213207 67.0749146,241.193776 64.7140797,240.737154 C64.9132448,234.106414 64.4906262,227.446528 64.9181025,220.830361 Z" id="Shape"></path>
                <path d="M74.8180645,220.772068 C75.6924478,220.74778 76.5716888,220.723491 77.4509298,220.704061 C78.3010247,223.026034 78.9713852,225.411157 79.1414042,227.888577 C79.530019,227.9663 79.9186338,228.034307 80.3121063,228.087742 C80.4918406,225.556888 81.2885009,223.147476 81.9394307,220.713776 C82.7798102,220.723491 83.6201898,220.742922 84.4654269,220.767211 C83.9893738,225.080835 81.8374194,229.01556 81.2350664,233.309753 C80.7833017,235.724023 81.0164706,238.196584 81.026186,240.635142 C80.6812903,240.771157 80.0012144,241.043188 79.6563188,241.179203 C79.36,241.018899 78.7576471,240.688577 78.4613283,240.523416 C78.3447438,237.516509 78.9616698,234.373586 77.8929791,231.478406 C76.9020114,227.90315 75.4689943,224.43962 74.8180645,220.772068 Z" id="Shape"></path>
                <path d="M88.2107021,227.825427 C88.273852,225.445161 87.9483871,223.011461 88.5993169,220.689488 C91.4313472,220.815787 95.0066034,220.174573 96.9448197,222.807438 C98.0377989,225.207135 97.4937381,228.034307 96.0170019,230.152258 C96.5950664,231.186945 97.5374573,232.022467 97.9163567,233.159165 C98.1106641,235.301404 98.3681214,237.822543 96.570778,239.391575 C94.6714231,241.572676 91.5333586,241.135484 88.9587856,240.999469 C88.7839089,240.863454 88.4390133,240.596281 88.2641366,240.465123 C88.1135484,236.25351 88.2689943,232.03704 88.2107021,227.825427 Z M91.0621632,223.83241 C91.11074,225.692903 90.8727135,227.626262 91.6013662,229.399317 C92.8643643,228.758102 94.4333966,228.248046 94.9434535,226.771309 C95.2980645,225.075977 93.8504744,223.628387 92.3494497,223.132903 C92.0288425,223.30778 91.3827704,223.657533 91.0621632,223.83241 Z M91.1447438,231.245237 C91.0815939,233.649791 91.0621632,236.059203 91.1398861,238.463757 C92.1794307,238.240304 93.3889943,238.298596 94.2439469,237.565085 C95.5458065,236.583833 95.0454649,234.703909 94.9677419,233.309753 C94.3411006,231.871879 92.6020493,231.347249 91.1447438,231.245237 Z" id="Shape"></path>
                <path d="M105.236888,220.742922 C106.018975,220.728349 106.80592,220.713776 107.588008,220.699203 C108.919013,223.385503 109.191044,226.416698 109.900266,229.297306 C110.85723,233.115446 111.459583,237.025882 112.635142,240.790588 C111.649032,240.800304 110.66778,240.810019 109.686528,240.819734 C109.288197,239.605313 108.933586,238.376319 108.603264,237.142467 C107.019658,236.787856 105.416622,237.045313 103.857306,237.370778 C103.84759,238.522049 103.842732,239.678178 103.837875,240.834307 C102.900342,240.819734 101.967666,240.795446 101.034991,240.7663 C102.259127,234.062694 103.70186,227.388235 105.236888,220.742922 Z M106.305579,226.198102 C106.208425,229.000987 105.076584,231.643567 105.081427,234.451309 C106.07241,234.257002 107.466565,234.781632 108.005769,233.640076 C108.039772,231.055787 107.145958,228.597799 106.305579,226.198102 Z" id="Shape"></path>
            </g>
        </g>
    </g>
</svg>