<?xml version="1.0" encoding="UTF-8" ?>
<!DOCTYPE svg PUBLIC "-//W3C//DTD SVG 1.1//EN" "http://www.w3.org/Graphics/SVG/1.1/DTD/svg11.dtd">
<svg width="221pt" height="224pt" viewBox="0 0 221 224" version="1.1" xmlns="http://www.w3.org/2000/svg">
<g id="#fefefeff">
<path fill="#fefefe" opacity="1.00" d=" M 22.98 39.96 C 47.42 21.30 78.47 12.37 109.02 12.52 C 109.03 16.81 109.05 21.09 109.09 25.38 C 102.72 25.79 94.95 26.24 90.81 31.80 C 88.16 37.45 89.00 45.73 94.76 49.18 C 99.39 52.16 104.63 53.99 109.47 56.59 C 109.23 59.77 109.05 62.94 108.90 66.12 C 108.25 66.15 106.94 66.22 106.28 66.25 C 106.05 63.07 105.83 59.89 105.63 56.70 C 100.67 56.75 95.71 56.94 90.76 57.27 C 91.42 61.75 91.28 66.92 94.52 70.48 C 98.43 74.03 104.04 74.56 109.08 74.89 C 109.08 78.62 109.07 82.35 109.05 86.09 C 96.67 85.88 85.40 93.97 79.23 104.29 C 74.17 112.16 73.71 121.91 75.26 130.89 C 76.49 139.28 82.18 146.18 88.50 151.47 C 94.40 156.23 101.79 158.71 109.28 159.39 C 108.91 166.26 109.07 173.14 109.28 180.01 C 109.26 189.17 109.00 198.32 108.51 207.47 C 89.10 201.51 72.06 189.43 57.93 175.06 C 35.95 152.27 20.87 122.83 15.44 91.62 C 13.65 81.17 13.55 70.50 14.11 59.93 C 14.50 55.36 14.88 50.70 16.41 46.35 C 17.85 43.59 20.61 41.85 22.98 39.96 M 71.11 29.26 C 68.83 35.24 67.20 41.44 64.77 47.37 C 63.61 41.93 62.69 36.44 61.78 30.95 C 55.82 31.88 49.91 33.11 44.04 34.47 C 47.32 49.84 51.38 65.03 55.04 80.32 C 60.01 79.40 64.95 78.37 69.91 77.48 C 68.97 71.30 67.65 65.17 66.98 58.95 C 70.74 64.42 74.22 70.09 77.42 75.91 C 82.60 75.58 87.76 74.96 92.92 74.48 C 89.40 67.64 85.77 60.85 81.72 54.30 C 80.69 52.30 78.87 50.16 79.85 47.78 C 82.07 40.97 85.08 34.44 87.40 27.65 C 81.95 27.94 76.53 28.61 71.11 29.26 M 25.03 65.21 C 25.84 67.80 26.66 70.38 27.47 72.97 C 34.37 70.99 41.18 68.69 48.13 66.85 C 47.62 64.22 47.08 61.59 46.55 58.97 C 39.19 60.36 32.10 62.79 25.03 65.21 M 86.18 173.11 C 85.03 174.78 85.24 176.97 84.86 178.88 C 87.12 177.79 88.86 176.00 90.38 174.04 C 89.73 180.06 86.22 185.14 84.56 190.86 C 87.81 190.98 91.06 191.02 94.32 191.06 C 94.31 190.29 94.31 188.75 94.30 187.99 C 93.45 187.87 91.75 187.63 90.90 187.51 C 92.53 183.82 94.90 180.20 94.95 176.05 C 94.98 171.74 88.86 170.35 86.18 173.11 M 99.44 172.36 C 97.24 173.23 97.15 175.89 96.96 177.89 C 96.86 181.66 96.52 185.61 97.81 189.22 C 100.12 192.37 106.83 192.09 107.44 187.64 C 108.01 183.59 107.98 179.43 107.43 175.38 C 106.92 171.86 102.20 170.94 99.44 172.36 Z" />
<path fill="#fefefe" opacity="1.00" d=" M 107.02 34.47 C 107.54 34.41 108.59 34.29 109.11 34.23 C 108.71 36.32 108.30 38.41 107.86 40.49 C 107.42 38.51 107.16 36.49 107.02 34.47 Z" />
<path fill="#fefefe" opacity="1.00" d=" M 106.61 88.51 C 112.03 86.10 118.08 88.33 123.43 89.90 C 119.77 92.35 116.00 94.72 112.91 97.89 C 105.96 105.00 101.52 114.20 98.89 123.70 C 98.19 126.00 97.72 128.42 96.58 130.57 C 93.55 132.89 89.44 132.90 85.84 133.63 C 84.76 123.84 85.87 113.58 90.77 104.90 C 94.45 98.16 99.98 92.38 106.61 88.51 Z" />
<path fill="#fefefe" opacity="1.00" d=" M 78.02 134.95 C 70.35 116.31 82.75 93.01 102.37 88.72 C 98.79 92.68 94.61 96.14 91.63 100.62 C 88.07 105.95 85.55 112.03 84.60 118.39 C 83.89 123.60 84.15 128.87 84.26 134.11 C 82.18 134.38 80.10 134.66 78.02 134.95 Z" />
<path fill="#fefefe" opacity="1.00" d=" M 122.22 92.50 C 123.89 92.12 125.66 90.73 127.36 91.70 C 132.81 94.51 137.47 98.89 140.52 104.23 C 134.77 99.79 128.88 95.51 122.22 92.50 Z" />
<path fill="#fefefe" opacity="1.00" d=" M 112.40 100.67 C 115.33 98.04 118.43 92.84 123.04 94.86 C 132.87 98.62 141.59 106.33 145.63 116.15 C 145.79 120.41 145.63 124.67 145.42 128.92 C 145.33 129.44 145.13 130.47 145.04 130.99 C 142.78 127.17 141.07 123.05 138.60 119.35 C 132.56 110.05 122.67 104.24 112.40 100.67 Z" />
<path fill="#fefefe" opacity="1.00" d=" M 104.49 113.07 C 106.05 109.13 108.58 105.69 110.95 102.21 C 125.38 105.63 137.81 116.51 142.68 130.58 C 145.50 137.21 139.29 143.10 135.29 147.68 C 130.99 137.21 124.45 127.57 115.37 120.68 C 111.91 117.91 107.74 116.12 104.49 113.07 Z" />
<path fill="#fefefe" opacity="1.00" d=" M 99.18 130.72 C 99.09 125.20 101.63 120.08 103.67 115.08 C 117.64 122.04 128.94 134.31 134.10 149.10 C 130.64 151.73 126.89 153.94 122.94 155.75 C 117.98 149.24 112.62 143.01 106.45 137.63 C 104.00 135.36 101.15 133.45 99.18 130.72 Z" />
<path fill="#fefefe" opacity="1.00" d=" M 78.77 136.48 C 85.23 135.36 91.73 134.30 97.97 132.21 C 101.40 135.05 104.76 137.98 107.89 141.16 C 101.27 144.36 94.14 148.12 86.57 147.44 C 82.80 144.82 80.81 140.45 78.77 136.48 Z" />
<path fill="#fefefe" opacity="1.00" d=" M 88.67 149.47 C 95.80 148.02 102.75 145.71 109.22 142.36 C 111.29 144.44 113.32 146.58 115.28 148.79 C 110.70 151.46 106.21 154.82 100.88 155.72 C 96.10 155.59 92.29 152.21 88.67 149.47 Z" />
<path fill="#fefefe" opacity="1.00" d=" M 103.97 156.95 C 108.17 154.57 112.40 152.24 116.53 149.75 C 117.90 151.99 119.22 154.28 120.45 156.60 C 116.20 156.89 111.95 157.25 107.68 157.40 C 106.44 157.25 105.20 157.10 103.97 156.95 Z" />
<path fill="#fefefe" opacity="1.00" d=" M 102.51 188.69 C 101.34 183.98 101.32 179.00 102.49 174.29 C 103.24 179.06 103.22 183.92 102.51 188.69 Z" />
</g>
<g id="#1d326bff">
<path fill="#1d326b" opacity="1.00" d=" M 92.84 0.00 L 125.13 0.00 C 131.13 1.09 137.19 1.82 143.19 2.95 C 166.58 7.57 189.29 17.03 207.88 32.12 C 211.24 35.05 215.11 37.95 216.54 42.37 C 218.18 47.36 218.72 52.62 219.32 57.82 C 222.14 83.87 216.65 110.32 206.18 134.16 C 192.87 163.88 171.86 190.69 144.11 208.13 C 134.71 213.92 124.75 218.97 114.15 222.16 C 108.19 224.20 102.18 221.45 96.69 219.29 C 67.10 206.99 42.86 183.94 26.04 156.95 C 16.34 141.39 8.68 124.46 4.29 106.62 C 2.51 99.56 1.32 92.37 0.00 85.21 L 0.00 57.70 C 0.73 52.35 1.32 46.94 2.82 41.75 C 3.72 38.43 6.23 35.93 8.76 33.76 C 23.31 21.36 40.56 12.09 58.98 6.95 C 70.00 3.44 81.47 1.89 92.84 0.00 M 22.98 39.96 C 20.61 41.85 17.85 43.59 16.41 46.35 C 14.88 50.70 14.50 55.36 14.11 59.93 C 13.55 70.50 13.65 81.17 15.44 91.62 C 20.87 122.83 35.95 152.27 57.93 175.06 C 72.06 189.43 89.10 201.51 108.51 207.47 L 108.46 208.28 C 116.25 206.06 123.82 203.05 130.76 198.83 C 159.68 182.64 181.38 155.54 194.35 125.34 C 204.19 101.68 208.72 75.26 204.18 49.84 C 203.72 44.88 199.33 42.00 195.70 39.30 C 170.87 20.99 139.76 11.95 109.02 12.52 C 78.47 12.37 47.42 21.30 22.98 39.96 Z" />
<path fill="#1d326b" opacity="1.00" d=" M 109.09 25.38 C 114.48 25.69 120.15 26.33 124.86 29.19 C 128.86 31.73 127.97 37.17 128.50 41.21 C 123.14 41.11 117.79 40.89 112.44 40.67 C 112.23 38.44 112.01 36.21 111.80 33.98 C 111.13 34.04 109.78 34.17 109.11 34.23 C 108.59 34.29 107.54 34.41 107.02 34.47 C 107.16 36.49 107.42 38.51 107.86 40.49 C 113.49 44.13 120.18 46.22 125.00 51.04 C 128.15 54.12 128.32 58.89 127.97 63.00 C 127.70 66.48 126.47 70.36 123.15 72.07 C 118.86 74.35 113.86 74.75 109.08 74.89 C 104.04 74.56 98.43 74.03 94.52 70.48 C 91.28 66.92 91.42 61.75 90.76 57.27 C 95.71 56.94 100.67 56.75 105.63 56.70 C 105.83 59.89 106.05 63.07 106.28 66.25 C 106.94 66.22 108.25 66.15 108.90 66.12 C 109.75 66.07 111.46 65.97 112.31 65.92 C 112.03 62.66 111.90 59.08 109.47 56.59 C 104.63 53.99 99.39 52.16 94.76 49.18 C 89.00 45.73 88.16 37.45 90.81 31.80 C 94.95 26.24 102.72 25.79 109.09 25.38 Z" />
<path fill="#1d326b" opacity="1.00" d=" M 71.11 29.26 C 76.53 28.61 81.95 27.94 87.40 27.65 C 85.08 34.44 82.07 40.97 79.85 47.78 C 78.87 50.16 80.69 52.30 81.72 54.30 C 85.77 60.85 89.40 67.64 92.92 74.48 C 87.76 74.96 82.60 75.58 77.42 75.91 C 74.22 70.09 70.74 64.42 66.98 58.95 C 67.65 65.17 68.97 71.30 69.91 77.48 C 64.95 78.37 60.01 79.40 55.04 80.32 C 51.38 65.03 47.32 49.84 44.04 34.47 C 49.91 33.11 55.82 31.88 61.78 30.95 C 62.69 36.44 63.61 41.93 64.77 47.37 C 67.20 41.44 68.83 35.24 71.11 29.26 Z" />
<path fill="#1d326b" opacity="1.00" d=" M 136.12 27.83 C 142.14 28.13 148.13 28.86 154.06 29.95 C 153.34 35.33 152.48 40.70 152.06 46.12 C 155.96 41.94 158.70 36.78 162.82 32.80 C 163.83 31.54 165.45 31.94 166.83 32.12 C 171.14 32.77 175.32 34.01 179.53 35.12 C 175.48 40.79 170.47 45.68 166.31 51.26 C 164.17 53.78 165.41 57.21 165.86 60.10 C 167.43 67.03 168.54 74.06 169.65 81.08 C 164.60 80.12 159.57 79.02 154.62 77.64 C 153.39 71.32 152.12 65.00 150.28 58.83 C 148.60 64.63 147.82 70.63 146.97 76.60 C 142.01 75.89 137.05 75.28 132.07 74.72 C 133.09 59.06 134.83 43.46 136.12 27.83 Z" />
<path fill="#1d326b" opacity="1.00" d=" M 25.03 65.21 C 32.10 62.79 39.19 60.36 46.55 58.97 C 47.08 61.59 47.62 64.22 48.13 66.85 C 41.18 68.69 34.37 70.99 27.47 72.97 C 26.66 70.38 25.84 67.80 25.03 65.21 Z" />
<path fill="#1d326b" opacity="1.00" d=" M 176.02 59.00 C 183.14 60.70 190.12 62.96 197.06 65.28 C 196.35 67.89 195.61 70.48 194.85 73.08 C 187.84 71.17 180.98 68.77 173.98 66.81 C 174.65 64.21 175.34 61.60 176.02 59.00 Z" />
<path fill="#1d326b" opacity="1.00" d=" M 79.23 104.29 C 85.40 93.97 96.67 85.88 109.05 86.09 C 116.98 85.80 124.70 88.64 131.39 92.74 C 139.16 97.97 145.77 106.37 145.63 116.15 C 141.59 106.33 132.87 98.62 123.04 94.86 C 118.43 92.84 115.33 98.04 112.40 100.67 C 122.67 104.24 132.56 110.05 138.60 119.35 C 141.07 123.05 142.78 127.17 145.04 130.99 C 145.13 130.47 145.33 129.44 145.42 128.92 C 145.42 133.20 144.49 137.52 142.08 141.11 C 137.34 148.77 130.05 156.33 120.45 156.60 C 119.22 154.28 117.90 151.99 116.53 149.75 C 112.40 152.24 108.17 154.57 103.97 156.95 C 105.20 157.10 106.44 157.25 107.68 157.40 C 108.09 157.54 108.89 157.81 109.29 157.95 C 109.29 158.31 109.29 159.03 109.28 159.39 C 101.79 158.71 94.40 156.23 88.50 151.47 C 82.18 146.18 76.49 139.28 75.26 130.89 C 73.71 121.91 74.17 112.16 79.23 104.29 M 106.61 88.51 C 99.98 92.38 94.45 98.16 90.77 104.90 C 85.87 113.58 84.76 123.84 85.84 133.63 C 89.44 132.90 93.55 132.89 96.58 130.57 C 97.72 128.42 98.19 126.00 98.89 123.70 C 101.52 114.20 105.96 105.00 112.91 97.89 C 116.00 94.72 119.77 92.35 123.43 89.90 C 118.08 88.33 112.03 86.10 106.61 88.51 M 78.02 134.95 C 80.10 134.66 82.18 134.38 84.26 134.11 C 84.15 128.87 83.89 123.60 84.60 118.39 C 85.55 112.03 88.07 105.95 91.63 100.62 C 94.61 96.14 98.79 92.68 102.37 88.72 C 82.75 93.01 70.35 116.31 78.02 134.95 M 122.22 92.50 C 128.88 95.51 134.77 99.79 140.52 104.23 C 137.47 98.89 132.81 94.51 127.36 91.70 C 125.66 90.73 123.89 92.12 122.22 92.50 M 104.49 113.07 C 107.74 116.12 111.91 117.91 115.37 120.68 C 124.45 127.57 130.99 137.21 135.29 147.68 C 139.29 143.10 145.50 137.21 142.68 130.58 C 137.81 116.51 125.38 105.63 110.95 102.21 C 108.58 105.69 106.05 109.13 104.49 113.07 M 99.18 130.72 C 101.15 133.45 104.00 135.36 106.45 137.63 C 112.62 143.01 117.98 149.24 122.94 155.75 C 126.89 153.94 130.64 151.73 134.10 149.10 C 128.94 134.31 117.64 122.04 103.67 115.08 C 101.63 120.08 99.09 125.20 99.18 130.72 M 78.77 136.48 C 80.81 140.45 82.80 144.82 86.57 147.44 C 94.14 148.12 101.27 144.36 107.89 141.16 C 104.76 137.98 101.40 135.05 97.97 132.21 C 91.73 134.30 85.23 135.36 78.77 136.48 M 88.67 149.47 C 92.29 152.21 96.10 155.59 100.88 155.72 C 106.21 154.82 110.70 151.46 115.28 148.79 C 113.32 146.58 111.29 144.44 109.22 142.36 C 102.75 145.71 95.80 148.02 88.67 149.47 Z" />
<path fill="#1d326b" opacity="1.00" d=" M 86.18 173.11 C 88.86 170.35 94.98 171.74 94.95 176.05 C 94.90 180.20 92.53 183.82 90.90 187.51 C 91.75 187.63 93.45 187.87 94.30 187.99 C 94.31 188.75 94.31 190.29 94.32 191.06 C 91.06 191.02 87.81 190.98 84.56 190.86 C 86.22 185.14 89.73 180.06 90.38 174.04 C 88.86 176.00 87.12 177.79 84.86 178.88 C 85.24 176.97 85.03 174.78 86.18 173.11 Z" />
<path fill="#1d326b" opacity="1.00" d=" M 99.44 172.36 C 102.20 170.94 106.92 171.86 107.43 175.38 C 107.98 179.43 108.01 183.59 107.44 187.64 C 106.83 192.09 100.12 192.37 97.81 189.22 C 96.52 185.61 96.86 181.66 96.96 177.89 C 97.15 175.89 97.24 173.23 99.44 172.36 M 102.51 188.69 C 103.22 183.92 103.24 179.06 102.49 174.29 C 101.32 179.00 101.34 183.98 102.51 188.69 Z" />
<path fill="#1d326b" opacity="1.00" d=" M 112.41 172.36 C 114.98 171.26 119.37 171.41 120.22 174.65 C 121.13 178.90 121.04 183.35 120.44 187.64 C 119.89 192.66 111.13 192.53 110.32 187.70 C 109.45 184.21 109.49 180.55 109.91 177.00 C 110.20 175.28 110.62 173.12 112.41 172.36 M 115.50 188.58 C 116.24 183.90 116.23 179.13 115.49 174.46 C 114.31 179.08 114.30 183.95 115.50 188.58 Z" />
<path fill="#1d326b" opacity="1.00" d=" M 123.27 172.07 C 126.52 172.04 129.77 172.03 133.02 172.08 C 132.96 172.61 132.82 173.65 132.75 174.18 C 130.66 174.89 128.54 175.54 126.42 176.17 C 128.67 176.61 130.92 177.01 133.18 177.36 C 133.78 181.26 134.84 185.48 133.22 189.25 C 131.40 191.85 127.23 191.84 124.78 190.19 C 123.33 188.44 123.26 185.98 122.65 183.87 C 124.26 183.87 125.87 183.88 127.48 183.90 C 127.85 185.70 128.25 187.51 128.66 189.31 C 129.03 186.30 129.25 183.28 129.45 180.26 C 127.32 180.64 125.19 181.01 123.05 181.37 C 123.11 178.27 123.20 175.17 123.27 172.07 Z" />
</g>
<g id="#73c7ebff">
<path fill="#73c7eb" opacity="1.00" d=" M 109.02 12.52 C 139.76 11.95 170.87 20.99 195.70 39.30 C 199.33 42.00 203.72 44.88 204.18 49.84 C 208.72 75.26 204.19 101.68 194.35 125.34 C 181.38 155.54 159.68 182.64 130.76 198.83 C 123.82 203.05 116.25 206.06 108.46 208.28 L 108.51 207.47 C 109.00 198.32 109.26 189.17 109.28 180.01 C 109.07 173.14 108.91 166.26 109.28 159.39 C 109.29 159.03 109.29 158.31 109.29 157.95 C 108.89 157.81 108.09 157.54 107.68 157.40 C 111.95 157.25 116.20 156.89 120.45 156.60 C 130.05 156.33 137.34 148.77 142.08 141.11 C 144.49 137.52 145.42 133.20 145.42 128.92 C 145.63 124.67 145.79 120.41 145.63 116.15 C 145.77 106.37 139.16 97.97 131.39 92.74 C 124.70 88.64 116.98 85.80 109.05 86.09 C 109.07 82.35 109.08 78.62 109.08 74.89 C 113.86 74.75 118.86 74.35 123.15 72.07 C 126.47 70.36 127.70 66.48 127.97 63.00 C 128.32 58.89 128.15 54.12 125.00 51.04 C 120.18 46.22 113.49 44.13 107.86 40.49 C 108.30 38.41 108.71 36.32 109.11 34.23 C 109.78 34.17 111.13 34.04 111.80 33.98 C 112.01 36.21 112.23 38.44 112.44 40.67 C 117.79 40.89 123.14 41.11 128.50 41.21 C 127.97 37.17 128.86 31.73 124.86 29.19 C 120.15 26.33 114.48 25.69 109.09 25.38 C 109.05 21.09 109.03 16.81 109.02 12.52 M 136.12 27.83 C 134.83 43.46 133.09 59.06 132.07 74.72 C 137.05 75.28 142.01 75.89 146.97 76.60 C 147.82 70.63 148.60 64.63 150.28 58.83 C 152.12 65.00 153.39 71.32 154.62 77.64 C 159.57 79.02 164.60 80.12 169.65 81.08 C 168.54 74.06 167.43 67.03 165.86 60.10 C 165.41 57.21 164.17 53.78 166.31 51.26 C 170.47 45.68 175.48 40.79 179.53 35.12 C 175.32 34.01 171.14 32.77 166.83 32.12 C 165.45 31.94 163.83 31.54 162.82 32.80 C 158.70 36.78 155.96 41.94 152.06 46.12 C 152.48 40.70 153.34 35.33 154.06 29.95 C 148.13 28.86 142.14 28.13 136.12 27.83 M 176.02 59.00 C 175.34 61.60 174.65 64.21 173.98 66.81 C 180.98 68.77 187.84 71.17 194.85 73.08 C 195.61 70.48 196.35 67.89 197.06 65.28 C 190.12 62.96 183.14 60.70 176.02 59.00 M 112.41 172.36 C 110.62 173.12 110.20 175.28 109.91 177.00 C 109.49 180.55 109.45 184.21 110.32 187.70 C 111.13 192.53 119.89 192.66 120.44 187.64 C 121.04 183.35 121.13 178.90 120.22 174.65 C 119.37 171.41 114.98 171.26 112.41 172.36 M 123.27 172.07 C 123.20 175.17 123.11 178.27 123.05 181.37 C 125.19 181.01 127.32 180.64 129.45 180.26 C 129.25 183.28 129.03 186.30 128.66 189.31 C 128.25 187.51 127.85 185.70 127.48 183.90 C 125.87 183.88 124.26 183.87 122.65 183.87 C 123.26 185.98 123.33 188.44 124.78 190.19 C 127.23 191.84 131.40 191.85 133.22 189.25 C 134.84 185.48 133.78 181.26 133.18 177.36 C 130.92 177.01 128.67 176.61 126.42 176.17 C 128.54 175.54 130.66 174.89 132.75 174.18 C 132.82 173.65 132.96 172.61 133.02 172.08 C 129.77 172.03 126.52 172.04 123.27 172.07 Z" />
<path fill="#73c7eb" opacity="1.00" d=" M 109.47 56.59 C 111.90 59.08 112.03 62.66 112.31 65.92 C 111.46 65.97 109.75 66.07 108.90 66.12 C 109.05 62.94 109.23 59.77 109.47 56.59 Z" />
<path fill="#73c7eb" opacity="1.00" d=" M 115.50 188.58 C 114.30 183.95 114.31 179.08 115.49 174.46 C 116.23 179.13 116.24 183.90 115.50 188.58 Z" />
</g>
</svg>
