<?xml version="1.0" encoding="UTF-8"?>
<svg width="256px" height="256px" viewBox="0 0 256 256" version="1.1" xmlns="http://www.w3.org/2000/svg" xmlns:xlink="http://www.w3.org/1999/xlink">
    <!-- Generator: Sketch 50.2 (55047) - http://www.bohemiancoding.com/sketch -->
    <title>logo/ksk</title>
    <desc>Created with Sketch.</desc>
    <defs></defs>
    <g id="logo/ksk" stroke="none" stroke-width="1" fill="none" fill-rule="evenodd">
        <g id="ksk" transform="translate(0.000000, -1.000000)" fill-rule="nonzero">
            <g id="#fefefeff" transform="translate(15.058824, 13.883408)" fill="#FEFEFE">
                <path d="M11.560543,32.3483408 C39.8711312,10.7596413 75.838552,0.428071749 111.226787,0.60161435 C111.238371,5.56493274 111.261538,10.5166816 111.307873,15.48 C103.92905,15.9543498 94.9285068,16.4749776 90.1328507,22.9076233 C87.0631674,29.4443946 88.0361991,39.0239462 94.7084163,43.015426 C100.071674,46.463139 106.141538,48.5803587 111.748054,51.5884305 C111.470045,55.2675336 111.261538,58.9350673 111.087783,62.6141704 C110.334842,62.6488789 108.817376,62.7298655 108.052851,62.764574 C107.786425,59.0854709 107.531584,55.4063677 107.29991,51.7156951 C101.554389,51.7735426 95.8088688,51.9933632 90.0749321,52.375157 C90.839457,57.558296 90.6772851,63.5397309 94.4304072,67.6584753 C98.959638,71.7656502 105.4581,72.3788341 111.29629,72.7606278 C111.29629,77.0760538 111.284706,81.3914798 111.261538,85.7184753 C96.920905,85.4755157 83.8660633,94.8352466 76.718914,106.774978 C70.8575566,115.880179 70.3247059,127.160448 72.120181,137.549865 C73.5449774,147.256682 80.1361086,155.239641 87.4570136,161.35991 C94.2914027,166.866996 102.851765,169.736233 111.527964,170.52296 C111.099367,178.471211 111.284706,186.431031 111.527964,194.379283 C111.504796,204.976951 111.20362,215.563049 110.636018,226.149148 C88.1520362,219.253722 68.4133937,205.277758 52.0456109,188.652377 C26.5846154,162.285471 9.11638009,128.224843 2.82642534,92.1164126 C0.752941176,80.026278 0.637104072,67.6816143 1.28579186,55.4526457 C1.73755656,50.1653812 2.17773756,44.773991 3.95004525,39.7412556 C5.61809955,36.5480717 8.81520362,34.5349776 11.560543,32.3483408 Z M67.3129412,19.9689686 C64.6718552,26.8875336 62.7837104,34.0606278 59.9688688,40.9213453 C58.6251584,34.6275336 57.559457,28.2758744 56.5053394,21.9242152 C49.601448,23.0001794 42.7554751,24.4232287 35.9558371,25.9966816 C39.7552941,43.7790135 44.4582805,61.3530942 48.6979186,79.04287 C54.4550226,77.9784753 60.1773756,76.7868161 65.9228959,75.75713 C64.8340271,68.6071749 63.3049774,61.5150673 62.5288688,54.3188341 C66.8843439,60.6473543 70.9154751,67.2072646 74.6222624,73.9407175 C80.6226244,73.5589238 86.599819,72.8416143 92.5770136,72.286278 C88.4995475,64.3727354 84.2946606,56.5170404 79.6032579,48.9390135 C78.4101357,46.6251121 76.3019005,44.1492377 77.4371041,41.3956951 C80.0086878,33.516861 83.4953846,25.9619731 86.1828054,18.106278 C79.8696833,18.4417937 73.5913122,19.2169507 67.3129412,19.9689686 Z M13.9352036,61.5613453 C14.8734842,64.5578475 15.8233484,67.5427803 16.761629,70.5392825 C24.7543891,68.2485202 32.6428959,65.5875336 40.6935747,63.4587444 C40.1028054,60.4159641 39.4772851,57.3731839 38.8633484,54.3419731 C30.3377376,55.9501345 22.1248869,58.7615247 13.9352036,61.5613453 Z M84.7695928,186.396323 C83.4374661,188.32843 83.680724,190.862152 83.240543,193.071928 C85.8584615,191.810852 87.8740271,189.73991 89.6347511,187.472287 C88.88181,194.43713 84.8159276,200.314439 82.8930317,206.932197 C86.6577376,207.071031 90.4224434,207.117309 94.198733,207.163587 C94.1871493,206.272735 94.1871493,204.491031 94.1755656,203.611749 C93.1909502,203.472915 91.2217195,203.195247 90.2371041,203.056413 C92.1252489,198.787265 94.8705882,194.599103 94.9285068,189.797758 C94.9632579,184.8113 87.8740271,183.203139 84.7695928,186.396323 Z M100.129593,185.52861 C97.5811765,186.535157 97.4769231,189.612646 97.2568326,191.926547 C97.1409955,196.288251 96.7471493,200.858206 98.241448,205.034798 C100.917285,208.679193 108.689955,208.355247 109.396561,203.206816 C110.056833,198.521166 110.022081,193.708251 109.384977,189.022601 C108.794208,184.950135 103.326697,183.88574 100.129593,185.52861 Z" id="Shape"></path>
                <path d="M108.910045,25.9966816 C109.512398,25.9272646 110.728688,25.7884305 111.331041,25.7190135 C110.867692,28.1370404 110.39276,30.5550673 109.883077,32.9615247 C109.373394,30.6707623 109.072217,28.333722 108.910045,25.9966816 Z" id="Shape"></path>
                <path d="M108.435113,88.518296 C114.713484,85.7300448 121.721629,88.3100448 127.918914,90.1264574 C123.679276,92.9609865 119.312217,95.7029596 115.732851,99.3704933 C107.682172,107.596413 102.539005,118.240359 99.4924887,129.23139 C98.681629,131.892377 98.1371946,134.692197 96.8166516,137.179641 C93.3067873,139.863767 88.5458824,139.875336 84.3757466,140.71991 C83.1247059,129.393363 84.4104977,117.523049 90.0865158,107.480717 C94.3493213,99.68287 100.755113,92.9956951 108.435113,88.518296 Z" id="Shape"></path>
                <path d="M75.3172851,142.247085 C66.4325792,120.681525 80.7963801,93.724574 103.52362,88.7612556 C99.3766516,93.3427803 94.5346606,97.3458296 91.0827149,102.528969 C86.958914,108.695516 84.039819,115.729776 82.9393665,123.087982 C82.1169231,129.115695 82.4180995,135.212825 82.5455204,141.275247 C80.1361086,141.587623 77.7266968,141.91157 75.3172851,142.247085 Z" id="Shape"></path>
                <path d="M126.517285,93.1345291 C128.451765,92.6948879 130.502081,91.0867265 132.471312,92.2089686 C138.784434,95.46 144.182443,100.527444 147.715475,106.705561 C141.054842,101.5687 134.232036,96.6169507 126.517285,93.1345291 Z" id="Shape"></path>
                <path d="M115.142081,102.586816 C118.536109,99.5440359 122.127059,93.5278924 127.467149,95.8649327 C138.853937,100.215067 148.954932,109.135157 153.634751,120.496413 C153.82009,125.425022 153.634751,130.353632 153.391493,135.270673 C153.28724,135.872287 153.055566,137.063946 152.951312,137.665561 C150.333394,133.246009 148.352579,128.479372 145.491403,124.198655 C138.494842,113.439013 127.038552,106.71713 115.142081,102.586816 Z" id="Shape"></path>
                <path d="M105.979367,116.933004 C107.786425,112.374619 110.717104,108.394709 113.462443,104.36852 C130.177738,108.325291 144.57629,120.912915 150.217557,137.191211 C153.484163,144.861794 146.290679,151.676233 141.657195,156.975067 C136.676199,144.861794 129.100452,133.708789 118.582443,125.737399 C114.57448,122.532646 109.744072,120.461704 105.979367,116.933004 Z" id="Shape"></path>
                <path d="M99.8284163,137.353184 C99.7241629,130.966816 102.666425,125.043229 105.029502,119.258475 C121.211946,127.310852 134.301538,141.506637 140.278733,158.617937 C136.270769,161.660717 131.926878,164.217578 127.351312,166.311659 C121.605792,158.77991 115.396923,151.572108 108.249774,145.347713 C105.411765,142.721435 102.110407,140.511659 99.8284163,137.353184 Z" id="Shape"></path>
                <path d="M76.1860633,144.01722 C83.6691403,142.721435 91.198552,141.495067 98.4267873,139.07704 C102.4,142.36278 106.292127,145.752646 109.917828,149.431749 C102.249412,153.133991 93.9902262,157.484126 85.2213575,156.697399 C80.8542986,153.666188 78.5491403,148.610314 76.1860633,144.01722 Z" id="Shape"></path>
                <path d="M87.6539367,159.046009 C95.9131222,157.36843 103.963801,154.695874 111.458462,150.82009 C113.85629,153.226547 116.207783,155.702422 118.47819,158.259283 C113.172851,161.348341 107.971765,165.235695 101.797647,166.276951 C96.2606335,166.126547 91.8472398,162.216054 87.6539367,159.046009 Z" id="Shape"></path>
                <path d="M105.377014,167.7 C110.242172,164.946457 115.142081,162.250762 119.926154,159.369955 C121.513122,161.961525 123.042172,164.610942 124.466968,167.295067 C119.543891,167.630583 114.620814,168.047085 109.67457,168.220628 C108.23819,168.047085 106.80181,167.873543 105.377014,167.7 Z" id="Shape"></path>
                <path d="M103.685792,204.421614 C102.330498,198.972377 102.30733,193.210762 103.662624,187.761525 C104.531403,193.280179 104.508235,198.90296 103.685792,204.421614 Z" id="Shape"></path>
            </g>
            <g id="#1d326bff" fill="#1D326B">
                <path d="M107.543167,0 L144.946968,0 C151.897195,1.26107623 158.916923,2.10565022 165.867149,3.41300448 C192.961448,8.75811659 219.268054,19.70287 240.802172,37.1612556 C244.694299,40.5511211 249.177195,43.906278 250.833665,49.02 C252.733394,54.7931839 253.358914,60.8787444 254.053937,66.8948879 C257.320543,97.0334529 250.961086,127.634798 238.832941,155.216502 C223.415023,189.601076 199.077647,220.618924 166.932851,240.796143 C156.044163,247.494888 144.506787,253.337489 132.228054,257.028161 C125.324163,259.388341 118.362353,256.206726 112.002896,253.707713 C77.7266968,239.47722 49.6477828,212.809507 30.1639819,181.583408 C18.9277828,163.581256 10.0546606,143.994081 4.96941176,123.354081 C2.90751131,115.186009 1.52904977,106.867534 0,98.5837668 L0,66.7560538 C0.84561086,60.5663677 1.52904977,54.3072646 3.26660633,48.3026906 C4.30914027,44.4616143 7.21665158,41.5692377 10.1473303,39.0586547 C27.001629,24.7124664 46.9835294,13.9875336 68.320724,8.04080717 C81.0859729,3.97991031 94.3724887,2.18663677 107.543167,0 Z M26.6193665,46.2317489 C23.8740271,48.4183857 20.6769231,50.4314798 19.0088688,53.6246637 C17.2365611,58.6573991 16.7963801,64.0487892 16.3446154,69.3360538 C15.6959276,81.5650224 15.8117647,93.9096861 17.8852489,105.999821 C24.1752036,142.108251 41.6434389,176.168879 67.1044344,202.535785 C83.4722172,219.161166 103.21086,233.13713 125.694842,240.032556 L125.636923,240.969686 C134.660633,238.401256 143.429502,234.918834 151.468597,230.036502 C184.968688,211.305471 210.105339,179.952108 225.129412,145.012197 C236.527783,117.638744 241.775204,87.0721076 236.516199,57.6624215 C235.983348,51.9239462 230.8981,48.5919283 226.693213,45.4681614 C197.93086,24.2843946 161.893937,13.8255605 126.285611,14.4850224 C90.8973756,14.3114798 54.9299548,24.6430493 26.6193665,46.2317489 Z" id="Shape"></path>
                <path d="M126.366697,29.3634081 C132.610317,29.7220628 139.178281,30.4625112 144.634208,33.7713901 C149.267692,36.7100448 148.236742,43.0038565 148.850679,47.6779372 C142.64181,47.5622422 136.444525,47.307713 130.24724,47.0531839 C130.003982,44.4731839 129.74914,41.8931839 129.505882,39.3131839 C128.729774,39.3826009 127.165973,39.5330045 126.389864,39.6024215 C125.787511,39.6718386 124.571222,39.8106726 123.968869,39.8800897 C124.131041,42.21713 124.432217,44.5541704 124.9419,46.8449327 C131.463529,51.0562332 139.213032,53.4742601 144.79638,59.0507623 C148.445249,62.6141704 148.642172,68.1328251 148.236742,72.8878924 C147.923982,76.9140807 146.499186,81.4030493 142.653394,83.381435 C137.683982,86.0192825 131.892127,86.4820628 126.355113,86.6440359 C120.516923,86.2622422 114.018462,85.6490583 109.489231,81.5418834 C105.736109,77.423139 105.898281,71.441704 105.133756,66.258565 C110.867692,65.8767713 116.613213,65.6569507 122.358733,65.5991031 C122.590407,69.2897758 122.845249,72.9688789 123.111674,76.6479821 C123.876199,76.6132735 125.393665,76.532287 126.146606,76.4975785 C127.131222,76.4397309 129.112036,76.3240359 130.096652,76.2661883 C129.772308,72.4945291 129.621719,68.3526457 126.806878,65.4718386 C121.200362,62.4637668 115.130498,60.3465471 109.76724,56.8988341 C103.095023,52.9073543 102.121991,43.3278027 105.191674,36.7910314 C109.98733,30.3583857 118.987873,29.8377578 126.366697,29.3634081 Z" id="Shape"></path>
                <path d="M82.3717647,33.8523767 C88.6501357,33.1003587 94.9285068,32.3252018 101.241629,31.9896861 C98.5542081,39.8453812 95.0675113,47.4002691 92.4959276,55.2791031 C91.360724,58.0326457 93.4689593,60.5085202 94.6620814,62.8224215 C99.3534842,70.4004484 103.558371,78.2561435 107.635837,86.1696861 C101.658643,86.7250224 95.681448,87.4423318 89.681086,87.8241256 C85.9742986,81.0906726 81.9431674,74.5307623 77.5876923,68.2022422 C78.3638009,75.3984753 79.8928507,82.490583 80.9817195,89.6405381 C75.2361991,90.6702242 69.5138462,91.8618834 63.7567421,92.926278 C59.5171041,75.2365022 54.8141176,57.6624215 51.0146606,39.8800897 C57.8142986,38.3066368 64.6602715,36.8835874 71.5641629,35.8076233 C72.6182805,42.1592825 73.6839819,48.5109417 75.0276923,54.8047534 C77.8425339,47.9440359 79.7306787,40.7709417 82.3717647,33.8523767 Z" id="Shape"></path>
                <path d="M157.677466,32.1979372 C164.65086,32.5450224 171.589502,33.3895964 178.458643,34.6506726 C177.624615,40.8750673 176.628416,47.0878924 176.1419,53.358565 C180.659548,48.5225112 183.833484,42.5526457 188.605973,37.9479821 C189.775928,36.4902242 191.652489,36.9530045 193.251041,37.1612556 C198.24362,37.9132735 203.085611,39.3478924 207.962353,40.6321076 C203.27095,47.1920179 197.467511,52.8495067 192.648688,59.3052915 C190.169774,62.2208072 191.606154,66.189148 192.127421,69.5327354 C193.946063,77.5504036 195.231855,85.6837668 196.517647,93.8055605 C190.667873,92.6948879 184.841267,91.4222422 179.10733,89.8256502 C177.682534,82.513722 176.211403,75.2017937 174.08,68.0634081 C172.133937,74.773722 171.230407,81.715426 170.245792,88.6224215 C164.500271,87.8009865 158.754751,87.0952466 152.986063,86.4473543 C154.167602,68.3295067 156.183167,50.2810762 157.677466,32.1979372 Z" id="Shape"></path>
                <path d="M28.9940271,75.4447534 C37.1837104,72.6449327 45.3965611,69.8335426 53.9221719,68.2253812 C54.5361086,71.2565919 55.161629,74.2993722 55.7523982,77.3421525 C47.7017195,79.4709417 39.8132127,82.1319283 31.8204525,84.4226906 C30.8821719,81.4261883 29.9323077,78.4412556 28.9940271,75.4447534 Z" id="Shape"></path>
                <path d="M203.896471,68.2600897 C212.144072,70.2269058 220.229502,72.8416143 228.268597,75.5257399 C227.446154,78.5453812 226.588959,81.5418834 225.708597,84.5499552 C217.588416,82.3401794 209.641991,79.5634978 201.533394,77.2958744 C202.309502,74.2878027 203.108778,71.2681614 203.896471,68.2600897 Z" id="Shape"></path>
                <path d="M91.7777376,120.658386 C98.9248869,108.718655 111.979729,99.3589238 126.320362,99.6018834 C135.506244,99.2663677 144.448869,102.552108 152.198371,107.295605 C161.198914,113.346457 168.855747,123.064843 168.693575,134.379821 C164.013756,123.018565 153.91276,114.098475 142.525973,109.748341 C137.185882,107.4113 133.594932,113.427444 130.200905,116.470224 C142.097376,120.600538 153.553665,127.322422 160.550226,138.082063 C163.411403,142.36278 165.392217,147.129417 168.010136,151.548969 C168.114389,150.947354 168.346063,149.755695 168.450317,149.154081 C168.450317,154.10583 167.373032,159.103857 164.581357,163.257309 C159.090679,172.119552 150.646154,180.866099 139.525792,181.178475 C138.100995,178.49435 136.571946,175.844933 134.984977,173.253363 C130.200905,176.13417 125.300995,178.829865 120.435837,181.583408 C121.860633,181.756951 123.297014,181.930493 124.733394,182.104036 C125.208326,182.266009 126.135023,182.578386 126.598371,182.740359 C126.598371,183.156861 126.598371,183.989865 126.586787,184.406368 C117.910588,183.619641 109.350226,180.750404 102.515837,175.243318 C95.1949321,169.123049 88.6038009,161.14009 87.1790045,151.433274 C85.3835294,141.043857 85.9163801,129.763587 91.7777376,120.658386 Z M123.493937,102.401704 C115.813937,106.879103 109.408145,113.566278 105.145339,121.364126 C99.4693213,131.406457 98.1835294,143.276771 99.4345701,154.603318 C103.604706,153.758744 108.365611,153.747175 111.875475,151.063049 C113.196018,148.575605 113.740452,145.775785 114.551312,143.114798 C117.597828,132.123767 122.740995,121.479821 130.791674,113.253901 C134.371041,109.586368 138.7381,106.844395 142.977738,104.009865 C136.780452,102.193453 129.772308,99.6134529 123.493937,102.401704 Z M90.3761086,156.130493 C92.7855204,155.794978 95.1949321,155.471031 97.6043439,155.158655 C97.4769231,149.096233 97.1757466,142.999103 97.99819,136.97139 C99.0986425,129.613184 102.017738,122.578924 106.141538,116.412377 C109.593484,111.229238 114.435475,107.226188 118.582443,102.644664 C95.8552036,107.607982 81.4914027,134.564933 90.3761086,156.130493 Z M141.576109,107.017937 C149.29086,110.500359 156.113665,115.452108 162.774299,120.588969 C159.241267,114.410852 153.843258,109.343408 147.530136,106.092377 C145.560905,104.970135 143.510588,106.578296 141.576109,107.017937 Z M121.03819,130.816413 C124.802896,134.345112 129.633303,136.416054 133.641267,139.620807 C144.159276,147.592197 151.735023,158.745202 156.716018,170.858475 C161.349502,165.559641 168.542986,158.745202 165.27638,151.074619 C159.635113,134.796323 145.236561,122.2087 128.521267,118.251928 C125.775928,122.278117 122.845249,126.258027 121.03819,130.816413 Z M114.88724,151.236592 C117.169231,154.395067 120.470588,156.604843 123.308597,159.231121 C130.455747,165.455516 136.664615,172.663318 142.410136,180.195067 C146.985701,178.100987 151.329593,175.544126 155.337557,172.501345 C149.360362,155.390045 136.270769,141.19426 120.088326,133.141883 C117.725249,138.926637 114.782986,144.850224 114.88724,151.236592 Z M91.2448869,157.900628 C93.6079638,162.493722 95.9131222,167.549596 100.280181,170.580807 C109.04905,171.367534 117.308235,167.017399 124.976652,163.315157 C121.35095,159.636054 117.458824,156.246188 113.485611,152.960448 C106.257376,155.378475 98.7279638,156.604843 91.2448869,157.900628 Z M102.71276,172.929417 C106.906063,176.099462 111.319457,180.009955 116.856471,180.160359 C123.030588,179.119103 128.231674,175.231749 133.537014,172.142691 C131.266606,169.58583 128.915113,167.109955 126.517285,164.703498 C119.022624,168.579283 110.971946,171.251839 102.71276,172.929417 Z" id="Shape"></path>
                <path d="M99.8284163,200.279731 C102.932851,197.086547 110.022081,198.694709 109.98733,203.681166 C109.929412,208.482511 107.184072,212.670673 105.295928,216.939821 C106.280543,217.078655 108.249774,217.356323 109.234389,217.495157 C109.245973,218.374439 109.245973,220.156143 109.257557,221.046996 C105.481267,221.000717 101.716561,220.954439 97.9518552,220.815605 C99.8747511,214.197848 103.940633,208.320538 104.693575,201.355695 C102.932851,203.623318 100.917285,205.69426 98.2993665,206.955336 C98.7395475,204.745561 98.4962896,202.211839 99.8284163,200.279731 Z" id="Shape"></path>
                <path d="M115.188416,199.412018 C118.38552,197.769148 123.853032,198.833543 124.443801,202.906009 C125.080905,207.591659 125.115656,212.404574 124.455385,217.090224 C123.748778,222.238655 115.976109,222.562601 113.300271,218.918206 C111.805973,214.741614 112.199819,210.171659 112.315656,205.809955 C112.535747,203.496054 112.64,200.418565 115.188416,199.412018 Z M118.744615,218.305022 C119.567059,212.786368 119.590226,207.163587 118.721448,201.644933 C117.366154,207.09417 117.389321,212.855785 118.744615,218.305022 Z" id="Shape"></path>
                <path d="M130.212489,199.412018 C133.189502,198.139372 138.274751,198.312915 139.259367,202.061435 C140.313484,206.978475 140.209231,212.126906 139.514208,217.090224 C138.877104,222.898117 128.729774,222.747713 127.791493,217.159641 C126.78371,213.121883 126.830045,208.887444 127.316561,204.780269 C127.652489,202.790314 128.139005,200.2913 130.212489,199.412018 Z M133.791855,218.177758 C134.64905,212.763229 134.637466,207.244574 133.780271,201.841614 C132.413394,207.186726 132.40181,212.821076 133.791855,218.177758 Z" id="Shape"></path>
                <path d="M142.792398,199.076502 C146.557104,199.041794 150.32181,199.030224 154.086516,199.088072 C154.017014,199.701256 153.854842,200.904484 153.773756,201.517668 C151.35276,202.339103 148.897014,203.091121 146.441267,203.82 C149.047602,204.329058 151.653937,204.791839 154.271855,205.196771 C154.966878,209.708879 156.194751,214.591211 154.31819,218.952915 C152.209955,221.960987 147.379548,221.949417 144.541538,220.040448 C142.8619,218.015785 142.780814,215.169686 142.074208,212.72852 C143.939186,212.72852 145.804163,212.74009 147.66914,212.763229 C148.097738,214.84574 148.561086,216.939821 149.036018,219.022332 C149.464615,215.53991 149.719457,212.045919 149.951131,208.551928 C147.483801,208.99157 145.016471,209.419641 142.537557,209.836143 C142.607059,206.249596 142.711312,202.663049 142.792398,199.076502 Z" id="Shape"></path>
            </g>
            <g id="#73c7ebff" transform="translate(123.945701, 13.883408)" fill="#73C7EB">
                <path d="M2.3399095,0.60161435 C37.9482353,-0.0578475336 73.9851584,10.4009865 102.747511,31.5847534 C106.952398,34.7085202 112.037647,38.0405381 112.570498,43.7790135 C117.829502,73.1886996 112.582081,103.755336 101.18371,131.128789 C86.159638,166.0687 61.0229864,197.422063 27.5228959,216.153094 C19.4838009,221.035426 10.7149321,224.517848 1.69122172,227.086278 L1.74914027,226.149148 C2.31674208,215.563049 2.61791855,204.976951 2.64108597,194.379283 C2.39782805,186.431031 2.21248869,178.471211 2.64108597,170.52296 C2.65266968,170.106457 2.65266968,169.273453 2.65266968,168.856951 C2.18932127,168.694978 1.26262443,168.382601 0.787692308,168.220628 C5.73393665,168.047085 10.6570136,167.630583 15.5800905,167.295067 C26.7004525,166.982691 35.1449774,158.236143 40.6356561,149.373901 C43.4273303,145.220448 44.5046154,140.222422 44.5046154,135.270673 C44.7478733,130.353632 44.9332127,125.425022 44.7478733,120.496413 C44.9100452,109.181435 37.2532127,99.4630493 28.2526697,93.4121973 C20.5031674,88.6686996 11.560543,85.3829596 2.37466063,85.7184753 C2.39782805,81.3914798 2.40941176,77.0760538 2.40941176,72.7606278 C7.94642534,72.5986547 13.7382805,72.1358744 18.7076923,69.4980269 C22.5534842,67.5196413 23.9782805,63.0306726 24.2910407,59.0044843 C24.6964706,54.249417 24.4995475,48.7307623 20.8506787,45.1673543 C15.2673303,39.590852 7.51782805,37.1728251 0.996199095,32.9615247 C1.50588235,30.5550673 1.98081448,28.1370404 2.4441629,25.7190135 C3.22027149,25.6495964 4.7840724,25.4991928 5.560181,25.4297758 C5.80343891,28.0097758 6.05828054,30.5897758 6.30153846,33.1697758 C12.4988235,33.4243049 18.6961086,33.6788341 24.9049774,33.7945291 C24.2910407,29.1204484 25.321991,22.8266368 20.6885068,19.8879821 C15.2325792,16.5791031 8.66461538,15.8386547 2.42099548,15.48 C2.37466063,10.5166816 2.35149321,5.56493274 2.3399095,0.60161435 Z M33.7317647,18.3145291 C32.2374661,36.3976682 30.2219005,54.4460987 29.040362,72.5639462 C34.8090498,73.2118386 40.5545701,73.9175785 46.3000905,74.7390135 C47.2847059,67.8320179 48.1882353,60.8903139 50.1342986,54.18 C52.2657014,61.3183857 53.7368326,68.6303139 55.161629,75.9422422 C60.8955656,77.5388341 66.7221719,78.8114798 72.5719457,79.9221525 C71.2861538,71.8003587 70.000362,63.6669955 68.1817195,55.6493274 C67.6604525,52.3057399 66.2240724,48.3373991 68.7029864,45.4218834 C73.52181,38.9660987 79.3252489,33.3086099 84.0166516,26.7486996 C79.1399095,25.4644843 74.2979186,24.0298655 69.3053394,23.2778475 C67.7067873,23.0695964 65.8302262,22.6068161 64.6602715,24.064574 C59.8877828,28.6692377 56.7138462,34.6391031 52.1961991,39.475157 C52.6827149,33.2044843 53.678914,26.9916592 54.5129412,20.7672646 C47.6438009,19.5061883 40.7051584,18.6616143 33.7317647,18.3145291 Z M79.9507692,54.3766816 C79.1630769,57.3847534 78.3638009,60.4043946 77.5876923,63.4124664 C85.6962896,65.6800897 93.6427149,68.4567713 101.762896,70.6665471 C102.643258,67.6584753 103.500452,64.6619731 104.322896,61.6423318 C96.2838009,58.9582063 88.198371,56.3434978 79.9507692,54.3766816 Z M6.26678733,185.52861 C4.19330317,186.407892 3.70678733,188.906906 3.37085973,190.896861 C2.88434389,195.004036 2.83800905,199.238475 3.84579186,203.276233 C4.7840724,208.864305 14.9314027,209.014709 15.5685068,203.206816 C16.2635294,198.243498 16.3677828,193.095067 15.3136652,188.178027 C14.3290498,184.429507 9.2438009,184.255964 6.26678733,185.52861 Z M18.8466968,185.193094 C18.7656109,188.779641 18.6613575,192.366188 18.5918552,195.952735 C21.0707692,195.536233 23.5380995,195.108161 26.0054299,194.66852 C25.7737557,198.162511 25.518914,201.656502 25.0903167,205.138924 C24.6153846,203.056413 24.1520362,200.962332 23.7234389,198.879821 C21.8584615,198.856682 19.9934842,198.845112 18.1285068,198.845112 C18.8351131,201.286278 18.9161991,204.132377 20.5958371,206.15704 C23.4338462,208.066009 28.2642534,208.077578 30.3724887,205.069507 C32.2490498,200.707803 31.0211765,195.825471 30.3261538,191.313363 C27.7082353,190.90843 25.1019005,190.44565 22.4955656,189.936592 C24.9513122,189.207713 27.4070588,188.455695 29.8280543,187.63426 C29.9091403,187.021076 30.0713122,185.817848 30.1408145,185.204664 C26.3761086,185.146816 22.6114027,185.158386 18.8466968,185.193094 Z" id="Shape"></path>
                <path d="M2.86117647,51.5884305 C5.6760181,54.4692377 5.82660633,58.6111211 6.15095023,62.3827803 C5.16633484,62.4406278 3.18552036,62.5563229 2.20090498,62.6141704 C2.37466063,58.9350673 2.58316742,55.2675336 2.86117647,51.5884305 Z" id="Shape"></path>
                <path d="M9.84615385,204.29435 C8.4561086,198.937668 8.46769231,193.303318 9.83457014,187.958206 C10.6917647,193.361166 10.7033484,198.879821 9.84615385,204.29435 Z" id="Shape"></path>
            </g>
        </g>
    </g>
</svg>