<?xml version="1.0" encoding="UTF-8"?>
<svg width="256px" height="256px" viewBox="0 0 256 256" version="1.1" xmlns="http://www.w3.org/2000/svg" xmlns:xlink="http://www.w3.org/1999/xlink">
    <!-- Generator: Sketch 50.2 (55047) - http://www.bohemiancoding.com/sketch -->
    <title>logo/lierne</title>
    <desc>Created with Sketch.</desc>
    <defs></defs>
    <g id="logo/lierne" stroke="none" stroke-width="1" fill="none" fill-rule="evenodd">
        <g id="lierne" transform="translate(0.000000, 63.000000)" fill-rule="nonzero">
            <g id="#fefefeff" transform="translate(4.222680, 2.632653)" fill="#FEFEFE">
                <path d="M112.149113,0.400163265 C120.098309,0.0157959184 128.073897,0.115836735 136.028371,0.358040816 C139.005361,0.847714286 142.019299,0.716081633 145.012124,0.921428571 C147.899381,1.45322449 150.844701,1.46902041 153.753072,1.81653061 C169.02334,3.98057143 184.261938,6.99759184 198.71934,12.4998367 C205.987629,15.2377959 213.018392,18.5970612 219.748289,22.4565306 C227.428289,27.158449 234.633237,32.8818367 240.143835,40.0426531 C242.339629,43.3387347 244.619876,46.6769388 245.939464,50.4363673 C246.836784,53.9167347 247.829113,57.4444898 247.723546,61.0722857 C247.892454,69.5178367 244.19233,77.6000816 238.913979,84.0500816 C232.506062,92.037551 223.875959,97.9083673 214.934433,102.747184 C198.334021,111.392816 180.123711,116.621265 161.660041,119.401347 C157.627381,120.359633 153.452206,120.39649 149.345649,120.870367 C144.193979,121.849714 138.926186,121.744408 133.711175,122.034 C128.390598,122.592122 123.027794,122.292 117.691381,122.328857 C112.186062,121.802327 106.638515,121.876041 101.138474,121.317918 C96.2982268,120.217469 91.241567,120.65449 86.422433,119.401347 C70.9304742,117.084612 55.6602062,112.951347 41.276701,106.706694 C34.3726186,103.526449 27.4685361,100.140857 21.4512165,95.4494694 C14.8955052,90.6896327 8.89929897,84.9241224 4.87719588,77.8370204 C2.49665979,73.9933469 1.43043299,69.5441633 0.369484536,65.205551 C-0.0950103093,61.1354694 0.10556701,56.9706122 1.44098969,53.0690204 C3.34119588,45.5080408 8.10754639,38.9790612 13.6445361,33.6189796 C20.4324948,26.8583265 28.7247835,21.8194286 37.3073814,17.6598367 C51.3530722,10.8254694 66.5230515,6.55530612 81.8672165,3.81208163 C85.0711753,2.94330612 88.4229278,2.9275102 91.6691134,2.25881633 C95.4589691,1.48481633 99.3543918,1.56379592 103.165361,0.926693878 C106.152907,0.647632653 109.177402,0.942489796 112.149113,0.400163265 Z M115.859794,2.04820408 C112.265237,2.70110204 108.57567,2.04293878 104.981113,2.68004082 C102.46334,3.03281633 99.9086186,3.0117551 97.3961237,3.38559184 C92.7828454,4.30702041 88.0059381,4.19644898 83.4401649,5.40746939 C76.6152577,6.58689796 69.7797938,7.84530612 63.1607423,9.93036735 C47.510433,14.3058367 32.1240412,20.708449 19.350433,30.9073469 C13.6181443,35.6092653 8.42424742,41.1694286 5.24668041,47.9300816 C3.99571134,51.0313469 2.49138144,54.1273469 2.35414433,57.5287347 C2.11661856,61.9357959 1.97938144,66.5218776 3.57872165,70.7077959 C5.12527835,75.3939184 7.83307216,79.5956327 10.8258969,83.4814286 C15.4550103,88.7098776 20.8072577,93.2801633 26.6398351,97.1185714 C32.3087835,100.567347 38.188866,103.673878 44.2853608,106.290735 C49.1572784,107.986163 53.8444536,110.202857 58.8536082,111.492857 C64.8550928,113.514735 71.0465979,114.883714 77.2328247,116.205306 C80.6584742,117.216245 84.268866,117.279429 87.7314639,118.127143 C91.7166186,118.722122 95.7545567,118.959061 99.7291546,119.664612 C103.936,120.170082 108.179794,120.191143 112.407753,120.401755 C118.557031,120.938816 124.743258,120.686082 130.913649,120.696612 C136.693443,120.159551 142.526021,120.343837 148.300536,119.680408 C152.956041,118.837959 157.722392,118.737918 162.340948,117.674327 C165.185979,117.158327 168.104907,117.04249 170.891876,116.236898 C183.887175,113.451551 196.808577,109.807959 208.774598,103.937143 C215.140289,101.172857 221.015093,97.4292245 226.631258,93.3802041 C234.833814,87.2197959 242.102103,79.0743673 244.994639,69.0544898 C246.340619,65.3161224 245.812784,61.2618367 245.796948,57.3760408 C243.912577,45.6028163 235.64668,35.9936327 226.356784,29.032898 C216.597113,21.9510612 205.597031,16.6541633 194.17468,12.8368163 C189.186639,10.836 183.876619,9.86191837 178.772454,8.22440816 C174.481155,7.3135102 170.200412,6.32889796 165.866887,5.61281633 C161.649485,4.52816327 157.257897,4.4755102 153.003546,3.59620408 C149.208412,3.10126531 145.360495,3.096 141.570639,2.52208163 C138.931464,2.2324898 136.265897,2.50102041 133.626722,2.20616327 C130.100784,1.66910204 126.52734,1.8955102 122.980289,1.86391837 C120.610309,1.94289796 118.219216,1.74281633 115.859794,2.04820408 Z" id="Shape"></path>
                <path d="M87.8106392,12.3260816 C91.6585567,9.66710204 95.8654021,6.5342449 100.837608,7.15028571 C103.091464,7.19240816 103.577072,9.95669388 103.202309,11.7205714 C102.36833,16.1434286 99.417732,19.7817551 96.5304742,23.0936327 C92.2761237,27.8218776 86.7813608,31.3285714 80.8537732,33.6031837 C78.7213196,34.2086939 77.7659381,36.2832245 76.5149691,37.8996735 C75.0845361,39.7793878 73.5538144,41.5853878 71.980866,43.3492653 C70.1123299,45.4185306 67.8743093,47.1402857 66.1957938,49.3833061 C69.3205773,51.2103673 71.8858557,53.7798367 74.8206186,55.8754286 C78.7213196,58.9398367 82.7539794,61.8831429 87.1930722,64.1366939 C91.7588454,66.6482449 96.8418969,67.9645714 101.777155,69.538898 C106.817979,71.018449 112.059381,71.5028571 117.211052,72.4453469 C121.264825,72.7402041 125.260536,73.598449 129.345979,73.5089388 C133.832577,73.9986122 138.361402,74.0723265 142.869113,73.8248571 C146.247258,73.2772653 149.683464,73.6195102 153.072165,73.2772653 C155.859134,72.7612653 158.704165,72.7665306 161.506969,72.3505714 C166.130804,71.4396735 170.833814,70.9184082 175.394309,69.6915918 C180.699052,68.1277959 186.135753,66.8799184 191.155464,64.5 C195.657897,62.7835102 199.352742,59.6085306 202.968412,56.5283265 C203.74433,55.6911429 204.89501,56.0439184 205.85567,56.2387347 C204.652206,58.6397143 202.419464,60.2772245 200.360907,61.9094694 C192.760082,67.3748571 183.781608,70.4655918 174.797856,72.8139184 C168.226309,74.5198776 161.485856,75.5518776 154.740124,76.2363673 C146.812041,77.4842449 138.741443,77.4157959 130.739464,77.263102 C123.798433,77.2209796 116.931299,76.299551 110.04833,75.5887347 C103.371216,74.4461633 96.6043711,73.5036735 90.2281237,71.139551 C82.0308454,68.2804898 74.8470103,63.2363265 68.0221031,58.0026122 C65.731299,56.3545714 63.910268,54.0746939 61.3027629,52.8794694 C57.7398763,54.8381633 54.3142268,57.2917959 50.2446186,58.0763265 C46.7767423,58.7713469 43.2296907,59.7559592 39.6720825,59.1451837 C37.2387629,58.5238776 34.3198351,57.860449 33.2536082,55.2857143 C31.9709691,52.6741224 34.0295258,50.1046531 35.9772371,48.5197959 C40.1735258,44.7445714 46.1538969,44.0758776 51.5642062,44.5602857 C55.2009897,44.6813878 58.6583093,45.8924082 62.0364536,47.1297551 C63.683299,47.9616735 64.707299,46.0082449 65.6468454,44.9867755 C67.5523299,42.1435102 69.5528247,39.2897143 70.7562887,36.0673469 C64.8709278,36.4780408 58.6002474,35.8830612 53.6333196,32.4184898 C51.1366598,30.7546531 49.4423093,27.7902857 49.7801237,24.7469388 C49.7431753,20.6663265 52.6726598,17.3228571 55.8660619,15.1324898 C60.3315464,12.2049796 66.1482887,10.957102 71.2946804,12.7262449 C74.4036289,13.8951429 77.7870515,15.7169388 78.6843711,19.1920408 C76.2457732,20.2819592 75.3431753,16.9016327 73.0682062,16.7120816 C67.7581856,15.5379184 61.7830928,15.5168571 56.9322887,18.2811429 C54.9845773,19.4237143 53.248,21.0506939 52.2926186,23.1146939 C51.4164124,25.8737143 52.1817732,29.0908163 54.5675876,30.8652245 C59.0594639,34.0875918 64.8709278,34.5140816 70.2284536,34.2718776 C70.8724124,34.1349796 71.8858557,34.2613469 72.1550515,33.4978776 C75.9607423,25.5630612 80.8168247,17.8388571 87.8106392,12.3260816 Z M98.8107216,9.55653061 C96.5621443,10.7201633 94.8889072,12.6946531 93.2262268,14.5480408 C89.9694845,18.7286939 87.1138969,23.1989388 84.0049485,27.4901633 C83.1656907,28.6169388 82.4108866,29.8121633 81.814433,31.081102 C83.7093608,30.4966531 85.4670515,29.5436327 87.0611134,28.3694694 C91.3999175,25.4682857 95.3692371,21.9036735 98.3462268,17.5966531 C99.8716701,15.1798776 101.40767,12.520898 101.296825,9.56706122 C100.483959,9.40383673 99.5813608,9.05106122 98.8107216,9.55653061 Z M38.188866,49.6202449 C36.5895258,50.7628163 34.6734845,52.4477143 35.3491134,54.6486122 C36.1672577,55.9438776 37.481567,57.1285714 39.1020206,57.154898 C41.3505979,57.2707347 43.6150103,57.2970612 45.8583093,57.0653878 C50.4610309,56.1544898 54.8631753,54.3063673 58.7638763,51.7053061 C58.7849897,51.5104898 58.8272165,51.1208571 58.8536082,50.9207755 C55.6496495,49.5044082 52.4931959,47.7036735 48.9250309,47.4404082 C45.267134,47.1086939 41.2291959,47.335102 38.188866,49.6202449 Z" id="Shape"></path>
                <path d="M100.410062,24.8680408 C101.993567,23.2357959 104.469113,23.2621224 106.511835,23.8518367 C106.786309,24.8259184 107.13468,25.7894694 107.314144,26.7898776 C106.928825,28.774898 105.830928,30.6598776 103.930722,31.5391837 C102.4,32.6080408 99.5919175,33.1029796 98.6259794,31.081102 C97.1691546,28.9855102 98.7896082,26.3475918 100.410062,24.8680408 Z" id="Shape"></path>
                <path d="M144.948784,36.0146939 C146.379216,35.1669796 148.216082,35.2564898 149.646515,36.0620816 C150.549113,37.1993878 150.353814,38.7526531 150.105732,40.0795102 C149.715134,42.0382041 147.830763,43.1281224 146.210309,44.0021633 C145.418557,43.670449 144.626804,43.344 143.829773,43.0386122 C143.655588,42.2382857 143.476124,41.4379592 143.291381,40.642898 C143.001072,40.6323673 142.409897,40.6113061 142.119588,40.6007755 C137.416577,45.3290204 134.307629,51.3156735 130.97699,57.0127347 C130.000495,58.5765306 129.155959,60.2087755 128.321979,61.8462857 C125.878103,60.1666531 122.922227,60.8827347 120.393897,61.92 C121.006186,59.7243673 122.584412,58.0289388 123.740371,56.122898 C125.735588,52.9531837 127.509113,49.657102 129.509608,46.4873878 C131.066722,43.6493878 132.998598,40.9430204 133.869526,37.7838367 C133.53699,37.7206531 132.871918,37.5890204 132.539381,37.5258367 C131.399258,38.4577959 130.211629,39.3423673 129.235134,40.4533469 C127.604124,42.2224898 126.643464,44.4813061 125.007175,46.2451837 C124.690474,46.1556735 124.057072,45.9713878 123.740371,45.8818776 C124.173196,43.8757959 125.630021,42.3435918 126.780701,40.7166122 C128.285031,38.6473469 130.211629,36.7360408 132.697732,35.9357143 C134.666557,35.3881224 136.519258,37.0940816 136.76734,38.9632653 C137.147381,40.7745306 136.67233,42.6121224 136.619546,44.4286531 C139.20066,41.4590204 141.43868,37.994449 144.948784,36.0146939 Z" id="Shape"></path>
                <path d="M93.1945567,36.1673878 C94.8677938,35.5882041 96.9316289,35.9515102 97.8711753,37.5732245 C99.3913402,40.2269388 99.3438351,43.670449 98.1878763,46.4505306 C95.8126186,50.7417551 91.8696907,53.9430612 89.5894433,58.2922041 C89.193567,58.960898 89.2727423,59.7506939 89.2146804,60.493102 C91.2679588,60.9090612 92.7036701,59.2452245 93.9810309,57.928898 C95.3111753,56.5335918 96.1821031,54.6380816 98.0295258,53.8114286 C98.2037113,54.4695918 98.7684948,55.212 98.1562062,55.8175102 C96.2032165,58.5870612 93.6643299,61.4461224 90.2492371,62.2833061 C86.1004536,62.3464898 83.9574433,57.3813061 84.9708866,53.853551 C86.422433,48.7040816 90.8456907,45.2553061 93.8121237,41.0114694 C94.4824742,40.1900816 94.5827629,39.1212245 94.7516701,38.115551 C91.8485773,37.7259184 89.8955876,40.2901224 88.1906804,42.2172245 C87.2247423,43.207102 86.422433,45.4027347 84.6858557,44.5023673 C84.5275052,43.3545306 85.4089897,42.4541633 86.0740619,41.6327755 C88.1326186,39.4582041 90.4234227,37.3994694 93.1945567,36.1673878 Z" id="Shape"></path>
                <path d="M103.413443,46.2346531 C106.907711,41.4326939 111.890474,37.478449 117.744165,36.0462857 C119.87134,35.9883673 122.605526,35.3407347 124.104577,37.2941633 C125.656412,38.8421633 124.627134,41.1957551 123.582021,42.7174286 C121.101196,46.1082857 117.131876,48.0775102 113.162557,49.1832245 C111.67934,49.6255102 109.63134,49.6781633 109.040165,51.410449 C107.915876,53.8798776 106.179299,56.4598776 106.828536,59.2978776 C107.266639,61.0617551 109.678845,60.9827755 110.993155,60.3140816 C115.416412,58.1816327 117.997526,53.7640408 120.599753,49.8255918 C120.853113,49.8361224 121.370392,49.8571837 121.623753,49.8677143 C121.708206,50.7786122 121.95101,51.8000816 121.28066,52.5688163 C118.731216,56.2334694 115.780619,59.9349796 111.600165,61.7936327 C108.470103,63.1678776 105.007505,61.214449 103.244536,58.6081224 C100.462845,55.0803673 100.83233,49.7782041 103.413443,46.2346531 Z M118.050309,38.7947755 C115.247505,41.4484898 113.078103,44.6866531 111.024825,47.9300816 C113.452866,47.7773878 115.722557,46.7453878 117.337732,44.9130612 C119.26433,42.8122041 121.993237,40.3111837 121.032577,37.152 C119.90301,37.4205306 118.87901,37.9786531 118.050309,38.7947755 Z" id="Shape"></path>
                <path d="M151.07167,40.1532245 C152.438763,38.320898 154.006433,36.378 156.297237,35.7303673 C158.060206,35.2564898 159.35868,36.9466531 160.145155,38.2735102 C160.899959,40.7113469 160.504082,43.4019184 159.670103,45.7765714 C162.536247,42.5647347 164.557856,38.5420408 168.226309,36.1147347 C169.487835,35.209102 171.324701,35.4249796 172.412041,36.5096327 C175.061773,38.7052653 174.855918,42.6647755 174.127505,45.6923265 C172.211464,50.3415918 168.257979,53.785102 166.030515,58.2711429 C165.729649,58.9977551 165.814103,59.8086122 165.740206,60.5773469 C166.811711,60.7774286 167.951835,60.6563265 168.648577,59.719102 C170.664907,58.0184082 171.61501,55.3015102 173.773856,53.8166939 L174.423093,53.9588571 C174.438928,54.2747755 174.470598,54.9013469 174.486433,55.2172653 C172.908206,57.7024898 170.91299,60.0139592 168.51134,61.7357143 C167.117856,62.8098367 165.217649,62.3412245 163.987794,61.267102 C161.100536,59.1715102 160.504082,55.0540408 161.707546,51.8790612 C163.692206,47.540449 166.970062,43.9758367 169.424495,39.9162857 C169.978722,39.1001633 170.126515,38.1260816 170.205691,37.1677959 C168.162969,37.6416735 166.838103,39.3897551 165.560742,40.9114286 C162.472907,44.9341224 159.411464,48.9989388 156.904247,53.4165306 C155.267959,56.2861224 153.388866,59.0293469 152.122062,62.0937551 C150.754969,61.6567347 149.403711,60.5773469 147.90466,61.0670204 C146.516454,61.5514286 145.196866,62.2359184 143.740041,62.5097143 C143.872,61.2302449 144.663753,60.2035102 145.318268,59.150449 C147.508784,55.7122041 149.752082,52.3160816 151.778969,48.7830612 C153.890309,45.1973878 156.70367,41.6696327 156.914804,37.3468163 C156.202227,37.5416327 155.373526,37.5521633 154.877361,38.1682041 C152.692124,40.2953878 151.409485,43.1333878 149.683464,45.6080816 C149.372041,45.6028163 148.743918,45.5870204 148.432495,45.5764898 C148.501113,43.465102 149.92099,41.8012653 151.07167,40.1532245 Z" id="Shape"></path>
                <path d="M195.013938,36.0831429 C197.262515,35.8567347 200.12866,35.4039184 201.706887,37.4415918 C202.540866,39.6582857 201.770227,42.1435102 200.086433,43.7441633 C196.893031,47.5141224 191.952495,48.8620408 187.386722,50.1151837 C185.534021,52.7215102 183.850227,55.986 184.425567,59.2820816 C184.678928,61.0722857 187.033072,60.8511429 188.315711,60.3983265 C192.876206,58.1131837 195.483711,53.5218367 198.434309,49.5886531 C198.893526,50.0730612 199.368577,50.5469388 199.848907,51.0102857 C197.209732,54.7328571 194.491381,58.6028571 190.537897,61.0512245 C188.89633,62.1990612 186.774433,62.1622041 184.868948,61.92 C181.897237,60.8669388 179.891464,57.981551 179.120825,55.022449 C178.086268,50.9734286 179.954804,46.7506531 182.810392,43.8915918 C185.972124,40.1479592 190.300371,37.4152653 195.013938,36.0831429 Z M196.428536,38.0049796 C193.05567,40.6586939 190.754309,44.376 188.553237,47.988 C190.675134,47.6457551 192.786474,46.9296735 194.338309,45.3764082 C196.518268,43.2544898 198.951588,40.7060816 198.877691,37.4468571 C198.038433,37.4837143 197.083052,37.3626122 196.428536,38.0049796 Z" id="Shape"></path>
                <path d="M31.9868041,64.2630612 C33.5650309,64.5368571 35.3438351,65.8479184 35.5866392,67.4011837 C33.7497732,72.9192245 30.4455258,77.8633469 28.4661443,83.3234694 C29.7698969,82.8917143 31.0103093,82.2967347 32.1821031,81.5806531 C35.4705155,79.5166531 39.0545155,77.9686531 42.3798763,75.9678367 C43.3194227,75.4992245 44.2642474,74.7673469 45.3832577,74.9516327 C46.5392165,75.5202857 47.4998763,76.3943265 48.5133196,77.1788571 C46.6289485,78.621551 44.4278763,79.5587755 42.3482062,80.685551 C38.822268,82.6021224 35.2699381,84.487102 31.7123299,86.3510204 C30.1921649,87.1144898 28.7247835,88.2412653 26.9776495,88.3413061 C25.2621856,87.909551 24.0112165,86.5247755 22.7655258,85.3611429 C25.3783093,78.1424082 28.988701,71.3238367 31.9868041,64.2630612 Z" id="Shape"></path>
                <path d="M202.635876,75.3254694 C203.923794,74.5356735 204.995299,72.7454694 206.636866,72.9192245 C210.55868,77.5684898 214.506887,82.2019592 218.56066,86.7459184 C221.27901,85.4980408 223.406186,83.3234694 225.923959,81.7544082 C226.673485,82.5915918 227.412454,83.4445714 228.109196,84.3238776 C224.70466,87.1566122 221.036206,89.6734286 217.457485,92.2797551 C212.284701,86.8459592 207.560577,80.9856735 202.635876,75.3254694 Z" id="Shape"></path>
                <path d="M49.2945155,78.7795102 C54.9634639,77.8844082 61.334433,80.9277551 63.4352165,86.4142041 C63.9313814,89.2311429 63.7149691,92.2692245 62.1948041,94.7649796 C60.6007423,98.0294694 57.6395876,100.946449 53.8602887,101.309755 C50.5402062,101.583551 46.8295258,101.336082 44.1270103,99.1773061 C42.3482062,97.8241224 40.7699794,96.1234286 39.9148866,94.033102 C38.5372371,87.6252245 42.7810309,80.2643265 49.2945155,78.7795102 Z M51.3477938,82.5705306 C46.4389278,83.9500408 43.2244124,89.8471837 44.9715464,94.6754694 C46.6711753,97.6187755 50.7566186,98.7139592 53.7758351,97.2712653 C56.8056082,95.2388571 59.1544742,91.6900408 58.9275052,87.9464082 C59.075299,84.2343673 54.6150928,81.8702449 51.3477938,82.5705306 Z" id="Shape"></path>
                <path d="M189.909773,81.5437959 C191.07101,80.6960816 192.406433,80.1590204 193.752412,79.6851429 C197.230845,84.9030612 199.769732,90.694898 203.079258,96.0233878 C205.755381,94.7491837 208.44734,93.5013061 211.065402,92.106 C211.693526,93.0484898 212.358598,93.9646531 213.034227,94.875551 C211.820206,95.7390612 210.537567,96.4867347 209.149361,97.0290612 C206.204041,98.2137551 203.417072,99.7459592 200.498144,100.983306 C196.834969,94.5806939 193.245691,88.1254286 189.909773,81.5437959 Z" id="Shape"></path>
                <path d="M70.1176082,85.6086122 C71.8119588,85.5717551 73.4746392,85.9666531 74.9895258,86.7195918 C73.1948866,92.5166939 71.5163711,98.3506531 69.6478351,104.126694 C72.5720412,105.17449 75.6387629,105.732612 78.5365773,106.864653 C78.124866,107.844 77.6867629,108.807551 77.2644948,109.786898 C72.9943093,108.739102 68.7927423,107.343796 64.4433814,106.654041 C64.3061443,103.79498 65.8474227,101.293959 66.4861031,98.5875918 C67.5101031,94.2068571 69.4947629,90.0893878 70.1176082,85.6086122 Z" id="Shape"></path>
                <path d="M174.01666,86.6511429 C175.774351,86.050898 177.579546,85.3927347 179.469196,85.519102 C180.598763,85.982449 181.174103,87.2092653 181.986969,88.0675102 C185.000907,91.5478776 188.03068,95.012449 191.034062,98.5033469 C192.406433,100.230367 193.852701,101.91 195.525938,103.357959 C193.773526,103.831837 192.015835,104.274122 190.305649,104.863837 C188.99134,103.515918 188.004289,101.74151 186.346887,100.79902 C183.459629,101.515102 180.656825,102.557633 177.716784,103.084163 C177.099216,104.832245 177.078103,106.685633 176.993649,108.512694 C175.64767,109.049755 174.280577,109.528898 172.897649,109.955388 C172.522887,106.648776 172.829031,103.300041 173.367423,100.030286 C173.59967,95.5758367 173.911093,91.1161224 174.01666,86.6511429 Z M178.160165,90.368449 C177.949031,93.4117959 177.79068,96.4604082 177.685113,99.5090204 C179.917856,99.1141224 182.066144,98.3927755 184.219711,97.7082857 C182.272,95.2125306 180.614598,92.4219184 178.160165,90.368449 Z" id="Shape"></path>
                <path d="M87.5308866,89.6365714 C89.0299381,89.7050204 90.5237113,89.7997959 92.0227629,89.9366939 C91.9699794,92.6588571 90.9354227,95.2335918 90.7401237,97.9452245 C90.4498144,101.283429 89.4416495,104.511061 89.0616082,107.833469 L89.299134,108.238898 C92.1177732,108.876 94.9522474,109.460449 97.8395052,109.671061 C97.9239588,110.818898 97.792,111.966735 97.2641649,113.009265 C92.8409072,112.366898 88.4545979,111.54551 84.0102268,111.01898 C83.9204948,108.402122 84.6964124,105.885306 85.0711753,103.321102 C85.7309691,98.7297551 86.739134,94.2068571 87.5308866,89.6365714 Z" id="Shape"></path>
                <path d="M148.015505,91.5004898 C151.932041,90.7370204 155.954144,90.0104082 159.949856,90.3526531 C162.541526,90.4842857 164.019464,93.0484898 164.47868,95.3125714 C164.600082,97.5187347 162.705155,99.0351429 161.063588,100.167184 C163.106309,100.572612 165.476289,101.157061 166.310268,103.321102 C166.843381,105.253469 166.948948,107.701837 165.50268,109.291959 C164.235876,110.476653 162.620701,111.298041 160.899959,111.582367 C157.854351,112.072041 154.840412,112.740735 151.768412,113.098776 C150.670515,110.613551 150.564948,107.849265 150.052948,105.216612 C149.667629,100.598939 147.888825,96.165551 148.015505,91.5004898 Z M153.304412,94.0278367 C152.338474,95.6021633 153.621113,97.6661633 153.816412,99.3879184 C156.239175,99.6090612 158.693608,98.7824082 160.182103,96.7973878 C159.717608,95.854898 159.495918,94.7070612 158.635546,94.033102 C156.888412,93.6645306 155.056825,93.790898 153.304412,94.0278367 Z M154.877361,102.557633 C154.829856,104.65849 155.035711,106.759347 155.510763,108.807551 C157.469031,108.654857 159.791505,108.770694 161.264165,107.227959 C162.245938,106.317061 162.494021,104.753265 161.543918,103.721265 C160.034309,101.57302 157.067876,102.583959 154.877361,102.557633 Z" id="Shape"></path>
                <path d="M105.065567,92.0006939 C108.237856,91.7900816 111.383753,92.3587347 114.550763,92.3060816 C116.081485,92.2744898 117.575258,92.6062041 119.037361,93.0221633 C119.053196,94.1331429 118.884289,95.2283265 118.377567,96.234 C115.458639,95.6074286 112.471093,95.4442041 109.488825,95.5021224 C109.314639,97.3186531 109.177402,99.140449 109.214351,100.962245 C111.911588,101.193918 114.614103,101.246571 117.321897,101.278163 C117.358845,102.389143 117.37468,103.500122 117.364124,104.611102 C114.598268,104.553184 111.832412,104.31098 109.061278,104.405755 C108.628454,106.490816 108.369814,108.607469 108.517608,110.739918 C111.510433,110.882082 114.503258,110.982122 117.496082,111.140082 C117.490804,112.224735 117.464412,113.309388 117.416907,114.399306 C114.862186,114.362449 112.318021,114.11498 109.763299,114.104449 C107.715299,114.014939 105.56701,114.267673 103.645691,113.404163 C104.147134,108.391592 103.825155,103.305306 104.727753,98.3401224 C104.907216,96.2287347 104.838598,94.1068163 105.065567,92.0006939 Z" id="Shape"></path>
                <path d="M139.432907,92.174449 C140.89501,92.0638776 142.362392,92.0112245 143.829773,92.0586122 C142.008742,96.5920408 138.852289,100.435714 136.746227,104.816449 C136.239505,107.886122 136.788454,111.040041 136.630103,114.146571 C135.04132,114.272939 133.452536,114.362449 131.858474,114.351918 C131.742351,111.692939 131.737072,109.023429 131.578722,106.364449 C131.510103,105.374571 130.755299,104.632163 130.269691,103.821306 C127.688577,100.19351 124.980784,96.6499592 122.420784,93.0063673 C124.220701,92.9063265 126.031175,92.9115918 127.836371,92.8694694 C129.910763,95.3652245 131.620948,98.1347755 133.294186,100.904327 C133.573938,100.909592 134.133443,100.925388 134.413196,100.930653 C136.033649,97.9820816 137.495753,94.9334694 139.432907,92.174449 Z" id="Shape"></path>
            </g>
            <g id="#0c7fbeff" fill="#0C7FBE">
                <path d="M108.728742,0.905632653 C111.916866,1.01093878 115.041649,0.194816327 118.229773,0.221142857 C124.569072,0.157959184 130.913649,0.173755102 137.258227,0.226408163 C140.25633,0.16322449 143.185814,0.96355102 146.183918,0.895102041 C156.022763,1.4584898 165.76132,3.04334694 175.436536,4.8177551 C183.565196,6.29730612 191.509113,8.60877551 199.384412,11.0624082 C206.441567,13.7055918 213.593732,16.2118776 220.218062,19.8291429 C229.645196,24.6942857 238.512825,30.8862857 245.585814,38.8316327 C250.626639,44.3707347 254.163134,51.2998776 255.540784,58.6607755 C256.084454,62.7782449 256.036948,66.9904898 255.435216,71.0974286 C253.730309,78.4951837 249.898227,85.3558776 244.656825,90.8475918 C240.613608,95.2441224 236.12701,99.2457551 231.096742,102.494449 C226.641814,105.327184 222.192165,108.217837 217.346639,110.339755 C204.388289,116.600204 190.574845,121.09151 176.423588,123.708367 C167.350103,125.746041 158.097155,127.036041 148.807258,127.552041 C146.173361,127.583633 143.608082,128.331306 140.968907,128.352367 C131.847918,128.610367 122.695258,128.82098 113.584825,128.199673 C110.760907,127.71 107.900041,127.578367 105.039175,127.462531 C93.9493608,126.551633 82.9387216,124.714041 72.1128247,122.160367 C68.5341031,121.144163 64.9501031,120.14902 61.3397113,119.248653 C47.4101443,114.825796 33.6969897,109.070816 21.8998763,100.335673 C13.7237113,94.2068571 6.23373196,86.5458367 2.43859794,76.9050612 C1.23513402,74.0723265 0.797030928,70.9973878 0,68.0382857 L0,60.9511837 C0.670350515,58.2711429 1.09789691,55.5279184 1.92659794,52.8847347 C5.48948454,43.3492653 12.5677526,35.5724082 20.5433402,29.4383265 C26.3917526,24.6047755 33.2377732,21.2139184 39.936,17.733551 C46.1750103,15.0745714 52.3612371,12.2365714 58.8852784,10.3252653 C61.9995052,9.49334694 65.0715052,8.50346939 68.1540619,7.5662449 C72.9520825,6.49212245 77.7289897,5.30742857 82.5639588,4.40179592 C91.2574021,3.07493878 99.9244536,1.3742449 108.728742,0.905632653 Z M116.371794,3.03281633 C113.400082,3.57514286 110.375588,3.28028571 107.388041,3.55934694 C103.577072,4.19644898 99.6816495,4.11746939 95.8917938,4.89146939 C92.6456082,5.56016327 89.2938557,5.57595918 86.0898969,6.44473469 C70.745732,9.18795918 55.5757526,13.4581224 41.5300619,20.2924898 C32.9474639,24.4520816 24.6551753,29.4909796 17.8672165,36.2516327 C12.3302268,41.6117143 7.56387629,48.1406939 5.6636701,55.7016735 C4.32824742,59.6032653 4.1276701,63.7681224 4.59216495,67.8382041 C5.6531134,72.1768163 6.71934021,76.626 9.09987629,80.4696735 C13.1219794,87.5567755 19.1181856,93.3222857 25.6738969,98.0821224 C31.6912165,102.77351 38.595299,106.159102 45.4993814,109.339347 C59.8828866,115.584 75.1531546,119.717265 90.6451134,122.034 C95.4642474,123.287143 100.520907,122.850122 105.361155,123.950571 C110.861196,124.508694 116.408742,124.43498 121.914062,124.96151 C127.250474,124.924653 132.613278,125.224776 137.933856,124.666653 C143.148866,124.377061 148.41666,124.482367 153.56833,123.50302 C157.674887,123.029143 161.850062,122.992286 165.882722,122.034 C184.346392,119.253918 202.556701,114.025469 219.157113,105.379837 C228.098639,100.54102 236.728742,94.6702041 243.13666,86.6827347 C248.41501,80.2327347 252.115134,72.1504898 251.946227,63.7049388 C252.051794,60.0771429 251.059464,56.5493878 250.162144,53.0690204 C248.842557,49.3095918 246.562309,45.9713878 244.366515,42.6753061 C238.855918,35.5144898 231.650969,29.791102 223.970969,25.0891837 C217.241072,21.2297143 210.210309,17.870449 202.942021,15.1324898 C188.484619,9.6302449 173.246021,6.61322449 157.975753,4.44918367 C155.067381,4.10167347 152.122062,4.08587755 149.234804,3.55408163 C146.241979,3.34873469 143.228041,3.48036735 140.251052,2.99069388 C132.296577,2.7484898 124.32099,2.64844898 116.371794,3.03281633 Z" id="Shape"></path>
                <path d="M120.082474,4.68085714 C122.441897,4.37546939 124.83299,4.57555102 127.202969,4.49657143 C130.750021,4.52816327 134.323464,4.3017551 137.849402,4.83881633 C140.488577,5.13367347 143.154144,4.86514286 145.79332,5.15473469 C149.583175,5.72865306 153.431093,5.73391837 157.226227,6.22885714 C161.480577,7.10816327 165.872165,7.16081633 170.089567,8.24546939 C174.423093,8.96155102 178.703835,9.94616327 182.995134,10.8570612 C188.099299,12.4945714 193.40932,13.4686531 198.397361,15.4694694 C209.819711,19.2868163 220.819794,24.5837143 230.579464,31.665551 C239.869361,38.6262857 248.135258,48.2354694 250.019629,60.0086939 C250.035464,63.8944898 250.563299,67.9487755 249.21732,71.6871429 C246.324784,81.7070204 239.056495,89.852449 230.853938,96.0128571 C225.237773,100.061878 219.362969,103.80551 212.997278,106.569796 C201.031258,112.440612 188.109856,116.084204 175.114557,118.869551 C172.327588,119.675143 169.40866,119.79098 166.563629,120.30698 C161.945072,121.370571 157.178722,121.470612 152.523216,122.313061 C146.748701,122.97649 140.916124,122.792204 135.13633,123.329265 C128.965938,123.318735 122.779711,123.571469 116.630433,123.034408 C112.402474,122.823796 108.15868,122.802735 103.951835,122.297265 C99.9772371,121.591714 95.939299,121.354776 91.9541443,120.759796 C88.4915464,119.912082 84.8811546,119.848898 81.4555052,118.837959 C75.2692784,117.516367 69.0777732,116.147388 63.0762887,114.12551 C58.067134,112.83551 53.3799588,110.618816 48.5080412,108.923388 C42.4115464,106.306531 36.5314639,103.2 30.8625155,99.7512245 C25.0299381,95.9128163 19.6776907,91.3425306 15.0485773,86.1140816 C12.0557526,82.2282857 9.34795876,78.0265714 7.80140206,73.340449 C6.20206186,69.1545306 6.33929897,64.568449 6.57682474,60.1613878 C6.71406186,56.76 8.21839175,53.664 9.46936082,50.5627347 C12.6469278,43.8020816 17.8408247,38.2419184 23.5731134,33.54 C36.3467216,23.341102 51.7331134,16.9384898 67.3834227,12.5630204 C74.0024742,10.4779592 80.8379381,9.21955102 87.6628454,8.04012245 C92.2286186,6.82910204 97.0055258,6.93967347 101.618804,6.0182449 C104.131299,5.64440816 106.686021,5.66546939 109.203794,5.31269388 C112.798351,4.67559184 116.487918,5.3337551 120.082474,4.68085714 Z M92.0333196,14.9587347 C85.0395052,20.4715102 80.1834227,28.1957143 76.377732,36.1305306 C76.1085361,36.894 75.0950928,36.7676327 74.451134,36.9045306 C69.0936082,37.1467347 63.2821443,36.7202449 58.790268,33.4978776 C56.4044536,31.7234694 55.6390928,28.5063673 56.515299,25.7473469 C57.4706804,23.6833469 59.2072577,22.0563673 61.1549691,20.9137959 C66.0057732,18.1495102 71.980866,18.1705714 77.2908866,19.3447347 C79.5658557,19.5342857 80.4684536,22.9146122 82.9070515,21.8246939 C82.009732,18.3495918 78.6263093,16.5277959 75.5173608,15.358898 C70.3709691,13.5897551 64.5542268,14.8376327 60.0887423,17.7651429 C56.8953402,19.9555102 53.9658557,23.2989796 54.0028041,27.3795918 C53.6649897,30.4229388 55.3593402,33.3873061 57.856,35.0511429 C62.8229278,38.5157143 69.0936082,39.1106939 74.9789691,38.7 C73.7755052,41.9223673 71.7750103,44.7761633 69.8695258,47.6194286 C68.9299794,48.640898 67.9059794,50.5943265 66.259134,49.7624082 C62.8809897,48.5250612 59.4236701,47.3140408 55.7868866,47.1929388 C50.3765773,46.7085306 44.3962062,47.3772245 40.1999175,51.152449 C38.2522062,52.7373061 36.1936495,55.3067755 37.4762887,57.9183673 C38.5425155,60.493102 41.4614433,61.1565306 43.8947629,61.7778367 C47.4523711,62.3886122 50.9994227,61.404 54.467299,60.7089796 C58.5369072,59.924449 61.9625567,57.4708163 65.5254433,55.5121224 C68.1329485,56.7073469 69.9539794,58.9872245 72.2447835,60.6352653 C79.0696907,65.8689796 86.2535258,70.9131429 94.4508041,73.7722041 C100.827052,76.1363265 107.593897,77.0788163 114.27101,78.2213878 C121.153979,78.9322041 128.021113,79.8536327 134.962144,79.8957551 C142.964124,80.048449 151.034722,80.116898 158.962804,78.8690204 C165.708536,78.1845306 172.44899,77.1525306 179.020536,75.4465714 C188.004289,73.0982449 196.982763,70.0075102 204.583588,64.5421224 C206.642144,62.9098776 208.874887,61.2723673 210.078351,58.8713878 C209.117691,58.6765714 207.96701,58.3237959 207.191093,59.1609796 C203.575423,62.2411837 199.880577,65.4161633 195.378144,67.1326531 C190.358433,69.5125714 184.921732,70.760449 179.61699,72.3242449 C175.056495,73.5510612 170.353485,74.0723265 165.729649,74.9832245 C162.926845,75.3991837 160.081814,75.3939184 157.294845,75.9099184 C153.906144,76.2521633 150.469938,75.9099184 147.091794,76.4575102 C142.584082,76.7049796 138.055258,76.6312653 133.56866,76.1415918 C129.483216,76.231102 125.487505,75.3728571 121.433732,75.078 C116.282062,74.1355102 111.04066,73.651102 105.999835,72.171551 C101.064577,70.5972245 95.9815258,69.280898 91.4157526,66.7693469 C86.9766598,64.5157959 82.944,61.5724898 79.043299,58.5080816 C76.1085361,56.4124898 73.5432577,53.8430204 70.4184742,52.0159592 C72.0969897,49.7729388 74.3350103,48.0511837 76.2035464,45.9819184 C77.7764948,44.2180408 79.3072165,42.4120408 80.7376495,40.5323265 C81.9886186,38.9158776 82.944,36.8413469 85.0764536,36.2358367 C91.0040412,33.9612245 96.4988041,30.4545306 100.753155,25.7262857 C103.640412,22.4144082 106.59101,18.7760816 107.42499,14.3532245 C107.799753,12.5893469 107.314144,9.82506122 105.060289,9.78293878 C100.088082,9.16689796 95.8812371,12.2997551 92.0333196,14.9587347 Z M104.632742,27.5006939 C103.012289,28.9802449 101.391835,31.6181633 102.84866,33.7137551 C103.814598,35.7356327 106.62268,35.2406939 108.153402,34.1718367 C110.053608,33.2925306 111.151505,31.407551 111.536825,29.4225306 C111.357361,28.4221224 111.00899,27.4585714 110.734515,26.4844898 C108.691794,25.8947755 106.216247,25.868449 104.632742,27.5006939 Z M149.171464,38.6473469 C145.661361,40.627102 143.42334,44.0916735 140.842227,47.0613061 C140.89501,45.2447755 141.370062,43.4071837 140.990021,41.5959184 C140.741938,39.7267347 138.889237,38.0207755 136.920412,38.5683673 C134.434309,39.3686939 132.507711,41.28 131.003381,43.3492653 C129.852701,44.9762449 128.395876,46.508449 127.963052,48.5145306 C128.279753,48.6040408 128.913155,48.7883265 129.229856,48.8778367 C130.866144,47.1139592 131.826804,44.8551429 133.457814,43.086 C134.434309,41.9750204 135.621938,41.090449 136.762062,40.1584898 C137.094598,40.2216735 137.75967,40.3533061 138.092206,40.4164898 C137.221278,43.5756735 135.289402,46.2820408 133.732289,49.1200408 C131.731794,52.2897551 129.958268,55.5858367 127.963052,58.755551 C126.807093,60.6615918 125.228866,62.3570204 124.616577,64.5526531 C127.144907,63.5153878 130.100784,62.7993061 132.54466,64.4789388 C133.378639,62.8414286 134.223175,61.2091837 135.19967,59.6453878 C138.530309,53.9483265 141.639258,47.9616735 146.342268,43.2334286 C146.632577,43.2439592 147.223753,43.2650204 147.514062,43.275551 C147.698804,44.0706122 147.878268,44.8709388 148.052454,45.6712653 C148.849485,45.9766531 149.641237,46.303102 150.43299,46.6348163 C152.053443,45.7607755 153.937814,44.6708571 154.328412,42.7121633 C154.576495,41.3853061 154.771794,39.8320408 153.869196,38.6947347 C152.438763,37.8891429 150.601897,37.7996327 149.171464,38.6473469 Z M97.4172371,38.8000408 C94.6461031,40.0321224 92.355299,42.0908571 90.2967423,44.2654286 C89.6316701,45.0868163 88.7501856,45.9871837 88.9085361,47.1350204 C90.6451134,48.0353878 91.4474227,45.8397551 92.4133608,44.8498776 C94.118268,42.9227755 96.0712577,40.3585714 98.9743505,40.7482041 C98.8054433,41.7538776 98.7051546,42.8227347 98.0348041,43.6441224 C95.0683711,47.8879592 90.6451134,51.3367347 89.193567,56.4862041 C88.1801237,60.0139592 90.323134,64.9791429 94.4719175,64.9159592 C97.8870103,64.0787755 100.425897,61.2197143 102.378887,58.4501633 C102.991175,57.8446531 102.426392,57.1022449 102.252206,56.4440816 C100.404784,57.2707347 99.5338557,59.1662449 98.2037113,60.561551 C96.9263505,61.8778776 95.4906392,63.5417143 93.4373608,63.1257551 C93.4954227,62.3833469 93.4162474,61.593551 93.8121237,60.9248571 C96.0923711,56.5757143 100.035299,53.3744082 102.410557,49.0831837 C103.566515,46.303102 103.614021,42.8595918 102.093856,40.2058776 C101.154309,38.5841633 99.0904742,38.2208571 97.4172371,38.8000408 Z M107.636124,48.8673061 C105.05501,52.4108571 104.685526,57.7130204 107.467216,61.2407755 C109.230186,63.847102 112.692784,65.8005306 115.822845,64.4262857 C120.003299,62.5676327 122.953897,58.8661224 125.50334,55.2014694 C126.173691,54.4327347 125.930887,53.4112653 125.846433,52.5003673 C125.593072,52.4898367 125.075794,52.4687755 124.822433,52.4582449 C122.220206,56.3966939 119.639093,60.8142857 115.215835,62.9467347 C113.901526,63.6154286 111.48932,63.6944082 111.051216,61.9305306 C110.401979,59.0925306 112.138557,56.5125306 113.262845,54.043102 C113.854021,52.3108163 115.902021,52.2581633 117.385237,51.8158776 C121.354557,50.7101633 125.323876,48.7409388 127.804701,45.3500816 C128.849814,43.8284082 129.879093,41.4748163 128.327258,39.9268163 C126.828206,37.9733878 124.094021,38.6210204 121.966845,38.6789388 C116.113155,40.111102 111.130392,44.0653469 107.636124,48.8673061 Z M155.294351,42.7858776 C154.14367,44.4339184 152.723794,46.0977551 152.655175,48.2091429 C152.966598,48.2196735 153.594722,48.2354694 153.906144,48.2407347 C155.632165,45.7660408 156.914804,42.9280408 159.100041,40.8008571 C159.596206,40.1848163 160.424907,40.1742857 161.137485,39.9794694 C160.926351,44.3022857 158.11299,47.8300408 156.001649,51.4157143 C153.974763,54.9487347 151.731464,58.3448571 149.540948,61.783102 C148.886433,62.8361633 148.09468,63.862898 147.962722,65.1423673 C149.419546,64.8685714 150.739134,64.1840816 152.12734,63.6996735 C153.626392,63.21 154.977649,64.2893878 156.344742,64.7264082 C157.611546,61.662 159.490639,58.9187755 161.126928,56.0491837 C163.634144,51.6315918 166.695588,47.5667755 169.783423,43.5440816 C171.060784,42.0224082 172.385649,40.2743265 174.428371,39.800449 C174.349196,40.7587347 174.201402,41.7328163 173.647175,42.5489388 C171.192742,46.6084898 167.914887,50.173102 165.930227,54.5117143 C164.726763,57.6866939 165.323216,61.8041633 168.210474,63.8997551 C169.44033,64.9738776 171.340536,65.4424898 172.734021,64.3683673 C175.13567,62.6466122 177.130887,60.3351429 178.709113,57.8499184 C178.693278,57.534 178.661608,56.9074286 178.645773,56.5915102 L177.996536,56.4493469 C175.837691,57.9341633 174.887588,60.6510612 172.871258,62.3517551 C172.174515,63.2889796 171.034392,63.4100816 169.962887,63.21 C170.036784,62.4412653 169.95233,61.6304082 170.253196,60.9037959 C172.48066,56.4177551 176.434144,52.9742449 178.350186,48.3249796 C179.078598,45.2974286 179.284454,41.3379184 176.634722,39.1422857 C175.547381,38.0576327 173.710515,37.8417551 172.44899,38.7473878 C168.780536,41.1746939 166.758928,45.1973878 163.892784,48.4092245 C164.726763,46.0345714 165.122639,43.344 164.367835,40.9061633 C163.581361,39.5793061 162.282887,37.8891429 160.519918,38.3630204 C158.229113,39.0106531 156.661443,40.953551 155.294351,42.7858776 Z M199.236619,38.7157959 C194.523052,40.0479184 190.194804,42.7806122 187.033072,46.5242449 C184.177485,49.3833061 182.308948,53.6060816 183.343505,57.655102 C184.114144,60.6142041 186.119918,63.4995918 189.091629,64.5526531 C190.997113,64.7948571 193.11901,64.8317143 194.760577,63.6838776 C198.714062,61.2355102 201.432412,57.3655102 204.071588,53.6429388 C203.591258,53.1795918 203.116206,52.7057143 202.65699,52.2213061 C199.706392,56.1544898 197.098887,60.7458367 192.538392,63.0309796 C191.255753,63.4837959 188.901608,63.7049388 188.648247,61.9147347 C188.072907,58.6186531 189.756701,55.3541633 191.609402,52.7478367 C196.175175,51.4946939 201.115711,50.1467755 204.309113,46.3768163 C205.992907,44.7761633 206.763546,42.2909388 205.929567,40.0742449 C204.35134,38.0365714 201.485196,38.4893878 199.236619,38.7157959 Z M36.2094845,66.8957143 C33.2113814,73.9564898 29.6009897,80.7750612 26.9882062,87.9937959 C28.2338969,89.1574286 29.484866,90.5422041 31.2003299,90.9739592 C32.9474639,90.8739184 34.4148454,89.7471429 35.9350103,88.9836735 C39.4926186,87.1197551 43.0449485,85.2347755 46.5708866,83.3182041 C48.6505567,82.1914286 50.8516289,81.2542041 52.736,79.8115102 C51.7225567,79.0269796 50.7618969,78.1529388 49.6059381,77.5842857 C48.4869278,77.4 47.5421031,78.1318776 46.6025567,78.6004898 C43.2771959,80.6013061 39.6931959,82.1493061 36.4047835,84.2133061 C35.2329897,84.9293878 33.9925773,85.5243673 32.6888247,85.9561224 C34.6682062,80.496 37.9724536,75.5518776 39.8093196,70.0338367 C39.5665155,68.4805714 37.7877113,67.1695102 36.2094845,66.8957143 Z M206.858557,77.9581224 C211.783258,83.6183265 216.507381,89.4786122 221.680165,94.9124082 C225.258887,92.3060816 228.92734,89.7892653 232.331876,86.9565306 C231.635134,86.0772245 230.896165,85.2242449 230.146639,84.3870612 C227.628866,85.9561224 225.501691,88.1306939 222.78334,89.3785714 C218.729567,84.8346122 214.781361,80.2011429 210.859546,75.5518776 C209.217979,75.3781224 208.146474,77.1683265 206.858557,77.9581224 Z M53.5171959,81.4121633 C47.0037113,82.8969796 42.7599175,90.2578776 44.137567,96.6657551 C44.9926598,98.7560816 46.5708866,100.456776 48.3496907,101.809959 C51.0522062,103.968735 54.7628866,104.216204 58.0829691,103.942408 C61.862268,103.579102 64.8234227,100.662122 66.4174845,97.3976327 C67.9376495,94.9018776 68.1540619,91.8637959 67.6578969,89.0468571 C65.5571134,83.5604082 59.1861443,80.5170612 53.5171959,81.4121633 Z M194.132454,84.176449 C197.468371,90.7580816 201.057649,97.2133469 204.720825,103.615959 C207.639753,102.378612 210.426722,100.846408 213.372041,99.6617143 C214.760247,99.1193878 216.042887,98.3717143 217.256907,97.5082041 C216.581278,96.5973061 215.916206,95.6811429 215.288082,94.7386531 C212.670021,96.1339592 209.978062,97.3818367 207.301938,98.6560408 C203.992412,93.327551 201.453526,87.5357143 197.975093,82.3177959 C196.629113,82.7916735 195.293691,83.3287347 194.132454,84.176449 Z M74.3402887,88.2412653 C73.7174433,92.7220408 71.7327835,96.8395102 70.7087835,101.220245 C70.0701031,103.926612 68.5288247,106.427633 68.6660619,109.286694 C73.0154227,109.976449 77.2169897,111.371755 81.4871753,112.419551 C81.9094433,111.440204 82.3475464,110.476653 82.7592577,109.497306 C79.8614433,108.365265 76.7947216,107.807143 73.8705155,106.759347 C75.7390515,100.983306 77.417567,95.1493469 79.2122062,89.3522449 C77.6973196,88.5993061 76.0346392,88.2044082 74.3402887,88.2412653 Z M178.23934,89.2837959 C178.133773,93.7487755 177.822351,98.2084898 177.590103,102.662939 C177.051711,105.932694 176.745567,109.281429 177.12033,112.588041 C178.503258,112.161551 179.870351,111.682408 181.21633,111.145347 C181.300784,109.318286 181.321897,107.464898 181.939464,105.716816 C184.879505,105.190286 187.682309,104.147755 190.569567,103.431673 C192.226969,104.374163 193.214021,106.148571 194.52833,107.49649 C196.238515,106.906776 197.996206,106.46449 199.748619,105.990612 C198.075381,104.542653 196.629113,102.86302 195.256742,101.136 C192.253361,97.645102 189.223588,94.1805306 186.209649,90.7001633 C185.396784,89.8419184 184.821443,88.615102 183.691876,88.1517551 C181.802227,88.0253878 179.997031,88.683551 178.23934,89.2837959 Z M91.753567,92.2692245 C90.9618144,96.8395102 89.9536495,101.362408 89.2938557,105.953755 C88.9190928,108.517959 88.1431753,111.034776 88.2329072,113.651633 C92.6772784,114.178163 97.0635876,114.999551 101.486845,115.641918 C102.01468,114.599388 102.146639,113.451551 102.062186,112.303714 C99.1749278,112.093102 96.3404536,111.508653 93.5218144,110.871551 L93.2842887,110.466122 C93.6643299,107.143714 94.6724948,103.916082 94.9628041,100.577878 C95.1581031,97.8662449 96.1926598,95.2915102 96.2454433,92.5693469 C94.7463918,92.432449 93.2526186,92.3376735 91.753567,92.2692245 Z M152.238186,94.1331429 C152.111505,98.7982041 153.890309,103.231592 154.275629,107.849265 C154.787629,110.481918 154.893196,113.246204 155.991093,115.731429 C159.063093,115.373388 162.077031,114.704694 165.122639,114.21502 C166.843381,113.930694 168.458557,113.109306 169.725361,111.924612 C171.171629,110.33449 171.066062,107.886122 170.532948,105.953755 C169.698969,103.789714 167.32899,103.205265 165.286268,102.799837 C166.927835,101.667796 168.822763,100.151388 168.701361,97.9452245 C168.242144,95.6811429 166.764206,93.1169388 164.172536,92.9853061 C160.176825,92.6430612 156.154722,93.3696735 152.238186,94.1331429 Z M109.288247,94.6333469 C109.061278,96.7394694 109.129897,98.8613878 108.950433,100.972776 C108.047835,105.937959 108.369814,111.024245 107.868371,116.036816 C109.789691,116.900327 111.937979,116.647592 113.985979,116.737102 C116.540701,116.747633 119.084866,116.995102 121.639588,117.031959 C121.687093,115.942041 121.713485,114.857388 121.718763,113.772735 C118.725938,113.614776 115.733113,113.514735 112.740289,113.372571 C112.592495,111.240122 112.851134,109.123469 113.283959,107.038408 C116.055093,106.943633 118.820948,107.185837 121.586804,107.243755 C121.597361,106.132776 121.581526,105.021796 121.544577,103.910816 C118.836784,103.879224 116.134268,103.826571 113.437031,103.594898 C113.400082,101.773102 113.53732,99.9513061 113.711505,98.1347755 C116.693773,98.0768571 119.68132,98.2400816 122.600247,98.8666531 C123.106969,97.8609796 123.275876,96.7657959 123.260041,95.6548163 C121.797938,95.2388571 120.304165,94.9071429 118.773443,94.9387347 C115.606433,94.9913878 112.460536,94.4227347 109.288247,94.6333469 Z M143.655588,94.807102 C141.718433,97.5661224 140.25633,100.614735 138.635876,103.563306 C138.356124,103.558041 137.796619,103.542245 137.516866,103.53698 C135.843629,100.767429 134.133443,97.9978776 132.059052,95.5021224 C130.253856,95.5442449 128.443381,95.5389796 126.643464,95.6390204 C129.203464,99.2826122 131.911258,102.826163 134.492371,106.453959 C134.977979,107.264816 135.732784,108.007224 135.801402,108.997102 C135.959753,111.656082 135.965031,114.325592 136.081155,116.984571 C137.675216,116.995102 139.264,116.905592 140.852784,116.779224 C141.011134,113.672694 140.462186,110.518776 140.968907,107.449102 C143.074969,103.068367 146.231423,99.2246939 148.052454,94.6912653 C146.585072,94.6438776 145.117691,94.6965306 143.655588,94.807102 Z" id="Shape"></path>
                <path d="M103.033402,12.1891837 C103.804041,11.6837143 104.706639,12.0364898 105.519505,12.1997143 C105.630351,15.153551 104.094351,17.8125306 102.568907,20.2293061 C99.5919175,24.5363265 95.6225979,28.1009388 91.2837938,31.0021224 C89.689732,32.1762857 87.9320412,33.1293061 86.0371134,33.7137551 C86.633567,32.4448163 87.3883711,31.2495918 88.2276289,30.1228163 C91.3365773,25.8315918 94.1921649,21.3613469 97.4489072,17.1806939 C99.1115876,15.3273061 100.784825,13.3528163 103.033402,12.1891837 Z" id="Shape"></path>
                <path d="M122.27299,41.4274286 C123.101691,40.6113061 124.125691,40.0531837 125.255258,39.7846531 C126.215918,42.9438367 123.48701,45.4448571 121.560412,47.5457143 C119.945237,49.3780408 117.675546,50.4100408 115.247505,50.5627347 C117.300784,47.3193061 119.470186,44.0811429 122.27299,41.4274286 Z" id="Shape"></path>
                <path d="M200.651216,40.6376327 C201.305732,39.9952653 202.261113,40.1163673 203.100371,40.0795102 C203.174268,43.3387347 200.740948,45.8871429 198.56099,48.0090612 C197.009155,49.5623265 194.897814,50.2784082 192.775918,50.6206531 C194.97699,47.0086531 197.278351,43.2913469 200.651216,40.6376327 Z" id="Shape"></path>
                <path d="M42.4115464,52.252898 C45.4518763,49.9677551 49.4898144,49.7413469 53.1477113,50.0730612 C56.7158763,50.3363265 59.8723299,52.1370612 63.0762887,53.5534286 C63.0498969,53.7535102 63.0076701,54.1431429 62.9865567,54.3379592 C59.0858557,56.9390204 54.6837113,58.7871429 50.0809897,59.6980408 C47.8376907,59.9297143 45.5732784,59.9033878 43.324701,59.787551 C41.7042474,59.7612245 40.3899381,58.5765306 39.5717938,57.2812653 C38.8961649,55.0803673 40.8122062,53.3954694 42.4115464,52.252898 Z" id="Shape"></path>
                <path d="M55.5704742,85.2031837 C58.8377732,84.502898 63.2979794,86.8670204 63.1501856,90.5790612 C63.3771546,94.3226939 61.0282887,97.8715102 57.9985155,99.9039184 C54.979299,101.346612 50.8938557,100.251429 49.1942268,97.3081224 C47.4470928,92.4798367 50.6616082,86.5826939 55.5704742,85.2031837 Z" id="Shape"></path>
                <path d="M182.382845,93.001102 C184.837278,95.0545714 186.49468,97.8451837 188.442392,100.340939 C186.288825,101.025429 184.140536,101.746776 181.907794,102.141673 C182.013361,99.0930612 182.171711,96.044449 182.382845,93.001102 Z" id="Shape"></path>
                <path d="M157.527093,96.6604898 C159.279505,96.423551 161.111093,96.2971837 162.858227,96.6657551 C163.718598,97.3397143 163.940289,98.487551 164.404784,99.4300408 C162.916289,101.415061 160.461856,102.241714 158.039093,102.020571 C157.843794,100.298816 156.561155,98.2348163 157.527093,96.6604898 Z" id="Shape"></path>
                <path d="M159.100041,105.190286 C161.290557,105.216612 164.25699,104.205673 165.766598,106.353918 C166.716701,107.385918 166.468619,108.949714 165.486845,109.860612 C164.014186,111.403347 161.691711,111.28751 159.733443,111.440204 C159.258392,109.392 159.052536,107.291143 159.100041,105.190286 Z" id="Shape"></path>
            </g>
        </g>
    </g>
</svg>