<?xml version="1.0" encoding="UTF-8" ?>
<!DOCTYPE svg PUBLIC "-//W3C//DTD SVG 1.1//EN" "http://www.w3.org/Graphics/SVG/1.1/DTD/svg11.dtd">
<svg width="502pt" height="259pt" viewBox="0 0 502 259" version="1.1" xmlns="http://www.w3.org/2000/svg">
<g id="#fefefeff">
<path fill="#fefefe" opacity="1.00" d=" M 220.47 11.76 C 235.53 11.03 250.64 11.22 265.71 11.68 C 271.35 12.61 277.06 12.36 282.73 12.75 C 288.20 13.76 293.78 13.79 299.29 14.45 C 328.22 18.56 357.09 24.29 384.48 34.74 C 398.25 39.94 411.57 46.32 424.32 53.65 C 438.87 62.58 452.52 73.45 462.96 87.05 C 467.12 93.31 471.44 99.65 473.94 106.79 C 475.64 113.40 477.52 120.10 477.32 126.99 C 477.64 143.03 470.63 158.38 460.63 170.63 C 448.49 185.80 432.14 196.95 415.20 206.14 C 383.75 222.56 349.25 232.49 314.27 237.77 C 306.63 239.59 298.72 239.66 290.94 240.56 C 281.18 242.42 271.20 242.22 261.32 242.77 C 251.24 243.83 241.08 243.26 230.97 243.33 C 220.54 242.33 210.03 242.47 199.61 241.41 C 190.44 239.32 180.86 240.15 171.73 237.77 C 142.38 233.37 113.45 225.52 86.20 213.66 C 73.12 207.62 60.04 201.19 48.64 192.28 C 36.22 183.24 24.86 172.29 17.24 158.83 C 12.73 151.53 10.71 143.08 8.70 134.84 C 7.82 127.11 8.20 119.20 10.73 111.79 C 14.33 97.43 23.36 85.03 33.85 74.85 C 46.71 62.01 62.42 52.44 78.68 44.54 C 105.29 31.56 134.03 23.45 163.10 18.24 C 169.17 16.59 175.52 16.56 181.67 15.29 C 188.85 13.82 196.23 13.97 203.45 12.76 C 209.11 12.23 214.84 12.79 220.47 11.76 M 227.50 14.89 C 220.69 16.13 213.70 14.88 206.89 16.09 C 202.12 16.76 197.28 16.72 192.52 17.43 C 183.78 19.18 174.73 18.97 166.08 21.27 C 153.15 23.51 140.20 25.90 127.66 29.86 C 98.01 38.17 68.86 50.33 44.66 69.70 C 33.80 78.63 23.96 89.19 17.94 102.03 C 15.57 107.92 12.72 113.80 12.46 120.26 C 12.01 128.63 11.75 137.34 14.78 145.29 C 17.71 154.19 22.84 162.17 28.51 169.55 C 37.28 179.48 47.42 188.16 58.47 195.45 C 69.21 202.00 80.35 207.90 91.90 212.87 C 101.13 216.09 110.01 220.30 119.50 222.75 C 130.87 226.59 142.60 229.19 154.32 231.70 C 160.81 233.62 167.65 233.74 174.21 235.35 C 181.76 236.48 189.41 236.93 196.94 238.27 C 204.91 239.23 212.95 239.27 220.96 239.67 C 232.61 240.69 244.33 240.21 256.02 240.23 C 266.97 239.21 278.02 239.56 288.96 238.30 C 297.78 236.70 306.81 236.51 315.56 234.49 C 320.95 233.51 326.48 233.29 331.76 231.76 C 356.38 226.47 380.86 219.55 403.53 208.40 C 415.59 203.15 426.72 196.04 437.36 188.35 C 452.90 176.65 466.67 161.18 472.15 142.15 C 474.70 135.05 473.70 127.35 473.67 119.97 C 470.10 97.61 454.44 79.36 436.84 66.14 C 418.35 52.69 397.51 42.63 375.87 35.38 C 366.42 31.58 356.36 29.73 346.69 26.62 C 338.56 24.89 330.45 23.02 322.24 21.66 C 314.25 19.60 305.93 19.50 297.87 17.83 C 290.68 16.89 283.39 16.88 276.21 15.79 C 271.21 15.24 266.16 15.75 261.16 15.19 C 254.48 14.17 247.71 14.60 240.99 14.54 C 236.50 14.69 231.97 14.31 227.50 14.89 Z" />
<path fill="#fefefe" opacity="1.00" d=" M 174.36 34.41 C 181.65 29.36 189.62 23.41 199.04 24.58 C 203.31 24.66 204.23 29.91 203.52 33.26 C 201.94 41.66 196.35 48.57 190.88 54.86 C 182.82 63.84 172.41 70.50 161.18 74.82 C 157.14 75.97 155.33 79.91 152.96 82.98 C 150.25 86.55 147.35 89.98 144.37 93.33 C 140.83 97.26 136.59 100.53 133.41 104.79 C 139.33 108.26 144.19 113.14 149.75 117.12 C 157.14 122.94 164.78 128.53 173.19 132.81 C 181.84 137.58 191.47 140.08 200.82 143.07 C 210.37 145.88 220.30 146.80 230.06 148.59 C 237.74 149.15 245.31 150.78 253.05 150.61 C 261.55 151.54 270.13 151.68 278.67 151.21 C 285.07 150.17 291.58 150.82 298.00 150.17 C 303.28 149.19 308.67 149.20 313.98 148.41 C 322.74 146.68 331.65 145.69 340.29 143.36 C 350.34 140.39 360.64 138.02 370.15 133.50 C 378.68 130.24 385.68 124.21 392.53 118.36 C 394.00 116.77 396.18 117.44 398.00 117.81 C 395.72 122.37 391.49 125.48 387.59 128.58 C 373.19 138.96 356.18 144.83 339.16 149.29 C 326.71 152.53 313.94 154.49 301.16 155.79 C 286.14 158.16 270.85 158.03 255.69 157.74 C 242.54 157.66 229.53 155.91 216.49 154.56 C 203.84 152.39 191.02 150.60 178.94 146.11 C 163.41 140.68 149.80 131.10 136.87 121.16 C 132.53 118.03 129.08 113.70 124.14 111.43 C 117.39 115.15 110.90 119.81 103.19 121.30 C 96.62 122.62 89.90 124.49 83.16 123.33 C 78.55 122.15 73.02 120.89 71.00 116.00 C 68.57 111.04 72.47 106.16 76.16 103.15 C 84.11 95.98 95.44 94.71 105.69 95.63 C 112.58 95.86 119.13 98.16 125.53 100.51 C 128.65 102.09 130.59 98.38 132.37 96.44 C 135.98 91.04 139.77 85.62 142.05 79.50 C 130.90 80.28 119.02 79.15 109.61 72.57 C 104.88 69.41 101.67 63.78 102.31 58.00 C 102.24 50.25 107.79 43.90 113.84 39.74 C 122.30 34.18 133.32 31.81 143.07 35.17 C 148.96 37.39 155.37 40.85 157.07 47.45 C 152.45 49.52 150.74 43.10 146.43 42.74 C 136.37 40.51 125.05 40.47 115.86 45.72 C 112.17 47.89 108.88 50.98 107.07 54.90 C 105.41 60.14 106.86 66.25 111.38 69.62 C 119.89 75.74 130.90 76.55 141.05 76.09 C 142.27 75.83 144.19 76.07 144.70 74.62 C 151.91 59.55 161.11 44.88 174.36 34.41 M 195.20 29.15 C 190.94 31.36 187.77 35.11 184.62 38.63 C 178.45 46.57 173.04 55.06 167.15 63.21 C 165.56 65.35 164.13 67.62 163.00 70.03 C 166.59 68.92 169.92 67.11 172.94 64.88 C 181.16 59.37 188.68 52.60 194.32 44.42 C 197.21 39.83 200.12 34.78 199.91 29.17 C 198.37 28.86 196.66 28.19 195.20 29.15 M 80.35 105.24 C 77.32 107.41 73.69 110.61 74.97 114.79 C 76.52 117.25 79.01 119.50 82.08 119.55 C 86.34 119.77 90.63 119.82 94.88 119.38 C 103.60 117.65 111.94 114.14 119.33 109.20 C 119.37 108.83 119.45 108.09 119.50 107.71 C 113.43 105.02 107.45 101.60 100.69 101.10 C 93.76 100.47 86.11 100.90 80.35 105.24 Z" />
<path fill="#fefefe" opacity="1.00" d=" M 198.23 58.23 C 201.23 55.13 205.92 55.18 209.79 56.30 C 210.31 58.15 210.97 59.98 211.31 61.88 C 210.58 65.65 208.50 69.23 204.90 70.90 C 202.00 72.93 196.68 73.87 194.85 70.03 C 192.09 66.05 195.16 61.04 198.23 58.23 Z" />
<path fill="#fefefe" opacity="1.00" d=" M 282.61 79.40 C 285.32 77.79 288.80 77.96 291.51 79.49 C 293.22 81.65 292.85 84.60 292.38 87.12 C 291.64 90.84 288.07 92.91 285.00 94.57 C 283.50 93.94 282.00 93.32 280.49 92.74 C 280.16 91.22 279.82 89.70 279.47 88.19 C 278.92 88.17 277.80 88.13 277.25 88.11 C 268.34 97.09 262.45 108.46 256.14 119.28 C 254.29 122.25 252.69 125.35 251.11 128.46 C 246.48 125.27 240.88 126.63 236.09 128.60 C 237.25 124.43 240.24 121.21 242.43 117.59 C 246.21 111.57 249.57 105.31 253.36 99.29 C 256.31 93.90 259.97 88.76 261.62 82.76 C 260.99 82.64 259.73 82.39 259.10 82.27 C 256.94 84.04 254.69 85.72 252.84 87.83 C 249.75 91.19 247.93 95.48 244.83 98.83 C 244.23 98.66 243.03 98.31 242.43 98.14 C 243.25 94.33 246.01 91.42 248.19 88.33 C 251.04 84.40 254.69 80.77 259.40 79.25 C 263.13 78.21 266.64 81.45 267.11 85.00 C 267.83 88.44 266.93 91.93 266.83 95.38 C 271.72 89.74 275.96 83.16 282.61 79.40 Z" />
<path fill="#fefefe" opacity="1.00" d=" M 184.56 79.69 C 187.73 78.59 191.64 79.28 193.42 82.36 C 196.30 87.40 196.21 93.94 194.02 99.22 C 189.52 107.37 182.05 113.45 177.73 121.71 C 176.98 122.98 177.13 124.48 177.02 125.89 C 180.91 126.68 183.63 123.52 186.05 121.02 C 188.57 118.37 190.22 114.77 193.72 113.20 C 194.05 114.45 195.12 115.86 193.96 117.01 C 190.26 122.27 185.45 127.70 178.98 129.29 C 171.12 129.41 167.06 119.98 168.98 113.28 C 171.73 103.50 180.11 96.95 185.73 88.89 C 187.00 87.33 187.19 85.30 187.51 83.39 C 182.01 82.65 178.31 87.52 175.08 91.18 C 173.25 93.06 171.73 97.23 168.44 95.52 C 168.14 93.34 169.81 91.63 171.07 90.07 C 174.97 85.94 179.31 82.03 184.56 79.69 Z" />
<path fill="#fefefe" opacity="1.00" d=" M 203.92 98.81 C 210.54 89.69 219.98 82.18 231.07 79.46 C 235.10 79.35 240.28 78.12 243.12 81.83 C 246.06 84.77 244.11 89.24 242.13 92.13 C 237.43 98.57 229.91 102.31 222.39 104.41 C 219.58 105.25 215.70 105.35 214.58 108.64 C 212.45 113.33 209.16 118.23 210.39 123.62 C 211.22 126.97 215.79 126.82 218.28 125.55 C 226.66 121.50 231.55 113.11 236.48 105.63 C 236.96 105.65 237.94 105.69 238.42 105.71 C 238.58 107.44 239.04 109.38 237.77 110.84 C 232.94 117.80 227.35 124.83 219.43 128.36 C 213.50 130.97 206.94 127.26 203.60 122.31 C 198.33 115.61 199.03 105.54 203.92 98.81 M 231.65 84.68 C 226.34 89.72 222.23 95.87 218.34 102.03 C 222.94 101.74 227.24 99.78 230.30 96.30 C 233.95 92.31 239.12 87.56 237.30 81.56 C 235.16 82.07 233.22 83.13 231.65 84.68 Z" />
<path fill="#fefefe" opacity="1.00" d=" M 294.21 87.26 C 296.80 83.78 299.77 80.09 304.11 78.86 C 307.45 77.96 309.91 81.17 311.40 83.69 C 312.83 88.32 312.08 93.43 310.50 97.94 C 315.93 91.84 319.76 84.20 326.71 79.59 C 329.10 77.87 332.58 78.28 334.64 80.34 C 339.66 84.51 339.27 92.03 337.89 97.78 C 334.26 106.61 326.77 113.15 322.55 121.67 C 321.98 123.05 322.14 124.59 322.00 126.05 C 324.03 126.43 326.19 126.20 327.51 124.42 C 331.33 121.19 333.13 116.03 337.22 113.21 L 338.45 113.48 C 338.48 114.08 338.54 115.27 338.57 115.87 C 335.58 120.59 331.80 124.98 327.25 128.25 C 324.61 130.29 321.01 129.40 318.68 127.36 C 313.21 123.38 312.08 115.56 314.36 109.53 C 318.12 101.29 324.33 94.52 328.98 86.81 C 330.03 85.26 330.31 83.41 330.46 81.59 C 326.59 82.49 324.08 85.81 321.66 88.70 C 315.81 96.34 310.01 104.06 305.26 112.45 C 302.16 117.90 298.60 123.11 296.20 128.93 C 293.61 128.10 291.05 126.05 288.21 126.98 C 285.58 127.90 283.08 129.20 280.32 129.72 C 280.57 127.29 282.07 125.34 283.31 123.34 C 287.46 116.81 291.71 110.36 295.55 103.65 C 299.55 96.84 304.88 90.14 305.28 81.93 C 303.93 82.30 302.36 82.32 301.42 83.49 C 297.28 87.53 294.85 92.92 291.58 97.62 C 290.99 97.61 289.80 97.58 289.21 97.56 C 289.34 93.55 292.03 90.39 294.21 87.26 Z" />
<path fill="#fefefe" opacity="1.00" d=" M 377.46 79.53 C 381.72 79.10 387.15 78.24 390.14 82.11 C 391.72 86.32 390.26 91.04 387.07 94.08 C 381.02 101.24 371.66 103.80 363.01 106.18 C 359.50 111.13 356.31 117.33 357.40 123.59 C 357.88 126.99 362.34 126.57 364.77 125.71 C 373.41 121.37 378.35 112.65 383.94 105.18 C 384.81 106.10 385.71 107.00 386.62 107.88 C 381.62 114.95 376.47 122.30 368.98 126.95 C 365.87 129.13 361.85 129.06 358.24 128.60 C 352.61 126.60 348.81 121.12 347.35 115.50 C 345.39 107.81 348.93 99.79 354.34 94.36 C 360.33 87.25 368.53 82.06 377.46 79.53 M 380.14 83.18 C 373.75 88.22 369.39 95.28 365.22 102.14 C 369.24 101.49 373.24 100.13 376.18 97.18 C 380.31 93.15 384.92 88.31 384.78 82.12 C 383.19 82.19 381.38 81.96 380.14 83.18 Z" />
<path fill="#fefefe" opacity="1.00" d=" M 68.60 133.05 C 71.59 133.57 74.96 136.06 75.42 139.01 C 71.94 149.49 65.68 158.88 61.93 169.25 C 64.40 168.43 66.75 167.30 68.97 165.94 C 75.20 162.02 81.99 159.08 88.29 155.28 C 90.07 154.39 91.86 153.00 93.98 153.35 C 96.17 154.43 97.99 156.09 99.91 157.58 C 96.34 160.32 92.17 162.10 88.23 164.24 C 81.55 167.88 74.82 171.46 68.08 175.00 C 65.20 176.45 62.42 178.59 59.11 178.78 C 55.86 177.96 53.49 175.33 51.13 173.12 C 56.08 159.41 62.92 146.46 68.60 133.05 Z" />
<path fill="#fefefe" opacity="1.00" d=" M 391.90 154.06 C 394.34 152.56 396.37 149.16 399.48 149.49 C 406.91 158.32 414.39 167.12 422.07 175.75 C 427.22 173.38 431.25 169.25 436.02 166.27 C 437.44 167.86 438.84 169.48 440.16 171.15 C 433.71 176.53 426.76 181.31 419.98 186.26 C 410.18 175.94 401.23 164.81 391.90 154.06 Z" />
<path fill="#fefefe" opacity="1.00" d=" M 101.39 160.62 C 112.13 158.92 124.20 164.70 128.18 175.12 C 129.12 180.47 128.71 186.24 125.83 190.98 C 122.81 197.18 117.20 202.72 110.04 203.41 C 103.75 203.93 96.72 203.46 91.60 199.36 C 88.23 196.79 85.24 193.56 83.62 189.59 C 81.01 177.42 89.05 163.44 101.39 160.62 M 105.28 167.82 C 95.98 170.44 89.89 181.64 93.20 190.81 C 96.42 196.40 104.16 198.48 109.88 195.74 C 115.62 191.88 120.07 185.14 119.64 178.03 C 119.92 170.98 111.47 166.49 105.28 167.82 Z" />
<path fill="#fefefe" opacity="1.00" d=" M 367.79 165.87 C 369.99 164.26 372.52 163.24 375.07 162.34 C 381.66 172.25 386.47 183.25 392.74 193.37 C 397.81 190.95 402.91 188.58 407.87 185.93 C 409.06 187.72 410.32 189.46 411.60 191.19 C 409.30 192.83 406.87 194.25 404.24 195.28 C 398.66 197.53 393.38 200.44 387.85 202.79 C 380.91 190.63 374.11 178.37 367.79 165.87 Z" />
<path fill="#fefefe" opacity="1.00" d=" M 140.84 173.59 C 144.05 173.52 147.20 174.27 150.07 175.70 C 146.67 186.71 143.49 197.79 139.95 208.76 C 145.49 210.75 151.30 211.81 156.79 213.96 C 156.01 215.82 155.18 217.65 154.38 219.51 C 146.29 217.52 138.33 214.87 130.09 213.56 C 129.83 208.13 132.75 203.38 133.96 198.24 C 135.90 189.92 139.66 182.10 140.84 173.59 Z" />
<path fill="#fefefe" opacity="1.00" d=" M 337.68 175.57 C 341.01 174.43 344.43 173.18 348.01 173.42 C 350.15 174.30 351.24 176.63 352.78 178.26 C 358.49 184.87 364.23 191.45 369.92 198.08 C 372.52 201.36 375.26 204.55 378.43 207.30 C 375.11 208.20 371.78 209.04 368.54 210.16 C 366.05 207.60 364.18 204.23 361.04 202.44 C 355.57 203.80 350.26 205.78 344.69 206.78 C 343.52 210.10 343.48 213.62 343.32 217.09 C 340.77 218.11 338.18 219.02 335.56 219.83 C 334.85 213.55 335.43 207.19 336.45 200.98 C 336.89 192.52 337.48 184.05 337.68 175.57 M 345.53 182.63 C 345.13 188.41 344.83 194.20 344.63 199.99 C 348.86 199.24 352.93 197.87 357.01 196.57 C 353.32 191.83 350.18 186.53 345.53 182.63 Z" />
<path fill="#fefefe" opacity="1.00" d=" M 173.83 181.24 C 176.67 181.37 179.50 181.55 182.34 181.81 C 182.24 186.98 180.28 191.87 179.91 197.02 C 179.36 203.36 177.45 209.49 176.73 215.80 L 177.18 216.57 C 182.52 217.78 187.89 218.89 193.36 219.29 C 193.52 221.47 193.27 223.65 192.27 225.63 C 183.89 224.41 175.58 222.85 167.16 221.85 C 166.99 216.88 168.46 212.10 169.17 207.23 C 170.42 198.51 172.33 189.92 173.83 181.24 Z" />
<path fill="#fefefe" opacity="1.00" d=" M 288.42 184.78 C 295.84 183.33 303.46 181.95 311.03 182.60 C 315.94 182.85 318.74 187.72 319.61 192.02 C 319.84 196.21 316.25 199.09 313.14 201.24 C 317.01 202.01 321.50 203.12 323.08 207.23 C 324.09 210.90 324.29 215.55 321.55 218.57 C 319.15 220.82 316.09 222.38 312.83 222.92 C 307.06 223.85 301.35 225.12 295.53 225.80 C 293.45 221.08 293.25 215.83 292.28 210.83 C 291.55 202.06 288.18 193.64 288.42 184.78 M 298.44 189.58 C 296.61 192.57 299.04 196.49 299.41 199.76 C 304.00 200.18 308.65 198.61 311.47 194.84 C 310.59 193.05 310.17 190.87 308.54 189.59 C 305.23 188.89 301.76 189.13 298.44 189.58 M 301.42 205.78 C 301.33 209.77 301.72 213.76 302.62 217.65 C 306.33 217.36 310.73 217.58 313.52 214.65 C 315.38 212.92 315.85 209.95 314.05 207.99 C 311.19 203.91 305.57 205.83 301.42 205.78 Z" />
<path fill="#fefefe" opacity="1.00" d=" M 207.05 185.73 C 213.06 185.33 219.02 186.41 225.02 186.31 C 227.92 186.25 230.75 186.88 233.52 187.67 C 233.55 189.78 233.23 191.86 232.27 193.77 C 226.74 192.58 221.08 192.27 215.43 192.38 C 215.10 195.83 214.84 199.29 214.91 202.75 C 220.02 203.19 225.14 203.29 230.27 203.35 C 230.34 205.46 230.37 207.57 230.35 209.68 C 225.11 209.57 219.87 209.11 214.62 209.29 C 213.80 213.25 213.31 217.27 213.59 221.32 C 219.26 221.59 224.93 221.78 230.60 222.08 C 230.59 224.14 230.54 226.20 230.45 228.27 C 225.61 228.20 220.79 227.73 215.95 227.71 C 212.07 227.54 208.00 228.02 204.36 226.38 C 205.31 216.86 204.70 207.20 206.41 197.77 C 206.75 193.76 206.62 189.73 207.05 185.73 Z" />
<path fill="#fefefe" opacity="1.00" d=" M 272.16 186.06 C 274.93 185.85 277.71 185.75 280.49 185.84 C 277.04 194.45 271.06 201.75 267.07 210.07 C 266.11 215.90 267.15 221.89 266.85 227.79 C 263.84 228.03 260.83 228.20 257.81 228.18 C 257.59 223.13 257.58 218.06 257.28 213.01 C 257.15 211.13 255.72 209.72 254.80 208.18 C 249.91 201.29 244.78 194.56 239.93 187.64 C 243.34 187.45 246.77 187.46 250.19 187.38 C 254.12 192.12 257.36 197.38 260.53 202.64 C 261.06 202.65 262.12 202.68 262.65 202.69 C 265.72 197.09 268.49 191.30 272.16 186.06 Z" />
</g>
<g id="#0c7fbeff">
<path fill="#0c7fbe" opacity="1.00" d=" M 205.99 7.72 C 212.03 7.92 217.95 6.37 223.99 6.42 C 236.00 6.30 248.02 6.33 260.04 6.43 C 265.72 6.31 271.27 7.83 276.95 7.70 C 295.59 8.77 314.04 11.78 332.37 15.15 C 347.77 17.96 362.82 22.35 377.74 27.01 C 391.11 32.03 404.66 36.79 417.21 43.66 C 435.07 52.90 451.87 64.66 465.27 79.75 C 474.82 90.27 481.52 103.43 484.13 117.41 C 485.16 125.23 485.07 133.23 483.93 141.03 C 480.70 155.08 473.44 168.11 463.51 178.54 C 455.85 186.89 447.35 194.49 437.82 200.66 C 429.38 206.04 420.95 211.53 411.77 215.56 C 387.22 227.45 361.05 235.98 334.24 240.95 C 317.05 244.82 299.52 247.27 281.92 248.25 C 276.93 248.31 272.07 249.73 267.07 249.77 C 249.79 250.26 232.45 250.66 215.19 249.48 C 209.84 248.55 204.42 248.30 199.00 248.08 C 177.99 246.35 157.13 242.86 136.62 238.01 C 129.84 236.08 123.05 234.19 116.21 232.48 C 89.82 224.08 63.84 213.15 41.49 196.56 C 26.00 184.92 11.81 170.37 4.62 152.06 C 2.34 146.68 1.51 140.84 0.00 135.22 L 0.00 121.76 C 1.27 116.67 2.08 111.46 3.65 106.44 C 10.40 88.33 23.81 73.56 38.92 61.91 C 50.00 52.73 62.97 46.29 75.66 39.68 C 87.48 34.63 99.20 29.24 111.56 25.61 C 117.46 24.03 123.28 22.15 129.12 20.37 C 138.21 18.33 147.26 16.08 156.42 14.36 C 172.89 11.84 189.31 8.61 205.99 7.72 M 220.47 11.76 C 214.84 12.79 209.11 12.23 203.45 12.76 C 196.23 13.97 188.85 13.82 181.67 15.29 C 175.52 16.56 169.17 16.59 163.10 18.24 C 134.03 23.45 105.29 31.56 78.68 44.54 C 62.42 52.44 46.71 62.01 33.85 74.85 C 23.36 85.03 14.33 97.43 10.73 111.79 C 8.20 119.20 7.82 127.11 8.70 134.84 C 10.71 143.08 12.73 151.53 17.24 158.83 C 24.86 172.29 36.22 183.24 48.64 192.28 C 60.04 201.19 73.12 207.62 86.20 213.66 C 113.45 225.52 142.38 233.37 171.73 237.77 C 180.86 240.15 190.44 239.32 199.61 241.41 C 210.03 242.47 220.54 242.33 230.97 243.33 C 241.08 243.26 251.24 243.83 261.32 242.77 C 271.20 242.22 281.18 242.42 290.94 240.56 C 298.72 239.66 306.63 239.59 314.27 237.77 C 349.25 232.49 383.75 222.56 415.20 206.14 C 432.14 196.95 448.49 185.80 460.63 170.63 C 470.63 158.38 477.64 143.03 477.32 126.99 C 477.52 120.10 475.64 113.40 473.94 106.79 C 471.44 99.65 467.12 93.31 462.96 87.05 C 452.52 73.45 438.87 62.58 424.32 53.65 C 411.57 46.32 398.25 39.94 384.48 34.74 C 357.09 24.29 328.22 18.56 299.29 14.45 C 293.78 13.79 288.20 13.76 282.73 12.75 C 277.06 12.36 271.35 12.61 265.71 11.68 C 250.64 11.22 235.53 11.03 220.47 11.76 Z" />
<path fill="#0c7fbe" opacity="1.00" d=" M 227.50 14.89 C 231.97 14.31 236.50 14.69 240.99 14.54 C 247.71 14.60 254.48 14.17 261.16 15.19 C 266.16 15.75 271.21 15.24 276.21 15.79 C 283.39 16.88 290.68 16.89 297.87 17.83 C 305.93 19.50 314.25 19.60 322.24 21.66 C 330.45 23.02 338.56 24.89 346.69 26.62 C 356.36 29.73 366.42 31.58 375.87 35.38 C 397.51 42.63 418.35 52.69 436.84 66.14 C 454.44 79.36 470.10 97.61 473.67 119.97 C 473.70 127.35 474.70 135.05 472.15 142.15 C 466.67 161.18 452.90 176.65 437.36 188.35 C 426.72 196.04 415.59 203.15 403.53 208.40 C 380.86 219.55 356.38 226.47 331.76 231.76 C 326.48 233.29 320.95 233.51 315.56 234.49 C 306.81 236.51 297.78 236.70 288.96 238.30 C 278.02 239.56 266.97 239.21 256.02 240.23 C 244.33 240.21 232.61 240.69 220.96 239.67 C 212.95 239.27 204.91 239.23 196.94 238.27 C 189.41 236.93 181.76 236.48 174.21 235.35 C 167.65 233.74 160.81 233.62 154.32 231.70 C 142.60 229.19 130.87 226.59 119.50 222.75 C 110.01 220.30 101.13 216.09 91.90 212.87 C 80.35 207.90 69.21 202.00 58.47 195.45 C 47.42 188.16 37.28 179.48 28.51 169.55 C 22.84 162.17 17.71 154.19 14.78 145.29 C 11.75 137.34 12.01 128.63 12.46 120.26 C 12.72 113.80 15.57 107.92 17.94 102.03 C 23.96 89.19 33.80 78.63 44.66 69.70 C 68.86 50.33 98.01 38.17 127.66 29.86 C 140.20 25.90 153.15 23.51 166.08 21.27 C 174.73 18.97 183.78 19.18 192.52 17.43 C 197.28 16.72 202.12 16.76 206.89 16.09 C 213.70 14.88 220.69 16.13 227.50 14.89 M 174.36 34.41 C 161.11 44.88 151.91 59.55 144.70 74.62 C 144.19 76.07 142.27 75.83 141.05 76.09 C 130.90 76.55 119.89 75.74 111.38 69.62 C 106.86 66.25 105.41 60.14 107.07 54.90 C 108.88 50.98 112.17 47.89 115.86 45.72 C 125.05 40.47 136.37 40.51 146.43 42.74 C 150.74 43.10 152.45 49.52 157.07 47.45 C 155.37 40.85 148.96 37.39 143.07 35.17 C 133.32 31.81 122.30 34.18 113.84 39.74 C 107.79 43.90 102.24 50.25 102.31 58.00 C 101.67 63.78 104.88 69.41 109.61 72.57 C 119.02 79.15 130.90 80.28 142.05 79.50 C 139.77 85.62 135.98 91.04 132.37 96.44 C 130.59 98.38 128.65 102.09 125.53 100.51 C 119.13 98.16 112.58 95.86 105.69 95.63 C 95.44 94.71 84.11 95.98 76.16 103.15 C 72.47 106.16 68.57 111.04 71.00 116.00 C 73.02 120.89 78.55 122.15 83.16 123.33 C 89.90 124.49 96.62 122.62 103.19 121.30 C 110.90 119.81 117.39 115.15 124.14 111.43 C 129.08 113.70 132.53 118.03 136.87 121.16 C 149.80 131.10 163.41 140.68 178.94 146.11 C 191.02 150.60 203.84 152.39 216.49 154.56 C 229.53 155.91 242.54 157.66 255.69 157.74 C 270.85 158.03 286.14 158.16 301.16 155.79 C 313.94 154.49 326.71 152.53 339.16 149.29 C 356.18 144.83 373.19 138.96 387.59 128.58 C 391.49 125.48 395.72 122.37 398.00 117.81 C 396.18 117.44 394.00 116.77 392.53 118.36 C 385.68 124.21 378.68 130.24 370.15 133.50 C 360.64 138.02 350.34 140.39 340.29 143.36 C 331.65 145.69 322.74 146.68 313.98 148.41 C 308.67 149.20 303.28 149.19 298.00 150.17 C 291.58 150.82 285.07 150.17 278.67 151.21 C 270.13 151.68 261.55 151.54 253.05 150.61 C 245.31 150.78 237.74 149.15 230.06 148.59 C 220.30 146.80 210.37 145.88 200.82 143.07 C 191.47 140.08 181.84 137.58 173.19 132.81 C 164.78 128.53 157.14 122.94 149.75 117.12 C 144.19 113.14 139.33 108.26 133.41 104.79 C 136.59 100.53 140.83 97.26 144.37 93.33 C 147.35 89.98 150.25 86.55 152.96 82.98 C 155.33 79.91 157.14 75.97 161.18 74.82 C 172.41 70.50 182.82 63.84 190.88 54.86 C 196.35 48.57 201.94 41.66 203.52 33.26 C 204.23 29.91 203.31 24.66 199.04 24.58 C 189.62 23.41 181.65 29.36 174.36 34.41 M 198.23 58.23 C 195.16 61.04 192.09 66.05 194.85 70.03 C 196.68 73.87 202.00 72.93 204.90 70.90 C 208.50 69.23 210.58 65.65 211.31 61.88 C 210.97 59.98 210.31 58.15 209.79 56.30 C 205.92 55.18 201.23 55.13 198.23 58.23 M 282.61 79.40 C 275.96 83.16 271.72 89.74 266.83 95.38 C 266.93 91.93 267.83 88.44 267.11 85.00 C 266.64 81.45 263.13 78.21 259.40 79.25 C 254.69 80.77 251.04 84.40 248.19 88.33 C 246.01 91.42 243.25 94.33 242.43 98.14 C 243.03 98.31 244.23 98.66 244.83 98.83 C 247.93 95.48 249.75 91.19 252.84 87.83 C 254.69 85.72 256.94 84.04 259.10 82.27 C 259.73 82.39 260.99 82.64 261.62 82.76 C 259.97 88.76 256.31 93.90 253.36 99.29 C 249.57 105.31 246.21 111.57 242.43 117.59 C 240.24 121.21 237.25 124.43 236.09 128.60 C 240.88 126.63 246.48 125.27 251.11 128.46 C 252.69 125.35 254.29 122.25 256.14 119.28 C 262.45 108.46 268.34 97.09 277.25 88.11 C 277.80 88.13 278.92 88.17 279.47 88.19 C 279.82 89.70 280.16 91.22 280.49 92.74 C 282.00 93.32 283.50 93.94 285.00 94.57 C 288.07 92.91 291.64 90.84 292.38 87.12 C 292.85 84.60 293.22 81.65 291.51 79.49 C 288.80 77.96 285.32 77.79 282.61 79.40 M 184.56 79.69 C 179.31 82.03 174.97 85.94 171.07 90.07 C 169.81 91.63 168.14 93.34 168.44 95.52 C 171.73 97.23 173.25 93.06 175.08 91.18 C 178.31 87.52 182.01 82.65 187.51 83.39 C 187.19 85.30 187.00 87.33 185.73 88.89 C 180.11 96.95 171.73 103.50 168.98 113.28 C 167.06 119.98 171.12 129.41 178.98 129.29 C 185.45 127.70 190.26 122.27 193.96 117.01 C 195.12 115.86 194.05 114.45 193.72 113.20 C 190.22 114.77 188.57 118.37 186.05 121.02 C 183.63 123.52 180.91 126.68 177.02 125.89 C 177.13 124.48 176.98 122.98 177.73 121.71 C 182.05 113.45 189.52 107.37 194.02 99.22 C 196.21 93.94 196.30 87.40 193.42 82.36 C 191.64 79.28 187.73 78.59 184.56 79.69 M 203.92 98.81 C 199.03 105.54 198.33 115.61 203.60 122.31 C 206.94 127.26 213.50 130.97 219.43 128.36 C 227.35 124.83 232.94 117.80 237.77 110.84 C 239.04 109.38 238.58 107.44 238.42 105.71 C 237.94 105.69 236.96 105.65 236.48 105.63 C 231.55 113.11 226.66 121.50 218.28 125.55 C 215.79 126.82 211.22 126.97 210.39 123.62 C 209.16 118.23 212.45 113.33 214.58 108.64 C 215.70 105.35 219.58 105.25 222.39 104.41 C 229.91 102.31 237.43 98.57 242.13 92.13 C 244.11 89.24 246.06 84.77 243.12 81.83 C 240.28 78.12 235.10 79.35 231.07 79.46 C 219.98 82.18 210.54 89.69 203.92 98.81 M 294.21 87.26 C 292.03 90.39 289.34 93.55 289.21 97.56 C 289.80 97.58 290.99 97.61 291.58 97.62 C 294.85 92.92 297.28 87.53 301.42 83.49 C 302.36 82.32 303.93 82.30 305.28 81.93 C 304.88 90.14 299.55 96.84 295.55 103.65 C 291.71 110.36 287.46 116.81 283.31 123.34 C 282.07 125.34 280.57 127.29 280.32 129.72 C 283.08 129.20 285.58 127.90 288.21 126.98 C 291.05 126.05 293.61 128.10 296.20 128.93 C 298.60 123.11 302.16 117.90 305.26 112.45 C 310.01 104.06 315.81 96.34 321.66 88.70 C 324.08 85.81 326.59 82.49 330.46 81.59 C 330.31 83.41 330.03 85.26 328.98 86.81 C 324.33 94.52 318.12 101.29 314.36 109.53 C 312.08 115.56 313.21 123.38 318.68 127.36 C 321.01 129.40 324.61 130.29 327.25 128.25 C 331.80 124.98 335.58 120.59 338.57 115.87 C 338.54 115.27 338.48 114.08 338.45 113.48 L 337.22 113.21 C 333.13 116.03 331.33 121.19 327.51 124.42 C 326.19 126.20 324.03 126.43 322.00 126.05 C 322.14 124.59 321.98 123.05 322.55 121.67 C 326.77 113.15 334.26 106.61 337.89 97.78 C 339.27 92.03 339.66 84.51 334.64 80.34 C 332.58 78.28 329.10 77.87 326.71 79.59 C 319.76 84.20 315.93 91.84 310.50 97.94 C 312.08 93.43 312.83 88.32 311.40 83.69 C 309.91 81.17 307.45 77.96 304.11 78.86 C 299.77 80.09 296.80 83.78 294.21 87.26 M 377.46 79.53 C 368.53 82.06 360.33 87.25 354.34 94.36 C 348.93 99.79 345.39 107.81 347.35 115.50 C 348.81 121.12 352.61 126.60 358.24 128.60 C 361.85 129.06 365.87 129.13 368.98 126.95 C 376.47 122.30 381.62 114.95 386.62 107.88 C 385.71 107.00 384.81 106.10 383.94 105.18 C 378.35 112.65 373.41 121.37 364.77 125.71 C 362.34 126.57 357.88 126.99 357.40 123.59 C 356.31 117.33 359.50 111.13 363.01 106.18 C 371.66 103.80 381.02 101.24 387.07 94.08 C 390.26 91.04 391.72 86.32 390.14 82.11 C 387.15 78.24 381.72 79.10 377.46 79.53 M 68.60 133.05 C 62.92 146.46 56.08 159.41 51.13 173.12 C 53.49 175.33 55.86 177.96 59.11 178.78 C 62.42 178.59 65.20 176.45 68.08 175.00 C 74.82 171.46 81.55 167.88 88.23 164.24 C 92.17 162.10 96.34 160.32 99.91 157.58 C 97.99 156.09 96.17 154.43 93.98 153.35 C 91.86 153.00 90.07 154.39 88.29 155.28 C 81.99 159.08 75.20 162.02 68.97 165.94 C 66.75 167.30 64.40 168.43 61.93 169.25 C 65.68 158.88 71.94 149.49 75.42 139.01 C 74.96 136.06 71.59 133.57 68.60 133.05 M 391.90 154.06 C 401.23 164.81 410.18 175.94 419.98 186.26 C 426.76 181.31 433.71 176.53 440.16 171.15 C 438.84 169.48 437.44 167.86 436.02 166.27 C 431.25 169.25 427.22 173.38 422.07 175.75 C 414.39 167.12 406.91 158.32 399.48 149.49 C 396.37 149.16 394.34 152.56 391.90 154.06 M 101.39 160.62 C 89.05 163.44 81.01 177.42 83.62 189.59 C 85.24 193.56 88.23 196.79 91.60 199.36 C 96.72 203.46 103.75 203.93 110.04 203.41 C 117.20 202.72 122.81 197.18 125.83 190.98 C 128.71 186.24 129.12 180.47 128.18 175.12 C 124.20 164.70 112.13 158.92 101.39 160.62 M 367.79 165.87 C 374.11 178.37 380.91 190.63 387.85 202.79 C 393.38 200.44 398.66 197.53 404.24 195.28 C 406.87 194.25 409.30 192.83 411.60 191.19 C 410.32 189.46 409.06 187.72 407.87 185.93 C 402.91 188.58 397.81 190.95 392.74 193.37 C 386.47 183.25 381.66 172.25 375.07 162.34 C 372.52 163.24 369.99 164.26 367.79 165.87 M 140.84 173.59 C 139.66 182.10 135.90 189.92 133.96 198.24 C 132.75 203.38 129.83 208.13 130.09 213.56 C 138.33 214.87 146.29 217.52 154.38 219.51 C 155.18 217.65 156.01 215.82 156.79 213.96 C 151.30 211.81 145.49 210.75 139.95 208.76 C 143.49 197.79 146.67 186.71 150.07 175.70 C 147.20 174.27 144.05 173.52 140.84 173.59 M 337.68 175.57 C 337.48 184.05 336.89 192.52 336.45 200.98 C 335.43 207.19 334.85 213.55 335.56 219.83 C 338.18 219.02 340.77 218.11 343.32 217.09 C 343.48 213.62 343.52 210.10 344.69 206.78 C 350.26 205.78 355.57 203.80 361.04 202.44 C 364.18 204.23 366.05 207.60 368.54 210.16 C 371.78 209.04 375.11 208.20 378.43 207.30 C 375.26 204.55 372.52 201.36 369.92 198.08 C 364.23 191.45 358.49 184.87 352.78 178.26 C 351.24 176.63 350.15 174.30 348.01 173.42 C 344.43 173.18 341.01 174.43 337.68 175.57 M 173.83 181.24 C 172.33 189.92 170.42 198.51 169.17 207.23 C 168.46 212.10 166.99 216.88 167.16 221.85 C 175.58 222.85 183.89 224.41 192.27 225.63 C 193.27 223.65 193.52 221.47 193.36 219.29 C 187.89 218.89 182.52 217.78 177.18 216.57 L 176.73 215.80 C 177.45 209.49 179.36 203.36 179.91 197.02 C 180.28 191.87 182.24 186.98 182.34 181.81 C 179.50 181.55 176.67 181.37 173.83 181.24 M 288.42 184.78 C 288.18 193.64 291.55 202.06 292.28 210.83 C 293.25 215.83 293.45 221.08 295.53 225.80 C 301.35 225.12 307.06 223.85 312.83 222.92 C 316.09 222.38 319.15 220.82 321.55 218.57 C 324.29 215.55 324.09 210.90 323.08 207.23 C 321.50 203.12 317.01 202.01 313.14 201.24 C 316.25 199.09 319.84 196.21 319.61 192.02 C 318.74 187.72 315.94 182.85 311.03 182.60 C 303.46 181.95 295.84 183.33 288.42 184.78 M 207.05 185.73 C 206.62 189.73 206.75 193.76 206.41 197.77 C 204.70 207.20 205.31 216.86 204.36 226.38 C 208.00 228.02 212.07 227.54 215.95 227.71 C 220.79 227.73 225.61 228.20 230.45 228.27 C 230.54 226.20 230.59 224.14 230.60 222.08 C 224.93 221.78 219.26 221.59 213.59 221.32 C 213.31 217.27 213.80 213.25 214.62 209.29 C 219.87 209.11 225.11 209.57 230.35 209.68 C 230.37 207.57 230.34 205.46 230.27 203.35 C 225.14 203.29 220.02 203.19 214.91 202.75 C 214.84 199.29 215.10 195.83 215.43 192.38 C 221.08 192.27 226.74 192.58 232.27 193.77 C 233.23 191.86 233.55 189.78 233.52 187.67 C 230.75 186.88 227.92 186.25 225.02 186.31 C 219.02 186.41 213.06 185.33 207.05 185.73 M 272.16 186.06 C 268.49 191.30 265.72 197.09 262.65 202.69 C 262.12 202.68 261.06 202.65 260.53 202.64 C 257.36 197.38 254.12 192.12 250.19 187.38 C 246.77 187.46 243.34 187.45 239.93 187.64 C 244.78 194.56 249.91 201.29 254.80 208.18 C 255.72 209.72 257.15 211.13 257.28 213.01 C 257.58 218.06 257.59 223.13 257.81 228.18 C 260.83 228.20 263.84 228.03 266.85 227.79 C 267.15 221.89 266.11 215.90 267.07 210.07 C 271.06 201.75 277.04 194.45 280.49 185.84 C 277.71 185.75 274.93 185.85 272.16 186.06 Z" />
<path fill="#0c7fbe" opacity="1.00" d=" M 195.20 29.15 C 196.66 28.19 198.37 28.86 199.91 29.17 C 200.12 34.78 197.21 39.83 194.32 44.42 C 188.68 52.60 181.16 59.37 172.94 64.88 C 169.92 67.11 166.59 68.92 163.00 70.03 C 164.13 67.62 165.56 65.35 167.15 63.21 C 173.04 55.06 178.45 46.57 184.62 38.63 C 187.77 35.11 190.94 31.36 195.20 29.15 Z" />
<path fill="#0c7fbe" opacity="1.00" d=" M 231.65 84.68 C 233.22 83.13 235.16 82.07 237.30 81.56 C 239.12 87.56 233.95 92.31 230.30 96.30 C 227.24 99.78 222.94 101.74 218.34 102.03 C 222.23 95.87 226.34 89.72 231.65 84.68 Z" />
<path fill="#0c7fbe" opacity="1.00" d=" M 380.14 83.18 C 381.38 81.96 383.19 82.19 384.78 82.12 C 384.92 88.31 380.31 93.15 376.18 97.18 C 373.24 100.13 369.24 101.49 365.22 102.14 C 369.39 95.28 373.75 88.22 380.14 83.18 Z" />
<path fill="#0c7fbe" opacity="1.00" d=" M 80.35 105.24 C 86.11 100.90 93.76 100.47 100.69 101.10 C 107.45 101.60 113.43 105.02 119.50 107.71 C 119.45 108.09 119.37 108.83 119.33 109.20 C 111.94 114.14 103.60 117.65 94.88 119.38 C 90.63 119.82 86.34 119.77 82.08 119.55 C 79.01 119.50 76.52 117.25 74.97 114.79 C 73.69 110.61 77.32 107.41 80.35 105.24 Z" />
<path fill="#0c7fbe" opacity="1.00" d=" M 105.28 167.82 C 111.47 166.49 119.92 170.98 119.64 178.03 C 120.07 185.14 115.62 191.88 109.88 195.74 C 104.16 198.48 96.42 196.40 93.20 190.81 C 89.89 181.64 95.98 170.44 105.28 167.82 Z" />
<path fill="#0c7fbe" opacity="1.00" d=" M 345.53 182.63 C 350.18 186.53 353.32 191.83 357.01 196.57 C 352.93 197.87 348.86 199.24 344.63 199.99 C 344.83 194.20 345.13 188.41 345.53 182.63 Z" />
<path fill="#0c7fbe" opacity="1.00" d=" M 298.44 189.58 C 301.76 189.13 305.23 188.89 308.54 189.59 C 310.17 190.87 310.59 193.05 311.47 194.84 C 308.65 198.61 304.00 200.18 299.41 199.76 C 299.04 196.49 296.61 192.57 298.44 189.58 Z" />
<path fill="#0c7fbe" opacity="1.00" d=" M 301.42 205.78 C 305.57 205.83 311.19 203.91 314.05 207.99 C 315.85 209.95 315.38 212.92 313.52 214.65 C 310.73 217.58 306.33 217.36 302.62 217.65 C 301.72 213.76 301.33 209.77 301.42 205.78 Z" />
</g>
</svg>
