<?xml version="1.0" encoding="UTF-8" standalone="no"?>
<!-- Created with Inkscape (http://www.inkscape.org/) -->

<svg
   width="256"
   height="242"
   viewBox="0 0 67.733332 64.029168"
   version="1.1"
   id="svg2584"
   inkscape:version="1.1 (c68e22c387, 2021-05-23)"
   sodipodi:docname="lier.svg"
   xmlns:inkscape="http://www.inkscape.org/namespaces/inkscape"
   xmlns:sodipodi="http://sodipodi.sourceforge.net/DTD/sodipodi-0.dtd"
   xmlns="http://www.w3.org/2000/svg"
   xmlns:svg="http://www.w3.org/2000/svg">
  <sodipodi:namedview
     id="namedview2586"
     pagecolor="#ffffff"
     bordercolor="#666666"
     borderopacity="1.0"
     inkscape:pageshadow="2"
     inkscape:pageopacity="0.0"
     inkscape:pagecheckerboard="0"
     inkscape:document-units="mm"
     showgrid="false"
     units="px"
     inkscape:zoom="0.4665165"
     inkscape:cx="397.62795"
     inkscape:cy="561.60929"
     inkscape:window-width="1920"
     inkscape:window-height="986"
     inkscape:window-x="-11"
     inkscape:window-y="-11"
     inkscape:window-maximized="1"
     inkscape:current-layer="g2824" />
  <defs
     id="defs2581" />
  <g
     inkscape:label="Lag 1"
     inkscape:groupmode="layer"
     id="layer1">
    <g
       id="g2824">
      <path
         style="display:inline;fill:#19161a;stroke-width:0.0493062"
         d="m 32.061341,64.06823 c -0.10847,-0.01 -0.47457,-0.0415 -0.81355,-0.0701 -2.06164,-0.17406 -4.52361,-0.68022 -6.45877,-1.32786 -4.20127,-1.40604 -7.96797,-3.62284 -11.07491,-6.51785 -2.96886,-2.76636 -5.2887003,-6.00954 -6.9217203,-9.6767 -0.56429,-1.2672 -1.35498,-3.54041 -1.67256,-4.80861 -0.30898,-1.23382 -0.68825,-3.61234 -0.79756,-5.00175 -0.0674,-0.85647 -0.0313,-4.30194 0.0519,-4.96144 0.21048,-1.66734 0.59901,-3.74986 0.89497,-4.79708 1.00383,-3.55195 2.43135,-6.5435 4.51053,-9.45242 0.9132003,-1.27763 2.6085003,-3.20849 3.7279303,-4.24591 2.90023,-2.68778 5.94214,-4.62068 9.53179,-6.05673 2.77797,-1.11134 5.87742,-1.81205 8.96732,-2.02731 1.07848,-0.0751 3.78643,-0.0329 4.78799,0.0746 1.85149,0.19879 3.63978,0.50181 4.85667,0.82295 1.14057,0.301 3.0778,0.98057 4.27903,1.50106 0.77429,0.3355 2.54531,1.23849 3.33703,1.70146 2.98208,1.7438 6.00512,4.37525 8.18012,7.12051 1.66609,2.10293 3.18851,4.68665 4.111,6.97683 0.49826,1.23701 1.11057,2.99566 1.29515,3.71992 0.26272,1.03084 0.66303,3.10194 0.78199,4.04581 0.27802,2.20592 0.26238,4.8528 -0.043,7.2831 -0.23405,1.86233 -0.89462,4.60225 -1.51163,6.26993 -1.50846,4.07709 -3.79362,7.64859 -6.86844,10.73476 -1.4634,1.46881 -3.33809,2.99125 -4.85049,3.93911 -3.79855,2.38063 -7.27867,3.72809 -11.39791,4.41315 -1.79672,0.29881 -2.2475,0.33286 -4.58548,0.34636 -1.16609,0.007 -2.20892,0.004 -2.3174,-0.006 z m 0.44376,-9.29073 c 2.17961,-0.18438 4.23437,-0.62007 5.99071,-1.27026 1.19081,-0.44084 2.19781,-0.84645 2.29563,-0.92467 0.0876,-0.07 0.0498,-0.0747 -0.44665,-0.0546 -0.4328,0.0175 -0.64695,0.0546 -1.06008,0.18366 -0.60656,0.18948 -1.13136,0.22241 -1.34228,0.0842 -0.2788,-0.18268 -0.35221,-0.39579 -0.39073,-1.13424 -0.0195,-0.37429 -0.0703,-0.80009 -0.11273,-0.94622 -0.12789,-0.43992 -0.67968,-1.21241 -1.42268,-1.9917 -1.02193,-1.07183 -1.50153,-1.81482 -2.15383,-3.33664 -0.23845,-0.5563 -0.49588,-1.09318 -0.57206,-1.19306 -0.49949,-0.65487 -1.2881,-1.32336 -3.44784,-2.92268 -1.10392,-0.81748 -1.40179,-1.06782 -2.14482,-1.80263 -0.70348,-0.6957 -1.07084,-1.00894 -1.98892,-1.69593 -0.61934,-0.46345 -1.18144,-0.85653 -1.24911,-0.87351 -0.32791,-0.0823 -0.81904,0.0599 -1.71724,0.49726 -0.35254,0.17166 -0.85177,0.41469 -1.10939,0.54007 -0.60891,0.29634 -1.22614,0.7437 -1.36327,0.98808 -0.13405,0.23889 -0.21453,0.77466 -0.21453,1.42811 0,0.78414 -0.13984,1.48235 -0.47122,2.35281 -0.0891,0.23399 -0.28593,0.91472 -0.43745,1.51273 -0.15153,0.59801 -0.35008,1.36065 -0.44123,1.69474 -0.14386,0.52726 -0.17016,0.71483 -0.19928,1.421 -0.0294,0.71409 -0.0213,0.87081 0.0668,1.28196 0.1287,0.60108 0.13157,0.93503 0.009,1.09041 -0.0509,0.0647 -0.27829,0.24912 -0.50538,0.40987 -0.22709,0.16075 -0.48664,0.34617 -0.57678,0.41206 l -0.16387,0.11978 0.11026,0.11737 c 0.42764,0.45521 2.52696,1.59916 4.32019,2.35414 1.3191,0.55536 3.28607,1.11706 4.84638,1.38397 0.60572,0.10361 1.61267,0.22651 2.39136,0.29186 0.47902,0.0402 2.96396,0.0275 3.50074,-0.0179 z m 11.51301,-3.99169 c 0,-0.0269 -0.29271,-0.19563 -0.65047,-0.37491 -2.03929,-1.02188 -3.95257,-2.76092 -5.05255,-4.59241 -0.6706,-1.11655 -1.16246,-2.19301 -1.41402,-3.09461 -0.74801,-2.68092 -0.68806,-5.02612 0.19788,-7.74107 0.18999,-0.58225 0.47546,-1.18682 0.98849,-2.09349 0.62662,-1.10741 1.32998,-2.00954 2.29452,-2.9429 0.67736,-0.65548 1.28177,-1.11807 2.083,-1.59425 2.24192,-1.33238 4.22079,-1.88803 6.7303,-1.88981 1.45685,-0.001 2.40292,0.14288 3.93217,0.59814 0.63902,0.19023 0.6533,0.19219 0.65291,0.0892 -7.5e-4,-0.17688 -0.62248,-2.53859 -0.80814,-3.06944 -0.23822,-0.68114 -1.04843,-2.51682 -1.4555,-3.2977 -0.87072,-1.6703 -1.8909,-3.13337 -3.31772,-4.75805 -0.79043,-0.90005 -1.11408,-1.21781 -1.98718,-1.95108 -2.0923,-1.75721 -3.86081,-2.89036 -5.94694,-3.81042 -2.01819,-0.8901 -4.04142,-1.47446 -6.15731,-1.77839 -1.0715,-0.15391 -1.63043,-0.19827 -2.94605,-0.23377 -1.28309,-0.0346 -1.38408,-0.0156 -0.98612,0.18606 0.65597,0.33236 1.40279,1.12272 1.75207,1.85422 l 0.1832,0.38365 0.0255,0.83821 c 0.0214,0.7033 0.0401,0.85989 0.11604,0.97293 0.10419,0.15511 0.32085,0.29618 0.58407,0.3803 0.21173,0.0677 0.39977,0.27016 0.48186,0.5189 0.0477,0.14456 0.04,0.24385 -0.0462,0.59404 -0.0569,0.23125 -0.14944,0.53645 -0.20558,0.67821 -0.0828,0.20913 -0.0956,0.31355 -0.0675,0.55359 0.0457,0.3907 0.0465,0.86262 0.002,1.25731 -0.0351,0.31248 -0.0312,0.32817 0.15312,0.62802 0.104,0.16914 0.25851,0.38071 0.34336,0.47016 0.21995,0.23185 1.21623,1.05934 1.60239,1.33091 0.43127,0.30329 1.71306,1.63948 2.02131,2.10708 0.34569,0.52441 0.49459,1.01493 0.52385,1.72572 0.0311,0.75583 -0.0202,0.93794 -0.3569,1.26596 -0.21622,0.21065 -0.33375,0.27918 -0.67354,0.39271 -0.37595,0.1256 -0.47572,0.13767 -1.15121,0.13926 -0.62335,0.001 -0.79772,-0.0154 -1.1094,-0.10766 -0.52914,-0.15655 -2.81958,-0.47073 -3.45143,-0.47343 -0.6766,-0.003 -0.92148,0.0965 -1.29788,0.5268 -0.32098,0.36693 -0.36023,0.43785 -0.39949,0.72167 -0.0491,0.35523 -0.17626,2.39538 -0.17641,2.83129 -1.5e-4,0.43005 0.24737,1.97006 0.40016,2.48976 0.10796,0.36722 0.11391,0.72341 0.0234,1.40374 -0.0776,0.58323 -0.0545,0.70775 0.21994,1.18743 0.30446,0.53213 0.68854,1.0233 1.96746,2.51605 0.62731,0.73219 1.31159,1.58185 1.52062,1.88812 0.69614,1.02 1.22323,1.70449 1.86826,2.42617 0.35146,0.39322 0.69682,0.81479 0.76748,0.93682 0.17132,0.2959 0.44815,1.00271 0.84949,2.16896 0.36859,1.07108 0.60949,1.62291 1.15173,2.63831 0.69712,1.30541 1.79045,3.10738 2.16206,3.56338 0.4096,0.50261 1.19083,0.89218 2.21439,1.10422 0.40415,0.0837 0.9678,0.22477 1.25254,0.31343 0.60583,0.18863 0.59168,0.1857 0.59168,0.12261 z m 6.95752,-0.26994 c 0.28767,-0.0472 0.55109,-0.10309 0.58537,-0.12427 0.0483,-0.0298 -0.006,-0.35302 -0.2422,-1.43711 -0.16748,-0.76922 -0.33213,-1.42662 -0.36589,-1.46087 -0.049,-0.0498 -0.23936,-0.0509 -0.9465,-0.006 -0.67693,0.0431 -1.10938,0.0424 -1.83863,-0.003 -0.52443,-0.0328 -0.9646,-0.0485 -0.97815,-0.0349 -0.0531,0.0531 -0.65457,2.86476 -0.61989,2.89787 0.0322,0.0307 1.04824,0.20201 1.54078,0.25975 0.44256,0.0519 2.36545,-0.009 2.86511,-0.0913 z m 2.52921,-0.69788 c 1.05232,-0.431 2.52052,-1.26158 2.81223,-1.59091 l 0.0957,-0.10801 -0.44082,-0.86487 c -0.24244,-0.47568 -0.46798,-0.87635 -0.50119,-0.89039 -0.0332,-0.014 -0.24399,0.0447 -0.46841,0.1305 -0.22441,0.0858 -1.0723,0.32143 -1.8842,0.52361 -0.81189,0.20218 -1.48486,0.37629 -1.49549,0.38691 -0.0106,0.0106 0.12669,0.64177 0.30515,1.40254 0.17846,0.76076 0.32447,1.39361 0.32447,1.40632 0,0.0486 0.73427,-0.18341 1.25259,-0.3957 z m -7.25896,-1.04176 c 0.17886,-0.77966 0.32006,-1.42332 0.31378,-1.43036 -0.006,-0.007 -0.3422,-0.0673 -0.74646,-0.13385 -1.06951,-0.17616 -1.87901,-0.36338 -2.79609,-0.64668 -0.21157,-0.0654 -0.39268,-0.11883 -0.40246,-0.11883 -0.043,0 -0.76602,1.43899 -0.76602,1.52454 0,0.23231 1.57946,1.24497 2.66254,1.70708 0.29829,0.12727 1.32265,0.50739 1.38271,0.5131 0.0147,0.001 0.17313,-0.63535 0.352,-1.415 z m -31.0585,-0.42284 c 0.22313,-0.19866 0.46599,-0.45937 0.53969,-0.57935 0.16073,-0.26163 0.25948,-0.82338 0.22036,-1.25357 -0.15233,-1.67541 -0.24983,-2.56708 -0.31001,-2.83511 -0.22196,-0.98861 -0.26672,-1.2642 -0.2963,-1.82433 -0.0191,-0.36201 -0.008,-0.92757 0.0276,-1.37058 0.0537,-0.67322 0.0915,-0.8639 0.3518,-1.77497 0.30899,-1.08137 0.33677,-1.30286 0.21791,-1.73735 -0.36153,-1.32154 -0.39359,-2.30453 -0.10737,-3.29215 0.14089,-0.48612 0.38339,-0.85071 0.96914,-1.45705 0.48676,-0.50387 0.99031,-0.87355 1.61457,-1.18534 0.38705,-0.19331 0.50443,-0.3219 0.501,-0.54883 -0.0542,-3.58053 -0.0536,-3.62265 0.0566,-4.48433 0.14202,-1.11027 0.12152,-1.30552 -0.23575,-2.24479 -0.16408,-0.43138 -0.0801,-0.40949 -1.04801,-0.27302 -0.46197,0.0651 -0.77069,0.0792 -1.23266,0.056 -1.38922,-0.0695 -1.87505,-0.31405 -2.16533,-1.0899 -0.0855,-0.22863 -0.10247,-0.38376 -0.10104,-0.92609 0.003,-1.13336 0.20912,-1.84595 0.64369,-2.22529 0.33055,-0.28853 2.15825,-1.12397 3.57028,-1.63197 0.91363,-0.32869 1.26474,-0.52566 1.72572,-0.9681 l 0.39444,-0.37859 -0.0678,-0.16441 c -0.2254,-0.54661 -0.26296,-0.71043 -0.24142,-1.05303 0.0172,-0.27305 0.0508,-0.39009 0.15902,-0.55363 0.11826,-0.1787 0.14233,-0.27744 0.17403,-0.71384 0.089,-1.22479 0.87573,-2.35265 2.04703,-2.93448 0.44984,-0.22346 0.75656,-0.27848 1.45453,-0.26091 0.33898,0.009 0.6981,0.0169 0.79804,0.0187 0.29125,0.005 0.40546,-0.0897 0.57618,-0.4782 0.29473,-0.67067 0.80953,-1.18069 1.5595,-1.54502 l 0.34515,-0.16768 -0.24654,0.0294 c -1.52,0.18102 -3.7028,0.79031 -5.47299,1.52768 -2.06473,0.86007 -4.38903,2.24641 -5.97362,3.56299 -0.82898,0.68877 -2.41311,2.24944 -3.03804,2.99306 -2.07755,2.47214 -3.5112903,5.11354 -4.4982803,8.28726 -0.5332,1.71453 -0.80527,3.30867 -0.96335,5.64461 -0.0968,1.42996 0.10697,4.01919 0.45128,5.73491 0.28395,1.41501 0.91606,3.3821 1.46044,4.54486 1.1201303,2.39254 1.9210403,3.71019 3.3116803,5.44834 0.58317,0.72891 2.24671,2.4667 2.36044,2.46581 0.0345,-5.6e-4 0.24529,-0.16304 0.46841,-0.3617 z m 42.26954,-1.13662 c 0.55848,-0.5704 1.09838,-1.2388 1.4984,-1.855 0.40588,-0.62524 1.03988,-1.92348 1.2521,-2.56392 0.28646,-0.86447 0.52541,-2.15742 0.60142,-3.25422 0.0771,-1.11231 -0.30537,-3.35009 -0.77083,-4.51026 -0.22715,-0.56617 -0.8303,-1.70133 -1.19269,-2.24469 -0.58713,-0.88035 -1.66578,-2.12017 -1.84456,-2.12017 -0.0268,0 -0.14431,0.22743 -0.26118,0.50539 -0.11687,0.27796 -0.29791,0.67792 -0.40232,0.8888 -0.1044,0.21087 -0.18982,0.41304 -0.18982,0.44926 0,0.0362 0.0651,0.20945 0.14468,0.38495 0.40457,0.89224 1.1609,3.93488 0.97813,3.93488 -0.0235,0 -1.11223,-0.13215 -2.41942,-0.29367 -2.96414,-0.36625 -3.11083,-0.38086 -4.52406,-0.45054 -1.29324,-0.0638 -3.00002,-0.0315 -4.06523,0.0769 -0.61806,0.0629 -3.84991,0.47534 -4.89411,0.62461 -0.22399,0.032 -0.42116,0.0443 -0.43817,0.0273 -0.0998,-0.0998 0.87552,-3.98583 1.0496,-4.18182 0.14449,-0.16267 0.13449,-0.39412 -0.0296,-0.68408 -0.0844,-0.14915 -0.26453,-0.50157 -0.40036,-0.78316 l -0.24695,-0.51198 -0.12768,0.11753 c -0.27935,0.25715 -1.08611,1.17774 -1.39928,1.59672 -0.57617,0.77083 -1.19706,1.93482 -1.51867,2.84706 -0.21034,0.5966 -0.47942,1.72196 -0.58071,2.4287 -0.11607,0.80975 -0.11586,2.26977 3.7e-4,3.03234 0.38489,2.52397 1.44495,4.6809 3.18053,6.47144 0.23,0.23729 0.43459,0.43143 0.45464,0.43143 0.0748,0 0.70429,-1.35041 0.69964,-1.50098 -0.003,-0.0829 -0.0721,-0.31997 -0.15448,-0.52676 -0.2226,-0.55869 -0.57957,-1.90329 -0.801,-3.01711 -0.10761,-0.54132 -0.18931,-0.99055 -0.18156,-0.9983 0.008,-0.008 0.62408,0.0727 1.36962,0.17865 3.45042,0.4906 4.20992,0.55179 6.92713,0.55807 2.1231,0.005 2.32112,-0.01 5.54695,-0.41853 2.57473,-0.32605 2.56396,-0.32492 2.56357,-0.26842 0,0.0286 -0.0782,0.44026 -0.17334,0.91484 -0.12794,0.63816 -0.28834,1.2054 -0.61597,2.17826 -0.24365,0.72347 -0.44299,1.35033 -0.44299,1.39304 0,0.14128 0.80406,1.60585 0.88163,1.60585 0.0405,0 0.27746,-0.20808 0.52646,-0.46239 z m -8.77937,-5.28954 c -0.10848,-0.009 -0.77411,-0.0517 -1.47919,-0.0944 -0.70508,-0.0427 -1.65916,-0.12019 -2.12017,-0.17216 -1.19197,-0.13436 -4.09726,-0.54579 -4.16954,-0.59046 -0.21845,-0.13501 -0.27078,-3.12999 -0.0665,-3.80443 0.014,-0.0461 0.0631,-0.0953 0.10913,-0.10947 0.14265,-0.0438 3.93828,-0.56098 4.6939,-0.63959 1.43466,-0.14925 2.42423,-0.19078 3.87054,-0.16242 1.55615,0.0305 2.05309,0.0725 4.75805,0.40163 3.14617,0.38287 3.05729,0.36818 3.11919,0.51539 0.0784,0.18643 0.0769,2.92894 -0.002,3.42769 -0.034,0.2151 -0.0712,0.4005 -0.0827,0.412 -0.0115,0.0115 -0.46047,0.074 -0.9977,0.13882 -0.53724,0.0649 -1.48711,0.18441 -2.11084,0.2657 -1.11432,0.14522 -2.2102,0.24111 -3.91984,0.34301 -0.47457,0.0283 -0.98489,0.0591 -1.13405,0.0685 -0.14915,0.009 -0.35993,0.009 -0.46841,1.9e-4 z m -1.54165,-2.75339 c 0.57861,-1.58265 0.55663,-1.41324 0.18106,-1.39541 l -0.31244,0.0148 -0.2114,0.66564 c -0.28545,0.8988 -0.36365,1.10048 -0.40784,1.05194 -0.0206,-0.0226 -0.15416,-0.39617 -0.29677,-0.83007 -0.14261,-0.43389 -0.28122,-0.81663 -0.30803,-0.85053 -0.07,-0.0886 -0.57902,-0.083 -0.57902,0.006 0,0.0562 0.24362,0.74855 0.77011,2.18874 0.11395,0.3117 0.18599,0.36375 0.47975,0.34661 l 0.25196,-0.0147 z m 2.51666,1.10922 c 0.14924,-0.0721 0.30023,-0.29031 0.3516,-0.50818 0.054,-0.22903 -0.0191,-0.46895 -0.19293,-0.63288 l -0.16143,-0.15226 0.11788,-0.17369 c 0.21536,-0.31735 0.10378,-0.83234 -0.20586,-0.95006 -0.0695,-0.0264 -0.48001,-0.0481 -0.91214,-0.0481 h -0.78569 v 1.28766 1.28765 l 0.82588,-0.022 c 0.54786,-0.0146 0.87193,-0.0443 0.96269,-0.0881 z m -1.19689,-0.69012 V 39.2971 h 0.41146 c 0.4557,0 0.57466,0.064 0.57466,0.30925 0,0.20635 -0.16233,0.28243 -0.60264,0.28243 h -0.38348 z m 0,-1.08474 v -0.24653 h 0.36627 c 0.39779,0 0.52124,0.0627 0.52124,0.26485 0,0.1857 -0.0937,0.22821 -0.50292,0.22821 h -0.38459 z m 2.6205,1.45547 c 0.0164,-0.39483 0.0262,-0.42703 0.17604,-0.57682 0.0873,-0.0873 0.16651,-0.14869 0.17609,-0.13653 0.01,0.0122 0.15517,0.24738 0.32354,0.5227 0.16836,0.27531 0.33674,0.52598 0.37417,0.55705 0.0404,0.0336 0.19933,0.0505 0.39146,0.0418 l 0.3234,-0.0147 -0.47288,-0.73959 c -0.26009,-0.40678 -0.48274,-0.76495 -0.49479,-0.79594 -0.012,-0.031 0.1925,-0.26377 0.45455,-0.51728 0.53141,-0.51409 0.5313,-0.5204 -0.009,-0.53085 l -0.25437,-0.005 -0.49577,0.52316 -0.49577,0.52315 -0.0141,-0.51083 -0.0141,-0.51083 -0.28352,-0.0148 -0.28351,-0.0148 v 1.30908 1.30907 h 0.29078 0.29078 z m -2.71454,5.77676 c 0.27765,-0.14617 0.4218,-0.40151 0.48727,-0.86315 0.0625,-0.44056 -0.006,-0.98035 -0.16007,-1.26214 -0.21675,-0.39637 -0.70848,-0.51961 -1.15465,-0.28936 -0.28448,0.14681 -0.40978,0.36501 -0.40978,0.71359 0,0.35366 0.0846,0.57005 0.29058,0.74339 0.20779,0.17484 0.45324,0.21722 0.69898,0.1207 0.2285,-0.0898 0.24947,-0.0437 0.11202,0.24592 -0.10978,0.23134 -0.27809,0.30828 -0.41109,0.18792 -0.0543,-0.0492 -0.0988,-0.12087 -0.0988,-0.15929 0,-0.0562 -0.0556,-0.0631 -0.28351,-0.0355 -0.15593,0.0189 -0.28968,0.0396 -0.29721,0.046 -0.0281,0.0238 0.0975,0.29962 0.17738,0.38976 0.2621,0.29558 0.67438,0.35931 1.0489,0.16214 z m -0.57384,-1.3872 c -0.1338,-0.1338 -0.16084,-0.37862 -0.065,-0.58888 0.0704,-0.15461 0.1595,-0.18964 0.30898,-0.12153 0.26672,0.12153 0.32843,0.52716 0.10891,0.71597 -0.16817,0.14466 -0.20318,0.14411 -0.35285,-0.006 z m 4.77948,1.33654 c 0.35383,-0.26987 0.46909,-0.73635 0.28208,-1.14156 -0.16416,-0.35566 -0.47517,-0.533 -0.8407,-0.47935 -0.14222,0.0209 -0.16183,0.0121 -0.13406,-0.0603 0.0179,-0.0466 0.0325,-0.1162 0.0325,-0.15466 0,-0.0555 0.0969,-0.0699 0.46841,-0.0699 h 0.46841 v -0.27119 -0.27118 h -0.69029 c -0.37965,0 -0.69028,0.008 -0.69028,0.017 0,0.009 -0.0549,0.31352 -0.12193,0.67588 -0.0941,0.50831 -0.10815,0.66759 -0.0616,0.69715 0.10063,0.0639 0.40523,0.0444 0.50695,-0.0326 0.25915,-0.196 0.56412,-0.0162 0.56412,0.33261 0,0.43204 -0.31396,0.57827 -0.5908,0.27517 -0.1268,-0.13883 -0.16274,-0.15205 -0.34643,-0.12741 -0.11273,0.0151 -0.21643,0.039 -0.23046,0.053 -0.0515,0.0515 0.0891,0.36467 0.21968,0.48955 0.19485,0.18632 0.34292,0.23357 0.68324,0.21805 0.24124,-0.011 0.33835,-0.0413 0.48118,-0.15028 z m -6.13316,-1.19735 v -1.31311 l -0.20127,0.027 c -0.1577,0.0211 -0.23889,0.0709 -0.37509,0.23007 -0.0956,0.11169 -0.25746,0.24574 -0.35967,0.29788 -0.10222,0.0522 -0.19968,0.13086 -0.21658,0.17491 -0.0432,0.11247 -0.0384,0.46666 0.006,0.46558 0.0203,-5.6e-4 0.15701,-0.067 0.30372,-0.14792 0.1467,-0.0809 0.27428,-0.14702 0.28351,-0.14702 0.009,0 0.0168,0.38828 0.0168,0.86286 v 0.86285 h 0.27118 0.27119 z m 3.6411,0.84462 c 0.14212,-0.61869 0.26466,-0.93547 0.50674,-1.31003 0.24578,-0.38025 0.30357,-0.52632 0.26657,-0.67373 l -0.0286,-0.11405 -0.82464,0.0135 -0.82464,0.0135 v 0.24653 0.24653 l 0.50621,0.0246 0.5062,0.0247 -0.12847,0.18874 c -0.30534,0.44858 -0.56018,1.19503 -0.56259,1.64791 -9.3e-4,0.15881 0.001,0.16025 0.23739,0.16025 h 0.23825 z m -23.38812,-7.90115 c 0.33196,-0.53725 0.37832,-0.58189 1.25718,-1.21054 0.42034,-0.30067 0.88113,-0.64089 1.02398,-0.75604 0.14285,-0.11516 0.42311,-0.29956 0.6228,-0.40979 0.44168,-0.24382 0.50587,-0.31136 0.43782,-0.46072 -0.0572,-0.12554 -0.95236,-1.14223 -1.12583,-1.27869 -0.22287,-0.17531 -0.45239,-0.2356 -0.89555,-0.23525 -0.55395,3.8e-4 -1.14292,0.14062 -1.68693,0.40149 -0.40693,0.19515 -0.43139,0.20045 -0.82881,0.17959 -0.46169,-0.0242 -0.61756,-0.10298 -0.7674,-0.3877 -0.11205,-0.21292 -0.0886,-0.49336 0.0675,-0.80583 0.0892,-0.17864 0.18309,-0.27163 0.41359,-0.40967 0.37246,-0.22307 1.47959,-1.08071 1.68154,-1.3026 0.0829,-0.0911 0.24528,-0.29164 0.36086,-0.44571 0.22366,-0.29815 0.67841,-0.68135 0.80857,-0.68135 0.0961,0 0.2461,0.20482 0.40634,0.55482 0.089,0.1945 0.1385,0.43462 0.188,0.91273 0.0702,0.6781 0.13351,0.85201 0.26917,0.73951 0.12511,-0.10374 0.2077,-0.36431 0.2077,-0.65527 0,-0.38707 -0.20327,-1.24336 -0.43308,-1.82435 -0.3667,-0.9271 -0.38008,-0.98472 -0.369,-1.58858 0.006,-0.30498 0.0423,-0.8264 0.0816,-1.15869 0.0393,-0.3323 0.0866,-0.75912 0.10527,-0.94849 0.0728,-0.7411 0.32801,-1.24384 0.81828,-1.61223 0.4173,-0.31355 0.69413,-0.43488 0.99096,-0.43432 0.645,10e-4 3.42551,0.37093 3.93381,0.52306 0.62466,0.18695 1.37598,0.21414 1.99092,0.072 0.71815,-0.16595 0.92642,-0.35604 1.01884,-0.92991 0.0616,-0.38253 -0.0426,-0.99791 -0.25232,-1.49086 -0.19075,-0.44826 -0.3172,-0.64896 -0.59745,-0.9483 -0.18238,-0.19479 -0.24893,-0.2342 -0.39546,-0.2342 -0.10702,0 -0.18677,0.0276 -0.20315,0.0703 -0.0486,0.12672 0.0617,0.393 0.28643,0.69156 0.24684,0.32788 0.49031,0.93984 0.5436,1.36632 0.0636,0.5093 -0.17376,0.76252 -0.76587,0.8169 -0.24087,0.0221 -0.29034,0.0103 -0.42333,-0.10165 -0.0828,-0.0697 -0.3299,-0.4107 -0.54904,-0.7578 -0.21915,-0.34709 -0.46324,-0.69764 -0.54242,-0.779 -0.42083,-0.43239 -1.51972,-2.05081 -1.85664,-2.73441 -0.15314,-0.31071 -0.35547,-0.66381 -0.44962,-0.78466 -0.20736,-0.26615 -0.21971,-0.45111 -0.0454,-0.67963 0.21169,-0.27754 0.28864,-0.2395 0.94187,0.46558 0.53891,0.58168 1.02759,1.0409 1.59997,1.50349 0.15437,0.12476 0.27658,0.18343 0.38212,0.18343 0.1401,0 0.15517,-0.0146 0.15517,-0.15037 0,-0.0827 -0.0316,-0.21028 -0.0702,-0.28351 -0.10133,-0.19214 -0.56994,-0.62849 -1.13778,-1.05946 -0.81228,-0.61648 -1.13065,-0.94594 -1.25779,-1.30161 -0.06,-0.16774 -0.13795,-0.31608 -0.17331,-0.32964 -0.0404,-0.0155 -0.113,0.0749 -0.19544,0.24341 -0.1789,0.36567 -0.42179,0.50646 -0.96888,0.56161 -0.22374,0.0226 -0.43597,0.0298 -0.4716,0.0162 -0.10153,-0.039 -0.12969,-0.24033 -0.0835,-0.59748 0.11347,-0.87792 0.0128,-1.22233 -0.49831,-1.70411 -0.27802,-0.26208 -0.3203,-0.32517 -0.3203,-0.47799 0,-0.15379 0.0296,-0.19714 0.23421,-0.34264 0.12881,-0.0916 0.35623,-0.28121 0.50539,-0.42132 0.30494,-0.28645 0.42431,-0.34003 0.60471,-0.27144 0.0887,0.0337 0.14973,0.0291 0.21159,-0.0162 0.0754,-0.0551 0.0826,-0.11437 0.0546,-0.44617 -0.0274,-0.32366 -0.0169,-0.41751 0.0678,-0.60905 0.0551,-0.12454 0.12437,-0.43821 0.15395,-0.69704 0.0734,-0.64224 -0.0223,-1.19616 -0.30563,-1.76784 -0.49183,-0.99255 -1.62264,-1.69888 -2.70632,-1.69043 -0.88721,0.007 -1.6468,0.31056 -2.22612,0.88987 -0.31118,0.31119 -0.42145,0.46713 -0.63096,0.8923 -0.35801,0.72654 -0.46857,1.20723 -0.43418,1.88765 0.0324,0.63995 0.15109,0.94223 0.42354,1.07823 0.20085,0.10026 0.2491,0.16724 0.25011,0.34714 10e-4,0.22349 -0.51543,0.54448 -0.61557,0.38243 -0.0461,-0.0745 -0.17852,-0.0592 -0.27963,0.0323 -0.11952,0.10816 -0.11647,0.39238 0.006,0.59385 0.0693,0.11358 0.15547,0.17353 0.30798,0.21414 0.27228,0.0725 0.38437,0.17519 0.38437,0.35211 0,0.19471 -0.26175,0.69687 -0.41588,0.79787 -0.14616,0.0958 -0.15999,0.20805 -0.0457,0.37121 0.072,0.10277 0.0737,0.15293 0.0157,0.46034 -0.0973,0.51551 -0.14212,0.55236 -0.69606,0.57192 -0.25832,0.009 -0.52245,-0.007 -0.60161,-0.0379 -0.14141,-0.0542 -0.14776,-0.0893 -0.0563,-0.31148 0.049,-0.11909 -0.26153,-0.25383 -0.43393,-0.18829 -0.14724,0.056 -0.45551,0.41053 -0.52148,0.59976 -0.0485,0.13905 -0.0451,0.14266 0.20326,0.21641 0.1389,0.0412 0.29845,0.0755 0.35454,0.0761 0.0561,6e-4 0.20184,0.0486 0.32387,0.10657 0.12505,0.0594 0.38158,0.12032 0.58784,0.13948 0.32819,0.0305 0.38034,0.0501 0.50539,0.19005 0.1294,0.14483 0.13943,0.1856 0.13943,0.56702 0,0.48004 -0.0542,0.67366 -0.2635,0.9417 -0.11962,0.15319 -0.15971,0.26333 -0.18509,0.50859 -0.0253,0.24417 -0.0647,0.35303 -0.17907,0.49475 -0.23168,0.28703 -0.3057,0.26612 -0.52809,-0.14918 -0.10585,-0.19767 -0.3474,-0.63675 -0.53678,-0.97573 -0.51508,-0.92197 -0.57556,-1.05576 -0.57556,-1.27328 0,-0.19776 -0.0952,-0.35383 -0.21582,-0.35383 -0.0335,0 -0.1322,0.0526 -0.21939,0.11697 -0.0872,0.0643 -0.26346,0.15688 -0.39171,0.20568 -0.26759,0.10183 -0.69223,0.35383 -1.29325,0.7675 -0.31828,0.21906 -0.72744,0.61002 -1.7008,1.62514 -1.23307,1.28597 -1.29668,1.34391 -1.67642,1.52705 -0.4952,0.23883 -0.69844,0.28534 -1.40548,0.32164 -0.51453,0.0264 -0.58164,0.0198 -0.72488,-0.0711 -0.29451,-0.18702 -0.33541,-0.33338 -0.3335,-1.19337 l 0.002,-0.76827 0.16333,-0.31844 c 0.19074,-0.37188 0.19337,-0.56102 0.008,-0.56102 -0.27037,0 -0.53062,0.63271 -0.59781,1.45336 -0.13698,1.67293 0.27365,2.0489 1.96367,1.79795 0.28469,-0.0423 0.63818,-0.12197 0.78554,-0.1771 0.42967,-0.16076 0.94008,-0.5375 1.48728,-1.09779 0.28033,-0.28704 0.5376,-0.52188 0.5717,-0.52188 0.11697,0 0.21659,0.17325 0.39689,0.69028 0.15318,0.43924 0.26977,1.04466 0.76916,3.99381 0.60391,3.56649 0.74753,4.3859 0.84076,4.79712 0.0669,0.29499 0.0157,0.73603 -0.10229,0.88177 -0.19319,0.23857 -0.7395,0.0387 -0.93342,-0.34155 -0.0519,-0.10166 -0.23208,-0.56203 -0.40051,-1.02305 -0.16843,-0.46101 -0.35496,-0.97133 -0.41452,-1.13404 -0.0818,-0.22349 -0.13179,-0.29584 -0.20446,-0.29584 -0.13727,0 -0.14453,0.15333 -0.031,0.65516 0.0534,0.23627 0.12348,0.6339 0.15565,0.88363 l 0.0585,0.45406 -0.12889,0.16898 c -0.1522,0.19954 -0.40662,0.38295 -0.72726,0.52426 -0.19295,0.085 -0.43393,0.31354 -0.43393,0.41147 0,0.0139 0.0747,0.0715 0.16607,0.12798 0.14358,0.0887 0.24539,0.10275 0.75192,0.10349 0.67446,9.3e-4 1.08863,0.0764 1.60892,0.29301 0.4825,0.20086 0.7203,0.41209 0.98782,0.87745 0.56607,0.98467 0.81548,1.7405 0.85819,2.60061 0.0345,0.69561 -0.017,0.88726 -0.33231,1.23542 -0.13422,0.14821 -0.24403,0.28883 -0.24403,0.3125 0,0.14613 0.25728,0.0663 0.99987,-0.3101 1.11222,-0.56381 1.06152,-0.54703 1.37564,-0.45534 0.35319,0.10308 0.91563,0.48117 1.43937,0.96758 0.23742,0.2205 0.45801,0.3923 0.4902,0.38177 0.0322,-0.0105 0.16952,-0.19878 0.30518,-0.41834 z m -3.42691,-4.92677 c -0.30061,-0.0478 -0.83527,-0.27824 -0.98484,-0.42447 -0.20513,-0.20056 -0.24736,-0.31762 -0.27881,-0.77302 -0.0331,-0.47953 -0.36219,-2.45057 -0.58891,-3.52753 -0.27191,-1.29159 -0.45359,-2.39102 -0.63554,-3.84589 -0.15668,-1.25286 -0.30315,-1.98892 -0.57567,-2.89308 -0.1214,-0.40277 -0.12925,-0.38478 0.46464,-1.06413 0.59626,-0.68206 1.11954,-1.04814 1.61046,-1.12664 0.19092,-0.0305 0.2136,-0.0207 0.3862,0.16683 0.10085,0.1096 0.51019,0.78928 0.90963,1.5104 0.72496,1.30878 0.72635,1.31189 0.77676,1.74254 0.20905,1.78601 0.1774,6.4636 -0.0555,8.19716 -0.031,0.2305 -0.0698,0.71139 -0.0863,1.06864 -0.0274,0.59383 -0.04,0.66021 -0.14688,0.77377 -0.0992,0.10539 -0.5067,0.24714 -0.63745,0.22173 -0.019,-0.004 -0.09,-0.0155 -0.15782,-0.0263 z m 1.69855,-1.37062 c -0.0535,-0.12795 -0.0716,-0.39785 -0.072,-1.07241 -7.5e-4,-1.11513 0.0933,-6.20344 0.14048,-7.60707 l 0.0348,-1.03543 0.18422,-0.36979 c 0.24701,-0.49581 0.61387,-0.97426 0.90561,-1.18107 0.13159,-0.0933 0.39892,-0.32314 0.59407,-0.5108 0.4191,-0.40302 0.60574,-0.45611 1.02576,-0.29174 0.36536,0.14297 0.59147,0.17468 0.65966,0.0925 0.0313,-0.0378 0.045,-0.0992 0.0304,-0.13655 -0.0397,-0.10125 -0.62859,-0.47877 -1.01394,-0.64999 -0.41059,-0.18243 -0.52211,-0.15268 -0.68441,0.18258 -0.12777,0.26395 -0.31886,0.43628 -0.68029,0.61355 -0.43512,0.2134 -0.52107,0.0718 -0.38722,-0.63787 0.0942,-0.49962 0.13735,-0.55665 0.39023,-0.51622 0.27519,0.044 0.32968,-0.0216 0.32968,-0.39723 V 17.3065 h 0.19722 c 0.41193,0 0.53771,-0.40197 0.19723,-0.63029 -0.27079,-0.18159 -0.30262,-0.28249 -0.2499,-0.79211 0.0295,-0.28514 0.0281,-0.57009 -0.004,-0.80101 -0.0585,-0.42196 -0.0278,-0.63863 0.10766,-0.76124 0.0954,-0.0864 0.11638,-0.0836 0.67699,0.0913 0.31818,0.0992 0.7893,0.21534 1.04693,0.25806 0.50146,0.0831 0.61412,0.13501 0.89456,0.41182 0.0988,0.0975 0.25761,0.23872 0.35294,0.31379 0.18605,0.14651 0.62613,0.93286 0.62613,1.11877 0,0.1324 -0.10837,0.34542 -0.23319,0.45838 -0.0525,0.0475 -0.22624,0.11051 -0.38618,0.14007 -0.29863,0.0552 -0.53319,0.1521 -0.58975,0.24362 -0.0176,0.0285 0.002,0.1043 0.0444,0.16845 0.0952,0.14532 0.43123,0.22407 0.95762,0.22445 0.89999,6.6e-4 0.77777,-0.13236 3.327,3.6208 0.95131,1.4006 1.07211,1.6004 1.06008,1.75331 -0.0112,0.14188 -0.0443,0.1879 -0.18615,0.25878 -0.24076,0.12027 -0.96965,0.11387 -1.68278,-0.0148 -1.40832,-0.25407 -1.72618,-0.29756 -2.18776,-0.29934 -0.76619,-0.003 -1.24588,0.15682 -1.68434,0.56098 -0.39993,0.36864 -0.49895,0.60454 -0.76439,1.82104 -0.13883,0.6363 -0.15731,0.82197 -0.188,1.88901 -0.0317,1.1017 -0.0427,1.20628 -0.15926,1.51577 -0.13879,0.36849 -0.3257,0.61837 -0.81804,1.09366 -0.44551,0.43008 -1.58962,1.35972 -1.67341,1.35972 -0.037,0 -0.0995,-0.0769 -0.13877,-0.17099 z m 3.58801,-13.83415 c 0.10086,-0.028 0.24733,-0.10475 0.32551,-0.17053 0.0782,-0.0658 0.25083,-0.1448 0.38366,-0.17559 0.47379,-0.10981 0.48618,-0.12354 0.5025,-0.55632 0.0171,-0.45471 -0.0432,-0.58117 -0.45865,-0.96084 -0.31945,-0.29196 -0.60317,-0.43722 -0.99702,-0.51046 -0.54925,-0.10215 -0.84766,0.0402 -0.97369,0.46463 -0.14237,0.4794 -0.10773,0.69392 0.21351,1.32222 0.24878,0.4866 0.30826,0.5687 0.43143,0.59555 0.22347,0.0487 0.37435,0.0464 0.57275,-0.009 z m -0.4299,-2.88153 c -1.00515,-0.22221 -1.78761,-0.99712 -2.04197,-2.02227 -0.10676,-0.43027 -0.0772,-1.09535 0.0678,-1.52736 0.66433,-1.97901 3.08596,-2.51929 4.44707,-0.99217 0.98724,1.10767 0.94299,2.75776 -0.10209,3.80695 -0.66835,0.67099 -1.49736,0.92795 -2.37079,0.73485 z m 19.74715,19.37664 v -1.30662 h -0.24653 -0.24653 v 1.30662 1.30661 h 0.24653 0.24653 z m 2.505,1.04775 0.015,-0.2342 h -0.71765 -0.71764 v -0.32049 -0.32049 h 0.64098 0.64098 V 33.7255 33.47897 h -0.64098 -0.64098 V 33.23243 32.9859 h 0.69029 0.69029 v -0.24653 -0.24653 h -0.96148 -0.96147 v 1.30766 1.30766 l 0.9738,-0.0134 0.9738,-0.0134 z m 2.74669,0.20862 c 0.0171,-0.0276 -0.14609,-0.29139 -0.36259,-0.58612 l -0.39365,-0.53588 0.19185,-0.0865 c 0.10551,-0.0476 0.23037,-0.14438 0.27746,-0.21511 0.11867,-0.17826 0.11522,-0.62643 -0.006,-0.80907 -0.17263,-0.25961 -0.32112,-0.29857 -1.22357,-0.32108 l -0.82587,-0.0206 v 1.28765 1.28765 h 0.29583 0.29584 v -0.51771 c 0,-0.56451 0,-0.56422 0.29105,-0.46269 0.11864,0.0414 0.23275,0.16693 0.45929,0.50539 0.16579,0.2477 0.32549,0.46666 0.35489,0.48659 0.0812,0.055 0.61033,0.0448 0.64572,-0.0125 z m -1.75094,-1.84805 V 32.9366 h 0.40924 c 0.44711,0 0.52757,0.0386 0.52757,0.25287 0,0.23112 -0.11007,0.2895 -0.54589,0.2895 h -0.39092 z m -4.33895,1.62711 v -0.22188 h -0.64098 -0.64099 v -1.03543 -1.03543 h -0.27118 -0.27118 v 1.25731 1.2573 h 0.91216 0.91217 z m 9.07082,-3.68184 c 0.30197,-0.66097 0.39709,-0.91644 0.36259,-0.9738 -0.065,-0.10799 -1.23438,-0.89782 -1.73912,-1.17461 -0.68753,-0.37702 -2.32078,-1.02194 -2.38919,-0.94342 -0.0201,0.0231 -0.63242,2.79149 -0.64011,2.89417 -0.004,0.056 0.13277,0.10167 0.56147,0.1872 0.31186,0.0622 1.16609,0.28985 1.89829,0.50585 0.7322,0.216 1.37749,0.3945 1.43399,0.39669 0.0863,0.003 0.16799,-0.13893 0.51208,-0.89208 z m -12.66423,0.54656 c 0.75605,-0.21783 1.77519,-0.44053 2.58263,-0.56435 0.2983,-0.0457 0.54875,-0.089 0.55656,-0.096 0.0177,-0.0161 -0.62202,-2.78083 -0.66967,-2.89412 -0.0308,-0.0732 -0.11726,-0.0519 -0.74975,0.18488 -0.9027,0.3379 -1.58098,0.67781 -2.33798,1.17163 -0.6732,0.43917 -1.01484,0.7036 -1.01484,0.7855 0,0.0307 0.18305,0.4174 0.40677,0.85942 0.30603,0.60462 0.4251,0.7966 0.48074,0.77512 0.0407,-0.0157 0.37617,-0.11562 0.74554,-0.22204 z m 5.02452,-0.81111 c 0.58237,-0.0166 1.36948,-0.009 1.74914,0.0159 0.37966,0.0254 0.72694,0.0274 0.77173,0.005 0.0893,-0.0455 0.33427,-0.99466 0.55844,-2.16339 0.0702,-0.3661 0.13764,-0.71237 0.14983,-0.76949 0.0206,-0.0964 -0.014,-0.10969 -0.48239,-0.18533 -1.14732,-0.18527 -2.12243,-0.22466 -3.12154,-0.12609 -0.55307,0.0546 -1.49165,0.21784 -1.54207,0.26826 -0.0156,0.0156 0.0895,0.55423 0.23352,1.19704 0.144,0.64282 0.29573,1.32023 0.33719,1.50536 0.0682,0.3045 0.0855,0.33407 0.18133,0.31001 0.0583,-0.0146 0.58245,-0.0402 1.16482,-0.0568 z m -44.8847203,-2.37351 -0.23669,-0.0724 0.0313,-0.2088 c 0.0222,-0.14798 0.0117,-0.22512 -0.0361,-0.26478 -0.11121,-0.0923 -2.51989998,-0.75884 -2.63647998,-0.72959 -0.0679,0.017 -0.12846,0.0913 -0.16513,0.20238 -0.0541,0.16391 -0.0682,0.17324 -0.21339,0.14166 -0.40662,-0.0884 -0.39815,-0.002 -0.10187,-1.03571 0.14546,-0.50737 0.27233,-0.93035 0.28195,-0.93997 0.01,-0.01 0.12946,0.0158 0.26632,0.0564 l 0.24884998,0.0739 -0.0248,0.21963 c -0.0238,0.21074 -0.018,0.22268 0.14166,0.29519 0.0915,0.0416 0.68615,0.22272 1.32139,0.40258 1.31468,0.37224 1.23467,0.37916 1.3374,-0.11568 0.0915,-0.44072 -0.0222,-0.74174 -0.48819,-1.29234 l -0.1438,-0.16992 0.1236,-0.18677 c 0.1229,-0.18571 0.12438,-0.18632 0.26032,-0.10602 0.37499,0.22152 1.10977,0.79408 1.12579,0.87725 0.0188,0.0976 -0.78693,2.93961 -0.83083,2.93049 -0.0135,-0.003 -0.13116,-0.0377 -0.26134,-0.0775 z M 64.553791,27.1532 c -0.28671,-0.13671 -0.51985,-0.38311 -0.65799,-0.69541 -0.077,-0.17404 -0.45464,-1.29382 -0.84194,-2.49643 -0.0379,-0.11786 -0.0255,-0.1291 0.22382,-0.20283 l 0.264,-0.0781 0.0871,0.17818 c 0.0479,0.098 0.12615,0.18538 0.17382,0.19419 0.0766,0.0142 2.15493,-0.5971 2.5197,-0.74108 0.13309,-0.0525 0.13979,-0.0691 0.11838,-0.29187 l -0.0227,-0.23618 0.22059,-0.0752 c 0.12133,-0.0413 0.23957,-0.0634 0.26277,-0.0491 0.10555,0.0652 0.83335,2.62081 0.83194,2.92125 -0.004,0.76595 -0.75857,1.20254 -1.3886,0.80299 -0.1241,-0.0787 -0.24069,-0.16746 -0.2591,-0.19723 -0.0696,-0.11259 -0.11335,-0.0453 -0.14027,0.21547 -0.0153,0.14828 -0.0679,0.33738 -0.1168,0.42023 -0.24084,0.4077 -0.80612,0.5545 -1.27476,0.33104 z m 0.65053,-1.01841 c 0.21315,-0.12997 0.27764,-0.26937 0.24968,-0.53968 -0.0347,-0.33554 -0.1832,-0.79648 -0.26693,-0.82861 -0.0997,-0.0383 -0.9637,0.22623 -1.03681,0.31741 -0.0637,0.0795 0.0139,0.32411 0.25178,0.79363 0.1785,0.35224 0.4852,0.45058 0.80228,0.25725 z m 1.64636,-0.63964 c 0.0901,-0.0901 0.14413,-0.19546 0.14413,-0.28097 0,-0.19743 -0.24002,-0.95548 -0.30253,-0.95548 -0.0291,0 -0.23913,0.0581 -0.46682,0.12908 -0.47055,0.14671 -0.46675,0.13933 -0.31018,0.60295 0.20582,0.60946 0.61156,0.82826 0.9354,0.50442 z M 4.5568307,24.61971 c -0.15707,-0.0656 -0.18337,-0.0964 -0.15626,-0.18296 0.0849,-0.27128 0.0817,-0.30956 -0.0329,-0.38381 -0.17086,-0.11078 -2.39558,-0.97759 -2.50905,-0.97759 -0.063,0 -0.12677,0.0612 -0.17989,0.17257 -0.0453,0.0949 -0.11071,0.17257 -0.14544,0.17257 -0.0915,0 -0.41165,-0.15929 -0.41165,-0.20482 0,-0.11381 0.66349,-1.76742 0.70915,-1.76742 0.0297,0 0.14871,0.0388 0.26439,0.0863 0.14902,0.0611 0.20206,0.10784 0.18196,0.16025 -0.0782,0.20396 -0.0747,0.32627 0.0116,0.40415 0.11375,0.10263 2.36468,0.97642 2.51532,0.97642 0.0763,0 0.13738,-0.0506 0.19313,-0.16024 0.0448,-0.0881 0.0877,-0.16744 0.0953,-0.17623 0.0203,-0.0234 0.51639,0.15787 0.51389,0.1878 -10e-4,0.014 -0.16228,0.41343 -0.35801,0.88769 -0.21803,0.52826 -0.38433,0.86654 -0.42931,0.87325 -0.0404,0.006 -0.15841,-0.0245 -0.26228,-0.0679 z M 63.154161,22.96254 c -0.092,-0.0294 -0.30079,-0.17689 -0.46391,-0.32778 -0.27731,-0.25653 -0.3345,-0.35188 -0.88042,-1.46791 -0.32111,-0.65647 -0.58385,-1.21614 -0.58385,-1.24372 0,-0.0651 0.2626,-0.2006 0.38864,-0.2006 0.0537,0 0.14511,0.0666 0.20304,0.14792 0.0579,0.0814 0.13113,0.14791 0.16266,0.14791 0.11361,0 2.37858,-1.09493 2.46003,-1.18923 0.0738,-0.0854 0.0757,-0.11833 0.0172,-0.2844 l -0.0663,-0.18782 0.22302,-0.10835 c 0.12266,-0.0596 0.23249,-0.0989 0.24408,-0.0873 0.0767,0.0767 1.21555,2.55953 1.25729,2.74104 0.18464,0.80302 -0.70551,1.42312 -1.39137,0.96924 -0.10594,-0.0701 -0.20421,-0.12749 -0.21835,-0.12749 -0.0141,0 -0.0257,0.13423 -0.0257,0.29829 0,0.44884 -0.15822,0.68441 -0.59167,0.88092 -0.24209,0.10975 -0.47467,0.12218 -0.73436,0.0393 z m 0.59717,-1.16508 c 0.0846,-0.0947 0.13719,-0.20952 0.13719,-0.29956 0,-0.14766 -0.16977,-0.64571 -0.31744,-0.93128 l -0.0804,-0.15544 -0.47904,0.25494 c -0.26348,0.14022 -0.49795,0.27153 -0.52105,0.29181 -0.0723,0.0635 0.36394,0.83747 0.53132,0.94272 0.22721,0.14288 0.55039,0.0972 0.72941,-0.10319 z m 1.30525,-0.67745 c 0.10038,-0.0476 0.20447,-0.1494 0.24959,-0.24401 0.076,-0.15944 0.0734,-0.17056 -0.15029,-0.63323 -0.12523,-0.25901 -0.23666,-0.47094 -0.24763,-0.47094 -0.0215,0 -0.88605,0.39893 -0.91219,0.42091 -0.0351,0.0295 0.53109,0.85382 0.63771,0.9285 0.14415,0.10096 0.20784,0.10078 0.42281,-0.001 z m -59.3826303,0.75744 -0.20579,-0.10871 0.0711,-0.16798 c 0.0391,-0.0924 0.0596,-0.20406 0.0456,-0.24818 -0.036,-0.11336 -2.44194,-1.301 -2.55065,-1.25906 -0.0464,0.0179 -0.0972,0.0729 -0.11285,0.12217 -0.0592,0.18661 -0.1514,0.20984 -0.37834,0.0954 -0.11732,-0.0592 -0.21875,-0.11216 -0.2254,-0.11774 -0.007,-0.006 0.32263,-0.67958 0.73175,-1.49778 0.85646,-1.71285 0.65505,-1.53164 1.58723,-1.42798 l 0.53641,0.0596 -0.0287,0.14374 c -0.0158,0.0791 -0.0288,0.19444 -0.0288,0.25639 0,0.10151 -0.0354,0.11853 -0.35747,0.17206 -0.46265,0.0769 -0.60044,0.1617 -0.7992,0.49187 -0.20556,0.34146 -0.37183,0.67108 -0.37183,0.73713 0,0.0419 0.83236,0.49553 0.90927,0.49553 0.0206,0 0.17547,-0.47143 0.17547,-0.53424 0,-0.0128 -0.089,-0.10541 -0.19769,-0.20579 -0.19596,-0.18091 -0.19708,-0.18398 -0.12762,-0.3499 0.0386,-0.0921 0.0857,-0.18288 0.10477,-0.20183 0.026,-0.0258 1.45584,0.64651 1.54292,0.72552 0.009,0.008 -0.0308,0.10549 -0.0876,0.21692 -0.1084,0.21249 -0.11142,0.21328 -0.45634,0.12012 -0.12243,-0.0331 -0.27663,0.0646 -0.38644,0.24467 -0.0527,0.0864 -0.0959,0.17447 -0.096,0.19572 -2.6e-4,0.0531 0.88355,0.47909 0.99407,0.47909 0.19525,0 0.53424,-0.73738 0.53424,-1.1621 0,-0.32273 -0.0893,-0.55592 -0.32151,-0.83926 l -0.17149,-0.20929 0.20952,-0.17486 0.20952,-0.17487 0.53004,0.52743 c 0.29153,0.29009 0.53005,0.56683 0.53005,0.61499 0,0.15644 -1.49773,3.0982 -1.5743,3.09215 -0.0155,-10e-4 -0.12076,-0.0511 -0.23394,-0.11094 z M 60.847521,18.9147 c -0.29835,-0.0973 -0.5284,-0.2524 -0.75352,-0.50814 -0.39901,-0.45331 -0.55537,-0.98716 -0.44606,-1.52307 0.0513,-0.25173 0.0945,-0.32584 0.3135,-0.53844 0.13969,-0.13559 0.64776,-0.49766 1.12906,-0.80461 0.7812,-0.4982 0.87508,-0.5724 0.87508,-0.69164 0,-0.0735 -0.0336,-0.18158 -0.0747,-0.24025 -0.0712,-0.10172 -0.064,-0.11404 0.15444,-0.26437 0.18329,-0.1261 0.23734,-0.14396 0.26994,-0.0892 0.0224,0.0377 0.26076,0.41241 0.52966,0.83274 l 0.4889,0.76425 -0.22001,0.14423 -0.22001,0.14423 -0.12253,-0.15656 c -0.0674,-0.0861 -0.16255,-0.15656 -0.21147,-0.15656 -0.13975,0 -1.88673,1.16152 -2.01175,1.33756 -0.20381,0.28699 -0.12608,0.68595 0.18458,0.94735 0.18784,0.15806 0.41841,0.2044 0.67424,0.13551 0.19067,-0.0514 1.66927,-0.9587 1.86275,-1.14309 0.092,-0.0877 0.0926,-0.0988 0.0123,-0.26698 -0.046,-0.0965 -0.0837,-0.19283 -0.0837,-0.21404 0,-0.0428 0.35675,-0.25394 0.42905,-0.25394 0.043,0 0.90222,1.28266 0.90222,1.3468 0,0.0163 -0.10285,0.0899 -0.22855,0.16356 l -0.22855,0.13394 -0.0961,-0.13186 c -0.17633,-0.24206 -0.29064,-0.20323 -1.30969,0.44476 -0.36015,0.22902 -0.7502,0.45858 -0.86675,0.51014 -0.28797,0.12738 -0.69744,0.16077 -0.95239,0.0777 z M 7.8889607,17.99191 c -0.23569,-0.16694 -0.23963,-0.17675 -0.13226,-0.33004 0.15948,-0.22769 0.0981,-0.29358 -1.00922,-1.08262 -0.58036,-0.41355 -1.09208,-0.75192 -1.13715,-0.75192 -0.0451,0 -0.14481,0.0656 -0.22164,0.14581 l -0.13969,0.14581 -0.21468,-0.15416 c -0.11807,-0.0848 -0.21467,-0.17308 -0.21467,-0.19618 0,-0.0231 0.1076,-0.1802 0.23912,-0.34911 0.13151,-0.16891 0.44636,-0.60664 0.69966,-0.97274 0.55202,-0.79785 1.06579,-1.33442 1.35968,-1.42005 0.43485,-0.12671 0.79567,-0.0396 1.08632,0.26213 0.27679,0.28737 0.34243,0.58022 0.24008,1.07109 -0.0403,0.19324 -0.0681,0.35535 -0.0617,0.36024 0.0203,0.0156 1.33801,-0.1212 1.4634,-0.15195 0.0663,-0.0163 0.1950003,-0.0949 0.2859603,-0.17477 l 0.16538,-0.1452 0.18245,0.13424 c 0.10035,0.0738 0.19028,0.13927 0.19986,0.14543 0.01,0.006 -0.14135,0.24229 -0.33538,0.52476 l -0.3527803,0.51359 -0.47818,0.0317 c -0.263,0.0174 -0.74699,0.0318 -1.07553,0.0319 -0.52944,2.5e-4 -0.61212,0.0119 -0.72727,0.10245 -0.0714,0.0562 -0.12991,0.12832 -0.12991,0.16025 1e-5,0.0687 0.80063,0.62507 0.89953,0.62507 0.0375,0 0.13088,-0.0655 0.20756,-0.14552 l 0.13942,-0.14552 0.21495,0.14789 c 0.11822,0.0813 0.21495,0.15755 0.21495,0.16935 0,0.0231 -1.13637,1.60238 -1.15033,1.59871 -0.005,-0.001 -0.10266,-0.069 -0.21792,-0.15062 z m -0.59371,-2.70694 c 0.24648,-0.31242 0.39654,-0.63085 0.40238,-0.85388 0.009,-0.34027 -0.4057,-0.59014 -0.70948,-0.42757 -0.10549,0.0565 -0.73862,0.85013 -0.73862,0.92591 0,0.0717 0.802,0.65911 0.83928,0.61476 0.0173,-0.0205 0.11016,-0.13719 0.20644,-0.25922 z m 50.7236403,0.1634 c -0.30558,-0.40173 -0.72963,-0.94598 -0.94234,-1.20943 -0.2127,-0.26345 -0.38674,-0.48901 -0.38674,-0.50124 0,-0.0122 0.0867,-0.0909 0.19274,-0.1749 l 0.19274,-0.15265 0.14719,0.12385 c 0.081,0.0681 0.1913,0.12386 0.2452,0.12386 0.10866,0 2.12555,-1.5057 2.16917,-1.61938 0.0245,-0.0639 0.005,-0.13895 -0.10749,-0.40498 -0.0226,-0.0537 0.0311,-0.12229 0.17883,-0.22825 l 0.21118,-0.15148 0.60132,0.77061 0.60132,0.77062 -0.17811,0.16025 c -0.21487,0.19332 -0.25802,0.19684 -0.41147,0.0335 -0.0745,-0.0793 -0.15727,-0.11945 -0.22105,-0.10726 -0.13698,0.0262 -2.14238,1.56449 -2.14238,1.64338 0,0.12968 0.33096,0.48845 0.5587,0.60565 0.25626,0.13187 0.57492,0.16056 0.97589,0.0879 l 0.22798,-0.0413 0.0805,0.23613 c 0.0442,0.12988 0.0637,0.25022 0.0432,0.26743 -0.0205,0.0172 -0.33561,0.12621 -0.70027,0.24222 -0.36465,0.116 -0.68944,0.22106 -0.72175,0.23345 -0.0323,0.0124 -0.30875,-0.30615 -0.61433,-0.70788 z m -2.58121,-2.77145 -0.6838,-0.6851 0.16144,-0.20088 0.16143,-0.20089 0.15038,0.12654 c 0.13125,0.11044 0.15738,0.11694 0.20552,0.0511 0.0528,-0.0722 0.29621,-1.35768 0.26261,-1.38669 -0.009,-0.008 -0.19556,-0.0292 -0.41474,-0.0477 l -0.39851,-0.0336 -0.20549,0.21171 c -0.23372,0.2408 -0.25004,0.33216 -0.0976,0.54622 l 0.10787,0.1515 -0.1891,0.16346 -0.1891,0.16346 -0.67069,-0.64937 c -0.36888,-0.35716 -0.67654,-0.66278 -0.68369,-0.67915 -0.007,-0.0164 0.0633,-0.10369 0.15649,-0.19404 l 0.16949,-0.16427 0.14696,0.10464 c 0.0808,0.0576 0.18741,0.10465 0.23686,0.10465 0.10671,0 1.99039,-1.89978 1.99039,-2.00739 0,-0.0401 -0.047,-0.13893 -0.10447,-0.21962 l -0.10448,-0.14672 0.13836,-0.14441 c 0.0761,-0.0794 0.16468,-0.1444 0.19686,-0.1444 0.0322,0 0.36183,0.29152 0.73253,0.64783 l 0.67402,0.64783 -0.1131,0.12094 c -0.19543,0.20898 -0.27142,0.22736 -0.45949,0.11113 -0.0934,-0.0577 -0.20933,-0.0924 -0.2576,-0.0771 -0.11695,0.0371 -0.92806,0.855 -0.88783,0.89523 0.0173,0.0173 0.45436,0.0435 0.9712,0.0581 1.01285,0.0287 1.03552,0.0229 0.86434,-0.22153 -0.0712,-0.10164 -0.065,-0.1172 0.11094,-0.28007 l 0.18631,-0.17244 0.61487,0.61301 0.61486,0.61301 -0.16604,0.17131 c -0.16488,0.17011 -0.16712,0.17074 -0.31903,0.0908 -0.10596,-0.0558 -0.39233,-0.0967 -0.93166,-0.13328 -0.76072,-0.0515 -0.77919,-0.0505 -0.80061,0.046 -0.0468,0.21071 -0.2697,1.90255 -0.2697,2.0468 0,0.0838 0.0352,0.22042 0.0782,0.30353 0.0767,0.14829 0.0751,0.15427 -0.0836,0.31805 -0.089,0.0918 -0.17436,0.16691 -0.18975,0.16691 -0.0154,0 -0.33567,-0.30829 -0.71175,-0.6851 z M 13.398931,9.98208 c -1.50623,-0.80653 -1.75833,-0.90666 -1.9074,-0.7576 -0.0384,0.0384 -0.0981,-0.002 -0.2121,-0.14389 -0.0872,-0.10856 -0.15779,-0.21198 -0.15679,-0.22982 0.003,-0.0479 1.37988,-1.20827 1.43402,-1.20827 0.0254,0 0.11316,0.0812 0.19501,0.18054 l 0.14882,0.18054 -0.0959,0.12195 c -0.11016,0.14005 -0.12324,0.27137 -0.0343,0.3444 0.11333,0.0931 1.97574,1.14543 1.99428,1.1269 0.0525,-0.0525 -0.73244,-2.12648 -0.85067,-2.24766 -0.0608,-0.0623 -0.0889,-0.0573 -0.2192,0.0391 l -0.14949,0.11053 -0.19551,-0.16234 c -0.10753,-0.0893 -0.19591,-0.17729 -0.1964,-0.19557 -5e-4,-0.0183 0.27091,-0.26744 0.60311,-0.5537 l 0.60401,-0.52045 0.18112,0.20855 c 0.15133,0.17424 0.17082,0.22072 0.11844,0.28251 -0.13161,0.15525 -0.12199,0.26618 0.0762,0.87833 0.16109,0.49769 0.80871,2.34673 0.95535,2.72765 0.0369,0.0958 -0.57064,0.63765 -0.70523,0.62898 -0.0459,-0.003 -0.7602,-0.36775 -1.58732,-0.81064 z m 37.88624,-0.89275 c -0.45793,-0.3161 -1.01514,-0.69628 -1.23824,-0.84485 l -0.40564,-0.27013 0.0851,-0.14458 c 0.15913,-0.2702 0.22211,-0.30127 0.4197,-0.20704 0.0958,0.0457 0.20754,0.0703 0.24827,0.0546 0.0898,-0.0345 1.61039,-2.17318 1.61105,-2.26598 5.5e-4,-0.0483 -0.16194,-0.2097 -0.27392,-0.27237 -0.0809,-0.0453 -0.0749,-0.0659 0.0745,-0.25454 0.0894,-0.11288 0.18816,-0.1986 0.21946,-0.19047 0.0814,0.0211 1.55749,1.04426 1.55779,1.07978 0,0.0163 -0.0667,0.12203 -0.14856,0.23502 l -0.14882,0.20543 -0.14139,-0.10453 c -0.25239,-0.1866 -0.2897,-0.14991 -1.24133,1.22043 -0.32325,0.46549 -0.58773,0.88137 -0.58773,0.92419 0,0.1167 0.36345,0.35702 0.64046,0.42348 0.30779,0.0738 0.58455,0.0291 0.94617,-0.15275 l 0.28003,-0.14086 0.15354,0.2085 c 0.17973,0.24406 0.23652,0.16723 -0.53187,0.71964 -0.26908,0.19344 -0.5335,0.35172 -0.58761,0.35172 -0.0541,0 -0.47305,-0.25863 -0.93098,-0.57473 z M 17.163811,8.52564 c -0.73796,-0.0957 -1.45262,-0.73478 -1.67092,-1.49427 -0.12742,-0.44328 -0.085,-1.10419 0.0936,-1.45973 0.26952,-0.53647 0.9033,-1.05163 1.52675,-1.24099 0.96948,-0.29448 1.95296,0.16529 2.44048,1.1409 0.22688,0.45402 0.28546,0.77943 0.21465,1.19238 -0.10567,0.61622 -0.40945,1.05769 -0.99625,1.44779 -0.54835,0.36454 -1.03099,0.48876 -1.60828,0.41392 z m 1.03174,-0.80189 c 0.0873,-0.0367 0.23268,-0.14207 0.32315,-0.23421 0.38634,-0.3935 0.41588,-0.72557 0.11916,-1.33951 -0.36766,-0.76071 -0.87104,-1.15582 -1.41507,-1.1107 -0.34866,0.0289 -0.58454,0.18923 -0.74306,0.50501 -0.14823,0.2953 -0.15365,0.50749 -0.0237,0.92822 0.21189,0.68601 0.8933,1.30701 1.44368,1.31569 0.0754,0.001 0.20857,-0.0278 0.29584,-0.0645 z m 29.30126,-0.82257 c -0.73075,-0.35323 -1.33691,-0.6505 -1.34702,-0.66061 -0.0101,-0.0101 0.0292,-0.12902 0.0874,-0.26426 l 0.10578,-0.24589 0.19065,0.0749 c 0.10486,0.0412 0.22581,0.0614 0.26878,0.0449 0.0936,-0.0359 1.20951,-2.31647 1.20951,-2.47192 0,-0.0727 -0.0549,-0.13813 -0.16653,-0.19822 l -0.16653,-0.0897 0.0991,-0.23857 c 0.0545,-0.13122 0.11819,-0.23858 0.14146,-0.23858 0.0233,0 0.43033,0.18674 0.90457,0.41497 l 0.86228,0.41496 -0.10231,0.24619 -0.10231,0.24618 -0.17148,-0.0716 c -0.0943,-0.0394 -0.21517,-0.0578 -0.26857,-0.0408 -0.0674,0.0214 -0.26972,0.38605 -0.66201,1.19327 -0.31072,0.63935 -0.56493,1.20062 -0.56493,1.24725 0,0.13452 0.46044,0.31026 0.81355,0.31052 0.31848,2.4e-4 0.69977,-0.1536 0.88283,-0.35617 0.12693,-0.14046 0.16844,-0.13256 0.37787,0.0719 l 0.18011,0.17588 -0.53926,0.52673 c -0.29659,0.2897 -0.5764,0.53217 -0.62179,0.53882 -0.0454,0.007 -0.68043,-0.27692 -1.41119,-0.63014 z M 20.912281,6.67256 c -0.0851,-0.22291 -0.085,-0.23205 0.004,-0.28351 0.30379,-0.17577 0.30477,-0.20047 0.0349,-0.87372 -0.40113,-1.00083 -0.8103,-1.86413 -0.8965,-1.89149 -0.0499,-0.0158 -0.16796,0.003 -0.26234,0.0429 -0.15519,0.0648 -0.17388,0.0639 -0.19548,-0.0101 -0.0131,-0.045 -0.0587,-0.16231 -0.10131,-0.26063 l -0.0774,-0.17879 0.25697,-0.10023 c 0.14133,-0.0551 0.55112,-0.22321 0.91066,-0.37351 l 0.65369,-0.27327 0.12387,0.24445 0.12387,0.24444 -0.17306,0.0825 c -0.0952,0.0454 -0.18541,0.12143 -0.2005,0.16897 -0.0302,0.0953 0.10465,0.45043 0.63461,1.6708 0.39295,0.90487 0.412,0.92346 0.76291,0.74443 0.41971,-0.21411 0.61285,-0.50598 0.71983,-1.08774 l 0.0593,-0.32232 0.25092,-0.0147 0.25093,-0.0147 0.0363,0.72632 c 0.021,0.42076 0.0175,0.7562 -0.009,0.79736 -0.0384,0.0608 -2.67917,1.19296 -2.78266,1.19296 -0.0203,0 -0.0765,-0.10366 -0.12492,-0.23035 z m 23.71169,-0.87105 c -0.41253,-0.14246 -0.76193,-0.27089 -0.77643,-0.28539 -0.0145,-0.0145 0.009,-0.13052 0.0525,-0.25782 0.0746,-0.21903 0.0878,-0.23084 0.24619,-0.22017 0.092,0.006 0.18939,-0.0108 0.21638,-0.0378 0.0698,-0.0698 0.0822,-0.55025 0.0159,-0.61656 -0.0853,-0.0853 -1.01415,-0.3763 -1.11703,-0.34996 -0.10158,0.026 -0.37736,0.38113 -0.37736,0.48593 0,0.037 0.0747,0.103 0.1661,0.14657 l 0.16611,0.0792 -0.0769,0.24048 c -0.0423,0.13227 -0.1004,0.24047 -0.12912,0.24045 -0.11108,-5e-5 -1.43269,-0.48468 -1.4309,-0.52468 10e-4,-0.0233 0.0326,-0.13754 0.0701,-0.25393 0.0613,-0.1903 0.081,-0.20888 0.19532,-0.18448 0.0786,0.0168 0.17691,-0.006 0.25733,-0.0596 0.0716,-0.0477 0.52981,-0.55265 1.01828,-1.12214 0.48846,-0.56948 0.99788,-1.15687 1.13203,-1.3053 l 0.24391,-0.26988 0.37882,0.11881 c 0.20835,0.0653 0.40139,0.146 0.42897,0.17923 0.0292,0.0352 0.0705,0.70662 0.0989,1.60561 0.0604,1.91478 0.0639,1.94559 0.24597,2.11564 0.13812,0.12901 0.1407,0.13982 0.0773,0.32387 -0.0919,0.26662 -0.20507,0.26168 -1.10222,-0.0481 z m -0.21141,-2.63109 c 0,-0.34819 -0.0178,-0.55831 -0.0449,-0.53004 -0.19881,0.20744 -0.6871,0.83514 -0.66604,0.85619 0.0382,0.0382 0.57632,0.24315 0.64929,0.24726 0.046,0.003 0.0616,-0.14292 0.0616,-0.57341 z m -19.54733,2.07723 c -0.0182,-0.0968 -0.0438,-0.20405 -0.0569,-0.23823 -0.0144,-0.0376 0.0549,-0.0931 0.17549,-0.14047 0.10964,-0.0431 0.21317,-0.11434 0.23007,-0.15838 0.036,-0.0939 -0.59426,-2.41543 -0.69964,-2.57703 -0.0619,-0.0949 -0.10089,-0.10593 -0.2858,-0.0806 l -0.21412,0.0293 -0.0591,-0.23489 c -0.0325,-0.12919 -0.0414,-0.25031 -0.0196,-0.26915 0.033,-0.0286 1.77439,-0.49349 1.84861,-0.49349 0.0244,0 0.15772,0.38185 0.16127,0.46194 0.001,0.0236 -0.0736,0.0679 -0.16594,0.0986 -0.29167,0.0969 -0.29145,0.12302 0.0106,1.21964 0.15235,0.55309 0.30244,1.11033 0.33353,1.23833 0.0818,0.33684 0.14046,0.36894 0.47958,0.26253 0.38277,-0.12012 0.70846,-0.44364 0.81782,-0.81236 0.0437,-0.14729 0.0794,-0.30816 0.0794,-0.35747 0,-0.0769 0.0429,-0.0897 0.30132,-0.0897 h 0.30133 l -0.0279,0.16024 c -0.0154,0.0881 -0.043,0.42073 -0.0615,0.73909 -0.0244,0.42037 -0.0536,0.59552 -0.10692,0.63974 -0.0789,0.0654 -2.72773,0.77418 -2.90316,0.77676 -0.0823,0.001 -0.11269,-0.037 -0.13848,-0.17451 z m 14.81393,-0.73832 c -0.0407,-0.008 -0.551,-0.0982 -1.13405,-0.19929 -0.58304,-0.10112 -1.07909,-0.20047 -1.10232,-0.22077 -0.0232,-0.0203 -0.0275,-0.14444 -0.009,-0.27585 l 0.0329,-0.23893 0.2094,0.0167 c 0.13448,0.0107 0.22939,-0.007 0.26526,-0.0507 0.0307,-0.037 0.14676,-0.56587 0.25786,-1.17523 0.1111,-0.60935 0.22398,-1.17664 0.25084,-1.26064 0.0686,-0.21431 0.0171,-0.30567 -0.21057,-0.37388 l -0.19724,-0.0591 0.033,-0.24863 c 0.0181,-0.13674 0.0389,-0.25459 0.0462,-0.26187 0.0324,-0.0324 2.50247,0.4426 2.78176,0.53499 0.59331,0.19627 0.87067,0.61945 0.74616,1.13846 -0.0743,0.30968 -0.2906,0.53242 -0.61603,0.63435 l -0.24438,0.0765 0.20341,0.12923 c 0.41221,0.2619 0.5642,0.61151 0.46282,1.06454 -0.0734,0.32818 -0.32676,0.59968 -0.66798,0.71595 -0.21196,0.0722 -0.86751,0.10424 -1.10764,0.0541 z m 0.54926,-0.76055 c 0.0716,-0.0339 0.15479,-0.11572 0.18489,-0.1818 0.087,-0.19082 0.0675,-0.49718 -0.0382,-0.60291 -0.13984,-0.13984 -0.61247,-0.29914 -0.92999,-0.31345 l -0.28164,-0.0127 -0.0874,0.49306 c -0.048,0.27118 -0.0773,0.51989 -0.065,0.55268 0.0588,0.15654 0.92634,0.20295 1.21729,0.0651 z m 0.20878,-1.67552 c 0.26233,-0.0997 0.33021,-0.53594 0.11253,-0.72317 -0.11447,-0.0985 -0.99851,-0.35104 -1.04966,-0.29989 -0.0217,0.0217 -0.16588,0.80926 -0.16599,0.90685 -1.5e-4,0.12466 0.84635,0.21383 1.10312,0.11621 z m -11.40819,2.32119 c 0,-0.0508 -0.0136,-0.16026 -0.0301,-0.24315 -0.0285,-0.14232 -0.0192,-0.15367 0.1675,-0.20392 0.10871,-0.0293 0.21134,-0.0889 0.22807,-0.13252 0.0508,-0.13246 -0.27465,-2.63227 -0.35292,-2.71054 -0.0379,-0.0379 -0.15467,-0.0689 -0.25954,-0.0689 -0.18848,0 -0.19107,-0.003 -0.2243,-0.22415 -0.0185,-0.12329 -0.0194,-0.2384 -0.002,-0.25581 0.0383,-0.0383 2.88014,-0.40236 3.1647,-0.4054 l 0.20146,-0.002 0.30394,0.56373 c 0.16716,0.31004 0.30394,0.57251 0.30394,0.58324 0,0.0107 -0.11296,0.0724 -0.25101,0.13709 -0.22892,0.10722 -0.25504,0.11036 -0.29683,0.0357 -0.1106,-0.19762 -0.30928,-0.38328 -0.51862,-0.48462 -0.20664,-0.10003 -0.27041,-0.1065 -0.74651,-0.0757 -0.28631,0.0185 -0.54173,0.0467 -0.5676,0.0627 -0.0484,0.0299 -0.01,0.68981 0.0538,0.91691 0.0333,0.11922 0.0387,0.12044 0.27122,0.061 0.30006,-0.0767 0.33529,-0.11405 0.36622,-0.38845 0.025,-0.22207 0.0272,-0.22436 0.24324,-0.25676 0.11988,-0.018 0.22853,-0.0221 0.24144,-0.009 0.0293,0.0293 0.23367,1.61761 0.21067,1.63759 -0.009,0.008 -0.11889,0.0294 -0.24365,0.0475 l -0.22683,0.0329 -0.10325,-0.24844 -0.10325,-0.24845 h -0.27101 c -0.14905,0 -0.28039,0.0166 -0.29187,0.037 -0.0326,0.0578 0.14773,1.05225 0.20036,1.10488 0.0601,0.0601 0.90751,-0.0833 1.11707,-0.18908 0.2449,-0.12362 0.37131,-0.26436 0.58312,-0.64917 l 0.19927,-0.36203 0.22725,0.0338 c 0.12499,0.0186 0.23202,0.0384 0.23786,0.0439 0.0343,0.0327 -0.29761,1.44698 -0.35253,1.50213 -0.0439,0.0441 -0.60203,0.13198 -1.63739,0.2578 -1.84782,0.22454 -1.84193,0.22422 -1.84193,0.10054 z m 5.27577,-0.6462 c 0,-0.22813 0.01,-0.24762 0.13559,-0.27412 0.0746,-0.0157 0.16887,-0.0463 0.20955,-0.0679 0.10246,-0.0546 0.15688,-0.47387 0.0983,-0.75759 -0.0634,-0.307 -0.14791,-0.46023 -0.72692,-1.31732 -0.39898,-0.59061 -0.51065,-0.72314 -0.64213,-0.76211 -0.15334,-0.0455 -0.15915,-0.0567 -0.15915,-0.30817 V 5e-5 h 0.98613 0.98612 v 0.26806 c 0,0.26624 -10e-4,0.26817 -0.15984,0.28351 -0.10624,0.0103 -0.1654,0.0448 -0.17643,0.10299 -0.0163,0.086 0.52147,1.07116 0.58473,1.07116 0.0653,0 0.69358,-0.99659 0.67849,-1.0763 -0.01,-0.0526 -0.0734,-0.088 -0.17543,-0.0979 -0.15876,-0.0153 -0.15984,-0.0173 -0.15984,-0.28351 V 0 h 0.7889 0.78889 v 0.27119 c 0,0.25286 -0.008,0.27118 -0.11752,0.27118 -0.15831,0 -0.3463,0.21978 -0.94256,1.10196 l -0.49306,0.72949 -0.0171,0.46633 c -0.0192,0.5228 0.007,0.58447 0.26543,0.63302 0.16759,0.0314 0.17081,0.0367 0.17081,0.27634 v 0.2443 h -0.96147 -0.96147 z"
         id="path2826" />
    </g>
  </g>
</svg>
