<?xml version="1.0" encoding="UTF-8" ?>
<!DOCTYPE svg PUBLIC "-//W3C//DTD SVG 1.1//EN" "http://www.w3.org/Graphics/SVG/1.1/DTD/svg11.dtd">
<svg width="948pt" height="984pt" viewBox="0 0 948 984" version="1.1" xmlns="http://www.w3.org/2000/svg">
<g id="#ffffffff">
<path fill="#ffffff" opacity="1.00" d=" M 468.74 59.03 C 470.51 58.22 472.28 59.50 473.88 60.17 C 593.44 129.35 713.11 198.38 832.75 267.44 C 837.52 270.47 843.23 272.41 847.02 276.74 C 848.18 281.72 847.34 286.93 847.53 292.00 C 847.52 427.33 847.49 562.66 847.54 697.99 C 847.52 701.91 847.80 705.85 847.36 709.77 C 847.09 712.20 844.64 713.44 842.87 714.74 C 761.68 761.49 680.61 808.45 599.45 855.26 C 578.81 866.94 558.48 879.16 537.80 890.78 C 516.80 903.13 495.57 915.11 474.59 927.49 C 472.75 928.29 470.74 929.89 468.66 929.01 C 463.45 926.95 458.93 923.52 454.05 920.81 C 338.45 854.07 222.86 787.30 107.26 720.56 C 102.90 717.94 98.24 715.79 94.20 712.69 C 92.04 711.26 91.99 708.43 91.82 706.13 C 91.90 568.09 91.85 430.04 91.85 292.00 C 92.09 286.87 90.94 281.43 92.81 276.53 C 96.46 272.76 101.60 270.94 105.99 268.19 C 222.44 200.98 338.85 133.68 455.31 66.48 C 459.77 63.99 463.94 60.89 468.74 59.03 M 469.32 84.90 C 462.44 87.68 456.45 92.24 449.91 95.72 C 439.45 101.40 429.79 108.39 419.36 114.13 C 322.39 170.16 225.39 226.16 128.41 282.17 C 124.21 284.67 119.32 286.50 116.21 290.41 C 114.67 295.07 115.66 300.17 115.44 305.01 C 115.48 430.67 115.46 556.34 115.45 682.00 C 115.60 687.58 114.75 693.25 115.82 698.76 C 118.81 701.93 123.00 703.54 126.82 705.47 C 135.35 709.23 143.03 714.59 151.20 719.04 C 158.93 723.26 166.10 728.43 174.00 732.33 C 181.15 735.90 187.92 740.15 194.55 744.58 C 205.10 751.32 216.08 757.37 227.25 763.02 C 249.77 775.71 271.99 788.95 294.47 801.73 C 302.97 806.87 311.20 812.47 319.92 817.26 C 329.15 822.88 339.12 827.14 348.29 832.86 C 384.05 853.40 419.73 874.08 455.42 894.76 C 460.21 897.41 464.66 900.98 470.05 902.37 C 472.59 901.92 474.83 900.51 477.06 899.27 C 493.98 889.10 511.19 879.41 528.31 869.56 C 555.08 853.94 581.98 838.54 608.77 822.96 C 613.69 820.09 618.90 817.79 623.88 815.04 C 688.56 777.76 753.11 740.25 817.86 703.10 C 820.76 701.19 825.04 699.26 824.62 695.11 C 824.63 561.04 824.64 426.95 824.62 292.88 C 825.07 289.01 821.30 287.03 818.55 285.27 C 793.68 271.21 769.06 256.73 744.28 242.52 C 670.99 200.12 597.64 157.85 524.33 115.48 C 507.69 105.86 490.98 96.37 474.52 86.45 C 472.90 85.75 471.16 84.32 469.32 84.90 Z" />
<path fill="#ffffff" opacity="1.00" d=" M 448.52 196.13 C 456.32 195.40 464.17 195.63 472.00 195.58 C 494.83 195.22 517.56 198.61 539.77 203.66 C 572.66 211.58 604.23 225.04 632.53 243.58 C 686.50 278.64 728.80 331.45 750.62 392.05 C 758.93 414.88 764.36 438.76 766.76 462.94 C 768.84 476.53 768.36 490.30 768.36 503.99 C 768.37 514.44 766.88 524.82 765.61 535.17 C 756.93 599.95 725.89 661.47 678.98 706.99 C 654.79 731.03 626.24 750.65 595.34 765.04 C 561.69 780.79 525.00 789.59 487.99 792.14 C 476.99 792.57 465.96 792.42 454.95 792.29 C 411.49 789.88 368.46 778.34 330.06 757.75 C 275.12 728.57 229.68 681.83 202.21 626.01 C 184.04 589.35 173.76 548.88 171.72 508.05 C 171.58 498.02 171.52 487.99 171.78 477.97 C 173.80 447.41 179.79 417.02 190.74 388.37 C 212.87 329.56 254.28 278.33 306.86 243.98 C 348.96 216.22 398.29 199.88 448.52 196.13 M 453.33 218.54 C 433.62 220.07 413.93 222.87 394.93 228.49 C 342.40 243.05 294.84 274.12 259.47 315.49 C 243.03 335.32 228.93 357.16 218.44 380.72 C 204.69 411.05 196.83 443.92 194.47 477.09 C 194.28 483.39 194.32 489.70 194.31 496.00 C 193.75 526.58 199.85 557.01 209.82 585.82 C 231.47 647.58 275.91 700.98 332.77 733.40 C 366.47 752.74 404.31 764.88 443.00 768.57 C 456.61 770.31 470.37 769.60 484.05 769.61 C 520.49 767.68 556.58 758.60 589.46 742.73 C 618.06 728.95 644.36 710.29 666.57 687.57 C 716.19 637.44 745.63 567.63 745.70 497.00 C 746.28 466.65 741.40 436.25 731.93 407.42 C 720.60 372.91 702.18 340.88 678.65 313.24 C 657.69 289.50 632.96 269.02 605.31 253.50 C 572.10 234.74 534.91 223.08 496.94 219.51 C 482.48 217.72 467.86 218.23 453.33 218.54 Z" />
<path fill="#ffffff" opacity="1.00" d=" M 454.51 241.06 C 466.63 240.16 478.86 240.28 490.96 241.54 C 530.95 244.70 570.15 257.66 604.10 279.04 C 658.05 312.70 698.76 367.18 714.82 428.80 C 719.69 446.81 722.09 465.38 723.34 483.96 C 724.56 523.80 716.87 564.05 700.01 600.23 C 673.75 657.38 625.40 703.99 567.26 728.01 C 534.70 741.63 499.23 748.03 463.98 747.45 C 429.98 746.29 396.07 738.95 365.12 724.68 C 303.35 696.75 253.81 642.96 231.31 578.98 C 219.11 544.25 213.96 506.80 217.79 470.12 C 223.05 412.94 248.48 357.74 288.98 316.98 C 324.46 280.19 371.54 254.85 421.73 245.23 C 432.55 243.14 443.52 241.91 454.51 241.06 M 438.79 297.48 C 437.31 308.14 435.86 318.80 434.15 329.42 C 419.80 322.65 403.76 320.02 387.98 320.36 C 372.61 319.97 357.66 324.82 343.84 331.16 C 329.62 337.70 316.29 346.21 304.57 356.60 C 301.86 358.96 299.36 362.07 299.60 365.89 C 299.65 452.95 299.61 540.02 299.62 627.07 C 299.26 630.77 302.83 632.67 305.57 634.21 C 330.65 647.75 357.47 657.85 384.98 665.20 C 384.44 675.90 382.60 686.47 380.61 696.98 C 383.52 698.05 386.37 699.27 389.26 700.41 C 408.55 707.06 427.79 713.85 447.01 720.70 C 449.57 709.20 451.45 697.58 453.47 685.98 C 454.28 681.48 454.63 676.78 456.60 672.59 C 460.64 670.14 465.53 669.87 469.98 668.54 C 491.15 662.79 511.46 651.51 525.12 634.03 C 534.19 622.73 540.83 608.73 540.79 594.00 C 540.92 584.67 541.03 575.16 538.31 566.14 C 531.17 539.71 512.45 518.28 492.12 500.79 C 490.14 498.90 487.27 496.78 487.96 493.66 C 489.10 485.63 490.84 477.69 492.59 469.78 C 505.11 484.46 516.20 500.33 528.85 514.92 C 540.80 500.96 551.83 486.23 563.49 472.02 C 567.01 482.94 569.41 494.16 572.31 505.25 C 584.09 552.13 596.05 598.95 607.87 645.82 C 609.74 653.56 611.57 661.31 614.00 668.91 C 618.86 664.42 623.15 659.39 627.34 654.28 C 639.07 641.01 650.40 627.39 662.27 614.25 C 664.12 611.87 666.79 609.41 666.45 606.12 C 665.96 600.68 664.32 595.43 663.34 590.08 C 645.93 504.43 628.52 418.78 611.33 333.09 C 608.60 321.05 607.15 308.71 603.44 296.91 C 597.75 303.53 592.86 310.77 587.62 317.73 C 574.56 335.33 561.48 352.93 548.45 370.55 C 542.81 378.00 537.65 385.80 531.54 392.88 C 507.39 358.26 483.37 323.54 459.22 288.92 C 454.06 281.73 449.45 274.14 443.70 267.41 C 441.03 277.24 440.37 287.45 438.79 297.48 Z" />
<path fill="#ffffff" opacity="1.00" d=" M 454.78 315.43 C 458.79 320.09 462.40 325.05 465.65 330.27 C 487.59 361.47 509.07 393.00 531.18 424.08 C 537.20 417.00 542.39 409.28 548.02 401.90 C 563.42 381.34 578.40 360.47 593.97 340.04 C 602.98 382.79 611.24 425.70 620.11 468.48 C 628.90 512.30 637.77 556.12 646.73 599.91 C 646.92 601.38 647.03 602.99 646.18 604.30 C 643.67 608.31 640.15 611.55 637.08 615.12 C 632.46 620.46 628.00 625.95 623.03 630.98 C 607.57 570.48 592.35 509.92 577.01 449.38 C 575.98 443.53 574.06 437.93 571.79 432.45 C 557.28 450.13 543.46 468.38 528.77 485.89 C 517.02 470.80 505.11 455.83 493.28 440.80 C 489.69 436.05 485.94 431.43 481.88 427.08 C 477.49 445.53 475.21 464.41 471.18 482.94 C 464.50 477.59 458.07 471.95 451.91 466.00 C 457.36 457.43 462.95 448.85 466.70 439.38 C 471.60 427.18 474.71 414.12 474.69 400.93 C 474.74 391.85 475.33 382.56 472.68 373.76 C 469.68 363.49 464.72 353.54 457.04 345.96 C 454.83 343.39 451.41 340.97 451.63 337.20 C 451.97 329.86 453.72 322.68 454.78 315.43 Z" />
<path fill="#ffffff" opacity="1.00" d=" M 361.02 344.33 C 371.23 340.54 382.08 337.89 393.04 338.61 C 409.77 339.70 427.22 343.67 440.33 354.73 C 452.30 364.72 457.83 380.73 457.35 396.03 C 456.52 410.90 454.01 426.01 447.15 439.39 C 442.14 449.76 434.75 458.65 428.02 467.90 C 440.22 481.48 454.58 492.81 468.57 504.46 C 479.71 513.56 490.26 523.40 499.89 534.09 C 511.44 547.28 520.51 563.28 522.62 580.92 C 525.79 598.18 518.16 615.90 505.86 627.87 C 493.07 640.12 476.61 648.28 459.35 652.00 C 462.97 630.71 467.00 609.50 470.80 588.25 C 471.90 580.93 475.00 573.35 472.43 566.01 C 469.76 557.50 463.53 550.75 456.96 544.99 C 442.61 532.42 425.61 523.52 409.57 513.35 C 403.10 509.18 396.53 505.16 389.98 501.12 C 381.87 507.91 374.38 515.42 366.15 522.09 C 362.21 525.51 357.82 528.44 354.22 532.25 C 352.05 534.19 352.36 537.29 352.26 539.93 C 352.36 554.30 352.39 568.67 352.26 583.05 C 352.29 585.31 352.20 587.62 352.75 589.84 C 354.56 592.55 357.57 594.10 360.35 595.64 C 371.02 601.10 382.50 604.72 393.89 608.32 C 392.61 621.22 390.57 634.03 388.29 646.78 C 368.64 641.35 349.32 634.60 330.86 625.92 C 327.01 624.00 322.82 622.48 319.58 619.56 C 318.29 618.45 318.51 616.60 318.36 615.09 C 318.46 534.37 318.36 453.64 318.41 372.92 C 318.20 369.57 320.85 367.20 323.26 365.34 C 334.73 356.55 347.47 349.38 361.02 344.33 M 358.71 390.51 C 356.36 392.35 353.95 394.41 352.80 397.25 C 352.13 399.76 352.30 402.39 352.26 404.97 C 352.51 427.01 352.12 449.06 352.47 471.10 C 361.40 467.58 370.12 463.47 378.30 458.44 C 390.46 450.81 401.56 440.51 407.34 427.13 C 411.26 418.44 411.31 408.57 410.07 399.30 C 408.84 391.15 402.43 384.23 394.46 382.26 C 382.07 379.44 368.85 383.15 358.71 390.51 Z" />
<path fill="#ffffff" opacity="1.00" d=" M 370.47 404.25 C 376.58 401.56 383.22 398.05 390.06 400.16 C 391.66 400.33 391.80 402.09 392.15 403.34 C 393.17 409.54 392.52 416.16 389.58 421.79 C 385.36 430.01 378.30 436.36 370.62 441.30 C 370.34 428.95 370.63 416.60 370.47 404.25 Z" />
<path fill="#ffffff" opacity="1.00" d=" M 374.06 539.15 C 379.98 534.07 386.15 529.26 391.91 523.99 C 395.64 526.34 399.78 528.12 403.12 531.05 C 405.39 533.18 404.32 536.61 404.15 539.31 C 401.37 555.91 399.51 572.66 396.72 589.25 C 393.27 589.37 390.01 587.91 386.77 586.92 C 381.89 585.04 376.71 583.64 372.38 580.62 C 369.84 579.01 370.64 575.61 370.42 573.09 C 370.63 564.04 370.35 554.98 370.50 545.93 C 370.36 543.17 372.05 540.84 374.06 539.15 Z" />
<path fill="#ffffff" opacity="1.00" d=" M 422.63 543.25 C 431.15 548.58 439.56 554.20 447.07 560.91 C 450.06 563.81 453.42 566.87 454.42 571.08 C 454.93 575.84 453.44 580.50 452.63 585.14 C 448.20 609.39 443.82 633.66 439.42 657.92 C 436.96 670.30 435.32 682.84 432.41 695.13 C 422.11 692.13 412.10 688.28 402.05 684.58 C 404.39 664.06 408.03 643.70 410.66 623.21 C 413.07 606.56 415.57 589.92 417.87 573.26 C 419.36 563.24 420.38 553.14 422.63 543.25 Z" />
</g>
<g id="#dc4334ff">
<path fill="#dc4334" opacity="1.00" d=" M 469.30 32.62 C 471.10 32.44 472.62 33.93 474.19 34.66 C 483.67 40.70 493.62 45.95 503.37 51.52 C 517.95 60.39 532.81 68.77 547.63 77.21 C 557.79 82.56 567.85 88.12 577.49 94.37 C 583.83 98.52 590.67 101.79 597.11 105.77 C 605.19 110.79 613.58 115.28 621.76 120.12 C 637.69 130.00 654.25 138.79 670.25 148.55 C 731.34 183.32 791.93 218.93 852.91 253.88 C 857.98 256.82 863.39 259.31 867.96 263.04 C 869.58 264.13 869.85 266.11 869.89 267.92 C 869.91 413.95 869.89 559.98 869.90 706.00 C 869.82 711.28 870.24 716.58 869.72 721.85 C 869.55 724.41 866.95 725.71 865.14 727.09 C 792.80 768.77 720.51 810.56 648.23 852.35 C 617.08 870.62 585.61 888.31 554.50 906.65 C 527.99 921.73 501.72 937.24 475.32 952.50 C 473.15 953.50 470.77 955.22 468.28 954.30 C 464.46 952.96 461.13 950.57 457.65 948.55 C 332.83 876.35 207.97 804.21 83.08 732.13 C 79.16 729.75 74.87 727.82 71.51 724.64 C 70.12 723.55 70.24 721.66 70.09 720.10 C 70.11 573.40 70.11 426.70 70.09 280.00 C 70.24 274.83 69.52 269.56 70.58 264.47 C 71.87 262.43 73.99 261.12 75.99 259.86 C 108.95 241.23 141.55 221.98 174.44 203.24 C 263.66 151.39 353.11 99.95 442.45 48.31 C 449.75 43.94 456.99 39.46 464.27 35.05 C 465.88 34.13 467.50 33.14 469.30 32.62 M 468.74 59.03 C 463.94 60.89 459.77 63.99 455.31 66.48 C 338.85 133.68 222.44 200.98 105.99 268.19 C 101.60 270.94 96.46 272.76 92.81 276.53 C 90.94 281.43 92.09 286.87 91.85 292.00 C 91.85 430.04 91.90 568.09 91.82 706.13 C 91.99 708.43 92.04 711.26 94.20 712.69 C 98.24 715.79 102.90 717.94 107.26 720.56 C 222.86 787.30 338.45 854.07 454.05 920.81 C 458.93 923.52 463.45 926.95 468.66 929.01 C 470.74 929.89 472.75 928.29 474.59 927.49 C 495.57 915.11 516.80 903.13 537.80 890.78 C 558.48 879.16 578.81 866.94 599.45 855.26 C 680.61 808.45 761.68 761.49 842.87 714.74 C 844.64 713.44 847.09 712.20 847.36 709.77 C 847.80 705.85 847.52 701.91 847.54 697.99 C 847.49 562.66 847.52 427.33 847.53 292.00 C 847.34 286.93 848.18 281.72 847.02 276.74 C 843.23 272.41 837.52 270.47 832.75 267.44 C 713.11 198.38 593.44 129.35 473.88 60.17 C 472.28 59.50 470.51 58.22 468.74 59.03 Z" />
<path fill="#dc4334" opacity="1.00" d=" M 469.32 84.90 C 471.16 84.32 472.90 85.75 474.52 86.45 C 490.98 96.37 507.69 105.86 524.33 115.48 C 597.64 157.85 670.99 200.12 744.28 242.52 C 769.06 256.73 793.68 271.21 818.55 285.27 C 821.30 287.03 825.07 289.01 824.62 292.88 C 824.64 426.95 824.63 561.04 824.62 695.11 C 825.04 699.26 820.76 701.19 817.86 703.10 C 753.11 740.25 688.56 777.76 623.88 815.04 C 618.90 817.79 613.69 820.09 608.77 822.96 C 581.98 838.54 555.08 853.94 528.31 869.56 C 511.19 879.41 493.98 889.10 477.06 899.27 C 474.83 900.51 472.59 901.92 470.05 902.37 C 464.66 900.98 460.21 897.41 455.42 894.76 C 419.73 874.08 384.05 853.40 348.29 832.86 C 339.12 827.14 329.15 822.88 319.92 817.26 C 311.20 812.47 302.97 806.87 294.47 801.73 C 271.99 788.95 249.77 775.71 227.25 763.02 C 216.08 757.37 205.10 751.32 194.55 744.58 C 187.92 740.15 181.15 735.90 174.00 732.33 C 166.10 728.43 158.93 723.26 151.20 719.04 C 143.03 714.59 135.35 709.23 126.82 705.47 C 123.00 703.54 118.81 701.93 115.82 698.76 C 114.75 693.25 115.60 687.58 115.45 682.00 C 115.46 556.34 115.48 430.67 115.44 305.01 C 115.66 300.17 114.67 295.07 116.21 290.41 C 119.32 286.50 124.21 284.67 128.41 282.17 C 225.39 226.16 322.39 170.16 419.36 114.13 C 429.79 108.39 439.45 101.40 449.91 95.72 C 456.45 92.24 462.44 87.68 469.32 84.90 M 448.52 196.13 C 398.29 199.88 348.96 216.22 306.86 243.98 C 254.28 278.33 212.87 329.56 190.74 388.37 C 179.79 417.02 173.80 447.41 171.78 477.97 C 171.52 487.99 171.58 498.02 171.72 508.05 C 173.76 548.88 184.04 589.35 202.21 626.01 C 229.68 681.83 275.12 728.57 330.06 757.75 C 368.46 778.34 411.49 789.88 454.95 792.29 C 465.96 792.42 476.99 792.57 487.99 792.14 C 525.00 789.59 561.69 780.79 595.34 765.04 C 626.24 750.65 654.79 731.03 678.98 706.99 C 725.89 661.47 756.93 599.95 765.61 535.17 C 766.88 524.82 768.37 514.44 768.36 503.99 C 768.36 490.30 768.84 476.53 766.76 462.94 C 764.36 438.76 758.93 414.88 750.62 392.05 C 728.80 331.45 686.50 278.64 632.53 243.58 C 604.23 225.04 572.66 211.58 539.77 203.66 C 517.56 198.61 494.83 195.22 472.00 195.58 C 464.17 195.63 456.32 195.40 448.52 196.13 Z" />
<path fill="#dc4334" opacity="1.00" d=" M 453.33 218.54 C 467.86 218.23 482.48 217.72 496.94 219.51 C 534.91 223.08 572.10 234.74 605.31 253.50 C 632.96 269.02 657.69 289.50 678.65 313.24 C 702.18 340.88 720.60 372.91 731.93 407.42 C 741.40 436.25 746.28 466.65 745.70 497.00 C 745.63 567.63 716.19 637.44 666.57 687.57 C 644.36 710.29 618.06 728.95 589.46 742.73 C 556.58 758.60 520.49 767.68 484.05 769.61 C 470.37 769.60 456.61 770.31 443.00 768.57 C 404.31 764.88 366.47 752.74 332.77 733.40 C 275.91 700.98 231.47 647.58 209.82 585.82 C 199.85 557.01 193.75 526.58 194.31 496.00 C 194.32 489.70 194.28 483.39 194.47 477.09 C 196.83 443.92 204.69 411.05 218.44 380.72 C 228.93 357.16 243.03 335.32 259.47 315.49 C 294.84 274.12 342.40 243.05 394.93 228.49 C 413.93 222.87 433.62 220.07 453.33 218.54 M 454.51 241.06 C 443.52 241.91 432.55 243.14 421.73 245.23 C 371.54 254.85 324.46 280.19 288.98 316.98 C 248.48 357.74 223.05 412.94 217.79 470.12 C 213.96 506.80 219.11 544.25 231.31 578.98 C 253.81 642.96 303.35 696.75 365.12 724.68 C 396.07 738.95 429.98 746.29 463.98 747.45 C 499.23 748.03 534.70 741.63 567.26 728.01 C 625.40 703.99 673.75 657.38 700.01 600.23 C 716.87 564.05 724.56 523.80 723.34 483.96 C 722.09 465.38 719.69 446.81 714.82 428.80 C 698.76 367.18 658.05 312.70 604.10 279.04 C 570.15 257.66 530.95 244.70 490.96 241.54 C 478.86 240.28 466.63 240.16 454.51 241.06 Z" />
<path fill="#dc4334" opacity="1.00" d=" M 438.79 297.48 C 440.37 287.45 441.03 277.24 443.70 267.41 C 449.45 274.14 454.06 281.73 459.22 288.92 C 483.37 323.54 507.39 358.26 531.54 392.88 C 537.65 385.80 542.81 378.00 548.45 370.55 C 561.48 352.93 574.56 335.33 587.62 317.73 C 592.86 310.77 597.75 303.53 603.44 296.91 C 607.15 308.71 608.60 321.05 611.33 333.09 C 628.52 418.78 645.93 504.43 663.34 590.08 C 664.32 595.43 665.96 600.68 666.45 606.12 C 666.79 609.41 664.12 611.87 662.27 614.25 C 650.40 627.39 639.07 641.01 627.34 654.28 C 623.15 659.39 618.86 664.42 614.00 668.91 C 611.57 661.31 609.74 653.56 607.87 645.82 C 596.05 598.95 584.09 552.13 572.31 505.25 C 569.41 494.16 567.01 482.94 563.49 472.02 C 551.83 486.23 540.80 500.96 528.85 514.92 C 516.20 500.33 505.11 484.46 492.59 469.78 C 490.84 477.69 489.10 485.63 487.96 493.66 C 487.27 496.78 490.14 498.90 492.12 500.79 C 512.45 518.28 531.17 539.71 538.31 566.14 C 541.03 575.16 540.92 584.67 540.79 594.00 C 540.83 608.73 534.19 622.73 525.12 634.03 C 511.46 651.51 491.15 662.79 469.98 668.54 C 465.53 669.87 460.64 670.14 456.60 672.59 C 454.63 676.78 454.28 681.48 453.47 685.98 C 451.45 697.58 449.57 709.20 447.01 720.70 C 427.79 713.85 408.55 707.06 389.26 700.41 C 386.37 699.27 383.52 698.05 380.61 696.98 C 382.60 686.47 384.44 675.90 384.98 665.20 C 357.47 657.85 330.65 647.75 305.57 634.21 C 302.83 632.67 299.26 630.77 299.62 627.07 C 299.61 540.02 299.65 452.95 299.60 365.89 C 299.36 362.07 301.86 358.96 304.57 356.60 C 316.29 346.21 329.62 337.70 343.84 331.16 C 357.66 324.82 372.61 319.97 387.98 320.36 C 403.76 320.02 419.80 322.65 434.15 329.42 C 435.86 318.80 437.31 308.14 438.79 297.48 M 454.78 315.43 C 453.72 322.68 451.97 329.86 451.63 337.20 C 451.41 340.97 454.83 343.39 457.04 345.96 C 464.72 353.54 469.68 363.49 472.68 373.76 C 475.33 382.56 474.74 391.85 474.69 400.93 C 474.71 414.12 471.60 427.18 466.70 439.38 C 462.95 448.85 457.36 457.43 451.91 466.00 C 458.07 471.95 464.50 477.59 471.18 482.94 C 475.21 464.41 477.49 445.53 481.88 427.08 C 485.94 431.43 489.69 436.05 493.28 440.80 C 505.11 455.83 517.02 470.80 528.77 485.89 C 543.46 468.38 557.28 450.13 571.79 432.45 C 574.06 437.93 575.98 443.53 577.01 449.38 C 592.35 509.92 607.57 570.48 623.03 630.98 C 628.00 625.95 632.46 620.46 637.08 615.12 C 640.15 611.55 643.67 608.31 646.18 604.30 C 647.03 602.99 646.92 601.38 646.73 599.91 C 637.77 556.12 628.90 512.30 620.11 468.48 C 611.24 425.70 602.98 382.79 593.97 340.04 C 578.40 360.47 563.42 381.34 548.02 401.90 C 542.39 409.28 537.20 417.00 531.18 424.08 C 509.07 393.00 487.59 361.47 465.65 330.27 C 462.40 325.05 458.79 320.09 454.78 315.43 M 361.02 344.33 C 347.47 349.38 334.73 356.55 323.26 365.34 C 320.85 367.20 318.20 369.57 318.41 372.92 C 318.36 453.64 318.46 534.37 318.36 615.09 C 318.51 616.60 318.29 618.45 319.58 619.56 C 322.82 622.48 327.01 624.00 330.86 625.92 C 349.32 634.60 368.64 641.35 388.29 646.78 C 390.57 634.03 392.61 621.22 393.89 608.32 C 382.50 604.72 371.02 601.10 360.35 595.64 C 357.57 594.10 354.56 592.55 352.75 589.84 C 352.20 587.62 352.29 585.31 352.26 583.05 C 352.39 568.67 352.36 554.30 352.26 539.93 C 352.36 537.29 352.05 534.19 354.22 532.25 C 357.82 528.44 362.21 525.51 366.15 522.09 C 374.38 515.42 381.87 507.91 389.98 501.12 C 396.53 505.16 403.10 509.18 409.57 513.35 C 425.61 523.52 442.61 532.42 456.96 544.99 C 463.53 550.75 469.76 557.50 472.43 566.01 C 475.00 573.35 471.90 580.93 470.80 588.25 C 467.00 609.50 462.97 630.71 459.35 652.00 C 476.61 648.28 493.07 640.12 505.86 627.87 C 518.16 615.90 525.79 598.18 522.62 580.92 C 520.51 563.28 511.44 547.28 499.89 534.09 C 490.26 523.40 479.71 513.56 468.57 504.46 C 454.58 492.81 440.22 481.48 428.02 467.90 C 434.75 458.65 442.14 449.76 447.15 439.39 C 454.01 426.01 456.52 410.90 457.35 396.03 C 457.83 380.73 452.30 364.72 440.33 354.73 C 427.22 343.67 409.77 339.70 393.04 338.61 C 382.08 337.89 371.23 340.54 361.02 344.33 M 374.06 539.15 C 372.05 540.84 370.36 543.17 370.50 545.93 C 370.35 554.98 370.63 564.04 370.42 573.09 C 370.64 575.61 369.84 579.01 372.38 580.62 C 376.71 583.64 381.89 585.04 386.77 586.92 C 390.01 587.91 393.27 589.37 396.72 589.25 C 399.51 572.66 401.37 555.91 404.15 539.31 C 404.32 536.61 405.39 533.18 403.12 531.05 C 399.78 528.12 395.64 526.34 391.91 523.99 C 386.15 529.26 379.98 534.07 374.06 539.15 M 422.63 543.25 C 420.38 553.14 419.36 563.24 417.87 573.26 C 415.57 589.92 413.07 606.56 410.66 623.21 C 408.03 643.70 404.39 664.06 402.05 684.58 C 412.10 688.28 422.11 692.13 432.41 695.13 C 435.32 682.84 436.96 670.30 439.42 657.92 C 443.82 633.66 448.20 609.39 452.63 585.14 C 453.44 580.50 454.93 575.84 454.42 571.08 C 453.42 566.87 450.06 563.81 447.07 560.91 C 439.56 554.20 431.15 548.58 422.63 543.25 Z" />
<path fill="#dc4334" opacity="1.00" d=" M 358.71 390.51 C 368.85 383.15 382.07 379.44 394.46 382.26 C 402.43 384.23 408.84 391.15 410.07 399.30 C 411.31 408.57 411.26 418.44 407.34 427.13 C 401.56 440.51 390.46 450.81 378.30 458.44 C 370.12 463.47 361.40 467.58 352.47 471.10 C 352.12 449.06 352.51 427.01 352.26 404.97 C 352.30 402.39 352.13 399.76 352.80 397.25 C 353.95 394.41 356.36 392.35 358.71 390.51 M 370.47 404.25 C 370.63 416.60 370.34 428.95 370.62 441.30 C 378.30 436.36 385.36 430.01 389.58 421.79 C 392.52 416.16 393.17 409.54 392.15 403.34 C 391.80 402.09 391.66 400.33 390.06 400.16 C 383.22 398.05 376.58 401.56 370.47 404.25 Z" />
</g>
</svg>
