<?xml version="1.0" encoding="UTF-8"?>
<svg width="256px" height="256px" viewBox="0 0 256 256" version="1.1" xmlns="http://www.w3.org/2000/svg" xmlns:xlink="http://www.w3.org/1999/xlink">
    <!-- Generator: Sketch 50.2 (55047) - http://www.bohemiancoding.com/sketch -->
    <title>logo/marienlyst</title>
    <desc>Created with Sketch.</desc>
    <defs></defs>
    <g id="logo/marienlyst" stroke="none" stroke-width="1" fill="none" fill-rule="evenodd">
        <g id="marienlyst" transform="translate(17.000000, 0.000000)" fill-rule="nonzero">
            <g id="#ffffffff" transform="translate(6.097378, 7.211268)" fill="#FFFFFF">
                <path d="M104.691985,0.28567714 C105.182547,0.0610184182 105.673109,0.41603467 106.116554,0.601863489 C139.253034,19.7893824 172.42,38.9352979 205.578652,58.0895341 C206.900674,58.9299242 208.483221,59.4679957 209.533633,60.6689491 C209.855131,62.0501842 209.622322,63.4952113 209.674981,64.9014085 C209.67221,102.436056 209.663895,139.970704 209.677753,177.505352 C209.67221,178.592589 209.749813,179.685374 209.627865,180.772611 C209.553034,181.446587 208.874007,181.790509 208.383446,182.151073 C185.881348,195.117486 163.412509,208.142145 140.918727,221.1252 C135.198277,224.364724 129.563745,227.75402 123.83221,230.976901 C118.011985,234.402254 112.128015,237.724984 106.313333,241.158657 C105.803371,241.380542 105.246292,241.824312 104.669813,241.580238 C103.225843,241.008884 101.973109,240.057551 100.620599,239.305915 C68.5816479,220.795146 36.5454682,202.276056 4.50651685,183.765287 C3.29812734,183.038613 2.00659176,182.442297 0.886891386,181.582492 C0.2882397,181.185872 0.274382022,180.400953 0.227265918,179.763034 C0.249438202,141.47675 0.235580524,103.187692 0.235580524,64.9014085 C0.302097378,63.4785699 -0.0166292135,61.9697508 0.50164794,60.6107042 C1.51325843,59.5650704 2.93782772,59.0602817 4.15453184,58.2975515 C36.4290637,39.6564247 68.6925094,20.9903359 100.969813,2.35198267 C102.205918,1.66136511 103.361648,0.80156013 104.691985,0.28567714 Z M104.852734,7.46088841 C102.945918,8.23193933 101.285768,9.49668472 99.4731835,10.4618852 C96.5741573,12.0372698 93.8968539,13.9759913 91.0061423,15.5680173 C64.1305618,31.108299 37.2466667,46.64026 10.3683146,62.1749946 C9.20426966,62.8683857 7.84898876,63.375948 6.9870412,64.4604117 C6.56022472,65.7528927 6.83460674,67.1674106 6.77363296,68.5098158 C6.7847191,103.362427 6.77917603,138.217811 6.77640449,173.070423 C6.81797753,174.618072 6.582397,176.190683 6.87895131,177.718917 C7.70764045,178.598137 8.86891386,179.04468 9.92764045,179.579978 C12.2917603,180.622839 14.4202996,182.109469 16.6846442,183.343705 C18.8270412,184.51415 20.8142322,185.948082 23.0037453,187.029772 C24.9853933,188.019935 26.8617228,189.1987 28.6992509,190.427389 C31.623221,192.296771 34.666367,193.974778 37.7621723,195.541842 C44.0036704,199.061495 50.1620225,202.733694 56.3924345,206.27831 C58.7482397,207.703922 61.0292135,209.257118 63.4459925,210.585655 C66.0041199,212.144399 68.7673408,213.325937 71.308839,214.912416 C81.2198502,220.609317 91.1086891,226.345049 101.0003,232.08078 C102.327865,232.815775 103.561199,233.805937 105.055056,234.191463 C105.759026,234.066652 106.37985,233.67558 106.997903,233.331658 C111.687341,230.510943 116.457154,227.823359 121.202022,225.091398 C128.621423,220.75909 136.076854,216.487801 143.501798,212.166587 C144.865393,211.370574 146.309363,210.732654 147.689588,209.969924 C165.61588,199.630076 183.506142,189.226436 201.451835,178.922644 C202.255581,178.392893 203.441798,177.857595 203.325393,176.706566 C203.328165,139.521387 203.330936,102.330661 203.325393,65.1454821 C203.450112,64.0721127 202.405243,63.5229469 201.643071,63.0347996 C194.750262,59.1351679 187.926742,55.1190466 181.058876,51.1778115 C160.746292,39.4178982 140.417079,27.6940412 120.098951,15.9424485 C115.487116,13.2742795 110.85588,10.6421668 106.293933,7.8907909 C105.844944,7.69664139 105.362697,7.30002167 104.852734,7.46088841 Z" id="Shape"></path>
                <path d="M99.0879401,38.3112459 C101.249738,38.1087757 103.425393,38.1725677 105.595506,38.1586999 C111.922921,38.0588516 118.222622,38.9990899 124.378202,40.39974 C133.493783,42.596403 142.243521,46.3296208 150.086966,51.4718093 C165.044944,61.1959263 176.768539,75.8431203 182.81603,92.6509209 C185.119176,98.9829686 186.62412,105.606241 187.289288,112.312719 C187.865768,116.081993 187.732734,119.901192 187.732734,123.698202 C187.735506,126.596576 187.322547,129.475536 186.970562,132.346176 C184.564869,150.313326 175.962022,167.376295 162.960749,180.00156 C156.256404,186.669209 148.34367,192.110943 139.779625,196.102102 C130.453408,200.470466 120.284644,202.911203 110.027191,203.618462 C106.978502,203.737725 103.921498,203.696121 100.870037,203.660065 C88.8249438,202.991636 76.8990262,199.790943 66.2563296,194.080173 C51.0295131,185.986912 38.4356554,173.023272 30.8222472,157.541235 C25.786367,147.373348 22.9372285,136.148732 22.3718352,124.824269 C22.3330337,122.042384 22.3164045,119.260498 22.3884644,116.481387 C22.9483146,108.005374 24.6084644,99.5765114 27.6432959,91.6302492 C33.7767041,75.3189166 45.253633,61.1099458 59.826367,51.5827519 C71.4945318,43.8833369 85.1665169,39.3513326 99.0879401,38.3112459 Z M100.421049,44.5268039 C94.9583521,44.9511593 89.5011985,45.7277573 84.2352809,47.2865005 C69.6764045,51.3248104 56.4949813,59.9422752 46.6920599,71.4165114 C42.1356554,76.9164897 38.2277903,82.9739545 35.3204494,89.5084724 C31.509588,97.9206934 29.331161,107.0374 28.6770787,116.237313 C28.6244195,117.984659 28.6355056,119.734778 28.6327341,121.482124 C28.4775281,129.963684 30.1681648,138.40364 32.9313858,146.39428 C38.9317603,163.523814 51.2484644,178.334648 67.0074157,187.326544 C76.3474906,192.690618 86.8349813,196.057725 97.5580524,197.08117 C101.330112,197.56377 105.143745,197.366847 108.935206,197.369621 C119.034682,196.834323 129.037154,194.315926 138.149963,189.91428 C146.076554,186.092308 153.365693,180.916836 159.521273,174.615298 C173.273633,160.711419 181.433034,141.349166 181.452434,121.75948 C181.613184,113.341712 180.260674,104.910076 177.63603,96.9138895 C174.49588,87.3423185 169.390712,78.4585915 162.869288,70.7924594 C157.06015,64.2080173 150.206142,58.5277573 142.542846,54.2231853 C133.338577,49.0199783 123.031236,45.7860022 112.507715,44.7958397 C108.500075,44.2993716 104.44809,44.4408234 100.421049,44.5268039 Z" id="Shape"></path>
                <path d="M100.74809,50.7728711 C104.107191,50.5232503 107.496779,50.556533 110.850337,50.9060022 C121.933708,51.7824485 132.798127,55.3769881 142.207491,61.3068689 C157.159925,70.6426869 168.442846,85.7530661 172.893933,102.84377 C174.24367,107.83896 174.908839,112.989469 175.255281,118.142752 C175.593408,129.192633 173.462097,140.35623 168.789288,150.390986 C161.511236,166.241907 148.110861,179.169491 131.997154,185.831593 C122.973034,189.609187 113.142397,191.384269 103.372734,191.223402 C93.9495131,190.901668 84.551236,188.865872 75.9733333,184.907996 C58.8535581,177.16143 45.1233708,162.242427 38.8874157,144.497161 C35.5061423,134.864572 34.0788015,124.477573 35.1402996,114.304139 C36.5981273,98.4448971 43.6461423,83.1348212 54.8708614,71.8297725 C64.7042697,61.6258288 77.7526592,54.5976165 91.6629963,51.9294475 C94.6617978,51.3497725 97.7021723,51.0086241 100.74809,50.7728711 Z M96.391236,66.4213218 C95.9810487,69.3779415 95.579176,72.3345612 95.1052434,75.2800867 C91.1280899,73.4023835 86.6825468,72.6729361 82.3090637,72.7672373 C78.0492135,72.6590683 73.9057678,74.004247 70.0755056,75.7626869 C66.134382,77.576598 62.4399251,79.9369014 59.1916854,82.8186349 C58.4405993,83.4731961 57.7477154,84.3357746 57.8142322,85.3952763 C57.8280899,109.541928 57.8170037,133.691354 57.8197753,157.835233 C57.72,158.861452 58.7094382,159.388429 59.468839,159.815558 C66.4198502,163.570964 73.8531086,166.372264 81.477603,168.410834 C81.3279401,171.378548 80.8179775,174.310206 80.2664419,177.225222 C81.0729588,177.521993 81.8628464,177.860368 82.6638202,178.176555 C88.0101124,180.020975 93.3425468,181.904225 98.6694382,183.804117 C99.3789513,180.614518 99.9,177.391636 100.45985,174.174301 C100.684345,172.926197 100.781348,171.622622 101.327341,170.460498 C102.447041,169.780975 103.802322,169.706089 105.035655,169.337205 C110.902996,167.742405 116.531985,164.613824 120.317903,159.765634 C122.831685,156.631506 124.671985,152.748516 124.660899,148.663055 C124.696929,146.07532 124.727416,143.43766 123.973558,140.935905 C121.994682,133.605374 116.806367,127.661625 111.171835,122.810661 C110.623071,122.286457 109.82764,121.698462 110.018876,120.833109 C110.334831,118.605937 110.817079,116.403727 111.302097,114.209837 C114.77206,118.28143 117.845693,122.683077 121.351685,126.729707 C124.66367,122.857811 127.720674,118.772351 130.952285,114.831116 C131.927865,117.859848 132.593034,120.971788 133.396779,124.047671 C136.661648,137.050141 139.976404,150.03597 143.25236,163.035666 C143.770637,165.182405 144.277828,167.331918 144.951311,169.439827 C146.298277,168.194496 147.487266,166.799393 148.648539,165.382102 C151.899551,161.701582 155.0397,157.923987 158.329513,154.279523 C158.842247,153.619415 159.582247,152.937118 159.488015,152.024615 C159.35221,150.515796 158.897678,149.059675 158.626067,147.575818 C153.800824,123.820238 148.975581,100.064659 144.211311,76.2979848 C143.454682,72.9586132 143.052809,69.5360347 142.024569,66.2632286 C140.447566,68.0993283 139.092285,70.1073889 137.64,72.0377898 C134.020375,76.9192633 130.395206,81.8007367 126.783895,86.6877573 C125.220749,88.7540628 123.790637,90.9174431 122.097228,92.8811268 C115.40397,83.2790466 108.746742,73.6492308 102.053483,64.0471506 C100.623371,62.0529577 99.3456929,59.9478223 97.7520599,58.0812134 C97.0120599,60.8076273 96.8291386,63.6394366 96.391236,66.4213218 Z" id="Shape"></path>
                <path d="M100.822921,71.39987 C101.934307,72.692351 102.934831,74.068039 103.835581,75.5158397 C109.91633,84.1693608 115.869588,92.9144095 121.997453,101.534648 C123.665918,99.5709642 125.104345,97.4297725 126.664719,95.3828819 C130.932884,89.6804334 135.084644,83.8920043 139.399925,78.2256121 C141.897079,90.0826002 144.186367,101.983965 146.644719,113.849274 C149.080899,126.003034 151.539251,138.156793 154.022547,150.302232 C154.075206,150.709946 154.105693,151.15649 153.870112,151.519827 C153.174457,152.632026 152.198876,153.530661 151.348015,154.520823 C150.067566,156.001907 148.831461,157.524594 147.454007,158.919697 C143.169213,142.139632 138.950936,125.342925 134.699401,108.551766 C134.413933,106.929231 133.881798,105.376035 133.252659,103.856121 C129.231161,108.759783 125.400899,113.821538 121.329513,118.67805 C118.072959,114.492741 114.77206,110.340715 111.493333,106.172048 C110.498352,104.854605 109.459026,103.573218 108.333783,102.366717 C107.117079,107.483944 106.485169,112.720433 105.36824,117.859848 C103.516854,116.375991 101.734757,114.811701 100.027491,113.16143 C101.537978,110.784485 103.087266,108.404767 104.126592,105.778202 C105.484644,102.394453 106.346592,98.7721777 106.341049,95.1138462 C106.354906,92.5954496 106.518427,90.0188082 105.78397,87.5780715 C104.952509,84.7296208 103.577828,81.9699242 101.449288,79.8675623 C100.836779,79.1547562 99.8889139,78.4835536 99.9498876,77.4379198 C100.04412,75.4021235 100.529139,73.4107042 100.822921,71.39987 Z" id="Shape"></path>
                <path d="M74.8370037,79.4154713 C77.6667416,78.3642904 80.6738577,77.6292958 83.7114607,77.8289924 C88.3482397,78.1313109 93.1845693,79.232416 96.8180524,82.2999783 C100.135581,85.0707692 101.66824,89.5112459 101.535206,93.7547996 C101.305169,97.8790899 100.609513,102.069946 98.7082397,105.780975 C97.3197004,108.657161 95.2715356,111.12286 93.4062921,113.688407 C96.7875655,117.454908 100.767491,120.597356 104.644869,123.828559 C107.73236,126.352503 110.65633,129.08169 113.325318,132.046631 C116.526442,135.704962 119.040225,140.142665 119.625019,145.035233 C120.503596,149.822405 118.388914,154.737161 114.979925,158.057118 C111.435131,161.454735 106.873184,163.717963 102.089513,164.749729 C103.092809,158.84481 104.209738,152.96208 105.262921,147.068256 C105.56779,145.038007 106.426966,142.935645 105.714682,140.899848 C104.974682,138.539545 103.248015,136.667389 101.427116,135.069816 C97.4499625,131.583445 92.7383521,129.114973 88.292809,126.294258 C86.4996255,125.137681 84.6787266,124.022709 82.8633708,122.902189 C80.6156554,124.785439 78.5397753,126.868386 76.2588015,128.718353 C75.1668165,129.666912 73.9501124,130.479567 72.9523596,131.536295 C72.3509363,132.074366 72.4368539,132.934171 72.4091386,133.666392 C72.4368539,137.652004 72.4451685,141.637616 72.4091386,145.626002 C72.4174532,146.252828 72.3925094,146.893521 72.5449438,147.509252 C73.0465918,148.260888 73.880824,148.690791 74.6513109,149.11792 C77.6085393,150.632286 80.7902622,151.636316 83.9470412,152.6348 C83.5922846,156.212698 83.0268914,159.765634 82.3949813,163.301928 C76.9489139,161.795883 71.5943071,159.923727 66.4780524,157.516273 C65.4110112,156.983749 64.2497378,156.562167 63.3517603,155.752286 C62.9942322,155.44442 63.055206,154.931311 63.013633,154.512503 C63.0413483,132.12429 63.013633,109.733304 63.0274906,87.3450921 C62.9692884,86.415948 63.7037453,85.7586132 64.3716854,85.2427302 C67.5506367,82.8047671 71.081573,80.8161213 74.8370037,79.4154713 Z M74.196779,92.223792 C73.5454682,92.7341278 72.8775281,93.3054821 72.5588015,94.0931744 C72.3731086,94.7893391 72.4202247,95.5187866 72.4091386,96.2343662 C72.478427,102.347302 72.3703371,108.463012 72.4673408,114.575948 C74.9423221,113.599653 77.3591011,112.459718 79.6262172,111.064615 C82.9964045,108.948386 86.072809,106.091614 87.6747566,102.380585 C88.7611985,99.9703575 88.7750562,97.2328494 88.4313858,94.6617551 C88.0904869,92.4013001 86.3139326,90.4819935 84.1050187,89.9356013 C80.6710861,89.1534561 77.0071161,90.1824485 74.196779,92.223792 Z" id="Shape"></path>
                <path d="M77.4561049,96.0346696 C79.1495131,95.2885807 80.9898127,94.3150596 82.8855431,94.9002817 C83.3289888,94.9474323 83.3677903,95.4355796 83.464794,95.7822752 C83.7474906,97.5018852 83.5673408,99.3379848 82.7525094,100.899502 C81.5829213,103.179372 79.6262172,104.940585 77.4976779,106.310726 C77.4200749,102.885374 77.5004494,99.4600217 77.4561049,96.0346696 Z" id="Shape"></path>
                <path d="M78.4510861,133.450054 C80.0918352,132.041083 81.8018727,130.706999 83.3982772,129.24533 C84.4320599,129.897118 85.5794757,130.390813 86.5051685,131.203467 C87.1343071,131.794236 86.8377528,132.745569 86.7906367,133.494431 C86.0201498,138.098548 85.5046442,142.744269 84.7313858,147.345612 C83.775206,147.378895 82.8716854,146.973954 81.9737079,146.699372 C80.6211985,146.177941 79.1855431,145.789642 77.9854682,144.952026 C77.2814981,144.505482 77.503221,143.56247 77.4422472,142.863532 C77.5004494,140.353456 77.4228464,137.840607 77.4644195,135.330531 C77.425618,134.565027 77.8940075,133.918787 78.4510861,133.450054 Z" id="Shape"></path>
                <path d="M91.9124345,134.587216 C94.2737828,136.065525 96.6046442,137.624269 98.6860674,139.48533 C99.5147566,140.289664 100.445993,141.138375 100.723146,142.306046 C100.864494,143.626262 100.451536,144.918743 100.227041,146.205677 C98.9992509,152.931571 97.7853184,159.663012 96.5658427,166.391679 C95.8840449,169.825352 95.4295131,173.303402 94.6229963,176.712113 C91.7683146,175.880043 88.9940075,174.812221 86.2086142,173.786002 C86.8571536,168.094648 87.8659925,162.447671 88.5949064,156.764637 C89.2628464,152.146652 89.9557303,147.531441 90.5931835,142.910683 C91.0061423,140.131571 91.288839,137.330271 91.9124345,134.587216 Z" id="Shape"></path>
            </g>
            <g id="#dc4334ff" fill="#DC4334">
                <path d="M110.944569,0.171960997 C111.443446,0.122036836 111.864719,0.535297941 112.29985,0.737768147 C114.927266,2.41300108 117.684944,3.86912243 120.387191,5.41399783 C124.42809,7.87414951 128.546592,10.1983965 132.654007,12.5392849 C135.469888,14.0231419 138.258052,15.5652438 140.929813,17.2987216 C142.686966,18.4497508 144.582697,19.3567064 146.367566,20.460585 C148.606966,21.8529144 150.932285,23.0982449 153.199401,24.4406501 C157.614457,27.1809317 162.20412,29.6188949 166.638577,32.3258938 C183.569888,41.9695775 200.362622,51.8462405 217.263446,61.5398483 C218.668614,62.3552763 220.168015,63.0458938 221.434607,64.0804334 C221.883596,64.3827519 221.958427,64.9319177 221.969513,65.4339328 C221.975056,105.936295 221.969513,146.438657 221.972285,186.938245 C221.950112,188.402687 222.066517,189.872676 221.922397,191.334345 C221.875281,192.044377 221.154682,192.40494 220.653034,192.787692 C200.603745,204.347909 180.568315,215.938635 160.535655,227.529361 C151.902322,232.596663 143.1803,237.503099 134.558052,242.589816 C127.210712,246.772351 119.929888,251.07415 112.613034,255.306609 C112.01161,255.583965 111.351985,256.061018 110.661873,255.80585 C109.603146,255.434193 108.680225,254.771311 107.71573,254.211051 C73.1214232,234.185915 38.51603,214.177421 3.9023221,194.185569 C2.81588015,193.52546 1.62689139,192.990163 0.695655431,192.108169 C0.310411985,191.80585 0.343670412,191.281647 0.302097378,190.848971 C0.307640449,150.16078 0.307640449,109.472589 0.302097378,68.7843987 C0.343670412,67.3504659 0.14411985,65.8887974 0.437902622,64.4770531 C0.795430712,63.9112459 1.38299625,63.547909 1.93730337,63.1984399 C11.0722846,58.0312893 20.1074906,52.6921777 29.2230712,47.4945179 C53.9507116,33.1135861 78.7420974,18.8463705 103.502996,4.52368364 C105.526217,3.31163597 107.532809,2.06907909 109.550487,0.845937161 C109.996704,0.590769231 110.445693,0.316186349 110.944569,0.171960997 Z M110.789363,7.49694475 C109.459026,8.01282774 108.303296,8.87263272 107.067191,9.56325027 C74.7898876,28.2016035 42.5264419,46.8676923 10.2519101,65.5088191 C9.03520599,66.2715493 7.6106367,66.776338 6.59902622,67.8219718 C6.08074906,69.1810184 6.39947566,70.6898375 6.3329588,72.1126761 C6.3329588,110.39896 6.34681648,148.688017 6.32464419,186.974301 C6.3717603,187.612221 6.38561798,188.39714 6.98426966,188.793759 C8.10397004,189.653564 9.39550562,190.249881 10.6038951,190.976555 C42.6428464,209.487324 74.6790262,228.006414 106.717978,246.517183 C108.070487,247.268819 109.323221,248.220152 110.767191,248.791506 C111.34367,249.03558 111.900749,248.591809 112.410712,248.369924 C118.225393,244.936251 124.109363,241.613521 129.929588,238.188169 C135.661124,234.965287 141.295655,231.575991 147.016105,228.336468 C169.509888,215.353413 191.978727,202.328754 214.480824,189.36234 C214.971386,189.001777 215.650412,188.657855 215.725243,187.983879 C215.847191,186.896641 215.769588,185.803857 215.775131,184.71662 C215.761273,147.181972 215.769588,109.647324 215.77236,72.1126761 C215.7197,70.7064789 215.952509,69.2614518 215.631011,67.8802167 C214.580599,66.6792633 212.998052,66.1411918 211.67603,65.3008017 C178.517378,46.1465655 145.350412,27.0006501 112.213933,7.81313109 C111.770487,7.62730228 111.279925,7.27228602 110.789363,7.49694475 Z" id="Shape"></path>
                <path d="M110.950112,14.672156 C111.460075,14.5112893 111.942322,14.907909 112.391311,15.1020585 C116.953258,17.8534345 121.584494,20.4855471 126.19633,23.1537161 C146.514457,34.9053088 166.84367,46.6291658 187.156255,58.3890791 C194.02412,62.3303142 200.84764,66.3464355 207.740449,70.2460672 C208.502622,70.7342145 209.547491,71.2833803 209.422772,72.3567497 C209.428315,109.541928 209.425543,146.732654 209.422772,183.917833 C209.539176,185.068862 208.352959,185.60416 207.549213,186.133911 C189.603521,196.437703 171.713258,206.841343 153.786966,217.181192 C152.406742,217.943922 150.962772,218.581842 149.599176,219.377855 C142.174232,223.699068 134.718801,227.970358 127.299401,232.302665 C122.554532,235.034626 117.784719,237.72221 113.095281,240.542925 C112.477228,240.886847 111.856404,241.27792 111.152434,241.40273 C109.658577,241.017205 108.425243,240.027042 107.097678,239.292048 C97.2060674,233.556316 87.3172285,227.820585 77.4062172,222.123684 C74.8647191,220.537205 72.1014981,219.355666 69.5433708,217.796923 C67.1265918,216.468386 64.845618,214.91519 62.4898127,213.489577 C56.2594007,209.944962 50.1010487,206.272763 43.8595506,202.753109 C40.7637453,201.186046 37.7205993,199.508039 34.7966292,197.638657 C32.9591011,196.409967 31.0827715,195.231203 29.1011236,194.24104 C26.9116105,193.15935 24.9244195,191.725417 22.7820225,190.554973 C20.5176779,189.320737 18.3891386,187.834106 16.0250187,186.791246 C14.9662921,186.255948 13.8050187,185.809404 12.9763296,184.930184 C12.6797753,183.40195 12.9153558,181.829339 12.8737828,180.28169 C12.8765543,145.429079 12.8820974,110.573694 12.8710112,75.7210834 C12.931985,74.3786782 12.657603,72.9641603 13.0844195,71.6716793 C13.946367,70.5872156 15.3016479,70.0796533 16.4656929,69.3862622 C43.3440449,53.8515276 70.2279401,38.3195666 97.1035206,22.7792849 C99.9942322,21.1872589 102.671536,19.2485374 105.570562,17.6731528 C107.383146,16.7079523 109.043296,15.4432069 110.950112,14.672156 Z M105.185318,45.5225135 C91.2638951,46.5626002 77.5919101,51.0946046 65.9237453,58.7940195 C51.3510112,68.3212134 39.8740824,82.5301842 33.7406742,98.8415168 C30.7058427,106.787779 29.0456929,115.216641 28.4858427,123.692654 C28.4137828,126.471766 28.430412,129.253651 28.4692135,132.035536 C29.0346067,143.36 31.8837453,154.584615 36.9196255,164.752503 C44.5330337,180.23454 57.1268914,193.19818 72.3537079,201.291441 C82.9964045,207.00221 94.9223221,210.202904 106.967416,210.871333 C110.018876,210.907389 113.07588,210.948992 116.124569,210.829729 C126.382022,210.12247 136.550787,207.681733 145.877004,203.313369 C154.441049,199.32221 162.353783,193.880477 169.058127,187.212828 C182.059401,174.587562 190.662247,157.524594 193.06794,139.557443 C193.419925,136.686804 193.832884,133.807844 193.830112,130.909469 C193.830112,127.112459 193.963146,123.293261 193.386667,119.523987 C192.721498,112.817508 191.216554,106.194236 188.913408,99.8621885 C182.865918,83.0543879 171.142322,68.4071939 156.184345,58.6830769 C148.340899,53.5408884 139.591161,49.8076706 130.475581,47.6110076 C124.32,46.2103575 118.0203,45.2701192 111.692884,45.3699675 C109.522772,45.3838353 107.347116,45.3200433 105.185318,45.5225135 Z" id="Shape"></path>
                <path d="M106.518427,51.7380715 C110.545468,51.652091 114.597453,51.5106392 118.605094,52.0071073 C129.128614,52.9972698 139.435955,56.2312459 148.640225,61.4344529 C156.303521,65.7390249 163.157528,71.4192849 168.966667,78.003727 C175.48809,85.6698592 180.593258,94.5535861 183.733408,104.125157 C186.358052,112.121343 187.710562,120.552979 187.549813,128.970748 C187.530412,148.560433 179.371011,167.922687 165.618652,181.826566 C159.463071,188.128104 152.173933,193.303575 144.247341,197.125547 C135.134532,201.527194 125.13206,204.04559 115.032584,204.580888 C111.241124,204.578115 107.427491,204.775038 103.655431,204.292438 C92.9323596,203.268992 82.4448689,199.901885 73.104794,194.537811 C57.3458427,185.545915 45.0291386,170.735081 39.028764,153.605547 C36.2655431,145.614908 34.5749064,137.174951 34.7301124,128.693391 C34.7328839,126.946046 34.7217978,125.195926 34.7744569,123.448581 C35.4285393,114.248667 37.6069663,105.131961 41.4178277,96.71974 C44.3251685,90.1852221 48.2330337,84.1277573 52.7894382,78.627779 C62.5923596,67.1535428 75.7737828,58.536078 90.3326592,54.4977681 C95.5985768,52.9390249 101.05573,52.1624269 106.518427,51.7380715 Z M106.845468,57.9841387 C103.799551,58.2198917 100.759176,58.5610401 97.7603745,59.1407151 C83.8500375,61.8088841 70.8016479,68.8370964 60.9682397,79.0410401 C49.7435206,90.3460888 42.6955056,105.656165 41.2376779,121.515406 C40.1761798,131.688841 41.6035206,142.07584 44.984794,151.708429 C51.2207491,169.453694 64.9509363,184.372698 82.0707116,192.119263 C90.6486142,196.07714 100.046891,198.112936 109.470112,198.43467 C119.239775,198.595536 129.070412,196.820455 138.094532,193.04286 C154.20824,186.380758 167.608614,173.453174 174.886667,157.602254 C179.559476,147.567497 181.690787,136.4039 181.352659,125.35402 C181.006217,120.200737 180.341049,115.050228 178.991311,110.055038 C174.540225,92.9643337 163.257303,77.8539545 148.304869,68.5181365 C138.895506,62.5882557 128.031086,58.9937161 116.947715,58.1172698 C113.594157,57.7678007 110.204569,57.7345179 106.845468,57.9841387 Z" id="Shape"></path>
                <path d="M102.488614,73.6325894 C102.926517,70.8507042 103.109438,68.0188949 103.849438,65.292481 C105.443071,67.1590899 106.720749,69.2642254 108.150861,71.2584182 C114.84412,80.8604984 121.501348,90.4903142 128.194607,100.092394 C129.888015,98.1287107 131.318127,95.9653304 132.881273,93.8990249 C136.492584,89.0120043 140.117753,84.1305309 143.737378,79.2490574 C145.189663,77.3186566 146.544944,75.3105959 148.121948,73.4744962 C149.150187,76.7473023 149.55206,80.1698808 150.308689,83.5092524 C155.072959,107.275926 159.898202,131.031506 164.723446,154.787086 C164.995056,156.270943 165.449588,157.727064 165.585393,159.235883 C165.679625,160.148386 164.939625,160.830683 164.426891,161.490791 C161.137079,165.135255 157.996929,168.912849 154.745918,172.593369 C153.584644,174.010661 152.395655,175.405764 151.048689,176.651094 C150.375206,174.543185 149.868015,172.393673 149.349738,170.246934 C146.073783,157.247237 142.759026,144.261408 139.494157,131.258938 C138.690412,128.183055 138.025243,125.071116 137.049663,122.042384 C133.818052,125.983619 130.761049,130.069079 127.449064,133.940975 C123.943071,129.894345 120.869438,125.492698 117.399476,121.421105 C116.914457,123.614995 116.43221,125.817205 116.116255,128.044377 C115.925019,128.909729 116.720449,129.497725 117.269213,130.021928 C122.903745,134.872893 128.09206,140.816641 130.070936,148.147172 C130.824794,150.648927 130.794307,153.286587 130.758277,155.874323 C130.769363,159.959783 128.929064,163.842774 126.415281,166.976901 C122.629363,171.825092 117.000375,174.953673 111.133034,176.548472 C109.8997,176.917356 108.544419,176.992243 107.424719,177.671766 C106.878727,178.833889 106.781723,180.137465 106.557228,181.385569 C105.997378,184.602904 105.47633,187.825785 104.766816,191.015385 C99.4399251,189.115493 94.1074906,187.232243 88.7611985,185.387822 C87.9602247,185.071636 87.1703371,184.733261 86.3638202,184.43649 C86.9153558,181.521473 87.4253184,178.589816 87.5749813,175.622102 C79.9504869,173.583532 72.5172285,170.782232 65.5662172,167.026826 C64.8068165,166.599697 63.8173783,166.072719 63.9171536,165.046501 C63.914382,140.902622 63.9254682,116.753196 63.9116105,92.6065439 C63.8450936,91.5470423 64.5379775,90.6844637 65.2890637,90.0299025 C68.5373034,87.148169 72.2317603,84.7878657 76.1728839,82.9739545 C80.0031461,81.2155146 84.1465918,79.8703359 88.4064419,79.9785049 C92.7799251,79.8842037 97.2254682,80.6136511 101.202622,82.4913543 C101.676554,79.5458288 102.078427,76.5892091 102.488614,73.6325894 Z M106.9203,78.6111376 C106.626517,80.6219718 106.141498,82.6133911 106.047266,84.6491874 C105.986292,85.6948212 106.934157,86.3660238 107.546667,87.0788299 C109.675206,89.1811918 111.049888,91.9408884 111.881348,94.7893391 C112.615805,97.2300758 112.452285,99.8067172 112.438427,102.325114 C112.44397,105.983445 111.582022,109.60572 110.22397,112.989469 C109.184644,115.616035 107.635356,117.995753 106.124869,120.372698 C107.832135,122.022969 109.614232,123.587259 111.465618,125.071116 C112.582547,119.931701 113.214457,114.695211 114.431161,109.577985 C115.556404,110.784485 116.59573,112.065872 117.590712,113.383315 C120.869438,117.551983 124.170337,121.704009 127.426891,125.889317 C131.498277,121.032806 135.328539,115.971051 139.350037,111.067389 C139.979176,112.587302 140.511311,114.140498 140.796779,115.763034 C145.048315,132.554193 149.266592,149.350899 153.551386,166.130964 C154.928839,164.735861 156.164944,163.213174 157.445393,161.732091 C158.296255,160.741928 159.271835,159.843294 159.967491,158.731094 C160.203071,158.367757 160.172584,157.921213 160.119925,157.513499 C157.636629,145.368061 155.178277,133.214301 152.742097,121.060542 C150.283745,109.195233 147.994457,97.2938678 145.497303,85.4368797 C141.182022,91.1032719 137.030262,96.891701 132.762097,102.59415 C131.201723,104.64104 129.763296,106.782232 128.094831,108.745915 C121.966966,100.125677 116.013708,91.3806284 109.932959,82.7271073 C109.03221,81.2793066 108.031685,79.9036186 106.9203,78.6111376 Z M80.934382,86.6267389 C77.1789513,88.0273889 73.648015,90.0160347 70.4690637,92.4539978 C69.8011236,92.9698808 69.0666667,93.6272156 69.1248689,94.5563597 C69.1110112,116.944572 69.1387266,139.335558 69.1110112,161.72377 C69.1525843,162.142579 69.0916105,162.655688 69.4491386,162.963554 C70.3471161,163.773434 71.5083895,164.195016 72.5754307,164.727541 C77.6916854,167.134995 83.0462921,169.007151 88.4923596,170.513196 C89.1242697,166.976901 89.6896629,163.423965 90.0444195,159.846067 C86.8876404,158.847584 83.7059176,157.843554 80.7486891,156.329187 C79.9782022,155.902059 79.14397,155.472156 78.6423221,154.72052 C78.4898876,154.104789 78.5148315,153.464095 78.5065169,152.83727 C78.5425468,148.848884 78.5342322,144.863272 78.5065169,140.87766 C78.5342322,140.145439 78.4483146,139.285634 79.0497378,138.747562 C80.0474906,137.690834 81.2641948,136.87818 82.3561798,135.929621 C84.6371536,134.079653 86.7130337,131.996706 88.9607491,130.113456 C90.7761049,131.233976 92.5970037,132.348949 94.3901873,133.505525 C98.8357303,136.326241 103.547341,138.794713 107.524494,142.281083 C109.345393,143.878657 111.07206,145.750813 111.81206,148.111116 C112.524345,150.146912 111.665169,152.249274 111.3603,154.279523 C110.307116,160.173348 109.190187,166.056078 108.186891,171.960997 C112.970562,170.929231 117.532509,168.666002 121.077303,165.268386 C124.486292,161.948429 126.600974,157.033673 125.722397,152.246501 C125.137603,147.353933 122.62382,142.91623 119.422697,139.257898 C116.753708,136.292958 113.829738,133.56377 110.742247,131.039827 C106.864869,127.808624 102.884944,124.666176 99.5036704,120.899675 C101.368914,118.334128 103.417079,115.868429 104.805618,112.992243 C106.706891,109.281213 107.402547,105.090358 107.632584,100.966067 C107.765618,96.7225135 106.232959,92.2820368 102.915431,89.5112459 C99.2819476,86.4436836 94.445618,85.3425785 89.808839,85.04026 C86.771236,84.8405634 83.7641199,85.575558 80.934382,86.6267389 Z M84.5484644,140.661322 C83.9913858,141.130054 83.5229963,141.776295 83.5617978,142.541798 C83.5202247,145.051874 83.5978277,147.564724 83.5396255,150.0748 C83.6005993,150.773738 83.3788764,151.71675 84.0828464,152.163294 C85.2829213,153.00091 86.7185768,153.389209 88.0710861,153.910639 C88.9690637,154.185222 89.8725843,154.590163 90.828764,154.55688 C91.6020225,149.955536 92.1175281,145.309816 92.888015,140.705699 C92.9351311,139.956836 93.2316854,139.005504 92.6025468,138.414735 C91.6768539,137.60208 90.5294382,137.108386 89.4956554,136.456598 C87.8992509,137.918267 86.1892135,139.252351 84.5484644,140.661322 Z M98.0098127,141.798483 C97.3862172,144.541538 97.1035206,147.342839 96.6905618,150.12195 C96.0531086,154.742709 95.3602247,159.35792 94.6922846,163.975905 C93.9633708,169.658938 92.9545318,175.305915 92.3059925,180.99727 C95.0913858,182.023489 97.8656929,183.091311 100.720375,183.92338 C101.526891,180.51467 101.981423,177.03662 102.663221,173.602947 C103.882697,166.87428 105.096629,160.142839 106.324419,153.416945 C106.548914,152.130011 106.961873,150.83753 106.820524,149.517313 C106.543371,148.349642 105.612135,147.500932 104.783446,146.696598 C102.702022,144.835536 100.371161,143.276793 98.0098127,141.798483 Z" id="Shape"></path>
                <path d="M80.2941573,99.4350596 C83.1044944,97.3937161 86.7684644,96.3647237 90.202397,97.1468689 C92.4113109,97.6932611 94.1878652,99.6125677 94.528764,101.873023 C94.8724345,104.444117 94.8585768,107.181625 93.7721348,109.591853 C92.1701873,113.302882 89.0937828,116.159653 85.7235955,118.275883 C83.4564794,119.670986 81.0397004,120.810921 78.5647191,121.787216 C78.4677154,115.67428 78.5758052,109.55857 78.5065169,103.445634 C78.517603,102.730054 78.4704869,102.000607 78.6561798,101.304442 C78.9749064,100.51675 79.6428464,99.9453954 80.2941573,99.4350596 Z M83.5534831,103.245937 C83.5978277,106.671289 83.5174532,110.096641 83.5950562,113.521993 C85.7235955,112.151853 87.6802996,110.390639 88.8498876,108.110769 C89.6647191,106.549252 89.8448689,104.713153 89.5621723,102.993543 C89.4651685,102.646847 89.426367,102.1587 88.9829213,102.111549 C87.087191,101.526327 85.2468914,102.499848 83.5534831,103.245937 Z" id="Shape"></path>
            </g>
        </g>
    </g>
</svg>