<?xml version="1.0" encoding="UTF-8" ?>
<!DOCTYPE svg PUBLIC "-//W3C//DTD SVG 1.1//EN" "http://www.w3.org/Graphics/SVG/1.1/DTD/svg11.dtd">
<svg width="202pt" height="200pt" viewBox="0 0 202 200" version="1.1" xmlns="http://www.w3.org/2000/svg">
<g id="#a2daf8ff">
<path fill="#a2daf8" opacity="1.00" d=" M 108.52 0.00 L 121.47 0.00 C 126.45 1.70 131.85 2.54 136.29 5.53 C 129.64 6.78 122.75 6.93 116.36 9.35 C 107.14 12.71 97.99 16.98 90.75 23.75 C 85.74 28.40 80.56 32.96 76.43 38.44 C 68.74 48.71 61.92 59.88 58.18 72.23 C 56.63 76.31 58.88 80.23 60.70 83.76 C 48.71 82.30 37.32 77.84 26.31 73.05 C 30.88 71.95 33.12 67.72 34.66 63.68 C 43.65 41.14 59.93 21.08 81.43 9.48 C 89.89 4.88 99.25 2.38 108.52 0.00 Z" />
<path fill="#a2daf8" opacity="1.00" d=" M 46.32 13.34 C 53.15 9.40 60.09 5.25 67.97 3.86 C 61.14 8.40 53.75 12.13 47.55 17.57 C 35.01 28.54 24.87 42.51 19.12 58.19 C 17.65 61.71 17.99 65.56 18.64 69.22 C 14.25 67.10 9.44 66.15 4.67 65.36 C 11.97 43.90 26.91 25.08 46.32 13.34 Z" />
</g>
<g id="#a50e7fff">
<path fill="#a50e7f" opacity="1.00" d=" M 121.21 40.19 C 133.01 30.99 147.63 23.36 163.02 24.93 C 169.16 25.24 173.81 29.66 177.38 34.24 C 174.54 37.68 170.45 39.69 167.39 42.89 C 167.89 43.21 168.88 43.86 169.37 44.18 C 164.53 44.75 159.96 47.15 157.87 51.76 C 157.35 50.60 156.86 49.44 156.38 48.27 C 155.04 50.85 153.49 53.43 150.92 54.94 C 146.61 57.59 144.08 62.16 140.00 65.08 C 137.64 66.86 135.55 68.95 133.61 71.17 C 134.02 71.71 134.42 72.24 134.83 72.78 C 126.73 77.67 119.71 86.03 119.82 95.93 C 118.62 95.76 117.43 95.59 116.23 95.41 C 114.23 92.98 112.40 90.04 109.28 88.95 C 102.32 86.39 94.82 87.16 87.57 86.88 C 88.41 83.23 89.56 79.63 91.38 76.34 C 98.88 62.54 108.92 50.02 121.21 40.19 Z" />
</g>
<g id="#e4017cff">
<path fill="#e4017c" opacity="1.00" d=" M 177.38 34.24 C 192.88 52.70 201.50 76.88 200.75 101.01 C 200.63 107.52 200.61 114.21 198.24 120.39 C 197.49 113.23 198.32 105.98 197.26 98.84 C 195.29 85.34 190.55 72.26 183.39 60.64 C 179.59 54.51 175.53 48.19 169.37 44.18 C 168.88 43.86 167.89 43.21 167.39 42.89 C 170.45 39.69 174.54 37.68 177.38 34.24 Z" />
<path fill="#e4017c" opacity="1.00" d=" M 156.38 48.27 C 156.86 49.44 157.35 50.60 157.87 51.76 C 159.58 55.63 161.86 59.22 164.49 62.53 C 175.47 76.70 182.71 93.68 185.52 111.38 C 187.91 128.25 186.18 146.05 178.39 161.38 C 175.20 167.29 170.15 171.92 164.86 175.92 C 164.40 175.84 163.49 175.67 163.03 175.59 C 169.98 163.05 171.74 148.22 170.55 134.10 C 169.21 122.46 165.21 111.27 160.24 100.71 C 155.69 91.72 150.36 82.94 143.19 75.78 C 141.03 73.47 137.73 73.31 134.83 72.78 C 134.42 72.24 134.02 71.71 133.61 71.17 C 135.55 68.95 137.64 66.86 140.00 65.08 C 144.08 62.16 146.61 57.59 150.92 54.94 C 153.49 53.43 155.04 50.85 156.38 48.27 Z" />
</g>
<g id="#afca04ff">
<path fill="#afca04" opacity="1.00" d=" M 3.99 82.02 C 1.07 76.77 2.31 70.54 4.67 65.36 C 9.44 66.15 14.25 67.10 18.64 69.22 C 21.21 70.45 23.72 71.83 26.31 73.05 C 37.32 77.84 48.71 82.30 60.70 83.76 C 68.99 87.06 77.99 86.09 86.70 86.83 C 85.54 97.87 91.28 107.67 96.37 116.95 C 96.02 117.41 95.33 118.34 94.98 118.80 C 89.02 117.93 83.01 117.42 76.99 117.65 C 65.79 117.82 54.73 115.26 44.08 112.00 C 27.95 106.94 11.97 97.47 3.99 82.02 Z" />
</g>
<g id="#812823ff">
<path fill="#812823" opacity="1.00" d=" M 87.57 86.88 C 94.82 87.16 102.32 86.39 109.28 88.95 C 112.40 90.04 114.23 92.98 116.23 95.41 C 112.11 100.54 108.85 106.41 103.87 110.80 C 101.42 113.00 99.00 115.23 96.68 117.57 L 96.37 116.95 C 91.28 107.67 85.54 97.87 86.70 86.83 L 87.57 86.88 Z" />
</g>
<g id="#db020dff">
<path fill="#db020d" opacity="1.00" d=" M 103.87 110.80 C 108.85 106.41 112.11 100.54 116.23 95.41 C 117.43 95.59 118.62 95.76 119.82 95.93 C 121.99 100.12 124.26 104.26 126.64 108.33 C 137.57 127.84 143.60 150.75 139.95 173.09 C 138.53 180.48 135.56 187.82 130.31 193.33 C 127.60 196.22 123.63 197.19 120.01 198.40 C 118.89 198.08 117.80 197.69 116.74 197.22 C 114.88 193.39 114.79 189.01 114.43 184.84 C 114.13 178.12 113.20 171.45 112.31 164.78 C 110.85 155.31 108.65 145.92 105.26 136.94 C 102.84 130.30 99.69 123.96 96.68 117.57 C 99.00 115.23 101.42 113.00 103.87 110.80 Z" />
</g>
<g id="#fbea02ff">
<path fill="#fbea02" opacity="1.00" d=" M 0.00 113.51 C 4.80 120.38 9.89 127.29 16.80 132.20 C 22.85 136.54 28.61 141.57 35.71 144.13 C 41.62 146.28 47.82 147.41 53.92 148.84 C 63.13 150.97 72.64 150.66 82.02 150.66 C 88.15 150.52 94.46 150.34 100.25 148.12 C 104.70 146.45 104.63 140.88 105.26 136.94 C 108.65 145.92 110.85 155.31 112.31 164.78 C 112.48 167.51 112.38 170.24 112.26 172.97 C 106.12 172.06 99.97 172.82 93.91 173.93 C 76.60 175.68 59.23 171.70 42.99 165.93 C 34.86 163.16 28.32 157.41 21.29 152.70 C 15.23 148.86 10.88 143.09 6.79 137.33 C 3.14 132.24 2.31 125.87 0.00 120.18 L 0.00 113.51 Z" />
<path fill="#fbea02" opacity="1.00" d=" M 37.74 177.78 C 39.84 178.45 41.92 179.19 43.94 180.10 C 58.82 187.29 75.42 191.21 91.99 190.46 C 99.65 190.13 108.50 190.64 114.43 184.84 C 114.79 189.01 114.88 193.39 116.74 197.22 C 117.80 197.69 118.89 198.08 120.01 198.40 C 118.44 198.91 116.89 199.48 115.32 200.00 L 84.71 200.00 C 68.20 194.93 50.19 190.60 37.74 177.78 Z" />
</g>
</svg>
