<?xml version="1.0" encoding="UTF-8"?>
<svg width="256px" height="256px" viewBox="0 0 256 256" version="1.1" xmlns="http://www.w3.org/2000/svg" xmlns:xlink="http://www.w3.org/1999/xlink">
    <!-- Generator: Sketch 50.2 (55047) - http://www.bohemiancoding.com/sketch -->
    <title>logo/molde</title>
    <desc>Created with Sketch.</desc>
    <defs></defs>
    <g id="logo/molde" stroke="none" stroke-width="1" fill="none" fill-rule="evenodd">
        <g id="molde" fill-rule="nonzero">
            <g id="#a2daf8ff" transform="translate(5.094527, 0.000000)" fill="#A2DAF8">
                <path d="M133.12,0 L149.613532,0 C155.956219,2.176 162.833831,3.2512 168.488756,7.0784 C160.019104,8.6784 151.243781,8.8704 143.105274,11.968 C131.362388,16.2688 119.708657,21.7344 110.487562,30.4 C104.106667,36.352 97.5092537,42.1888 92.2491542,49.2032 C82.4549254,62.3488 73.7687562,76.6464 69.0053731,92.4544 C67.0312438,97.6768 69.8969154,102.6944 72.2149254,107.2128 C56.9440796,105.344 42.4374129,99.6352 28.4147264,93.504 C34.2352239,92.096 37.0881592,86.6816 39.0495522,81.5104 C50.4995025,52.6592 71.2342289,26.9824 98.6173134,12.1344 C109.392239,6.2464 121.313433,3.0464 133.12,0 Z" id="Shape"></path>
                <path d="M53.9000995,17.0752 C62.599005,12.032 71.43801,6.72 81.4742289,4.9408 C72.7753234,10.752 63.3631841,15.5264 55.4666667,22.4896 C39.4953234,36.5312 26.5806965,54.4128 19.2573134,74.4832 C17.3850746,78.9888 17.8181095,83.9168 18.6459701,88.6016 C13.0547264,85.888 6.92855721,84.672 0.853333333,83.6608 C10.1508458,56.192 29.1789055,32.1024 53.9000995,17.0752 Z" id="Shape"></path>
            </g>
            <g id="#a50e7fff" transform="translate(110.805970, 30.720000)" fill="#A50E7F">
                <path d="M43.5709453,20.7232 C58.599801,8.9472 77.2202985,-0.8192 96.8214925,1.1904 C104.641592,1.5872 110.56398,7.2448 115.110846,13.1072 C111.493731,17.5104 106.284577,20.0832 102.387264,24.1792 C103.02408,24.5888 104.284975,25.4208 104.909055,25.8304 C98.7446766,26.56 92.9241791,29.632 90.2622886,35.5328 C89.6,34.048 88.9759204,32.5632 88.3645771,31.0656 C86.6579104,34.368 84.6837811,37.6704 81.4105473,39.6032 C75.921194,42.9952 72.6989055,48.8448 67.5024876,52.5824 C64.4967164,54.8608 61.8348259,57.536 59.3639801,60.3776 C59.8861692,61.0688 60.3956219,61.7472 60.9178109,62.4384 C50.601393,68.6976 41.6604975,79.3984 41.800597,92.0704 C40.2722388,91.8528 38.7566169,91.6352 37.2282587,91.4048 C34.680995,88.2944 32.3502488,84.5312 28.3765174,83.136 C19.5120398,79.8592 9.959801,80.8448 0.725970149,80.4864 C1.7958209,75.8144 3.26049751,71.2064 5.57850746,66.9952 C15.1307463,49.3312 27.91801,33.3056 43.5709453,20.7232 Z" id="Shape"></path>
            </g>
            <g id="#e4017cff" transform="translate(169.393035, 43.520000)" fill="#E4017C">
                <path d="M56.5237811,0.3072 C76.2650746,23.936 87.2437811,54.8864 86.2885572,85.7728 C86.1357214,94.1056 86.1102488,102.6688 83.0917413,110.5792 C82.1365174,101.4144 83.1936318,92.1344 81.8435821,82.9952 C79.3345274,65.7152 73.2975124,48.9728 64.1783085,34.0992 C59.3385075,26.2528 54.1675622,18.1632 46.32199,13.0304 C45.6979104,12.6208 44.4370149,11.7888 43.800199,11.3792 C47.6975124,7.2832 52.9066667,4.7104 56.5237811,0.3072 Z" id="Shape"></path>
                <path d="M29.7775124,18.2656 C30.3888557,19.7632 31.0129353,21.248 31.6752239,22.7328 C33.8531343,27.6864 36.7570149,32.2816 40.1066667,36.5184 C54.0911443,54.656 63.3122388,76.3904 66.8911443,99.0464 C69.9351244,120.64 67.7317413,143.424 57.8101493,163.0464 C53.7472637,170.6112 47.3154229,176.5376 40.5779104,181.6576 C39.9920398,181.5552 38.8330348,181.3376 38.2471642,181.2352 C47.0989055,165.184 49.3404975,146.2016 47.8248756,128.128 C46.118209,113.2288 41.0236816,98.9056 34.6937313,85.3888 C28.8987065,73.8816 22.1102488,62.6432 12.9783085,53.4784 C10.2272637,50.5216 6.02427861,50.3168 2.33074627,49.6384 C1.80855721,48.9472 1.29910448,48.2688 0.776915423,47.5776 C3.24776119,44.736 5.90965174,42.0608 8.91542289,39.7824 C14.1118408,36.0448 17.3341294,30.1952 22.8234826,26.8032 C26.0967164,24.8704 28.0708458,21.568 29.7775124,18.2656 Z" id="Shape"></path>
            </g>
            <g id="#afca04ff" transform="translate(2.547264, 83.200000)" fill="#AFCA04">
                <path d="M2.53452736,21.7856 C-1.18447761,15.0656 0.394825871,7.0912 3.40059701,0.4608 C9.4758209,1.472 15.60199,2.688 21.1932338,5.4016 C24.4664677,6.976 27.6632836,8.7424 30.96199,10.304 C44.9846766,16.4352 59.4913433,22.144 74.7621891,24.0128 C85.320597,28.2368 96.7832836,26.9952 107.876617,27.9424 C106.399204,42.0736 113.709851,54.6176 120.192637,66.496 C119.746866,67.0848 118.86806,68.2752 118.422289,68.864 C110.831443,67.7504 103.176915,67.0976 95.5096517,67.392 C81.2449751,67.6096 67.158607,64.3328 53.5944279,60.16 C33.0507463,53.6832 12.6981095,41.5616 2.53452736,21.7856 Z" id="Shape"></path>
            </g>
            <g id="#812823ff" transform="translate(109.532338, 110.080000)" fill="#812823">
                <path d="M1.99960199,1.1264 C11.2334328,1.4848 20.7856716,0.4992 29.6501493,3.776 C33.6238806,5.1712 35.9546269,8.9344 38.5018905,12.0448 C33.2545274,18.6112 29.1024876,26.1248 22.759801,31.744 C19.639403,34.56 16.5572139,37.4144 13.6023881,40.4096 L13.2075622,39.616 C6.72477612,27.7376 -0.585870647,15.1936 0.891542289,1.0624 L1.99960199,1.1264 Z" id="Shape"></path>
            </g>
            <g id="#db020dff" transform="translate(122.268657, 121.600000)" fill="#DB020D">
                <path d="M10.0234826,20.224 C16.3661692,14.6048 20.518209,7.0912 25.7655721,0.5248 C27.2939303,0.7552 28.8095522,0.9728 30.3379104,1.1904 C33.1016915,6.5536 35.9928358,11.8528 39.0240796,17.0624 C52.9448756,42.0352 60.6248756,71.36 55.9761194,99.9552 C54.1675622,109.4144 50.3848756,118.8096 43.6983085,125.8624 C40.2467662,129.5616 35.1904478,130.8032 30.5799005,132.352 C29.1534328,131.9424 27.7651741,131.4432 26.4151244,130.8416 C24.0461692,125.9392 23.9315423,120.3328 23.4730348,114.9952 C23.0909453,106.3936 21.9064677,97.856 20.7729353,89.3184 C18.9134328,77.1968 16.1114428,65.1776 11.7938308,53.6832 C8.71164179,45.184 4.69970149,37.0688 0.866069652,28.8896 C3.82089552,25.8944 6.90308458,23.04 10.0234826,20.224 Z" id="Shape"></path>
            </g>
            <g id="#fbea02ff" transform="translate(0.000000, 144.640000)" fill="#FBEA02">
                <path d="M0,0.6528 C6.11343284,9.4464 12.5962189,18.2912 21.3970149,24.576 C29.1024876,30.1312 36.438607,36.5696 45.481393,39.8464 C53.0085572,42.5984 60.9050746,44.0448 68.6742289,45.8752 C80.4043781,48.6016 92.5166169,48.2048 104.463284,48.2048 C112.270647,48.0256 120.307264,47.7952 127.681592,44.9536 C133.349254,42.816 133.2601,35.6864 134.062488,30.6432 C138.3801,42.1376 141.18209,54.1568 143.041592,66.2784 C143.258109,69.7728 143.130746,73.2672 142.97791,76.7616 C135.157811,75.5968 127.324975,76.5696 119.606766,77.9904 C97.560199,80.2304 75.4372139,75.136 54.7534328,67.7504 C44.398806,64.2048 36.0692537,56.8448 27.1156219,50.816 C19.3974129,45.9008 13.8571144,38.5152 8.6479602,31.1424 C3.99920398,24.6272 2.94208955,16.4736 0,9.1904 L0,0.6528 Z" id="Shape"></path>
                <path d="M48.0668657,82.9184 C50.7414925,83.776 53.3906468,84.7232 55.9633831,85.888 C74.9150249,95.0912 96.0573134,100.1088 117.161393,99.1488 C126.917413,98.7264 138.189055,99.3792 145.741692,91.9552 C146.200199,97.2928 146.314826,102.8992 148.683781,107.8016 C150.033831,108.4032 151.42209,108.9024 152.848557,109.312 C150.848955,109.9648 148.874826,110.6944 146.875224,111.36 L107.889353,111.36 C86.8616915,104.8704 63.9235821,99.328 48.0668657,82.9184 Z" id="Shape"></path>
            </g>
        </g>
    </g>
</svg>