<?xml version="1.0" encoding="UTF-8"?>
<svg width="256px" height="256px" viewBox="0 0 256 256" version="1.1" xmlns="http://www.w3.org/2000/svg" xmlns:xlink="http://www.w3.org/1999/xlink">
    <!-- Generator: Sketch 50.2 (55047) - http://www.bohemiancoding.com/sketch -->
    <title>logo/ntnui</title>
    <desc>Created with Sketch.</desc>
    <defs></defs>
    <g id="logo/ntnui" stroke="none" stroke-width="1" fill="none" fill-rule="evenodd">
        <g id="ntnui" transform="translate(0.000000, 76.000000)" fill-rule="nonzero">
            <g id="#ffff01ff" transform="translate(50.072247, 35.350877)" fill="#FFFF01">
                <path d="M0.189462555,0.248596491 C3.33589427,0.225789474 6.48909251,0.155087719 9.63101322,0.285087719 C13.4292863,5.88421053 17.1711718,11.524386 20.9423789,17.1417544 C21.0889868,17.3219298 21.2626608,17.4792982 21.4566344,17.6138596 C21.5784317,11.8414035 21.499489,6.05982456 21.494978,0.282807018 C24.6955419,0.157368421 27.9073833,0.225789474 31.1102026,0.246315789 C31.1665903,7.00631579 31.1192247,13.7663158 31.1350132,20.5263158 C31.1147137,24.6429825 31.1756123,28.7619298 31.1056916,32.8785965 C28.4081057,33.0063158 25.7037533,32.8854386 23.0061674,32.9378947 C22.5031894,32.9150877 21.9731454,33.0040351 21.494978,32.8238596 C20.4258678,31.5033333 19.6229075,29.984386 18.6079295,28.622807 C16.1291278,24.8984211 13.6210044,21.1945614 11.1399471,17.4724561 C10.6978678,16.7996491 10.2918767,16.0949123 9.74829956,15.4973684 C9.6265022,21.2903509 9.77085463,27.085614 9.67837885,32.8785965 C6.5184141,32.9698246 3.34717181,32.9584211 0.187207048,32.8831579 C0.0721762115,29.6035088 0.173674009,26.3170175 0.13984141,23.0350877 C0.13984141,16.4210526 0.137585903,9.80701754 0.13984141,3.19298246 C0.144352423,2.21 0.0969867841,1.22701754 0.189462555,0.248596491 Z" id="Shape"></path>
                <path d="M35.4272423,0.244035088 C45.5071013,0.209824561 55.5914714,0.198421053 65.6713304,0.248596491 C65.7570396,2.96719298 65.7547841,5.69947368 65.6713304,8.41807018 C62.299348,8.51614035 58.9228546,8.35421053 55.5531278,8.49561404 C55.5959824,15.3947368 55.5598943,22.2938596 55.5711718,29.1929825 C55.5508722,30.4222807 55.6275595,31.6538596 55.5238062,32.8808772 C53.7825551,32.9949123 52.0390485,32.8991228 50.2977974,32.9310526 C48.7257093,32.8991228 47.1491101,32.997193 45.581533,32.8785965 C45.5071013,24.7410526 45.5928106,16.5989474 45.5386784,8.46140351 C42.1689515,8.40438596 38.7969692,8.48877193 35.4272423,8.42263158 C35.3934097,5.69719298 35.3866432,2.96947368 35.4272423,0.244035088 Z" id="Shape"></path>
                <path d="M70.3334626,0.246315789 C73.4821498,0.214385965 76.639859,0.180175439 79.7885463,0.264561404 C83.3409692,5.57403509 86.9182026,10.8698246 90.454837,16.1907018 C90.806696,16.6878947 91.1044229,17.244386 91.6006344,17.6207018 C91.7291982,11.8459649 91.6457445,6.06210526 91.6412335,0.282807018 C94.8417974,0.157368421 98.0536388,0.225789474 101.256458,0.246315789 C101.306079,7.15684211 101.260969,14.0696491 101.276758,20.9824561 C101.238414,24.9873684 101.3557,28.9991228 101.218115,33.0017544 C98.0378502,32.9470175 94.8598414,33.0177193 91.6818326,32.9698246 C89.2932511,29.3777193 86.8640705,25.8129825 84.4822555,22.2185965 C82.9011454,20.0040351 81.5252863,17.6412281 79.885533,15.4745614 C79.7930573,21.274386 79.9080881,27.0787719 79.8268899,32.8785965 C76.6669251,32.9675439 73.4956828,32.9607018 70.3334626,32.8831579 C70.2184317,29.4507018 70.317674,26.0114035 70.2860969,22.5789474 C70.2860969,16.1154386 70.2838414,9.65421053 70.2860969,3.19298246 C70.2906079,2.21 70.2432423,1.22473684 70.3334626,0.246315789 Z" id="Shape"></path>
                <path d="M107.829004,0.246315789 C111.182943,0.225789474 114.543648,0.159649123 117.89533,0.282807018 C117.85022,6.80105263 117.890819,13.3192982 117.872775,19.8375439 C117.944952,21.3701754 118.129903,23.0852632 119.280211,24.2142105 C120.462097,25.564386 122.361233,25.9224561 124.066396,25.7536842 C125.773815,25.6715789 127.42259,24.6315789 128.142097,23.0464912 C128.475912,22.252807 128.717251,21.4021053 128.710485,20.5354386 C128.692441,14.6785965 128.708229,8.82175439 128.703718,2.96491228 C128.701463,2.05947368 128.663119,1.15175439 128.753339,0.248596491 C132.084722,0.202982456 135.420617,0.202982456 138.752,0.248596491 C138.867031,6.77596491 138.763278,13.3124561 138.803877,19.8421053 C138.84222,23.1035088 137.946784,26.4812281 135.822097,28.9945614 C134.563524,30.5750877 132.876405,31.7975439 131.013357,32.5433333 C128.649586,33.4191228 126.096352,33.5605263 123.601762,33.5354386 C120.159859,33.4807018 116.476617,33.3461404 113.470026,31.4463158 C111.099489,29.8589474 109.23193,27.43 108.505656,24.6292982 C108.115454,23.0624561 107.761339,21.4659649 107.801938,19.8398246 C107.824493,13.3101754 107.770361,6.77596491 107.829004,0.246315789 Z" id="Shape"></path>
                <path d="M145.895189,0.246315789 C149.226573,0.205263158 152.560211,0.198421053 155.891595,0.248596491 C156.008881,6.54789474 155.907383,12.8563158 155.941216,19.1578947 C155.909639,23.7329825 156.006626,28.3103509 155.89385,32.8831579 C152.564722,32.9629825 149.222062,32.9652632 145.892934,32.8808772 C145.780159,24.4331579 145.877145,15.9785965 145.845568,7.52631579 C145.879401,5.09964912 145.775648,2.67070175 145.895189,0.246315789 Z" id="Shape"></path>
            </g>
            <g id="#018001ff" transform="translate(122.699559, 6.385965)" fill="#018001">
                <path d="M20.7867489,6.45210526 C35.3302555,0.985263158 51.1323348,-0.684210526 66.5442115,0.665964912 C80.4832423,1.93859649 94.3658855,5.88192982 106.299771,13.4082456 C111.01378,16.4780702 115.416529,20.1066667 118.991507,24.4947368 C121.612405,27.8085965 123.897233,31.4577193 125.246026,35.4968421 C126.93089,40.1973684 127.330115,45.3335088 126.603841,50.264386 C125.70615,56.2375439 122.884511,61.7636842 119.153903,66.4254386 C118.429885,67.4380702 117.457762,68.2294737 116.7157,69.2261404 C116.194678,69.9057895 115.560881,70.4805263 114.893251,71.0050877 C111.158132,74.5652632 106.890714,77.5301754 102.395489,80.0252632 C100.796335,80.8485965 99.1904141,81.6582456 97.5822379,82.465614 C87.5971101,87.0361404 76.7774449,89.5882456 65.8765815,90.5119298 C63.6255859,90.785614 61.3520352,90.7012281 59.0965286,90.9110526 C50.7962643,91.0478947 42.4711894,90.3385965 34.3378326,88.6280702 C26.272141,86.8787719 18.3508018,84.2057895 11.0880705,80.2168421 C11.2842996,79.9978947 11.4782731,79.774386 11.7286344,79.6147368 C13.3458326,78.4652632 14.8051454,77.112807 16.3095683,75.8196491 C17.2185374,76.0545614 18.0147313,76.5745614 18.8740793,76.9394737 C29.1952775,81.5214035 40.4322115,83.6789474 51.6443348,84.3198246 C55.1042819,84.3996491 58.5687401,84.4064912 62.0309427,84.2992982 C68.777163,83.8317544 75.5166167,82.9377193 82.0598414,81.1724561 C91.0593128,78.7594737 99.844511,75.0236842 107.242573,69.2238596 C108.71993,68.1473684 109.976247,66.8085965 111.388194,65.6522807 C112.234009,64.6031579 113.174555,63.6407018 114.031648,62.6029825 C117.317921,58.5524561 119.733568,53.6512281 120.329022,48.405614 C121.034996,43.3219298 119.801233,38.1036842 117.430696,33.6129825 C115.048881,29.2249123 111.674643,25.4412281 107.801938,22.3440351 C103.058608,18.4805263 97.6296035,15.5429825 91.9976035,13.2394737 C84.7844934,10.3178947 77.1631366,8.50701754 69.462837,7.53087719 C61.2189604,6.51596491 52.8555419,6.47491228 44.6026432,7.4122807 C34.8475771,8.54122807 25.2030308,11.0705263 16.3276123,15.362807 C12.7030132,17.1805263 9.18667841,19.2650877 5.98611454,21.7807018 C5.69515419,22.0042105 5.2575859,22.1980702 4.94407048,21.9061404 C3.94488106,21.167193 2.98629075,20.3689474 1.94875771,19.6847368 C1.32623789,19.2468421 0.615753304,18.934386 0.0766872247,18.3824561 C6.18911013,13.1710526 13.3232775,9.28701754 20.7867489,6.45210526 Z" id="Shape"></path>
            </g>
            <g id="#000000ff" fill="#000000">
                <path d="M71.7860088,0.294210526 C73.4911718,0.155087719 75.2031013,0.257719298 76.9127753,0.228070175 C78.6224493,0.257719298 80.3366344,0.152807018 82.0417974,0.296491228 C82.9778326,0.478947368 83.9341674,0.472105263 84.8814802,0.385438596 C85.2288282,0.42877193 85.5761762,0.474385965 85.9257797,0.52 C86.3362819,0.811929825 86.8482819,0.805087719 87.3016388,0.61122807 C87.6692863,0.640877193 88.0391894,0.675087719 88.4090925,0.707017544 C88.740652,1.05140351 89.2346079,1.02631579 89.6293216,0.811929825 L89.8232952,0.841578947 L89.9225374,0.85754386 C90.0398238,0.875789474 90.276652,0.914561404 90.3939383,0.935087719 C90.7345198,1.22473684 91.1923877,1.25438596 91.5983789,1.09929825 C91.7562643,1.11754386 92.0697797,1.15403509 92.2254097,1.1722807 C92.4712599,1.44824561 92.850185,1.49385965 93.179489,1.34333333 C93.3351189,1.35701754 93.6486344,1.38438596 93.8042643,1.40035088 C94.0546256,1.67175439 94.4358062,1.71736842 94.7673656,1.56912281 C94.8643524,1.58508772 95.058326,1.61701754 95.1553128,1.63298246 C95.410185,1.89298246 95.7868546,1.9454386 96.1206696,1.80175439 C96.2176564,1.8154386 96.41163,1.84280702 96.5086167,1.85877193 C96.7522115,2.12789474 97.12437,2.17578947 97.449163,2.02526316 C97.5303612,2.03438596 97.6927577,2.05263158 97.7739559,2.06403509 C98.0152952,2.23736842 98.2837004,2.31491228 98.5724053,2.29894737 C98.6806696,2.28982456 98.8949427,2.27385965 99.003207,2.26473684 C99.1565815,2.55894737 99.3956652,2.63649123 99.7204581,2.50192982 C99.8219559,2.50649123 100.020441,2.51333333 100.119683,2.51789474 C100.309145,2.78473684 100.55274,2.85315789 100.854978,2.7254386 L101.021885,2.78017544 C101.276758,3.05157895 101.664705,3.08122807 101.97822,2.89421053 C102.343612,2.9945614 102.709004,3.09719298 103.074396,3.20210526 C103.24807,3.46894737 103.484899,3.54192982 103.782626,3.42333333 L103.958555,3.43473684 C104.152529,3.70385965 104.396123,3.75859649 104.687084,3.59666667 C105.036687,3.70842105 105.388546,3.81789474 105.740405,3.93192982 C106.209551,4.10070175 106.698996,4.19877193 107.18393,4.31964912 C107.470379,4.39263158 107.761339,4.46333333 108.050044,4.5477193 C108.212441,4.84192982 108.444758,4.91035088 108.74474,4.75526316 L108.88007,4.84192982 C109.008634,4.88526316 109.263507,4.97192982 109.389815,5.01526316 L109.527401,5.04491228 C109.671753,5.08824561 109.955947,5.17719298 110.098044,5.22052632 C111.094978,5.43719298 112.055824,5.78385965 113.009903,6.14192982 C113.124934,6.20807018 113.357251,6.34035088 113.472282,6.40649123 L113.654978,6.38824561 C113.781286,6.43157895 114.036159,6.51824561 114.162467,6.56157895 C115.518026,7.06789474 116.869075,7.59473684 118.18178,8.20596491 C118.308088,8.25385965 118.556194,8.35192982 118.680247,8.40210526 C121.939454,9.75 125.045286,11.4354386 128.106009,13.1892982 C130.661498,11.6977193 133.280141,10.3178947 135.959683,9.06807018 C136.085991,9.02701754 136.340863,8.94263158 136.467172,8.89929825 C137.317498,8.43175439 138.2197,8.06684211 139.126414,7.72473684 C139.250467,7.6722807 139.496317,7.56964912 139.62037,7.51719298 C140.403031,7.13175439 141.226291,6.83754386 142.065339,6.59807018 C142.187137,6.54105263 142.428476,6.42701754 142.550273,6.37 C143.953198,5.86824561 145.356123,5.35052632 146.799648,4.97649123 C146.925956,4.92631579 147.176317,4.83052632 147.302626,4.78035088 L147.487577,4.8077193 C147.607119,4.74614035 147.846203,4.62070175 147.963489,4.55912281 C148.322115,4.47701754 148.678485,4.38350877 149.043877,4.31736842 C149.179207,4.27175439 149.454379,4.18280702 149.589709,4.13947368 C149.937057,4.0322807 150.284405,3.92964912 150.636264,3.82929825 C150.924969,3.98438596 151.168564,3.92964912 151.364793,3.66508772 L151.542978,3.64912281 C151.840705,3.7677193 152.079789,3.69473684 152.262485,3.43017544 L152.445181,3.41877193 C152.742907,3.53964912 152.981991,3.46666667 153.166943,3.20210526 L153.347383,3.19526316 C153.642855,3.31614035 153.879683,3.23859649 154.053357,2.96719298 C154.490925,2.86912281 154.930749,2.77789474 155.372828,2.69350877 C155.6683,2.8554386 155.905128,2.79385965 156.085568,2.50649123 C156.595313,2.39245614 157.111824,2.30122807 157.632846,2.23280702 C157.926062,2.39017544 158.169656,2.3354386 158.368141,2.06631579 C158.465128,2.05719298 158.661357,2.04122807 158.758344,2.03210526 C159.085392,2.17578947 159.459806,2.12105263 159.716934,1.85877193 C159.813921,1.84736842 160.01015,1.8245614 160.107137,1.81315789 C160.427419,1.9545614 160.666502,1.87701754 160.826643,1.58736842 C160.986784,1.58736842 161.309322,1.58736842 161.469463,1.58964912 C161.798767,1.71508772 162.173181,1.65578947 162.419031,1.38666667 C162.574661,1.37070175 162.888176,1.33877193 163.043806,1.32508772 C163.364088,1.48473684 163.745269,1.44596491 163.997885,1.17684211 C164.155771,1.15859649 164.467031,1.12210526 164.624916,1.10157895 C165.012863,1.25894737 165.454943,1.23157895 165.793269,0.964736842 C166.081974,0.932807018 166.370678,0.900877193 166.663894,0.868947368 C167.045075,1.0354386 167.48941,1.01263158 167.820969,0.734385965 C168.188617,0.697894737 168.55852,0.661403509 168.930678,0.624912281 C169.384035,0.807368421 169.898291,0.807368421 170.304282,0.504035088 C170.65163,0.456140351 170.998978,0.408245614 171.350837,0.364912281 C172.291383,0.48122807 173.243207,0.46754386 174.176987,0.294210526 C175.961093,0.155087719 177.751965,0.257719298 179.538326,0.228070175 C181.171313,0.257719298 182.811066,0.157368421 184.441797,0.296491228 C185.380088,0.492631579 186.338678,0.460701754 187.288247,0.376315789 C187.543119,0.419649123 187.797991,0.465263158 188.057374,0.510877193 C188.695683,0.661403509 189.34978,0.659122807 190.001621,0.629473684 C190.148229,0.659122807 190.441445,0.718421053 190.590308,0.748070175 C191.000811,1.01947368 191.501533,1.0354386 191.959401,0.864385965 C192.24585,0.889473684 192.534555,0.916842105 192.827771,0.946491228 C193.06911,1.22017544 193.450291,1.26578947 193.779595,1.11070175 C193.935225,1.13122807 194.24874,1.1722807 194.40437,1.19280702 C194.740441,1.45736842 195.180264,1.48929825 195.577233,1.33421053 C195.735119,1.34561404 196.048634,1.36842105 196.20652,1.38210526 C196.384705,1.61929825 196.621533,1.69912281 196.914749,1.62157895 C197.079401,1.61017544 197.408705,1.58508772 197.573357,1.57140351 C197.713198,1.87245614 197.947771,1.9545614 198.272564,1.8177193 C198.353762,1.82 198.511648,1.8245614 198.59059,1.82684211 C198.883806,2.04578947 199.251454,2.11877193 199.612335,2.04122807 C200.534837,2.05263158 201.434784,2.27842105 202.318943,2.53385965 C202.55126,2.80982456 202.921163,2.87140351 203.248211,2.72315789 L203.426396,2.74368421 C203.613604,3.01052632 203.861709,3.08350877 204.168458,2.96263158 L204.337621,3.04245614 C204.619559,3.22719298 204.964652,3.20666667 205.287189,3.14964912 C205.909709,3.29789474 206.532229,3.46438596 207.157004,3.61491228 C207.617128,3.91140351 208.142661,4.04596491 208.686238,4.07789474 C208.970432,4.1554386 209.256881,4.23754386 209.545586,4.32192982 C209.717004,4.61157895 209.949322,4.67315789 210.247048,4.51350877 C210.772581,4.65263158 211.291348,4.8145614 211.807859,4.99701754 C211.958978,5.28210526 212.186784,5.36877193 212.493533,5.26157895 L212.68074,5.23649123 C212.802537,5.30035088 213.043877,5.42350877 213.163419,5.48508772 L213.359648,5.4645614 C213.479189,5.52614035 213.718273,5.64929825 213.837815,5.71087719 L214.025022,5.69035088 C214.144564,5.74964912 214.383648,5.86824561 214.505445,5.92754386 C215.191119,6.11 215.865515,6.33578947 216.528634,6.59578947 C216.650432,6.65052632 216.894026,6.7622807 217.015824,6.81701754 C217.453392,6.96754386 217.893216,7.12263158 218.330784,7.2845614 C218.454837,7.33701754 218.700687,7.44192982 218.822485,7.49438596 C220.417128,8.12157895 221.984705,8.81263158 223.527471,9.56070175 C224.616881,10.0305263 225.708546,10.5049123 226.721269,11.134386 C231.04733,13.4880702 235.29896,16.0857895 239.004758,19.3677193 C239.085956,19.4201754 239.250608,19.5273684 239.334062,19.5798246 C240.17311,20.3301754 241.082079,21.0029825 241.851207,21.8331579 C243.425551,23.5163158 245.223189,24.9964912 246.549427,26.9031579 C246.659947,27.0947368 246.797533,27.2680702 246.964441,27.4231579 C248.195947,28.7847368 249.16807,30.3652632 250.171771,31.9001754 C250.219137,31.9868421 250.316123,32.1601754 250.363489,32.2468421 C250.625128,32.6414035 250.8597,33.0519298 251.082996,33.4738596 C250.981498,33.7931579 251.123595,34.2264912 251.518308,34.2082456 C251.876934,35.1250877 252.382167,35.9735088 252.871612,36.8264912 L252.900934,36.8880702 C253.153551,37.4878947 253.336247,38.1173684 253.539242,38.74 C253.593374,38.8631579 253.703894,39.107193 253.760282,39.2303509 C254.037709,39.9510526 254.279048,40.6877193 254.461744,41.4403509 C254.493322,41.5840351 254.560987,41.8714035 254.592564,42.0150877 L254.657974,42.1678947 C254.712106,42.2910526 254.822626,42.5350877 254.876758,42.6582456 C254.966978,43.0984211 255.054943,43.5385965 255.142907,43.9833333 C254.976,44.2798246 255.034643,44.5192982 255.321093,44.7040351 C255.454167,45.2194737 255.557921,45.7440351 255.634608,46.2754386 C255.42259,46.5764912 255.447401,46.9778947 255.731595,47.2264912 C255.740617,47.32 255.756405,47.5115789 255.765427,47.6050877 C255.774449,48.2847368 255.866925,48.9575439 256,49.6235088 L256,54.1484211 C255.848881,55.2226316 255.808282,56.3082456 255.715806,57.3892982 C255.657163,57.6424561 255.59852,57.895614 255.542132,58.1487719 C255.275982,58.3289474 255.203806,58.5707018 255.323348,58.8717544 C255.321093,58.9721053 255.316581,59.1750877 255.314326,59.2754386 C255.050432,59.455614 254.978256,59.6996491 255.093286,60.0052632 L255.100053,60.1854386 C254.813604,60.3610526 254.752705,60.6005263 254.917357,60.8992982 L254.824881,61.0429825 C254.782026,61.1798246 254.700828,61.4557895 254.657974,61.5949123 C254.655718,61.6998246 254.651207,61.9073684 254.646696,62.01 C254.588053,62.1354386 254.468511,62.3863158 254.409868,62.5094737 L254.430167,62.7124561 C254.367013,62.8378947 254.245216,63.0887719 254.182062,63.2142105 L254.170784,63.3966667 C253.877568,63.7136842 253.755771,64.1287719 253.77607,64.5575439 C253.629463,65.1847368 253.379101,65.7777193 253.112952,66.3592982 C253.049797,66.475614 252.928,66.7059649 252.867101,66.8222807 L252.799436,66.9636842 C252.770115,67.0594737 252.709216,67.2487719 252.677639,67.3422807 C250.771736,71.522807 248.135048,75.3407018 245.105903,78.7640351 C245.087859,78.7845614 245.051771,78.825614 245.035982,78.8461404 C244.663824,79.277193 244.287154,79.7059649 243.885674,80.1096491 C237.836405,86.2675439 230.55563,91.1345614 222.753833,94.7221053 C222.731278,94.7335088 222.686167,94.7563158 222.663612,94.7654386 C220.730643,95.6457895 218.788652,96.505614 216.781251,97.1921053 C216.657198,97.24 216.406837,97.3403509 216.282784,97.3882456 L216.097833,97.3677193 C215.985057,97.4384211 215.759507,97.5775439 215.644476,97.6459649 C215.127965,97.8170175 214.606943,97.9721053 214.08141,98.1021053 C213.941568,98.15 213.657374,98.2435088 213.517533,98.2914035 C212.852159,98.6654386 212.105586,98.8501754 211.370291,99.0189474 C211.243982,99.0714035 210.993621,99.1740351 210.867313,99.2242105 L210.680106,99.2036842 C210.382379,99.0942105 210.14104,99.167193 209.956088,99.427193 L209.804969,99.4682456 C209.36289,99.4385965 208.938855,99.5685965 208.620828,99.8787719 C208.521586,99.8833333 208.327612,99.8901754 208.22837,99.8947368 C208.102062,99.9494737 207.849445,100.058947 207.723137,100.111404 C206.999119,100.316667 206.272846,100.515088 205.526273,100.606316 C205.388687,100.65193 205.11126,100.743158 204.973674,100.791053 C204.551894,100.895965 204.127859,100.994035 203.706079,101.087544 C203.412863,100.918772 203.17378,100.971228 202.986573,101.247193 C202.111436,101.491228 201.218256,101.673684 200.316053,101.75807 C200.018326,101.605263 199.772476,101.664561 199.580758,101.935965 C199.483771,101.942807 199.289797,101.958772 199.190555,101.967895 C198.85674,101.82193 198.482326,101.876667 198.231965,102.143509 C198.132722,102.157193 197.938749,102.186842 197.839507,102.200526 C197.478626,102.05 197.079401,102.134386 196.820018,102.428596 L196.621533,102.455965 L196.51778,102.467368 L196.323806,102.478772 C195.994502,102.325965 195.516335,102.259825 195.320106,102.647544 C195.155454,102.63614 194.82615,102.615614 194.661498,102.604211 C194.33896,102.53807 194.038978,102.688596 193.748018,102.784386 C193.452546,102.818596 193.15933,102.855088 192.86837,102.89386 C192.545833,102.727368 192.162396,102.770702 191.927824,103.05807 C191.557921,103.078596 191.192529,103.101404 190.829392,103.128772 C190.441445,102.96 189.99711,102.978246 189.679084,103.270175 C189.227982,103.299825 188.779137,103.336316 188.334802,103.377368 C187.809269,103.197193 187.23637,103.169825 186.758203,103.484561 C186.176282,103.516491 185.596617,103.555263 185.019207,103.614561 C183.550872,103.571228 182.069004,103.468596 180.614203,103.70807 C179.673656,103.797018 178.728599,103.80614 177.792564,103.70807 C176.335507,103.450351 174.849128,103.589474 173.378537,103.616842 C172.893604,103.559825 172.40867,103.51193 171.925991,103.468596 C171.260617,103.340877 170.583965,103.340877 169.914079,103.420702 L169.744916,103.402456 L169.656952,103.388772 C169.483278,103.356842 169.131419,103.292982 168.957744,103.261053 C168.535965,102.980526 168.021709,102.957719 167.563841,103.147018 C167.284159,103.108246 167.008987,103.071754 166.733815,103.032982 C166.375189,102.825439 165.964687,102.786667 165.567718,102.875614 C165.267736,102.864211 164.967753,102.850526 164.672282,102.836842 C164.428687,102.549474 164.045251,102.50614 163.720458,102.656667 C163.564828,102.642982 163.253568,102.615614 163.097938,102.60193 C162.847577,102.330526 162.473163,102.282632 162.146115,102.419474 C161.985974,102.417193 161.663436,102.414912 161.503295,102.412632 C161.349921,102.141228 161.119859,102.054561 160.808599,102.152632 C160.643947,102.161754 160.312388,102.184561 160.147736,102.193684 C159.992106,101.892632 159.753022,101.812807 159.430485,101.958772 C159.333498,101.947368 159.137269,101.924561 159.040282,101.915439 C158.783154,101.646316 158.40874,101.59386 158.081692,101.742105 C157.982449,101.732982 157.783965,101.717018 157.686978,101.710175 C157.497515,101.445614 157.253921,101.372632 156.956194,101.493509 C156.856952,101.491228 156.660722,101.491228 156.563736,101.491228 C156.387806,101.217544 156.153233,101.144561 155.855507,101.27 L155.711154,101.247193 C155.467559,101.080702 155.208176,101.000877 154.933004,101.005439 C154.829251,101.014561 154.619489,101.030526 154.515736,101.037368 C154.355595,100.752281 154.118767,100.674737 153.802996,100.809298 L153.618044,100.804737 C153.437604,100.533333 153.196264,100.455789 152.896282,100.572105 L152.713586,100.578947 C152.533145,100.307544 152.294062,100.23 151.994079,100.348596 L151.811383,100.346316 C151.630943,100.074912 151.389604,100.00193 151.091877,100.125088 L150.913692,100.106842 C150.715207,99.84 150.471612,99.7852632 150.182907,99.9449123 C149.887436,99.8536842 149.59422,99.7647368 149.305515,99.6757895 C149.131841,99.3884211 148.899524,99.32 148.606308,99.472807 C147.776282,99.2698246 146.957533,99.0257895 146.143295,98.777193 C146.026009,98.7110526 145.793692,98.5787719 145.676405,98.5126316 L145.486943,98.5331579 C145.367401,98.4715789 145.128317,98.3484211 145.008775,98.2868421 L144.812546,98.3073684 C144.693004,98.2435088 144.451665,98.1203509 144.332123,98.0587719 L144.135894,98.0792982 C144.018608,98.0154386 143.779524,97.89 143.659982,97.8284211 L143.472775,97.8512281 C143.348722,97.7987719 143.098361,97.6961404 142.974308,97.6459649 C142.529974,97.4908772 142.087894,97.3335088 141.64807,97.1715789 C141.526273,97.1191228 141.280423,97.0096491 141.158626,96.957193 C139.642925,96.4098246 138.122714,95.8510526 136.692722,95.1029825 C136.56867,95.0573684 136.316053,94.9684211 136.189744,94.922807 C135.429639,94.5807018 134.674044,94.2317544 133.929727,93.8622807 C133.904916,93.8485965 133.857551,93.8235088 133.83274,93.8121053 C132.531313,93.0936842 131.184775,92.4664912 129.881093,91.757193 C129.777339,91.6750877 129.565322,91.5108772 129.461568,91.4287719 C128.942802,91.2098246 128.435313,90.8015789 127.84437,90.892807 C127.817304,90.9019298 127.763172,90.915614 127.736106,90.9247368 C127.499278,91.0342105 127.264705,91.152807 127.034643,91.2782456 C126.946678,91.3238596 126.773004,91.4105263 126.68504,91.4538596 C125.372335,92.3775439 123.8837,92.9887719 122.474009,93.7368421 C121.172581,94.4415789 119.810256,95.0117544 118.456952,95.5978947 C118.330643,95.6480702 118.082537,95.7438596 117.956229,95.7917544 C117.022449,96.2501754 116.052581,96.6287719 115.066925,96.9594737 C114.945128,97.0119298 114.699278,97.1191228 114.57748,97.1738596 C114.182767,97.3540351 113.785797,97.5342105 113.379806,97.6824561 L113.309885,97.7052632 C113.066291,97.7622807 112.822696,97.8147368 112.579101,97.867193 C112.455048,97.9196491 112.204687,98.0268421 112.080634,98.0815789 L111.884405,98.0610526 C111.760352,98.1226316 111.512247,98.2435088 111.388194,98.3050877 L111.212264,98.3119298 C110.779207,98.2549123 110.292018,98.3301754 110.061956,98.7521053 L109.872493,98.7270175 C109.577022,98.6357895 109.34696,98.7247368 109.184564,98.9984211 C108.670308,99.1831579 108.147031,99.3450877 107.619242,99.4864912 C107.323771,99.3222807 107.091454,99.3838596 106.920035,99.6757895 C106.396758,99.8445614 105.871225,100.00193 105.345692,100.161579 C105.027665,99.9973684 104.653251,100.040702 104.40289,100.307544 L104.229216,100.321228 C103.978855,100.325789 103.744282,100.39193 103.525498,100.515088 L103.354079,100.590351 C103.054097,100.453509 102.812758,100.519649 102.623295,100.788772 C102.255648,100.889123 101.890256,100.989474 101.524863,101.089825 C101.211348,100.898246 100.823401,100.948421 100.593339,101.242632 C100.153515,101.347544 99.7136916,101.447895 99.2738678,101.545965 C98.9829075,101.374912 98.7415683,101.425088 98.5475947,101.698772 C97.956652,101.82193 97.3634537,101.940526 96.7612335,101.965614 C96.4003524,101.876667 96.0304493,101.949649 95.734978,102.173158 C95.6560352,102.182281 95.5004053,102.198246 95.4237181,102.207368 C95.0989251,102.05 94.7222555,102.095614 94.4786608,102.37386 C94.381674,102.387544 94.1877004,102.417193 94.0907137,102.430877 C93.7591542,102.27807 93.3779736,102.323684 93.1276123,102.597368 C92.9719824,102.615614 92.658467,102.652105 92.502837,102.670351 C92.1081233,102.508421 91.6660441,102.53807 91.3299736,102.807193 C91.1720881,102.83 90.8563172,102.877895 90.6984317,102.900702 C90.3082291,102.736491 89.8684053,102.76614 89.5300793,103.032982 C89.2368634,103.067193 88.9459031,103.105965 88.6571982,103.149298 C88.1745198,102.964561 87.6354537,102.971404 87.2159295,103.302105 L87.04,103.35 L86.9385022,103.363684 C86.7670837,103.370526 86.4219912,103.38193 86.2505727,103.386491 C85.5964758,103.322632 84.9401233,103.336316 84.297304,103.477719 C83.6589956,103.518772 83.0206872,103.562105 82.3846344,103.619123 C81.0674185,103.596316 79.7366696,103.457193 78.4329868,103.70807 C77.494696,103.80614 76.5496388,103.797018 75.611348,103.705789 C74.2332335,103.468596 72.8303084,103.587193 71.4409163,103.616842 C70.7845639,103.557544 70.1237004,103.521053 69.4650925,103.486842 C68.9869251,103.169825 68.4140264,103.197193 67.8930044,103.377368 C67.4441586,103.336316 66.9953128,103.299825 66.5487225,103.270175 C66.226185,102.975965 65.7795947,102.96 65.3961586,103.131053 C65.028511,103.099123 64.6608634,103.067193 64.2954714,103.039825 C63.9616564,102.757018 63.5173216,102.736491 63.1271189,102.900702 C62.971489,102.882456 62.6579736,102.845965 62.5023436,102.825439 C62.2542379,102.554035 61.8820793,102.50614 61.5550308,102.642982 C61.2640705,102.63614 60.9708546,102.63614 60.6798943,102.638421 C60.5220088,102.348772 60.2851806,102.273509 59.9671542,102.417193 C59.8115242,102.405789 59.4980088,102.382982 59.3423789,102.371579 C59.0897621,102.100175 58.710837,102.05 58.381533,102.198246 C58.2845463,102.184561 58.0905727,102.154912 57.9935859,102.138947 C57.7364581,101.874386 57.3642996,101.82193 57.0349956,101.965614 C56.9380088,101.958772 56.7417797,101.942807 56.644793,101.933684 C56.4508194,101.662281 56.2072247,101.605263 55.9117533,101.75807 C55.0027841,101.678246 54.1096035,101.491228 53.234467,101.23807 C53.0021498,100.948421 52.6187137,100.898246 52.3051982,101.078421 C50.8030308,100.695263 49.2850749,100.371404 47.8054626,99.9061404 C47.6272775,99.6119298 47.3904493,99.5503509 47.0972335,99.7259649 C46.8175507,99.6187719 46.5378678,99.5184211 46.2649515,99.404386 C46.0394009,99.274386 45.7980617,99.212807 45.5409339,99.2196491 C44.6432423,99.0691228 43.7974273,98.7270175 42.9380793,98.4396491 C41.9388899,98.0861404 40.9036123,97.8238596 39.9472775,97.3540351 C39.7330044,97.2263158 39.5029427,97.1510526 39.2570925,97.1282456 C39.0540969,97.0598246 38.8533568,96.9845614 38.6571278,96.9047368 C38.5759295,96.872807 38.4112775,96.8066667 38.3300793,96.7747368 L38.1541498,96.6994737 C38.0255859,96.6538596 37.7707137,96.5603509 37.6421498,96.5147368 C36.8910661,96.222807 36.1444934,95.9149123 35.4182203,95.5636842 C35.2941674,95.5180702 35.0438062,95.4245614 34.9174978,95.3766667 C27.7201762,92.2635088 20.9739559,88.0464912 15.1051278,82.7985965 C10.0730925,78.2280702 5.80567401,72.7064912 3.10357709,66.4049123 C3.10132159,66.3045614 3.09455507,66.1015789 3.09004405,65.9989474 L2.91637004,65.887193 C2.86449339,65.8050877 2.75848458,65.6363158 2.70660793,65.5542105 L2.67728634,65.4880702 L2.61187665,65.3238596 L2.70209692,65.1231579 C2.64570925,65.0364912 2.53744493,64.8654386 2.48105727,64.7787719 C2.12919824,63.8870175 1.8427489,62.9701754 1.54953304,62.0578947 C1.69614097,61.7591228 1.63298678,61.5219298 1.35555947,61.3440351 C1.25631718,60.8992982 1.16609692,60.45 1.10519824,59.9984211 C1.14128634,59.7201754 1.0916652,59.4670175 0.949568282,59.2412281 L0.852581498,59.0929825 C1.07813216,58.7805263 0.947312775,58.3836842 0.710484581,58.1305263 C0.694696035,58.0324561 0.663118943,57.8340351 0.649585903,57.7359649 C0.798449339,57.4029825 0.753339207,57.0198246 0.484933921,56.7666667 C0.464634361,56.6070175 0.421779736,56.2877193 0.401480176,56.1280702 C0.579665198,55.662807 0.557110132,55.1496491 0.270660793,54.7368421 C0.189462555,52.8415789 0.212017621,50.9417544 0.257127753,49.0442105 C0.561621145,48.7249123 0.577409692,48.2664912 0.408246696,47.8764912 C0.435312775,47.5845614 0.460123348,47.2926316 0.484933921,47.0029825 C0.75785022,46.7498246 0.805215859,46.3575439 0.629286344,46.0359649 C0.65860793,45.9470175 0.719506608,45.7691228 0.748828194,45.6801754 C0.852581498,45.4292982 0.90445815,45.1692982 0.90445815,44.8978947 C0.913480176,44.8112281 0.929268722,44.635614 0.938290749,44.5489474 C1.09617621,44.3026316 1.1615859,44.0380702 1.13000881,43.7529825 L1.11647577,43.572807 C1.43675771,43.397193 1.49540088,43.1577193 1.29014978,42.8498246 L1.4006696,42.6947368 C1.44126872,42.5578947 1.51795595,42.2842105 1.55855507,42.1473684 C1.56081057,42.0492982 1.56532159,41.8531579 1.56757709,41.7550877 C1.63073128,41.6319298 1.75252863,41.385614 1.81568282,41.2647368 L1.79538326,41.0640351 C1.85628194,40.9431579 1.9780793,40.6991228 2.04123348,40.5782456 L2.02093392,40.3798246 C2.08408811,40.2589474 2.20814097,40.017193 2.27129515,39.8963158 L2.25099559,39.7047368 C2.29836123,39.5770175 2.39309251,39.3215789 2.44045815,39.1938596 C2.53067841,38.9794737 2.62089868,38.7650877 2.71111894,38.5552632 C2.75397357,38.4275439 2.83968282,38.1698246 2.88253744,38.0421053 C3.04718943,37.677193 3.21409692,37.3145614 3.38325991,36.9542105 C3.42837004,36.8264912 3.51859031,36.5733333 3.56595595,36.445614 C3.82985022,35.8161404 4.11178855,35.1912281 4.44785903,34.5959649 C6.26805286,31.3094737 8.38822907,28.1757895 10.8828194,25.372807 C13.1067489,23.1582456 15.2179031,20.8159649 17.6786608,18.8614035 C17.6989604,18.8431579 17.7395595,18.8112281 17.759859,18.7952632 C18.2154714,18.4349123 18.6823612,18.0950877 19.1492511,17.7552632 C19.2327048,17.702807 19.3996123,17.5978947 19.4808106,17.5454386 C20.6469075,16.5236842 21.9460793,15.6775439 23.2317181,14.8222807 C24.9256035,13.7594737 26.5946784,12.6396491 28.4013392,11.7775439 C28.4780264,11.7364912 28.6336564,11.6498246 28.7103436,11.6087719 C28.8005639,11.547193 28.9810044,11.4263158 29.0734802,11.3670175 C29.1569339,11.3191228 29.3260969,11.2210526 29.4095507,11.1731579 C31.0899031,10.1605263 32.9258855,9.46263158 34.6896916,8.62333333 C34.816,8.5777193 35.0663612,8.48649123 35.1926696,8.44087719 C35.5490396,8.26754386 35.9076652,8.09877193 36.2685463,7.9322807 C36.3948546,7.88894737 36.6474714,7.8022807 36.7760352,7.75894737 C36.9812863,7.6654386 37.188793,7.57649123 37.3962996,7.48754386 C37.5226079,7.43964912 37.7752247,7.34842105 37.8992775,7.30052632 C38.1067841,7.21157895 38.3165463,7.12263158 38.5240529,7.03596491 C38.6481057,6.98350877 38.8962115,6.87859649 39.0180088,6.82614035 C39.2976916,6.74175439 39.5751189,6.65736842 39.8570573,6.57754386 C39.9946432,6.53649123 40.269815,6.45210526 40.4074009,6.41105263 C40.4998767,6.34491228 40.6870837,6.20807018 40.7795595,6.14192982 C41.0434537,6.16929825 41.293815,6.11912281 41.5306432,5.99596491 L41.6952952,5.93666667 C41.819348,5.87508772 42.0651982,5.75649123 42.1869956,5.69491228 L42.3832247,5.7154386 C42.5027665,5.65385965 42.7418502,5.53070175 42.8613921,5.46912281 L43.0508546,5.48736842 C43.168141,5.42122807 43.3982026,5.28438596 43.5132335,5.21824561 C43.8064493,5.13614035 44.1019207,5.05631579 44.3973921,4.97877193 C44.6906079,5.12701754 44.9251806,5.05859649 45.1011101,4.78035088 C45.389815,4.68912281 45.6762643,4.60245614 45.9672247,4.51807018 C46.0957885,4.47473684 46.3506608,4.38807018 46.4792247,4.34701754 C46.8401057,4.25350877 47.1987313,4.16 47.5618678,4.07333333 C47.8573392,4.21701754 48.0896564,4.14631579 48.2565639,3.86122807 C49.4407048,3.48947368 50.6519119,3.22035088 51.8540969,2.91929825 C52.1676123,3.09719298 52.553304,3.04473684 52.7811101,2.75508772 C53.2186784,2.63192982 53.6607577,2.52473684 54.1050925,2.42438596 C54.3892863,2.60912281 54.6351366,2.56578947 54.8426432,2.30122807 C54.93963,2.28982456 55.1336035,2.26929825 55.2305903,2.26017544 C55.5576388,2.40157895 55.9343084,2.34912281 56.1869251,2.0822807 C56.2839119,2.07315789 56.480141,2.05491228 56.5771278,2.04350877 C56.8771101,2.16438596 57.1229604,2.09596491 57.3169339,1.83596491 L57.4883524,1.79035088 C57.8808106,1.9454386 58.3206344,1.90666667 58.6634714,1.64894737 C58.8191013,1.63070175 59.1326167,1.59877193 59.2905022,1.58280702 C59.6085286,1.72421053 59.8476123,1.65122807 60.0077533,1.35929825 C60.1678943,1.35701754 60.4881762,1.35701754 60.6483172,1.35701754 C60.9753656,1.48701754 61.3497797,1.43912281 61.59563,1.17 C61.8820793,1.15175439 62.1685286,1.13122807 62.454978,1.11298246 C62.7775154,1.26578947 63.1564405,1.22017544 63.3977797,0.941929825 C63.6864846,0.919122807 63.9729339,0.896315789 64.2616388,0.873508772 C64.6495859,1.03315789 65.0916652,1.00807018 65.4232247,0.734385965 C65.7705727,0.704736842 66.1201762,0.675087719 66.4697797,0.640877193 C68.2403524,0.501754386 70.0222026,0.513157895 71.7860088,0.294210526 Z M73.5114714,6.73947368 C71.2085991,6.74403509 68.9102379,6.8877193 66.6208987,7.14087719 C60.073163,7.71333333 53.5840705,8.9677193 47.2799295,10.8492982 C44.6116652,11.6931579 41.8960352,12.4115789 39.3337797,13.565614 C32.7296564,16.2317544 26.4390485,19.7850877 20.9536564,24.3784211 C16.0885286,28.5019298 11.8256211,33.4989474 9.22051101,39.3968421 C8.71753304,40.8770175 8.08599119,42.3115789 7.69127753,43.8282456 C6.68532159,47.5845614 6.24098678,51.5370175 6.78230837,55.4073684 C7.17476652,59.2366667 8.41078414,62.9382456 10.1768458,66.3364912 C10.8286872,67.34 11.076793,68.5487719 11.771489,69.527193 C12.3579207,70.5078947 13.2308018,71.2605263 13.8848987,72.1887719 C14.669815,73.2880702 15.6577269,74.2208772 16.3727225,75.3703509 C17.2794361,76.3487719 18.1838943,77.3636842 19.3251806,78.0707018 C20.9040352,79.5280702 22.5979207,80.86 24.3211278,82.137193 C24.909815,82.5978947 25.3970044,83.1977193 26.0691454,83.5466667 C27.9073833,84.4224561 29.6102907,85.5582456 31.3086872,86.6780702 C33.3521762,87.7659649 35.4294978,88.7877193 37.549674,89.7182456 C38.4631542,90.2040351 39.4645991,90.4617544 40.461533,90.7126316 C50.171489,94.4712281 60.4926872,96.5124561 70.8612511,97.0940351 C80.9298326,97.6208772 91.0841233,96.8545614 100.915877,94.5601754 C103.985621,93.9033333 106.969656,92.9135088 109.980758,92.0331579 C118.364476,89.1959649 126.409868,85.0496491 133.198943,79.2840351 C133.207965,78.5815789 132.256141,78.3557895 131.823084,77.9110526 C130.693075,76.8847368 129.299172,76.2552632 128.112775,75.3110526 C127.02111,76.0933333 125.970044,76.9349123 124.833269,77.6578947 C121.788335,79.8108772 118.459207,81.5031579 115.103013,83.0996491 C113.479048,83.7861404 111.886661,84.5935088 110.165709,85.0085965 C109.516123,85.1796491 108.992846,85.6517544 108.347771,85.8387719 C99.167859,88.9336842 89.5097797,90.5278947 79.8449339,90.7536842 C76.3082996,90.7126316 72.7581322,90.892807 69.2350308,90.502807 C66.7133744,90.3773684 64.2075066,90.0603509 61.7106608,89.7 C56.649304,88.9268421 51.5969692,87.8914035 46.765674,86.1580702 C36.8820441,82.962807 27.3344846,77.8654386 20.2634714,70.0517544 C18.6282291,67.9375439 16.9839648,65.7936842 15.8201233,63.3647368 C13.7247577,59.6608772 12.8383436,55.3298246 12.9420969,51.0877193 C13.151859,48.3485965 13.4586079,45.5 14.8254449,43.0710526 C15.4660088,41.5384211 16.2035595,40.0514035 16.9140441,38.5507018 C17.933533,36.8173684 19.1424846,35.1935088 20.493533,33.7087719 C21.691207,32.6482456 22.7986608,31.4873684 23.8564934,30.2831579 C26.8653392,27.6078947 30.194467,25.3157895 33.6927577,23.3498246 C34.6896916,22.795614 35.679859,22.207193 36.7625022,21.8377193 C39.4420441,20.8410526 41.8622026,19.24 44.6094097,18.4075439 C48.0422907,17.1554386 51.5699031,16.1929825 55.131348,15.385614 C68.2020088,12.5780702 81.7914361,12.3340351 94.9523172,14.6421053 C98.2837004,15.2601754 101.637639,15.9101754 104.815648,17.1280702 C106.435101,17.6617544 108.047789,18.2296491 109.712352,18.6036842 C112.040035,19.4315789 114.333885,20.3735088 116.548793,21.4796491 C116.95704,21.7214035 117.44874,21.5435088 117.76,21.2242105 C119.020828,20.0542105 120.347066,18.957193 121.702626,17.9012281 C121.912388,17.702807 122.255225,17.5317544 122.169515,17.182807 C120.583894,16.0652632 118.700546,15.5452632 116.990872,14.6694737 C106.20504,9.88912281 94.4989604,7.43508772 82.770326,6.78052632 C79.6825374,6.78508772 76.5947489,6.36315789 73.5114714,6.73947368 Z M143.486308,12.8380702 C136.022837,15.6729825 128.88867,19.5570175 122.776247,24.7684211 C123.315313,25.3203509 124.025797,25.632807 124.648317,26.0707018 C125.68585,26.7549123 126.644441,27.5531579 127.64363,28.2921053 C127.957145,28.5840351 128.394714,28.3901754 128.685674,28.1666667 C131.886238,25.6510526 135.402573,23.5664912 139.027172,21.7487719 C147.90259,17.4564912 157.547137,14.927193 167.302203,13.7982456 C175.555101,12.8608772 183.91852,12.9019298 192.162396,13.9168421 C199.862696,14.8929825 207.484053,16.7038596 214.697163,19.6254386 C220.329163,21.9289474 225.758167,24.8664912 230.501498,28.73 C234.374203,31.827193 237.748441,35.6108772 240.130256,39.9989474 C242.500793,44.4896491 243.734555,49.7078947 243.028581,54.7915789 C242.433128,60.037193 240.01748,64.9384211 236.731207,68.9889474 C235.874115,70.0266667 234.933568,70.9891228 234.087753,72.0382456 C232.675806,73.1945614 231.419489,74.5333333 229.942132,75.6098246 C222.54407,81.4096491 213.758872,85.1454386 204.759401,87.5584211 C198.216176,89.3236842 191.476722,90.2177193 184.730502,90.6852632 C181.2683,90.7924561 177.803841,90.785614 174.343894,90.7057895 C163.131771,90.0649123 151.894837,87.9073684 141.573639,83.3254386 C140.714291,82.9605263 139.918097,82.4405263 139.009128,82.205614 C137.504705,83.4987719 136.045392,84.8512281 134.428194,86.0007018 C134.177833,86.1603509 133.983859,86.3838596 133.78763,86.602807 C141.050361,90.5917544 148.9717,93.2647368 157.037392,95.0140351 C165.170749,96.7245614 173.495824,97.4338596 181.796088,97.2970175 C184.051595,97.087193 186.325145,97.1715789 188.576141,96.8978947 C199.477004,95.9742105 210.29667,93.4221053 220.281797,88.8515789 C221.889974,88.0442105 223.495894,87.2345614 225.095048,86.4112281 C229.590273,83.9161404 233.857692,80.9512281 237.592811,77.3910526 C238.260441,76.8664912 238.894238,76.2917544 239.41526,75.6121053 C240.157322,74.6154386 241.129445,73.8240351 241.853463,72.8114035 C245.58407,68.1496491 248.405709,62.6235088 249.303401,56.6503509 C250.029674,51.7194737 249.630449,46.5833333 247.945586,41.882807 C246.596793,37.8436842 244.311965,34.1945614 241.691066,30.8807018 C238.116088,26.4926316 233.713339,22.8640351 228.99933,19.7942105 C217.065445,12.2678947 203.182802,8.3245614 189.243771,7.05192982 C173.831894,5.70175439 158.029815,7.37122807 143.486308,12.8380702 Z M50.2617093,35.5994737 C50.1692335,36.5778947 50.2165991,37.5608772 50.2120881,38.5438596 C50.2098326,45.1578947 50.2120881,51.7719298 50.2120881,58.3859649 C50.2459207,61.6678947 50.1444229,64.954386 50.2594537,68.2340351 C53.4194185,68.3092982 56.5906608,68.3207018 59.7506256,68.2294737 C59.8431013,62.4364912 59.6987489,56.6412281 59.8205463,50.8482456 C60.3641233,51.4457895 60.7701145,52.1505263 61.2121938,52.8233333 C63.6932511,56.5454386 66.2013744,60.2492982 68.6801762,63.9736842 C69.6951542,65.3352632 70.4981145,66.8542105 71.5672247,68.1747368 C72.0453921,68.3549123 72.5754361,68.2659649 73.0784141,68.2887719 C75.776,68.2363158 78.4803524,68.357193 81.1779383,68.2294737 C81.247859,64.112807 81.1869604,59.9938596 81.2072599,55.877193 C81.1914714,49.117193 81.238837,42.357193 81.1824493,35.597193 C77.97963,35.5766667 74.7677885,35.5082456 71.5672247,35.6336842 C71.5717357,41.4107018 71.6506784,47.1922807 71.5288811,52.9647368 C71.3349075,52.8301754 71.1612335,52.672807 71.0146256,52.4926316 C67.2434185,46.8752632 63.501533,41.2350877 59.7032599,35.6359649 C56.5613392,35.5059649 53.408141,35.5766667 50.2617093,35.5994737 Z M85.499489,35.5949123 C85.4588899,38.3203509 85.4656564,41.0480702 85.499489,43.7735088 C88.8692159,43.8396491 92.2411982,43.7552632 95.6109251,43.8122807 C95.6650573,51.9498246 95.579348,60.0919298 95.6537797,68.2294737 C97.2213568,68.3480702 98.7979559,68.25 100.370044,68.2819298 C102.111295,68.25 103.854802,68.3457895 105.596053,68.2317544 C105.699806,67.0047368 105.623119,65.7731579 105.643419,64.5438596 C105.632141,57.6447368 105.668229,50.745614 105.625374,43.8464912 C108.995101,43.7050877 112.371595,43.8670175 115.743577,43.7689474 C115.827031,41.0503509 115.829286,38.3180702 115.743577,35.5994737 C105.663718,35.5492982 95.579348,35.5607018 85.499489,35.5949123 Z M120.405709,35.597193 C120.315489,36.575614 120.362855,37.5608772 120.358344,38.5438596 C120.356088,45.0050877 120.358344,51.4663158 120.358344,57.9298246 C120.389921,61.3622807 120.290678,64.8015789 120.405709,68.2340351 C123.56793,68.3115789 126.739172,68.3184211 129.899137,68.2294737 C129.980335,62.4296491 129.865304,56.6252632 129.95778,50.8254386 C131.597533,52.9921053 132.973392,55.3549123 134.554502,57.5694737 C136.936317,61.1638596 139.365498,64.7285965 141.754079,68.3207018 C144.932088,68.3685965 148.110097,68.2978947 151.290361,68.3526316 C151.427947,64.35 151.310661,60.3382456 151.349004,56.3333333 C151.333216,49.4205263 151.378326,42.5077193 151.328705,35.597193 C148.125885,35.5766667 144.914044,35.5082456 141.71348,35.6336842 C141.717991,41.4129825 141.801445,47.1968421 141.672881,52.9715789 C141.17667,52.5952632 140.878943,52.0387719 140.527084,51.5415789 C136.990449,46.2207018 133.413216,40.9249123 129.860793,35.6154386 C126.712106,35.5310526 123.554396,35.5652632 120.405709,35.597193 Z M157.901251,35.597193 C157.842608,42.1268421 157.89674,48.6610526 157.874185,55.1907018 C157.833586,56.8168421 158.1877,58.4133333 158.577903,59.9801754 C159.304176,62.7808772 161.171736,65.2098246 163.542273,66.797193 C166.548863,68.6970175 170.232106,68.8315789 173.674009,68.8863158 C176.168599,68.9114035 178.721833,68.77 181.085604,67.8942105 C182.948652,67.1484211 184.635771,65.9259649 185.894344,64.3454386 C188.019031,61.8321053 188.914467,58.454386 188.876123,55.1929825 C188.835524,48.6633333 188.939278,42.1268421 188.824247,35.5994737 C185.492863,35.5538596 182.156969,35.5538596 178.825586,35.5994737 C178.735366,36.5026316 178.773709,37.4103509 178.775965,38.3157895 C178.780476,44.1726316 178.764687,50.0294737 178.782731,55.8863158 C178.789498,56.7529825 178.548159,57.6036842 178.214344,58.3973684 C177.494837,59.9824561 175.846062,61.0224561 174.138643,61.1045614 C172.43348,61.2733333 170.534344,60.9152632 169.352458,59.5650877 C168.20215,58.4361404 168.017198,56.7210526 167.945022,55.1884211 C167.963066,48.6701754 167.922467,42.1519298 167.967577,35.6336842 C164.615894,35.5105263 161.255189,35.5766667 157.901251,35.597193 Z M195.967436,35.597193 C195.847894,38.0215789 195.951648,40.4505263 195.917815,42.877193 C195.949392,51.3294737 195.852405,59.7840351 195.965181,68.2317544 C199.294308,68.3161404 202.636969,68.3138596 205.966097,68.2340351 C206.078872,63.6612281 205.981885,59.0838596 206.013463,54.5087719 C205.97963,48.207193 206.081128,41.8987719 205.963841,35.5994737 C202.632458,35.5492982 199.298819,35.5561404 195.967436,35.597193 Z" id="Shape"></path>
            </g>
            <g id="#fd0101ff" transform="translate(6.540969, 6.385965)" fill="#FD0101">
                <path d="M66.9705022,0.353508772 C70.0537797,-0.0228070175 73.1415683,0.399122807 76.2293568,0.394561404 C87.9579912,1.04912281 99.6640705,3.50315789 110.449903,8.28350877 C112.159577,9.15929825 114.042925,9.67929825 115.628546,10.7968421 C115.714256,11.1457895 115.371419,11.3168421 115.161656,11.5152632 C113.806097,12.5712281 112.479859,13.6682456 111.219031,14.8382456 C110.907771,15.1575439 110.41607,15.3354386 110.007824,15.0936842 C107.792916,13.9875439 105.499066,13.045614 103.171383,12.2177193 C101.506819,11.8436842 99.8941322,11.2757895 98.2746784,10.7421053 C95.0966696,9.52421053 91.7427313,8.87421053 88.411348,8.25614035 C75.250467,5.94807018 61.6610396,6.19210526 48.5903789,8.99964912 C45.0289339,9.80701754 41.5013216,10.7694737 38.0684405,12.0215789 C35.3212335,12.8540351 32.9010749,14.4550877 30.221533,15.4517544 C29.1388899,15.8212281 28.1487225,16.4096491 27.1517885,16.9638596 C23.6534978,18.9298246 20.32437,21.2219298 17.3155242,23.897193 C16.2576916,25.1014035 15.1502379,26.2622807 13.9525639,27.322807 C12.6015154,28.8075439 11.3925639,30.4314035 10.3730749,32.1647368 C9.66259031,33.6654386 8.92503965,35.1524561 8.28447577,36.6850877 C6.91763877,39.1140351 6.61088987,41.9626316 6.40112775,44.7017544 C6.29737445,48.9438596 7.18378855,53.2749123 9.27915419,56.9787719 C10.4429956,59.4077193 12.0872599,61.5515789 13.7225022,63.6657895 C20.7935154,71.4794737 30.3410749,76.5768421 40.2247048,79.7721053 C45.056,81.5054386 50.1083348,82.5408772 55.1696916,83.3140351 C57.6665374,83.674386 60.1724053,83.9914035 62.6940617,84.1168421 C66.217163,84.5068421 69.7673304,84.3266667 73.3039648,84.3677193 C82.9688106,84.1419298 92.6268899,82.5477193 101.806802,79.452807 C102.451877,79.2657895 102.975154,78.7936842 103.62474,78.6226316 C105.345692,78.2075439 106.938079,77.4001754 108.562044,76.7136842 C111.918238,75.117193 115.247366,73.4249123 118.2923,71.2719298 C119.429075,70.5489474 120.480141,69.7073684 121.571806,68.9250877 C122.758203,69.8692982 124.152106,70.4987719 125.282115,71.5250877 C125.715172,71.9698246 126.666996,72.195614 126.657974,72.8980702 C119.868899,78.6636842 111.823507,82.81 103.439789,85.647193 C100.428687,86.5275439 97.444652,87.5173684 94.3749075,88.1742105 C84.5431542,90.4685965 74.3888634,91.2349123 64.3202819,90.7080702 C53.9517181,90.1264912 43.6305198,88.0852632 33.9205639,84.3266667 C32.92363,84.0757895 31.922185,83.8180702 31.0087048,83.3322807 C28.8885286,82.4017544 26.811207,81.38 24.7677181,80.2921053 C23.0693216,79.1722807 21.3664141,78.0364912 19.5281762,77.1607018 C18.8560352,76.8117544 18.3688458,76.2119298 17.7801586,75.7512281 C16.0569515,74.4740351 14.3630661,73.1421053 12.7842115,71.6847368 C11.6429251,70.9777193 10.738467,69.962807 9.8317533,68.984386 C9.11675771,67.8349123 8.12884581,66.9021053 7.34392952,65.802807 C6.6898326,64.8745614 5.81695154,64.1219298 5.23051982,63.1412281 C4.53582379,62.162807 4.28771806,60.9540351 3.63587665,59.9505263 C1.86981498,56.5522807 0.633797357,52.8507018 0.241339207,49.0214035 C-0.299982379,45.1510526 0.144352423,41.1985965 1.15030837,37.4422807 C1.54502203,35.925614 2.17656388,34.4910526 2.67954185,33.0108772 C5.28465198,27.1129825 9.54755947,22.1159649 14.4126872,17.9924561 C19.8980793,13.3991228 26.1886872,9.84578947 32.7928106,7.17964912 C35.3550661,6.02561404 38.070696,5.30719298 40.7389604,4.46333333 C47.0431013,2.58175439 53.5321938,1.32736842 60.0799295,0.754912281 C62.3692687,0.501754386 64.66763,0.358070175 66.9705022,0.353508772 Z" id="Shape"></path>
            </g>
        </g>
    </g>
</svg>