<?xml version="1.0" encoding="UTF-8" ?>
<!DOCTYPE svg PUBLIC "-//W3C//DTD SVG 1.1//EN" "http://www.w3.org/Graphics/SVG/1.1/DTD/svg11.dtd">
<svg width="1135pt" height="1135pt" viewBox="0 0 1135 1135" version="1.1" xmlns="http://www.w3.org/2000/svg">
<g id="#ffff01ff">
<path fill="#ffff01" opacity="1.00" d=" M 222.84 486.09 C 236.79 485.99 250.77 485.68 264.70 486.25 C 281.54 510.80 298.13 535.53 314.85 560.16 C 315.50 560.95 316.27 561.64 317.13 562.23 C 317.67 536.92 317.32 511.57 317.30 486.24 C 331.49 485.69 345.73 485.99 359.93 486.08 C 360.18 515.72 359.97 545.36 360.04 575.00 C 359.95 593.05 360.22 611.11 359.91 629.16 C 347.95 629.72 335.96 629.19 324.00 629.42 C 321.77 629.32 319.42 629.71 317.30 628.92 C 312.56 623.13 309.00 616.47 304.50 610.50 C 293.51 594.17 282.39 577.93 271.39 561.61 C 269.43 558.66 267.63 555.57 265.22 552.95 C 264.68 578.35 265.32 603.76 264.91 629.16 C 250.90 629.56 236.84 629.51 222.83 629.18 C 222.32 614.80 222.77 600.39 222.62 586.00 C 222.62 557.00 222.61 528.00 222.62 499.00 C 222.64 494.69 222.43 490.38 222.84 486.09 Z" />
<path fill="#ffff01" opacity="1.00" d=" M 379.07 486.07 C 423.76 485.92 468.47 485.87 513.16 486.09 C 513.54 498.01 513.53 509.99 513.16 521.91 C 498.21 522.34 483.24 521.63 468.30 522.25 C 468.49 552.50 468.33 582.75 468.38 613.00 C 468.29 618.39 468.63 623.79 468.17 629.17 C 460.45 629.67 452.72 629.25 445.00 629.39 C 438.03 629.25 431.04 629.68 424.09 629.16 C 423.76 593.48 424.14 557.78 423.90 522.10 C 408.96 521.85 394.01 522.22 379.07 521.93 C 378.92 509.98 378.89 498.02 379.07 486.07 Z" />
<path fill="#ffff01" opacity="1.00" d=" M 533.83 486.08 C 547.79 485.94 561.79 485.79 575.75 486.16 C 591.50 509.44 607.36 532.66 623.04 555.99 C 624.60 558.17 625.92 560.61 628.12 562.26 C 628.69 536.94 628.32 511.58 628.30 486.24 C 642.49 485.69 656.73 485.99 670.93 486.08 C 671.15 516.38 670.95 546.69 671.02 577.00 C 670.85 594.56 671.37 612.15 670.76 629.70 C 656.66 629.46 642.57 629.77 628.48 629.56 C 617.89 613.81 607.12 598.18 596.56 582.42 C 589.55 572.71 583.45 562.35 576.18 552.85 C 575.77 578.28 576.28 603.73 575.92 629.16 C 561.91 629.55 547.85 629.52 533.83 629.18 C 533.32 614.13 533.76 599.05 533.62 584.00 C 533.62 555.66 533.61 527.33 533.62 499.00 C 533.64 494.69 533.43 490.37 533.83 486.08 Z" />
<path fill="#ffff01" opacity="1.00" d=" M 700.07 486.08 C 714.94 485.99 729.84 485.70 744.70 486.24 C 744.50 514.82 744.68 543.40 744.60 571.98 C 744.92 578.70 745.74 586.22 750.84 591.17 C 756.08 597.09 764.50 598.66 772.06 597.92 C 779.63 597.56 786.94 593.00 790.13 586.05 C 791.61 582.57 792.68 578.84 792.65 575.04 C 792.57 549.36 792.64 523.68 792.62 498.00 C 792.61 494.03 792.44 490.05 792.84 486.09 C 807.61 485.89 822.40 485.89 837.17 486.09 C 837.68 514.71 837.22 543.37 837.40 572.00 C 837.57 586.30 833.60 601.11 824.18 612.13 C 818.60 619.06 811.12 624.42 802.86 627.69 C 792.38 631.53 781.06 632.15 770.00 632.04 C 754.74 631.80 738.41 631.21 725.08 622.88 C 714.57 615.92 706.29 605.27 703.07 592.99 C 701.34 586.12 699.77 579.12 699.95 571.99 C 700.05 543.36 699.81 514.71 700.07 486.08 Z" />
<path fill="#ffff01" opacity="1.00" d=" M 868.84 486.08 C 883.61 485.90 898.39 485.87 913.16 486.09 C 913.68 513.71 913.23 541.37 913.38 569.00 C 913.24 589.06 913.67 609.13 913.17 629.18 C 898.41 629.53 883.59 629.54 868.83 629.17 C 868.33 592.13 868.76 555.06 868.62 518.00 C 868.77 507.36 868.31 496.71 868.84 486.08 Z" />
</g>
<g id="#018001ff">
<path fill="#018001" opacity="1.00" d=" M 636.16 386.29 C 700.64 362.32 770.70 355.00 839.03 360.92 C 900.83 366.50 962.38 383.79 1015.29 416.79 C 1036.19 430.25 1055.71 446.16 1071.56 465.40 C 1083.18 479.93 1093.31 495.93 1099.29 513.64 C 1106.76 534.25 1108.53 556.77 1105.31 578.39 C 1101.33 604.58 1088.82 628.81 1072.28 649.25 C 1069.07 653.69 1064.76 657.16 1061.47 661.53 C 1059.16 664.51 1056.35 667.03 1053.39 669.33 C 1036.83 684.94 1017.91 697.94 997.98 708.88 C 990.89 712.49 983.77 716.04 976.64 719.58 C 932.37 739.62 884.40 750.81 836.07 754.86 C 826.09 756.06 816.01 755.69 806.01 756.61 C 769.21 757.21 732.30 754.10 696.24 746.60 C 660.48 738.93 625.36 727.21 593.16 709.72 C 594.03 708.76 594.89 707.78 596.00 707.08 C 603.17 702.04 609.64 696.11 616.31 690.44 C 620.34 691.47 623.87 693.75 627.68 695.35 C 673.44 715.44 723.26 724.90 772.97 727.71 C 788.31 728.06 803.67 728.09 819.02 727.62 C 848.93 725.57 878.81 721.65 907.82 713.91 C 947.72 703.33 986.67 686.95 1019.47 661.52 C 1026.02 656.80 1031.59 650.93 1037.85 645.86 C 1041.60 641.26 1045.77 637.04 1049.57 632.49 C 1064.14 614.73 1074.85 593.24 1077.49 570.24 C 1080.62 547.95 1075.15 525.07 1064.64 505.38 C 1054.08 486.14 1039.12 469.55 1021.95 455.97 C 1000.92 439.03 976.85 426.15 951.88 416.05 C 919.90 403.24 886.11 395.30 851.97 391.02 C 815.42 386.57 778.34 386.39 741.75 390.50 C 698.50 395.45 655.74 406.54 616.39 425.36 C 600.32 433.33 584.73 442.47 570.54 453.50 C 569.25 454.48 567.31 455.33 565.92 454.05 C 561.49 450.81 557.24 447.31 552.64 444.31 C 549.88 442.39 546.73 441.02 544.34 438.60 C 571.44 415.75 603.07 398.72 636.16 386.29 Z" />
</g>
<g id="#000000ff">
<path fill="#000000" opacity="1.00" d=" M 318.27 331.29 C 325.83 330.68 333.42 331.13 341.00 331.00 C 348.58 331.13 356.18 330.67 363.74 331.30 C 367.89 332.10 372.13 332.07 376.33 331.69 C 377.87 331.88 379.41 332.08 380.96 332.28 C 382.78 333.56 385.05 333.53 387.06 332.68 C 388.69 332.81 390.33 332.96 391.97 333.10 C 393.44 334.61 395.63 334.50 397.38 333.56 L 398.24 333.69 L 398.68 333.76 C 399.20 333.84 400.25 334.01 400.77 334.10 C 402.28 335.37 404.31 335.50 406.11 334.82 C 406.81 334.90 408.20 335.06 408.89 335.14 C 409.98 336.35 411.66 336.55 413.12 335.89 C 413.81 335.95 415.20 336.07 415.89 336.14 C 417.00 337.33 418.69 337.53 420.16 336.88 C 420.59 336.95 421.45 337.09 421.88 337.16 C 423.01 338.30 424.68 338.53 426.16 337.90 C 426.59 337.96 427.45 338.08 427.88 338.15 C 428.96 339.33 430.61 339.54 432.05 338.88 C 432.41 338.92 433.13 339.00 433.49 339.05 C 434.56 339.81 435.75 340.15 437.03 340.08 C 437.51 340.04 438.46 339.97 438.94 339.93 C 439.62 341.22 440.68 341.56 442.12 340.97 C 442.57 340.99 443.45 341.02 443.89 341.04 C 444.73 342.21 445.81 342.51 447.15 341.95 L 447.89 342.19 C 449.02 343.38 450.74 343.51 452.13 342.69 C 453.75 343.13 455.37 343.58 456.99 344.04 C 457.76 345.21 458.81 345.53 460.13 345.01 L 460.91 345.06 C 461.77 346.24 462.85 346.48 464.14 345.77 C 465.69 346.26 467.25 346.74 468.81 347.24 C 470.89 347.98 473.06 348.41 475.21 348.94 C 476.48 349.26 477.77 349.57 479.05 349.94 C 479.77 351.23 480.80 351.53 482.13 350.85 L 482.73 351.23 C 483.30 351.42 484.43 351.80 484.99 351.99 L 485.60 352.12 C 486.24 352.31 487.50 352.70 488.13 352.89 C 492.55 353.84 496.81 355.36 501.04 356.93 C 501.55 357.22 502.58 357.80 503.09 358.09 L 503.90 358.01 C 504.46 358.20 505.59 358.58 506.15 358.77 C 512.16 360.99 518.15 363.30 523.97 365.98 C 524.53 366.19 525.63 366.62 526.18 366.84 C 540.63 372.75 554.40 380.14 567.97 387.83 C 579.30 381.29 590.91 375.24 602.79 369.76 C 603.35 369.58 604.48 369.21 605.04 369.02 C 608.81 366.97 612.81 365.37 616.83 363.87 C 617.38 363.64 618.47 363.19 619.02 362.96 C 622.49 361.27 626.14 359.98 629.86 358.93 C 630.40 358.68 631.47 358.18 632.01 357.93 C 638.23 355.73 644.45 353.46 650.85 351.82 C 651.41 351.60 652.52 351.18 653.08 350.96 L 653.90 351.08 C 654.43 350.81 655.49 350.26 656.01 349.99 C 657.60 349.63 659.18 349.22 660.80 348.93 C 661.40 348.73 662.62 348.34 663.22 348.15 C 664.76 347.68 666.30 347.23 667.86 346.79 C 669.14 347.47 670.22 347.23 671.09 346.07 L 671.88 346.00 C 673.20 346.52 674.26 346.20 675.07 345.04 L 675.88 344.99 C 677.20 345.52 678.26 345.20 679.08 344.04 L 679.88 344.01 C 681.19 344.54 682.24 344.20 683.01 343.01 C 684.95 342.58 686.90 342.18 688.86 341.81 C 690.17 342.52 691.22 342.25 692.02 340.99 C 694.28 340.49 696.57 340.09 698.88 339.79 C 700.18 340.48 701.26 340.24 702.14 339.06 C 702.57 339.02 703.44 338.95 703.87 338.91 C 705.32 339.54 706.98 339.30 708.12 338.15 C 708.55 338.10 709.42 338.00 709.85 337.95 C 711.27 338.57 712.33 338.23 713.04 336.96 C 713.75 336.96 715.18 336.96 715.89 336.97 C 717.35 337.52 719.01 337.26 720.10 336.08 C 720.79 336.01 722.18 335.87 722.87 335.81 C 724.29 336.51 725.98 336.34 727.10 335.16 C 727.80 335.08 729.18 334.92 729.88 334.83 C 731.60 335.52 733.56 335.40 735.06 334.23 C 736.34 334.09 737.62 333.95 738.92 333.81 C 740.61 334.54 742.58 334.44 744.05 333.22 C 745.68 333.06 747.32 332.90 748.97 332.74 C 750.98 333.54 753.26 333.54 755.06 332.21 C 756.60 332.00 758.14 331.79 759.70 331.60 C 763.87 332.11 768.09 332.05 772.23 331.29 C 780.14 330.68 788.08 331.13 796.00 331.00 C 803.24 331.13 810.51 330.69 817.74 331.30 C 821.90 332.16 826.15 332.02 830.36 331.65 C 831.49 331.84 832.62 332.04 833.77 332.24 C 836.60 332.90 839.50 332.89 842.39 332.76 C 843.04 332.89 844.34 333.15 845.00 333.28 C 846.82 334.47 849.04 334.54 851.07 333.79 C 852.34 333.90 853.62 334.02 854.92 334.15 C 855.99 335.35 857.68 335.55 859.14 334.87 C 859.83 334.96 861.22 335.14 861.91 335.23 C 863.40 336.39 865.35 336.53 867.11 335.85 C 867.81 335.90 869.20 336.00 869.90 336.06 C 870.69 337.10 871.74 337.45 873.04 337.11 C 873.77 337.06 875.23 336.95 875.96 336.89 C 876.58 338.21 877.62 338.57 879.06 337.97 C 879.42 337.98 880.12 338.00 880.47 338.01 C 881.77 338.97 883.40 339.29 885.00 338.95 C 889.09 339.00 893.08 339.99 897.00 341.11 C 898.03 342.32 899.67 342.59 901.12 341.94 L 901.91 342.03 C 902.74 343.20 903.84 343.52 905.20 342.99 L 905.95 343.34 C 907.20 344.15 908.73 344.06 910.16 343.81 C 912.92 344.46 915.68 345.19 918.45 345.85 C 920.49 347.15 922.82 347.74 925.23 347.88 C 926.49 348.22 927.76 348.58 929.04 348.95 C 929.80 350.22 930.83 350.49 932.15 349.79 C 934.48 350.40 936.78 351.11 939.07 351.91 C 939.74 353.16 940.75 353.54 942.11 353.07 L 942.94 352.96 C 943.48 353.24 944.55 353.78 945.08 354.05 L 945.95 353.96 C 946.48 354.23 947.54 354.77 948.07 355.04 L 948.90 354.95 C 949.43 355.21 950.49 355.73 951.03 355.99 C 954.07 356.79 957.06 357.78 960.00 358.92 C 960.54 359.16 961.62 359.65 962.16 359.89 C 964.10 360.55 966.05 361.23 967.99 361.94 C 968.54 362.17 969.63 362.63 970.17 362.86 C 977.24 365.61 984.19 368.64 991.03 371.92 C 995.86 373.98 1000.70 376.06 1005.19 378.82 C 1024.37 389.14 1043.22 400.53 1059.65 414.92 C 1060.01 415.15 1060.74 415.62 1061.11 415.85 C 1064.83 419.14 1068.86 422.09 1072.27 425.73 C 1079.25 433.11 1087.22 439.60 1093.10 447.96 C 1093.59 448.80 1094.20 449.56 1094.94 450.24 C 1100.40 456.21 1104.71 463.14 1109.16 469.87 C 1109.37 470.25 1109.80 471.01 1110.01 471.39 C 1111.17 473.12 1112.21 474.92 1113.20 476.77 C 1112.75 478.17 1113.38 480.07 1115.13 479.99 C 1116.72 484.01 1118.96 487.73 1121.13 491.47 L 1121.26 491.74 C 1122.38 494.37 1123.19 497.13 1124.09 499.86 C 1124.33 500.40 1124.82 501.47 1125.07 502.01 C 1126.30 505.17 1127.37 508.40 1128.18 511.70 C 1128.32 512.33 1128.62 513.59 1128.76 514.22 L 1129.05 514.89 C 1129.29 515.43 1129.78 516.50 1130.02 517.04 C 1130.42 518.97 1130.81 520.90 1131.20 522.85 C 1130.46 524.15 1130.72 525.20 1131.99 526.01 C 1132.58 528.27 1133.04 530.57 1133.38 532.90 C 1132.44 534.22 1132.55 535.98 1133.81 537.07 C 1133.85 537.48 1133.92 538.32 1133.96 538.73 C 1134.00 541.71 1134.41 544.66 1135.00 547.58 L 1135.00 567.42 C 1134.33 572.13 1134.15 576.89 1133.74 581.63 C 1133.48 582.74 1133.22 583.85 1132.97 584.96 C 1131.79 585.75 1131.47 586.81 1132.00 588.13 C 1131.99 588.57 1131.97 589.46 1131.96 589.90 C 1130.79 590.69 1130.47 591.76 1130.98 593.10 L 1131.01 593.89 C 1129.74 594.66 1129.47 595.71 1130.20 597.02 L 1129.79 597.65 C 1129.60 598.25 1129.24 599.46 1129.05 600.07 C 1129.04 600.53 1129.02 601.44 1129.00 601.89 C 1128.74 602.44 1128.21 603.54 1127.95 604.08 L 1128.04 604.97 C 1127.76 605.52 1127.22 606.62 1126.94 607.17 L 1126.89 607.97 C 1125.59 609.36 1125.05 611.18 1125.14 613.06 C 1124.49 615.81 1123.38 618.41 1122.20 620.96 C 1121.92 621.47 1121.38 622.48 1121.11 622.99 L 1120.81 623.61 C 1120.68 624.03 1120.41 624.86 1120.27 625.27 C 1111.82 643.60 1100.13 660.34 1086.70 675.35 C 1086.62 675.44 1086.46 675.62 1086.39 675.71 C 1084.74 677.60 1083.07 679.48 1081.29 681.25 C 1054.47 708.25 1022.19 729.59 987.60 745.32 C 987.50 745.37 987.30 745.47 987.20 745.51 C 978.63 749.37 970.02 753.14 961.12 756.15 C 960.57 756.36 959.46 756.80 958.91 757.01 L 958.09 756.92 C 957.59 757.23 956.59 757.84 956.08 758.14 C 953.79 758.89 951.48 759.57 949.15 760.14 C 948.53 760.35 947.27 760.76 946.65 760.97 C 943.70 762.61 940.39 763.42 937.13 764.16 C 936.57 764.39 935.46 764.84 934.90 765.06 L 934.07 764.97 C 932.75 764.49 931.68 764.81 930.86 765.95 L 930.19 766.13 C 928.23 766.00 926.35 766.57 924.94 767.93 C 924.50 767.95 923.64 767.98 923.20 768.00 C 922.64 768.24 921.52 768.72 920.96 768.95 C 917.75 769.85 914.53 770.72 911.22 771.12 C 910.61 771.32 909.38 771.72 908.77 771.93 C 906.90 772.39 905.02 772.82 903.15 773.23 C 901.85 772.49 900.79 772.72 899.96 773.93 C 896.08 775.00 892.12 775.80 888.12 776.17 C 886.80 775.50 885.71 775.76 884.86 776.95 C 884.43 776.98 883.57 777.05 883.13 777.09 C 881.65 776.45 879.99 776.69 878.88 777.86 C 878.44 777.92 877.58 778.05 877.14 778.11 C 875.54 777.45 873.77 777.82 872.62 779.11 L 871.74 779.23 L 871.28 779.28 L 870.42 779.33 C 868.96 778.66 866.84 778.37 865.97 780.07 C 865.24 780.02 863.78 779.93 863.05 779.88 C 861.62 779.59 860.29 780.25 859.00 780.67 C 857.69 780.82 856.39 780.98 855.10 781.15 C 853.67 780.42 851.97 780.61 850.93 781.87 C 849.29 781.96 847.67 782.06 846.06 782.18 C 844.34 781.44 842.37 781.52 840.96 782.80 C 838.96 782.93 836.97 783.09 835.00 783.27 C 832.67 782.48 830.13 782.36 828.01 783.74 C 825.43 783.88 822.86 784.05 820.30 784.31 C 813.79 784.12 807.22 783.67 800.77 784.72 C 796.60 785.11 792.41 785.15 788.26 784.72 C 781.80 783.59 775.21 784.20 768.69 784.32 C 766.54 784.07 764.39 783.86 762.25 783.67 C 759.30 783.11 756.30 783.11 753.33 783.46 L 752.58 783.38 L 752.19 783.32 C 751.42 783.18 749.86 782.90 749.09 782.76 C 747.22 781.53 744.94 781.43 742.91 782.26 C 741.67 782.09 740.45 781.93 739.23 781.76 C 737.64 780.85 735.82 780.68 734.06 781.07 C 732.73 781.02 731.40 780.96 730.09 780.90 C 729.01 779.64 727.31 779.45 725.87 780.11 C 725.18 780.05 723.80 779.93 723.11 779.87 C 722.00 778.68 720.34 778.47 718.89 779.07 C 718.18 779.06 716.75 779.05 716.04 779.04 C 715.36 777.85 714.34 777.47 712.96 777.90 C 712.23 777.94 710.76 778.04 710.03 778.08 C 709.34 776.76 708.28 776.41 706.85 777.05 C 706.42 777.00 705.55 776.90 705.12 776.86 C 703.98 775.68 702.32 775.45 700.87 776.10 C 700.43 776.06 699.55 775.99 699.12 775.96 C 698.28 774.80 697.20 774.48 695.88 775.01 C 695.44 775.00 694.57 775.00 694.14 775.00 C 693.36 773.80 692.32 773.48 691.00 774.03 L 690.36 773.93 C 689.28 773.20 688.13 772.85 686.91 772.87 C 686.45 772.91 685.52 772.98 685.06 773.01 C 684.35 771.76 683.30 771.42 681.90 772.01 L 681.08 771.99 C 680.28 770.80 679.21 770.46 677.88 770.97 L 677.07 771.00 C 676.27 769.81 675.21 769.47 673.88 769.99 L 673.07 769.98 C 672.27 768.79 671.20 768.47 669.88 769.01 L 669.09 768.93 C 668.21 767.76 667.13 767.52 665.85 768.22 C 664.54 767.82 663.24 767.43 661.96 767.04 C 661.19 765.78 660.16 765.48 658.86 766.15 C 655.18 765.26 651.55 764.19 647.94 763.10 C 647.42 762.81 646.39 762.23 645.87 761.94 L 645.03 762.03 C 644.50 761.76 643.44 761.22 642.91 760.95 L 642.04 761.04 C 641.51 760.76 640.44 760.22 639.91 759.95 L 639.04 760.04 C 638.52 759.76 637.46 759.21 636.93 758.94 L 636.10 759.04 C 635.55 758.81 634.44 758.36 633.89 758.14 C 631.92 757.46 629.96 756.77 628.01 756.06 C 627.47 755.83 626.38 755.35 625.84 755.12 C 619.12 752.72 612.38 750.27 606.04 746.99 C 605.49 746.79 604.37 746.40 603.81 746.20 C 600.44 744.70 597.09 743.17 593.79 741.55 C 593.68 741.49 593.47 741.38 593.36 741.33 C 587.59 738.18 581.62 735.43 575.84 732.32 C 575.38 731.96 574.44 731.24 573.98 730.88 C 571.68 729.92 569.43 728.13 566.81 728.53 C 566.69 728.57 566.45 728.63 566.33 728.67 C 565.28 729.15 564.24 729.67 563.22 730.22 C 562.83 730.42 562.06 730.80 561.67 730.99 C 555.85 735.04 549.25 737.72 543.00 741.00 C 537.23 744.09 531.19 746.59 525.19 749.16 C 524.63 749.38 523.53 749.80 522.97 750.01 C 518.83 752.02 514.53 753.68 510.16 755.13 C 509.62 755.36 508.53 755.83 507.99 756.07 C 506.24 756.86 504.48 757.65 502.68 758.30 L 502.37 758.40 C 501.29 758.65 500.21 758.88 499.13 759.11 C 498.58 759.34 497.47 759.81 496.92 760.05 L 496.05 759.96 C 495.50 760.23 494.40 760.76 493.85 761.03 L 493.07 761.06 C 491.15 760.81 488.99 761.14 487.97 762.99 L 487.13 762.88 C 485.82 762.48 484.80 762.87 484.08 764.07 C 481.80 764.88 479.48 765.59 477.14 766.21 C 475.83 765.49 474.80 765.76 474.04 767.04 C 471.72 767.78 469.39 768.47 467.06 769.17 C 465.65 768.45 463.99 768.64 462.88 769.81 L 462.11 769.87 C 461.00 769.89 459.96 770.18 458.99 770.72 L 458.23 771.05 C 456.90 770.45 455.83 770.74 454.99 771.92 C 453.36 772.36 451.74 772.80 450.12 773.24 C 448.73 772.40 447.01 772.62 445.99 773.91 C 444.04 774.37 442.09 774.81 440.14 775.24 C 438.85 774.49 437.78 774.71 436.92 775.91 C 434.30 776.45 431.67 776.97 429.00 777.08 C 427.40 776.69 425.76 777.01 424.45 777.99 C 424.10 778.03 423.41 778.10 423.07 778.14 C 421.63 777.45 419.96 777.65 418.88 778.87 C 418.45 778.93 417.59 779.06 417.16 779.12 C 415.69 778.45 414.00 778.65 412.89 779.85 C 412.20 779.93 410.81 780.09 410.12 780.17 C 408.37 779.46 406.41 779.59 404.92 780.77 C 404.22 780.87 402.82 781.08 402.12 781.18 C 400.39 780.46 398.44 780.59 396.94 781.76 C 395.64 781.91 394.35 782.08 393.07 782.27 C 390.93 781.46 388.54 781.49 386.68 782.94 L 385.90 783.15 L 385.45 783.21 C 384.69 783.24 383.16 783.29 382.40 783.31 C 379.50 783.03 376.59 783.09 373.74 783.71 C 370.91 783.89 368.08 784.08 365.26 784.33 C 359.42 784.23 353.52 783.62 347.74 784.72 C 343.58 785.15 339.39 785.11 335.23 784.71 C 329.12 783.67 322.90 784.19 316.74 784.32 C 313.83 784.06 310.90 783.90 307.98 783.75 C 305.86 782.36 303.32 782.48 301.01 783.27 C 299.02 783.09 297.03 782.93 295.05 782.80 C 293.62 781.51 291.64 781.44 289.94 782.19 C 288.31 782.05 286.68 781.91 285.06 781.79 C 283.58 780.55 281.61 780.46 279.88 781.18 C 279.19 781.10 277.80 780.94 277.11 780.85 C 276.01 779.66 274.36 779.45 272.91 780.05 C 271.62 780.02 270.32 780.02 269.03 780.03 C 268.33 778.76 267.28 778.43 265.87 779.06 C 265.18 779.01 263.79 778.91 263.10 778.86 C 261.98 777.67 260.30 777.45 258.84 778.10 C 258.41 778.04 257.55 777.91 257.12 777.84 C 255.98 776.68 254.33 776.45 252.87 777.08 C 252.44 777.05 251.57 776.98 251.14 776.94 C 250.28 775.75 249.20 775.50 247.89 776.17 C 243.86 775.82 239.90 775.00 236.02 773.89 C 234.99 772.62 233.29 772.40 231.90 773.19 C 225.24 771.51 218.51 770.09 211.95 768.05 C 211.16 766.76 210.11 766.49 208.81 767.26 C 207.57 766.79 206.33 766.35 205.12 765.85 C 204.12 765.28 203.05 765.01 201.91 765.04 C 197.93 764.38 194.18 762.88 190.37 761.62 C 185.94 760.07 181.35 758.92 177.11 756.86 C 176.16 756.30 175.14 755.97 174.05 755.87 C 173.15 755.57 172.26 755.24 171.39 754.89 C 171.03 754.75 170.30 754.46 169.94 754.32 L 169.16 753.99 C 168.59 753.79 167.46 753.38 166.89 753.18 C 163.56 751.90 160.25 750.55 157.03 749.01 C 156.48 748.81 155.37 748.40 154.81 748.19 C 122.90 734.54 92.99 716.05 66.97 693.04 C 44.66 673.00 25.74 648.79 13.76 621.16 C 13.75 620.72 13.72 619.83 13.70 619.38 L 12.93 618.89 C 12.70 618.53 12.23 617.79 12.00 617.43 L 11.87 617.14 L 11.58 616.42 L 11.98 615.54 C 11.73 615.16 11.25 614.41 11.00 614.03 C 9.44 610.12 8.17 606.10 6.87 602.10 C 7.52 600.79 7.24 599.75 6.01 598.97 C 5.57 597.02 5.17 595.05 4.90 593.07 C 5.06 591.85 4.84 590.74 4.21 589.75 L 3.78 589.10 C 4.78 587.73 4.20 585.99 3.15 584.88 C 3.08 584.45 2.94 583.58 2.88 583.15 C 3.54 581.69 3.34 580.01 2.15 578.90 C 2.06 578.20 1.87 576.80 1.78 576.10 C 2.57 574.06 2.47 571.81 1.20 570.00 C 0.84 561.69 0.94 553.36 1.14 545.04 C 2.49 543.64 2.56 541.63 1.81 539.92 C 1.93 538.64 2.04 537.36 2.15 536.09 C 3.36 534.98 3.57 533.26 2.79 531.85 C 2.92 531.46 3.19 530.68 3.32 530.29 C 3.78 529.19 4.01 528.05 4.01 526.86 C 4.05 526.48 4.12 525.71 4.16 525.33 C 4.86 524.25 5.15 523.09 5.01 521.84 L 4.95 521.05 C 6.37 520.28 6.63 519.23 5.72 517.88 L 6.21 517.20 C 6.39 516.60 6.73 515.40 6.91 514.80 C 6.92 514.37 6.94 513.51 6.95 513.08 C 7.23 512.54 7.77 511.46 8.05 510.93 L 7.96 510.05 C 8.23 509.52 8.77 508.45 9.05 507.92 L 8.96 507.05 C 9.24 506.52 9.79 505.46 10.07 504.93 L 9.98 504.09 C 10.19 503.53 10.61 502.41 10.82 501.85 C 11.22 500.91 11.62 499.97 12.02 499.05 C 12.21 498.49 12.59 497.36 12.78 496.80 C 13.51 495.20 14.25 493.61 15.00 492.03 C 15.20 491.47 15.60 490.36 15.81 489.80 C 16.98 487.04 18.23 484.30 19.72 481.69 C 27.79 467.28 37.19 453.54 48.25 441.25 C 58.11 431.54 67.47 421.27 78.38 412.70 C 78.47 412.62 78.65 412.48 78.74 412.41 C 80.76 410.83 82.83 409.34 84.90 407.85 C 85.27 407.62 86.01 407.16 86.37 406.93 C 91.54 402.45 97.30 398.74 103.00 394.99 C 110.51 390.33 117.91 385.42 125.92 381.64 C 126.26 381.46 126.95 381.08 127.29 380.90 C 127.69 380.63 128.49 380.10 128.90 379.84 C 129.27 379.63 130.02 379.20 130.39 378.99 C 137.84 374.55 145.98 371.49 153.80 367.81 C 154.36 367.61 155.47 367.21 156.03 367.01 C 157.61 366.25 159.20 365.51 160.80 364.78 C 161.36 364.59 162.48 364.21 163.05 364.02 C 163.96 363.61 164.88 363.22 165.80 362.83 C 166.36 362.62 167.48 362.22 168.03 362.01 C 168.95 361.62 169.88 361.23 170.80 360.85 C 171.35 360.62 172.45 360.16 172.99 359.93 C 174.23 359.56 175.46 359.19 176.71 358.84 C 177.32 358.66 178.54 358.29 179.15 358.11 C 179.56 357.82 180.39 357.22 180.80 356.93 C 181.97 357.05 183.08 356.83 184.13 356.29 L 184.86 356.03 C 185.41 355.76 186.50 355.24 187.04 354.97 L 187.91 355.06 C 188.44 354.79 189.50 354.25 190.03 353.98 L 190.87 354.06 C 191.39 353.77 192.41 353.17 192.92 352.88 C 194.22 352.52 195.53 352.17 196.84 351.83 C 198.14 352.48 199.18 352.18 199.96 350.96 C 201.24 350.56 202.51 350.18 203.80 349.81 C 204.37 349.62 205.50 349.24 206.07 349.06 C 207.67 348.65 209.26 348.24 210.87 347.86 C 212.18 348.49 213.21 348.18 213.95 346.93 C 219.20 345.30 224.57 344.12 229.90 342.80 C 231.29 343.58 233.00 343.35 234.01 342.08 C 235.95 341.54 237.91 341.07 239.88 340.63 C 241.14 341.44 242.23 341.25 243.15 340.09 C 243.58 340.04 244.44 339.95 244.87 339.91 C 246.32 340.53 247.99 340.30 249.11 339.13 C 249.54 339.09 250.41 339.01 250.84 338.96 C 252.17 339.49 253.26 339.19 254.12 338.05 L 254.88 337.85 C 256.62 338.53 258.57 338.36 260.09 337.23 C 260.78 337.15 262.17 337.01 262.87 336.94 C 264.28 337.56 265.34 337.24 266.05 335.96 C 266.76 335.95 268.18 335.95 268.89 335.95 C 270.34 336.52 272.00 336.31 273.09 335.13 C 274.36 335.05 275.63 334.96 276.90 334.88 C 278.33 335.55 280.01 335.35 281.08 334.13 C 282.36 334.03 283.63 333.93 284.91 333.83 C 286.63 334.53 288.59 334.42 290.06 333.22 C 291.60 333.09 293.15 332.96 294.70 332.81 C 302.55 332.20 310.45 332.25 318.27 331.29 M 325.92 359.55 C 315.71 359.57 305.52 360.20 295.37 361.31 C 266.34 363.82 237.57 369.32 209.62 377.57 C 197.79 381.27 185.75 384.42 174.39 389.48 C 145.11 401.17 117.22 416.75 92.90 436.89 C 71.33 454.97 52.43 476.88 40.88 502.74 C 38.65 509.23 35.85 515.52 34.10 522.17 C 29.64 538.64 27.67 555.97 30.07 572.94 C 31.81 589.73 37.29 605.96 45.12 620.86 C 48.01 625.26 49.11 630.56 52.19 634.85 C 54.79 639.15 58.66 642.45 61.56 646.52 C 65.04 651.34 69.42 655.43 72.59 660.47 C 76.61 664.76 80.62 669.21 85.68 672.31 C 92.68 678.70 100.19 684.54 107.83 690.14 C 110.44 692.16 112.60 694.79 115.58 696.32 C 123.73 700.16 131.28 705.14 138.81 710.05 C 147.87 714.82 157.08 719.30 166.48 723.38 C 170.53 725.51 174.97 726.64 179.39 727.74 C 222.44 744.22 268.20 753.17 314.17 755.72 C 358.81 758.03 403.83 754.67 447.42 744.61 C 461.03 741.73 474.26 737.39 487.61 733.53 C 524.78 721.09 560.45 702.91 590.55 677.63 C 590.59 674.55 586.37 673.56 584.45 671.61 C 579.44 667.11 573.26 664.35 568.00 660.21 C 563.16 663.64 558.50 667.33 553.46 670.50 C 539.96 679.94 525.20 687.36 510.32 694.36 C 503.12 697.37 496.06 700.91 488.43 702.73 C 485.55 703.48 483.23 705.55 480.37 706.37 C 439.67 719.94 396.85 726.93 354.00 727.92 C 338.32 727.74 322.58 728.53 306.96 726.82 C 295.78 726.27 284.67 724.88 273.60 723.30 C 251.16 719.91 228.76 715.37 207.34 707.77 C 163.52 693.76 121.19 671.41 89.84 637.15 C 82.59 627.88 75.30 618.48 70.14 607.83 C 60.85 591.59 56.92 572.60 57.38 554.00 C 58.31 541.99 59.67 529.50 65.73 518.85 C 68.57 512.13 71.84 505.61 74.99 499.03 C 79.51 491.43 84.87 484.31 90.86 477.80 C 96.17 473.15 101.08 468.06 105.77 462.78 C 119.11 451.05 133.87 441.00 149.38 432.38 C 153.80 429.95 158.19 427.37 162.99 425.75 C 174.87 421.38 185.60 414.36 197.78 410.71 C 213.00 405.22 228.64 401.00 244.43 397.46 C 302.38 385.15 362.63 384.08 420.98 394.20 C 435.75 396.91 450.62 399.76 464.71 405.10 C 471.89 407.44 479.04 409.93 486.42 411.57 C 496.74 415.20 506.91 419.33 516.73 424.18 C 518.54 425.24 520.72 424.46 522.10 423.06 C 527.69 417.93 533.57 413.12 539.58 408.49 C 540.51 407.62 542.03 406.87 541.65 405.34 C 534.62 400.44 526.27 398.16 518.69 394.32 C 470.87 373.36 418.97 362.60 366.97 359.73 C 353.28 359.75 339.59 357.90 325.92 359.55 M 636.16 386.29 C 603.07 398.72 571.44 415.75 544.34 438.60 C 546.73 441.02 549.88 442.39 552.64 444.31 C 557.24 447.31 561.49 450.81 565.92 454.05 C 567.31 455.33 569.25 454.48 570.54 453.50 C 584.73 442.47 600.32 433.33 616.39 425.36 C 655.74 406.54 698.50 395.45 741.75 390.50 C 778.34 386.39 815.42 386.57 851.97 391.02 C 886.11 395.30 919.90 403.24 951.88 416.05 C 976.85 426.15 1000.92 439.03 1021.95 455.97 C 1039.12 469.55 1054.08 486.14 1064.64 505.38 C 1075.15 525.07 1080.62 547.95 1077.49 570.24 C 1074.85 593.24 1064.14 614.73 1049.57 632.49 C 1045.77 637.04 1041.60 641.26 1037.85 645.86 C 1031.59 650.93 1026.02 656.80 1019.47 661.52 C 986.67 686.95 947.72 703.33 907.82 713.91 C 878.81 721.65 848.93 725.57 819.02 727.62 C 803.67 728.09 788.31 728.06 772.97 727.71 C 723.26 724.90 673.44 715.44 627.68 695.35 C 623.87 693.75 620.34 691.47 616.31 690.44 C 609.64 696.11 603.17 702.04 596.00 707.08 C 594.89 707.78 594.03 708.76 593.16 709.72 C 625.36 727.21 660.48 738.93 696.24 746.60 C 732.30 754.10 769.21 757.21 806.01 756.61 C 816.01 755.69 826.09 756.06 836.07 754.86 C 884.40 750.81 932.37 739.62 976.64 719.58 C 983.77 716.04 990.89 712.49 997.98 708.88 C 1017.91 697.94 1036.83 684.94 1053.39 669.33 C 1056.35 667.03 1059.16 664.51 1061.47 661.53 C 1064.76 657.16 1069.07 653.69 1072.28 649.25 C 1088.82 628.81 1101.33 604.58 1105.31 578.39 C 1108.53 556.77 1106.76 534.25 1099.29 513.64 C 1093.31 495.93 1083.18 479.93 1071.56 465.40 C 1055.71 446.16 1036.19 430.25 1015.29 416.79 C 962.38 383.79 900.83 366.50 839.03 360.92 C 770.70 355.00 700.64 362.32 636.16 386.29 M 222.84 486.09 C 222.43 490.38 222.64 494.69 222.62 499.00 C 222.61 528.00 222.62 557.00 222.62 586.00 C 222.77 600.39 222.32 614.80 222.83 629.18 C 236.84 629.51 250.90 629.56 264.91 629.16 C 265.32 603.76 264.68 578.35 265.22 552.95 C 267.63 555.57 269.43 558.66 271.39 561.61 C 282.39 577.93 293.51 594.17 304.50 610.50 C 309.00 616.47 312.56 623.13 317.30 628.92 C 319.42 629.71 321.77 629.32 324.00 629.42 C 335.96 629.19 347.95 629.72 359.91 629.16 C 360.22 611.11 359.95 593.05 360.04 575.00 C 359.97 545.36 360.18 515.72 359.93 486.08 C 345.73 485.99 331.49 485.69 317.30 486.24 C 317.32 511.57 317.67 536.92 317.13 562.23 C 316.27 561.64 315.50 560.95 314.85 560.16 C 298.13 535.53 281.54 510.80 264.70 486.25 C 250.77 485.68 236.79 485.99 222.84 486.09 M 379.07 486.07 C 378.89 498.02 378.92 509.98 379.07 521.93 C 394.01 522.22 408.96 521.85 423.90 522.10 C 424.14 557.78 423.76 593.48 424.09 629.16 C 431.04 629.68 438.03 629.25 445.00 629.39 C 452.72 629.25 460.45 629.67 468.17 629.17 C 468.63 623.79 468.29 618.39 468.38 613.00 C 468.33 582.75 468.49 552.50 468.30 522.25 C 483.24 521.63 498.21 522.34 513.16 521.91 C 513.53 509.99 513.54 498.01 513.16 486.09 C 468.47 485.87 423.76 485.92 379.07 486.07 M 533.83 486.08 C 533.43 490.37 533.64 494.69 533.62 499.00 C 533.61 527.33 533.62 555.66 533.62 584.00 C 533.76 599.05 533.32 614.13 533.83 629.18 C 547.85 629.52 561.91 629.55 575.92 629.16 C 576.28 603.73 575.77 578.28 576.18 552.85 C 583.45 562.35 589.55 572.71 596.56 582.42 C 607.12 598.18 617.89 613.81 628.48 629.56 C 642.57 629.77 656.66 629.46 670.76 629.70 C 671.37 612.15 670.85 594.56 671.02 577.00 C 670.95 546.69 671.15 516.38 670.93 486.08 C 656.73 485.99 642.49 485.69 628.30 486.24 C 628.32 511.58 628.69 536.94 628.12 562.26 C 625.92 560.61 624.60 558.17 623.04 555.99 C 607.36 532.66 591.50 509.44 575.75 486.16 C 561.79 485.79 547.79 485.94 533.83 486.08 M 700.07 486.08 C 699.81 514.71 700.05 543.36 699.95 571.99 C 699.77 579.12 701.34 586.12 703.07 592.99 C 706.29 605.27 714.57 615.92 725.08 622.88 C 738.41 631.21 754.74 631.80 770.00 632.04 C 781.06 632.15 792.38 631.53 802.86 627.69 C 811.12 624.42 818.60 619.06 824.18 612.13 C 833.60 601.11 837.57 586.30 837.40 572.00 C 837.22 543.37 837.68 514.71 837.17 486.09 C 822.40 485.89 807.61 485.89 792.84 486.09 C 792.44 490.05 792.61 494.03 792.62 498.00 C 792.64 523.68 792.57 549.36 792.65 575.04 C 792.68 578.84 791.61 582.57 790.13 586.05 C 786.94 593.00 779.63 597.56 772.06 597.92 C 764.50 598.66 756.08 597.09 750.84 591.17 C 745.74 586.22 744.92 578.70 744.60 571.98 C 744.68 543.40 744.50 514.82 744.70 486.24 C 729.84 485.70 714.94 485.99 700.07 486.08 M 868.84 486.08 C 868.31 496.71 868.77 507.36 868.62 518.00 C 868.76 555.06 868.33 592.13 868.83 629.17 C 883.59 629.54 898.41 629.53 913.17 629.18 C 913.67 609.13 913.24 589.06 913.38 569.00 C 913.23 541.37 913.68 513.71 913.16 486.09 C 898.39 485.87 883.61 485.90 868.84 486.08 Z" />
</g>
<g id="#fd0101ff">
<path fill="#fd0101" opacity="1.00" d=" M 325.92 359.55 C 339.59 357.90 353.28 359.75 366.97 359.73 C 418.97 362.60 470.87 373.36 518.69 394.32 C 526.27 398.16 534.62 400.44 541.65 405.34 C 542.03 406.87 540.51 407.62 539.58 408.49 C 533.57 413.12 527.69 417.93 522.10 423.06 C 520.72 424.46 518.54 425.24 516.73 424.18 C 506.91 419.33 496.74 415.20 486.42 411.57 C 479.04 409.93 471.89 407.44 464.71 405.10 C 450.62 399.76 435.75 396.91 420.98 394.20 C 362.63 384.08 302.38 385.15 244.43 397.46 C 228.64 401.00 213.00 405.22 197.78 410.71 C 185.60 414.36 174.87 421.38 162.99 425.75 C 158.19 427.37 153.80 429.95 149.38 432.38 C 133.87 441.00 119.11 451.05 105.77 462.78 C 101.08 468.06 96.17 473.15 90.86 477.80 C 84.87 484.31 79.51 491.43 74.99 499.03 C 71.84 505.61 68.57 512.13 65.73 518.85 C 59.67 529.50 58.31 541.99 57.38 554.00 C 56.92 572.60 60.85 591.59 70.14 607.83 C 75.30 618.48 82.59 627.88 89.84 637.15 C 121.19 671.41 163.52 693.76 207.34 707.77 C 228.76 715.37 251.16 719.91 273.60 723.30 C 284.67 724.88 295.78 726.27 306.96 726.82 C 322.58 728.53 338.32 727.74 354.00 727.92 C 396.85 726.93 439.67 719.94 480.37 706.37 C 483.23 705.55 485.55 703.48 488.43 702.73 C 496.06 700.91 503.12 697.37 510.32 694.36 C 525.20 687.36 539.96 679.94 553.46 670.50 C 558.50 667.33 563.16 663.64 568.00 660.21 C 573.26 664.35 579.44 667.11 584.45 671.61 C 586.37 673.56 590.59 674.55 590.55 677.63 C 560.45 702.91 524.78 721.09 487.61 733.53 C 474.26 737.39 461.03 741.73 447.42 744.61 C 403.83 754.67 358.81 758.03 314.17 755.72 C 268.20 753.17 222.44 744.22 179.39 727.74 C 174.97 726.64 170.53 725.51 166.48 723.38 C 157.08 719.30 147.87 714.82 138.81 710.05 C 131.28 705.14 123.73 700.16 115.58 696.32 C 112.60 694.79 110.44 692.16 107.83 690.14 C 100.19 684.54 92.68 678.70 85.68 672.31 C 80.62 669.21 76.61 664.76 72.59 660.47 C 69.42 655.43 65.04 651.34 61.56 646.52 C 58.66 642.45 54.79 639.15 52.19 634.85 C 49.11 630.56 48.01 625.26 45.12 620.86 C 37.29 605.96 31.81 589.73 30.07 572.94 C 27.67 555.97 29.64 538.64 34.10 522.17 C 35.85 515.52 38.65 509.23 40.88 502.74 C 52.43 476.88 71.33 454.97 92.90 436.89 C 117.22 416.75 145.11 401.17 174.39 389.48 C 185.75 384.42 197.79 381.27 209.62 377.57 C 237.57 369.32 266.34 363.82 295.37 361.31 C 305.52 360.20 315.71 359.57 325.92 359.55 Z" />
</g>
</svg>
