<?xml version="1.0" encoding="UTF-8" ?>
<!DOCTYPE svg PUBLIC "-//W3C//DTD SVG 1.1//EN" "http://www.w3.org/Graphics/SVG/1.1/DTD/svg11.dtd">
<svg width="1135pt" height="1135pt" viewBox="0 0 1135 1135" version="1.1" xmlns="http://www.w3.org/2000/svg">
<g id="#ffff01ff">
<path fill="#ffff01" opacity="1.00" d=" M 758.25 330.25 C 758.78 330.79 758.78 330.79 758.25 330.25 Z" />
<path fill="#ffff01" opacity="1.00" d=" M 833.25 330.25 C 833.78 330.79 833.78 330.79 833.25 330.25 Z" />
<path fill="#ffff01" opacity="1.00" d=" M 390.26 331.26 C 390.79 331.79 390.79 331.79 390.26 331.26 Z" />
<path fill="#ffff01" opacity="1.00" d=" M 271.26 332.26 C 271.79 332.78 271.79 332.78 271.26 332.26 Z" />
<path fill="#ffff01" opacity="1.00" d=" M 406.26 332.26 C 406.79 332.79 406.79 332.79 406.26 332.26 Z" />
<path fill="#ffff01" opacity="1.00" d=" M 398.24 333.69 C 398.35 333.71 398.57 333.74 398.68 333.76 L 398.24 333.69 Z" />
<path fill="#ffff01" opacity="1.00" d=" M 415.26 333.26 C 415.79 333.78 415.79 333.78 415.26 333.26 Z" />
<path fill="#ffff01" opacity="1.00" d=" M 721.25 334.26 C 721.78 334.79 721.78 334.79 721.25 334.26 Z" />
<path fill="#ffff01" opacity="1.00" d=" M 871.26 334.26 C 871.78 334.79 871.78 334.79 871.26 334.26 Z" />
<path fill="#ffff01" opacity="1.00" d=" M 449.25 337.26 C 449.78 337.79 449.78 337.79 449.25 337.26 Z" />
<path fill="#ffff01" opacity="1.00" d=" M 446.25 338.26 C 446.78 338.79 446.78 338.79 446.25 338.26 Z" />
<path fill="#ffff01" opacity="1.00" d=" M 890.23 338.28 C 890.75 338.81 890.75 338.81 890.23 338.28 Z" />
<path fill="#ffff01" opacity="1.00" d=" M 908.17 338.41 C 909.48 338.64 909.70 339.36 908.83 340.59 C 907.49 340.35 907.27 339.62 908.17 338.41 Z" />
<path fill="#ffff01" opacity="1.00" d=" M 238.26 339.26 C 238.79 339.79 238.79 339.79 238.26 339.26 Z" />
<path fill="#ffff01" opacity="1.00" d=" M 443.26 339.25 C 443.78 339.79 443.78 339.79 443.26 339.25 Z" />
<path fill="#ffff01" opacity="1.00" d=" M 230.25 340.25 C 230.78 340.78 230.78 340.78 230.25 340.25 Z" />
<path fill="#ffff01" opacity="1.00" d=" M 455.26 341.26 C 455.79 341.79 455.79 341.79 455.26 341.26 Z" />
<path fill="#ffff01" opacity="1.00" d=" M 480.27 347.08 C 483.27 345.56 480.40 350.40 480.27 347.08 Z" />
<path fill="#ffff01" opacity="1.00" d=" M 937.26 347.25 C 937.78 347.78 937.78 347.78 937.26 347.25 Z" />
<path fill="#ffff01" opacity="1.00" d=" M 487.26 349.25 C 487.79 349.78 487.79 349.78 487.26 349.25 Z" />
<path fill="#ffff01" opacity="1.00" d=" M 650.26 349.26 C 650.78 349.79 650.78 349.79 650.26 349.26 Z" />
<path fill="#ffff01" opacity="1.00" d=" M 511.26 355.26 C 511.79 355.79 511.79 355.79 511.26 355.26 Z" />
<path fill="#ffff01" opacity="1.00" d=" M 953.23 355.28 C 953.74 355.82 953.74 355.82 953.23 355.28 Z" />
<path fill="#ffff01" opacity="1.00" d=" M 958.26 355.26 C 958.78 355.78 958.78 355.78 958.26 355.26 Z" />
<path fill="#ffff01" opacity="1.00" d=" M 155.26 362.26 C 155.79 362.79 155.79 362.79 155.26 362.26 Z" />
<path fill="#ffff01" opacity="1.00" d=" M 154.25 364.26 C 154.78 364.79 154.78 364.79 154.25 364.26 Z" />
<path fill="#ffff01" opacity="1.00" d=" M 598.26 369.26 C 598.79 369.79 598.79 369.79 598.26 369.26 Z" />
<path fill="#ffff01" opacity="1.00" d=" M 542.26 370.26 C 542.79 370.78 542.79 370.78 542.26 370.26 Z" />
<path fill="#ffff01" opacity="1.00" d=" M 589.25 371.26 C 589.78 371.78 589.78 371.78 589.25 371.26 Z" />
<path fill="#ffff01" opacity="1.00" d=" M 541.22 372.30 C 541.74 372.83 541.74 372.83 541.22 372.30 Z" />
<path fill="#ffff01" opacity="1.00" d=" M 545.25 372.26 C 545.79 372.78 545.79 372.78 545.25 372.26 Z" />
<path fill="#ffff01" opacity="1.00" d=" M 585.26 373.26 C 585.78 373.79 585.78 373.79 585.26 373.26 Z" />
<path fill="#ffff01" opacity="1.00" d=" M 128.90 379.84 C 128.73 378.12 129.23 377.84 130.39 378.99 C 130.02 379.20 129.27 379.63 128.90 379.84 Z" />
<path fill="#ffff01" opacity="1.00" d=" M 125.92 381.64 C 124.31 379.82 127.73 378.14 127.29 380.90 C 126.95 381.08 126.26 381.46 125.92 381.64 Z" />
<path fill="#ffff01" opacity="1.00" d=" M 576.30 381.30 C 576.82 381.83 576.82 381.83 576.30 381.30 Z" />
<path fill="#ffff01" opacity="1.00" d=" M 571.30 384.30 C 571.83 384.83 571.83 384.83 571.30 384.30 Z" />
<path fill="#ffff01" opacity="1.00" d=" M 566.26 385.25 C 566.79 385.78 566.79 385.78 566.26 385.25 Z" />
<path fill="#ffff01" opacity="1.00" d=" M 1031.26 386.26 C 1031.78 386.79 1031.78 386.79 1031.26 386.26 Z" />
<path fill="#ffff01" opacity="1.00" d=" M 1030.09 390.27 C 1033.40 390.43 1028.54 393.25 1030.09 390.27 Z" />
<path fill="#ffff01" opacity="1.00" d=" M 97.26 395.26 C 97.79 395.79 97.79 395.79 97.26 395.26 Z" />
<path fill="#ffff01" opacity="1.00" d=" M 81.25 403.25 C 81.79 403.78 81.79 403.78 81.25 403.25 Z" />
<path fill="#ffff01" opacity="1.00" d=" M 83.09 405.28 C 86.40 405.43 81.55 408.28 83.09 405.28 Z" />
<path fill="#ffff01" opacity="1.00" d=" M 84.90 407.85 C 84.71 406.15 85.20 405.84 86.37 406.93 C 86.01 407.16 85.27 407.62 84.90 407.85 Z" />
<path fill="#ffff01" opacity="1.00" d=" M 78.38 412.70 C 78.47 412.62 78.65 412.48 78.74 412.41 C 78.65 412.48 78.47 412.62 78.38 412.70 Z" />
<path fill="#ffff01" opacity="1.00" d=" M 1059.65 414.92 C 1060.80 413.84 1061.28 414.15 1061.11 415.85 C 1060.74 415.62 1060.01 415.15 1059.65 414.92 Z" />
<path fill="#ffff01" opacity="1.00" d=" M 1062.26 414.26 C 1062.78 414.78 1062.78 414.78 1062.26 414.26 Z" />
<path fill="#ffff01" opacity="1.00" d=" M 68.26 417.26 C 68.79 417.79 68.79 417.79 68.26 417.26 Z" />
<path fill="#ffff01" opacity="1.00" d=" M 1068.26 417.25 C 1068.77 417.79 1068.77 417.79 1068.26 417.25 Z" />
<path fill="#ffff01" opacity="1.00" d=" M 1084.26 435.26 C 1084.78 435.79 1084.78 435.79 1084.26 435.26 Z" />
<path fill="#ffff01" opacity="1.00" d=" M 1093.10 447.96 C 1094.80 446.76 1096.84 448.90 1094.94 450.24 C 1094.20 449.56 1093.59 448.80 1093.10 447.96 Z" />
<path fill="#ffff01" opacity="1.00" d=" M 1097.26 449.26 C 1097.78 449.79 1097.78 449.79 1097.26 449.26 Z" />
<path fill="#ffff01" opacity="1.00" d=" M 30.26 459.26 C 30.79 459.78 30.79 459.78 30.26 459.26 Z" />
<path fill="#ffff01" opacity="1.00" d=" M 29.31 463.30 C 29.84 463.83 29.84 463.83 29.31 463.30 Z" />
<path fill="#ffff01" opacity="1.00" d=" M 1109.16 469.87 C 1110.85 469.74 1111.13 470.24 1110.01 471.39 C 1109.80 471.01 1109.37 470.25 1109.16 469.87 Z" />
<path fill="#ffff01" opacity="1.00" d=" M 222.84 486.09 C 236.79 485.99 250.77 485.68 264.70 486.25 C 281.54 510.80 298.13 535.53 314.85 560.16 C 315.50 560.95 316.27 561.64 317.13 562.23 C 317.67 536.92 317.32 511.57 317.30 486.24 C 331.49 485.69 345.73 485.99 359.93 486.08 C 360.18 515.72 359.97 545.36 360.04 575.00 C 359.95 593.05 360.22 611.11 359.91 629.16 C 347.95 629.72 335.96 629.19 324.00 629.42 C 321.77 629.32 319.42 629.71 317.30 628.92 C 312.56 623.13 309.00 616.47 304.50 610.50 C 293.51 594.17 282.39 577.93 271.39 561.61 C 269.43 558.66 267.63 555.57 265.22 552.95 C 264.68 578.35 265.32 603.76 264.91 629.16 C 250.90 629.56 236.84 629.51 222.83 629.18 C 222.32 614.80 222.77 600.39 222.62 586.00 C 222.62 557.00 222.61 528.00 222.62 499.00 C 222.64 494.69 222.43 490.38 222.84 486.09 Z" />
<path fill="#ffff01" opacity="1.00" d=" M 379.07 486.07 C 423.76 485.92 468.47 485.87 513.16 486.09 C 513.54 498.01 513.53 509.99 513.16 521.91 C 498.21 522.34 483.24 521.63 468.30 522.25 C 468.49 552.50 468.33 582.75 468.38 613.00 C 468.29 618.39 468.63 623.79 468.17 629.17 C 460.45 629.67 452.72 629.25 445.00 629.39 C 438.03 629.25 431.04 629.68 424.09 629.16 C 423.76 593.48 424.14 557.78 423.90 522.10 C 408.96 521.85 394.01 522.22 379.07 521.93 C 378.92 509.98 378.89 498.02 379.07 486.07 Z" />
<path fill="#ffff01" opacity="1.00" d=" M 533.83 486.08 C 547.79 485.94 561.79 485.79 575.75 486.16 C 591.50 509.44 607.36 532.66 623.04 555.99 C 624.60 558.17 625.92 560.61 628.12 562.26 C 628.69 536.94 628.32 511.58 628.30 486.24 C 642.49 485.69 656.73 485.99 670.93 486.08 C 671.15 516.38 670.95 546.69 671.02 577.00 C 670.85 594.56 671.37 612.15 670.76 629.70 C 656.66 629.46 642.57 629.77 628.48 629.56 C 617.89 613.81 607.12 598.18 596.56 582.42 C 589.55 572.71 583.45 562.35 576.18 552.85 C 575.77 578.28 576.28 603.73 575.92 629.16 C 561.91 629.55 547.85 629.52 533.83 629.18 C 533.32 614.13 533.76 599.05 533.62 584.00 C 533.62 555.66 533.61 527.33 533.62 499.00 C 533.64 494.69 533.43 490.37 533.83 486.08 Z" />
<path fill="#ffff01" opacity="1.00" d=" M 700.07 486.08 C 714.94 485.99 729.84 485.70 744.70 486.24 C 744.50 514.82 744.68 543.40 744.60 571.98 C 744.92 578.70 745.74 586.22 750.84 591.17 C 756.08 597.09 764.50 598.66 772.06 597.92 C 779.63 597.56 786.94 593.00 790.13 586.05 C 791.61 582.57 792.68 578.84 792.65 575.04 C 792.57 549.36 792.64 523.68 792.62 498.00 C 792.61 494.03 792.44 490.05 792.84 486.09 C 807.61 485.89 822.40 485.89 837.17 486.09 C 837.68 514.71 837.22 543.37 837.40 572.00 C 837.57 586.30 833.60 601.11 824.18 612.13 C 818.60 619.06 811.12 624.42 802.86 627.69 C 792.38 631.53 781.06 632.15 770.00 632.04 C 754.74 631.80 738.41 631.21 725.08 622.88 C 714.57 615.92 706.29 605.27 703.07 592.99 C 701.34 586.12 699.77 579.12 699.95 571.99 C 700.05 543.36 699.81 514.71 700.07 486.08 Z" />
<path fill="#ffff01" opacity="1.00" d=" M 868.84 486.08 C 883.61 485.90 898.39 485.87 913.16 486.09 C 913.68 513.71 913.23 541.37 913.38 569.00 C 913.24 589.06 913.67 609.13 913.17 629.18 C 898.41 629.53 883.59 629.54 868.83 629.17 C 868.33 592.13 868.76 555.06 868.62 518.00 C 868.77 507.36 868.31 496.71 868.84 486.08 Z" />
<path fill="#ffff01" opacity="1.00" d=" M 1121.13 491.47 C 1121.17 491.54 1121.23 491.67 1121.26 491.74 L 1121.13 491.47 Z" />
<path fill="#ffff01" opacity="1.00" d=" M 8.26 503.26 C 8.79 503.78 8.79 503.78 8.26 503.26 Z" />
<path fill="#ffff01" opacity="1.00" d=" M 3.26 515.25 C 3.79 515.79 3.79 515.79 3.26 515.25 Z" />
<path fill="#ffff01" opacity="1.00" d=" M 1135.00 531.76 C 1135.00 531.63 1135.00 531.39 1135.00 531.26 L 1135.00 531.76 Z" />
<path fill="#ffff01" opacity="1.00" d=" M 1133.74 581.63 C 1134.15 576.89 1134.33 572.13 1135.00 567.42 L 1135.00 583.36 C 1134.68 582.93 1134.05 582.06 1133.74 581.63 Z" />
<path fill="#ffff01" opacity="1.00" d=" M 1131.25 602.25 C 1131.77 602.78 1131.77 602.78 1131.25 602.25 Z" />
<path fill="#ffff01" opacity="1.00" d=" M 12.00 617.43 C 11.97 617.36 11.90 617.21 11.87 617.14 L 12.00 617.43 Z" />
<path fill="#ffff01" opacity="1.00" d=" M 1124.25 619.25 C 1124.78 619.78 1124.78 619.78 1124.25 619.25 Z" />
<path fill="#ffff01" opacity="1.00" d=" M 1120.27 625.27 C 1120.41 624.86 1120.68 624.03 1120.81 623.61 C 1122.10 624.59 1121.92 625.15 1120.27 625.27 Z" />
<path fill="#ffff01" opacity="1.00" d=" M 14.09 629.28 C 17.41 629.46 12.54 632.26 14.09 629.28 Z" />
<path fill="#ffff01" opacity="1.00" d=" M 1121.26 631.26 C 1121.78 631.78 1121.78 631.78 1121.26 631.26 Z" />
<path fill="#ffff01" opacity="1.00" d=" M 20.30 637.21 C 20.84 637.73 20.84 637.73 20.30 637.21 Z" />
<path fill="#ffff01" opacity="1.00" d=" M 41.29 668.22 C 41.83 668.74 41.83 668.74 41.29 668.22 Z" />
<path fill="#ffff01" opacity="1.00" d=" M 1094.25 669.26 C 1094.77 669.78 1094.77 669.78 1094.25 669.26 Z" />
<path fill="#ffff01" opacity="1.00" d=" M 1090.26 673.26 C 1090.78 673.78 1090.78 673.78 1090.26 673.26 Z" />
<path fill="#ffff01" opacity="1.00" d=" M 1086.39 675.71 C 1086.46 675.62 1086.62 675.44 1086.70 675.35 C 1086.62 675.44 1086.46 675.62 1086.39 675.71 Z" />
<path fill="#ffff01" opacity="1.00" d=" M 46.26 677.25 C 46.79 677.79 46.79 677.79 46.26 677.25 Z" />
<path fill="#ffff01" opacity="1.00" d=" M 1090.26 679.26 C 1090.78 679.79 1090.78 679.79 1090.26 679.26 Z" />
<path fill="#ffff01" opacity="1.00" d=" M 1082.21 681.22 C 1082.74 681.74 1082.74 681.74 1082.21 681.22 Z" />
<path fill="#ffff01" opacity="1.00" d=" M 63.26 693.26 C 63.79 693.79 63.79 693.79 63.26 693.26 Z" />
<path fill="#ffff01" opacity="1.00" d=" M 1075.26 695.25 C 1075.78 695.78 1075.78 695.78 1075.26 695.25 Z" />
<path fill="#ffff01" opacity="1.00" d=" M 70.29 697.22 C 70.82 697.74 70.82 697.74 70.29 697.22 Z" />
<path fill="#ffff01" opacity="1.00" d=" M 70.09 701.29 C 73.40 701.43 68.56 704.28 70.09 701.29 Z" />
<path fill="#ffff01" opacity="1.00" d=" M 1050.09 709.37 C 1051.46 708.99 1051.97 709.49 1051.61 710.89 C 1050.20 711.26 1049.69 710.76 1050.09 709.37 Z" />
<path fill="#ffff01" opacity="1.00" d=" M 88.25 713.25 C 88.79 713.78 88.79 713.78 88.25 713.25 Z" />
<path fill="#ffff01" opacity="1.00" d=" M 103.25 725.26 C 103.79 725.77 103.79 725.77 103.25 725.26 Z" />
<path fill="#ffff01" opacity="1.00" d=" M 1033.25 725.26 C 1033.77 725.78 1033.77 725.78 1033.25 725.26 Z" />
<path fill="#ffff01" opacity="1.00" d=" M 97.26 726.26 C 97.80 726.78 97.80 726.78 97.26 726.26 Z" />
<path fill="#ffff01" opacity="1.00" d=" M 566.33 728.67 C 566.45 728.63 566.69 728.57 566.81 728.53 C 566.69 728.57 566.45 728.63 566.33 728.67 Z" />
<path fill="#ffff01" opacity="1.00" d=" M 561.67 730.99 C 562.06 730.80 562.83 730.42 563.22 730.22 C 563.25 731.93 562.73 732.19 561.67 730.99 Z" />
<path fill="#ffff01" opacity="1.00" d=" M 1020.10 730.27 C 1023.40 730.44 1018.53 733.25 1020.10 730.27 Z" />
<path fill="#ffff01" opacity="1.00" d=" M 1022.26 732.26 C 1022.78 732.79 1022.78 732.79 1022.26 732.26 Z" />
<path fill="#ffff01" opacity="1.00" d=" M 1011.22 734.22 C 1011.74 734.75 1011.74 734.75 1011.22 734.22 Z" />
<path fill="#ffff01" opacity="1.00" d=" M 588.25 741.25 C 588.78 741.77 588.78 741.77 588.25 741.25 Z" />
<path fill="#ffff01" opacity="1.00" d=" M 593.36 741.33 C 593.47 741.38 593.68 741.49 593.79 741.55 C 593.68 741.49 593.47 741.38 593.36 741.33 Z" />
<path fill="#ffff01" opacity="1.00" d=" M 987.20 745.51 C 987.30 745.47 987.50 745.37 987.60 745.32 C 987.50 745.37 987.30 745.47 987.20 745.51 Z" />
<path fill="#ffff01" opacity="1.00" d=" M 974.26 752.26 C 974.78 752.78 974.78 752.78 974.26 752.26 Z" />
<path fill="#ffff01" opacity="1.00" d=" M 169.94 754.32 C 170.30 754.46 171.03 754.75 171.39 754.89 C 171.82 757.60 168.42 756.29 169.94 754.32 Z" />
<path fill="#ffff01" opacity="1.00" d=" M 174.05 755.87 C 175.14 755.97 176.16 756.30 177.11 756.86 C 176.30 758.68 173.63 757.81 174.05 755.87 Z" />
<path fill="#ffff01" opacity="1.00" d=" M 502.37 758.40 L 502.68 758.30 C 502.60 758.33 502.44 758.37 502.37 758.40 Z" />
<path fill="#ffff01" opacity="1.00" d=" M 506.26 758.26 C 506.78 758.78 506.78 758.78 506.26 758.26 Z" />
<path fill="#ffff01" opacity="1.00" d=" M 515.09 758.28 C 518.40 758.44 513.54 761.26 515.09 758.28 Z" />
<path fill="#ffff01" opacity="1.00" d=" M 622.25 758.26 C 622.78 758.79 622.78 758.79 622.25 758.26 Z" />
<path fill="#ffff01" opacity="1.00" d=" M 964.26 758.25 C 964.78 758.78 964.78 758.78 964.26 758.25 Z" />
<path fill="#ffff01" opacity="1.00" d=" M 645.26 764.26 C 645.78 764.79 645.78 764.79 645.26 764.26 Z" />
<path fill="#ffff01" opacity="1.00" d=" M 189.26 765.26 C 189.79 765.78 189.79 765.78 189.26 765.26 Z" />
<path fill="#ffff01" opacity="1.00" d=" M 487.26 765.26 C 487.79 765.79 487.79 765.79 487.26 765.26 Z" />
<path fill="#ffff01" opacity="1.00" d=" M 490.25 765.26 C 490.78 765.78 490.78 765.78 490.25 765.26 Z" />
<path fill="#ffff01" opacity="1.00" d=" M 936.26 766.26 C 936.78 766.78 936.78 766.78 936.26 766.26 Z" />
<path fill="#ffff01" opacity="1.00" d=" M 666.26 772.25 C 666.78 772.79 666.78 772.79 666.26 772.25 Z" />
<path fill="#ffff01" opacity="1.00" d=" M 454.26 774.25 C 454.79 774.78 454.79 774.78 454.26 774.25 Z" />
<path fill="#ffff01" opacity="1.00" d=" M 684.26 774.26 C 684.78 774.78 684.78 774.78 684.26 774.26 Z" />
<path fill="#ffff01" opacity="1.00" d=" M 871.28 779.28 L 871.74 779.23 C 871.62 779.24 871.39 779.27 871.28 779.28 Z" />
<path fill="#ffff01" opacity="1.00" d=" M 421.06 780.65 C 421.74 779.76 424.09 779.74 424.06 781.20 C 423.68 782.82 420.69 782.32 421.06 780.65 Z" />
<path fill="#ffff01" opacity="1.00" d=" M 266.25 781.25 C 266.78 781.78 266.78 781.78 266.25 781.25 Z" />
<path fill="#ffff01" opacity="1.00" d=" M 714.26 781.26 C 714.79 781.79 714.79 781.79 714.26 781.26 Z" />
<path fill="#ffff01" opacity="1.00" d=" M 721.11 781.37 C 722.48 780.99 722.99 781.49 722.64 782.89 C 721.23 783.27 720.72 782.76 721.11 781.37 Z" />
<path fill="#ffff01" opacity="1.00" d=" M 866.25 781.26 C 866.77 781.78 866.77 781.78 866.25 781.26 Z" />
<path fill="#ffff01" opacity="1.00" d=" M 252.26 782.26 C 252.79 782.78 252.79 782.78 252.26 782.26 Z" />
<path fill="#ffff01" opacity="1.00" d=" M 268.26 782.26 C 268.78 782.79 268.78 782.79 268.26 782.26 Z" />
<path fill="#ffff01" opacity="1.00" d=" M 711.25 782.26 C 711.78 782.78 711.78 782.78 711.25 782.26 Z" />
<path fill="#ffff01" opacity="1.00" d=" M 860.26 782.26 C 860.78 782.78 860.78 782.78 860.26 782.26 Z" />
<path fill="#ffff01" opacity="1.00" d=" M 875.26 782.25 C 875.78 782.78 875.78 782.78 875.26 782.25 Z" />
<path fill="#ffff01" opacity="1.00" d=" M 385.45 783.21 L 385.90 783.15 C 385.78 783.20 385.53 783.30 385.41 783.35 L 385.45 783.21 Z" />
<path fill="#ffff01" opacity="1.00" d=" M 406.26 783.26 C 406.79 783.78 406.79 783.78 406.26 783.26 Z" />
<path fill="#ffff01" opacity="1.00" d=" M 752.19 783.32 L 752.58 783.38 C 752.48 783.36 752.29 783.34 752.19 783.32 Z" />
</g>
<g id="#018001ff">
<path fill="#018001" opacity="1.00" d=" M 294.70 332.81 C 296.38 332.02 298.03 330.90 299.97 330.98 C 306.07 330.83 312.17 331.21 318.27 331.29 C 310.45 332.25 302.55 332.20 294.70 332.81 Z" />
<path fill="#018001" opacity="1.00" d=" M 363.74 331.30 C 367.94 331.14 372.19 330.73 376.33 331.69 C 372.13 332.07 367.89 332.10 363.74 331.30 Z" />
<path fill="#018001" opacity="1.00" d=" M 759.70 331.60 C 763.83 330.76 768.05 331.18 772.23 331.29 C 768.09 332.05 763.87 332.11 759.70 331.60 Z" />
<path fill="#018001" opacity="1.00" d=" M 817.74 331.30 C 821.94 331.16 826.21 330.71 830.36 331.65 C 826.15 332.02 821.90 332.16 817.74 331.30 Z" />
<path fill="#018001" opacity="1.00" d=" M 380.96 332.28 C 382.97 331.53 385.18 331.56 387.06 332.68 C 385.05 333.53 382.78 333.56 380.96 332.28 Z" />
<path fill="#018001" opacity="1.00" d=" M 748.97 332.74 C 750.81 331.57 753.02 331.52 755.06 332.21 C 753.26 333.54 750.98 333.54 748.97 332.74 Z" />
<path fill="#018001" opacity="1.00" d=" M 833.77 332.24 C 836.65 332.11 839.57 332.01 842.39 332.76 C 839.50 332.89 836.60 332.90 833.77 332.24 Z" />
<path fill="#018001" opacity="1.00" d=" M 284.91 333.83 C 286.35 332.54 288.34 332.51 290.06 333.22 C 288.59 334.42 286.63 334.53 284.91 333.83 Z" />
<path fill="#018001" opacity="1.00" d=" M 391.97 333.10 C 393.77 332.58 395.67 332.78 397.38 333.56 C 395.63 334.50 393.44 334.61 391.97 333.10 Z" />
<path fill="#018001" opacity="1.00" d=" M 738.92 333.81 C 740.35 332.55 742.33 332.52 744.05 333.22 C 742.58 334.44 740.61 334.54 738.92 333.81 Z" />
<path fill="#018001" opacity="1.00" d=" M 845.00 333.28 C 847.00 332.57 849.27 332.43 851.07 333.79 C 849.04 334.54 846.82 334.47 845.00 333.28 Z" />
<path fill="#018001" opacity="1.00" d=" M 276.90 334.88 C 277.97 333.66 279.65 333.49 281.08 334.13 C 280.01 335.35 278.33 335.55 276.90 334.88 Z" />
<path fill="#018001" opacity="1.00" d=" M 400.77 334.10 C 402.57 333.58 404.60 333.54 406.11 334.82 C 404.31 335.50 402.28 335.37 400.77 334.10 Z" />
<path fill="#018001" opacity="1.00" d=" M 729.88 334.83 C 731.32 333.52 733.33 333.52 735.06 334.23 C 733.56 335.40 731.60 335.52 729.88 334.83 Z" />
<path fill="#018001" opacity="1.00" d=" M 854.92 334.15 C 856.34 333.50 858.03 333.67 859.14 334.87 C 857.68 335.55 855.99 335.35 854.92 334.15 Z" />
<path fill="#018001" opacity="1.00" d=" M 268.89 335.95 C 269.91 334.63 271.64 334.49 273.09 335.13 C 272.00 336.31 270.34 336.52 268.89 335.95 Z" />
<path fill="#018001" opacity="1.00" d=" M 408.89 335.14 C 410.34 334.50 412.02 334.67 413.12 335.89 C 411.66 336.55 409.98 336.35 408.89 335.14 Z" />
<path fill="#018001" opacity="1.00" d=" M 722.87 335.81 C 723.98 334.62 725.66 334.49 727.10 335.16 C 725.98 336.34 724.29 336.51 722.87 335.81 Z" />
<path fill="#018001" opacity="1.00" d=" M 861.91 335.23 C 863.63 334.53 865.65 334.52 867.11 335.85 C 865.35 336.53 863.40 336.39 861.91 335.23 Z" />
<path fill="#018001" opacity="1.00" d=" M 262.87 336.94 C 263.69 335.88 264.75 335.55 266.05 335.96 C 265.34 337.24 264.28 337.56 262.87 336.94 Z" />
<path fill="#018001" opacity="1.00" d=" M 415.89 336.14 C 417.35 335.50 419.04 335.67 420.16 336.88 C 418.69 337.53 417.00 337.33 415.89 336.14 Z" />
<path fill="#018001" opacity="1.00" d=" M 715.89 336.97 C 716.89 335.63 718.62 335.47 720.10 336.08 C 719.01 337.26 717.35 337.52 715.89 336.97 Z" />
<path fill="#018001" opacity="1.00" d=" M 869.90 336.06 C 871.33 335.43 872.38 335.78 873.04 337.11 C 871.74 337.45 870.69 337.10 869.90 336.06 Z" />
<path fill="#018001" opacity="1.00" d=" M 254.88 337.85 C 256.32 336.51 258.35 336.52 260.09 337.23 C 258.57 338.36 256.62 338.53 254.88 337.85 Z" />
<path fill="#018001" opacity="1.00" d=" M 421.88 337.16 C 423.33 336.50 425.05 336.64 426.16 337.90 C 424.68 338.53 423.01 338.30 421.88 337.16 Z" />
<path fill="#018001" opacity="1.00" d=" M 709.85 337.95 C 710.67 336.89 711.73 336.56 713.04 336.96 C 712.33 338.23 711.27 338.57 709.85 337.95 Z" />
<path fill="#018001" opacity="1.00" d=" M 875.96 336.89 C 877.24 336.53 878.27 336.89 879.06 337.97 C 877.62 338.57 876.58 338.21 875.96 336.89 Z" />
<path fill="#018001" opacity="1.00" d=" M 880.47 338.01 C 881.95 336.87 884.15 337.18 885.00 338.95 C 883.40 339.29 881.77 338.97 880.47 338.01 Z" />
<path fill="#018001" opacity="1.00" d=" M 250.84 338.96 C 251.69 337.80 252.78 337.50 254.12 338.05 C 253.26 339.19 252.17 339.49 250.84 338.96 Z" />
<path fill="#018001" opacity="1.00" d=" M 427.88 338.15 C 429.30 337.46 430.99 337.63 432.05 338.88 C 430.61 339.54 428.96 339.33 427.88 338.15 Z" />
<path fill="#018001" opacity="1.00" d=" M 433.49 339.05 C 434.63 337.71 436.85 338.25 437.03 340.08 C 435.75 340.15 434.56 339.81 433.49 339.05 Z" />
<path fill="#018001" opacity="1.00" d=" M 703.87 338.91 C 704.93 337.64 706.65 337.49 708.12 338.15 C 706.98 339.30 705.32 339.54 703.87 338.91 Z" />
<path fill="#018001" opacity="1.00" d=" M 244.87 339.91 C 245.94 338.64 247.65 338.49 249.11 339.13 C 247.99 340.30 246.32 340.53 244.87 339.91 Z" />
<path fill="#018001" opacity="1.00" d=" M 698.88 339.79 C 699.77 338.75 700.86 338.50 702.14 339.06 C 701.26 340.24 700.18 340.48 698.88 339.79 Z" />
<path fill="#018001" opacity="1.00" d=" M 239.88 340.63 C 240.84 339.68 241.93 339.49 243.15 340.09 C 242.23 341.25 241.14 341.44 239.88 340.63 Z" />
<path fill="#018001" opacity="1.00" d=" M 438.94 339.93 C 440.24 339.55 441.30 339.90 442.12 340.97 C 440.68 341.56 439.62 341.22 438.94 339.93 Z" />
<path fill="#018001" opacity="1.00" d=" M 443.89 341.04 C 445.21 340.51 446.30 340.82 447.15 341.95 C 445.81 342.51 444.73 342.21 443.89 341.04 Z" />
<path fill="#018001" opacity="1.00" d=" M 688.86 341.81 C 689.70 340.77 690.75 340.50 692.02 340.99 C 691.22 342.25 690.17 342.52 688.86 341.81 Z" />
<path fill="#018001" opacity="1.00" d=" M 897.00 341.11 C 898.41 340.49 900.10 340.64 901.12 341.94 C 899.67 342.59 898.03 342.32 897.00 341.11 Z" />
<path fill="#018001" opacity="1.00" d=" M 229.90 342.80 C 230.97 341.62 232.59 341.49 234.01 342.08 C 233.00 343.35 231.29 343.58 229.90 342.80 Z" />
<path fill="#018001" opacity="1.00" d=" M 447.89 342.19 C 449.29 341.52 450.95 341.60 452.13 342.69 C 450.74 343.51 449.02 343.38 447.89 342.19 Z" />
<path fill="#018001" opacity="1.00" d=" M 901.91 342.03 C 903.24 341.53 904.34 341.85 905.20 342.99 C 903.84 343.52 902.74 343.20 901.91 342.03 Z" />
<path fill="#018001" opacity="1.00" d=" M 905.95 343.34 C 907.22 342.38 909.96 341.34 910.16 343.81 C 908.73 344.06 907.20 344.15 905.95 343.34 Z" />
<path fill="#018001" opacity="1.00" d=" M 679.88 344.01 C 680.63 342.82 681.68 342.49 683.01 343.01 C 682.24 344.20 681.19 344.54 679.88 344.01 Z" />
<path fill="#018001" opacity="1.00" d=" M 456.99 344.04 C 458.31 343.49 459.35 343.81 460.13 345.01 C 458.81 345.53 457.76 345.21 456.99 344.04 Z" />
<path fill="#018001" opacity="1.00" d=" M 675.88 344.99 C 676.67 343.82 677.73 343.50 679.08 344.04 C 678.26 345.20 677.20 345.52 675.88 344.99 Z" />
<path fill="#018001" opacity="1.00" d=" M 460.91 345.06 C 462.16 344.49 463.24 344.73 464.14 345.77 C 462.85 346.48 461.77 346.24 460.91 345.06 Z" />
<path fill="#018001" opacity="1.00" d=" M 671.88 346.00 C 672.67 344.82 673.73 344.50 675.07 345.04 C 674.26 346.20 673.20 346.52 671.88 346.00 Z" />
<path fill="#018001" opacity="1.00" d=" M 918.45 345.85 C 920.88 345.80 923.08 346.83 925.23 347.88 C 922.82 347.74 920.49 347.15 918.45 345.85 Z" />
<path fill="#018001" opacity="1.00" d=" M 468.81 347.24 C 469.79 346.97 470.77 346.71 471.77 346.47 C 472.90 347.30 474.06 348.10 475.21 348.94 C 473.06 348.41 470.89 347.98 468.81 347.24 Z" />
<path fill="#018001" opacity="1.00" d=" M 667.86 346.79 C 668.74 345.73 669.82 345.49 671.09 346.07 C 670.22 347.23 669.14 347.47 667.86 346.79 Z" />
<path fill="#018001" opacity="1.00" d=" M 210.87 347.86 C 211.64 346.74 212.67 346.43 213.95 346.93 C 213.21 348.18 212.18 348.49 210.87 347.86 Z" />
<path fill="#018001" opacity="1.00" d=" M 660.80 348.93 C 660.02 347.12 662.58 346.57 663.22 348.15 C 662.62 348.34 661.40 348.73 660.80 348.93 Z" />
<path fill="#018001" opacity="1.00" d=" M 203.80 349.81 C 204.37 349.62 205.50 349.24 206.07 349.06 C 205.50 349.24 204.37 349.62 203.80 349.81 Z" />
<path fill="#018001" opacity="1.00" d=" M 929.04 348.95 C 930.28 348.45 931.32 348.73 932.15 349.79 C 930.83 350.49 929.80 350.22 929.04 348.95 Z" />
<path fill="#018001" opacity="1.00" d=" M 479.05 349.94 C 480.29 349.47 481.32 349.77 482.13 350.85 C 480.80 351.53 479.77 351.23 479.05 349.94 Z" />
<path fill="#018001" opacity="1.00" d=" M 482.73 351.23 C 483.22 349.47 485.79 350.24 484.99 351.99 C 484.43 351.80 483.30 351.42 482.73 351.23 Z" />
<path fill="#018001" opacity="1.00" d=" M 653.90 351.08 C 654.43 350.81 655.49 350.26 656.01 349.99 C 655.49 350.26 654.43 350.81 653.90 351.08 Z" />
<path fill="#018001" opacity="1.00" d=" M 196.84 351.83 C 197.64 350.72 198.68 350.43 199.96 350.96 C 199.18 352.18 198.14 352.48 196.84 351.83 Z" />
<path fill="#018001" opacity="1.00" d=" M 485.60 352.12 C 486.20 350.41 488.42 351.23 488.13 352.89 C 487.50 352.70 486.24 352.31 485.60 352.12 Z" />
<path fill="#018001" opacity="1.00" d=" M 650.85 351.82 C 651.41 351.60 652.52 351.18 653.08 350.96 C 652.52 351.18 651.41 351.60 650.85 351.82 Z" />
<path fill="#018001" opacity="1.00" d=" M 939.07 351.91 C 940.40 351.46 941.41 351.85 942.11 353.07 C 940.75 353.54 939.74 353.16 939.07 351.91 Z" />
<path fill="#018001" opacity="1.00" d=" M 190.87 354.06 C 191.39 353.77 192.41 353.17 192.92 352.88 C 192.41 353.17 191.39 353.77 190.87 354.06 Z" />
<path fill="#018001" opacity="1.00" d=" M 942.94 352.96 C 943.48 353.24 944.55 353.78 945.08 354.05 C 944.55 353.78 943.48 353.24 942.94 352.96 Z" />
<path fill="#018001" opacity="1.00" d=" M 187.91 355.06 C 188.44 354.79 189.50 354.25 190.03 353.98 C 189.50 354.25 188.44 354.79 187.91 355.06 Z" />
<path fill="#018001" opacity="1.00" d=" M 945.95 353.96 C 946.48 354.23 947.54 354.77 948.07 355.04 C 947.54 354.77 946.48 354.23 945.95 353.96 Z" />
<path fill="#018001" opacity="1.00" d=" M 180.80 356.93 C 180.68 354.69 183.10 354.90 184.13 356.29 C 183.08 356.83 181.97 357.05 180.80 356.93 Z" />
<path fill="#018001" opacity="1.00" d=" M 184.86 356.03 C 185.41 355.76 186.50 355.24 187.04 354.97 C 186.50 355.24 185.41 355.76 184.86 356.03 Z" />
<path fill="#018001" opacity="1.00" d=" M 948.90 354.95 C 949.43 355.21 950.49 355.73 951.03 355.99 C 950.49 355.73 949.43 355.21 948.90 354.95 Z" />
<path fill="#018001" opacity="1.00" d=" M 508.18 356.10 C 509.44 356.74 509.39 357.41 508.05 358.13 C 506.77 357.48 506.82 356.80 508.18 356.10 Z" />
<path fill="#018001" opacity="1.00" d=" M 176.71 358.84 C 176.32 357.19 178.63 356.44 179.15 358.11 C 178.54 358.29 177.32 358.66 176.71 358.84 Z" />
<path fill="#018001" opacity="1.00" d=" M 501.04 356.93 C 501.55 357.22 502.58 357.80 503.09 358.09 C 502.58 357.80 501.55 357.22 501.04 356.93 Z" />
<path fill="#018001" opacity="1.00" d=" M 503.90 358.01 C 504.46 358.20 505.59 358.58 506.15 358.77 C 505.59 358.58 504.46 358.20 503.90 358.01 Z" />
<path fill="#018001" opacity="1.00" d=" M 629.86 358.93 C 630.40 358.68 631.47 358.18 632.01 357.93 C 631.47 358.18 630.40 358.68 629.86 358.93 Z" />
<path fill="#018001" opacity="1.00" d=" M 636.16 386.29 C 700.64 362.32 770.70 355.00 839.03 360.92 C 900.83 366.50 962.38 383.79 1015.29 416.79 C 1036.19 430.25 1055.71 446.16 1071.56 465.40 C 1083.18 479.93 1093.31 495.93 1099.29 513.64 C 1106.76 534.25 1108.53 556.77 1105.31 578.39 C 1101.33 604.58 1088.82 628.81 1072.28 649.25 C 1069.07 653.69 1064.76 657.16 1061.47 661.53 C 1059.16 664.51 1056.35 667.03 1053.39 669.33 C 1036.83 684.94 1017.91 697.94 997.98 708.88 C 990.89 712.49 983.77 716.04 976.64 719.58 C 932.37 739.62 884.40 750.81 836.07 754.86 C 826.09 756.06 816.01 755.69 806.01 756.61 C 769.21 757.21 732.30 754.10 696.24 746.60 C 660.48 738.93 625.36 727.21 593.16 709.72 C 594.03 708.76 594.89 707.78 596.00 707.08 C 603.17 702.04 609.64 696.11 616.31 690.44 C 620.34 691.47 623.87 693.75 627.68 695.35 C 673.44 715.44 723.26 724.90 772.97 727.71 C 788.31 728.06 803.67 728.09 819.02 727.62 C 848.93 725.57 878.81 721.65 907.82 713.91 C 947.72 703.33 986.67 686.95 1019.47 661.52 C 1026.02 656.80 1031.59 650.93 1037.85 645.86 C 1041.60 641.26 1045.77 637.04 1049.57 632.49 C 1064.14 614.73 1074.85 593.24 1077.49 570.24 C 1080.62 547.95 1075.15 525.07 1064.64 505.38 C 1054.08 486.14 1039.12 469.55 1021.95 455.97 C 1000.92 439.03 976.85 426.15 951.88 416.05 C 919.90 403.24 886.11 395.30 851.97 391.02 C 815.42 386.57 778.34 386.39 741.75 390.50 C 698.50 395.45 655.74 406.54 616.39 425.36 C 600.32 433.33 584.73 442.47 570.54 453.50 C 569.25 454.48 567.31 455.33 565.92 454.05 C 561.49 450.81 557.24 447.31 552.64 444.31 C 549.88 442.39 546.73 441.02 544.34 438.60 C 571.44 415.75 603.07 398.72 636.16 386.29 Z" />
<path fill="#018001" opacity="1.00" d=" M 960.00 358.92 C 960.54 359.16 961.62 359.65 962.16 359.89 C 961.62 359.65 960.54 359.16 960.00 358.92 Z" />
<path fill="#018001" opacity="1.00" d=" M 170.80 360.85 C 171.35 360.62 172.45 360.16 172.99 359.93 C 172.45 360.16 171.35 360.62 170.80 360.85 Z" />
<path fill="#018001" opacity="1.00" d=" M 165.80 362.83 C 166.36 362.62 167.48 362.22 168.03 362.01 C 167.48 362.22 166.36 362.62 165.80 362.83 Z" />
<path fill="#018001" opacity="1.00" d=" M 967.99 361.94 C 968.54 362.17 969.63 362.63 970.17 362.86 C 969.63 362.63 968.54 362.17 967.99 361.94 Z" />
<path fill="#018001" opacity="1.00" d=" M 616.83 363.87 C 617.38 363.64 618.47 363.19 619.02 362.96 C 618.47 363.19 617.38 363.64 616.83 363.87 Z" />
<path fill="#018001" opacity="1.00" d=" M 160.80 364.78 C 161.36 364.59 162.48 364.21 163.05 364.02 C 162.48 364.21 161.36 364.59 160.80 364.78 Z" />
<path fill="#018001" opacity="1.00" d=" M 523.97 365.98 C 524.53 366.19 525.63 366.62 526.18 366.84 C 525.63 366.62 524.53 366.19 523.97 365.98 Z" />
<path fill="#018001" opacity="1.00" d=" M 153.80 367.81 C 154.36 367.61 155.47 367.21 156.03 367.01 C 155.47 367.21 154.36 367.61 153.80 367.81 Z" />
<path fill="#018001" opacity="1.00" d=" M 602.79 369.76 C 603.35 369.58 604.48 369.21 605.04 369.02 C 604.48 369.21 603.35 369.58 602.79 369.76 Z" />
<path fill="#018001" opacity="1.00" d=" M 1113.20 476.77 C 1114.47 477.33 1115.19 478.58 1115.13 479.99 C 1113.38 480.07 1112.75 478.17 1113.20 476.77 Z" />
<path fill="#018001" opacity="1.00" d=" M 15.00 492.03 C 15.20 491.47 15.60 490.36 15.81 489.80 C 15.60 490.36 15.20 491.47 15.00 492.03 Z" />
<path fill="#018001" opacity="1.00" d=" M 12.02 499.05 C 12.21 498.49 12.59 497.36 12.78 496.80 C 12.59 497.36 12.21 498.49 12.02 499.05 Z" />
<path fill="#018001" opacity="1.00" d=" M 1124.09 499.86 C 1124.33 500.40 1124.82 501.47 1125.07 502.01 C 1124.82 501.47 1124.33 500.40 1124.09 499.86 Z" />
<path fill="#018001" opacity="1.00" d=" M 9.98 504.09 C 10.19 503.53 10.61 502.41 10.82 501.85 C 10.61 502.41 10.19 503.53 9.98 504.09 Z" />
<path fill="#018001" opacity="1.00" d=" M 8.96 507.05 C 9.24 506.52 9.79 505.46 10.07 504.93 C 9.79 505.46 9.24 506.52 8.96 507.05 Z" />
<path fill="#018001" opacity="1.00" d=" M 7.96 510.05 C 8.23 509.52 8.77 508.45 9.05 507.92 C 8.77 508.45 8.23 509.52 7.96 510.05 Z" />
<path fill="#018001" opacity="1.00" d=" M 6.95 513.08 C 7.23 512.54 7.77 511.46 8.05 510.93 C 7.77 511.46 7.23 512.54 6.95 513.08 Z" />
<path fill="#018001" opacity="1.00" d=" M 1128.18 511.70 C 1129.97 511.32 1130.37 513.66 1128.76 514.22 C 1128.62 513.59 1128.32 512.33 1128.18 511.70 Z" />
<path fill="#018001" opacity="1.00" d=" M 6.21 517.20 C 4.63 516.70 5.23 514.17 6.91 514.80 C 6.73 515.40 6.39 516.60 6.21 517.20 Z" />
<path fill="#018001" opacity="1.00" d=" M 1129.05 514.89 C 1129.29 515.43 1129.78 516.50 1130.02 517.04 C 1129.78 516.50 1129.29 515.43 1129.05 514.89 Z" />
<path fill="#018001" opacity="1.00" d=" M 4.95 521.05 C 4.63 519.84 4.89 518.78 5.72 517.88 C 6.63 519.23 6.37 520.28 4.95 521.05 Z" />
<path fill="#018001" opacity="1.00" d=" M 4.16 525.33 C 2.72 524.17 3.10 522.11 5.01 521.84 C 5.15 523.09 4.86 524.25 4.16 525.33 Z" />
<path fill="#018001" opacity="1.00" d=" M 1131.20 522.85 C 1132.22 523.70 1132.48 524.75 1131.99 526.01 C 1130.72 525.20 1130.46 524.15 1131.20 522.85 Z" />
<path fill="#018001" opacity="1.00" d=" M 3.32 530.29 C 1.47 529.44 2.12 527.04 4.01 526.86 C 4.01 528.05 3.78 529.19 3.32 530.29 Z" />
<path fill="#018001" opacity="1.00" d=" M 2.15 536.09 C 1.51 534.64 1.69 533.00 2.79 531.85 C 3.57 533.26 3.36 534.98 2.15 536.09 Z" />
<path fill="#018001" opacity="1.00" d=" M 1133.38 532.90 C 1134.37 534.08 1134.46 535.68 1133.81 537.07 C 1132.55 535.98 1132.44 534.22 1133.38 532.90 Z" />
<path fill="#018001" opacity="1.00" d=" M 1133.96 538.73 L 1135.00 539.28 L 1135.00 547.58 C 1134.41 544.66 1134.00 541.71 1133.96 538.73 Z" />
<path fill="#018001" opacity="1.00" d=" M 1.14 545.04 C 0.53 543.31 0.61 541.37 1.81 539.92 C 2.56 541.63 2.49 543.64 1.14 545.04 Z" />
<path fill="#018001" opacity="1.00" d=" M 1.20 570.00 C 2.47 571.81 2.57 574.06 1.78 576.10 C 0.48 574.28 0.57 572.03 1.20 570.00 Z" />
<path fill="#018001" opacity="1.00" d=" M 2.15 578.90 C 3.34 580.01 3.54 581.69 2.88 583.15 C 1.67 582.03 1.50 580.34 2.15 578.90 Z" />
<path fill="#018001" opacity="1.00" d=" M 3.15 584.88 C 4.20 585.99 4.78 587.73 3.78 589.10 C 2.62 587.98 2.61 586.29 3.15 584.88 Z" />
<path fill="#018001" opacity="1.00" d=" M 1132.00 588.13 C 1131.47 586.81 1131.79 585.75 1132.97 584.96 C 1133.50 586.29 1133.17 587.34 1132.00 588.13 Z" />
<path fill="#018001" opacity="1.00" d=" M 4.21 589.75 C 4.84 590.74 5.06 591.85 4.90 593.07 C 3.00 593.05 2.62 590.57 4.21 589.75 Z" />
<path fill="#018001" opacity="1.00" d=" M 1130.98 593.10 C 1130.47 591.76 1130.79 590.69 1131.96 589.90 C 1132.48 591.23 1132.16 592.30 1130.98 593.10 Z" />
<path fill="#018001" opacity="1.00" d=" M 1130.20 597.02 C 1129.47 595.71 1129.74 594.66 1131.01 593.89 C 1131.50 595.13 1131.23 596.18 1130.20 597.02 Z" />
<path fill="#018001" opacity="1.00" d=" M 1129.05 600.07 C 1129.24 599.46 1129.60 598.25 1129.79 597.65 C 1131.50 598.01 1130.61 600.53 1129.05 600.07 Z" />
<path fill="#018001" opacity="1.00" d=" M 6.01 598.97 C 7.24 599.75 7.52 600.79 6.87 602.10 C 5.77 601.28 5.48 600.24 6.01 598.97 Z" />
<path fill="#018001" opacity="1.00" d=" M 1127.95 604.08 C 1128.21 603.54 1128.74 602.44 1129.00 601.89 C 1128.74 602.44 1128.21 603.54 1127.95 604.08 Z" />
<path fill="#018001" opacity="1.00" d=" M 1126.94 607.17 C 1127.22 606.62 1127.76 605.52 1128.04 604.97 C 1127.76 605.52 1127.22 606.62 1126.94 607.17 Z" />
<path fill="#018001" opacity="1.00" d=" M 1125.14 613.06 C 1125.05 611.18 1125.59 609.36 1126.89 607.97 C 1127.47 609.85 1127.34 612.35 1125.14 613.06 Z" />
<path fill="#018001" opacity="1.00" d=" M 11.00 614.03 C 11.25 614.41 11.73 615.16 11.98 615.54 L 11.58 616.42 C 11.44 615.82 11.15 614.63 11.00 614.03 Z" />
<path fill="#018001" opacity="1.00" d=" M 12.93 618.89 L 13.70 619.38 C 13.72 619.83 13.75 620.72 13.76 621.16 C 13.55 620.59 13.13 619.46 12.93 618.89 Z" />
<path fill="#018001" opacity="1.00" d=" M 1121.11 622.99 C 1121.38 622.48 1121.92 621.47 1122.20 620.96 C 1121.92 621.47 1121.38 622.48 1121.11 622.99 Z" />
<path fill="#018001" opacity="1.00" d=" M 573.98 730.88 C 574.44 731.24 575.38 731.96 575.84 732.32 C 575.38 731.96 574.44 731.24 573.98 730.88 Z" />
<path fill="#018001" opacity="1.00" d=" M 603.81 746.20 C 604.37 746.40 605.49 746.79 606.04 746.99 C 605.49 746.79 604.37 746.40 603.81 746.20 Z" />
<path fill="#018001" opacity="1.00" d=" M 154.81 748.19 C 155.37 748.40 156.48 748.81 157.03 749.01 C 156.48 748.81 155.37 748.40 154.81 748.19 Z" />
<path fill="#018001" opacity="1.00" d=" M 522.97 750.01 C 523.53 749.80 524.63 749.38 525.19 749.16 C 524.63 749.38 523.53 749.80 522.97 750.01 Z" />
<path fill="#018001" opacity="1.00" d=" M 166.89 753.18 C 167.46 753.38 168.59 753.79 169.16 753.99 C 168.59 753.79 167.46 753.38 166.89 753.18 Z" />
<path fill="#018001" opacity="1.00" d=" M 507.99 756.07 C 508.53 755.83 509.62 755.36 510.16 755.13 C 509.62 755.36 508.53 755.83 507.99 756.07 Z" />
<path fill="#018001" opacity="1.00" d=" M 625.84 755.12 C 626.38 755.35 627.47 755.83 628.01 756.06 C 627.47 755.83 626.38 755.35 625.84 755.12 Z" />
<path fill="#018001" opacity="1.00" d=" M 958.91 757.01 C 959.46 756.80 960.57 756.36 961.12 756.15 C 960.57 756.36 959.46 756.80 958.91 757.01 Z" />
<path fill="#018001" opacity="1.00" d=" M 626.19 757.09 C 627.44 757.73 627.39 758.41 626.05 759.12 C 624.77 758.47 624.82 757.79 626.19 757.09 Z" />
<path fill="#018001" opacity="1.00" d=" M 956.08 758.14 C 956.59 757.84 957.59 757.23 958.09 756.92 C 957.59 757.23 956.59 757.84 956.08 758.14 Z" />
<path fill="#018001" opacity="1.00" d=" M 633.89 758.14 C 634.44 758.36 635.55 758.81 636.10 759.04 C 635.55 758.81 634.44 758.36 633.89 758.14 Z" />
<path fill="#018001" opacity="1.00" d=" M 496.92 760.05 C 497.47 759.81 498.58 759.34 499.13 759.11 C 498.58 759.34 497.47 759.81 496.92 760.05 Z" />
<path fill="#018001" opacity="1.00" d=" M 636.93 758.94 C 637.46 759.21 638.52 759.76 639.04 760.04 C 638.52 759.76 637.46 759.21 636.93 758.94 Z" />
<path fill="#018001" opacity="1.00" d=" M 493.85 761.03 C 494.40 760.76 495.50 760.23 496.05 759.96 C 495.50 760.23 494.40 760.76 493.85 761.03 Z" />
<path fill="#018001" opacity="1.00" d=" M 639.91 759.95 C 640.44 760.22 641.51 760.76 642.04 761.04 C 641.51 760.76 640.44 760.22 639.91 759.95 Z" />
<path fill="#018001" opacity="1.00" d=" M 946.65 760.97 C 947.27 760.76 948.53 760.35 949.15 760.14 C 949.42 761.67 947.11 762.77 946.65 760.97 Z" />
<path fill="#018001" opacity="1.00" d=" M 487.97 762.99 C 488.99 761.14 491.15 760.81 493.07 761.06 C 491.84 762.58 489.93 763.53 487.97 762.99 Z" />
<path fill="#018001" opacity="1.00" d=" M 642.91 760.95 C 643.44 761.22 644.50 761.76 645.03 762.03 C 644.50 761.76 643.44 761.22 642.91 760.95 Z" />
<path fill="#018001" opacity="1.00" d=" M 645.87 761.94 C 646.39 762.23 647.42 762.81 647.94 763.10 C 647.42 762.81 646.39 762.23 645.87 761.94 Z" />
<path fill="#018001" opacity="1.00" d=" M 484.08 764.07 C 484.80 762.87 485.82 762.48 487.13 762.88 C 486.51 764.15 485.49 764.55 484.08 764.07 Z" />
<path fill="#018001" opacity="1.00" d=" M 934.90 765.06 C 935.46 764.84 936.57 764.39 937.13 764.16 C 936.57 764.39 935.46 764.84 934.90 765.06 Z" />
<path fill="#018001" opacity="1.00" d=" M 201.91 765.04 C 203.05 765.01 204.12 765.28 205.12 765.85 C 204.36 767.60 201.72 766.95 201.91 765.04 Z" />
<path fill="#018001" opacity="1.00" d=" M 930.86 765.95 C 931.68 764.81 932.75 764.49 934.07 764.97 C 933.28 766.18 932.21 766.51 930.86 765.95 Z" />
<path fill="#018001" opacity="1.00" d=" M 474.04 767.04 C 474.80 765.76 475.83 765.49 477.14 766.21 C 476.32 767.25 475.28 767.53 474.04 767.04 Z" />
<path fill="#018001" opacity="1.00" d=" M 658.86 766.15 C 660.16 765.48 661.19 765.78 661.96 767.04 C 660.68 767.54 659.64 767.24 658.86 766.15 Z" />
<path fill="#018001" opacity="1.00" d=" M 924.94 767.93 C 926.35 766.57 928.23 766.00 930.19 766.13 C 929.16 768.12 926.93 768.58 924.94 767.93 Z" />
<path fill="#018001" opacity="1.00" d=" M 208.81 767.26 C 210.11 766.49 211.16 766.76 211.95 768.05 C 210.71 768.52 209.66 768.26 208.81 767.26 Z" />
<path fill="#018001" opacity="1.00" d=" M 665.85 768.22 C 667.13 767.52 668.21 767.76 669.09 768.93 C 667.81 769.50 666.73 769.26 665.85 768.22 Z" />
<path fill="#018001" opacity="1.00" d=" M 920.96 768.95 C 921.52 768.72 922.64 768.24 923.20 768.00 C 922.64 768.24 921.52 768.72 920.96 768.95 Z" />
<path fill="#018001" opacity="1.00" d=" M 462.88 769.81 C 463.99 768.64 465.65 768.45 467.06 769.17 C 465.98 770.38 464.28 770.50 462.88 769.81 Z" />
<path fill="#018001" opacity="1.00" d=" M 669.88 769.01 C 671.20 768.47 672.27 768.79 673.07 769.98 C 671.73 770.49 670.67 770.17 669.88 769.01 Z" />
<path fill="#018001" opacity="1.00" d=" M 458.99 770.72 C 459.96 770.18 461.00 769.89 462.11 769.87 C 464.23 772.57 460.23 772.12 458.99 770.72 Z" />
<path fill="#018001" opacity="1.00" d=" M 673.88 769.99 C 675.21 769.47 676.27 769.81 677.07 771.00 C 675.72 771.49 674.66 771.16 673.88 769.99 Z" />
<path fill="#018001" opacity="1.00" d=" M 454.99 771.92 C 455.83 770.74 456.90 770.45 458.23 771.05 C 457.37 772.16 456.29 772.45 454.99 771.92 Z" />
<path fill="#018001" opacity="1.00" d=" M 677.88 770.97 C 679.21 770.46 680.28 770.80 681.08 771.99 C 679.72 772.49 678.65 772.15 677.88 770.97 Z" />
<path fill="#018001" opacity="1.00" d=" M 908.77 771.93 C 909.38 771.72 910.61 771.32 911.22 771.12 C 911.93 772.88 909.43 773.40 908.77 771.93 Z" />
<path fill="#018001" opacity="1.00" d=" M 681.90 772.01 C 683.30 771.42 684.35 771.76 685.06 773.01 C 683.74 773.44 682.69 773.11 681.90 772.01 Z" />
<path fill="#018001" opacity="1.00" d=" M 231.90 773.19 C 233.29 772.40 234.99 772.62 236.02 773.89 C 234.61 774.49 232.97 774.35 231.90 773.19 Z" />
<path fill="#018001" opacity="1.00" d=" M 445.99 773.91 C 447.01 772.62 448.73 772.40 450.12 773.24 C 449.01 774.36 447.39 774.49 445.99 773.91 Z" />
<path fill="#018001" opacity="1.00" d=" M 686.91 772.87 C 688.13 772.85 689.28 773.20 690.36 773.93 C 689.01 775.27 684.71 775.73 686.91 772.87 Z" />
<path fill="#018001" opacity="1.00" d=" M 899.96 773.93 C 900.79 772.72 901.85 772.49 903.15 773.23 C 902.25 774.25 901.19 774.48 899.96 773.93 Z" />
<path fill="#018001" opacity="1.00" d=" M 691.00 774.03 C 692.32 773.48 693.36 773.80 694.14 775.00 C 692.81 775.52 691.77 775.20 691.00 774.03 Z" />
<path fill="#018001" opacity="1.00" d=" M 436.92 775.91 C 437.78 774.71 438.85 774.49 440.14 775.24 C 439.23 776.25 438.16 776.47 436.92 775.91 Z" />
<path fill="#018001" opacity="1.00" d=" M 695.88 775.01 C 697.20 774.48 698.28 774.80 699.12 775.96 C 697.76 776.49 696.68 776.17 695.88 775.01 Z" />
<path fill="#018001" opacity="1.00" d=" M 247.89 776.17 C 249.20 775.50 250.28 775.75 251.14 776.94 C 249.85 777.48 248.77 777.23 247.89 776.17 Z" />
<path fill="#018001" opacity="1.00" d=" M 700.87 776.10 C 702.32 775.45 703.98 775.68 705.12 776.86 C 703.65 777.49 701.93 777.35 700.87 776.10 Z" />
<path fill="#018001" opacity="1.00" d=" M 884.86 776.95 C 885.71 775.76 886.80 775.50 888.12 776.17 C 887.22 777.23 886.14 777.49 884.86 776.95 Z" />
<path fill="#018001" opacity="1.00" d=" M 252.87 777.08 C 254.33 776.45 255.98 776.68 257.12 777.84 C 255.66 778.49 253.94 778.35 252.87 777.08 Z" />
<path fill="#018001" opacity="1.00" d=" M 424.45 777.99 C 425.76 777.01 427.40 776.69 429.00 777.08 C 428.14 778.83 425.93 779.08 424.45 777.99 Z" />
<path fill="#018001" opacity="1.00" d=" M 706.85 777.05 C 708.28 776.41 709.34 776.76 710.03 778.08 C 708.73 778.42 707.67 778.08 706.85 777.05 Z" />
<path fill="#018001" opacity="1.00" d=" M 878.88 777.86 C 879.99 776.69 881.65 776.45 883.13 777.09 C 882.04 778.35 880.32 778.50 878.88 777.86 Z" />
<path fill="#018001" opacity="1.00" d=" M 258.84 778.10 C 260.30 777.45 261.98 777.67 263.10 778.86 C 261.63 779.49 259.93 779.32 258.84 778.10 Z" />
<path fill="#018001" opacity="1.00" d=" M 418.88 778.87 C 419.96 777.65 421.63 777.45 423.07 778.14 C 421.98 779.33 420.31 779.52 418.88 778.87 Z" />
<path fill="#018001" opacity="1.00" d=" M 712.96 777.90 C 714.34 777.47 715.36 777.85 716.04 779.04 C 714.62 779.50 713.59 779.12 712.96 777.90 Z" />
<path fill="#018001" opacity="1.00" d=" M 872.62 779.11 C 873.77 777.82 875.54 777.45 877.14 778.11 C 875.89 779.23 874.19 779.50 872.62 779.11 Z" />
<path fill="#018001" opacity="1.00" d=" M 265.87 779.06 C 267.28 778.43 268.33 778.76 269.03 780.03 C 267.73 780.45 266.68 780.13 265.87 779.06 Z" />
<path fill="#018001" opacity="1.00" d=" M 412.89 779.85 C 414.00 778.65 415.69 778.45 417.16 779.12 C 416.04 780.32 414.34 780.48 412.89 779.85 Z" />
<path fill="#018001" opacity="1.00" d=" M 718.89 779.07 C 720.34 778.47 722.00 778.68 723.11 779.87 C 721.64 780.50 719.91 780.37 718.89 779.07 Z" />
<path fill="#018001" opacity="1.00" d=" M 865.97 780.07 C 866.84 778.37 868.96 778.66 870.42 779.33 C 869.07 780.15 867.49 780.39 865.97 780.07 Z" />
<path fill="#018001" opacity="1.00" d=" M 272.91 780.05 C 274.36 779.45 276.01 779.66 277.11 780.85 C 275.66 781.49 273.93 781.35 272.91 780.05 Z" />
<path fill="#018001" opacity="1.00" d=" M 404.92 780.77 C 406.41 779.59 408.37 779.46 410.12 780.17 C 408.66 781.46 406.64 781.46 404.92 780.77 Z" />
<path fill="#018001" opacity="1.00" d=" M 725.87 780.11 C 727.31 779.45 729.01 779.64 730.09 780.90 C 728.62 781.47 726.94 781.33 725.87 780.11 Z" />
<path fill="#018001" opacity="1.00" d=" M 859.00 780.67 C 860.29 780.25 861.62 779.59 863.05 779.88 C 863.22 780.37 863.57 781.36 863.75 781.85 C 862.07 781.98 860.50 781.25 859.00 780.67 Z" />
<path fill="#018001" opacity="1.00" d=" M 279.88 781.18 C 281.61 780.46 283.58 780.55 285.06 781.79 C 283.33 782.46 281.34 782.43 279.88 781.18 Z" />
<path fill="#018001" opacity="1.00" d=" M 396.94 781.76 C 398.44 780.59 400.39 780.46 402.12 781.18 C 400.67 782.47 398.65 782.46 396.94 781.76 Z" />
<path fill="#018001" opacity="1.00" d=" M 734.06 781.07 C 735.82 780.68 737.64 780.85 739.23 781.76 C 737.69 783.36 735.25 782.73 734.06 781.07 Z" />
<path fill="#018001" opacity="1.00" d=" M 850.93 781.87 C 851.97 780.61 853.67 780.42 855.10 781.15 C 854.00 782.32 852.34 782.49 850.93 781.87 Z" />
<path fill="#018001" opacity="1.00" d=" M 289.94 782.19 C 291.64 781.44 293.62 781.51 295.05 782.80 C 293.34 783.47 291.38 783.41 289.94 782.19 Z" />
<path fill="#018001" opacity="1.00" d=" M 386.68 782.94 C 388.54 781.49 390.93 781.46 393.07 782.27 C 391.11 783.40 388.83 783.35 386.68 782.94 Z" />
<path fill="#018001" opacity="1.00" d=" M 742.91 782.26 C 744.94 781.43 747.22 781.53 749.09 782.76 C 747.02 783.38 744.76 783.52 742.91 782.26 Z" />
<path fill="#018001" opacity="1.00" d=" M 840.96 782.80 C 842.37 781.52 844.34 781.44 846.06 782.18 C 844.61 783.42 842.65 783.47 840.96 782.80 Z" />
<path fill="#018001" opacity="1.00" d=" M 301.01 783.27 C 303.32 782.48 305.86 782.36 307.98 783.75 C 305.66 784.41 303.16 784.51 301.01 783.27 Z" />
<path fill="#018001" opacity="1.00" d=" M 373.74 783.71 C 376.59 783.09 379.50 783.03 382.40 783.31 C 379.55 783.88 376.63 783.92 373.74 783.71 Z" />
<path fill="#018001" opacity="1.00" d=" M 753.33 783.46 C 756.30 783.11 759.30 783.11 762.25 783.67 C 759.27 783.83 756.28 783.86 753.33 783.46 Z" />
<path fill="#018001" opacity="1.00" d=" M 828.01 783.74 C 830.13 782.36 832.67 782.48 835.00 783.27 C 832.84 784.51 830.33 784.42 828.01 783.74 Z" />
<path fill="#018001" opacity="1.00" d=" M 316.74 784.32 C 322.90 784.19 329.12 783.67 335.23 784.71 C 329.07 784.70 322.86 785.36 316.74 784.32 Z" />
<path fill="#018001" opacity="1.00" d=" M 347.74 784.72 C 353.52 783.62 359.42 784.23 365.26 784.33 C 359.46 785.31 353.58 784.75 347.74 784.72 Z" />
<path fill="#018001" opacity="1.00" d=" M 768.69 784.32 C 775.21 784.20 781.80 783.59 788.26 784.72 C 781.74 784.64 775.15 785.46 768.69 784.32 Z" />
<path fill="#018001" opacity="1.00" d=" M 800.77 784.72 C 807.22 783.67 813.79 784.12 820.30 784.31 C 813.85 785.50 807.27 784.60 800.77 784.72 Z" />
</g>
<g id="#000000ff">
<path fill="#000000" opacity="1.00" d=" M 318.27 331.29 C 325.83 330.68 333.42 331.13 341.00 331.00 C 348.58 331.13 356.18 330.67 363.74 331.30 C 367.89 332.10 372.13 332.07 376.33 331.69 C 377.87 331.88 379.41 332.08 380.96 332.28 C 382.78 333.56 385.05 333.53 387.06 332.68 C 388.69 332.81 390.33 332.96 391.97 333.10 C 393.44 334.61 395.63 334.50 397.38 333.56 L 398.24 333.69 L 398.68 333.76 C 399.20 333.84 400.25 334.01 400.77 334.10 C 402.28 335.37 404.31 335.50 406.11 334.82 C 406.81 334.90 408.20 335.06 408.89 335.14 C 409.98 336.35 411.66 336.55 413.12 335.89 C 413.81 335.95 415.20 336.07 415.89 336.14 C 417.00 337.33 418.69 337.53 420.16 336.88 C 420.59 336.95 421.45 337.09 421.88 337.16 C 423.01 338.30 424.68 338.53 426.16 337.90 C 426.59 337.96 427.45 338.08 427.88 338.15 C 428.96 339.33 430.61 339.54 432.05 338.88 C 432.41 338.92 433.13 339.00 433.49 339.05 C 434.56 339.81 435.75 340.15 437.03 340.08 C 437.51 340.04 438.46 339.97 438.94 339.93 C 439.62 341.22 440.68 341.56 442.12 340.97 C 442.57 340.99 443.45 341.02 443.89 341.04 C 444.73 342.21 445.81 342.51 447.15 341.95 L 447.89 342.19 C 449.02 343.38 450.74 343.51 452.13 342.69 C 453.75 343.13 455.37 343.58 456.99 344.04 C 457.76 345.21 458.81 345.53 460.13 345.01 L 460.91 345.06 C 461.77 346.24 462.85 346.48 464.14 345.77 C 465.69 346.26 467.25 346.74 468.81 347.24 C 470.89 347.98 473.06 348.41 475.21 348.94 C 476.48 349.26 477.77 349.57 479.05 349.94 C 479.77 351.23 480.80 351.53 482.13 350.85 L 482.73 351.23 C 483.30 351.42 484.43 351.80 484.99 351.99 L 485.60 352.12 C 486.24 352.31 487.50 352.70 488.13 352.89 C 492.55 353.84 496.81 355.36 501.04 356.93 C 501.55 357.22 502.58 357.80 503.09 358.09 L 503.90 358.01 C 504.46 358.20 505.59 358.58 506.15 358.77 C 512.16 360.99 518.15 363.30 523.97 365.98 C 524.53 366.19 525.63 366.62 526.18 366.84 C 540.63 372.75 554.40 380.14 567.97 387.83 C 579.30 381.29 590.91 375.24 602.79 369.76 C 603.35 369.58 604.48 369.21 605.04 369.02 C 608.81 366.97 612.81 365.37 616.83 363.87 C 617.38 363.64 618.47 363.19 619.02 362.96 C 622.49 361.27 626.14 359.98 629.86 358.93 C 630.40 358.68 631.47 358.18 632.01 357.93 C 638.23 355.73 644.45 353.46 650.85 351.82 C 651.41 351.60 652.52 351.18 653.08 350.96 L 653.90 351.08 C 654.43 350.81 655.49 350.26 656.01 349.99 C 657.60 349.63 659.18 349.22 660.80 348.93 C 661.40 348.73 662.62 348.34 663.22 348.15 C 664.76 347.68 666.30 347.23 667.86 346.79 C 669.14 347.47 670.22 347.23 671.09 346.07 L 671.88 346.00 C 673.20 346.52 674.26 346.20 675.07 345.04 L 675.88 344.99 C 677.20 345.52 678.26 345.20 679.08 344.04 L 679.88 344.01 C 681.19 344.54 682.24 344.20 683.01 343.01 C 684.95 342.58 686.90 342.18 688.86 341.81 C 690.17 342.52 691.22 342.25 692.02 340.99 C 694.28 340.49 696.57 340.09 698.88 339.79 C 700.18 340.48 701.26 340.24 702.14 339.06 C 702.57 339.02 703.44 338.95 703.87 338.91 C 705.32 339.54 706.98 339.30 708.12 338.15 C 708.55 338.10 709.42 338.00 709.85 337.95 C 711.27 338.57 712.33 338.23 713.04 336.96 C 713.75 336.96 715.18 336.96 715.89 336.97 C 717.35 337.52 719.01 337.26 720.10 336.08 C 720.79 336.01 722.18 335.87 722.87 335.81 C 724.29 336.51 725.98 336.34 727.10 335.16 C 727.80 335.08 729.18 334.92 729.88 334.83 C 731.60 335.52 733.56 335.40 735.06 334.23 C 736.34 334.09 737.62 333.95 738.92 333.81 C 740.61 334.54 742.58 334.44 744.05 333.22 C 745.68 333.06 747.32 332.90 748.97 332.74 C 750.98 333.54 753.26 333.54 755.06 332.21 C 756.60 332.00 758.14 331.79 759.70 331.60 C 763.87 332.11 768.09 332.05 772.23 331.29 C 780.14 330.68 788.08 331.13 796.00 331.00 C 803.24 331.13 810.51 330.69 817.74 331.30 C 821.90 332.16 826.15 332.02 830.36 331.65 C 831.49 331.84 832.62 332.04 833.77 332.24 C 836.60 332.90 839.50 332.89 842.39 332.76 C 843.04 332.89 844.34 333.15 845.00 333.28 C 846.82 334.47 849.04 334.54 851.07 333.79 C 852.34 333.90 853.62 334.02 854.92 334.15 C 855.99 335.35 857.68 335.55 859.14 334.87 C 859.83 334.96 861.22 335.14 861.91 335.23 C 863.40 336.39 865.35 336.53 867.11 335.85 C 867.81 335.90 869.20 336.00 869.90 336.06 C 870.69 337.10 871.74 337.45 873.04 337.11 C 873.77 337.06 875.23 336.95 875.96 336.89 C 876.58 338.21 877.62 338.57 879.06 337.97 C 879.42 337.98 880.12 338.00 880.47 338.01 C 881.77 338.97 883.40 339.29 885.00 338.95 C 889.09 339.00 893.08 339.99 897.00 341.11 C 898.03 342.32 899.67 342.59 901.12 341.94 L 901.91 342.03 C 902.74 343.20 903.84 343.52 905.20 342.99 L 905.95 343.34 C 907.20 344.15 908.73 344.06 910.16 343.81 C 912.92 344.46 915.68 345.19 918.45 345.85 C 920.49 347.15 922.82 347.74 925.23 347.88 C 926.49 348.22 927.76 348.58 929.04 348.95 C 929.80 350.22 930.83 350.49 932.15 349.79 C 934.48 350.40 936.78 351.11 939.07 351.91 C 939.74 353.16 940.75 353.54 942.11 353.07 L 942.94 352.96 C 943.48 353.24 944.55 353.78 945.08 354.05 L 945.95 353.96 C 946.48 354.23 947.54 354.77 948.07 355.04 L 948.90 354.95 C 949.43 355.21 950.49 355.73 951.03 355.99 C 954.07 356.79 957.06 357.78 960.00 358.92 C 960.54 359.16 961.62 359.65 962.16 359.89 C 964.10 360.55 966.05 361.23 967.99 361.94 C 968.54 362.17 969.63 362.63 970.17 362.86 C 977.24 365.61 984.19 368.64 991.03 371.92 C 995.86 373.98 1000.70 376.06 1005.19 378.82 C 1024.37 389.14 1043.22 400.53 1059.65 414.92 C 1060.01 415.15 1060.74 415.62 1061.11 415.85 C 1064.83 419.14 1068.86 422.09 1072.27 425.73 C 1079.25 433.11 1087.22 439.60 1093.10 447.96 C 1093.59 448.80 1094.20 449.56 1094.94 450.24 C 1100.40 456.21 1104.71 463.14 1109.16 469.87 C 1109.37 470.25 1109.80 471.01 1110.01 471.39 C 1111.17 473.12 1112.21 474.92 1113.20 476.77 C 1112.75 478.17 1113.38 480.07 1115.13 479.99 C 1116.72 484.01 1118.96 487.73 1121.13 491.47 L 1121.26 491.74 C 1122.38 494.37 1123.19 497.13 1124.09 499.86 C 1124.33 500.40 1124.82 501.47 1125.07 502.01 C 1126.30 505.17 1127.37 508.40 1128.18 511.70 C 1128.32 512.33 1128.62 513.59 1128.76 514.22 L 1129.05 514.89 C 1129.29 515.43 1129.78 516.50 1130.02 517.04 C 1130.42 518.97 1130.81 520.90 1131.20 522.85 C 1130.46 524.15 1130.72 525.20 1131.99 526.01 C 1132.58 528.27 1133.04 530.57 1133.38 532.90 C 1132.44 534.22 1132.55 535.98 1133.81 537.07 C 1133.85 537.48 1133.92 538.32 1133.96 538.73 C 1134.00 541.71 1134.41 544.66 1135.00 547.58 L 1135.00 567.42 C 1134.33 572.13 1134.15 576.89 1133.74 581.63 C 1133.48 582.74 1133.22 583.85 1132.97 584.96 C 1131.79 585.75 1131.47 586.81 1132.00 588.13 C 1131.99 588.57 1131.97 589.46 1131.96 589.90 C 1130.79 590.69 1130.47 591.76 1130.98 593.10 L 1131.01 593.89 C 1129.74 594.66 1129.47 595.71 1130.20 597.02 L 1129.79 597.65 C 1129.60 598.25 1129.24 599.46 1129.05 600.07 C 1129.04 600.53 1129.02 601.44 1129.00 601.89 C 1128.74 602.44 1128.21 603.54 1127.95 604.08 L 1128.04 604.97 C 1127.76 605.52 1127.22 606.62 1126.94 607.17 L 1126.89 607.97 C 1125.59 609.36 1125.05 611.18 1125.14 613.06 C 1124.49 615.81 1123.38 618.41 1122.20 620.96 C 1121.92 621.47 1121.38 622.48 1121.11 622.99 L 1120.81 623.61 C 1120.68 624.03 1120.41 624.86 1120.27 625.27 C 1111.82 643.60 1100.13 660.34 1086.70 675.35 C 1086.62 675.44 1086.46 675.62 1086.39 675.71 C 1084.74 677.60 1083.07 679.48 1081.29 681.25 C 1054.47 708.25 1022.19 729.59 987.60 745.32 C 987.50 745.37 987.30 745.47 987.20 745.51 C 978.63 749.37 970.02 753.14 961.12 756.15 C 960.57 756.36 959.46 756.80 958.91 757.01 L 958.09 756.92 C 957.59 757.23 956.59 757.84 956.08 758.14 C 953.79 758.89 951.48 759.57 949.15 760.14 C 948.53 760.35 947.27 760.76 946.65 760.97 C 943.70 762.61 940.39 763.42 937.13 764.16 C 936.57 764.39 935.46 764.84 934.90 765.06 L 934.07 764.97 C 932.75 764.49 931.68 764.81 930.86 765.95 L 930.19 766.13 C 928.23 766.00 926.35 766.57 924.94 767.93 C 924.50 767.95 923.64 767.98 923.20 768.00 C 922.64 768.24 921.52 768.72 920.96 768.95 C 917.75 769.85 914.53 770.72 911.22 771.12 C 910.61 771.32 909.38 771.72 908.77 771.93 C 906.90 772.39 905.02 772.82 903.15 773.23 C 901.85 772.49 900.79 772.72 899.96 773.93 C 896.08 775.00 892.12 775.80 888.12 776.17 C 886.80 775.50 885.71 775.76 884.86 776.95 C 884.43 776.98 883.57 777.05 883.13 777.09 C 881.65 776.45 879.99 776.69 878.88 777.86 C 878.44 777.92 877.58 778.05 877.14 778.11 C 875.54 777.45 873.77 777.82 872.62 779.11 L 871.74 779.23 L 871.28 779.28 L 870.42 779.33 C 868.96 778.66 866.84 778.37 865.97 780.07 C 865.24 780.02 863.78 779.93 863.05 779.88 C 861.62 779.59 860.29 780.25 859.00 780.67 C 857.69 780.82 856.39 780.98 855.10 781.15 C 853.67 780.42 851.97 780.61 850.93 781.87 C 849.29 781.96 847.67 782.06 846.06 782.18 C 844.34 781.44 842.37 781.52 840.96 782.80 C 838.96 782.93 836.97 783.09 835.00 783.27 C 832.67 782.48 830.13 782.36 828.01 783.74 C 825.43 783.88 822.86 784.05 820.30 784.31 C 813.79 784.12 807.22 783.67 800.77 784.72 C 796.60 785.11 792.41 785.15 788.26 784.72 C 781.80 783.59 775.21 784.20 768.69 784.32 C 766.54 784.07 764.39 783.86 762.25 783.67 C 759.30 783.11 756.30 783.11 753.33 783.46 L 752.58 783.38 L 752.19 783.32 C 751.42 783.18 749.86 782.90 749.09 782.76 C 747.22 781.53 744.94 781.43 742.91 782.26 C 741.67 782.09 740.45 781.93 739.23 781.76 C 737.64 780.85 735.82 780.68 734.06 781.07 C 732.73 781.02 731.40 780.96 730.09 780.90 C 729.01 779.64 727.31 779.45 725.87 780.11 C 725.18 780.05 723.80 779.93 723.11 779.87 C 722.00 778.68 720.34 778.47 718.89 779.07 C 718.18 779.06 716.75 779.05 716.04 779.04 C 715.36 777.85 714.34 777.47 712.96 777.90 C 712.23 777.94 710.76 778.04 710.03 778.08 C 709.34 776.76 708.28 776.41 706.85 777.05 C 706.42 777.00 705.55 776.90 705.12 776.86 C 703.98 775.68 702.32 775.45 700.87 776.10 C 700.43 776.06 699.55 775.99 699.12 775.96 C 698.28 774.80 697.20 774.48 695.88 775.01 C 695.44 775.00 694.57 775.00 694.14 775.00 C 693.36 773.80 692.32 773.48 691.00 774.03 L 690.36 773.93 C 689.28 773.20 688.13 772.85 686.91 772.87 C 686.45 772.91 685.52 772.98 685.06 773.01 C 684.35 771.76 683.30 771.42 681.90 772.01 L 681.08 771.99 C 680.28 770.80 679.21 770.46 677.88 770.97 L 677.07 771.00 C 676.27 769.81 675.21 769.47 673.88 769.99 L 673.07 769.98 C 672.27 768.79 671.20 768.47 669.88 769.01 L 669.09 768.93 C 668.21 767.76 667.13 767.52 665.85 768.22 C 664.54 767.82 663.24 767.43 661.96 767.04 C 661.19 765.78 660.16 765.48 658.86 766.15 C 655.18 765.26 651.55 764.19 647.94 763.10 C 647.42 762.81 646.39 762.23 645.87 761.94 L 645.03 762.03 C 644.50 761.76 643.44 761.22 642.91 760.95 L 642.04 761.04 C 641.51 760.76 640.44 760.22 639.91 759.95 L 639.04 760.04 C 638.52 759.76 637.46 759.21 636.93 758.94 L 636.10 759.04 C 635.55 758.81 634.44 758.36 633.89 758.14 C 631.92 757.46 629.96 756.77 628.01 756.06 C 627.47 755.83 626.38 755.35 625.84 755.12 C 619.12 752.72 612.38 750.27 606.04 746.99 C 605.49 746.79 604.37 746.40 603.81 746.20 C 600.44 744.70 597.09 743.17 593.79 741.55 C 593.68 741.49 593.47 741.38 593.36 741.33 C 587.59 738.18 581.62 735.43 575.84 732.32 C 575.38 731.96 574.44 731.24 573.98 730.88 C 571.68 729.92 569.43 728.13 566.81 728.53 C 566.69 728.57 566.45 728.63 566.33 728.67 C 565.28 729.15 564.24 729.67 563.22 730.22 C 562.83 730.42 562.06 730.80 561.67 730.99 C 555.85 735.04 549.25 737.72 543.00 741.00 C 537.23 744.09 531.19 746.59 525.19 749.16 C 524.63 749.38 523.53 749.80 522.97 750.01 C 518.83 752.02 514.53 753.68 510.16 755.13 C 509.62 755.36 508.53 755.83 507.99 756.07 C 506.24 756.86 504.48 757.65 502.68 758.30 L 502.37 758.40 C 501.29 758.65 500.21 758.88 499.13 759.11 C 498.58 759.34 497.47 759.81 496.92 760.05 L 496.05 759.96 C 495.50 760.23 494.40 760.76 493.85 761.03 L 493.07 761.06 C 491.15 760.81 488.99 761.14 487.97 762.99 L 487.13 762.88 C 485.82 762.48 484.80 762.87 484.08 764.07 C 481.80 764.88 479.48 765.59 477.14 766.21 C 475.83 765.49 474.80 765.76 474.04 767.04 C 471.72 767.78 469.39 768.47 467.06 769.17 C 465.65 768.45 463.99 768.64 462.88 769.81 L 462.11 769.87 C 461.00 769.89 459.96 770.18 458.99 770.72 L 458.23 771.05 C 456.90 770.45 455.83 770.74 454.99 771.92 C 453.36 772.36 451.74 772.80 450.12 773.24 C 448.73 772.40 447.01 772.62 445.99 773.91 C 444.04 774.37 442.09 774.81 440.14 775.24 C 438.85 774.49 437.78 774.71 436.92 775.91 C 434.30 776.45 431.67 776.97 429.00 777.08 C 427.40 776.69 425.76 777.01 424.45 777.99 C 424.10 778.03 423.41 778.10 423.07 778.14 C 421.63 777.45 419.96 777.65 418.88 778.87 C 418.45 778.93 417.59 779.06 417.16 779.12 C 415.69 778.45 414.00 778.65 412.89 779.85 C 412.20 779.93 410.81 780.09 410.12 780.17 C 408.37 779.46 406.41 779.59 404.92 780.77 C 404.22 780.87 402.82 781.08 402.12 781.18 C 400.39 780.46 398.44 780.59 396.94 781.76 C 395.64 781.91 394.35 782.08 393.07 782.27 C 390.93 781.46 388.54 781.49 386.68 782.94 L 385.90 783.15 L 385.45 783.21 C 384.69 783.24 383.16 783.29 382.40 783.31 C 379.50 783.03 376.59 783.09 373.74 783.71 C 370.91 783.89 368.08 784.08 365.26 784.33 C 359.42 784.23 353.52 783.62 347.74 784.72 C 343.58 785.15 339.39 785.11 335.23 784.71 C 329.12 783.67 322.90 784.19 316.74 784.32 C 313.83 784.06 310.90 783.90 307.98 783.75 C 305.86 782.36 303.32 782.48 301.01 783.27 C 299.02 783.09 297.03 782.93 295.05 782.80 C 293.62 781.51 291.64 781.44 289.94 782.19 C 288.31 782.05 286.68 781.91 285.06 781.79 C 283.58 780.55 281.61 780.46 279.88 781.18 C 279.19 781.10 277.80 780.94 277.11 780.85 C 276.01 779.66 274.36 779.45 272.91 780.05 C 271.62 780.02 270.32 780.02 269.03 780.03 C 268.33 778.76 267.28 778.43 265.87 779.06 C 265.18 779.01 263.79 778.91 263.10 778.86 C 261.98 777.67 260.30 777.45 258.84 778.10 C 258.41 778.04 257.55 777.91 257.12 777.84 C 255.98 776.68 254.33 776.45 252.87 777.08 C 252.44 777.05 251.57 776.98 251.14 776.94 C 250.28 775.75 249.20 775.50 247.89 776.17 C 243.86 775.82 239.90 775.00 236.02 773.89 C 234.99 772.62 233.29 772.40 231.90 773.19 C 225.24 771.51 218.51 770.09 211.95 768.05 C 211.16 766.76 210.11 766.49 208.81 767.26 C 207.57 766.79 206.33 766.35 205.12 765.85 C 204.12 765.28 203.05 765.01 201.91 765.04 C 197.93 764.38 194.18 762.88 190.37 761.62 C 185.94 760.07 181.35 758.92 177.11 756.86 C 176.16 756.30 175.14 755.97 174.05 755.87 C 173.15 755.57 172.26 755.24 171.39 754.89 C 171.03 754.75 170.30 754.46 169.94 754.32 L 169.16 753.99 C 168.59 753.79 167.46 753.38 166.89 753.18 C 163.56 751.90 160.25 750.55 157.03 749.01 C 156.48 748.81 155.37 748.40 154.81 748.19 C 122.90 734.54 92.99 716.05 66.97 693.04 C 44.66 673.00 25.74 648.79 13.76 621.16 C 13.75 620.72 13.72 619.83 13.70 619.38 L 12.93 618.89 C 12.70 618.53 12.23 617.79 12.00 617.43 L 11.87 617.14 L 11.58 616.42 L 11.98 615.54 C 11.73 615.16 11.25 614.41 11.00 614.03 C 9.44 610.12 8.17 606.10 6.87 602.10 C 7.52 600.79 7.24 599.75 6.01 598.97 C 5.57 597.02 5.17 595.05 4.90 593.07 C 5.06 591.85 4.84 590.74 4.21 589.75 L 3.78 589.10 C 4.78 587.73 4.20 585.99 3.15 584.88 C 3.08 584.45 2.94 583.58 2.88 583.15 C 3.54 581.69 3.34 580.01 2.15 578.90 C 2.06 578.20 1.87 576.80 1.78 576.10 C 2.57 574.06 2.47 571.81 1.20 570.00 C 0.84 561.69 0.94 553.36 1.14 545.04 C 2.49 543.64 2.56 541.63 1.81 539.92 C 1.93 538.64 2.04 537.36 2.15 536.09 C 3.36 534.98 3.57 533.26 2.79 531.85 C 2.92 531.46 3.19 530.68 3.32 530.29 C 3.78 529.19 4.01 528.05 4.01 526.86 C 4.05 526.48 4.12 525.71 4.16 525.33 C 4.86 524.25 5.15 523.09 5.01 521.84 L 4.95 521.05 C 6.37 520.28 6.63 519.23 5.72 517.88 L 6.21 517.20 C 6.39 516.60 6.73 515.40 6.91 514.80 C 6.92 514.37 6.94 513.51 6.95 513.08 C 7.23 512.54 7.77 511.46 8.05 510.93 L 7.96 510.05 C 8.23 509.52 8.77 508.45 9.05 507.92 L 8.96 507.05 C 9.24 506.52 9.79 505.46 10.07 504.93 L 9.98 504.09 C 10.19 503.53 10.61 502.41 10.82 501.85 C 11.22 500.91 11.62 499.97 12.02 499.05 C 12.21 498.49 12.59 497.36 12.78 496.80 C 13.51 495.20 14.25 493.61 15.00 492.03 C 15.20 491.47 15.60 490.36 15.81 489.80 C 16.98 487.04 18.23 484.30 19.72 481.69 C 27.79 467.28 37.19 453.54 48.25 441.25 C 58.11 431.54 67.47 421.27 78.38 412.70 C 78.47 412.62 78.65 412.48 78.74 412.41 C 80.76 410.83 82.83 409.34 84.90 407.85 C 85.27 407.62 86.01 407.16 86.37 406.93 C 91.54 402.45 97.30 398.74 103.00 394.99 C 110.51 390.33 117.91 385.42 125.92 381.64 C 126.26 381.46 126.95 381.08 127.29 380.90 C 127.69 380.63 128.49 380.10 128.90 379.84 C 129.27 379.63 130.02 379.20 130.39 378.99 C 137.84 374.55 145.98 371.49 153.80 367.81 C 154.36 367.61 155.47 367.21 156.03 367.01 C 157.61 366.25 159.20 365.51 160.80 364.78 C 161.36 364.59 162.48 364.21 163.05 364.02 C 163.96 363.61 164.88 363.22 165.80 362.83 C 166.36 362.62 167.48 362.22 168.03 362.01 C 168.95 361.62 169.88 361.23 170.80 360.85 C 171.35 360.62 172.45 360.16 172.99 359.93 C 174.23 359.56 175.46 359.19 176.71 358.84 C 177.32 358.66 178.54 358.29 179.15 358.11 C 179.56 357.82 180.39 357.22 180.80 356.93 C 181.97 357.05 183.08 356.83 184.13 356.29 L 184.86 356.03 C 185.41 355.76 186.50 355.24 187.04 354.97 L 187.91 355.06 C 188.44 354.79 189.50 354.25 190.03 353.98 L 190.87 354.06 C 191.39 353.77 192.41 353.17 192.92 352.88 C 194.22 352.52 195.53 352.17 196.84 351.83 C 198.14 352.48 199.18 352.18 199.96 350.96 C 201.24 350.56 202.51 350.18 203.80 349.81 C 204.37 349.62 205.50 349.24 206.07 349.06 C 207.67 348.65 209.26 348.24 210.87 347.86 C 212.18 348.49 213.21 348.18 213.95 346.93 C 219.20 345.30 224.57 344.12 229.90 342.80 C 231.29 343.58 233.00 343.35 234.01 342.08 C 235.95 341.54 237.91 341.07 239.88 340.63 C 241.14 341.44 242.23 341.25 243.15 340.09 C 243.58 340.04 244.44 339.95 244.87 339.91 C 246.32 340.53 247.99 340.30 249.11 339.13 C 249.54 339.09 250.41 339.01 250.84 338.96 C 252.17 339.49 253.26 339.19 254.12 338.05 L 254.88 337.85 C 256.62 338.53 258.57 338.36 260.09 337.23 C 260.78 337.15 262.17 337.01 262.87 336.94 C 264.28 337.56 265.34 337.24 266.05 335.96 C 266.76 335.95 268.18 335.95 268.89 335.95 C 270.34 336.52 272.00 336.31 273.09 335.13 C 274.36 335.05 275.63 334.96 276.90 334.88 C 278.33 335.55 280.01 335.35 281.08 334.13 C 282.36 334.03 283.63 333.93 284.91 333.83 C 286.63 334.53 288.59 334.42 290.06 333.22 C 291.60 333.09 293.15 332.96 294.70 332.81 C 302.55 332.20 310.45 332.25 318.27 331.29 M 325.92 359.55 C 315.71 359.57 305.52 360.20 295.37 361.31 C 266.34 363.82 237.57 369.32 209.62 377.57 C 197.79 381.27 185.75 384.42 174.39 389.48 C 145.11 401.17 117.22 416.75 92.90 436.89 C 71.33 454.97 52.43 476.88 40.88 502.74 C 38.65 509.23 35.85 515.52 34.10 522.17 C 29.64 538.64 27.67 555.97 30.07 572.94 C 31.81 589.73 37.29 605.96 45.12 620.86 C 48.01 625.26 49.11 630.56 52.19 634.85 C 54.79 639.15 58.66 642.45 61.56 646.52 C 65.04 651.34 69.42 655.43 72.59 660.47 C 76.61 664.76 80.62 669.21 85.68 672.31 C 92.68 678.70 100.19 684.54 107.83 690.14 C 110.44 692.16 112.60 694.79 115.58 696.32 C 123.73 700.16 131.28 705.14 138.81 710.05 C 147.87 714.82 157.08 719.30 166.48 723.38 C 170.53 725.51 174.97 726.64 179.39 727.74 C 222.44 744.22 268.20 753.17 314.17 755.72 C 358.81 758.03 403.83 754.67 447.42 744.61 C 461.03 741.73 474.26 737.39 487.61 733.53 C 524.78 721.09 560.45 702.91 590.55 677.63 C 590.59 674.55 586.37 673.56 584.45 671.61 C 579.44 667.11 573.26 664.35 568.00 660.21 C 563.16 663.64 558.50 667.33 553.46 670.50 C 539.96 679.94 525.20 687.36 510.32 694.36 C 503.12 697.37 496.06 700.91 488.43 702.73 C 485.55 703.48 483.23 705.55 480.37 706.37 C 439.67 719.94 396.85 726.93 354.00 727.92 C 338.32 727.74 322.58 728.53 306.96 726.82 C 295.78 726.27 284.67 724.88 273.60 723.30 C 251.16 719.91 228.76 715.37 207.34 707.77 C 163.52 693.76 121.19 671.41 89.84 637.15 C 82.59 627.88 75.30 618.48 70.14 607.83 C 60.85 591.59 56.92 572.60 57.38 554.00 C 58.31 541.99 59.67 529.50 65.73 518.85 C 68.57 512.13 71.84 505.61 74.99 499.03 C 79.51 491.43 84.87 484.31 90.86 477.80 C 96.17 473.15 101.08 468.06 105.77 462.78 C 119.11 451.05 133.87 441.00 149.38 432.38 C 153.80 429.95 158.19 427.37 162.99 425.75 C 174.87 421.38 185.60 414.36 197.78 410.71 C 213.00 405.22 228.64 401.00 244.43 397.46 C 302.38 385.15 362.63 384.08 420.98 394.20 C 435.75 396.91 450.62 399.76 464.71 405.10 C 471.89 407.44 479.04 409.93 486.42 411.57 C 496.74 415.20 506.91 419.33 516.73 424.18 C 518.54 425.24 520.72 424.46 522.10 423.06 C 527.69 417.93 533.57 413.12 539.58 408.49 C 540.51 407.62 542.03 406.87 541.65 405.34 C 534.62 400.44 526.27 398.16 518.69 394.32 C 470.87 373.36 418.97 362.60 366.97 359.73 C 353.28 359.75 339.59 357.90 325.92 359.55 M 636.16 386.29 C 603.07 398.72 571.44 415.75 544.34 438.60 C 546.73 441.02 549.88 442.39 552.64 444.31 C 557.24 447.31 561.49 450.81 565.92 454.05 C 567.31 455.33 569.25 454.48 570.54 453.50 C 584.73 442.47 600.32 433.33 616.39 425.36 C 655.74 406.54 698.50 395.45 741.75 390.50 C 778.34 386.39 815.42 386.57 851.97 391.02 C 886.11 395.30 919.90 403.24 951.88 416.05 C 976.85 426.15 1000.92 439.03 1021.95 455.97 C 1039.12 469.55 1054.08 486.14 1064.64 505.38 C 1075.15 525.07 1080.62 547.95 1077.49 570.24 C 1074.85 593.24 1064.14 614.73 1049.57 632.49 C 1045.77 637.04 1041.60 641.26 1037.85 645.86 C 1031.59 650.93 1026.02 656.80 1019.47 661.52 C 986.67 686.95 947.72 703.33 907.82 713.91 C 878.81 721.65 848.93 725.57 819.02 727.62 C 803.67 728.09 788.31 728.06 772.97 727.71 C 723.26 724.90 673.44 715.44 627.68 695.35 C 623.87 693.75 620.34 691.47 616.31 690.44 C 609.64 696.11 603.17 702.04 596.00 707.08 C 594.89 707.78 594.03 708.76 593.16 709.72 C 625.36 727.21 660.48 738.93 696.24 746.60 C 732.30 754.10 769.21 757.21 806.01 756.61 C 816.01 755.69 826.09 756.06 836.07 754.86 C 884.40 750.81 932.37 739.62 976.64 719.58 C 983.77 716.04 990.89 712.49 997.98 708.88 C 1017.91 697.94 1036.83 684.94 1053.39 669.33 C 1056.35 667.03 1059.16 664.51 1061.47 661.53 C 1064.76 657.16 1069.07 653.69 1072.28 649.25 C 1088.82 628.81 1101.33 604.58 1105.31 578.39 C 1108.53 556.77 1106.76 534.25 1099.29 513.64 C 1093.31 495.93 1083.18 479.93 1071.56 465.40 C 1055.71 446.16 1036.19 430.25 1015.29 416.79 C 962.38 383.79 900.83 366.50 839.03 360.92 C 770.70 355.00 700.64 362.32 636.16 386.29 M 222.84 486.09 C 222.43 490.38 222.64 494.69 222.62 499.00 C 222.61 528.00 222.62 557.00 222.62 586.00 C 222.77 600.39 222.32 614.80 222.83 629.18 C 236.84 629.51 250.90 629.56 264.91 629.16 C 265.32 603.76 264.68 578.35 265.22 552.95 C 267.63 555.57 269.43 558.66 271.39 561.61 C 282.39 577.93 293.51 594.17 304.50 610.50 C 309.00 616.47 312.56 623.13 317.30 628.92 C 319.42 629.71 321.77 629.32 324.00 629.42 C 335.96 629.19 347.95 629.72 359.91 629.16 C 360.22 611.11 359.95 593.05 360.04 575.00 C 359.97 545.36 360.18 515.72 359.93 486.08 C 345.73 485.99 331.49 485.69 317.30 486.24 C 317.32 511.57 317.67 536.92 317.13 562.23 C 316.27 561.64 315.50 560.95 314.85 560.16 C 298.13 535.53 281.54 510.80 264.70 486.25 C 250.77 485.68 236.79 485.99 222.84 486.09 M 379.07 486.07 C 378.89 498.02 378.92 509.98 379.07 521.93 C 394.01 522.22 408.96 521.85 423.90 522.10 C 424.14 557.78 423.76 593.48 424.09 629.16 C 431.04 629.68 438.03 629.25 445.00 629.39 C 452.72 629.25 460.45 629.67 468.17 629.17 C 468.63 623.79 468.29 618.39 468.38 613.00 C 468.33 582.75 468.49 552.50 468.30 522.25 C 483.24 521.63 498.21 522.34 513.16 521.91 C 513.53 509.99 513.54 498.01 513.16 486.09 C 468.47 485.87 423.76 485.92 379.07 486.07 M 533.83 486.08 C 533.43 490.37 533.64 494.69 533.62 499.00 C 533.61 527.33 533.62 555.66 533.62 584.00 C 533.76 599.05 533.32 614.13 533.83 629.18 C 547.85 629.52 561.91 629.55 575.92 629.16 C 576.28 603.73 575.77 578.28 576.18 552.85 C 583.45 562.35 589.55 572.71 596.56 582.42 C 607.12 598.18 617.89 613.81 628.48 629.56 C 642.57 629.77 656.66 629.46 670.76 629.70 C 671.37 612.15 670.85 594.56 671.02 577.00 C 670.95 546.69 671.15 516.38 670.93 486.08 C 656.73 485.99 642.49 485.69 628.30 486.24 C 628.32 511.58 628.69 536.94 628.12 562.26 C 625.92 560.61 624.60 558.17 623.04 555.99 C 607.36 532.66 591.50 509.44 575.75 486.16 C 561.79 485.79 547.79 485.94 533.83 486.08 M 700.07 486.08 C 699.81 514.71 700.05 543.36 699.95 571.99 C 699.77 579.12 701.34 586.12 703.07 592.99 C 706.29 605.27 714.57 615.92 725.08 622.88 C 738.41 631.21 754.74 631.80 770.00 632.04 C 781.06 632.15 792.38 631.53 802.86 627.69 C 811.12 624.42 818.60 619.06 824.18 612.13 C 833.60 601.11 837.57 586.30 837.40 572.00 C 837.22 543.37 837.68 514.71 837.17 486.09 C 822.40 485.89 807.61 485.89 792.84 486.09 C 792.44 490.05 792.61 494.03 792.62 498.00 C 792.64 523.68 792.57 549.36 792.65 575.04 C 792.68 578.84 791.61 582.57 790.13 586.05 C 786.94 593.00 779.63 597.56 772.06 597.92 C 764.50 598.66 756.08 597.09 750.84 591.17 C 745.74 586.22 744.92 578.70 744.60 571.98 C 744.68 543.40 744.50 514.82 744.70 486.24 C 729.84 485.70 714.94 485.99 700.07 486.08 M 868.84 486.08 C 868.31 496.71 868.77 507.36 868.62 518.00 C 868.76 555.06 868.33 592.13 868.83 629.17 C 883.59 629.54 898.41 629.53 913.17 629.18 C 913.67 609.13 913.24 589.06 913.38 569.00 C 913.23 541.37 913.68 513.71 913.16 486.09 C 898.39 485.87 883.61 485.90 868.84 486.08 Z" />
</g>
<g id="#fd0101ff">
<path fill="#fd0101" opacity="1.00" d=" M 325.92 359.55 C 339.59 357.90 353.28 359.75 366.97 359.73 C 418.97 362.60 470.87 373.36 518.69 394.32 C 526.27 398.16 534.62 400.44 541.65 405.34 C 542.03 406.87 540.51 407.62 539.58 408.49 C 533.57 413.12 527.69 417.93 522.10 423.06 C 520.72 424.46 518.54 425.24 516.73 424.18 C 506.91 419.33 496.74 415.20 486.42 411.57 C 479.04 409.93 471.89 407.44 464.71 405.10 C 450.62 399.76 435.75 396.91 420.98 394.20 C 362.63 384.08 302.38 385.15 244.43 397.46 C 228.64 401.00 213.00 405.22 197.78 410.71 C 185.60 414.36 174.87 421.38 162.99 425.75 C 158.19 427.37 153.80 429.95 149.38 432.38 C 133.87 441.00 119.11 451.05 105.77 462.78 C 101.08 468.06 96.17 473.15 90.86 477.80 C 84.87 484.31 79.51 491.43 74.99 499.03 C 71.84 505.61 68.57 512.13 65.73 518.85 C 59.67 529.50 58.31 541.99 57.38 554.00 C 56.92 572.60 60.85 591.59 70.14 607.83 C 75.30 618.48 82.59 627.88 89.84 637.15 C 121.19 671.41 163.52 693.76 207.34 707.77 C 228.76 715.37 251.16 719.91 273.60 723.30 C 284.67 724.88 295.78 726.27 306.96 726.82 C 322.58 728.53 338.32 727.74 354.00 727.92 C 396.85 726.93 439.67 719.94 480.37 706.37 C 483.23 705.55 485.55 703.48 488.43 702.73 C 496.06 700.91 503.12 697.37 510.32 694.36 C 525.20 687.36 539.96 679.94 553.46 670.50 C 558.50 667.33 563.16 663.64 568.00 660.21 C 573.26 664.35 579.44 667.11 584.45 671.61 C 586.37 673.56 590.59 674.55 590.55 677.63 C 560.45 702.91 524.78 721.09 487.61 733.53 C 474.26 737.39 461.03 741.73 447.42 744.61 C 403.83 754.67 358.81 758.03 314.17 755.72 C 268.20 753.17 222.44 744.22 179.39 727.74 C 174.97 726.64 170.53 725.51 166.48 723.38 C 157.08 719.30 147.87 714.82 138.81 710.05 C 131.28 705.14 123.73 700.16 115.58 696.32 C 112.60 694.79 110.44 692.16 107.83 690.14 C 100.19 684.54 92.68 678.70 85.68 672.31 C 80.62 669.21 76.61 664.76 72.59 660.47 C 69.42 655.43 65.04 651.34 61.56 646.52 C 58.66 642.45 54.79 639.15 52.19 634.85 C 49.11 630.56 48.01 625.26 45.12 620.86 C 37.29 605.96 31.81 589.73 30.07 572.94 C 27.67 555.97 29.64 538.64 34.10 522.17 C 35.85 515.52 38.65 509.23 40.88 502.74 C 52.43 476.88 71.33 454.97 92.90 436.89 C 117.22 416.75 145.11 401.17 174.39 389.48 C 185.75 384.42 197.79 381.27 209.62 377.57 C 237.57 369.32 266.34 363.82 295.37 361.31 C 305.52 360.20 315.71 359.57 325.92 359.55 Z" />
</g>
</svg>
