<?xml version="1.0" encoding="UTF-8"?>
<svg width="256px" height="256px" viewBox="0 0 256 256" version="1.1" xmlns="http://www.w3.org/2000/svg" xmlns:xlink="http://www.w3.org/1999/xlink">
    <!-- Generator: Sketch 50.2 (55047) - http://www.bohemiancoding.com/sketch -->
    <title>logo/nvbf-white</title>
    <desc>Created with Sketch.</desc>
    <defs></defs>
    <g id="logo/nvbf-white" stroke="none" stroke-width="1" fill="none" fill-rule="evenodd">
        <g id="nvbf-white" transform="translate(24.000000, 0.000000)" fill="#FFFFFF" fill-rule="nonzero">
            <path d="M1.56957377,0.931672131 C6.00131148,0.772196721 10.4414426,0.788983607 14.8731803,0.956852459 C21.6215082,12.5481967 27.8074754,24.4752787 34.9586885,35.8148197 C35.0594098,24.1899016 35.0510164,12.5398033 34.4634754,0.923278689 C38.0894426,0.814163934 41.7321967,0.814163934 45.3665574,0.889704918 C45.4253115,17.5674754 45.5512131,34.2452459 45.2910164,50.914623 C41.2369836,50.9649836 37.1913443,50.9481967 33.1457049,50.839082 C25.9021639,38.6434098 19.4056393,26.0112787 11.9522623,13.9499016 C11.3982951,26.2714754 12.5649836,38.6014426 11.9606557,50.9314098 C8.51934426,50.9398033 5.07803279,50.9314098 1.63672131,50.9062295 C1.36813115,34.2452459 1.50242623,17.5842623 1.56957377,0.931672131 Z" id="Shape"></path>
            <path d="M51.7371803,0.906491803 C55.6988852,0.788983607 59.6689836,0.814163934 63.6306885,0.931672131 C68.759082,13.0518033 73.1068852,25.524459 78.6633443,37.4599344 C84.119082,25.4153443 88.6347541,12.951082 94.0401311,0.881311475 C97.7080656,0.83095082 101.384393,0.814163934 105.052328,0.881311475 C98.3291803,17.6094426 91.2199344,34.1864918 84.3792787,50.8642623 C80.7197377,50.9481967 77.0518033,50.9481967 73.3922623,50.8810492 C66.123541,34.2452459 58.804459,17.6262295 51.7371803,0.906491803 Z" id="Shape"></path>
            <path d="M111.32223,0.898098361 C120.395541,0.822557377 129.468852,0.914885246 138.542164,0.847737705 C142.906754,0.814163934 147.69941,1.16668852 151.182689,4.12957377 C155.421377,7.54570492 156.470557,13.7904262 154.741508,18.7761311 C153.717508,21.8145574 151.115541,23.8625574 148.765377,25.8685902 C151.316984,27.7655082 154.229508,29.7547541 155.060459,33.0198033 C156.201967,37.9719344 155.773902,44.0907541 151.610754,47.5656393 C147.94282,50.4697705 143.032656,50.8810492 138.53377,50.9398033 C129.494033,50.914623 120.454295,50.9314098 111.414557,50.9230164 C111.07882,34.2536393 111.238295,17.5758689 111.32223,0.898098361 Z M121.948328,10.1224918 C121.948328,13.8156066 121.956721,17.5171148 121.948328,21.2102295 C126.925639,21.3025574 131.894557,21.4536393 136.871869,21.3277377 C138.936656,21.218623 141.33718,21.1011148 142.797639,19.4056393 C144.459541,17.4163934 144.40918,14.3443934 143.108197,12.1872787 C141.966689,10.3994754 139.633311,10.1980328 137.719607,10.0469508 C132.465311,9.81193443 127.202623,10.013377 121.948328,10.1224918 Z M121.864393,30.359082 C121.847607,34.2032787 121.847607,38.039082 121.872787,41.8832787 C127.916066,41.8497049 134.001311,42.3617049 140.027803,41.7154098 C144.16577,41.3125246 145.223344,35.9239344 143.435541,32.8099672 C142.344393,30.7451803 139.75082,30.4681967 137.669246,30.3842623 C132.398164,30.2751475 127.127082,30.4765902 121.864393,30.359082 Z" id="Shape"></path>
            <path d="M173.744262,5.0024918 C178.125639,1.9892459 183.581377,0.965245902 188.818885,0.86452459 C195.072,0.83095082 201.333508,0.872918033 207.586623,0.898098361 C207.595016,3.79383607 207.611803,6.68957377 207.636984,9.58531148 C201.929443,9.728 196.230295,9.60209836 190.522754,9.6104918 C187.031082,9.65245902 183.178492,10.1392787 180.576525,12.7076721 C178.176,14.999082 177.88223,18.4823607 177.227541,21.5459672 C187.341639,21.7474098 197.472525,21.4032787 207.586623,21.8229508 C207.595016,24.7102951 207.595016,27.6060328 207.595016,30.5017705 C197.531279,30.6696393 187.475934,30.4765902 177.412197,30.5773115 C177.319869,37.3592131 177.496131,44.1495082 177.269508,50.9314098 C173.78623,50.9314098 170.311344,50.9314098 166.828066,50.9230164 C166.64341,39.8940328 166.42518,28.823082 167.407213,17.8192787 C167.852066,12.9930492 169.623082,7.88983607 173.744262,5.0024918 Z" id="Shape"></path>
            <path d="M44.4852459,65.4772459 C98.891541,59.1318033 154.464525,60.5922623 208.039869,72.4521967 C208.425967,82.0123279 207.905574,91.5892459 207.049443,101.115803 C204.405508,132.398164 197.33823,163.806426 182.339148,191.605508 C170.621902,213.470426 153.364984,232.758557 131.533639,244.861902 C123.87882,249.142557 115.712,252.483148 107.360525,255.118689 C105.404852,255.764984 103.281311,256.092328 101.292066,255.404066 C84.48,250.300852 68.8598033,241.345049 55.959082,229.409574 C36.9647213,212.119082 23.778623,189.263738 15.2340984,165.224918 C6.41259016,140.50623 2.4424918,114.318689 1.06596721,88.1899016 C0.747016393,82.9691803 0.797377049,77.7316721 0.956852459,72.5025574 C15.3180328,69.3382295 29.8890492,67.1895082 44.4852459,65.4772459 Z M97.6828852,73.1740328 C82.6838033,74.5505574 68.1547541,80.5266885 56.5718033,90.1539672 C42.8233443,101.451541 33.3051803,117.768393 30.2751475,135.319082 C25.012459,163.009049 37.2165246,192.965246 60.0970492,209.349246 C75.7927869,220.999344 96.1888525,226.08577 115.518951,223.089311 C129.342951,221.108459 142.512262,215.04 153.138361,206.000262 C167.340066,194.106754 176.749115,176.765902 179.191607,158.42623 C183.497443,129.619934 168.968393,99.252459 144.11541,84.1862295 C130.375344,75.6668852 113.798295,71.5792787 97.6828852,73.1740328 Z" id="Shape"></path>
            <path d="M95.1480656,84.5219672 C99.176918,83.9847869 103.247738,83.892459 107.30177,83.816918 C99.9826885,96.2308197 95.5677377,110.600393 96.5917377,125.104262 C96.9106885,133.161967 99.2608525,140.934295 101.955148,148.471607 C98.2200656,153.507672 93.7211803,157.91423 88.7354754,161.708066 C73.0984918,139.675279 73.8539016,107.578754 90.6072131,86.376918 C91.6815738,84.9836066 93.5365246,84.7989508 95.1480656,84.5219672 Z" id="Shape"></path>
            <path d="M104.607475,99.5798033 C106.537967,94.1744262 109.08118,88.9872787 112.430164,84.3205246 C125.68341,86.091541 138.449836,91.874623 148.194623,101.090623 C156.713967,108.997246 163.168525,119.220459 166.274098,130.442492 C162.564197,126.178623 159.299148,121.503475 155.026885,117.743213 C141.55541,105.17823 122.938754,98.7992131 104.607475,99.5798033 Z" id="Shape"></path>
            <path d="M67.5756066,96.9778361 C71.5876721,91.421377 78.5374426,89.3901639 84.631082,87.0148197 C81.5339016,92.2942951 78.5458361,97.6828852 76.6740984,103.533115 C70.9161967,120.445902 72.2003934,139.624918 80.157377,155.614426 C81.634623,158.577311 83.3384918,161.422689 84.9332459,164.32682 C79.4607213,167.784918 73.4594098,170.311344 67.2398689,172.05718 C59.6354098,161.640918 55.6988852,148.815738 55.3295738,135.982164 C55.1113443,122.116197 59.4003934,108.199869 67.5756066,96.9778361 Z" id="Shape"></path>
            <path d="M45.5344262,174.172328 C35.0174426,151.056787 40.1961967,121.914754 58.0322623,103.835279 C54.859541,111.716721 51.9302295,119.816393 51.2923279,128.369311 C50.3102951,137.736393 51.6196721,147.271344 54.4314754,156.235541 C56.2696393,162.220066 59.392,167.66741 62.4136393,173.114754 C56.8571803,174.180721 51.1832131,174.491279 45.5344262,174.172328 Z" id="Shape"></path>
            <path d="M103.214164,104.120656 C117.650885,102.979148 132.473705,106.76459 144.476328,114.889443 C154.372197,121.453115 162.228459,130.920918 167.197377,141.681311 C170.361705,148.043541 168.515148,155.345836 167.340066,161.976656 C165.376,158.803934 163.59659,155.505311 161.447869,152.458492 C150.897311,137.383869 134.001311,127.034754 115.829508,124.264918 C110.877377,123.450754 105.841311,123.568262 100.83882,123.484328 C100.746492,116.95423 101.409574,110.415738 103.214164,104.120656 Z" id="Shape"></path>
            <path d="M101.300459,127.882492 C122.804459,126.531148 144.711344,136.510951 157.318295,154.078426 C160.423869,158.661246 163.781246,163.378361 165.13259,168.817311 C164.494689,173.920525 161.49823,178.360656 158.887869,182.674885 C155.320656,176.891803 151.552,171.167475 146.72577,166.349639 C136.829902,156.269115 123.744525,149.319344 109.803016,147.002754 C108.392918,146.532721 106.370098,146.759344 105.648262,145.181377 C102.962361,139.826361 101.971934,133.791475 101.300459,127.882492 Z" id="Shape"></path>
            <path d="M90.775082,165.451541 C96.5665574,161.389115 101.317246,156.101246 105.849705,150.712656 C112.094426,151.543607 118.263607,153.121574 123.987934,155.815869 C117.743213,168.47318 107.293377,179.048918 94.5773115,185.226492 C83.8085246,190.631869 71.4785574,192.570754 59.5346885,191.471213 C57.9902951,191.286557 56.2948197,191.076721 55.2456393,189.800918 C52.1148852,186.569443 49.8654426,182.616131 47.6999344,178.71318 C62.9927869,179.099279 78.4283279,174.550033 90.775082,165.451541 Z" id="Shape"></path>
            <path d="M127.958033,157.72118 C133.783082,160.734426 139.087738,164.687738 143.57823,169.472 C137.560131,182.036984 127.51318,192.663082 115.124459,199.092459 C103.314885,205.446295 89.4153443,207.595016 76.1788852,205.731672 C70.429377,204.220852 65.8717377,200.040918 61.4735738,196.247082 C78.0422295,196.952131 94.9214426,192.201443 108.023607,181.877508 C116.509377,175.548852 122.989115,166.987541 127.958033,157.72118 Z" id="Shape"></path>
            <path d="M146.708984,172.871344 C150.452459,177.168787 153.650361,181.919475 156.059279,187.09823 C148.782164,196.540852 139.096131,204.212459 127.924459,208.493115 C115.787541,213.243803 102.13141,214.276197 89.4824918,211.027934 C95.6768525,209.928393 101.988721,209.16459 107.922885,206.957115 C124.625836,201.115279 138.659672,188.575475 146.708984,172.871344 Z" id="Shape"></path>
        </g>
    </g>
</svg>