<?xml version="1.0" encoding="UTF-8"?>
<svg width="256px" height="256px" viewBox="0 0 256 256" version="1.1" xmlns="http://www.w3.org/2000/svg" xmlns:xlink="http://www.w3.org/1999/xlink">
    <!-- Generator: Sketch 50.2 (55047) - http://www.bohemiancoding.com/sketch -->
    <title>logo/oldenborg</title>
    <desc>Created with Sketch.</desc>
    <defs></defs>
    <g id="logo/oldenborg" stroke="none" stroke-width="1" fill="none" fill-rule="evenodd">
        <g id="#ffffffff" transform="translate(4.162602, 4.151351)" fill="#FFFFFF" fill-rule="nonzero">
            <path d="M113.361518,0.96172973 C128.291382,-0.422054054 143.457127,1.19005405 157.866667,5.2652973 C181.010732,11.9005405 202.052683,25.5031351 217.627751,43.8105946 C234.29897,63.2250811 244.663848,87.9602162 246.724336,113.449514 C249.887913,147.822703 237.587425,183.282162 213.763469,208.335568 C201.567046,221.433081 186.449864,231.763027 169.834146,238.453622 C151.081626,246.043676 130.428184,248.873514 110.322818,246.645622 C87.0469377,244.175568 64.5827642,234.800432 46.3852575,220.132324 C31.2264499,207.920432 18.9814634,192.124541 11.0655827,174.363676 C1.45691057,153.067243 -1.82460705,129.017081 1.60260163,105.928649 C5.2795664,80.6607568 17.0666667,56.6036757 34.9103523,38.2754595 C55.3487263,16.8890811 83.8001084,3.23113514 113.361518,0.96172973 Z M109.712304,9.40972973 C110.031436,13.651027 110.440759,17.8923243 111.085962,22.0921081 C111.467534,22.5210811 112.230678,23.379027 112.612249,23.8149189 C112.931382,18.944 111.883794,14.1076757 111.356531,9.28518919 C110.947209,9.31286486 110.121626,9.37513514 109.712304,9.40972973 Z M116.296152,8.8147027 C116.33084,13.395027 116.379404,17.9822703 116.427967,22.5625946 C119.078157,22.5487568 121.929539,22.9431351 124.378537,21.6700541 C128.527263,19.4698378 129.116965,12.7584865 125.34981,9.92864865 C122.727371,8.02594595 119.3071,8.69708108 116.296152,8.8147027 Z M132.377669,9.13989189 C131.892033,13.651027 131.385583,18.1621622 130.782005,22.6594595 C131.260705,22.6802162 132.225041,22.7217297 132.710678,22.7355676 C132.91187,20.7567568 132.766179,18.6188108 133.723577,16.8198919 C134.75729,17.0897297 135.79794,17.408 136.741463,17.9407568 C137.462981,19.7327568 137.594797,21.6838919 137.872304,23.5796757 C138.351003,23.6419459 139.315339,23.7664865 139.794038,23.8356757 C139.391653,21.5109189 139.058645,19.1584865 138.191436,16.9513514 C139.572033,15.6505946 141.139946,13.9485405 140.300488,11.9005405 C138.926829,8.88389189 135.124986,9.29210811 132.377669,9.13989189 Z M92.7080759,13.568 C88.8299187,16.8337297 90.3492683,24.0224865 95.1293225,25.5792432 C97.9529539,26.5132973 100.783523,25.0741622 103.301897,23.9187027 C102.857886,21.6562162 102.233496,19.4352432 101.588293,17.2281081 C99.923252,17.7124324 98.2582114,18.2244324 96.6417344,18.860973 C97.9598916,19.2345946 99.3057995,19.5044324 100.658645,19.7465946 C100.839024,21.0265946 101.012466,22.3135135 101.15122,23.6004324 C99.2919241,23.8979459 97.3355014,24.4099459 95.476206,23.8356757 C92.6664499,22.3896216 91.7368022,18.6118919 92.9508943,15.8443243 C94.4563686,13.1667027 97.8627642,13.1874595 100.471328,12.4540541 C98.0847696,10.496 94.8379404,11.9282162 92.7080759,13.568 Z M140.938753,23.6903784 C141.410515,23.808 142.354038,24.0501622 142.825799,24.1677838 C143.873388,22.8601081 144.865474,21.504 146.079566,20.3416216 C147.508726,20.3692973 148.875447,20.8605405 150.256043,21.1926486 C150.020163,22.8047568 149.749593,24.4099459 149.499837,26.0151351 C151.858645,26.7208649 154.231328,27.5096216 156.721951,27.4473514 C155.500921,25.7522162 153.343306,25.4823784 151.470136,24.9496216 C151.678266,23.3651892 151.921084,21.7807568 152.177778,20.2032432 C154.044011,20.6322162 155.903306,21.2203243 157.838916,20.9781622 C156.36813,19.456 154.245203,19.1100541 152.28878,18.5911351 C152.517724,17.1658378 152.760542,15.7405405 152.996423,14.3152432 C155.133225,14.8618378 157.270027,15.5468108 159.503957,15.4983784 C157.242276,13.0283243 153.606938,13.1113514 150.62374,12.0735135 C147.397724,15.9481081 144.220271,19.8642162 140.938753,23.6903784 Z M161.69626,15.7751351 C162.570407,17.3595676 164.214634,18.1206486 165.740921,18.9370811 C164.145257,22.6456216 162.542656,26.3541622 160.98168,30.0765405 C161.439566,30.1664865 162.348401,30.3532973 162.79935,30.4501622 C164.332575,26.8384865 165.935176,23.2544865 167.371274,19.6012973 C169.001626,20.1617297 170.659729,20.6252973 172.359458,20.9297297 C169.709268,17.8646486 165.428726,16.896 161.69626,15.7751351 Z M77.2162602,18.5357838 C78.9576152,22.7701622 80.6573442,27.0183784 82.4333875,31.2458378 C82.8357724,31.059027 83.6266667,30.6854054 84.0221138,30.4985946 C83.2589702,28.5820541 82.5027642,26.6585946 81.836748,24.7074595 C83.0855285,24.5483243 84.3689973,24.1816216 85.6316531,24.4583784 C86.9428726,25.6138378 87.858645,27.136 88.8854201,28.5336216 C89.3433062,28.3398919 90.2660163,27.9593514 90.7239024,27.7656216 C89.2947425,25.9943784 87.9141463,24.1677838 86.1727913,22.6802162 C86.4780488,20.8674595 87.2134417,18.4942703 85.4096477,17.1935135 C82.8773984,15.0970811 79.6791328,17.4841081 77.2162602,18.5357838 Z M172.900596,27.3435676 C173.705366,29.2462703 176.300054,31.0797838 174.940271,33.3284324 C172.581463,35.6808649 170.146341,32.0069189 167.773659,31.4257297 C168.654743,34.9682162 174.066125,37.5074595 176.556748,34.131027 C178.742114,31.315027 175.425908,28.7273514 174.399133,26.2365405 C174.024499,24.9288649 175.127588,24.2508108 176.147425,23.7803243 C177.88878,24.3684324 179.449756,25.3647568 181.184173,25.9667027 C180.289214,24.0017297 178.450732,22.2789189 176.161301,22.3827027 C173.66374,22.0436757 171.457561,25.1917838 172.900596,27.3435676 Z M67.6353388,23.1091892 C61.3289973,25.8836757 64.4440108,36.2897297 70.798916,36.5388108 C74.4550678,36.9055135 77.8961518,33.4045405 77.3272629,29.7513514 C76.9734417,25.3232432 72.1517615,20.6460541 67.6353388,23.1091892 Z M182.883902,30.2771892 C181.676748,33.1623784 184.118808,35.7223784 185.048455,38.2962162 C184.118808,38.9881081 183.286287,40.4687568 181.933442,39.9498378 C180.205962,39.2648649 178.977995,37.7357838 177.430894,36.7532973 C177.507209,39.4724324 179.977019,41.3059459 182.47458,41.7349189 C184.708509,41.9148108 186.893875,39.7976216 186.46374,37.5212973 C185.998916,35.4248649 184.701572,33.6397838 183.938428,31.6540541 C184.625257,31.1005405 185.325962,30.5608649 186.04748,30.0488649 C187.8929,30.636973 189.301247,32.0415135 191.000976,32.9063784 C190.584715,29.267027 185.145583,26.8592432 182.883902,30.2771892 Z M51.5885095,34.4492973 C54.4190786,38.0678919 57.221897,41.7210811 60.0177778,45.3673514 C62.1615176,43.7829189 64.7908943,42.2123243 65.4083469,39.4170811 C65.4707859,36.8432432 63.0703523,35.3210811 60.704607,35.4456216 C60.7947967,33.7297297 60.642168,31.7301622 58.8106233,30.9552432 C55.8621138,30.1042162 53.635122,32.8025946 51.5885095,34.4492973 Z M91.7159892,38.1716757 C73.3936043,44.9591351 57.4300271,57.856 46.9055827,74.2676757 C60.2952846,70.6006486 74.260813,68.8224865 88.1361518,69.8188108 C106.139404,71.2233514 124.031653,75.6722162 140.244986,83.6704865 C152.628726,89.3647568 163.416802,98.1448649 172.151328,108.537081 C180.094959,117.76 186.46374,128.179892 192.610515,138.641297 C191.28542,139.042595 189.960325,139.423135 188.628293,139.782919 C178.797615,122.333405 167.516965,104.787027 150.637615,93.3292973 C137.025908,84.3623784 121.291274,79.0002162 105.320759,76.0804324 C85.7912195,72.4895135 65.3112195,74.2261622 46.7390786,81.2834595 C44.4357724,82.2867027 41.0363144,82.7018378 40.6408672,85.7392432 C46.184065,98.220973 53.7044986,109.844757 62.6263415,120.195459 C76.6473713,136.496432 95.4068293,149.081946 116.434905,154.243459 C124.891924,156.332973 133.675014,156.485189 142.326287,155.938595 C154.751653,154.859243 166.837073,151.621189 178.908618,148.639135 C183.001843,147.594378 186.942439,146.051459 190.945474,144.716108 C198.646287,141.962378 206.610732,140.038919 214.311545,137.305946 C218.148076,112.044973 210.780271,85.2756757 194.317182,65.6674595 C181.038482,49.4702703 162.022331,38.0678919 141.410515,34.0964324 C124.891924,30.7753514 107.478374,32.2629189 91.7159892,38.1716757 Z M195.06645,34.7052973 C192.062439,38.1647568 188.975176,41.555027 185.950352,45.0006486 C188.205095,46.6819459 189.939512,49.8162162 193.075339,49.664 C191.666992,47.9481081 189.988076,46.4951351 188.336911,45.0283243 C189.398374,43.8382703 190.459837,42.6482162 191.521301,41.4581622 C193.123902,42.7865946 194.671003,44.2810811 196.724553,44.9037838 C195.864282,42.9595676 194.213117,41.5965405 192.672954,40.2127568 C193.602602,39.168 194.525312,38.1232432 195.448022,37.0784865 C197.113062,38.483027 198.653225,40.2473514 200.894092,40.6970811 C199.631436,38.1232432 197.154688,36.5457297 195.06645,34.7052973 Z M46.6905149,37.7081081 C46.815393,38.5245405 46.4893225,39.5692973 47.1830894,40.2058378 C49.396206,42.5582703 51.7897019,44.7446486 54.1207588,46.9794595 C49.9789702,45.7617297 45.7331165,44.9591351 41.5566396,43.8936216 C41.1542547,44.2257297 40.3494851,44.8968649 39.9471003,45.2358919 C43.3812466,48.6192432 46.5795122,52.2793514 50.360542,55.2890811 C50.3674797,54.8255135 50.3882927,53.8983784 50.402168,53.4348108 C48.2584282,50.7502703 45.5111111,48.6192432 43.2424932,46.0384865 C47.4536585,47.104 51.6786992,48.1418378 55.9384282,48.9997838 C56.2228726,48.6745946 56.7986992,48.0311351 57.0900813,47.7059459 C53.5865583,44.4056216 50.422981,40.7524324 46.6905149,37.7081081 Z M193.796856,52.1478919 C195.607588,54.272 197.362818,56.4791351 199.652249,58.1258378 C199.846504,55.6627027 197.522385,54.2512432 196.169539,52.5284324 C199.152737,49.747027 202.135935,46.9587027 205.21626,44.288 C204.911003,43.9420541 204.29355,43.2501622 203.981355,42.9042162 C200.581897,45.9831351 197.161626,49.0343784 193.796856,52.1478919 Z M36.7141463,49.1935135 C35.2225474,51.1654054 33.6962602,53.1027027 32.2254743,55.0815135 C35.8538753,57.8767568 39.4822764,60.6789189 43.0829268,63.5156757 C44.8450949,61.2255135 46.919458,59.0875676 47.9601084,56.3338378 C45.6013008,57.0534054 44.4773984,59.3574054 43.0066125,61.1148108 C41.7231436,60.1184865 40.4535501,59.1083243 39.1700813,58.1050811 C40.4604878,56.4791351 41.7717073,54.8255135 42.4377236,52.8328649 C40.3980488,53.6147027 39.2672087,55.5104865 37.9490515,57.1156757 C36.8112737,56.2715676 35.6734959,55.4205405 34.5426558,54.5695135 C35.7289973,53.0127568 36.9084011,51.4421622 38.0461789,49.8438919 C37.7131707,49.6778378 37.0471545,49.3595676 36.7141463,49.1935135 Z M208.032954,53.9052973 C205.320325,56.3061622 209.836748,60.8242162 206.388726,62.6854054 C203.308401,63.5295135 202.871328,59.3989189 200.706775,58.1673514 C200.713713,60.6166486 201.948618,63.1420541 204.238049,64.2075676 C206.000217,65.2384865 208.220271,64.1314595 209.191545,62.5331892 C209.940813,60.0977297 208.497778,57.516973 209.316423,55.123027 C211.834797,52.7913514 213.485962,56.9703784 214.963686,58.4925405 C216.205528,54.8324324 210.870461,50.7295135 208.032954,53.9052973 Z M29.6307859,61.3638919 C26.5088347,62.5539459 25.2323035,65.8957838 23.7545799,68.6010811 C27.6882385,70.9811892 31.6565854,73.3059459 35.6457453,75.603027 C37.1720325,73.216 38.8786992,70.7044324 39.0105149,67.7777297 C38.5665041,63.5156757 33.8142005,60.076973 29.6307859,61.3638919 Z M206.777236,68.4557838 C206.929864,68.8709189 207.24206,69.715027 207.401626,70.1301622 C209.482927,68.9124324 211.612791,67.667027 214.075664,67.4248649 C213.208455,69.7496216 211.952737,71.9014054 210.96065,74.1708108 C210.280759,75.1740541 211.078591,76.1980541 211.383848,77.1597838 C212.875447,74.3161081 214.256043,71.4101622 215.657453,68.5180541 C218.342331,68.8224865 220.971707,69.5212973 223.684336,69.5974054 C221.346341,66.6707027 217.204553,67.3902703 213.929973,66.5184865 C215.747642,65.4114595 217.593062,64.3667027 219.438482,63.315027 C219.181789,62.7615135 218.925095,62.208 218.668401,61.6614054 C214.700054,63.916973 210.75252,66.2071351 206.777236,68.4557838 Z M30.6853117,82.7433514 C26.9181572,81.0828108 23.1371274,79.4499459 19.3491599,77.8378378 C19.2173442,78.2806486 18.9467751,79.1731892 18.8080217,79.616 C23.0122493,81.3872432 27.1887263,83.2069189 31.3652033,85.0335135 C32.5515447,82.4389189 33.8835772,79.8581622 34.3484011,77.0144865 C32.2185366,78.2114595 31.684336,80.7161081 30.6853117,82.7433514 Z M211.591978,78.1215135 C212.819946,80.2871351 215.324444,79.5398919 217.371057,79.8097297 C218.064824,81.1174054 218.564336,82.515027 219.160976,83.8711351 C218.078699,84.8605405 216.97561,85.843027 215.87252,86.8116757 C215.969648,87.3098378 216.177778,88.2992432 216.274905,88.7974054 C219.292791,86.3619459 222.109485,83.6843243 225.085745,81.2004324 C226.244336,80.1625946 228.117507,78.9725405 226.8271,77.2566486 C221.741789,77.0490811 216.670352,77.8931892 211.591978,78.1215135 Z M18.2876965,85.9468108 C14.9576152,87.3859459 13.743523,92.0216216 15.7970732,94.9552432 C18.1489431,98.1517838 23.2481301,99.5632432 26.5990244,97.0862703 C29.2839024,95.0521081 29.8042276,90.6378378 27.4592954,88.1608649 C25.2184282,85.7392432 21.381897,84.6598919 18.2876965,85.9468108 Z M217.176802,91.2259459 C217.828943,93.9589189 218.245203,97.9165405 221.533659,98.6637838 C223.725962,99.2588108 225.210623,97.4045405 226.140271,95.7163243 C227.701247,96.3044324 229.761734,97.1347027 231.003577,95.488 C232.862873,93.1286486 231.128455,90.2088649 230.504065,87.7388108 C226.022331,88.7558919 221.630786,90.1050811 217.176802,91.2259459 Z M37.2275339,94.2149189 C30.8101897,112.460108 30.5812466,132.760216 36.3464499,151.206054 C41.3207588,167.36173 50.9779946,182.022919 63.7918699,193.079351 C80.0884553,207.456865 101.768672,215.448216 123.490515,215.496649 C142.798049,215.545081 162.08477,209.352649 177.632087,197.922595 C186.623306,191.287351 194.490623,183.067676 200.568022,173.692541 C201.469919,172.723892 200.699837,171.492324 200.290515,170.502919 C197.83458,165.237622 195.385583,159.972324 192.894959,154.727784 C194.705691,154.042811 196.516423,153.364757 198.347967,152.728216 C200.352954,157.433081 202.573008,162.034162 204.661247,166.704432 C208.775285,158.976 211.737669,150.645622 213.458211,142.073081 C208.067642,143.719784 202.628509,145.228108 197.321192,147.123892 C192.513388,148.742919 187.788835,150.631784 182.842276,151.808 C169.008564,155.177514 155.133225,158.976 140.848564,159.723243 C122.866125,161.300757 104.793496,156.374486 89.1213008,147.712 C66.9068835,135.596973 49.5280217,116.051027 37.2275339,94.2149189 Z M151.241192,222.408649 C153.377995,222.01427 155.625799,219.364324 157.67935,221.197838 C159.122385,223.757838 155.889431,225.093189 154.425583,226.532324 C156.361192,226.546162 158.289864,226.449297 160.232412,226.504649 C160.530732,227.667027 161.585257,228.912432 160.766612,230.08173 C159.795339,231.984432 157.318591,231.894486 155.500921,232.309622 C155.591111,232.690162 155.757615,233.444324 155.847805,233.824865 C158.713062,233.651892 162.195772,232.690162 163.042168,229.548973 C163.728997,226.995892 161.411816,225.127784 159.143198,224.608865 C159.830027,222.934486 160.461355,220.775784 158.747751,219.468108 C156.097561,217.627676 152.28878,219.558054 151.241192,222.408649 Z M84.3828726,234.855784 C84.8823848,234.918054 85.8883469,235.042595 86.3878591,235.104865 C86.9706233,233.015351 87.5880759,230.946595 88.1153388,228.850162 C90.2035772,229.223784 92.6248238,231.029622 94.4633062,229.161514 C92.5693225,228.41427 90.6267751,227.819243 88.6842276,227.210378 C89.1213008,225.653622 89.5653117,224.103784 90.0301355,222.567784 C92.180813,223.211243 94.3523035,224.013838 96.6417344,223.910054 C94.8379404,221.322378 91.2858537,221.543784 88.6009756,220.422919 C87.144065,225.21773 85.7704065,230.040216 84.3828726,234.855784 Z M140.855501,226.511568 C141.923902,226.034162 142.971491,225.515243 144.012141,224.989405 C144.983415,229.085405 145.92,233.195243 147.238157,237.201297 C147.591978,236.848432 148.306558,236.156541 148.660379,235.803676 C147.612791,231.223351 146.377886,226.670703 145.08748,222.14573 C143.248997,223.121297 141.472954,224.408216 140.855501,226.511568 Z M99.1531707,223.965405 C98.2859621,226.968216 97.9182656,230.08173 97.2106233,233.119135 C96.8914905,235.084108 95.7745257,237.464216 97.8766396,238.834162 C99.2294851,233.624216 100.471328,228.324324 100.991653,222.962162 C100.533767,223.211243 99.6179946,223.716324 99.1531707,223.965405 Z M104.765745,224.733405 C103.940163,229.465946 103.73897,234.281514 102.975827,239.027892 C105.993713,239.456865 109.046287,240.093405 112.105799,239.671351 C110.40607,237.651027 107.464499,238.08 105.112629,237.637189 C105.67458,233.119135 106.514038,228.608 106.5071,224.041514 C106.070027,224.214486 105.202818,224.560432 104.765745,224.733405 Z M127.666992,226.988973 C125.85626,230.026378 123.996965,233.049946 122.533117,236.281081 C124.864173,236.260324 127.188293,236.135784 129.512412,235.983568 C129.782981,237.484973 130.046612,238.986378 130.365745,240.480865 C131.718591,239.456865 131.670027,237.796324 131.649214,236.281081 C132.481734,235.686054 133.293442,235.077189 134.091274,234.440649 C133.203252,234.288432 132.31523,234.143135 131.427209,234.004757 C131.177453,230.953514 130.851382,227.909189 130.573875,224.864865 C129.498537,225.404541 128.20813,225.798919 127.666992,226.988973 Z M135.437182,229.251459 C135.242927,230.579892 136.443144,231.970595 137.768238,231.050378 C137.816802,230.08173 137.809864,229.113081 137.73355,228.151351 C136.942656,228.469622 136.151762,228.787892 135.437182,229.251459 Z M137.636423,236.274162 C135.825691,236.557838 137.102222,239.927351 138.628509,238.792649 C139.939729,238.336 139.134959,235.319351 137.636423,236.274162 Z M114.658862,237.941622 C114.658862,238.502054 114.665799,239.609081 114.665799,240.169514 C115.782764,240.83373 117.496369,240.176432 116.996856,238.695784 C117.232737,237.450378 115.373442,237.498811 114.658862,237.941622 Z" id="Shape"></path>
            <path d="M118.17626,10.067027 C120.32,10.0877838 122.838374,9.79027027 124.503415,11.4438919 C126.501463,13.6579459 126.341897,17.4425946 124.406287,19.6497297 C122.838374,21.2895135 120.417127,21.1372973 118.335827,21.2825946 C118.245637,17.5463784 118.197073,13.8032432 118.17626,10.067027 Z" id="Shape"></path>
            <path d="M133.41832,15.7405405 C133.633388,13.9277838 133.931707,12.1288649 134.306341,10.3437838 C135.645312,10.7035676 137.01897,11.008 138.253875,11.6652973 C138.607696,12.6339459 138.684011,13.7132973 138.33019,14.6957838 C137.171599,16.2317838 135.062547,15.6298378 133.41832,15.7405405 Z" id="Shape"></path>
            <path d="M147.134092,18.8263784 C148.514688,17.1589189 149.860596,15.4568649 151.213442,13.7617297 C150.991436,15.7751351 150.734743,17.7816216 150.360108,19.7673514 C149.28477,19.456 148.209431,19.1377297 147.134092,18.8263784 Z" id="Shape"></path>
            <path d="M79.3461247,18.860973 C81.1360434,18.2797838 84.2371816,17.1243243 84.9448238,19.712 C85.6802168,22.016 82.9328997,22.956973 81.4066125,23.891027 C80.6850949,22.2235676 80.0052033,20.5491892 79.3461247,18.860973 Z" id="Shape"></path>
            <path d="M68.3291057,24.4514595 C72.1448238,22.9016216 75.6622222,27.5165405 75.4887805,31.0382703 C75.7038482,34.1863784 71.5689973,36.2205405 69.1546883,34.2071351 C65.9772358,32.3113514 64.3121951,26.2642162 68.3291057,24.4514595 Z" id="Shape"></path>
            <path d="M53.7322493,34.0549189 C55.2030352,33.3422703 56.8472629,31.9584865 58.5331165,32.940973 C60.3854743,34.8090811 58.0127913,36.6771892 56.7986992,38.0817297 C55.7233604,36.780973 54.6965854,35.4387027 53.7322493,34.0549189 Z" id="Shape"></path>
            <path d="M57.3051491,38.7874595 C59.0950678,37.8118919 61.6342547,35.923027 63.2507317,38.2201081 C64.2636314,40.4410811 62.1198916,41.9494054 60.7184824,43.2778378 C59.5598916,41.7971892 58.4221138,40.3027027 57.3051491,38.7874595 Z" id="Shape"></path>
            <path d="M25.7942547,67.6877838 C26.9944715,65.536 28.4791328,62.9829189 31.2472629,62.803027 C33.7864499,63.1904865 36.4505149,64.7749189 37.1859079,67.3625946 C37.7131707,69.5351351 36.3880759,71.4862703 35.4653659,73.3405405 C32.2115989,71.5208649 29.0063957,69.6043243 25.7942547,67.6877838 Z" id="Shape"></path>
            <path d="M218.710027,79.2631351 C220.826016,79.1385946 222.948943,79.0140541 225.064932,78.8825946 C223.476206,80.2317838 221.922168,81.6294054 220.388943,83.0477838 C219.826992,81.7885405 219.265041,80.5223784 218.710027,79.2631351 Z" id="Shape"></path>
            <path d="M19.1202168,87.6004324 C22.8665583,86.4172973 28.7982656,89.427027 27.1471003,93.9104865 C25.1351762,97.8196757 19.2520325,96.7749189 16.976477,93.6614054 C15.3738753,91.6203243 16.6087805,88.2231351 19.1202168,87.6004324 Z" id="Shape"></path>
            <path d="M225.155122,91.052973 C226.729973,90.5686486 228.318699,90.1189189 229.907425,89.6899459 C230.087805,91.2743784 230.157182,92.8726486 230.060054,94.4709189 C229.074905,94.5193514 228.089756,94.6300541 227.111545,94.5262703 C226.154146,93.5645405 225.724011,92.2499459 225.155122,91.052973 Z" id="Shape"></path>
            <path d="M218.814092,92.6443243 C220.624824,92.1945946 222.435556,91.7171892 224.2671,91.3435676 C224.426667,93.2116757 225.314688,96.4843243 222.539621,96.7541622 C220.055935,97.28 219.424607,94.3948108 218.814092,92.6443243 Z" id="Shape"></path>
            <path d="M124.871111,234.800432 C126.24477,232.427243 127.646179,230.067892 129.068401,227.722378 C129.241843,229.894919 129.366721,232.081297 129.526287,234.260757 C127.972249,234.43373 126.425149,234.627459 124.871111,234.800432 Z" id="Shape"></path>
        </g>
        <g id="#25357cff" fill="#25357C" fill-rule="nonzero">
            <path d="M121.03458,0.428972973 C143.124119,-0.712648649 165.532791,3.79848649 185.270461,13.824 C208.116206,25.2886486 227.361301,43.7483243 239.696477,66.0895135 C258.095176,98.7398919 260.79393,139.568432 247.07122,174.39827 C240.473496,191.287351 230.302873,206.806486 217.260054,219.440432 C192.450949,244.044108 157.089648,257.591351 122.137669,255.750919 C98.5010298,254.858378 75.2390244,246.963892 55.7649864,233.617297 C32.8429268,218.008216 15.3044986,194.75373 6.59078591,168.475676 C1.94254743,154.575568 -0.256693767,139.859027 0.187317073,125.211676 C0.464823848,99.5078919 9.21322493,74.0808649 24.2540921,53.2618378 C40.0095393,31.4326486 62.7997832,14.7165405 88.4830352,6.44843243 C99.0074797,3.01664865 109.98981,1.05859459 121.03458,0.428972973 Z M117.524119,5.11308108 C87.96271,7.38248649 59.5113279,21.0404324 39.0729539,42.4268108 C21.2292683,60.755027 9.44216802,84.8121081 5.76520325,110.08 C2.33799458,133.168432 5.6195122,157.218595 15.2281843,178.515027 C23.144065,196.275892 35.3890515,212.071784 50.5478591,224.283676 C68.7453659,238.951784 91.2095393,248.326919 114.48542,250.796973 C134.590786,253.024865 155.244228,250.195027 173.996748,242.604973 C190.612466,235.914378 205.729648,225.584432 217.92607,212.486919 C241.750027,187.433514 254.050515,151.974054 250.886938,117.600865 C248.82645,92.1115676 238.461572,67.3764324 221.790352,47.9619459 C206.215285,29.6544865 185.173333,16.0518919 162.029268,9.41664865 C147.619729,5.34140541 132.453984,3.7292973 117.524119,5.11308108 Z" id="Shape"></path>
            <path d="M113.874905,13.5610811 C114.284228,13.5264865 115.10981,13.4642162 115.519133,13.4365405 C116.046396,18.259027 117.093984,23.0953514 116.774851,27.9662703 C116.393279,27.5303784 115.630136,26.6724324 115.248564,26.2434595 C114.60336,22.0436757 114.194038,17.8023784 113.874905,13.5610811 Z" id="Shape"></path>
            <path d="M120.458753,12.9660541 C123.469702,12.8484324 126.889973,12.1772973 129.512412,14.08 C133.279566,16.9098378 132.689864,23.6211892 128.541138,25.8214054 C126.092141,27.0944865 123.240759,26.7001081 120.590569,26.7139459 C120.542005,22.1336216 120.493442,17.5463784 120.458753,12.9660541 Z M122.338862,14.2183784 C122.359675,17.9545946 122.408238,21.6977297 122.498428,25.4339459 C124.579729,25.2886486 127.000976,25.4408649 128.568889,23.8010811 C130.504499,21.5939459 130.664065,17.8092973 128.666016,15.5952432 C127.000976,13.9416216 124.482602,14.2391351 122.338862,14.2183784 Z" id="Shape"></path>
            <path d="M136.540271,13.2912432 C139.287588,13.4434595 143.089431,13.0352432 144.463089,16.0518919 C145.302547,18.0998919 143.734634,19.8019459 142.354038,21.1027027 C143.221247,23.3098378 143.554255,25.6622703 143.95664,27.987027 C143.47794,27.9178378 142.513604,27.7932973 142.034905,27.731027 C141.757398,25.8352432 141.625583,23.8841081 140.904065,22.0921081 C139.960542,21.5593514 138.919892,21.2410811 137.886179,20.9712432 C136.92878,22.7701622 137.074472,24.9081081 136.873279,26.8869189 C136.387642,26.8730811 135.423306,26.8315676 134.944607,26.8108108 C135.548184,22.3135135 136.054634,17.8023784 136.540271,13.2912432 Z M137.580921,19.8918919 C139.225149,19.7811892 141.334201,20.3831351 142.492791,18.8471351 C142.846612,17.8646486 142.770298,16.7852973 142.416477,15.8166486 C141.181572,15.1593514 139.807913,14.8549189 138.468943,14.4951351 C138.094309,16.2802162 137.795989,18.0791351 137.580921,19.8918919 Z" id="Shape"></path>
            <path d="M96.8706775,17.7193514 C99.000542,16.0795676 102.247371,14.6473514 104.63393,16.6054054 C102.025366,17.3388108 98.6189702,17.3180541 97.1134959,19.9956757 C95.8994038,22.7632432 96.8290515,26.540973 99.6388076,27.987027 C101.498103,28.5612973 103.454526,28.0492973 105.313821,27.7517838 C105.175068,26.4648649 105.001626,25.1779459 104.821247,23.8979459 C103.468401,23.6557838 102.122493,23.3859459 100.804336,23.0123243 C102.420813,22.3757838 104.085854,21.8637838 105.750894,21.3794595 C106.396098,23.5865946 107.020488,25.8075676 107.464499,28.0700541 C104.946125,29.2255135 102.115556,30.6646486 99.2919241,29.7305946 C94.5118699,28.1738378 92.9925203,20.9850811 96.8706775,17.7193514 Z" id="Shape"></path>
            <path d="M145.101355,27.8417297 C148.382873,24.0155676 151.560325,20.0994595 154.786341,16.2248649 C157.769539,17.2627027 161.404878,17.1796757 163.666558,19.6497297 C161.432629,19.6981622 159.295827,19.0131892 157.159024,18.4665946 C156.923144,19.8918919 156.680325,21.3171892 156.451382,22.7424865 C158.407805,23.2614054 160.530732,23.6073514 162.001518,25.1295135 C160.065908,25.3716757 158.206612,24.7835676 156.340379,24.3545946 C156.083686,25.9321081 155.840867,27.5165405 155.632737,29.100973 C157.505908,29.6337297 159.663523,29.9035676 160.884553,31.5987027 C158.39393,31.660973 156.021247,30.8722162 153.662439,30.1664865 C153.912195,28.5612973 154.182764,26.9561081 154.418645,25.344 C153.038049,25.0118919 151.671328,24.5206486 150.242168,24.492973 C149.028076,25.6553514 148.035989,27.0114595 146.988401,28.3191351 C146.51664,28.2015135 145.573117,27.9593514 145.101355,27.8417297 Z M151.296694,22.9777297 C152.372033,23.2890811 153.447371,23.6073514 154.52271,23.9187027 C154.897344,21.932973 155.154038,19.9264865 155.376043,17.9130811 C154.023198,19.6082162 152.67729,21.3102703 151.296694,22.9777297 Z" id="Shape"></path>
            <path d="M165.858862,19.9264865 C169.591328,21.0473514 173.87187,22.016 176.52206,25.0810811 C174.822331,24.7766486 173.164228,24.3130811 171.533875,23.7526486 C170.097778,27.4058378 168.495176,30.9898378 166.961951,34.6015135 C166.511003,34.5046486 165.602168,34.3178378 165.144282,34.2278919 C166.705257,30.5055135 168.307859,26.796973 169.903523,23.0884324 C168.377236,22.272 166.733008,21.5109189 165.858862,19.9264865 Z" id="Shape"></path>
            <path d="M81.3788618,22.6871351 C83.8417344,21.6354595 87.04,19.2484324 89.5722493,21.3448649 C91.3760434,22.6456216 90.6406504,25.0188108 90.335393,26.8315676 C92.076748,28.3191351 93.4573442,30.1457297 94.8865041,31.916973 C94.4286179,32.1107027 93.5059079,32.4912432 93.0480217,32.684973 C92.0212466,31.2873514 91.1054743,29.7651892 89.7942547,28.6097297 C88.5315989,28.332973 87.2481301,28.6996757 85.9993496,28.8588108 C86.6653659,30.8099459 87.4215718,32.7334054 88.1847154,34.6499459 C87.7892683,34.8367568 86.998374,35.2103784 86.5959892,35.3971892 C84.8199458,31.1697297 83.1202168,26.9215135 81.3788618,22.6871351 Z M83.5087263,23.0123243 C84.1678049,24.7005405 84.8476965,26.3749189 85.5692141,28.0423784 C87.0955014,27.1083243 89.8428184,26.1673514 89.1074255,23.8633514 C88.3997832,21.2756757 85.298645,22.4311351 83.5087263,23.0123243 Z" id="Shape"></path>
            <path d="M177.063198,31.4949189 C175.620163,29.3431351 177.826341,26.195027 180.323902,26.5340541 C182.613333,26.4302703 184.451816,28.1530811 185.346775,30.1180541 C183.612358,29.5161081 182.051382,28.5197838 180.310027,27.9316757 C179.29019,28.4021622 178.1871,29.0802162 178.561734,30.3878919 C179.588509,32.8787027 182.904715,35.4663784 180.71935,38.2823784 C178.228726,41.6588108 172.817344,39.1195676 171.93626,35.5770811 C174.308943,36.1582703 176.744065,39.8322162 179.102873,37.4797838 C180.462656,35.2311351 177.867967,33.3976216 177.063198,31.4949189 Z" id="Shape"></path>
            <path d="M71.7979404,27.2605405 C76.3143631,24.7974054 81.1360434,29.4745946 81.4898645,33.9027027 C82.0587534,37.5558919 78.6176694,41.0568649 74.9615176,40.6901622 C68.6066125,40.4410811 65.4915989,30.035027 71.7979404,27.2605405 Z M72.4917073,28.6028108 C68.4747967,30.4155676 70.1398374,36.4627027 73.31729,38.3584865 C75.7315989,40.3718919 79.8664499,38.3377297 79.6513821,35.1896216 C79.8248238,31.6678919 76.3074255,27.052973 72.4917073,28.6028108 Z" id="Shape"></path>
            <path d="M187.046504,34.4285405 C189.308184,31.0105946 194.747317,33.4183784 195.163577,37.0577297 C193.463848,36.1928649 192.055501,34.7883243 190.210081,34.2002162 C189.488564,34.7122162 188.787859,35.2518919 188.10103,35.8054054 C188.864173,37.7911351 190.161518,39.5762162 190.626341,41.6726486 C191.056477,43.948973 188.871111,46.0661622 186.637182,45.8862703 C184.139621,45.4572973 181.66981,43.6237838 181.593496,40.9046486 C183.140596,41.8871351 184.368564,43.4162162 186.096043,44.1011892 C187.448889,44.6201081 188.281409,43.1394595 189.211057,42.4475676 C188.281409,39.8737297 185.83935,37.3137297 187.046504,34.4285405 Z" id="Shape"></path>
            <path d="M55.7511111,38.6006486 C57.7977236,36.9539459 60.0247154,34.2555676 62.9732249,35.1065946 C64.8047696,35.8815135 64.9573984,37.8810811 64.8672087,39.596973 C67.2329539,39.4724324 69.6333875,40.9945946 69.5709485,43.5684324 C68.9534959,46.3636757 66.3241192,47.9342703 64.1803794,49.5187027 C61.3844986,45.8724324 58.5816802,42.2192432 55.7511111,38.6006486 Z M57.8948509,38.2062703 C58.859187,39.5900541 59.8859621,40.9323243 60.9613008,42.2330811 C62.175393,40.8285405 64.5480759,38.9604324 62.6957182,37.0923243 C61.0098645,36.1098378 59.3656369,37.4936216 57.8948509,38.2062703 Z M61.4677507,42.9388108 C62.5847154,44.4540541 63.7224932,45.9485405 64.881084,47.4291892 C66.2824932,46.1007568 68.4262331,44.5924324 67.4133333,42.3714595 C65.7968564,40.0743784 63.2576694,41.9632432 61.4677507,42.9388108 Z" id="Shape"></path>
            <path d="M95.8785908,42.323027 C111.640976,36.4142703 129.054526,34.9267027 145.573117,38.2477838 C166.184932,42.2192432 185.201084,53.6216216 198.479783,69.8188108 C214.942873,89.427027 222.310678,116.196324 218.474146,141.457297 C210.773333,144.19027 202.808889,146.11373 195.108076,148.867459 C191.105041,150.202811 187.164444,151.74573 183.07122,152.790486 C170.999675,155.772541 158.914255,159.010595 146.488889,160.089946 C137.837615,160.636541 129.054526,160.484324 120.597507,158.394811 C99.5694309,153.233297 80.8099729,140.647784 66.7889431,124.346811 C57.8671003,113.996108 50.3466667,102.372324 44.8034688,89.8905946 C45.198916,86.8531892 48.598374,86.4380541 50.9016802,85.4348108 C69.4738211,78.3775135 89.9538211,76.6408649 109.48336,80.2317838 C125.453875,83.1515676 141.188509,88.5137297 154.800217,97.4806486 C171.679566,108.938378 182.960217,126.484757 192.790894,143.93427 C194.122927,143.574486 195.448022,143.193946 196.773117,142.792649 C190.626341,132.331243 184.257561,121.911351 176.31393,112.688432 C167.579404,102.296216 156.791328,93.5161081 144.407588,87.8218378 C128.194255,79.8235676 110.302005,75.3747027 92.2987534,73.9701622 C78.4234146,72.9738378 64.4578862,74.752 51.0681843,78.419027 C61.5926287,62.0073514 77.556206,49.1104865 95.8785908,42.323027 Z" id="Shape"></path>
            <path d="M199.229051,38.8566486 C201.31729,40.6970811 203.794038,42.2745946 205.056694,44.8484324 C202.815827,44.3987027 201.275664,42.6343784 199.610623,41.2298378 C198.687913,42.2745946 197.765203,43.3193514 196.835556,44.3641081 C198.375718,45.7478919 200.026883,47.1109189 200.887154,49.0551351 C198.833604,48.4324324 197.286504,46.9379459 195.683902,45.6095135 C194.622439,46.7995676 193.560976,47.9896216 192.499512,49.1796757 C194.150678,50.6464865 195.829593,52.0994595 197.23794,53.8153514 C194.102114,53.9675676 192.367696,50.8332973 190.112954,49.152 C193.137778,45.7063784 196.225041,42.3161081 199.229051,38.8566486 Z" id="Shape"></path>
            <path d="M50.8531165,41.8594595 C54.5855827,44.9037838 57.7491599,48.556973 61.2526829,51.8572973 C60.9613008,52.1824865 60.3854743,52.8259459 60.1010298,53.1511351 C55.8413008,52.2931892 51.6162602,51.2553514 47.4050949,50.1898378 C49.6737127,52.7705946 52.4210298,54.9016216 54.5647696,57.5861622 C54.5508943,58.0497297 54.5300813,58.9768649 54.5231436,59.4404324 C50.7421138,56.4307027 47.5438482,52.7705946 44.1097019,49.3872432 C44.5120867,49.0482162 45.3168564,48.3770811 45.7192412,48.044973 C49.8957182,49.1104865 54.1415718,49.9130811 58.2833604,51.1308108 C55.9523035,48.896 53.5588076,46.7096216 51.3456911,44.3571892 C50.6519241,43.7206486 50.9779946,42.6758919 50.8531165,41.8594595 Z" id="Shape"></path>
            <path d="M197.959458,56.2992432 C201.324228,53.1857297 204.744499,50.1344865 208.143957,47.0555676 C208.456152,47.4015135 209.073604,48.0934054 209.378862,48.4393514 C206.298537,51.1100541 203.315339,53.8983784 200.332141,56.6797838 C201.684986,58.4025946 204.009106,59.8140541 203.814851,62.2771892 C201.52542,60.6304865 199.77019,58.4233514 197.959458,56.2992432 Z" id="Shape"></path>
            <path d="M40.876748,53.3448649 C41.2097561,53.5109189 41.8757724,53.8291892 42.2087805,53.9952432 C41.0710027,55.5935135 39.8915989,57.1641081 38.7052575,58.7208649 C39.8360976,59.5718919 40.9738753,60.4229189 42.1116531,61.267027 C43.4298103,59.6618378 44.5606504,57.7660541 46.6003252,56.9842162 C45.9343089,58.9768649 44.6230894,60.6304865 43.3326829,62.2564324 C44.6161518,63.2596757 45.8857453,64.2698378 47.1692141,65.2661622 C48.64,63.5087568 49.7639024,61.2047568 52.12271,60.4851892 C51.0820596,63.2389189 49.0076965,65.3768649 47.2455285,67.667027 C43.644878,64.8302703 40.016477,62.0281081 36.3880759,59.2328649 C37.8588618,57.2540541 39.3851491,55.3167568 40.876748,53.3448649 Z" id="Shape"></path>
            <path d="M212.195556,58.0566486 C215.033062,54.8808649 220.36813,58.9837838 219.126287,62.6438919 C217.648564,61.1217297 215.997398,56.9427027 213.479024,59.2743784 C212.660379,61.6683243 214.103415,64.2490811 213.354146,66.6845405 C212.382873,68.2828108 210.162818,69.3898378 208.40065,68.3589189 C206.11122,67.2934054 204.876314,64.768 204.869377,62.3187027 C207.03393,63.5502703 207.471003,67.6808649 210.551328,66.8367568 C213.99935,64.9755676 209.482927,60.4575135 212.195556,58.0566486 Z" id="Shape"></path>
            <path d="M33.7933875,65.5152432 C37.9768022,64.2283243 42.7291057,67.667027 43.1731165,71.9290811 C43.0413008,74.8557838 41.3346341,77.3673514 39.8083469,79.7543784 C35.819187,77.4572973 31.8508401,75.1325405 27.9171816,72.7524324 C29.3949051,70.0471351 30.6714363,66.7052973 33.7933875,65.5152432 Z M29.9568564,71.8391351 C33.1689973,73.7556757 36.3742005,75.6722162 39.6279675,77.4918919 C40.5506775,75.6376216 41.8757724,73.6864865 41.3485095,71.5139459 C40.6131165,68.9262703 37.9490515,67.3418378 35.4098645,66.9543784 C32.6417344,67.1342703 31.1570732,69.6873514 29.9568564,71.8391351 Z" id="Shape"></path>
            <path d="M210.939837,72.6071351 C214.915122,70.3584865 218.862656,68.0683243 222.831003,65.8127568 C223.087696,66.3593514 223.34439,66.9128649 223.601084,67.4663784 C221.755664,68.5180541 219.910244,69.5628108 218.092575,70.6698378 C221.367154,71.5416216 225.508943,70.8220541 227.846938,73.7487568 C225.134309,73.6726486 222.504932,72.9738378 219.820054,72.6694054 C218.418645,75.5615135 217.038049,78.4674595 215.54645,81.3111351 C215.241192,80.3494054 214.44336,79.3254054 215.123252,78.3221622 C216.115339,76.0527568 217.371057,73.900973 218.238266,71.5762162 C215.775393,71.8183784 213.645528,73.0637838 211.564228,74.2815135 C211.404661,73.8663784 211.092466,73.0222703 210.939837,72.6071351 Z" id="Shape"></path>
            <path d="M34.8479133,86.8947027 C35.8469377,84.8674595 36.3811382,82.3628108 38.5110027,81.1658378 C38.0461789,84.0095135 36.7141463,86.5902703 35.5278049,89.1848649 C31.3513279,87.3582703 27.1748509,85.5385946 22.9706233,83.7673514 C23.1093767,83.3245405 23.3799458,82.432 23.5117615,81.9891892 C27.299729,83.6012973 31.0807588,85.2341622 34.8479133,86.8947027 Z" id="Shape"></path>
            <path d="M215.75458,82.2728649 C220.832954,82.0445405 225.90439,81.2004324 230.989702,81.408 C232.280108,83.1238919 230.406938,84.3139459 229.248347,85.3517838 C226.272087,87.8356757 223.455393,90.5132973 220.437507,92.9487568 C220.340379,92.4505946 220.132249,91.4611892 220.035122,90.963027 C221.138211,89.9943784 222.241301,89.0118919 223.323577,88.0224865 C222.726938,86.6663784 222.227425,85.2687568 221.533659,83.9610811 C219.487046,83.6912432 216.982547,84.4384865 215.75458,82.2728649 Z M222.872629,83.4144865 C223.427642,84.6737297 223.989593,85.9398919 224.551545,87.1991351 C226.08477,85.7807568 227.638808,84.3831351 229.227534,83.0339459 C227.111545,83.1654054 224.988618,83.2899459 222.872629,83.4144865 Z" id="Shape"></path>
            <path d="M22.4502981,90.0981622 C25.5444986,88.8112432 29.3810298,89.8905946 31.621897,92.3122162 C33.9668293,94.7891892 33.4465041,99.2034595 30.761626,101.237622 C27.4107317,103.714595 22.3115447,102.303135 19.9596748,99.1065946 C17.9061247,96.172973 19.1202168,91.5372973 22.4502981,90.0981622 Z M23.2828184,91.7517838 C20.7713821,92.3744865 19.536477,95.7716757 21.1390786,97.8127568 C23.4146341,100.92627 29.2977778,101.971027 31.3097019,98.0618378 C32.9608672,93.5783784 27.0291599,90.5686486 23.2828184,91.7517838 Z" id="Shape"></path>
            <path d="M221.339404,95.3772973 C225.793388,94.2564324 230.184932,92.9072432 234.666667,91.8901622 C235.291057,94.3602162 237.025474,97.28 235.166179,99.6393514 C233.924336,101.286054 231.863848,100.455784 230.302873,99.8676757 C229.373225,101.555892 227.888564,103.410162 225.69626,102.815135 C222.407805,102.067892 221.991545,98.1102703 221.339404,95.3772973 Z M229.317724,95.2043243 C229.886612,96.4012973 230.316748,97.7158919 231.274146,98.6776216 C232.252358,98.7814054 233.237507,98.6707027 234.222656,98.6222703 C234.319783,97.024 234.250407,95.4257297 234.070027,93.8412973 C232.481301,94.2702703 230.892575,94.72 229.317724,95.2043243 Z M222.976694,96.7956757 C223.587209,98.5461622 224.218537,101.431351 226.702222,100.905514 C229.47729,100.635676 228.589268,97.363027 228.429702,95.4949189 C226.598157,95.8685405 224.787425,96.3459459 222.976694,96.7956757 Z" id="Shape"></path>
            <path d="M41.3901355,98.3662703 C53.6906233,120.202378 71.0694851,139.748324 93.2839024,151.863351 C108.956098,160.525838 127.028726,165.452108 145.011165,163.874595 C159.295827,163.127351 173.171165,159.328865 187.004878,155.959351 C191.951436,154.783135 196.675989,152.89427 201.483794,151.275243 C206.791111,149.379459 212.230244,147.871135 217.620813,146.224432 C215.900271,154.796973 212.937886,163.127351 208.823848,170.855784 C206.73561,166.185514 204.515556,161.584432 202.510569,156.879568 C200.679024,157.516108 198.868293,158.194162 197.057561,158.879135 C199.548184,164.123676 201.997182,169.388973 204.453117,174.65427 C204.862439,175.643676 205.63252,176.875243 204.730623,177.843892 C198.653225,187.219027 190.785908,195.438703 181.794688,202.073946 C166.247371,213.504 146.96065,219.696432 127.653117,219.648 C105.931274,219.599568 84.2510569,211.608216 67.9544715,197.230703 C55.1405962,186.17427 45.4833604,171.513081 40.5090515,155.357405 C34.7438482,136.911568 34.9727913,116.611459 41.3901355,98.3662703 Z" id="Shape"></path>
            <path d="M155.403794,226.56 C156.451382,223.709405 160.260163,221.779027 162.910352,223.619459 C164.623957,224.927135 163.992629,227.085838 163.305799,228.760216 C165.574417,229.279135 167.891599,231.147243 167.20477,233.700324 C166.358374,236.841514 162.875664,237.803243 160.010407,237.976216 C159.920217,237.595676 159.753713,236.841514 159.663523,236.460973 C161.481192,236.045838 163.95794,236.135784 164.929214,234.233081 C165.747859,233.063784 164.693333,231.818378 164.395014,230.656 C162.452466,230.600649 160.523794,230.697514 158.588184,230.683676 C160.052033,229.244541 163.284986,227.909189 161.841951,225.349189 C159.788401,223.515676 157.540596,226.165622 155.403794,226.56 Z" id="Shape"></path>
            <path d="M88.5454743,239.007135 C89.9330081,234.191568 91.3066667,229.369081 92.7635772,224.57427 C95.4484553,225.695135 99.000542,225.47373 100.804336,228.061405 C98.5149051,228.165189 96.3434146,227.362595 94.1927371,226.719135 C93.7279133,228.255135 93.2839024,229.804973 92.8468293,231.36173 C94.7893767,231.970595 96.7319241,232.565622 98.6259079,233.312865 C96.7874255,235.180973 94.3661789,233.375135 92.2779404,233.001514 C91.7506775,235.097946 91.1332249,237.166703 90.5504607,239.256216 C90.0509485,239.193946 89.0449864,239.069405 88.5454743,239.007135 Z" id="Shape"></path>
            <path d="M145.018103,230.662919 C145.635556,228.559568 147.411599,227.272649 149.250081,226.297081 C150.540488,230.822054 151.775393,235.374703 152.822981,239.955027 C152.46916,240.307892 151.75458,240.999784 151.400759,241.352649 C150.082602,237.346595 149.146016,233.236757 148.174743,229.140757 C147.134092,229.666595 146.086504,230.185514 145.018103,230.662919 Z" id="Shape"></path>
            <path d="M103.315772,228.116757 C103.780596,227.867676 104.696369,227.362595 105.154255,227.113514 C104.63393,232.475676 103.392087,237.775568 102.039241,242.985514 C99.9371274,241.615568 101.054092,239.235459 101.373225,237.270486 C102.080867,234.233081 102.448564,231.119568 103.315772,228.116757 Z" id="Shape"></path>
            <path d="M108.928347,228.884757 C109.36542,228.711784 110.232629,228.365838 110.669702,228.192865 C110.67664,232.759351 109.837182,237.270486 109.27523,241.788541 C111.6271,242.231351 114.568672,241.802378 116.268401,243.822703 C113.208889,244.244757 110.156314,243.608216 107.138428,243.179243 C107.901572,238.432865 108.102764,233.617297 108.928347,228.884757 Z" id="Shape"></path>
            <path d="M131.829593,231.140324 C132.370732,229.95027 133.661138,229.555892 134.736477,229.016216 C135.013984,232.060541 135.340054,235.104865 135.58981,238.156108 C136.477832,238.294486 137.365854,238.439784 138.253875,238.592 C137.456043,239.228541 136.644336,239.837405 135.811816,240.432432 C135.832629,241.947676 135.881192,243.608216 134.528347,244.632216 C134.209214,243.13773 133.945583,241.636324 133.675014,240.134919 C131.350894,240.287135 129.026775,240.411676 126.695718,240.432432 C128.159566,237.201297 130.018862,234.17773 131.829593,231.140324 Z M129.033713,238.951784 C130.587751,238.778811 132.134851,238.585081 133.688889,238.412108 C133.529322,236.232649 133.404444,234.04627 133.231003,231.87373 C131.80878,234.219243 130.407371,236.578595 129.033713,238.951784 Z" id="Shape"></path>
            <path d="M139.599783,233.402811 C140.314363,232.939243 141.105257,232.620973 141.896152,232.302703 C141.972466,233.264432 141.979404,234.233081 141.93084,235.20173 C140.605745,236.121946 139.405528,234.731243 139.599783,233.402811 Z" id="Shape"></path>
            <path d="M141.799024,240.425514 C143.297561,239.470703 144.102331,242.487351 142.791111,242.944 C141.264824,244.078703 139.988293,240.709189 141.799024,240.425514 Z" id="Shape"></path>
            <path d="M118.821463,242.092973 C119.536043,241.650162 121.395339,241.60173 121.159458,242.847135 C121.65897,244.327784 119.945366,244.985081 118.828401,244.320865 C118.828401,243.760432 118.821463,242.653405 118.821463,242.092973 Z" id="Shape"></path>
        </g>
    </g>
</svg>