<?xml version="1.0" encoding="UTF-8"?>
<svg width="256px" height="256px" viewBox="0 0 256 256" version="1.1" xmlns="http://www.w3.org/2000/svg" xmlns:xlink="http://www.w3.org/1999/xlink">
    <!-- Generator: Sketch 50.2 (55047) - http://www.bohemiancoding.com/sketch -->
    <title>logo/osi</title>
    <desc>Created with Sketch.</desc>
    <defs></defs>
    <g id="logo/osi" stroke="none" stroke-width="1" fill="none" fill-rule="evenodd">
        <g id="osi" transform="translate(2.000000, 0.000000)" fill-rule="nonzero">
            <g id="#ffffffff" transform="translate(3.528112, 4.039448)" fill="#FFFFFF">
                <path d="M122.080251,0.189349112 C122.745552,0.0807889546 123.428494,-0.00252465483 124.093795,0.154003945 C143.276647,3.51179487 161.549749,11.0201183 178.346084,20.77286 C194.633363,30.2832347 209.690843,41.9370414 222.891024,55.4262722 C230.320221,63.0734517 237.17988,71.329073 242.822339,80.3951085 C243.028986,80.7611834 243.336436,81.1171598 243.308715,81.569073 C243.47,90.5644181 243.643886,99.562288 243.661526,108.560158 C243.626245,117.232347 243.406998,125.922209 242.338484,134.536331 C241.504337,141.443787 240.130894,148.275503 238.44496,155.023905 C236.338173,163.716292 233.135151,172.123393 229.196265,180.144221 C225.327942,188.016095 220.776677,195.549665 215.635713,202.651519 C210.51491,209.690256 204.837169,216.39069 198.141315,221.977751 C191.06745,227.996529 183.159438,233.023116 174.714649,236.87574 C165.932169,240.900039 156.602831,243.656963 147.109689,245.373728 C134.58993,247.630769 121.813122,248.133176 109.119478,247.668639 C99.2281627,247.277318 89.3066064,245.972071 79.8638655,242.909665 C68.772992,239.39787 58.7405522,233.265483 49.353253,226.496884 C42.5641566,221.725286 36.112751,216.431085 30.4476104,210.349191 C24.2734137,203.77499 18.9888052,196.365128 14.8180723,188.364497 C10.3928112,179.919527 7.19986948,170.85854 4.9947992,161.590533 C2.24539157,150.047811 0.970230924,138.199606 0.446054217,126.35645 C-0.31753012,108.572781 0.567018072,90.7689152 1.68593373,73.0180671 C1.68593373,72.6418935 1.79429719,72.2808679 2.03370482,71.9880079 C7.66860442,64.0479684 14.3367369,56.8855227 21.5114056,50.3264694 C34.6889056,38.334359 49.5372189,28.2534122 65.2473996,19.8993294 C80.2116365,12.0148323 96.0503414,5.61483235 112.582068,1.92378698 C115.724608,1.22445759 118.894869,0.656410256 122.080251,0.189349112 Z M122.337299,4.45096647 C113.496857,5.72844181 104.827781,8.03850099 96.4031526,10.9872978 C87.0712952,14.2592505 78.0216867,18.3163708 69.2946486,22.9617357 C54.4639759,30.8916765 40.47249,40.4727416 28.0207731,51.8059172 C20.7629418,58.448284 14.0343273,65.7218146 8.40194779,73.808284 C8.01133534,74.2728205 8.09953815,74.9065089 8.03905622,75.4695069 C7.31075301,87.3278107 6.70341365,99.2012623 6.64545181,111.087337 C6.58748996,123.83432 7.12678715,136.621696 9.08236948,149.234872 C10.7229418,159.77783 13.3992671,170.204655 17.6355221,180.012939 C20.896506,187.594477 25.1025201,194.774596 30.1779618,201.283156 C35.9338253,208.675345 42.7834036,215.181381 50.2907229,220.768442 C54.499257,223.916686 58.7758333,226.979093 63.2363755,229.766312 C69.3047289,233.563393 75.7788153,236.757081 82.6082329,238.935858 C91.488996,241.808915 100.823373,243.023274 110.12499,243.376726 C123.987952,243.863984 137.989518,243.134359 151.52739,239.943195 C160.687882,237.794714 169.601406,234.497515 177.842068,229.930414 C185.485472,225.701617 192.531616,220.397318 198.748655,214.257357 C201.787871,211.222722 204.565,207.938146 207.206044,204.555108 C212.616657,197.561815 217.377088,190.068639 221.467179,182.229586 C225.968042,173.57002 229.647359,164.445917 231.996074,154.95574 C233.649247,148.328521 235.017651,141.617988 235.849277,134.834241 C237.076556,125.119369 237.2076,115.30856 237.172319,105.530572 C237.089157,97.9010651 237.033715,90.2665089 236.799347,82.6445759 C231.446697,73.5911637 224.735723,65.4037081 217.505612,57.7943984 C205.167299,44.9338067 191.06745,33.7723077 175.788203,24.6204339 C159.831054,15.1176331 142.417299,7.76078895 124.086235,4.47368836 C123.509137,4.34240631 122.914398,4.33988166 122.337299,4.45096647 Z" id="Shape"></path>
                <path d="M119.718936,8.09656805 C121.11506,7.95013807 122.513705,7.45530572 123.92243,7.69262327 C130.51496,8.87668639 137.031888,10.53286 143.352249,12.7520316 C132.263896,18.5107692 121.218384,24.3629191 110.417319,30.6518343 C110.417319,27.1627613 110.359357,23.6686391 110.636566,20.18714 C110.73989,19.5559763 110.676888,18.7203156 111.306908,18.344142 C111.841165,18.0916765 112.448504,18.1042998 113.020562,18.0159369 C113.025602,17.2610651 113.028122,16.5036686 113.018042,15.7487968 C108.582701,15.8422091 104.142319,15.8396844 99.7069779,15.7487968 C99.6968976,16.4986193 99.6994177,17.2509665 99.6943775,18.000789 C100.39748,18.1547929 101.32991,18.0235108 101.783524,18.7051677 C102.098534,19.4171203 102.070813,20.2275345 102.153976,20.9899803 C102.421104,25.8246943 102.2699,30.6669822 102.325341,35.5067456 C105.004187,33.8783432 107.677992,32.2398422 110.402199,30.6846548 C110.45512,35.7718343 110.319036,40.8615385 110.530723,45.9461933 C110.618926,46.9232347 110.576084,47.9507692 110.938976,48.8798422 C111.36991,49.5816963 112.31242,49.4478895 113.013002,49.5640237 C113.030643,50.3264694 113.030643,51.0863905 113.018042,51.8463116 C108.582701,51.7554241 104.142319,51.7554241 99.7069779,51.8463116 C99.6943775,51.0863905 99.6968976,50.3264694 99.7120181,49.5665483 C100.40252,49.4453649 101.324869,49.5791716 101.768404,48.9050888 C102.073333,48.2663511 102.058213,47.5342012 102.138855,46.8449704 C102.375743,43.0781854 102.305181,39.3013018 102.310221,35.5294675 C96.6425602,38.9983432 91.0731827,42.6338462 85.6172088,46.430927 C87.4190663,46.9484813 89.2133635,47.8043393 90.3650402,49.3393294 C92.0812149,51.5938462 92.4037851,54.5830375 92.2172992,57.3273373 C91.9577309,61.578856 89.6896586,65.7748323 85.9901807,67.9738067 C82.83,69.8521499 78.9919177,70.1980276 75.4058434,69.7865089 C72.8555221,69.4431558 70.3581225,68.6201183 68.115251,67.3552663 C67.4222289,66.8907298 67.8859237,66.0121499 67.9942871,65.3734122 C68.4554618,63.795503 68.2765361,62.1342801 68.4680622,60.5311243 C68.9695582,60.1726233 69.7180221,60.4503353 70.3152811,60.3947929 C70.4412851,61.4955424 70.6076104,62.6821302 71.4064759,63.5177909 C73.9794779,66.4236686 78.4576606,67.5875345 82.0588554,66.0525444 C84.40001,65.0351085 85.6726506,62.507929 86.000261,60.0817357 C86.2623494,58.0847337 85.8918976,55.7872978 84.2563655,54.4441815 C82.3486647,52.9066667 79.7781827,52.8713215 77.5000301,52.2931755 C80.0982329,50.2254832 82.8728414,48.3925838 85.5617671,46.446075 C82.6258735,45.6861538 79.5438153,45.4740828 76.7087249,44.3455621 C75.2395181,43.7876134 74.2289659,42.3687574 73.9441968,40.8514398 C73.5510643,38.7685996 73.8685944,36.4257199 75.2848795,34.779645 C76.3458333,33.4870217 77.9637249,32.7447732 79.6118574,32.5983432 C82.4242671,32.3105325 85.5012851,33.272426 87.2804618,35.562288 C88.0289257,35.8601972 88.9311145,35.6657988 89.7375402,35.6708481 C89.7904618,34.7619724 89.7451004,33.8303748 90.0575904,32.9593688 C90.233996,32.4645365 90.2289558,31.934359 90.1256325,31.4269034 C86.7008434,29.4702959 82.5956325,29.1345168 78.7399096,29.4803945 C75.1084739,29.8287968 71.5198795,31.7197633 69.6600602,34.9437475 C68.0446888,37.6779487 67.7170783,40.9978698 68.1026506,44.1006706 C68.4101004,46.4839448 69.4987751,48.9101381 71.5576807,50.2633531 C73.3318173,51.3615779 75.4008032,51.8084418 77.3992269,52.3032742 C70.6101305,57.3450099 63.9495582,62.57357 57.5309137,68.0848915 C60.0308333,73.1771203 60.4945281,79.0141223 60.1543173,84.6011834 C59.8090663,89.8701381 58.2844177,95.2628008 54.7941064,99.3325444 C52.3597088,102.25357 48.8366365,104.210178 45.0766767,104.758028 C41.0344679,105.343748 36.70749,104.947377 33.0936948,102.925128 C30.3896486,101.433057 28.2501004,99.064931 26.7506526,96.3862722 C29.054006,94.1241815 31.3623996,91.8696647 33.6733133,89.6201972 C32.693002,86.2018146 32.5846386,82.5890335 32.8013655,79.0595661 C33.068494,75.5755424 33.9454819,71.899645 36.4151606,69.2992505 C39.3712149,66.0777909 45.1447189,66.2873373 47.8991667,69.6602761 C48.8315964,70.7761736 49.4666566,72.1192899 49.8774297,73.5078501 C49.9883133,73.7906114 49.9958735,74.1768836 50.3436446,74.2829191 C52.7049598,72.1672584 55.1065964,70.0945168 57.5359538,68.059645 C55.7038554,64.2246943 52.5109137,60.9451677 48.4586245,59.516213 C44.8095482,58.236213 40.7648193,58.0796844 37.0225,59.0340039 C32.9399699,60.079211 29.5177008,62.9522682 27.2849096,66.4741617 C24.4069779,70.9175542 23.3359438,76.3076923 23.3712249,81.5463511 C23.3258635,86.6562525 24.2003313,91.9075345 26.7380522,96.4014201 C20.7024598,102.4 14.74751,108.481893 8.87974547,114.649625 C8.85052209,101.819329 9.49818273,88.9966075 10.3071285,76.1966075 C10.2844478,75.6563314 10.6599398,75.2473373 10.9421888,74.8332939 C20.3672892,61.6343984 32.5342369,50.6344773 45.5806928,41.1266272 C60.1039157,30.6493097 75.9401004,21.9569231 92.680994,15.5947929 C101.440793,12.2900197 110.477801,9.64670611 119.718936,8.09656805 Z M33.6682731,89.6403945 C34.1521285,91.0895464 34.7468675,92.5336489 35.734739,93.7126627 C38.433745,97.1108481 44.1896084,97.3809862 47.1607831,94.2024458 C49.4414558,91.8368442 50.3612851,88.5169231 50.7115763,85.328284 C51.0694277,81.700355 50.9787048,77.9966864 50.1571586,74.4369231 C44.5449398,79.3776726 39.061245,84.4623274 33.6682731,89.6403945 Z" id="Shape"></path>
                <path d="M163.636376,21.3005128 C172.113926,25.5015385 180.198343,30.4725838 187.92491,35.9258383 C201.865994,45.8477318 214.695723,57.4485207 225.423705,70.8216174 C228.72753,74.9847732 231.85243,79.3095069 234.553956,83.8917554 C234.750522,87.4742406 234.6976,91.0794477 234.790843,94.6695069 C234.937008,104.689862 235.118454,114.72284 234.546396,124.733097 C234.135622,132.031874 233.185552,139.300355 231.686104,146.457751 C230.421024,152.458856 228.974498,158.442288 226.902992,164.223748 C223.516004,173.771992 218.924418,182.870848 213.521365,191.429428 C208.977661,198.571677 203.892139,205.400868 198.005231,211.49286 C191.717631,217.809546 184.540442,223.242604 176.730713,227.531992 C162.766948,235.254911 146.948404,239.094911 131.119779,240.278974 C123.042922,240.884892 114.920703,240.917712 106.836285,240.458225 C97.6581526,239.890178 88.4775,238.329941 79.8437048,235.08071 C72.7143976,232.432347 66.0613855,228.64789 59.7838655,224.381223 C52.4806727,219.377357 45.3135643,214.080631 39.1166867,207.72355 C31.7933333,200.311164 25.7148996,191.67432 21.2165562,182.267456 C30.4501305,163.862722 39.8248293,145.495858 50.5729719,127.921736 C59.9552309,112.571834 70.5975301,97.9540828 82.8476406,84.7678107 C96.3048695,70.2056016 111.518594,57.3727811 127.480783,45.6659566 C139.196637,37.0568836 151.340904,29.0512032 163.636376,21.3005128 Z M121.7224,67.3981854 C116.883845,68.2666667 112.045291,69.3901381 107.531827,71.3770414 C106.095382,72.0763708 104.505211,72.7656016 103.600502,74.1566864 C104.910944,75.6411834 106.518755,76.8151479 108.013163,78.1052465 C110.684448,80.3774359 113.416215,82.6344773 115.621285,85.3838264 C116.324388,86.330572 117.098052,87.3581065 117.173655,88.5825641 C117.007329,89.3172387 116.41511,89.8474162 115.895974,90.3498225 C114.464568,91.6298225 112.899598,92.7431953 111.39007,93.9247337 C108.23241,96.358501 105.183112,99.0119132 102.824317,102.25357 C102.650432,102.541381 102.400944,102.862012 102.486627,103.223037 C102.746195,103.727968 103.426616,103.844103 103.660984,104.369231 C104.187681,105.661854 105.498122,106.31574 106.584277,107.068087 C106.591837,107.716923 106.513715,108.433925 106.921968,108.991874 C107.360462,109.761893 108.24501,110.357712 108.182008,111.334753 C108.24501,112.468323 108.56506,113.566548 108.88007,114.65215 C108.628062,114.957633 108.182008,115.205049 108.23997,115.662012 C108.287851,116.949586 107.980402,118.267456 108.310532,119.532308 C108.759106,120.509349 109.242962,121.471243 109.648695,122.468481 C109.958665,123.13499 108.925432,123.364734 108.932992,123.9757 C108.784307,127.548087 108.204689,131.150769 106.66492,134.405049 C105.992058,135.745641 107.216817,136.912032 107.539388,138.156686 C108.134127,139.764892 106.738002,141.09286 106.188624,142.486469 C104.346446,145.5514 103.22249,148.969783 101.864167,152.261933 C101.241707,153.653018 101.090502,155.2486 101.415592,156.735621 C101.597038,157.639448 102.337942,158.475108 103.303133,158.500355 C104.656416,158.565996 106.012219,158.444813 107.362982,158.581144 C107.488986,159.368836 107.385663,160.169152 107.466305,160.959369 C107.655311,161.297673 107.987962,161.514793 108.260131,161.782406 C108.320612,163.388087 107.776275,165.150296 108.645703,166.62217 C109.061516,167.225562 108.434016,167.937515 108.648223,168.601499 C109.056476,169.924418 110.545843,170.45712 111.135542,171.668955 C111.347229,172.118343 111.183424,172.643471 111.347229,173.105483 C111.556396,173.453886 111.987329,173.731598 111.954568,174.18856 C111.967169,176.533964 111.936928,178.881893 111.962129,181.229822 C111.977249,182.535069 112.922279,183.70146 114.154598,184.077633 C116.190823,184.754241 118.375733,184.567416 120.48252,184.802209 C122.417942,184.989034 124.55245,185.418225 125.885572,186.960789 C126.107339,187.642446 126.419829,188.278659 126.858323,188.85428 C126.921325,192.214596 126.878484,195.582485 126.878484,198.945325 C125.48488,201.114004 124.786817,203.631085 124.053474,206.085049 C123.365492,208.574359 122.67751,211.076292 122.337299,213.641341 C123.980392,214.711795 125.905733,215.229349 127.725231,215.921105 C131.948886,217.34501 136.222942,218.693176 140.620482,219.463195 C141.610873,219.554083 142.729789,219.889862 143.652139,219.382406 C145.201988,218.099882 145.466596,215.827692 145.058343,213.967022 C144.536687,211.851361 144.493845,209.541302 145.421235,207.531677 C145.940371,206.241578 146.928243,205.143353 147.15757,203.744694 C147.339016,202.621223 146.724116,201.61641 146.187339,200.692387 C144.897058,198.331834 143.725221,195.650651 144.188916,192.898777 C144.554327,190.452387 146.668675,188.601815 146.671195,186.069586 C146.751837,184.812308 146.089056,183.698935 145.874849,182.497199 C147.601104,183.375779 148.72002,185.390454 148.498253,187.334438 C148.289086,189.392032 147.490221,191.34359 147.293655,193.406233 C146.983685,195.870296 147.487701,198.384852 148.520934,200.626746 C149.007309,201.639132 148.881305,202.813097 148.588976,203.863353 C147.870753,206.433452 146.399026,208.836923 146.396506,211.573649 C146.343584,213.323235 147.490221,214.752189 147.946355,216.380592 C148.485653,216.24931 149.284518,216.345247 149.561727,215.749428 C149.685211,214.928915 149.607088,214.060434 149.163554,213.348481 C148.286566,211.727653 148.07992,209.771045 148.669618,208.01641 C149.395402,205.850256 150.179147,203.593215 149.793574,201.273057 C149.637329,199.159921 148.352088,197.301775 148.39745,195.163393 C148.40753,190.578619 151.091416,186.324576 150.385793,181.694359 C151.499669,182.23716 152.545502,182.961736 153.445171,183.812544 C154.135673,184.973886 153.389729,186.33215 153.1226,187.516213 C151.819719,191.591006 152.074247,196.021775 153.341847,200.071321 C153.631657,201.169546 154.299478,202.275345 153.954227,203.44426 C153.578735,204.69144 152.762229,205.759369 152.427058,207.026746 C151.789478,209.195424 152.333815,211.480237 153.064639,213.550454 C153.273805,214.259882 153.755141,214.850651 154.289398,215.348008 C155.224347,215.383353 154.740492,213.984694 154.753092,213.376252 C154.019749,211.96497 153.472892,210.39716 153.669458,208.781381 C153.855944,206.120394 155.451155,203.833057 155.829167,201.220039 C156.023213,200.099093 155.516677,199.05641 155.113464,198.049073 C154.183554,195.592584 153.601416,192.901302 154.102912,190.283235 C154.382641,188.447811 155.380592,186.715897 155.161345,184.819882 C155.068102,183.69641 154.332239,182.795108 153.969347,181.762525 C154.304518,181.696884 154.702691,181.431795 154.97738,181.780197 C155.468795,182.23211 156.018173,182.618383 156.711195,182.653728 C156.741436,183.883235 156.580151,185.107692 156.454147,186.329625 C156.081175,190.232742 155.861928,194.41357 157.666305,198.021302 C158.686938,200.164734 159.05991,202.60355 158.734819,204.956529 C158.510532,207.087337 157.678906,209.144931 157.799869,211.311085 C157.885552,212.283077 158.170321,213.340907 158.949026,213.992268 C159.876416,212.88142 158.697018,211.611519 159.100231,210.404734 C159.385,208.766233 159.574006,207.112584 159.674809,205.453886 C159.838614,202.204655 159.810894,198.786272 158.387048,195.789507 C157.444538,193.519842 157.255532,191.022959 157.222771,188.591716 C157.255532,186.354872 157.414297,184.110454 157.832631,181.911479 C158.460131,181.72213 159.07755,181.497436 159.649608,181.169231 C160.294749,182.38359 160.894528,183.65854 161.048253,185.044576 C161.302781,187.09712 160.576998,189.086548 160.400592,191.113846 C160.083062,194.062643 160.708042,197.021538 161.683313,199.793609 C162.978635,202.883787 162.444378,206.327416 162.033604,209.546351 C163.061797,210.164892 162.668665,211.434793 162.779548,212.421933 C163.588494,212.209862 164.331918,211.611519 164.599046,210.806154 C164.266396,209.70288 163.606135,208.680394 163.585974,207.491282 C163.303725,205.474083 164.374759,203.512426 164.011867,201.517949 C162.777028,198.723156 161.945402,195.708718 162.003363,192.631164 C161.950442,189.775779 162.668665,186.993609 163.127319,184.196292 C163.328926,183.120789 163.223082,182.027613 162.973594,180.969783 C163.580934,181.424221 164.142912,181.987219 164.405,182.719369 C164.878775,183.984221 164.543604,185.350059 164.331918,186.635108 C163.921145,188.728047 163.711978,190.9043 164.193313,193.004813 C164.518404,194.633215 165.36011,196.089941 165.808685,197.682998 C166.743635,200.788323 166.915,204.052702 166.9276,207.276686 C166.970442,208.281499 166.872159,209.362051 167.391295,210.273452 C167.85499,210.164892 168.338845,209.824063 168.321205,209.298935 C168.79498,204.911085 168.608494,200.343984 167.068725,196.17073 C166.2875,194.315108 165.544076,192.406469 165.382791,190.381696 C165.014859,186.978462 166.799076,183.714083 166.083373,180.308323 C166.710873,180.871321 167.348454,181.424221 167.973434,181.992268 C167.618102,186.07716 167.887751,190.290809 169.309076,194.163629 C169.785371,195.567337 170.700161,196.799369 170.967289,198.278817 C171.536827,201.023116 170.861446,203.797712 170.415392,206.506667 C170.327189,207.274162 170.125582,208.137594 170.561556,208.841972 C171.00257,209.208047 171.587229,209.011124 172.093765,208.940434 C172.096285,208.27645 171.647711,207.786667 171.269699,207.301933 C171.667871,205.617988 172.073604,203.934043 172.328133,202.222327 C172.607861,200.073846 172.88255,197.718343 171.791355,195.744063 C170.468313,193.047732 169.75009,190.071164 169.621566,187.071874 C169.525803,185.552032 169.659367,184.029665 169.578725,182.512347 C169.578725,181.676686 168.79498,181.025325 169.064629,180.164418 C169.74001,180.373964 169.772771,181.161657 169.936576,181.739803 C170.6926,185.481341 170.967289,189.354162 172.305452,192.959369 C172.748986,194.274714 173.82002,195.289625 174.109829,196.670611 C174.76253,199.46288 174.14007,202.376331 173.260562,205.047416 C174.001466,205.888126 173.988865,207.054517 174.42988,208.036607 C174.921295,208.02146 175.339629,207.779093 175.737801,207.514004 C175.450512,206.362761 175.180863,205.193846 175.203544,203.999684 C175.190944,201.962288 175.911687,199.982959 175.752922,197.937988 C175.606757,195.577436 174.409719,193.484497 173.779699,191.245128 C172.713705,187.710611 171.647711,183.850414 172.86491,180.212387 C173.157239,180.235108 173.452088,180.25783 173.749458,180.280552 C173.998946,184.698698 174.210633,189.238028 175.911687,193.386036 C176.519026,194.979093 177.685823,196.327258 178.008394,198.033925 C178.595572,200.692387 177.436335,203.320552 177.650542,205.991637 C178.139438,206.362761 178.51745,206.84497 178.900502,207.324655 C179.041627,207.243866 179.323876,207.082288 179.465,207.001499 C179.515402,204.274872 179.855612,201.565917 180.314267,198.879684 C180.41507,197.975858 180.662038,196.97357 180.190783,196.13286 C178.086516,192.396371 176.088092,188.399842 175.815924,184.047337 C175.679839,182.86075 176.138494,181.681736 175.924287,180.507771 C175.521074,175.736174 173.232841,171.416489 171.990442,166.854438 C172.55494,166.773649 173.124478,166.753452 173.696536,166.76355 C175.836084,173.56497 179.021466,180.043235 183.189679,185.827219 C184.459799,187.559132 185.785361,189.273373 187.380572,190.727574 C187.819066,191.070927 187.897189,191.734911 187.536817,192.171677 C186.69007,193.325444 185.281345,193.994477 184.643765,195.317396 C184.227952,196.135385 184.424518,197.185641 185.10494,197.799132 C186.236456,198.869586 187.776225,199.346746 189.245432,199.75069 C192.94491,200.651992 196.803153,200.836292 200.590833,200.497988 C202.165884,200.306114 203.808976,200.088994 205.20258,199.268481 C205.82252,198.932702 206.286215,198.162682 205.938444,197.473452 C205.49743,196.483787 204.456637,196.01925 203.670371,195.357791 C199.300552,191.984852 196.268896,187.0643 194.84001,181.754951 C192.791185,174.276923 193.196918,166.392426 194.134388,158.775542 C195.384347,148.964734 197.758263,139.348323 199.497118,129.620828 C200.326225,124.836607 201.062088,119.999369 200.968845,115.12931 C200.931044,112.980828 200.636195,110.842446 200.089337,108.767179 C199.22243,105.230138 198.075793,101.758738 196.611627,98.4236686 C193.320402,90.8648521 188.224799,84.0735306 181.730552,78.9838264 C173.903183,72.7883235 164.336958,69.112426 154.579207,67.3451677 C143.737821,65.4062327 132.566305,65.5602367 121.7224,67.3981854 Z M54.2648896,185.564655 C53.5063454,187.655069 51.6162851,189.031006 49.6783434,189.944931 C49.4515361,190.921972 49.6329819,191.964655 49.5951807,192.969467 C51.109749,192.467061 52.4529518,191.573333 53.6474699,190.530651 C53.6449498,194.678659 53.6424297,198.829191 53.64999,202.979724 C54.6983434,202.982249 55.7441767,202.982249 56.7925301,202.979724 C56.8000904,197.175542 56.7975703,191.371361 56.7950502,185.567179 C55.9508233,185.559606 55.1091165,185.559606 54.2648896,185.564655 Z M65.1163554,185.743905 C63.5312249,186.084734 62.2233032,187.412702 61.9284538,189.010809 C61.4899598,190.815937 62.3039458,192.845759 64.0302008,193.633452 C61.4042771,194.857909 60.7238554,198.427771 62.1174598,200.811045 C63.9671988,203.946667 69.2089659,204.201657 71.2678715,201.164497 C72.2582631,199.702722 72.4724699,197.736016 71.8852912,196.077318 C71.4946787,194.963945 70.5521687,194.181302 69.5491767,193.633452 C70.1363554,193.229507 70.7462149,192.805365 71.1091064,192.174201 C72.1977811,190.331203 71.6862048,187.68789 69.9221486,186.445759 C68.5411446,185.476292 66.7191265,185.400552 65.1163554,185.743905 Z M76.1064257,186.579566 C74.4885341,187.859566 74.0802811,190.353925 75.0782329,192.133807 C75.4461647,192.80284 76.1064257,193.219408 76.7162851,193.641026 C73.73251,195.054832 73.3015763,199.523471 75.5671285,201.755266 C77.2631426,203.434162 80.0427912,203.701775 82.1646988,202.742406 C84.6923394,201.530572 85.5970482,198.119763 84.4151305,195.670848 C83.991757,194.741775 83.1374498,194.138383 82.2856627,193.638501 C82.9434036,193.168915 83.6187851,192.653886 83.9715964,191.901538 C84.7830622,190.215069 84.4050502,187.993373 82.9963253,186.736095 C82.0966566,185.900434 80.8416566,185.584852 79.6420984,185.56213 C78.404739,185.534359 77.0867369,185.771677 76.1064257,186.579566 Z M88.3489759,186.973412 C87.3283434,187.93783 86.9856124,189.366785 86.8041667,190.709901 C87.8550402,190.843708 88.9109538,190.954793 89.9693876,191.038107 C90.110512,190.235266 90.1961948,189.296095 90.8967771,188.763393 C91.7914056,188.096884 93.2732129,188.190296 93.9485944,189.129467 C94.7726606,190.411992 94.2610843,192.123708 93.2984137,193.186588 C91.5066365,195.261854 89.294006,196.971045 87.7718775,199.27858 C87.0410542,200.381854 86.6378414,201.664379 86.4513554,202.967101 C90.1432731,203.002446 93.8351908,202.97215 97.5271084,202.982249 C97.5271084,201.939566 97.5271084,200.899408 97.5245884,199.861775 C95.4329217,199.846627 93.341255,199.874398 91.2495884,199.846627 C92.7187952,197.688047 95.0599498,196.291913 96.4207932,194.047495 C97.3809438,192.58572 97.8017972,190.735148 97.3658233,189.023432 C96.9348896,187.392505 95.5387651,186.079684 93.8931526,185.733807 C91.9980522,185.324813 89.8055823,185.594951 88.3489759,186.973412 Z" id="Shape"></path>
                <path d="M127.70507,68.7438264 C129.322962,68.6049704 130.945894,68.5191321 132.566305,68.3928994 C134.262319,73.0534122 135.85249,77.7593688 137.326737,82.4930966 C136.560633,82.6142801 135.676084,82.8238264 134.955341,82.4880473 C134.675612,80.9379093 133.891867,79.5594477 133.120723,78.2112821 C131.868243,76.0375542 130.467078,73.954714 129.169237,71.8087574 C128.589618,70.8367653 127.967159,69.8597239 127.70507,68.7438264 Z" id="Shape"></path>
                <path d="M144.546767,68.7160552 C145.552279,68.6933333 146.562831,68.695858 147.570863,68.7135306 C148.135361,71.8693491 148.689779,75.0403156 148.858624,78.2491519 C148.873745,79.4635108 148.999749,80.7460355 148.465492,81.8770809 C148.258845,81.8846548 147.845552,81.8947535 147.641426,81.8998028 C147.13489,79.1024852 146.638434,76.2975937 145.852169,73.5608679 C145.438876,71.9400394 144.806335,70.3722288 144.546767,68.7160552 Z" id="Shape"></path>
                <path d="M157.043845,70.4403945 C158.009036,71.0690335 159.168273,70.9402761 160.259468,70.9251282 C159.891536,75.1211045 159.586606,79.4281657 158.031717,83.3817751 C157.542821,83.3792505 157.053926,83.3716765 156.56755,83.3742012 C156.827118,79.06714 157.016124,74.7550296 157.043845,70.4403945 Z" id="Shape"></path>
                <path d="M113.103725,72.5308087 C114.976145,71.7835108 116.941807,71.2962525 118.894869,70.816568 C121.830763,74.9645759 124.434006,79.3650493 127.677349,83.2883629 C126.780201,83.7453254 125.852811,84.1669428 125.079147,84.8233531 C121.236024,80.6980671 117.581908,76.310217 113.023082,72.9473767 C113.043243,72.8438659 113.083564,72.6343195 113.103725,72.5308087 Z" id="Shape"></path>
                <path d="M171.378062,75.4594083 C171.879558,75.9062722 172.479337,76.2117554 173.142118,76.3354635 C170.644719,79.9532939 168.076757,83.5206312 165.516355,87.0930178 C165.203865,86.8026824 164.886335,86.5224458 164.558725,86.2523077 C165.591958,84.1745168 166.836878,82.21286 168.056596,80.2411045 C169.10495,78.6076529 170.125582,76.94643 171.378062,75.4594083 Z" id="Shape"></path>
                <path d="M179.008865,85.4166469 C180.296627,84.8006312 181.571787,84.0937278 182.993112,83.8463116 C182.993112,84.1972387 183.056114,84.6112821 182.728504,84.8511243 C181.954839,85.7650493 180.798122,86.1462722 179.77749,86.6966469 C177.229689,88.0321893 174.694488,89.395503 172.209689,90.8421302 C171.92492,90.5467456 171.63511,90.2564103 171.345301,89.9736489 C173.739378,88.2013412 176.367821,86.7774359 179.008865,85.4166469 Z" id="Shape"></path>
                <path d="M131.550713,86.338146 C143.989829,82.8288757 157.905713,84.7072189 168.852942,91.6323471 C170.909327,92.9653649 172.88003,94.4826824 174.462641,96.3711243 C175.238825,97.2900986 175.873886,98.355503 176.098173,99.5521893 C176.687871,102.17783 177.438855,104.848915 177.164167,107.565444 C176.95248,109.741696 175.579036,111.559448 174.11991,113.091913 C171.516667,115.78572 168.714337,118.27503 166.080853,120.93854 C162.318373,124.66998 158.739859,128.583195 155.287349,132.60497 C154.284357,133.756213 154.004629,135.356844 154.072671,136.843866 C154.201195,139.954241 156.189538,142.824773 158.888544,144.294122 C160.524076,144.912663 162.318373,145.172702 164.057229,144.922761 C166.413504,144.576884 168.535412,143.021696 169.651807,140.926233 C170.37003,139.277633 170.599357,137.283156 169.787892,135.624458 C169.10243,134.195503 167.781908,133.19069 166.398384,132.491361 C165.891847,132.246469 165.299629,131.862722 164.750251,132.223748 C163.885863,132.738777 163.333966,133.624931 162.630863,134.326785 C162.84759,135.016016 163.414608,135.483077 163.966506,135.909744 C164.586446,136.308639 165.413032,136.402051 165.871687,137.038264 C167.424056,138.540434 166.783956,141.544773 164.830894,142.413254 C162.996275,143.28426 160.738283,142.701065 159.284197,141.365523 C157.49746,139.744694 156.854839,137.18217 157.041325,134.846864 C157.963675,131.640552 160.912169,129.297673 164.08999,128.575621 C166.322781,128.679132 168.588333,129.383511 170.349869,130.792268 C171.093293,131.340118 171.466265,132.2086 171.9476,132.968521 C172.534779,133.917791 173.124478,134.925128 173.232841,136.061223 C173.109357,138.583353 172.628022,141.259487 170.959729,143.25144 C168.595894,146.02856 164.606606,146.879369 161.133936,146.263353 C159.38752,146.013412 157.837671,145.142406 156.290341,144.359763 C154.959739,143.536726 154.05503,142.218856 152.923514,141.171124 C152.316175,140.69144 152.366576,139.85073 152.190171,139.166548 C151.933122,137.422012 151.479508,135.45783 152.48502,133.859724 C149.433203,130.951321 145.917691,128.583195 142.530703,126.091361 C134.176637,120.138225 125.626004,114.457751 116.856124,109.138304 C113.738785,107.257436 110.588685,105.43211 107.375582,103.720394 C106.838805,103.407337 106.072701,103.003393 106.223906,102.256095 C106.488514,101.329546 107.337781,100.753925 107.987962,100.102564 C114.676255,93.8338462 122.66995,88.7895858 131.550713,86.338146 Z" id="Shape"></path>
                <path d="M176.372861,95.1996844 C178.353645,94.6518343 180.450351,94.7780671 182.476496,94.9825641 C186.823635,95.495069 191.221175,97.2749507 194.081466,100.705957 C194.971054,101.700671 195.510351,102.945325 196.377259,103.957712 C196.853554,104.540907 196.641867,105.32355 196.311737,105.919369 C193.605171,103.260907 190.568474,100.837239 186.995,99.4663511 C184.222912,98.3681262 181.178655,97.8859172 178.21504,98.3176331 C177.370813,97.4491519 176.02509,96.6210651 176.372861,95.1996844 Z" id="Shape"></path>
                <path d="M180.218504,104.798422 C180.188263,104.205128 180.828363,103.634556 181.390341,103.982959 C185.42499,105.926943 188.980823,108.954004 191.319458,112.801578 C194.152028,117.401499 195.218022,122.897673 195.14746,128.249941 C195.059257,132.223748 194.489719,136.217751 193.169197,139.976963 C191.994839,144.180513 191.458062,148.527968 190.969167,152.855227 C190.034217,162.209073 189.850251,171.656331 190.739839,181.020276 C190.880964,182.78501 191.022088,184.552268 191.115331,186.322051 C190.601235,183.691361 190.429869,181.007653 190.092179,178.351716 C188.817018,167.510848 188.441526,156.508402 189.842691,145.659961 C190.334106,141.446312 191.198494,137.280631 191.485783,133.04426 C191.846155,127.144142 190.11738,121.266746 187.194086,116.184615 C185.513193,113.160079 183.366084,110.438501 181.420582,107.59069 C180.891365,106.732308 180.256305,105.841105 180.218504,104.798422 Z" id="Shape"></path>
                <path d="M108.519699,108.307692 C110.359357,108.858067 111.99489,109.90075 113.670743,110.81215 C118.640341,113.685207 123.524257,116.714793 128.33509,119.84789 C125.626004,120.696174 122.629629,120.744142 119.981024,119.661065 C116.462992,118.264931 113.758946,115.447416 111.478273,112.511243 C110.44756,111.14288 109.401727,109.777041 108.519699,108.307692 Z" id="Shape"></path>
                <path d="M177.443896,112.826824 C179.197871,113.672584 180.40247,115.280789 181.478544,116.8486 C183.799538,120.39069 185.43255,124.356923 186.551466,128.436765 C187.597299,132.418146 188.164317,136.649467 187.284809,140.721736 C186.69007,143.847258 185.765201,146.912189 185.43003,150.08568 C184.976416,154.486154 185.230944,158.919448 185.498072,163.32497 C185.775281,167.924892 186.281817,172.509665 186.634629,177.104536 C186.291898,176.985878 186.107932,176.753609 186.080211,176.405207 C184.336315,168.015779 183.419006,159.373886 184.275833,150.81783 C184.563122,147.810966 185.130141,144.841972 185.765201,141.8957 C186.732912,137.863826 186.221335,133.617357 185.024297,129.694043 C183.938143,126.197396 182.262289,122.905247 180.246225,119.857988 C179.117229,118.194241 177.459016,116.828402 176.854197,114.851598 C176.589588,114.1043 176.95248,113.374675 177.443896,112.826824 Z" id="Shape"></path>
                <path d="M110.190512,115.826114 C111.470713,116.260355 112.400622,117.28789 113.418735,118.1286 C115.601124,120.039763 118.078363,121.82217 120.989056,122.354872 C124.330683,122.986036 127.730271,122.412939 131.041657,121.872663 C134.032992,123.049152 136.595914,125.068876 139.219317,126.889152 C139.441084,127.030533 139.597329,127.227456 139.688052,127.482446 C139.168916,127.651598 138.66742,127.886391 138.130643,127.982327 C136.207821,127.111321 134.620171,125.571282 132.556225,124.988087 C128.675301,123.811598 124.524729,124.66998 120.80257,126.008047 C119.179639,126.634162 117.433223,125.934832 116.006857,125.131992 C113.746345,123.771203 111.773122,121.81712 110.623966,119.418698 C110.089709,118.30785 109.870462,117.032899 110.190512,115.826114 Z" id="Shape"></path>
                <path d="M170.36499,120.403314 C171.146215,120.327574 172.187008,120.072584 172.691024,120.875424 C175.526114,124.157475 178.426727,127.48497 180.314267,131.431006 C181.65243,134.205602 182.088404,137.310927 182.171566,140.365759 C182.375693,144.018935 180.788042,147.41712 180.120221,150.944063 C178.421687,158.967416 179.956416,167.233136 182.113604,175.009073 C182.353012,176.12497 183.2426,177.069191 183.068715,178.265878 C182.882229,178.14217 182.748665,177.980592 182.662982,177.781144 C179.336476,170.038028 177.466576,161.507219 178.341044,153.059724 C178.615733,150.23211 179.260873,147.457515 180.037058,144.730888 C180.770402,141.014596 180.515873,137.086233 179.187791,133.526469 C177.630382,129.269901 174.855773,125.566233 171.652751,122.40789 C171.093293,121.827219 170.238986,121.337436 170.36499,120.403314 Z" id="Shape"></path>
                <path d="M108.640663,133.04931 C109.731857,130.274714 110.409759,127.366312 111.0675,124.462959 C113.398574,125.215306 115.049227,127.207258 117.259337,128.204497 C117.826355,128.383748 118.501737,128.113609 119.015833,128.479684 C119.817219,129.310296 119.005753,130.787219 119.968424,131.516844 C121.016777,132.410572 121.7224,133.660276 122.874076,134.435345 C123.415894,134.814043 124.093795,134.819093 124.726335,134.887258 C124.625532,135.993057 124.396205,137.351321 123.224367,137.813333 C121.488032,138.580828 119.789498,137.379093 118.153966,136.901933 C116.105141,136.131913 113.643022,136.225325 111.889046,137.639132 C112.042771,137.949665 112.095693,138.46217 112.571988,138.351085 C112.846677,138.096095 113.048283,137.775464 113.297771,137.497751 C114.726657,137.396765 116.180743,137.376568 117.581908,137.727495 C118.90747,138.007732 120.149869,138.628797 121.508193,138.752505 C122.778313,138.845917 123.92999,138.186982 125.006064,137.601262 C126.031737,137.048363 126.870924,136.11929 128.060402,135.914793 C128.153645,136.626746 128.188926,137.394241 128.64002,137.992584 C129.403604,139.070611 130.540161,139.790138 131.442349,140.739408 C131.76744,141.161026 132.342018,141.161026 132.772952,141.42359 C133.236647,141.802288 133.637339,142.287022 133.818785,142.870217 C134.416044,144.655148 135.789488,146.008363 137.11757,147.278264 C137.883675,147.331282 138.695141,147.157081 139.436044,147.37925 C139.92746,148.278028 140.000542,149.431795 139.491486,150.340671 C138.483454,152.292229 136.127179,153.203629 135.406436,155.334438 C134.468966,157.795976 134.395884,160.565523 135.101506,163.095227 C135.85753,164.736252 137.089849,166.112189 138.344849,167.392189 C139.496526,168.447495 140.728845,169.644181 142.356817,169.823432 C142.349257,173.221617 142.351777,176.622327 142.356817,180.023037 C142.43494,180.669349 141.966205,181.179329 141.767118,181.757475 C142.364378,182.509822 142.984317,183.33286 144.02511,183.4086 C144.904618,184.340197 145.441396,185.706036 145.025582,186.975937 C144.516526,188.563945 143.505974,189.939882 143.06496,191.558185 C142.061968,194.77712 142.888554,198.218225 144.120873,201.25286 C144.398082,202.050651 144.975181,202.782801 144.897058,203.668955 C143.39005,204.02998 141.878002,203.489704 140.423916,203.136252 C136.235542,201.91432 132.142932,200.364181 128.118363,198.682761 C127.967159,195.090178 127.823514,191.495069 127.621908,187.90501 C127.092691,186.359921 126.016616,184.966312 124.502048,184.284655 C121.586315,182.96426 118.27745,183.489389 115.233193,182.724418 C114.154598,182.477002 113.025602,181.709507 112.95,180.507771 C112.884478,177.569073 112.977721,174.625325 112.909679,171.686627 C112.687912,170.919132 111.911727,170.09357 112.531667,169.310927 C113.648062,167.93499 114.744297,166.480789 115.172711,164.721105 C114.116797,164.231321 112.826516,164.137909 112.01757,163.22146 C111.553876,162.70643 110.75501,162.711479 110.321556,162.151006 C109.784779,161.542564 109.159799,160.992189 108.320612,160.898777 C108.335733,160.106036 109.028755,159.618777 109.623494,159.224931 C110.659247,159.12142 111.846205,159.570809 112.763514,158.914398 C113.501898,158.045917 113.816908,156.882051 113.688384,155.753531 C113.794227,154.544221 112.443464,154.016568 111.836124,153.150611 C110.951576,153.834793 109.782259,153.796923 108.829669,154.324576 C108.975833,154.910296 109.303444,155.442998 109.867942,155.705562 C110.44756,155.387456 110.855813,154.5114 111.601757,154.693176 C112.569468,155.160237 112.859277,156.30643 112.755954,157.298619 C111.538755,157.581381 110.266114,157.672268 109.036315,157.427377 C108.050964,157.333964 107.698153,156.220592 106.843845,155.851992 C106.334789,156.288757 105.886215,156.993136 105.11003,156.82146 C104.298564,156.702801 103.156968,157.03858 102.700833,156.132229 C102.322821,155.316765 102.491667,154.375069 102.519388,153.509112 C104.394327,149.479763 106.591837,145.586746 108.169408,141.421065 C108.5701,140.211755 109.139639,138.762604 108.323133,137.601262 C107.340301,136.184931 108.116486,134.478264 108.640663,133.04931 Z M109.18248,141.766943 C109.215241,142.014359 109.248002,142.261775 109.280763,142.509191 C110.387078,142.855069 110.974257,141.673531 111.642078,141.037318 C112.549307,141.065089 113.494337,140.895937 114.371325,141.208994 C114.885422,142.049704 113.791707,142.145641 113.212088,142.090099 C112.360301,143.03432 111.221225,143.721026 110.563484,144.831874 C110.210673,145.394872 110.273675,146.134596 110.654207,146.667298 C111.241386,147.576174 112.372902,147.911953 113.391014,148.015464 C115.258394,148.159369 117.216496,147.616568 118.647902,146.384536 C119.587892,145.5514 120.253193,144.289073 120.119629,143.009073 C119.149398,141.395819 117.385341,140.4314 115.613725,139.95929 C114.497329,139.62856 113.322972,139.757318 112.178855,139.641183 C111.001978,140.077949 110.487882,141.499329 109.18248,141.766943 Z" id="Shape"></path>
                <path d="M124.900221,127.05073 C127.329578,125.202682 130.746807,125.826272 133.128283,127.431953 C133.707902,127.818225 134.332882,128.277712 134.431165,129.027535 C132.153012,129.837949 129.56993,130.398422 127.221215,129.565286 C126.155221,129.131045 124.983384,128.297909 124.900221,127.05073 Z" id="Shape"></path>
                <path d="M121.42251,128.454438 C122.881637,128.580671 123.93755,129.739487 125.245472,130.277239 C128.047801,131.721341 131.361707,131.638028 134.317761,130.73925 C134.327841,131.163393 134.342962,131.590059 134.360602,132.01925 C133.03252,132.102564 131.711998,132.322209 130.454478,132.769073 C129.151596,133.183116 127.894076,133.854675 126.502992,133.902643 C125.368956,133.895069 124.406285,133.155345 123.720823,132.31211 C122.773273,131.148245 122.027329,129.825325 121.42251,128.454438 Z" id="Shape"></path>
                <path d="M142.303896,129.42643 C142.823032,128.946746 143.37493,129.57286 143.70758,129.961657 C144.00747,130.226746 144.118353,130.605444 144.146074,130.994241 C142.732309,131.249231 141.285783,131.451203 139.849337,131.307298 C138.763183,131.22146 137.891235,130.421144 136.77988,130.45144 C136.820201,130.360552 136.900843,130.176252 136.941165,130.085365 C138.720341,129.870769 140.751526,130.643314 142.303896,129.42643 Z" id="Shape"></path>
                <path d="M145.030622,132.683235 C145.637962,131.968757 146.708996,132.158107 147.490221,132.445917 C148.450371,132.867535 149.317279,133.496174 150.108584,134.180355 C150.267349,134.94785 149.415562,135.409862 148.909026,135.816331 C147.664106,135.876923 146.21758,135.379566 145.25743,136.452544 C144.294759,136.52071 143.327048,136.59645 142.364378,136.566154 C141.411787,136.55858 140.86493,135.586588 139.93502,135.4957 C139.156315,135.366943 138.339809,134.980671 138.281847,134.086943 C140.486918,133.453254 143.213645,134.43787 145.030622,132.683235 Z" id="Shape"></path>
                <path d="M132.926677,133.690572 C134.156476,133.435582 135.22247,134.304063 136.107018,135.041262 C137.326737,136.101617 138.460773,137.28568 139.882098,138.083471 C140.159307,138.204655 140.323112,138.46217 140.444076,138.732308 C139.836737,138.856016 139.204197,138.883787 138.619538,139.103432 C136.900843,140.045128 134.695773,140.401105 132.873755,139.552821 C131.522992,138.906509 130.918173,137.467456 130.19995,136.250572 C130.865251,135.200316 131.651516,134.026351 132.926677,133.690572 Z" id="Shape"></path>
                <path d="M148.115201,138.232426 C148.7049,138.121341 149.198835,137.197318 149.816255,137.73002 C150.29255,138.282919 149.944779,139.133728 150.073303,139.810335 C150.078343,140.494517 151.083855,140.853018 150.751205,141.577594 C148.921627,142.246627 147.107169,141.176174 145.300271,140.956529 C144.738293,140.459172 144.241837,139.8886 143.644578,139.429112 C144.196476,138.999921 144.730733,138.492465 145.428795,138.308166 C146.305783,138.045602 147.223092,138.361183 148.115201,138.232426 Z" id="Shape"></path>
                <path d="M136.091898,142.451124 C137.868554,141.562446 139.740974,140.25215 141.83012,140.72931 C143.193484,141.001972 144.037711,142.163314 144.902098,143.13783 C146.124337,143.834635 147.611185,143.413018 148.946827,143.466036 C150.191747,143.428166 151.53243,143.683156 152.406898,144.647574 C151.900361,145.783669 150.647882,146.217909 149.551647,146.568836 C148.09252,146.980355 146.52251,147.179803 145.030622,146.818777 C144.211596,146.637002 143.606777,145.983116 142.810432,145.748323 C141.308464,145.324181 139.700653,145.783669 138.211285,145.293886 C137.011727,144.900039 136.15238,143.703353 136.091898,142.451124 Z" id="Shape"></path>
                <path d="M173.147159,143.13783 C173.338685,142.683393 173.386566,142.074951 173.968705,141.963866 C174.102269,144.2714 172.922871,146.374438 171.551948,148.134122 C170.279307,149.787771 168.78742,151.254596 167.298052,152.711321 C166.809157,153.165759 166.766315,153.877712 166.733554,154.503826 C166.683153,156.48568 167.078805,158.447337 167.474458,160.381223 C168.381687,164.473688 169.543444,168.515661 171.050452,172.4314 C163.936265,173.019645 156.8624,174.021933 149.760813,174.706114 C149.163554,173.256963 148.997229,171.679053 148.853584,170.133964 C149.186235,169.548245 149.760813,169.151874 150.191747,168.641893 C152.394297,166.248521 154.105432,163.148245 154.014709,159.808126 C154.017229,156.942643 152.691667,154.289231 151.086376,151.99432 C151.900361,151.151085 152.953755,150.482051 153.369568,149.330809 C153.903825,148.714793 154.095351,147.937199 154.309558,147.169704 C157.011084,147.841262 159.742851,148.515345 162.547701,148.515345 C165.234106,148.563314 168.071717,148.202288 170.35239,146.674872 C171.61495,145.819014 172.625502,144.576884 173.147159,143.13783 Z" id="Shape"></path>
                <path d="M115.969056,144.576884 C115.719568,144.251203 115.868253,143.771519 116.178223,143.551874 C117.060251,143.488757 117.947319,143.516529 118.829347,143.567022 C118.632781,143.938146 118.317771,144.215858 118.045602,144.53144 C117.775954,145.144931 117.65247,145.839211 117.166094,146.336568 C116.901486,145.659961 116.39999,145.142406 115.969056,144.576884 Z" id="Shape"></path>
                <path d="M112.451024,144.223432 C113.232249,144.218383 114.111757,144.268876 114.668695,144.900039 C115.079468,145.197949 114.898022,145.738225 114.943384,146.169941 C114.114277,146.351716 113.26753,146.32142 112.425823,146.296174 C112.423303,145.601893 112.423303,144.912663 112.451024,144.223432 Z" id="Shape"></path>
                <path d="M141.623474,148.098777 C142.45258,148.1114 143.276647,147.977594 144.105753,148.023037 C144.65261,148.04071 145.020542,148.495148 145.461556,148.757712 C147.520462,148.95716 149.65245,148.515345 151.668514,149.118738 C151.613072,149.310611 151.499669,149.694359 151.444227,149.883708 C150.748685,150.312899 149.891857,150.381065 149.140873,150.696647 C147.505341,150.406312 146.026054,149.555503 144.385482,149.265168 C143.475733,149.06572 142.540783,149.128836 141.623474,149.202051 C141.631034,148.833452 141.633554,148.464852 141.623474,148.098777 Z" id="Shape"></path>
                <path d="M143.042279,157.942406 C143.518574,157.649546 144.141034,157.826272 144.677811,157.790927 C145.416195,157.742959 146.351145,158.220118 146.295703,159.065878 C146.318384,160.032821 146.53007,161.360789 145.501878,161.908639 C143.889026,162.524655 142.056928,161.466824 141.288303,160.030296 C140.819568,158.810888 142.394618,158.588718 143.042279,157.942406 Z" id="Shape"></path>
                <path d="M109.890622,167.445207 C110.45008,166.907456 111.127982,166.402525 111.954568,166.561578 C112.02009,167.238185 111.982289,167.922367 111.889046,168.59645 C110.949056,168.977673 110.397159,168.056174 109.890622,167.445207 Z" id="Shape"></path>
                <path d="M144.609769,170.540434 C145.390994,170.573254 146.225141,170.363708 146.976124,170.661617 C147.369257,170.843393 147.326416,171.292781 147.323896,171.658856 C147.273494,173.148402 147.034086,174.693491 147.512902,176.140118 C147.711988,176.766233 148.221044,177.367101 148.929187,177.369625 C156.441546,176.554162 163.976586,175.922998 171.483906,175.031795 C171.841757,175.433215 172.363414,175.733649 172.55998,176.258777 C172.653223,176.816726 172.025723,177.038895 171.61747,177.208047 C170.034859,177.771045 168.369086,178.036134 166.720954,178.326469 C159.38752,179.472663 151.988564,180.121499 144.594649,180.699645 C144.597169,177.311558 144.564408,173.925996 144.609769,170.540434 Z" id="Shape"></path>
                <path d="M65.8723795,188.417515 C66.7594478,187.965602 68.019488,188.263511 68.4479016,189.207732 C69.1207631,190.472584 68.3975,192.484734 66.7821285,192.398895 C64.6829016,192.557949 64.1461245,189.268323 65.8723795,188.417515 Z" id="Shape"></path>
                <path d="M78.7021084,188.364497 C79.9193072,187.788876 81.4439558,188.753294 81.3960743,190.114083 C81.5976807,191.386509 80.4636446,192.669034 79.1506827,192.376174 C77.2303815,192.161578 76.993494,189.058777 78.7021084,188.364497 Z" id="Shape"></path>
                <path d="M65.8648193,195.234083 C66.9585341,194.719053 68.3596988,195.277002 68.7981928,196.402998 C69.2341667,197.556765 69.1661245,199.026114 68.3370181,199.990533 C67.4701104,200.982722 65.7262149,200.778225 65.0533534,199.664852 C64.1914859,198.304063 64.3578112,196.067219 65.8648193,195.234083 Z" id="Shape"></path>
                <path d="M78.4904217,195.277002 C79.5614558,194.716529 81.0054618,195.206312 81.481757,196.329783 C81.9656124,197.511321 81.9076506,199.084181 80.9853012,200.04355 C80.1335141,200.957475 78.5156225,200.765602 77.8276406,199.748166 C76.9027711,198.412623 77.0464157,196.190927 78.4904217,195.277002 Z" id="Shape"></path>
                <path d="M126.674357,205.718974 C130.227671,207.155503 133.909508,208.225957 137.576225,209.326706 C138.934548,209.796292 140.436516,210.147219 141.49495,211.187377 C141.958645,211.619093 141.890602,212.280552 141.82508,212.851124 C140.88761,213.179329 140.338233,212.166943 139.531807,211.906903 C135.638283,210.286075 131.442349,209.569073 127.513544,208.049231 C127.236335,207.880079 126.792801,207.867456 126.681918,207.519053 C126.634036,206.918185 126.666797,206.317318 126.674357,205.718974 Z" id="Shape"></path>
            </g>
            <g id="#000000ff" fill="#000000">
                <path d="M126.414789,0 L127.143092,0 C146.174739,3.2921499 164.364679,10.517712 181.145894,19.9876923 C197.332369,29.1572387 212.349528,40.4020513 225.705954,53.3611045 C234.861406,62.3135306 243.303675,72.0864694 250.087731,82.980355 C250.405261,83.4524655 250.652229,83.9876923 250.614428,84.5734122 C250.68247,89.6782643 250.770673,94.785641 251,99.8879684 L251,120.256884 C250.669869,124.41499 250.604347,128.590769 250.231376,132.746351 C249.399749,143.246391 247.366044,153.617673 244.626717,163.779408 C241.993233,173.254438 238.12995,182.355819 233.498042,191.017909 C228.614127,200.109191 222.891024,208.758659 216.326215,216.718895 C205.545311,229.92284 191.269056,240.142643 175.508474,246.527495 C162.353655,251.882288 148.246245,254.581144 134.113635,255.520316 C131.77248,255.67432 129.426285,255.760158 127.092691,256 L114.570412,256 C110.825572,255.681893 107.063092,255.573333 103.323293,255.169389 C94.0821586,254.252939 84.9040261,252.26856 76.2853514,248.75929 C68.7477912,245.727179 61.714247,241.576647 55.0234337,236.991874 C48.5090261,232.500513 42.072741,227.84 36.3093173,222.39432 C29.4798996,216.022091 23.466988,208.756134 18.5805522,200.785799 C13.585753,192.669034 9.77539157,183.850414 7.02598394,174.731361 C2.09166667,158.409467 0.438493976,141.302406 0,124.316529 L0,107.694201 C0.23688755,97.3759369 0.756024096,87.0627219 1.4087249,76.7621302 C1.50700803,75.886075 1.33564257,74.8863116 1.95558233,74.1642604 C8.98912651,64.2953846 17.5246386,55.5802761 26.7128514,47.7159763 C40.8152209,35.7162919 56.5002008,25.6252465 73.0772892,17.4100197 C89.9114257,9.14177515 107.803996,2.70642998 126.414789,0 Z M125.608363,4.22879684 C122.422982,4.69585799 119.252721,5.26390533 116.110181,5.96323471 C99.5784538,9.65428008 83.739749,16.0542801 68.775512,23.9387771 C53.0653313,32.29286 38.2170181,42.3738067 25.0395181,54.3659172 C17.8648494,60.9249704 11.1967169,68.0874162 5.56181727,76.0274556 C5.32240964,76.3203156 5.21404618,76.6813412 5.21404618,77.0575148 C4.09513052,94.8083629 3.21058233,112.612229 3.97416667,130.395897 C4.49834337,142.239053 5.77350402,154.087258 8.52291165,165.62998 C10.7279819,174.897988 13.9209237,183.958974 18.3461847,192.403945 C22.5169177,200.404576 27.8015261,207.814438 33.9757229,214.388639 C39.6408635,220.470533 46.0922691,225.764734 52.8813655,230.536331 C62.2686647,237.304931 72.3011044,243.437318 83.3919779,246.949112 C92.8347189,250.011519 102.756275,251.316765 112.64759,251.708087 C125.341235,252.172623 138.118042,251.670217 150.637801,249.413176 C160.130944,247.69641 169.460281,244.939487 178.242761,240.915187 C186.68755,237.062564 194.595562,232.035976 201.669428,226.017199 C208.365281,220.430138 214.043022,213.729704 219.163825,206.690966 C224.304789,199.589112 228.856054,192.055542 232.724378,184.183669 C236.663263,176.16284 239.866285,167.75574 241.973072,159.063353 C243.659006,152.314951 245.03245,145.483235 245.866596,138.575779 C246.93511,129.961657 247.154357,121.271795 247.189639,112.599606 C247.171998,103.601736 246.998112,94.6038659 246.836827,85.6085207 C246.864548,85.1566075 246.557098,84.8006312 246.350452,84.4345562 C240.707992,75.3685207 233.848333,67.1128994 226.419137,59.4657199 C213.218956,45.9764892 198.161476,34.3226824 181.874197,24.8123077 C165.077861,15.0595661 146.804759,7.5512426 127.621908,4.19345168 C126.956606,4.03692308 126.273665,4.12023669 125.608363,4.22879684 Z" id="Shape"></path>
                <path d="M125.865412,8.4904142 C126.44251,8.37932939 127.037249,8.38185404 127.614347,8.51313609 C145.945412,11.8002367 163.359167,19.1570809 179.316315,28.6598817 C194.595562,37.8117554 208.695412,48.9732544 221.033725,61.8338462 C228.263835,69.4431558 234.974809,77.6306114 240.32746,86.6840237 C240.561827,94.3059566 240.617269,101.940513 240.700432,109.57002 C240.735713,119.348008 240.604669,129.158817 239.37739,138.873688 C238.545763,145.657436 237.177359,152.367968 235.524187,158.995187 C233.175472,168.485365 229.496155,177.609467 224.995291,186.269034 C220.905201,194.108087 216.144769,201.601262 210.734157,208.594556 C208.093112,211.977594 205.315984,215.26217 202.276767,218.296805 C196.059729,224.436765 189.013584,229.741065 181.370181,233.969862 C173.129518,238.536963 164.215994,241.834162 155.055502,243.982643 C141.517631,247.173807 127.516064,247.903432 113.653102,247.416174 C104.351486,247.062722 95.0171084,245.848363 86.1363454,242.975306 C79.3069277,240.796529 72.8328414,237.60284 66.764488,233.805759 C62.3039458,231.01854 58.0273695,227.956134 53.8188353,224.80789 C46.3115161,219.220828 39.4619378,212.714793 33.7060743,205.322604 C28.6306325,198.814043 24.4246185,191.633925 21.1636345,184.052387 C16.9273795,174.244103 14.2510542,163.817278 12.6104819,153.27432 C10.6548996,140.661144 10.1156024,127.873767 10.1735643,115.126785 C10.2315261,103.24071 10.8388655,91.3672584 11.5671687,79.5089546 C11.6276506,78.9459566 11.5394478,78.3122682 11.9300602,77.8477318 C17.5624398,69.7612623 24.2910542,62.4877318 31.5488855,55.8453649 C44.0006024,44.5121893 57.9920884,34.9311243 72.822761,27.0011834 C81.5497992,22.3558185 90.5994076,18.2986982 99.9312651,15.0267456 C108.355894,12.0779487 117.02497,9.76788955 125.865412,8.4904142 Z M123.247048,12.1360158 C114.005914,13.6861538 104.968906,16.3294675 96.2091064,19.6342406 C79.4682129,25.9963708 63.6320281,34.6887574 49.1088052,45.166075 C36.0623494,54.673925 23.8954016,65.6738462 14.4703012,78.8727416 C14.1880522,79.286785 13.8125602,79.6957791 13.835241,80.2360552 C13.0262952,93.0360552 12.3786345,105.858777 12.4078579,118.689073 C18.2756225,112.521341 24.2305723,106.439448 30.2661647,100.440868 C27.7284438,95.9469822 26.8539759,90.6957002 26.8993373,85.5857988 C26.8640562,80.34714 27.9350904,74.957002 30.8130221,70.5136095 C33.0458133,66.991716 36.4680823,64.1186588 40.5506124,63.0734517 C44.2929317,62.1191321 48.3376606,62.2756607 51.9867369,63.5556607 C56.0390261,64.9846154 59.2319679,68.264142 61.0640663,72.0990927 C58.6347088,74.1339645 56.2330723,76.2067061 53.871757,78.3223669 C53.5239859,78.2163314 53.5164257,77.8300592 53.4055422,77.5472978 C52.9947691,76.1587377 52.3597088,74.8156213 51.4272791,73.6997239 C48.6728313,70.326785 42.8993273,70.1172387 39.9432731,73.3386982 C37.4735944,75.9390927 36.5966064,79.6149901 36.3294779,83.0990138 C36.112751,86.6284813 36.2211145,90.2412623 37.2014257,93.659645 C34.890512,95.9091124 32.5821185,98.1636292 30.2787651,100.42572 C31.7782129,103.104379 33.917761,105.472505 36.6218072,106.964576 C40.2356024,108.986824 44.5625803,109.383195 48.6047892,108.797475 C52.364749,108.249625 55.8878213,106.293018 58.3222189,103.371992 C61.8125301,99.3022485 63.3371787,93.9095858 63.6824297,88.6406312 C64.0226406,83.05357 63.5589458,77.216568 61.0590261,72.1243393 C67.4776707,66.6130178 74.138243,61.3844576 80.9273394,56.3427219 C78.9289157,55.8478895 76.8599297,55.4010256 75.0857932,54.3028008 C73.0268876,52.9495858 71.9382129,50.5233925 71.6307631,48.1401183 C71.2451908,45.0373176 71.5728012,41.7173964 73.1881727,38.9831953 C75.047992,35.759211 78.6365863,33.8682446 82.2680221,33.5198422 C86.123745,33.1739645 90.2289558,33.5097436 93.653745,35.4663511 C93.7570683,35.9738067 93.7621084,36.5039842 93.5857028,36.9988166 C93.2732129,37.8698225 93.3185743,38.8014201 93.2656526,39.7102959 C92.4592269,39.7052465 91.5570382,39.899645 90.8085743,39.6017357 C89.0293976,37.3118738 85.9523795,36.3499803 83.1399699,36.6377909 C81.4918373,36.7842209 79.8739458,37.5264694 78.812992,38.8190927 C77.3967068,40.4651677 77.0791767,42.8080473 77.4723092,44.8908876 C77.7570783,46.4082051 78.7676305,47.8270611 80.2368373,48.3850099 C83.0719277,49.5135306 86.1539859,49.7256016 89.0898795,50.4855227 C86.4009538,52.4320316 83.6263454,54.264931 81.0281426,56.3326233 C83.3062952,56.9107692 85.8767771,56.9461144 87.7844779,58.4836292 C89.42001,59.8267456 89.7904618,62.1241815 89.5283735,64.1211834 C89.2007631,66.5473767 87.9281225,69.0745562 85.5869679,70.0919921 C81.9857731,71.6269822 77.5075904,70.4631164 74.9345884,67.5572387 C74.1357229,66.7215779 73.9693976,65.5349901 73.8433936,64.4342406 C73.2461345,64.489783 72.4976707,64.212071 71.9961747,64.570572 C71.8046486,66.1737278 71.9835743,67.8349507 71.5223996,69.41286 C71.4140361,70.0515976 70.9503414,70.9301775 71.6433635,71.394714 C73.8862349,72.6595661 76.3836345,73.4826036 78.9339558,73.8259566 C82.5200301,74.2374753 86.3581124,73.8915976 89.5182932,72.0132544 C93.2177711,69.8142801 95.4858434,65.6183037 95.7454116,61.366785 C95.9318976,58.6224852 95.6093273,55.6332939 93.8931526,53.3787771 C92.7414759,51.843787 90.9471787,50.987929 89.1453213,50.4703748 C94.6012952,46.6732939 100.170673,43.0377909 105.838333,39.5689152 C105.833293,43.3407495 105.903855,47.1176331 105.666968,50.8844181 C105.586325,51.5736489 105.601446,52.3057988 105.296516,52.9445365 C104.852982,53.6186193 103.930633,53.4848126 103.240131,53.6059961 C103.22501,54.3659172 103.22249,55.1258383 103.23509,55.8857594 C107.670432,55.7948718 112.110813,55.7948718 116.546155,55.8857594 C116.558755,55.1258383 116.558755,54.3659172 116.541114,53.6034714 C115.840532,53.4873373 114.898022,53.621144 114.467088,52.9192899 C114.104197,51.990217 114.147038,50.9626824 114.058835,49.985641 C113.847149,44.9009862 113.983233,39.8112821 113.930311,34.7241026 C111.206104,36.2792899 108.532299,37.9177909 105.853454,39.5461933 C105.798012,34.70643 105.949217,29.864142 105.682088,25.029428 C105.598926,24.2669822 105.626647,23.456568 105.311637,22.7446154 C104.858022,22.0629586 103.925592,22.1942406 103.22249,22.0402367 C103.22753,21.2904142 103.22501,20.5380671 103.23509,19.7882446 C107.670432,19.8791321 112.110813,19.8816568 116.546155,19.7882446 C116.556235,20.5431164 116.553715,21.3005128 116.548675,22.0553846 C115.976616,22.1437475 115.369277,22.1311243 114.83502,22.3835897 C114.205,22.7597633 114.268002,23.5954241 114.164679,24.2265878 C113.88747,27.7080868 113.945432,31.2022091 113.945432,34.6912821 C124.746496,28.4023669 135.792008,22.550217 146.880361,16.7914793 C140.56,14.5723077 134.043072,12.9161341 127.450542,11.732071 C126.041817,11.4947535 124.643173,11.9895858 123.247048,12.1360158 Z M167.164488,25.3399606 C154.869016,33.0906509 142.724749,41.0963314 131.008896,49.7054043 C115.046707,61.4122288 99.8329819,74.2450493 86.375753,88.8072584 C74.1256426,101.993531 63.4833434,116.611282 54.1010843,131.961183 C43.3529418,149.535306 33.978243,167.90217 24.7446687,186.306903 C29.243012,195.713767 35.3214458,204.350611 42.6447992,211.762998 C48.8416767,218.120079 56.0087851,223.416805 63.3119779,228.420671 C69.589498,232.687337 76.24251,236.471795 83.3718173,239.120158 C92.0056124,242.369389 101.186265,243.929625 110.364398,244.497673 C118.448815,244.95716 126.571034,244.924339 134.647892,244.318422 C150.476516,243.134359 166.29506,239.294359 180.258825,231.57144 C188.068554,227.282051 195.245743,221.848994 201.533343,215.532308 C207.420251,209.440316 212.505773,202.611124 217.049478,195.468876 C222.45253,186.910296 227.044116,177.81144 230.431104,168.263195 C232.50261,162.481736 233.949137,156.498304 235.214217,150.497199 C236.713665,143.339803 237.663735,136.071321 238.074508,128.772544 C238.646566,118.762288 238.46512,108.72931 238.318956,98.7089546 C238.225713,95.1188955 238.278635,91.5136884 238.082068,87.9312032 C235.380542,83.3489546 232.255643,79.0242209 228.951817,74.8610651 C218.223835,61.4879684 205.394106,49.8871795 191.453022,39.965286 C183.726456,34.5120316 175.642038,29.5409862 167.164488,25.3399606 Z" id="Shape"></path>
                <path d="M125.250512,71.4376331 C136.094418,69.5996844 147.265934,69.4456805 158.107319,71.3846154 C167.86507,73.1518738 177.431295,76.8277712 185.258665,83.0232742 C191.752912,88.1129783 196.848514,94.9042998 200.139739,102.463116 C201.603906,105.798185 202.750542,109.269586 203.61745,112.806627 C204.164307,114.881893 204.459157,117.020276 204.496958,119.168757 C204.590201,124.038817 203.854337,128.876055 203.025231,133.660276 C201.286376,143.387771 198.91246,153.004181 197.6625,162.81499 C196.72503,170.431874 196.319297,178.316371 198.368122,185.794398 C199.797008,191.103748 202.828665,196.0243 207.198484,199.397239 C207.984749,200.058698 209.025542,200.523235 209.466556,201.512899 C209.814327,202.20213 209.350633,202.97215 208.730693,203.307929 C207.337088,204.128442 205.693996,204.345562 204.118946,204.537436 C200.331265,204.87574 196.473022,204.69144 192.773544,203.790138 C191.304337,203.386193 189.764568,202.909034 188.633052,201.83858 C187.952631,201.225089 187.756064,200.174832 188.171878,199.356844 C188.809458,198.033925 190.218183,197.364892 191.06493,196.211124 C191.425301,195.774359 191.347179,195.110375 190.908685,194.767022 C189.313474,193.312821 187.987912,191.59858 186.717791,189.866667 C182.549578,184.082682 179.364197,177.604418 177.224649,170.802998 C176.65259,170.792899 176.083052,170.813097 175.518554,170.893886 C176.760954,175.455937 179.049187,179.775621 179.4524,184.547219 C179.666606,185.721183 179.207952,186.900197 179.344036,188.086785 C179.616205,192.43929 181.614629,196.435819 183.718896,200.172308 C184.190151,201.013018 183.943183,202.015306 183.84238,202.919132 C183.383725,205.605365 183.043514,208.31432 182.993112,211.040947 C182.851988,211.121736 182.569739,211.283314 182.428614,211.364103 C182.045562,210.884418 181.66755,210.402209 181.178655,210.031085 C180.964448,207.36 182.123685,204.731834 181.536506,202.073373 C181.213936,200.366706 180.047139,199.01854 179.439799,197.425483 C177.738745,193.277475 177.527058,188.738146 177.27757,184.32 C176.980201,184.297278 176.685351,184.274556 176.393022,184.251834 C175.175823,187.889862 176.241817,191.750059 177.307811,195.284576 C177.937831,197.523945 179.134869,199.616884 179.281034,201.977436 C179.439799,204.022406 178.719056,206.001736 178.731657,208.039132 C178.708976,209.233294 178.978624,210.402209 179.265914,211.553452 C178.867741,211.81854 178.449408,212.060907 177.957992,212.076055 C177.516978,211.093964 177.529578,209.927574 176.788675,209.086864 C177.668183,206.415779 178.290643,203.502327 177.637942,200.710059 C177.348133,199.329073 176.277098,198.314162 175.833564,196.998817 C174.495402,193.393609 174.220713,189.520789 173.464689,185.77925 C173.300884,185.201105 173.268122,184.413412 172.592741,184.203866 C172.323092,185.064773 173.106837,185.716134 173.106837,186.551795 C173.18748,188.069112 173.053916,189.591479 173.149679,191.111321 C173.278203,194.110611 173.996426,197.087179 175.319468,199.783511 C176.410663,201.757791 176.135974,204.113294 175.856245,206.261775 C175.601717,207.973491 175.195984,209.657436 174.797811,211.341381 C175.175823,211.826114 175.624398,212.315897 175.621878,212.979882 C175.115341,213.050572 174.530683,213.247495 174.089669,212.88142 C173.653695,212.177041 173.855301,211.313609 173.943504,210.546114 C174.389558,207.83716 175.06494,205.062564 174.495402,202.318264 C174.228273,200.838817 173.313484,199.606785 172.837189,198.203077 C171.415863,194.330256 171.146215,190.116607 171.501546,186.031716 C170.876566,185.463669 170.238986,184.910769 169.611486,184.347771 C170.327189,187.753531 168.542972,191.017909 168.910904,194.421144 C169.072189,196.445917 169.815612,198.354556 170.596837,200.210178 C172.136606,204.383432 172.323092,208.950533 171.849317,213.338383 C171.866958,213.863511 171.383102,214.204339 170.919408,214.312899 C170.400271,213.401499 170.498554,212.320947 170.455713,211.316134 C170.443112,208.09215 170.271747,204.827771 169.336797,201.722446 C168.888223,200.129389 168.046516,198.672663 167.721426,197.04426 C167.24009,194.943748 167.449257,192.767495 167.86003,190.674556 C168.071717,189.389507 168.406888,188.023669 167.933112,186.758817 C167.671024,186.026667 167.109046,185.463669 166.501707,185.009231 C166.751195,186.067061 166.857038,187.160237 166.655432,188.23574 C166.196777,191.033057 165.478554,193.815227 165.531476,196.670611 C165.473514,199.748166 166.305141,202.762604 167.53998,205.557396 C167.902871,207.551874 166.831837,209.513531 167.114086,211.53073 C167.134247,212.719842 167.794508,213.742327 168.127159,214.845602 C167.86003,215.650966 167.116606,216.24931 166.307661,216.461381 C166.196777,215.474241 166.58991,214.204339 165.561717,213.585799 C165.97249,210.366864 166.506747,206.923235 165.211426,203.833057 C164.236155,201.060986 163.611175,198.102091 163.928705,195.153294 C164.10511,193.125996 164.830894,191.136568 164.576365,189.084024 C164.422641,187.697988 163.822861,186.423037 163.177721,185.208679 C162.605663,185.536884 161.988243,185.761578 161.360743,185.950927 C160.94241,188.149901 160.783645,190.39432 160.750884,192.631164 C160.783645,195.062406 160.972651,197.55929 161.915161,199.828955 C163.339006,202.82572 163.366727,206.244103 163.202922,209.493333 C163.102118,211.152032 162.913112,212.80568 162.628343,214.444181 C162.225131,215.650966 163.404528,216.920868 162.477139,218.031716 C161.698434,217.380355 161.413665,216.322525 161.327982,215.350533 C161.207018,213.184379 162.038645,211.126785 162.262932,208.995976 C162.588022,206.642998 162.21505,204.204181 161.194418,202.06075 C159.39004,198.453018 159.609287,194.272189 159.982259,190.369073 C160.108263,189.14714 160.269548,187.922682 160.239307,186.693176 C159.546285,186.65783 158.996908,186.271558 158.505492,185.819645 C158.230803,185.471243 157.832631,185.736331 157.49746,185.801972 C157.860351,186.834556 158.596215,187.735858 158.689458,188.859329 C158.908705,190.755345 157.910753,192.487258 157.631024,194.322682 C157.129528,196.94075 157.711667,199.632032 158.641576,202.088521 C159.044789,203.095858 159.551325,204.13854 159.357279,205.259487 C158.979267,207.872505 157.384056,210.159842 157.19757,212.820828 C157.001004,214.436607 157.547861,216.004418 158.281205,217.4157 C158.268604,218.024142 158.75246,219.422801 157.81751,219.387456 C157.283253,218.890099 156.801918,218.299329 156.592751,217.589901 C155.861928,215.519684 155.31759,213.234872 155.955171,211.066193 C156.290341,209.798817 157.106847,208.730888 157.482339,207.483708 C157.82759,206.314793 157.159769,205.208994 156.86996,204.110769 C155.602359,200.061223 155.347831,195.630454 156.650713,191.555661 C156.917841,190.371598 157.663785,189.013333 156.973283,187.851992 C156.073614,187.001183 155.027781,186.276607 153.913906,185.733807 C154.619528,190.364024 151.935643,194.618067 151.925562,199.20284 C151.880201,201.341223 153.165442,203.199369 153.321687,205.312505 C153.707259,207.632663 152.923514,209.889704 152.197731,212.055858 C151.608032,213.810493 151.814679,215.767101 152.691667,217.387929 C153.135201,218.099882 153.213323,218.968363 153.089839,219.788876 C152.812631,220.384694 152.013765,220.288757 151.474468,220.420039 C151.018333,218.791637 149.871697,217.362682 149.924618,215.613097 C149.927139,212.876371 151.398865,210.472899 152.117088,207.902801 C152.409418,206.852544 152.535422,205.67858 152.049046,204.666193 C151.015813,202.4243 150.511797,199.909744 150.821767,197.44568 C151.018333,195.383037 151.817199,193.431479 152.026365,191.373886 C152.248133,189.429901 151.129217,187.415227 149.402962,186.536647 C149.617169,187.738383 150.27995,188.851755 150.199307,190.109034 C150.196787,192.641262 148.08244,194.491834 147.717028,196.938225 C147.253333,199.690099 148.425171,202.371282 149.715452,204.731834 C150.252229,205.655858 150.867129,206.660671 150.685683,207.784142 C150.456355,209.182801 149.468484,210.281026 148.949347,211.571124 C148.021958,213.58075 148.064799,215.890809 148.586456,218.006469 C148.994709,219.86714 148.7301,222.139329 147.180251,223.421854 C146.257902,223.92931 145.138986,223.593531 144.148594,223.502643 C139.751054,222.732623 135.476998,221.384458 131.253343,219.960552 C129.433845,219.268797 127.508504,218.751243 125.865412,217.680789 C126.205622,215.11574 126.893604,212.613807 127.581586,210.124497 C128.31493,207.670533 129.012992,205.153452 130.406596,202.984773 C130.406596,199.621933 130.449438,196.254043 130.386436,192.893728 C129.947942,192.318107 129.635452,191.681893 129.413685,191.000237 C128.080562,189.457673 125.946054,189.028481 124.010633,188.841657 C121.903845,188.606864 119.718936,188.793688 117.682711,188.117081 C116.450392,187.740907 115.505361,186.574517 115.490241,185.26927 C115.46504,182.921341 115.495281,180.573412 115.482681,178.228008 C115.515442,177.771045 115.084508,177.493333 114.875341,177.144931 C114.711536,176.682919 114.875341,176.157791 114.663655,175.708402 C114.073956,174.496568 112.584588,173.963866 112.176335,172.640947 C111.962129,171.976963 112.589629,171.26501 112.173815,170.661617 C111.304388,169.189744 111.848725,167.427535 111.788243,165.821854 C111.516074,165.554241 111.183424,165.33712 110.994418,164.998817 C110.913775,164.2086 111.017098,163.408284 110.891094,162.620592 C109.540331,162.48426 108.184528,162.605444 106.831245,162.539803 C105.866054,162.514556 105.125151,161.678895 104.943705,160.775069 C104.618614,159.288047 104.769819,157.692465 105.392279,156.301381 C106.750602,153.009231 107.874558,149.590848 109.716737,146.525917 C110.266114,145.132308 111.662239,143.804339 111.0675,142.196134 C110.74493,140.951479 109.520171,139.785089 110.193032,138.444497 C111.732801,135.190217 112.31242,131.587535 112.461104,128.015148 C112.453544,127.404181 113.486777,127.174438 113.176807,126.507929 C112.771074,125.51069 112.287219,124.548797 111.838645,123.571755 C111.508514,122.306903 111.815964,120.989034 111.768082,119.70146 C111.71012,119.244497 112.156175,118.997081 112.408183,118.691598 C112.093173,117.605996 111.773122,116.507771 111.71012,115.374201 C111.773122,114.39716 110.888574,113.801341 110.45008,113.031321 C110.041827,112.473373 110.11995,111.756371 110.11239,111.107535 C109.026235,110.355187 107.715793,109.701302 107.189096,108.408679 C106.954729,107.88355 106.274307,107.767416 106.014739,107.262485 C105.929056,106.90146 106.178544,106.580828 106.35243,106.293018 C108.711225,103.051361 111.760522,100.397949 114.918183,97.9641815 C116.427711,96.782643 117.992681,95.6692702 119.424086,94.3892702 C119.943223,93.8868639 120.535442,93.3566864 120.701767,92.6220118 C120.626165,91.3975542 119.8525,90.3700197 119.149398,89.4232742 C116.944327,86.673925 114.21256,84.4168836 111.541275,82.1446943 C110.046867,80.8545957 108.439056,79.6806312 107.128614,78.1961341 C108.033323,76.8050493 109.623494,76.1158185 111.05994,75.4164892 C115.573404,73.4295858 120.411958,72.3061144 125.250512,71.4376331 Z M131.233183,72.7832742 C131.495271,73.8991716 132.117731,74.876213 132.697349,75.8482051 C133.995191,77.9941617 135.396355,80.077002 136.648835,82.2507298 C137.41998,83.5988955 138.203725,84.977357 138.483454,86.5274951 C139.204197,86.8632742 140.088745,86.6537278 140.854849,86.5325444 C139.380602,81.7988166 137.790432,77.09286 136.094418,72.4323471 C134.474006,72.5585799 132.851074,72.6444181 131.233183,72.7832742 Z M148.07488,72.755503 C148.334448,74.4116765 148.966988,75.9794872 149.380281,77.6003156 C150.166546,80.3370414 150.663002,83.1419329 151.169538,85.9392505 C151.373665,85.9342012 151.786958,85.9241026 151.993604,85.9165286 C152.527861,84.7854832 152.401857,83.5029586 152.386737,82.2885996 C152.217892,79.0797633 151.663474,75.9087968 151.098976,72.7529783 C150.090944,72.7353057 149.080392,72.7327811 148.07488,72.755503 Z M160.571958,74.4798422 C160.544237,78.7944773 160.355231,83.1065878 160.095663,87.4136489 C160.582038,87.4111243 161.070934,87.4186982 161.559829,87.4212229 C163.114719,83.4676134 163.419649,79.1605523 163.78758,74.9645759 C162.696386,74.9797239 161.537149,75.1084813 160.571958,74.4798422 Z M116.631837,76.5702564 C116.611677,76.6737673 116.571355,76.8833136 116.551195,76.9868245 C121.11002,80.3496647 124.764137,84.7375148 128.607259,88.8628008 C129.380924,88.2063905 130.308313,87.7847732 131.205462,87.3278107 C127.962118,83.404497 125.358876,79.0040237 122.422982,74.8560158 C120.46992,75.3357002 118.504257,75.8229586 116.631837,76.5702564 Z M174.906175,79.498856 C173.653695,80.9858777 172.633062,82.6471006 171.584709,84.2805523 C170.36499,86.2523077 169.12007,88.2139645 168.086837,90.2917554 C168.414448,90.5618935 168.731978,90.8421302 169.044468,91.1324655 C171.604869,87.5600789 174.172831,83.9927416 176.670231,80.3749112 C176.00745,80.2512032 175.407671,79.9457199 174.906175,79.498856 Z M182.536978,89.4560947 C179.895934,90.8168836 177.26749,92.240789 174.873414,94.0130966 C175.163223,94.295858 175.453032,94.5861933 175.737801,94.8815779 C178.2226,93.4349507 180.757801,92.0716371 183.305602,90.7360947 C184.326235,90.1857199 185.482952,89.804497 186.256616,88.890572 C186.584227,88.6507298 186.521225,88.2366864 186.521225,87.8857594 C185.0999,88.1331755 183.824739,88.8400789 182.536978,89.4560947 Z M135.078825,90.3775937 C126.198062,92.8290335 118.204367,97.8732939 111.516074,104.142012 C110.865894,104.793373 110.016627,105.368994 109.752018,106.295542 C109.600813,107.04284 110.366918,107.446785 110.903695,107.759842 C114.116797,109.471558 117.266898,111.296884 120.384237,113.177751 C129.154116,118.497199 137.704749,124.177673 146.058815,130.130809 C149.445803,132.622643 152.961315,134.990769 156.013133,137.899172 C155.00762,139.497278 155.461235,141.46146 155.718283,143.205996 C155.894689,143.890178 155.844287,144.730888 156.451627,145.210572 C157.583143,146.258304 158.487851,147.576174 159.818454,148.399211 C161.365783,149.181854 162.915633,150.05286 164.662048,150.302801 C168.134719,150.918817 172.124006,150.068008 174.487841,147.290888 C176.156135,145.298935 176.63747,142.622801 176.760954,140.100671 C176.65259,138.964576 176.062892,137.957239 175.475713,137.007968 C174.994378,136.248047 174.621406,135.379566 173.877982,134.831716 C172.116446,133.422959 169.850894,132.71858 167.618102,132.615069 C164.440281,133.33712 161.491787,135.68 160.569438,138.886312 C160.382952,141.221617 161.025572,143.784142 162.812309,145.40497 C164.266396,146.740513 166.524388,147.323708 168.359006,146.452702 C170.312068,145.584221 170.952169,142.579882 169.399799,141.077712 C168.941145,140.441499 168.114558,140.348087 167.494618,139.949191 C166.942721,139.522525 166.375703,139.055464 166.158976,138.366233 C166.862078,137.664379 167.413976,136.778225 168.278363,136.263195 C168.827741,135.90217 169.41996,136.285917 169.926496,136.530809 C171.31002,137.230138 172.630542,138.234951 173.316004,139.663905 C174.12747,141.322604 173.898143,143.317081 173.17992,144.96568 C172.063524,147.061144 169.941616,148.616331 167.585341,148.962209 C165.846486,149.21215 164.052189,148.95211 162.416657,148.33357 C159.717651,146.864221 157.729307,143.993688 157.600783,140.883314 C157.532741,139.396292 157.81247,137.795661 158.815462,136.644418 C162.267972,132.622643 165.846486,128.709428 169.608966,124.977988 C172.24245,122.314477 175.044779,119.825168 177.648022,117.131361 C179.107149,115.598895 180.480592,113.781144 180.692279,111.604892 C180.966968,108.888363 180.215984,106.217278 179.626285,103.591637 C179.401998,102.394951 178.766938,101.329546 177.990753,100.410572 C176.408143,98.5221302 174.43744,97.0048126 172.381054,95.6717949 C161.433825,88.7466667 147.517942,86.8683235 135.078825,90.3775937 Z M179.900974,99.2391321 C179.553203,100.660513 180.898926,101.4886 181.743153,102.357081 C184.706767,101.925365 187.751024,102.407574 190.523112,103.505799 C194.096586,104.876686 197.133283,107.300355 199.839849,109.958817 C200.16998,109.362998 200.381667,108.580355 199.905371,107.99716 C199.038464,106.984773 198.499167,105.740118 197.609578,104.745404 C194.749287,101.314398 190.351747,99.5345168 186.004608,99.0220118 C183.978464,98.8175148 181.881757,98.6912821 179.900974,99.2391321 Z M183.746616,108.83787 C183.784418,109.880552 184.419478,110.771755 184.948695,111.630138 C186.894197,114.477949 189.041305,117.199527 190.722199,120.224063 C193.645492,125.306193 195.374267,131.18359 195.013896,137.083708 C194.726606,141.320079 193.862219,145.485759 193.370803,149.699408 C191.969639,160.54785 192.345131,171.550296 193.620291,182.391164 C193.957982,185.047101 194.129347,187.730809 194.643444,190.361499 C194.550201,188.591716 194.409076,186.824458 194.267952,185.059724 C193.378363,175.695779 193.562329,166.248521 194.497279,156.894675 C194.986175,152.567416 195.522952,148.219961 196.697309,144.01641 C198.017831,140.257199 198.587369,136.263195 198.675572,132.289389 C198.746135,126.93712 197.680141,121.440947 194.84757,116.841026 C192.508936,112.993452 188.953102,109.966391 184.918454,108.022406 C184.356476,107.674004 183.716376,108.244576 183.746616,108.83787 Z M112.047811,112.34714 C112.929839,113.816489 113.975673,115.182327 115.006386,116.55069 C117.287058,119.486864 119.991104,122.304379 123.509137,123.700513 C126.157741,124.78359 129.154116,124.735621 131.863203,123.887337 C127.052369,120.754241 122.168454,117.724655 117.198855,114.851598 C115.523002,113.940197 113.88747,112.897515 112.047811,112.34714 Z M180.972008,116.866272 C180.480592,117.414122 180.117701,118.143748 180.382309,118.891045 C180.987129,120.86785 182.645341,122.233688 183.774337,123.897436 C185.790402,126.944694 187.466255,130.236844 188.55241,133.733491 C189.749448,137.656805 190.261024,141.903274 189.293313,145.935148 C188.658253,148.88142 188.091235,151.850414 187.803946,154.857278 C186.947118,163.413333 187.864428,172.055227 189.608323,180.444655 C189.636044,180.793057 189.82001,181.025325 190.162741,181.143984 C189.80993,176.549112 189.303394,171.964339 189.026185,167.364418 C188.759056,162.958895 188.504528,158.525602 188.958143,154.125128 C189.293313,150.951637 190.218183,147.886706 190.812922,144.761183 C191.69243,140.688915 191.125412,136.457594 190.079578,132.476213 C188.960663,128.396371 187.327651,124.430138 185.006657,120.888047 C183.930582,119.320237 182.725984,117.712032 180.972008,116.866272 Z M113.718624,119.865562 C113.398574,121.072347 113.617821,122.347298 114.152078,123.458146 C115.301235,125.856568 117.274458,127.810651 119.53497,129.17144 C120.961335,129.97428 122.707751,130.673609 124.330683,130.047495 C128.052841,128.709428 132.203414,127.851045 136.084337,129.027535 C138.148283,129.61073 139.735934,131.150769 141.658755,132.021775 C142.195532,131.925838 142.697028,131.691045 143.216165,131.521893 C143.125442,131.266903 142.969197,131.06998 142.74743,130.9286 C140.124026,129.108323 137.561104,127.0886 134.569769,125.91211 C131.258384,126.452387 127.858795,127.025483 124.517169,126.39432 C121.606476,125.861617 119.129237,124.079211 116.946847,122.168047 C115.928735,121.327337 114.998825,120.299803 113.718624,119.865562 Z M173.893102,124.442761 C173.767098,125.376884 174.621406,125.866667 175.180863,126.447337 C178.383886,129.60568 181.158494,133.309349 182.715904,137.565917 C184.043986,141.12568 184.298514,145.054043 183.565171,148.770335 C182.788986,151.496963 182.143845,154.271558 181.869157,157.099172 C180.994689,165.546667 182.864588,174.077475 186.191094,181.820592 C186.276777,182.020039 186.410341,182.181617 186.596827,182.305325 C186.770713,181.108639 185.881124,180.164418 185.641717,179.048521 C183.484528,171.272584 181.949799,163.006864 183.648333,154.983511 C184.316155,151.456568 185.903805,148.058383 185.699679,144.405207 C185.616516,141.350375 185.180542,138.245049 183.84238,135.470454 C181.954839,131.524418 179.054227,128.196923 176.219137,124.914872 C175.71512,124.112032 174.674327,124.367022 173.893102,124.442761 Z M112.168775,137.088757 C111.644598,138.517712 110.868414,140.224379 111.851245,141.64071 C112.667751,142.802051 112.098213,144.251203 111.69752,145.460513 C110.11995,149.626193 107.92244,153.519211 106.0475,157.54856 C106.019779,158.414517 105.850934,159.356213 106.228946,160.171677 C106.68508,161.078028 107.826677,160.742249 108.638143,160.860907 C109.414327,161.032584 109.862902,160.328205 110.371958,159.89144 C111.226265,160.260039 111.579076,161.373412 112.564428,161.466824 C113.794227,161.711716 115.066867,161.620828 116.284066,161.338067 C116.38739,160.345878 116.09758,159.199684 115.129869,158.732623 C114.383926,158.550848 113.975673,159.426903 113.396054,159.74501 C112.831556,159.482446 112.503946,158.949744 112.357781,158.364024 C113.310371,157.836371 114.479689,157.874241 115.364237,157.190059 C115.971576,158.056016 117.322339,158.583669 117.216496,159.792978 C117.34502,160.921499 117.03001,162.085365 116.291627,162.953846 C115.374317,163.610256 114.187359,163.160868 113.151606,163.264379 C112.556867,163.658225 111.863845,164.145483 111.848725,164.938225 C112.687912,165.031637 113.312892,165.582012 113.849669,166.190454 C114.283122,166.750927 115.081988,166.745878 115.545683,167.260907 C116.354629,168.177357 117.64491,168.270769 118.700823,168.760552 C118.27241,170.520237 117.176175,171.974438 116.059779,173.350375 C115.439839,174.133018 116.216024,174.95858 116.437791,175.726075 C116.505833,178.664773 116.41259,181.608521 116.478112,184.547219 C116.553715,185.748955 117.682711,186.51645 118.761305,186.763866 C121.805562,187.528836 125.114428,187.003708 128.030161,188.324103 C129.544729,189.005759 130.620803,190.399369 131.15002,191.944458 C131.351627,195.534517 131.495271,199.129625 131.646476,202.722209 C135.671044,204.403629 139.763655,205.953767 143.952028,207.1757 C145.406114,207.529152 146.918163,208.069428 148.425171,207.708402 C148.503293,206.822249 147.926195,206.090099 147.648986,205.292308 C146.416667,202.257673 145.59008,198.816568 146.593072,195.597633 C147.034086,193.979329 148.044639,192.603393 148.553695,191.015385 C148.969508,189.745483 148.432731,188.379645 147.553223,187.448047 C146.51243,187.372308 145.89249,186.54927 145.295231,185.796923 C145.494317,185.218777 145.963052,184.708797 145.88493,184.062485 C145.87989,180.661775 145.877369,177.261065 145.88493,173.86288 C144.256958,173.683629 143.024639,172.486943 141.872962,171.431637 C140.617962,170.151637 139.385643,168.7757 138.629618,167.134675 C137.923996,164.60497 137.997078,161.835424 138.934548,159.373886 C139.655291,157.243077 142.011566,156.331677 143.019598,154.380118 C143.528655,153.471243 143.455572,152.317475 142.964157,151.418698 C142.223253,151.196529 141.411787,151.37073 140.645683,151.317712 C139.3176,150.047811 137.944157,148.694596 137.346898,146.909665 C137.165452,146.326469 136.764759,145.841736 136.301064,145.463037 C135.870131,145.200473 135.295552,145.200473 134.970462,144.778856 C134.068273,143.829586 132.931717,143.110059 132.168133,142.032032 C131.717038,141.433688 131.681757,140.666193 131.588514,139.954241 C130.399036,140.158738 129.559849,141.087811 128.534177,141.64071 C127.458102,142.22643 126.306426,142.885365 125.036305,142.791953 C123.677982,142.668245 122.435582,142.047179 121.11002,141.766943 C119.708855,141.416016 118.254769,141.436213 116.825884,141.537199 C116.576396,141.814911 116.374789,142.135542 116.1001,142.390533 C115.623805,142.501617 115.570884,141.989112 115.417159,141.67858 C117.171135,140.264773 119.633253,140.171361 121.682078,140.941381 C123.31761,141.41854 125.016145,142.620276 126.75248,141.852781 C127.924317,141.390769 128.153645,140.032505 128.254448,138.926706 C127.621908,138.85854 126.944006,138.853491 126.402189,138.474793 C125.250512,137.699724 124.54489,136.45002 123.496536,135.556292 C122.533865,134.826667 123.345331,133.349744 122.543946,132.519132 C122.029849,132.153057 121.354468,132.423195 120.78745,132.243945 C118.577339,131.246706 116.926687,129.254753 114.595612,128.502406 C113.937871,131.405759 113.25997,134.314162 112.168775,137.088757 Z M128.428333,131.090178 C128.511496,132.337357 129.683333,133.170493 130.749327,133.604734 C133.098042,134.43787 135.681124,133.877396 137.959277,133.066982 C137.860994,132.31716 137.236014,131.857673 136.656396,131.4714 C134.27492,129.86572 130.857691,129.24213 128.428333,131.090178 Z M124.950622,132.493886 C125.555442,133.864773 126.301386,135.187692 127.248936,136.351558 C127.934398,137.194793 128.897068,137.934517 130.031104,137.942091 C131.422189,137.894122 132.679709,137.222564 133.98259,136.808521 C135.24011,136.361657 136.560633,136.142012 137.888715,136.058698 C137.871074,135.629507 137.855954,135.20284 137.845873,134.778698 C134.889819,135.677475 131.575914,135.760789 128.773584,134.316686 C127.465663,133.778935 126.409749,132.620118 124.950622,132.493886 Z M145.832008,133.465878 C144.279639,134.682761 142.248454,133.910217 140.469277,134.124813 C140.428956,134.2157 140.348313,134.4 140.307992,134.490888 C141.419347,134.460592 142.291295,135.260907 143.37745,135.346746 C144.813896,135.490651 146.260422,135.288679 147.674187,135.033688 C147.646466,134.644892 147.535582,134.266193 147.235693,134.001105 C146.903042,133.612308 146.351145,132.986193 145.832008,133.465878 Z M148.558735,136.722682 C146.741757,138.477318 144.01503,137.492702 141.80996,138.126391 C141.867922,139.020118 142.684428,139.406391 143.463133,139.535148 C144.393042,139.626036 144.9399,140.598028 145.89249,140.605602 C146.855161,140.635897 147.822871,140.560158 148.785542,140.491992 C149.745693,139.419014 151.192219,139.916371 152.437139,139.855779 C152.943675,139.44931 153.795462,138.987298 153.636697,138.219803 C152.845392,137.535621 151.978484,136.906982 151.018333,136.485365 C150.237108,136.197554 149.166074,136.008205 148.558735,136.722682 Z M136.454789,137.73002 C135.179629,138.065799 134.393363,139.239763 133.728062,140.29002 C134.446285,141.506903 135.051104,142.945957 136.401867,143.592268 C138.223886,144.440552 140.428956,144.084576 142.147651,143.14288 C142.732309,142.923235 143.364849,142.895464 143.972189,142.771755 C143.851225,142.501617 143.68742,142.244103 143.410211,142.122919 C141.988886,141.325128 140.854849,140.141065 139.635131,139.08071 C138.750582,138.343511 137.684588,137.47503 136.454789,137.73002 Z M151.643313,142.271874 C150.751205,142.400631 149.833896,142.085049 148.956908,142.347613 C148.258845,142.531913 147.724588,143.039369 147.172691,143.46856 C147.76995,143.928047 148.266406,144.498619 148.828384,144.995976 C150.635281,145.215621 152.449739,146.286075 154.279317,145.617041 C154.611968,144.892465 153.606456,144.533964 153.601416,143.849783 C153.472892,143.173176 153.820663,142.322367 153.344367,141.769467 C152.726948,141.236765 152.233012,142.160789 151.643313,142.271874 Z M139.62001,146.490572 C139.680492,147.742801 140.539839,148.939487 141.739398,149.333333 C143.228765,149.823116 144.836576,149.363629 146.338544,149.787771 C147.13489,150.022564 147.739709,150.67645 148.558735,150.858225 C150.050622,151.21925 151.620633,151.019803 153.079759,150.608284 C154.175994,150.257357 155.428474,149.823116 155.93501,148.687022 C155.060542,147.722604 153.719859,147.467613 152.47494,147.505483 C151.139297,147.452465 149.65245,147.874083 148.430211,147.177278 C147.565823,146.202761 146.721596,145.04142 145.358233,144.768757 C143.269086,144.291598 141.396667,145.601893 139.62001,146.490572 Z M176.675271,147.177278 C176.153614,148.616331 175.143062,149.858462 173.880502,150.71432 C171.599829,152.241736 168.762219,152.602761 166.075813,152.554793 C163.270964,152.554793 160.539197,151.88071 157.837671,151.209152 C157.623464,151.976647 157.431938,152.754241 156.897681,153.370256 C156.481867,154.521499 155.428474,155.190533 154.614488,156.033767 C156.219779,158.328679 157.545341,160.982091 157.542821,163.847574 C157.633544,167.187692 155.92241,170.287968 153.719859,172.681341 C153.288926,173.191321 152.714347,173.587692 152.381697,174.173412 C152.525341,175.718501 152.691667,177.29641 153.288926,178.745562 C160.390512,178.061381 167.464378,177.059093 174.578564,176.470848 C173.071556,172.555108 171.909799,168.513136 171.00257,164.420671 C170.606918,162.486785 170.211265,160.525128 170.261667,158.543274 C170.294428,157.91716 170.337269,157.205207 170.826165,156.750769 C172.315532,155.294043 173.80742,153.827219 175.08006,152.17357 C176.450984,150.413886 177.630382,148.310848 177.496817,146.003314 C176.914679,146.114398 176.866797,146.72284 176.675271,147.177278 Z M145.151586,152.138225 C145.161667,152.5043 145.159147,152.872899 145.151586,153.241499 C146.068896,153.168284 147.003845,153.105168 147.913594,153.304615 C149.554167,153.594951 151.033454,154.445759 152.668986,154.736095 C153.41997,154.420513 154.276797,154.352347 154.972339,153.923156 C155.027781,153.733807 155.141185,153.350059 155.196627,153.158185 C153.180562,152.554793 151.048574,152.996607 148.989669,152.79716 C148.548655,152.534596 148.180723,152.080158 147.633865,152.062485 C146.804759,152.017041 145.980693,152.150848 145.151586,152.138225 Z M146.570392,161.981854 C145.922731,162.628166 144.347681,162.850335 144.816416,164.069744 C145.58504,165.506272 147.417139,166.564103 149.02999,165.948087 C150.058183,165.400237 149.846496,164.072268 149.823815,163.105325 C149.879257,162.259566 148.944307,161.782406 148.205924,161.830375 C147.669147,161.86572 147.046687,161.688994 146.570392,161.981854 Z M113.418735,171.484655 C113.925271,172.095621 114.477169,173.01712 115.417159,172.635897 C115.510402,171.961815 115.548203,171.277633 115.482681,170.601026 C114.656094,170.441972 113.978193,170.946903 113.418735,171.484655 Z M148.137882,174.579882 C148.09252,177.965444 148.125281,181.351006 148.122761,184.739093 C155.516677,184.160947 162.915633,183.51211 170.249066,182.365917 C171.897199,182.075582 173.562972,181.810493 175.145582,181.247495 C175.553835,181.078343 176.181335,180.856174 176.088092,180.298225 C175.891526,179.773097 175.369869,179.472663 175.012018,179.071243 C167.504699,179.962446 159.969659,180.593609 152.457299,181.409073 C151.749157,181.406548 151.2401,180.80568 151.041014,180.179566 C150.562199,178.732939 150.801606,177.18785 150.852008,175.698304 C150.854528,175.332229 150.897369,174.88284 150.504237,174.701065 C149.753253,174.403156 148.919106,174.612702 148.137882,174.579882 Z M130.20247,209.758422 C130.19491,210.356765 130.162149,210.957633 130.21003,211.558501 C130.320914,211.906903 130.764448,211.919527 131.041657,212.088679 C134.970462,213.608521 139.166396,214.325523 143.05992,215.946351 C143.866345,216.206391 144.415723,217.218777 145.353193,216.890572 C145.418715,216.32 145.486757,215.65854 145.023062,215.226824 C143.964629,214.186667 142.462661,213.83574 141.104337,213.366154 C137.43762,212.265404 133.755783,211.194951 130.20247,209.758422 Z" id="Shape"></path>
                <path d="M37.1963855,93.6798422 C42.5893574,88.5017751 48.0730522,83.4171203 53.6852711,78.4763708 C54.5068173,82.0361341 54.5975402,85.7398028 54.2396888,89.3677318 C53.8893976,92.5563708 52.9695683,95.8762919 50.6888956,98.2418935 C47.7177209,101.420434 41.9618574,101.150296 39.2628514,97.7521105 C38.2749799,96.5730966 37.680241,95.1289941 37.1963855,93.6798422 Z" id="Shape"></path>
                <path d="M112.710592,145.806391 C114.015994,145.538777 114.53009,144.117396 115.706968,143.680631 C116.851084,143.796765 118.025442,143.668008 119.141837,143.998738 C120.913454,144.470848 122.67751,145.435266 123.647741,147.048521 C123.781305,148.328521 123.116004,149.590848 122.176014,150.423984 C120.744608,151.656016 118.786506,152.198817 116.919127,152.054911 C115.901014,151.9514 114.769498,151.615621 114.182319,150.706746 C113.801787,150.174043 113.738785,149.43432 114.091596,148.871321 C114.749337,147.760473 115.888414,147.073767 116.740201,146.129546 C117.319819,146.185089 118.413534,146.089152 117.899438,145.248442 C117.02245,144.935385 116.07742,145.104536 115.170191,145.076765 C114.502369,145.712978 113.915191,146.894517 112.808876,146.548639 C112.776114,146.301223 112.743353,146.053807 112.710592,145.806391 Z M119.497169,148.616331 C119.928102,149.181854 120.429598,149.699408 120.694207,150.376016 C121.180582,149.878659 121.304066,149.184379 121.573715,148.570888 C121.845884,148.255306 122.160894,147.977594 122.35746,147.606469 C121.475432,147.555976 120.588363,147.528205 119.706335,147.591321 C119.396365,147.810966 119.247681,148.290651 119.497169,148.616331 Z M115.979137,148.26288 C115.951416,148.95211 115.951416,149.641341 115.953936,150.335621 C116.795643,150.360868 117.64239,150.391164 118.471496,150.209389 C118.426135,149.777673 118.60758,149.237396 118.196807,148.939487 C117.639869,148.308323 116.760361,148.25783 115.979137,148.26288 Z" id="Shape"></path>
                <path d="M57.793002,189.604103 C58.6372289,189.599053 59.4789357,189.599053 60.3231627,189.606627 C60.3256827,195.410809 60.3282028,201.21499 60.3206426,207.019172 C59.2722892,207.021696 58.2264558,207.021696 57.1781024,207.019172 C57.1705422,202.868639 57.1730622,198.718107 57.1755823,194.570099 C55.9810643,195.612781 54.6378614,196.506509 53.1232932,197.008915 C53.1610944,196.004103 52.9796486,194.96142 53.2064558,193.984379 C55.1443976,193.070454 57.0344578,191.694517 57.793002,189.604103 Z" id="Shape"></path>
                <path d="M68.6444679,189.783353 C70.247239,189.44 72.069257,189.51574 73.450261,190.485207 C75.2143173,191.727337 75.7258936,194.370651 74.6372189,196.213649 C74.2743273,196.844813 73.6644679,197.268955 73.0772892,197.672899 C74.0802811,198.22075 75.0227912,199.003393 75.4134036,200.116765 C76.0005823,201.775464 75.7863755,203.74217 74.7959839,205.203945 C72.7370783,208.241105 67.4953112,207.986114 65.6455723,204.850493 C64.2519679,202.467219 64.9323896,198.897357 67.5583133,197.672899 C65.8320582,196.885207 65.0180723,194.855385 65.4565663,193.050256 C65.7514157,191.45215 67.0593373,190.124181 68.6444679,189.783353 Z M69.400492,192.456963 C67.6742369,193.307771 68.2110141,196.597396 70.310241,196.438343 C71.9256124,196.524181 72.6488755,194.512032 71.9760141,193.247179 C71.5476004,192.302959 70.2875602,192.005049 69.400492,192.456963 Z M69.3929317,199.273531 C67.8859237,200.106667 67.7195984,202.343511 68.5814659,203.7043 C69.2543273,204.817673 70.9982229,205.02217 71.8651305,204.02998 C72.6942369,203.065562 72.7622791,201.596213 72.3263052,200.442446 C71.8878112,199.31645 70.4866466,198.758501 69.3929317,199.273531 Z" id="Shape"></path>
                <path d="M79.6345382,190.619014 C80.6148494,189.811124 81.9328514,189.573807 83.1702108,189.601578 C84.3697691,189.6243 85.6247691,189.939882 86.5244378,190.775542 C87.9331627,192.032821 88.3111747,194.254517 87.4997088,195.940986 C87.1468976,196.693333 86.4715161,197.208363 85.8137751,197.677949 C86.6655622,198.17783 87.5198695,198.781223 87.943243,199.710296 C89.1251606,202.159211 88.2204518,205.57002 85.6928112,206.781854 C83.5709036,207.741223 80.791255,207.473609 79.095241,205.794714 C76.8296888,203.562919 77.2606225,199.09428 80.2443976,197.680473 C79.6345382,197.258856 78.9742771,196.842288 78.6063454,196.173254 C77.6083936,194.393373 78.0166466,191.899014 79.6345382,190.619014 Z M82.2302209,192.403945 C80.5216064,193.098225 80.758494,196.201026 82.6787952,196.415621 C83.991757,196.708481 85.1257932,195.425957 84.9241867,194.153531 C84.9720683,192.792742 83.4474197,191.828323 82.2302209,192.403945 Z M82.0185341,199.31645 C80.5745281,200.230375 80.4308835,202.452071 81.355753,203.787613 C82.0437349,204.805049 83.6616265,204.996923 84.5134137,204.082998 C85.4357631,203.123629 85.4937249,201.550769 85.0098695,200.369231 C84.5335743,199.245759 83.0895683,198.755976 82.0185341,199.31645 Z" id="Shape"></path>
                <path d="M91.8770884,191.01286 C93.3336948,189.634398 95.5261647,189.36426 97.4212651,189.773254 C99.0668775,190.119132 100.463002,191.431953 100.893936,193.06288 C101.32991,194.774596 100.909056,196.625168 99.9489056,198.086943 C98.5880622,200.331361 96.2469076,201.727495 94.7777008,203.886075 C96.8693675,203.913846 98.9610341,203.886075 101.052701,203.901223 C101.055221,204.938856 101.055221,205.979014 101.055221,207.021696 C97.3633032,207.011598 93.6713855,207.041893 89.9794679,207.006548 C90.1659538,205.703826 90.5691667,204.421302 91.29999,203.318028 C92.8221185,201.010493 95.034749,199.301302 96.8265261,197.226036 C97.7891968,196.163156 98.3007731,194.45144 97.4767068,193.168915 C96.8013253,192.229744 95.3195181,192.136331 94.4248896,192.80284 C93.7243072,193.335542 93.6386245,194.274714 93.4975,195.077554 C92.4390663,194.994241 91.3831526,194.883156 90.3322791,194.749349 C90.5137249,193.406233 90.8564558,191.977278 91.8770884,191.01286 Z" id="Shape"></path>
            </g>
        </g>
    </g>
</svg>