<?xml version="1.0" encoding="UTF-8" ?>
<!DOCTYPE svg PUBLIC "-//W3C//DTD SVG 1.1//EN" "http://www.w3.org/Graphics/SVG/1.1/DTD/svg11.dtd">
<svg width="569pt" height="569pt" viewBox="0 0 569 569" version="1.1" xmlns="http://www.w3.org/2000/svg">
<g id="#7a1711ff">
<path fill="#7a1711" opacity="1.00" d=" M 326.99 135.38 C 353.62 133.93 380.35 133.73 406.96 135.70 C 437.39 138.03 468.13 142.65 496.44 154.54 C 513.45 161.74 529.72 172.25 540.46 187.58 C 547.25 197.34 551.29 209.22 550.66 221.20 C 547.57 217.57 545.31 213.35 542.49 209.53 C 534.77 199.32 525.38 190.38 514.82 183.15 C 494.27 168.73 470.36 159.96 446.19 153.79 C 408.55 144.64 369.66 141.46 331.00 141.55 C 287.59 141.17 244.23 144.82 201.21 150.36 C 194.04 151.15 186.95 152.88 179.71 152.86 C 181.38 152.44 183.06 152.06 184.76 151.76 C 231.87 144.04 279.29 137.81 326.99 135.38 Z" />
<path fill="#7a1711" opacity="1.00" d=" M 282.07 150.69 C 304.68 149.37 327.34 149.41 349.98 149.71 C 386.09 150.89 422.42 154.62 457.21 164.77 C 478.57 171.13 499.51 180.06 517.23 193.78 C 529.92 203.54 540.68 216.12 547.13 230.85 C 551.87 242.06 554.74 254.70 551.82 266.76 C 550.26 273.17 548.33 279.56 545.11 285.35 C 543.36 279.48 542.38 273.41 540.34 267.62 C 536.10 255.26 529.92 243.51 521.70 233.33 C 510.90 219.67 497.04 208.69 482.08 199.92 C 458.85 186.41 433.04 177.98 406.93 172.11 C 370.53 164.04 333.22 160.87 296.01 160.04 C 278.65 159.84 261.30 160.12 243.94 160.39 C 206.52 162.00 169.14 165.00 132.01 169.97 C 117.56 171.54 103.29 174.61 88.81 175.84 C 103.45 172.72 118.24 170.40 133.00 167.95 C 182.35 159.69 232.09 153.45 282.07 150.69 Z" />
<path fill="#7a1711" opacity="1.00" d=" M 138.73 182.64 C 187.83 175.43 237.34 170.51 287.00 170.03 C 325.54 169.72 364.29 172.01 402.08 179.95 C 426.15 185.14 449.93 192.61 471.64 204.39 C 487.75 213.14 502.78 224.31 514.48 238.53 C 528.65 255.42 537.94 276.87 538.42 299.07 C 538.54 303.07 536.27 306.76 533.46 309.42 C 530.48 310.55 527.19 309.91 524.09 309.95 C 520.46 295.55 515.11 281.51 506.94 269.05 C 496.00 252.02 480.79 238.05 463.86 227.11 C 443.76 214.14 421.33 205.20 398.43 198.56 C 354.74 186.23 309.23 181.86 263.98 180.74 C 196.81 179.67 129.63 185.40 63.36 196.24 C 61.19 196.55 59.01 196.73 56.82 196.86 C 83.95 191.21 111.34 186.82 138.73 182.64 Z" />
<path fill="#7a1711" opacity="1.00" d=" M 373.33 205.11 C 379.82 206.24 386.22 207.89 392.53 209.81 C 386.68 221.94 383.42 235.49 384.66 249.00 C 385.28 257.87 387.79 266.45 390.78 274.79 C 380.85 274.78 370.89 274.23 361.09 272.62 C 357.28 249.58 362.75 225.68 373.33 205.11 Z" />
<path fill="#7a1711" opacity="1.00" d=" M 397.87 212.13 C 402.90 213.62 407.89 215.24 412.77 217.17 C 411.53 227.00 411.40 237.34 415.50 246.57 C 418.77 254.92 425.06 261.56 432.00 267.03 C 424.29 270.08 416.14 271.73 408.00 273.11 C 405.93 273.37 403.79 273.87 401.74 273.32 C 395.84 261.17 393.61 247.44 393.90 234.00 C 394.20 226.58 395.27 219.12 397.87 212.13 Z" />
<path fill="#7a1711" opacity="1.00" d=" M 419.80 220.81 C 425.33 222.92 430.78 225.27 436.06 227.95 C 439.98 229.91 442.00 234.01 444.98 237.03 C 449.43 241.98 455.35 245.18 461.18 248.20 C 455.29 253.90 448.37 258.48 441.02 262.06 C 432.58 255.78 425.30 247.49 421.47 237.59 C 419.48 232.26 418.76 226.43 419.80 220.81 Z" />
<path fill="#7a1711" opacity="1.00" d=" M 477.29 252.11 C 480.45 254.80 483.28 257.86 485.83 261.14 C 489.48 265.87 493.40 270.46 496.16 275.80 C 485.19 285.76 471.25 291.68 457.34 296.29 C 428.33 305.43 397.14 306.49 367.21 301.89 C 364.91 297.09 363.36 292.00 362.20 286.82 C 370.47 287.34 378.70 288.54 387.00 288.38 C 410.88 288.23 435.42 283.65 455.93 270.89 C 464.12 265.97 471.02 259.26 477.29 252.11 Z" />
<path fill="#7a1711" opacity="1.00" d=" M 480.02 297.01 C 486.90 293.30 493.05 288.46 499.13 283.59 C 503.63 291.75 505.90 300.91 507.93 309.94 C 487.56 309.94 467.18 310.26 446.82 309.77 C 458.21 306.46 469.67 302.98 480.02 297.01 Z" />
</g>
<g id="#e40c1aff">
</g>
<g id="#ffffffff">
<path fill="#ffffff" opacity="1.00" d=" M 215.09 206.09 C 216.89 201.39 221.93 198.13 226.97 198.53 C 234.16 198.60 241.36 198.38 248.54 198.70 C 234.43 234.14 219.93 269.42 205.60 304.77 C 204.48 308.36 200.63 310.12 197.08 310.00 C 189.02 310.03 180.96 309.98 172.89 310.00 C 187.01 275.38 201.00 240.72 215.09 206.09 Z" />
<path fill="#ffffff" opacity="1.00" d=" M 70.32 204.20 C 80.68 203.42 91.88 202.63 101.41 207.60 C 107.31 210.49 111.33 216.52 112.22 222.98 C 113.76 232.60 110.45 242.08 106.82 250.85 C 102.20 263.01 97.07 274.97 91.82 286.87 C 87.79 295.46 82.26 304.56 72.76 307.74 C 64.13 310.42 54.93 309.88 46.00 310.01 C 38.41 310.04 30.12 309.84 23.65 305.32 C 18.75 301.92 16.52 295.81 16.50 290.01 C 16.45 282.39 19.44 275.22 22.23 268.28 C 27.42 255.49 32.41 242.60 37.85 229.92 C 43.66 216.76 55.83 206.16 70.32 204.20 M 71.46 230.44 C 69.58 231.76 68.78 234.03 67.89 236.05 C 62.31 250.05 56.66 264.02 51.02 278.00 C 50.22 280.17 49.13 282.37 49.20 284.75 C 49.89 287.24 52.72 287.10 54.78 286.77 C 57.77 286.22 59.91 283.64 60.89 280.89 C 66.79 266.11 72.56 251.29 78.52 236.53 C 79.27 234.63 80.34 232.17 78.57 230.48 C 76.53 229.01 73.62 229.46 71.46 230.44 Z" />
<path fill="#ffffff" opacity="1.00" d=" M 272.43 215.69 C 281.37 215.25 290.71 214.68 299.25 217.90 C 305.36 220.17 310.52 225.22 312.25 231.59 C 314.77 240.49 312.50 249.88 309.23 258.26 C 304.51 270.02 300.39 282.11 294.15 293.19 C 290.14 300.38 283.81 306.88 275.47 308.59 C 266.09 310.42 256.46 309.97 246.95 309.97 C 239.21 309.75 230.32 308.27 225.51 301.51 C 220.58 294.44 221.69 285.11 224.48 277.43 C 228.88 265.64 233.19 253.81 238.17 242.25 C 244.31 228.57 256.95 216.85 272.43 215.69 M 268.63 247.51 C 264.36 258.35 260.19 269.22 255.93 280.06 C 255.00 282.12 254.97 284.38 255.32 286.57 C 259.11 287.34 264.02 286.81 265.74 282.77 C 270.43 271.65 274.42 260.23 278.93 249.02 C 279.59 246.99 281.08 244.59 279.57 242.58 C 278.36 240.92 276.06 241.37 274.30 241.45 C 271.09 241.68 269.71 244.95 268.63 247.51 Z" />
<path fill="#ffffff" opacity="1.00" d=" M 145.34 216.26 C 156.44 214.95 168.31 214.51 178.71 219.28 C 184.69 221.94 189.71 227.11 191.19 233.61 C 193.07 240.45 191.06 247.49 188.87 253.98 C 180.54 253.98 172.22 254.05 163.90 253.98 C 161.46 253.95 157.58 253.26 157.87 250.04 C 158.55 246.23 160.34 242.52 159.49 238.56 C 156.94 238.55 153.91 237.93 151.87 239.88 C 148.82 242.39 147.44 247.46 150.61 250.46 C 157.45 257.54 168.12 259.83 174.18 267.86 C 177.44 272.02 178.63 277.71 176.86 282.75 C 173.99 291.22 169.23 299.67 161.35 304.39 C 154.05 308.72 145.35 309.55 137.05 309.89 C 128.98 310.09 120.60 309.36 113.24 305.80 C 108.03 303.32 103.58 298.90 101.79 293.34 C 99.41 286.06 100.85 278.05 104.05 271.26 C 112.35 271.41 120.65 271.20 128.95 271.34 C 131.18 271.33 134.37 272.25 134.26 275.03 C 134.01 278.80 132.79 282.45 132.81 286.26 C 134.92 286.80 137.23 287.30 139.27 286.23 C 143.31 284.30 144.49 277.97 141.00 274.96 C 133.54 267.66 121.82 264.99 116.80 255.19 C 112.35 247.45 116.72 238.61 120.63 231.65 C 125.61 222.71 135.38 217.41 145.34 216.26 Z" />
<path fill="#ffffff" opacity="1.00" d=" M 302.41 309.58 C 310.67 309.07 318.98 309.46 327.25 309.41 C 313.36 344.31 298.89 378.99 284.80 413.82 C 283.81 417.19 280.37 419.09 277.01 419.10 C 268.70 419.26 260.39 419.13 252.08 419.14 C 265.41 386.23 278.93 353.41 292.27 320.52 C 293.87 315.66 296.77 310.26 302.41 309.58 Z" />
<path fill="#ffffff" opacity="1.00" d=" M 330.61 317.50 C 332.02 313.47 335.44 309.85 339.91 309.62 C 348.01 309.11 356.14 309.43 364.25 309.40 C 359.41 322.60 353.69 335.48 348.50 348.55 C 339.63 370.34 330.72 392.10 321.85 413.88 C 320.72 417.61 316.67 419.37 313.03 419.18 C 305.08 419.12 297.14 419.26 289.20 419.07 C 302.93 385.18 316.81 351.36 330.61 317.50 Z" />
<path fill="#ffffff" opacity="1.00" d=" M 112.64 316.00 C 120.43 316.13 128.23 315.72 136.00 316.21 C 138.83 316.24 141.54 318.38 141.30 321.40 C 142.11 341.98 142.59 362.59 143.23 383.18 C 151.78 362.37 160.05 341.44 168.68 320.67 C 169.90 317.35 173.59 315.91 176.90 316.00 C 184.97 315.96 193.04 316.02 201.11 316.00 C 187.06 350.37 173.25 384.84 159.15 419.18 C 144.37 419.13 129.60 419.19 114.82 419.12 C 114.00 384.75 113.26 350.38 112.64 316.00 Z" />
<path fill="#ffffff" opacity="1.00" d=" M 228.42 326.66 C 237.45 325.66 246.88 325.60 255.60 328.43 C 262.05 330.59 267.58 335.76 269.40 342.42 C 272.08 351.89 269.31 361.78 265.81 370.64 C 261.20 381.93 257.25 393.56 251.19 404.19 C 247.29 411.07 241.31 417.33 233.37 419.23 C 224.41 421.34 215.11 420.52 205.99 420.72 C 198.31 420.79 189.59 419.86 184.00 414.00 C 178.47 407.99 178.41 398.93 180.61 391.50 C 182.97 383.86 186.11 376.48 188.88 368.99 C 192.25 360.85 194.82 352.24 199.92 344.95 C 206.49 335.43 216.67 327.87 228.42 326.66 M 225.40 359.19 C 221.45 369.58 217.32 379.90 213.32 390.27 C 212.36 392.53 211.89 394.97 212.39 397.41 C 214.87 397.54 217.57 398.06 219.88 396.82 C 222.39 395.51 223.38 392.67 224.39 390.21 C 228.52 379.05 233.04 368.03 237.11 356.85 C 238.61 353.74 234.89 351.32 232.10 352.18 C 228.20 352.14 226.62 356.16 225.40 359.19 Z" />
<path fill="#ffffff" opacity="1.00" d=" M 382.71 327.67 C 391.61 325.54 400.97 325.58 409.97 327.09 C 417.71 328.43 425.44 333.05 428.23 340.72 C 432.24 351.45 428.82 363.50 422.68 372.71 C 416.82 381.12 406.54 384.97 396.76 386.42 C 389.32 387.65 381.78 387.03 374.29 387.33 C 372.00 389.92 371.52 393.79 371.43 397.17 C 376.58 398.18 381.83 397.55 387.03 397.52 C 396.11 397.11 405.25 396.95 414.22 395.30 C 413.02 402.93 407.99 409.36 402.33 414.33 C 395.04 420.45 385.04 420.72 376.00 420.71 C 367.70 420.47 359.12 421.61 351.12 418.84 C 345.55 417.03 340.86 412.41 339.50 406.64 C 337.63 399.67 339.41 392.42 341.84 385.83 C 345.88 374.99 350.06 364.19 354.55 353.52 C 359.79 341.56 369.74 330.96 382.71 327.67 M 387.79 353.82 C 384.67 357.69 383.74 362.81 381.80 367.31 C 385.09 367.33 388.86 367.80 391.61 365.58 C 394.64 363.05 396.21 359.08 396.67 355.25 C 396.34 350.99 390.08 351.39 387.79 353.82 Z" />
<path fill="#ffffff" opacity="1.00" d=" M 447.67 330.67 C 448.19 329.66 448.40 327.66 450.01 327.95 C 460.47 327.87 470.95 327.88 481.42 327.98 C 473.26 349.22 465.05 370.44 456.87 391.67 C 456.04 393.48 456.09 395.47 456.40 397.40 C 459.09 397.57 462.11 398.14 464.49 396.47 C 466.92 394.67 467.66 391.56 468.80 388.92 C 476.57 368.59 484.67 348.38 492.26 327.98 C 503.58 327.85 514.90 327.90 526.23 327.95 C 514.58 357.98 502.63 387.89 490.82 417.85 C 485.89 430.06 477.58 441.73 465.31 447.33 C 457.72 451.12 449.00 450.05 440.81 449.98 C 446.73 440.25 452.76 430.58 458.55 420.77 C 450.32 420.49 441.67 421.59 433.92 418.11 C 429.13 416.10 425.40 411.82 424.15 406.77 C 422.24 399.94 423.96 392.79 426.38 386.33 C 433.47 367.78 440.66 349.26 447.67 330.67 Z" />
</g>
</svg>
