<?xml version="1.0" encoding="UTF-8"?>
<svg width="256px" height="256px" viewBox="0 0 256 256" version="1.1" xmlns="http://www.w3.org/2000/svg" xmlns:xlink="http://www.w3.org/1999/xlink">
    <!-- Generator: Sketch 50.2 (55047) - http://www.bohemiancoding.com/sketch -->
    <title>logo/oslovolley</title>
    <desc>Created with Sketch.</desc>
    <defs></defs>
    <g id="logo/oslovolley" stroke="none" stroke-width="1" fill="none" fill-rule="evenodd">
        <g id="oslovolley">
            <circle id="Oval-2" fill="#FF0000" cx="128" cy="128" r="128"></circle>
            <g id="#7a1711ff" transform="translate(25.722552, 62.731878)" fill="#7A1711" fill-rule="nonzero">
                <path d="M120.065858,0.614984256 C131.864647,-0.0311948535 143.707743,-0.120323007 155.49767,0.7575893 C168.980101,1.79593228 182.599883,3.85479262 195.143019,9.15346131 C202.679534,12.3620748 209.888182,17.0457593 214.646687,23.8774322 C217.65509,28.2268861 219.445068,33.5210983 219.165938,38.8598747 C217.796871,37.2421987 216.795546,35.3615947 215.546107,33.659247 C212.125654,29.1092548 207.965285,25.1252263 203.286531,21.9032436 C194.18157,15.4771038 183.587915,11.5688343 172.879063,8.81923074 C156.202142,4.74161774 138.971391,3.32448011 121.842544,3.36458778 C102.609145,3.19524428 83.3978985,4.82183308 64.3372939,7.29068291 C61.1605265,7.64273912 58.0192042,8.41369764 54.8114223,8.40478483 C55.5513389,8.21761571 56.295686,8.04827221 57.0488945,7.91457999 C77.92163,4.47423328 98.9317152,1.69789131 120.065858,0.614984256 Z" id="Shape"></path>
                <path d="M100.163433,7.43774437 C110.181105,6.84949856 120.220931,6.86732419 130.251895,7.00101642 C146.250929,7.52687252 162.347436,9.18911257 177.761626,13.7123663 C187.225469,16.5466416 196.503225,20.5262136 204.354315,26.6404049 C209.976795,30.9898588 214.744161,36.5960196 217.601923,43.1603081 C219.702045,48.1559411 220.973638,53.7888403 219.679892,59.163268 C218.988712,62.0198253 218.133599,64.8674697 216.706934,67.4477298 C215.931572,64.8318185 215.49737,62.126779 214.593519,59.546519 C212.714929,54.0383992 209.976795,48.8021202 206.33481,44.2654972 C201.549721,38.1780443 195.408857,33.2849087 188.780623,29.3766392 C178.488251,23.3560325 167.052774,19.5992808 155.484378,16.9833696 C139.356856,13.3870486 122.826146,11.9743674 106.339742,11.6044855 C98.6481544,11.5153574 90.9609975,11.6401368 83.26941,11.7604598 C66.6899627,12.4779414 50.128238,13.8148637 33.6772792,16.0296983 C27.2750073,16.7293543 20.952487,18.0974715 14.5369232,18.6456096 C21.0233772,17.2552104 27.5762907,16.2213238 34.1159124,15.129504 C55.9811107,11.4485113 78.019104,8.66771288 100.163433,7.43774437 Z" id="Shape"></path>
                <path d="M36.6546679,21.6759668 C58.4091003,18.4628969 80.3451889,16.2703443 102.347737,16.0564368 C119.423416,15.9182881 136.592138,16.9388055 153.335519,20.4771931 C164.000064,22.7900687 174.536122,26.1190052 184.155037,31.3686534 C191.292794,35.2680101 197.952043,40.2458175 203.13589,46.5828292 C209.414104,54.1097017 213.530166,63.6686961 213.742837,73.5619211 C213.796005,75.3444841 212.79025,76.9888986 211.54524,78.174303 C210.22491,78.6778771 208.76723,78.392667 207.393733,78.4104926 C205.785411,71.9932656 203.41502,65.7364692 199.795189,60.1837853 C194.948071,52.5945231 188.20907,46.3689216 180.708,41.4936116 C171.802418,35.7136509 161.864497,31.7296225 151.718336,28.7705678 C132.360879,23.2758172 112.197045,21.328367 92.1484085,20.8292494 C62.3878132,20.3524137 32.6227874,22.9059353 3.26094955,27.7366812 C2.29950111,27.8748298 1.33362203,27.9550452 0.363312313,28.0129785 C12.3836331,25.4951082 24.5191505,23.5387452 36.6546679,21.6759668 Z" id="Shape"></path>
                <path d="M140.597435,31.6895148 C143.472919,32.1930889 146.308527,32.9283961 149.10426,33.7840264 C146.512336,39.1896489 145.067948,45.2280812 145.617347,51.248688 C145.892047,55.2015216 147.004137,59.0251193 148.328898,62.7417633 C143.929274,62.7373069 139.516359,62.4922045 135.174334,61.7747228 C133.486261,51.5071596 135.90982,40.8563453 140.597435,31.6895148 Z" id="Shape"></path>
                <path d="M151.47022,34.817913 C153.698831,35.4819177 155.909719,36.2038557 158.071871,37.0639424 C157.522472,41.4445911 157.464873,46.0525166 159.281435,50.1657809 C160.730254,53.8868813 163.517125,56.845936 166.591988,59.283591 C163.175966,60.6427953 159.564996,61.3781026 155.958457,61.9930868 C155.041314,62.1089534 154.093158,62.3317738 153.184877,62.0866714 C150.570801,56.6721361 149.582768,50.5534884 149.711257,44.5640765 C149.844176,41.257422 150.318254,37.9329419 151.47022,34.817913 Z" id="Shape"></path>
                <path d="M161.186609,38.6860748 C163.636752,39.6263768 166.05145,40.6736326 168.390827,41.8679499 C170.127637,42.7414058 171.022626,44.5685329 172.342956,45.914368 C174.31459,48.1202898 176.937527,49.5463402 179.520589,50.8921754 C176.910943,53.4323277 173.844942,55.4733624 170.588423,57.0687564 C166.848965,54.2701324 163.62346,50.5757704 161.926526,46.1639268 C161.044829,43.7886616 160.725823,41.1905759 161.186609,38.6860748 Z" id="Shape"></path>
                <path d="M186.658347,52.6346307 C188.058429,53.8334044 189.312299,55.1970651 190.442112,56.6587669 C192.059295,58.7666477 193.796105,60.8121388 195.018961,63.1918605 C190.158551,67.6304425 183.982242,70.2686358 177.819224,72.3230397 C164.965943,76.3961963 151.146784,76.8685755 137.885884,74.818628 C136.866837,72.6795524 136.180089,70.4112409 135.666135,68.1028217 C139.330272,68.3345549 142.976687,68.8693238 146.654117,68.7980213 C157.23448,68.7311752 168.107266,66.6901405 177.194504,61.0037643 C180.823197,58.8112117 183.880337,55.8209622 186.658347,52.6346307 Z" id="Shape"></path>
                <path d="M187.867911,72.6439011 C190.91619,70.9905739 193.641032,68.8336726 196.33486,66.663402 C198.328647,70.2998307 199.334402,74.3819001 200.233822,78.4060362 C191.208612,78.4060362 182.178972,78.5486412 173.158193,78.3302773 C178.20469,76.8552063 183.282201,75.3043765 187.867911,72.6439011 Z" id="Shape"></path>
            </g>
            <g id="#ffffffff" transform="translate(8.000000, 91.252886)" fill="#FFFFFF" fill-rule="nonzero">
                <path d="M88.2095713,3.60523379 C89.0070862,1.51072219 91.2401277,0.0579332994 93.4731692,0.236189605 C96.6587979,0.267384459 99.8488573,0.169343491 103.030055,0.311948535 C96.7784252,16.1054572 90.3540001,31.8276634 84.0048959,47.5810645 C83.5086644,49.1809148 81.8028688,49.9652426 80.2299923,49.9117657 C76.6588981,49.9251349 73.0878039,49.9028529 69.5122791,49.9117657 C75.7683399,34.4836824 81.9668024,19.0377735 88.2095713,3.60523379 Z" id="Shape"></path>
                <path d="M24.0672254,2.76297274 C28.6573664,2.41537295 33.6196809,2.06331674 37.8420789,4.27815134 C40.4561553,5.56605315 42.2372718,8.25326697 42.6315985,11.1321063 C43.3139168,15.4191705 41.8473756,19.6438449 40.239054,23.5521144 C38.1920993,28.9711061 35.919182,34.3009697 33.5930971,39.6040948 C31.80755,43.432149 29.3574072,47.4874799 25.1483011,48.9046175 C21.3246605,50.0989348 17.2484736,49.8582888 13.2919139,49.9162221 C9.92905969,49.9295913 6.25606081,49.8404632 3.38943805,47.8261669 C1.21842544,46.3109883 0.230393174,43.5881232 0.221531898,41.0034068 C0.199378709,37.6076242 1.52413946,34.4123799 2.76028745,31.319633 C5.05978856,25.6198876 7.27067691,19.8755781 9.68094396,14.2248532 C12.2551446,8.36022075 17.647231,3.63642864 24.0672254,2.76297274 Z M24.5723182,14.4565864 C23.7393582,15.0448322 23.3849072,16.0564368 22.9905804,16.9566311 C20.5182844,23.1956018 18.014974,29.4212033 15.5160942,35.6512612 C15.1616431,36.6183017 14.6787036,37.5987113 14.7097181,38.6593364 C15.0154321,39.7689819 16.2693026,39.7065922 17.182014,39.5595307 C18.5067748,39.3144283 19.4549313,38.1646751 19.8891338,36.939163 C22.5032102,30.3525925 25.0596884,23.7481964 27.7003486,17.1705387 C28.0326464,16.3238212 28.5067247,15.2275449 27.7225018,14.474412 C26.8186516,13.8193201 25.529336,14.0198585 24.5723182,14.4565864 Z" id="Shape"></path>
                <path d="M113.614849,7.88338513 C117.57584,7.6873032 121.714056,7.43328796 125.49782,8.86825122 C128.20494,9.87985576 130.491149,12.1303416 131.25765,14.9690733 C132.374171,18.9352761 131.368416,23.1198429 129.919597,26.8543125 C127.828336,32.0950479 126.002913,37.4828447 123.238195,42.4205444 C121.461509,45.6247015 118.656915,48.5213665 114.961763,49.2834122 C110.805825,50.0989348 106.539121,49.8983965 102.325584,49.8983965 C98.8962701,49.8003555 94.9574329,49.1408072 92.8262961,46.1282756 C90.6419916,42.9775954 91.1337924,38.819767 92.3699404,35.397246 C94.3194211,30.1431413 96.229026,24.8712111 98.4354838,19.7196038 C101.155895,13.6232382 106.756222,8.40032842 113.614849,7.88338513 Z M111.931207,22.0636743 C110.039325,26.8944202 108.191749,31.7385353 106.304297,36.5692812 C105.892247,37.4873011 105.878956,38.4944493 106.034028,39.4704026 C107.71324,39.8135459 109.888683,39.5773563 110.650753,37.7769676 C112.728722,32.8214423 114.496546,27.7322248 116.494764,22.7365918 C116.787186,21.8319411 117.447351,20.7624032 116.778325,19.8666653 C116.242218,19.1269016 115.223171,19.32744 114.443379,19.3630912 C113.021144,19.4655886 112.409716,20.9228339 111.931207,22.0636743 Z" id="Shape"></path>
                <path d="M57.3058715,8.13740037 C62.2238796,7.55361097 67.4830469,7.35752903 72.0909104,9.48323548 C74.7404319,10.6686399 76.9646122,12.9726027 77.6203466,15.8692676 C78.4533065,18.9174505 77.5627483,22.0547615 76.5924386,24.94697 C72.9017171,24.94697 69.2154263,24.9781649 65.5291356,24.94697 C64.4480599,24.9336008 62.7289724,24.6261087 62.8574609,23.1911454 C63.1587442,21.4932541 63.9518284,19.8399269 63.5752242,18.0751894 C62.4454115,18.070733 61.1029282,17.7944357 60.1990781,18.6634352 C58.8477335,19.7819936 58.2363055,22.0413922 59.6408177,23.3783145 C62.6713741,26.5334511 67.3988648,27.5539685 70.0838314,31.1324638 C71.5282194,32.9863294 72.0554653,35.5220254 71.2712424,37.7680548 C69.9996493,41.5426321 67.8906656,45.3082966 64.3993229,47.411721 C61.1649572,49.3413455 57.3103021,49.7112273 53.6328726,49.8627452 C50.0573478,49.9518733 46.3444732,49.6265556 43.0835236,48.0400745 C40.7751612,46.9348854 38.8035273,44.9651532 38.0104431,42.4873905 C36.9559513,39.2431258 37.5939632,35.6735432 39.0117673,32.6476424 C42.6891968,32.7144886 46.3666263,32.620904 50.0440559,32.6832937 C51.0320881,32.6788373 52.4454616,33.0888268 52.3967246,34.3277081 C52.2859587,36.0077738 51.7454208,37.6343626 51.7542821,39.3322539 C52.6891467,39.5728999 53.7126241,39.7957203 54.6164742,39.3188847 C56.406452,38.458798 56.9292673,35.637892 55.3829746,34.2965133 C52.0777187,31.0433357 46.885011,29.8534748 44.6608307,25.4861953 C42.6891968,22.0369358 44.6253856,18.0974715 46.3577651,14.9958117 C48.5642228,11.0117833 52.8929561,8.64988725 57.3058715,8.13740037 Z" id="Shape"></path>
                <path d="M126.897902,49.7245966 C130.557609,49.4973198 134.239469,49.6711197 137.903607,49.6488376 C131.749451,65.2017003 125.338317,80.656522 119.095549,96.1781899 C118.656915,97.6799993 117.132776,98.5267167 115.644082,98.5311731 C111.962221,98.6024757 108.280361,98.5445424 104.598501,98.5489988 C110.504542,83.8829612 116.494764,69.2570313 122.405235,54.5999065 C123.114137,52.4340924 124.399022,50.0276323 126.897902,49.7245966 Z" id="Shape"></path>
                <path d="M139.392301,53.2540714 C140.017021,51.4581391 141.532299,49.8449196 143.512794,49.7424222 C147.101611,49.5151454 150.70372,49.6577504 154.296967,49.6443812 C152.152538,55.5268393 149.618214,61.2666924 147.318712,67.0912172 C143.388737,76.8017294 139.441038,86.4988725 135.511062,96.2049283 C135.0104,97.8671684 133.215992,98.6514961 131.60324,98.5668244 C128.080882,98.5400859 124.562956,98.6024757 121.045029,98.5178039 C127.128295,83.4150384 133.278021,68.3434677 139.392301,53.2540714 Z" id="Shape"></path>
                <path d="M42.8176853,52.5856103 C46.2691523,52.6435436 49.7250499,52.4608308 53.1676556,52.6791948 C54.4215262,52.692564 55.6222291,53.6462353 55.5158937,54.9920704 C55.8747754,64.1633573 56.087446,73.3480135 56.3710069,82.5237569 C60.1592023,73.2499725 63.8233399,63.9227113 67.6469805,54.6667526 C68.1875183,53.1872253 69.8224238,52.5455026 71.2889649,52.5856103 C74.8644898,52.5677846 78.4400146,52.5945231 82.0155394,52.5856103 C75.7904931,67.9022834 69.6717821,83.2635205 63.4245825,98.5668244 C56.8760996,98.5445424 50.3320473,98.5712808 43.7835644,98.5400859 C43.4202521,83.2234129 43.0923849,67.9067398 42.8176853,52.5856103 Z" id="Shape"></path>
                <path d="M94.1156117,57.3361408 C98.1164778,56.8905001 102.294569,56.8637616 106.158086,58.124925 C109.015847,59.087509 111.46599,61.3914718 112.272366,64.3594393 C113.459777,68.5796573 112.23249,72.9870445 110.681767,76.9354217 C108.639243,81.9667059 106.889141,87.149508 104.204174,91.8866693 C102.476226,94.9526778 99.8267041,97.742389 96.3087775,98.5891064 C92.3389259,99.5294084 88.2184326,99.163983 84.1776908,99.2531112 C80.7749608,99.284306 76.9114445,98.8698601 74.4347179,96.2584052 C71.9845751,93.5801042 71.9579913,89.5425989 72.9327316,86.231488 C73.9783622,82.8267926 75.3695825,79.5379637 76.5968692,76.2001144 C78.0899942,72.5725986 79.2286682,68.7356316 81.4882935,65.4869104 C84.3992227,61.2444103 88.9096121,57.8753661 94.1156117,57.3361408 Z M92.7775591,71.8328349 C91.0274571,76.4630424 89.1976036,81.0620551 87.4253484,85.6833499 C87.0000072,86.690498 86.7917672,87.7778615 87.0132991,88.8652249 C88.1120973,88.9231582 89.3083695,89.1548914 90.3318469,88.6022969 C91.443937,88.0185075 91.8825702,86.7528877 92.3300646,85.6566114 C94.1599181,80.6832605 96.1625665,75.7722993 97.9658361,70.7900355 C98.6304318,69.4040927 96.9822345,68.3256421 95.7460865,68.7088931 C94.0181377,68.6910675 93.3180969,70.4825434 92.7775591,71.8328349 Z" id="Shape"></path>
                <path d="M162.475925,57.786238 C166.419193,56.8370232 170.56627,56.8548488 174.553844,57.5277663 C177.983158,58.124925 181.408041,60.1837853 182.644189,63.60185 C184.420875,68.3835754 182.905597,73.7535466 180.185185,77.857898 C177.588831,81.6057369 173.034135,83.3214538 168.700971,83.9676329 C165.404577,84.5157711 162.063876,84.2394738 158.745328,84.373166 C157.730712,85.5273756 157.518041,87.2520054 157.478165,88.7582712 C159.759944,89.2083683 162.086029,88.9276146 164.389961,88.9142454 C168.41298,88.7315327 172.462583,88.6602302 176.436865,87.9249229 C175.905189,91.325162 173.676578,94.1906321 171.168837,96.4054667 C167.938902,99.1327882 163.508264,99.2531112 159.502967,99.2486548 C155.825537,99.141701 152.02405,99.6497314 148.47954,98.4153065 C146.011674,97.6086967 143.933705,95.5498364 143.331138,92.9784892 C142.502609,89.8723731 143.291263,86.6414775 144.367908,83.7047049 C146.157885,78.873959 148.009892,74.0610387 149.999248,69.3060518 C152.320903,63.9761882 156.729388,59.2523961 162.475925,57.786238 Z M164.726689,69.439744 C163.34433,71.1643738 162.932281,73.4460545 162.072737,75.4514379 C163.530417,75.4603507 165.200767,75.6698019 166.419193,74.6804794 C167.761676,73.5530083 168.457286,71.7838144 168.661096,70.0770103 C168.514885,68.1785806 165.741305,68.3568369 164.726689,69.439744 Z" id="Shape"></path>
                <path d="M191.257349,59.1231603 C191.487742,58.6730631 191.580786,57.7817816 192.294118,57.9110174 C196.928566,57.8753661 201.571874,57.8798226 206.210752,57.9243866 C202.595352,67.3897965 198.957798,76.8462935 195.333536,86.3072469 C194.965793,87.1138567 194.987946,88.0006819 195.125296,88.8607685 C196.317138,88.9365275 197.65519,89.1905427 198.709682,88.4463226 C199.786327,87.6441692 200.114194,86.2582265 200.619287,85.0817348 C204.061893,76.0218581 207.65071,67.0154582 211.013564,57.9243866 C216.029046,57.8664533 221.044528,57.8887354 226.064441,57.9110174 C220.902748,71.2936096 215.608135,84.6227249 210.375552,97.9741222 C208.191248,103.415396 204.509387,108.616024 199.072995,111.111612 C195.71014,112.80059 191.846624,112.323755 188.217932,112.29256 C190.840869,107.956475 193.512544,103.647129 196.077883,99.2753932 C192.431468,99.1506138 188.598966,99.6408186 185.165222,98.0899888 C183.042946,97.1942508 181.390318,95.2869084 180.836489,93.0364225 C179.990237,89.9926961 180.752307,86.8063646 181.824521,83.9275253 C184.965843,75.6608891 188.151472,67.4076221 191.257349,59.1231603 Z" id="Shape"></path>
            </g>
        </g>
    </g>
</svg>