<?xml version="1.0" encoding="UTF-8"?>
<svg width="256px" height="256px" viewBox="0 0 256 256" version="1.1" xmlns="http://www.w3.org/2000/svg" xmlns:xlink="http://www.w3.org/1999/xlink">
    <!-- Generator: Sketch 50.2 (55047) - http://www.bohemiancoding.com/sketch -->
    <title>logo/osvb</title>
    <desc>Created with Sketch.</desc>
    <defs></defs>
    <g id="logo/osvb" stroke="none" stroke-width="1" fill="none" fill-rule="evenodd">
        <g id="osvb" transform="translate(0.000000, 50.000000)" fill="#00A2D5" fill-rule="nonzero">
            <path d="M69.7570909,1.38796262 C71.872,-0.145794393 74.976,-0.0933084112 77.0589091,1.47835514 C78.1643636,2.31229907 79.1010909,3.4553271 79.4909091,4.80246729 C79.9330909,6.74736449 79.0196364,8.62519626 78.9352727,10.5525981 C78.9149091,10.9579065 78.7578182,11.3340561 78.6327273,11.7160374 C78.9672727,12.2408972 79.424,12.7482617 79.424,13.4072523 C79.4850909,15.0226542 79.7207273,16.6730467 79.3076364,18.2622056 C78.9323636,19.3585794 79.5258182,20.4841121 79.2058182,21.5892336 C78.7287273,21.5046729 78.2545455,21.4142804 77.7803636,21.3238879 C77.5272727,23.5341308 77.4545455,25.7618692 77.0821818,27.9575327 C76.8930909,29.0451589 76.768,30.1415327 76.6836364,31.2408224 C77.7018182,31.5149159 78.8218182,31.6898692 79.6276364,32.4334206 C80.3985455,33.1274019 81.0618182,33.9321869 81.7512727,34.7048972 C82.9847273,34.3316636 84.2676364,34.1567103 85.5563636,34.1946168 C86.8974545,30.4943551 88.8552727,27.0069533 89.6465455,23.1200748 C90.1701818,20.4957757 90.5076364,17.8306542 90.6967273,15.1626168 C90.848,13.1914766 88.9192727,12.1359252 87.744,10.8995888 C86.56,9.61076636 85.7716364,8.01869159 84.8174545,6.56657944 C84.5905455,5.15528972 84.416,3.68568224 84.5469091,2.25398131 C84.6487273,2.21024299 84.8523636,2.12276636 84.9541818,2.07902804 C85.5912727,2.79925234 85.5738182,3.8402243 86.0916364,4.63042991 C86.3010909,3.43783178 86.3621818,2.21607477 86.7258182,1.05263551 C87.0312727,1.28882243 87.36,1.50168224 87.6101818,1.80201869 C87.7061818,3.18706542 86.8858182,4.83745794 88,5.97757009 C88.1425455,4.47880374 87.776,3.00628037 87.7614545,1.51334579 C88.2356364,1.81076636 88.864,2.05278505 88.9861818,2.67095327 C89.2829091,3.87521495 89.0967273,5.14362617 89.3730909,6.35080374 C89.5650909,6.96897196 90.1527273,7.3451215 90.5890909,7.78542056 C90.5367273,6.35371963 90.208,4.95700935 90.0189091,3.54280374 C90.368,3.80231776 90.8363636,3.98018692 91.0138182,4.41173832 C91.5665455,5.69181308 91.7643636,7.09435514 92.3025455,8.37442991 C93.0327273,9.65742056 94.3010909,10.5525981 94.9556364,11.8851589 C95.3250909,12.844486 94.9527273,13.8767103 94.9469091,14.8651963 C94.9061818,17.4924112 95.0341818,20.1196262 95.1185455,22.7439252 C95.3338182,28.3599252 94.6676364,33.955514 94.0450909,39.5248598 C93.9549091,40.0847103 93.4778182,40.455028 93.0385455,40.7524486 C89.8210909,42.7148411 86.1876364,44.3156636 82.3389091,44.096972 C82.1149091,46.1118505 82.0450909,48.1413084 81.7338182,50.1445234 C81.2509091,53.5531963 80.2210909,56.8539813 79.6450909,60.2451589 C79.3541818,64.0416449 79.8632727,67.9051963 79.0021818,71.6521121 C78.7927273,72.203215 79.2727273,72.6318505 79.5112727,73.0779813 C80.1338182,73.9760748 80.4130909,75.0666168 81.0647273,75.9442991 C82.2865455,76.3962617 82.6356364,74.620486 83.2494545,73.9119252 C83.3163636,75.3436262 82.2109091,76.3262804 81.2363636,77.1835514 C82.5658182,77.9358505 84.2269091,77.609271 85.5301818,78.4315514 C86.1556364,78.7639626 86.5687273,79.4404486 86.56,80.1548411 C86.6443636,80.7117757 86.0334545,80.9567103 85.728,81.3182804 C85.8472727,80.6709533 86.496,79.8749159 85.8589091,79.3121495 C84.8349091,78.390729 83.3512727,78.5015327 82.0741818,78.5481869 C82.0916364,79.5425047 82.112,80.5368224 82.2138182,81.5282243 C82.4,83.4643738 83.5287273,85.1964112 83.5141818,87.1675514 C83.5985455,88.9170841 83.0312727,90.5966355 82.8334545,92.3170093 C82.5745455,94.3989533 82.5163636,96.5100561 82.7287273,98.6007477 C82.9905455,101.303776 83.0429091,104.015551 83.1650909,106.727327 C83.1418182,107.779963 84.2967273,108.348561 84.4189091,109.360374 C84.4916364,110.698766 83.9243636,111.940935 83.5810909,113.20643 C83.2232727,114.684785 84.032,116.183551 83.6596364,117.658991 C83.232,118.102206 82.5978182,118.207178 82.0247273,118.329645 C80.2618182,118.656224 78.4843636,118.889495 76.6952727,118.994467 C76.6690909,120.423252 76.7883636,121.930766 76.1338182,123.251664 C75.232,125.053682 74.4785455,126.937346 73.3352727,128.605234 C71.7992727,131.002093 69.6610909,132.917832 67.5141818,134.749009 C65.2683636,136.693907 63.3541818,138.991626 61.728,141.475963 C60.3345455,143.377121 59.3192727,145.607776 57.4429091,147.103626 C56.2472727,148.077533 55.7323636,149.622953 54.5687273,150.628935 C53.9490909,151.182953 53.3527273,151.786542 52.9774545,152.541757 C52.3781818,153.778093 51.1389091,154.483738 50.0596364,155.244785 C49.4981818,155.679252 48.7709091,155.880449 48.0698182,155.728822 C47.4734545,155.209794 47.2,154.407925 47.0487273,153.655626 C46.9090909,152.83043 47.4501818,152.121869 47.7730909,151.413308 C48.5032727,150.106991 48.5352727,148.488673 49.5069091,147.310654 C50.4843636,146.141383 51.9883636,145.421159 52.5905455,143.948636 C53.4749091,141.79671 53.6145455,139.434841 54.2574545,137.21585 C54.5192727,136.204037 55.4065455,135.370093 56.4421818,135.218467 C57.2334545,135.192224 57.9985455,135.466318 58.7869091,135.501308 C59.1883636,135.24471 59.3978182,134.801495 59.6276364,134.40785 C61.1432727,131.561944 62.3563636,128.558579 63.2349091,125.456075 C63.584,123.974804 64.4218182,122.685981 65.4516364,121.592523 C66.3418182,120.709009 66.9498182,119.60972 67.296,118.408374 C66.88,117.991402 66.2516364,117.603589 66.4145455,116.915439 C66.8043636,114.019963 65.0298182,111.372336 65.1490909,108.488523 C65.1490909,106.963514 65.4109091,105.097346 64.1163636,103.986393 C63.1098182,103.126206 61.8996364,102.263103 60.544,102.193121 C59.3978182,102.825869 60.2298182,104.283813 60.2356364,105.281047 C60.608,107.211364 58.3970909,108.342729 58.4552727,110.223477 C58.4232727,111.293607 58.1701818,112.389981 57.3178182,113.110206 C56.9425455,112.716561 56.6254545,112.165458 56.0378182,112.083813 C54.7316364,111.847626 53.3905455,111.955514 52.0698182,111.89428 C49.4458182,111.873869 46.8305455,111.690168 44.2152727,111.488972 C42.8945455,112.876935 41.5127273,114.320299 39.6712727,114.996785 C38.272,115.399178 37.5098182,116.973757 35.9941818,117.096224 C33.3672727,117.42572 31.1156364,115.544972 28.5178182,115.682019 C26.5192727,115.717009 24.5178182,115.717009 22.5221818,115.781159 C21.5854545,117.577346 19.6101818,118.36172 18.3650909,119.883813 C17.5825455,120.711925 17.5214545,122.035738 16.5498182,122.709308 C15.6392727,123.347888 14.7927273,124.068112 13.9956364,124.843738 C13.5796364,125.321944 12.9483636,125.421084 12.3549091,125.491065 C12.1629091,125.021607 12.0087273,124.53757 11.7876364,124.085607 C11.2814545,123.522841 10.6094545,123.062131 10.336,122.333159 C10.1410909,120.571963 10.4930909,118.802019 10.9556364,117.107888 C11.5403636,114.693533 13.9403636,113.492187 15.3890909,111.658093 C16.6109091,110.436336 17.5272727,108.436037 19.4909091,108.389383 C20.4829091,108.229009 21.3992727,108.68972 22.1643636,109.275813 C24.7272727,107.925757 26.7490909,105.523065 29.696,104.98071 C31.0225455,104.665794 32.4130909,104.764935 33.7076364,105.181907 C34.6210909,103.919327 35.488,102.607178 36.0494545,101.146318 C37.3847273,97.734729 39.0632727,94.4747664 40.6254545,91.1652336 C41.6756364,89.0220561 42.624,86.8234766 43.84,84.7677757 C44.7505455,83.3623178 43.9912727,81.6186168 44.4305455,80.0965234 C45.024,79.4841869 45.9578182,79.5162617 46.7287273,79.2859065 C47.2465455,77.9066916 47.9912727,76.6353645 48.6487273,75.323215 C49.0501818,74.1102056 48.9018182,72.7834766 49.3410909,71.5733832 C49.6610909,70.3837009 50.9614545,69.8588411 51.4269091,68.744972 C52.1861818,67.0100187 52.896,65.2429907 53.3905455,63.4088972 C54.2545455,60.3384673 55.4850909,57.3205234 55.6596364,54.0984673 C55.9825455,49.1881121 55.9389091,44.2573458 55.8138182,39.338243 C55.744,36.0578692 54.3098182,33.0399252 53.6581818,29.8645234 C53.4981818,28.835215 52.7272727,27.9633645 51.6625455,27.8583925 C48.32,27.3043738 45.0152727,26.4529346 41.6174545,26.2692336 C39.6770909,26.1584299 37.824,25.5431776 35.9301818,25.1582804 C34.0189091,24.752972 32.0494545,24.7354766 30.1265455,24.3972336 C27.3861818,23.8869533 24.6894545,23.1608972 22.08,22.178243 C18.7869091,21.0760374 15.456,19.5626916 11.8981818,19.8921869 C10.3098182,19.8746916 8.73890909,20.825271 7.17381818,20.1896075 C5.97818182,19.8805234 5.28581818,18.8045607 4.40436364,18.0405981 C2.79272727,17.8918879 0.788363636,17.472 0.0698181818,15.8245234 C0.898909091,15.3696449 1.77454545,15.0080748 2.60945455,14.5619439 C3.328,14.1624673 4.01745455,13.4247477 4.91636364,13.6346916 C7.19418182,14.3140935 8.81163636,16.7080374 11.3338182,16.6059813 C12.5090909,16.7197009 13.6552727,17.0521121 14.8392727,17.0637757 C19.8894545,17.186243 24.9134545,16.5068411 29.9607273,16.4456075 C32.1076364,16.3960374 34.1701818,17.1541682 36.0756364,18.0785047 C38.4785455,19.3906542 41.3178182,18.8716262 43.9330909,18.9037009 C45.3381818,18.7928972 46.6821818,19.2361121 48.0436364,19.4897944 C49.4341818,19.3265047 50.7956364,18.9241121 52.2036364,18.8628785 C55.6741818,18.6704299 59.1738182,18.3934206 62.6298182,18.9299439 C62.0218182,17.2328972 61.696,15.4337944 61.6814545,13.6317757 C62.0974545,12.5295701 62.592,11.3457196 63.6770909,10.7479626 C64.4101818,9.71573832 64.4712727,8.31319626 65.0647273,7.18766355 C65.5563636,6.42370093 66.5687273,6.19334579 67.0370909,5.40897196 C67.8690909,4.02684112 68.4829091,2.44059813 69.7570909,1.38796262 Z" id="Shape"></path>
            <path d="M128.410182,32.5558879 C132.485818,32.0164486 136.896,32.2584673 140.526545,34.3783178 C143.778909,36.2940561 145.957818,39.755215 146.650182,43.4379813 C147.345455,46.3042991 147.130182,49.269757 147.159273,52.1943925 C147.159273,60.554243 147.159273,68.9111776 147.159273,77.271028 C147.106909,80.7321869 147.426909,84.2574953 146.496,87.6370093 C145.547636,91.9262804 142.385455,95.7285981 138.187636,97.1253084 C134.289455,98.4053832 129.984,98.4228785 126.042182,97.3206729 C122.027636,96.1805607 118.792727,92.8914393 117.515636,88.9404112 C116.797091,86.683514 116.445091,84.3128972 116.477091,81.9451963 C116.491636,70.4682617 116.468364,58.9884112 116.488727,47.5114766 C116.605091,43.3505047 117.806545,38.9854206 120.913455,36.0491215 C122.938182,34.0896449 125.646545,32.967028 128.410182,32.5558879 Z M130.737455,41.5834766 C129.533091,41.7525981 128.340364,42.3591028 127.671273,43.4029907 C126.804364,44.6859813 126.624,46.2897196 126.600727,47.8030654 C126.603636,59.3791402 126.606545,70.9581308 126.600727,82.5371215 C126.606545,84.3799626 126.897455,86.4298318 128.299636,87.7565607 C129.963636,89.1620187 132.491636,89.2786542 134.426182,88.4068037 C136.477091,87.4154019 137.026909,84.9077383 137.035636,82.8257944 C137.044364,71.1534953 137.035636,59.4841121 137.041455,47.814729 C137.026909,46.0826916 136.768,44.1961121 135.552,42.8693832 C134.324364,41.5980561 132.413091,41.3472897 130.737455,41.5834766 Z" id="Shape"></path>
            <path d="M159.307636,34.0021682 C162.624,32.2817944 166.504727,32.0864299 170.152727,32.4917383 C173.611636,32.8941308 177.067636,34.5124486 179.092364,37.4370841 C181.879273,41.1548411 182.210909,46.0389533 182.088727,50.5235888 C178.912,50.5294206 175.732364,50.5323364 172.555636,50.5206729 C172.506182,48.1704673 172.849455,45.6015701 171.578182,43.4933832 C170.301091,41.3793645 167.328,41.079028 165.213091,41.9508785 C163.176727,42.8168972 162.539636,45.2195888 162.484364,47.2402991 C162.234182,51.3721121 164.384,55.2298318 167.217455,58.0786542 C171.104,62.0530093 175.645091,65.4587664 178.746182,70.1445981 C181.338182,74.0110654 182.429091,78.7668785 182.161455,83.3885607 C181.952,86.8118131 181.198545,90.3837757 179.002182,93.1130467 C176.765091,96.1688972 173.003636,97.7143178 169.320727,98.0059065 C165.236364,98.3441495 160.788364,97.8688598 157.437091,95.2999626 C154.612364,93.1422056 152.957091,89.751028 152.436364,86.2782056 C151.924364,83.5489346 152.107636,80.7584299 152.107636,77.9970841 C155.278545,78.0058318 158.452364,78 161.626182,77.9970841 C161.675636,80.0936075 161.506909,82.1988785 161.742545,84.2837383 C161.934545,86.007028 162.853818,87.8090467 164.561455,88.4417944 C166.912,89.3457196 170.257455,88.9083364 171.397818,86.3685981 C172.730182,83.1669533 172.142545,79.3908785 170.437818,76.4429159 C168.034909,72.1857196 164.032,69.2406729 160.581818,65.9019813 C156.538182,62.4174953 153.611636,57.5800374 152.654545,52.3022804 C152.043636,48.4737196 152.305455,44.4789533 153.541818,40.7961869 C154.600727,37.9648598 156.587636,35.3959626 159.307636,34.0021682 Z" id="Shape"></path>
            <path d="M185.245091,33.0253458 C188.628364,33.019514 192.011636,33.0136822 195.397818,33.0282617 C197.501091,47.4531589 199.624727,61.8780561 201.739636,76.3029533 C202.208,79.2771589 202.542545,82.2776075 203.106909,85.2372336 C205.730909,67.8439626 208.229818,50.4331963 210.789818,33.0282617 C213.876364,33.0107664 216.962909,33.0282617 220.049455,33.0191114 C216.802909,54.4775327 213.445818,75.920972 210.181818,97.3760748 C205.163636,97.4110654 200.145455,97.3906542 195.127273,97.3877383 C191.828364,75.9326355 188.503273,54.4833645 185.245091,33.0253458 Z" id="Shape"></path>
            <path d="M224.753455,33.0165981 C229.640727,33.0253458 234.528,33.0165981 239.418182,33.019514 C242.906182,33.0136822 246.589091,33.3606729 249.611636,35.2647477 C252.133818,36.8247477 253.710545,39.5685981 254.336,42.4174206 C255.074909,45.3245607 254.944,48.3454206 254.900364,51.3137944 C254.760727,54.6437383 253.981091,58.163215 251.677091,60.6883738 C250.795636,61.7322617 249.614545,62.4408224 248.445091,63.1114766 C250.967273,64.1145421 253.128727,66.0273645 254.274909,68.508785 C255.691636,71.395514 255.959273,74.6846355 255.912727,77.8571215 C255.863273,81.1112523 256.157091,84.4295327 255.252364,87.6020187 C254.394182,91.3780935 251.648,94.7022056 248.026182,96.1076636 C244.576,97.5656075 240.759273,97.3994019 237.090909,97.3935701 C232.974545,97.3906542 228.861091,97.396486 224.744727,97.3906542 C224.741818,75.9326355 224.724364,54.4746168 224.753455,33.0165981 Z M234.816,42.2278879 C234.816,47.8963738 234.816,53.5619439 234.816,59.227514 C237.460364,59.1050467 240.418909,59.7494579 242.752,58.1573832 C244.573091,56.7898318 244.811636,54.2996636 244.808727,52.1914766 C244.715636,49.6896449 245.143273,47.0216075 244.040727,44.6801495 C243.435636,43.3213458 242.048,42.4203364 240.587636,42.2891215 C238.667636,42.1404112 236.738909,42.251215 234.816,42.2278879 Z M234.816,68.4446355 C234.813091,75.0228785 234.818909,81.6011215 234.813091,88.1793645 C236.933818,88.1764486 239.054545,88.2405981 241.172364,88.1531215 C242.664727,88.1006355 244.282182,87.4882991 245.015273,86.0974206 C246.021818,84.1991776 245.806545,81.9685234 245.832727,79.8953271 C245.774545,77.2535327 246.068364,74.541757 245.312,71.9699439 C244.893091,70.5061682 243.773091,69.2756636 242.295273,68.8586916 C239.869091,68.1501308 237.303273,68.5291963 234.816,68.4446355 Z" id="Shape"></path>
        </g>
    </g>
</svg>