<?xml version="1.0" encoding="UTF-8" standalone="no"?>
<svg width="380" height="414" viewBox="0 0 380 414" version="1.1" xmlns="http://www.w3.org/2000/svg" xmlns:xlink="http://www.w3.org/1999/xlink">
    <g transform="matrix(1,0,0,-1,-90,656)" id="g1">
        <g transform="translate(451.7412,626.4844)" id="gb1">
            <path id="bpath1"
             style="fill:#ffffff;fill-opacity:1;fill-rule:nonzero;stroke:none"
             d="m 0,0 c 0.226,-5.891 0.481,-11.801 0.481,-17.549 0,-215.655 -152.453,-330.943 -172.937,-345.446 -21.029,14.938 -172.264,129.964 -172.264,345.021 0,5.495 0.238,11.144 0.44,16.768 40.763,-23.978 103.759,-38.273 171.147,-38.273 68.688,0 132.445,14.748 173.133,39.479" /></g>
        <g transform="translate(279.8223,244.2461)" id="gb2">
            <path id="bpath2"
            style="fill:#ffffff;fill-opacity:1;fill-rule:nonzero;stroke:none"
            d="m 0,0 c 0,0 210.678,131.413 186.346,409.47 0,0 -68.053,-51.101 -186.788,-51.101 0,0 -122.012,-0.442 -185.579,50.777 0,0 -40.455,-249.582 186.021,-409.146"/></g>
        <g transform="translate(451.7266,626.2617)" id="g2">
            <path id="path1"
             style="fill:#176fc1;fill-opacity:1;fill-rule:nonzero;stroke:none"
             d="m 0,0 c 0.221,-5.891 0.48,-11.801 0.48,-17.549 0,-215.656 -152.453,-330.944 -172.942,-345.445 -21.027,14.936 -172.26,129.963 -172.26,345.02 0,5.495 0.239,11.144 0.441,16.769 40.764,-23.979 103.759,-38.274 171.147,-38.274 C -104.45,-39.479 -40.692,-24.731 0,0 m 1.438,11.404 c -38.751,-26.165 -104.009,-41.788 -174.572,-41.788 -69.415,0 -134.089,15.225 -173.001,40.727 l -6.623,4.339 -0.411,-7.907 C -366.251,-244.65 -176.917,-371.048 -175,-372.296 l 2.481,-1.614 2.768,1.741 c 1.92,1.251 192.25,128.194 178.623,380.283 l -0.434,8.015 z" /></g>
        <g transform="translate(126.2544,591.332)" id="g3">
            <path id="path2"
             style="fill:#e31b22;fill-opacity:1;fill-rule:nonzero;stroke:none"
             d="M 0,0 C 6.183,-57.692 19.523,-105.774 35.828,-145.458 L 214.417,-20.953 C 172.344,-28.094 94.7,-32.895 0,0" /></g>
        <g transform="translate(208.8071,360.6787)" id="g4">
            <path id="path3"
             style="fill:#e31b22;fill-opacity:1;fill-rule:nonzero;stroke:none"
             d="m 0,0 c 36.083,-50.421 70.443,-71.748 70.443,-71.748 0,0 90.938,57.54 147.787,227.835 z" /></g>
        <g transform="translate(187.6392,430.479)" id="g5">
            <path id="path4"
             style="fill:#176fc1;fill-opacity:1;fill-rule:nonzero;stroke:none"
             d="m 0,0 9.394,-13.292 3.972,2.805 c 4.528,3.202 5.267,6.884 2.058,11.425 C 12.333,5.31 8.823,6.233 3.417,2.415 Z m 18.907,-23.213 -1.591,-1.124 14.713,-20.824 -11.998,-8.48 -40.082,56.725 15.813,11.174 c 11.284,7.974 23.053,7.174 31.525,-4.82 5.38,-7.615 5.039,-15.391 1.738,-21.853 l 26.209,-16.35 -12.953,-9.153 z" /></g>
        <g transform="translate(215.6631,467.5347)" id="g6">
            <path id="path5"
             style="fill:#176fc1;fill-opacity:1;fill-rule:nonzero;stroke:none"
             d="m 0,0 12,8.477 40.081,-56.724 -11.92,-8.421 z" /></g>
        <g transform="translate(294.207,437.9863)" id="g7">
            <path id="path6"
             style="fill:#176fc1;fill-opacity:1;fill-rule:nonzero;stroke:none"
             d="M 0,0 -53.992,46.898 -41.675,55.6 C -30.85,45.507 -19.891,35.394 -9.301,25.136 -15.44,38.54 -21.313,52.243 -27.29,65.763 L -15.051,74.41 11.282,7.971 Z" /></g>
        <g transform="translate(317.6182,507.8672)" id="g8">
            <path id="path7"
             style="fill:#176fc1;fill-opacity:1;fill-rule:nonzero;stroke:none"
             d="m 0,0 c 2.3,-4.938 4.303,-9.961 6.439,-15.012 l 5.642,3.985 -4.917,4.423 C 4.951,-4.647 2.392,-2.202 0,0 m 22.55,-20.277 -10.885,-7.692 5.449,-13.279 -12.236,-8.645 -25.385,67.112 11.284,7.971 54.786,-46.334 -12.319,-8.705 z" /></g>
        <g transform="translate(335.333,552.0933)" id="g9">
            <path id="path8"
             style="fill:#176fc1;fill-opacity:1;fill-rule:nonzero;stroke:none"
             d="M 0,0 11.918,8.422 43.87,-36.795 61.351,-24.442 69.481,-35.949 40.16,-56.667 Z" /></g>
    </g>
</svg>
