<?xml version="1.0" encoding="UTF-8" standalone="no"?>
<!-- Created with Inkscape (http://www.inkscape.org/) -->

<svg
   version="1.1"
   id="svg9"
   width="463.19464"
   height="501.44931"
   viewBox="0 0 463.19464 501.44929"
   sodipodi:docname="rival-logo.svg"
   inkscape:version="1.2.2 (732a01da63, 2022-12-09)"
   xmlns:inkscape="http://www.inkscape.org/namespaces/inkscape"
   xmlns:sodipodi="http://sodipodi.sourceforge.net/DTD/sodipodi-0.dtd"
   xmlns="http://www.w3.org/2000/svg"
   xmlns:svg="http://www.w3.org/2000/svg">
  <defs
     id="defs13">
    <clipPath
       clipPathUnits="userSpaceOnUse"
       id="clipPath25">
      <path
         d="M 0,842 H 595 V 0 H 0 Z"
         id="path23" />
    </clipPath>
  </defs>
  <sodipodi:namedview
     id="namedview11"
     pagecolor="#ffffff"
     bordercolor="#666666"
     borderopacity="1.0"
     inkscape:showpageshadow="2"
     inkscape:pageopacity="0.0"
     inkscape:pagecheckerboard="0"
     inkscape:deskcolor="#d1d1d1"
     showgrid="false"
     inkscape:zoom="1.0457243"
     inkscape:cx="66.93925"
     inkscape:cy="320.35212"
     inkscape:window-width="2560"
     inkscape:window-height="1377"
     inkscape:window-x="-8"
     inkscape:window-y="7"
     inkscape:window-maximized="1"
     inkscape:current-layer="g17">
    <inkscape:page
       x="0"
       y="0"
       id="page15"
       width="463.19464"
       height="501.44928" />
  </sodipodi:namedview>
  <g
     id="g17"
     inkscape:groupmode="layer"
     inkscape:label="Page 1"
     transform="matrix(1.3333333,0,0,-1.3333333,-172.01826,881.39318)">
    <g
       id="g19">
      <g
         id="g21"
         clip-path="url(#clipPath25)">
        <g
           id="g27"
           transform="translate(129.0137,660.8989)"
           style="fill:#2e3192;fill-opacity:1">
          <path
             d="m 0,0 c 109.202,-61.482 229.67,-60.942 347.396,0.146 0,-141.204 -9.289,-240.6 -173.699,-376.087 C 9.288,-240.454 0,-140.048 0,0"
             style="fill:#2e3192;fill-opacity:1;fill-rule:evenodd;stroke:none"
             id="path29" />
        </g>
        <g
           id="g31"
           transform="translate(138.3018,646.8877)">
          <path
             d="m 0,0 c 101.476,-54.221 220.587,-55.11 328.819,0 0,-126.037 -11.339,-226.443 -164.41,-350.439 C 11.338,-226.443 0,-126.037 0,0"
             style="fill:#2e3192;fill-opacity:1;fill-rule:evenodd;stroke:none"
             id="path33" />
        </g>
        <g
           id="g35"
           transform="translate(151.6045,627.6006)">
          <path
             d="m 0,0 c 94.173,-46.045 196.84,-46.712 302.213,-0.954 0,-106.75 -19.957,-206.202 -151.107,-314.607 C 23.642,-207.155 0,-114.511 0,0"
             style="fill:#ffffff;fill-opacity:1;fill-rule:evenodd;stroke:none"
             id="path37" />
        </g>
        <g
           id="g39"
           transform="translate(240.1289,396.9072)">
          <path
             d="M 0,0 193.05,137.964 C 172.871,32.791 93.63,-36.13 62.582,-65.77 31.534,-36.372 20.657,-28.231 0,0"
             style="fill:#ed1c24;fill-opacity:1;fill-rule:evenodd;stroke:none"
             id="path41" />
        </g>
        <g
           id="g43"
           transform="translate(165.4604,604.1641)">
          <path
             d="M 0,0 C 53.564,-28.373 138.94,-30.773 191.379,-23.247 L 30.998,-137.774 C 11.257,-97.957 1.756,-51.951 0,0"
             style="fill:#ed1c24;fill-opacity:1;fill-rule:evenodd;stroke:none"
             id="path45" />
        </g>
        <g
           id="g47"
           transform="translate(226.5269,461.2593)">
          <path
             d="m 0,0 9.46,-13.105 4.561,3.233 c 4.042,2.867 4.451,6.546 1.204,11.043 C 14.113,2.713 12.899,3.777 11.581,4.344 10.264,4.911 9.079,5.095 8.037,4.885 6.982,4.668 5.681,4.027 4.137,2.933 Z M -15.814,0.212 -1,10.715 c 2.876,2.039 5.172,3.474 6.898,4.291 1.718,0.829 3.776,1.211 6.169,1.179 2.403,-0.046 4.766,-0.754 7.092,-2.124 2.326,-1.371 4.384,-3.284 6.18,-5.772 4.215,-5.84 4.968,-11.522 2.26,-17.027 l 23.42,-14.279 -11.29,-8.005 -19.632,14.016 -5.174,-3.668 13.339,-18.478 -10.36,-7.346 z"
             style="fill:#2e3192;fill-opacity:1;fill-rule:nonzero;stroke:none"
             id="path49" />
        </g>
        <g
           id="g51"
           transform="translate(253.7974,492.019)">
          <path
             d="m 0,0 10.359,7.345 33.717,-46.709 -10.36,-7.345 z"
             style="fill:#2e3192;fill-opacity:1;fill-rule:nonzero;stroke:none"
             id="path53" />
        </g>
        <g
           id="g55"
           transform="translate(272.1924,505.0615)">
          <path
             d="m 0,0 10.877,7.712 32.938,-30.45 -18.194,40.904 8.874,6.292 22.32,-55.16 -11.773,-7.977 z"
             style="fill:#2e3192;fill-opacity:1;fill-rule:nonzero;stroke:none"
             id="path57" />
        </g>
        <g
           id="g59"
           transform="translate(352.4033,518.0171)">
          <path
             d="m 0,0 -18.498,15.703 9.176,-22.312 z m -29.949,22.681 10.431,7.396 47.174,-37.167 -10.595,-7.512 -9.309,7.985 -13.259,-9.401 4.643,-11.293 -9.523,-6.753 z"
             style="fill:#2e3192;fill-opacity:1;fill-rule:nonzero;stroke:none"
             id="path61" />
        </g>
        <g
           id="g63"
           transform="translate(354.8262,563.6509)">
          <path
             d="m 0,0 10.359,7.345 27.393,-37.949 15.191,10.771 6.324,-8.76 -25.55,-18.116 z"
             style="fill:#2e3192;fill-opacity:1;fill-rule:nonzero;stroke:none"
             id="path65" />
        </g>
      </g>
    </g>
  </g>
</svg>
