<?xml version="1.0" encoding="UTF-8"?>
<svg width="256px" height="256px" viewBox="0 0 256 256" version="1.1" xmlns="http://www.w3.org/2000/svg" xmlns:xlink="http://www.w3.org/1999/xlink">
    <!-- Generator: Sketch 50.2 (55047) - http://www.bohemiancoding.com/sketch -->
    <title>logo/rossvoll</title>
    <desc>Created with Sketch.</desc>
    <defs></defs>
    <g id="logo/rossvoll" stroke="none" stroke-width="1" fill="none" fill-rule="evenodd">
        <g id="rossvoll" transform="translate(0.000000, 44.000000)">
            <rect id="Rectangle-2" fill="#C51A2A" x="0" y="0" width="256" height="172" rx="14"></rect>
            <g id="#d9e3ebff" transform="translate(2.400000, 37.391304)" fill="#FFFFFF" fill-rule="nonzero">
                <path d="M128.856,0.443354037 C130.088,-0.117515528 131.456,0.173602484 132.746667,0.296459627 C136.189333,0.769192547 139.688,0.785217391 143.117333,1.3621118 C143.130667,1.52236025 143.152,1.84018634 143.165333,2.00043478 C141.986667,2.11795031 140.44,1.74136646 139.597333,2.78565217 C139.290667,4.20118012 139.901333,5.58198758 140.32,6.90937888 C141.928,12.1014286 143.338667,17.3575776 145.114667,22.498882 C146.92,19.6785093 148.309333,16.617764 149.981333,13.7199379 C151.208,11.4871429 152.530667,9.30509317 153.709333,7.04559006 C154.186667,6.08142857 154.672,4.83950311 154.026667,3.84062112 C153.261333,2.75360248 151.645333,3.09546584 150.797333,2.12329193 C153.514667,1.62919255 156.226667,2.53192547 158.949333,2.49720497 C159.477333,2.59602484 160.464,2.38503106 160.546667,3.12484472 C159.538667,3.74981366 158.330667,4.07565217 157.504,4.96770186 C156.090667,6.46068323 155.042667,8.24745342 153.981333,9.9968323 C152.565333,12.4219255 151.189333,14.8683851 149.861333,17.3442236 C149.410667,18.3804969 148.917333,19.3954037 148.293333,20.3435404 C146.6,23.5031056 144.821333,26.6145963 142.989333,29.6940373 C142.426667,30.5887578 142.08,31.8467081 140.882667,32.0390062 C139.765333,28.0408075 138.304,24.149441 137.189333,20.1485714 C135.592,15.2075776 134.101333,10.2291925 132.608,5.25347826 C132.216,4.10236025 131.914667,2.87111801 131.173333,1.88559006 C130.490667,1.27130435 129.608,0.953478261 128.856,0.443354037 Z" id="Shape"></path>
                <path d="M119.074667,0.953478261 C119.405333,1.47161491 119.664,2.04049689 119.714667,2.66012422 C119.968,4.72198758 120.248,6.77850932 120.453333,8.84571429 C120.570667,9.83124224 120.416,10.8167702 120.162667,11.7702484 C119.330667,10.1490683 118.850667,8.3142236 117.6,6.93608696 C115.994667,5.1252795 113.642667,3.89670807 111.2,3.87267081 C109.717333,3.82726708 108.141333,4.12906832 106.997333,5.13329193 C106.058667,5.87310559 105.493333,7.06962733 105.629333,8.27416149 C105.653333,9.73776398 107.024,10.6298137 108.125333,11.3402484 C110.616,12.6489441 113.384,13.3059627 115.941333,14.4704348 C118.32,15.4372671 120.754667,16.6978882 122.170667,18.9360248 C123.501333,20.8082609 123.674667,23.2386957 123.269333,25.4367702 C122.752,27.8912422 121.037333,29.9931677 118.856,31.181677 C115.968,32.8562733 112.445333,33.1073292 109.224,32.4369565 C107.898667,32.2419876 106.568,31.6330435 105.218667,31.9188199 C104.242667,32.3675155 103.810667,33.4972671 102.848,33.9886957 C102.4,31.2911801 102.28,28.5536025 101.930667,25.8454037 C101.762667,24.7236646 101.706667,23.5859006 101.845333,22.4588199 C102.013333,22.4775155 102.349333,22.512236 102.517333,22.5282609 C103.290667,25.5115528 105.08,28.3052174 107.776,29.878323 C109.909333,31.2938509 112.666667,31.5181988 115.101333,30.8798758 C116.949333,30.252236 118.818667,28.5803106 118.608,26.4543478 C118.610667,24.7957764 117.352,23.4897516 116.042667,22.651118 C113.4,21.083354 110.341333,20.4503727 107.605333,19.0882609 C105.778667,18.1748447 103.856,17.2213665 102.642667,15.5067081 C101.477333,14.0831677 100.92,12.2429814 100.954667,10.4134783 C100.869333,7.95099379 102.245333,5.63540373 104.112,4.12372671 C106.410667,2.32093168 109.466667,2.03515528 112.285333,2.20608696 C114.237333,2.21944099 116.018667,3.33850932 117.994667,3.1168323 C118.344,2.39037267 118.693333,1.66391304 119.074667,0.953478261 Z" id="Shape"></path>
                <path d="M86.4453333,8.02310559 C87.2986667,7.43819876 87.16,6.15354037 87.8773333,5.41906832 C88.504,6.92006211 88.8853333,8.50919255 89.48,10.0235404 C90.104,11.6954658 90.952,13.3113043 91.168,15.106087 C90.936,15.202236 90.7066667,15.2983851 90.4773333,15.397205 C89.4506667,13.6424845 88.1626667,11.9732298 86.3226667,11.0224224 C84.1786667,9.63360248 81.4133333,9.4252795 79.0213333,10.2398758 C77.5573333,10.7473292 76.12,11.818323 75.7733333,13.4101242 C75.352,14.9485093 76.3306667,16.5696894 77.7173333,17.2293789 C79.92,18.3057143 82.4053333,18.5327329 84.7973333,18.906646 C86.8026667,19.1229814 88.7546667,19.6384472 90.7226667,20.0737888 C90.7466667,19.7078882 90.768,19.3446584 90.7893333,18.9814286 C91.0213333,19.5476398 91.1733333,20.223354 91.744,20.5545342 C92.3813333,20.9604969 93.2026667,21.5 93.9253333,20.9658385 C93.9066667,22.346646 95.3146667,23.0437267 95.8293333,24.2028571 C96.264,25.1990683 96.736,26.1899379 97.096,27.215528 C97.032,29.3949068 96.5813333,31.6544099 95.24,33.4304969 C93.5493333,35.8956522 90.6453333,37.105528 87.8426667,37.7865839 C85.696,38.4836646 83.424,37.7438509 81.2453333,38.131118 C80.272,38.3314286 79.9333333,39.3677019 79.496,40.1262112 C79.3173333,40.3986335 79.2,40.8419876 78.792,40.7885714 C77.808,38.5157143 77.296,36.0719255 76.4373333,33.7509938 C76.0373333,32.4262733 75.272,31.0748447 75.672,29.6539752 C77.008,30.8558385 77.7306667,32.5785093 79.096,33.7509938 C81.104,35.4736646 83.7306667,36.6087578 86.4106667,36.4004348 C88.2133333,36.2508696 90.08,35.676646 91.3973333,34.386646 C92.5546667,33.2328571 93.208,31.3365839 92.3466667,29.8249068 C91.5146667,28.0675155 89.56,27.3463975 87.792,26.9350932 C84.272,26.2326708 80.5946667,26.0670807 77.2453333,24.6675776 C75.3946667,23.8182609 73.6293333,22.5255901 72.6986667,20.6640373 C71.4613333,18.3057143 71.328,15.3170807 72.6693333,12.9721118 C74.208,9.84993789 77.7466667,8.33826087 81.048,8.01776398 C82.8426667,7.7773913 84.68,8.52254658 86.4453333,8.02310559 Z" id="Shape"></path>
                <path d="M175.570667,6.56751553 C178.730667,6.06540373 181.874667,6.96546584 184.829333,8.00708075 C188.917333,9.64962733 191.936,13.4288199 193.058667,17.6460248 C193.834667,20.653354 193.514667,23.8449689 192.584,26.7775155 C191.829333,28.9408696 190.805333,31.0614907 189.202667,32.7227329 C187.877333,34.0848447 186.48,35.4229193 184.786667,36.3149689 C182.813333,37.4473913 180.544,37.9174534 178.322667,38.27 C175.736,38.1658385 173.072,37.9414907 170.682667,36.8624845 C166.933333,35.3721739 163.96,32.1485093 162.656,28.3399379 C161.304,24.6221739 161.629333,20.4637267 162.904,16.77 C163.813333,14.3582609 165.186667,12.0613665 167.154667,10.3680745 C169.530667,8.33826087 172.466667,6.97881988 175.570667,6.56751553 Z M178.765333,8.64273292 C176.088,9.35049689 174.109333,11.5459006 172.813333,13.8935404 C170.650667,17.8783851 169.317333,22.2745342 168.592,26.7401242 C168.341333,28.3078882 168.509333,29.9130435 168.864,31.4540994 C169.173333,32.9310559 169.970667,34.3706211 171.304,35.1451553 C172.584,35.8849689 174.090667,36.3790683 175.581333,36.1921118 C177.464,35.9624224 178.992,34.704472 180.282667,33.4037888 C181.922667,31.7932919 182.88,29.6619876 183.816,27.5974534 C184.738667,25.3726708 185.445333,23.0597516 186.048,20.7308075 C186.704,18.1668323 187.122667,15.4292547 186.389333,12.8359006 C185.573333,9.64695652 181.88,7.67322981 178.765333,8.64273292 Z" id="Shape"></path>
                <path d="M205.821333,17.0824845 C207.493333,17.3842857 208.592,18.7918012 209.986667,19.6304348 C212.298667,21.0326087 214.44,22.7018634 216.778667,24.066646 C217.674667,24.6568944 218.829333,25.0681988 219.237333,26.1552174 C218.024,25.856087 216.994667,24.9987578 215.733333,24.9052795 C214.688,24.857205 213.997333,25.786646 213.421333,26.521118 C211.693333,28.9195031 210.210667,31.4781366 208.514667,33.8952174 C206.253333,37.3993168 203.869333,40.8206211 201.538667,44.2793168 C201.018667,45.1740373 200.266667,46.135528 200.464,47.2332298 C200.906667,48.4350932 202.109333,49.0814286 203.08,49.8052174 C204.962667,51.0471429 206.946667,52.6042236 209.333333,52.4359627 C211.869333,52.4092547 213.821333,50.5797516 215.669333,49.0707453 C216.138667,48.6327329 216.749333,48.4297516 217.368,48.3042236 C217.010667,49.8159006 215.824,50.8842236 214.949333,52.099441 C213.626667,53.7072671 212.538667,55.5367702 210.914667,56.8695031 C206.592,54.3803106 202.453333,51.5626087 198.504,48.5178882 C195.904,46.744472 193.461333,44.72 190.672,43.2403727 C190.346667,43.0293789 189.970667,43.1816149 189.626667,43.221677 C189.536,42.7035404 189.450667,42.1827329 189.373333,41.6645963 C190.418667,42.0465217 191.378667,42.7142236 192.493333,42.8771429 C194.026667,42.6661491 194.872,41.1678261 195.682667,40.0113665 C198.12,36.3950932 200.682667,32.8642857 203,29.170559 C204.541333,26.7935404 206.178667,24.4752795 207.570667,22.0074534 C208.093333,21.1421118 208.221333,19.9642857 207.576,19.1256522 C207.005333,18.4312422 206.309333,17.8463354 205.821333,17.0824845 Z" id="Shape"></path>
                <path d="M52.376,19.9482609 C53.8026667,19.8147205 55.248,19.7960248 56.672,19.9616149 C59.208,20.3862733 61.616,21.4919876 63.664,23.0357143 C67.0613333,25.952236 69.344,30.2121739 69.6506667,34.7071429 C69.7466667,37.3298758 69.4133333,40.0327329 68.192,42.3883851 C66.4826667,45.7242236 63.3786667,48.1840373 59.9733333,49.6262733 C59.208,49.9280745 58.5813333,50.4836025 57.864,50.8575155 C55.7866667,50.865528 53.816,51.8350311 51.72,51.5652795 C47.0266667,51.3729814 42.544,48.881118 39.816,45.067205 C38.0346667,42.3963975 36.712,39.3089441 36.688,36.0532298 C36.672,32.4770186 37.8186667,28.8206832 40.216,26.1204969 C41.504,24.4939752 43.3013333,23.3909317 45.1573333,22.5255901 C47.4346667,21.3584472 49.8266667,20.3248447 52.376,19.9482609 Z M48.376,22.8567702 C46.4,23.2734161 44.52,24.4325466 43.5173333,26.2246584 C42.44,28.088882 42.6026667,30.3590683 42.904,32.4075776 C43.6293333,35.4950311 45.1013333,38.3581366 46.7573333,41.0422981 C48.0373333,42.9973292 49.3893333,44.9870807 51.3013333,46.3812422 C52.5173333,47.2652795 53.8026667,48.1573292 55.3066667,48.451118 C56.944,48.7315528 58.72,48.5953416 60.16,47.7006211 C61.904,46.7070807 63.592,45.1313043 63.768,43.0106832 C64.3413333,38.5077019 62.1066667,34.3278882 59.8293333,30.6234783 C58.1306667,27.7229814 55.9626667,24.9186335 52.8986667,23.3855901 C51.5146667,22.6591304 49.888,22.581677 48.376,22.8567702 Z" id="Shape"></path>
                <path d="M237.352,39.9739752 C238.362667,40.6096273 238.861333,41.7286957 239.536,42.6661491 C240.965333,44.6906211 242.626667,46.5388199 244.029333,48.5819876 C244.821333,49.7437888 245.786667,50.7773913 246.525333,51.973913 C246.728,52.2677019 246.704,52.6389441 246.749333,52.9781366 C245.56,51.904472 244.501333,50.6759006 243.037333,49.9521118 C241.869333,51.2474534 240.338667,52.1181366 239.002667,53.2185093 C234.173333,57.0244099 229.296,60.768882 224.450667,64.556087 C223.666667,65.1997516 222.68,65.9262112 222.688,67.0532919 C222.741333,68.2925466 223.632,69.2620497 224.221333,70.2929814 C225.450667,72.2907453 226.957333,74.403354 229.338667,75.0657143 C230.893333,75.7067081 232.544,75.1591925 234.088,74.7879503 C235.381333,74.4701242 236.576,73.7810559 237.928,73.7142857 C237.394667,74.7906211 236.288,75.332795 235.354667,75.9978261 C233.576,77.2424224 231.805333,78.5137267 229.912,79.5767081 C229.392,79.9319255 228.864,79.4378261 228.554667,79.0452174 C226.232,76.0031677 223.92,72.9424224 221.904,69.6840373 C219.650667,66.3642236 217.237333,63.1565839 214.736,60.0210559 C214.285333,59.478882 214.016,58.8218634 213.861333,58.1434783 C214.941333,58.5708075 215.437333,59.8100621 216.554667,60.1599379 C217.461333,60.4430435 218.306667,59.8768323 219.037333,59.4067702 C222.541333,57.0965217 225.717333,54.3349068 229.064,51.808323 C231.746667,49.6903727 234.496,47.6552174 237.106667,45.4464596 C237.674667,44.9577019 238.253333,44.346087 238.266667,43.5475155 C238.277333,42.292236 237.570667,41.1891925 237.352,39.9739752 Z" id="Shape"></path>
                <path d="M18.4586667,42.7943478 C21.128,42.1239752 24.264,42.7462733 26.1653333,44.8348447 C27.408,46.1328571 28.2346667,47.8635404 28.3226667,49.671677 C28.32,51.4691304 27.5066667,53.1170186 26.8986667,54.7675776 C31.1626667,55.6462733 35.472,56.260559 39.7573333,57.0244099 C41.4826667,57.4063354 43.2053333,57.0324224 44.888,56.6371429 C44.272,58.0179503 42.9386667,58.8298758 41.9173333,59.8768323 C40.7893333,60.8810559 39.872,62.0989441 38.7226667,63.0818012 C38.0453333,63.7308075 37.0533333,63.3916149 36.2426667,63.2821118 C33.032,62.6090683 29.7653333,62.2458385 26.5573333,61.559441 C24.992,61.3244099 23.4346667,61.0359627 21.864,60.851677 C21.0533333,60.7902484 20.5173333,61.5247205 19.952,61.9840994 C22.096,64.4652795 24.504,66.7007453 26.8426667,68.9976398 C27.5546667,69.6867081 28.4746667,70.381118 29.5306667,70.1647826 C30.64,69.9083851 31.44,69.0136646 32.4,68.4581366 C32.4,68.7732919 32.464,69.1365217 32.2213333,69.3955901 C31.552,70.3143478 30.6773333,71.0514907 29.8666667,71.8420497 C27.048,74.4514286 24.5706667,77.4347205 21.5733333,79.8518012 C21.536,79.7182609 21.464,79.4511801 21.4266667,79.3176398 C22.1013333,78.2680124 23.3226667,77.2424224 23.0186667,75.8669565 C22.5786667,74.5449068 21.424,73.6608696 20.5066667,72.6726708 C17,69.2353416 13.4213333,65.8701242 10.0586667,62.2885714 C9.032,61.185528 7.808,60.282795 6.776,59.1824224 C5.896,58.3598137 4.992,57.3262112 3.72,57.2060248 C2.288,57.0404348 1.58133333,58.6616149 0.234666667,58.8432298 C0.698666667,57.7401863 1.62666667,56.9603106 2.45333333,56.1377019 C5.488,53.2104969 8.30666667,50.0429193 11.624,47.425528 C13.6933333,45.6227329 15.7493333,43.568882 18.4586667,42.7943478 Z M14.5013333,47.8902484 C12.856,48.368323 11.6346667,49.6422981 10.296,50.6385093 C9.992,50.9643478 9.4,51.2073913 9.456,51.7281988 C10.232,52.8739752 11.3706667,53.6992547 12.328,54.6847826 C14.1066667,56.468882 15.9306667,58.2049068 17.72,59.9756522 C18.0746667,60.2854658 18.4053333,60.6700621 18.872,60.8036025 C19.8,60.1545963 20.5493333,59.2919255 21.296,58.4532919 C22.3066667,57.2701242 23.36,55.8732919 23.2346667,54.2280745 C23.1093333,52.2329814 21.696,50.6625466 20.2906667,49.3832298 C18.7786667,47.9623602 16.5146667,47.2919876 14.5013333,47.8902484 Z" id="Shape"></path>
                <path d="M171.981333,57.4918012 C172.109333,57.1552795 172.24,56.8240994 172.373333,56.4929193 C172.330667,56.8641615 172.290667,57.2354037 172.253333,57.6093168 C172.802667,57.467764 173.352,57.315528 173.896,57.1526087 C173.968,57.494472 174.04,57.8363354 174.117333,58.1835404 C171.72,58.7791304 169.770667,60.325528 167.912,61.8745963 C165.741333,63.6132919 163.578667,65.36 161.424,67.1173913 C160.261333,68.0495031 159.013333,68.8801242 157.962667,69.9431056 C159.525333,72.322795 161.504,74.3819876 163.168,76.6868944 C165.586667,79.7850311 167.816,83.0327329 170.378667,86.0160248 C171.048,86.7691925 171.728,87.5357143 172.576,88.093913 C173.514667,88.7135404 174.728,88.7936646 175.578667,89.565528 C172.453333,90.0462733 169.28,89.7925466 166.133333,89.8379503 C163.677333,89.7845342 161.213333,89.9340994 158.765333,89.6857143 C159.186667,88.6948447 160.456,88.8631056 161.189333,88.2408075 C161.610667,87.6265217 161.370667,86.8653416 161.048,86.2697516 C160.352,84.9717391 159.477333,83.7778882 158.581333,82.6134161 C156.656,80.1669565 154.786667,77.6750932 152.872,75.2206211 C152.354667,74.4247205 151.133333,75.1351553 151.112,75.9257143 C150.984,77.4988199 151.085333,79.0799379 151.018667,80.6557143 C150.989333,82.9552795 150.666667,85.3109317 151.229333,87.5704348 C151.874667,88.9352174 153.581333,88.940559 154.866667,89.1195031 C154.869333,89.370559 154.872,89.6242857 154.874667,89.8780124 C152.314667,89.926087 149.754667,89.9661491 147.194667,89.8726708 C145.434667,89.8059006 143.661333,89.9421118 141.912,89.7017391 C140.792,89.5067702 139.672,90.0329193 138.56,89.6830435 C139.186667,88.8631056 140.349333,89.1248447 141.226667,88.8096894 C142.426667,88.5853416 143.08,87.3781366 143.178667,86.2510559 C143.413333,84.1037267 143.213333,81.9403727 143.333333,79.7877019 C143.376,73.6635404 143.554667,67.5420497 143.552,61.4178882 C143.629333,60.2961491 143.021333,59.0061491 141.813333,58.8325466 C140.92,58.5387578 139.714667,58.9019876 139.085333,58.0553416 C141.325333,57.6840994 143.605333,57.8496894 145.864,57.8496894 C148.890667,57.9004348 151.92,57.8122981 154.944,57.9164596 C154.901333,58.0793789 154.810667,58.3998758 154.768,58.562795 C153.986667,58.7363975 153.162667,58.8245342 152.450667,59.2118012 C151.618667,59.7219255 151.277333,60.7341615 151.269333,61.6689441 C151.181333,65.4267702 151.082667,69.1872671 151.133333,72.947764 C153.624,71.0595031 156,69.021677 158.488,67.1280745 C160.152,65.8674534 161.733333,64.5026708 163.344,63.1752795 C164.106667,62.5049068 164.917333,61.794472 165.288,60.8196273 C165.597333,60.0771429 165.173333,59.1396894 164.432,58.853913 C163.730667,58.5895031 162.981333,58.4986957 162.250667,58.3598137 C162.117333,58.1488199 161.989333,57.9378261 161.861333,57.7268323 C165.226667,57.3689441 168.618667,57.911118 171.981333,57.4918012 Z" id="Shape"></path>
                <path d="M122.933333,57.8523602 C125.085333,57.689441 127.256,58.3731677 129.370667,57.7989441 C130.6,58.8645963 132.285333,59.1209938 133.528,60.1652795 C134.88,61.2389441 135.68,62.8734783 136.050667,64.5347205 C136.578667,66.8529814 135.573333,69.4409938 133.6,70.7737267 C132.154667,71.8046584 130.402667,72.2052795 128.757333,72.7928571 C130.298667,73.3243478 131.92,73.668882 133.357333,74.4701242 C135.4,75.5518012 137.042667,77.5629193 137.298667,79.910559 C137.810667,82.6561491 136.482667,85.583354 134.194667,87.137764 C131.848,88.8951553 128.901333,89.5361491 126.045333,89.8673292 C122.088,90.3427329 118.090667,89.5895652 114.141333,90.1344099 C112.176,89.6883851 110.152,90.1931677 108.181333,89.7685093 C107.829333,89.7631677 107.677333,89.5842236 107.72,89.2290062 C108.88,88.6814907 110.4,88.9939752 111.341333,88.0004348 C112.208,87.1324224 112.168,85.8130435 112.2,84.6752795 C112.144,81.5531056 112.429333,78.4389441 112.373333,75.3167702 C112.4,70.9553416 112.706667,66.5965839 112.682667,62.2324845 C112.629333,61.212236 112.504,60.0531056 111.730667,59.3052795 C110.802667,58.827205 109.717333,58.923354 108.706667,58.840559 C108.544,58.6242236 108.384,58.410559 108.224,58.1995652 C113.096,57.5612422 118.034667,58.0419876 122.933333,57.8523602 Z M120.088,59.8100621 C119.757333,62.918882 119.909333,66.0517391 119.818667,69.1712422 C119.784,70.1487578 119.816,71.1262733 119.962667,72.0931056 C121.864,72.1465217 123.84,71.9301863 125.506667,70.9419876 C129.373333,68.8721118 129.304,62.3152795 125.405333,60.3175155 C123.722667,59.6604969 121.861333,59.7165839 120.088,59.8100621 Z M120.410667,74.1656522 C119.704,74.2083851 119.786667,75.0577019 119.717333,75.5651553 C119.597333,78.6846584 119.685333,81.8121739 119.586667,84.9343478 C119.522667,85.9732919 119.789333,86.9881988 120.189333,87.9390062 C121.712,88.0698758 123.341333,88.288882 124.770667,87.5918012 C125.965333,87.0042236 127.181333,86.2403727 127.816,85.0251553 C128.749333,83.2410559 129.224,81.1391304 128.706667,79.1547205 C128.330667,77.1062112 126.962667,75.1752174 124.976,74.4434161 C123.48,74.1469565 121.930667,74.1095652 120.410667,74.1656522 Z" id="Shape"></path>
                <path d="M74.152,57.9859006 C75.1173333,57.8844099 76.0906667,57.8149689 77.064,57.8336646 C81.136,57.9031056 85.216,57.745528 89.2773333,58.0847205 C89.2666667,58.2449689 89.2426667,58.5654658 89.232,58.7230435 C88.2373333,58.8752795 87.2186667,58.8886335 86.24,59.1370186 C85.5146667,59.3106211 85.1413333,60.1706211 85.3386667,60.8543478 C85.6293333,62.2191304 86.2906667,63.4610559 86.7893333,64.7537267 C87.7386667,67.3257143 88.88,69.8175776 89.896,72.3601863 C91.072,74.9401863 91.808,77.6991304 93.1066667,80.2230435 C94.16,78.4255901 94.9946667,76.5132919 95.8506667,74.6170186 C97.4506667,71.3132298 99.08,68.022795 100.573333,64.6709317 C101.002667,63.6293168 101.509333,62.5796894 101.557333,61.4365839 C101.613333,60.3308696 100.664,59.3800621 99.6186667,59.1904348 C98.8693333,58.9393789 97.8826667,59.0408696 97.4373333,58.2609938 C100.845333,57.9698758 104.274667,58.2236025 107.693333,58.1968944 C107.757333,58.3170807 107.888,58.5547826 107.954667,58.6722981 C106.661333,59.2491925 105.301333,59.895528 104.522667,61.1401242 C103.149333,63.3088199 102,65.6110559 100.925333,67.9426708 C97.5333333,74.6998137 94.5573333,81.6519255 91.2293333,88.441118 C90.824,89.287764 90.352,90.1023602 89.8133333,90.8742236 C88.6533333,89.7925466 88.3173333,88.1900621 87.7626667,86.7691925 C87.12,84.8195031 86.1226667,83.0140373 85.4506667,81.0777019 C83.5066667,75.888323 81.3413333,70.7870807 79.2426667,65.6618012 C78.5306667,63.7067702 77.712,61.7784472 76.6106667,60.0103727 C76.1013333,59.1770807 75.08,58.966087 74.2426667,58.6162112 C74.2186667,58.4586335 74.1733333,58.1434783 74.152,57.9859006 Z" id="Shape"></path>
            </g>
        </g>
    </g>
</svg>