<?xml version="1.0" encoding="UTF-8"?>
<svg width="256px" height="256px" viewBox="0 0 256 256" version="1.1" xmlns="http://www.w3.org/2000/svg" xmlns:xlink="http://www.w3.org/1999/xlink">
    <!-- Generator: Sketch 50.2 (55047) - http://www.bohemiancoding.com/sketch -->
    <title>logo/sandnes</title>
    <desc>Created with Sketch.</desc>
    <defs></defs>
    <g id="logo/sandnes" stroke="none" stroke-width="1" fill="none" fill-rule="evenodd">
        <g id="sandnes" fill-rule="nonzero">
            <g id="#ffffffff" transform="translate(4.966490, 4.966490)" fill="#FFFFFF">
                <path d="M114.874921,0.311534392 C119.678871,0.121904762 124.496367,0.0632098765 129.304832,0.26638448 C133.18321,0.645643739 137.084162,0.853333333 140.958025,1.30483245 C152.128113,3.23724868 163.221446,6.16747795 173.479506,11.0752734 C176.48649,12.6284303 179.701164,13.7752381 182.554638,15.6263845 C192.130935,20.6605996 200.700388,27.4150265 208.579048,34.7789771 C211.667302,38.3367901 215.410229,41.3302293 218.001834,45.2989065 C220.688254,48.7980247 223.519153,52.206843 225.781164,56.0039506 C228.571429,59.7965432 230.865044,63.9277601 232.955485,68.1402469 C243.105185,88.2545326 247.322187,111.244868 245.425891,133.661799 C245.294956,137.517601 244.355838,141.283104 243.890794,145.102787 C242.369242,153.013051 240.161411,160.787866 237.325996,168.327901 C234.991746,173.425326 233.14963,178.802681 229.966561,183.462152 C227.433651,187.159929 225.550899,191.273086 222.805785,194.830899 C220.891429,197.661799 218.651993,200.239859 216.371922,202.777284 C214.263422,205.897143 211.423492,208.393933 208.813827,211.071323 C205.319224,214.665256 201.318942,217.703845 197.472169,220.904974 C194.167196,223.528183 190.568748,225.763104 186.99739,228.00254 C183.204797,229.682116 179.990123,232.427231 176.098201,233.903633 C173.97164,234.738907 172.030194,235.971499 169.876543,236.734533 C163.91224,239.032663 157.835062,241.059894 151.654039,242.698836 C146.032875,243.678589 140.470406,245.204656 134.740882,245.416861 C128.677249,246.152804 122.554921,245.890935 116.464198,245.836755 C107.30328,245.462011 98.2371781,243.768889 89.3742504,241.470758 C84.5251499,239.967266 79.7166843,238.32381 75.0075485,236.427513 C73.4092416,235.723175 71.9508995,234.743422 70.3255026,234.097778 C66.1897707,232.431746 62.3339683,230.160705 58.5910406,227.75873 C54.9429277,225.749559 51.6831041,223.139894 48.2336508,220.828219 C46.2470547,219.198307 44.2740035,217.55485 42.2422575,215.983633 C38.8514991,212.764444 35.5374956,209.454956 32.2912169,206.086772 C29.0900882,202.24 25.7264198,198.515132 22.6833157,194.537425 C20.9269841,191.738131 18.8681481,189.119436 17.4368959,186.130511 C16.4481129,184.071675 14.9671958,182.301799 13.9784127,180.242963 C8.22631393,168.783915 3.86031746,156.548289 1.78793651,143.870194 C0.862363316,140.041481 0.767548501,136.086349 0.225749559,132.198942 C0.108359788,125.169101 -0.275414462,118.080564 0.645643739,111.095873 C1.10165785,102.860529 3.13791887,94.8238448 5.28253968,86.8955203 C7.69354497,79.8385891 10.2851499,72.7906878 13.8655379,66.2304056 C15.2922751,63.3182363 17.0847266,60.6137566 18.6017637,57.7512522 C23.1302998,50.3511817 28.9275485,43.8450794 34.7067372,37.4157319 C36.9822928,35.1853263 39.2307584,32.9278307 41.5243739,30.72 C45.059612,27.5865961 48.9289594,24.8595414 52.730582,22.0692769 C56.3922399,19.2925573 60.4918519,17.1930864 64.4108642,14.8091711 C77.0934744,8.08634921 90.9228924,3.5307231 105.10448,1.31837743 C108.350758,0.893968254 111.628642,0.744973545 114.874921,0.311534392 Z M73.747866,17.7710053 C59.7062434,24.3177425 47.0732981,33.781164 36.6888183,45.2673016 C20.1323457,63.6162257 9.41375661,87.3199295 7.169806,111.971781 C6.33904762,117.344621 6.63703704,122.803245 6.61446208,128.21672 C7.40007055,152.055873 15.883739,175.538342 30.3994356,194.45164 C32.4266667,197.621164 35.2124162,200.158589 37.6414815,203.003034 C54.7171781,221.532557 78.0145326,234.160988 102.828924,238.477319 C121.638377,241.714568 141.274074,240.436825 159.397249,234.382222 C176.233651,228.910053 191.679436,219.392451 204.353016,207.062011 C215.351534,196.325362 224.196402,183.394427 230.20134,169.248959 C237.840705,151.279295 240.87478,131.336578 238.793369,111.917601 C236.946737,91.6994709 229.316402,72.1269841 217.53679,55.6292063 C204.8903,37.9891358 187.304409,23.8752734 167.181093,15.6805644 C137.562751,3.3817284 102.779259,4.12218695 73.747866,17.7710053 Z" id="Shape"></path>
                <path d="M117.005996,12.5923104 C119.692416,12.4704056 122.392381,12.4252557 125.078801,12.6374603 C127.89164,12.8541799 130.699965,14.6466314 131.526208,17.4368959 C132.636896,20.6199647 131.553298,24.7782716 128.361199,26.3043386 C124.816931,28.0380952 120.735379,27.2479718 116.938272,27.4059965 C116.671887,25.1981658 116.974392,22.9813051 116.965362,20.7689594 C116.996966,18.0419048 116.893122,15.3193651 117.005996,12.5923104 Z M120.717319,15.4457848 C120.766984,18.5159788 120.744409,21.5861728 120.753439,24.6563668 C122.600071,24.6383069 124.618272,24.7692416 126.243668,23.7353086 C128.541799,21.9428571 128.591464,17.7574603 126.103704,16.1140035 C124.505397,15.0891005 122.514286,15.2832451 120.717319,15.4457848 Z" id="Shape"></path>
                <path d="M106.612487,13.6804233 C107.77284,13.4050088 108.951252,13.2063492 110.138695,13.0708995 C111.321623,17.8071252 111.818272,22.7058907 112.77545,27.5008113 C111.533827,27.8800705 109.85425,28.7108289 108.761623,27.627231 C105.912663,25.2839506 103.131429,22.8413404 100.115414,20.7192945 C100.314074,23.7172487 101.126772,26.629418 101.442822,29.6138272 C100.205714,29.8621517 98.9595767,30.0562963 97.6953792,30.1330511 C96.9007407,25.2658907 95.8352028,20.4258201 95.3159788,15.5225397 C96.6795062,15.373545 98.3319929,14.5563316 99.5058907,15.6444444 C102.305185,17.7980952 104.937425,20.1774956 107.854109,22.1731217 C107.6103,19.3196473 106.765996,16.5474427 106.612487,13.6804233 Z" id="Shape"></path>
                <path d="M138.316755,13.1792593 C139.413898,13.287619 140.524586,13.4004938 141.563034,13.7932981 C143.897284,16.890582 145.391746,20.5522399 147.680847,23.6901587 C148.60642,21.0263139 148.827654,18.1908995 149.545538,15.4728748 C150.79619,15.6038095 152.028783,15.856649 153.234286,16.2268783 C152.385467,21.0579189 151.401199,25.8708995 150.276966,30.6432451 C149.062434,30.4310406 147.396402,30.5935802 146.714638,29.3519577 C144.872522,26.1598589 143.120705,22.9180952 141.201834,19.7756614 C139.892487,22.3988713 140.023422,25.5638801 139.039153,28.3405996 C137.851711,28.2141799 136.668783,28.0200353 135.494885,27.7942857 C135.531005,25.7444797 136.176649,23.7849735 136.528818,21.7803175 C137.151887,18.9178131 137.666596,16.0327337 138.316755,13.1792593 Z" id="Shape"></path>
                <path d="M159.930018,18.5430688 C163.365926,19.7621164 166.707019,21.2385185 170.052628,22.6923457 C169.777213,23.536649 169.465679,24.3719224 169.1406,25.2026808 C166.725079,24.6473369 164.643668,23.1799647 162.223633,22.6426808 C161.916614,23.5231041 161.636684,24.4125573 161.39739,25.3110406 C163.383986,26.3269136 165.609877,26.8325926 167.497143,28.0516402 C167.239788,28.8282187 166.910194,29.5731922 166.521905,30.2865608 C164.219259,29.9524515 162.273298,28.5257143 160.002257,28.0877601 C159.586878,29.0449383 159.221164,30.0201764 158.999929,31.0405644 C161.11746,32.1693122 163.442681,32.8285009 165.578272,33.9166138 C165.271252,34.7699471 164.882963,35.5916755 164.395344,36.359224 C161.031675,35.1266314 157.767337,33.6321693 154.435273,32.3273369 C154.552663,30.5664903 155.527901,29.0449383 156.137425,27.4285714 C157.433228,24.4802822 158.525855,21.4416931 159.930018,18.5430688 Z" id="Shape"></path>
                <path d="M79.7708642,20.6605996 C81.0937566,20.0646208 82.448254,19.5273369 83.8524162,19.1390476 C86.2002116,21.4416931 88.5118871,23.7804586 90.7964727,26.1463139 C92.2367549,27.663351 93.8576367,29.0223633 95.0495944,30.7516049 C93.8982716,31.4107937 92.6385891,31.8577778 91.3202116,32.0338624 C90.624903,31.3566138 89.9341093,30.6748501 89.2568607,29.9795414 C87.1799647,30.5980952 85.1301587,31.3159788 83.1300176,32.1557672 C83.0035979,33.2167901 82.8907231,34.286843 82.7823633,35.352381 C81.5994356,35.817425 80.402963,36.2644092 79.1568254,36.5307937 C79.1974603,31.239224 79.5360847,25.9476543 79.7708642,20.6605996 Z M83.1209877,23.4734392 C82.9945679,25.3877954 82.9855379,27.3111817 83.1345326,29.2255379 C84.46194,28.7875838 85.7712875,28.3089947 87.0670899,27.7988007 C85.8931922,26.2320988 84.493545,24.8595414 83.1209877,23.4734392 Z" id="Shape"></path>
                <path d="M62.7312875,29.3068078 C64.5869489,27.148642 67.4359083,26.0153792 70.2352028,25.8663845 C70.7544268,26.6700529 71.2420459,27.4917813 71.68,28.3405996 C69.7159788,28.7334039 67.5532981,28.9501235 65.9730511,30.3091358 C65.3274074,30.7651499 65.6344268,31.5733333 65.8782363,32.1557672 C68.5059612,32.250582 71.156261,31.207619 73.747866,31.9661376 C76.2491711,33.1851852 76.80903,36.8378131 74.9623986,38.8695591 C72.9487125,40.982575 69.9146384,42.2603175 66.9753792,41.8584832 C66.546455,41.0232099 66.1581658,40.1698765 65.8646914,39.2759083 C67.8603175,39.1494885 70.0862081,39.2713933 71.68903,37.8491711 C72.3843386,37.388642 72.176649,36.4675838 72.203739,35.7632451 C69.5037743,35.2620811 66.7089947,36.7429982 64.0767549,35.6955203 C61.6431746,34.7022222 61.0652557,31.225679 62.7312875,29.3068078 Z" id="Shape"></path>
                <path d="M172.332698,32.241552 C171.36649,29.9389065 173.082187,26.9815873 175.624127,26.8641975 C178.98328,26.6700529 181.87739,29.0449383 183.674356,31.6771781 C183.304127,32.5711464 182.753298,33.3657848 182.053474,34.0385185 C180.811852,32.6117813 179.683104,30.8825397 177.822928,30.209806 C177.159224,29.8350617 176.599365,30.3904056 176.089171,30.72903 C176.915414,32.9233157 178.861376,34.4629277 179.669559,36.6617284 C180.631252,39.0501587 178.730441,42.1429277 176.102716,42.1790476 C172.657778,42.3325573 169.601129,39.8944621 168.066032,36.9552028 C168.508501,35.9980247 169.07739,35.1040564 169.741093,34.282328 C170.856296,36.0205996 171.903774,38.0388007 173.95358,38.8153792 C174.594709,39.2262434 175.222293,38.5760847 175.804727,38.3638801 C175.461587,35.9528748 172.991887,34.5622575 172.332698,32.241552 Z" id="Shape"></path>
                <path d="M199.291711,186.68134 C200.903563,186.166631 201.774956,187.814603 202.470265,188.943351 C204.077601,189.132981 206.095802,189.54836 206.429912,191.449171 C206.574392,193.634427 204.632945,195.097284 203.413898,196.659471 C202.781799,197.30963 201.887831,198.682187 200.903563,197.770159 C198.632522,195.679718 196.415661,193.521552 194.144621,191.431111 C195.544268,189.579965 197.079365,187.570794 199.291711,186.68134 Z M197.621164,190.487478 C197.855944,190.934462 198.090723,191.390476 198.325503,191.84649 C199.60776,192.013545 200.366279,190.410723 199.783845,189.372275 C198.826667,189.123951 198.144903,189.783139 197.621164,190.487478 Z M200.605573,193.553157 C200.948713,194.045291 201.427302,194.41552 201.860741,194.835414 C203.147513,194.284586 204.389136,192.663704 203.075273,191.453686 C202.13164,191.87358 200.587513,192.307019 200.605573,193.553157 Z" id="Shape"></path>
                <path d="M48.5226102,187.435344 C49.3894885,187.895873 50.175097,188.640847 50.4098765,189.625115 C49.7958377,191.507866 48.6670899,193.178413 47.9808113,195.038589 C49.9222575,194.727055 51.7598589,193.923386 53.7238801,193.751817 C54.8526279,193.629912 55.2138272,194.930229 55.4486067,195.783563 C51.7598589,196.849101 48.0801411,198.144903 44.2559436,198.600917 C43.8992593,197.445079 44.544903,196.365996 44.9647972,195.332063 C46.1612698,192.704339 47.3667725,190.081129 48.5226102,187.435344 Z" id="Shape"></path>
                <path d="M185.706102,199.223986 C187.453404,197.580529 189.151041,195.038589 191.81037,195.146949 C193.191958,195.110829 193.598307,196.555626 193.973051,197.603104 C195.214674,197.995908 196.844586,197.986878 197.566984,199.269136 C197.833369,200.452063 197.914638,201.923951 196.971005,202.849524 C195.584903,204.298836 194.171711,205.797813 192.397319,206.768536 C190.157884,204.262716 187.656578,201.964586 185.706102,199.223986 Z M189.236825,198.325503 C189.069771,199.115626 189.598025,199.70709 190.108219,200.230829 C191.155697,199.865115 191.94582,198.925996 191.394991,197.806279 C190.640988,197.806279 189.909559,197.982363 189.236825,198.325503 Z M192.040635,201.522116 C191.77425,202.40254 192.641129,202.939824 193.232593,203.400353 C194.42455,202.863069 195.909982,201.093192 194.149136,200.239859 C193.399647,200.573968 192.555344,200.835838 192.040635,201.522116 Z" id="Shape"></path>
                <path d="M54.780388,198.397743 C58.7535802,197.061305 63.2550265,200.867443 62.7538624,204.9806 C62.7041975,207.337425 60.6453616,209.477531 58.2479012,209.427866 C54.261164,209.924515 50.4369665,205.766208 51.4618695,201.829136 C51.737284,200.122469 53.1775661,198.862787 54.780388,198.397743 Z M56.5592945,200.632663 C54.6946032,200.939683 53.1820811,203.156543 54.1708642,204.948995 C54.9519577,207.23358 58.5233157,207.748289 59.7333333,205.572063 C61.3361552,203.400353 59.0380247,200.348219 56.5592945,200.632663 Z" id="Shape"></path>
                <path d="M181.186596,202.772769 C181.854815,202.21291 182.848113,200.930653 183.733051,201.829136 C185.119153,203.603527 186.658765,205.346314 187.597884,207.409665 C188.546032,210.430194 185.909277,213.048889 183.245432,213.902222 C181.78709,214.295026 179.958519,214.245362 178.929101,212.976649 C177.421093,211.220317 176.048536,209.333051 174.856578,207.346455 C175.524797,206.858836 176.215591,206.402822 176.928959,205.987443 C178.617566,207.508995 179.529594,209.689735 181.227231,211.188713 C183.096437,212.42582 185.814462,209.99224 184.798589,207.992099 C183.714991,206.172557 182.148289,204.678095 181.186596,202.772769 Z" id="Shape"></path>
                <path d="M66.9482892,205.495309 C67.8377425,205.603668 68.614321,206.059683 69.142575,206.782081 C68.0454321,209.229206 66.2665256,211.265467 65.006843,213.622293 C66.2710406,214.79619 67.8558025,215.541164 69.13806,216.697002 C68.9123104,217.125926 68.6865608,217.56388 68.4608113,218.001834 C67.4268783,218.024409 66.582575,217.387795 65.7563316,216.859541 C64.3295944,215.911393 62.8712522,215.01291 61.5302998,213.947372 C63.1331217,211.012628 65.020388,208.226878 66.9482892,205.495309 Z" id="Shape"></path>
                <path d="M75.6035273,211.026173 C76.5020106,210.692063 77.301164,211.464127 78.0461376,211.856931 C77.2153792,214.204727 75.784127,216.286138 74.9353086,218.629418 C74.5334744,219.247972 75.3100529,219.690441 75.7344621,219.983915 C76.7051852,220.593439 77.802328,220.959153 78.7956261,221.528042 C79.1884303,222.137566 78.6014815,222.81933 78.4615168,223.428854 C76.0008466,222.616155 73.7749559,221.248113 71.4542504,220.11485 C71.5129453,218.412698 72.5513933,216.990476 73.2783069,215.514074 C74.1000353,214.042187 74.6869841,212.44388 75.6035273,211.026173 Z" id="Shape"></path>
                <path d="M166.278095,212.39873 C166.919224,211.983351 167.596473,211.622152 168.309841,211.342222 C170.142928,213.419118 170.896931,216.240988 172.860952,218.205009 C174.377989,217.469065 175.800212,216.543492 177.348854,215.870758 C177.646843,216.412557 177.940317,216.958871 178.233792,217.5097 C175.994356,218.972557 173.709771,220.471534 171.176861,221.374533 C169.993933,219.600141 169.02321,217.694815 167.912522,215.875273 C167.275908,214.764586 166.53545,213.671958 166.278095,212.39873 Z" id="Shape"></path>
                <path d="M160.900741,215.098695 C161.717954,214.687831 162.566772,214.335661 163.447196,214.078307 C163.230476,215.861728 162.648042,217.586455 162.503563,219.383422 C163.91224,221.121693 166.413545,221.446772 168.187937,222.74709 C168.287266,223.853263 166.51739,223.911958 165.691146,224.196402 C163.799365,223.830688 162.300388,222.399436 160.408607,221.975026 C160.882681,223.225679 161.356755,224.476332 161.772134,225.745044 C161.19873,226.490018 160.286702,226.733827 159.428854,226.991182 C158.011146,223.794568 156.534744,220.602469 155.455661,217.274921 C156.173545,217.053686 156.891429,216.836966 157.613827,216.620247 C158.53037,217.55485 158.905115,218.841623 159.528183,219.97037 C160.277672,218.439788 160.336367,216.692487 160.900741,215.098695 Z" id="Shape"></path>
                <path d="M85.0217989,215.441834 C87.5231041,215.401199 89.8483245,216.724092 92.0922751,217.712875 C91.9071605,218.263704 91.7265608,218.819048 91.5459612,219.374392 C90.0334392,219.094462 88.6563668,218.367549 87.1528748,218.065044 C86.4169312,218.218554 86.511746,219.162187 86.3401764,219.731076 C87.7759436,220.29545 89.2342857,220.805644 90.6519929,221.424198 C90.4849383,221.929877 90.3269136,222.435556 90.1688889,222.94575 C88.5073721,222.896085 86.9903351,222.151111 85.4010582,221.758307 C85.1933686,222.431041 85.0398589,223.121834 84.9495591,223.821658 C86.3808113,224.440212 87.8617284,224.923316 89.3200705,225.474145 C89.2026808,226.137848 89.3561905,227.049877 88.4757672,227.207901 C86.1460317,226.629982 83.9065961,225.717954 81.7123104,224.756261 C82.1005996,222.53037 83.0577778,220.471534 83.7350265,218.331429 C84.1007407,217.34716 84.3580952,216.281623 85.0217989,215.441834 Z" id="Shape"></path>
                <path d="M93.9298765,218.200494 C94.8870547,218.340459 95.8216578,218.579753 96.742716,218.873228 C97.3206349,219.96134 97.8850088,221.058483 98.4538977,222.155626 C99.4065608,221.491922 100.268924,220.701799 101.271252,220.110335 C102.314215,219.9794 103.302998,220.471534 104.278236,220.769524 C102.806349,222.331711 100.928113,223.442399 99.4652557,225.009101 C98.4900176,226.368113 98.5125926,228.142504 98.1468783,229.722751 C97.2258201,229.650511 96.3092769,229.501517 95.4153086,229.280282 C95.6275132,227.645855 96.1783422,226.065608 96.246067,224.417637 C95.7132981,222.259471 94.3768607,220.390265 93.9298765,218.200494 Z" id="Shape"></path>
                <path d="M106.251287,221.306808 C108.432028,221.180388 110.775309,221.315838 112.761905,222.291076 C114.360212,223.315979 113.764233,225.266455 113.046349,226.643527 C113.732628,227.81291 114.694321,229.352522 113.669418,230.62575 C113.032804,231.677743 111.818272,232.156332 110.617284,231.980247 C108.707443,231.903492 106.811146,231.591958 104.95097,231.163034 C105.406984,227.880635 105.686914,224.571146 106.251287,221.306808 Z M108.585538,223.690723 C108.540388,224.209947 108.490723,224.738201 108.441058,225.266455 C109.289877,225.519295 110.165785,225.4606 111.014603,225.239365 C110.951393,224.733686 110.888183,224.232522 110.829489,223.735873 C110.08903,223.568818 109.321481,223.410794 108.585538,223.690723 Z M108.463633,227.560071 C107.77284,228.02963 108.057284,229.013898 107.939894,229.722751 C108.964797,229.889806 110.00776,229.898836 111.032663,229.722751 C111.727972,228.128959 109.804586,227.113086 108.463633,227.560071 Z" id="Shape"></path>
                <path d="M140.529101,221.342928 C141.373404,221.216508 142.222222,221.153298 143.075556,221.171358 C143.847619,223.690723 144.253968,226.304903 145.035062,228.824268 C146.804938,228.688818 148.53418,228.264409 150.304056,228.119929 C150.376296,228.752028 150.421446,229.393157 150.263422,230.020741 C147.762116,230.467725 145.314991,231.176578 142.800141,231.510688 C141.851993,228.174109 141.201834,224.747231 140.529101,221.342928 Z" id="Shape"></path>
                <path d="M120.717319,222.724515 C121.688042,222.6297 122.667795,222.61164 123.647549,222.652275 C124.487337,223.862293 125.033651,225.230335 125.579965,226.589347 C126.428783,228.711393 127.498836,230.747654 128.167055,232.94194 C127.340811,233.000635 126.455873,233.267019 125.65672,232.94194 C125.092346,232.350476 124.627302,231.682257 124.139683,231.041129 C122.82582,230.914709 121.502928,230.896649 120.198095,231.086279 C119.800776,231.659683 119.394427,232.228571 118.992593,232.801975 C118.166349,232.84261 117.344621,232.865185 116.522892,232.874215 C117.475556,229.329947 119.340247,226.115273 120.717319,222.724515 Z M121.015309,228.946173 C121.886702,228.991323 122.767125,228.995838 123.643034,228.959718 C123.322469,227.83097 122.875485,226.747372 122.284021,225.736014 C121.475838,226.616437 121.245573,227.81291 121.015309,228.946173 Z" id="Shape"></path>
                <path d="M130.58709,222.62067 C131.395273,222.47619 132.226032,222.435556 133.043245,222.580035 C133.431534,225.21679 133.454109,227.898695 133.878519,230.53545 C135.68903,230.58963 137.490511,230.3097 139.296508,230.458695 C139.301023,230.977919 139.310053,231.501658 139.323598,232.029912 C136.759083,232.598801 134.126843,232.829065 131.503633,232.84261 C130.925714,229.469912 130.546455,226.047549 130.58709,222.62067 Z" id="Shape"></path>
            </g>
            <g id="#deb306ff" fill="#DEB306">
                <path d="M118.030899,0.704338624 C142.389277,-1.19195767 167.284938,4.05446208 188.735661,15.7663492 C192.148995,17.5136508 195.503633,19.4009171 198.546737,21.7441975 C206.583422,27.0673721 214.028642,33.302575 220.656649,40.3143563 C226.002399,45.4795062 230.205855,51.6514991 234.427372,57.7331922 C236.079859,60.2841623 237.538201,62.961552 239.312593,65.4402822 C240.51358,67.2462787 241.050864,69.3908995 242.175097,71.2420459 C244.753157,75.4545326 246.333404,80.1726984 248.008466,84.7960494 C250.848395,92.4670194 252.825961,100.449524 254.076614,108.531358 C255.336296,114.098342 255.106032,119.854956 255.503351,125.516755 C255.814885,127.923245 255.643316,130.347795 255.390476,132.745256 C255.151182,144.940247 252.767266,157.035908 248.992734,168.607831 C247.146102,173.461446 245.51619,178.414392 243.132275,183.042257 C239.177143,191.106032 234.490582,198.826667 228.986808,205.933263 C225.677319,209.987725 222.367831,214.055732 218.697143,217.803175 C215.053545,221.717672 210.746243,224.914286 206.723386,228.417919 C200.713933,233.118025 194.262011,237.231182 187.588854,240.919929 C180.310688,244.717037 172.671323,247.787231 164.842328,250.252416 C158.313651,252.139683 151.685644,253.896014 144.895097,254.473933 C128.0903,256.979753 110.820459,255.607196 94.4039506,251.322469 C83.0081129,247.972346 71.8244797,243.583774 61.7650794,237.199577 C58.2433862,235.176861 54.9835626,232.756825 51.5566843,230.594145 C48.5316402,227.89418 45.1905467,225.573474 42.2558025,222.769665 C39.5197178,220.24127 36.9190829,217.577425 34.282328,214.9497 C31.3837037,212.082681 29.0810582,208.700952 26.5029982,205.558519 C24.2545326,202.786314 22.4485362,199.702575 20.3219753,196.849101 C18.9042681,194.618695 17.3691711,192.446984 16.2494533,190.045009 C14.5427866,186.64522 12.5516755,183.385397 11.1294533,179.854674 C4.82652557,165.406702 1.02038801,149.848042 0.316049383,134.090723 C0.216719577,127.494321 0.0677248677,120.861799 0.939118166,114.306032 C2.15816578,102.28261 5.25996473,90.4713933 9.82010582,79.2967901 C14.0145326,68.9755203 19.8072663,59.3585891 26.4849383,50.4640564 C28.0245503,47.9808113 30.0382363,45.8768254 32.0609524,43.7954145 C35.82194,39.2984832 40.0705467,35.2304762 44.5042681,31.4017637 C47.0146032,28.7198589 50.184127,26.8280776 53.0466314,24.570582 C57.6880423,21.4552381 62.2075485,18.0915697 67.2959436,15.7211993 C69.8649735,14.5021517 72.217284,12.8496649 74.8540388,11.761552 C78.1815873,10.4070547 81.382716,8.71393298 84.8457143,7.71160494 C90.8190476,5.84239859 96.792381,3.90095238 102.946314,2.71802469 C107.953439,1.88275132 112.960564,1.06553792 118.030899,0.704338624 Z M119.841411,5.27802469 C116.595132,5.71146384 113.317249,5.86045855 110.07097,6.28486772 C95.8893827,8.4972134 82.0599647,13.0528395 69.3773545,19.7756614 C65.4583422,22.1595767 61.3587302,24.2590476 57.6970723,27.0357672 C53.8954497,29.8260317 50.0261023,32.5530864 46.4908642,35.6864903 C44.1972487,37.894321 41.9487831,40.1518166 39.6732275,42.3822222 C33.8940388,48.8115697 28.0967901,55.317672 23.568254,62.7177425 C22.0512169,65.5802469 20.2587654,68.2847266 18.8320282,71.1968959 C15.2516402,77.7571781 12.6600353,84.8050794 10.24903,91.8620106 C8.10440917,99.7903351 6.06814815,107.827019 5.61213404,116.062363 C4.69107584,123.047055 5.07485009,130.135591 5.19223986,137.165432 C5.7340388,141.05284 5.82885362,145.007972 6.75442681,148.836684 C8.82680776,161.51478 13.1928042,173.750406 18.944903,185.209453 C19.9336861,187.268289 21.4146032,189.038166 22.4033862,191.097002 C23.8346384,194.085926 25.8934744,196.704621 27.649806,199.503915 C30.6929101,203.481623 34.0565785,207.20649 37.2577072,211.053263 C40.5039859,214.421446 43.8179894,217.730935 47.2087478,220.950123 C49.2404938,222.52134 51.213545,224.164797 53.2001411,225.794709 C56.6495944,228.106384 59.909418,230.716049 63.5575309,232.72522 C67.3004586,235.127196 71.156261,237.398236 75.2919929,239.064268 C76.9173898,239.709912 78.3757319,240.689665 79.9740388,241.394004 C84.6831746,243.2903 89.4916402,244.933757 94.3407407,246.437249 C103.203668,248.735379 112.269771,250.428501 121.430688,250.803245 C127.521411,250.857425 133.643739,251.119295 139.707372,250.383351 C145.436896,250.171146 150.999365,248.645079 156.620529,247.665326 C162.801552,246.026384 168.87873,243.999153 174.843034,241.701023 C176.996684,240.937989 178.938131,239.705397 181.064691,238.870123 C184.956614,237.393721 188.171287,234.648607 191.96388,232.96903 C195.535238,230.729594 199.133686,228.494674 202.43866,225.871464 C206.285432,222.670335 210.285714,219.631746 213.780317,216.037813 C216.389982,213.360423 219.229912,210.863633 221.338413,207.743774 C223.618483,205.206349 225.857919,202.628289 227.772275,199.79739 C230.51739,196.239577 232.400141,192.12642 234.933051,188.428642 C238.11612,183.769171 239.958236,178.391817 242.292487,173.294392 C245.127901,165.754356 247.335732,157.979541 248.857284,150.069277 C249.322328,146.249594 250.261446,142.484092 250.392381,138.628289 C252.288677,116.211358 248.071675,93.2210229 237.921975,73.1067372 C235.831534,68.8942504 233.537919,64.7630335 230.747654,60.9704409 C228.485644,57.1733333 225.654744,53.764515 222.968325,50.2653968 C220.37672,46.2967196 216.633792,43.3032804 213.545538,39.7454674 C205.666878,32.3815168 197.097425,25.6270899 187.521129,20.5928748 C184.667654,18.7417284 181.452981,17.5949206 178.445996,16.0417637 C168.187937,11.1339683 157.094603,8.20373898 145.924515,6.27132275 C142.050653,5.81982363 138.1497,5.61213404 134.271323,5.23287478 C129.462857,5.02970018 124.645362,5.08839506 119.841411,5.27802469 Z" id="Shape"></path>
                <path d="M104.711675,43.7231746 C107.989559,43.0685009 111.578977,43.6419048 114.486631,45.2989065 C116.360353,46.2831746 116.753157,48.5045503 117.92254,50.0893122 C119.335732,51.9675485 119.046772,54.4462787 118.893263,56.6450794 C118.518519,59.9635979 115.25418,61.6657496 113.601693,64.2979894 C113.339824,64.6320988 113.086984,64.9616931 112.834145,65.3003175 C109.700741,65.9865961 106.418342,66.045291 103.280423,65.3951323 C101.794991,64.6275838 100.652698,63.3272663 99.4471958,62.1894885 C98.2416931,61.0833157 98.1965432,59.372134 97.776649,57.9047619 C97.28,55.9858907 96.3183069,53.9767196 97.0136155,51.9810935 C97.6231393,50.6356261 98.4493827,49.3985185 99.0814815,48.0575661 C100.05672,45.7278307 102.679929,44.8880423 104.711675,43.7231746 Z" id="Shape"></path>
                <path d="M118.811993,192.943633 C118.870688,191.273086 120.49157,189.932134 122.144056,190.144339 C122.487196,191.99097 122.71746,193.923386 122.067302,195.738413 C121.660952,195.742928 121.254603,195.756473 120.852769,195.783563 C120.690229,194.876049 120.505115,193.977566 120.32,193.079083 C119.818836,193.033933 119.313157,192.988783 118.811993,192.943633 Z" id="Shape"></path>
                <path d="M125.2594,190.279788 C126.469418,190.112734 127.692981,190.148854 128.907513,190.297848 C130.69545,192.532769 129.634427,195.602963 128.076755,197.634709 C127.656861,198.135873 127.002187,198.343563 126.437813,198.632522 C126.333968,198.406772 126.126279,197.964303 126.022434,197.743069 C126.230123,197.15612 126.455873,196.573686 126.677108,195.995767 C125.900529,195.481058 124.947866,195.119859 124.437672,194.30716 C124.013263,192.912028 124.275132,191.372416 125.2594,190.279788 Z M126.175944,192.167055 C126.166914,192.794638 126.085644,193.471887 126.478448,194.018201 C126.749347,194.000141 127.286631,193.959506 127.557531,193.936931 C127.692981,193.422222 127.80134,192.902998 127.88261,192.379259 C127.539471,191.476261 126.817072,191.887125 126.175944,192.167055 Z" id="Shape"></path>
                <path d="M130.663845,190.302363 C132.537566,190.058554 134.433862,190.108219 136.312099,190.261728 C136.054744,192.11739 135.233016,193.815026 134.605432,195.557813 C134.144903,196.677531 133.797249,197.955273 132.749771,198.686702 C132.555626,198.542222 132.167337,198.248748 131.968677,198.104268 C132.058977,195.968677 133.32769,194.140106 133.585044,192.04515 C132.623351,191.860035 131.657143,191.711041 130.690935,191.584621 C130.681905,191.151182 130.672875,190.726772 130.663845,190.302363 Z" id="Shape"></path>
                <path d="M137.093192,191.932275 C137.892346,190.659048 139.156543,189.882469 140.69164,190.162399 C140.723245,192.049665 140.73679,193.941446 140.64649,195.828713 C140.082116,195.765503 139.517743,195.729383 138.966914,195.621023 C138.21291,194.4697 137.779471,193.128748 137.093192,191.932275 Z" id="Shape"></path>
            </g>
            <g id="#537abbff" transform="translate(11.738977, 11.738977)" fill="#537ABB">
                <path d="M66.9753792,10.9985185 C96.0067725,-2.65029982 130.790265,-3.39075838 160.408607,8.9080776 C180.531922,17.1027866 198.117813,31.216649 210.764303,48.8567196 C222.543915,65.3544974 230.17425,84.9269841 232.020882,105.145115 C215.288325,114.328607 198.637037,123.665608 181.87739,132.799436 C180.513862,131.155979 178.640141,130.036261 176.5497,129.616367 C186.171146,116.676402 195.919012,103.826737 205.594638,90.9274074 C206.953651,89.103351 208.416508,87.3425044 209.536226,85.3513933 C207.57672,86.4982011 206.028078,88.1777778 204.362046,89.6857848 C192.121905,100.314074 179.972063,111.041693 167.754497,121.697072 C165.673086,123.439859 163.745185,125.37679 161.492205,126.907372 C160.891711,126.799012 160.295732,126.717743 159.699753,126.654533 C160.702081,123.376649 162.359083,120.360635 163.7497,117.240776 C169.822363,104.052487 175.895026,90.8641975 181.954145,77.6668783 C183.245432,74.8269489 184.830194,72.0998942 185.651922,69.0658201 C183.913651,70.8627866 182.541093,72.9577425 181.037601,74.9398236 C170.960141,88.3493474 160.936861,101.799506 150.918095,115.249665 C148.967619,117.79612 147.139048,120.441905 144.998942,122.839365 C147.662787,109.885855 150.719436,97.0136155 153.44649,84.0736508 C153.270406,84.1639506 152.913721,84.3400353 152.733122,84.4258201 C152.981446,83.5273369 153.631605,82.5701587 153.211711,81.6265256 C152.561552,80.1410935 151.690159,78.7414462 151.26575,77.1611993 C152.042328,78.7459612 152.958871,80.2629982 153.879929,81.7664903 C155.509841,75.273933 156.841764,68.7091358 158.318166,62.1804586 C158.72903,60.419612 159.094744,58.6407055 159.302434,56.843739 C157.807972,59.4850088 156.715344,62.3249383 155.383422,65.047478 C153.80769,68.2937566 152.701517,71.7973898 150.642681,74.7908289 C147.757601,71.8109347 146.186384,67.7609877 145.951605,63.6478307 C145.658131,61.4986949 145.852275,59.1057496 144.583563,57.2365432 C143.20649,55.809806 141.283104,55.1054674 139.508713,54.3334039 C139.111393,54.8390829 138.44769,55.286067 138.506384,56.0129806 C138.912734,58.2569312 140.398166,60.1712875 140.651005,62.455873 C140.786455,63.0744268 140.303351,63.5349559 140.018907,64.022575 C138.876614,63.6071958 137.707231,62.3971781 136.452063,63.0653968 C137.233157,64.3657143 138.208395,65.5667019 139.486138,66.4110053 C140.723245,67.3636684 142.357672,67.9957672 143.021376,69.5173192 C144.691922,73.0254674 146.633369,76.5516755 146.908783,80.5113228 C146.962963,81.1434215 146.750758,81.7529453 146.601764,82.3579541 C144.141093,82.3850441 141.653333,82.1683245 139.219753,82.6243386 C137.802046,82.8726631 136.384339,83.1164727 134.953086,83.2970723 C135.494885,80.3487831 139.034638,79.2064903 139.684797,76.285291 C139.942152,73.2963668 138.682469,70.0500882 136.054744,68.4427513 C134.686702,67.4178483 132.92134,67.4720282 131.300459,67.3320635 C132.487901,67.2191887 133.684374,67.2372487 134.867302,67.052134 C133.594074,66.7992945 132.293757,67.0340741 131.016014,67.1288889 C130.537425,61.6025397 130.970864,56.0536155 130.78575,50.5182363 C129.196473,56.2432451 128.686279,62.2075485 127.078942,67.9280423 C126.333968,68.104127 125.625115,68.4653263 125.20522,69.12903 C124.220952,70.5467372 123.047055,71.8380247 122.175661,73.3324868 C121.949912,74.8450088 123.345044,75.9963316 123.995203,77.2379541 C123.512099,78.353157 122.73552,79.4773898 121.448748,79.6850794 C119.507302,79.0800705 117.719365,77.9964727 115.674074,77.7300882 C112.44134,77.2289242 109.204092,76.6329453 106.129383,75.4771076 C106.454462,75.4635626 107.095591,75.4319577 107.42067,75.4184127 C106.644092,70.7137919 105.21284,66.1446208 104.156332,61.4941799 C103.415873,58.5097707 102.770229,55.4982716 101.862716,52.5590123 C103.515203,49.9267725 106.779541,48.2246208 107.154286,44.9061023 C107.307795,42.7073016 107.596755,40.2285714 106.183563,38.3503351 C105.01418,36.7655732 104.621376,34.5441975 102.747654,33.5599295 C99.84,31.9029277 96.250582,31.3295238 92.9726984,31.9841975 C90.9409524,33.1490653 88.3177425,33.9888536 87.3425044,36.3185891 C86.7104056,37.6595414 85.8841623,38.896649 85.2746384,40.2421164 C84.5793298,42.2377425 85.5410229,44.2469136 86.037672,46.1657848 C86.4575661,47.633157 86.502716,49.3443386 87.7082187,50.4505115 C88.9137213,51.5882892 90.0560141,52.8886067 91.5414462,53.6561552 C94.6793651,54.3063139 97.9617637,54.247619 101.095168,53.5613404 C101.451852,57.8234921 101.199012,62.0991887 101.298342,66.3703704 C101.357037,68.4743563 101.266737,70.5828571 100.869418,72.6552381 C98.0159436,70.9214815 95.0541093,69.3773545 92.2141799,67.6210229 C88.8189065,65.8782363 85.0579189,64.514709 82.5475838,61.4851499 C79.5902646,57.9228219 75.4048677,55.0874074 70.664127,54.8571429 C70.4158025,55.2499471 70.162963,55.6427513 69.9146384,56.0355556 C71.1968959,57.4713228 73.1473721,58.5504056 73.4679365,60.6092416 C75.6802822,70.9982363 78.0371076,81.3556261 80.2855732,91.7401058 C82.4888889,102.115556 85.0398589,112.427795 87.03097,122.848395 C85.1256437,120.816649 83.6266667,118.455309 81.9516049,116.242963 C71.6258201,102.4903 61.3722751,88.6834568 51.0374603,74.9353086 C49.5159083,72.9667725 48.2110758,70.8221517 46.4457143,69.0522751 C46.8520635,70.7905467 47.5564021,72.4340035 48.3736155,74.0142504 C49.9719224,77.1341093 51.3580247,80.3487831 52.8344268,83.5273369 C58.6723104,96.3318519 64.6320988,109.086702 70.4609524,121.895732 C71.684515,124.591182 73.1022222,127.205362 74.0684303,130.009171 C71.4768254,128.288959 69.3683245,125.981799 66.9753792,124.017778 C58.0537566,116.233933 49.168254,108.404938 40.2556614,100.607549 C35.2846561,96.246067 30.209806,92.0064903 25.3652205,87.5005291 C24.6112169,86.8323104 23.7714286,86.2679365 22.9180952,85.7351675 C24.2409877,88.2680776 26.1598589,90.4081834 27.8574956,92.692769 C39.1043386,107.63739 50.2744268,122.63619 61.5438448,137.562751 C62.0585538,138.280635 62.5010229,139.048183 62.9344621,139.820247 C53.6200353,134.907937 44.540388,129.557672 35.2801411,124.550547 C23.6450088,118.107654 12.0189065,111.660247 0.397319224,105.199295 C2.64126984,80.5474427 13.3598589,56.843739 29.9163316,38.4948148 C40.3008113,27.0086772 52.9337566,17.5452557 66.9753792,10.9985185 Z M110.23351,5.81982363 C110.120635,8.54687831 110.22448,11.269418 110.192875,13.9964727 C110.201905,16.2088183 109.8994,18.425679 110.165785,20.6335097 C113.962892,20.475485 118.044444,21.2656085 121.588713,19.5318519 C124.780811,18.0057848 125.864409,13.847478 124.753721,10.6644092 C123.927478,7.87414462 121.119153,6.08169312 118.306314,5.86497354 C115.619894,5.65276896 112.919929,5.69791887 110.23351,5.81982363 Z M99.84,6.90793651 C99.9935097,9.77495591 100.837813,12.5471605 101.081623,15.4006349 C98.1649383,13.4050088 95.5326984,11.0256085 92.7334039,8.87195767 C91.5595062,7.7838448 89.9070194,8.6010582 88.5434921,8.75005291 C89.062716,13.6533333 90.128254,18.4934039 90.9228924,23.3605644 C92.1870899,23.2838095 93.4332275,23.0896649 94.6703351,22.8413404 C94.3542857,19.8569312 93.5415873,16.9447619 93.3429277,13.9468078 C96.3589418,16.0688536 99.1401764,18.5114638 101.989136,20.8547443 C103.081764,21.9383422 104.76134,21.1075838 106.002963,20.7283245 C105.045785,15.9334039 104.549136,11.0346384 103.366208,6.2984127 C102.178765,6.43386243 101.000353,6.63252205 99.84,6.90793651 Z M131.544268,6.40677249 C130.894109,9.26024691 130.3794,12.1453263 129.756332,15.0078307 C129.404162,17.0124868 128.758519,18.9719929 128.722399,21.0217989 C129.896296,21.2475485 131.079224,21.4416931 132.266667,21.5681129 C133.250935,18.7913933 133.12,15.6263845 134.429347,13.0031746 C136.348219,16.1456085 138.100035,19.3873721 139.942152,22.5794709 C140.623915,23.8210935 142.289947,23.6585538 143.50448,23.8707584 C144.628713,19.0984127 145.612981,14.2854321 146.461799,9.45439153 C145.256296,9.08416226 144.023704,8.83132275 142.773051,8.70038801 C142.055168,11.4184127 141.833933,14.2538272 140.90836,16.917672 C138.619259,13.7797531 137.124797,10.1180952 134.790547,7.02081129 C133.752099,6.62800705 132.641411,6.51513228 131.544268,6.40677249 Z M153.157531,11.770582 C151.753369,14.6692063 150.660741,17.7077954 149.364938,20.6560847 C148.755414,22.2724515 147.780176,23.7940035 147.662787,25.5548501 C150.99485,26.8596825 154.259189,28.3541446 157.622857,29.5867372 C158.110476,28.8191887 158.498765,27.9974603 158.805785,27.144127 C156.670194,26.0560141 154.344974,25.3968254 152.227443,24.2680776 C152.448677,23.2476896 152.814392,22.2724515 153.229771,21.3152734 C155.500811,21.7532275 157.446772,23.1799647 159.749418,23.5140741 C160.137707,22.8007055 160.467302,22.0557319 160.724656,21.2791534 C158.83739,20.0601058 156.611499,19.5544268 154.624903,18.5385538 C154.864198,17.6400705 155.144127,16.7506173 155.451146,15.870194 C157.871182,16.407478 159.952593,17.8748501 162.368113,18.430194 C162.693192,17.5994356 163.004727,16.7641623 163.280141,15.9198589 C159.934533,14.4660317 156.593439,12.9896296 153.157531,11.770582 Z M72.9983774,13.8881129 C72.7635979,19.1751675 72.4249735,24.4667372 72.3843386,29.7583069 C73.6304762,29.4919224 74.8269489,29.0449383 76.0098765,28.5798942 C76.1182363,27.5143563 76.2311111,26.4443034 76.3575309,25.3832804 C78.357672,24.5434921 80.407478,23.8256085 82.4843739,23.2070547 C83.1616226,23.9023633 83.8524162,24.584127 84.5477249,25.2613757 C85.8661023,25.085291 87.1257848,24.6383069 88.2771076,23.9791182 C87.0851499,22.2498765 85.4642681,20.8908642 84.0239859,19.3738272 C81.7394004,17.0079718 79.4277249,14.6692063 77.0799295,12.3665608 C75.6757672,12.7548501 74.3212698,13.292134 72.9983774,13.8881129 Z M55.9588007,22.534321 C54.292769,24.4531922 54.8706878,27.9297354 57.3042681,28.9230335 C59.9365079,29.9705115 62.7312875,28.4895944 65.4312522,28.9907584 C65.4041623,29.695097 65.6118519,30.6161552 64.9165432,31.0766843 C63.3137213,32.4989065 61.0878307,32.3770018 59.0922046,32.5034215 C59.385679,33.3973898 59.7739683,34.2507231 60.2028924,35.0859965 C63.1421517,35.4878307 66.1762257,34.2100882 68.1899118,32.0970723 C70.0365432,30.0653263 69.4766843,26.4126984 66.9753792,25.1936508 C64.3837743,24.4351323 61.7334744,25.4780952 59.1057496,25.3832804 C58.86194,24.8008466 58.5549206,23.9926631 59.2005644,23.536649 C60.7808113,22.1776367 62.9434921,21.9609171 64.9075132,21.5681129 C64.4695591,20.7192945 63.98194,19.8975661 63.462716,19.0938977 C60.6634215,19.2428924 57.8144621,20.3761552 55.9588007,22.534321 Z M165.560212,25.4690653 C166.2194,27.7897707 168.689101,29.180388 169.03224,31.5913933 C168.449806,31.8035979 167.822222,32.4537566 167.181093,32.0428924 C165.131287,31.2663139 164.08381,29.2481129 162.968607,27.5098413 C162.304903,28.3315697 161.736014,29.2255379 161.293545,30.182716 C162.828642,33.1219753 165.885291,35.5600705 169.330229,35.4065608 C171.957954,35.3704409 173.858765,32.277672 172.897072,29.8892416 C172.088889,27.6904409 170.142928,26.1508289 169.316684,23.9565432 C169.826878,23.6179189 170.386737,23.062575 171.050441,23.4373192 C172.910617,24.1100529 174.039365,25.8392945 175.280988,27.2660317 C175.980811,26.5932981 176.53164,25.7986596 176.901869,24.9046914 C175.104903,22.2724515 172.210794,19.8975661 168.85164,20.0917108 C166.3097,20.2091005 164.594004,23.1664198 165.560212,25.4690653 Z" id="Shape"></path>
                <path d="M113.944832,8.67329806 C115.741799,8.51075838 117.73291,8.31661376 119.331217,9.34151675 C121.818977,10.9849735 121.769312,15.1703704 119.471182,16.9628219 C117.845785,17.9967549 115.827584,17.8658201 113.980952,17.8838801 C113.971922,14.8136861 113.994497,11.7434921 113.944832,8.67329806 Z" id="Shape"></path>
                <path d="M76.3485009,16.7009524 C77.7210582,18.0870547 79.1207055,19.459612 80.2946032,21.0263139 C78.9988007,21.5365079 77.6894533,22.015097 76.3620459,22.4530511 C76.2130511,20.5386949 76.2220811,18.6153086 76.3485009,16.7009524 Z" id="Shape"></path>
                <path d="M73.711746,58.5865256 C75.9963316,60.1893474 77.7165432,62.4242681 79.852134,64.1986596 C84.2000705,67.9777072 88.1687478,72.176649 92.670194,75.775097 C95.4198236,77.9693827 98.8783069,78.8949559 101.876261,80.6603175 C101.189982,81.2788713 101.199012,82.2044444 101.217072,83.0622928 C101.352522,93.1487831 101.239647,103.239788 101.320917,113.326279 C101.343492,114.883951 101.289312,116.446138 101.149347,117.999295 C100.652698,117.213686 100.165079,116.423563 99.7587302,115.592804 C91.157672,96.5576014 82.3534392,77.6081834 73.711746,58.5865256 Z" id="Shape"></path>
                <path d="M135.968959,91.6814109 C138.637319,90.8009877 141.301164,89.9025044 144.005644,89.1259259 C143.382575,91.9161905 141.915203,94.3904056 140.77291,96.9774956 C138.718589,101.533122 136.646208,106.075203 134.546737,110.608254 C133.368325,113.091499 132.438236,115.701164 130.912169,118.00381 C130.58709,110.680494 130.898624,103.339118 130.78575,96.0112875 C132.406631,94.4626455 133.765644,92.4399295 135.968959,91.6814109 Z" id="Shape"></path>
                <path d="M168.874215,139.901517 C170.048113,138.11358 171.185891,136.185679 172.960282,134.925996 C173.723316,134.758942 174.508924,134.799577 175.285503,134.822152 C176.251711,134.966631 177.208889,135.178836 178.125432,135.531005 C174.675979,136.059259 172.125009,138.795344 168.874215,139.901517 Z" id="Shape"></path>
                <path d="M98.9956966,166.3097 C101.302857,165.858201 104.156332,165.853686 105.876543,167.718377 C106.914991,168.73425 106.264832,170.255802 106.368677,171.52 C106.865326,172.608113 108.152099,171.881199 109.009947,171.759295 C114.215732,170.233228 119.746596,169.822363 125.123951,170.535732 C128.279929,170.924021 130.970864,172.766138 134.013968,173.538201 C135.567125,174.111605 136.488183,172.125009 137.991675,172.219824 C140.285291,172.255944 142.587937,172.675838 144.723527,173.533686 C144.746102,174.639859 144.854462,175.759577 144.687407,176.861235 C144.290088,177.719083 143.364515,178.184127 142.642116,178.743986 C138.47478,181.475556 134.307443,184.216155 130.33425,187.232169 C128.365714,188.713086 126.004374,190.505538 126.022434,193.232593 C126.225608,196.189912 127.516896,198.957601 129.029418,201.463422 C129.322892,201.896861 129.435767,202.41157 129.440282,202.935309 C124.825961,203.219753 120.19358,203.007549 115.574744,203.030123 C113.425608,202.876614 111.240353,203.197178 109.127337,202.723104 C109.601411,199.55358 112.500035,197.314145 112.725785,194.054321 C113.046349,191.932275 111.050723,190.460388 109.511111,189.40388 C104.147302,186.685855 98.0836684,184.14843 94.8238448,178.789136 C92.0335802,174.540529 93.9795414,167.831252 98.9956966,166.3097 Z M113.886138,174.811429 C113.701023,175.199718 113.515908,175.592522 113.330794,175.985326 C113.917743,175.994356 114.504691,175.998871 115.096155,176.007901 C115.0194,175.755062 114.870406,175.249383 114.798166,174.996543 C114.567901,174.946878 114.116402,174.856578 113.886138,174.811429 Z M107.073016,181.204656 C107.57418,181.249806 108.079859,181.294956 108.581023,181.340106 C108.766138,182.238589 108.951252,183.137072 109.113792,184.044586 C109.515626,184.017496 109.921975,184.003951 110.328325,183.999436 C110.978483,182.184409 110.748219,180.251993 110.405079,178.405362 C108.752593,178.193157 107.131711,179.534109 107.073016,181.204656 Z M113.520423,178.540811 C112.536155,179.633439 112.274286,181.173051 112.698695,182.568183 C113.208889,183.380882 114.161552,183.742081 114.938131,184.25679 C114.716896,184.834709 114.491146,185.417143 114.283457,186.004092 C114.387302,186.225326 114.594991,186.667795 114.698836,186.893545 C115.26321,186.604586 115.917884,186.396896 116.337778,185.895732 C117.89545,183.863986 118.956473,180.793792 117.168536,178.558871 C115.954004,178.409877 114.730441,178.373757 113.520423,178.540811 Z M118.924868,178.563386 C118.933898,178.987795 118.942928,179.412205 118.951958,179.845644 C119.918166,179.972063 120.884374,180.121058 121.846067,180.306173 C121.588713,182.401129 120.32,184.2297 120.2297,186.365291 C120.42836,186.509771 120.816649,186.803245 121.010794,186.947725 C122.058272,186.216296 122.405926,184.938554 122.866455,183.818836 C123.494039,182.076049 124.315767,180.378413 124.573122,178.522751 C122.694885,178.369242 120.798589,178.319577 118.924868,178.563386 Z M125.354215,180.193298 C126.040494,181.389771 126.473933,182.730723 127.227937,183.882046 C127.778765,183.990406 128.343139,184.026526 128.907513,184.089735 C128.997813,182.202469 128.984268,180.310688 128.952663,178.423422 C127.417566,178.143492 126.153369,178.920071 125.354215,180.193298 Z" id="Shape"></path>
                <path d="M114.436966,180.428078 C115.078095,180.148148 115.800494,179.737284 116.143633,180.640282 C116.062363,181.164021 115.954004,181.683245 115.818554,182.197954 C115.547654,182.220529 115.01037,182.261164 114.739471,182.279224 C114.346667,181.73291 114.427937,181.055661 114.436966,180.428078 Z" id="Shape"></path>
            </g>
            <g id="#85bbe7ff" transform="translate(11.287478, 61.855379)" fill="#85BBE7">
                <path d="M127.530441,17.8116402 C129.137778,12.0911464 129.647972,6.12684303 131.237249,0.401834215 C131.422363,5.9372134 130.988924,11.4861376 131.467513,17.0124868 C130.239436,17.6355556 128.930088,18.1412346 127.530441,17.8116402 Z" id="Shape"></path>
                <path d="M101.546667,3.44493827 C101.799506,3.10631393 102.052346,2.77671958 102.314215,2.44261023 C103.221728,5.38186949 103.867372,8.39336861 104.607831,11.3777778 C105.664339,16.0282187 107.095591,20.5973898 107.872169,25.3020106 C107.54709,25.3155556 106.905961,25.3471605 106.580882,25.3607055 C104.675556,24.7466667 102.815379,23.8978483 101.320917,22.538836 C101.718236,20.466455 101.808536,18.3579541 101.749841,16.2539683 C101.650511,11.9827866 101.903351,7.70708995 101.546667,3.44493827 Z" id="Shape"></path>
                <path d="M70.3661376,5.91915344 C71.6213051,6.78603175 72.9216226,7.58518519 74.1632451,8.47012346 C82.8049383,27.4917813 91.6091711,46.4411993 100.210229,65.4764021 C100.616578,66.3071605 101.104198,67.097284 101.600847,67.8828924 C101.740811,66.3297354 101.794991,64.7675485 101.772416,63.2098765 C101.691146,53.1233862 101.804021,43.032381 101.668571,32.9458907 C101.650511,32.0880423 101.641481,31.1624691 102.32776,30.5439153 C103.930582,31.5778483 105.605644,32.5711464 106.946596,33.9437037 C107.768325,34.7293122 107.75478,35.9438448 107.971499,36.9822928 C108.292063,39.5558377 108.942222,42.0932628 108.982857,44.6938977 C108.996402,47.3712875 108.012134,49.9087125 107.668995,52.5364374 C107.095591,56.5231746 107.407125,60.5595767 107.249101,64.5688889 C107.104621,67.6165079 107.52903,70.655097 108.278519,73.6033862 C108.928677,76.0776014 108.933192,78.7053263 109.95358,81.0802116 C111.651217,84.9631041 112.481975,89.1485009 114.138977,93.0449383 C115.07358,95.1579541 115.669559,97.6366843 117.565855,99.1356614 C119.444092,100.296014 121.624832,100.810723 123.670123,101.591817 C130.234921,104.002822 136.917108,106.151958 143.28776,109.055097 C145.85679,110.359929 148.750899,111.208748 150.84134,113.290159 C153.270406,115.669559 154.913862,118.690088 156.503139,121.660952 C157.234568,123.010935 158.133051,124.338342 159.437884,125.200705 C160.778836,125.6206 161.46963,123.918448 161.410935,122.83485 C161.745044,120.29291 160.819471,117.890935 159.970653,115.556684 C159.121834,113.208889 159.451429,110.25157 157.509982,108.418483 C155.785256,107.38455 153.622575,107.750265 151.771429,107.050441 C147.360282,105.537919 144.032734,102.106526 140.529101,99.1898413 C138.745679,97.8353439 137.079647,96.3453968 135.354921,94.9322046 C133.08388,93.0268783 129.828571,94.8599647 127.394991,93.4061376 C126.216578,92.647619 125.905044,91.1802469 125.417425,89.9657143 C124.518942,87.2792945 123.205079,84.6199647 123.349559,81.7123104 C125.345185,82.5566138 126.835132,84.1774956 128.654674,85.3062434 C131.137919,86.8232804 133.666314,88.3583774 136.429489,89.3155556 C138.533474,90.1688889 140.321411,88.3132275 142.213192,87.6946737 C145.567831,86.525291 148.782504,84.9540741 152.227443,84.0330159 C159.948078,81.915485 168.016367,83.3467372 175.737002,84.7057496 C174.960423,84.6831746 174.174815,84.6425397 173.411781,84.8095944 C171.63739,86.0692769 170.499612,87.9971781 169.325714,89.7851146 C172.576508,88.6789418 175.127478,85.9428571 178.576931,85.4146032 C179.656014,86.1053968 180.708007,86.9135802 181.97672,87.2341446 C182.879718,87.4282892 184.026526,86.8007055 183.877531,85.7577425 C183.520847,84.6605996 182.924868,83.6582716 182.328889,82.6830335 C199.088536,73.5492063 215.739824,64.2122046 232.472381,55.0287125 C234.553792,74.4476896 231.519718,94.3904056 223.880353,112.360071 C217.875414,126.505538 209.030547,139.436473 198.032028,150.173122 C185.358448,162.503563 169.912663,172.021164 153.076261,177.493333 C134.953086,183.547937 115.31739,184.825679 96.5079365,181.58843 C71.693545,177.272099 48.3961905,164.643668 31.3204938,146.114145 C28.8914286,143.2697 26.105679,140.732275 24.078448,137.562751 C9.56275132,118.649453 1.07908289,95.1669841 0.293474427,71.3278307 C0.316049383,65.9143563 0.0180599647,60.4557319 0.848818342,55.0828924 C12.4704056,61.5438448 24.0965079,67.9912522 35.7316402,74.4341446 C44.9918871,79.4412698 54.0715344,84.7915344 63.3859612,89.7038448 C62.952522,88.9317813 62.5100529,88.1642328 61.9953439,87.4463492 C50.7259259,72.5197884 39.5558377,57.5209877 28.3089947,42.5763668 C26.611358,40.2917813 24.6924868,38.1516755 23.3695944,35.6187654 C24.2229277,36.1515344 25.062716,36.7159083 25.8167196,37.384127 C30.6613051,41.8900882 35.7361552,46.1296649 40.7071605,50.4911464 C49.6197531,58.2885362 58.5052557,66.1175309 67.4268783,73.9013757 C69.8198236,75.8653968 71.9283245,78.1725573 74.5199295,79.892769 C73.5537213,77.0889594 72.1360141,74.4747795 70.9124515,71.7793298 C65.0835979,58.9702998 59.1238095,46.2154497 53.2859259,33.4109347 C51.8095238,30.232381 50.4234215,27.0177072 48.8251146,23.8978483 C48.0079012,22.3176014 47.3035626,20.6741446 46.8972134,18.935873 C48.662575,20.7057496 49.9674074,22.8503704 51.4889594,24.8189065 C61.8237743,38.5670547 72.0773192,52.3738977 82.4031041,66.1265608 C84.0781658,68.3389065 85.5771429,70.7002469 87.4824691,72.7319929 C85.491358,62.3113933 82.940388,51.9991534 80.7370723,41.6237037 C78.4886067,31.239224 76.1317813,20.8818342 73.9194356,10.4928395 C73.5988713,8.43400353 71.6483951,7.35492063 70.3661376,5.91915344 Z M99.4471958,116.193298 C94.4310406,117.71485 92.4850794,124.424127 95.2753439,128.672734 C98.5351675,134.032028 104.598801,136.569453 109.96261,139.287478 C111.502222,140.343986 113.497848,141.815873 113.177284,143.937919 C112.951534,147.197743 110.05291,149.437178 109.578836,152.606702 C111.691852,153.080776 113.877108,152.760212 116.026243,152.913721 C120.645079,152.891146 125.27746,153.103351 129.891781,152.818907 C129.887266,152.295168 129.774392,151.780459 129.480917,151.347019 C127.968395,148.841199 126.677108,146.07351 126.473933,143.11619 C126.455873,140.389136 128.817213,138.596684 130.78575,137.115767 C134.758942,134.099753 138.926279,131.359153 143.093616,128.627584 C143.816014,128.067725 144.741587,127.602681 145.138907,126.744832 C145.305961,125.643175 145.197601,124.523457 145.175026,123.417284 C143.039436,122.559436 140.73679,122.139541 138.443175,122.103422 C136.939683,122.008607 136.018624,123.995203 134.465467,123.421799 C131.422363,122.649735 128.731429,120.807619 125.57545,120.41933 C120.198095,119.705961 114.667231,120.116825 109.461446,121.642892 C108.603598,121.764797 107.316825,122.491711 106.820176,121.403598 C106.716332,120.1394 107.36649,118.617848 106.328042,117.601975 C104.607831,115.737284 101.754356,115.741799 99.4471958,116.193298 Z M192.970723,129.792451 C190.758377,130.681905 189.22328,132.691076 187.823633,134.542222 C190.094674,136.632663 192.311534,138.790829 194.582575,140.88127 C195.566843,141.793298 196.460811,140.420741 197.09291,139.770582 C198.311958,138.208395 200.253404,136.745538 200.108924,134.560282 C199.774815,132.659471 197.756614,132.244092 196.149277,132.054462 C195.453968,130.925714 194.582575,129.277743 192.970723,129.792451 Z M42.2016226,130.546455 C41.0457848,133.19224 39.8402822,135.81545 38.6438095,138.443175 C38.2239153,139.477108 37.5782716,140.55619 37.9349559,141.712028 C41.7591534,141.256014 45.4388713,139.960212 49.127619,138.894674 C48.8928395,138.04134 48.5316402,136.741023 47.4028924,136.862928 C45.4388713,137.034497 43.6012698,137.838166 41.6598236,138.1497 C42.3461023,136.289524 43.4748501,134.618977 44.0888889,132.736226 C43.8541093,131.751958 43.0685009,131.006984 42.2016226,130.546455 Z M179.385115,142.335097 C181.335591,145.075697 183.836896,147.373827 186.076332,149.879647 C187.850723,148.908924 189.263915,147.409947 190.650018,145.960635 C191.593651,145.035062 191.512381,143.563175 191.245996,142.380247 C190.523598,141.097989 188.893686,141.107019 187.652063,140.714215 C187.277319,139.666737 186.87097,138.22194 185.489383,138.25806 C182.830053,138.1497 181.132416,140.69164 179.385115,142.335097 Z M48.4594004,141.508854 C46.8565785,141.973898 45.4162963,143.23358 45.1408818,144.940247 C44.1159788,148.877319 47.9401764,153.035626 51.9269136,152.538977 C54.3243739,152.588642 56.3832099,150.448536 56.4328748,148.091711 C56.9340388,143.978554 52.4325926,140.172416 48.4594004,141.508854 Z M174.865608,145.88388 C175.827302,147.789206 177.394004,149.283668 178.477601,151.10321 C179.493474,153.103351 176.77545,155.536931 174.906243,154.299824 C173.208607,152.800847 172.296578,150.620106 170.607972,149.098554 C169.894603,149.513933 169.20381,149.969947 168.535591,150.457566 C169.727549,152.444162 171.100106,154.331429 172.608113,156.08776 C173.637531,157.356473 175.466102,157.406138 176.924444,157.013333 C179.588289,156.16 182.225044,153.541305 181.276896,150.520776 C180.337778,148.457425 178.798166,146.714638 177.412063,144.940247 C176.527125,144.041764 175.533827,145.324021 174.865608,145.88388 Z M60.6273016,148.60642 C58.6994004,151.337989 56.812134,154.123739 55.2093122,157.058483 C56.5502646,158.124021 58.0086067,159.022504 59.4353439,159.970653 C60.2615873,160.498907 61.1058907,161.13552 62.1398236,161.112945 C62.3655732,160.674991 62.5913228,160.237037 62.8170723,159.808113 C61.5348148,158.652275 59.9500529,157.907302 58.6858554,156.733404 C59.9455379,154.376578 61.7244444,152.340317 62.8215873,149.893192 C62.2933333,149.170794 61.5167549,148.71478 60.6273016,148.60642 Z M69.2825397,154.137284 C68.3659965,155.554991 67.7790476,157.153298 66.9573192,158.625185 C66.2304056,160.101587 65.1919577,161.52381 65.1332628,163.225961 C67.4539683,164.359224 69.6798589,165.727266 72.1405291,166.539965 C72.2804938,165.930441 72.8674427,165.248677 72.4746384,164.639153 C71.4813404,164.070265 70.3841975,163.70455 69.4134744,163.095026 C68.9890653,162.801552 68.2124868,162.359083 68.614321,161.740529 C69.4631393,159.397249 70.8943915,157.315838 71.7251499,154.968042 C70.9801764,154.575238 70.1810229,153.803175 69.2825397,154.137284 Z M159.957108,155.509841 C160.214462,156.783069 160.954921,157.875697 161.591534,158.986384 C162.702222,160.805926 163.672945,162.711252 164.855873,164.485644 C167.388783,163.582646 169.673369,162.083668 171.912804,160.620811 C171.61933,160.069982 171.325855,159.523668 171.027866,158.981869 C169.479224,159.654603 168.057002,160.580176 166.539965,161.31612 C164.575944,159.352099 163.82194,156.530229 161.988854,154.453333 C161.275485,154.733263 160.598236,155.094462 159.957108,155.509841 Z M154.579753,158.209806 C154.015379,159.803598 153.956684,161.550899 153.207196,163.081481 C152.584127,161.952734 152.209383,160.665961 151.29284,159.731358 C150.570441,159.948078 149.852557,160.164797 149.134674,160.386032 C150.213757,163.71358 151.690159,166.905679 153.107866,170.102293 C153.965714,169.844938 154.877743,169.601129 155.451146,168.856155 C155.035767,167.587443 154.561693,166.33679 154.087619,165.086138 C155.9794,165.510547 157.478377,166.941799 159.370159,167.307513 C160.196402,167.023069 161.966279,166.964374 161.866949,165.858201 C160.092557,164.557884 157.591252,164.232804 156.182575,162.494533 C156.327055,160.697566 156.909489,158.97284 157.126208,157.189418 C156.245785,157.446772 155.396966,157.798942 154.579753,158.209806 Z M78.7008113,158.552945 C78.0371076,159.392734 77.7797531,160.458272 77.4140388,161.44254 C76.7367901,163.582646 75.779612,165.641481 75.3913228,167.867372 C77.5856085,168.829065 79.8250441,169.741093 82.1547795,170.319012 C83.0352028,170.160988 82.8816931,169.248959 82.9990829,168.585256 C81.5407407,168.034427 80.0598236,167.551323 78.6285714,166.932769 C78.7188713,166.232945 78.872381,165.542152 79.0800705,164.869418 C80.6693474,165.262222 82.1863845,166.007196 83.8479012,166.056861 C84.0059259,165.546667 84.1639506,165.040988 84.3310053,164.535309 C82.9132981,163.916755 81.4549559,163.406561 80.0191887,162.842187 C80.1907584,162.273298 80.0959436,161.329665 80.8318871,161.176155 C82.3353792,161.47866 83.7124515,162.205573 85.2249735,162.485503 C85.4055732,161.930159 85.5861728,161.374815 85.7712875,160.823986 C83.5273369,159.835203 81.2021164,158.51231 78.7008113,158.552945 Z M87.6088889,161.311605 C88.055873,163.501376 89.3923104,165.370582 89.9250794,167.528748 C89.8573545,169.17672 89.3065256,170.756966 89.094321,172.391393 C89.9882892,172.612628 90.9048325,172.761623 91.8258907,172.833862 C92.1916049,171.253616 92.16903,169.479224 93.1442681,168.120212 C94.6071252,166.55351 96.4853616,165.442822 97.9572487,163.880635 C96.9820106,163.582646 95.9932275,163.090511 94.9502646,163.221446 C93.9479365,163.81291 93.0855732,164.603034 92.1329101,165.266737 C91.5640212,164.169594 90.9996473,163.072451 90.4217284,161.984339 C89.5006702,161.690864 88.566067,161.45157 87.6088889,161.311605 Z M99.9302998,164.417919 C99.3659259,167.682257 99.0859965,170.991746 98.6299824,174.274145 C100.490159,174.703069 102.386455,175.014603 104.296296,175.091358 C105.497284,175.267443 106.711817,174.788854 107.34843,173.736861 C108.373333,172.463633 107.41164,170.924021 106.725362,169.754638 C107.443245,168.377566 108.039224,166.42709 106.440917,165.402187 C104.454321,164.426949 102.111041,164.291499 99.9302998,164.417919 Z M134.208113,164.454039 C134.880847,167.858342 135.531005,171.28522 136.479153,174.621799 C138.994004,174.28769 141.441129,173.578836 143.942434,173.131852 C144.100459,172.504268 144.055309,171.863139 143.983069,171.231041 C142.213192,171.37552 140.483951,171.799929 138.714074,171.935379 C137.932981,169.416014 137.526631,166.801834 136.754568,164.282469 C135.901235,164.264409 135.052416,164.327619 134.208113,164.454039 Z M114.396332,165.835626 C113.019259,169.226384 111.154568,172.441058 110.201905,175.985326 C111.023633,175.976296 111.845362,175.953721 112.671605,175.913086 C113.073439,175.339683 113.479788,174.770794 113.877108,174.19739 C115.18194,174.00776 116.504832,174.02582 117.818695,174.15224 C118.306314,174.793369 118.771358,175.461587 119.335732,176.053051 C120.134885,176.378131 121.019824,176.111746 121.846067,176.053051 C121.177848,173.858765 120.107795,171.822504 119.258977,169.700459 C118.712663,168.341446 118.166349,166.973404 117.326561,165.763386 C116.346808,165.722751 115.367055,165.740811 114.396332,165.835626 Z M124.266102,165.731781 C124.225467,169.15866 124.604727,172.581023 125.182646,175.953721 C127.805855,175.940176 130.438095,175.709912 133.00261,175.141023 C132.989065,174.612769 132.980035,174.08903 132.97552,173.569806 C131.169524,173.420811 129.368042,173.700741 127.557531,173.646561 C127.133122,171.009806 127.110547,168.327901 126.722257,165.691146 C125.905044,165.546667 125.074286,165.587302 124.266102,165.731781 Z" id="Shape"></path>
                <path d="M155.834921,14.9310758 C157.166843,12.2085362 158.259471,9.3686067 159.753933,6.72733686 C159.546243,8.52430335 159.180529,10.3032099 158.769665,12.0640564 C157.293263,18.5927337 155.96134,25.1575309 154.331429,31.6500882 C153.41037,30.1465961 152.493827,28.6295591 151.717249,27.0447972 C151.468924,26.2637037 151.315414,25.4600353 151.09418,24.6744268 C153.153016,21.6809877 154.259189,18.1773545 155.834921,14.9310758 Z" id="Shape"></path>
                <path d="M181.489101,24.8234215 C182.992593,22.8413404 184.36515,20.7463845 186.103422,18.949418 C185.281693,21.9834921 183.696931,24.7105467 182.405644,27.5504762 C176.346526,40.7477954 170.273862,53.9360847 164.201199,67.1243739 C162.810582,70.2442328 161.15358,73.2602469 160.151252,76.5381305 C157.139753,76.3214109 154.290794,74.8991887 151.234145,75.2197531 C149.328818,75.4184127 147.432522,75.6938272 145.549771,76.0234215 C143.098131,76.4388007 140.948995,77.7481481 138.655379,78.6195414 C138.109065,78.8182011 137.346032,78.9852557 136.908078,78.4840917 C133.661799,74.9307937 132.031887,70.2622928 128.966208,66.57806 C128.176085,65.6028219 128.094815,64.3070194 127.76522,63.1511817 C127.042822,60.1758025 125.2594,57.3900529 125.625115,54.2250441 C125.819259,50.6220811 128.641129,48.0395062 131.237249,45.8948854 C131.350123,53.222716 131.038589,60.5640917 131.363668,67.8874074 C132.889735,65.5847619 133.819824,62.975097 134.998236,60.4918519 C137.097707,55.9588007 139.170088,51.4167196 141.224409,46.8610935 C142.366702,44.2740035 143.834074,41.7997884 144.457143,39.0095238 C147.405432,37.5195767 150.453051,36.2011993 153.184621,34.309418 C153.36522,34.2236332 153.721905,34.0475485 153.897989,33.9572487 C151.170935,46.8972134 148.114286,59.7694533 145.450441,72.722963 C147.590547,70.3255026 149.419118,67.6797178 151.369594,65.1332628 C161.38836,51.6831041 171.41164,38.2329453 181.489101,24.8234215 Z" id="Shape"></path>
                <path d="M204.813545,39.5693827 C206.479577,38.0613757 208.028219,36.3817989 209.987725,35.2349912 C208.868007,37.2261023 207.40515,38.9869489 206.046138,40.8110053 C196.370511,53.7103351 186.622646,66.56 177.001199,79.4999647 C174.725644,78.9581658 173.967125,76.4749206 172.418483,75.0120635 C171.732205,74.1767901 170.544762,73.9194356 169.542434,74.2761199 C167.993792,75.1520282 167.032099,76.9399647 165.226102,77.3688889 C164.097354,77.4862787 163.027302,77.0031746 161.943704,76.79097 C164.196684,75.260388 166.124586,73.3234568 168.205996,71.5806702 C180.423563,60.925291 192.573404,50.197672 204.813545,39.5693827 Z" id="Shape"></path>
                <path d="M114.337637,124.695026 C114.567901,124.740176 115.0194,124.830476 115.249665,124.880141 C115.321905,125.132981 115.470899,125.63866 115.547654,125.891499 C114.95619,125.882469 114.369242,125.877954 113.782293,125.868924 C113.967407,125.47612 114.152522,125.083316 114.337637,124.695026 Z" id="Shape"></path>
                <path d="M191.300176,133.598589 C191.823915,132.89425 192.505679,132.235062 193.462857,132.483386 C194.045291,133.521834 193.286772,135.124656 192.004515,134.957601 C191.769735,134.501587 191.534956,134.045573 191.300176,133.598589 Z" id="Shape"></path>
                <path d="M194.284586,136.664268 C194.266526,135.418131 195.810653,134.984691 196.754286,134.564797 C198.068148,135.774815 196.826526,137.395697 195.539753,137.946526 C195.106314,137.526631 194.627725,137.156402 194.284586,136.664268 Z" id="Shape"></path>
                <path d="M182.915838,141.436614 C183.588571,141.093474 184.32,140.91739 185.074004,140.91739 C185.624832,142.037108 184.834709,142.976226 183.787231,143.34194 C183.277037,142.818201 182.748783,142.226737 182.915838,141.436614 Z" id="Shape"></path>
                <path d="M50.2383069,143.743774 C52.717037,143.45933 55.0151675,146.511464 53.4123457,148.683175 C52.202328,150.8594 48.63097,150.344691 47.8498765,148.060106 C46.8610935,146.267654 48.3736155,144.050794 50.2383069,143.743774 Z" id="Shape"></path>
                <path d="M185.719647,144.633228 C186.234356,143.946949 187.07866,143.685079 187.828148,143.35097 C189.588995,144.204303 188.103563,145.97418 186.911605,146.511464 C186.320141,146.050935 185.453263,145.513651 185.719647,144.633228 Z" id="Shape"></path>
                <path d="M102.26455,166.801834 C103.000494,166.521905 103.768042,166.679929 104.508501,166.846984 C104.567196,167.343633 104.630406,167.844797 104.693616,168.350476 C103.844797,168.571711 102.968889,168.630406 102.120071,168.377566 C102.169735,167.849312 102.2194,167.321058 102.26455,166.801834 Z" id="Shape"></path>
                <path d="M114.694321,172.057284 C114.924586,170.924021 115.15485,169.727549 115.963034,168.847125 C116.554497,169.858483 117.001481,170.942081 117.322046,172.070829 C116.446138,172.106949 115.565714,172.102434 114.694321,172.057284 Z" id="Shape"></path>
                <path d="M102.142646,170.671182 C103.483598,170.224198 105.406984,171.240071 104.711675,172.833862 C103.686772,173.009947 102.64381,173.000917 101.618907,172.833862 C101.736296,172.125009 101.451852,171.140741 102.142646,170.671182 Z" id="Shape"></path>
            </g>
            <g id="#cb1414ff" transform="translate(81.269841, 65.918871)" fill="#CB1414">
                <path d="M1.13326279,0.677248677 C5.87400353,0.907513228 10.0594004,3.74292769 13.0167196,7.30525573 C15.5270547,10.3348148 19.2880423,11.6983422 22.6833157,13.4411287 C25.5232451,15.1974603 28.4850794,16.7415873 31.3385538,18.4753439 C32.8330159,19.8343563 34.6931922,20.6831746 36.5985185,21.2972134 C39.6732275,22.4530511 42.9104762,23.04903 46.1432099,23.550194 C48.1885009,23.8165785 49.9764374,24.9001764 51.9178836,25.5051852 C53.2046561,25.2974956 53.9812346,24.1732628 54.4643386,23.05806 C53.8141799,21.8164374 52.4190476,20.6651146 52.6447972,19.1525926 C53.5161905,17.6581305 54.6900882,16.366843 55.6743563,14.9491358 C56.0942504,14.2854321 56.8031041,13.9242328 57.5480776,13.7481481 C58.9477249,14.0777425 60.2570723,13.5720635 61.4851499,12.9489947 C62.7628924,12.8541799 64.0632099,12.6194004 65.3364374,12.8722399 C64.1535097,13.0573545 62.957037,13.0392945 61.7695944,13.1521693 C63.3904762,13.292134 65.1558377,13.2379541 66.5238801,14.2628571 C69.1516049,15.870194 70.4112875,19.1164727 70.153933,22.1053968 C69.5037743,25.0265961 65.9640212,26.1688889 65.4222222,29.1171781 C66.8534744,28.9365785 68.2711817,28.692769 69.6888889,28.4444444 C72.1224691,27.9884303 74.6102293,28.2051499 77.0708995,28.17806 C77.2198942,27.5730511 77.4320988,26.9635273 77.3779189,26.3314286 C77.1025044,22.3717813 75.1610582,18.8455732 73.4905115,15.337425 C72.8268078,13.815873 71.192381,13.1837743 69.9552734,12.2311111 C68.6775309,11.3868078 67.7022928,10.1858201 66.9211993,8.88550265 C68.1763668,8.21728395 69.3457496,9.42730159 70.4880423,9.84268078 C70.7724868,9.35506173 71.2555908,8.89453263 71.1201411,8.27597884 C70.8673016,5.9913933 69.3818695,4.07703704 68.9755203,1.83308642 C68.9168254,1.10617284 69.5805291,0.659188713 69.9778483,0.1535097 C71.7522399,0.925573192 73.6756261,1.62991182 75.0526984,3.05664903 C76.3214109,4.92585538 76.1272663,7.31880071 76.4207407,9.46793651 C76.6555203,13.5810935 78.2267372,17.6310406 81.1118166,20.6109347 C81.3330511,21.3965432 81.4865608,22.2002116 81.7348854,22.9813051 C82.1592945,24.561552 83.0306878,25.9611993 83.6808466,27.4466314 C84.1007407,28.3902646 83.450582,29.3474427 83.2022575,30.2459259 C80.4706878,32.1377072 77.4230688,33.4560847 74.4747795,34.9460317 C71.7702998,35.7226102 69.106455,36.6210935 66.4380952,37.5015168 C64.2347795,38.2600353 62.8757672,40.2827513 61.2548854,41.8313933 C58.6587654,43.9760141 55.8368959,46.5585891 55.6427513,50.161552 C55.277037,53.3265608 57.0604586,56.1123104 57.7828571,59.0876896 C58.1124515,60.2435273 58.1937213,61.5393298 58.9838448,62.5145679 C62.0495238,66.1988007 63.6794356,70.8673016 66.9257143,74.4205996 C67.3636684,74.9217637 68.1267019,74.754709 68.6730159,74.5560494 C70.9666314,73.6846561 73.1157672,72.3753086 75.5674074,71.9599295 C77.4501587,71.6303351 79.346455,71.3549206 81.2517813,71.156261 C84.3084303,70.8356966 87.1573898,72.2579189 90.1688889,72.4746384 C90.7648677,72.5378483 91.3608466,72.6191182 91.9613404,72.727478 C93.0449383,72.9396825 94.1149912,73.4227866 95.243739,73.3053968 C97.0497354,72.8764727 98.0114286,71.0885362 99.5600705,70.2126279 C100.562399,69.8559436 101.749841,70.1132981 102.43612,70.9485714 C103.984762,72.4114286 104.74328,74.8946737 107.018836,75.4364727 C109.109277,75.8563668 110.982998,76.9760847 112.346526,78.6195414 C112.942504,79.5947795 113.538483,80.5971076 113.895168,81.6942504 C114.044162,82.7372134 112.897354,83.3647972 111.994356,83.1706526 C110.725644,82.8500882 109.673651,82.0419048 108.594568,81.3511111 C107.678025,80.9989418 106.720847,80.7867372 105.754638,80.6422575 C98.0340035,79.2832451 89.9657143,77.8519929 82.2450794,79.9695238 C78.8001411,80.890582 75.5854674,82.4617989 72.2308289,83.6311817 C70.3390476,84.2497354 68.5511111,86.1053968 66.4471252,85.2520635 C63.6839506,84.2948854 61.1555556,82.7597884 58.6723104,81.2427513 C56.852769,80.1140035 55.3628219,78.4931217 53.3671958,77.6488183 C53.222716,80.5564727 54.5365785,83.2158025 55.4350617,85.9022222 C55.9226808,87.1167549 56.2342152,88.584127 57.4126279,89.3426455 C59.8462081,90.7964727 63.1015168,88.9633862 65.3725573,90.8687125 C67.097284,92.2819048 68.7633157,93.7718519 70.5467372,95.1263492 C74.0503704,98.0430335 77.3779189,101.474427 81.7890653,102.986949 C83.6402116,103.686772 85.8028924,103.321058 87.527619,104.354991 C89.4690653,106.188078 89.1394709,109.145397 89.9882892,111.493192 C90.8371076,113.827443 91.7626808,116.229418 91.4285714,118.771358 C91.4872663,119.854956 90.7964727,121.557108 89.4555203,121.137213 C88.1506878,120.27485 87.2522046,118.947443 86.520776,117.59746 C84.9314991,114.626596 83.2880423,111.606067 80.8589771,109.226667 C78.7685362,107.145256 75.8744268,106.296437 73.3053968,104.991605 C66.9347443,102.088466 60.2525573,99.9393298 53.6877601,97.5283245 C51.6424691,96.747231 49.4617284,96.232522 47.5834921,95.0721693 C45.6871958,93.5731922 45.0912169,91.0944621 44.1566138,88.9814462 C42.499612,85.0850088 41.6688536,80.899612 39.9712169,77.0167196 C38.9508289,74.6418342 38.9463139,72.0141093 38.2961552,69.5398942 C37.5466667,66.5916049 37.1222575,63.5530159 37.2667372,60.5053968 C37.4247619,56.4960847 37.1132275,52.4596825 37.6866314,48.4729453 C38.0297707,45.8452205 39.0140388,43.3077954 39.0004938,40.6304056 C38.9598589,38.0297707 38.3097002,35.4923457 37.9891358,32.9188007 C37.7724162,31.8803527 37.7859612,30.6658201 36.9642328,29.8802116 C35.6232804,28.5076543 33.9482187,27.5143563 32.3453968,26.4804233 C29.3474427,24.7150617 25.8889594,23.7894885 23.1393298,21.5952028 C18.6378836,17.9967549 14.6692063,13.7978131 10.3212698,10.0187654 C8.18567901,8.2443739 6.46546737,6.00945326 4.18088183,4.40663139 C2.93925926,3.52169312 1.6389418,2.72253968 0.38377425,1.85566138 C0.632098765,1.46285714 0.884938272,1.07005291 1.13326279,0.677248677 Z" id="Shape"></path>
            </g>
        </g>
    </g>
</svg>