<?xml version="1.0" encoding="UTF-8" standalone="no"?>
<!-- Created with Inkscape (http://www.inkscape.org/) -->

<svg
   width="256"
   height="256"
   viewBox="0 0 67.733332 67.733335"
   version="1.1"
   id="svg1312"
   inkscape:version="1.1 (c68e22c387, 2021-05-23)"
   sodipodi:docname="sandefjord.svg"
   xmlns:inkscape="http://www.inkscape.org/namespaces/inkscape"
   xmlns:sodipodi="http://sodipodi.sourceforge.net/DTD/sodipodi-0.dtd"
   xmlns="http://www.w3.org/2000/svg"
   xmlns:svg="http://www.w3.org/2000/svg">
  <sodipodi:namedview
     id="namedview1314"
     pagecolor="#ffffff"
     bordercolor="#666666"
     borderopacity="1.0"
     inkscape:pageshadow="2"
     inkscape:pageopacity="0.0"
     inkscape:pagecheckerboard="0"
     inkscape:document-units="mm"
     showgrid="false"
     units="px"
     width="256px"
     inkscape:zoom="1.2432572"
     inkscape:cx="249.74719"
     inkscape:cy="274.27953"
     inkscape:window-width="1920"
     inkscape:window-height="986"
     inkscape:window-x="-11"
     inkscape:window-y="-11"
     inkscape:window-maximized="1"
     inkscape:current-layer="g1480" />
  <defs
     id="defs1309" />
  <g
     inkscape:label="Lag 1"
     inkscape:groupmode="layer"
     id="layer1">
    <g
       id="g1480">
      <path
         style="display:inline;fill:#dc9597;stroke-width:0.396101"
         d="M 0,33.866665 V 0 H 33.866665 67.73333 V 33.866665 67.73333 H 33.866665 0 Z m 32.48031,23.813102 v -6.884748 l -1.835689,-0.462231 c -1.00963,-0.25423 -2.517617,-0.810126 -3.351082,-1.235329 -0.833465,-0.425203 -1.700738,-0.773095 -1.927273,-0.773095 -0.242863,0 -0.411881,1.056529 -0.411881,2.574659 0,2.276355 -0.08826,2.574659 -0.761812,2.574659 -0.418996,0 -1.286555,-0.441543 -1.927907,-0.981207 l -1.166096,-0.981202 -0.25065,1.828693 c -0.602379,4.394835 -0.144982,9.623951 0.658637,7.529756 0.25944,-0.676094 2.635491,-1.833486 3.266735,-1.591254 0.834675,0.320295 -0.05148,2.998637 -1.388534,4.196773 l -1.215581,1.089278 h 5.155567 5.155566 z m 13.405733,5.991556 c -1.223271,-1.034071 -1.918794,-2.280233 -1.918794,-3.437879 0,-1.083701 1.518744,-1.09743 2.880794,-0.02602 0.553916,0.435712 1.112692,0.792203 1.241722,0.792203 0.12903,0 0.234599,-2.138947 0.234599,-4.753216 0,-2.614269 -0.07994,-4.753216 -0.177643,-4.753216 -0.0977,0 -0.658467,0.445614 -1.246143,0.990253 -0.587676,0.544639 -1.48809,0.990253 -2.000914,0.990253 -0.88352,-1.5e-5 -0.932415,-0.135031 -0.932415,-2.574674 0,-1.51813 -0.169016,-2.574659 -0.411882,-2.574659 -0.226534,0 -1.074203,0.33789 -1.883707,0.75087 -0.809505,0.412979 -2.22837,0.954588 -3.153031,1.203573 l -1.681204,0.452701 v 6.916503 6.916508 l 5.050292,-0.002 5.050292,-0.002 -1.051966,-0.889263 z M 40.612786,48.171588 c 3.024463,-1.384644 4.996898,-3.018863 6.65051,-5.510134 5.238804,-7.892594 2.435686,-18.400616 -6.018835,-22.562765 -2.439907,-1.201162 -2.876406,-1.283875 -6.775315,-1.283875 -3.495476,0 -4.481627,0.144916 -6.116347,0.898801 -7.994672,3.686913 -11.526838,12.981514 -7.878978,20.73288 1.935247,4.112225 5.697892,7.329974 9.997998,8.55012 2.78003,0.788824 7.444797,0.40932 10.140967,-0.825027 z m -9.764484,-1.160866 c -2.335968,-0.661565 -5.556956,-2.724298 -6.796625,-4.352592 -2.358489,-3.097848 -2.857998,-4.59916 -2.859161,-8.593414 -9.85e-4,-3.386853 0.116251,-3.994556 1.172936,-6.080038 4.185611,-8.260754 15.088071,-10.003497 21.633485,-3.458083 3.030508,3.030509 4.066955,5.761166 3.845792,10.132273 -0.134568,2.659641 -0.375211,3.571935 -1.497639,5.677649 -2.253429,4.227518 -6.137619,6.704661 -11.007627,7.02012 -1.542397,0.09991 -3.430443,-0.04551 -4.491161,-0.345915 z M 33.6011,44.401115 c 0.09932,-0.677476 -0.04279,-0.861889 -0.594152,-0.771063 -0.398579,0.06565 -0.947495,-0.02036 -1.219815,-0.191194 -0.679096,-0.425959 -1.287329,0.0219 -1.287329,0.947871 0,0.82803 1.180316,1.097161 1.200349,0.273698 0.0066,-0.27232 0.19934,-0.173168 0.428257,0.220339 0.533789,0.917581 1.304665,0.666508 1.47269,-0.479651 z m 2.587363,0.556388 c -0.125399,-0.326784 -0.03068,-0.594152 0.210482,-0.594152 0.241164,0 0.43848,0.178245 0.43848,0.396101 0,0.217856 0.267368,0.396101 0.594152,0.396101 0.326784,0 0.594152,-0.34597 0.594152,-0.768824 0,-0.422854 0.178246,-0.878989 0.396101,-1.013632 0.217856,-0.134642 0.396102,0.116613 0.396102,0.558345 0,0.570069 0.182064,0.733282 0.627363,0.562404 0.505118,-0.193832 0.524412,-0.306 0.09903,-0.575654 -0.555032,-0.351833 -0.205774,-0.486044 0.957042,-0.36776 0.85826,0.08731 0.907246,-0.892927 0.07898,-1.58033 -0.51728,-0.429302 -0.647681,-0.381715 -0.82637,0.301584 -0.147885,0.565522 -0.441827,0.75127 -0.970203,0.613094 -0.416922,-0.109027 -0.758039,-0.0048 -0.758039,0.231636 0,0.236429 -0.249339,0.33419 -0.554086,0.217245 -0.304748,-0.116941 -0.666947,-0.03002 -0.804888,0.193183 -0.137941,0.223195 -0.4679,0.322652 -0.733243,0.221017 -0.29268,-0.112105 -0.50491,0.206301 -0.539565,0.8095 -0.03465,0.603215 0.155201,0.994294 0.482695,0.994294 0.317103,0 0.445753,-0.245132 0.311821,-0.594152 z m -6.099161,-1.170955 c 0.263286,-0.317238 0.363715,-0.762852 0.223175,-0.990253 -0.43465,-0.703278 -0.89995,-0.458828 -1.097924,0.576802 -0.21196,1.108799 0.154078,1.281808 0.874749,0.413451 z m -1.331553,-2.089486 c -0.317177,-0.317178 -0.480827,-0.101283 -0.820071,1.081883 l -0.28393,0.990254 0.671227,-0.916844 c 0.369175,-0.504261 0.563923,-1.024144 0.432774,-1.155293 z m 14.438247,-3.493355 c 2.385953,-2.285885 2.361034,-5.440761 -0.05905,-7.477129 -4.274986,-3.597163 -10.234669,1.182024 -7.666645,6.148034 1.484468,2.870645 5.411501,3.546235 7.725695,1.329095 z m -5.045608,0.03447 C 35.53171,37.099235 34.989819,33.643741 37.09911,31.53445 c 0.804796,-0.804796 1.425396,-1.034646 2.79356,-1.034646 4.588564,0 5.715065,5.988304 1.460877,7.765817 -1.589765,0.664246 -1.613265,0.664045 -3.203159,-0.02745 z m 1.287025,-3.579308 c -0.11691,-0.435712 -0.214996,-1.01501 -0.217971,-1.28733 -0.01077,-0.985801 -0.674161,-0.464284 -1.076346,0.846157 -0.391118,1.274379 -0.363803,1.338591 0.547613,1.287329 0.755961,-0.04252 0.914216,-0.221851 0.746704,-0.846156 z m 2.38976,0.04951 c 0.0056,-0.462943 -0.179006,-0.97267 -0.410246,-1.132726 -0.867204,-0.600244 -1.410691,-0.278298 -1.410691,0.83565 0,0.922174 0.172217,1.138792 0.905373,1.138792 0.655864,0 0.908185,-0.231968 0.915564,-0.841716 z M 26.53879,34.460817 c 0,-2.748279 -0.159216,-4.753216 -0.377463,-4.753216 -0.700191,0 -2.395246,0.916315 -2.395246,1.294825 0,0.206504 0.445614,0.263619 0.990253,0.126924 l 0.990253,-0.248538 v 4.166611 c 0,2.513673 0.157138,4.16661 0.396102,4.16661 0.242062,0 0.396101,-1.848473 0.396101,-4.753216 z m 7.922027,4.357115 c 0,-0.223211 -1.117432,-0.396102 -2.560093,-0.396102 H 29.34063 l 2.362043,-2.297016 c 2.033006,-1.977039 2.362043,-2.498097 2.362043,-3.740502 0,-2.681296 -3.198688,-3.643097 -5.383123,-1.618631 -0.772043,0.715506 -0.973972,1.113986 -0.623678,1.230751 0.284905,0.09497 0.917809,-0.202922 1.406453,-0.661979 1.510024,-1.418594 3.808145,-0.819035 3.808145,0.99351 0,0.734398 -0.752767,1.719718 -2.772709,3.629288 -1.524991,1.441663 -2.77271,2.76421 -2.77271,2.938994 0,0.174783 1.515088,0.317788 3.366862,0.317788 1.980506,0 3.366861,-0.163101 3.366861,-0.396101 z M 32.35905,26.679561 c 0.148074,-0.385874 -0.01847,-0.847721 -0.408533,-1.132945 -0.891595,-0.651951 -0.828091,-0.868092 0.232717,-0.792076 0.619174,0.04437 0.931695,0.356673 1.023794,1.023082 0.212996,1.541197 0.857688,1.87515 0.857688,0.444287 0,-0.697138 0.178245,-1.267524 0.396101,-1.267524 0.217856,0 0.396101,-0.171521 0.396101,-0.381157 0,-0.519029 -4.29545,-0.435172 -4.620144,0.09019 -0.142515,0.230594 0.14548,0.746886 0.639989,1.147315 l 0.899108,0.728053 H 30.91641 c -0.472704,0 -0.749299,0.178246 -0.614657,0.396101 0.39019,0.631341 1.783401,0.458431 2.057297,-0.25533 z m 3.686172,-0.932974 c 0,-0.871423 -0.178245,-1.584405 -0.396101,-1.584405 -0.217856,0 -0.396101,0.712982 -0.396101,1.584405 0,0.871423 0.178245,1.584406 0.396101,1.584406 0.217856,0 0.396101,-0.712983 0.396101,-1.584406 z m 1.188304,0.990254 c 0,-0.326784 0.267369,-0.594152 0.594152,-0.594152 0.83891,0 0.743583,-0.786791 -0.09902,-0.81731 -0.531096,-0.01924 -0.484787,-0.108871 0.198051,-0.383338 1.225505,-0.492593 1.116076,-0.779859 -0.297076,-0.779859 -1.122287,0 -1.188304,0.08802 -1.188304,1.584405 0,0.871423 0.178245,1.584406 0.396101,1.584406 0.217856,0 0.396101,-0.267369 0.396101,-0.594152 z m 24.162182,14.65575 v -4.951267 h -5.117843 -5.117847 l -0.280673,1.287329 c -0.154373,0.708031 -0.70327,2.245297 -1.219779,3.416148 -0.516504,1.170852 -0.939101,2.195764 -0.939101,2.277583 0,0.08182 2.099286,0.148764 4.66508,0.148764 4.864667,0 5.853396,0.285157 7.141394,2.059632 0.284674,0.392192 0.596604,0.713077 0.693178,0.713077 0.09658,0 0.175591,-2.22807 0.175591,-4.951266 z m -46.517093,2.246892 c 2.927405,-0.07134 5.322554,-0.26067 5.322554,-0.420727 0,-0.160056 -0.337457,-0.992911 -0.749903,-1.850791 -0.412447,-0.85788 -0.975398,-2.317324 -1.251003,-3.243211 l -0.501098,-1.68343 H 12.414494 7.1298242 v 4.827322 4.827323 l 1.213119,-1.163385 C 9.544862,43.779941 9.6052037,43.768002 14.878615,43.639483 Z M 18.00602,30.646985 c 0.148294,-0.790474 0.693059,-2.394684 1.21059,-3.564913 l 0.940964,-2.127687 H 16.06982 c -5.22182,0 -6.3481304,-0.241783 -7.7754959,-1.669148 l -1.1644999,-1.1645 v 4.981736 4.981736 h 5.3032858 5.303285 z m 43.389688,-3.514043 c 0,-2.723197 -0.135367,-4.951267 -0.300819,-4.951267 -0.165451,0 -0.531671,0.369652 -0.813826,0.821448 -0.887057,1.420407 -2.891278,1.951262 -7.366898,1.951262 h -4.149871 l 0.941141,2.079532 c 0.517629,1.143742 1.06234,2.747953 1.210474,3.564912 l 0.269329,1.48538 h 5.105235 5.105235 z M 30.99493,17.57376 32.48031,17.327209 V 10.24801 3.1688108 h -4.992299 -4.9923 l 1.229337,1.4001374 c 1.524369,1.7361613 1.760711,4.1452814 0.406665,4.1452814 -0.45247,0 -1.3357,-0.5130273 -1.962733,-1.1400609 -0.627034,-0.6270336 -1.237182,-1.04294 -1.355886,-0.9242363 -0.304705,0.3047053 -0.26995,9.0079616 0.0372,9.3151106 0.139163,0.139162 0.776698,-0.187621 1.416746,-0.726186 0.640048,-0.538565 1.595661,-0.979209 2.123586,-0.979209 0.923729,0 0.959862,0.103692 0.959862,2.754487 v 2.754487 l 2.079532,-0.974155 c 1.143743,-0.535786 2.747953,-1.085103 3.564912,-1.220707 z m 12.972319,-0.729649 v -2.960956 l 1.041988,0.396162 c 0.573092,0.21789 1.553443,0.760352 2.178558,1.205473 l 1.136569,0.809309 v -4.780188 c 0,-2.6291035 -0.107953,-4.7801881 -0.239895,-4.7801881 -0.131945,0 -0.769478,0.445614 -1.416747,0.9902533 -1.573042,1.3236281 -2.700473,1.3127563 -2.700473,-0.02604 0,-1.3475407 0.634899,-2.5506082 1.918794,-3.6359299 l 1.051966,-0.8892605 -5.050292,-0.00197 -5.050292,-0.00197 v 7.0857412 7.085742 l 1.287329,0.246988 c 0.708032,0.135843 2.178558,0.676358 3.267837,1.201145 1.089278,0.524787 2.11419,0.968216 2.277582,0.985399 0.163392,0.01718 0.297076,-1.301189 0.297076,-2.929715 z"
         id="path1498" />
      <path
         style="display:inline;fill:#d58184;stroke-width:0.396101"
         d="M 0,33.866665 V 0 H 33.866665 67.73333 V 33.866665 67.73333 H 33.866665 0 Z m 32.48031,23.827956 v -6.869895 l -3.069785,-1.062882 c -1.688382,-0.584583 -3.381715,-1.167953 -3.762963,-1.296377 -0.613853,-0.206777 -0.693177,0.06642 -0.693177,2.387359 0,2.321938 -0.08689,2.620856 -0.761812,2.620856 -0.418996,0 -1.288441,-0.443131 -1.932098,-0.984732 l -1.170287,-0.984732 -0.246459,1.232295 c -0.363457,1.817289 -0.299776,8.659195 0.0806,8.659195 0.179881,0 0.745688,-0.445614 1.25735,-0.990253 1.163443,-1.238427 2.77271,-1.34196 2.77271,-0.17838 0,1.145137 -1.024835,2.989721 -2.06638,3.719249 -0.818823,0.573523 -0.504141,0.618195 4.354853,0.618195 h 5.237452 z m 13.419264,5.964426 c -1.22467,-1.034264 -1.932325,-2.288784 -1.932325,-3.425603 0,-1.175672 1.622241,-1.068558 3.138418,0.207221 l 1.218697,1.025466 v -4.98648 c 0,-2.742562 -0.147175,-4.986476 -0.327057,-4.986476 -0.179877,0 -0.745684,0.445614 -1.257348,0.990253 -0.511664,0.54464 -1.34484,0.990254 -1.851501,0.990254 -0.876687,0 -0.921209,-0.134326 -0.921209,-2.779384 v -2.77938 l -1.97889,1.002778 c -1.088392,0.551532 -2.648041,1.141659 -3.465888,1.311397 l -1.486995,0.308614 -0.108165,7.013406 -0.108166,7.013406 5.059434,-0.01426 5.05943,-0.01426 -1.038435,-0.87698 z M 40.924133,48.020269 c 3.258845,-1.524998 6.078084,-4.271307 7.625783,-7.42852 1.059623,-2.161564 1.160803,-2.730496 1.160803,-6.527033 0,-3.683376 -0.121417,-4.418114 -1.061576,-6.423998 -1.482357,-3.162709 -4.263868,-5.995811 -7.404682,-7.542029 -2.439907,-1.201162 -2.876406,-1.283875 -6.775315,-1.283875 -3.692409,0 -4.425542,0.120994 -6.432326,1.061574 -3.162709,1.482361 -5.995812,4.263871 -7.542029,7.404685 -1.188858,2.414912 -1.283876,2.901686 -1.283876,6.577263 0,3.637362 0.105163,4.191326 1.257383,6.623503 1.477412,3.118613 4.013399,5.804524 6.82642,7.22999 2.82033,1.429169 4.533049,1.784088 7.988633,1.655434 2.378524,-0.08856 3.548687,-0.367986 5.640782,-1.346994 z m -9.480547,-0.839133 c -3.953383,-1.023347 -7.514834,-3.946393 -9.224548,-7.571001 -0.868593,-1.841427 -1.027616,-2.730226 -1.027616,-5.74347 0,-3.30918 0.09746,-3.744664 1.358564,-6.070654 1.491278,-2.75052 3.549473,-4.734676 6.335479,-6.107575 1.495369,-0.736893 2.4706,-0.893115 5.575352,-0.893115 3.310001,0 4.031951,0.132096 5.997572,1.097386 2.607377,1.280448 5.203841,3.934144 6.415595,6.557007 0.687299,1.487672 0.855317,2.592358 0.85403,5.615002 -0.0016,3.346822 -0.123354,3.994431 -1.102513,5.856021 -2.335794,4.440863 -6.397215,7.126307 -11.215647,7.415873 -1.502321,0.09028 -3.287142,0.02032 -3.966268,-0.155474 z m 2.160799,-2.805082 c 0.109963,-0.752288 -0.01023,-0.877832 -0.674186,-0.704201 -0.444403,0.116212 -0.871803,0.01992 -0.949778,-0.214018 -0.238144,-0.714432 -1.480617,0.03501 -1.480617,0.893086 0,0.85481 1.179683,1.158993 1.200349,0.309506 0.0066,-0.27232 0.19934,-0.173168 0.428257,0.220339 0.538387,0.925483 1.30525,0.663252 1.475975,-0.504712 z m 2.584078,0.581449 c -0.125399,-0.326784 -0.03068,-0.594152 0.210482,-0.594152 0.241164,0 0.43848,0.178245 0.43848,0.396101 0,0.217856 0.267368,0.396101 0.594152,0.396101 0.326784,0 0.594152,-0.34597 0.594152,-0.768824 0,-0.422854 0.178246,-0.878989 0.396101,-1.013632 0.217856,-0.134642 0.396102,0.116613 0.396102,0.558345 0,0.570069 0.182064,0.733282 0.627363,0.562404 0.505118,-0.193832 0.524412,-0.306 0.09903,-0.575654 -0.555032,-0.351833 -0.205774,-0.486044 0.957042,-0.36776 0.74284,0.07556 0.898215,-0.626672 0.335295,-1.515413 -0.395943,-0.625119 -1.226523,-0.264746 -1.226523,0.53217 0,0.338679 -0.289473,0.457993 -0.792203,0.326527 -0.435712,-0.113943 -0.792203,-0.0137 -0.792203,0.2227 0,0.236429 -0.249339,0.33419 -0.554086,0.217245 -0.304748,-0.116941 -0.666947,-0.03002 -0.804888,0.193183 -0.137941,0.223195 -0.494432,0.312318 -0.792202,0.198051 -0.297771,-0.114264 -0.676094,0.01018 -0.840719,0.27655 -0.200475,0.324379 -0.134291,0.382317 0.20042,0.175453 0.367586,-0.22718 0.429085,-0.08624 0.23256,0.53295 -0.193269,0.608939 -0.09887,0.841807 0.341234,0.841807 0.378076,0 0.522096,-0.224938 0.380415,-0.594152 z m -6.099161,-1.170955 c 0.263286,-0.317238 0.363715,-0.762852 0.223175,-0.990253 -0.43465,-0.703278 -0.89995,-0.458828 -1.097924,0.576802 -0.21196,1.108799 0.154078,1.281808 0.874749,0.413451 z m -1.173904,-1.875512 c 0,-0.176218 -0.178245,-0.320395 -0.396101,-0.320395 -0.217856,0 -0.396102,0.163669 -0.396102,0.363704 0,0.20004 -0.103673,0.690215 -0.230386,1.089279 -0.21082,0.663953 -0.177182,0.660277 0.396101,-0.04331 0.344569,-0.422885 0.626488,-0.913061 0.626488,-1.089278 z M 26.53879,34.43744 c 0,-2.669591 -0.161304,-4.729839 -0.370315,-4.729839 -0.203674,0 -0.827533,0.173834 -1.386355,0.386297 -1.332817,0.506736 -1.354287,1.368884 -0.02579,1.035452 l 0.990253,-0.248538 v 4.388038 c 0,2.824494 0.141139,4.300809 0.396102,4.143234 0.228286,-0.141089 0.396101,-2.248688 0.396101,-4.974644 z m 7.824128,4.479517 c 0.11941,-0.36069 -0.506712,-0.495127 -2.305995,-0.495127 h -2.469912 l 2.238853,-2.347202 c 2.094802,-2.196181 2.456665,-2.901646 2.250033,-4.38652 -0.301168,-2.164226 -3.655532,-2.72928 -5.464326,-0.920486 -1.307537,1.307537 -0.563097,1.744435 0.947594,0.556125 1.249979,-0.983234 2.244344,-1.048057 3.090903,-0.201498 1.08993,1.089929 0.689581,1.974853 -2.150264,4.752908 -1.524991,1.491808 -2.77271,2.949673 -2.77271,3.239698 0,0.722467 6.39426,0.531776 6.635824,-0.197898 z m 7.837842,0.0649 c 3.598917,-1.707799 3.718865,-6.435532 0.222534,-8.771234 -1.561166,-1.042925 -2.696325,-1.124072 -4.599664,-0.328807 -3.651763,1.525804 -3.931988,6.842381 -0.471848,8.952152 1.538479,0.938065 3.084442,0.985217 4.848978,0.147889 z m -3.168268,-0.452859 c -2.233345,-0.567302 -3.694508,-2.888649 -3.159643,-5.01972 0.406954,-1.621434 2.34144,-3.009474 4.194248,-3.009474 4.427462,0 5.427301,6.035659 1.28645,7.765817 -0.727028,0.303771 -1.372155,0.531634 -1.433614,0.506363 -0.06146,-0.02527 -0.460809,-0.134615 -0.887441,-0.242986 z m 1.672467,-3.020153 c 0.270984,-0.16748 0.489581,-0.115285 0.489581,0.116899 0,0.230713 0.157387,0.419478 0.349749,0.419478 0.192363,0 0.321266,-0.579298 0.286453,-1.287329 -0.04939,-1.004368 -0.25686,-1.315151 -0.943902,-1.413904 -0.724564,-0.104146 -0.88777,0.07132 -0.921042,0.990253 l -0.04044,1.116828 -0.412963,-1.287329 c -0.490336,-1.528519 -0.91551,-1.642631 -1.243987,-0.333874 -0.131616,0.5244 -0.339641,1.214932 -0.462276,1.534515 -0.171089,0.445851 0.08328,0.565467 1.093134,0.51405 0.723859,-0.03685 1.536421,-0.203169 1.805691,-0.369587 z M 32.35905,26.679561 c 0.14874,-0.387611 -0.02045,-0.84917 -0.417761,-1.139693 -0.616078,-0.450487 -0.607509,-0.504012 0.110757,-0.691842 1.000472,-0.26163 1.220467,-0.01636 1.220467,1.36068 0,0.617258 0.178246,1.122287 0.396101,1.122287 0.217856,0 0.396102,-0.515667 0.396102,-1.145926 0,-0.653201 0.255473,-1.24396 0.594152,-1.373923 0.45776,-0.175659 0.594152,0.0874 0.594152,1.145926 0,0.755657 0.178245,1.373923 0.396101,1.373923 0.217856,0 0.396101,-0.712983 0.396101,-1.584406 V 24.162182 H 33.29589 c -3.071666,0 -3.822838,0.511898 -2.419127,1.648555 l 0.899108,0.728053 H 30.91641 c -0.472704,0 -0.749299,0.178246 -0.614657,0.396101 0.39019,0.631341 1.783401,0.458431 2.057297,-0.25533 z m 4.874476,0.05728 c 0,-0.326784 0.267369,-0.594152 0.594152,-0.594152 0.83891,0 0.743583,-0.786791 -0.09902,-0.81731 -0.531096,-0.01924 -0.484787,-0.108871 0.198051,-0.383338 1.225505,-0.492593 1.116076,-0.779859 -0.297076,-0.779859 -1.122287,0 -1.188304,0.08802 -1.188304,1.584405 0,0.871423 0.178245,1.584406 0.396101,1.584406 0.217856,0 0.396101,-0.267369 0.396101,-0.594152 z M 9.5108068,44.163038 c 0.8373232,-0.432998 2.4808302,-0.59189 6.1221982,-0.59189 h 4.97761 l -0.95678,-1.888116 C 19.127606,40.644569 18.493874,39.04036 18.245541,38.118121 L 17.794026,36.441324 H 12.461925 7.1298242 v 5.039403 c 0,4.679526 0.044147,4.976372 0.618197,4.156798 0.3400086,-0.485426 1.1332622,-1.148947 1.7627856,-1.474487 z M 61.395708,41.392591 v -4.951267 h -5.076981 -5.076981 l -0.707948,2.277582 c -0.389372,1.252671 -1.06032,2.856881 -1.490997,3.564913 l -0.783049,1.287329 h 4.989392 4.989387 l 1.479565,1.375636 c 0.813759,0.756601 1.524123,1.380461 1.578587,1.386355 0.05446,0.0059 0.09902,-2.217352 0.09902,-4.940548 z M 17.987773,30.79688 c 0.138257,-0.708032 0.672933,-2.312242 1.188168,-3.564913 l 0.936791,-2.277582 h -4.28711 c -4.690733,0 -5.9642485,-0.315053 -7.6065191,-1.881763 L 7.1298242,22.033461 v 5.025374 5.025374 h 5.3032858 5.303285 z m 43.407935,-3.663938 c 0,-2.723197 -0.108032,-4.951267 -0.240069,-4.951267 -0.132036,0 -0.585758,0.439475 -1.008272,0.97661 -1.044099,1.32736 -2.994779,1.791274 -7.543001,1.793891 l -3.840072,0.0022 0.941141,2.079532 c 0.517629,1.143742 1.06234,2.747953 1.210474,3.564912 l 0.269329,1.48538 h 5.105235 5.105235 z m -34.013556,-8.29093 c 1.170069,-0.529681 2.795819,-1.084255 3.612778,-1.232387 l 1.48538,-0.269331 V 10.254552 3.1688108 h -4.992299 -4.9923 l 1.229337,1.4001374 c 0.884513,1.007405 1.229337,1.7971831 1.229337,2.81565 0,1.3421652 -0.05644,1.4022522 -1.089279,1.1596085 C 23.266003,8.4034592 22.383325,7.8493993 21.903599,7.3129621 21.423873,6.7765248 20.933697,6.3376215 20.81432,6.3376215 c -0.119377,0 -0.21705,2.2280701 -0.21705,4.9512665 0,2.723197 0.107953,4.951267 0.239896,4.951267 0.131943,0 0.769479,-0.445614 1.416746,-0.990253 0.647267,-0.54464 1.519665,-0.990254 1.938661,-0.990254 0.679128,0 0.761812,0.300938 0.761812,2.77271 0,1.52499 0.06758,2.772709 0.150184,2.772709 0.0826,0 1.107514,-0.433375 2.277583,-0.963055 z m 16.585097,-1.809654 c 0,-2.471772 0.08268,-2.77271 0.76181,-2.77271 0.419,0 1.291397,0.445614 1.938663,0.990254 0.647269,0.544639 1.284802,0.990253 1.416747,0.990253 0.131942,0 0.239895,-2.138947 0.239895,-4.753216 0,-2.6142689 -0.107953,-4.7532161 -0.239895,-4.7532161 -0.131945,0 -0.769478,0.445614 -1.416747,0.9902533 -0.647266,0.5446394 -1.519663,0.9902534 -1.938663,0.9902534 -1.58008,0 -0.581504,-3.4088494 1.448531,-4.9448582 0.677919,-0.5129424 0.212496,-0.5767326 -4.289873,-0.5879633 l -5.050292,-0.012597 v 7.0903159 7.090317 l 1.881481,0.46132 c 1.034815,0.253725 2.505341,0.798769 3.267837,1.211208 0.762495,0.412439 1.520038,0.757361 1.68343,0.766492 0.163392,0.0091 0.297076,-1.231116 0.297076,-2.756106 z"
         id="path1496" />
      <path
         style="display:inline;fill:#bf3c40;stroke-width:0.396101"
         d="M 0,33.866665 V 0 H 33.866665 67.73333 V 33.866665 67.73333 H 33.866665 0 Z m 44.924745,30.838977 1.860266,-0.254978 -1.203106,-1.241287 c -0.661707,-0.682712 -1.317984,-1.815689 -1.458394,-2.517735 -0.232012,-1.160066 -0.166786,-1.27644 0.715435,-1.27644 0.533893,0 1.389349,0.445614 1.901013,0.990253 0.511664,0.544639 1.077471,0.990253 1.257348,0.990253 0.179882,0 0.327057,-2.22807 0.327057,-4.951266 0,-2.723197 -0.107953,-4.951267 -0.239895,-4.951267 -0.131945,0 -0.769478,0.445614 -1.416747,0.990253 -0.647266,0.54464 -1.519663,0.990254 -1.938663,0.990254 -0.679128,0 -0.76181,-0.300938 -0.76181,-2.77271 0,-1.52499 -0.07894,-2.772709 -0.175409,-2.772709 -0.09647,0 -0.767692,0.349456 -1.491595,0.776568 -0.723903,0.427112 -2.293744,1.026588 -3.48853,1.332168 l -2.172341,0.555596 -0.108039,6.955183 c -0.09907,6.377501 -0.04972,6.97037 0.594152,7.138063 1.106908,0.288291 5.754345,0.300086 7.799258,0.01981 z M 32.390425,57.551113 32.28226,50.537707 30.888632,50.24849 c -1.120948,-0.232627 -3.624763,-1.226227 -5.637171,-2.237026 -0.163392,-0.08207 -0.297076,1.132679 -0.297076,2.699438 v 2.848662 l -1.089279,-0.270355 c -0.599103,-0.148696 -1.457258,-0.613632 -1.90701,-1.033194 -0.449753,-0.419563 -0.939928,-0.76284 -1.089279,-0.76284 -0.149351,0 -0.271547,2.335659 -0.271547,5.190349 v 5.19035 l 1.400137,-1.229336 c 2.917714,-2.561786 4.189121,-0.614947 1.524532,2.334435 l -1.432446,1.585546 h 5.204548 5.204549 z m 8.886005,-9.536108 c 7.701101,-3.79124 10.90707,-13.106891 7.204343,-20.93381 -2.819878,-5.960735 -9.863714,-9.596657 -16.389828,-8.460183 -5.148191,0.896519 -9.645968,4.286954 -11.762509,8.866609 -1.001481,2.166949 -1.117521,2.849895 -1.117521,6.577095 0,3.652382 0.125518,4.42667 1.030305,6.355695 1.821373,3.883208 5.042165,6.805893 9.200537,8.348957 1.594068,0.591518 2.847792,0.732764 5.653511,0.636923 3.112547,-0.106321 3.957222,-0.296446 6.181162,-1.391286 z m -9.452164,-0.878949 c -3.898701,-0.810174 -7.762889,-3.842238 -9.519226,-7.469334 -0.912507,-1.884464 -1.084772,-2.763386 -1.097967,-5.602006 -0.01348,-2.899133 0.137396,-3.678515 1.086028,-5.610245 1.411717,-2.874723 3.864058,-5.330484 6.622297,-6.631534 1.81181,-0.854623 2.74535,-1.027616 5.545419,-1.027616 2.814178,0 3.734101,0.172174 5.604026,1.048861 2.848959,1.33569 5.280819,3.76755 6.616509,6.616507 1.409047,3.005423 1.492624,7.98917 0.181778,10.839388 -2.562756,5.572288 -9.225682,9.043997 -15.038864,7.835979 z M 36.441324,45.1114 c 0,-0.179897 0.222807,-0.244414 0.495126,-0.143369 0.956525,0.354915 2.874571,-0.450601 2.809678,-1.179974 -0.04453,-0.500597 0.05904,-0.576419 0.366873,-0.268584 0.703524,0.703523 1.557819,-0.246696 1.059278,-1.178224 -0.484384,-0.905079 -1.562144,-0.996896 -1.562144,-0.133078 0,0.339641 -0.186054,0.502542 -0.413453,0.362001 -0.227399,-0.140541 -0.628452,-0.07789 -0.891228,0.139226 -0.262776,0.217119 -1.146197,0.519669 -1.963156,0.672334 -1.32876,0.248312 -2.125031,0.981619 -1.065902,0.981619 0.230713,0 0.287202,0.214029 0.125531,0.475618 -0.228727,0.370086 -0.329124,0.370086 -0.452486,0 -0.0872,-0.261589 -0.411054,-0.475618 -0.719683,-0.475618 -0.308629,0 -0.561144,-0.16258 -0.561144,-0.361284 0,-0.198709 -0.712982,-0.481743 -1.584405,-0.62897 -0.871423,-0.147227 -1.584405,-0.443332 -1.584405,-0.658011 0,-0.832673 -1.388359,-0.08406 -1.431763,0.772013 -0.0358,0.706094 0.112981,0.845332 0.703128,0.658024 0.498892,-0.158342 0.71219,-0.06249 0.639559,0.287403 -0.06625,0.31917 0.240411,0.512646 0.782253,0.493526 0.490175,-0.01731 0.891228,0.09092 0.891228,0.240489 0,0.149568 0.980351,0.271944 2.178557,0.271944 1.198207,0 2.178558,-0.147192 2.178558,-0.327085 z m 1.584405,-1.144151 c 0,-0.217855 0.178246,-0.396101 0.396101,-0.396101 0.217856,0 0.396102,0.178246 0.396102,0.396101 0,0.217856 -0.178246,0.396102 -0.396102,0.396102 -0.217855,0 -0.396101,-0.178246 -0.396101,-0.396102 z m -9.35069,-1.291908 c 0.599154,-0.949855 -0.06103,-1.360925 -0.741389,-0.461632 -0.317604,0.419808 -0.583131,0.911825 -0.59006,1.09337 -0.01967,0.515411 0.875874,0.0905 1.331449,-0.631738 z M 26.53879,34.658868 c 0,-5.290962 -0.11583,-5.55311 -2.006547,-4.541229 -1.007188,0.53903 -0.987879,1.324743 0.02604,1.059597 0.756442,-0.197814 0.792203,-0.01215 0.792203,4.112867 0,3.57596 0.102335,4.320032 0.594152,4.320032 0.496447,0 0.594152,-0.814209 0.594152,-4.951267 z m 7.922027,4.357114 c 0,-0.464439 -0.53776,-0.594152 -2.463234,-0.594152 h -2.463234 l 2.223771,-2.277582 c 2.509711,-2.570441 2.934202,-3.514666 2.252601,-5.010617 -0.867964,-1.904974 -4.077555,-2.018877 -5.72088,-0.203024 -0.492156,0.543826 -0.577518,0.90117 -0.285119,1.193569 0.292399,0.292399 0.722987,0.111713 1.438211,-0.603511 0.561474,-0.561474 1.256671,-1.020861 1.544883,-1.020861 0.83411,0 2.284697,1.174848 2.284697,1.850403 0,0.339448 -1.337856,1.991953 -2.973013,3.672232 -1.635157,1.68028 -2.853169,3.174899 -2.706693,3.321375 0.146477,0.146476 1.751701,0.266321 3.567166,0.266321 2.670016,0 3.300844,-0.11355 3.300844,-0.594153 z m 8.358578,-0.309988 c 0.865363,-0.581326 1.55368,-1.500582 1.927845,-2.574659 0.51185,-1.469323 0.51185,-1.871713 0,-3.341036 -0.83733,-2.403639 -2.735499,-3.607124 -5.310588,-3.367039 -1.623278,0.151345 -2.179062,0.42583 -3.267836,1.613888 -1.128771,1.231703 -1.311898,1.715303 -1.311898,3.464452 0,1.833342 0.150974,2.183898 1.537806,3.570729 1.327611,1.327612 1.779802,1.537806 3.308284,1.537806 1.186387,0 2.214504,-0.298283 3.116387,-0.904141 z m -5.616338,-1.441998 c -0.908061,-0.908062 -1.157835,-1.512776 -1.157835,-2.803179 0,-2.10591 1.664536,-3.961013 3.554114,-3.961013 3.397417,0 5.296403,2.997058 3.769662,5.949448 -1.207987,2.335988 -4.243585,2.7371 -6.165941,0.814744 z m 3.687475,-1.750323 c 0.214212,-0.336645 0.293491,-0.326953 0.297944,0.03642 0.0032,0.272319 0.168802,0.495126 0.367704,0.495126 0.198903,0 0.332587,-0.579298 0.297076,-1.287329 -0.05062,-1.00927 -0.257065,-1.314669 -0.955792,-1.413904 -0.736202,-0.104557 -0.898263,0.06769 -0.931666,0.990253 l -0.04044,1.116829 -0.412963,-1.287329 c -0.22713,-0.708031 -0.529617,-1.287329 -0.672193,-1.287329 -0.225092,0 -1.210576,2.296758 -1.210576,2.821354 0,0.414277 2.987475,0.24562 3.260904,-0.184093 z M 32.48031,26.558472 c 0,-0.424886 -0.31193,-0.954202 -0.693177,-1.176259 -0.592612,-0.345164 -0.535146,-0.405486 0.396101,-0.415783 0.948919,-0.01049 1.089279,0.141075 1.089279,1.176259 0,0.792202 0.198051,1.188304 0.594152,1.188304 0.396101,0 0.594152,-0.396102 0.594152,-1.188304 0,-0.653567 0.178246,-1.188304 0.396101,-1.188304 0.217856,0 0.396102,0.534737 0.396102,1.188304 0,0.653567 0.178245,1.188304 0.396101,1.188304 0.217856,0 0.396101,-0.697151 0.396101,-1.549223 v -1.549224 l -2.40745,-0.134207 c -1.324098,-0.07381 -2.66094,0.0083 -2.97076,0.182551 -0.831993,0.467843 -0.685032,1.280598 0.327918,1.81352 0.490176,0.257886 0.585007,0.382032 0.210736,0.27588 -0.711669,-0.201845 -1.263997,0.270535 -0.827128,0.707404 0.139315,0.139314 0.669206,0.253299 1.177536,0.253299 0.652319,0 0.924236,-0.227281 0.924236,-0.772521 z m 5.149318,0.211377 c 0,-0.308629 0.222807,-0.65155 0.495126,-0.762047 0.372603,-0.151188 0.348099,-0.304884 -0.09903,-0.621095 -0.512708,-0.362593 -0.499134,-0.421023 0.09903,-0.426257 0.381248,-0.0033 0.693178,-0.184311 0.693178,-0.402167 0,-0.217855 -0.534737,-0.396101 -1.188304,-0.396101 -1.122287,0 -1.188304,0.08802 -1.188304,1.584405 0,1.144293 0.165042,1.584406 0.594152,1.584406 0.326783,0 0.594152,-0.252515 0.594152,-0.561144 z M 7.8943945,45.603286 c 0.811027,-1.515416 2.8224615,-2.032138 7.9104965,-2.032138 2.635808,0 4.792379,-0.07894 4.792379,-0.17541 0,-0.09647 -0.342681,-0.764895 -0.761512,-1.48538 -0.418832,-0.720484 -1.056775,-2.339821 -1.417652,-3.598527 l -0.656139,-2.288557 -5.415097,0.11 -5.4150965,0.109999 -0.1108596,5.050292 c -0.108474,4.941614 0.1595092,6.017493 1.0734806,4.309721 z M 61.395708,41.19454 V 36.045222 H 56.293412 51.19112 l -0.46105,1.831001 c -0.25358,1.00705 -0.901602,2.700383 -1.44005,3.762964 l -0.979001,1.931961 h 4.581507 c 4.79853,0 6.003573,0.312686 7.47623,1.939954 0.414497,0.458016 0.815129,0.832755 0.890294,0.832755 0.07516,0 0.136658,-2.317193 0.136658,-5.149317 z M 18.192746,30.248519 c 0.254228,-1.009629 0.810125,-2.517616 1.235327,-3.351081 0.425203,-0.833466 0.773096,-1.700739 0.773096,-1.927273 0,-0.264147 -1.861179,-0.411882 -5.188928,-0.411882 H 9.8233134 L 8.489772,23.224742 C 7.7563246,22.491295 7.0611668,21.986265 6.9449768,22.102455 6.8287872,22.218645 6.7337229,24.512071 6.7337229,27.198959 v 4.88525 h 5.4983961 5.498395 z m 43.202962,-3.401903 v -5.237594 l -1.150393,1.259518 c -1.381411,1.512453 -1.864084,1.634335 -7.036538,1.776831 -2.215328,0.06103 -4.143901,0.227374 -4.285722,0.369655 -0.14182,0.14228 0.102472,0.964991 0.542873,1.828247 0.440401,0.863256 1.008732,2.395617 1.262961,3.405246 l 0.462231,1.83569 h 5.102292 5.102296 z M 27.293539,19.031972 c 0.833465,-0.425202 2.341452,-0.981099 3.351082,-1.235327 L 32.48031,17.334413 V 10.053561 2.7727094 l -3.663937,0.00436 c -2.015166,0.0024 -4.337525,0.1156809 -5.160799,0.2517407 -1.427033,0.235841 -1.459264,0.2737158 -0.690916,0.8118884 1.03797,0.727022 1.989727,2.5751235 1.989727,3.8636079 0,1.169633 0.08707,1.1371492 -1.53366,0.5721589 C 22.730051,8.0356941 21.984199,7.5009573 21.763276,7.0881607 20.87499,5.4283832 20.59727,6.4760875 20.59727,11.486939 c 0,3.168811 0.152346,5.149317 0.396101,5.149317 0.217856,0 0.396102,-0.180865 0.396102,-0.401923 0,-0.466926 2.339977,-1.971021 3.069785,-1.973204 0.349087,-0.001 0.495127,0.816339 0.495127,2.771229 0,1.655223 0.166,2.772709 0.411881,2.772709 0.226535,0 1.093808,-0.347892 1.927273,-0.773095 z m 16.67371,-1.999614 c 0,-3.169963 0.241911,-3.339928 2.536974,-1.782456 0.802573,0.544639 1.540426,0.990253 1.639681,0.990253 0.09925,0 0.18046,-2.22807 0.18046,-4.951267 0,-2.7231964 -0.09767,-4.9512665 -0.217052,-4.9512665 -0.119377,0 -0.609552,0.4389033 -1.089278,0.9753406 -0.479723,0.5364372 -1.362403,1.0904971 -1.961506,1.2312446 -0.932763,0.2191339 -1.089279,0.1321631 -1.089279,-0.6052793 0,-1.0941635 0.622359,-2.3054509 1.875322,-3.6498997 l 0.98632,-1.0583401 -1.834959,-0.2751693 c -1.00923,-0.151343 -3.34643,-0.1492644 -5.193784,0.00462 l -3.358824,0.2797884 v 7.0472433 7.047244 l 1.721499,0.433478 c 0.946825,0.238413 2.506475,0.78172 3.465888,1.207348 0.959412,0.425628 1.87807,0.78646 2.041462,0.801849 0.163392,0.01539 0.297076,-1.21974 0.297076,-2.744731 z"
         id="path1486" />
      <path
         style="display:inline;fill:#b51d22;stroke-width:0.396101"
         d="M 0,33.866665 V 0 H 33.866665 67.73333 V 33.866665 67.73333 H 33.866665 0 Z m 46.343857,30.733123 0.990254,-0.28187 -0.912424,-0.496128 c -1.048662,-0.570216 -2.450778,-2.692804 -2.452956,-3.713411 -0.002,-1.009757 1.318688,-0.864372 2.698991,0.297076 0.647269,0.544639 1.284802,0.990253 1.416747,0.990253 0.131942,0 0.239895,-2.335659 0.239895,-5.190349 v -5.19035 l -1.400139,1.229336 c -0.770072,0.676134 -1.750423,1.229337 -2.178557,1.229337 -0.69969,0 -0.778419,-0.280432 -0.778419,-2.77271 0,-1.52499 -0.09623,-2.772709 -0.213831,-2.772709 -0.117607,0 -0.964273,0.384733 -1.881481,0.854961 -0.917209,0.470231 -2.469756,1.061013 -3.450107,1.312854 l -1.782456,0.457885 -0.108678,6.87691 c -0.08275,5.236305 0.01174,6.953337 0.396102,7.197264 0.612201,0.388528 8.030954,0.366192 9.417059,-0.02836 z M 32.390425,57.587749 32.28226,50.610978 30.103702,49.931652 c -1.198206,-0.373626 -2.749004,-0.977237 -3.446216,-1.341353 -0.697213,-0.364121 -1.365634,-0.662036 -1.48538,-0.662036 -0.119747,0 -0.217721,1.247719 -0.217721,2.772709 0,1.954891 -0.14604,2.772274 -0.495127,2.771228 -0.729808,-0.0022 -3.069785,-1.506278 -3.069785,-1.973202 0,-0.221061 -0.178246,-0.401924 -0.396102,-0.401924 -0.244656,0 -0.396101,2.060202 -0.396101,5.3884 v 5.3884 l 1.400137,-1.229336 c 2.917714,-2.561786 4.189121,-0.614947 1.524532,2.334435 l -1.432446,1.585546 h 5.204548 5.204549 z m 8.494391,-9.353518 c 6.319552,-2.909483 10.126189,-9.892253 9.046733,-16.595045 -1.093113,-6.787627 -6.141876,-11.859925 -13.008884,-13.069524 -6.56173,-1.155826 -13.57049,2.497186 -16.58365,8.643511 -1.02923,2.09945 -1.125871,2.670024 -1.126936,6.653492 -10e-4,3.891657 0.11141,4.597255 1.052627,6.605049 1.859391,3.966428 5.440304,7.147297 9.556195,8.488615 2.762974,0.900421 8.323687,0.535485 11.063915,-0.726098 z m -8.782663,-1.134755 c -4.405081,-0.863509 -7.897543,-3.637783 -9.866939,-7.837906 -1.491386,-3.180677 -1.46181,-7.60909 0.07208,-10.792335 1.26515,-2.625537 4.283134,-5.594954 6.918162,-6.806832 2.902579,-1.334928 7.861212,-1.230987 10.830111,0.227015 2.628153,1.290665 5.602042,4.32115 6.810333,6.939936 1.234066,2.674645 1.191061,7.833216 -0.08728,10.470377 -2.029722,4.187214 -5.657737,6.986185 -10.112966,7.802035 -1.292682,0.236718 -2.451278,0.410868 -2.574659,0.386995 -0.12338,-0.02388 -1.018358,-0.199049 -1.98884,-0.389285 z m 4.339171,-2.0348 c 0,-0.265412 0.168413,-0.269761 0.495126,-0.01279 0.763989,0.600905 3.210628,-0.54239 2.898931,-1.354651 -0.18692,-0.487102 -0.12333,-0.53461 0.274099,-0.204777 0.692456,0.574692 1.664829,-0.05965 1.349814,-0.880576 -0.398973,-1.039707 -1.345901,-1.151491 -2.541652,-0.300043 -0.614191,0.437343 -1.765119,0.916812 -2.557618,1.065485 -1.278317,0.239815 -1.425147,0.388912 -1.301246,1.321346 0.07681,0.578067 0.15194,1.09 0.16695,1.137627 0.08736,0.277188 1.215596,-0.438983 1.215596,-0.771617 z m -2.475634,0.23732 c 1.000279,-0.268062 1.212514,-0.938645 0.297076,-0.938645 -0.326783,0 -0.594152,-0.158409 -0.594152,-0.35202 0,-0.19361 -0.668012,-0.477337 -1.484472,-0.630506 -0.81646,-0.153168 -1.600576,-0.46635 -1.742479,-0.695954 -0.416954,-0.674644 -1.526265,-0.0059 -1.526265,0.920045 0,0.650885 0.182985,0.80298 0.778661,0.647205 0.461343,-0.120644 0.743826,-0.01842 0.693178,0.250879 -0.04702,0.249976 0.315569,0.44035 0.805744,0.423052 0.490175,-0.01731 0.891228,0.116387 0.891228,0.297076 0,0.385197 0.638538,0.411965 1.881481,0.07887 z M 28.68176,42.81827 c 0.476644,-0.526688 0.546672,-0.836114 0.233087,-1.029919 -0.246543,-0.152372 -0.698099,0.05274 -1.003459,0.455802 -1.065471,1.406382 -0.418892,1.888239 0.770372,0.574117 z m -2.14297,-8.159402 c 0,-5.3468 -0.05011,-5.452878 -2.128571,-4.505869 -1.123005,0.511675 -0.978648,1.548419 0.173646,1.247087 0.722543,-0.188949 0.766621,0.04131 0.766621,4.004787 0,3.473943 0.103327,4.205262 0.594152,4.205262 0.496447,0 0.594152,-0.814209 0.594152,-4.951267 z m 7.922027,4.357114 c 0,-0.463817 -0.535111,-0.594152 -2.439393,-0.594152 h -2.439393 l 2.439393,-2.540374 c 2.438132,-2.539062 2.835318,-3.505636 2.046333,-4.979869 -0.537685,-1.004673 -2.801532,-1.711814 -4.006025,-1.251332 -1.442385,0.551428 -2.575851,1.95508 -2.024209,2.506722 0.336133,0.336133 0.629728,0.242153 1.159139,-0.371041 1.094643,-1.267877 2.317088,-1.46049 3.263387,-0.514191 0.446855,0.446855 0.812464,1.02921 0.812464,1.294123 0,0.264912 -1.336842,1.792749 -2.97076,3.395193 -1.633918,1.602444 -2.97076,3.079031 -2.97076,3.281304 0,0.202273 1.60421,0.36777 3.564912,0.36777 2.904743,0 3.564912,-0.110029 3.564912,-0.594153 z m 7.910136,0.08742 c 2.508969,-1.269552 3.496323,-4.856813 2.008432,-7.297035 -2.644171,-4.336587 -9.522467,-2.552264 -9.522467,2.470257 0,3.366941 1.794254,5.291851 4.951267,5.311816 0.871423,0.0055 2.024668,-0.212756 2.562768,-0.485038 z M 37.203057,37.264 c -2.469363,-2.469364 -0.80947,-6.764192 2.61427,-6.764192 1.82417,0 4.149922,2.101282 4.149922,3.749392 0,3.673381 -4.223292,5.555702 -6.764192,3.0148 z m 4.706002,-2.556456 c -0.09105,-0.935693 -0.337439,-1.267805 -1.011595,-1.363551 -0.697848,-0.09911 -0.898013,0.07278 -0.9225,0.792203 -0.02931,0.860968 -0.0563,0.85024 -0.429109,-0.170502 -0.519417,-1.422159 -0.946372,-1.376583 -1.481377,0.158133 -0.624844,1.792427 -0.644641,1.772265 1.765049,1.797582 l 2.199895,0.02311 z M 32.48031,26.369783 c 0,-0.582362 -0.273206,-1.032606 -0.693177,-1.142355 -0.426467,-0.111448 -0.274061,-0.198826 0.396101,-0.227095 0.956453,-0.04035 1.089279,0.09895 1.089279,1.142356 0,0.792202 0.198051,1.188304 0.594152,1.188304 0.396101,0 0.594152,-0.396102 0.594152,-1.188304 0,-0.653567 0.178246,-1.188304 0.396101,-1.188304 0.217856,0 0.396102,0.534737 0.396102,1.188304 0,0.653567 0.178245,1.188304 0.396101,1.188304 0.217856,0 0.396101,-0.697151 0.396101,-1.549223 v -1.549224 l -2.475633,-0.151854 c -3.281164,-0.201265 -3.432142,-0.124876 -3.359383,1.699703 0.05654,1.417763 0.156421,1.550598 1.165969,1.550598 0.90478,0 1.104135,-0.17355 1.104135,-0.96121 z m 5.149318,0.367058 c 0,-0.326784 0.267368,-0.594152 0.594152,-0.594152 0.836674,0 0.744253,-0.782253 -0.09903,-0.838151 -0.660169,-0.04376 -0.660169,-0.05457 0,-0.227095 1.126873,-0.294482 0.791052,-0.915261 -0.495126,-0.915261 -1.122287,0 -1.188304,0.08802 -1.188304,1.584405 0,1.144293 0.165042,1.584406 0.594152,1.584406 0.326783,0 0.594152,-0.267369 0.594152,-0.594152 z m 23.76608,14.65575 v -5.347369 h -5.12121 -5.12121 l -0.652949,2.277583 c -0.359121,1.252671 -0.995633,2.867069 -1.414462,3.587553 -0.418834,0.720485 -0.761513,1.388906 -0.761513,1.48538 0,0.09647 1.966425,0.17541 4.369838,0.17541 4.859581,0 6.645115,0.495836 7.726,2.145471 0.368782,0.562836 0.739141,1.02334 0.823011,1.02334 0.08387,0 0.152495,-2.406316 0.152495,-5.347368 z m -52.7785379,3.663937 1.32701,-1.287329 5.3265449,-0.129716 c 2.9296,-0.07134 5.326545,-0.190382 5.326545,-0.264532 0,-0.07415 -0.429452,-0.996128 -0.954337,-2.048842 -0.524885,-1.052715 -1.155615,-2.671569 -1.401622,-3.597456 L 17.794026,36.045222 H 12.263874 6.7337229 v 5.149318 c 0,2.832124 0.1251985,5.149317 0.2782188,5.149317 0.1530203,0 0.8753733,-0.579298 1.6052284,-1.287329 z M 18.763688,29.014424 c 0.584583,-1.688382 1.167953,-3.381716 1.296377,-3.762963 0.213896,-0.63498 -0.171097,-0.693178 -4.585585,-0.693178 -5.11547,0 -6.7177931,-0.42093 -7.5546471,-1.984606 -0.909381,-1.699194 -1.18611,-0.681688 -1.18611,4.361214 v 5.149318 h 5.4835431 5.483543 z m 42.778463,2.178557 c 0.31315,-1.168503 0.311411,-3.947158 -0.0044,-6.968229 l -0.254012,-2.430247 -1.529585,1.381889 -1.529585,1.381889 -4.256948,0.0061 c -5.282638,0.0075 -5.583481,0.158535 -4.509571,2.263577 0.444707,0.871697 1.016563,2.410964 1.270792,3.420593 l 0.462235,1.835691 h 5.056095 c 4.908527,0 5.06307,-0.02601 5.294936,-0.891228 z M 30.64931,17.795464 l 1.831,-0.461051 V 10.053561 2.7727094 l -4.45614,0.02784 c -2.450877,0.015312 -4.808656,0.1655655 -5.239508,0.3338965 -0.761641,0.2975678 -0.759008,0.3190933 0.09493,0.7761047 1.072395,0.5739285 2.074797,2.4197109 2.074797,3.8204476 0,0.8907171 -0.125436,0.9987212 -0.891228,0.7673731 -0.49018,-0.1480832 -1.3466,-0.6948318 -1.90316,-1.214996 -0.55656,-0.5201647 -1.135858,-0.9457538 -1.287329,-0.9457538 -0.151471,0 -0.275402,2.3171929 -0.275402,5.1493175 0,3.273273 0.14884,5.149317 0.408533,5.149317 0.224693,0 0.513661,-0.27396 0.642152,-0.608801 0.235772,-0.614412 2.121765,-1.767807 2.890658,-1.767807 0.25342,0 0.415772,1.162636 0.415772,2.977433 v 2.977433 l 1.931962,-0.978999 c 1.062579,-0.53845 2.755912,-1.186473 3.762963,-1.440051 z m 13.756744,-3.535816 c 0.61618,0 2.031695,0.796329 3.027082,1.70295 l 0.891228,0.811751 v -5.218364 c 0,-2.8701 -0.135368,-5.2183635 -0.300819,-5.2183635 -0.165452,0 -0.509953,0.3348748 -0.765561,0.7441663 C 46.695179,7.9829821 44.486649,8.8380806 44.145891,8.2867269 43.758029,7.6591471 44.714518,5.3296236 45.765438,4.3423331 46.496962,3.6551024 46.620689,3.3377569 46.24907,3.1018476 45.657941,2.7265869 40.049264,2.6761089 37.926704,3.0269463 l -1.48538,0.2455182 v 7.0384905 7.038489 l 1.881481,0.462633 c 1.034815,0.254448 2.683587,0.878522 3.663938,1.386832 l 1.782456,0.924201 0.115685,-2.931731 c 0.06551,-1.660285 0.291538,-2.931731 0.52117,-2.931731 z"
         id="path1482" />
    </g>
  </g>
</svg>
