<?xml version="1.0" encoding="UTF-8"?>
<svg width="207px" height="48px" viewBox="0 0 207 48" version="1.1" xmlns="http://www.w3.org/2000/svg" xmlns:xlink="http://www.w3.org/1999/xlink">
    <title>score</title>
    <defs>
        <linearGradient x1="48.6995775%" y1="98.6995775%" x2="48.6995775%" y2="1.30042251%" id="linearGradient-1">
            <stop stop-color="#E214AD" offset="0%"></stop>
            <stop stop-color="#A7107F" offset="100%"></stop>
        </linearGradient>
        <linearGradient x1="97.399155%" y1="50%" x2="0%" y2="50%" id="linearGradient-2">
            <stop stop-color="#E214AD" offset="0%"></stop>
            <stop stop-color="#A7107F" offset="100%"></stop>
        </linearGradient>
    </defs>
    <g id="Page-1" stroke="none" stroke-width="1" fill="none" fill-rule="evenodd">
        <g id="Artboard" transform="translate(-8.000000, -4.000000)">
            <g id="score" transform="translate(8.000000, 4.000000)">
                <path d="M76.057597,14.5498575 L77.161179,15.034188 L77.1131971,22.8803419 C76.7773244,22.6866097 76.3454879,22.4444444 75.769706,22.2022792 C75.1939241,21.9116809 74.0903421,21.5242165 72.4109782,21.0883191 C70.7795961,20.6524217 69.1961959,20.4102564 67.6607774,20.4102564 C64.6379224,20.4102564 62.2868129,22.7350427 65.5975589,24.4786325 C67.7567411,25.5925926 71.1154689,26.5128205 74.1863058,28.0626781 C77.2571426,29.6125356 79.7521976,32.6153846 79.7521976,36.6837607 C79.7521976,39.5413105 78.5526519,42.011396 76.2015425,43.997151 C73.850433,45.982906 70.6356506,47 66.6531591,47 C64.8778315,47 63.0545221,46.8062678 61.2791946,46.3703704 C59.503867,45.9344729 58.2083577,45.4985755 57.3446849,45.0626781 L56.0011937,44.4330484 L56.0011937,36.3447293 C56.3370665,36.5868946 56.8648666,36.8774929 57.4886303,37.2165242 C58.1123941,37.5555556 59.3599215,38.039886 61.2312128,38.6695157 C63.102504,39.2507123 64.8778315,39.5413105 66.6531591,39.5413105 C69.148214,39.5413105 71.355378,38.6210826 71.355378,36.8290598 C71.355378,35.2307692 68.9562867,34.019943 65.9334317,33.002849 C61.6150674,31.5498575 55.9052301,29.1282051 56.0011937,22.9287749 C56.0011937,19.7806268 57.1527575,17.3105413 59.4079034,15.6153846 C61.711031,13.8717949 64.4939769,13 67.8047229,13 C69.436105,13 71.0195052,13.1937322 72.6029055,13.5327635 C74.1863058,13.8717949 75.3378696,14.2108262 76.057597,14.5498575 Z M108.061475,14.4529915 L109.021111,14.9373219 L109.021111,22.8803419 L107.917529,22.2991453 C107.437711,22.0569801 106.430093,21.7179487 104.942656,21.2820513 C103.45522,20.8461538 101.919801,20.6524217 100.432365,20.6524217 C97.7453823,20.6524217 95.4902365,21.5726496 93.7149089,23.3646724 C91.9395814,25.1566952 91.0279267,27.3846154 91.0279267,30 C91.0279267,32.6153846 91.9395814,34.8433048 93.7149089,36.6353276 C95.4902365,38.4273504 97.7453823,39.3475783 100.432365,39.3475783 C103.887056,39.3475783 107.245784,38.0883191 108.589275,37.1196581 L109.596893,36.3447293 L109.596893,44.4814815 L108.349366,45.2079772 C107.821566,45.4501425 106.765966,45.8376068 105.086602,46.3219373 C103.45522,46.7578348 101.823838,47 100.144474,47 C95.2983092,47 91.2678358,45.3532764 88.0050716,42.1082621 C84.7423075,38.8148148 83.1109254,34.7464387 83.1109254,29.951567 C83.1109254,25.2535613 84.7423075,21.2336182 88.0530535,17.9401709 C91.3637995,14.6467236 95.3942728,13 100.144474,13 C103.45522,13 106.765966,13.8233618 108.061475,14.4529915 Z M129.125496,13 C133.875697,13 137.858189,14.6467236 141.168935,17.9401709 C144.479681,21.2336182 146.159045,25.2535613 146.159045,29.951567 C146.159045,34.6495726 144.479681,38.6695157 141.168935,42.011396 C137.858189,45.3532764 133.875697,47 129.125496,47 C124.423278,47 120.392804,45.3532764 117.082058,42.011396 C113.771312,38.6695157 112.13993,34.6495726 112.13993,29.951567 C112.13993,25.2535613 113.771312,21.2336182 117.082058,17.9401709 C120.392804,14.6467236 124.423278,13 129.125496,13 Z M122.695932,23.4131054 C120.920604,25.2051282 120.056931,27.3846154 120.056931,29.951567 C120.056931,32.5185185 120.920604,34.6980057 122.695932,36.5868946 C124.471259,38.4273504 126.630442,39.3475783 129.125496,39.3475783 C131.620551,39.3475783 133.779734,38.4273504 135.555061,36.5868946 C137.330389,34.6980057 138.242043,32.5185185 138.242043,29.951567 C138.242043,27.3846154 137.330389,25.2051282 135.555061,23.4131054 C133.779734,21.5726496 131.620551,20.6524217 129.125496,20.6524217 C126.630442,20.6524217 124.471259,21.5726496 122.695932,23.4131054 Z M178.930632,46.5156695 L169.190321,46.5156695 L159.593956,31.8888889 L159.593956,46.5156695 L151.676955,46.5156695 L151.676955,13.4843305 L164.488102,13.4843305 C168.038757,13.4843305 170.821703,14.5014245 172.83694,16.4871795 C174.852177,18.4729345 175.859795,20.9430199 175.859795,23.9458689 C175.859795,28.2564103 173.220795,31.985755 169.574176,33.5356125 L178.930632,46.5156695 Z M163.960302,20.9430199 L159.593956,20.9430199 L159.593956,28.2079772 L163.960302,28.2079772 C169.046376,28.3048433 169.142339,20.8461538 163.960302,20.9430199 Z M190.926088,39.008547 L207,39.008547 L207,46.5156695 L183.009087,46.5156695 L183.009087,13.4843305 L206.712109,13.4843305 L206.712109,20.991453 L190.926088,20.991453 L190.926088,26.1737892 L204.361,26.1737892 L204.361,33.5356125 L190.926088,33.5356125 L190.926088,39.008547 Z" id="SCORE" fill="url(#linearGradient-1)"></path>
                <g id="vs" fill="url(#linearGradient-2)" fill-rule="nonzero">
                    <path d="M20.9878618,0.217103198 C22.4138156,0.0581526423 23.8493234,0.0201595826 25.2824427,0 C24.4591953,1.40884468 23.7012344,2.85723316 23.0945473,4.36842649 C22.8700252,4.89024953 22.7123821,5.436109 22.4822868,5.95560594 C21.9870645,6.05950532 21.4798995,6.09284617 20.9830848,6.19131798 C18.8779917,6.57590079 16.8564973,7.35204472 15.0229008,8.42748092 C15.7768808,5.90055477 16.994236,3.50389054 18.6072914,1.39178657 C18.8541064,1.07311009 19.0929596,0.715665184 19.4791057,0.544308732 C19.9528312,0.335734588 20.4783083,0.286886368 20.9878618,0.217103198 Z" id="Shape"></path>
                    <path d="M26.4717127,0.873502498 C26.6617107,0.569440069 26.8501577,0.261509162 27.0990938,0 C31.2022752,0.535397456 35.1705192,2.13849504 38.471056,4.63366382 C42.0337125,7.35939394 44.862744,11.0653966 46.4152991,15.2773962 C46.5959911,15.7965461 46.8069276,16.31028 46.9007634,16.8549618 C46.6409702,16.6321375 46.4238296,16.3659861 46.212893,16.0982874 C45.3885343,15.0940303 44.5843387,14.0696571 43.6777768,13.1350327 C41.8879181,11.333869 39.8336131,9.79266706 37.5823306,8.61123366 C33.8219212,6.63134624 29.5713944,5.59536764 25.3208676,5.58917807 C24.9416471,5.59149916 24.5624266,5.60697307 24.1832061,5.6015572 C24.7780162,3.95203787 25.5232737,2.35126137 26.4717127,0.873502498 Z" id="Shape"></path>
                    <path d="M15.071983,1.60112039 C15.5433796,1.43096385 16.0044768,1.23114699 16.4885496,1.09923664 C16.179567,1.74708036 15.7699669,2.3410672 15.4395931,2.97876397 C14.2987341,5.00659287 13.422491,7.18272335 12.8980128,9.44471264 C12.8560229,9.69994746 12.7165845,9.92396089 12.5058425,10.0777262 C8.71407087,13.2576242 6.40303913,18.0586925 6.25963949,22.9588888 C6.2358716,23.4888718 6.27548476,24.0204159 6.24141744,24.5496183 C6.05365106,24.0524178 5.98630869,23.5232153 5.88172995,23.0057209 C4.72502568,16.838717 6.20655786,10.2556881 9.84859177,5.11820932 C10.294636,4.45631598 10.8436743,3.86076807 11.4901611,3.38386143 C12.5668468,2.58537453 13.8209994,2.06866062 15.071983,1.60112039 Z" id="Shape"></path>
                    <path d="M5.40908453,8.79269843 C5.73210702,8.41527083 6.04141629,8.02150101 6.41624427,7.69465649 C6.3697717,7.85963515 6.32101359,8.02305741 6.26158964,8.18336686 C5.43803465,10.3055216 4.68914053,12.4735903 4.29221903,14.7264828 C3.9585307,16.7210126 3.85491971,18.7560088 3.9920519,20.775441 C4.16041975,22.9878671 4.60457568,25.176169 5.27576156,27.2866507 C5.85781152,29.109198 6.74688522,30.8080113 7.65805243,32.4772529 C7.80661231,32.7348375 7.94450634,33.0002041 8.0610687,33.2749092 C6.58537397,33.5690692 5.07996727,33.6889122 3.5768461,33.7099237 C3.0359358,33.699807 2.49197812,33.7208185 1.95487704,33.6422202 C0.748113772,30.9527567 0.111210936,28.0057086 0.0159802485,25.052435 C-0.1958128,19.2089219 1.70270618,13.2704683 5.40908453,8.79269843 Z" id="Shape"></path>
                    <path d="M34.4427481,9.16030534 C35.6578503,9.57266524 36.7938585,10.1939334 37.9004002,10.8393663 C42.1660526,13.3805634 45.5624455,17.3256549 47.5374713,21.8888966 C48.1841817,23.4697395 48.037625,25.2290897 47.7879359,26.8785293 C47.6599896,27.5683942 47.5700394,28.2668336 47.3955672,28.9465649 C46.7232675,27.9526918 46.1835667,26.8730728 45.505839,25.8807587 C44.5760958,24.4807618 43.4951433,23.1828804 42.2986515,22.0066024 C42.0264748,21.7267589 41.6248009,21.4936859 41.6116186,21.0563817 C41.0533074,17.0723147 39.0782817,13.3127461 36.1378428,10.5852465 C35.6074472,10.0684325 35.0064873,9.63658492 34.4427481,9.16030534 Z" id="Shape"></path>
                    <path d="M16.8644648,13.9236641 C16.9683069,13.975304 17.0729297,14.025379 17.1752103,14.0801485 C22.8513899,17.3639738 28.5275696,20.6485814 34.20453,23.9324067 C34.6495675,24.199995 35.1164664,24.4315919 35.5419847,24.7312596 C35.1016319,25.0450108 34.6159945,25.284432 34.1545609,25.5621918 C28.7235422,28.7020514 23.2956466,31.8450407 17.8654087,34.9849002 C17.5359248,35.1781585 17.2103448,35.379241 16.8644648,35.5419847 C16.8472879,28.9923299 16.8621225,22.4418927 16.8574379,15.8914555 C16.863684,15.2357859 16.8441648,14.5793338 16.8644648,13.9236641 Z" id="Shape"></path>
                    <path d="M41.8558233,23.8167939 C42.8279253,24.793056 43.6321604,25.9280092 44.3784052,27.0886331 C45.1566972,28.2624813 45.8914964,29.4853371 46.3493153,30.8311007 C46.4500354,31.1375926 46.5759356,31.4580866 46.5209973,31.7879154 C46.3104007,33.0566671 45.7289707,34.2204026 45.0933656,35.3180168 C44.8255416,35.7598629 44.5851867,36.2203785 44.2837893,36.6412214 C43.7214351,35.8189831 43.2391993,34.9415141 42.6631106,34.1278327 C41.9519653,33.0488881 41.1370477,32.0492891 40.3053435,31.0668038 C40.6189494,30.2305634 40.9684178,29.4044357 41.1896969,28.5347457 C41.6192836,27.0015086 41.8207239,25.4091512 41.8558233,23.8167939 Z" id="Shape"></path>
                    <path d="M37.6394247,35.9774014 C38.307732,35.0217554 38.8712524,33.9982436 39.4355489,32.9770992 C40.2606484,33.8727707 40.9561226,34.8844454 41.6112344,35.9126921 C42.0730728,36.6765775 42.5263729,37.4523001 42.870229,38.2801057 C42.6404741,38.6707289 42.3330994,39.0045342 42.0459058,39.3517549 C40.3328349,41.3853632 38.3185987,43.1632908 36.0645172,44.5521734 C30.8135317,47.7844821 24.2825943,48.8379811 18.3206107,47.3125776 C19.371584,47.0592644 20.4505004,46.9464177 21.5092357,46.7254591 C28.0199919,45.5354392 33.8841745,41.476114 37.6394247,35.9774014 Z" id="Shape"></path>
                    <path d="M9.66648488,34.5242611 C9.80707791,34.4930271 9.95079523,34.4716966 10.0921693,34.4427481 C10.412409,34.7649911 10.6748493,35.1359895 10.9849351,35.4681359 C11.8964465,36.461528 12.9118406,37.3673127 14.0303363,38.1359727 C14.5786491,38.5359196 15.1871045,38.8452119 15.7557252,39.2146868 C13.5382607,39.7928958 11.2247243,39.9802995 8.93462006,39.9315441 C8.22931169,39.9025955 7.52166011,39.8683144 6.8233814,39.7639473 C6.43050199,39.703003 6.03918473,39.5544512 5.76424725,39.2649658 C4.59107653,38.0788374 3.73111583,36.6435991 2.93129771,35.20379 C5.19406441,35.2616871 7.46386076,35.033146 9.66648488,34.5242611 Z" id="Shape"></path>
                    <path d="M31.9912266,39.7264085 C32.5838264,39.4659697 33.121264,39.1054797 33.7099237,38.8396947 C32.9605055,39.6317035 32.0716058,40.2877648 31.1929505,40.9384799 C29.0518684,42.4484138 26.6625564,43.6406277 24.1321867,44.4020866 C20.7578351,45.4079454 17.1573183,45.6790767 13.6616098,45.2162442 C12.3597815,44.9619154 11.2061031,44.2607928 10.1564449,43.499334 C9.43776004,42.9501976 8.7104068,42.4025888 8.0610687,41.7747863 C8.88534983,41.754165 9.70963097,41.7915888 10.5339121,41.745 C12.9925709,41.6243275 15.4394093,41.2073199 17.7798634,40.4626636 C18.0407018,40.3626123 18.3109967,40.4588448 18.5600147,40.5451486 C22.9146777,42.0123125 27.8572124,41.69612 31.9912266,39.7264085 Z" id="Shape"></path>
                </g>
                <path d="M59.8551561,5.52083333 L62.2565159,0.598958333 L64.6838364,0.598958333 L59.4138251,10 L56,0.598958333 L58.4662615,0.598958333 L59.8551561,5.52083333 Z M69.9019264,0.46875 C71.1047758,0.46875 72.1085774,0.859371094 72.9133615,1.640625 C73.7181456,2.42187891 74.1205316,3.39409141 74.1205316,4.55729167 C74.1205316,5.9548681 73.6272842,7.14626243 72.6407747,8.13151042 C71.6542652,9.1167584 70.4514339,9.609375 69.0322448,9.609375 C67.8467026,9.609375 66.8515545,9.21658379 66.0467704,8.43098958 C65.2419863,7.64539538 64.8396003,6.67535299 64.8396003,5.52083333 C64.8396003,4.1232569 65.3328476,2.93186257 66.3193572,1.94661458 C67.3058667,0.961366602 68.5000445,0.46875 69.9019264,0.46875 Z M69.7331822,2.52604167 C68.9976269,2.52604167 68.359434,2.79947643 67.8185845,3.34635417 C67.277735,3.8932319 67.0073143,4.54860729 67.0073143,5.3125 C67.0073143,5.93750313 67.2171608,6.46701172 67.63686,6.90104167 C68.0565592,7.33507161 68.5779303,7.55208333 69.200989,7.55208333 C69.9278907,7.55208333 70.5682469,7.27647845 71.1220769,6.72526042 C71.6759068,6.17404238 71.9528176,5.52083711 71.9528176,4.765625 C71.9528176,4.14062187 71.7386444,3.61111328 71.3102915,3.17708333 C70.8819387,2.74305339 70.3562409,2.52604167 69.7331822,2.52604167 Z M77.5862779,7.4609375 L81.519316,7.4609375 L81.3116308,9.47916667 L75.2368394,9.47916667 L76.1584424,0.598958333 L78.3001957,0.598958333 L77.5862779,7.4609375 Z M85.0240033,7.4609375 L88.9570413,7.4609375 L88.7493561,9.47916667 L82.6745647,9.47916667 L83.5961677,0.598958333 L85.7379211,0.598958333 L85.0240033,7.4609375 Z M96.810137,7.4609375 L96.6024518,9.47916667 L90.1122901,9.47916667 L91.0338931,0.598958333 L97.4461729,0.598958333 L97.2384877,2.6171875 L92.9679613,2.6171875 L92.8251777,4.01041667 L96.4596683,4.01041667 L96.2519831,5.98958333 L92.6174925,5.98958333 L92.4617286,7.4609375 L96.810137,7.4609375 Z M100.587411,9.47916667 L100.95086,5.95052083 L98.4326774,0.598958333 L100.834037,0.598958333 L102.209952,4.21875 L104.325744,0.598958333 L106.727104,0.598958333 L103.079633,6.00260417 L102.729165,9.47916667 L100.587411,9.47916667 Z M113.321108,1.015625 L113.087463,3.125 C113.00958,3.08159701 112.897085,3.02300384 112.749974,2.94921875 C112.602863,2.87543366 112.310809,2.7799485 111.873802,2.66276042 C111.436796,2.54557233 111.010613,2.48697917 110.595241,2.48697917 C110.309672,2.48697917 110.063048,2.5412321 109.855362,2.64973958 C109.647676,2.75824707 109.543834,2.91666563 109.543834,3.125 C109.543834,3.25520898 109.615225,3.37456543 109.75801,3.48307292 C109.900794,3.5915804 110.086843,3.68923568 110.316164,3.77604167 C110.545484,3.86284766 110.798598,3.9561627 111.075513,4.05598958 C111.352427,4.15581647 111.627175,4.27734303 111.899763,4.42057292 C112.172351,4.5638028 112.423302,4.72873171 112.652622,4.91536458 C112.881942,5.10199746 113.067991,5.34505059 113.210776,5.64453125 C113.35356,5.94401191 113.424951,6.28038008 113.424951,6.65364583 C113.424951,7.52170573 113.104773,8.23133405 112.464407,8.78255208 C111.824041,9.33377012 110.898121,9.609375 109.686618,9.609375 C109.18471,9.609375 108.689299,9.55295195 108.200371,9.44010417 C107.711443,9.32725638 107.350161,9.21007005 107.116514,9.08854167 L106.766045,8.91927083 L106.999691,6.74479167 C107.103534,6.80555586 107.241989,6.88150996 107.415061,6.97265625 C107.588133,7.06380254 107.914801,7.18749922 108.395076,7.34375 C108.87535,7.50000078 109.323167,7.578125 109.738539,7.578125 C110.136604,7.578125 110.469763,7.51736172 110.738024,7.39583333 C111.006285,7.27430495 111.140414,7.08333464 111.140414,6.82291667 C111.140414,6.62326289 111.010612,6.4474834 110.751004,6.29557292 C110.491397,6.14366243 110.177709,6.0004347 109.809931,5.86588542 C109.442153,5.73133613 109.072218,5.57074746 108.700113,5.38411458 C108.328009,5.19748171 108.012157,4.92404694 107.75255,4.56380208 C107.492942,4.20355723 107.36314,3.77170391 107.36314,3.26822917 C107.36314,2.40016927 107.700625,1.71658236 108.375605,1.21744792 C109.050585,0.718313477 109.855357,0.46875 110.789945,0.46875 C111.248586,0.46875 111.687749,0.514322461 112.107448,0.60546875 C112.527147,0.696615039 112.832182,0.789930078 113.022561,0.885416667 L113.321108,1.015625 Z M121.368909,2.6171875 L119.071392,2.6171875 L118.357474,9.47916667 L116.215721,9.47916667 L116.929638,2.6171875 L114.632121,2.6171875 L114.839806,0.598958333 L121.576594,0.598958333 L121.368909,2.6171875 Z M126.755743,9.47916667 L124.562069,5.546875 L124.159679,9.47916667 L122.017925,9.47916667 L122.939528,0.598958333 L126.405275,0.598958333 C127.305248,0.598958333 127.997525,0.835501107 128.482126,1.30859375 C128.966727,1.78168639 129.209024,2.39582956 129.209024,3.15104167 C129.209024,3.77604479 129.018648,4.34678561 128.63789,4.86328125 C128.257132,5.37977689 127.785518,5.75520716 127.223035,5.98958333 L129.390749,9.47916667 L126.755743,9.47916667 Z M124.873596,2.60416667 L124.665911,4.55729167 L125.847121,4.55729167 C126.210572,4.55729167 126.493972,4.44444557 126.697332,4.21875 C126.900691,3.99305443 127.002369,3.74566107 127.002369,3.4765625 C127.002369,3.24218633 126.922325,3.03819531 126.762233,2.86458333 C126.602142,2.69097135 126.366335,2.60416667 126.054806,2.60416667 L124.873596,2.60416667 Z M137.321727,7.4609375 L137.114041,9.47916667 L130.62388,9.47916667 L131.545483,0.598958333 L137.957762,0.598958333 L137.750077,2.6171875 L133.479551,2.6171875 L133.336767,4.01041667 L136.971258,4.01041667 L136.763573,5.98958333 L133.129082,5.98958333 L132.973318,7.4609375 L137.321727,7.4609375 Z M144.214278,9.47916667 L143.902751,8.21614583 L141.021119,8.21614583 L140.424024,9.47916667 L138.009684,9.47916667 L143.292675,0 L146.68054,9.47916667 L144.214278,9.47916667 Z M142.877305,4.20572917 L141.760997,6.62760417 L143.448439,6.62760417 L142.877305,4.20572917 Z M152.937056,4.296875 L157.856598,0.1171875 L156.883074,9.47916667 L154.72834,9.47916667 L155.247553,4.75260417 L152.664469,6.92708333 L150.574637,4.6875 L150.081385,9.47916667 L147.926651,9.47916667 L148.913155,0.1171875 L152.937056,4.296875 Z M159.349336,7.27864583 L161.555991,7.27864583 L161.322345,9.47916667 L159.11569,9.47916667 L159.349336,7.27864583 Z M170.603276,9.98697917 L165.774596,4.9609375 L165.307304,9.47916667 L163.165551,9.47916667 L164.139075,0.104166667 L168.967755,5.18229167 L169.435047,0.598958333 L171.5768,0.598958333 L170.603276,9.98697917 Z M177.781395,0.46875 C178.984244,0.46875 179.988046,0.859371094 180.79283,1.640625 C181.597614,2.42187891 182,3.39409141 182,4.55729167 C182,5.9548681 181.506753,7.14626243 180.520243,8.13151042 C179.533734,9.1167584 178.330902,9.609375 176.911713,9.609375 C175.726171,9.609375 174.731023,9.21658379 173.926239,8.43098958 C173.121455,7.64539538 172.719069,6.67535299 172.719069,5.52083333 C172.719069,4.1232569 173.212316,2.93186257 174.198826,1.94661458 C175.185335,0.961366602 176.379513,0.46875 177.781395,0.46875 Z M177.612651,2.52604167 C176.877095,2.52604167 176.238902,2.79947643 175.698053,3.34635417 C175.157203,3.8932319 174.886783,4.54860729 174.886783,5.3125 C174.886783,5.93750313 175.096629,6.46701172 175.516328,6.90104167 C175.936028,7.33507161 176.457399,7.55208333 177.080457,7.55208333 C177.807359,7.55208333 178.447715,7.27647845 179.001545,6.72526042 C179.555375,6.17404238 179.832286,5.52083711 179.832286,4.765625 C179.832286,4.14062187 179.618113,3.61111328 179.18976,3.17708333 C178.761407,2.74305339 178.235709,2.52604167 177.612651,2.52604167 Z" id="VOLLEYSTREAM.NO" fill="#171E27"></path>
            </g>
        </g>
    </g>
</svg>