<?xml version="1.0" encoding="UTF-8"?>
<svg width="256px" height="256px" viewBox="0 0 256 256" version="1.1" xmlns="http://www.w3.org/2000/svg" xmlns:xlink="http://www.w3.org/1999/xlink">
    <!-- Generator: Sketch 50.2 (55047) - http://www.bohemiancoding.com/sketch -->
    <title>logo/sifhessa</title>
    <desc>Created with Sketch.</desc>
    <defs></defs>
    <g id="logo/sifhessa" stroke="none" stroke-width="1" fill="none" fill-rule="evenodd">
        <g id="sifhessa" fill-rule="nonzero">
            <g id="#ffffffff" transform="translate(11.600000, 5.200000)" fill="#FFFFFF">
                <path d="M65.6,14.656 C82.544,9.864 99.476,5.044 116.432,0.3 C129.964,4.128 143.464,8.092 156.992,11.94 C159.968,12.788 162.908,13.78 165.936,14.428 C168.996,10.324 172.056,6.22 175.116,2.116 C181.864,4.32 188.524,6.796 195.244,9.08 C206.248,12.976 217.304,16.716 228.296,20.652 C224.292,40.392 220.432,60.168 216.388,79.9 C215.732,80.004 215.076,80.092 214.416,80.108 C198.676,80.136 182.936,80.28 167.196,80.328 C162.004,80.604 156.8,80.544 151.6,80.584 C143.068,80.6 134.532,80.712 126,80.716 C106.808,81.22 87.588,80.808 68.4,81.308 C53.872,81.352 39.344,81.452 24.816,81.52 C21.104,81.744 17.38,81.724 13.664,81.664 C13.536,81.572 13.284,81.392 13.16,81.304 C9.524,64.744 6,48.16 2.364,31.6 C1.636,27.94 0.684,24.328 0.08,20.648 C9.02,18.32 17.86,15.608 26.784,13.196 C37.144,10.176 47.56,7.352 57.92,4.328 C58.928,4.036 59.948,3.768 60.996,3.644 C62.472,7.34 64.02,11.004 65.6,14.656 Z M114.58,11.952 C111.888,12.552 109.412,13.804 106.932,14.964 C102.668,16.98 98.36,18.9 94.12,20.956 C91.16,22.556 88.692,26.064 89.792,29.524 C90.596,32.096 93.116,33.412 95.304,34.636 C100.216,37.176 105.264,39.448 110.352,41.608 C113.368,42.952 116.752,42.792 119.972,42.64 C122.44,42.272 124.788,41.312 126.932,40.056 C131.016,37.876 135.092,35.68 139.204,33.552 C141.06,32.608 142.728,31.28 143.968,29.6 C145.004,28.128 145.36,26.052 144.348,24.472 C142.852,22.136 140.164,21.068 137.844,19.764 C133.788,17.676 129.784,15.464 125.548,13.756 C123.492,12.94 121.508,11.68 119.228,11.7 C117.676,11.688 116.104,11.616 114.58,11.952 Z M28.284,50.256 C26.3,53.084 26.596,57.94 29.852,59.724 C32.384,61.056 35.404,60.784 37.956,62.048 C39.34,62.808 39.6,64.672 39.112,66.056 C38.784,67.588 37.084,68.392 35.624,68.276 C34.384,68.216 32.952,68.496 31.908,67.652 C30.908,67.016 30.792,65.712 30.496,64.672 C29.256,64.672 28.012,64.672 26.772,64.688 C26.888,66.076 26.936,67.56 27.684,68.784 C28.508,69.88 29.584,70.92 30.984,71.176 C33.908,71.848 37.076,71.88 39.916,70.848 C42.584,69.744 43.424,66.608 43.252,63.976 C43.116,62.464 42.68,60.78 41.312,59.92 C38.684,58.08 35.24,58.544 32.412,57.252 C30.724,56.472 30.832,54.38 31.148,52.844 C31.72,51.86 32.82,51.208 33.976,51.32 C35.312,51.404 36.924,50.992 38.008,52 C38.58,52.752 38.764,53.708 39.096,54.58 C40.296,54.552 41.496,54.56 42.7,54.56 C42.684,53.208 42.668,51.776 41.9,50.604 C40.86,48.612 38.432,48.14 36.404,47.864 C33.6,47.696 30.184,47.888 28.284,50.256 Z M47.332,48.208 C47.332,55.928 47.296,63.648 47.352,71.364 C48.664,71.28 49.98,71.3 51.296,71.32 C51.316,63.632 51.296,55.948 51.3,48.26 C49.976,48.224 48.652,48.232 47.332,48.208 Z M180.42,48.232 C180.548,55.912 180.412,63.596 180.488,71.276 C181.736,71.308 182.98,71.304 184.228,71.34 C184.324,63.632 184.26,55.924 184.26,48.216 C182.98,48.244 181.696,48.244 180.42,48.232 Z M188.976,48.224 C188.96,55.912 188.976,63.604 188.968,71.292 C192.844,71.292 196.728,71.316 200.604,71.28 C200.448,70.192 200.96,68.78 200.308,67.896 C197.848,67.824 195.384,67.916 192.924,67.868 C192.928,61.34 192.84,54.812 192.972,48.284 C191.64,48.224 190.308,48.244 188.976,48.224 Z M55.76,48.252 C55.876,55.88 55.828,63.516 55.784,71.144 C57.12,71.16 58.452,71.152 59.784,71.064 C59.764,67.76 59.78,64.456 59.776,61.152 C62.344,61.052 64.916,61.128 67.488,61.112 C67.488,60.048 67.484,58.988 67.464,57.924 C64.9,57.848 62.332,57.932 59.768,57.864 C59.772,55.804 59.784,53.74 59.768,51.68 C62.732,51.292 65.736,51.596 68.716,51.48 C68.884,50.388 69.008,49.248 68.604,48.188 C64.324,48.3 60.044,48.196 55.76,48.252 Z M80.512,52.4 C80.54,58.7 80.484,64.996 80.54,71.296 C81.792,71.308 83.048,71.3 84.304,71.276 C84.352,67.892 84.264,64.508 84.344,61.124 C86.968,61.128 89.592,61.052 92.216,61.168 C92.264,64.56 92.196,67.952 92.26,71.344 C93.552,71.304 94.852,71.3 96.148,71.34 C96.148,63.644 96.168,55.948 96.136,48.248 C94.832,48.216 93.532,48.224 92.232,48.24 C92.216,51.536 92.272,54.828 92.188,58.124 C89.628,58.028 87.064,58.052 84.504,58.076 C84.12,54.824 84.356,51.528 84.372,48.26 C83.124,48.244 81.876,48.244 80.628,48.188 C80.46,49.584 80.516,50.996 80.512,52.4 Z M101.82,55.008 C99.608,57.616 100.172,61.236 100.108,64.396 C100.036,66.88 100.908,69.868 103.396,70.912 C106.852,72.28 110.584,71.332 114.164,71.26 C114.252,70.116 114.256,68.968 114.196,67.824 C111.328,68.376 108.28,68.772 105.4,68.132 C103.94,67.212 103.98,65.328 103.728,63.816 C107.42,63.7 111.116,63.808 114.812,63.768 C115.276,63.32 114.988,62.58 115.08,62.012 C115.06,60.164 115.156,58.232 114.28,56.536 C113.56,54.476 111.328,53.308 109.232,53.3 C106.696,53.28 103.74,52.976 101.82,55.008 Z M138.104,54.132 C135.472,55.516 135.068,59.428 136.708,61.696 C138.776,63.896 142.052,63.436 144.752,63.984 C146.612,64.32 147.308,67.328 145.432,68.124 C143.808,68.584 142.052,68.608 140.44,68.096 C139.6,67.664 139.496,66.644 139.224,65.844 C138.02,65.824 136.82,65.824 135.62,65.828 C135.684,67.108 135.604,68.528 136.504,69.564 C138.076,71.552 140.884,71.608 143.2,71.664 C145.308,71.484 147.832,71.496 149.356,69.784 C150.588,68.432 150.224,66.484 150.192,64.824 C150.1,63.072 148.504,61.912 146.9,61.608 C144.876,60.86 142.652,61.244 140.632,60.508 C139.432,59.984 139.676,58.444 139.824,57.392 C141.032,55.748 143.28,56.272 144.968,56.672 C145.828,57.132 146,58.176 146.3,59.012 C147.512,59.012 148.728,59.008 149.944,58.996 C149.836,57.488 149.724,55.764 148.52,54.684 C147.196,53.488 145.328,53.228 143.612,53.284 C141.764,53.352 139.732,53.064 138.104,54.132 Z M120.008,54.44 C117.796,56.072 117.668,59.512 119.068,61.712 C121.376,64.016 124.896,63.216 127.712,64.224 C129.164,64.772 128.932,66.58 128.584,67.78 C126.652,68.804 124.432,68.476 122.384,68.056 C122.112,67.32 121.86,66.572 121.612,65.824 C120.46,65.82 119.304,65.82 118.148,65.788 C117.864,67.62 118.372,69.796 120.184,70.66 C122.708,71.904 125.696,71.776 128.416,71.38 C130.28,71.128 132.42,70.004 132.584,67.916 C132.68,66.124 133.044,63.828 131.416,62.58 C129.464,61.128 126.888,61.144 124.572,60.864 C123.74,60.664 122.672,60.668 122.26,59.768 C122.052,58.72 121.872,57.38 122.872,56.676 C124.284,56.4 125.76,56.404 127.18,56.628 C128.216,56.952 128.376,58.116 128.7,58.996 C129.924,59.008 131.148,59.012 132.372,59.008 C132.292,57.636 132.228,56.132 131.32,55.02 C130.332,54.052 129.024,53.316 127.608,53.36 C125.06,53.316 122.224,52.86 120.008,54.44 Z M156.08,54.188 C154.316,55.08 153.78,57.24 153.688,59.06 C154.896,59.112 156.108,59.108 157.32,59.116 C157.784,58.18 157.984,56.844 159.188,56.588 C160.484,56.42 161.828,56.4 163.108,56.684 C164.52,57.64 164.236,59.496 164.264,60.964 C162.032,60.984 159.816,61.232 157.604,61.484 C155.836,61.724 154.188,62.784 153.448,64.436 C153.224,66.308 152.864,68.6 154.384,70.048 C155.912,71.696 158.364,71.604 160.428,71.528 C161.96,71.52 163.236,70.58 164.588,69.988 C164.94,70.404 165.256,70.864 165.68,71.224 C166.368,71.328 167.064,71.344 167.764,71.408 C167.976,70.832 168.204,70.248 168.144,69.62 C168.112,66.412 168.124,63.204 168.132,59.996 C168.136,58.568 167.992,57.088 167.372,55.788 C166.5,54.168 164.596,53.272 162.8,53.336 C160.552,53.336 158.092,52.94 156.08,54.188 Z M72.664,60.364 C71.94,60.692 71.416,61.336 71.256,62.116 C70.564,63.992 72.336,66.248 74.356,65.852 C76.612,65.852 77.796,62.824 76.356,61.184 C75.596,59.916 73.9,59.956 72.664,60.364 Z" id="Shape"></path>
                <path d="M116.532,12.484 C119.432,11.956 122.24,13.184 124.812,14.376 C130.32,16.684 135.632,19.436 140.82,22.384 C142.504,23.392 144.4,25.008 144.148,27.184 C143.436,29.844 141.028,31.504 138.768,32.796 C136.336,34.088 133.876,35.332 131.468,36.672 C127.624,38.472 124.108,41.232 119.788,41.792 C116.456,42.148 112.964,41.92 109.884,40.516 C104.484,38.136 99.076,35.752 93.92,32.872 C91.88,31.764 90.108,29.688 90.36,27.232 C90.816,24.576 92.948,22.44 95.332,21.344 C98.48,19.788 101.728,18.44 104.856,16.848 C108.664,15.192 112.336,13 116.532,12.484 Z M114.972,13.824 C112.164,14.5 109.572,15.808 106.984,17.048 C104.608,18.088 102.288,19.244 99.924,20.312 C97.376,21.496 94.668,22.604 92.768,24.764 C91.708,25.78 91.436,27.476 92.072,28.788 C92.904,30.62 94.596,31.88 96.32,32.824 C100.892,35.332 105.648,37.476 110.388,39.64 C114.652,41.496 119.732,41.664 123.94,39.548 C127.432,37.748 130.828,35.768 134.316,33.956 C136.568,32.576 139.056,31.572 141.124,29.908 C142.172,29.108 142.936,27.8 142.7,26.444 C142.552,24.72 140.98,23.636 139.688,22.72 C134.604,19.728 129.268,17.168 123.76,15.052 C121.06,13.704 117.944,12.936 114.972,13.824 Z" id="Shape"></path>
                <path d="M108.792,22.864 C109.576,21.46 111.364,21.688 112.716,21.792 C113.788,21.86 114.736,22.88 114.656,23.968 C114.648,25.956 114.852,27.976 114.496,29.94 C113.476,31.58 111.124,31.74 109.56,30.856 C108.836,30.328 108.688,29.404 108.544,28.584 C109.688,28.236 109.964,29.36 110.316,30.164 C111.188,30.252 112.08,30.348 112.944,30.128 C113.704,29.268 113.408,28.004 113.536,26.956 C111.988,27.492 109.86,27.916 108.708,26.42 C108.432,25.276 108.328,23.964 108.792,22.864 Z M110.176,22.964 C109.264,23.92 109.24,25.772 110.456,26.504 C111.456,26.776 112.472,26.472 113.44,26.216 C113.488,25.176 113.46,24.132 113.352,23.092 C112.348,22.692 111.18,22.36 110.176,22.964 Z" id="Shape"></path>
                <path d="M116.236,24.588 C116.264,23.404 116.824,22.076 118.104,21.82 C119.6,21.592 121.84,21.508 122.352,23.328 C122.904,24.404 122.092,25.472 121.672,26.436 C122.78,27.26 123,28.768 122.472,29.984 C121.484,31.704 119.028,31.568 117.412,30.932 C116.416,30.524 116.488,29.368 116.336,28.484 C116.596,28.5 117.116,28.528 117.376,28.544 C117.564,29.06 117.76,29.58 117.952,30.096 C119.116,30.352 120.336,30.38 121.404,29.784 C121.432,29.024 121.596,28.232 121.348,27.492 C120.736,26.72 119.624,27.004 118.772,26.82 C118.768,25.644 120.12,25.912 120.916,25.7 C121.076,24.944 121.68,24.096 121.096,23.376 C120.584,22.472 119.332,22.556 118.444,22.708 C117.64,23.328 117.54,24.9 116.236,24.588 Z" id="Shape"></path>
                <path d="M125.792,21.88 C126.944,21.664 128.176,21.616 129.312,21.936 C131.036,22.936 130.596,25.148 130.652,26.812 C130.572,28.16 130.912,29.88 129.64,30.792 C128.336,31.636 126.516,31.524 125.208,30.76 C123.736,29.316 124.344,27.028 124.208,25.184 C124.064,23.896 124.612,22.5 125.792,21.88 Z M125.44,23.592 C125.68,25.736 124.692,28.352 126.256,30.128 C127.204,30.256 128.572,30.536 129.192,29.6 C129.636,28.176 129.42,26.648 129.456,25.176 C129.42,24.384 129.56,23.224 128.624,22.892 C127.524,22.288 126.248,22.728 125.44,23.592 Z" id="Shape"></path>
                <path d="M103.192,22.396 C104.108,21.936 105.12,21.784 106.136,21.784 C106.128,24.88 106.172,27.98 106.088,31.076 C105.804,31.092 105.232,31.12 104.944,31.136 C104.912,28.472 104.892,25.804 104.952,23.14 C104.36,22.908 103.768,22.664 103.192,22.396 Z" id="Shape"></path>
                <path d="M105.644,56.644 C107.076,56.324 108.552,56.528 109.996,56.62 C111.18,57.764 111.456,59.448 111.304,61.028 C108.788,61.036 106.272,61.048 103.756,61.004 C104.008,59.464 103.836,57.276 105.644,56.644 Z" id="Shape"></path>
                <path d="M159.984,63.876 C161.408,63.76 162.824,63.596 164.236,63.38 C164.244,64.556 164.236,65.728 164.268,66.904 C162.672,68.14 160.568,68.84 158.572,68.296 C157.196,67.996 156.444,66.136 157.384,65.024 C157.9,64.08 159.056,64.06 159.984,63.876 Z" id="Shape"></path>
                <path d="M199.184,89.672 C205.1,86.684 210.88,83.424 216.84,80.524 C222.168,87.484 226.428,95.208 230.112,103.144 C230.428,103.956 230.956,104.736 230.94,105.64 L230.876,105.988 C223.832,110.26 216.7,114.396 209.468,118.34 C187.796,130.508 165.908,142.284 144.068,154.144 C137.056,157.752 130.228,161.704 123.224,165.32 C108.988,173.12 94.616,180.66 80.332,188.368 C72.496,192.56 64.692,196.816 56.796,200.896 C52.168,203.448 47.516,205.96 42.824,208.388 C31.076,204.304 20.724,196.684 12.548,187.384 C74.732,154.76 136.988,122.268 199.184,89.672 Z" id="Shape"></path>
            </g>
            <g id="#1f1b1aff" fill="#1F1B1A">
                <path d="M127.736,0 L128.316,0 C144.024,4.44 159.684,9.064 175.396,13.484 C178.504,9.292 181.664,5.14 184.708,0.904 C205.14,7.972 225.544,15.136 245.96,22.256 C245.824,23.92 245.44,25.544 245.108,27.176 C241.368,45.984 237.488,64.768 233.836,83.592 C234.576,85.32 235.88,86.72 236.852,88.316 C245.98,102.376 252.716,118.172 255.26,134.8 C255.476,136.928 255.564,139.076 256,141.176 L256,150.52 C255.692,152.544 255.516,154.584 255.312,156.62 C254,165.388 250.896,173.884 246.248,181.432 C239.212,192.8 228.972,201.868 217.688,208.884 C210.524,213.38 202.904,217.108 195.084,220.316 C179.896,226.928 164.884,234.06 150.696,242.644 C144.456,246.532 138.22,250.616 133.156,256 L120.68,256 C113.464,251.324 106.656,246.044 99.452,241.352 C85.704,232.168 70.928,224.292 55.044,219.536 C39.172,214.492 25.312,203.868 15.612,190.408 C8.024,179.924 2.988,167.632 0.964,154.852 C0.476,152.212 0.472,149.512 0,146.868 L0,137.84 C0.464,131.576 1.228,125.308 2.948,119.252 C6.036,107.7 11.308,96.756 18.228,87.012 C18.728,86.332 19.168,85.512 18.88,84.644 C14.312,63.836 9.84,43.008 5.292,22.192 C28.708,15.468 52.192,8.964 75.6,2.208 C77.22,5.908 78.692,9.668 80.308,13.372 C96.124,8.936 111.92,4.436 127.736,0 Z M77.2,19.856 C75.62,16.204 74.072,12.54 72.596,8.844 C71.548,8.968 70.528,9.236 69.52,9.528 C59.16,12.552 48.744,15.376 38.384,18.396 C29.46,20.808 20.62,23.52 11.68,25.848 C12.284,29.528 13.236,33.14 13.964,36.8 C17.6,53.36 21.124,69.944 24.76,86.504 C24.884,86.592 25.136,86.772 25.264,86.864 C28.98,86.924 32.704,86.944 36.416,86.72 C50.944,86.652 65.472,86.552 80,86.508 C99.188,86.008 118.408,86.42 137.6,85.916 C146.132,85.912 154.668,85.8 163.2,85.784 C168.4,85.744 173.604,85.804 178.796,85.528 C194.536,85.48 210.276,85.336 226.016,85.308 C226.676,85.292 227.332,85.204 227.988,85.1 C232.032,65.368 235.892,45.592 239.896,25.852 C228.904,21.916 217.848,18.176 206.844,14.28 C200.124,11.996 193.464,9.52 186.716,7.316 C183.656,11.42 180.596,15.524 177.536,19.628 C174.508,18.98 171.568,17.988 168.592,17.14 C155.064,13.292 141.564,9.328 128.032,5.5 C111.076,10.244 94.144,15.064 77.2,19.856 Z M210.784,94.872 C148.588,127.468 86.332,159.96 24.148,192.584 C32.324,201.884 42.676,209.504 54.424,213.588 C56.032,214.12 57.608,214.748 59.244,215.208 C61.864,215.92 64.196,217.404 66.852,218.016 C71.856,219.92 76.544,222.56 81.512,224.556 C93.836,230.832 105.224,238.736 116.508,246.696 C119.384,248.956 122.536,250.816 125.612,252.788 C126.552,253.4 128.032,253.94 128.852,252.848 C134.196,246.964 140.912,242.568 147.604,238.376 C153.556,234.584 159.76,231.22 166.072,228.072 C169.132,226.58 172.056,224.8 175.232,223.556 C179.916,221.232 184.684,219.08 189.508,217.064 C192.912,215.3 196.612,214.192 199.992,212.372 C201.576,211.5 203.4,211.148 204.9,210.124 C205.888,209.472 206.936,208.924 208,208.408 C211.252,206.844 214.192,204.736 217.252,202.844 C222.596,199.54 227.308,195.348 231.872,191.06 C239.696,183.288 245.628,173.552 248.564,162.896 C249.224,160.784 249.792,158.616 249.76,156.38 C249.68,154.328 250.784,152.456 250.628,150.4 C250.54,146.524 250.9,142.608 250.228,138.768 C249.76,135.816 249.64,132.812 248.984,129.892 C247.672,123.348 245.352,117.072 242.936,110.872 C242.82,110.948 242.592,111.108 242.476,111.188 L242.54,110.84 C242.556,109.936 242.028,109.156 241.712,108.344 C238.028,100.408 233.768,92.684 228.44,85.724 C222.48,88.624 216.7,91.884 210.784,94.872 Z" id="Shape"></path>
                <path d="M126.18,17.152 C127.704,16.816 129.276,16.888 130.828,16.9 C133.108,16.88 135.092,18.14 137.148,18.956 C141.384,20.664 145.388,22.876 149.444,24.964 C151.764,26.268 154.452,27.336 155.948,29.672 C156.96,31.252 156.604,33.328 155.568,34.8 C154.328,36.48 152.66,37.808 150.804,38.752 C146.692,40.88 142.616,43.076 138.532,45.256 C136.388,46.512 134.04,47.472 131.572,47.84 C128.352,47.992 124.968,48.152 121.952,46.808 C116.864,44.648 111.816,42.376 106.904,39.836 C104.716,38.612 102.196,37.296 101.392,34.724 C100.292,31.264 102.76,27.756 105.72,26.156 C109.96,24.1 114.268,22.18 118.532,20.164 C121.012,19.004 123.488,17.752 126.18,17.152 Z M128.132,17.684 C123.936,18.2 120.264,20.392 116.456,22.048 C113.328,23.64 110.08,24.988 106.932,26.544 C104.548,27.64 102.416,29.776 101.96,32.432 C101.708,34.888 103.48,36.964 105.52,38.072 C110.676,40.952 116.084,43.336 121.484,45.716 C124.564,47.12 128.056,47.348 131.388,46.992 C135.708,46.432 139.224,43.672 143.068,41.872 C145.476,40.532 147.936,39.288 150.368,37.996 C152.628,36.704 155.036,35.044 155.748,32.384 C156,30.208 154.104,28.592 152.42,27.584 C147.232,24.636 141.92,21.884 136.412,19.576 C133.84,18.384 131.032,17.156 128.132,17.684 Z" id="Shape"></path>
                <path d="M126.572,19.024 C129.544,18.136 132.66,18.904 135.36,20.252 C140.868,22.368 146.204,24.928 151.288,27.92 C152.58,28.836 154.152,29.92 154.3,31.644 C154.536,33 153.772,34.308 152.724,35.108 C150.656,36.772 148.168,37.776 145.916,39.156 C142.428,40.968 139.032,42.948 135.54,44.748 C131.332,46.864 126.252,46.696 121.988,44.84 C117.248,42.676 112.492,40.532 107.92,38.024 C106.196,37.08 104.504,35.82 103.672,33.988 C103.036,32.676 103.308,30.98 104.368,29.964 C106.268,27.804 108.976,26.696 111.524,25.512 C113.888,24.444 116.208,23.288 118.584,22.248 C121.172,21.008 123.764,19.7 126.572,19.024 Z M120.392,28.064 C119.928,29.164 120.032,30.476 120.308,31.62 C121.46,33.116 123.588,32.692 125.136,32.156 C125.008,33.204 125.304,34.468 124.544,35.328 C123.68,35.548 122.788,35.452 121.916,35.364 C121.564,34.56 121.288,33.436 120.144,33.784 C120.288,34.604 120.436,35.528 121.16,36.056 C122.724,36.94 125.076,36.78 126.096,35.14 C126.452,33.176 126.248,31.156 126.256,29.168 C126.336,28.08 125.388,27.06 124.316,26.992 C122.964,26.888 121.176,26.66 120.392,28.064 Z M127.836,29.788 C129.14,30.1 129.24,28.528 130.044,27.908 C130.932,27.756 132.184,27.672 132.696,28.576 C133.28,29.296 132.676,30.144 132.516,30.9 C131.72,31.112 130.368,30.844 130.372,32.02 C131.224,32.204 132.336,31.92 132.948,32.692 C133.196,33.432 133.032,34.224 133.004,34.984 C131.936,35.58 130.716,35.552 129.552,35.296 C129.36,34.78 129.164,34.26 128.976,33.744 C128.716,33.728 128.196,33.7 127.936,33.684 C128.088,34.568 128.016,35.724 129.012,36.132 C130.628,36.768 133.084,36.904 134.072,35.184 C134.6,33.968 134.38,32.46 133.272,31.636 C133.692,30.672 134.504,29.604 133.952,28.528 C133.44,26.708 131.2,26.792 129.704,27.02 C128.424,27.276 127.864,28.604 127.836,29.788 Z M137.392,27.08 C136.212,27.7 135.664,29.096 135.808,30.384 C135.944,32.228 135.336,34.516 136.808,35.96 C138.116,36.724 139.936,36.836 141.24,35.992 C142.512,35.08 142.172,33.36 142.252,32.012 C142.196,30.348 142.636,28.136 140.912,27.136 C139.776,26.816 138.544,26.864 137.392,27.08 Z M114.792,27.596 C115.368,27.864 115.96,28.108 116.552,28.34 C116.492,31.004 116.512,33.672 116.544,36.336 C116.832,36.32 117.404,36.292 117.688,36.276 C117.772,33.18 117.728,30.08 117.736,26.984 C116.72,26.984 115.708,27.136 114.792,27.596 Z" id="Shape"></path>
                <path d="M121.776,28.164 C122.78,27.56 123.948,27.892 124.952,28.292 C125.06,29.332 125.088,30.376 125.04,31.416 C124.072,31.672 123.056,31.976 122.056,31.704 C120.84,30.972 120.864,29.12 121.776,28.164 Z" id="Shape"></path>
                <path d="M137.04,28.792 C137.848,27.928 139.124,27.488 140.224,28.092 C141.16,28.424 141.02,29.584 141.056,30.376 C141.02,31.848 141.236,33.376 140.792,34.8 C140.172,35.736 138.804,35.456 137.856,35.328 C136.292,33.552 137.28,30.936 137.04,28.792 Z" id="Shape"></path>
                <path d="M39.884,55.456 C41.784,53.088 45.2,52.896 48.004,53.064 C50.032,53.34 52.46,53.812 53.5,55.804 C54.268,56.976 54.284,58.408 54.3,59.76 C53.096,59.76 51.896,59.752 50.696,59.78 C50.364,58.908 50.18,57.952 49.608,57.2 C48.524,56.192 46.912,56.604 45.576,56.52 C44.42,56.408 43.32,57.06 42.748,58.044 C42.432,59.58 42.324,61.672 44.012,62.452 C46.84,63.744 50.284,63.28 52.912,65.12 C54.28,65.98 54.716,67.664 54.852,69.176 C55.024,71.808 54.184,74.944 51.516,76.048 C48.676,77.08 45.508,77.048 42.584,76.376 C41.184,76.12 40.108,75.08 39.284,73.984 C38.536,72.76 38.488,71.276 38.372,69.888 C39.612,69.872 40.856,69.872 42.096,69.872 C42.392,70.912 42.508,72.216 43.508,72.852 C44.552,73.696 45.984,73.416 47.224,73.476 C48.684,73.592 50.384,72.788 50.712,71.256 C51.2,69.872 50.94,68.008 49.556,67.248 C47.004,65.984 43.984,66.256 41.452,64.924 C38.196,63.14 37.9,58.284 39.884,55.456 Z" id="Shape"></path>
                <path d="M58.932,53.408 C60.252,53.432 61.576,53.424 62.9,53.46 C62.896,61.148 62.916,68.832 62.896,76.52 C61.58,76.5 60.264,76.48 58.952,76.564 C58.896,68.848 58.932,61.128 58.932,53.408 Z" id="Shape"></path>
                <path d="M192.02,53.432 C193.296,53.444 194.58,53.444 195.86,53.416 C195.86,61.124 195.924,68.832 195.828,76.54 C194.58,76.504 193.336,76.508 192.088,76.476 C192.012,68.796 192.148,61.112 192.02,53.432 Z" id="Shape"></path>
                <path d="M200.576,53.424 C201.908,53.444 203.24,53.424 204.572,53.484 C204.44,60.012 204.528,66.54 204.524,73.068 C206.984,73.116 209.448,73.024 211.908,73.096 C212.56,73.98 212.048,75.392 212.204,76.48 C208.328,76.516 204.444,76.492 200.568,76.492 C200.576,68.804 200.56,61.112 200.576,53.424 Z" id="Shape"></path>
                <path d="M67.36,53.452 C71.644,53.396 75.924,53.5 80.204,53.388 C80.608,54.448 80.484,55.588 80.316,56.68 C77.336,56.796 74.332,56.492 71.368,56.88 C71.384,58.94 71.372,61.004 71.368,63.064 C73.932,63.132 76.5,63.048 79.064,63.124 C79.084,64.188 79.088,65.248 79.088,66.312 C76.516,66.328 73.944,66.252 71.376,66.352 C71.38,69.656 71.364,72.96 71.384,76.264 C70.052,76.352 68.72,76.36 67.384,76.344 C67.428,68.716 67.476,61.08 67.36,53.452 Z" id="Shape"></path>
                <path d="M92.112,57.6 C92.116,56.196 92.06,54.784 92.228,53.388 C93.476,53.444 94.724,53.444 95.972,53.46 C95.956,56.728 95.72,60.024 96.104,63.276 C98.664,63.252 101.228,63.228 103.788,63.324 C103.872,60.028 103.816,56.736 103.832,53.44 C105.132,53.424 106.432,53.416 107.736,53.448 C107.768,61.148 107.748,68.844 107.748,76.54 C106.452,76.5 105.152,76.504 103.86,76.544 C103.796,73.152 103.864,69.76 103.816,66.368 C101.192,66.252 98.568,66.328 95.944,66.324 C95.864,69.708 95.952,73.092 95.904,76.476 C94.648,76.5 93.392,76.508 92.14,76.496 C92.084,70.196 92.14,63.9 92.112,57.6 Z" id="Shape"></path>
                <path d="M113.42,60.208 C115.34,58.176 118.296,58.48 120.832,58.5 C122.928,58.508 125.16,59.676 125.88,61.736 C126.756,63.432 126.66,65.364 126.68,67.212 C126.588,67.78 126.876,68.52 126.412,68.968 C122.716,69.008 119.02,68.9 115.328,69.016 C115.58,70.528 115.54,72.412 117,73.332 C119.88,73.972 122.928,73.576 125.796,73.024 C125.856,74.168 125.852,75.316 125.764,76.46 C122.184,76.532 118.452,77.48 114.996,76.112 C112.508,75.068 111.636,72.08 111.708,69.596 C111.772,66.436 111.208,62.816 113.42,60.208 Z M117.244,61.844 C115.436,62.476 115.608,64.664 115.356,66.204 C117.872,66.248 120.388,66.236 122.904,66.228 C123.056,64.648 122.78,62.964 121.596,61.82 C120.152,61.728 118.676,61.524 117.244,61.844 Z" id="Shape"></path>
                <path d="M149.704,59.332 C151.332,58.264 153.364,58.552 155.212,58.484 C156.928,58.428 158.796,58.688 160.12,59.884 C161.324,60.964 161.436,62.688 161.544,64.196 C160.328,64.208 159.112,64.212 157.9,64.212 C157.6,63.376 157.428,62.332 156.568,61.872 C154.88,61.472 152.632,60.948 151.424,62.592 C151.276,63.644 151.032,65.184 152.232,65.708 C154.252,66.444 156.476,66.06 158.5,66.808 C160.104,67.112 161.7,68.272 161.792,70.024 C161.824,71.684 162.188,73.632 160.956,74.984 C159.432,76.696 156.908,76.684 154.8,76.864 C152.484,76.808 149.676,76.752 148.104,74.764 C147.204,73.728 147.284,72.308 147.22,71.028 C148.42,71.024 149.62,71.024 150.824,71.044 C151.096,71.844 151.2,72.864 152.04,73.296 C153.652,73.808 155.408,73.784 157.032,73.324 C158.908,72.528 158.212,69.52 156.352,69.184 C153.652,68.636 150.376,69.096 148.308,66.896 C146.668,64.628 147.072,60.716 149.704,59.332 Z" id="Shape"></path>
                <path d="M131.608,59.64 C133.824,58.06 136.66,58.516 139.208,58.56 C140.624,58.516 141.932,59.252 142.92,60.22 C143.828,61.332 143.892,62.836 143.972,64.208 C142.748,64.212 141.524,64.208 140.3,64.196 C139.976,63.316 139.816,62.152 138.78,61.828 C137.36,61.604 135.884,61.6 134.472,61.876 C133.472,62.58 133.652,63.92 133.86,64.968 C134.272,65.868 135.34,65.864 136.172,66.064 C138.488,66.344 141.064,66.328 143.016,67.78 C144.644,69.028 144.28,71.324 144.184,73.116 C144.02,75.204 141.88,76.328 140.016,76.58 C137.296,76.976 134.308,77.104 131.784,75.86 C129.972,74.996 129.464,72.82 129.748,70.988 C130.904,71.02 132.06,71.02 133.212,71.024 C133.46,71.772 133.712,72.52 133.984,73.256 C136.032,73.676 138.252,74.004 140.184,72.98 C140.532,71.78 140.764,69.972 139.312,69.424 C136.496,68.416 132.976,69.216 130.668,66.912 C129.268,64.712 129.396,61.272 131.608,59.64 Z" id="Shape"></path>
                <path d="M167.68,59.388 C169.692,58.14 172.152,58.536 174.4,58.536 C176.196,58.472 178.1,59.368 178.972,60.988 C179.592,62.288 179.736,63.768 179.732,65.196 C179.724,68.404 179.712,71.612 179.744,74.82 C179.804,75.448 179.576,76.032 179.364,76.608 C178.664,76.544 177.968,76.528 177.28,76.424 C176.856,76.064 176.54,75.604 176.188,75.188 C174.836,75.78 173.56,76.72 172.028,76.728 C169.964,76.804 167.512,76.896 165.984,75.248 C164.464,73.8 164.824,71.508 165.048,69.636 C165.788,67.984 167.436,66.924 169.204,66.684 C171.416,66.432 173.632,66.184 175.864,66.164 C175.836,64.696 176.12,62.84 174.708,61.884 C173.428,61.6 172.084,61.62 170.788,61.788 C169.584,62.044 169.384,63.38 168.92,64.316 C167.708,64.308 166.496,64.312 165.288,64.26 C165.38,62.44 165.916,60.28 167.68,59.388 Z M171.584,69.076 C170.656,69.26 169.5,69.28 168.984,70.224 C168.044,71.336 168.796,73.196 170.172,73.496 C172.168,74.04 174.272,73.34 175.868,72.104 C175.836,70.928 175.844,69.756 175.836,68.58 C174.424,68.796 173.008,68.96 171.584,69.076 Z" id="Shape"></path>
                <path d="M84.264,65.564 C85.5,65.156 87.196,65.116 87.956,66.384 C89.396,68.024 88.212,71.052 85.956,71.052 C83.936,71.448 82.164,69.192 82.856,67.316 C83.016,66.536 83.54,65.892 84.264,65.564 Z" id="Shape"></path>
            </g>
            <g id="#e10312ff" transform="translate(54.400000, 110.800000)" fill="#E10312">
                <path d="M188.076,0.388 C188.192,0.308 188.42,0.148 188.536,0.072 C190.952,6.272 193.272,12.548 194.584,19.092 C195.24,22.012 195.36,25.016 195.828,27.968 C196.5,31.808 196.14,35.724 196.228,39.6 C196.384,41.656 195.28,43.528 195.36,45.58 C195.392,47.816 194.824,49.984 194.164,52.096 C191.228,62.752 185.296,72.488 177.472,80.26 C172.908,84.548 168.196,88.74 162.852,92.044 C159.792,93.936 156.852,96.044 153.6,97.608 C152.536,98.124 151.488,98.672 150.5,99.324 C149,100.348 147.176,100.7 145.592,101.572 C142.212,103.392 138.512,104.5 135.108,106.264 C130.284,108.28 125.516,110.432 120.832,112.756 C117.656,114 114.732,115.78 111.672,117.272 C105.36,120.42 99.156,123.784 93.204,127.576 C86.512,131.768 79.796,136.164 74.452,142.048 C73.632,143.14 72.152,142.6 71.212,141.988 C68.136,140.016 64.984,138.156 62.108,135.896 C50.824,127.936 39.436,120.032 27.112,113.756 C22.144,111.76 17.456,109.12 12.452,107.216 C9.796,106.604 7.464,105.12 4.844,104.408 C3.208,103.948 1.632,103.32 0.024,102.788 C4.716,100.36 9.368,97.848 13.996,95.296 C21.892,91.216 29.696,86.96 37.532,82.768 C51.816,75.06 66.188,67.52 80.424,59.72 C87.428,56.104 94.256,52.152 101.268,48.544 C123.108,36.684 144.996,24.908 166.668,12.74 C173.9,8.796 181.032,4.66 188.076,0.388 Z" id="Shape"></path>
            </g>
        </g>
    </g>
</svg>