<?xml version="1.0" encoding="UTF-8"?>
<svg width="256px" height="256px" viewBox="0 0 256 256" version="1.1" xmlns="http://www.w3.org/2000/svg" xmlns:xlink="http://www.w3.org/1999/xlink">
    <!-- Generator: Sketch 50.2 (55047) - http://www.bohemiancoding.com/sketch -->
    <title>logo/skjetten</title>
    <desc>Created with Sketch.</desc>
    <defs></defs>
    <g id="logo/skjetten" stroke="none" stroke-width="1" fill="none" fill-rule="evenodd">
        <circle id="Oval-3" stroke="#06A360" stroke-width="4" cx="128" cy="128" r="126"></circle>
        <g id="#06a360ff" transform="translate(4.000000, 0.000000)" fill="#06A360">
            <path d="M112.024985,55.1591592 C117.329489,49.6855255 125.53994,49.8854054 132.558799,50.485045 C135.564685,50.7156757 138.170811,52.3147147 140.569369,54.006006 C140.315676,54.6902102 140.061982,55.3744144 139.808288,56.0586186 C137.00997,55.0130931 134.319279,53.6446847 131.413333,52.9066667 C129.145465,52.2685886 126.86991,53.144985 124.70967,53.7523123 C125.701381,59.9101502 131.628589,63.1466667 135.264865,67.667027 C138.216937,71.3724925 141.614895,74.9318919 143.375375,79.3984384 C145.08973,84.1417417 144.051892,90.4840841 139.339339,93.1132733 C133.31988,97.1185586 125.770571,97.3568769 118.859339,96.2267868 C114.761802,95.089009 110.387508,92.7673273 109.088288,88.4007207 C114.16985,90.0843243 118.205886,94.5047447 123.764084,94.72 C126.13958,95.1197598 127.969249,92.2291892 126.839159,90.1996396 C125.578378,87.6780781 123.448889,85.7638438 121.565405,83.7189189 C116.898979,78.7603604 111.986547,73.6711111 109.68024,67.1212012 C107.881321,63.138979 109.38042,58.3726126 112.024985,55.1591592 Z" id="Shape" fill-rule="nonzero"></path>
            <path d="M81.7354955,66.3908709 C86.424985,60.7942342 95.3657658,60.2176577 101.36985,63.9308108 C98.0795195,64.3382583 94.7353754,64.2536937 91.5142342,65.1224024 C94.0972973,72.9561562 102.077117,77.2843243 105.106066,84.8720721 C106.328408,87.6627027 104.637117,90.7147147 102.853574,92.8365165 C98.7099099,96.7418619 92.5366967,97.2569369 87.1476276,96.4958559 C84.6183784,96.1114715 82.6426426,94.350991 80.812973,92.7135135 C84.9566366,92.3060661 88.639039,95.212012 92.8595796,94.3279279 C92.6366366,92.7288889 93.0440841,90.8223423 91.8678679,89.5231231 C87.9317718,84.9566366 83.003964,80.959039 80.6054054,75.2778378 C79.2831231,72.3872673 79.6828829,68.8355556 81.7354955,66.3908709 Z" id="Shape" fill-rule="nonzero"></path>
            <path d="M148.67988,63.0621021 C153.476997,62.1626426 158.374054,62.5162763 163.217297,62.7084685 C163.501742,65.1300901 163.048168,67.9207207 164.63952,69.9733333 C169.367447,68.6818018 172.757718,64.738018 177.208889,62.8391592 C178.177538,62.6546547 179.153874,62.8545345 180.13021,62.9083483 C177.577898,66.2217417 173.14979,67.0289489 170.374535,70.0425225 C170.359159,71.1495495 170.774294,72.2027628 171.174054,73.2175375 C173.810931,79.3292492 176.955195,85.218018 180.606847,90.7915916 C181.66006,92.16 181.867628,93.8666667 181.613934,95.5348949 C177.700901,92.9595195 176.847568,88.1316517 174.887207,84.2109309 C172.673153,79.7828228 170.420661,75.347027 167.722282,71.1803003 C167.045766,71.1418619 165.677357,71.064985 164.993153,71.0265465 C164.255135,72.8946547 163.447928,74.8012012 163.455616,76.8461261 C163.301862,83.1115916 163.801562,89.3924324 163.332613,95.6502102 C159.2197,95.7501502 155.083724,96.073033 150.986186,95.557958 C149.679279,95.4503303 148.456937,94.3971171 148.695255,92.9902703 C148.649129,83.0193393 148.772132,73.0407207 148.67988,63.0621021 Z" id="Shape" fill-rule="nonzero"></path>
            <path d="M84.48,105.621141 C91.9524324,101.354474 101.093093,100.716396 109.226667,103.337898 C109.541862,103.460901 110.164565,103.691532 110.47976,103.814535 C116.483844,105.721081 120.581381,110.702703 125.224745,114.646486 C129.752793,118.613333 132.935495,123.802523 137.217538,128.007688 C141.637958,132.305105 145.72012,136.933093 150.163604,141.19976 C154.484084,145.08973 158.204925,149.556276 162.156396,153.79988 C168.998438,160.54967 175.417658,167.72997 182.651772,174.072312 L183.08997,174.487447 C184.996517,178.139099 186.264985,182.075195 187.541141,185.972853 C190.631592,194.967447 187.141381,204.623183 182.851652,212.603003 C177.654775,219.237477 169.536577,223.004444 161.28,223.973093 C154.953033,224.411291 148.595315,222.643123 143.014054,219.714114 C138.954955,217.646126 136.133574,213.979099 133.058498,210.734895 C129.714354,204.738498 124.502102,200.248889 119.466667,195.728529 C110.326006,186.411051 101.984865,176.324805 92.3983183,167.453213 C86.9323724,161.733574 80.7437838,156.698138 75.8774775,150.432673 C74.8780781,149.064264 73.9324925,147.665105 73.0022823,146.250571 C70.3654054,139.03952 68.5895495,131.098138 70.5806607,123.495015 C70.8266667,122.703183 71.088048,121.919039 71.3571171,121.134895 C72.4103303,118.597958 73.8863664,116.268589 75.4239039,114.000721 C76.3003003,112.747628 77.1766967,111.494535 78.1376577,110.302943 C79.8673874,108.619339 81.8738739,107.258619 83.9111111,105.982462 L84.48,105.621141 Z" id="Shape" fill-rule="nonzero"></path>
            <polygon id="Path-2-Copy" transform="translate(100.572618, 187.854093) rotate(180.000000) translate(-100.572618, -187.854093) " points="131.145236 219.708186 131.145236 156 70 156"></polygon>
            <polygon id="Path-2" points="189.145236 167.708186 189.145236 104 128 104"></polygon>
        </g>
    </g>
</svg>