<?xml version="1.0" encoding="UTF-8" standalone="no"?>
<!-- Created with Inkscape (http://www.inkscape.org/) -->

<svg
   width="256"
   height="330"
   viewBox="0 0 67.733332 87.312502"
   version="1.1"
   id="svg5"
   inkscape:version="1.1 (c68e22c387, 2021-05-23)"
   sodipodi:docname="snaasa.svg"
   xmlns:inkscape="http://www.inkscape.org/namespaces/inkscape"
   xmlns:sodipodi="http://sodipodi.sourceforge.net/DTD/sodipodi-0.dtd"
   xmlns="http://www.w3.org/2000/svg"
   xmlns:svg="http://www.w3.org/2000/svg">
  <sodipodi:namedview
     id="namedview7"
     pagecolor="#ffffff"
     bordercolor="#666666"
     borderopacity="1.0"
     inkscape:pageshadow="2"
     inkscape:pageopacity="0.0"
     inkscape:pagecheckerboard="0"
     inkscape:document-units="mm"
     showgrid="false"
     units="px"
     inkscape:zoom="0.69664703"
     inkscape:cx="216.0348"
     inkscape:cy="561.25984"
     inkscape:window-width="1920"
     inkscape:window-height="986"
     inkscape:window-x="-11"
     inkscape:window-y="-11"
     inkscape:window-maximized="1"
     inkscape:current-layer="layer1" />
  <defs
     id="defs2" />
  <g
     inkscape:label="Lag 1"
     inkscape:groupmode="layer"
     id="layer1">
    <g
       id="g129"
       transform="translate(2.1330385,2.7702362)">
      <path
         style="display:inline;fill:#ccb499;stroke-width:0.264583"
         d="m 27.847396,68.881024 c -0.378473,-0.152717 -0.449607,-0.618522 -0.09445,-0.618522 0.129953,0 0.304808,0.178594 0.388573,0.396875 0.08376,0.218282 0.126264,0.387475 0.09445,0.375987 -0.03181,-0.01148 -0.206671,-0.08094 -0.388572,-0.15434 z m 5.969661,-0.0055 c 0.190995,-0.07643 0.419198,-0.06703 0.507119,0.02088 0.08792,0.08792 -0.06835,0.150452 -0.347265,0.138964 -0.308227,-0.0127 -0.37092,-0.07539 -0.159854,-0.159851 z m 3.911979,-0.04192 c -0.07569,-0.122462 0.284247,-0.628478 0.799851,-1.124479 1.296479,-1.247185 1.508175,-1.703321 1.124603,-2.423173 -0.287633,-0.539808 -0.276166,-0.561457 0.122984,-0.232188 0.668335,0.551328 0.533958,1.187786 -0.485849,2.301155 -0.509323,0.556054 -0.926042,1.166331 -0.926042,1.356175 0,0.385443 -0.42269,0.466921 -0.635547,0.12251 z m -13.366481,-0.46085 c 0.01269,-0.308226 0.07539,-0.370919 0.159852,-0.159853 0.07643,0.190995 0.06703,0.419201 -0.02089,0.507119 -0.08792,0.08792 -0.150453,-0.06835 -0.138964,-0.347266 z m 8.622168,0.242533 c -0.09701,-0.09701 -0.17277,-0.364902 -0.168344,-0.595312 0.0066,-0.344038 0.05824,-0.332608 0.288835,0.06394 0.284898,0.489926 0.202303,0.854167 -0.120491,0.53137 z m 1.679744,-0.0064 c 0.0022,-0.11774 0.119468,-0.392658 0.260533,-0.610939 0.221033,-0.342024 0.25704,-0.335039 0.260533,0.05053 0.0021,0.246073 -0.115012,0.520991 -0.260533,0.610928 -0.145521,0.08994 -0.26276,0.0672 -0.260533,-0.05053 z m -4.881832,-0.423902 c 0.09936,-0.260938 0.247303,-0.407781 0.328766,-0.326319 0.08146,0.08146 1.69e-4,0.294955 -0.180652,0.474433 -0.261308,0.25936 -0.291698,0.22897 -0.148114,-0.148114 z m -0.03929,-1.647664 c 0.09206,-0.366789 0.02596,-0.932336 -0.146925,-1.256771 -0.284732,-0.534381 -0.272886,-0.555717 0.125888,-0.226758 0.492525,0.406297 0.611691,2.150417 0.146926,2.150417 -0.181335,0 -0.229383,-0.254529 -0.125889,-0.666888 z m 5.488014,0.13771 c 0,-0.363802 0.06006,-0.51263 0.133454,-0.330729 0.0734,0.181901 0.0734,0.479558 0,0.661459 -0.0734,0.181901 -0.133454,0.03307 -0.133454,-0.33073 z m -7.538302,0.08819 c -0.3235,-0.323498 -0.181633,-1.341964 0.235101,-1.687822 0.365811,-0.303599 0.37618,-0.264007 0.09339,0.356642 -0.251024,0.550937 -0.247274,0.783487 0.01778,1.10286 0.32263,0.388745 0.01619,0.590797 -0.346274,0.22832 z m 5.115277,-1.070033 c 0,-0.151956 0.20836,-0.43969 0.463021,-0.639411 0.428297,-0.335891 0.433912,-0.32344 0.07487,0.166042 -0.213484,0.291042 -0.421843,0.578776 -0.463021,0.639411 -0.04118,0.06063 -0.07487,-0.01409 -0.07487,-0.166042 z m 1.878645,-0.419256 c -0.334677,-0.557295 -0.329038,-0.562933 0.126558,-0.126559 0.262263,0.251199 0.419889,0.513673 0.350282,0.58328 -0.06961,0.06961 -0.284183,-0.135917 -0.47684,-0.456721 z m -10.722841,0.08895 c -0.484418,-0.173712 -0.485827,-0.192029 -0.02828,-0.367607 0.525728,-0.201742 0.778526,-0.07978 0.631805,0.304805 -0.05154,0.135094 -0.323126,0.163354 -0.603528,0.0628 z m 13.87128,0.03724 c 0,-0.319762 0.501967,-0.692571 0.685456,-0.509085 0.06659,0.0666 -0.06039,0.27169 -0.282186,0.455766 -0.251458,0.20869 -0.40327,0.228764 -0.40327,0.05332 z m -11.54841,-6.230459 c -0.949551,-0.520335 -1.038651,-0.641305 -0.661458,-0.898051 0.391761,-0.266666 0.382317,-0.300964 -0.09326,-0.338648 -0.439071,-0.0348 -0.416784,-0.0732 0.130902,-0.2256 1.188495,-0.330697 0.928984,-1.600608 -0.32934,-1.61162 -0.292367,-0.0026 -0.463021,0.196737 -0.463021,0.540732 0,0.29963 -0.119062,0.471197 -0.264583,0.381259 -0.374126,-0.231222 -0.32884,-0.559403 0.14219,-1.030433 0.365975,-0.365977 0.499465,-0.362571 1.330949,0.03394 0.548817,0.261712 0.870556,0.580443 0.792157,0.784749 -0.07261,0.189222 -0.01669,0.34404 0.124257,0.34404 0.140954,0 0.260588,-0.148828 0.265853,-0.330729 0.0053,-0.181901 0.895331,-1.045104 1.977924,-1.918229 1.082593,-0.873125 1.970794,-1.706563 1.973781,-1.852084 0.003,-0.145521 -0.534291,-0.70132 -1.193953,-1.235112 -0.659662,-0.533789 -1.08358,-1.042098 -0.942038,-1.129575 0.141539,-0.08748 0.771017,0.318011 1.398841,0.901084 0.627825,0.583073 1.263756,1.061616 1.413182,1.063429 0.149429,0.0019 0.744741,-0.461481 1.322917,-1.029547 0.578178,-0.568066 1.157719,-0.967134 1.28787,-0.886817 0.130148,0.08031 -0.339236,0.64561 -1.04308,1.256213 l -1.279716,1.110186 1.704539,1.619501 c 0.937495,0.890726 1.899009,1.623648 2.136698,1.628715 0.237688,0.0051 0.49435,0.247023 0.570357,0.537675 0.07601,0.290656 0.417317,0.640295 0.758462,0.776981 0.55575,0.222665 0.565224,0.251137 0.0911,0.273704 -0.522195,0.02484 -0.522402,0.0303 -0.01558,0.413644 0.454628,0.343866 0.46147,0.388461 0.0596,0.388461 -0.249698,0 -0.567163,-0.297656 -0.70548,-0.661458 -0.294439,-0.77443 -1.166473,-0.88491 -1.566306,-0.198438 -0.148329,0.254662 -0.273307,0.32122 -0.277731,0.147908 -0.0044,-0.173313 0.111017,-0.3887 0.256537,-0.478637 0.558255,-0.345019 0.2021,-0.904531 -1.589135,-2.496487 l -1.853718,-1.647489 -2.115032,1.764091 c -1.163259,0.970249 -2.115023,1.872877 -2.115023,2.005841 0,0.132964 -0.233937,0.241752 -0.519859,0.241752 -0.285922,0 -0.65252,0.247883 -0.814663,0.550852 -0.239483,0.447477 -0.20399,0.619681 0.189128,0.917626 0.266165,0.201729 0.766709,0.370562 1.112321,0.375192 0.564539,0.0076 0.613082,-0.07895 0.477768,-0.851482 -0.137829,-0.786903 -0.125118,-0.807442 0.149744,-0.241964 0.206132,0.424074 0.216326,0.751152 0.0325,1.042585 -0.396915,0.629238 -0.648756,0.624118 -1.856595,-0.03776 z m 9.96091,-2.284219 c 0,-0.145521 -0.119063,-0.264584 -0.264584,-0.264584 -0.145521,0 -0.264583,0.119063 -0.264583,0.264584 0,0.145521 0.119062,0.264583 0.264583,0.264583 0.145521,0 0.264584,-0.119062 0.264584,-0.264583 z m -1.205786,2.27059 c -0.282244,-0.206382 -0.443177,-0.445238 -0.357627,-0.530788 0.08555,-0.08555 0.371706,0.08331 0.635903,0.375243 0.562091,0.621101 0.446653,0.685628 -0.278276,0.155545 z m 1.073494,-0.153924 c 0.08994,-0.14552 0.282583,-0.264583 0.428104,-0.264583 0.145521,0 0.191,0.119063 0.101063,0.264583 -0.08994,0.145521 -0.282583,0.264584 -0.428104,0.264584 -0.145521,0 -0.191,-0.119063 -0.101063,-0.264584 z m 2.066031,-2.309074 c 0.04546,-0.65859 -0.03056,-0.72912 -0.743114,-0.689512 -0.736608,0.04095 -0.751946,0.02421 -0.213045,-0.232349 0.319386,-0.152062 0.76587,-0.20542 0.992187,-0.118573 0.446696,0.171413 0.566865,1.370163 0.162409,1.620131 -0.136993,0.08467 -0.22629,-0.176197 -0.198437,-0.579697 z m 15.594907,-3.694144 c 0.254661,-0.06655 0.67138,-0.06655 0.926041,0 0.254662,0.06655 0.0463,0.121002 -0.463021,0.121002 -0.509323,0 -0.717682,-0.05445 -0.46302,-0.121002 z m -4.238096,-0.875948 c 0,-0.509323 0.05445,-0.717683 0.121002,-0.463021 0.06655,0.254661 0.06655,0.67138 0,0.926041 -0.06655,0.254662 -0.121002,0.0463 -0.121002,-0.46302 z M 9.8104714,51.968579 c 0.012695,-0.308226 0.075391,-0.370919 0.1598525,-0.159853 0.07643,0.190995 0.067031,0.419198 -0.020889,0.507119 -0.087919,0.08792 -0.150453,-0.06835 -0.1389645,-0.347266 z m 3.4395836,0 c 0.01269,-0.308226 0.07539,-0.370919 0.159852,-0.159853 0.07643,0.190995 0.06703,0.419198 -0.02089,0.507119 -0.08792,0.08792 -0.150453,-0.06835 -0.138964,-0.347266 z m 42.791396,-1.036285 c -0.05946,-0.509323 -0.01296,-0.926042 0.103344,-0.926042 0.1163,0 0.211455,0.416719 0.211455,0.926042 0,0.509322 -0.04651,0.926041 -0.103344,0.926041 -0.05684,0 -0.151995,-0.416719 -0.211455,-0.926041 z M 10.075055,50.381079 c 0.01269,-0.308226 0.07539,-0.370919 0.159852,-0.159853 0.07643,0.190995 0.06703,0.419198 -0.02089,0.507119 -0.08792,0.08792 -0.150453,-0.06835 -0.138964,-0.347266 z m 26.057704,-1.140854 c -0.08051,-0.13027 0.0026,-0.294029 0.184688,-0.363903 0.279124,-0.107111 5.814488,-4.626348 10.298324,-8.407858 0.681852,-0.575051 1.348695,-1.045546 1.481875,-1.045546 0.13738,0 0.116721,0.400733 -0.04775,0.926208 -0.239418,0.764929 -0.450249,0.956289 -1.210783,1.098969 -0.665713,0.124886 -2.220955,1.261223 -5.612644,4.100875 -2.580468,2.160463 -4.74926,3.928115 -4.819538,3.928115 -0.07028,0 -0.193657,-0.106587 -0.27417,-0.23686 z m 11.624533,-9.023557 c 0.08994,-0.145521 0.03743,-0.264583 -0.116676,-0.264583 -0.154109,0 -0.280199,0.119062 -0.280199,0.264583 0,0.145521 0.0525,0.264583 0.116676,0.264583 0.06417,0 0.190262,-0.119062 0.280199,-0.264583 z M 12.78682,47.49271 c 0.0012,-1.018646 0.049,-1.402943 0.106272,-0.853996 0.05728,0.54895 0.05632,1.382388 -0.0021,1.852084 -0.05845,0.469699 -0.105311,0.02056 -0.104138,-0.998088 z m 13.891999,1.485302 c -0.144278,-0.383606 -8.25002,-7.583189 -8.753298,-7.77475 -0.254662,-0.09693 -0.463021,-0.299034 -0.463021,-0.449125 0,-0.150087 -0.165855,-0.272886 -0.368567,-0.272886 -0.351681,0 -0.689766,-0.538757 -0.689766,-1.099177 0,-0.36871 0.788613,0.286219 6.25284,5.192867 2.649924,2.379519 4.748032,4.396412 4.662463,4.48198 -0.228116,0.228116 -0.539604,0.189749 -0.640651,-0.07891 z M 49.80305,47.360418 c 0,-0.509323 0.05445,-0.717682 0.121002,-0.46302 0.06655,0.254661 0.06655,0.67138 0,0.926041 -0.06655,0.254662 -0.121002,0.0463 -0.121002,-0.463021 z M 29.633333,46.831252 c 0,-0.145521 0.12609,-0.264584 0.280199,-0.264584 0.15411,0 0.206614,0.119063 0.116676,0.264584 -0.08994,0.145521 -0.216027,0.264583 -0.280199,0.264583 -0.06417,0 -0.116676,-0.119062 -0.116676,-0.264583 z M 17.036111,46.042807 c -0.307274,-0.124154 -0.627596,-0.489268 -0.711825,-0.811364 -0.145554,-0.556596 -0.116716,-0.550725 0.581746,0.118444 1.158418,1.109834 2.112016,0.373702 1.736381,-1.340406 -0.125833,-0.574201 -0.09827,-0.657035 0.117552,-0.353229 0.415851,0.585393 0.349939,1.75438 -0.125739,2.230059 -0.460668,0.460669 -0.770274,0.490987 -1.598115,0.156496 z m 28.168388,-0.38267 c -0.357153,-0.78386 -0.146635,-1.728139 0.572005,-2.565741 0.517346,-0.602986 0.516041,-0.581999 -0.03177,0.511839 -0.46636,0.931209 -0.51725,1.25908 -0.277199,1.785937 0.478737,1.050711 1.739429,0.668393 2.234337,-0.677587 0.127955,-0.347991 0.148503,-0.347094 0.166817,0.0073 0.07399,1.431608 -2.091877,2.194383 -2.664195,0.938279 z M 10.075055,44.031079 c 0.01269,-0.308226 0.07539,-0.37092 0.159852,-0.159853 0.07643,0.190994 0.06703,0.419197 -0.02089,0.507119 -0.08792,0.08792 -0.150453,-0.06835 -0.138964,-0.347266 z m 42.35422,-0.374827 c 0,-0.363803 0.06006,-0.512631 0.133453,-0.33073 0.0734,0.181901 0.0734,0.479558 0,0.661459 -0.0734,0.181901 -0.133453,0.03307 -0.133453,-0.330729 z M 16.445943,43.391668 c 0,-0.363802 0.06005,-0.51263 0.133452,-0.330729 0.0734,0.181901 0.0734,0.479557 0,0.661458 -0.0734,0.181901 -0.133452,0.03307 -0.133452,-0.330729 z m 33.03114,0.280199 c 0,-0.136932 0.1177,-0.321712 0.261554,-0.410617 0.149982,-0.09269 0.194337,0.01352 0.103984,0.248967 -0.175892,0.45837 -0.365538,0.542235 -0.365538,0.16165 z M 29.671232,38.922774 c -0.272761,-0.172832 -0.282551,-0.274694 -0.04076,-0.42413 0.175318,-0.108355 0.5105,-0.0044 0.746403,0.23151 0.357015,0.357016 0.363789,0.427506 0.04076,0.42413 -0.213085,-0.0021 -0.548965,-0.106407 -0.746403,-0.23151 z m 3.79856,-0.293606 c 0.08994,-0.145521 0.335089,-0.264583 0.544782,-0.264583 0.209693,0 0.381259,0.119062 0.381259,0.264583 0,0.145521 -0.245152,0.264583 -0.544782,0.264583 -0.29963,0 -0.471197,-0.119062 -0.381259,-0.264583 z m -6.217709,-0.556006 c -1.459809,-0.873366 -2.889933,-2.36451 -2.712132,-2.827851 0.09542,-0.248653 0.04653,-0.33932 -0.125597,-0.232942 -0.155002,0.0958 -0.346311,0.0061 -0.425132,-0.199281 -0.07882,-0.205404 0.02655,-0.438642 0.234162,-0.518308 0.252925,-0.09706 0.427211,0.09214 0.52822,0.573415 0.08291,0.395044 0.244219,0.896858 0.358463,1.11514 0.193217,0.369173 1.674045,1.571842 2.831391,2.299544 0.875144,0.550262 0.276519,0.368152 -0.689375,-0.209717 z m 9.988947,-1.148988 c 1.086001,-0.981411 1.426115,-1.482042 1.555171,-2.289108 0.159821,-0.999461 0.891299,-1.508692 0.891299,-0.620491 0,0.247563 -0.123767,0.335997 -0.309547,0.221179 -0.206158,-0.127413 -0.254857,-0.04879 -0.145806,0.235386 0.178527,0.465238 -1.820722,2.886679 -2.816918,3.411779 -0.310304,0.16356 0.06131,-0.267875 0.825801,-0.958745 z M 25.4,29.119783 c 0,-0.136932 0.117699,-0.321712 0.261553,-0.410617 0.149982,-0.09269 0.194338,0.01352 0.103984,0.248968 C 25.589644,29.416503 25.4,29.500368 25.4,29.119783 Z M 37.553551,28.675 c -0.20397,-0.381124 -0.895602,-1.15485 -1.536954,-1.719392 -1.264788,-1.11331 -1.28057,-1.377612 -0.02692,-0.450747 0.779785,0.576519 2.244778,2.553047 2.042345,2.755477 -0.05919,0.05919 -0.2745,-0.204213 -0.478471,-0.585338 z m -4.225756,-0.917178 c -0.190034,-0.458782 -0.585697,-1.057913 -0.879253,-1.331401 -0.405609,-0.377881 -0.439145,-0.497253 -0.139697,-0.497253 0.370358,0 1.708121,2.319144 1.473248,2.554017 -0.05983,0.05983 -0.264264,-0.266583 -0.454298,-0.725363 z m -6.887129,-0.163571 c 0.620838,-0.929714 1.775847,-1.929667 2.228885,-1.929667 0.158277,0 -0.0066,0.203296 -0.366408,0.451769 -0.359801,0.248473 -1.053531,0.87355 -1.541621,1.389062 l -0.887434,0.937294 z m 3.53112,-0.134421 c 0.250412,-0.395063 0.455297,-0.901078 0.455297,-1.124479 0,-0.409103 0.68702,-0.576967 0.850244,-0.207746 0.04825,0.109141 -0.328202,0.615156 -0.836557,1.124479 -0.777002,0.778481 -0.851733,0.811583 -0.468984,0.207746 z m 17.35488,-0.670767 c -0.32707,-0.417047 -0.318301,-0.42792 0.08831,-0.109513 0.248285,0.194429 0.594103,0.265329 0.768482,0.157557 0.200575,-0.12396 0.247698,-0.08373 0.128267,0.109513 -0.264808,0.428469 -0.562848,0.380799 -0.985057,-0.157557 z M 23.813489,26.54824 c -9.99e-4,-0.309914 2.020287,-3.000322 2.254122,-3.000322 0.314112,0 -0.06478,0.69664 -0.631308,1.160733 -0.343836,0.281667 -0.849406,0.879871 -1.12349,1.329341 -0.274084,0.44947 -0.49878,0.679081 -0.499324,0.510248 z m 14.729416,-1.073649 c -0.384969,-0.541059 -1.079945,-1.166137 -1.544392,-1.389063 -0.83897,-0.402691 -1.320429,-1.066777 -0.773406,-1.066777 0.431604,0 2.207628,1.692996 2.749748,2.621198 0.65409,1.119918 0.418317,1.02966 -0.43195,-0.165358 z m -22.717514,0.0093 c 0.190996,-0.07643 0.419199,-0.06703 0.507118,0.02089 0.08792,0.08792 -0.06835,0.150453 -0.347266,0.138964 -0.308224,-0.01269 -0.370919,-0.07539 -0.159852,-0.159852 z m 13.719749,0.0044 c -0.317651,-0.317651 -0.184777,-1.146528 0.183795,-1.146528 0.241528,0 0.318529,0.217907 0.233738,0.661458 -0.138019,0.722007 -0.157715,0.744888 -0.417533,0.485069 z m 3.727603,-0.48507 c -0.0801,-0.419012 -0.0057,-0.661458 0.202893,-0.661458 0.181139,0 0.386242,0.297656 0.455787,0.661458 0.0801,0.419012 0.0057,0.661458 -0.202893,0.661458 -0.181139,0 -0.386241,-0.297656 -0.455787,-0.661458 z m -13.95816,-1.058333 c 0.341775,-0.363803 0.680939,-0.661459 0.7537,-0.661459 0.07276,0 -0.147342,0.297656 -0.489116,0.661459 -0.341775,0.363802 -0.680939,0.661458 -0.7537,0.661458 -0.07276,0 0.147342,-0.297656 0.489116,-0.661458 z m -4.547526,0.216134 c 0.190996,-0.07643 0.4192,-0.06703 0.507118,0.02089 0.08792,0.08792 -0.06835,0.150453 -0.347265,0.138964 -0.308225,-0.01269 -0.37092,-0.07539 -0.159853,-0.159852 z m 11.803952,-0.532521 c 0.03622,-0.246773 0.194908,-0.491697 0.352644,-0.544276 0.17181,-0.05727 0.229728,0.122618 0.14446,0.448678 -0.170828,0.653248 -0.590804,0.734013 -0.497104,0.0956 z m 3.856074,-0.09939 c 0,-0.48717 0.0441,-0.503968 0.396875,-0.151191 0.218282,0.218282 0.396875,0.464911 0.396875,0.548066 0,0.08315 -0.178593,0.15119 -0.396875,0.15119 -0.225046,0 -0.396875,-0.237285 -0.396875,-0.548065 z m 1.5875,0.315879 c 0,-0.127703 0.178594,-0.380407 0.396875,-0.561564 0.331576,-0.275184 0.396875,-0.236982 0.396875,0.232187 0,0.322778 -0.168756,0.561563 -0.396875,0.561563 -0.218281,0 -0.396875,-0.104484 -0.396875,-0.232186 z m 11.219654,-0.62771 -0.504029,-0.595312 0.610114,0.517422 c 0.535299,0.453974 0.681296,0.473095 1.190625,0.155931 0.529788,-0.329906 0.548782,-0.323101 0.217387,0.07789 -0.492403,0.595805 -0.91443,0.552342 -1.514097,-0.155931 z m 3.034096,-0.132291 c -0.329107,-0.419644 -0.319749,-0.429003 0.0999,-0.0999 0.254662,0.199719 0.463021,0.408078 0.463021,0.463021 0,0.217761 -0.217273,0.0776 -0.562917,-0.363126 z M 32.979828,22.364045 c -0.114683,-0.298855 0.0261,-0.403628 0.542364,-0.403628 0.38349,0 0.647642,0.03369 0.58701,0.07487 -0.06063,0.04118 -0.304699,0.22281 -0.542366,0.403628 -0.35228,0.268015 -0.460741,0.254181 -0.587008,-0.07487 z m 14.240844,-0.14728 c -0.472266,-0.521846 -0.471956,-0.550567 0.01064,-0.992188 0.470834,-0.430847 0.478642,-0.430414 0.148357,0.0082 -0.286581,0.380606 -0.287292,0.536936 -0.004,0.87829 0.189553,0.228398 0.561483,0.358565 0.826511,0.289258 0.265027,-0.06931 0.415147,-0.01805 0.333597,0.113897 -0.245597,0.397386 -0.799695,0.272043 -1.31512,-0.297494 z m -17.71963,0.0082 c -0.08994,-0.145521 0.08866,-0.264584 0.396875,-0.264584 0.308218,0 0.486812,0.119063 0.396875,0.264584 -0.08994,0.145521 -0.268531,0.264583 -0.396875,0.264583 -0.128344,0 -0.306938,-0.119062 -0.396875,-0.264583 z m -7.805209,-0.504397 c 0,-0.131897 0.238125,-0.177542 0.529167,-0.101433 0.291042,0.07611 0.529167,0.184025 0.529167,0.239813 0,0.05579 -0.238125,0.101433 -0.529167,0.101433 -0.291042,0 -0.529167,-0.107915 -0.529167,-0.239813 z m 19.121181,0.05646 c 0.257432,-0.06708 0.614619,-0.06267 0.79375,0.0098 0.179131,0.07248 -0.03149,0.127362 -0.468056,0.12197 -0.436562,-0.0054 -0.583125,-0.06469 -0.325694,-0.131773 z M 23.212217,21.145459 c 0.09356,-0.357771 0.213493,-0.477705 0.279545,-0.279546 0.06363,0.190881 -0.01011,0.472852 -0.16386,0.626602 -0.196338,0.196339 -0.230772,0.09304 -0.115685,-0.347056 z m 21.502366,-0.07869 c 0,-0.05494 0.20836,-0.263302 0.463021,-0.463021 0.419645,-0.329108 0.429004,-0.319749 0.0999,0.0999 -0.345643,0.440729 -0.562917,0.580887 -0.562917,0.363126 z m -7.036596,-0.760001 -0.504029,-0.595313 0.595313,0.504028 c 0.559445,0.473662 0.715761,0.686597 0.504028,0.686597 -0.05021,0 -0.318098,-0.267891 -0.595312,-0.595312 z M 14.237891,20.45676 c 0.190996,-0.07643 0.419199,-0.06703 0.507118,0.02089 0.08792,0.08792 -0.06835,0.150453 -0.347266,0.138964 -0.308224,-0.01269 -0.370919,-0.07539 -0.159852,-0.159852 z m 40.317856,-0.480718 c 0.0054,-0.436562 0.06469,-0.583124 0.131773,-0.325693 0.06708,0.257431 0.06267,0.614618 -0.0098,0.79375 -0.07246,0.179131 -0.127349,-0.03149 -0.121957,-0.468057 z m -35.274913,-0.06614 c -0.329107,-0.419644 -0.319749,-0.429003 0.0999,-0.0999 0.254662,0.199719 0.463021,0.408078 0.463021,0.463021 0,0.217761 -0.217272,0.0776 -0.562916,-0.363126 z m 7.591384,0.12088 c 0.09936,-0.260937 0.247304,-0.407781 0.328766,-0.326319 0.08146,0.08146 1.7e-4,0.294956 -0.180652,0.474432 -0.261308,0.259362 -0.291698,0.228971 -0.148114,-0.148113 z M 49.590476,19.82433 c 0,-0.280357 0.09355,-0.509741 0.207888,-0.509741 0.114337,0 0.207886,0.171567 0.207886,0.38126 0,0.209693 -0.09355,0.439077 -0.207886,0.509741 -0.114339,0.07067 -0.207888,-0.100902 -0.207888,-0.38126 z M 8.345674,19.86204 C 8.261952,19.726574 8.314456,19.540954 8.4623508,19.44955 8.6102455,19.35815 8.73125,19.46898 8.73125,19.695851 c 0,0.464748 -0.1587646,0.533178 -0.385576,0.166189 z m 25.422875,-0.22757 c -0.07114,-0.115109 0.268028,-0.162897 0.75371,-0.106197 0.688986,0.08044 0.910752,-0.0044 1.009081,-0.386024 0.103122,-0.400226 0.131604,-0.380927 0.156718,0.106196 0.02619,0.50797 -0.102883,0.595313 -0.879734,0.595313 -0.500735,0 -0.968634,-0.09418 -1.039775,-0.209288 z m 4.840591,-0.518316 -0.641432,-0.727605 0.727604,0.641433 c 0.680056,0.599516 0.84894,0.813776 0.641433,0.813776 -0.04739,0 -0.374815,-0.327422 -0.727605,-0.727604 z m -20.683619,0.287792 c 0.181901,-0.0734 0.479557,-0.0734 0.661458,0 0.181901,0.0734 0.03307,0.133452 -0.330729,0.133452 -0.363802,0 -0.51263,-0.06005 -0.330729,-0.133452 z m 5.343569,-1.081543 -0.911798,-0.992187 0.992187,0.911798 c 0.923507,0.848682 1.11384,1.072577 0.911799,1.072577 -0.04421,0 -0.490699,-0.446484 -0.992188,-0.992188 z m 7.178882,0.308681 c 0.0127,-0.308224 0.07539,-0.370919 0.159851,-0.159852 0.07643,0.190996 0.06703,0.419199 -0.02088,0.507118 -0.08792,0.08792 -0.150452,-0.06835 -0.138964,-0.347266 z m 20.732258,-0.705556 -0.777105,-0.859895 0.859896,0.777105 c 0.801544,0.724371 0.981511,0.942686 0.777105,0.942686 -0.04554,0 -0.432488,-0.386953 -0.859896,-0.859896 z m -13.870199,-0.04347 c 0.171347,-0.171349 0.350258,-0.171349 0.521605,0 0.171349,0.171349 0.0819,0.260804 -0.260803,0.260804 -0.342699,0 -0.432152,-0.08946 -0.260802,-0.260804 z m 5.659623,-0.221116 -0.504029,-0.595312 0.595313,0.504028 c 0.559445,0.473662 0.715761,0.686597 0.504028,0.686597 -0.05021,0 -0.318098,-0.267891 -0.595312,-0.595313 z m -21.104918,-0.06615 c -0.08376,-0.218281 -0.03697,-0.396875 0.103985,-0.396875 0.140953,0 0.256279,0.178594 0.256279,0.396875 0,0.218282 -0.04679,0.396875 -0.103984,0.396875 -0.05719,0 -0.172517,-0.178593 -0.25628,-0.396875 z m 27.083181,0.296981 c 0,-0.05494 0.208359,-0.263302 0.463021,-0.463021 0.419645,-0.329108 0.429003,-0.31975 0.0999,0.09989 -0.345644,0.44073 -0.562917,0.580888 -0.562917,0.363127 z M 16.425055,17.30816 c 0.01269,-0.308224 0.07539,-0.370919 0.159852,-0.159852 0.07643,0.190996 0.06703,0.419199 -0.02089,0.507118 -0.08792,0.08792 -0.150453,-0.06835 -0.138964,-0.347266 z m 12.435417,0 c 0.0127,-0.308224 0.07539,-0.370919 0.159851,-0.159852 0.07643,0.190996 0.06703,0.419199 -0.02088,0.507118 -0.08792,0.08792 -0.150452,-0.06835 -0.138964,-0.347266 z m 12.645361,-0.837847 c -0.329107,-0.419644 -0.319749,-0.429002 0.0999,-0.0999 0.44073,0.345644 0.580888,0.562916 0.363125,0.562916 -0.05494,0 -0.2633,-0.208359 -0.463021,-0.463021 z M 23.71682,16.007292 c 0.08376,-0.218281 0.199088,-0.396875 0.256279,-0.396875 0.05719,0 0.103984,0.178594 0.103984,0.396875 0,0.218282 -0.115325,0.396875 -0.256279,0.396875 -0.140954,0 -0.187747,-0.178593 -0.103984,-0.396875 z m 19.782,-0.727604 c -0.499737,-0.590242 -0.499522,-0.591663 0.02514,-0.166817 0.291041,0.235673 0.70776,0.494164 0.926041,0.574425 0.336852,0.123858 0.33305,0.149087 -0.02514,0.166817 -0.232108,0.01149 -0.648827,-0.247003 -0.926042,-0.574425 z m -24.548425,-0.07637 c -0.255318,-0.665346 -0.179999,-0.837024 0.131903,-0.300656 0.154435,0.265575 0.225055,0.538601 0.156933,0.606723 -0.06812,0.06812 -0.198099,-0.06961 -0.288836,-0.306067 z m 2.989996,-0.320501 -0.641433,-0.727604 0.727604,0.641433 c 0.680056,0.599516 0.848939,0.813775 0.641434,0.813775 -0.04739,0 -0.374816,-0.327422 -0.727605,-0.727604 z m 22.352179,-0.661458 -0.504028,-0.595313 0.595312,0.504028 c 0.559446,0.473662 0.715762,0.686597 0.504029,0.686597 -0.05021,0 -0.318098,-0.26789 -0.595313,-0.595312 z M 41.225391,14.10676 c 0.190994,-0.07643 0.419198,-0.06703 0.507119,0.02089 0.08792,0.08792 -0.06835,0.150453 -0.347266,0.138964 -0.308226,-0.01269 -0.370919,-0.07539 -0.159853,-0.159852 z m -9.978184,-0.502766 c -0.0145,-0.303169 0.05197,-0.629558 0.14772,-0.725309 0.222011,-0.222011 0.886825,0.31944 0.876194,0.713608 -0.0044,0.164083 -0.147072,0.06021 -0.316995,-0.230834 -0.299035,-0.512189 -0.31491,-0.507945 -0.494747,0.132291 -0.159575,0.5681 -0.189521,0.58366 -0.212172,0.110244 z m -8.299013,-1.201408 c 0.179476,-0.180822 0.39297,-0.262116 0.474432,-0.180654 0.08146,0.08146 -0.06538,0.229407 -0.326319,0.328766 -0.377084,0.143585 -0.407475,0.113194 -0.148113,-0.148112 z m 1.261181,-0.231752 c -0.504919,-0.216972 -0.501888,-0.228243 0.06615,-0.245987 0.327422,-0.01023 0.595312,0.100466 0.595312,0.245987 0,0.145521 -0.02977,0.256215 -0.06615,0.245987 -0.03638,-0.01023 -0.30427,-0.120922 -0.595312,-0.245987 z m 7.082639,-3.3583542 c 0.257432,-0.067083 0.614619,-0.062672 0.79375,0.0098 0.179131,0.072476 -0.03149,0.127362 -0.468056,0.1219697 -0.436562,-0.00539 -0.583125,-0.06469 -0.325694,-0.1317736 z M 29.613307,8.0036461 28.971875,7.2760419 29.699479,7.917475 c 0.680056,0.599516 0.84894,0.8137753 0.641432,0.8137753 -0.04739,0 -0.374814,-0.3274219 -0.727604,-0.7276042 z m 1.8225,-0.5114697 c 0.190995,-0.07643 0.419198,-0.067031 0.507119,0.020889 0.08792,0.087919 -0.06835,0.150453 -0.347265,0.1389645 C 31.287434,7.639335 31.224741,7.576639 31.435807,7.4921764 Z M 28.891164,6.2177086 c 0.0054,-0.4365626 0.06469,-0.5831248 0.131773,-0.3256937 0.06708,0.2574309 0.06267,0.6146184 -0.0098,0.7937501 -0.07249,0.1791313 -0.127375,-0.031494 -0.121983,-0.4680564 z m 1.292225,-0.022048 c 0.0127,-0.3082245 0.07539,-0.3709194 0.159851,-0.1598525 0.07643,0.1909961 0.06703,0.4191992 -0.02088,0.5071182 -0.08792,0.087919 -0.150453,-0.068351 -0.138965,-0.3472657 z"
         id="path153" />
      <path
         style="display:inline;fill:#0156aa;stroke-width:0.282367"
         d="m 31.186364,85.041882 c 0,-0.155303 0.127067,-0.282369 0.282369,-0.282369 0.155301,0 0.282367,0.127066 0.282367,0.282369 0,0.155301 -0.127066,0.282367 -0.282367,0.282367 -0.155302,0 -0.282369,-0.127066 -0.282369,-0.282367 z M 27.083933,83.061183 C 17.839774,78.354694 8.5417971,70.021005 3.5435303,61.962139 1.8486359,59.229407 0.26239925,56.10513 -0.61918046,53.763197 -1.7524431,50.752664 -1.348885,51.132158 -0.05860788,54.290341 2.6262593,60.862032 6.1971398,65.991195 12.019984,71.639865 c 5.118381,4.96528 9.498898,8.16163 15.354415,11.20372 1.708325,0.887519 2.967588,1.618146 2.798358,1.623615 -0.169229,0.0054 -1.559201,-0.627237 -3.088824,-1.406017 z m 8.479133,-0.235446 c 5.711586,-3.019438 8.735179,-5.05961 13.724903,-9.260888 6.626885,-5.579747 12.085275,-13.319206 14.807284,-20.995269 0.357967,-1.009465 0.660306,-1.660165 0.671866,-1.446002 0.03672,0.680297 -1.373414,4.290991 -2.709274,6.937181 -5.108186,10.118756 -14.555439,19.088795 -26.34433,25.013578 -3.843202,1.931492 -3.947698,1.75882 -0.150449,-0.2486 z M 28.362687,80.286544 C 24.455985,78.302888 22.153891,76.84402 18.859072,74.263972 13.563008,70.116821 8.409112,64.249085 5.3275223,58.858234 3.7992684,56.184746 1.5377432,51.147951 1.5377432,50.417762 c 0,-0.241837 0.8152524,-1.525967 1.811672,-2.853618 C 9.755511,39.028509 9.9016173,31.080566 3.8356732,21.112514 3.1831401,20.040218 2.6850582,19.063506 2.728824,18.942042 2.7725899,18.820576 3.8249226,17.335398 5.067341,15.641645 l 2.2589426,-3.079549 2.4001265,-0.162865 c 4.9386319,-0.335118 8.1053719,-2.130192 13.4124709,-7.6028905 3.523496,-3.6334399 4.698073,-4.27769201 8.052067,-4.41652979 3.378256,-0.13984235 4.702867,0.48902358 8.409987,3.99268829 1.571037,1.4848135 3.528857,3.2043006 4.350717,3.8210827 2.980706,2.2369363 7.124285,3.8853103 10.283633,4.0909783 0.95158,0.06194 1.864388,0.195594 2.02846,0.296995 0.342066,0.211409 4.85361,6.514996 4.85361,6.781526 0,0.09672 -0.510468,0.923685 -1.134374,1.837706 -3.154842,4.621845 -4.641388,10.18191 -3.949786,14.773236 0.754509,5.008952 2.266586,8.965588 4.884429,12.781013 l 0.966924,1.409264 -0.637274,1.837967 c -2.624459,7.569227 -8.304389,15.355637 -15.377782,21.08083 -4.009984,3.245678 -12.9482,8.575523 -14.368532,8.567936 -0.250679,-0.0014 -1.662901,-0.615361 -3.138273,-1.364489 z M 24.631538,68.571066 c 0.07695,-2.599332 0.05279,-2.730198 -0.504079,-2.730198 -0.321692,0 -0.898088,0.205211 -1.28088,0.456027 -0.854021,0.559577 -0.936969,1.520549 -0.131249,1.520549 0.4937,0 0.564736,0.188246 0.564736,1.496548 0,1.458406 0.385565,2.280363 0.977699,2.084283 0.167718,-0.05554 0.327505,-1.264162 0.373773,-2.827209 z m 5.404862,2.173159 c 0.763561,-0.970709 0.815896,-3.43872 0.09109,-4.295297 -1.177144,-1.391147 -3.459006,-0.668365 -3.459006,1.095643 0,0.969915 0.957399,1.967079 1.888634,1.967079 0.722155,0 0.88022,0.416998 0.249769,0.658926 -0.221597,0.08504 -0.55482,-0.02843 -0.740493,-0.252158 -0.441976,-0.532549 -1.090225,-0.518933 -1.299835,0.0273 -0.262241,0.683388 0.718337,1.542506 1.760586,1.542506 0.661924,0 1.090033,-0.211039 1.509259,-0.744 z m -1.956081,-3.229853 c 0,-0.723609 0.93459,-0.64152 1.076341,0.09453 0.06525,0.338842 -0.08681,0.490902 -0.490902,0.490902 -0.404094,0 -0.585439,-0.181345 -0.585439,-0.585439 z m 7.068169,3.686682 c 0.68625,-0.36727 1.198739,-2.255853 0.958969,-3.533934 -0.1832,-0.976548 -1.245451,-2.108619 -1.978563,-2.108619 -0.735461,0 -1.83201,1.269943 -1.998231,2.314204 -0.406249,2.552179 1.186274,4.308566 3.017825,3.328349 z m -1.420813,-2.677691 c 0,-1.139207 0.104811,-1.553023 0.393342,-1.553023 0.738518,0 1.043089,2.121404 0.397289,2.767204 -0.618431,0.618431 -0.790631,0.353985 -0.790631,-1.214181 z m 7.482748,2.258943 c 0,-0.408271 -0.218406,-0.589805 -0.788298,-0.655221 l -0.788294,-0.09048 0.858886,-0.978222 c 1.069536,-1.218132 1.099303,-2.140308 0.0946,-2.930607 -1.182806,-0.930397 -2.906491,-0.32648 -2.906491,1.018325 0,0.768114 0.957955,0.960853 1.231584,0.247795 0.201703,-0.525636 1.027359,-0.561734 1.027359,-0.04492 0,0.208247 -0.571796,0.983971 -1.270655,1.723825 -1.892986,2.004029 -1.714824,2.423859 0.988286,2.328838 1.346578,-0.04734 1.553024,-0.129667 1.553024,-0.619332 z M 14.964151,63.501262 c 1.390056,-1.131482 4.941619,-4.028265 7.892363,-6.437292 2.950744,-2.40903 5.52314,-4.476389 5.716432,-4.594133 0.213431,-0.130009 0.693047,0.105174 1.221303,0.598871 l 0.869854,0.812951 -1.786036,1.470927 c -1.318381,1.08578 -1.933906,1.42384 -2.350772,1.291094 -1.592489,-0.507111 -2.328343,-0.460085 -2.774804,0.177329 -0.384053,0.548313 -0.392714,0.757739 -0.06387,1.544752 0.356373,0.852923 0.333833,0.957022 -0.356761,1.647617 -0.538842,0.53884 -0.653093,0.821245 -0.424663,1.049674 0.228429,0.22843 0.514642,0.180061 1.063833,-0.17978 0.722578,-0.473452 0.797848,-0.469056 1.967096,0.114895 1.460441,0.729379 1.53397,0.734075 2.190559,0.139867 0.621274,-0.562245 0.665843,-1.583382 0.10637,-2.437237 -0.390992,-0.596733 -0.326496,-0.694458 1.391119,-2.107825 0.990617,-0.815146 1.973618,-1.482082 2.184448,-1.482082 0.21083,0 1.047542,0.672572 1.859364,1.494605 1.368885,1.386104 1.445706,1.53472 1.058215,2.047166 -0.58866,0.778486 -0.533649,1.647128 0.143096,2.259573 0.515327,0.466364 0.678081,0.482428 1.482432,0.146314 0.991944,-0.414502 1.633141,-0.448628 2.80953,-0.149528 0.918507,0.233533 0.993492,-0.09376 0.213341,-0.931144 -0.562838,-0.604138 -0.562824,-0.605078 0.02242,-1.596974 0.322068,-0.545865 0.504463,-1.123731 0.405321,-1.284144 -0.52829,-0.854792 0.759044,0.13585 5.314205,4.089443 2.770658,2.404763 5.203509,4.3723 5.406319,4.3723 0.446451,0 2.121458,-1.854316 2.121458,-2.348559 0,-0.193783 -3.356199,-3.207167 -7.458218,-6.696408 -4.10202,-3.489246 -7.43749,-6.41921 -7.412156,-6.511034 0.02533,-0.09182 1.697915,-1.539167 3.716845,-3.216313 2.01893,-1.67715 3.910528,-3.253871 4.203553,-3.503829 0.518286,-0.442109 0.520206,-0.429893 0.0706,0.449205 -0.611546,1.195723 -0.582877,1.831587 0.12305,2.729029 0.742557,0.944006 2.185395,1.017306 2.971196,0.150945 0.42096,-0.464113 0.578719,-1.216156 0.725612,-3.459006 0.103242,-1.576273 0.230305,-3.183615 0.282367,-3.571872 0.201495,-1.502567 -0.925905,-0.938287 -5.12914,2.567207 -2.251884,1.878068 -5.015881,4.173753 -6.142212,5.101523 l -2.047888,1.686852 -0.846389,-0.602686 c -0.465517,-0.331475 -0.846392,-0.692788 -0.846392,-0.802914 0,-0.110126 2.827207,-2.48249 6.282684,-5.27192 11.00037,-8.880042 14.257214,-12.567653 15.440649,-17.482918 0.433217,-1.799316 0.445378,-7.472821 0.01691,-7.894693 -0.447593,-0.440716 -1.035641,0.425522 -1.283071,1.89006 -0.243381,1.440546 -1.116412,4.128967 -1.893624,5.83124 -1.53839,3.369422 -5.661026,7.744666 -12.438065,13.200183 -3.110737,2.504142 -3.36731,2.653426 -3.8342,2.230897 -0.658535,-0.595966 -0.96705,-0.571338 -1.59967,0.127701 -0.424726,0.469315 -0.462383,0.681399 -0.196559,1.107049 0.28932,0.463272 0.09196,0.71788 -1.643092,2.119744 L 31.737206,44.98121 29.908758,43.375923 C 28.90312,42.493015 28.08032,41.720898 28.08032,41.660104 c 0,-0.0608 0.153193,-0.355832 0.340425,-0.655641 0.280381,-0.44896 0.247758,-0.647506 -0.184947,-1.125639 -0.631904,-0.698245 -0.941221,-0.723591 -1.596252,-0.130796 -0.463091,0.419093 -0.8494,0.155446 -5.66959,-3.869392 C 14.491971,30.46955 12.496151,28.576901 11.080658,26.500551 9.6354502,24.380613 8.4658927,21.525621 7.9911914,18.95889 7.3223792,15.342594 6.0556295,16.092425 6.0556295,20.104613 c 0,3.31589 1.0210172,6.414309 3.1146976,9.451989 1.4664949,2.127706 7.1713069,7.311706 16.5952499,15.080215 1.583712,1.305514 2.875486,2.512637 2.870606,2.682495 -0.0049,0.169855 -0.32468,0.538738 -0.710666,0.819736 -0.858861,0.625252 -0.362202,0.98048 -7.124441,-5.095652 -5.01558,-4.506693 -6.193023,-5.232059 -6.079183,-3.745104 0.18317,2.392559 0.176433,3.408112 -0.03129,4.71672 -0.222372,1.400889 -0.193111,1.50964 0.626783,2.329535 1.041846,1.041847 1.993396,1.097937 2.866135,0.168946 0.764971,-0.814273 0.822946,-1.725813 0.190405,-2.993771 -0.252367,-0.505879 -0.458848,-0.97754 -0.458848,-1.048138 0,-0.0706 1.159136,0.933686 2.575857,2.231734 1.416721,1.29805 3.227405,2.949939 4.023742,3.670869 l 1.447884,1.310777 -0.841769,0.665798 c -4.472213,3.537287 -14.744022,11.939755 -14.945254,12.225403 -0.2871265,0.407573 1.389658,2.982336 1.942211,2.982336 0.175466,0 1.456348,-0.925758 2.846402,-2.057239 z m 11.421961,-4.01367 c 0,-0.232953 0.113472,-0.423552 0.252157,-0.423552 0.138688,0 0.325296,0.190599 0.414692,0.423552 0.09901,0.258003 5.64e-4,0.423552 -0.252158,0.423552 -0.22808,0 -0.414691,-0.190599 -0.414691,-0.423552 z m 9.600506,-0.141184 c 0,-0.155302 0.127065,-0.282368 0.282367,-0.282368 0.155303,0 0.282369,0.127066 0.282369,0.282368 0,0.155302 -0.127066,0.282368 -0.282369,0.282368 -0.155302,0 -0.282367,-0.127066 -0.282367,-0.282368 z M 24.974273,57.934569 c 0,-0.155302 0.127065,-0.282368 0.282367,-0.282368 0.155303,0 0.282369,0.127066 0.282369,0.282368 0,0.155303 -0.127066,0.282368 -0.282369,0.282368 -0.155302,0 -0.282367,-0.127065 -0.282367,-0.282368 z m 12.488894,-0.05294 c 0.174523,-0.523572 0.782394,-0.610411 0.782394,-0.11177 0,0.245894 -0.201188,0.447082 -0.447082,0.447082 -0.245897,0 -0.396786,-0.150892 -0.335312,-0.335312 z m -2.822647,-2.36908 c -0.812669,-0.710903 -1.470549,-1.441531 -1.461957,-1.623615 0.0085,-0.182085 0.385763,-0.623288 0.838153,-0.980454 l 0.822532,-0.649393 1.209013,1.08563 c 0.664957,0.597096 1.631725,1.429352 2.148373,1.849457 0.887147,0.721368 0.90284,0.764381 0.282369,0.773831 -0.361347,0.0055 -0.974659,0.191599 -1.362914,0.413545 -0.388256,0.221947 -0.771634,0.408044 -0.851954,0.413545 -0.08032,0.0055 -0.810944,-0.571643 -1.623615,-1.282546 z m -3.840813,-3.469192 -0.774682,-0.808594 0.88336,-0.743299 0.883359,-0.7433 0.996055,0.759731 0.996056,0.759728 -0.945786,0.78457 c -0.52018,0.431512 -1.017311,0.787984 -1.104732,0.792163 -0.08742,0.0042 -0.507554,-0.356271 -0.93363,-0.800999 z M 46.829211,45.39658 c -0.08362,-0.217895 0.141995,-0.948522 0.501353,-1.623615 l 0.653379,-1.227439 0.09305,0.956767 c 0.05118,0.526223 0.01774,1.25685 -0.07432,1.623615 -0.183087,0.729469 -0.931189,0.90203 -1.173465,0.270672 z M 16.22087,43.900888 c 0,-1.699606 0.265729,-1.736797 0.808566,-0.113168 0.453753,1.357179 0.40202,1.722665 -0.243831,1.722665 -0.498684,0 -0.564735,-0.188247 -0.564735,-1.609497 z m 41.921833,10.151124 c 0.105494,-0.27178 0.264586,-1.351837 0.353533,-2.400128 0.152351,-1.795619 0.12761,-1.905982 -0.427311,-1.905982 -0.323963,0 -0.675732,0.140297 -0.781706,0.31177 -0.217918,0.352599 -2.337368,1.366771 -2.876101,1.376236 -0.48173,0.0084 -0.462506,-4.356278 0.02953,-6.704423 0.264327,-1.261456 0.282898,-1.833745 0.0647,-1.994136 -0.168309,-0.123722 -1.172535,-0.153511 -2.231618,-0.0662 l -1.925605,0.158744 -0.05263,5.707961 -0.05264,5.707959 2.401793,0.0931 c 1.320987,0.05121 3.055293,0.119238 3.854013,0.151171 1.155979,0.04622 1.49135,-0.04273 1.644037,-0.436077 z M 12.615924,52.815621 c -0.311121,-3.930704 -0.362533,-7.734856 -0.119909,-8.872443 0.157357,-0.737802 0.227078,-1.495279 0.154936,-1.683279 -0.15969,-0.416145 -4.1868281,-0.407223 -4.5842253,0.01014 -0.1558741,0.163714 -0.1656301,0.848238 -0.024049,1.687306 0.3330313,1.973675 0.3214308,5.315758 -0.025882,7.456289 -0.1614297,0.994916 -0.240233,1.947907 -0.1751183,2.117759 0.074256,0.193702 1.0002508,0.295284 2.4839916,0.2725 l 2.365604,-0.03634 z m 21.252935,-13.33551 c 3.03592,-0.808986 5.311497,-2.673105 6.695859,-5.485142 0.829083,-1.684103 0.928072,-2.141819 0.928072,-4.291245 0,-2.050259 -0.114243,-2.638691 -0.772553,-3.979142 -0.95778,-1.950233 -2.959011,-4.014731 -4.850627,-5.00397 -1.27212,-0.665268 -1.758288,-0.751751 -4.259694,-0.757748 -2.606867,-0.0063 -2.93944,0.05735 -4.331342,0.828353 -1.819091,1.007626 -3.961209,3.281195 -4.844699,5.141992 -0.51335,1.081213 -0.650169,1.862679 -0.659102,3.764576 -0.0097,2.074619 0.09848,2.629062 0.797998,4.088175 1.332156,2.778729 3.945534,4.953703 6.919387,5.758636 1.422411,0.385003 2.764067,0.365234 4.376701,-0.06448 z M 51.795051,22.453913 c 1.244708,-2.58641 2.263107,-4.88809 2.263107,-5.114847 0,-0.412896 -2.193292,-2.573398 -2.634582,-2.595195 -0.128948,-0.0064 -1.563663,1.004943 -3.188252,2.247362 -1.624589,1.242419 -3.008928,2.258943 -3.076309,2.258943 -0.06737,0 -0.04642,-0.380435 0.04657,-0.845412 0.256752,-1.283753 -0.366276,-2.400186 -2.047988,-3.669892 -0.837994,-0.632691 -1.523625,-1.273297 -1.523625,-1.423569 0,-0.742391 2.318304,0.194322 2.825242,1.141542 0.454192,0.848666 1.082115,0.676997 1.615579,-0.441686 0.588694,-1.234503 0.375481,-1.653472 -1.405249,-2.761351 -2.406211,-1.4970212 -4.670891,-1.4937363 -5.852542,0.0085 -1.359819,1.728729 -0.91431,3.350189 1.393982,5.07349 1.447386,1.080575 1.821067,1.796484 0.928844,1.779522 -0.607161,-0.01155 -1.499546,-0.735117 -2.171604,-1.760809 -0.605732,-0.924464 -0.972014,-0.959286 -1.955242,-0.185878 -0.409199,0.321877 -0.749921,0.544241 -0.757155,0.494144 -0.0073,-0.05009 -0.613484,-1.997068 -1.347217,-4.326602 L 33.574553,8.0966955 H 31.60698 29.639407 l -0.968818,5.0120285 c -0.532848,2.756616 -1.059159,5.012029 -1.169573,5.012029 -0.110418,0 -0.34437,-0.540028 -0.519893,-1.200063 C 26.245786,14.155566 24.76226,9.6071266 24.515111,9.3599773 24.208257,9.0531236 21.523713,9.9773399 21.36839,10.443308 c -0.05384,0.161533 0.163658,0.806387 0.483337,1.433011 0.858521,1.682838 0.729576,1.710246 -0.82808,0.176011 l -1.409317,-1.388125 -1.273178,0.618558 c -0.700248,0.340207 -1.273178,0.724482 -1.273178,0.853945 0,0.129464 0.5031,1.412488 1.118001,2.851164 0.614901,1.438676 1.201084,2.877544 1.30263,3.197484 0.180554,0.568878 0.170032,0.568111 -0.477056,-0.03474 -0.992351,-0.924516 -1.749024,-0.994511 -3.684646,-0.34084 -2.063835,0.696968 -2.494446,0.731572 -2.494446,0.200455 0,-0.452936 1.936634,-1.301314 2.970576,-1.301314 0.830492,0 0.859005,-0.212568 0.210836,-1.571795 -0.46235,-0.969555 -0.54967,-1.018131 -1.581465,-0.879737 -1.420928,0.190586 -3.5377,1.51188 -4.347708,2.713852 -0.9117852,1.352997 -0.8346979,2.603071 0.2357,3.822188 1.05406,1.200507 2.241075,1.313451 4.556198,0.43352 1.832057,-0.696328 1.909011,-0.696791 1.909011,-0.01147 0,0.57499 -1.180779,1.056661 -2.964862,1.209446 -0.801698,0.06865 -0.851793,0.14632 -0.934602,1.448953 l -0.0875,1.376408 1.644606,-0.118961 c 3.100423,-0.224263 5.713802,-2.19179 5.742077,-4.323018 l 0.0113,-0.852148 0.412279,0.759361 0.412279,0.759361 1.270293,-0.432832 c 0.698661,-0.238058 1.33878,-0.543646 1.422486,-0.679085 0.0837,-0.13544 -0.106744,-0.753811 -0.423222,-1.37416 -0.838514,-1.643624 -0.722228,-1.69444 0.694875,-0.303659 l 1.270289,1.246695 1.20043,-0.368539 c 0.660236,-0.202695 1.899288,-0.451355 2.753451,-0.552576 1.510747,-0.179028 1.560144,-0.212862 1.814599,-1.242917 0.220677,-0.893316 0.379252,-1.058879 1.014184,-1.058879 0.633397,0 0.806208,0.178903 1.091004,1.129471 l 0.338399,1.129471 h 1.518159 c 0.96182,0 1.562448,-0.129343 1.639018,-0.35296 0.07596,-0.221838 0.598208,0.08489 1.405807,0.825669 1.171121,1.074222 2.725734,1.780597 3.927738,1.78466 0.256248,8.75e-4 0.910636,0.446304 1.454194,0.989862 1.117914,1.117913 1.857561,1.241486 2.589561,0.432638 0.387558,-0.428248 0.624191,-0.490713 1.032051,-0.272434 0.636353,0.340566 0.689938,1.190264 0.105644,1.675187 -0.232954,0.193334 -0.423552,0.492009 -0.423552,0.663722 0,0.353496 2.200447,2.442323 2.572831,2.442323 0.133385,0 1.260917,-2.116152 2.505625,-4.702561 z m -2.933432,-2.030152 c -0.09771,-0.158103 -0.04007,-0.372496 0.1281,-0.47643 0.434134,-0.268311 0.71424,0.09921 0.351824,0.461626 -0.202791,0.20279 -0.36073,0.207662 -0.479924,0.0148 z M 31.597558,13.865189 c -0.105911,-0.171367 -0.06803,-0.436112 0.08418,-0.588322 0.180747,-0.180747 0.334445,-0.126375 0.443089,0.156745 0.197541,0.514779 -0.249634,0.880798 -0.527269,0.431577 z M 33.939451,6.1120672 C 36.227113,3.6890564 34.142832,0.10235671 30.810417,0.72752185 28.737471,1.1164088 27.585822,3.5158023 28.560951,5.4141516 c 1.101065,2.143517 3.695768,2.4802062 5.3785,0.6979156 z M 30.815536,4.1790705 c -0.206274,-0.5375402 0.512086,-1.1384309 1.094021,-0.9151217 0.246408,0.094556 0.405562,0.3946692 0.353671,0.6669179 -0.11832,0.6207862 -1.231482,0.8116358 -1.447692,0.2482038 z M -2.1330385,49.706438 c 0,-0.177005 0.1760977,-0.462903 0.3913282,-0.635328 0.2152305,-0.172421 1.21388703,-1.416272 2.21923669,-2.76411 2.10661011,-2.824263 3.96127571,-6.403766 4.58243611,-8.844099 0.3671742,-1.442507 0.4084866,-1.508034 0.2780761,-0.441056 -0.3407739,2.788103 -2.8311427,7.590923 -5.66936578,10.9337 -0.68033662,0.801282 -1.23697572,1.595442 -1.23697572,1.764799 0,0.169359 -0.1270655,0.307925 -0.2823678,0.307925 -0.1553023,0 -0.2823678,-0.144823 -0.2823678,-0.321831 z M 64.762835,48.983144 c -1.965793,-2.151516 -3.911895,-5.452207 -4.764092,-8.080156 -0.662599,-2.043275 -0.109101,-1.310486 0.826069,1.093653 0.954745,2.454462 3.178412,5.953404 4.269004,6.717286 0.33185,0.232433 0.555595,0.565906 0.497216,0.741045 -0.05875,0.176254 -0.428547,-0.03442 -0.828197,-0.471828 z M 59.281963,38.451188 c -0.107209,-0.488118 -0.136064,-0.946344 -0.06413,-1.018283 0.07194,-0.07194 0.211979,0.275109 0.311201,0.771212 0.09922,0.496103 0.12808,0.954332 0.06413,1.018283 -0.06396,0.06395 -0.203991,-0.283093 -0.311201,-0.771212 z M 58.91346,36.33343 c 0.0058,-0.465908 0.06904,-0.622322 0.14063,-0.347587 0.07159,0.274735 0.06688,0.655932 -0.01046,0.847104 -0.07735,0.191172 -0.135924,-0.03361 -0.13017,-0.499517 z M 58.670978,33.0862 c 0,-1.164768 0.04984,-1.641263 0.110763,-1.05888 0.06092,0.582384 0.06092,1.535375 0,2.117759 -0.06092,0.582383 -0.110763,0.105889 -0.110763,-1.058879 z M 5.2740351,32.521464 c 0,-0.543558 0.05811,-0.765922 0.1291333,-0.494144 0.071023,0.271779 0.071023,0.716508 0,0.988288 -0.071023,0.271778 -0.1291333,0.04941 -0.1291333,-0.494144 z M 4.9707416,30.827257 c 0,-0.388256 0.064089,-0.547087 0.1424223,-0.35296 0.078333,0.194128 0.078333,0.511792 0,0.70592 -0.078333,0.194127 -0.1424223,0.03529 -0.1424223,-0.35296 z M 58.902995,30.262521 c 0,-0.388256 0.06409,-0.547087 0.142423,-0.35296 0.07833,0.194128 0.07833,0.511792 0,0.70592 -0.07833,0.194127 -0.142423,0.03529 -0.142423,-0.35296 z M 4.3863156,28.821005 C 3.8738083,27.10845 2.6753181,24.797851 0.83554812,21.975396 -0.02066309,20.661852 -0.72038198,19.416019 -0.71938285,19.206879 -0.71782471,18.880111 3.6496986,12.90044 5.7732605,10.317655 L 6.4791802,9.4590791 9.0204909,9.6508228 11.561801,9.8425664 9.0059095,9.8873042 6.4500177,9.9320419 3.2173689,14.182688 c -1.7779569,2.337855 -3.3516669,4.42271 -3.49713359,4.633009 -0.18718367,0.270609 0.15210574,1.02957 1.16087423,2.596774 0.78394736,1.217926 1.69554616,2.671584 2.02577516,3.230351 0.7572415,1.281298 2.0733111,4.75167 1.946382,5.132456 C 4.800703,29.93297 4.5905754,29.503547 4.3863156,28.821011 Z M 59.271527,28.633214 c 0.268232,-1.771963 2.225674,-5.55201 4.39316,-8.483689 l 0.612908,-0.829005 -1.80845,-2.50589 C 61.474496,15.43639 60.104224,13.486371 59.424093,12.481255 58.743965,11.476139 57.87517,10.364316 57.493435,10.010537 56.980431,9.5351012 56.914493,9.3673016 57.240668,9.3673016 c 0.383977,0 5.278696,6.6162304 6.808119,9.2025914 l 0.531309,0.898476 -1.274527,1.796886 c -1.378429,1.943376 -2.804149,4.634209 -3.645057,6.879507 -0.404791,1.080831 -0.49599,1.195351 -0.388985,0.488452 z M 11.932408,9.4567803 c 0.203835,-0.081567 0.447378,-0.071535 0.541205,0.022294 0.09383,0.09383 -0.07294,0.160566 -0.370607,0.1483058 -0.328943,-0.013543 -0.395852,-0.080457 -0.170598,-0.1705979 z m 40.64332,0.00587 c 0.194128,-0.078334 0.511791,-0.078334 0.705919,0 0.194128,0.078334 0.03529,0.1424222 -0.35296,0.1424222 -0.388255,0 -0.547087,-0.064086 -0.352959,-0.1424222 z M 14.385479,8.4467555 c 1.138134,-0.6082942 3.038051,-2.2122239 5.78854,-4.8867457 3.030097,-2.94640611 4.511814,-4.17699842 5.700464,-4.7343355 2.423573,-1.1363721 2.582475,-0.9033096 0.196607,0.28836468 -1.712112,0.85515157 -2.691239,1.65834045 -5.473519,4.48998522 -3.20303,3.2598612 -6.45778,5.7724288 -7.455932,5.7557525 -0.247702,-0.00416 0.312026,-0.414998 1.24384,-0.9130212 z M 50.064455,8.8280497 C 47.681822,7.8961601 45.19917,6.1789672 42.471656,3.576283 39.567584,0.80512282 37.823907,-0.50698224 35.923571,-1.3511055 c -0.664186,-0.2950284 -1.034796,-0.5453908 -0.823582,-0.5563609 0.968896,-0.050323 4.060406,2.01382197 6.533986,4.3626226 3.7917,3.6004288 6.280012,5.2997938 9.459321,6.4601342 0.62121,0.2267196 0.938874,0.4152285 0.70592,0.4189072 -0.232954,0.00363 -1.013596,-0.2240878 -1.734761,-0.5061479 z M 29.972121,-2.5505162 c -0.186328,-0.1184434 0.476557,-0.2172974 1.473082,-0.2196755 0.996521,-0.00238 1.71657,0.090975 1.600108,0.207452 -0.278666,0.2786968 -2.639222,0.2880858 -3.07319,0.012223 z"
         id="path135" />
      <path
         style="display:inline;fill:#583406;stroke-width:0.264583"
         d="m 13.009896,62.15132 c -0.190609,-0.305212 -0.308546,-0.589862 -0.262083,-0.632555 0.12783,-0.117456 10.678582,-8.614664 17.744302,-14.290638 3.441872,-2.764896 6.264029,-5.172176 6.271459,-5.34951 0.0074,-0.177332 0.177233,-0.259599 0.377341,-0.182809 0.430527,0.165209 5.685903,-4.069911 9.753533,-7.860028 3.372202,-3.142138 4.943473,-5.110638 6.153193,-7.708779 0.57604,-1.237176 0.898985,-1.704039 0.910111,-1.315703 0.02817,0.982875 -0.97086,3.505837 -2.010061,5.076267 -2.282981,3.450016 -2.649437,3.781935 -17.154983,15.538233 -3.929062,3.184385 -10.319845,8.37519 -14.201738,11.535122 -3.881894,3.159932 -7.097707,5.745332 -7.146251,5.745332 -0.04854,0 -0.244215,-0.249719 -0.434823,-0.554932 z M 48.021875,61.741965 C 47.439792,61.22372 43.771264,58.055364 39.869589,54.701172 33.53966,49.259455 32.81871,48.559566 33.17558,48.202696 c 0.346136,-0.346136 0.463672,-0.349608 0.873602,-0.0258 0.57682,0.455636 15.143641,12.879115 15.669757,13.364131 0.306671,0.282712 0.312756,0.418888 0.03375,0.75507 -0.455997,0.549445 -0.511107,0.531802 -1.730812,-0.554132 z M 25.003125,42.039751 C 16.779552,35.144523 13.291461,32.012886 12.147821,30.498146 10.758305,28.657744 9.3541551,25.858205 9.1263023,24.473959 c -0.1476457,-0.896974 0.00823,-0.695274 1.0223737,1.322917 1.595684,3.175484 3.262446,4.947605 9.781912,10.400239 2.967486,2.481895 5.582165,4.69927 5.810397,4.927503 0.228232,0.228232 0.602066,0.414967 0.830741,0.414967 0.228677,0 0.422206,0.148828 0.430067,0.330729 0.0079,0.181901 0.836805,0.985573 1.8421,1.785938 1.738797,1.384342 2.182048,2.162574 1.31557,2.309799 -0.216612,0.0368 -2.536963,-1.730031 -5.156338,-3.9263 z m 5.733719,-3.760606 c -0.595897,-0.735933 -1.187847,-3.124819 -1.305562,-5.268772 -0.107583,-1.959393 -0.03845,-2.529472 0.453855,-3.742428 0.644591,-1.588172 1.582629,-2.636724 2.160455,-2.41499 0.540785,0.207518 1.286008,2.059943 1.775574,4.413599 0.390269,1.876267 0.388438,2.205567 -0.02416,4.345864 -0.245539,1.273672 -0.538668,2.398453 -0.651402,2.499511 -0.403127,0.36137 -2.153168,0.482862 -2.408751,0.167216 z M 27.78125,37.582897 c -0.509323,-0.271544 -1.271381,-0.857046 -1.693465,-1.301118 -0.757518,-0.796978 -0.765468,-0.837559 -0.616015,-3.144398 0.187238,-2.890041 0.994869,-4.888267 2.465738,-6.100681 0.88883,-0.732649 1.960409,-1.118911 1.960409,-0.706649 0,0.07496 -0.346319,0.759574 -0.769594,1.521354 -1.174946,2.114572 -1.504439,4.021418 -1.092845,6.324548 0.186303,1.04249 0.502972,2.288519 0.703712,2.768954 0.571434,1.367639 0.499938,1.415257 -0.95794,0.63799 z m 7.017845,-0.2105 c 0.444096,-1.052899 0.689261,-3.494818 0.532755,-5.306354 -0.169463,-1.961496 -0.3151,-2.473185 -1.276485,-4.48488 -0.624356,-1.306463 -0.473226,-1.628245 0.517184,-1.101178 1.944499,1.034804 3.054762,2.885043 3.54004,5.899431 0.305776,1.899372 0.292714,2.164255 -0.146974,2.980703 -0.441377,0.819589 -2.5245,2.475299 -3.114283,2.475299 -0.136141,0 -0.159647,-0.208359 -0.05224,-0.463021 z M 23.729049,32.267971 c -0.61383,-2.295192 0.672454,-6.511517 2.235293,-7.32709 0.751375,-0.392109 2.875241,-0.44385 2.875241,-0.07005 0,0.145521 -0.167666,0.264584 -0.372591,0.264584 -0.574876,0 -2.694031,2.189892 -3.335028,3.446351 -0.315659,0.618741 -0.721319,1.847567 -0.901467,2.730722 -0.26572,1.302666 -0.360365,1.483006 -0.501448,0.95548 z m 15.693868,-0.772629 c 0,-0.140062 -0.244526,-0.908208 -0.543388,-1.706994 -0.620123,-1.657426 -2.499495,-3.895247 -3.683029,-4.385482 -1.198862,-0.496585 -0.969712,-0.796615 0.608422,-0.796615 1.641081,0 2.20009,0.442781 3.085211,2.443739 0.530471,1.199222 1.054349,4.700011 0.703334,4.700011 -0.0938,0 -0.17055,-0.114596 -0.17055,-0.254659 z m -8.995834,-6.507429 c 0,-0.320216 0.24611,-0.39395 1.103916,-0.330729 1.57861,0.116344 1.670333,0.742817 0.108757,0.742817 -0.921438,0 -1.212673,-0.09897 -1.212673,-0.412088 z m -1.5875,-1.473947 c -0.607925,-0.243547 -0.622683,-0.286809 -0.182366,-0.534537 0.594656,-0.334562 1.2407,-0.111755 1.2407,0.427893 0,0.462368 -0.136152,0.476087 -1.058334,0.106644 z M 33.3375,23.311642 c 0,-0.341195 0.723366,-0.567876 1.21281,-0.380059 0.337402,0.129474 0.35029,0.2044 0.06615,0.38452 -0.467296,0.296218 -1.278956,0.293387 -1.278956,-0.0045 z m -2.050521,-0.221623 c -0.576786,-0.201195 -0.356878,-0.600435 0.330729,-0.600435 0.363802,0 0.661459,0.106324 0.661459,0.236276 0,0.304584 -0.566701,0.512578 -0.992188,0.364159 z"
         id="path131" />
    </g>
  </g>
</svg>
