<?xml version="1.0" encoding="UTF-8"?>
<svg width="256px" height="256px" viewBox="0 0 256 256" version="1.1" xmlns="http://www.w3.org/2000/svg" xmlns:xlink="http://www.w3.org/1999/xlink">
    <!-- Generator: Sketch 50.2 (55047) - http://www.bohemiancoding.com/sketch -->
    <title>logo/snil</title>
    <desc>Created with Sketch.</desc>
    <defs></defs>
    <g id="logo/snil" stroke="none" stroke-width="1" fill="none" fill-rule="evenodd">
        <g id="snil" fill-rule="nonzero">
            <g id="#ffffffff" transform="translate(3.436242, 5.120000)" fill="#FFFFFF">
                <path d="M117.656913,1.04106667 C149.47651,-1.1776 182.223893,9.59146667 205.762148,31.0954667 C223.561879,47.7184 237.702013,68.7957333 243.440537,92.5866667 C250.502013,122.538667 247.220403,155.426133 231.757315,182.357333 C220.400537,202.205867 203.305235,218.709333 183.289128,229.853867 C155.249396,245.2992 121.007248,248.2688 90.2700671,239.7696 C63.1924832,232.174933 39.4652349,214.545067 23.1774497,191.914667 C7.68,170.5472 1.25422819,143.684267 1.71812081,117.623467 C2.92080537,81.9370667 20.8579866,46.8992 49.7052349,25.4634667 C69.1371812,10.6154667 93.2080537,2.26986667 117.656913,1.04106667 Z M119.478121,16.9301333 C120.45745,25.7877333 136.710872,26.1973333 137.002953,16.7253333 C138.463356,11.5029333 133.996242,8.31146667 129.408859,7.44106667 C131.12698,6.17813333 132.776376,4.82986667 134.339866,3.41333333 C125.783624,-0.494933333 117.588188,8.66986667 119.478121,16.9301333 Z M101.867383,4.89813333 C94.6512752,10.3765333 97.4002685,27.1018667 108.22443,25.1050667 C117.278926,24.7637333 118.722148,13.312 114.581477,7.15093333 C112.055839,2.73066667 105.939329,3.2256 101.867383,4.89813333 Z M154.390336,29.184 C138.291544,24.1664 120.955705,23.4496 104.427383,26.6069333 C90.1326174,29.0133333 77.3154362,35.9253333 64.9621477,43.1274667 C67.9688591,38.7584 72.8483221,36.7616 77.4185235,34.5088 C76.4907383,32.5632 75.7691275,30.5493333 74.9959732,28.5354667 C77.126443,29.7642667 79.0851007,31.2149333 81.009396,32.7338667 C84.8751678,31.5562667 88.5004027,29.696 91.4555705,26.9482667 C84.6346309,23.1765333 79.2225503,17.5104 72.8826846,13.0901333 C71.8518121,13.6704 69.7728859,14.8309333 68.7248322,15.4112 C69.2402685,23.0058667 70.2367785,30.72 68.5358389,38.2634667 C62.8144966,37.376 60.2201342,31.9317333 57.230604,27.6992 C58.9315436,27.6992 62.3162416,27.6992 64.0171812,27.6992 C62.7285906,25.4122667 61.3197315,23.1594667 59.8593289,20.9749333 C53.9489933,24.6272 48.141745,28.5696 43.2451007,33.536 C44.8944966,35.328 46.578255,37.0858667 48.2963758,38.8266667 C49.138255,36.6762667 49.9801342,34.5088 50.8048322,32.3413333 C53.8802685,36.4885333 57.3680537,40.6528 57.969396,45.9776 C59.9624161,45.8922667 61.9210738,45.4314667 63.8453691,44.9194667 C55.8389262,51.4048 48.2963758,58.6410667 42.6609396,67.328 C36.9911409,62.4128 29.2424161,60.4501333 24.2942282,54.5109333 C22.3871141,57.6341333 20.48,60.7744 18.6072483,63.9146667 C25.2391946,65.2970667 30.9433557,69.12 35.6853691,73.8133333 C36.664698,73.3525333 38.6061745,72.448 39.5683221,71.9872 C34.0187919,80.7765333 30.307651,90.5898667 28.0053691,100.693333 C25.9092617,97.2629333 23.9849664,92.16 18.9852349,93.0133333 C14.7071141,94.208 12.4391946,98.6794667 8.88268456,101.085867 C10.4118121,98.1845333 12.301745,95.5221333 14.122953,92.8085333 C11.6832215,92.6890667 9.24348993,92.5696 6.8209396,92.4672 C6.16805369,96.768 3.53932886,101.905067 6.97557047,105.693867 C9.24348993,107.502933 12.4220134,107.349333 15.1538255,107.9296 C17.7825503,105.198933 20.2222819,102.2464 23.366443,100.078933 C22.0091275,103.4752 19.5006711,106.1888 17.1983893,108.970667 C19.3460403,109.533867 21.5280537,109.9264 23.7100671,110.165333 C24.9642953,107.52 26.2357047,104.874667 27.4899329,102.2464 C23.7272483,124.074667 25.8920805,147.319467 36.252349,167.150933 C45.581745,186.4192 62.3677852,201.3696 81.507651,210.7392 C106.643758,223.095467 137.140403,223.709867 162.98094,213.060267 C186.141208,203.093333 205.762148,184.439467 215.486711,161.1776 C227.754094,132.7616 225.520537,98.4917333 209.181208,72.1066667 C196.965369,52.6165333 178.06604,36.8128 155.902282,29.8496 C159.819597,28.7061333 165.300403,28.8768 166.96698,24.3029333 C170.437584,18.7392 169.303624,8.78933333 161.348725,8.192 C149.802953,5.9392 144.322148,23.7909333 154.390336,29.184 Z M140.439195,13.2096 C140.714094,14.6432 141.281074,17.4762667 141.555973,18.8928 C143.737987,18.5173333 145.885638,18.0053333 148.033289,17.4250667 C147.809933,16.0256 147.363221,13.1925333 147.139866,11.776 C144.92349,12.3221333 142.689933,12.8 140.439195,13.2096 Z M172.464966,23.2448 C174.78443,25.7194667 177.20698,28.1258667 179.096913,30.9589333 C173.925369,33.0410667 171.038926,28.672 168.341477,25.1050667 C167.276242,26.88 166.468725,28.7402667 165.867383,30.6858667 C169.544161,36.4032 180.316779,40.3285333 184.508993,33.2288 C186.828456,28.5184 182.172349,24.6954667 179.114094,21.8282667 C181.227383,22.9205333 183.340671,24.0298667 185.471141,25.1050667 C186.502013,24.2005333 188.546577,22.4085333 189.57745,21.504 C185.986577,19.4048 182.344161,17.408 178.667383,15.4624 C176.554094,18.0224 174.492349,20.6165333 172.464966,23.2448 Z M187.481342,33.6042667 C187.73906,34.9013333 188.271678,37.4784 188.529396,38.7754667 C190.762953,38.7925333 192.99651,38.8266667 195.230067,38.912 C195.023893,37.1712 194.680268,35.4816 194.216376,33.8090667 C192.377987,31.7098667 189.714899,33.4165333 187.481342,33.6042667 Z M39.9978523,35.7888 C35.9430872,40.3456 31.8024161,44.8341333 28.1428188,49.6981333 C34.9637584,51.9168 39.8088591,57.3269333 43.7605369,63.0101333 C46.7157047,60.0576 49.4475168,56.9002667 52.110604,53.6917333 C48.9320805,52.8042667 45.7363758,51.9168 42.5750336,50.9610667 C44.1900671,50.5856 47.4373154,49.8517333 49.052349,49.4933333 C46.990604,47.0528 44.8257718,44.7146667 42.5578523,42.4618667 C41.6816107,43.6906667 39.9463087,46.1312 39.0700671,47.3429333 C38.6920805,46.08 38.3484564,44.8170667 37.9532886,43.5541333 C40.7022819,42.3082667 43.4512752,41.0624 46.2002685,39.8165333 C44.1900671,38.3829333 42.1283221,37.0346667 39.9978523,35.7888 Z M203.494228,34.6794667 C202.961611,37.8538667 203.786309,41.8986667 200.67651,44.032 C198.047785,47.0698667 193.580671,45.4656 190.075705,46.0288 C193.511946,51.2512 197.721342,56.0469333 203.150604,59.2896 C203.219329,56.7125333 203.150604,54.1354667 203.064698,51.5584 C206.569664,48.0768 210.074631,44.5952 213.390604,40.9088 C210.48698,38.2634667 207.119463,36.2154667 203.494228,34.6794667 Z M215.710067,52.224 C209.78255,53.7088 209.834094,60.7744 211.809933,65.3653333 C209.627919,62.4810667 207.377181,59.6309333 204.645369,57.2416 C204.318926,61.1669333 204.559463,65.5018667 207.703624,68.3349333 C213.18443,75.6224 227.358926,70.6389333 226.826309,61.44 C226.963758,55.808 221.671946,49.8346667 215.710067,52.224 Z M16.1675168,67.6010667 C13.6934228,73.6597333 11.1849664,79.7013333 8.9514094,85.8282667 C11.2193289,87.0058667 13.5731544,88.0298667 15.9613423,88.9856 C15.9441611,87.2277333 15.8926174,83.7461333 15.8754362,82.0053333 C20.9954362,83.712 25.6,86.6133333 29.2595973,90.5898667 C31.1667114,86.5962667 32.781745,82.4832 34.1218792,78.2848 C28.6410738,78.6602667 23.3836242,77.1242667 18.418255,74.9738667 C19.9645638,73.3013333 21.5452349,71.6458667 23.1774497,70.0416 C20.8751678,69.1029333 18.5385235,68.2837333 16.1675168,67.6010667 Z M216.03651,75.1445333 C214.438658,81.4250667 216.826846,91.1530667 224.85047,90.8458667 C229.059866,88.2858667 232.994362,85.248 237.51302,83.1488 C237.186577,78.3872 235.554362,72.448 230.107919,71.3386667 C225.365906,72.3797333 220.72698,73.8816 216.03651,75.1445333 Z M234.95302,90.8970667 C236.207248,93.7130667 237.598926,96.4778667 238.870336,99.2938667 C235.056107,100.437333 231.293423,101.751467 227.462013,102.843733 C226.929396,98.9866667 226.637315,95.1125333 226.018792,91.2554667 C219.575839,95.6416 220.452081,106.3424 226.877852,110.097067 C232.049396,109.994667 236.808591,107.349333 241.928591,106.581333 C243.870067,101.239467 242.907919,95.5904 240.485369,90.5728 C239.110872,90.6581333 236.344698,90.8117333 234.95302,90.8970667 Z" id="Shape"></path>
                <path d="M110.045638,21.248 C104.204027,18.9269333 103.070067,11.6224 106.042416,6.62186667 C109.787919,10.6325333 110.956242,15.9402667 110.045638,21.248 Z" id="Shape"></path>
                <path d="M125.216644,13.9093333 C126.728591,13.0218667 128.343624,12.4074667 130.061745,12.0490667 C130.525638,14.6261333 130.869262,17.2202667 131.058255,19.8485333 C127.261208,20.1216 126.247517,16.8106667 125.216644,13.9093333 Z" id="Shape"></path>
                <path d="M156.245906,25.1733333 C155.953826,20.0874667 156.709799,14.9162667 160.025772,10.8373333 C163.049664,15.4282667 162.723221,23.8421333 156.245906,25.1733333 Z" id="Shape"></path>
                <path d="M72.4187919,23.0912 C74.5320805,21.3504 77.7277852,24.8832 75.3052349,26.5386667 C73.1575839,28.2965333 70.0821477,24.7978667 72.4187919,23.0912 Z" id="Shape"></path>
                <path d="M103.740134,31.6928 C126.350604,27.3408 150.868188,30.0373333 170.918658,41.7450667 C189.886711,52.7701333 205.65906,70.0416 212.651812,90.9482667 C220.933154,115.490133 220.005369,143.6672 207.136644,166.519467 C194.869262,188.0576 174.526711,205.7728 150.18094,212.206933 C125.57745,218.845867 98.1390604,215.722667 76.2330201,202.513067 C53.2273826,189.0304 36.2179866,165.393067 32.1804027,139.008 C27.3524832,114.193067 33.4002685,87.5349333 49.0351678,67.5328 C61.9726174,49.3568 81.9371812,36.5568 103.740134,31.6928 Z M41.4410738,82.1589333 C41.0287248,83.5584 40.1868456,86.3914667 39.7573154,87.808 C96.2491275,87.9786667 152.74094,87.9104 209.232752,87.8592 C208.717315,86.4426667 207.703624,83.6096 207.205369,82.1930667 C151.950604,81.7152 96.6786577,81.8005333 41.4410738,82.1589333 Z M61.1307383,93.0474667 C58.6566443,104.635733 54.8080537,115.8656 52.5573154,127.488 C59.1205369,128.341333 65.7009396,129.1264 72.2126174,130.338133 C71.7143624,133.000533 71.1130201,135.645867 70.4601342,138.274133 C69.2746309,138.427733 66.9036242,138.752 65.7181208,138.922667 C65.5634899,137.472 65.237047,134.5536 65.0824161,133.102933 C60.6324832,133.102933 56.1825503,133.137067 51.7326174,133.137067 C50.2378523,139.6736 48.5369128,146.176 47.0077852,152.695467 C58.3302013,152.797867 69.6697987,152.746667 81.009396,152.746667 C83.7583893,141.7728 86.627651,130.816 88.8268456,119.7056 C82.2292617,118.6304 75.6144966,117.486933 69.1028188,115.933867 C69.8587919,112.8448 70.6663087,109.7728 71.4222819,106.7008 C73.1747651,106.359467 74.9272483,106.052267 76.6797315,105.745067 C76.6453691,107.946667 76.6281879,110.148267 76.6110067,112.349867 C81.0609396,112.213333 85.5108725,112.2304 89.9779866,112.128 C91.6273826,105.762133 93.2939597,99.4133333 94.805906,93.0304 C83.569396,92.9962667 72.3500671,92.9621333 61.1307383,93.0474667 Z M99.9430872,93.4741333 C94.805906,112.981333 90.3903356,132.642133 85.8544966,152.285867 C91.4212081,152.32 96.9707383,152.354133 102.520268,152.1152 C104.25557,143.991467 106.008054,135.867733 108.344698,127.8976 C111.299866,136.004267 114.20349,144.110933 117.021208,152.251733 C122.74255,152.32 128.463893,152.285867 134.202416,152.3712 C138.652349,132.693333 143.686443,113.152 148.136376,93.4912 C142.397852,93.4570667 136.67651,93.4229333 130.955168,93.4912 C128.532617,102.792533 126.333423,112.162133 123.44698,121.344 C120.594899,112.059733 117.553826,102.843733 114.822013,93.5424 C109.856644,93.44 104.908456,93.4570667 99.9430872,93.4741333 Z M156.572349,93.44 C150.885369,112.827733 146.933691,132.6592 142.22604,152.285867 C147.827114,152.32 153.428188,152.388267 159.029262,152.046933 C163.169933,132.471467 168.410201,113.134933 172.37906,93.5082667 C167.10443,93.4570667 161.84698,93.4229333 156.572349,93.44 Z M181.244564,94.4128 C176.021477,113.527467 171.829262,132.9152 167.585503,152.2688 C178.255034,152.3712 188.924564,152.251733 199.611275,152.354133 C200.882685,148.002133 201.844832,143.5648 202.824161,139.127467 C197.583893,139.0592 192.343624,139.144533 187.103356,138.769067 C190.29906,123.648 194.250738,108.680533 197.137181,93.4912 C191.931275,93.9349333 186.055302,92.2624 181.244564,94.4128 Z M39.5339597,156.637867 C40.1524832,158.702933 40.7710067,160.750933 41.4238926,162.816 C96.7302013,163.054933 152.053691,163.242667 207.36,162.7136 C208.115973,160.682667 208.871946,158.6688 209.627919,156.637867 C152.929933,156.5696 96.2319463,156.5696 39.5339597,156.637867 Z" id="Shape"></path>
                <path d="M215.813154,63.7098667 C216.17396,60.2112 218.115436,57.4805333 221.397047,56.1152 C221.379866,58.1802667 221.345503,60.2453333 221.259597,62.3104 C219.902282,62.6688 217.17047,63.3685333 215.813154,63.7098667 Z" id="Shape"></path>
                <path d="M230.314094,77.4997333 C232.702282,76.8 233.52698,77.6533333 232.788188,80.0426667 C230.365638,80.7594667 229.54094,79.9061333 230.314094,77.4997333 Z" id="Shape"></path>
                <path d="M220.366174,79.4282667 C222.926174,77.4314667 225.520537,81.9370667 223.115168,83.6096 C220.537987,85.6064 217.926443,81.1008 220.366174,79.4282667 Z" id="Shape"></path>
            </g>
            <g id="#e10e1aff" fill="#E10E1A">
                <path d="M110.543893,2.1504 C134.992752,-0.8192 160.455302,2.21866667 182.722148,13.0730667 C213.321879,27.8357333 238.440805,54.6816 249.007248,87.0229333 C258.199195,115.882667 257.42604,148.053333 246.103624,176.213333 C235.176376,203.912533 212.857987,226.048 186.948725,240.3328 C159.699329,255.266133 126.797315,257.604267 96.8161074,250.589867 C68.6732886,244.138667 43.7261745,226.986667 26.2013423,204.3904 C8.57342282,182.4768 -0.154630872,154.180267 0.377986577,126.276267 C-0.824697987,65.5701333 49.6880537,8.46506667 110.543893,2.1504 Z M121.093154,6.16106667 C96.6442953,7.38986667 72.5734228,15.7354667 53.1414765,30.5834667 C24.2942282,52.0192 6.35704698,87.0570667 5.15436242,122.743467 C4.6904698,148.804267 11.1162416,175.6672 26.6136913,197.034667 C42.9014765,219.665067 66.6287248,237.294933 93.7063087,244.8896 C124.44349,253.3888 158.685638,250.4192 186.725369,234.973867 C206.741477,223.829333 223.836779,207.325867 235.193557,187.477333 C250.656644,160.546133 253.938255,127.658667 246.876779,97.7066667 C241.138255,73.9157333 226.998121,52.8384 209.198389,36.2154667 C185.660134,14.7114667 152.912752,3.9424 121.093154,6.16106667 Z" id="Shape"></path>
                <path d="M122.914362,22.0501333 C121.02443,13.7898667 129.219866,4.62506667 137.776107,8.53333333 C136.212617,9.94986667 134.563221,11.2981333 132.845101,12.5610667 C137.432483,13.4314667 141.899597,16.6229333 140.439195,21.8453333 C140.147114,31.3173333 123.893691,30.9077333 122.914362,22.0501333 Z M128.652886,19.0293333 C129.683758,21.9306667 130.69745,25.2416 134.494497,24.9685333 C134.305503,22.3402667 133.961879,19.7461333 133.497987,17.1690667 C131.779866,17.5274667 130.164832,18.1418667 128.652886,19.0293333 Z" id="Shape"></path>
                <path d="M105.303624,10.0181333 C109.37557,8.3456 115.492081,7.85066667 118.017718,12.2709333 C122.158389,18.432 120.715168,29.8837333 111.660671,30.2250667 C100.83651,32.2218667 98.0875168,15.4965333 105.303624,10.0181333 Z M113.481879,26.368 C114.392483,21.0602667 113.224161,15.7525333 109.478658,11.7418667 C106.506309,16.7424 107.640268,24.0469333 113.481879,26.368 Z" id="Shape"></path>
                <path d="M157.826577,34.304 C147.758389,28.9109333 153.239195,11.0592 164.784966,13.312 C172.739866,13.9093333 173.873826,23.8592 170.403221,29.4229333 C168.736644,33.9968 163.255839,33.8261333 159.338523,34.9696 C181.502282,41.9328 200.401611,57.7365333 212.61745,77.2266667 C228.956779,103.611733 231.190336,137.8816 218.922953,166.2976 C209.198389,189.559467 189.57745,208.213333 166.417181,218.180267 C140.576644,228.829867 110.08,228.215467 84.9438926,215.8592 C65.8040268,206.4896 49.0179866,191.5392 39.6885906,172.270933 C29.3283221,152.439467 27.1634899,129.194667 30.9261745,107.3664 C29.6719463,109.994667 28.4005369,112.64 27.1463087,115.285333 C24.9642953,115.0464 22.7822819,114.653867 20.6346309,114.090667 C22.9369128,111.3088 25.4453691,108.5952 26.8026846,105.198933 C23.6585235,107.3664 21.2187919,110.318933 18.5900671,113.0496 C15.858255,112.469333 12.6797315,112.622933 10.4118121,110.813867 C6.97557047,107.025067 9.6042953,101.888 10.2571812,97.5872 C12.6797315,97.6896 15.1194631,97.8090667 17.5591946,97.9285333 C15.7379866,100.642133 13.8480537,103.304533 12.3189262,106.205867 C15.8754362,103.799467 18.1433557,99.328 22.4214765,98.1333333 C27.4212081,97.28 29.3455034,102.382933 31.4416107,105.813333 C33.7438926,95.7098667 37.4550336,85.8965333 43.0045638,77.1072 C42.0424161,77.568 40.1009396,78.4725333 39.1216107,78.9333333 C34.3795973,74.24 28.6754362,70.4170667 22.0434899,69.0346667 C23.9162416,65.8944 25.8233557,62.7541333 27.7304698,59.6309333 C32.6786577,65.5701333 40.4273826,67.5328 46.0971812,72.448 C51.7326174,63.7610667 59.2751678,56.5248 67.2816107,50.0394667 C65.3573154,50.5514667 63.3986577,51.0122667 61.4056376,51.0976 C60.8042953,45.7728 57.3165101,41.6085333 54.2410738,37.4613333 C53.4163758,39.6288 52.5744966,41.7962667 51.7326174,43.9466667 C50.0144966,42.2058667 48.3307383,40.448 46.6813423,38.656 C51.5779866,33.6896 57.3852349,29.7472 63.2955705,26.0949333 C64.7559732,28.2794667 66.1648322,30.5322667 67.4534228,32.8192 C65.7524832,32.8192 62.3677852,32.8192 60.6668456,32.8192 C63.6563758,37.0517333 66.2507383,42.496 71.9720805,43.3834667 C73.6730201,35.84 72.6765101,28.1258667 72.1610738,20.5312 C73.2091275,19.9509333 75.2880537,18.7904 76.3189262,18.2101333 C82.6587919,22.6304 88.0708725,28.2965333 94.8918121,32.0682667 C91.9366443,34.816 88.3114094,36.6762667 84.4456376,37.8538667 C82.5213423,36.3349333 80.5626846,34.8842667 78.4322148,33.6554667 C79.2053691,35.6693333 79.9269799,37.6832 80.8547651,39.6288 C76.2845638,41.8816 71.4051007,43.8784 68.3983893,48.2474667 C80.7516779,41.0453333 93.5688591,34.1333333 107.863624,31.7269333 C124.391946,28.5696 141.727785,29.2864 157.826577,34.304 Z M159.682148,30.2933333 C166.159463,28.9621333 166.485906,20.5482667 163.462013,15.9573333 C160.14604,20.0362667 159.390067,25.2074667 159.682148,30.2933333 Z M75.8550336,28.2112 C73.5183893,29.9178667 76.5938255,33.4165333 78.7414765,31.6586667 C81.1640268,30.0032 77.9683221,26.4704 75.8550336,28.2112 Z M107.176376,36.8128 C85.3734228,41.6768 65.4088591,54.4768 52.4714094,72.6528 C36.8365101,92.6549333 30.7887248,119.313067 35.6166443,144.128 C39.6542282,170.513067 56.6636242,194.1504 79.6692617,207.633067 C101.575302,220.842667 129.013691,223.965867 153.617181,217.326933 C177.962953,210.8928 198.305503,193.1776 210.572886,171.639467 C223.441611,148.7872 224.369396,120.610133 216.088054,96.0682667 C209.095302,75.1616 193.322953,57.8901333 174.354899,46.8650667 C154.30443,35.1573333 129.786846,32.4608 107.176376,36.8128 Z" id="Shape"></path>
                <path d="M143.875436,18.3296 C146.126174,17.92 148.359732,17.4421333 150.576107,16.896 C150.799463,18.3125333 151.246174,21.1456 151.46953,22.5450667 C149.321879,23.1253333 147.174228,23.6373333 144.992215,24.0128 C144.717315,22.5962667 144.150336,19.7632 143.875436,18.3296 Z" id="Shape"></path>
                <path d="M175.901208,28.3648 C177.928591,25.7365333 179.990336,23.1424 182.103624,20.5824 C185.780403,22.528 189.422819,24.5248 193.013691,26.624 C191.982819,27.5285333 189.938255,29.3205333 188.907383,30.2250667 C186.776913,29.1498667 184.663624,28.0405333 182.550336,26.9482667 C185.608591,29.8154667 190.264698,33.6384 187.945235,38.3488 C183.75302,45.4485333 172.980403,41.5232 169.303624,35.8058667 C169.904966,33.8602667 170.712483,32 171.777718,30.2250667 C174.475168,33.792 177.361611,38.1610667 182.533154,36.0789333 C180.643221,33.2458667 178.220671,30.8394667 175.901208,28.3648 Z" id="Shape"></path>
                <path d="M190.917584,38.7242667 C193.151141,38.5365333 195.814228,36.8298667 197.652617,38.9290667 C198.11651,40.6016 198.460134,42.2912 198.666309,44.032 C196.432752,43.9466667 194.199195,43.9125333 191.965638,43.8954667 C191.707919,42.5984 191.175302,40.0213333 190.917584,38.7242667 Z" id="Shape"></path>
                <path d="M43.434094,40.9088 C45.5645638,42.1546667 47.6263087,43.5029333 49.6365101,44.9365333 C46.8875168,46.1824 44.1385235,47.4282667 41.3895302,48.6741333 C41.784698,49.9370667 42.1283221,51.2 42.5063087,52.4629333 C43.3825503,51.2512 45.1178523,48.8106667 45.994094,47.5818667 C48.2620134,49.8346667 50.4268456,52.1728 52.4885906,54.6133333 C50.873557,54.9717333 47.6263087,55.7056 46.0112752,56.0810667 C49.1726174,57.0368 52.3683221,57.9242667 55.5468456,58.8117333 C52.8837584,62.0202667 50.1519463,65.1776 47.1967785,68.1301333 C43.2451007,62.4469333 38.4,57.0368 31.5790604,54.8181333 C35.2386577,49.9541333 39.3793289,45.4656 43.434094,40.9088 Z" id="Shape"></path>
                <path d="M206.93047,39.7994667 C210.555705,41.3354667 213.923221,43.3834667 216.826846,46.0288 C213.510872,49.7152 210.005906,53.1968 206.50094,56.6784 C206.586846,59.2554667 206.65557,61.8325333 206.586846,64.4096 C201.157584,61.1669333 196.948188,56.3712 193.511946,51.1488 C197.016913,50.5856 201.484027,52.1898667 204.112752,49.152 C207.22255,47.0186667 206.397852,42.9738667 206.93047,39.7994667 Z" id="Shape"></path>
                <path d="M219.146309,57.344 C225.108188,54.9546667 230.4,60.928 230.26255,66.56 C230.795168,75.7589333 216.620671,80.7424 211.139866,73.4549333 C207.995705,70.6218667 207.755168,66.2869333 208.081611,62.3616 C210.813423,64.7509333 213.064161,67.6010667 215.246174,70.4853333 C213.270336,65.8944 213.218792,58.8288 219.146309,57.344 Z M219.249396,68.8298667 C220.606711,68.4885333 223.338523,67.7888 224.695839,67.4304 C224.781745,65.3653333 224.816107,63.3002667 224.833289,61.2352 C221.551678,62.6005333 219.610201,65.3312 219.249396,68.8298667 Z" id="Shape"></path>
                <path d="M19.6037584,72.7210667 C21.9747651,73.4037333 24.3114094,74.2229333 26.6136913,75.1616 C24.9814765,76.7658667 23.4008054,78.4213333 21.8544966,80.0938667 C26.8198658,82.2442667 32.0773154,83.7802667 37.5581208,83.4048 C36.2179866,87.6032 34.602953,91.7162667 32.6958389,95.7098667 C29.0362416,91.7333333 24.4316779,88.832 19.3116779,87.1253333 C19.3288591,88.8661333 19.3804027,92.3477333 19.3975839,94.1056 C17.009396,93.1498667 14.6555705,92.1258667 12.387651,90.9482667 C14.6212081,84.8213333 17.1296644,78.7797333 19.6037584,72.7210667 Z" id="Shape"></path>
                <path d="M219.472752,80.2645333 C224.163221,79.0016 228.802148,77.4997333 233.544161,76.4586667 C238.990604,77.568 240.622819,83.5072 240.949262,88.2688 C236.430604,90.368 232.496107,93.4058667 228.286711,95.9658667 C220.263087,96.2730667 217.874899,86.5450667 219.472752,80.2645333 Z M233.750336,82.6197333 C232.977181,85.0261333 233.801879,85.8794667 236.22443,85.1626667 C236.963221,82.7733333 236.138523,81.92 233.750336,82.6197333 Z M223.802416,84.5482667 C221.362685,86.2208 223.974228,90.7264 226.551409,88.7296 C228.956779,87.0570667 226.362416,82.5514667 223.802416,84.5482667 Z" id="Shape"></path>
                <path d="M44.8773154,87.2789333 C100.114899,86.9205333 155.386846,86.8352 210.641611,87.3130667 C211.139866,88.7296 212.153557,91.5626667 212.668993,92.9792 C156.177181,93.0304 99.6853691,93.0986667 43.193557,92.928 C43.6230872,91.5114667 44.4649664,88.6784 44.8773154,87.2789333 Z" id="Shape"></path>
                <path d="M238.389262,96.0170667 C239.78094,95.9317333 242.547114,95.7781333 243.921611,95.6928 C246.344161,100.7104 247.306309,106.359467 245.364832,111.701333 C240.244832,112.469333 235.485638,115.114667 230.314094,115.217067 C223.888322,111.4624 223.012081,100.7616 229.455034,96.3754667 C230.073557,100.232533 230.365638,104.106667 230.898255,107.963733 C234.729664,106.871467 238.492349,105.557333 242.306577,104.413867 C241.035168,101.597867 239.64349,98.8330667 238.389262,96.0170667 Z" id="Shape"></path>
                <path d="M64.5669799,98.1674667 C75.7863087,98.0821333 87.0056376,98.1162667 98.2421477,98.1504 C96.7302013,104.533333 95.0636242,110.882133 93.4142282,117.248 C88.9471141,117.3504 84.4971812,117.333333 80.0472483,117.469867 C80.0644295,115.268267 80.0816107,113.066667 80.1159732,110.865067 C78.3634899,111.172267 76.6110067,111.479467 74.8585235,111.8208 C74.1025503,114.8928 73.2950336,117.9648 72.5390604,121.053867 C79.0507383,122.606933 85.6655034,123.7504 92.2630872,124.8256 C90.0638926,135.936 87.1946309,146.8928 84.4456376,157.866667 C73.1060403,157.866667 61.766443,157.917867 50.4440268,157.815467 C51.9731544,151.296 53.674094,144.7936 55.1688591,138.257067 C59.6187919,138.257067 64.0687248,138.222933 68.5186577,138.222933 C68.6732886,139.6736 68.9997315,142.592 69.1543624,144.042667 C70.3398658,143.872 72.7108725,143.547733 73.8963758,143.394133 C74.5492617,140.765867 75.150604,138.120533 75.6488591,135.458133 C69.1371812,134.2464 62.5567785,133.461333 55.993557,132.608 C58.2442953,120.9856 62.0928859,109.755733 64.5669799,98.1674667 Z" id="Shape"></path>
                <path d="M103.379329,98.5941333 C108.344698,98.5770667 113.292886,98.56 118.258255,98.6624 C120.990067,107.963733 124.031141,117.179733 126.883221,126.464 C129.769664,117.282133 131.968859,107.912533 134.391409,98.6112 C140.112752,98.5429333 145.834094,98.5770667 151.572617,98.6112 C147.122685,118.272 142.088591,137.813333 137.638658,157.4912 C131.900134,157.405867 126.178792,157.44 120.45745,157.371733 C117.639732,149.230933 114.736107,141.124267 111.78094,133.0176 C109.444295,140.987733 107.691812,149.111467 105.95651,157.2352 C100.40698,157.474133 94.8574497,157.44 89.2907383,157.405867 C93.8265772,137.762133 98.2421477,118.101333 103.379329,98.5941333 Z" id="Shape"></path>
                <path d="M160.008591,98.56 C165.283221,98.5429333 170.540671,98.5770667 175.815302,98.6282667 C171.846443,118.254933 166.606174,137.591467 162.465503,157.166933 C156.86443,157.508267 151.263356,157.44 145.662282,157.405867 C150.369933,137.7792 154.321611,117.947733 160.008591,98.56 Z" id="Shape"></path>
                <path d="M184.680805,99.5328 C189.491544,97.3824 195.367517,99.0549333 200.573423,98.6112 C197.68698,113.800533 193.735302,128.768 190.539597,143.889067 C195.779866,144.264533 201.020134,144.1792 206.260403,144.247467 C205.281074,148.6848 204.318926,153.122133 203.047517,157.474133 C192.360805,157.371733 181.691275,157.4912 171.021745,157.3888 C175.265503,138.0352 179.457718,118.647467 184.680805,99.5328 Z" id="Shape"></path>
                <path d="M42.9702013,161.757867 C99.6681879,161.6896 156.366174,161.6896 213.064161,161.757867 C212.308188,163.7888 211.552215,165.802667 210.796242,167.8336 C155.489933,168.362667 100.166443,168.174933 44.8601342,167.936 C44.2072483,165.870933 43.5887248,163.822933 42.9702013,161.757867 Z" id="Shape"></path>
            </g>
        </g>
    </g>
</svg>