<?xml version="1.0" encoding="UTF-8"?>
<svg width="256px" height="256px" viewBox="0 0 256 256" version="1.1" xmlns="http://www.w3.org/2000/svg" xmlns:xlink="http://www.w3.org/1999/xlink">
    <!-- Generator: Sketch 50.2 (55047) - http://www.bohemiancoding.com/sketch -->
    <title>logo/sortland</title>
    <desc>Created with Sketch.</desc>
    <defs></defs>
    <g id="logo/sortland" stroke="none" stroke-width="1" fill="none" fill-rule="evenodd">
        <g id="sortland" transform="translate(1.000000, 16.000000)" fill="#FFFFFF" fill-rule="nonzero">
            <g id="#282526ff">
                <path d="M100.467429,0 L134.478857,0 C144.737143,3.06398374 155.434286,4.78634146 165.217143,9.24634146 C194.876571,21.5747967 217.733714,47.6458537 227.973714,77.6692683 L224.389714,77.5786179 C226.254857,79.0108943 228.174857,80.3706504 230.094857,81.7304065 C229.125714,81.9842276 227.187429,82.4556098 226.218286,82.7094309 C225.541714,83.7972358 224.188571,86.0091057 223.493714,87.0969106 C223.018286,89.870813 222.469714,92.6084553 221.811429,95.3279675 C220.348571,95.2735772 217.422857,95.1647967 215.96,95.1104065 C215.484571,96.1438211 214.552,98.2106504 214.076571,99.244065 C212.979429,98.8089431 210.766857,97.9205691 209.669714,97.4854472 L211.260571,100.821382 C206.433143,98.4644715 203.050286,103.232683 199.594286,105.698374 C202.227429,106.532358 204.860571,107.366341 207.512,108.182195 C202.465143,107.00374 197.710857,108.381626 196.284571,113.71187 C192.554286,113.71187 188.732571,113.548699 185.550857,111.354959 L183.777143,112.950407 C183.96,112.098293 184.289143,110.375935 184.453714,109.523821 C180.430857,108.635447 176.389714,107.765203 172.312,107.14878 C174.634286,111.064878 177.578286,114.527724 180.906286,117.609837 C180.741714,119.277805 180.412571,122.61374 180.248,124.281707 C178.657143,124.589919 177.084571,124.93439 175.493714,125.260732 C176.92,125.351382 179.736,125.496423 181.144,125.568943 L181.729143,130.155854 C179.498286,130.028943 175.054857,129.793252 172.842286,129.684472 C173.372571,128.469756 174.414857,126.040325 174.945143,124.82561 C173.573714,126.076585 172.184,127.309431 170.794286,128.560407 L173.281143,131.715041 C169.002286,128.270325 164.76,129.883902 160.792,132.113902 C162.254857,125.170081 152.234286,129.593821 151.210286,123.483984 C154.556571,121.054553 157.756571,118.425691 160.883429,115.724309 L160.572571,118.534472 C165.070857,118.915203 169.404571,120.111789 173.701714,121.435285 C169.166857,119.005854 164.412571,116.993415 160.042286,114.273902 C156.805714,112.642195 153.075429,112.932276 149.564571,112.569675 C149.436571,111.57252 149.162286,109.578211 149.034286,108.599187 C148.76,113.856911 147.553143,119.005854 145.322286,123.810325 C144.645714,122.432439 143.274286,119.676667 142.597714,118.29878 C144.133714,124.299837 140.549714,129.28561 135.576,132.313333 C135.521143,128.034634 135.594286,123.774065 135.466286,119.513496 C134.588571,125.840894 134.369143,133.074797 127.877714,136.428862 C125.500571,134.978455 123.123429,133.546179 120.746286,132.113902 C119.996571,135.032846 119.283429,137.933659 118.588571,140.870732 C119.466286,140.290569 121.24,139.130244 122.117714,138.568211 C123.635429,139.927967 125.153143,141.305854 126.689143,142.64748 C123.873143,142.393659 121.057143,142.157967 118.222857,141.994797 C118.332571,141.378374 118.552,140.127398 118.661714,139.510976 C117.582857,139.819187 115.425143,140.41748 114.346286,140.725691 C116.101714,143.735285 117.930286,146.708618 119.758857,149.681951 C117.564571,149.573171 115.388571,149.44626 113.194286,149.31935 C113.249143,147.887073 113.340571,145.00439 113.395429,143.572114 C112.243429,144.514878 109.957714,146.418537 108.824,147.379431 C109.189714,146.436667 109.902857,144.551138 110.268571,143.590244 C109.738286,142.520569 108.659429,140.363089 108.129143,139.293415 C111.621714,138.133089 115.132571,137.099675 118.643429,136.04813 C114.510857,132.984146 109.902857,138.31439 105.733714,139.184634 C105.88,140.39935 106.044571,141.614065 106.190857,142.82878 C103.813714,144.206667 101.436571,145.602683 99.0777143,147.016829 C103.521143,147.669512 107.982857,148.412846 112.353143,149.536911 C110.286857,149.48252 106.172571,149.41 104.106286,149.35561 C104.033143,150.660976 103.886857,153.271707 103.813714,154.577073 C123.562286,154.323252 143.292571,154.504553 163.022857,154.196341 C163.406857,149.37374 161.706286,144.170407 163.845714,139.619756 C164.595429,139.692276 166.113143,139.819187 166.862857,139.891707 C171.781714,147.12561 163.827429,154.015041 163.699429,161.466504 C156.860571,161.593415 150.369143,163.714634 144.042286,166.071545 C144.078857,168.174634 144.115429,170.277724 144.170286,172.398943 C141.518857,171.81878 138.904,171.238618 136.289143,170.622195 C138.940571,168.482846 141.592,166.343496 144.188571,164.113496 C150.113143,162.046667 156.037714,159.435935 162.492571,159.907317 C162.492571,158.765122 162.510857,156.498862 162.510857,155.374797 C143.164571,155.864309 123.818286,155.664878 104.472,155.501707 C104.508571,166.561057 105.112,177.602276 104.892571,188.661626 C103.832,188.842927 101.710857,189.223659 100.650286,189.404959 C102.625143,189.47748 104.618286,189.53187 106.593143,189.58626 C106.593143,190.420244 106.574857,192.124472 106.574857,192.976585 C104.362286,193.810569 102.149714,194.662683 99.9554286,195.532927 C105.697143,195.768618 111.384,196.656992 116.723429,198.814472 C117.016,199.412764 117.619429,200.64561 117.912,201.243902 C119.466286,201.606504 122.574857,202.313577 124.129143,202.676179 L124.348571,199.775366 C128.371429,200.373659 132.248,201.606504 136.014857,203.093171 C140.147429,201.950976 144.408,201.497724 148.686857,201.697154 C142.177143,204.180976 135.374857,205.830813 128.444571,206.646667 C129.578286,205.667642 131.845714,203.727724 132.979429,202.748699 C126.305143,204.452927 119.448,204.398537 112.627429,204.743008 C112.956571,203.981545 113.578286,202.440488 113.907429,201.679024 C112.554286,201.370813 109.866286,200.73626 108.531429,200.428049 C106.593143,199.503415 104.673143,198.56065 102.734857,197.654146 C101.930286,197.146504 100.321143,196.14935 99.4982857,195.641707 C96.4994286,195.043415 93.5554286,194.209431 90.5017143,193.90122 C85.2537143,193.574878 80.6274286,196.965203 75.4342857,196.947073 C71.3931429,196.403171 67.4617143,195.333496 63.4022857,194.898374 C63.6582857,194.191301 64.152,192.759024 64.408,192.051951 C60.1657143,191.562439 55.9051429,191.272358 51.6445714,191.435528 C51.2971429,192.414553 50.6022857,194.354472 50.2731429,195.315366 C64.0605714,205.14187 79.4022857,212.901545 96.0788571,216.527561 C95.4571429,219.736585 91.0502857,219.029512 88.6365714,218.793821 C74.9222857,215.566667 62.3051429,208.677236 51.0777143,200.391789 C45.8114286,196.511951 41.3131429,191.471789 35.0411429,189.187398 C36.8514286,188.371545 38.6617143,187.537561 40.4537143,186.703577 C36.1748571,186.957398 31.896,187.138699 27.6354286,187.26561 C29.9577143,185.833333 32.4994286,184.836179 35.1142857,184.020325 C32.7005714,183.258862 30.3234286,182.370488 28.0925714,181.173902 C32.2434286,180.176748 36.504,179.904797 40.7462857,180.376179 C39.7954286,181.572764 37.9302857,183.984065 36.9977143,185.19878 C38.7165714,185.307561 42.1725714,185.506992 43.8914286,185.615772 C44.5497143,182.606179 45.1897143,179.596585 45.7931429,176.586992 C46.4331429,177.366585 47.6948571,178.925772 48.3165714,179.705366 C49.4137143,177.910488 50.4925714,176.11561 51.5714286,174.320732 C52.4857143,174.556423 54.3142857,175.009675 55.2285714,175.227236 C55.064,177.384715 54.9177143,179.542195 54.7714286,181.699675 C50.5291429,183.657724 46.3782857,185.797073 42.1725714,187.809512 C48.6822857,191.997561 57.2765714,188.045203 64.4994286,190.674065 L64.3714286,193.647398 C70.4788571,193.049106 76.7691429,191.943171 82.7485714,193.93748 C87.064,192.505203 91.6354286,191.072927 95.7314286,193.99187 C97.6148571,192.740894 99.48,191.453659 101.345143,190.166423 C96.8102857,190.021382 92.2571429,190.112033 87.7222857,189.767561 C90.2457143,189.151138 92.7691429,188.625366 95.3108571,188.190244 C95.1645714,180.775041 95.0365714,173.359837 94.8902857,165.944634 C89.9531429,166.307236 83.9005714,164.98374 80.3714286,169.42561 C74.776,175.988699 66.84,179.777886 58.8857143,182.76935 C61.0617143,178.853252 64.9382857,176.659512 68.6685714,174.483902 C73.8617143,169.262439 80.0605714,165.07439 84.3028571,158.982683 C88.2708571,156.371951 92.5497143,154.232602 96.536,151.62187 C92.7508571,150.552195 88.984,149.536911 85.1622857,148.612276 C86.3508571,149.192439 88.7097143,150.370894 89.8982857,150.951057 C86.2228571,154.740244 83.0045714,159.127724 78.1405714,161.539024 C78.6342857,156.390081 79.9508571,151.331789 82.6937143,146.889919 C81.7245714,146.744878 79.7862857,146.454797 78.8171429,146.309756 C85.4548571,147.488211 87.3382857,139.347805 93.5371429,138.24187 C93.5005714,136.428862 93.464,134.615854 93.4091429,132.802846 C96.1337143,133.129187 98.8582857,133.437398 101.601143,133.70935 C101.272,131.098618 101.016,128.469756 100.796571,125.840894 C101.875429,128.868618 102.405714,132.041382 102.734857,135.232276 C105.825143,134.652114 108.897143,134.017561 111.969143,133.437398 C111.694857,132.603415 111.128,130.953577 110.853714,130.137724 C114.309714,132.349593 116.997714,129.684472 119.667429,127.853333 C118.588571,126.566098 118.442286,124.027886 116.412571,123.882846 C115.736,124.390488 114.382857,125.405772 113.724571,125.913415 C113.139429,123.919106 114.254857,122.359919 115.790857,121.181463 C117.016,118.461951 117.619429,115.561138 117.582857,112.497154 C112.115429,114.817805 107.452571,118.443821 102.771429,122.033577 C103.777143,121.036423 105.752,119.060244 106.739429,118.063089 L104.234286,114.709024 C102.771429,115.85122 101.308571,116.993415 99.8457143,118.15374 C99.992,120.075528 100.12,122.015447 100.266286,123.937236 C95.2194286,127.436341 89.4594286,130.373415 86.1314286,135.739919 C83.992,139.003333 81.048,141.632195 77.3725714,143.064472 C76.312,145.330732 75.288,147.615122 74.3371429,149.935772 C71.9417143,152.383333 69.4,154.667724 66.7485714,156.861463 C60.1657143,155.719268 53.4731429,155.809919 46.8537143,155.048455 C46.616,154.468293 46.1588571,153.326098 45.9211429,152.745935 C45.5554286,152.709675 44.824,152.655285 44.4582857,152.619024 C41.2948571,158.23935 39.192,164.874959 32.9748571,167.957073 C29.2628571,167.884553 25.5691429,167.757642 21.8754286,167.34065 C23.8685714,166.452276 27.8548571,164.657398 29.848,163.769024 C25.6605714,162.88065 21.0891429,162.300488 18.328,158.547561 C21.9668571,159.037073 26.392,163.805285 29.5188571,159.707886 C30.3782857,160.831951 31.2194286,161.956016 32.0788571,163.080081 C38.5885714,161.194553 44.4765714,155.320407 44.0377143,148.249675 C39.9965714,139.184634 28.2388571,135.032846 19.1874286,138.967073 C12.0194286,143.100732 12.2388571,151.911951 11.7268571,159.037073 C9.33142857,154.323252 10.4102857,149.047398 11.1782857,144.097886 C7.72228571,137.770488 6.88114286,130.518455 6.09485714,123.483984 C3.00457143,96.995935 10.1908571,69.565122 25.8617143,47.8996748 C27.4891429,46.2498374 30.1771429,46.4492683 32.152,45.488374 C25.4777143,55.4599187 17.688,65.105122 15.4754286,77.2160163 C39.0274286,74.1882927 62.9817143,74.1882927 86.5337143,77.2341463 L86.1314286,74.0613821 C80.0422857,74.0069919 73.9165714,74.0613821 67.864,73.2273984 C74.4834286,73.7713008 83.9371429,70.0365041 88.6182857,76.1644715 C91.0137143,75.0041463 93.6285714,74.0069919 95.2925714,71.8313821 C103.173714,63.0926829 109.994286,53.3930894 118.515429,45.2345528 C112.481143,56.2213821 102.826286,64.7062602 95.7131429,74.9678862 C97.304,75.0766667 100.485714,75.2760976 102.076571,75.384878 L101.893714,77.3066667 C106.904,76.8715447 111.932571,76.4001626 116.979429,76.6902439 C111.969143,77.6692683 106.849143,77.9593496 101.802286,78.7570732 C112.554286,80.1530894 123.16,82.5281301 133.930286,83.9060163 C135.064,83.9966667 139.086857,82.8000813 136.344,81.6941463 C129.980571,80.062439 123.269714,80.2981301 116.961143,78.3763415 C126.286857,78.3219512 135.630857,79.6454472 144.572571,82.2199187 C146.181714,74.9134959 149.326857,68.024065 154.282286,62.3493496 C153.093714,62.2405691 150.68,62.0230081 149.473143,61.9142276 C150.131429,55.7862602 153.386286,50.619187 157.829714,46.4492683 C150.972571,45.1982927 151.795429,37.0941463 149.180571,32.1990244 C148.449143,36.5139837 148.211429,40.8833333 148.12,45.2526829 C147.315429,45.3070732 145.688,45.3977236 144.865143,45.4521138 C145.340571,35.1542276 143.804571,24.4937398 145.669714,14.4496748 C150.661714,15.0117073 147.260571,22.3 148.284571,25.7447154 C149.985143,22.0099187 151.667429,18.275122 153.313143,14.504065 C154.428571,14.504065 156.659429,14.4678049 157.774857,14.4496748 C155.781714,18.6558537 153.477714,22.7895122 152.307429,27.3220325 C153.459429,33.7582114 156.293714,39.7411382 158.451429,45.8872358 C161.523429,43.8929268 164.558857,41.8442276 167.100571,39.1791057 C171.452571,39.0521951 175.822857,38.9615447 180.193143,38.7621138 C180.577143,41.7354472 180.888,44.7087805 181.162286,47.6821138 C178.584,49.2231707 175.987429,50.7279675 173.354286,52.1965041 C173.390857,53.3749593 173.464,55.75 173.500571,56.9465854 C169.441143,55.2786179 170.52,50.8730081 169.733714,47.5914634 C167.155429,48.624878 164.577143,49.6945528 162.035429,50.8004878 C161.304,50.9636585 159.859429,51.29 159.146286,51.4531707 C159.073143,54.1001626 158.981714,56.7652846 158.872,59.4122764 C155.086857,64.5793496 150.826286,69.5288618 148.357714,75.5299187 C150.972571,74.8591057 153.587429,74.1520325 156.184,73.4268293 C155.982857,73.7713008 155.617143,74.4602439 155.416,74.7865854 C153.093714,75.4211382 150.789714,76.0919512 148.485714,76.7808943 C147.973714,78.7752033 147.443429,80.7876423 146.913143,82.7819512 C145.596571,82.9813821 142.981714,83.3621138 141.683429,83.5615447 C138.062857,83.5978049 142.872,89.9070732 145.011429,85.845935 C144.462857,87.4595122 143.329143,90.7047967 142.762286,92.3365041 C144.28,91.9920325 147.315429,91.3212195 148.833143,90.976748 C145.870857,92.7897561 142.926857,94.6208943 139.982857,96.4701626 C140.586286,94.4395935 141.171429,92.4090244 141.774857,90.3965854 C128.92,86.6436585 115.169143,87.6952033 102.625143,92.0645528 C102.533714,92.9710569 102.350857,94.784065 102.259429,95.6905691 C99.6811429,98.9358537 97.2308571,102.289919 95.1645714,105.879675 C96.5542857,108.798618 97.4685714,111.880732 97.8708571,115.107886 C98.7668571,114.273902 99.6628571,113.458049 100.558857,112.642195 C101.491429,112.968537 103.374857,113.65748 104.307429,113.983821 C109.08,112.297724 114.126857,111.681301 119.155429,111.282439 C113.486857,105.408293 104.197714,107.946504 96.9748571,105.299512 C99.096,100.984553 102.552,97.666748 106.776,95.3823577 C110.36,94.4214634 113.852571,93.2430081 117.326857,91.9920325 C121.898286,93.7869106 126.707429,93.8050407 130.931429,91.1943089 C129.742857,92.0101626 127.365714,93.6418699 126.177143,94.4577236 C128.700571,97.2497561 131.370286,99.914878 134.478857,102.072358 C135.228571,99.8242276 136.014857,97.5942276 136.819429,95.3823577 C136.874286,98.7001626 136.837714,102.036098 136.728,105.353902 C139.434286,102.308049 142.213714,99.3347154 145.358857,96.7239837 C144.554286,98.1381301 142.963429,100.966423 142.177143,102.380569 C145.907429,100.640081 149.491429,98.6457724 152.984,96.5064228 C153.697143,97.5579675 155.086857,99.6973171 155.8,100.766992 C155.470857,98.3738211 155.123429,95.9987805 154.757714,93.6237398 C162.035429,93.7143902 160.225143,85.2476423 161.944,80.4431707 C167.996571,82.6369106 161.176,86.2085366 161.724571,90.0521138 C173.939429,94.1313821 186.337143,97.8117886 198.661714,101.582846 C198.698286,102.58 198.789714,104.592439 198.826286,105.589593 C202.538286,96.7602439 213.875429,97.0865854 220.586286,91.4118699 C221.683429,88.5473171 223.018286,85.7552846 224.645714,83.1264228 C223.713143,82.2561789 222.780571,81.404065 221.848,80.5519512 C210.181714,84.8850407 198.753143,89.9252033 186.885714,93.66 C179.004571,93.7143902 171.525714,90.3421951 164.12,87.9852846 C172.824,87.4776423 180.888,95.0378862 189.555429,91.43 C200.929143,87.187561 212.266286,82.8907317 223.603429,78.5576423 C212.924571,45.035122 184.6,18.3839024 150.753143,8.41235772 C149.235429,9.71772358 147.754286,11.0774797 146.126857,12.2378049 C146.108571,11.0412195 146.072,8.66617886 146.053714,7.4695935 C131.022857,2.97333333 114.986286,3.6804065 99.5714286,5.58406504 C88.4537143,6.88943089 78.5062857,13.5431707 67.0411429,12.5641463 C76.2205714,6.30926829 87.1371429,3.89796748 97.7245714,1.1603252 L100.467429,0 Z M168.362286,43.4215447 C170.172571,45.3252033 171.708571,45.2345528 172.988571,43.1495935 C171.196571,41.1915447 169.660571,41.2821951 168.362286,43.4215447 Z M153.112,57.0734959 C154.172571,58.3244715 154.172571,58.3244715 153.112,57.0734959 Z M91.7634286,77.1978862 C94.6342857,78.2131707 98.2365714,79.3553659 101.162286,78.0318699 C99.9188571,75.6386992 92.9702857,75.2760976 91.7634286,77.1978862 Z M27.3245714,81.6760163 C27.0868571,97.9749593 27.3611429,114.273902 27.1417143,130.572846 C27.288,132.240813 26.7211429,133.654959 25.4777143,134.797154 C24.9291429,117.337886 25.2948571,99.8423577 25.4777143,82.3649593 C21.4365714,83.3802439 17.4137143,84.4499187 13.3725714,85.4833333 C11.5074286,92.554065 9.86171429,99.7879675 9.93485714,107.13065 C11.8182857,117.464797 17.0662857,126.874309 19.2788571,137.135935 C23.96,136.338211 28.7691429,135.576748 33.4685714,136.882114 C32.2617143,130.754146 35.48,125.079431 36.9245714,119.295935 C41.1485714,106.387317 44.7142857,93.2611382 48.9382857,80.3343902 C41.6971429,80.0080488 34.4925714,80.6788618 27.3245714,81.6760163 Z M50.3462857,80.7695122 C46.0125714,100.25935 37.2902857,118.679512 33.9988571,138.36878 C35.5531429,138.33252 38.6434286,138.27813 40.1794286,138.24187 C53.6377143,121.326504 68.1382857,105.245122 81.688,88.4022764 C71.7771429,84.2142276 61.2811429,80.5882114 50.3462857,80.7695122 Z M44.9885714,134.924065 C43.3428571,136.827724 41.9348571,138.930813 41.4594286,141.469024 C42.4468571,142.303008 44.4034286,143.989106 45.3725714,144.823089 C61.2445714,138.640732 77.2628571,132.820976 93.3542857,127.20065 C93.0617143,116.123171 93.4457143,105.027561 92.6777143,93.9863415 C90.3188571,91.2668293 86.4971429,90.5960163 83.3337143,89.1637398 C70.8994286,104.70122 57.8068571,119.712927 44.9885714,134.924065 Z M160.810286,94.8203252 C160.773714,97.4310569 158.030857,100.567561 160.152,103.015122 C163.516571,101.945447 163.534857,96.6695935 160.810286,94.8203252 Z M166.771429,97.3041463 L168.837714,100.658211 C167.996571,101.274634 166.296,102.50748 165.454857,103.123902 C166.771429,102.888211 169.422857,102.416829 170.757714,102.181138 C173.134857,108.127805 181.180571,105.934065 185.88,108.617317 C188.147429,109.995203 190.506286,111.228049 193.048,112.080163 C194.712,110.249024 196.376,108.417886 198.021714,106.568618 C188.842286,104.610569 180.211429,99.2621951 170.611429,100.132439 C170.300571,99.5522764 169.715429,98.4100813 169.422857,97.8480488 L166.771429,97.3041463 Z M151.192,101.818537 C152.252571,102.870081 152.252571,102.870081 151.192,101.818537 Z M13.7748571,141.160813 C15,140.344959 17.4502857,138.713252 18.6571429,137.897398 C15.2194286,130.881057 12.9702857,123.375203 10.9771429,115.85122 C9.112,124.299837 12.1657143,132.875366 13.7748571,141.160813 Z M44.9885714,146.617967 C45.4457143,147.488211 46.3417143,149.192439 46.7805714,150.062683 L47.6034286,151.077967 C47.8411429,151.821301 48.3348571,153.289837 48.5908571,154.033171 C54.552,154.250732 60.568,155.519837 66.5108571,154.450163 C68.7965714,152.999756 70.8445714,151.204878 72.9474286,149.50065 C72.8377143,144.768699 76.9337143,141.777236 80.792,139.946098 C83.1874286,137.353496 85.8388571,134.779024 86.9542857,131.334309 C72.9474286,136.410732 58.9405714,141.414634 44.9885714,146.617967 Z" id="Shape"></path>
                <path d="M0.828571429,27.0319512 C0.334857143,21.6835772 -0.104,13.3437398 7.68571429,14.050813 C9.53257143,17.0966667 14.6708571,24.9107317 8.67314286,25.8172358 C8.27085714,22.4994309 7.88685714,18.8734146 4.35771429,17.386748 C3.224,20.2331707 2.80342857,23.2427642 3.02285714,26.2886179 C5.45485714,27.2495122 7.88685714,28.2466667 10.3188571,29.2438211 C12.9154286,34.6828455 12.2937143,41.2096748 8.216,45.7784553 C1.23085714,46.7030894 -0.122285714,39.7411382 0.828571429,34.4471545 L2.30971429,34.4471545 C2.85828571,36.9491057 3.33371429,39.5417073 4.65028571,41.7898374 C9.64228571,42.3337398 8.43542857,36.4595935 8.216,33.3230894 C5.34514286,31.9089431 -0.158857143,31.5644715 0.828571429,27.0319512 Z" id="Shape"></path>
                <path d="M17.4685714,14.5403252 C18.8217143,14.504065 21.5462857,14.4134146 22.9177143,14.3590244 C29.2811429,23.2790244 29.1897143,36.4958537 22.9908571,45.4702439 C21.6011429,45.4339837 18.8217143,45.3433333 17.432,45.3070732 C11.0868571,36.6590244 10.9405714,23.1158537 17.4685714,14.5403252 Z M19.4068571,18.0394309 C14.9634286,22.8439024 15.768,30.1684553 16.536,36.1513821 C17.048,38.3269919 17.9074286,42.152439 20.8331429,41.699187 C25.1668571,37.4386179 24.6548571,30.6035772 24.1245714,25.0557724 C23.5394286,22.3725203 22.9177143,18.1663415 19.4068571,18.0394309 Z" id="Shape"></path>
                <path d="M29.1165714,14.4678049 C32.4262857,14.485935 35.736,14.485935 39.0457143,14.5403252 C40.6914286,17.8762602 41.8434286,21.5022764 41.0571429,25.2552033 C39.8685714,32.1265041 41.4777143,39.034065 41.2765714,45.941626 C35.0045714,45.1620325 38.4605714,37.021626 37.1988571,32.7247967 C35.9737143,32.7429268 33.5234286,32.7610569 32.2982857,32.7610569 C31.2925714,37.0578862 35.1874286,45.035122 29.1531429,46.159187 C29.0068571,35.6074797 29.0982857,25.0376423 29.1165714,14.4678049 Z M32.3165714,18.1844715 C32.3348571,21.7742276 32.3348571,25.3821138 32.3165714,28.9718699 C33.6148571,28.9718699 36.1931429,28.9537398 37.4914286,28.9356098 C38.0765714,25.3821138 38.1131429,21.7560976 37.5097143,18.1844715 C36.2114286,18.1844715 33.6148571,18.1844715 32.3165714,18.1844715 Z" id="Shape"></path>
                <path d="M42.1177143,14.4678049 C47.9142857,14.2865041 53.7108571,14.8847967 59.5074286,14.5221951 C59.4525714,23.5147154 59.5257143,32.5072358 59.4342857,41.4997561 C62.0674286,42.0980488 69.8571429,40.2306504 66.3828571,44.9626016 C65.0297143,45.1257724 62.3417143,45.4702439 60.9885714,45.6515447 C60.1108571,55.1154472 53.7108571,63.564065 54.6617143,73.1911382 C48.1702857,71.795122 41.5142857,72.465935 34.9862857,71.5231707 C40.5817143,70.8886179 46.232,71.3237398 51.864,71.3056098 C54.1497143,62.5669106 56.8011429,53.9188618 60.0011429,45.4521138 C59.0137143,45.3977236 57.0205714,45.2526829 56.0148571,45.1801626 C56.1794286,35.7706504 55.9234286,26.3611382 56.1977143,16.951626 C54.7165714,17.3686179 51.7542857,18.2207317 50.2548571,18.6377236 C50.4194286,27.5758537 50.3097143,36.5139837 50.3462857,45.4521138 C49.4137143,45.4158537 47.5668571,45.3433333 46.6525714,45.2889431 C46.6708571,36.3689431 46.7074286,27.430813 46.5794286,18.4926829 C43.5074286,18.8008943 42.008,17.4592683 42.1177143,14.4678049 Z" id="Shape"></path>
                <path d="M72.3074286,14.1777236 C73.2217143,14.268374 75.0502857,14.4496748 75.9828571,14.5221951 C78.0491429,24.8926016 79.4388571,35.3899187 81.1028571,45.8147154 C74.2457143,47.1019512 79.2742857,35.8431707 72.0331429,37.8737398 C71.0091429,39.8499187 71.2468571,47.2469919 68.5405714,45.0713821 C68.3211429,44.3643089 67.8457143,42.9320325 67.6262857,42.2249593 C68.76,32.8335772 70.3325714,23.4421951 72.3074286,14.1777236 Z" id="Shape"></path>
                <path d="M82.712,14.050813 C89.0388571,14.0326829 87.0274286,22.5356911 89.4411429,26.542439 C88.6182857,27.9928455 87.7771429,29.425122 86.936,30.8573984 C86.5885714,29.4613821 85.8937143,26.6874797 85.5462857,25.3095935 C85.912,31.9633333 86.0217143,38.6533333 85.9668571,45.3252033 L82.6571429,45.3795935 C82.7302857,34.9366667 82.6388571,24.4937398 82.712,14.050813 Z" id="Shape"></path>
                <path d="M91.544,14.504065 L94.7805714,14.504065 C94.7622857,24.983252 94.8902857,35.462439 94.744,45.941626 C89.3131429,45.9778862 90.2274286,39.8317886 88.7645714,36.2420325 C87.1005714,33.5587805 89.1485714,31.002439 90.0994286,28.5911382 L91.5988571,34.4108943 C91.6171429,27.7752846 91.5257143,21.1396748 91.544,14.504065 Z" id="Shape"></path>
                <path d="M96.7188571,14.5221951 C99.6262857,14.504065 102.515429,14.4496748 105.422857,14.3771545 C111.237714,23.405935 110.835429,36.3326829 105.313143,45.4158537 C102.460571,45.3795935 99.608,45.3252033 96.7554286,45.3070732 C96.7371429,35.0454472 96.7554286,24.7838211 96.7188571,14.5221951 Z M99.9737143,18.1119512 C100.028571,26.0529268 99.992,33.9939024 99.992,41.934878 C102.332571,41.4997561 105.386286,41.481626 105.112,38.2363415 C106.556571,31.7457724 106.117714,24.965122 104.746286,18.4926829 C103.557714,18.4020325 101.162286,18.2026016 99.9737143,18.1119512 Z" id="Shape"></path>
                <path d="M115.809143,14.504065 C116.741714,14.504065 118.606857,14.504065 119.539429,14.504065 C120.490286,21.7198374 121.349714,28.9356098 122.538286,36.115122 C123.342857,28.8993496 124.348571,21.7017073 125.262857,14.504065 C126.213714,14.504065 128.078857,14.504065 129.029714,14.504065 C127.310857,24.1311382 125.884571,33.8126016 124.366857,43.4578049 C124.878857,46.2498374 119.813714,46.0504065 120.270857,43.5121951 C118.826286,33.8307317 117.198857,24.1855285 115.809143,14.504065 Z" id="Shape"></path>
                <path d="M130.291429,14.485935 C133.509714,14.485935 136.709714,14.504065 139.909714,14.5221951 C142.323429,18.8371545 142.506286,23.8047967 141.043429,28.4642276 C142.579429,33.1599187 143.475429,38.3269919 141.208,42.9682927 C139.196571,47.0656911 133.820571,44.7450407 130.218286,45.3977236 C130.273143,35.0998374 130.145143,24.7838211 130.291429,14.485935 Z M133.454857,18.2388618 C133.454857,21.2121951 133.418286,24.1673984 133.4,27.1226016 C140.787429,30.2047154 140.805714,15.0842276 133.454857,18.2388618 Z M133.381714,30.9117886 C133.436571,34.4834146 133.454857,38.0550407 133.454857,41.6266667 C141.153143,44.4912195 141.244571,27.8478049 133.381714,30.9117886 Z" id="Shape"></path>
                <path d="M166.533714,57.2004065 C168.618286,57.0009756 170.702857,56.8196748 172.787429,56.638374 C170.721143,61.0621138 166.899429,66.7912195 169.88,71.577561 C169.221714,73.6806504 168.563429,75.7837398 167.905143,77.8868293 C163.516571,76.0738211 163.553143,69.4019512 166.094857,66.1204065 C166.222857,63.1470732 166.387429,60.1737398 166.533714,57.2004065 Z" id="Shape"></path>
                <path d="M162.273143,72.9373171 C165.034286,73.2817886 163.114286,77.5604878 161.139429,77.7961789 C158.122286,77.5060976 160.206857,73.136748 162.273143,72.9373171 Z" id="Shape"></path>
                <path d="" id="Shape"></path>
                <path d="M232.417143,81.6578862 C233.258286,81.2771545 234.922286,80.5338211 235.763429,80.1530894 C238.542857,83.4346341 231.338286,86.6617886 232.417143,81.6578862 Z" id="Shape"></path>
                <path d="M225.212571,90.3603252 C228.284571,89.0912195 231.374857,87.8221138 234.629714,87.1150407 C234.300571,88.8736585 233.971429,90.6504065 233.624,92.4271545 C234.940571,92.8260163 237.537143,93.6418699 238.835429,94.0588618 C237.884571,95.001626 236.001143,96.9052846 235.050286,97.8661789 C232.947429,94.0226016 229.180571,91.9013821 225.212571,90.3603252 Z" id="Shape"></path>
                <path d="" id="Shape"></path>
                <path d="M244.668571,92.554065 C247.502857,95.6543089 250.556571,98.555122 253.573714,101.492195 C251.836571,102.68878 250.117714,103.885366 248.417143,105.100081 C248.673143,107.11252 248.545143,109.16122 247.064,110.756667 C246.405714,109.922683 245.089143,108.290976 244.430857,107.475122 C243.754286,107.765203 242.382857,108.363496 241.706286,108.671707 C241.614857,103.830976 236.403429,103.142033 232.856,101.872927 C234.867429,96.6695935 241.651429,97.1409756 244.668571,92.554065 Z" id="Shape"></path>
                <path d="M218.428571,97.2860163 C218.940571,98.2469106 219.928,100.186829 220.44,101.147724 C222.104,97.666748 225.834286,98.8270732 228.942857,98.7726829 C228.248,100.168699 227.571429,101.564715 226.913143,102.960732 C225.340571,103.613415 223.768,104.266098 222.195429,104.91878 C221.518857,106.786179 220.860571,108.671707 220.184,110.557236 C223.146286,111.59065 226.072,112.714715 228.942857,113.983821 C229.070857,110.285285 229.564571,106.623008 230.149714,102.996992 C235.489143,104.066667 233.130286,110.466585 233.843429,114.273902 L232.746286,115.833089 C233.953143,141.396504 221.756571,165.527642 205.098286,184.328537 C186.337143,206.592276 158.213714,220.80626 129.011429,222.709919 C117.125714,223.09065 105.148571,222.94561 93.4822857,220.407398 C97.4502857,217.325285 102.277714,216.092439 107.269714,216.581951 C101.381714,213.336667 93.5188571,216.491301 88.4171429,212.412033 C90.3554286,212.466423 94.2137143,212.575203 96.152,212.647724 C96.2251429,211.88626 96.3531429,210.399593 96.4262857,209.65626 C94.3782857,209.71065 90.2822857,209.819431 88.2525714,209.873821 C91.7085714,208.078943 95.1462857,205.450081 99.3154286,206.120894 C99.0777143,205.341301 98.6388571,203.745854 98.4194286,202.96626 C100.357714,202.531138 102.277714,202.096016 104.216,201.679024 C105.514286,202.404228 108.129143,203.854634 109.445714,204.579837 C105.715429,207.516911 100.686857,207.661951 96.2617143,208.677236 C102.661714,213.536098 110.469714,206.120894 117.784,209.293659 C115.041143,209.946341 112.28,210.580894 109.518857,211.179187 C106.904,211.251707 104.910857,212.321382 103.521143,214.388211 C107.489143,214.243171 111.457143,214.206911 115.425143,214.370081 C115.297143,215.747967 115.022857,218.54 114.894857,219.936016 C117.070857,216.872033 120.234286,215.621057 123.909714,215.893008 C121.733714,216.980813 119.539429,218.014228 117.308571,219.029512 C133.473143,218.46748 150.570286,216.527561 164.741714,208.278374 C159.932571,208.840407 155.178286,210.580894 150.277714,209.60187 C153.112,208.695366 156.220571,208.223984 158.433143,206.030244 C162.2,205.305041 166.606857,206.229675 169.788571,203.655203 C166.533714,202.549268 159.603429,206.465366 159.64,200.863171 C162.072,200.573089 164.522286,200.283008 166.972571,199.992927 C167.173714,195.406016 162.565714,197.563496 159.694857,197.454715 C160.481143,196.656992 162.053714,195.097805 162.84,194.300081 C160.462857,193.90122 158.104,193.429837 155.745143,192.904065 C158.195429,192.632114 160.664,192.432683 163.114286,192.269512 C162.419429,186.576667 162.675429,180.829431 162.858286,175.100325 C161.304,175.136585 158.213714,175.172846 156.677714,175.209106 C156.147429,173.504878 155.653714,171.78252 155.16,170.078293 C154.428571,170.876016 152.947429,172.489593 152.197714,173.287317 C153.368,174.121301 154.538286,174.973415 155.690286,175.843659 C152.801143,176.07935 149.930286,176.315041 147.041143,176.568862 C147.534857,174.03065 148.814857,172.108862 151.886857,172.253902 C150.881143,170.295854 149.912,168.319675 148.961143,166.361626 C151.228571,167.23187 153.496,168.192764 155.726857,169.189919 C155.525714,168.192764 155.16,166.180325 154.958857,165.183171 C159.164571,165.473252 163.352,165.890244 167.576,165.890244 C167.484571,168.265285 169.477714,169.697561 170.794286,171.383659 C172.750857,167.467561 177.304,166.089675 180.577143,163.478943 C177.834286,168.047724 172.696,170.440894 168.197714,173.015366 C168.435429,177.946748 168.490286,182.86 168.563429,187.791382 L166.277714,189.241789 C167.429714,190.293333 169.733714,192.360163 170.885714,193.393577 C169.422857,193.248537 166.515429,192.940325 165.052571,192.795285 C168.636571,195.551057 172.641143,197.690407 176.92,199.177073 C175.585143,199.158943 172.915429,199.140813 171.580571,199.122683 C171.726857,200.355528 172.019429,202.784959 172.165714,203.999675 C178.693714,202.621789 183.758857,198.161789 189.244571,194.698943 C183.502857,195.913659 177.742857,194.898374 172.293714,192.976585 C176.444571,192.106341 180.741714,192.360163 184.709714,194.02813 C184.142857,192.378293 183.027429,189.096748 182.460571,187.446911 C186.885714,185.760813 191.822857,184.455447 195.662857,188.244634 C205.006857,178.200569 213.345143,167.123089 219.781714,154.994065 C208.938286,155.809919 198.003429,154.939675 187.196571,155.954959 C184.764571,158.475041 179.205714,160.777561 181.326857,154.069431 L178.730286,155.284146 C178.876571,153.398618 179.169143,149.609431 179.315429,147.705772 C178.126857,148.847967 175.731429,151.150488 174.542857,152.292683 C174.908571,151.313659 175.621714,149.31935 175.969143,148.322195 C181.253714,148.521626 180.577143,141.632195 180.869714,138.060569 C182.204571,137.607317 184.892571,136.682683 186.227429,136.211301 C186.209143,137.172195 186.154286,139.093984 186.136,140.054878 C186.392,137.045285 189.025143,135.413577 190.725714,133.292358 C185.020571,133.002276 181.345143,138.386911 175.530286,137.861138 C175.329143,136.10252 174.963429,132.585285 174.762286,130.826667 C177.468571,131.134878 180.156571,131.46122 182.844571,131.805691 C182.789714,125.895285 190.506286,128.904878 194.419429,127.508862 C193.669714,124.89813 192.718857,121.979187 196.942857,122.087967 C196.577143,124.245447 195.845714,128.542276 195.48,130.681626 C200.033143,124.93439 208.206857,123.248293 211.882286,116.884634 C213.016,112.896016 209.56,111.064878 206.945143,109.016179 C208.883429,109.415041 212.741714,110.230894 214.661714,110.629756 C214.350857,108.961789 213.710857,105.625854 213.381714,103.957886 C215.740571,103.976016 218.099429,104.012276 220.458286,104.030407 C219.763429,101.782276 219.086857,99.5341463 218.428571,97.2860163 Z M209.486857,122.178618 C210.145143,123.085122 211.48,124.93439 212.156571,125.840894 L208.572571,121.961057 C206.707429,123.828455 204.842286,125.713984 202.995429,127.599512 C202.849143,129.847642 201.843429,131.58813 199.941714,132.857236 L199.740571,129.24935 C196.558857,131.53374 189.573714,131.261789 191.384,137.226585 C192.92,136.374472 194.456,135.540488 196.010286,134.724634 C195.937143,135.830569 195.827429,138.060569 195.772571,139.166504 C189.500571,135.739919 187.891429,144.097886 188.385143,148.648537 C187.854857,147.760163 186.794286,146.001545 186.264,145.131301 C183.96,148.159024 181.930286,151.458699 181.838857,155.374797 C194.401143,153.507398 207.146286,155.574228 219.708571,153.416748 C219.470857,141.106423 220.714286,128.741707 219.8,116.467642 C216.051429,112.479024 212.613714,120.43813 209.486857,122.178618 Z M225.194286,118.425691 C224.883429,126.312276 224.590857,134.198862 224.846857,142.085447 C228.668571,135.558618 226.565714,127.12813 230.771429,120.691951 C228.924571,119.912358 227.077714,119.150894 225.194286,118.425691 Z M187.854857,187.465041 C188.129143,193.556748 193.267429,184.600488 187.854857,187.465041 Z" id="Shape"></path>
                <path d="" id="Shape"></path>
                <path d="M182.570286,113.875041 C185.075429,116.01439 184.654857,119.622276 185.587429,122.486829 C188.165714,122.106098 189.774857,120.202439 191.457143,118.407561 C192.828571,119.132764 194.163429,119.894228 195.48,120.691951 C192.517714,121.979187 189.610286,123.393333 186.666286,124.698699 C184.398857,121.489675 183.466286,117.627967 182.570286,113.875041 Z" id="Shape"></path>
                <path d="" id="Shape"></path>
                <path d="M106.648,130.609106 C103.722286,130.373415 102.570286,123.483984 106.757714,124.753089 C109.409143,125.587073 108.824,129.593821 106.648,130.609106 Z" id="Shape"></path>
                <path d="" id="Shape"></path>
                <path d="M143.914286,130.101463 C142.853714,127.545122 149.125714,125.514553 149.546286,128.252195 C148.010286,130.065203 146.126857,130.681626 143.914286,130.101463 Z" id="Shape"></path>
                <path d="M157.829714,136.338211 C161.230857,136.338211 164.650286,136.356341 168.051429,136.374472 C161.596571,137.444146 157.043429,142.139837 151.832,145.584553 C152.014857,141.305854 158.140571,141.033902 157.829714,136.338211 Z" id="Shape"></path>
                <path d="" id="Shape"></path>
                <path d="" id="Shape"></path>
                <path d="M74.9588571,156.734553 C75.4342857,155.809919 76.3851429,153.94252 76.8422857,153.017886 C77.1531429,156.371951 77.6834286,159.726016 78.2685714,163.043821 C77.08,163.805285 74.7028571,165.310081 73.5142857,166.053415 C71.1737143,165.310081 68.8331429,164.512358 66.584,163.533333 C69.1988571,161.103902 71.4297143,157.949268 74.9588571,156.734553 Z" id="Shape"></path>
                <path d="M168.179429,156.353821 C170.465143,154.849024 171.745143,155.338537 172.019429,157.840488 C169.715429,159.272764 168.435429,158.783252 168.179429,156.353821 Z" id="Shape"></path>
                <path d="M173.628571,158.43878 C174.597714,158.40252 176.517714,158.31187 177.486857,158.27561 C177.468571,159.163984 177.432,160.958862 177.413714,161.865366 C174.890286,163.750894 172.293714,165.563902 169.459429,166.959919 C169.624,165.980894 169.916571,164.004715 170.081143,163.025691 C171.269714,161.502764 172.458286,159.979837 173.628571,158.43878 Z" id="Shape"></path>
                <path d="M11.8548571,159.018943 C14.0491429,160.52374 15.256,162.89878 16.536,165.12878 C16.2434286,168.011463 16.1337143,170.894146 16.152,173.794959 C16.7554286,172.616504 17.9622857,170.277724 18.5657143,169.099268 C23.0457143,168.936098 26.7942857,171.329268 30.744,172.997236 C37.2902857,173.92187 44.056,172.815935 50.1268571,170.241463 C46.36,175.662358 39.1188571,172.960976 33.5965714,173.813089 C33.4137143,174.882764 33.0662857,177.022114 32.8834286,178.091789 C30.0857143,178.146179 28.2388571,180.285528 26.1542857,181.772195 C24.216,181.391463 20.3577143,180.63 18.4377143,180.231138 C19.5714286,179.034553 21.8388571,176.605122 22.9725714,175.408537 C19.4982857,176.804553 16.0788571,178.32748 12.568,179.650976 C13.8845714,178.34561 16.5177143,175.734878 17.8342857,174.411382 C16.9748571,174.538293 15.2742857,174.773984 14.4331429,174.900894 C13.5188571,173.92187 11.672,171.963821 10.7577143,170.984797 C10.0811429,169.606911 9.42285714,168.247154 8.74628571,166.869268 C10.6662857,167.739512 12.5862857,168.627886 14.5062857,169.51626 C15.128,165.690813 13.3908571,162.373008 11.8548571,159.018943 Z" id="Shape"></path>
                <path d="M64.8834286,163.098211 C67.6262857,164.98374 68.6868571,168.210894 69.8205714,171.166098 C64.7371429,169.878862 59.7268571,172.272033 59.5988571,177.801707 C57.5325714,175.861789 55.448,173.94 53.3451429,172.018211 C56.9657143,168.718537 63.4937143,168.319675 64.8834286,163.098211 Z" id="Shape"></path>
                <path d="" id="Shape"></path>
                <path d="" id="Shape"></path>
                <path d="" id="Shape"></path>
                <path d="" id="Shape"></path>
                <path d="" id="Shape"></path>
                <path d="M12.2754286,181.445854 C14.8537143,181.808455 17.4502857,182.134797 20.0468571,182.316098 C20.6137143,183.041301 21.7474286,184.455447 22.3142857,185.18065 C23.3017143,184.763659 25.2765714,183.929675 26.264,183.512683 C26.6662857,185.434472 26.9222857,187.39252 27.032,189.368699 C22.8445714,186.359106 17.6331429,186.123415 12.7142857,185.670163 C12.6045714,184.618618 12.3851429,182.497398 12.2754286,181.445854 Z" id="Shape"></path>
                <path d="M84.6685714,199.757236 C90.2822857,199.992927 95.9325714,200.011057 101.546286,199.757236 C99.7908571,201.370813 98.0171429,202.98439 96.2617143,204.616098 C92.8605714,201.932846 88.088,201.969106 84.6685714,199.757236 Z" id="Shape"></path>
            </g>
        </g>
    </g>
</svg>