<?xml version="1.0" encoding="UTF-8"?>
<svg width="256px" height="256px" viewBox="0 0 256 256" version="1.1" xmlns="http://www.w3.org/2000/svg" xmlns:xlink="http://www.w3.org/1999/xlink">
    <!-- Generator: Sketch 50.2 (55047) - http://www.bohemiancoding.com/sketch -->
    <title>logo/sotra</title>
    <desc>Created with Sketch.</desc>
    <defs></defs>
    <g id="logo/sotra" stroke="none" stroke-width="1" fill="none" fill-rule="evenodd">
        <circle id="background" fill="#111183" cx="128" cy="128" r="128"></circle>
        <g id="sotra-wip" transform="translate(0.000000, 18.000000)">
            <g id="#fcfcffff" transform="translate(76.000000, 0.000000)" fill="#FCFCFF" fill-rule="nonzero">
                <path d="M37.5306358,20.8103152 C40.3421965,13.7106017 44.8036994,6.08939828 52.5576879,3.80974212 C53.3493642,5.90315186 54.2224277,8.27965616 53.1273988,10.4475645 C49.1764162,18.895702 45.3512139,27.4481375 42.8430058,36.4550143 C41.6221965,41.3197708 43.1685549,46.4527221 41.7849711,51.2876791 C41.126474,53.6567335 39.1879769,55.2808023 37.4936416,56.9123209 C36.5095954,56.6292264 35.5255491,56.3759312 34.5267052,56.1598854 C33.1875145,52.6808023 32.4328324,48.9856734 32.2182659,45.260745 C32.3884393,36.8424069 34.3565318,28.5805158 37.5306358,20.8103152 Z" id="Shape"></path>
                <path d="M29.2069364,10.1048711 C30.7532948,8.8756447 32.7583815,9.88137536 34.4823121,10.0527221 C32.4772254,18.2922636 29.6212717,26.3157593 27.7493642,34.5851003 C27.3942197,41.5581662 27.7123699,48.5908309 26.6543353,55.5191977 C25.766474,57.6126074 23.6504046,58.7375358 21.9782659,60.1232092 C18.1382659,58.0372493 16.9396532,53.3587393 16.5993064,49.3060172 C16.7028902,45.0297994 18.2122543,40.9174785 18.1678613,36.6189112 C18.2714451,29.7277937 22.4295954,24.0063037 24.5900578,17.7111748 C25.5963006,14.9249284 26.6099422,11.8183381 29.2069364,10.1048711 Z" id="Shape"></path>
                <path d="M61.1921387,15.8561605 C59.7715607,12.5037249 64.070289,8.57020057 67.2517919,10.5667622 C71.5949133,12.9581662 76.1895954,14.8876791 80.4291329,17.4578797 C84.9646243,20.8252149 89.2189595,24.9151862 91.7641618,30.0555874 C89.8034682,30.7037249 87.6282081,31.1209169 85.830289,29.8022923 C80.0591908,26.1518625 74.6728324,21.7340974 68.2062428,19.3426934 C65.8460116,18.269914 62.982659,17.8676218 61.1921387,15.8561605 Z" id="Shape"></path>
                <path d="M10.6802312,22.1438395 C11.4719075,21.4733524 12.5669364,21.5851003 13.5213873,21.3839542 C13.4178035,24.6097421 13.1366474,27.8280802 12.6113295,31.0091691 C12.0860116,34.1232092 10.5766474,36.9318052 9.75537572,39.956447 C7.90566474,47.6148997 10.7764162,55.817192 8.0166474,63.3117479 C4.34682081,62.7008596 0.743583815,60.026361 1.0099422,55.9140401 C1.25410405,48.2406877 -0.203468208,40.1277937 2.96323699,32.8641834 C4.70196532,28.7891117 7.18797688,24.9151862 10.6802312,22.1438395 Z" id="Shape"></path>
                <path d="M54.5849711,24.8704871 C58.9132948,24.1925501 63.6781503,23.5816619 67.6957225,25.7942693 C71.3507514,27.8131805 75.0871676,29.6681948 78.6978035,31.7616046 C83.3220809,34.3988539 86.7403468,38.5856734 90.6469364,42.1169054 C93.036763,44.3965616 95.6855491,46.5868195 97.209711,49.5891117 C98.6968786,52.695702 97.8090173,56.234384 96.9359538,59.3782235 C92.6890173,57.2624642 88.9304046,54.2750716 85.8672832,50.6395415 C81.9089017,46.1398281 76.9590751,42.7054441 72.4235838,38.8315186 C67.6587283,34.9203438 61.7988439,32.8790831 56.2349133,30.4653295 C54.0744509,29.5489971 54.4813873,26.7702006 54.5849711,24.8704871 Z" id="Shape"></path>
                <path d="M50.3528324,40.4108883 C52.6760694,39.7255014 55.1916763,39.5616046 57.4631214,40.5375358 C63.7965318,43.1375358 70.0781503,46.2888252 75.1019653,51.0641834 C80.5919075,56.2045845 86.4591908,61.1661891 90.4841618,67.6326648 C92.4596532,70.5902579 92.7334104,74.6429799 91.187052,77.8389685 C90.2473988,80.0962751 87.3544509,79.7312321 85.4085549,79.4034384 C82.4934104,77.3770774 80.8730636,74.0395415 78.579422,71.3948424 C72.7639306,64.4068768 67.0964162,56.8750716 59.1130636,52.2487106 C56.4272832,50.565043 53.497341,49.0378223 51.5514451,46.4527221 C50.1752601,44.7541547 50.5673988,42.4372493 50.3528324,40.4108883 Z" id="Shape"></path>
                <path d="M46.9715607,59.3931232 C48.8656647,58.7598854 50.7745665,57.7243553 52.8240462,57.9180516 C54.8587283,58.7002865 55.443237,61.0916905 55.1028902,63.0659026 C51.270289,66.5375358 45.9653179,67.4836676 41.3928324,69.6068768 C37.1606936,71.6630372 32.4920231,72.4080229 28.0823121,73.9426934 C22.0004624,76.2 15.2749133,76.1553009 8.95630058,75.1346705 C6.4332948,74.9409742 6.09294798,72.0280802 5.19768786,70.1730659 C9.94774566,68.7203438 14.8975723,68.191404 19.7364162,67.1335244 C28.9701734,65.1593123 38.1743353,62.8796562 46.9715607,59.3931232 Z" id="Shape"></path>
                <path d="M52.076763,72.4974212 C55.2360694,71.5587393 58.0698266,69.6962751 61.3105202,69.0332378 C64.4328324,69.4131805 66.8892486,72.0727794 68.3986127,74.6876791 C68.3098266,76.512894 67.1852023,78.174212 65.4612717,78.8 C60.8073988,80.7965616 55.9759538,82.3684814 51.129711,83.8137536 C41.8515607,86.2498567 32.6326012,90.0641834 22.8587283,89.1702006 C19.6402312,89.3191977 16.8582659,87.5237822 14.6978035,85.2962751 C20.5798844,82.7186246 26.7209249,80.8338109 32.9285549,79.269341 C39.3359538,77.086533 45.6175723,74.5386819 52.076763,72.4974212 Z" id="Shape"></path>
                <path d="M65.5648555,86.1455587 C68.5095954,85.0876791 71.3211561,83.1954155 74.5174566,83.1432665 C77.203237,83.9925501 78.0836994,87.5610315 76.6631214,89.8704871 C75.1759538,92.7535817 71.7428902,93.4166189 68.9683237,94.4074499 C65.1579191,95.4802292 61.5842775,97.3799427 57.6554913,97.9759312 C52.6686705,98.3931232 47.5930636,98.2664756 42.7320231,97 C49.6795376,92.1426934 57.670289,89.0659026 65.5648555,86.1455587 Z" id="Shape"></path>
            </g>
            <path d="M44.504,134.928 C46.7066777,136.234673 48.778657,137.793324 50.72,139.604 C52.661343,141.414676 53.632,143.70132 53.632,146.464 C53.632,150.421353 52.2040143,153.529322 49.348,155.788 C46.4919857,158.046678 42.8986883,159.176 38.568,159.176 C35.9173201,159.176 33.6493428,158.812004 31.764,158.084 C29.8786572,157.355996 27.7226788,156.768002 25.296,156.32 C25.2586665,154.975993 25.24,153.184011 25.24,150.944 C25.24,148.703989 25.1840006,146.725342 25.072,145.008 C25.072,144.895999 25.2306651,144.793334 25.548,144.7 C25.8653349,144.606666 26.1359989,144.56 26.36,144.56 C26.6213346,144.56 26.8733321,144.597333 27.116,144.672 C27.3586679,144.746667 27.4986665,144.858666 27.536,145.008 C28.2453369,148.330683 29.729322,151.074656 31.988,153.24 C34.246678,155.405344 36.4399894,156.488 38.568,156.488 C40.7333442,156.488 42.2919952,156.012005 43.244,155.06 C44.1960048,154.107995 44.672,152.810675 44.672,151.168 C44.672,149.15199 43.701343,147.45334 41.76,146.072 C39.818657,144.69066 37.7280112,143.346673 35.488,142.04 C33.2106553,140.733327 31.101343,139.184009 29.16,137.392 C27.218657,135.599991 26.248,133.397346 26.248,130.784 C26.248,127.311983 27.5639868,124.390679 30.196,122.02 C32.8280132,119.649321 36.439977,118.464 41.032,118.464 C43.0853436,118.464 44.8586592,118.715997 46.352,119.22 C47.8453408,119.724003 49.4506581,120.143998 51.168,120.48 C51.2053335,121.824007 51.2706662,123.50399 51.364,125.52 C51.4573338,127.53601 51.5786659,129.197327 51.728,130.504 C51.728,130.616001 51.5693349,130.718666 51.252,130.812 C50.9346651,130.905334 50.6826676,130.952 50.496,130.952 C50.2346654,130.952 49.9733346,130.914667 49.712,130.84 C49.4506654,130.765333 49.282667,130.653334 49.208,130.504 C48.4986631,127.591985 47.4533402,125.305342 46.072,123.644 C44.6906598,121.982658 42.9920101,121.152 40.976,121.152 C39.2213246,121.152 37.840005,121.618662 36.832,122.552 C35.823995,123.485338 35.32,124.661326 35.32,126.08 C35.32,127.946676 36.2626572,129.54266 38.148,130.868 C40.0333428,132.19334 42.1519882,133.54666 44.504,134.928 Z M102.968,139.016 C102.968,144.616028 101.054686,149.37598 97.228,153.296 C93.4013142,157.21602 87.9973682,159.176 81.016,159.176 C74.0346318,159.176 68.6213526,157.206686 64.776,153.268 C60.9306474,149.329314 59.008,144.578694 59.008,139.016 C59.008,133.453306 60.9306474,128.637354 64.776,124.568 C68.6213526,120.498646 74.0346318,118.464 81.016,118.464 C87.8480342,118.464 93.2146472,120.470647 97.116,124.484 C101.017353,128.497353 102.968,133.341305 102.968,139.016 Z M91.432,139.016 C91.432,133.863974 90.6853408,129.598684 89.192,126.22 C87.6986592,122.841316 84.9733531,121.152 81.016,121.152 C77.0213134,121.152 74.286674,122.859983 72.812,126.276 C71.337326,129.692017 70.6,133.938641 70.6,139.016 C70.6,144.205359 71.337326,148.414651 72.812,151.644 C74.286674,154.873349 77.0213134,156.488 81.016,156.488 C84.9733531,156.488 87.6986592,154.864016 89.192,151.616 C90.6853408,148.367984 91.432,144.168026 91.432,139.016 Z M147.376,132.464 C147.376,132.650668 147.236001,132.818666 146.956,132.968 C146.675999,133.117334 146.349335,133.192 145.976,133.192 C145.826666,133.192 145.621335,133.164 145.36,133.108 C145.098665,133.052 144.949334,132.986667 144.912,132.912 C144.389331,130.858656 143.14801,128.590679 141.188,126.108 C139.22799,123.625321 137.389342,122.384 135.672,122.384 L134.832,122.384 C133.973329,122.384 133.357335,122.561332 132.984,122.916 C132.610665,123.270668 132.424,123.82133 132.424,124.568 L132.424,151.112 C132.424,152.605341 132.778663,153.706663 133.488,154.416 C134.197337,155.125337 135.634656,155.591999 137.8,155.816 C137.912001,155.816 138.014666,155.974665 138.108,156.292 C138.201334,156.609335 138.248,156.861332 138.248,157.048 C138.248,157.272001 138.201334,157.533332 138.108,157.832 C138.014666,158.130668 137.912001,158.28 137.8,158.28 C136.007991,158.28 134.169343,158.233334 132.284,158.14 C130.398657,158.046666 128.616008,158 126.936,158 C125.218658,158 123.426676,158.046666 121.56,158.14 C119.693324,158.233334 117.845342,158.28 116.016,158.28 C115.903999,158.28 115.801334,158.130668 115.708,157.832 C115.614666,157.533332 115.568,157.272001 115.568,157.048 C115.568,156.861332 115.614666,156.618668 115.708,156.32 C115.801334,156.021332 115.903999,155.853334 116.016,155.816 C118.218678,155.554665 119.66533,155.088003 120.356,154.416 C121.04667,153.743997 121.392,152.642674 121.392,151.112 L121.392,124.568 C121.392,123.746663 121.224002,123.177335 120.888,122.86 C120.551998,122.542665 119.917338,122.384 118.984,122.384 L118.536,122.384 C117.005326,122.384 115.120011,123.531989 112.88,125.828 C110.639989,128.124011 109.053338,130.485321 108.12,132.912 C108.082666,133.024001 107.942668,133.098666 107.7,133.136 C107.457332,133.173334 107.261334,133.192 107.112,133.192 C106.775998,133.192 106.449335,133.117334 106.132,132.968 C105.814665,132.818666 105.656,132.650668 105.656,132.464 C106.029335,130.597324 106.430665,128.31068 106.86,125.604 C107.289335,122.89732 107.597332,120.648009 107.784,118.856 C109.090673,119.080001 111.12532,119.266666 113.888,119.416 C116.65068,119.565334 120.99997,119.64 126.936,119.64 C132.013359,119.64 136.241316,119.565334 139.62,119.416 C142.998684,119.266666 145.229328,119.080001 146.312,118.856 C146.424001,120.648009 146.573332,122.775988 146.76,125.24 C146.946668,127.704012 147.151999,130.111988 147.376,132.464 Z M194.36,157.048 C194.322666,157.272001 194.238667,157.533332 194.108,157.832 C193.977333,158.130668 193.856001,158.28 193.744,158.28 C192.698661,158.28 191.317342,158.233334 189.6,158.14 C187.882658,158.046666 186.70667,158 186.072,158 C185.175996,158 184.000007,158.046666 182.544,158.14 C181.087993,158.233334 179.912004,158.28 179.016,158.28 L171.96,143.944 C171.399997,142.823994 170.728004,142.049335 169.944,141.62 C169.159996,141.190665 168.096007,140.976 166.752,140.976 L166.752,151.112 C166.752,152.605341 167.031997,153.706663 167.592,154.416 C168.152003,155.125337 169.514656,155.591999 171.68,155.816 C171.792001,155.816 171.894666,155.974665 171.988,156.292 C172.081334,156.609335 172.128,156.861332 172.128,157.048 C172.128,157.272001 172.081334,157.533332 171.988,157.832 C171.894666,158.130668 171.792001,158.28 171.68,158.28 C169.850658,158.28 168.077342,158.233334 166.36,158.14 C164.642658,158.046666 162.925342,158 161.208,158 C159.490658,158 157.708009,158.046666 155.86,158.14 C154.011991,158.233334 152.173342,158.28 150.344,158.28 C150.231999,158.28 150.129334,158.140001 150.036,157.86 C149.942666,157.579999 149.896,157.309335 149.896,157.048 C149.896,156.861332 149.942666,156.618668 150.036,156.32 C150.129334,156.021332 150.231999,155.853334 150.344,155.816 C152.509344,155.554665 153.93733,155.088003 154.628,154.416 C155.31867,153.743997 155.664,152.642674 155.664,151.112 L155.664,126.528 C155.664,124.997326 155.31867,123.896003 154.628,123.224 C153.93733,122.551997 152.509344,122.085335 150.344,121.824 C150.231999,121.786666 150.129334,121.618668 150.036,121.32 C149.942666,121.021332 149.896,120.778668 149.896,120.592 C149.896,120.330665 149.942666,120.060001 150.036,119.78 C150.129334,119.499999 150.231999,119.36 150.344,119.36 C152.173342,119.36 154.049324,119.406666 155.972,119.5 C157.894676,119.593334 159.714658,119.64 161.432,119.64 C163.149342,119.64 164.679993,119.593334 166.024,119.5 C167.368007,119.406666 168.954658,119.36 170.784,119.36 C176.83203,119.36 181.199987,120.358657 183.888,122.356 C186.576013,124.353343 187.92,126.695987 187.92,129.384 C187.92,131.922679 187.313339,133.966659 186.1,135.516 C184.886661,137.065341 182.917347,138.250663 180.192,139.072 L187.864,151.896 C188.648004,153.202673 189.450663,154.135997 190.272,154.696 C191.093337,155.256003 192.362658,155.629332 194.08,155.816 C194.192001,155.816 194.276,155.974665 194.332,156.292 C194.388,156.609335 194.397334,156.861332 194.36,157.048 Z M176.384,130.392 C176.384,127.517319 175.861339,125.41734 174.816,124.092 C173.770661,122.76666 172.165344,122.104 170,122.104 C168.655993,122.104 167.778669,122.365331 167.368,122.888 C166.957331,123.410669 166.752,124.325327 166.752,125.632 L166.752,138.288 C166.976001,138.325334 167.302665,138.362666 167.732,138.4 C168.161335,138.437334 168.562665,138.456 168.936,138.456 C171.58668,138.456 173.490661,137.858673 174.648,136.664 C175.805339,135.469327 176.384,133.378682 176.384,130.392 Z M236.696,157.048 C236.696,157.272001 236.649334,157.533332 236.556,157.832 C236.462666,158.130668 236.360001,158.28 236.248,158.28 C234.455991,158.28 232.645342,158.233334 230.816,158.14 C228.986658,158.046666 227.306674,158 225.776,158 C224.058658,158 222.22001,158.046666 220.26,158.14 C218.29999,158.233334 216.405342,158.28 214.576,158.28 C214.463999,158.28 214.361334,158.140001 214.268,157.86 C214.174666,157.579999 214.128,157.309335 214.128,157.048 C214.128,156.861332 214.156,156.618668 214.212,156.32 C214.268,156.021332 214.351999,155.853334 214.464,155.816 C216.256009,155.703999 217.44133,155.470668 218.02,155.116 C218.59867,154.761332 218.888,154.21067 218.888,153.464 C218.888,153.165332 218.822667,152.792002 218.692,152.344 C218.561333,151.895998 218.421334,151.485335 218.272,151.112 L216.76,147.192 L205,147.192 L203.656,150.44 C203.431999,150.962669 203.254667,151.457331 203.124,151.924 C202.993333,152.390669 202.928,152.791998 202.928,153.128 C202.928,153.912004 203.142665,154.537331 203.572,155.004 C204.001335,155.470669 205.186657,155.741333 207.128,155.816 C207.240001,155.816 207.314666,155.974665 207.352,156.292 C207.389334,156.609335 207.408,156.861332 207.408,157.048 C207.408,157.309335 207.361334,157.579999 207.268,157.86 C207.174666,158.140001 207.072001,158.28 206.96,158.28 C205.354659,158.28 204.104004,158.233334 203.208,158.14 C202.311996,158.046666 201.117341,158 199.624,158 C198.391994,158 197.309338,158.046666 196.376,158.14 C195.442662,158.233334 194.34134,158.28 193.072,158.28 C192.959999,158.28 192.866667,158.121335 192.792,157.804 C192.717333,157.486665 192.68,157.234668 192.68,157.048 C192.68,156.861332 192.763999,156.618668 192.932,156.32 C193.100001,156.021332 193.239999,155.853334 193.352,155.816 C194.957341,155.666666 196.207996,155.181337 197.104,154.36 C198.000004,153.538663 198.914662,152.157343 199.848,150.216 L213.736,118.912 C213.773334,118.799999 213.978665,118.697334 214.352,118.604 C214.725335,118.510666 215.079998,118.464 215.416,118.464 C215.752002,118.464 216.106665,118.510666 216.48,118.604 C216.853335,118.697334 217.058666,118.799999 217.096,118.912 L229.528,150.216 C230.200003,152.082676 231.002662,153.435996 231.936,154.276 C232.869338,155.116004 234.269324,155.629332 236.136,155.816 C236.248001,155.816 236.369333,155.974665 236.5,156.292 C236.630667,156.609335 236.696,156.861332 236.696,157.048 Z M215.696,144.504 L210.992,132.184 L206.064,144.504 L215.696,144.504 Z" id="SOTRA" fill="#FFFFFF"></path>
            <path d="M108.488,173.936 C108.456,174.096001 108.384001,174.311999 108.272,174.584 C108.159999,174.856001 108.056,174.992 107.96,174.992 C106.583993,175.088 105.544004,175.519996 104.84,176.288 C104.135996,177.056004 103.416004,178.223992 102.68,179.792 L89.96,206.624 C89.8959997,206.72 89.7520011,206.808 89.528,206.888 C89.3039989,206.968 88.9680022,207.008 88.52,207.008 C88.1039979,207.008 87.7760012,206.968 87.536,206.888 C87.2959988,206.808 87.1440003,206.72 87.08,206.624 L75.608,179.792 C74.8399961,177.999991 74.152003,176.792003 73.544,176.168 C72.9359969,175.543997 71.8800075,175.152001 70.376,174.992 C70.2799995,174.96 70.1840005,174.816001 70.088,174.56 C69.9919995,174.303999 69.944,174.096001 69.944,173.936 C69.944,173.743999 69.9919995,173.520001 70.088,173.264 C70.1840005,173.007999 70.2799995,172.88 70.376,172.88 C71.9120077,172.88 73.4079927,172.92 74.864,173 C76.3200073,173.08 77.7039934,173.12 79.016,173.12 C80.4880073,173.12 82.0319919,173.08 83.648,173 C85.2640081,172.92 86.8559921,172.88 88.424,172.88 C88.5200005,172.88 88.5999997,173.015999 88.664,173.288 C88.7280003,173.560001 88.76,173.775999 88.76,173.936 C88.76,174.096001 88.7280003,174.311999 88.664,174.584 C88.5999997,174.856001 88.5200005,174.992 88.424,174.992 C87.0159929,175.056 86.0240029,175.231999 85.448,175.52 C84.8719971,175.808001 84.5680001,176.303996 84.536,177.008 C84.5039998,177.296001 84.5599993,177.663998 84.704,178.112 C84.8480007,178.560002 84.9519997,178.863999 85.016,179.024 L92.12,195.824 L99.56,179.6 C99.6560005,179.375999 99.7759993,179.008003 99.92,178.496 C100.064001,177.983997 100.136,177.584001 100.136,177.296 C100.104,176.559996 99.9280016,176.016002 99.608,175.664 C99.2879984,175.311998 98.2320089,175.088 96.44,174.992 C96.3439995,174.96 96.2720002,174.816001 96.224,174.56 C96.1759997,174.303999 96.152,174.096001 96.152,173.936 C96.1199998,173.711999 96.1439996,173.480001 96.224,173.24 C96.3040004,172.999999 96.3919995,172.88 96.488,172.88 C97.8640069,172.88 98.9039965,172.92 99.608,173 C100.312004,173.08 101.319993,173.12 102.632,173.12 C103.688005,173.12 104.583996,173.08 105.32,173 C106.056004,172.92 106.983994,172.88 108.104,172.88 C108.2,172.88 108.288,173.007999 108.368,173.264 C108.448,173.520001 108.488,173.743999 108.488,173.936 Z M143.336,196.976 C143.336,199.536013 142.36001,201.719991 140.408,203.528 C138.45599,205.336009 134.904026,206.24 129.752,206.24 C128.183992,206.24 126.464009,206.2 124.592,206.12 C122.719991,206.04 121.048007,206 119.576,206 C118.103993,206 116.488009,206.04 114.728,206.12 C112.967991,206.2 111.304008,206.24 109.736,206.24 C109.64,206.24 109.552,206.112001 109.472,205.856 C109.392,205.599999 109.352,205.376001 109.352,205.184 C109.352,205.023999 109.392,204.816001 109.472,204.56 C109.552,204.303999 109.64,204.16 109.736,204.128 C111.624009,203.903999 112.863997,203.504003 113.456,202.928 C114.048003,202.351997 114.344,201.408007 114.344,200.096 L114.344,179.024 C114.344,177.711993 114.048003,176.768003 113.456,176.192 C112.863997,175.615997 111.624009,175.216001 109.736,174.992 C109.64,174.96 109.552,174.816001 109.472,174.56 C109.392,174.303999 109.352,174.096001 109.352,173.936 C109.352,173.743999 109.392,173.520001 109.472,173.264 C109.552,173.007999 109.64,172.88 109.736,172.88 C111.304008,172.88 112.919992,172.92 114.584,173 C116.248008,173.08 117.815993,173.12 119.288,173.12 C120.760007,173.12 122.319992,173.08 123.968,173 C125.616008,172.92 127.223992,172.88 128.792,172.88 C133.240022,172.88 136.47199,173.575993 138.488,174.968 C140.50401,176.360007 141.512,178.159989 141.512,180.368 C141.512,182.192009 140.712008,183.807993 139.112,185.216 C137.511992,186.624007 135.176015,187.551998 132.104,188 C135.752018,188.160001 138.53599,189.159991 140.456,191 C142.37601,192.840009 143.336,194.831989 143.336,196.976 Z M131.576,180.992 C131.576,178.94399 131.192004,177.472004 130.424,176.576 C129.655996,175.679996 128.408009,175.232 126.68,175.232 L126.104,175.232 C125.431997,175.232 124.888002,175.375999 124.472,175.664 C124.055998,175.952001 123.848,176.543996 123.848,177.44 L123.848,187.136 L126.392,187.136 C128.248009,187.136 129.575996,186.648005 130.376,185.672 C131.176004,184.695995 131.576,183.136011 131.576,180.992 Z M133.448,196.496 C133.448,194.191988 132.944005,192.440006 131.936,191.24 C130.927995,190.039994 129.43201,189.44 127.448,189.44 L123.848,189.44 L123.848,200.864 C123.848,201.920005 124.135997,202.687998 124.712,203.168 C125.288003,203.648002 126.071995,203.888 127.064,203.888 C128.600008,203.888 130.047993,203.304006 131.408,202.136 C132.768007,200.967994 133.448,199.088013 133.448,196.496 Z M187.352,205.184 C187.352,205.408001 187.312,205.639999 187.232,205.88 C187.152,206.120001 187.064,206.24 186.968,206.24 C185.399992,206.24 184.080005,206.2 183.008,206.12 C181.935995,206.04 180.664007,206 179.192,206 C177.719993,206 176.088009,206.04 174.296,206.12 C172.503991,206.2 170.824008,206.24 169.256,206.24 C169.16,206.24 169.072,206.112001 168.992,205.856 C168.912,205.599999 168.872,205.376001 168.872,205.184 C168.872,205.023999 168.904,204.816001 168.968,204.56 C169.032,204.303999 169.112,204.16 169.208,204.128 C170.008004,204.032 170.599998,203.864001 170.984,203.624 C171.368002,203.383999 171.56,203.040002 171.56,202.592 C171.56,202.399999 171.504001,202.168001 171.392,201.896 C171.279999,201.623999 171.080001,201.280002 170.792,200.864 L164.6,192.32 C164.247998,191.807997 163.848002,191.440001 163.4,191.216 C162.951998,190.991999 162.264005,190.88 161.336,190.88 L161.336,200.096 C161.336,201.376006 161.575998,202.319997 162.056,202.928 C162.536002,203.536003 163.703991,203.935999 165.56,204.128 C165.656,204.128 165.744,204.263999 165.824,204.536 C165.904,204.808001 165.944,205.023999 165.944,205.184 C165.944,205.376001 165.904,205.599999 165.824,205.856 C165.744,206.112001 165.656,206.24 165.56,206.24 C163.991992,206.24 162.472007,206.2 161,206.12 C159.527993,206.04 158.056007,206 156.584,206 C155.111993,206 153.584008,206.04 152,206.12 C150.415992,206.2 148.840008,206.24 147.272,206.24 C147.176,206.24 147.088,206.120001 147.008,205.88 C146.928,205.639999 146.888,205.408001 146.888,205.184 C146.888,205.023999 146.928,204.816001 147.008,204.56 C147.088,204.303999 147.176,204.16 147.272,204.128 C149.128009,203.903999 150.351997,203.504003 150.944,202.928 C151.536003,202.351997 151.832,201.408007 151.832,200.096 L151.832,179.024 C151.832,177.711993 151.632002,176.784003 151.232,176.24 C150.831998,175.695997 149.384012,175.280001 146.888,174.992 C146.792,174.96 146.704,174.816001 146.624,174.56 C146.544,174.303999 146.504,174.096001 146.504,173.936 C146.504,173.711999 146.544,173.480001 146.624,173.24 C146.704,172.999999 146.792,172.88 146.888,172.88 C148.456008,172.88 150.095991,172.92 151.808,173 C153.520009,173.08 155.111993,173.12 156.584,173.12 C158.056007,173.12 159.655991,173.08 161.384,173 C163.112009,172.92 164.759992,172.88 166.328,172.88 C166.424,172.88 166.512,173.007999 166.592,173.264 C166.672,173.520001 166.712,173.743999 166.712,173.936 C166.712,174.096001 166.672,174.311999 166.592,174.584 C166.512,174.856001 166.424,174.992 166.328,174.992 C164.119989,175.216001 162.736003,175.607997 162.176,176.168 C161.615997,176.728003 161.336,177.679993 161.336,179.024 L161.336,188.24 C161.944003,188.24 162.447998,188.160001 162.848,188 C163.248002,187.839999 163.703997,187.504003 164.216,186.992 L173.384,178.256 C173.672001,177.967999 173.895999,177.704001 174.056,177.464 C174.216001,177.223999 174.296,176.944002 174.296,176.624 C174.296,176.207998 174.072002,175.864001 173.624,175.592 C173.175998,175.319999 172.392006,175.120001 171.272,174.992 C171.176,174.96 171.088,174.816001 171.008,174.56 C170.928,174.303999 170.888,174.096001 170.888,173.936 C170.888,173.743999 170.928,173.520001 171.008,173.264 C171.088,173.007999 171.176,172.88 171.272,172.88 C172.424006,172.88 173.799992,172.92 175.4,173 C177.000008,173.08 178.423994,173.12 179.672,173.12 C180.696005,173.12 181.663995,173.08 182.576,173 C183.488005,172.92 184.279997,172.88 184.952,172.88 C185.048,172.88 185.136,172.999999 185.216,173.24 C185.296,173.480001 185.336,173.711999 185.336,173.936 C185.336,174.128001 185.288,174.351999 185.192,174.608 C185.096,174.864001 185,174.992 184.904,174.992 C183.111991,175.184001 181.520007,175.655996 180.128,176.408 C178.735993,177.160004 177.544005,178.015995 176.552,178.976 L170.744,184.736 L182.024,201.008 C182.728004,202.032005 183.479996,202.783998 184.28,203.264 C185.080004,203.744002 185.975995,204.032 186.968,204.128 C187.064,204.128 187.152,204.263999 187.232,204.536 C187.312,204.808001 187.352,205.023999 187.352,205.184 Z" id="VBK" fill="#FFFFFF"></path>
        </g>
    </g>
</svg>