<?xml version="1.0" encoding="UTF-8"?>
<svg width="256px" height="256px" viewBox="0 0 256 256" version="1.1" xmlns="http://www.w3.org/2000/svg" xmlns:xlink="http://www.w3.org/1999/xlink">
    <!-- Generator: Sketch 53 (72520) - https://sketchapp.com -->
    <title>logo/stod-herrer</title>
    <desc>Created with Sketch.</desc>
    <g id="logo/stod-herrer" stroke="none" stroke-width="1" fill="none" fill-rule="evenodd">
        <g id="Stod-il" transform="translate(0.000000, 41.000000)">
            <path d="M127.646527,0 C57.2625941,0 0,39.9204166 0,88.9960016 C0,138.071587 57.2625941,177.98122 127.646527,177.98122 C198.03046,177.98122 255.293054,138.08237 255.293054,88.9960016 C255.293054,39.9096331 198.03046,0 127.646527,0 Z" id="Path" fill="#FFFFFF"></path>
            <path d="M127.75364,145.878821 C95.6840167,145.878821 67.5025941,135.47277 51.3285356,119.772033 L28.5241841,141.500731 C51.4356485,162.086381 87.436318,175.371619 127.807197,175.371619 C168.649372,175.371619 204.992803,161.784444 227.850711,140.799805 L204.874979,119.071107 C188.829456,135.170832 160.294561,145.878821 127.75364,145.878821 Z" id="Path" fill="#C72127"></path>
            <path d="M26.2748117,38.3352461 L50.4823431,59.1149983 C66.5492887,42.939789 95.116318,32.1563161 127.75364,32.1563161 C161.205021,32.1563161 190.436151,43.4789626 206.192469,60.3227473 L230.635649,39.5969124 C208.013389,17.102588 170.352469,2.35079709 127.807197,2.35079709 C86.065272,2.36158056 49.0470293,16.5634143 26.2748117,38.3352461 Z" id="Path" fill="#C72127"></path>
            <g id="Group" transform="translate(52.485356, 4.313389)" fill="#FFFFFF">
                <path d="M9.11531381,33.6552188 C9.71514644,34.7335661 11.4396653,36.6098904 15.5420921,34.5178967 C17.7486192,33.4395494 19.9551464,31.6387094 18.8518828,29.4820148 C18.0485356,27.8968443 16.1633473,28.3389667 13.4962343,29.0398925 L10.8398326,29.7839521 C6.85523013,30.8622994 2.98845188,31.9406467 0.739079498,27.411588 C-0.417740586,25.1362753 -1.1139749,20.456248 6.09472803,16.7359499 C12.907113,13.2205377 16.8060251,16.3693118 18.1128033,18.8926445 L13.699749,21.1571738 C13.1106276,20.3160629 11.6431799,18.3426874 7.58359833,20.4454646 C5.81623431,21.3512763 4.0060251,23.0334981 4.94861925,24.8774719 C5.75196653,26.4626424 7.34794979,26.0744374 8.38694561,25.7940671 L14.4281172,24.2088966 C17.812887,23.3246518 21.1762343,23.0227146 22.9971548,26.6890954 C26.1141423,32.814108 19.5695397,36.8686938 17.6415063,37.8715567 C9.5223431,42.0555442 5.95548117,38.4862147 4.67012552,35.962882 L9.11531381,33.6552188 Z" id="Path"></path>
                <polygon id="Path" points="39.1712134 28.9751916 34.1583264 30.4525274 28.9097908 12.3794269 21.6582427 14.5361214 20.5228452 10.6540712 40.0388285 4.90648016 41.1742259 8.78853039 33.9226778 10.945225"></polygon>
                <path d="M49.9789121,14.7841413 C49.1969874,8.43267579 52.9459414,6.362249 55.74159,6.01717786 C58.5372385,5.67210673 62.6825105,6.76123749 63.4537238,13.1234865 C64.2249372,19.4857355 60.4866946,21.5453788 57.6803347,21.8904499 C54.8739749,22.2355211 50.7501255,21.1571738 49.9789121,14.7841413 Z M44.7946444,15.4311497 C46.0907113,26.0852209 54.8953975,26.3116738 58.1730544,25.9126853 C61.4507113,25.5136968 69.9554812,23.1413328 68.6379916,12.4764781 C67.3205021,1.81162344 58.5372385,1.59595399 55.2595816,1.99494248 C51.9819247,2.39393098 43.4878661,4.76629501 44.7625105,15.4311497 L44.7946444,15.4311497 Z" id="Shape" fill-rule="nonzero"></path>
                <path d="M79.252887,5.22998434 L84.2550628,5.46722075 C86.4830126,5.564272 89.9748954,6.27598121 89.6107113,13.0156518 C89.4393305,16.7790838 87.832636,20.6287836 83.5909623,20.4346811 L78.5138075,20.1974447 L79.252887,5.22998434 Z M73.2759833,23.9069594 L84.083682,24.4029991 C92.3313808,24.7804207 94.7949791,17.8142972 94.9984937,12.9186005 C95.2020084,8.60521135 93.7559833,1.95180859 85.3583264,1.56360357 L74.3364017,1.04599687 L73.2759833,23.9069594 Z" id="Shape" fill-rule="nonzero"></path>
                <polygon id="Path" points="111.440335 28.4899353 106.36318 27.3037533 111.515314 4.98196447 116.60318 6.17892996"></polygon>
                <polygon id="Path" points="120.32 31.1103192 115.339247 29.5574991 116.710293 25.1147083 121.701757 26.6675284"></polygon>
                <polygon id="Path" points="130.795649 30.6897638 142.096067 35.9089647 140.382259 39.6831802 124.315314 32.2641508 133.826946 11.4520482 138.57205 13.6087428"></polygon>
                <polygon id="Path" points="146.519833 44.1798884 142.235314 41.2791342 144.784603 37.3970839 149.1441 40.2978381"></polygon>
            </g>
            <g id="Group" transform="translate(58.912134, 141.263495)" fill="#FFFFFF">
                <path d="M9.60803347,1.28323327 C12.8214226,2.83605337 14.5245188,6.16814648 13.2712971,8.83166428 C12.0180753,11.4951821 8.34410042,12.336293 5.1307113,10.7834729 C1.91732218,9.23065278 0.214225941,5.88777619 1.48887029,3.23504186 C2.76351464,0.582307535 6.31966527,-0.291153768 9.60803347,1.28323327 Z" id="Path"></path>
                <path d="M30.1308787,7.74253352 L30.9020921,7.91506909 C36.129205,9.05811721 37.9929707,7.18179293 38.4642678,5.564272 L42.9094561,6.53478456 L38.1215063,28.640904 L32.7658577,27.4547219 L36.0649372,12.2284582 L29.531046,10.7942563 L30.1308787,7.74253352 Z" id="Path"></path>
                <path d="M54.0599163,14.8164917 C54.2741423,11.5814499 56.8769874,11.1824614 58.3444351,11.2687292 C61.1829289,11.4628317 62.4682845,13.1450534 62.2861925,15.7223035 C62.1041004,18.2995535 59.9082845,19.3671173 58.0016736,19.2269321 C56.0950628,19.086747 53.8242678,18.2132857 54.0599163,14.8164917 Z M48.4257741,24.3922156 C48.6507113,28.0154625 51.9390795,30.4740943 56.716318,30.7975985 C61.7720502,31.1426697 67.0848536,28.640904 67.6739749,19.9170744 C67.8882008,16.6820325 68.2952301,8.30327411 58.590795,7.64548227 C53.0958996,7.26806072 48.8649372,9.56494044 48.4900418,15.096862 C48.2329707,18.881861 51.1357322,22.3649227 56.5020921,22.7315608 C58.3979916,22.8609625 60.5938075,22.6345096 61.9541423,21.1895242 L62.0398326,21.254225 C61.6756485,25.9881696 59.2870293,27.3900211 56.9948117,27.2390525 C55.2917155,27.1204343 54.1134728,26.3763747 53.9099582,24.7912041 L53.9099582,24.7912041 L48.4257741,24.3922156 Z" id="Shape" fill-rule="nonzero"></path>
                <path d="M76.5857741,19.4533851 C76.1787448,13.6410932 76.8964017,11.3873474 80.045523,11.1608944 C83.1946444,10.9344415 84.2229289,13.0587857 84.6406695,18.881861 C85.05841,24.7049364 84.3407531,26.9802491 81.1809205,27.2067021 C78.0210879,27.433155 77.0035146,25.2764604 76.5857741,19.4533851 Z M70.9087866,19.863157 C71.4657741,27.7782261 74.8505439,31.2397209 81.4379916,30.7652481 C88.0254393,30.2907753 90.8853556,26.3871581 90.3176569,18.472089 C89.7499582,10.5570199 86.3866109,7.12787557 79.7991632,7.60234838 C73.2117155,8.07682118 70.3410879,11.9480879 70.9087866,19.863157 L70.9087866,19.863157 Z" id="Shape" fill-rule="nonzero"></path>
                <path d="M92.7491213,14.503771 C91.1638494,7.32197808 97.5584937,5.24076782 99.9899582,4.70159417 C105.249205,3.52619563 109.962176,5.07901572 110.947615,9.56494044 C111.793808,13.3607229 109.158828,15.9703233 106.813054,18.0191832 C103.599665,20.887587 101.971548,22.3325723 101.57523,23.4109196 L113.46477,20.7581853 L114.321674,24.6186686 L95.5876151,28.802656 C95.2127197,26.1714887 94.8485356,23.4109196 100.032803,18.6014907 C104.317322,14.6116057 106.063264,13.0480022 105.506276,10.5570199 C105.184937,9.10125111 103.663933,7.67783269 101.028954,8.26014022 C97.2478661,9.11203458 97.6870293,11.6569342 98.0083682,13.2744551 L92.7491213,14.503771 Z" id="Path"></path>
                <path d="M129.092552,1.42341842 C132.466611,0.172535566 136.001339,1.30480022 137.018912,4.0545858 C138.036485,6.80437138 136.087029,10.0394132 132.734393,11.2902961 C129.381757,12.541179 125.825607,11.4089143 124.797322,8.60521135 C123.769038,5.80150841 125.675649,2.69586822 129.092552,1.42341842 Z" id="Path"></path>
            </g>
            <path d="M214.258075,88.8773834 C214.258075,118.715253 175.601004,142.924149 127.903598,142.924149 C80.2061925,142.924149 41.5491213,118.715253 41.5491213,88.8773834 C41.5491213,59.039514 80.2169038,34.8198339 127.903598,34.8198339 C175.590293,34.8198339 214.258075,59.017947 214.258075,88.8773834 Z" id="Path" stroke="#C72127" stroke-width="1.83" fill="#FFFFFF"></path>
            <path d="M152.186109,58.4572065 C152.186109,58.3278048 152.186109,58.1876196 152.100418,58.058218 C152.014728,57.9288163 152.046862,57.7994146 152.046862,57.7994146 L152.046862,57.7347138 L151.961172,57.4866939 C151.637447,56.5555961 151.228668,55.6567207 150.740084,54.8016091 L150.632971,54.5967232 L150.54728,54.4457545 C144.143551,41.9159111 129.063125,36.7008308 116.363069,42.624244 C103.663012,48.5476571 97.863874,63.5011414 103.217619,76.5207066 C108.571364,89.5402718 123.172342,95.9916403 136.315022,91.1446276 C149.457703,86.2976148 156.463986,71.8775014 152.19682,58.4572065 L152.186109,58.4572065 Z M122.194477,45.7434919 C125.264034,44.8377159 128.561973,45.1542894 131.406192,46.6277367 C132.526305,48.5626679 133.534836,50.5609166 134.426778,52.6125642 L134.748117,53.3027064 C132.600956,55.3438893 130.643377,57.5781512 128.899749,59.9776761 C125.952243,59.4666132 122.968074,59.1997266 119.977238,59.1796991 L119.816569,59.017947 L119.49523,58.6189585 C119.49523,58.6189585 119.013222,57.9611667 119.013222,57.9503832 L118.466946,57.0984889 C118.466946,57.0014376 117.877824,56.0201416 117.877824,56.0201416 L117.599331,55.4486175 L117.320837,54.8016091 L117.106611,54.2085181 L116.924519,53.5615098 C116.924519,53.5615098 116.806695,53.1086039 116.763849,52.9360683 C116.721004,52.7635328 116.699582,52.493946 116.635314,52.0194731 C118.244042,49.7106759 120.121121,47.6037377 122.226611,45.7434919 L122.194477,45.7434919 Z M145.662929,77.1557484 C145.598661,77.4361187 145.480837,77.9537254 145.480837,77.9645089 L145.105941,79.0428562 L144.881004,79.5820298 L144.581088,80.1535539 C144.581088,80.1535539 143.895565,81.3181689 143.884854,81.3181689 L143.477824,81.889693 L142.995816,82.4935675 C142.995816,82.4935675 142.481674,83.1405759 142.470962,83.1405759 L141.892552,83.7768008 L141.249874,84.4022422 L141.003515,84.6286951 C138.335737,85.0481231 135.646434,85.3145452 132.948619,85.4266721 C131.598098,83.6730062 130.736583,81.5884597 130.452887,79.3879273 C132.288079,77.2260416 133.842959,74.8381472 135.080167,72.2816187 C137.469736,71.1408039 140.064001,70.4988721 142.706611,70.3945109 L145.662929,77.1557484 Z M114.975063,68.6691553 C114.975063,68.572104 115.296402,67.7633435 115.296402,67.7525601 C115.296402,67.7417766 115.77841,66.587945 115.789121,66.5771615 C115.799833,66.5663781 116.014059,66.1134722 116.067615,65.9840705 L116.44251,65.3262787 L116.870962,64.6145695 L117.310126,63.9567776 C117.374393,63.8705098 117.84569,63.2666354 117.856402,63.2666354 L118.466946,62.5764931 L119.098912,61.9187012 L119.998661,61.1315077 C122.975788,61.1606262 125.945567,61.4347204 128.878326,61.9510517 C134.126862,68.7338561 133.419916,71.149354 133.419916,71.1817044 L133.269958,71.6022599 C132.087605,73.9833845 130.616031,76.2074297 128.889038,78.2233122 C125.456093,78.776626 121.941494,78.495634 118.638326,77.4037683 C116.838254,75.2814892 115.456804,72.8330221 114.568033,70.1896249 C114.739414,69.5318331 114.95364,68.7230726 114.975063,68.6691553 L114.975063,68.6691553 Z M132.862929,87.3029964 C135.819247,87.1304608 138.507782,86.9363583 140.510795,86.6128541 C140.510795,86.6128541 140.510795,86.6128541 140.510795,86.6883384 C136.71355,89.171593 132.292191,90.5144193 127.764351,90.5596052 C129.625171,89.7541004 131.346349,88.6547342 132.862929,87.3029964 L132.862929,87.3029964 Z M151.254226,70.0494398 C151.054353,71.3401697 150.7535,72.6129849 150.354477,73.8560057 C150.236653,73.9638404 150.140251,74.0716752 150.140251,74.0716752 L149.444017,74.7079001 L149.069121,75.0098373 L148.683515,75.2686407 L148.276485,75.5058771 L147.869456,75.6891961 L147.483849,75.7646804 L147.151799,75.7646804 L147.151799,75.7646804 L144.441841,69.5426166 C145.690258,66.0934499 146.011725,62.3735346 145.373724,58.7591437 C146.281539,58.1835547 147.247377,57.7064187 148.255063,57.3357253 L150.579414,59.6433885 C151.553393,63.017698 151.783695,66.5654303 151.254226,70.0386563 L151.254226,70.0494398 Z M147.441004,52.9037179 L147.505272,53.9820652 C147.505272,53.9820652 147.558828,55.1251133 147.558828,55.1251133 L147.558828,55.5456688 C146.465071,55.946983 145.416648,56.4638828 144.43113,57.0877054 C141.949574,55.4502682 139.346132,54.0081854 136.644017,52.7743162 L136.194142,51.8038037 C135.279565,49.716569 134.24967,47.6825009 133.109289,45.7111415 C133.898754,44.898072 134.80947,44.2140715 135.808536,43.6838486 C140.551888,45.4449373 144.622535,48.6675499 147.441004,52.8929344 L147.441004,52.9037179 Z M113.314812,46.8973235 C114.697654,45.8758146 116.18411,45.00468 117.749289,44.2985066 C118.601648,44.2704741 119.430118,44.5846984 120.052218,45.1719679 C118.16494,46.9280106 116.479818,48.8921627 115.028619,51.0273936 L114.717992,51.1675788 L114.493054,51.26463 L113.818243,51.4802995 L112.747113,51.8361541 L111.279665,52.4292451 L110.519163,52.7958832 L109.812218,53.1517378 L109.062427,53.5830767 L109.062427,53.5830767 L108.34477,54.0898999 L107.723515,54.6182901 L107.145105,55.1574638 L107.048703,55.254515 L106.930879,55.4054836 C106.770692,55.1981985 106.627408,54.9782184 106.502427,54.7476918 C108.176608,51.6615215 110.501883,48.981951 113.314812,46.8973235 Z M103.771046,62.6843278 C104.092071,60.6391376 104.667878,58.6428394 105.484854,56.7426343 L105.859749,57.2063236 C105.763347,57.4219931 105.656234,57.6376625 105.656234,57.6376625 L105.313473,58.5973916 L105.056402,59.5463372 L104.895732,60.430582 C104.895732,60.5276332 104.777908,61.3579607 104.777908,61.3579607 C104.777908,61.3579607 104.777908,62.2637724 104.777908,62.2637724 C104.777908,62.2637724 104.777908,63.1048833 104.777908,63.1048833 C104.777908,63.1048833 104.777908,63.9675611 104.777908,63.9675611 C104.777908,63.9675611 104.927866,65.401763 104.927866,65.401763 C104.927866,65.401763 105.099247,66.5340276 105.099247,66.5340276 C105.099247,66.5340276 105.20636,67.0839848 105.270628,67.3751385 C104.645731,68.1024231 104.139563,68.925029 103.771046,69.8122034 C103.415299,67.4500096 103.411689,65.0475944 103.760335,62.6843278 L103.771046,62.6843278 Z M104.62795,73.6834702 C104.62795,73.5864189 104.62795,73.4893676 104.681506,73.4246668 C104.886575,71.7126688 105.532777,70.0844195 106.555983,68.7015057 L106.888033,68.7015057 C106.888033,68.7015057 107.305774,68.7015057 107.316485,68.7015057 L107.948452,68.7985569 L108.816067,68.981876 L109.887197,69.2838132 L111.215397,69.7259356 C111.215397,69.7259356 112.179414,70.1249241 112.597155,70.2974597 C113.491246,73.1984041 114.947463,75.8922331 116.881674,78.2233122 C115.903695,80.1962465 115.145715,82.2721324 114.62159,84.4130257 C113.060925,84.2507014 111.547044,83.7817532 110.16569,83.0327411 C109.430314,82.2665853 108.750203,81.4485567 108.130544,80.5848928 C106.598038,78.4898268 105.411663,76.1593517 104.617238,73.6834702 L104.62795,73.6834702 Z" id="Shape" fill="#C72127" fill-rule="nonzero"></path>
            <g id="Group" transform="translate(2.142259, 39.898850)" fill="#065BAA">
                <path d="M190.415837,16.48793 L190.330146,16.2291267 L189.141192,16.1536424 L189.280439,16.692816 C189.618185,18.2220394 189.421451,19.8217504 188.723452,21.2218746 C187.982435,22.5472501 187.005765,23.7242277 185.842113,24.6941529 L142.996925,56.1064094 L142.257845,55.0927629 L135.702531,59.9021918 L136.441611,60.9158383 L125.987385,68.6044544 C120.363954,64.4743843 116.272238,61.4873623 116.079435,61.3471772 L116.818514,60.2688299 L110.263201,55.4701845 L109.524121,56.4838309 L66.6789329,25.060791 C65.5221764,24.0910453 64.5495819,22.9182597 63.8083053,21.5992962 C63.1103059,20.199172 62.9135721,18.5994609 63.2513178,17.0702376 L63.3905647,16.5310639 L62.2337446,16.6496821 L62.1480542,16.9084855 C61.3616306,18.7309622 61.1558082,20.7540782 61.5589329,22.6992104 C62.0516526,25.2548935 64.772322,27.4223715 64.9008576,27.5194228 L123.491653,70.4592118 L91.1542467,94.204419 L92.8894768,96.6414839 L126.008807,72.335536 L159.149561,96.6414839 L160.916925,94.1936356 L128.558096,70.4699952 L187.663033,27.1096508 C187.780858,27.0018161 190.512238,24.8235546 191.004958,22.278655 C191.408083,20.3335227 191.20226,18.3104067 190.415837,16.48793 L190.415837,16.48793 Z" id="Path"></path>
                <g id="Path">
                    <path d="M250.537238,48.9893173 C250.537238,31.3152052 243.617741,15.7977878 229.468117,1.54203662 L205.346276,22.0306351 C212.405021,30.1074563 216.411046,39.3812429 216.411046,49.2481206 C216.411046,59.6757389 211.912301,69.4563488 204.071632,77.8674576 C207.745607,81.3289524 225.804854,98.3560561 226.983096,99.5314546 C242.589456,84.7796637 250.537238,67.8280444 250.537238,48.9893173 Z"></path>
                    <path d="M46.9047699,20.7581853 C45.8979079,19.8955075 24.2396653,1.34793411 22.9221757,0.161752093 C8.60117155,14.6008223 0.996150628,31.4661738 0.996150628,49.0324512 C0.996150628,67.5584576 9.38309623,85.1786522 25.1822594,100.081412 L47.7509623,78.5791668 C39.4925523,70.0063059 34.7367364,59.9776761 34.7367364,49.1942033 C34.7367364,38.8636362 39.1819247,29.1369437 46.9047699,20.7581853 Z"></path>
                </g>
            </g>
        </g>
    </g>
</svg>