<?xml version="1.0" encoding="UTF-8"?>
<svg width="256px" height="256px" viewBox="0 0 256 256" version="1.1" xmlns="http://www.w3.org/2000/svg" xmlns:xlink="http://www.w3.org/1999/xlink">
    <!-- Generator: Sketch 50.2 (55047) - http://www.bohemiancoding.com/sketch -->
    <title>logo/stod</title>
    <desc>Created with Sketch.</desc>
    <defs></defs>
    <g id="logo/stod" stroke="none" stroke-width="1" fill="none" fill-rule="evenodd">
        <g id="stod" fill-rule="nonzero">
            <g id="#fefffeff" transform="translate(23.068132, 10.690110)" fill="#FEFFFE">
                <path d="M97.9776703,0.568263736 C99.4405275,0.523252747 100.909011,0.517626374 102.377495,0.545758242 C103.81222,8.22575824 104.419868,16.0407912 105.635165,23.7601758 C107.45811,16.1533187 107.981363,8.2989011 109.776176,0.686417582 C111.064615,0.692043956 112.358681,0.680791209 113.647121,0.692043956 C113.21389,6.5716044 111.767912,12.3217582 110.91833,18.1506813 C110.130637,22.0835165 109.860571,26.1232527 108.639648,29.9604396 C106.417231,30.1292308 104.18356,30.1010989 101.983648,29.7578901 C100.723341,22.0553846 99.8512527,14.2966154 98.6584615,6.58285714 C98.3433846,4.59112088 98.1070769,2.58250549 97.9776703,0.568263736 Z" id="Shape"></path>
                <path d="M130.160527,3.60650549 C133.260659,3.10013187 137.041582,4.24228571 138.48756,7.23551648 C139.629714,9.56483516 138.915165,12.197978 138.386286,14.5891868 C137.362286,18.6795604 136.478945,22.8036923 135.499956,26.9053187 C134.897934,29.4034286 133.586989,32.210989 130.880703,32.9255385 C128.202549,33.5106813 125.108044,33.0268132 123.082549,31.0688352 C121.698462,29.7522637 121.169582,27.7436484 121.389011,25.8869451 C121.743473,22.6855385 122.739341,19.6022857 123.408879,16.4627692 C124.145934,13.4807912 124.607297,10.4144176 125.715692,7.53934066 C126.430242,5.60386813 128.06189,3.93846154 130.160527,3.60650549 Z M130.801934,8.07384615 C129.879209,8.84465934 129.744176,10.1724835 129.400967,11.2583736 C128.528879,15.2193407 127.578022,19.1578022 126.604659,23.0962637 C126.300835,24.6547692 125.783209,26.292044 126.21644,27.8730549 C127.043516,29.2008791 129.569758,29.4259341 130.222418,27.7942857 C131.432088,24.9698462 131.752791,21.8584615 132.557363,18.898989 C133.176264,15.8382418 134.335297,12.8337582 134.32967,9.68298901 C134.425319,7.94443956 132.073495,7.28615385 130.801934,8.07384615 Z" id="Shape"></path>
                <path d="M55.7686154,10.3862857 C58.699956,9.22725275 61.5975385,7.83753846 64.7370549,7.3592967 C66.9538462,6.98795604 69.2325275,8.14698901 70.3465495,10.0768352 C71.9331868,12.8168791 72.7658901,15.9113846 73.9361758,18.8370989 C75.0558242,22.0778901 76.5636923,25.2005275 77.2613626,28.5707253 C77.7396044,30.7481319 76.7212308,33.1224615 74.8138901,34.2758681 C72.0794725,35.9412747 68.984967,36.8921319 65.912967,37.7248352 C63.2741978,31.879033 61.3837363,25.7237802 59.015033,19.7654505 C57.8728791,16.6596923 56.455033,13.6383297 55.7686154,10.3862857 Z M61.4512527,12.8506374 C63.8255824,19.3378462 66.1155165,25.8700659 68.7767912,32.2447473 C69.963956,31.7946374 71.4099341,31.6314725 72.2651429,30.584967 C72.9796923,29.6284835 72.4001758,28.4244396 72.1526154,27.4060659 C70.9935824,24.109011 69.5982418,20.9076044 68.472967,17.5992967 C67.7471648,15.7482198 67.2407912,13.7452308 65.9917363,12.1585934 C64.5851429,10.9826813 62.8465934,12.3273846 61.4512527,12.8506374 Z" id="Shape"></path>
                <path d="M153.729407,10.6057143 C155.113495,10.9826813 156.435692,11.5621978 157.656615,12.3217582 C156.216264,16.5471648 153.960088,20.4237363 152.170901,24.4972308 C150.606769,28.0756044 148.60378,31.4795604 147.467253,35.2323516 C149.667165,36.2394725 151.867077,37.2634725 154.016352,38.3887473 C153.498725,39.6265495 152.952967,40.8474725 152.384703,42.0627692 C148.598154,40.6392967 144.991648,38.7882198 141.385143,36.9709011 C143.17433,32.1265934 145.683692,27.5917363 147.776703,22.8768352 C149.774066,18.7920879 151.422593,14.5329231 153.729407,10.6057143 Z" id="Shape"></path>
                <path d="M37.9273846,20.4631209 C39.800967,19.6979341 42.0852747,19.7767033 43.7506813,20.992 C45.5905055,22.3367033 46.8058022,24.3171868 48.1336264,26.1288791 C50.266022,29.2346374 52.5784615,32.210989 54.7333626,35.3054945 C56.274989,37.4266374 57.434022,40.2454505 56.2918681,42.8167033 C54.8571429,45.8324396 51.290022,48.0436044 47.9254505,47.2615385 C45.4442198,46.6482637 43.8575824,44.4821099 42.4566154,42.5128791 C40.0147692,38.9626374 37.3985055,35.5361758 34.9285275,32.0140659 C33.7751209,30.3036484 32.6104615,28.3231648 32.948044,26.1795165 C33.3531429,23.5126154 35.5024176,21.4308571 37.9273846,20.4631209 Z M38.5069011,24.8967033 C37.466022,25.4368352 37.3366154,26.9334505 37.9105055,27.8786813 C39.2045714,30.4105495 41.1850549,32.4979341 42.7773187,34.8385055 C44.6565275,37.2972308 46.1362637,40.0766593 48.3361758,42.2709451 C49.6583736,43.9363516 52.8597802,42.1471648 52.0664615,40.1723077 C51.2112527,38.023033 49.6302418,36.2732308 48.3136703,34.3996484 C46.0068571,31.4289231 44.1051429,28.1431209 41.6014066,25.3355604 C40.869978,24.3621978 39.4915165,24.2609231 38.5069011,24.8967033 Z" id="Shape"></path>
                <path d="M174.940835,24.6941538 C175.531604,24.2046593 176.049231,22.9612308 176.977582,23.4282198 C178.147868,23.9852308 179.031209,24.9754725 179.97644,25.8363077 C175.002725,32.5260659 169.393231,38.7263297 164.453275,45.4385934 C166.298725,47.0027253 168.166681,48.549978 169.944615,50.1928791 C169.28633,51.3294066 168.532396,52.4096703 167.694066,53.4167912 C164.408264,51.0818462 161.313758,48.4993407 158.213626,45.9337143 C159.777758,43.1936703 161.955165,40.8924835 163.918769,38.445011 C167.592791,33.8651429 171.300571,29.3077802 174.940835,24.6941538 Z" id="Shape"></path>
                <path d="M11.5621978,46.1475165 C14.4091429,42.3722198 17.3517363,38.6250549 20.7781978,35.3561319 C21.7403077,36.1156923 22.7024176,36.8865055 23.6589011,37.6629451 C22.8261978,39.0245275 21.8528352,40.2904615 20.9863736,41.6351648 C24.6097582,45.1066374 28.6607473,48.0942418 32.4304176,51.3969231 C34.8835165,53.5574505 37.6291868,55.4085275 39.755956,57.9178901 C38.9063736,59.0544176 38.0174066,60.1684396 37.1003077,61.2487033 C30.4611868,56.2918681 24.4916044,50.4910769 17.92,45.4442198 C16.6878242,46.4963516 15.5794286,47.6778901 14.3978901,48.7806593 C13.4245275,47.9310769 12.4849231,47.0533626 11.5621978,46.1475165 Z" id="Shape"></path>
                <path d="M189.833846,45.2472967 C191.713055,43.7900659 193.603516,42.3384615 195.640264,41.1062857 C198.318418,44.3133187 200.855912,47.6553846 203.106462,51.1774945 C202.05433,51.9820659 200.96844,52.7472527 199.860044,53.4730549 C198.20589,51.4981978 196.720527,49.3939341 195.122637,47.3796923 C192.798945,48.6906374 190.632791,50.2716484 188.80422,52.2127473 C190.002637,53.8331429 191.049143,55.5604396 192.022505,57.3271209 C191.026637,58.1767033 189.940747,58.9137582 188.798593,59.5551648 C187.611429,57.8897582 186.356747,56.2806154 185.07956,54.6883516 C182.733363,56.184967 180.482813,57.8278681 178.389802,59.6564396 C179.582593,61.5806593 181.090462,63.2910769 182.311385,65.1927912 C183.41978,66.9088352 180.61222,67.5783736 179.576967,68.3716923 C177.000088,65.1027692 174.248791,61.906989 172.251429,58.2385934 C178.108484,53.9006593 183.976791,49.5796044 189.833846,45.2472967 Z" id="Shape"></path>
                <path d="M0.461362637,68.2591648 C-1.12527473,64.0337582 2.36307692,58.0304176 7.22989011,58.6887033 C8.74901099,58.7224615 10.0712088,59.5439121 11.3821538,60.2247033 C10.9039121,61.4793846 10.3018901,62.6834286 9.63797802,63.8480879 C8.05134066,63.6792967 5.59261538,62.3514725 4.7149011,64.3882198 C3.78654945,66.4643516 6.10461538,68.0284835 7.89942857,68.2422857 C11.4890549,68.6417582 14.6454505,66.3855824 18.1338022,65.9861099 C21.3970989,65.4516044 24.8910769,66.6387692 27.090989,69.12 C30.8606593,73.2835165 26.5283516,81.4136264 20.901978,80.2602198 C19.2590769,80.0970549 17.7962198,79.2587253 16.338989,78.5554286 C16.7553407,77.266989 17.3404835,76.0460659 18.055033,74.9039121 C19.6022857,75.218989 21.1495385,75.8885275 22.7530549,75.6747253 C23.7770549,75.1402198 24.0921319,73.8292747 23.9964835,72.7602637 C22.8655824,71.0217143 20.5587692,70.3071648 18.5782857,70.6785055 C15.3374945,71.2692747 12.3667692,73.0922198 8.99657143,73.035956 C5.58136264,73.1878681 2.04237363,71.3255385 0.461362637,68.2591648 Z" id="Shape"></path>
                <path d="M195.297055,74.3469011 C200.197626,70.4590769 204.777495,66.1605275 209.846857,62.4865055 C210.516396,63.8818462 211.056527,65.3278242 211.506637,66.8075604 C208.474022,69.7839121 204.603077,71.7531429 201.773011,74.9489231 C206.020923,74.797011 210.16756,73.6998681 214.409846,73.4860659 C215.000615,74.6901099 215.568879,75.911033 216.120264,77.1375824 C209.559912,78.6341978 202.746374,78.5216703 196.141011,79.7932308 C192.928352,80.6540659 190.058901,82.4601319 186.834989,83.2984615 C186.131692,81.965011 185.585934,80.5584176 185.225846,79.0955604 C188.567912,77.492044 192.298198,76.6030769 195.297055,74.3469011 Z" id="Shape"></path>
            </g>
            <g id="#1685b2ff" fill="#1685B2">
                <path d="M83.2647033,8.42268132 C105.404484,0.0843956044 129.896088,-1.84545055 153.088,2.81318681 C171.328703,6.47032967 188.764835,14.1784615 203.685978,25.3018022 C225.775121,41.5282637 242.36167,65.0858901 250.12044,91.3835604 C251.853363,97.4431648 253.575033,103.581538 253.985758,109.899956 C249.197714,110.209407 244.432176,109.545495 239.649758,109.489231 C235.339956,109.427341 231.041407,109.033495 226.737231,108.93222 C219.856176,108.881582 212.997626,108.138901 206.110945,108.285187 C205.216352,106.085275 204.591824,103.795341 203.933538,101.527912 C198.053978,83.079033 185.113319,66.9988571 168.380484,57.2708571 C155.181011,49.4389451 139.629714,45.7255385 124.320352,46.4063297 C105.590154,47.3459341 87.1919121,54.9978022 73.592967,67.9665934 C65.6316484,75.3483956 59.3751209,84.4631209 55.0090549,94.3767912 C54.0413187,96.7061099 53.1917363,99.0804396 52.2183736,101.404132 C41.5507692,101.370374 30.8887912,100.565802 20.2155604,100.306989 C14.7748571,99.7893626 9.29476923,100.115692 3.87094505,99.4967912 C4.29854945,96.256 5.27191209,93.138989 6.2283956,90.0276044 C11.8041319,72.2032527 21.2564396,55.5548132 33.927033,41.8152088 C47.435956,27.0122198 64.466989,15.3993846 83.2647033,8.42268132 Z M121.045802,11.2583736 C121.175209,13.2726154 121.411516,15.2812308 121.726593,17.272967 C122.919385,24.9867253 123.791473,32.7454945 125.05178,40.448 C127.251692,40.7912088 129.485363,40.8193407 131.70778,40.6505495 C132.928703,36.8133626 133.198769,32.7736264 133.986462,28.8407912 C134.836044,23.0118681 136.282022,17.2617143 136.715253,11.3821538 C135.426813,11.3709011 134.132747,11.3821538 132.844308,11.3765275 C131.049495,18.989011 130.526242,26.8434286 128.703297,34.4502857 C127.488,26.7309011 126.880352,18.9158681 125.445626,11.2358681 C123.977143,11.2077363 122.508659,11.2133626 121.045802,11.2583736 Z M153.228659,14.2966154 C151.130022,14.6285714 149.498374,16.293978 148.783824,18.2294505 C147.675429,21.1045275 147.214066,24.1709011 146.477011,27.1528791 C145.807473,30.2923956 144.811604,33.3756484 144.457143,36.5770549 C144.237714,38.4337582 144.766593,40.4423736 146.150681,41.7589451 C148.176176,43.7169231 151.270681,44.2007912 153.948835,43.6156484 C156.655121,42.9010989 157.966066,40.0935385 158.568088,37.5954286 C159.547077,33.4938022 160.430418,29.3696703 161.454418,25.2792967 C161.983297,22.8880879 162.697846,20.2549451 161.555692,17.9256264 C160.109714,14.9323956 156.328791,13.7902418 153.228659,14.2966154 Z M78.8367473,21.0763956 C79.5231648,24.3284396 80.941011,27.3498022 82.0831648,30.4555604 C84.4518681,36.4138901 86.3423297,42.5691429 88.9810989,48.4149451 C92.0530989,47.5822418 95.1476044,46.6313846 97.882022,44.965978 C99.7893626,43.8125714 100.807736,41.4382418 100.329495,39.2608352 C99.6318242,35.8906374 98.123956,32.768 97.0043077,29.5272088 C95.834022,26.6014945 95.0013187,23.506989 93.4146813,20.7669451 C92.3006593,18.8370989 90.021978,17.6780659 87.8051868,18.0494066 C84.6656703,18.5276484 81.7680879,19.9173626 78.8367473,21.0763956 Z M176.797538,21.2958242 C174.490725,25.223033 172.842198,29.4821978 170.844835,33.5669451 C168.751824,38.2818462 166.242462,42.8167033 164.453275,47.661011 C168.05978,49.4783297 171.666286,51.3294066 175.452835,52.7528791 C176.021099,51.5375824 176.566857,50.3166593 177.084484,49.0788571 C174.935209,47.9535824 172.735297,46.9295824 170.535385,45.9224615 C171.671912,42.1696703 173.674901,38.7657143 175.239033,35.1873407 C177.02822,31.1138462 179.284396,27.2372747 180.724747,23.0118681 C179.503824,22.2523077 178.181626,21.6727912 176.797538,21.2958242 Z M60.9955165,31.1532308 C58.5705495,32.120967 56.4212747,34.2027253 56.0161758,36.8696264 C55.6785934,39.0132747 56.8432527,40.9937582 57.9966593,42.7041758 C60.4666374,46.2262857 63.0829011,49.6527473 65.5247473,53.202989 C66.9257143,55.1722198 68.5123516,57.3383736 70.9935824,57.9516484 C74.3581538,58.7337143 77.9252747,56.5225495 79.36,53.5068132 C80.5021538,50.9355604 79.3431209,48.1167473 77.8014945,45.9956044 C75.6465934,42.9010989 73.3341538,39.9247473 71.2017582,36.818989 C69.8739341,35.0072967 68.6586374,33.0268132 66.8188132,31.6821099 C65.1534066,30.4668132 62.8690989,30.388044 60.9955165,31.1532308 Z M198.008967,35.3842637 C194.368703,39.9978901 190.660923,44.5552527 186.986901,49.1351209 C185.023297,51.5825934 182.84589,53.8837802 181.281758,56.6238242 C184.38189,59.1894505 187.476396,61.771956 190.762198,64.1069011 C191.600527,63.0997802 192.354462,62.0195165 193.012747,60.882989 C191.234813,59.2400879 189.366857,57.6928352 187.521407,56.1287033 C192.461363,49.4164396 198.070857,43.2161758 203.044571,36.5264176 C202.099341,35.6655824 201.216,34.6753407 200.045714,34.1183297 C199.117363,33.6513407 198.599736,34.8947692 198.008967,35.3842637 Z M34.6303297,56.8376264 C35.5530549,57.7434725 36.4926593,58.6211868 37.466022,59.4707692 C38.6475604,58.368 39.755956,57.1864615 40.9881319,56.1343297 C47.5597363,61.1811868 53.5293187,66.981978 60.1684396,71.9388132 C61.0855385,70.8585495 61.9745055,69.7445275 62.8240879,68.608 C60.6973187,66.0986374 57.9516484,64.2475604 55.4985495,62.087033 C51.7288791,58.7843516 47.6778901,55.7967473 44.0545055,52.3252747 C44.920967,50.9805714 45.8943297,49.7146374 46.727033,48.3530549 C45.7705495,47.5766154 44.8084396,46.8058022 43.8463297,46.0462418 C40.4198681,49.3151648 37.4772747,53.0623297 34.6303297,56.8376264 Z M212.901978,55.9374066 C207.044923,60.2697143 201.176615,64.5907692 195.31956,68.9287033 C197.316923,72.5970989 200.06822,75.7928791 202.645099,79.0618022 C203.680352,78.2684835 206.487912,77.5989451 205.379516,75.8829011 C204.158593,73.9811868 202.650725,72.2707692 201.457934,70.3465495 C203.550945,68.517978 205.801495,66.8750769 208.147692,65.3784615 C209.424879,66.9707253 210.67956,68.5798681 211.866725,70.2452747 C213.008879,69.6038681 214.094769,68.8668132 215.090637,68.0172308 C214.117275,66.2505495 213.070769,64.5232527 211.872352,62.9028571 C213.700923,60.9617582 215.867077,59.3807473 218.190769,58.0698022 C219.788659,60.084044 221.274022,62.1883077 222.928176,64.1631648 C224.036571,63.4373626 225.122462,62.6721758 226.174593,61.8676044 C223.924044,58.3454945 221.386549,55.0034286 218.708396,51.7963956 C216.671648,53.0285714 214.781187,54.4801758 212.901978,55.9374066 Z M23.5294945,78.9492747 C25.1105055,82.0156484 28.6494945,83.877978 32.0647033,83.7260659 C35.4349011,83.7823297 38.4056264,81.9593846 41.6464176,81.3686154 C43.6269011,80.9972747 45.9337143,81.7118242 47.0646154,83.4503736 C47.1602637,84.5193846 46.8451868,85.8303297 45.8211868,86.3648352 C44.2176703,86.5786374 42.6704176,85.9090989 41.1231648,85.594022 C40.4086154,86.7361758 39.8234725,87.9570989 39.4071209,89.2455385 C40.8643516,89.9488352 42.3272088,90.7871648 43.9701099,90.9503297 C49.5964835,92.1037363 53.9287912,83.9736264 50.1591209,79.8101099 C47.9592088,77.3288791 44.4652308,76.1417143 41.2019341,76.6762198 C37.7135824,77.0756923 34.5571868,79.3318681 30.9675604,78.9323956 C29.1727473,78.7185934 26.8546813,77.1544615 27.783033,75.0783297 C28.6607473,73.0415824 31.1194725,74.3694066 32.7061099,74.5381978 C33.370022,73.3735385 33.972044,72.1694945 34.4502857,70.9148132 C33.1393407,70.234022 31.8171429,69.4125714 30.298022,69.3788132 C25.4312088,68.7205275 21.9428571,74.7238681 23.5294945,78.9492747 Z M218.365187,85.037011 C215.36633,87.2931868 211.636044,88.1821538 208.293978,89.7856703 C208.654066,91.2485275 209.199824,92.6551209 209.903121,93.9885714 C213.127033,93.1502418 215.996484,91.3441758 219.209143,90.4833407 C225.814505,89.2117802 232.628044,89.3243077 239.188396,87.8276923 C238.637011,86.6011429 238.068747,85.3802198 237.477978,84.1761758 C233.235692,84.389978 229.089055,85.4871209 224.841143,85.639033 C227.671209,82.4432527 231.542154,80.474022 234.574769,77.4976703 C234.124659,76.0179341 233.584527,74.571956 232.914989,73.1766154 C227.845626,76.8506374 223.265758,81.1491868 218.365187,85.037011 Z" id="Shape"></path>
                <path d="M153.870066,18.763956 C155.141626,17.9762637 157.493451,18.6345495 157.397802,20.3730989 C157.403429,23.5238681 156.244396,26.5283516 155.625495,29.5890989 C154.820923,32.5485714 154.50022,35.659956 153.290549,38.4843956 C152.63789,40.116044 150.111648,39.890989 149.284571,38.5631648 C148.851341,36.9821538 149.368967,35.3448791 149.672791,33.7863736 C150.646154,29.8479121 151.597011,25.9094505 152.469099,21.9484835 C152.812308,20.8625934 152.947341,19.5347692 153.870066,18.763956 Z" id="Shape"></path>
                <path d="M84.5193846,23.5407473 C85.9147253,23.0174945 87.6532747,21.6727912 89.0598681,22.8487033 C90.3089231,24.4353407 90.8152967,26.4383297 91.5410989,28.2894066 C92.6663736,31.5977143 94.0617143,34.7991209 95.2207473,38.0961758 C95.4683077,39.1145495 96.0478242,40.3185934 95.3332747,41.2750769 C94.4780659,42.3215824 93.0320879,42.4847473 91.8449231,42.9348571 C89.1836484,36.5601758 86.8937143,30.027956 84.5193846,23.5407473 Z" id="Shape"></path>
                <path d="M61.575033,35.5868132 C62.5596484,34.951033 63.9381099,35.0523077 64.6695385,36.0256703 C67.1732747,38.8332308 69.074989,42.119033 71.3818022,45.0897582 C72.6983736,46.9633407 74.2793846,48.7131429 75.1345934,50.8624176 C75.9279121,52.8372747 72.7265055,54.6264615 71.4043077,52.9610549 C69.2043956,50.7667692 67.7246593,47.9873407 65.8454505,45.5286154 C64.2531868,43.188044 62.2727033,41.1006593 60.9786374,38.5687912 C60.4047473,37.6235604 60.5341538,36.1269451 61.575033,35.5868132 Z" id="Shape"></path>
                <path d="M148.536264,54.693978 C149.869714,53.5293187 150.004747,56.6913407 148.575648,55.6617143 C148.564396,55.4197802 148.547516,54.9359121 148.536264,54.693978 Z" id="Shape"></path>
                <path d="M1.88483516,109.275429 C6.60536264,109.168527 11.3258901,109.494857 16.0464176,109.522989 C16.7722198,113.106989 16.3614945,116.775385 16.4402637,120.404396 C16.3783736,124.888615 16.6709451,129.384088 16.2770989,133.857055 C11.0501978,133.300044 5.90206593,132.15789 0.69767033,131.403956 C0.298197802,124.022154 0.787692308,116.584088 1.88483516,109.275429 Z" id="Shape"></path>
                <path d="M18.2350769,109.905582 C24.1596484,109.809934 30.0673407,110.411956 35.9862857,110.524484 C38.1918242,110.558242 40.402989,110.659516 42.5972747,110.901451 C42.7098022,120.044308 42.7041758,129.198418 42.5972747,138.341275 C34.4446593,137.272264 26.3539341,135.719385 18.2632088,134.26778 C18.1450549,126.148923 18.1956923,118.02444 18.2350769,109.905582 Z" id="Shape"></path>
                <path d="M44.5946374,110.963341 C46.2319121,110.952088 47.8635604,110.974593 49.5008352,111.013978 C49.4220659,115.475692 48.4430769,119.86989 48.6006154,124.348484 C48.4205714,129.406593 48.9269451,134.442198 49.3095385,139.477802 C47.7397802,139.342769 46.1756484,139.145846 44.6227692,138.87578 C44.4314725,129.575385 44.5046154,120.263736 44.5946374,110.963341 Z" id="Shape"></path>
                <path d="M207.596308,117.799385 C212.114286,117.720615 216.626637,118.091956 221.138989,118.322637 C232.459253,118.530813 243.757011,119.459165 255.082901,119.644835 C256.191297,133.080615 254.756571,146.67956 251.45389,159.732747 C250.199209,164.267604 249.102066,168.886857 247.059692,173.146022 C233.59578,170.962989 220.176879,168.543648 206.712967,166.360615 C205.12633,166.079297 203.550945,165.747341 201.986813,165.359121 C201.716747,161.876396 201.553582,158.26989 202.667604,154.905319 C206.257231,144.395253 208.384,133.232527 207.669451,122.092308 C207.590681,120.663209 207.556923,119.228484 207.596308,117.799385 Z" id="Shape"></path>
                <path d="M0.69767033,133.423824 C5.94145055,134.172132 11.2414945,134.802286 16.3671209,136.180747 C16.5865495,140.670593 16.4008791,145.166066 16.4346374,149.661538 C16.4065055,153.419956 16.6090549,157.178374 16.3333626,160.931165 C13.1432088,160.374154 10.0768352,159.310769 6.94857143,158.500571 C5.66575824,158.089846 3.84843956,157.836659 3.65714286,156.188132 C1.95235165,148.72756 0.855208791,141.081319 0.69767033,133.423824 Z" id="Shape"></path>
                <path d="M18.251956,136.293275 C26.3764396,137.559209 34.4671648,139.027692 42.5747692,140.372396 C42.7773187,149.785319 42.6197802,159.209495 42.6535385,168.628044 C34.5234286,166.4 26.4214505,164.053802 18.341978,161.651341 C18.0494066,153.206154 18.2238242,144.744088 18.251956,136.293275 Z" id="Shape"></path>
                <path d="M44.6002637,140.766242 C46.2544176,140.974418 47.9704615,141.075692 49.5177143,141.750857 C50.2266374,143.140571 50.3898022,144.727209 50.7498901,146.235077 C52.9329231,156.430066 57.675956,165.888 63.4654945,174.490725 C57.1133187,172.99411 50.868044,171.058637 44.6283956,169.173802 C44.408967,159.710242 44.4764835,150.229802 44.6002637,140.766242 Z" id="Shape"></path>
                <path d="M4.61925275,159.834022 C8.56334066,160.818637 12.4961758,161.887648 16.3333626,163.232352 C16.5809231,167.328352 16.384,171.441231 16.4346374,175.542857 C16.4065055,179.160615 16.6315604,182.789626 16.2264615,186.396132 C13.8858901,186.024791 13.2276044,183.588571 12.3217582,181.76 C9.15973626,174.687648 6.30716484,167.412747 4.61925275,159.834022 Z" id="Shape"></path>
                <path d="M198.144,164.785231 C198.751648,163.789363 199.438066,162.838505 200.141363,161.904527 C200.073846,163.046681 199.955692,164.188835 199.843165,165.330989 C199.274901,165.145319 198.706637,164.965275 198.144,164.785231 Z" id="Shape"></path>
                <path d="M18.2350769,163.794989 C20.4012308,164.239473 22.5336264,164.830242 24.6435165,165.488527 C30.6018462,167.277714 36.6333187,168.796835 42.5466374,170.726681 C42.7885714,179.44756 42.6591648,188.179692 42.6085275,196.906198 C38.7432088,195.809055 35.1535824,193.969231 31.3951648,192.585143 C26.9953407,190.818462 22.528,189.209319 18.2463297,187.178198 C18.1675604,179.38567 18.1619341,171.587516 18.2350769,163.794989 Z" id="Shape"></path>
                <path d="M197.536352,166.692571 C198.374681,166.816352 199.207385,166.990769 200.028835,167.215824 C200.146989,182.72211 200.079473,198.234022 200.062593,213.740308 C195.218286,212.755692 190.537143,211.112791 185.777231,209.813099 C176.572484,207.084308 167.288967,204.619956 158.123604,201.778637 C161.009934,200.192 164.10444,199.016088 166.928879,197.30567 C177.731516,191.122286 187.161319,182.474549 194.002989,172.048879 C195.145143,170.237187 196.270418,168.419868 197.536352,166.692571 Z" id="Shape"></path>
                <path d="M201.930549,167.559033 C210.88211,168.723692 219.738022,170.552264 228.655824,171.958857 C234.541011,173.027868 240.476835,173.809934 246.33389,175.030857 C243.475692,183.17222 239.210901,190.762198 234.574769,198.014593 C229.707956,205.508923 223.957802,212.423736 217.684396,218.775912 C212.333714,217.656264 207.11244,215.951473 201.896791,214.319824 C201.744879,203.646593 201.902418,192.967736 201.846154,182.294505 C201.924923,177.382681 201.66611,172.465231 201.930549,167.559033 Z" id="Shape"></path>
                <path d="M44.589011,171.452484 C48.3755604,172.032 51.9708132,173.399209 55.6504615,174.411956 C58.4298901,175.261538 61.2768352,175.886066 64.0393846,176.797538 C65.7779341,177.292659 66.9707253,178.716132 68.1241319,180.021451 C69.0806154,181.180484 70.234022,182.378901 70.324044,183.965538 C70.6672527,187.71833 70.2846593,191.482374 70.2509011,195.235165 C70.1327473,199.528088 70.6503736,203.821011 70.1721319,208.102681 C61.6481758,204.726857 53.0904615,201.412923 44.6452747,197.845802 C44.4033407,189.057407 44.4877363,180.246505 44.589011,171.452484 Z" id="Shape"></path>
                <path d="M72.2763956,185.012044 C74.8926593,186.795604 77.0925714,189.102418 79.6075604,191.021011 C84.9188571,195.156396 90.804044,198.53222 96.9818022,201.193495 C99.0916923,202.037451 101.224088,202.825143 103.272088,203.826637 C103.328352,209.588044 103.305846,215.355077 103.272088,221.12211 C99.9356484,220.278154 96.8186374,218.798418 93.6284835,217.543736 C86.5336264,214.65178 79.3937582,211.861099 72.2932747,208.986022 C72.0682198,200.996571 72.1694945,193.001495 72.2763956,185.012044 Z" id="Shape"></path>
                <path d="M16.0576703,188.612923 C28.0812308,193.204044 39.9753846,198.138374 51.9370549,202.892659 C86.6349011,216.778549 121.327121,230.681319 156.024967,244.567209 C159.760879,246.170725 163.671209,247.380396 167.294593,249.259604 C162.996044,250.981275 158.449934,251.988396 153.937582,252.967385 C122.390505,259.657143 88.3678242,253.698813 61.0123956,236.60589 C44.6171429,226.506549 30.6074725,212.586901 20.2943297,196.332308 C18.7133187,193.856703 17.1098022,191.369846 16.0576703,188.612923 Z" id="Shape"></path>
                <path d="M148.266198,205.025055 C151.203165,203.866022 154.443956,202.526945 157.617231,203.635341 C171.688791,207.866374 185.884132,211.686681 199.961319,215.889582 C200.214505,221.667868 200.13011,227.463033 200.00633,233.246945 C192.551385,238.552615 184.325626,242.710505 175.919824,246.288879 C173.522989,247.200352 170.867341,248.736352 168.296088,247.492923 C161.651341,244.719121 154.916571,242.170374 148.283077,239.379692 C148.164923,227.930022 148.209934,216.474725 148.266198,205.025055 Z" id="Shape"></path>
                <path d="M105.235692,204.34989 C111.160264,205.655209 117.084835,207.196835 123.178198,207.382505 C126.559648,207.455648 129.946725,207.472527 133.328176,207.337495 C137.682989,207.151824 141.936527,206.127824 146.240703,205.520176 C146.544527,212.21556 146.268835,218.916571 146.358857,225.617582 C146.302593,229.904879 146.538901,234.203429 146.195692,238.485099 C135.955692,234.670418 125.912615,230.343736 115.723253,226.388396 C112.25178,224.959297 108.673407,223.772132 105.308835,222.095473 C104.886857,216.193407 105.005011,210.257582 105.235692,204.34989 Z" id="Shape"></path>
                <path d="M201.958681,216.598505 C206.566681,217.667516 211.140923,218.933451 215.597011,220.531341 C211.467253,224.745495 206.904264,228.577055 201.953055,231.789714 C201.761758,226.725978 201.739253,221.656615 201.958681,216.598505 Z" id="Shape"></path>
            </g>
            <g id="#cb151eff" transform="translate(52.325275, 51.762637)" fill="#CB151E">
                <path d="M55.4647912,4.26479121 C60.4722637,0.911472527 66.7963077,1.06901099 72.5745934,0.500747253 C80.4965275,0.208175824 88.5422418,0.872087912 96.210989,2.93134066 C96.2222418,3.17327473 96.2391209,3.65714286 96.2503736,3.89907692 C85.7178022,8.67586813 75.8829011,15.0618022 67.4827253,23.0343736 C59.0206593,31.0294505 51.9258022,40.357978 45.6636484,50.1478681 C44.2064176,52.5053187 42.8898462,54.9752967 41.1119121,57.1245714 C36.8021099,54.6714725 33.6232088,50.6992527 31.1476044,46.4794725 C29.3359121,43.3455824 27.4060659,40.2792088 25.6562637,37.1115604 C27.1866374,34.1858462 29.3077802,31.653978 31.232,28.9927033 C38.0905495,19.6698022 46.0518681,11.0558242 55.4647912,4.26479121 Z" id="Shape"></path>
                <path d="M99.2323516,5.19876923 C101.876747,4.10162637 104.538022,5.68826374 106.934857,6.69538462 C112.814418,9.63235165 119.087824,12.4736703 123.476396,17.5317802 C120.353758,19.4672527 116.899165,20.7781978 113.737143,22.6292747 C98.0564396,31.4289231 84.0355165,42.917978 71.2861538,55.5379341 C67.3645714,59.4989011 63.3023297,63.3867253 60.2078242,68.0622418 C59.0712967,69.4294505 58.0247912,71.8037802 55.853011,71.2917802 C53.1467253,70.6616264 51.1943736,68.472967 49.3995604,66.4924835 C47.5428571,64.2250549 45.5511209,62.0532747 43.8744615,59.6508132 C42.9292308,58.5761758 43.986989,57.3327473 44.498989,56.3425055 C52.6966154,43.3512088 62.1995604,31.051956 73.7336264,20.8513407 C81.2617143,14.2516044 89.7687912,8.59147253 99.2323516,5.19876923 Z" id="Shape"></path>
                <path d="M39.6209231,10.3694066 C43.008,8.53520879 46.4400879,6.71226374 50.1366154,5.58698901 C47.8241758,8.54083516 44.8253187,10.842022 42.1696703,13.4695385 C37.2353407,18.296967 32.1153407,23.0456264 28.2725275,28.8295385 C27.2991648,30.1123516 26.6183736,31.7496264 25.2117802,32.6104615 C23.552,32.9424176 21.835956,32.8411429 20.1874286,33.2406154 C16.3558681,34.1464615 13.6608352,37.2522198 10.2906374,39.0695385 C10.8589011,37.3084835 11.6353407,35.6036923 12.6930989,34.0789451 C19.4785055,24.0471209 29.0883516,16.1983297 39.6209231,10.3694066 Z" id="Shape"></path>
                <path d="M121.518418,22.4661099 C123.498901,21.7290549 125.456879,20.6769231 127.606154,20.5643956 C129.929846,21.8134505 131.668396,23.883956 133.575736,25.6562637 C137.013451,28.9083077 139.562198,32.9367912 141.902769,37.0159121 C143.585055,40.0316484 145.267341,43.0923956 146.235077,46.4288352 C134.723516,49.4727033 124.219077,55.6785934 115.52633,63.7580659 C108.245802,70.1552527 101.944264,77.5539341 95.2263736,84.5193846 C94.3036484,85.6615385 92.7563956,85.458989 91.4735824,85.2901978 C80.1589451,83.5291429 69.8683077,78.200967 59.7914725,73.0415824 C71.0667253,60.6241758 82.2181978,47.9085714 95.4908132,37.5391648 C103.435253,31.3782857 112.144879,26.1457582 121.518418,22.4661099 Z" id="Shape"></path>
                <path d="M4.98496703,49.4276923 C9.30602198,43.6831648 14.8198681,38.7150769 21.2789451,35.5024176 C22.2973187,37.1453187 23.2256703,38.8388571 24.1877802,40.5211429 C31.1701099,52.5840879 40.7349451,63.2348132 52.3702857,70.9598242 C62.2952088,78.2178462 73.7448791,83.1521758 85.458989,86.7192967 C88.018989,87.5801319 90.7871648,87.8670769 93.2008791,89.1105055 C94.3599121,90.6408791 94.7875165,92.5707253 95.3276484,94.3767912 C97.7638681,103.739077 97.8595165,113.585231 96.6498462,123.138813 C91.9236923,122.722462 87.3044396,121.52967 82.6851868,120.488791 C64.7426813,116.207121 47.104,109.056 32.8017582,97.1787253 C19.0283956,85.8865934 9.23287912,70.1158681 4.25353846,53.0904615 C3.81468132,51.8132747 4.11850549,50.4460659 4.98496703,49.4276923 Z" id="Shape"></path>
                <path d="M137.868659,51.4138022 C140.794374,50.1985055 143.776352,49.0788571 146.921495,48.6006154 C148.935736,52.4715604 149.610901,56.8488791 150.505495,61.0742857 C152.165275,70.2396484 152.030242,79.7257143 150.257934,88.8629451 C149.914725,90.8884396 149.391473,92.8858022 148.609407,94.7931429 C148.046769,91.6986374 147.939868,88.5478681 147.461626,85.4477363 C146.015648,75.8772747 143.196835,66.5768791 139.888527,57.5015385 C139.083956,55.5210549 138.296264,53.5180659 137.868659,51.4138022 Z" id="Shape"></path>
                <path d="M125.259956,59.6676923 C128.331956,57.2033407 131.173275,54.226989 134.971077,52.8822857 C140.237363,61.1136703 142.904264,70.8022857 144.125187,80.4346374 C145.306725,89.8250549 144.715956,99.4292747 142.426022,108.611516 C141.160088,114.384176 137.114725,118.919033 133.50822,123.386374 C130.56,126.79033 127.488,130.154901 123.774593,132.748659 C126.334593,127.696176 128.652659,122.486154 129.828571,116.916044 C132.264791,107.086769 132.444835,96.8749011 131.842813,86.8149451 C131.015736,78.7298462 129.59789,70.6053626 126.492132,63.0547692 C126.053275,61.9351209 125.648176,60.8042198 125.259956,59.6676923 Z" id="Shape"></path>
                <path d="M1.86232967,57.8391209 C3.69652747,60.837978 4.77679121,64.2081758 6.38593407,67.3195604 C12.5918242,79.6975824 21.2958242,90.8490549 31.9915604,99.659956 C46.3388132,111.424703 63.819956,118.851516 81.8074725,122.964396 C86.3760879,124.08967 91.0290989,124.80422 95.653978,125.653802 C95.5245714,129.78356 94.2586374,133.975209 91.7267692,137.272264 C90.8828132,138.622593 89.1273846,138.206242 87.7939341,138.279385 C68.7599121,137.739253 49.7652747,132.675516 33.2406154,123.14444 C20.0467692,115.396923 8.35516484,104.245451 2.22241758,90.0276044 C0.500747253,86.3535824 0.303824176,82.2238242 0.157538462,78.2347253 C-0.0112527473,71.4099341 0.0787692308,64.4726154 1.86232967,57.8391209 Z" id="Shape"></path>
                <path d="M114.333538,68.7655385 C117.141099,66.5037363 119.813626,64.0562637 122.81811,62.0363956 C124.641055,65.355956 125.518769,69.0637363 126.480879,72.6871209 C129.018374,82.5501538 129.941099,92.8014066 129.47411,102.968264 C128.945231,112.448703 127.043516,122.036044 122.61556,130.509363 C120.922022,133.536352 119.076571,136.692747 116.043956,138.555077 C108.42022,143.309363 99.9469011,146.685187 91.1528791,148.513758 C87.3550769,149.183297 83.5291429,150.016 79.6469451,149.745934 C83.0002637,146.595165 87.5745055,145.244835 91.1022418,142.307868 C93.5947253,140.462418 95.6370989,137.99244 96.813011,135.111736 C99.5192967,128.708923 100.233846,121.67033 100.267604,114.783648 C100.02567,107.008 99.0354286,99.1985934 96.5992088,91.7886593 C96.1884835,90.4327033 95.5189451,88.8516923 96.5373187,87.5857582 C101.139692,80.1927033 107.660659,74.2568791 114.333538,68.7655385 Z" id="Shape"></path>
                <path d="M4.38857143,98.8553846 C6.63912088,101.044044 8.34953846,103.699692 10.420044,106.040264 C17.0647912,113.872176 24.756044,120.882637 33.5106813,126.283956 C47.3571868,135.055473 63.6567912,139.432791 79.9338901,140.34989 C82.386989,140.428659 84.8457143,140.496176 87.2875604,140.794374 C84.5362637,144.687824 80.4458901,147.529143 75.9954286,149.160791 C72.2876484,150.561758 68.2704176,149.76844 64.4726154,149.245187 C45.3148132,146.392615 27.4510769,135.831912 15.7200879,120.426901 C11.911033,115.548835 8.80527473,110.158769 6.26778022,104.526769 C5.42945055,102.709451 4.8218022,100.80211 4.38857143,98.8553846 Z" id="Shape"></path>
            </g>
        </g>
    </g>
</svg>