<?xml version="1.0" encoding="UTF-8"?>
<svg width="256px" height="256px" viewBox="0 0 256 256" version="1.1" xmlns="http://www.w3.org/2000/svg" xmlns:xlink="http://www.w3.org/1999/xlink">
    <!-- Generator: Sketch 50.2 (55047) - http://www.bohemiancoding.com/sketch -->
    <title>logo/stord</title>
    <desc>Created with Sketch.</desc>
    <defs></defs>
    <g id="logo/stord" stroke="none" stroke-width="1" fill="none" fill-rule="evenodd">
        <g id="stord-wip" transform="translate(14.000000, 0.000000)" fill="#000000" fill-rule="nonzero">
            <g id="#959699ff">
                <path d="M115.254,4.00577495 C124.743143,0.320679406 135.225714,-0.516348195 145.263143,0.902250531 C150.414857,1.63057325 155.468857,3.22309979 159.925714,5.94615711 C159.453429,6.7070913 158.981143,7.46259023 158.508857,8.21808917 C152.510286,5.04934183 145.762571,3.04917197 138.922571,3.45138004 C137.326111,3.38690186 137.914389,3.1143949 135.730571,3.1143949 C127.500857,3.08178344 119.070286,4.66343949 111.812286,8.66921444 C108.218571,10.729172 104.896286,13.6642038 103.365429,17.5993206 C102.361143,20.1375796 102.442571,22.9204246 102.453429,25.6 C101.671714,25.3010616 100.89,25.0021231 100.113714,24.70862 C99.4134286,21.8659873 99.8422857,18.9309554 100.830286,16.2133333 C103.484857,10.1910828 109.342286,6.36467091 115.254,4.00577495 Z" id="Shape"></path>
                <path d="M104.391429,31.0080679 C105.938571,35.8291295 104.206857,41.0795754 101.568571,45.1831847 C98.6154286,49.6509554 93.9305714,53.292569 88.4748571,53.8089172 C85.4891429,54.183949 82.6228571,53.0860297 79.8325714,52.1946497 C79.6208571,54.6676858 79.5557143,57.1570276 79.8542857,59.6300637 C78.8554286,59.4996178 77.8565714,59.3963482 76.8631429,59.2985138 C76.608,55.42862 76.9011429,51.4717622 78.4265714,47.8681953 C81.8465714,50.2488323 86.108,51.8033121 90.2771429,50.6347346 C96.8891429,48.6454352 101.253714,42.1068365 102.182,35.4758386 C102.806286,33.9322293 103.636857,32.4864544 104.391429,31.0080679 Z" id="Shape"></path>
                <path d="M158.964857,50.977155 C159.779143,50.5532059 160.588,50.1183864 161.396857,49.6726964 C163.606286,50.8412739 166.141429,51.4935032 168.644,51.1619533 C171.580857,50.6673461 174.599143,51.0315074 177.438286,49.9498938 C175.967143,51.2923992 174.794571,52.9392781 174.235429,54.8687898 C174.219143,54.6568153 174.186571,54.227431 174.175714,54.0100212 C169.029429,54.7437792 162.710571,55.4231847 158.964857,50.977155 Z" id="Shape"></path>
                <path d="M88.6051429,71.5441189 C90.0328571,71.5712951 91.4551429,71.6093418 92.8774286,71.7343524 C91.0805714,73.6095117 88.9797143,75.1639915 86.8462857,76.6315074 C82.2482857,79.7622081 77.5471429,82.8059448 72.4225714,85.0072187 C63.2917143,89.089087 52.9177143,91.2577495 43.0214286,89.0184289 C40.8174286,88.5944798 38.7817143,87.3987261 36.5342857,87.2465393 C33.858,88.5020807 31.5997143,90.8066242 30.4054286,93.518811 C29.5802857,95.3124416 30.2045714,97.258259 30.8234286,99.0029724 C53.6397143,99.2692994 76.456,98.9757962 99.2722857,99.1442887 C96.5851429,99.3562633 93.8925714,99.2964756 91.2,99.2856051 C74.0131429,99.2692994 56.8208571,99.3073461 39.6285714,99.2692994 C37.3377143,99.3073461 35.0034286,99.0464544 32.7505714,99.573673 C32.0611429,100.236773 31.6485714,101.117282 31.1654286,101.932569 C27.4685714,102.236943 24.3145714,99.5084501 20.6122857,99.8073885 C19.0325714,99.8671762 17.6374286,100.997707 17.1542857,102.492399 C16.1717143,105.373079 16.7688571,108.460297 17.1488571,111.400764 C12.0351429,115.580467 6.84,120.118896 4.09314286,126.287898 C3.43085714,128.277197 3.20285714,130.386072 3.26257143,132.478641 C2.27457143,132.386242 1.292,132.299278 0.304,132.217749 C0.374571429,129.358811 0.765428571,126.440085 2.11171429,123.880085 C4.85314286,118.461146 9.39685714,114.254268 13.9242857,110.340892 C13.7288571,106.378599 13.1697143,101.50862 16.5462857,98.638811 C19.5048571,96.1385987 23.5871429,97.1821656 27.0017143,97.8887473 C26.98,95.2852654 27.3111429,92.5295966 28.8854286,90.3663694 C30.8234286,87.6759236 33.4997143,85.5670488 36.3931429,83.9853928 C37.2128571,83.969087 37.9294286,84.436518 38.6894286,84.6865393 C46.3871429,87.9042038 55.1271429,87.6704883 63.0528571,85.414862 C72.4497143,82.7298514 81.0702857,77.713121 88.6051429,71.5441189 Z" id="Shape"></path>
                <path d="M170.951143,84.8876433 C171.868571,84.4256476 172.791429,83.9745223 173.708857,83.523397 C179.289429,87.284586 185.928571,89.9206794 192.752286,89.5293418 C198.631429,89.4152017 204.005714,86.6812739 208.880571,83.6212314 C209.407143,84.436518 210.167143,85.148535 210.465714,86.0888323 C210.112857,87.1160934 209.732857,88.1324841 209.385429,89.1651805 C209.005429,88.6107856 208.62,88.0618259 208.245429,87.5183015 C204.461714,89.2575796 200.726857,91.2631847 196.568571,91.9208493 C187.535429,93.5568577 178.008286,90.6163907 170.951143,84.8876433 Z" id="Shape"></path>
                <path d="M214.428571,98.0735456 C216.382857,97.0462845 218.624857,97.8887473 220.573714,98.5029299 C219.895143,99.1551592 219.222,99.8128238 218.559714,100.475924 C216.469714,100.584628 214.374286,100.742251 212.327714,101.204246 C212.99,100.133503 213.652286,99.0627601 214.428571,98.0735456 Z" id="Shape"></path>
                <path d="M7.50228571,146.490701 C8.66942857,146.208068 9.84742857,145.952611 11.0362857,145.740637 C10.3577143,147.148365 9.66285714,148.545223 9.02771429,149.969257 C8.93,150.186667 8.73457143,150.626921 8.63142857,150.844331 C7.96914286,150.855202 7.30142857,150.866072 6.63914286,150.882378 C6.50885714,150.518217 6.24828571,149.795329 6.118,149.436603 C6.59571429,148.458259 7.04628571,147.47448 7.50228571,146.490701 Z" id="Shape"></path>
                <path d="M69.806,176.781316 C71.0057143,178.069469 72.0262857,179.509809 73.0142857,180.966454 C70.0937143,182.401359 67.108,183.787346 64.5728571,185.858174 C61.0388571,188.722548 58.1508571,192.418514 56.2834286,196.576476 C55.632,197.880934 55.5451429,199.34845 55.6754286,200.777919 C55.4637143,200.832272 55.0457143,200.935541 54.834,200.989894 C54.758,200.23983 54.6874286,199.495202 54.6222857,198.750573 C53.8677143,198.940807 53.1131429,199.114735 52.3531429,199.261486 C54.378,191.65758 59.7522857,185.135287 66.4348571,181.107771 C67.108,180.721868 67.7811429,180.335966 68.4542857,179.955499 C68.2208571,179.379363 67.9874286,178.814098 67.754,178.248832 C68.4542857,177.781401 69.1382857,177.292229 69.806,176.781316 Z" id="Shape"></path>
                <path d="M143.596571,181.167558 C144.959143,181.499108 146.294571,181.966539 147.543143,182.618769 C148.156571,182.950318 148.574571,183.526454 149.003429,184.069979 C147.141429,183.222081 145.203429,182.461146 143.596571,181.167558 Z" id="Shape"></path>
                <path d="M73.6657143,205.941401 C74.9685714,210.81138 73.2748571,215.877028 71.3314286,220.339363 C70.2294286,222.899363 68.5845714,225.154989 67.0428571,227.454098 C65.2025714,230.220637 64.9582857,233.650276 64.9691429,236.878811 C64.0191429,236.520085 63.0691429,236.155924 62.13,235.780892 C62.0865714,232.280594 62.8194286,228.660722 64.7302857,225.693079 C67.6997143,222.094947 69.6757143,217.752187 70.8048571,213.246369 C71.1848571,210.610276 71.9665714,208.044841 73.6657143,205.941401 Z" id="Shape"></path>
            </g>
            <g id="#000000fe" transform="translate(0.000000, 5.435244)">
                <path d="M159.925714,0.510912951 C163.921143,2.88611465 166.711429,7.25605096 166.803714,11.9466667 C166.510571,16.072017 164.990571,20.1593206 162.232857,23.2737155 C158.639143,27.4208068 158.384,33.258259 158.834571,38.4652229 C159.149429,40.5849682 160.381714,42.3949045 161.396857,44.2374522 C160.588,44.6831423 159.779143,45.1179618 158.964857,45.5419108 C158.726,45.2103609 158.248286,44.5363907 158.009429,44.2048408 C157.178857,42.8134183 156.570857,41.3132909 155.962857,39.8185987 C154.985714,33.3887049 155.620857,26.1761359 159.969143,21.0235244 C162.949429,17.496051 165.023143,12.4032272 163.041714,7.90284501 C161.907143,5.9081104 160.430571,4.06556263 158.508857,2.78284501 C158.981143,2.02734607 159.453429,1.27184713 159.925714,0.510912951 Z" id="Shape"></path>
                <path d="M99.636,14.1207643 C99.6794286,12.9087049 100.260286,11.8216561 100.830286,10.7780892 C99.8422857,13.4957113 99.4134286,16.4307431 100.113714,19.2733758 C100.89,19.566879 101.671714,19.8658174 102.453429,20.1647558 C102.762857,22.0725265 103.582571,23.8335456 104.391429,25.5728238 C103.636857,27.0512102 102.806286,28.4969851 102.182,30.0405945 C101.769429,27.7686624 101.177714,25.5293418 100.347143,23.3715499 C99.2342857,20.4202123 99.4242857,17.207983 99.636,14.1207643 Z" id="Shape"></path>
                <path d="M119.189714,35.4432272 C119.651143,29.8992781 124.140571,25.15431 129.618,24.3009766 C132.522286,23.8389809 135.480857,24.4749045 137.934571,26.0946072 C141.028857,28.6926539 141.512,33.1169427 140.491429,36.8183439 C135.871714,55.3416561 134.080286,74.8867941 137.874857,93.7253503 C140.263429,93.7905732 142.657429,93.8014437 145.051429,93.7797028 C166.570286,93.7362208 188.083714,93.8231847 209.602571,93.7470913 C209.76,93.4318471 210.069429,92.8013588 210.221429,92.4861146 C211.573143,89.8337155 211.057429,86.6214862 209.635143,84.1104034 L209.385429,83.7299363 C209.732857,82.6972399 210.112857,81.6808493 210.465714,80.6535881 C213.250571,83.5016561 214.591429,87.8607219 213.625143,91.7577919 C213.826,91.9806369 214.227714,92.4154565 214.428571,92.6383015 C213.652286,93.6275159 212.99,94.698259 212.327714,95.7690021 C211.057429,96.0516348 209.803429,96.4864544 208.484286,96.4755839 C149.378,96.4918896 90.2717143,96.4538429 31.1654286,96.4973248 C31.6485714,95.6820382 32.0611429,94.8015287 32.7505714,94.1384289 C35.0034286,93.6112102 37.3377143,93.8721019 39.6285714,93.8340552 C56.8208571,93.8721019 74.0131429,93.8340552 91.2,93.8503609 C93.8925714,93.8612314 96.5851429,93.9210191 99.2722857,93.7090446 C109.760286,75.9140552 117.116,56.0808493 119.189714,35.4432272 Z" id="Shape"></path>
                <path d="M177.438286,44.5146497 C177.590286,44.3624628 177.899714,44.0580892 178.057143,43.9059023 C178.057143,49.53138 175.788,55.0535881 172.096571,59.2495966 C169.214,62.4944374 165.310857,64.5543949 161.380571,66.2556263 C163.584571,68.5492994 165.549714,71.0712527 167.900286,73.2236093 C169.724286,74.973758 171.776286,76.4630149 173.708857,78.0881529 C172.791429,78.5392781 171.868571,78.9904034 170.951143,79.4523992 C165.392286,75.0661571 159.942,70.2722718 156.239714,64.1467516 C156.760857,64.043482 157.282,63.9402123 157.803143,63.8369427 C158.606571,63.6738854 159.41,63.4782166 160.208,63.2499363 C166.271714,61.2497665 171.618857,56.6243737 173.839143,50.5532059 C173.942286,50.2705732 174.137714,49.7107431 174.235429,49.4335456 C174.794571,47.504034 175.967143,45.857155 177.438286,44.5146497 Z" id="Shape"></path>
                <path d="M76.8631429,53.8632696 C77.8565714,53.961104 78.8554286,54.0643737 79.8542857,54.1948195 C80.0551429,55.0427176 80.332,55.87431 80.6577143,56.6841614 C82.2537143,59.7224628 85.2394286,61.7498089 88.388,62.9129512 C90.5105714,63.7010616 92.7742857,63.9021656 95.0162857,64.0869639 C94.3214286,64.8424628 93.6048571,65.5762208 92.8774286,66.2991083 C91.4551429,66.1740977 90.0328571,66.136051 88.6051429,66.1088747 C86.4934286,66.1088747 84.74,64.7228875 83.0245714,63.6575796 C79.6805714,61.4671762 77.178,57.9288323 76.8631429,53.8632696 Z" id="Shape"></path>
                <path d="M220.573714,93.0676858 C221.485714,93.9481953 222.414,94.921104 222.631143,96.2255626 C223.206571,99.2747346 221.654,102.122803 220.742,104.938259 C222.283714,107.590658 224.428,109.906072 225.568,112.808493 C227.017429,116.172909 228.005429,119.972144 227.169429,123.624628 C226.528857,127.152102 224.346571,130.098004 222.381429,133.000425 C220.519429,135.766964 217.674857,137.745393 216.008286,140.647813 C215.156,143.57741 215.492571,147.023355 213.332,149.442038 C211.024857,152.186837 207.778571,153.773928 204.700571,155.453418 C201.313143,157.252484 199.966857,161.328917 196.508857,163.013843 C194.999714,163.780212 193.376571,164.524841 191.639429,164.427006 C186.417143,164.149809 181.243714,162.236603 175.983429,163.002972 C167.585429,163.780212 159.648857,167.28051 152.597143,171.775456 C150.414857,173.052739 148.878571,175.090955 147.543143,177.183524 C146.294571,176.531295 144.959143,176.063864 143.596571,175.732314 C145.203429,177.025902 147.141429,177.786837 149.003429,178.634735 C152.331143,180.634904 154.524286,184.222166 155.387429,187.956178 C156.049714,191.972824 155.61,196.119915 154.220286,199.940892 C152.640571,199.728917 151.022857,199.609342 149.459429,200.000679 C146.305429,200.712696 142.972286,199.701741 139.878,200.783355 C134.503714,202.446539 130.302,206.80017 127.826571,211.740807 C126.605143,213.822505 127.756,216.127049 128.548571,218.127219 C130.041429,221.861231 131.138,226.051805 129.922,230.030403 C128.499714,235.128662 125.579143,240.004076 121.187429,243.069554 C114.749143,247.901486 106.568286,249.494013 98.7348571,250.254947 C93.3062857,250.260382 87.8125714,250.640849 82.4817143,249.379873 C75.5494286,248.151507 68.1231429,244.939278 64.7954286,238.335456 C63.3731429,235.895032 61.9182857,233.275244 62.13,230.345648 C63.0691429,230.720679 64.0191429,231.084841 64.9691429,231.443567 C65.2785714,232.834989 65.8485714,234.161189 66.5705714,235.384119 C67.5857143,236.916858 68.9157143,238.226752 70.4194286,239.275754 C74.366,242.324926 79.3168571,243.656561 84.1482857,244.515329 C88.0894286,245.259958 92.112,244.939278 96.0911429,244.922972 C101.123429,244.988195 106.112286,243.971805 110.916571,242.531465 C116.410286,240.781316 121.931143,237.971295 125.269714,233.085011 C127.880857,229.285775 128.038286,224.165775 126.181714,220.018684 C125.595429,218.600085 124.851714,217.252144 124.292571,215.822675 C123.798571,211.034225 125.432571,206.229469 128.445429,202.522633 C132.147714,197.842887 137.717429,194.174098 143.846286,194.190403 C146.734286,194.076263 149.535429,194.875244 152.298571,195.625308 C152.553714,194.016476 152.814286,192.407643 152.846857,190.77707 C152.591714,188.396433 152.043429,185.966879 150.615714,183.999321 C147.706,179.906582 142.576,178.5369 137.847714,177.97707 C138.558857,177.19983 139.27,176.428025 140.008286,175.683397 C141.121143,174.601783 142.255714,173.547346 143.374,172.471168 C151.440857,165.7369 160.778,160.029894 171.222571,158.0569 C177.617429,156.850276 184.321714,157.209002 190.499429,159.296136 C191.688286,159.529851 193.050857,160.470149 194.185429,159.589639 C197.442571,157.437282 200.868,154.067431 200.075429,149.768153 C199.266571,149.746412 198.463143,149.735541 197.659714,149.730106 C177.872571,149.681189 158.085429,149.7138 138.292857,149.724671 C134.872857,149.643142 131.447429,149.724671 128.027429,149.719236 C118.826,166.307601 114.059714,184.950488 111.171714,203.587941 C110.335714,208.561189 110.324857,213.833376 107.887429,218.382675 C106.383714,221.3938 103.902857,223.904883 100.868286,225.366964 C99.0062857,225.905053 97.0737143,226.214862 95.1357143,226.149639 C91.4768571,225.524586 88.3174286,222.741741 87.4108571,219.110998 C85.9451429,213.675754 88.3011429,208.316603 89.3271429,203.033546 C93.1054286,185.608153 95.076,167.253333 90.858,149.7138 C68.894,149.686624 46.9354286,149.724671 24.9714286,149.697495 C23.4351429,149.719236 21.8825714,149.583355 20.3625714,149.838811 C19.6731429,149.898599 19.3311429,150.643227 19.266,151.251975 C18.9077143,153.083652 19.2551429,154.975117 19.9554286,156.681783 C20.216,157.203567 20.4874286,157.719915 20.7751429,158.230828 C21.09,158.779788 21.4211429,159.323312 21.7468571,159.866837 C26.8822857,156.953546 32.5334286,154.551168 38.5428571,154.638132 C43.472,154.485945 48.1894286,156.067601 52.7765714,157.681868 C58.3897143,160.649512 63.5305714,164.51397 67.8354286,169.199151 C68.4922857,169.911168 69.1437143,170.62862 69.806,171.346072 C69.1382857,171.856985 68.4542857,172.346157 67.754,172.813588 C67.9874286,173.378854 68.2208571,173.944119 68.4542857,174.520255 C67.7811429,174.900722 67.108,175.286624 66.4348571,175.672527 C65.4034286,173.770191 64.5185714,171.699363 62.8737143,170.220977 C57.9825714,166.041274 52.4182857,162.454013 46.1157143,160.861486 C42.9671429,159.834225 39.6285714,160.029894 36.366,160.051635 C33.0002857,160.051635 30.0145714,161.850701 26.79,162.557282 C24.9225714,162.94862 23.0334286,163.263864 21.1877143,163.774777 C19.3637143,161.915924 17.9848571,159.703779 16.9697143,157.317707 C16.0468571,155.274055 13.8537143,154.328323 12.1545714,153.045605 C10.5531429,151.882463 8.64228571,151.224798 7.07885714,150.007304 C5.42314286,148.49087 5.45571429,145.979788 6.118,144.001359 C6.24828571,144.360085 6.50885714,145.082972 6.63914286,145.447134 C7.30142857,145.430828 7.96914286,145.419958 8.63142857,145.409087 C8.67485714,146.322208 8.82685714,147.224459 8.968,148.126709 C11.248,148.82242 13.6854286,148.81155 15.9817143,148.181062 C16.758,147.990828 17.5288571,147.773418 18.2997143,147.556008 C19.3962857,147.224459 20.5308571,146.969002 21.6817143,146.996178 C80.8422857,147.017919 140.002857,147.001614 199.163429,147.007049 C200.032,147.023355 200.900571,147.066837 201.774571,147.132059 C204.320571,148.061486 207.170571,149.192017 209.863143,148.121274 C211.394,147.670149 211.969429,146.001529 212.213714,144.588365 C212.675143,141.745732 212.23,138.859618 212.186571,136.000679 C216.230857,133.440679 220.584571,130.804586 222.918857,126.44552 C224.732,123.380042 224.96,119.564501 223.814571,116.221826 C223.201143,114.276008 222.245714,112.449766 221.116571,110.759406 C219.960286,108.933163 218.521714,107.30259 216.942,105.84051 C218.266571,102.74242 219.960286,99.617155 219.775714,96.144034 C219.471714,95.8668365 218.863714,95.3178769 218.559714,95.0406794 C219.222,94.3775796 219.895143,93.7199151 220.573714,93.0676858 Z" id="Shape"></path>
                <path d="M41.8054286,104.73172 C46.284,104.046879 51.1805714,103.883822 55.3171429,105.987261 C58.3191429,107.558047 59.1985714,111.145308 59.0628571,114.286879 C55.86,114.401019 52.6571429,114.558641 49.4651429,114.852144 C49.0417143,113.379193 48.7865714,111.460552 47.1145714,110.884416 C44.9648571,110.112611 41.6425714,110.476773 40.9802857,113.080255 C40.7902857,114.852144 42.9562857,115.232611 44.2482857,115.607643 C48.9005714,116.803397 54.4268571,117.558896 57.3582857,121.847304 C58.0911429,123.831168 58.0911429,125.983524 57.8088571,128.059788 C56.1857143,134.386412 49.8017143,138.45741 43.4665714,138.479151 C39.7751429,138.555244 35.872,138.718301 32.4574286,137.076858 C29.526,135.66913 27.9517143,132.337325 27.9028571,129.190318 C27.8811429,128.467431 27.8865714,127.744544 27.8865714,127.027091 C31.1111429,126.864034 34.3248571,126.630318 37.5494286,126.43465 C37.7122857,127.255372 37.8642857,128.081529 38.0705714,128.896815 C38.6622857,132.212314 42.9997143,132.619958 45.5185714,131.375287 C47.2068571,130.608917 47.9397143,128.744628 47.576,126.978174 C45.8334286,125.124756 43.2114286,124.793206 40.8825714,124.162718 C38.2117143,123.515924 35.6005714,122.494098 33.402,120.820042 C31.3554286,118.847049 30.6605714,115.803312 31.5128571,113.107431 C32.7831429,108.503779 37.24,105.427431 41.8054286,104.73172 Z" id="Shape"></path>
                <path d="M102.762857,108.851635 C107.274,104.927389 113.625429,103.720764 119.428571,104.519745 C123.038571,104.916518 126.746286,106.503609 128.803714,109.628875 C131.186857,113.167219 131.208571,117.700212 130.437714,121.754904 C130.101143,123.537665 129.596286,125.287813 128.972,126.99448 C127.49,130.755669 124.748571,134.016815 121.247143,136.044161 C116.236571,138.962887 110.037143,139.044416 104.510857,137.870403 C99.0388571,136.669214 95.5374286,131.054607 95.76,125.635669 C95.798,124.222505 95.8957143,122.809342 96.1508571,121.423355 C96.9217143,116.672951 99.028,111.993206 102.762857,108.851635 Z M110.894857,113.227006 C108.224,114.781486 107.187143,117.928493 106.508571,120.76569 C106.231714,122.390828 106.128571,124.043142 106.079714,125.695456 C106.448857,127.434735 107.018857,129.407728 108.777714,130.223015 C112.469143,132.016645 117.132286,130.081699 118.804286,126.391168 C119.330857,124.972569 119.759714,123.515924 119.955143,122.015796 L120.199429,122.032102 C120.318857,119.423185 121.057143,116.439236 119.423143,114.140127 C117.447143,111.585563 113.457143,111.623609 110.894857,113.227006 Z" id="Shape"></path>
                <path d="M65.2514286,104.981741 C75.6308571,104.938259 86.0048571,104.976306 96.3842857,104.965435 C95.9391429,107.704798 95.4614286,110.438726 95.0054286,113.178089 C91.5257143,113.18896 88.046,113.161783 84.5608571,113.19983 C84.1428571,116.004416 83.6325714,118.792696 83.182,121.586412 C82.8997143,123.21155 82.6228571,124.831253 82.3514286,126.456391 C81.7488571,130.299108 81.0214286,134.120085 80.4297143,137.957367 C77.0042857,137.984544 73.5842857,137.957367 70.1642857,137.979108 C70.5551429,135.136476 71.0817143,132.310149 71.5594286,129.478386 C72.0262857,126.934692 72.4008571,124.374692 72.8351429,121.825563 C73.3182857,118.944883 73.8285714,116.069639 74.2845714,113.183524 C70.8645714,113.178089 67.4391429,113.194395 64.0191429,113.167219 C64.2797143,110.416985 64.8062857,107.704798 65.2514286,104.981741 Z" id="Shape"></path>
                <path d="M139.677143,104.97087 C145.963429,104.96 152.255143,104.94913 158.541429,104.97087 C161.272,105.052399 164.426,105.18828 166.429143,107.324331 C168.454,109.40603 168.454,112.623694 167.797143,115.276093 C167.129429,117.961104 165.267429,120.146072 163.101429,121.782081 C161.776857,122.363652 160.425143,122.896306 159.057143,123.369172 C161.212286,124.483397 162.667143,126.510743 163.492286,128.755499 C164.578,131.810106 165.625714,134.881019 166.662571,137.957367 C162.781143,137.973673 158.905143,137.995414 155.029143,137.941062 C153.802286,134.533163 152.532,131.141571 151.261714,127.749979 C150.898,126.929257 150.583143,126.037877 149.937143,125.391083 C149.041429,124.684501 147.841714,124.679066 146.777714,124.44535 C146.560571,125.526964 146.354286,126.619448 146.180571,127.717367 C145.616,131.136136 145.008,134.549469 144.454286,137.973673 C141.012571,137.962803 137.570857,137.995414 134.129143,137.951932 C134.558,135.114735 135.100857,132.304713 135.524286,129.467516 C136.002,126.934692 136.403714,124.390998 136.827143,121.852739 C137.777143,116.227261 138.721714,110.596348 139.677143,104.97087 Z M148.905714,111.650786 C148.498571,113.841189 148.129429,116.042463 147.782,118.243737 C150.469143,118.167643 153.351714,118.635074 155.848857,117.406709 C157.7,116.390318 158.568571,113.020467 156.256,112.042123 C153.894571,111.286624 151.343143,111.797537 148.905714,111.650786 Z" id="Shape"></path>
                <path d="M176.401429,104.998047 C182.030857,104.938259 187.665714,104.94913 193.295143,104.981741 C196.65,104.954565 200.205714,106.134013 202.252286,108.933163 C204.689714,112.063864 204.673429,116.227261 204.407429,119.993885 C203.989429,122.733248 203.408571,125.461741 202.371714,128.038047 C200.754,131.641614 197.904,134.761444 194.304857,136.435499 C191.596,137.604076 188.610286,137.989979 185.684286,137.979108 C180.771429,137.962803 175.864,137.989979 170.951143,137.957367 C171.390857,134.717962 171.982571,131.511168 172.525429,128.293503 C172.878286,126.33138 173.176857,124.363822 173.497143,122.396263 C174.474286,116.596858 175.511143,110.808323 176.401429,104.998047 Z M185.467143,112.487813 C184.929714,115.721783 184.392286,118.955754 183.827714,122.189724 C183.659429,123.341996 183.458571,124.488832 183.284857,125.641104 C183.035143,127.266242 182.682286,128.88051 182.492286,130.521953 C184.560571,130.565435 186.650571,130.467601 188.686286,130.049087 C190.608,129.527304 191.954286,127.826072 192.573143,125.994395 L192.866286,126.016136 C193.110571,124.733418 193.452571,123.467006 193.506857,122.157113 L193.886857,122.162548 C193.897714,119.43949 194.923714,116.19465 192.942286,113.911847 C190.906571,112.139958 187.980571,112.395414 185.467143,112.487813 Z" id="Shape"></path>
                <path d="M0.304,126.782505 C1.292,126.864034 2.27457143,126.950998 3.26257143,127.043397 C3.42542857,127.641274 3.61542857,128.233715 3.84342857,128.815287 C5.662,132.755839 8.816,135.826752 11.7528571,138.941146 C11.5085714,139.392272 11.2697143,139.843397 11.0362857,140.305393 C9.84742857,140.517367 8.66942857,140.772824 7.50228571,141.055456 C7.63257143,140.185817 8.15371429,139.066157 7.23085714,138.446539 C4.66857143,136.01155 2.28542857,133.163482 1.22685714,129.733843 C1.16714286,129.532739 1.04228571,129.125096 0.982571429,128.918556 C0.716571429,128.21741 0.510285714,127.499958 0.304,126.782505 Z" id="Shape"></path>
                <path d="M52.3531429,193.826242 C53.1131429,193.67949 53.8677143,193.505563 54.6222857,193.315329 C54.6874286,194.059958 54.758,194.804586 54.834,195.55465 C55.0457143,195.500297 55.4637143,195.397028 55.6754286,195.342675 C60.1702857,194.01104 65.056,193.559915 69.5617143,195.092654 C70.6528571,195.989469 71.7277143,196.913461 72.7157143,197.935287 C73.0305714,198.78862 73.3617143,199.641953 73.6657143,200.506157 C71.9665714,202.609597 71.1848571,205.175032 70.8048571,207.811125 C70.87,206.0338 71.022,203.957537 69.578,202.642208 C67.6725714,200.919236 65.1808571,199.549554 62.5425714,199.723482 C60.5937143,199.815881 58.6937143,199.375626 56.81,198.967983 C54.8828571,198.419023 52.9828571,199.34845 51.0937143,199.652824 C51.2945714,197.712442 51.6854286,195.804671 52.0328571,193.891465 L52.3531429,193.826242 Z" id="Shape"></path>
            </g>
        </g>
    </g>
</svg>