<?xml version="1.0" encoding="UTF-8" ?>
<!DOCTYPE svg PUBLIC "-//W3C//DTD SVG 1.1//EN" "http://www.w3.org/Graphics/SVG/1.1/DTD/svg11.dtd">
<svg width="160pt" height="160pt" viewBox="0 0 160 160" version="1.1" xmlns="http://www.w3.org/2000/svg">
<g id="#020102ff">
<path fill="#020102" opacity="1.00" d=" M 69.35 6.22 C 84.64 3.96 100.56 6.78 114.28 13.83 C 129.67 21.73 142.17 35.10 149.05 50.97 C 154.93 64.34 156.87 79.45 154.48 93.87 C 149.96 125.36 122.67 151.85 91.02 155.35 C 77.39 156.17 62.96 156.19 50.61 149.54 C 24.71 138.65 6.38 112.14 5.24 84.08 C 4.04 62.92 12.46 41.42 27.72 26.73 C 38.95 15.69 53.76 8.39 69.35 6.22 M 53.87 14.71 C 35.60 21.97 20.63 37.15 13.70 55.56 C 13.28 55.24 12.85 54.92 12.44 54.60 C 11.51 61.78 9.55 68.78 8.69 75.97 C 8.57 78.33 8.01 81.17 9.92 83.01 C 11.79 83.73 13.81 83.90 15.77 84.28 C 18.50 89.83 21.64 95.22 25.54 100.05 C 26.64 104.52 30.17 107.96 34.18 109.97 C 37.78 110.81 41.52 110.03 45.15 109.76 C 48.92 110.94 52.76 111.90 56.61 112.76 C 52.12 115.35 46.99 114.47 42.11 114.19 C 33.90 115.12 25.63 114.35 17.41 114.96 C 24.73 129.59 38.03 140.85 53.09 146.96 C 68.19 153.03 85.38 153.86 100.93 149.00 C 118.77 143.60 134.50 131.01 143.08 114.40 C 138.88 114.35 134.65 114.45 130.49 115.13 C 128.86 117.78 126.06 117.95 123.30 117.23 C 125.94 118.52 128.14 120.52 129.75 122.97 C 127.87 123.49 126.01 124.25 124.04 124.32 C 121.30 123.62 118.87 121.89 116.00 121.67 C 112.91 121.57 110.03 123.00 106.97 123.17 C 104.23 122.71 101.81 121.11 99.03 120.80 C 96.07 120.44 93.09 120.61 90.12 120.75 C 88.52 122.35 87.08 124.33 84.86 125.11 C 83.36 125.44 81.89 124.74 80.42 124.53 C 81.64 123.11 82.91 121.75 84.14 120.35 C 80.11 120.90 75.62 119.75 72.01 122.00 C 68.63 124.33 63.16 123.68 60.64 120.40 C 64.26 119.40 68.92 120.48 71.57 117.26 C 74.39 114.64 78.27 114.49 81.91 114.56 C 81.14 112.06 80.21 109.57 79.96 106.94 C 79.98 103.62 81.19 100.30 80.17 97.00 C 77.62 96.35 75.00 95.99 72.38 95.81 L 72.29 96.64 C 68.45 101.25 65.81 106.67 63.15 112.00 C 66.58 112.36 70.01 112.70 73.43 113.16 C 70.82 117.53 65.40 116.15 61.13 116.63 C 59.28 118.34 57.33 120.17 54.77 120.65 C 50.97 121.72 45.89 121.42 44.16 125.77 C 43.09 124.80 42.03 123.83 40.96 122.88 C 40.72 125.65 42.77 130.35 38.81 131.10 C 35.83 131.85 34.38 128.84 34.03 126.42 C 34.75 125.97 35.46 125.53 36.17 125.08 C 36.49 126.91 36.92 128.83 38.61 129.91 C 38.80 127.67 38.75 125.40 39.13 123.19 C 40.24 121.13 42.79 121.74 44.69 121.58 C 45.93 119.85 46.97 117.90 48.64 116.54 C 51.78 115.01 55.33 114.31 58.12 112.09 C 59.10 111.36 59.59 110.19 60.12 109.13 C 62.86 102.60 65.78 96.09 67.16 89.11 C 68.33 83.31 72.81 78.08 71.40 71.92 C 70.99 67.35 70.97 62.05 67.13 58.85 C 65.08 57.26 63.15 55.52 61.32 53.69 C 61.30 53.25 61.27 52.37 61.26 51.93 C 63.70 50.32 66.14 52.75 68.35 53.64 C 66.58 51.37 64.75 49.14 63.09 46.78 C 65.61 44.21 68.66 45.94 71.53 46.70 C 73.09 49.15 75.68 49.81 78.25 48.48 C 79.77 49.28 81.21 50.31 82.89 50.75 C 83.84 52.24 84.63 53.96 86.20 54.91 C 88.35 54.83 89.89 53.17 91.47 51.92 C 91.87 51.98 92.68 52.09 93.09 52.15 C 92.28 53.48 91.46 54.80 90.64 56.12 C 89.35 58.19 87.57 60.31 87.83 62.90 C 88.74 66.63 91.21 69.69 93.05 72.99 C 96.66 78.92 98.63 85.76 102.87 91.33 C 105.24 86.23 105.99 80.53 105.66 74.96 C 106.46 78.54 106.73 82.31 105.76 85.89 C 105.03 89.49 102.46 93.08 104.41 96.75 C 107.54 102.64 109.23 109.13 109.53 115.78 C 113.75 116.04 117.95 116.44 122.17 116.56 C 119.85 115.84 117.50 115.23 115.14 114.62 C 116.06 113.92 116.98 113.24 117.90 112.56 C 120.45 112.20 123.21 112.00 125.24 110.21 C 129.23 106.95 132.79 103.18 136.94 100.10 C 138.39 98.17 139.67 96.05 141.51 94.45 C 143.88 93.34 146.68 93.96 149.09 93.00 C 151.82 91.39 151.38 87.77 151.70 85.07 C 153.08 64.87 145.48 44.20 131.06 29.93 C 120.81 19.84 107.54 12.48 93.20 10.42 C 80.01 8.11 66.23 9.48 53.87 14.71 Z" />
<path fill="#020102" opacity="1.00" d=" M 77.40 12.33 C 77.75 12.23 78.46 12.02 78.82 11.92 C 81.66 16.71 83.33 22.08 85.68 27.11 C 87.52 22.20 88.47 17.02 90.17 12.07 C 93.17 15.20 94.31 19.46 96.35 23.17 C 97.27 20.37 98.10 17.54 98.94 14.71 C 99.67 14.88 101.12 15.23 101.85 15.40 C 101.12 20.96 99.95 26.54 97.68 31.69 C 97.37 31.63 96.76 31.52 96.45 31.46 C 94.12 27.86 92.67 23.75 90.62 19.98 C 90.31 23.25 89.79 26.49 89.41 29.74 C 87.52 29.57 85.61 29.55 83.77 29.11 C 82.21 28.03 80.99 26.54 79.65 25.21 C 76.65 26.84 74.18 30.65 70.33 29.58 C 67.08 28.27 64.58 25.61 61.71 23.66 C 62.60 26.06 63.41 28.50 64.18 30.94 C 63.12 31.33 62.06 31.70 60.99 32.07 C 59.28 26.84 57.67 21.57 56.22 16.26 C 59.53 15.43 63.50 13.01 66.69 15.32 C 69.33 17.10 68.24 20.55 68.51 23.20 C 68.36 25.21 70.63 26.05 71.77 27.34 C 73.86 22.42 75.08 17.15 77.40 12.33 M 77.56 17.04 C 77.21 18.80 76.83 20.55 76.45 22.30 C 77.64 22.49 78.84 22.66 80.04 22.83 C 79.21 20.90 78.38 18.97 77.56 17.04 M 61.08 18.64 C 61.15 19.46 61.28 21.10 61.34 21.92 C 62.35 21.77 63.37 21.61 64.38 21.45 C 64.56 20.76 64.90 19.36 65.08 18.66 C 63.75 18.65 62.41 18.64 61.08 18.64 Z" />
<path fill="#020102" opacity="1.00" d=" M 40.51 26.91 C 43.34 22.90 48.03 21.00 51.94 18.27 C 52.22 18.57 52.79 19.17 53.07 19.47 C 51.69 20.60 50.29 21.71 48.97 22.91 C 49.16 23.27 49.52 23.97 49.70 24.32 C 51.83 28.02 54.29 31.52 56.35 35.25 C 55.24 35.44 54.13 35.60 53.02 35.76 C 51.13 32.74 49.18 29.76 47.19 26.81 C 46.90 26.36 46.30 25.47 46.00 25.02 C 44.17 25.67 42.35 26.31 40.51 26.91 Z" />
<path fill="#020102" opacity="1.00" d=" M 107.29 17.78 C 110.77 19.34 113.72 21.81 115.85 24.97 C 114.07 28.04 112.69 31.72 109.50 33.62 C 106.54 35.34 103.02 34.21 100.04 33.17 C 99.64 33.02 98.86 32.72 98.47 32.57 C 101.37 27.62 104.27 22.66 107.29 17.78 M 105.50 24.51 C 104.32 26.61 101.98 29.36 104.09 31.65 L 103.64 32.38 C 106.89 32.94 110.36 31.75 111.44 28.38 C 113.04 26.06 110.92 23.96 109.48 22.26 C 109.65 21.89 109.99 21.15 110.16 20.78 C 108.35 21.65 106.50 22.67 105.50 24.51 Z" />
<path fill="#020102" opacity="1.00" d=" M 32.98 36.77 C 31.19 32.82 35.35 29.04 39.10 28.77 C 38.93 29.29 38.58 30.34 38.40 30.87 C 37.30 31.38 36.21 31.91 35.11 32.44 C 35.56 33.64 36.02 34.84 36.49 36.03 C 40.15 35.68 45.28 33.37 47.62 37.52 C 50.05 41.65 46.21 46.63 41.77 46.73 C 41.59 45.70 41.41 44.67 41.24 43.64 C 42.78 42.37 44.22 40.98 45.39 39.36 C 41.32 38.81 35.20 41.60 32.98 36.77 Z" />
<path fill="#020102" opacity="1.00" d=" M 114.62 33.07 C 116.33 34.13 117.97 35.29 119.60 36.46 C 118.42 37.13 117.23 37.80 116.05 38.47 C 115.28 37.47 114.53 36.47 113.79 35.46 C 114.07 34.67 114.35 33.87 114.62 33.07 Z" />
<path fill="#020102" opacity="1.00" d=" M 117.89 42.96 C 120.89 39.27 125.28 37.07 128.98 34.16 C 129.37 34.71 130.14 35.79 130.52 36.34 C 126.41 38.03 122.91 40.83 119.66 43.82 C 119.97 44.36 120.58 45.44 120.89 45.98 C 121.53 47.04 122.15 48.18 123.20 48.91 C 127.63 47.57 130.74 43.72 134.76 41.53 C 135.11 42.15 135.81 43.41 136.16 44.03 C 130.89 46.26 126.39 49.95 121.01 51.96 C 119.32 49.37 115.83 46.29 117.89 42.96 Z" />
<path fill="#020102" opacity="1.00" d=" M 35.11 43.02 C 35.88 43.28 37.43 43.80 38.20 44.05 C 36.14 45.55 34.11 47.09 32.03 48.58 C 33.01 46.70 34.07 44.87 35.11 43.02 Z" />
<path fill="#020102" opacity="1.00" d=" M 137.35 49.39 C 138.73 48.71 139.85 49.79 140.40 50.98 C 135.76 52.15 131.36 54.05 127.07 56.13 C 127.55 57.01 128.03 57.90 128.51 58.78 C 129.16 59.97 129.83 61.15 130.50 62.33 C 129.46 63.01 128.41 63.70 127.36 64.38 C 126.08 61.42 124.86 58.43 123.83 55.38 C 128.35 53.43 132.65 50.91 137.35 49.39 Z" />
<path fill="#020102" opacity="1.00" d=" M 19.99 51.98 C 23.95 53.99 27.93 55.97 31.91 57.95 C 33.32 55.50 34.83 53.06 37.12 51.33 C 38.53 55.46 35.96 59.22 34.38 62.86 C 28.95 60.74 23.79 58.00 18.79 55.01 C 19.19 54.00 19.59 52.99 19.99 51.98 Z" />
<path fill="#020102" opacity="1.00" d=" M 141.81 59.92 C 142.84 59.06 143.98 59.77 144.78 60.56 C 141.33 62.83 137.87 65.10 134.78 67.84 C 136.32 68.13 137.87 68.42 139.42 68.66 C 141.73 69.03 144.09 69.17 146.36 69.76 C 147.04 70.99 147.50 72.31 148.02 73.61 C 141.91 72.92 135.81 72.11 129.72 71.24 C 129.48 70.68 129.00 69.56 128.76 69.00 C 133.06 65.91 137.24 62.60 141.81 59.92 Z" />
<path fill="#020102" opacity="1.00" d=" M 24.25 68.50 C 22.88 65.75 24.19 61.59 27.72 61.62 C 26.60 63.93 25.45 66.23 24.25 68.50 Z" />
<path fill="#020102" opacity="1.00" d=" M 13.73 69.08 C 19.51 69.31 25.14 70.73 30.73 72.15 C 30.68 73.37 30.63 74.59 30.58 75.81 C 25.37 74.54 19.98 73.93 14.91 72.15 C 14.45 71.15 14.06 70.13 13.73 69.08 Z" />
<path fill="#020102" opacity="1.00" d=" M 31.05 116.84 C 33.98 116.34 36.96 116.35 39.89 116.87 C 39.75 117.52 39.49 118.82 39.35 119.48 C 36.79 119.46 34.23 119.45 31.67 119.46 C 31.51 118.81 31.20 117.50 31.05 116.84 Z" />
<path fill="#020102" opacity="1.00" d=" M 53.19 122.90 C 55.08 122.81 56.98 122.66 58.88 122.81 C 59.85 123.88 60.55 125.15 61.34 126.36 C 58.77 126.55 56.24 126.01 53.76 125.38 C 53.62 124.76 53.33 123.52 53.19 122.90 Z" />
<path fill="#020102" opacity="1.00" d=" M 85.41 128.36 C 87.83 127.24 90.27 126.15 92.73 125.11 C 93.22 126.42 93.70 127.73 94.17 129.05 C 91.29 129.92 88.34 130.61 85.34 130.98 C 85.36 130.33 85.39 129.02 85.41 128.36 Z" />
<path fill="#020102" opacity="1.00" d=" M 98.81 125.48 C 101.12 125.50 103.44 125.52 105.75 125.50 C 105.75 126.10 105.76 127.31 105.76 127.92 C 103.78 128.28 101.73 129.10 99.72 128.49 C 99.38 127.49 99.07 126.49 98.81 125.48 Z" />
<path fill="#020102" opacity="1.00" d=" M 39.73 134.79 C 42.24 131.27 44.88 127.60 48.78 125.50 C 48.01 126.97 47.19 128.42 46.34 129.85 C 48.67 129.52 51.01 129.25 53.36 129.11 C 51.64 130.25 49.82 131.23 48.01 132.23 C 47.64 134.62 47.18 136.99 46.54 139.32 C 45.41 137.22 45.40 134.80 45.21 132.48 C 43.38 133.24 41.57 134.07 39.73 134.79 Z" />
<path fill="#020102" opacity="1.00" d=" M 66.11 127.77 C 69.33 127.90 72.54 128.18 75.76 128.39 C 75.75 128.98 75.75 130.15 75.74 130.73 C 72.64 130.78 69.53 130.78 66.43 130.73 C 66.35 129.99 66.19 128.51 66.11 127.77 Z" />
<path fill="#020102" opacity="1.00" d=" M 111.44 129.30 C 116.63 126.50 120.67 136.63 115.63 138.85 C 113.11 140.18 109.66 138.62 109.23 135.75 C 108.89 133.49 108.87 130.26 111.44 129.30 M 111.93 130.45 C 111.59 132.12 110.36 133.92 111.26 135.62 C 112.08 137.40 115.57 138.36 116.09 135.90 C 117.03 133.01 114.60 130.85 111.93 130.45 Z" />
<path fill="#020102" opacity="1.00" d=" M 49.23 139.93 C 51.41 136.60 53.07 132.54 56.89 130.74 C 55.30 134.33 53.11 137.59 50.92 140.84 C 50.50 140.61 49.66 140.16 49.23 139.93 Z" />
<path fill="#020102" opacity="1.00" d=" M 100.62 135.61 C 102.12 132.93 105.11 132.05 107.79 131.06 C 106.95 135.26 107.94 140.72 104.13 143.63 C 104.23 140.53 104.57 137.46 105.00 134.40 C 103.55 134.83 102.09 135.24 100.62 135.61 Z" />
<path fill="#020102" opacity="1.00" d=" M 59.66 133.56 C 62.82 132.35 67.81 134.79 65.71 138.65 C 64.25 143.83 58.14 140.14 54.69 142.79 C 56.26 139.67 57.45 136.30 59.66 133.56 M 60.12 135.12 C 59.71 136.44 59.31 137.77 58.92 139.10 C 60.18 139.40 61.43 139.77 62.72 139.94 C 63.31 139.10 63.85 138.23 64.35 137.33 C 62.94 136.59 61.53 135.85 60.12 135.12 Z" />
<path fill="#020102" opacity="1.00" d=" M 93.06 141.32 C 92.29 138.76 93.30 135.70 96.22 135.24 C 100.39 133.84 101.01 139.87 100.66 142.75 C 100.56 146.51 96.22 146.68 93.45 146.11 C 95.08 144.64 97.23 144.13 99.25 143.44 C 97.31 142.41 95.19 141.81 93.06 141.32 M 95.07 140.56 C 96.31 140.62 97.55 140.67 98.79 140.71 C 98.64 139.54 98.48 138.37 98.31 137.20 C 96.04 136.83 94.57 138.25 95.07 140.56 Z" />
<path fill="#020102" opacity="1.00" d=" M 85.48 141.48 C 86.67 139.24 88.32 137.30 90.28 135.70 C 90.61 139.50 92.09 143.65 90.63 147.32 C 90.24 147.59 89.47 148.14 89.08 148.41 C 88.83 145.75 88.75 143.08 88.73 140.40 C 87.65 140.77 86.56 141.13 85.48 141.48 Z" />
<path fill="#020102" opacity="1.00" d=" M 62.89 146.17 C 65.29 142.75 67.70 139.22 70.97 136.57 C 71.35 136.72 72.12 137.03 72.50 137.19 C 73.12 140.81 72.88 144.50 72.76 148.15 C 71.31 146.52 69.87 144.88 68.35 143.32 C 66.54 144.30 64.75 145.29 62.89 146.17 M 70.13 139.38 C 68.56 139.36 68.29 142.08 69.98 142.10 C 71.54 142.13 71.78 139.39 70.13 139.38 Z" />
<path fill="#020102" opacity="1.00" d=" M 75.62 143.68 C 77.21 140.83 80.91 141.64 83.22 143.03 C 80.73 143.68 78.17 143.84 75.62 143.68 Z" />
</g>
<g id="#d3ecfbff">
<path fill="#d3ecfb" opacity="1.00" d=" M 61.08 18.64 C 62.41 18.64 63.75 18.65 65.08 18.66 C 64.90 19.36 64.56 20.76 64.38 21.45 C 63.37 21.61 62.35 21.77 61.34 21.92 C 61.28 21.10 61.15 19.46 61.08 18.64 Z" />
<path fill="#d3ecfb" opacity="1.00" d=" M 95.07 140.56 C 94.57 138.25 96.04 136.83 98.31 137.20 C 98.48 138.37 98.64 139.54 98.79 140.71 C 97.55 140.67 96.31 140.62 95.07 140.56 Z" />
<path fill="#d3ecfb" opacity="1.00" d=" M 53.87 14.71 C 66.23 9.48 80.01 8.11 93.20 10.42 C 107.54 12.48 120.81 19.84 131.06 29.93 C 145.48 44.20 153.08 64.87 151.70 85.07 C 151.38 87.77 151.82 91.39 149.09 93.00 C 146.68 93.96 143.88 93.34 141.51 94.45 C 139.67 96.05 138.39 98.17 136.94 100.10 C 128.63 99.95 120.31 99.69 112.00 100.06 C 111.60 99.73 110.79 99.08 110.39 98.76 C 114.22 91.24 116.28 82.63 114.60 74.23 C 112.52 61.47 102.48 50.51 90.04 47.08 C 83.99 45.40 77.68 46.39 71.53 46.70 C 68.66 45.94 65.61 44.21 63.09 46.78 C 64.75 49.14 66.58 51.37 68.35 53.64 C 66.14 52.75 63.70 50.32 61.26 51.93 C 54.49 55.99 49.64 62.84 47.29 70.30 C 44.73 79.80 45.96 90.14 50.60 98.81 C 49.72 99.27 48.83 99.74 47.94 100.20 C 40.48 99.84 33.00 99.62 25.54 100.05 C 21.64 95.22 18.50 89.83 15.77 84.28 C 13.81 83.90 11.79 83.73 9.92 83.01 C 8.01 81.17 8.57 78.33 8.69 75.97 C 9.55 68.78 11.51 61.78 12.44 54.60 C 12.85 54.92 13.28 55.24 13.70 55.56 C 20.63 37.15 35.60 21.97 53.87 14.71 M 77.40 12.33 C 75.08 17.15 73.86 22.42 71.77 27.34 C 70.63 26.05 68.36 25.21 68.51 23.20 C 68.24 20.55 69.33 17.10 66.69 15.32 C 63.50 13.01 59.53 15.43 56.22 16.26 C 57.67 21.57 59.28 26.84 60.99 32.07 C 62.06 31.70 63.12 31.33 64.18 30.94 C 63.41 28.50 62.60 26.06 61.71 23.66 C 64.58 25.61 67.08 28.27 70.33 29.58 C 74.18 30.65 76.65 26.84 79.65 25.21 C 80.99 26.54 82.21 28.03 83.77 29.11 C 85.61 29.55 87.52 29.57 89.41 29.74 C 89.79 26.49 90.31 23.25 90.62 19.98 C 92.67 23.75 94.12 27.86 96.45 31.46 C 96.76 31.52 97.37 31.63 97.68 31.69 C 99.95 26.54 101.12 20.96 101.85 15.40 C 101.12 15.23 99.67 14.88 98.94 14.71 C 98.10 17.54 97.27 20.37 96.35 23.17 C 94.31 19.46 93.17 15.20 90.17 12.07 C 88.47 17.02 87.52 22.20 85.68 27.11 C 83.33 22.08 81.66 16.71 78.82 11.92 C 78.46 12.02 77.75 12.23 77.40 12.33 M 40.51 26.91 C 40.97 27.52 41.89 28.73 42.35 29.34 C 43.97 28.50 45.58 27.65 47.19 26.81 C 49.18 29.76 51.13 32.74 53.02 35.76 C 53.36 36.42 54.03 37.73 54.36 38.39 C 55.23 37.20 56.45 36.32 57.28 35.10 L 56.35 35.25 C 54.29 31.52 51.83 28.02 49.70 24.32 C 51.20 23.54 52.69 22.75 54.18 21.95 C 53.91 21.33 53.35 20.09 53.07 19.47 C 52.79 19.17 52.22 18.57 51.94 18.27 C 48.03 21.00 43.34 22.90 40.51 26.91 M 107.29 17.78 C 104.27 22.66 101.37 27.62 98.47 32.57 C 98.86 32.72 99.64 33.02 100.04 33.17 C 101.92 34.58 103.83 36.26 106.26 36.56 C 108.82 36.66 111.30 35.92 113.79 35.46 C 114.53 36.47 115.28 37.47 116.05 38.47 C 117.00 39.04 117.95 39.61 118.92 40.17 C 119.39 38.80 119.84 37.43 120.30 36.06 L 119.60 36.46 C 117.97 35.29 116.33 34.13 114.62 33.07 C 115.55 30.48 115.73 27.70 115.85 24.97 C 113.72 21.81 110.77 19.34 107.29 17.78 M 32.98 36.77 C 35.20 41.60 41.32 38.81 45.39 39.36 C 44.22 40.98 42.78 42.37 41.24 43.64 C 41.41 44.67 41.59 45.70 41.77 46.73 C 46.21 46.63 50.05 41.65 47.62 37.52 C 45.28 33.37 40.15 35.68 36.49 36.03 C 37.79 34.46 39.09 32.88 40.34 31.26 C 39.85 31.16 38.89 30.96 38.40 30.87 C 38.58 30.34 38.93 29.29 39.10 28.77 C 35.35 29.04 31.19 32.82 32.98 36.77 M 117.89 42.96 C 115.83 46.29 119.32 49.37 121.01 51.96 C 123.02 52.47 125.25 53.55 127.16 52.15 C 130.91 49.94 135.11 47.73 137.09 43.63 L 136.16 44.03 C 135.81 43.41 135.11 42.15 134.76 41.53 C 130.74 43.72 127.63 47.57 123.20 48.91 C 122.15 48.18 121.53 47.04 120.89 45.98 C 124.53 42.81 129.08 40.41 131.35 35.96 L 130.52 36.34 C 130.14 35.79 129.37 34.71 128.98 34.16 C 125.28 37.07 120.89 39.27 117.89 42.96 M 35.11 43.02 C 34.07 44.87 33.01 46.70 32.03 48.58 C 33.08 49.20 34.12 49.82 35.17 50.44 C 36.67 48.57 37.88 46.46 38.20 44.05 C 37.43 43.80 35.88 43.28 35.11 43.02 M 137.35 49.39 C 132.65 50.91 128.35 53.43 123.83 55.38 C 124.86 58.43 126.08 61.42 127.36 64.38 C 127.53 64.81 127.88 65.68 128.05 66.12 C 128.85 66.08 130.44 66.02 131.24 65.99 C 130.99 64.77 130.75 63.55 130.50 62.33 C 129.83 61.15 129.16 59.97 128.51 58.78 C 132.54 55.69 138.68 55.45 141.33 50.73 L 140.40 50.98 C 139.85 49.79 138.73 48.71 137.35 49.39 M 19.99 51.98 C 19.59 52.99 19.19 54.00 18.79 55.01 C 23.79 58.00 28.95 60.74 34.38 62.86 C 35.96 59.22 38.53 55.46 37.12 51.33 C 34.83 53.06 33.32 55.50 31.91 57.95 C 27.93 55.97 23.95 53.99 19.99 51.98 M 141.81 59.92 C 137.24 62.60 133.06 65.91 128.76 69.00 C 129.00 69.56 129.48 70.68 129.72 71.24 C 135.81 72.11 141.91 72.92 148.02 73.61 C 147.50 72.31 147.04 70.99 146.36 69.76 C 144.09 69.17 141.73 69.03 139.42 68.66 C 140.60 66.34 142.86 64.94 144.98 63.58 C 144.90 62.57 144.84 61.57 144.78 60.56 C 143.98 59.77 142.84 59.06 141.81 59.92 M 24.25 68.50 L 23.94 69.11 C 24.74 69.04 26.34 68.89 27.14 68.81 C 27.51 66.43 27.75 64.03 27.72 61.62 C 24.19 61.59 22.88 65.75 24.25 68.50 M 13.73 69.08 C 14.06 70.13 14.45 71.15 14.91 72.15 C 19.98 73.93 25.37 74.54 30.58 75.81 C 30.63 74.59 30.68 73.37 30.73 72.15 C 25.14 70.73 19.51 69.31 13.73 69.08 Z" />
<path fill="#d3ecfb" opacity="1.00" d=" M 77.56 17.04 C 78.38 18.97 79.21 20.90 80.04 22.83 C 78.84 22.66 77.64 22.49 76.45 22.30 C 76.83 20.55 77.21 18.80 77.56 17.04 Z" />
<path fill="#d3ecfb" opacity="1.00" d=" M 104.09 31.65 C 106.01 28.59 107.91 25.52 109.48 22.26 C 110.92 23.96 113.04 26.06 111.44 28.38 C 110.36 31.75 106.89 32.94 103.64 32.38 L 104.09 31.65 Z" />
<path fill="#d3ecfb" opacity="1.00" d=" M 78.25 48.48 C 86.87 45.46 95.92 50.07 102.49 55.50 C 115.52 66.03 118.23 88.05 106.47 100.46 C 106.58 95.22 109.85 90.83 110.65 85.75 C 113.03 72.76 105.50 58.54 93.15 53.62 C 95.84 56.02 98.75 58.16 101.39 60.62 C 110.90 69.81 112.97 86.23 104.41 96.75 C 102.46 93.08 105.03 89.49 105.76 85.89 C 106.73 82.31 106.46 78.54 105.66 74.96 C 104.68 70.18 102.45 65.52 98.76 62.24 C 96.24 59.97 93.39 58.10 90.64 56.12 C 91.46 54.80 92.28 53.48 93.09 52.15 C 92.68 52.09 91.87 51.98 91.47 51.92 C 88.61 51.51 85.74 51.17 82.89 50.75 C 81.21 50.31 79.77 49.28 78.25 48.48 Z" />
<path fill="#d3ecfb" opacity="1.00" d=" M 49.36 68.36 C 51.43 62.20 55.97 57.23 61.32 53.69 C 63.15 55.52 65.08 57.26 67.13 58.85 C 62.02 63.00 57.30 68.14 55.74 74.73 C 53.52 82.13 55.58 90.10 59.85 96.35 C 60.52 97.44 61.20 98.54 61.88 99.64 C 60.55 99.63 59.23 99.62 57.90 99.63 C 53.77 93.20 50.40 85.79 51.55 77.95 C 52.03 69.50 57.91 63.04 62.87 56.74 C 53.55 62.90 48.96 74.79 50.67 85.67 C 51.61 90.61 54.07 95.06 56.02 99.65 C 55.34 99.66 53.97 99.69 53.29 99.70 C 46.86 90.71 45.93 78.67 49.36 68.36 Z" />
<path fill="#d3ecfb" opacity="1.00" d=" M 56.61 112.76 C 56.99 112.59 57.74 112.26 58.12 112.09 C 55.33 114.31 51.78 115.01 48.64 116.54 C 46.97 117.90 45.93 119.85 44.69 121.58 C 42.79 121.74 40.24 121.13 39.13 123.19 C 38.75 125.40 38.80 127.67 38.61 129.91 C 36.92 128.83 36.49 126.91 36.17 125.08 C 35.46 125.53 34.75 125.97 34.03 126.42 C 34.38 128.84 35.83 131.85 38.81 131.10 C 42.77 130.35 40.72 125.65 40.96 122.88 C 42.03 123.83 43.09 124.80 44.16 125.77 C 45.89 121.42 50.97 121.72 54.77 120.65 C 57.33 120.17 59.28 118.34 61.13 116.63 C 64.62 116.70 68.10 116.90 71.57 117.26 C 68.92 120.48 64.26 119.40 60.64 120.40 C 63.16 123.68 68.63 124.33 72.01 122.00 C 75.62 119.75 80.11 120.90 84.14 120.35 C 82.91 121.75 81.64 123.11 80.42 124.53 C 81.89 124.74 83.36 125.44 84.86 125.11 C 87.08 124.33 88.52 122.35 90.12 120.75 C 93.09 120.61 96.07 120.44 99.03 120.80 C 101.81 121.11 104.23 122.71 106.97 123.17 C 110.03 123.00 112.91 121.57 116.00 121.67 C 118.87 121.89 121.30 123.62 124.04 124.32 C 126.01 124.25 127.87 123.49 129.75 122.97 C 128.14 120.52 125.94 118.52 123.30 117.23 C 126.06 117.95 128.86 117.78 130.49 115.13 C 134.65 114.45 138.88 114.35 143.08 114.40 C 134.50 131.01 118.77 143.60 100.93 149.00 C 85.38 153.86 68.19 153.03 53.09 146.96 C 38.03 140.85 24.73 129.59 17.41 114.96 C 25.63 114.35 33.90 115.12 42.11 114.19 C 46.99 114.47 52.12 115.35 56.61 112.76 M 31.05 116.84 C 31.20 117.50 31.51 118.81 31.67 119.46 C 34.23 119.45 36.79 119.46 39.35 119.48 C 39.49 118.82 39.75 117.52 39.89 116.87 C 36.96 116.35 33.98 116.34 31.05 116.84 M 53.19 122.90 C 53.33 123.52 53.62 124.76 53.76 125.38 C 56.24 126.01 58.77 126.55 61.34 126.36 C 60.55 125.15 59.85 123.88 58.88 122.81 C 56.98 122.66 55.08 122.81 53.19 122.90 M 85.41 128.36 C 85.39 129.02 85.36 130.33 85.34 130.98 C 88.34 130.61 91.29 129.92 94.17 129.05 C 93.70 127.73 93.22 126.42 92.73 125.11 C 90.27 126.15 87.83 127.24 85.41 128.36 M 98.81 125.48 C 99.07 126.49 99.38 127.49 99.72 128.49 C 101.73 129.10 103.78 128.28 105.76 127.92 C 105.76 127.31 105.75 126.10 105.75 125.50 C 103.44 125.52 101.12 125.50 98.81 125.48 M 39.73 134.79 C 41.57 134.07 43.38 133.24 45.21 132.48 C 45.40 134.80 45.41 137.22 46.54 139.32 C 47.18 136.99 47.64 134.62 48.01 132.23 C 49.82 131.23 51.64 130.25 53.36 129.11 C 51.01 129.25 48.67 129.52 46.34 129.85 C 47.19 128.42 48.01 126.97 48.78 125.50 C 44.88 127.60 42.24 131.27 39.73 134.79 M 66.11 127.77 C 66.19 128.51 66.35 129.99 66.43 130.73 C 69.53 130.78 72.64 130.78 75.74 130.73 C 75.75 130.15 75.75 128.98 75.76 128.39 C 72.54 128.18 69.33 127.90 66.11 127.77 M 111.44 129.30 C 108.87 130.26 108.89 133.49 109.23 135.75 C 109.66 138.62 113.11 140.18 115.63 138.85 C 120.67 136.63 116.63 126.50 111.44 129.30 M 49.23 139.93 C 49.66 140.16 50.50 140.61 50.92 140.84 C 53.11 137.59 55.30 134.33 56.89 130.74 C 53.07 132.54 51.41 136.60 49.23 139.93 M 100.62 135.61 C 102.09 135.24 103.55 134.83 105.00 134.40 C 104.57 137.46 104.23 140.53 104.13 143.63 C 107.94 140.72 106.95 135.26 107.79 131.06 C 105.11 132.05 102.12 132.93 100.62 135.61 M 59.66 133.56 C 57.45 136.30 56.26 139.67 54.69 142.79 C 58.14 140.14 64.25 143.83 65.71 138.65 C 67.81 134.79 62.82 132.35 59.66 133.56 M 93.06 141.32 C 95.19 141.81 97.31 142.41 99.25 143.44 C 97.23 144.13 95.08 144.64 93.45 146.11 C 96.22 146.68 100.56 146.51 100.66 142.75 C 101.01 139.87 100.39 133.84 96.22 135.24 C 93.30 135.70 92.29 138.76 93.06 141.32 M 85.48 141.48 C 86.56 141.13 87.65 140.77 88.73 140.40 C 88.75 143.08 88.83 145.75 89.08 148.41 C 89.47 148.14 90.24 147.59 90.63 147.32 C 92.09 143.65 90.61 139.50 90.28 135.70 C 88.32 137.30 86.67 139.24 85.48 141.48 M 62.89 146.17 C 64.75 145.29 66.54 144.30 68.35 143.32 C 69.87 144.88 71.31 146.52 72.76 148.15 C 72.88 144.50 73.12 140.81 72.50 137.19 C 72.12 137.03 71.35 136.72 70.97 136.57 C 67.70 139.22 65.29 142.75 62.89 146.17 M 75.62 143.68 C 78.17 143.84 80.73 143.68 83.22 143.03 C 80.91 141.64 77.21 140.83 75.62 143.68 Z" />
<path fill="#d3ecfb" opacity="1.00" d=" M 111.93 130.45 C 114.60 130.85 117.03 133.01 116.09 135.90 C 115.57 138.36 112.08 137.40 111.26 135.62 C 110.36 133.92 111.59 132.12 111.93 130.45 Z" />
<path fill="#d3ecfb" opacity="1.00" d=" M 60.12 135.12 C 61.53 135.85 62.94 136.59 64.35 137.33 C 63.85 138.23 63.31 139.10 62.72 139.94 C 61.43 139.77 60.18 139.40 58.92 139.10 C 59.31 137.77 59.71 136.44 60.12 135.12 Z" />
<path fill="#d3ecfb" opacity="1.00" d=" M 70.13 139.38 C 71.78 139.39 71.54 142.13 69.98 142.10 C 68.29 142.08 68.56 139.36 70.13 139.38 Z" />
</g>
<g id="#ac7849ff">
<path fill="#000000" opacity="1.00" d=" M 48.97 22.91 C 50.29 21.71 51.69 20.60 53.07 19.47 C 53.35 20.09 53.91 21.33 54.18 21.95 C 52.69 22.75 51.20 23.54 49.70 24.32 C 49.52 23.97 49.16 23.27 48.97 22.91 Z" />
<path fill="#000000" opacity="1.00" d=" M 105.50 24.51 C 106.50 22.67 108.35 21.65 110.16 20.78 C 109.99 21.15 109.65 21.89 109.48 22.26 C 107.91 25.52 106.01 28.59 104.09 31.65 C 101.98 29.36 104.32 26.61 105.50 24.51 Z" />
<path fill="#000000" opacity="1.00" d=" M 115.85 24.97 C 115.73 27.70 115.55 30.48 114.62 33.07 C 114.35 33.87 114.07 34.67 113.79 35.46 C 111.30 35.92 108.82 36.66 106.26 36.56 C 103.83 36.26 101.92 34.58 100.04 33.17 C 103.02 34.21 106.54 35.34 109.50 33.62 C 112.69 31.72 114.07 28.04 115.85 24.97 Z" />
<path fill="#000000" opacity="1.00" d=" M 119.60 36.46 L 120.30 36.06 C 119.84 37.43 119.39 38.80 118.92 40.17 C 117.95 39.61 117.00 39.04 116.05 38.47 C 117.23 37.80 118.42 37.13 119.60 36.46 Z" />
<path fill="#000000" opacity="1.00" d=" M 130.52 36.34 L 131.35 35.96 C 129.08 40.41 124.53 42.81 120.89 45.98 C 120.58 45.44 119.97 44.36 119.66 43.82 C 122.91 40.83 126.41 38.03 130.52 36.34 Z" />
<path fill="#000000" opacity="1.00" d=" M 121.01 51.96 C 126.39 49.95 130.89 46.26 136.16 44.03 L 137.09 43.63 C 135.11 47.73 130.91 49.94 127.16 52.15 C 125.25 53.55 123.02 52.47 121.01 51.96 Z" />
<path fill="#fd6302" opacity="1.00" d=" M 71.53 46.70 C 77.68 46.39 83.99 45.40 90.04 47.08 C 102.48 50.51 112.52 61.47 114.60 74.23 C 116.28 82.63 114.22 91.24 110.39 98.76 C 110.79 99.08 111.60 99.73 112.00 100.06 C 112.32 104.88 114.86 108.97 117.90 112.56 C 116.98 113.24 116.06 113.92 115.14 114.62 C 117.50 115.23 119.85 115.84 122.17 116.56 C 117.95 116.44 113.75 116.04 109.53 115.78 C 109.23 109.13 107.54 102.64 104.41 96.75 C 112.97 86.23 110.90 69.81 101.39 60.62 C 98.75 58.16 95.84 56.02 93.15 53.62 C 105.50 58.54 113.03 72.76 110.65 85.75 C 109.85 90.83 106.58 95.22 106.47 100.46 C 118.23 88.05 115.52 66.03 102.49 55.50 C 95.92 50.07 86.87 45.46 78.25 48.48 C 75.68 49.81 73.09 49.15 71.53 46.70 Z" />
<path fill="#000000" opacity="1.00" d=" M 127.07 56.13 C 131.36 54.05 135.76 52.15 140.40 50.98 L 141.33 50.73 C 138.68 55.45 132.54 55.69 128.51 58.78 C 128.03 57.90 127.55 57.01 127.07 56.13 Z" />
<path fill="#fd6302" opacity="1.00" d=" M 47.29 70.30 C 49.64 62.84 54.49 55.99 61.26 51.93 C 61.27 52.37 61.30 53.25 61.32 53.69 C 55.97 57.23 51.43 62.20 49.36 68.36 C 45.93 78.67 46.86 90.71 53.29 99.70 C 53.97 99.69 55.34 99.66 56.02 99.65 C 56.49 99.64 57.43 99.63 57.90 99.63 C 59.23 99.62 60.55 99.63 61.88 99.64 C 61.20 98.54 60.52 97.44 59.85 96.35 C 61.29 96.36 62.74 96.38 64.19 96.38 C 65.19 87.83 69.36 80.19 71.40 71.92 C 72.81 78.08 68.33 83.31 67.16 89.11 C 65.78 96.09 62.86 102.60 60.12 109.13 C 59.59 110.19 59.10 111.36 58.12 112.09 C 57.74 112.26 56.99 112.59 56.61 112.76 C 52.76 111.90 48.92 110.94 45.15 109.76 C 45.71 106.48 46.74 103.30 47.94 100.20 C 48.83 99.74 49.72 99.27 50.60 98.81 C 45.96 90.14 44.73 79.80 47.29 70.30 Z" />
<path fill="#000000" opacity="1.00" d=" M 27.72 61.62 C 27.75 64.03 27.51 66.43 27.14 68.81 C 26.34 68.89 24.74 69.04 23.94 69.11 L 24.25 68.50 C 25.45 66.23 26.60 63.93 27.72 61.62 Z" />
<path fill="#fd6302" opacity="1.00" d=" M 63.15 112.00 C 65.81 106.67 68.45 101.25 72.29 96.64 C 72.09 98.49 71.89 100.34 71.68 102.19 C 74.06 101.27 76.45 100.35 78.85 99.46 C 79.29 98.64 79.73 97.82 80.17 97.00 C 81.19 100.30 79.98 103.62 79.96 106.94 C 80.21 109.57 81.14 112.06 81.91 114.56 C 78.27 114.49 74.39 114.64 71.57 117.26 C 68.10 116.90 64.62 116.70 61.13 116.63 C 65.40 116.15 70.82 117.53 73.43 113.16 C 70.01 112.70 66.58 112.36 63.15 112.00 Z" />
</g>
<g id="#a4a5a4ff">
<path fill="#000000" opacity="1.00" d=" M 40.51 26.91 C 42.35 26.31 44.17 25.67 46.00 25.02 C 46.30 25.47 46.90 26.36 47.19 26.81 C 45.58 27.65 43.97 28.50 42.35 29.34 C 41.89 28.73 40.97 27.52 40.51 26.91 Z" />
<path fill="#d3ecfb" opacity="1.00" d=" M 35.11 32.44 C 36.21 31.91 37.30 31.38 38.40 30.87 C 38.89 30.96 39.85 31.16 40.34 31.26 C 39.09 32.88 37.79 34.46 36.49 36.03 C 36.02 34.84 35.56 33.64 35.11 32.44 Z" />
<path fill="#d3ecfb" opacity="1.00" d=" M 53.02 35.76 C 54.13 35.60 55.24 35.44 56.35 35.25 L 57.28 35.10 C 56.45 36.32 55.23 37.20 54.36 38.39 C 54.03 37.73 53.36 36.42 53.02 35.76 Z" />
<path fill="#000000" opacity="1.00" d=" M 38.20 44.05 C 37.88 46.46 36.67 48.57 35.17 50.44 C 34.12 49.82 33.08 49.20 32.03 48.58 C 34.11 47.09 36.14 45.55 38.20 44.05 Z" />
<path fill="#d3ecfb" opacity="1.00" d=" M 82.89 50.75 C 85.74 51.17 88.61 51.51 91.47 51.92 C 89.89 53.17 88.35 54.83 86.20 54.91 C 84.63 53.96 83.84 52.24 82.89 50.75 Z" />
<path fill="#d3ecfb" opacity="1.00" d=" M 144.78 60.56 C 144.84 61.57 144.90 62.57 144.98 63.58 C 142.86 64.94 140.60 66.34 139.42 68.66 C 137.87 68.42 136.32 68.13 134.78 67.84 C 137.87 65.10 141.33 62.83 144.78 60.56 Z" />
<path fill="#000000" opacity="1.00" d=" M 130.50 62.33 C 130.75 63.55 130.99 64.77 131.24 65.99 C 130.44 66.02 128.85 66.08 128.05 66.12 C 127.88 65.68 127.53 64.81 127.36 64.38 C 128.41 63.70 129.46 63.01 130.50 62.33 Z" />
</g>
<g id="#fd6302ff">
<path fill="#fd6302" opacity="1.00" d=" M 87.83 62.90 C 87.57 60.31 89.35 58.19 90.64 56.12 C 93.39 58.10 96.24 59.97 98.76 62.24 C 102.45 65.52 104.68 70.18 105.66 74.96 C 105.99 80.53 105.24 86.23 102.87 91.33 C 98.63 85.76 96.66 78.92 93.05 72.99 C 91.21 69.69 88.74 66.63 87.83 62.90 Z" />
<path fill="#fd6302" opacity="1.00" d=" M 50.67 85.67 C 48.96 74.79 53.55 62.90 62.87 56.74 C 57.91 63.04 52.03 69.50 51.55 77.95 C 50.40 85.79 53.77 93.20 57.90 99.63 C 57.43 99.63 56.49 99.64 56.02 99.65 C 54.07 95.06 51.61 90.61 50.67 85.67 Z" />
<path fill="#fd6302" opacity="1.00" d=" M 67.13 58.85 C 70.97 62.05 70.99 67.35 71.40 71.92 C 69.36 80.19 65.19 87.83 64.19 96.38 C 62.74 96.38 61.29 96.36 59.85 96.35 C 55.58 90.10 53.52 82.13 55.74 74.73 C 57.30 68.14 62.02 63.00 67.13 58.85 Z" />
<path fill="#fd6302" opacity="1.00" d=" M 72.38 95.81 C 75.00 95.99 77.62 96.35 80.17 97.00 C 79.73 97.82 79.29 98.64 78.85 99.46 C 76.45 100.35 74.06 101.27 71.68 102.19 C 71.89 100.34 72.09 98.49 72.29 96.64 L 72.38 95.81 Z" />
</g>
<g id="#018dfcff">
<path fill="#018dfc" opacity="1.00" d=" M 25.54 100.05 C 33.00 99.62 40.48 99.84 47.94 100.20 C 46.74 103.30 45.71 106.48 45.15 109.76 C 41.52 110.03 37.78 110.81 34.18 109.97 C 30.17 107.96 26.64 104.52 25.54 100.05 Z" />
<path fill="#018dfc" opacity="1.00" d=" M 112.00 100.06 C 120.31 99.69 128.63 99.95 136.94 100.10 C 132.79 103.18 129.23 106.95 125.24 110.21 C 123.21 112.00 120.45 112.20 117.90 112.56 C 114.86 108.97 112.32 104.88 112.00 100.06 Z" />
</g>
</svg>
