<?xml version="1.0" encoding="UTF-8" standalone="no"?>
<!-- Created with Inkscape (http://www.inkscape.org/) -->

<svg
   width="256"
   height="256"
   viewBox="0 0 67.733332 67.733335"
   version="1.1"
   id="svg663"
   inkscape:version="1.1 (c68e22c387, 2021-05-23)"
   sodipodi:docname="strandvik.svg"
   xmlns:inkscape="http://www.inkscape.org/namespaces/inkscape"
   xmlns:sodipodi="http://sodipodi.sourceforge.net/DTD/sodipodi-0.dtd"
   xmlns="http://www.w3.org/2000/svg"
   xmlns:svg="http://www.w3.org/2000/svg">
  <sodipodi:namedview
     id="namedview665"
     pagecolor="#ffffff"
     bordercolor="#666666"
     borderopacity="1.0"
     inkscape:pageshadow="2"
     inkscape:pageopacity="0.0"
     inkscape:pagecheckerboard="0"
     inkscape:document-units="mm"
     showgrid="false"
     units="px"
     inkscape:zoom="1.0074671"
     inkscape:cx="169.2363"
     inkscape:cy="188.59177"
     inkscape:window-width="1920"
     inkscape:window-height="986"
     inkscape:window-x="-11"
     inkscape:window-y="-11"
     inkscape:window-maximized="1"
     inkscape:current-layer="g1083" />
  <defs
     id="defs660" />
  <g
     inkscape:label="Lag 1"
     inkscape:groupmode="layer"
     id="layer1">
    <g
       id="g1083">
      <path
         style="display:inline;fill:#010203;stroke-width:0.127688"
         d="M 31.376236,67.638141 C 30.84952,67.593211 30.590951,67.538651 30.801637,67.51689 31.015496,67.4948 30.761687,67.42953 30.227038,67.36913 28.332188,67.155064 25.148139,66.457119 23.331846,65.857699 19.04209,64.44198 15.046661,62.158844 11.588017,59.146841 7.9857427,56.009755 4.5396837,51.112715 2.6025317,46.377968 1.4991607,43.68113 0.61071072,40.160991 0.39328572,37.624685 c -0.0613,-0.715044 -0.120336,-0.971122 -0.17511,-0.759527 -0.04573,0.176643 -0.126558,-0.464061 -0.180975,-1.434488 -0.10573,-1.885518 0.03145,-5.242746 0.191826,-4.694571 0.07732,0.26428 0.09558,0.227567 0.10612,-0.213308 0.02299,-0.962101 0.626904,-4.161896 1.08452598,-5.746328 2.56321,-8.874655 8.13117,-15.8983586 16.1879693,-20.4203146 3.57369,-2.005767 8.725502,-3.64212699 12.491706,-3.96771599 0.778007,-0.06726 0.97688,-0.115946 0.702289,-0.171929 -0.222821,-0.04543 0.351395,-0.120236 1.372653,-0.178825 1.87961,-0.107831 5.552174,0.03467 4.884094,0.189507 -0.3756,0.08705 -0.373716,0.08908 0.09661,0.10389 3.583801,0.112873 10.786826,2.48395599 14.222549,4.68176299 1.809768,1.157694 5.279526,3.871868 6.420161,5.0220896 3.58002,3.610109 6.641542,8.57414 8.103551,13.139312 0.671472,2.096692 1.458397,5.78773 1.579645,7.409253 0.06119,0.818393 0.105811,1.009567 0.169716,0.727205 0.04768,-0.210686 0.08486,0.794863 0.08263,2.234553 -0.0023,1.474505 -0.04308,2.366692 -0.0934,2.04302 -0.07393,-0.47552 -0.09264,-0.379267 -0.108511,0.558212 -0.03946,2.330773 -0.59226,5.103302 -1.658119,8.316155 -1.153812,3.477976 -2.014946,5.182582 -4.345311,8.601501 -3.817956,5.60139 -8.894979,9.616154 -15.409564,12.18544 -1.512636,0.596568 -3.853871,1.367052 -4.154001,1.367052 -0.04672,0 -0.115158,-0.962454 -0.152073,-2.138786 -0.0874,-2.784894 -0.519798,-4.332695 -1.611692,-5.769112 -0.801806,-1.054798 -2.727883,-2.05378 -3.953685,-2.050625 -0.91712,0.0023 -2.586368,1.305541 -3.028894,2.364654 -0.246707,0.590456 -0.23655,1.288788 0.02018,1.387304 0.314768,0.120789 1.513271,0.09154 2.720392,-0.06638 1.312803,-0.171752 1.968865,-0.03824 2.619588,0.533104 0.667958,0.586475 0.889709,1.174229 0.888916,2.356091 -6.38e-4,0.889294 -0.06253,1.170251 -0.47852,2.170708 -0.658397,1.583451 -0.648561,1.530128 -0.310894,1.685415 0.249204,0.114602 0.124271,0.15221 -0.789287,0.237595 -0.720623,0.06735 -0.97808,0.128779 -0.766132,0.182791 0.795895,0.202824 -3.69715,0.3035 -5.745993,0.128752 z m 20.533867,-5.969448 c 2.228088,-1.353211 5.868676,-4.690802 7.877787,-7.222141 2.278855,-2.871198 4.400949,-6.794242 5.546682,-10.253969 1.85227,-5.59323 2.164261,-11.656331 0.898284,-17.456834 C 65.451528,23.155835 63.716032,18.92031 61.873421,16.09644 59.867757,13.022682 56.628131,9.4574444 54.163583,7.6116914 48.479149,3.3544984 41.890692,0.97572241 35.206898,0.76734341 31.41999,0.64928041 28.504436,0.99237341 25.155829,1.9501214 19.345023,3.6120924 14.91203,6.1378744 10.83626,10.108967 1.6845077,19.025679 -1.503056,31.863468 2.4173677,44.015727 c 1.17303,3.636075 2.994846,7.080443 5.477859,10.356564 0.839204,1.107258 1.425227,1.646176 1.790063,1.646176 0.3892343,0 0.9486383,-0.327826 2.4735663,-1.449578 2.597379,-1.910658 5.051321,-3.397408 7.960049,-4.822691 3.33793,-1.635593 4.966577,-2.342887 6.724381,-2.920283 1.477668,-0.48538 2.043759,-0.750802 2.600569,-1.219327 l 0.400116,-0.336675 v 0.320775 c 0,0.421712 0.540315,1.04989 1.197183,1.391859 0.395999,0.206161 0.764146,0.276032 1.484281,0.281701 1.417234,0.01116 2.104614,-0.357856 1.783667,-0.95755 -0.120306,-0.224794 -0.102822,-0.233687 0.21893,-0.111358 0.476305,0.181091 0.934244,0.05036 0.934244,-0.266715 0,-0.139119 0.06289,-0.252945 0.139757,-0.252945 0.07687,0 0.924401,0.395619 1.883409,0.879155 1.553805,0.783434 2.021702,0.949374 4.297426,1.524081 3.807634,0.961573 4.447191,1.073975 5.532665,0.97237 0.626172,-0.05861 0.958848,-0.147474 1.005302,-0.268531 0.03818,-0.09951 -0.141828,-0.508917 -0.40003,-0.909792 -1.040387,-1.615265 -1.463025,-3.021782 -1.472844,-4.901548 -0.0032,-0.600307 -0.06386,-0.912182 -0.205109,-1.053432 -0.110358,-0.11036 -0.221785,-0.200653 -0.247611,-0.200653 -0.02583,0 -0.312517,0.229839 -0.637089,0.510754 -0.328671,0.284463 -0.723458,0.510756 -0.891058,0.510756 -0.266841,0 -0.347159,-0.138775 -0.709104,-1.22521 -0.637829,-1.91454 -1.150889,-2.328994 -3.21925,-2.600532 -0.566475,-0.07437 -1.493541,-0.329979 -2.170708,-0.598508 -1.027166,-0.407319 -1.328078,-0.470212 -2.297685,-0.480235 -0.974258,-0.01007 -1.10728,-0.03816 -1.049098,-0.221532 0.03665,-0.1155 -0.02195,-0.298581 -0.130218,-0.406847 -0.124725,-0.124724 -0.148766,-0.226563 -0.06562,-0.27795 0.230077,-0.142197 2.392645,0.18661 3.473951,0.528194 0.790971,0.249868 1.215856,0.314727 1.753003,0.267599 0.613,-0.05379 2.699583,-0.376011 3.539244,-0.54656 0.28856,-0.05861 1.739778,-1.81978 2.284421,-2.772328 0.387841,-0.678314 0.388372,-0.992832 0.0036,-2.130162 -0.502791,-1.48612 -1.304666,-2.303339 -2.261063,-2.304324 -0.263656,-2.56e-4 -0.956656,0.218773 -1.610921,0.509182 -1.354381,0.601173 -2.698371,0.831788 -4.157364,0.713361 -1.421502,-0.115385 -1.878164,-0.340023 -2.828044,-1.391151 -0.95402,-1.05571 -0.588118,-0.991182 -4.220589,-0.744316 -3.18423,0.216403 -3.02456,0.176179 -2.976215,0.749751 0.03509,0.416406 0.08791,0.478908 0.486284,0.575455 0.966629,0.234267 1.141303,0.358722 1.278859,0.911191 0.209119,0.839885 0.276837,0.894952 1.460598,1.187734 0.616269,0.152422 1.271101,0.314934 1.455186,0.361135 0.278908,0.07 0.300385,0.103206 0.128848,0.199204 -0.125661,0.07032 -0.610394,0.05624 -1.24435,-0.03616 -0.898126,-0.130904 -1.064863,-0.125001 -1.233535,0.04368 -0.430564,0.430564 -0.03175,0.719082 1.47937,1.07024 1.776734,0.412882 1.798669,0.422767 0.966363,0.435507 -0.423455,0.0065 -1.140472,-0.104068 -1.640143,-0.252875 -1.022605,-0.304545 -1.241707,-0.264795 -1.259253,0.228462 -0.0069,0.195333 -0.08446,-0.104528 -0.172253,-0.666359 -0.08779,-0.561831 -0.306281,-1.30881 -0.485533,-1.659953 -0.364412,-0.713857 -1.843651,-2.502052 -2.337359,-2.825541 -0.414792,-0.271783 -1.731214,-0.385367 -6.441187,-0.55576 -2.07175,-0.07495 -3.967928,-0.191347 -4.213728,-0.25866 -0.387228,-0.106043 -0.353124,-0.11377 0.255377,-0.05786 1.529017,0.140499 5.109373,0.196996 6.256748,0.09873 1.099591,-0.09417 1.216655,-0.129201 1.251665,-0.374543 0.04022,-0.281857 -0.241711,-0.426295 -0.83911,-0.42989 -0.245437,-0.0015 -0.27742,-0.0508 -0.209195,-0.322623 0.04544,-0.18106 0.01386,-0.401216 -0.07247,-0.505244 -0.08415,-0.101398 -0.837998,-0.341278 -1.675209,-0.533064 -1.409317,-0.322843 -1.516217,-0.368232 -1.441498,-0.612034 0.04439,-0.144832 0.09222,-0.277192 0.106286,-0.294135 0.01407,-0.01694 0.682086,0.196546 1.484479,0.474419 1.560895,0.540542 3.257097,0.944887 3.52787,0.840982 0.226245,-0.08682 0.208789,-0.51518 -0.02904,-0.712559 -0.338623,-0.281032 -0.124559,-0.270187 0.978946,0.0496 2.7432,0.794948 5.940553,1.093726 9.11155,0.851433 3.173583,-0.242492 7.84994,-0.212997 8.874366,0.05597 2.116606,0.555727 3.411895,1.634242 4.378466,3.64571 0.319713,0.665327 0.676743,1.640637 0.793404,2.167353 0.353901,1.597835 0.532381,1.981459 1.095129,2.353868 0.758022,0.501636 1.004706,0.569057 3.107041,0.849191 2.90997,0.387749 4.446337,0.798065 4.734585,1.26446 0.17528,0.28361 -1.465912,0.565202 -4.148903,0.711862 -1.843182,0.100755 -2.202643,0.192405 -3.146004,0.802129 -1.852064,1.197046 -2.834184,2.612601 -3.12878,4.509588 -0.219348,1.412434 0.008,2.183583 1.55621,5.27846 1.260372,2.519493 1.281226,2.576055 1.55351,4.213727 0.307893,1.851829 0.384405,5.230648 0.177104,7.820934 l -0.114964,1.436499 h 0.315272 c 0.1734,0 0.670057,-0.215475 1.10368,-0.478833 z M 40.427002,36.67323 c -0.183896,-0.09994 -0.433628,-0.390902 -0.55496,-0.646591 -0.207801,-0.437906 -0.208072,-0.497705 -0.0047,-1.030277 0.342553,-0.896963 0.240417,-0.991784 -0.960432,-0.891638 -0.664774,0.05544 -1.018561,0.03956 -1.018561,-0.04573 0,-0.07187 0.163383,-0.130676 0.363076,-0.130676 0.199692,0 0.688282,-0.111888 1.085755,-0.248639 1.417336,-0.487634 3.027304,-0.583118 3.950214,-0.234279 0.313746,0.118589 0.334255,0.158452 0.175199,0.340537 -0.09908,0.113423 -0.244214,0.579714 -0.322525,1.036202 -0.164368,0.958126 -0.41628,1.354735 -1.113841,1.753619 -0.570719,0.326353 -1.116821,0.359638 -1.599238,0.09747 z m 0.784427,-0.390983 c 0.187922,-0.494273 0.15288,-1.405308 -0.06088,-1.582712 -0.101973,-0.08463 -0.302744,-0.116632 -0.446155,-0.07112 -0.671174,0.213022 -0.829683,0.847452 -0.391349,1.566372 0.311702,0.511228 0.722073,0.551177 0.898381,0.08745 z M 11.5343,33.726341 c -0.160564,-0.418422 -0.06669,-1.639488 0.251513,-3.271407 0.18096,-0.928075 0.301524,-1.831237 0.26792,-2.007026 -0.10515,-0.550059 0.513803,-0.838589 0.950718,-0.443187 0.217386,0.196732 0.216804,0.219792 -0.01371,0.542677 -0.241392,0.338121 -0.767813,3.168138 -0.767813,4.127731 0,0.796941 -0.1403,1.253189 -0.385366,1.253189 -0.124165,0 -0.260632,-0.09089 -0.30326,-0.201977 z m 44.085085,-0.472418 c -0.128647,-0.128646 -0.24128,-0.695979 -0.341499,-1.720117 -0.33139,-3.386498 -1.543968,-6.571247 -3.828448,-10.055139 -1.035658,-1.579407 -3.285259,-3.859521 -5.005932,-5.073832 -2.621802,-1.850255 -5.989027,-3.271628 -9.055585,-3.822542 -1.901165,-0.34155 -5.12391,-0.373135 -6.907024,-0.06769 -3.424387,0.586582 -6.758689,1.994404 -9.451258,3.990548 -2.607666,1.933198 -6.380626,6.532701 -6.380626,7.778429 0,0.510832 -0.687142,0.439335 -1.340732,-0.139502 -0.414619,-0.367199 -0.446194,-0.423123 -0.167753,-0.297122 0.188651,0.08537 0.421526,0.125086 0.517502,0.08826 0.09597,-0.03683 0.438037,-0.518426 0.760138,-1.070218 3.387955,-5.803893 8.695291,-9.632564 15.110468,-10.900575 1.808231,-0.357411 4.927501,-0.47627 6.79864,-0.25906 6.641463,0.770971 12.479151,4.379153 16.136291,9.973584 2.019897,3.089894 3.011632,5.762362 3.49379,9.414846 0.23214,1.758535 0.23293,1.833866 0.02224,2.122002 -0.149724,0.204759 -0.189392,0.208959 -0.360212,0.03814 z m -41.704583,-4.90424 c 0.122901,-0.03212 0.32401,-0.03212 0.446911,0 0.1229,0.03211 0.02234,0.05839 -0.223456,0.05839 -0.2458,0 -0.346355,-0.02628 -0.223455,-0.05839 z M 8.9668637,27.712567 c -0.140457,-0.03139 -0.563218,-0.143043 -0.939467,-0.248122 -1.134324,-0.316798 -0.679569,-0.303694 0.620245,0.01787 0.667174,0.165055 1.069394,0.297224 0.893821,0.29371 -0.175571,-0.0035 -0.434141,-0.03207 -0.574599,-0.06345 z M 23.268002,25.507849 c -0.280915,-0.132931 -0.453295,-0.242083 -0.383066,-0.242559 0.174152,-0.0011 1.18177,0.470447 1.02151,0.47813 -0.07023,0.0034 -0.357529,-0.10264 -0.638444,-0.235571 z m -1.915331,-0.85129 c -0.632059,-0.317308 -1.264118,-0.696923 -1.404576,-0.843589 -0.186846,-0.195105 -0.04978,-0.15187 0.510755,0.161115 0.421373,0.235279 1.110892,0.61629 1.532265,0.84669 1.125819,0.615581 0.693223,0.504311 -0.638444,-0.164216 z m 33.780184,-4.825671 c -0.180904,-0.338023 -0.117517,-0.518383 0.251615,-0.715936 0.199741,-0.106899 0.283994,-0.06935 0.465289,0.207337 0.214836,0.327882 0.212659,0.344934 -0.07363,0.576759 -0.380764,0.308324 -0.445452,0.30147 -0.643272,-0.06816 z m -43.580294,-0.03956 c -0.231666,-0.05721 -0.279281,-0.253155 -0.14595,-0.60061 0.04873,-0.12699 0.231962,-0.201976 0.493536,-0.201976 0.634111,0 1.088912,-0.42399 1.088912,-1.015144 0,-0.921343 -0.708928,-1.071487 -1.802777,-0.381808 -1.2733873,0.802879 -2.4787703,0.52467 -2.7936743,-0.644794 -0.304633,-1.13132 0.568887,-2.299671 1.7193533,-2.299671 0.260822,0 0.323324,0.06248 0.323324,0.323228 0,0.196367 -0.0877,0.350375 -0.223456,0.392389 -1.0716893,0.331683 -1.3980733,0.78574 -1.0007203,1.392178 0.301886,0.460733 0.775629,0.406014 1.7919973,-0.206985 0.74386,-0.448644 0.945021,-0.515338 1.37884,-0.457151 1.326883,0.177972 1.870016,1.81407 0.978471,2.947483 -0.410971,0.522467 -1.278257,0.883637 -1.807856,0.752861 z m 41.796742,-2.340407 c -0.497434,-0.563584 -0.904427,-1.07648 -0.904427,-1.139769 0,-0.06329 0.382591,-0.449177 0.850204,-0.857527 0.467611,-0.40835 1.388021,-1.2165 2.045354,-1.795888 0.657333,-0.579387 1.242654,-1.053432 1.300714,-1.053432 0.1489,0 0.528211,0.438367 0.528211,0.610449 0,0.07889 -0.741881,0.780984 -1.648626,1.560216 -0.906745,0.779232 -1.684078,1.50917 -1.727408,1.622085 -0.0764,0.199095 0.401023,1.01819 0.773787,1.327556 0.24775,0.205616 0.218922,0.466128 -0.06861,0.620011 -0.211097,0.112977 -0.369197,-0.01 -1.149199,-0.893701 z M 14.329791,13.881187 c -0.828311,-0.912974 -1.603574,-1.659953 -1.722807,-1.659953 -0.119234,0 -0.320789,0.11492 -0.447901,0.255378 -0.278974,0.30826 -0.486803,0.323489 -0.711981,0.05217 -0.146549,-0.176581 -0.01715,-0.352286 0.987405,-1.340732 0.63583,-0.625636 1.219805,-1.13752 1.297721,-1.13752 0.07792,0 0.206299,0.120766 0.285293,0.268367 0.120736,0.225596 0.09093,0.323375 -0.187041,0.613509 -0.181866,0.189828 -0.330666,0.416387 -0.330666,0.503467 0,0.08708 0.689519,0.897838 1.532265,1.801686 0.842746,0.903849 1.532265,1.713753 1.532265,1.799787 0,0.17621 -0.373213,0.493553 -0.587723,0.499739 -0.07745,0.0023 -0.81852,-0.742918 -1.64683,-1.655893 z m 36.395591,0.770889 c -0.124745,-0.137843 -0.196816,-0.324587 -0.160158,-0.414988 0.06115,-0.150788 2.939708,-3.628465 3.352569,-4.050339 0.155288,-0.158679 0.213552,-0.151807 0.438439,0.05171 0.142644,0.129091 0.259353,0.309769 0.259353,0.401507 0,0.2951 -3.3341,4.262729 -3.58208,4.262729 -0.04472,0 -0.183378,-0.11278 -0.308123,-0.250621 z M 18.179161,13.083133 C 18.08087,12.925118 17.598722,12.163774 17.107722,11.391257 16.616721,10.618741 16.049393,9.6823024 15.84699,9.3102824 l -0.368001,-0.676399 0.35191,-0.286674 c 0.776816,-0.632811 1.750179,-1.131373 2.208824,-1.131373 0.88752,0 1.65176,1.065369 1.509384,2.104116 l -0.07693,0.561294 0.937053,0.6911616 c 0.515378,0.380138 0.995671,0.731987 1.067316,0.781885 0.172764,0.120326 -0.300201,0.475499 -0.634626,0.476572 -0.140458,4.46e-4 -0.5991,-0.285023 -1.019205,-0.634384 -0.846774,-0.704179 -1.361135,-0.823183 -1.603182,-0.370915 -0.118616,0.221637 -0.05753,0.405536 0.378574,1.1396 0.286009,0.481423 0.520015,0.916395 0.520015,0.966604 0,0.12957 -0.416909,0.429762 -0.603578,0.434602 -0.08617,0.0023 -0.237087,-0.125224 -0.335379,-0.283239 z m 0.163028,-3.2354906 c 0.521393,-0.438724 0.528341,-0.95817 0.01962,-1.466892 -0.422792,-0.422793 -0.600369,-0.450035 -1.226966,-0.188227 -0.56037,0.234138 -0.573711,0.556468 -0.05708,1.37917 0.440553,0.7015556 0.693118,0.7566756 1.264429,0.275949 z m 29.501258,2.5428336 c -0.173023,-0.116737 -0.332215,-0.224988 -0.353758,-0.240557 -0.02154,-0.01557 0.02979,-0.6412 0.114086,-1.390291 0.176828,-1.5714416 0.116769,-1.7397496 -0.52582,-1.4735806 -0.300337,0.124405 -0.501721,0.369922 -0.800642,0.9760996 -0.415487,0.842563 -0.610838,0.957883 -1.054367,0.622418 -0.240697,-0.182052 -0.229963,-0.221725 0.371355,-1.3726536 1.201885,-2.300416 2.014604,-3.675113 2.17272,-3.675113 0.08797,0 0.270721,0.081 0.40612,0.180011 0.239614,0.17521 0.234699,0.203744 -0.184275,1.069805 -0.652364,1.348505 -0.326341,1.541704 1.017643,0.603047 0.861243,-0.601503 1.181005,-0.68197 1.562007,-0.393073 0.209832,0.159105 0.137869,0.224139 -0.802371,0.72512 -0.679189,0.361888 -1.051472,0.63951 -1.08718,0.810746 -0.02987,0.143223 -0.118762,0.977697 -0.197544,1.8543856 -0.170326,1.89539 -0.207325,1.994192 -0.637974,1.703636 z M 22.253534,10.78396 c -0.06894,-0.227201 -0.455528,-4.7891656 -0.45467,-5.3653106 6.39e-4,-0.399573 0.05673,-0.503287 0.328251,-0.606522 0.180144,-0.06849 0.411131,-0.124528 0.513303,-0.124528 0.286232,0 3.681413,4.621647 3.476059,4.731742 -0.548726,0.294183 -0.71349,0.259919 -1.003049,-0.208598 -0.262007,-0.423936 -0.328849,-0.460046 -0.747362,-0.403748 -0.252792,0.03401 -0.68946,0.171692 -0.970376,0.30597 -0.503592,0.240719 -0.510386,0.253229 -0.484535,0.8921746 0.02342,0.578845 -0.0077,0.663495 -0.291605,0.792845 -0.244824,0.111549 -0.328893,0.108328 -0.366016,-0.01403 z m 1.46772,-2.4605106 c 0.207198,-0.107147 0.376725,-0.272979 0.376725,-0.368516 0,-0.198454 -0.927737,-1.625975 -1.207729,-1.858348 -0.377711,-0.313471 -0.486381,-0.01808 -0.392104,1.065841 0.04959,0.570137 0.149574,1.108438 0.222189,1.196224 0.1771,0.214103 0.543752,0.201209 1.000919,-0.0352 z m 18.869057,1.469335 c -0.197379,-0.117565 -0.191388,-0.184659 0.07684,-0.860626 0.160002,-0.403215 0.59892,-1.580653 0.975375,-2.616528 0.69823,-1.921287 0.769114,-2.018108 1.322113,-1.805903 0.111088,0.04263 0.199851,0.171913 0.197253,0.2873 -0.0026,0.115387 -0.420533,1.301533 -0.928746,2.63588 -0.962119,2.526109 -1.079845,2.6952166 -1.642838,2.359877 z M 27.380036,8.8055604 c -0.09589,-0.173531 -0.909986,-5.383413 -0.850399,-5.442237 0.03205,-0.03164 0.266677,-0.09645 0.521392,-0.144019 l 0.463122,-0.0865 0.931414,1.492088 c 0.512279,0.820648 1.01162,1.522866 1.10965,1.560483 0.387284,0.148615 0.423003,-0.178005 0.164865,-1.507576 -0.339628,-1.7493 -0.336287,-1.905535 0.04075,-1.905535 0.289018,0 0.314645,0.08472 0.704948,2.33032 0.222764,1.281675 0.418194,2.531429 0.434288,2.77723 0.02819,0.430503 0.013,0.44691 -0.413755,0.44691 -0.428757,0 -0.476578,-0.053 -1.485757,-1.646715 -1.576751,-2.490035 -1.79024,-2.442979 -1.348284,0.29718 0.334994,2.076985 0.332727,1.924134 0.02853,1.924134 -0.136313,0 -0.271657,-0.0431 -0.300763,-0.09577 z m 11.698081,-0.0041 c -0.104017,-0.06615 -0.179439,-0.97798 -0.242487,-2.93159 -0.08421,-2.609433 -0.07406,-2.842273 0.127197,-2.919506 0.120288,-0.04616 0.348605,-0.02474 0.507369,0.0476 0.286439,0.130511 0.288214,0.147839 0.230652,2.251339 -0.05624,2.054979 -0.05019,2.119815 0.197722,2.119815 0.260149,0 0.489869,-0.40748 1.565681,-2.77723 0.335295,-0.738572 0.476683,-0.925743 0.699304,-0.925743 0.15347,0 0.314333,0.03529 0.357471,0.07843 0.04314,0.04314 -0.493429,1.221066 -1.19237,2.617619 -1.26131,2.520216 -1.273899,2.539171 -1.685184,2.53723 -0.227907,-0.0011 -0.482318,-0.04516 -0.565355,-0.09797 z m -6.19786,-0.617411 c -0.0353,-0.06195 -0.03565,-1.369057 -7.54e-4,-2.904672 l 0.06339,-2.792027 1.108206,0.05298 c 1.707114,0.08162 2.453396,0.671859 2.629271,2.079514 0.188881,1.511748 -0.283444,2.892639 -1.131008,3.306618 -0.526655,0.257237 -2.557612,0.453237 -2.669083,0.257583 z m 2.259276,-0.974544 c 0.676344,-0.588938 0.763063,-2.986967 0.130877,-3.619153 -0.358187,-0.358188 -0.921836,-0.519828 -1.200552,-0.344288 -0.168752,0.106284 -0.209778,0.453508 -0.239178,2.024291 -0.01951,1.042801 -0.0069,1.970351 0.02792,2.061223 0.105066,0.273798 0.914945,0.196613 1.280939,-0.122079 z M 46.813269,40.262681 c 0.366467,-0.378099 0.480728,-0.425019 0.898523,-0.368981 0.412654,0.05535 0.518008,0.01418 0.763955,-0.298487 0.281345,-0.357672 0.281859,-0.365468 0.03717,-0.563605 -0.242681,-0.196511 -0.24289,-0.207376 -0.0096,-0.495518 0.272305,-0.336283 0.310089,-0.782142 0.08533,-1.006903 -0.242751,-0.242751 -1.019586,-0.178848 -1.629835,0.134073 -0.749046,0.384091 -1.026091,0.929423 -1.026091,2.019746 0,1.17912 0.182844,1.299493 0.880517,0.579675 z m -0.305871,-3.076038 c 0.491575,-0.104123 1.094884,-0.191193 1.340684,-0.193487 0.658497,-0.0062 0.824145,-0.161665 0.800619,-0.751655 -0.03893,-0.976318 -0.81486,-1.854486 -1.566656,-1.77309 -0.544589,0.05897 -2.063718,2.907549 -1.550574,2.907549 0.04518,0 0.484352,-0.08519 0.975927,-0.189317 z m -7.022927,29.805776 c 0.646814,-0.13379 1.169448,-0.127792 0.638443,0.0073 -0.210687,0.05361 -0.555446,0.09766 -0.766133,0.0979 -0.322074,3.83e-4 -0.301744,-0.0164 0.12769,-0.105224 z"
         id="path1085" />
    </g>
  </g>
</svg>
