<?xml version="1.0" encoding="UTF-8"?>
<svg width="256px" height="256px" viewBox="0 0 256 256" version="1.1" xmlns="http://www.w3.org/2000/svg" xmlns:xlink="http://www.w3.org/1999/xlink">
    <!-- Generator: Sketch 50.2 (55047) - http://www.bohemiancoding.com/sketch -->
    <title>logo/strandulv</title>
    <desc>Created with Sketch.</desc>
    <defs></defs>
    <g id="logo/strandulv" stroke="none" stroke-width="1" fill="none" fill-rule="evenodd">
        <g id="strandulv" fill-rule="nonzero">
            <g id="#020102ff" fill="#020102">
                <path d="M109.096689,2.06834437 C135.018808,-1.76317881 162.009007,3.01774834 185.269404,14.9700662 C211.36106,28.3634437 232.553113,51.0304636 244.217219,77.935894 C254.18596,100.602914 257.474967,126.219868 253.423046,150.66702 C245.76,204.05404 199.49351,248.964238 145.835232,254.898013 C122.727417,256.288212 98.2633113,256.322119 77.3255629,245.047947 C33.4156291,226.58543 2.33960265,181.641325 0.406887417,134.069404 C-1.62754967,98.1954967 12.6474172,61.7451656 38.5186755,36.8402649 C57.5576159,18.1234437 82.6659603,5.74728477 109.096689,2.06834437 Z M82.8524503,16.4619868 C51.8781457,28.7703311 26.498543,54.5059603 14.7496689,85.7176159 C14.0376159,85.1750993 13.3086093,84.6325828 12.6135099,84.0900662 C11.0368212,96.2627815 7.71390728,108.130331 6.25589404,120.32 C6.05245033,124.32106 5.10304636,129.135894 8.34119205,132.255364 C11.5115232,133.476026 14.9361589,133.764238 18.2590728,134.408477 C22.8874172,143.817748 28.2108609,152.955762 34.8227815,161.144371 C36.6876821,168.722649 42.6723179,174.554702 49.4707285,177.962384 C55.5740397,179.38649 61.914702,178.064106 68.0688742,177.606358 C74.4603974,179.606887 80.970596,181.234437 87.4977483,182.69245 C79.8855629,187.083444 71.1883444,185.591523 62.9149669,185.116821 C48.9960265,186.69351 34.9753642,185.388079 21.0394702,186.422252 C33.4495364,211.22543 55.9978808,230.315232 81.5300662,240.673907 C107.130066,250.964768 136.273377,252.371921 162.636291,244.13245 C192.881589,234.977483 219.549669,213.632848 234.095894,185.472848 C226.975364,185.388079 219.803974,185.557616 212.751258,186.710464 C209.987815,191.203179 205.240795,191.491391 200.561589,190.270728 C205.037351,192.457748 208.767152,195.848477 211.496689,200.002119 C208.309404,200.883709 205.156026,202.172185 201.816159,202.290861 C197.170861,201.104106 193.051126,198.171126 188.18543,197.798146 C182.946755,197.628609 178.064106,200.05298 172.876291,200.341192 C168.230993,199.561325 164.128212,196.848742 159.415099,196.323179 C154.396821,195.712848 149.344636,196.00106 144.309404,196.238411 C141.596821,198.950993 139.155497,202.307815 135.391788,203.630199 C132.848742,204.189669 130.356556,203.002914 127.864371,202.646887 C129.932715,200.23947 132.085828,197.933775 134.171126,195.560265 C127.338808,196.492715 119.726623,194.543046 113.606358,198.357616 C107.876026,202.307815 98.6023841,201.205828 94.3300662,195.645033 C100.467285,193.949669 108.367682,195.780662 112.860397,190.321589 C117.641325,185.879735 124.219338,185.62543 130.390464,185.744106 C129.085033,181.505695 127.508344,177.284238 127.084503,172.82543 C127.118411,167.196821 129.169801,161.568212 127.44053,155.97351 C123.117351,154.871523 118.675497,154.261192 114.233642,153.956026 L114.08106,155.363179 C107.570861,163.178808 103.095099,172.367682 98.5854305,181.403974 C104.40053,182.014305 110.215629,182.590728 116.013775,183.370596 C111.588874,190.779338 102.4,188.439735 95.1607947,189.25351 C92.0243709,192.152583 88.7184106,195.255099 84.3782781,196.068874 C77.935894,197.882914 69.3234437,197.374305 66.3904636,204.749139 C64.5764238,203.104636 62.7793377,201.460132 60.965298,199.849536 C60.5584106,204.545695 64.0339073,212.513907 57.3202649,213.78543 C52.2680795,215.056954 49.8098013,209.953907 49.2164238,205.851126 C50.4370861,205.088212 51.6407947,204.342252 52.8445033,203.579338 C53.3870199,206.681854 54.1160265,209.936954 56.9811921,211.767947 C57.3033113,207.970331 57.218543,204.121854 57.8627815,200.375099 C59.7446358,196.882649 64.0678146,197.916821 67.2890066,197.645563 C69.3912583,194.712583 71.1544371,191.406623 73.9856954,189.100927 C79.3091391,186.50702 85.3276821,185.320265 90.0577483,181.556556 C91.7192053,180.31894 92.5499338,178.335364 93.4484768,176.538278 C98.0937748,165.46755 103.044238,154.430728 105.383841,142.597086 C107.367417,132.763974 114.962649,123.897219 112.572185,113.453775 C111.877086,105.70596 111.843179,96.7205298 105.33298,91.2953642 C101.857483,88.5997351 98.5854305,85.6498013 95.4829139,82.5472848 C95.4490066,81.8013245 95.3981457,80.309404 95.3811921,79.5634437 C99.5178808,76.8339073 103.65457,80.9536424 107.401325,82.4625166 C104.40053,78.6140397 101.298013,74.8333775 98.4837086,70.8323179 C102.756026,66.4752318 107.926887,69.4082119 112.792583,70.6966887 C115.437351,74.8503311 119.828344,75.9692715 124.18543,73.7144371 C126.762384,75.0707285 129.203709,76.8169536 132.051921,77.5629139 C133.662517,80.0890066 135.001854,83.0050331 137.663576,84.6156291 C141.308609,84.48 143.91947,81.6656954 146.598146,79.5464901 C147.276291,79.6482119 148.649536,79.834702 149.344636,79.9364238 C147.971391,82.1912583 146.581192,84.4291391 145.190993,86.6670199 C143.003974,90.1764238 139.986225,93.770596 140.42702,98.1615894 C141.969801,104.485298 146.157351,109.673113 149.276821,115.267815 C155.397086,125.321325 158.736954,136.917616 165.925298,146.360795 C169.943311,137.714437 171.214834,128.050861 170.655364,118.607682 C172.011656,124.677086 172.469404,131.068609 170.824901,137.138013 C169.587285,143.241325 165.230199,149.327682 168.536159,155.549669 C173.842649,165.535364 176.707815,176.538278 177.216424,187.81245 C184.370861,188.253245 191.491391,188.931391 198.645828,189.134834 C194.712583,187.914172 190.728477,186.88 186.727417,185.845828 C188.287152,184.659073 189.846887,183.506225 191.406623,182.353377 C195.729801,181.743046 200.409007,181.403974 203.850596,178.369272 C210.615099,172.842384 216.650596,166.450861 223.686358,161.229139 C226.144636,157.957086 228.314702,154.362914 231.434172,151.650331 C235.452185,149.768477 240.199205,150.819603 244.285033,149.192053 C248.913377,146.462517 248.167417,140.325298 248.709934,135.747815 C251.049536,101.501457 238.164768,66.4582781 213.717616,42.2654305 C196.340132,25.1592053 173.842649,12.6813245 149.531126,9.18887417 C127.169272,5.27258278 103.807152,7.59523179 82.8524503,16.4619868 Z" id="Shape"></path>
                <path d="M122.744371,12.4270199 C123.337748,12.2574834 124.541457,11.901457 125.151788,11.7319205 C129.966623,19.8527152 132.797881,28.9568212 136.781987,37.4845033 C139.901457,29.1602649 141.512053,20.3782781 144.394172,11.9862252 C149.480265,17.2927152 151.41298,24.5149669 154.871523,30.8047682 C156.431258,26.0577483 157.838411,21.2598675 159.262517,16.4619868 C160.500132,16.7501987 162.958411,17.3435762 164.196026,17.6317881 C162.958411,27.0580132 160.974834,36.5181457 157.126358,45.2492715 C156.600795,45.1475497 155.566623,44.9610596 155.04106,44.8593377 C151.090861,38.7560265 148.632583,31.7880795 145.157086,25.3965563 C144.631523,30.9403974 143.749934,36.4333775 143.105695,41.9433113 C139.901457,41.6550993 136.663311,41.6211921 133.543841,40.8752318 C130.899073,39.0442384 128.830728,36.5181457 126.55894,34.2633113 C121.472848,37.026755 117.285298,43.4860927 110.758146,41.672053 C105.248212,39.4511258 101.009801,34.941457 96.144106,31.6354967 C97.6529801,35.7043709 99.0262252,39.8410596 100.331656,43.9777483 C98.5345695,44.6389404 96.7374834,45.2662252 94.9234437,45.8935099 C92.0243709,37.026755 89.2948344,28.0921854 86.8365563,19.0898013 C92.4482119,17.682649 99.1788079,13.5798675 104.58702,17.4961589 C109.062781,20.5139073 107.214834,26.3629139 107.672583,30.8556291 C107.418278,34.2633113 111.266755,35.6874172 113.19947,37.8744371 C116.742781,29.533245 118.811126,20.5986755 122.744371,12.4270199 Z M123.015629,20.4121854 C122.422252,23.3960265 121.778013,26.3629139 121.133775,29.3298013 C123.151258,29.6519205 125.185695,29.9401325 127.220132,30.2283444 C125.81298,26.9562914 124.405828,23.6842384 123.015629,20.4121854 Z M95.0760265,23.1247682 C95.194702,24.5149669 95.4150993,27.2953642 95.5168212,28.6855629 C97.2291391,28.4312583 98.9584106,28.16 100.670728,27.8887417 C100.975894,26.7189404 101.552318,24.3454305 101.857483,23.1586755 C99.602649,23.1417219 97.3308609,23.1247682 95.0760265,23.1247682 Z" id="Shape"></path>
                <path d="M60.2023841,37.1454305 C65.0002649,30.3470199 72.9515232,27.1258278 79.5803974,22.4974834 C80.0550993,23.0060927 81.021457,24.0233113 81.4961589,24.5319205 C79.1565563,26.4476821 76.7830464,28.3295364 74.5451656,30.3639735 C74.8672848,30.9743046 75.4776159,32.1610596 75.7827815,32.7544371 C79.3939073,39.0272848 83.5645033,44.9610596 87.0569536,51.2847682 C85.1750993,51.6068874 83.293245,51.8781457 81.4113907,52.149404 C78.2071523,47.029404 74.9011921,41.9772185 71.5274172,36.975894 C71.0357616,36.2129801 70.018543,34.704106 69.5099338,33.9411921 C66.4074172,35.0431788 63.3218543,36.1282119 60.2023841,37.1454305 Z" id="Shape"></path>
                <path d="M173.418808,21.666755 C179.318675,24.3115232 184.32,28.4990728 187.931126,33.8564238 C184.913377,39.0611921 182.573775,45.3001325 177.165563,48.5213245 C172.147285,51.437351 166.179603,49.5215894 161.127417,47.7584106 C160.449272,47.504106 159.126887,46.9954967 158.465695,46.7411921 C163.382252,38.3491391 168.298808,29.9401325 173.418808,21.666755 Z M170.384106,33.0765563 C168.383576,36.6368212 164.416424,41.2990728 167.993642,45.181457 L167.230728,46.4190728 C172.740662,47.3684768 178.623576,45.3509934 180.45457,39.6376159 C183.167152,35.7043709 179.57298,32.144106 177.131656,29.2619868 C177.419868,28.634702 177.996291,27.3801325 178.284503,26.7528477 C175.215894,28.2278146 172.07947,29.9570861 170.384106,33.0765563 Z" id="Shape"></path>
                <path d="M47.4362914,53.8617219 C44.4015894,47.1650331 51.4543046,40.7565563 57.8119205,40.2988079 C57.5237086,41.1803974 56.9303311,42.9605298 56.6251656,43.8590728 C54.7602649,44.7237086 52.9123179,45.6222517 51.0474172,46.5207947 C51.8103311,48.5552318 52.5901987,50.5896689 53.3870199,52.6071523 C59.592053,52.0137748 68.2892715,48.0974834 72.2564238,55.133245 C76.3761589,62.1350993 69.8659603,70.5780132 62.338543,70.7475497 C62.0333775,69.0013245 61.7282119,67.2550993 61.44,65.5088742 C64.0508609,63.3557616 66.4921854,60.9992053 68.4757616,58.2527152 C61.5756291,57.3202649 51.2,62.0503311 47.4362914,53.8617219 Z" id="Shape"></path>
                <path d="M185.845828,47.5888742 C188.744901,49.3859603 191.525298,51.3525828 194.288742,53.3361589 C192.288212,54.472053 190.270728,55.607947 188.270199,56.7438411 C186.964768,55.0484768 185.693245,53.3531126 184.438675,51.6407947 C184.913377,50.301457 185.388079,48.9451656 185.845828,47.5888742 Z" id="Shape"></path>
                <path d="M191.389669,64.3560265 C196.475762,58.1001325 203.918411,54.3703311 210.191258,49.4368212 C210.85245,50.3692715 212.157881,52.2002649 212.802119,53.1327152 C205.834172,55.9978808 199.900397,60.7449007 194.390464,65.8140397 C194.916026,66.7295364 195.950199,68.5605298 196.475762,69.4760265 C197.560795,71.2731126 198.611921,73.2058278 200.392053,74.4434437 C207.902517,72.1716556 213.175099,65.6445033 219.990464,61.9316556 C220.583841,62.9827815 221.770596,65.1189404 222.363974,66.1700662 C213.429404,69.9507285 205.800265,76.2066225 196.679205,79.6143046 C193.81404,75.2233113 187.897219,70.0015894 191.389669,64.3560265 Z" id="Shape"></path>
                <path d="M51.0474172,64.4577483 C52.3528477,64.898543 54.9806623,65.7801325 56.2860927,66.2039735 C52.7936424,68.7470199 49.352053,71.3578808 45.8256954,73.8839735 C47.4871523,70.6966887 49.2842384,67.5941722 51.0474172,64.4577483 Z" id="Shape"></path>
                <path d="M224.381457,75.2572185 C226.72106,74.1043709 228.619868,75.9353642 229.552318,77.9528477 C221.685828,79.9364238 214.226225,83.1576159 206.953113,86.6839735 C207.766887,88.175894 208.580662,89.6847682 209.394437,91.1766887 C210.496424,93.1941722 211.632318,95.194702 212.768212,97.1952318 C211.005033,98.3480795 209.224901,99.5178808 207.444768,100.670728 C205.274702,95.6524503 203.206358,90.5833113 201.460132,85.4124503 C209.123179,82.1064901 216.413245,77.8341722 224.381457,75.2572185 Z" id="Shape"></path>
                <path d="M25.4135099,79.6482119 C32.1271523,83.055894 38.874702,86.4127152 45.6222517,89.7695364 C48.0127152,85.615894 50.5727152,81.4792053 54.4550993,78.5462252 C56.8455629,85.5480795 52.4884768,91.922649 49.8098013,98.0937748 C40.6039735,94.4996026 31.855894,89.8543046 23.3790728,84.7851656 C24.0572185,83.0728477 24.7353642,81.3605298 25.4135099,79.6482119 Z" id="Shape"></path>
                <path d="M231.942781,93.109404 C233.689007,91.6513907 235.621722,92.8550993 236.978013,94.1944371 C231.129007,98.0429139 225.263046,101.891391 220.024371,106.536689 C222.635232,107.028344 225.263046,107.52 227.890861,107.926887 C231.807152,108.554172 235.808212,108.791523 239.656689,109.791788 C240.809536,111.877086 241.589404,114.114967 242.470993,116.31894 C232.112318,115.149139 221.770596,113.775894 211.445828,112.300927 C211.03894,111.351523 210.225166,109.452715 209.818278,108.503311 C217.108344,103.264636 224.194967,97.6529801 231.942781,93.109404 Z" id="Shape"></path>
                <path d="M32.6357616,107.655629 C30.3131126,102.993377 32.5340397,95.9406623 38.5186755,95.9915232 C36.6198675,99.9078146 34.6701987,103.807152 32.6357616,107.655629 Z" id="Shape"></path>
                <path d="M14.8005298,108.63894 C24.5997351,109.028874 34.1446358,111.436291 43.6217219,113.843709 C43.5369536,115.912053 43.4521854,117.980397 43.3674172,120.048742 C34.5345695,117.895629 25.3965563,116.861457 16.8010596,113.843709 C16.0211921,112.148344 15.36,110.419073 14.8005298,108.63894 Z" id="Shape"></path>
                <path d="M44.1642384,189.609536 C49.1316556,188.761854 54.1838411,188.778808 59.1512583,189.660397 C58.9139073,190.762384 58.4731126,192.966358 58.2357616,194.085298 C53.8956291,194.051391 49.5554967,194.034437 45.2153642,194.051391 C44.944106,192.949404 44.418543,190.728477 44.1642384,189.609536 Z" id="Shape"></path>
                <path d="M81.6996026,199.883444 C84.9038411,199.730861 88.1250331,199.476556 91.3462252,199.730861 C92.9907285,201.544901 94.1774834,203.698013 95.5168212,205.749404 C91.1597351,206.071523 86.8704636,205.156026 82.6659603,204.087947 C82.4286093,203.036821 81.9369536,200.93457 81.6996026,199.883444 Z" id="Shape"></path>
                <path d="M136.324238,209.140132 C140.42702,207.241325 144.563709,205.393377 148.734305,203.630199 C149.565033,205.851126 150.378808,208.072053 151.175629,210.309934 C146.29298,211.784901 141.291656,212.954702 136.205563,213.581987 C136.23947,212.48 136.290331,210.259073 136.324238,209.140132 Z" id="Shape"></path>
                <path d="M159.042119,204.257483 C162.958411,204.291391 166.891656,204.325298 170.807947,204.291391 C170.807947,205.308609 170.824901,207.36 170.824901,208.394172 C167.468079,209.004503 163.992583,210.394702 160.584901,209.36053 C160.008477,207.665166 159.482914,205.969801 159.042119,204.257483 Z" id="Shape"></path>
                <path d="M58.88,220.041325 C63.1353642,214.073642 67.6111258,207.851656 74.2230464,204.291391 C72.9176159,206.783576 71.5274172,209.241854 70.0863576,211.666225 C74.0365563,211.106755 78.0037086,210.649007 81.9878146,210.411656 C79.0717881,212.344371 75.9862252,214.005828 72.9176159,215.701192 C72.2903311,219.753113 71.5104636,223.771126 70.4254305,227.721325 C68.5096689,224.16106 68.4927152,220.058278 68.170596,216.125033 C65.0680795,217.41351 61.9994702,218.820662 58.88,220.041325 Z" id="Shape"></path>
                <path d="M103.603709,208.139868 C109.062781,208.360265 114.504901,208.834967 119.963974,209.190993 C119.94702,210.191258 119.94702,212.174834 119.930066,213.158146 C114.674437,213.242914 109.401854,213.242914 104.146225,213.158146 C104.010596,211.903576 103.739338,209.394437 103.603709,208.139868 Z" id="Shape"></path>
                <path d="M180.45457,210.733775 C189.25351,205.986755 196.102781,223.160795 187.558146,226.924503 C183.285828,229.179338 177.436821,226.53457 176.707815,221.668874 C176.131391,217.837351 176.097483,212.361325 180.45457,210.733775 Z M181.285298,212.683444 C180.708874,215.514702 178.623576,218.566358 180.149404,221.448477 C181.539603,224.466225 187.456424,226.093775 188.338013,221.923179 C189.931656,217.023576 185.811921,213.361589 181.285298,212.683444 Z" id="Shape"></path>
                <path d="M74.9859603,228.755497 C78.6818543,223.109934 81.4961589,216.226755 87.9724503,213.175099 C85.2768212,219.261457 81.5639735,224.788344 77.8511258,230.298278 C77.1390728,229.908344 75.7149669,229.14543 74.9859603,228.755497 Z" id="Shape"></path>
                <path d="M162.110728,221.431523 C164.653775,216.887947 169.722914,215.396026 174.26649,213.717616 C172.842384,220.838146 174.520795,230.094834 168.061457,235.028344 C168.230993,229.772715 168.807417,224.567947 169.536424,219.380132 C167.078146,220.109139 164.602914,220.804238 162.110728,221.431523 Z" id="Shape"></path>
                <path d="M92.6686093,217.956026 C98.0259603,215.904636 106.485828,220.041325 102.925563,226.58543 C100.450331,235.367417 90.0916556,229.111523 84.242649,233.604238 C86.9043709,228.314702 88.9218543,222.601325 92.6686093,217.956026 Z M93.4484768,220.600795 C92.7533775,222.838675 92.0752318,225.09351 91.4140397,227.348344 C93.5501987,227.856954 95.669404,228.484238 97.8564238,228.77245 C98.8566887,227.348344 99.7721854,225.873377 100.619868,224.34755 C98.229404,223.09298 95.8389404,221.838411 93.4484768,220.600795 Z" id="Shape"></path>
                <path d="M149.293775,231.112053 C147.988344,226.771921 149.700662,221.584106 154.651126,220.804238 C161.720795,218.430728 162.771921,228.653775 162.178543,233.536424 C162.009007,239.910993 154.651126,240.199205 149.954967,239.232848 C152.718411,236.740662 156.363444,235.876026 159.788079,234.706225 C156.499073,232.96 152.904901,231.942781 149.293775,231.112053 Z M152.701457,229.823576 C154.803709,229.925298 156.90596,230.010066 159.008212,230.077881 C158.753907,228.094305 158.482649,226.110728 158.194437,224.127152 C154.34596,223.499868 151.853775,225.907285 152.701457,229.823576 Z" id="Shape"></path>
                <path d="M136.442914,231.383311 C138.460397,227.585695 141.257748,224.296689 144.580662,221.584106 C145.140132,228.02649 147.649272,235.062252 145.17404,241.284238 C144.512848,241.741987 143.207417,242.674437 142.546225,243.132185 C142.122384,238.622517 141.986755,234.095894 141.952848,229.552318 C140.121854,230.179603 138.273907,230.789934 136.442914,231.383311 Z" id="Shape"></path>
                <path d="M98.1446358,239.33457 C102.21351,233.536424 106.299338,227.551788 111.843179,223.059073 C112.487417,223.313377 113.792848,223.83894 114.437086,224.110199 C115.488212,230.247417 115.081325,236.503311 114.877881,242.691391 C112.419603,239.927947 109.978278,237.14755 107.401325,234.502781 C104.332715,236.164238 101.298013,237.842649 98.1446358,239.33457 Z M110.419073,227.823046 C107.757351,227.789139 107.299603,232.40053 110.164768,232.434437 C112.809536,232.485298 113.216424,227.84 110.419073,227.823046 Z" id="Shape"></path>
                <path d="M119.726623,235.113113 C122.422252,230.281325 128.695099,231.65457 132.611391,234.011126 C128.389934,235.113113 124.049801,235.384371 119.726623,235.113113 Z" id="Shape"></path>
            </g>
            <g id="#d3ecfbff" transform="translate(5.086093, 6.781457)" fill="#D3ECFB">
                <path d="M89.9899338,16.3433113 C92.2447682,16.3433113 94.5165563,16.3602649 96.7713907,16.3772185 C96.4662252,17.5639735 95.8898013,19.9374834 95.5846358,21.1072848 C93.8723179,21.378543 92.1430464,21.6498013 90.4307285,21.904106 C90.3290066,20.5139073 90.1086093,17.7335099 89.9899338,16.3433113 Z" id="Shape"></path>
                <path d="M147.615364,223.042119 C146.767682,219.125828 149.259868,216.718411 153.108344,217.345695 C153.396556,219.329272 153.667815,221.312848 153.922119,223.296424 C151.819868,223.228609 149.717616,223.143841 147.615364,223.042119 Z" id="Shape"></path>
                <path d="M77.7663576,9.6805298 C98.7210596,0.813774834 122.083179,-1.50887417 144.445033,2.40741722 C168.756556,5.89986755 191.25404,18.3777483 208.631523,35.4839735 C233.078675,59.6768212 245.963444,94.72 243.623841,128.966358 C243.081325,133.543841 243.827285,139.68106 239.19894,142.410596 C235.113113,144.038146 230.366093,142.98702 226.348079,144.868874 C223.228609,147.581457 221.058543,151.175629 218.600265,154.447682 C204.511788,154.193377 190.406358,153.752583 176.317881,154.379868 C175.639735,153.820397 174.26649,152.718411 173.588344,152.175894 C180.081589,139.426755 183.57404,124.829669 180.725828,110.588609 C177.19947,88.9557616 160.178013,70.3745695 139.087682,64.5594702 C128.830728,61.7112583 118.13298,63.3896689 107.70649,63.9152318 C102.840795,62.626755 97.6699338,59.6937748 93.3976159,64.0508609 C96.2119205,68.0519205 99.3144371,71.8325828 102.315232,75.6810596 C98.5684768,74.1721854 94.4317881,70.0524503 90.2950993,72.7819868 C78.8174834,79.6651656 70.5949669,91.2784106 66.6108609,103.925828 C62.2707285,120.031788 64.3560265,137.561854 72.2225166,152.260662 C70.730596,153.04053 69.2217219,153.837351 67.7128477,154.617219 C55.0654305,154.006887 42.384106,153.633907 29.7366887,154.362914 C23.1247682,146.174305 17.8013245,137.036291 13.1729801,127.62702 C9.85006623,126.982781 6.42543046,126.69457 3.25509934,125.473907 C0.0169536424,122.354437 0.966357616,117.539603 1.16980132,113.538543 C2.62781457,101.348874 5.95072848,89.4813245 7.52741722,77.3086093 C8.22251656,77.8511258 8.95152318,78.3936424 9.66357616,78.9361589 C21.4124503,47.7245033 46.792053,21.9888742 77.7663576,9.6805298 Z M117.658278,5.64556291 C113.725033,13.8172185 111.656689,22.7517881 108.113377,31.0929801 C106.180662,28.9059603 102.332185,27.4818543 102.58649,24.0741722 C102.128742,19.581457 103.976689,13.7324503 99.5009272,10.714702 C94.0927152,6.7984106 87.3621192,10.9011921 81.7504636,12.3083444 C84.2087417,21.3107285 86.9382781,30.245298 89.837351,39.112053 C91.6513907,38.4847682 93.4484768,37.8574834 95.2455629,37.1962914 C93.9401325,33.0596026 92.5668874,28.9229139 91.0580132,24.8540397 C95.9237086,28.16 100.162119,32.6696689 105.672053,34.890596 C112.199205,36.7046358 116.386755,30.245298 121.472848,27.4818543 C123.744636,29.7366887 125.81298,32.2627815 128.457748,34.0937748 C131.577219,34.8397351 134.815364,34.8736424 138.019603,35.1618543 C138.663841,29.6519205 139.54543,24.1589404 140.070993,18.6150993 C143.54649,25.0066225 146.004768,31.9745695 149.954967,38.0778808 C150.48053,38.1796026 151.514702,38.3660927 152.040265,38.4678146 C155.888742,29.7366887 157.872318,20.2765563 159.109934,10.8503311 C157.872318,10.5621192 155.41404,9.96874172 154.176424,9.6805298 C152.752318,14.4784106 151.345166,19.2762914 149.78543,24.0233113 C146.326887,17.7335099 144.394172,10.5112583 139.308079,5.20476821 C136.42596,13.5968212 134.815364,22.3788079 131.695894,30.7030464 C127.711788,22.1753642 124.88053,13.0712583 120.065695,4.95046358 C119.455364,5.12 118.251656,5.47602649 117.658278,5.64556291 Z M55.1162914,30.3639735 C55.8961589,31.3981457 57.455894,33.4495364 58.2357616,34.4837086 C60.9822517,33.0596026 63.7117881,31.618543 66.4413245,30.1944371 C69.8150993,35.1957616 73.1210596,40.247947 76.325298,45.367947 C76.9017219,46.4868874 78.0376159,48.7078146 78.5970861,49.826755 C80.072053,47.8092715 82.1403974,46.317351 83.5475497,44.2490066 L81.9708609,44.5033113 C78.4784106,38.1796026 74.3078146,32.2458278 70.6966887,25.9729801 C73.2397351,24.650596 75.7658278,23.3112583 78.2919205,21.9549669 C77.8341722,20.9038411 76.8847682,18.8015894 76.4100662,17.7504636 C75.9353642,17.2418543 74.9690066,16.2246358 74.4943046,15.7160265 C67.8654305,20.3443709 59.9141722,23.5655629 55.1162914,30.3639735 Z M168.332715,14.885298 C163.212715,23.1586755 158.296159,31.5676821 153.379603,39.9597351 C154.040795,40.2140397 155.363179,40.722649 156.041325,40.9769536 C159.228609,43.3674172 162.466755,46.2156291 166.58649,46.7242384 C170.926623,46.8937748 175.131126,45.6392053 179.352583,44.8593377 C180.607152,46.5716556 181.878675,48.2670199 183.184106,49.9623841 C184.794702,50.9287417 186.405298,51.8950993 188.049801,52.8445033 C188.846623,50.5218543 189.609536,48.1992053 190.389404,45.8765563 L189.202649,46.554702 C186.439205,44.5711258 183.658808,42.6045033 180.759735,40.8074172 C182.336424,36.4164238 182.641589,31.7033113 182.845033,27.0749669 C179.233907,21.7176159 174.232583,17.5300662 168.332715,14.885298 Z M42.3501987,47.0802649 C46.1139073,55.2688742 56.4895364,50.5388079 63.3896689,51.4712583 C61.4060927,54.2177483 58.9647682,56.5743046 56.3539073,58.7274172 C56.6421192,60.4736424 56.9472848,62.2198675 57.2524503,63.9660927 C64.7798675,63.7965563 71.2900662,55.3536424 67.1703311,48.3517881 C63.2031788,41.3160265 54.5059603,45.2323179 48.3009272,45.8256954 C50.5049007,43.1639735 52.7088742,40.485298 54.8280795,37.7388079 C53.997351,37.5692715 52.3698013,37.2301987 51.5390728,37.0776159 C51.8442384,36.1790728 52.4376159,34.3989404 52.7258278,33.517351 C46.3682119,33.9750993 39.3154967,40.3835762 42.3501987,47.0802649 Z M186.303576,57.5745695 C182.811126,63.2201325 188.727947,68.4418543 191.593113,72.8328477 C195.000795,73.6974834 198.781457,75.5284768 202.019603,73.1549669 C208.377219,69.4082119 215.497748,65.661457 218.85457,58.7104636 L217.277881,59.3886093 C216.684503,58.3374834 215.497748,56.2013245 214.904371,55.1501987 C208.089007,58.8630464 202.816424,65.3901987 195.30596,67.6619868 C193.525828,66.4243709 192.474702,64.4916556 191.389669,62.6945695 C197.560795,57.3202649 205.274702,53.2513907 209.123179,45.7070199 L207.716026,46.3512583 C207.071788,45.4188079 205.766358,43.5878146 205.105166,42.6553642 C198.832318,47.5888742 191.389669,51.3186755 186.303576,57.5745695 Z M45.9613245,57.6762914 C44.1981457,60.8127152 42.4010596,63.9152318 40.7396026,67.1025166 C42.5197351,68.1536424 44.2829139,69.2047682 46.0630464,70.255894 C48.6060927,67.0855629 50.6574834,63.5083444 51.2,59.4225166 C49.8945695,58.9986755 47.266755,58.1170861 45.9613245,57.6762914 Z M219.295364,68.4757616 C211.327152,71.0527152 204.037086,75.3250331 196.37404,78.6309934 C198.120265,83.8018543 200.188609,88.8709934 202.358675,93.8892715 C202.646887,94.6182781 203.240265,96.093245 203.528477,96.8392053 C204.884768,96.7713907 207.580397,96.6696689 208.936689,96.6188079 C208.512848,94.5504636 208.10596,92.4821192 207.682119,90.4137748 C206.546225,88.413245 205.410331,86.4127152 204.308344,84.3952318 C211.140662,79.1565563 221.550199,78.7496689 226.042914,70.7475497 L224.466225,71.1713907 C223.533775,69.1539073 221.634967,67.3229139 219.295364,68.4757616 Z M20.3274172,72.866755 C19.6492715,74.5790728 18.9711258,76.2913907 18.2929801,78.0037086 C26.7698013,83.0728477 35.5178808,87.7181457 44.7237086,91.3123179 C47.4023841,85.1411921 51.7594702,78.7666225 49.3690066,71.7647682 C45.4866225,74.6977483 42.9266225,78.8344371 40.5361589,82.9880795 C33.7886093,79.6312583 27.0410596,76.2744371 20.3274172,72.866755 Z M226.856689,86.327947 C219.108874,90.8715232 212.022252,96.4831788 204.732185,101.721854 C205.139073,102.671258 205.952848,104.570066 206.359735,105.51947 C216.684503,106.994437 227.026225,108.367682 237.384901,109.537483 C236.503311,107.33351 235.723444,105.095629 234.570596,103.010331 C230.722119,102.010066 226.72106,101.772715 222.804768,101.14543 C224.805298,97.2121854 228.636821,94.8386755 232.230993,92.5329801 C232.095364,90.8206623 231.993642,89.125298 231.891921,87.4129801 C230.535629,86.0736424 228.602914,84.8699338 226.856689,86.327947 Z M27.5496689,100.874172 L27.024106,101.908344 C28.3803974,101.789669 31.0929801,101.535364 32.4492715,101.399735 C33.0765563,97.3647682 33.4834437,93.295894 33.4325828,89.2100662 C27.447947,89.1592053 25.2270199,96.2119205 27.5496689,100.874172 Z M9.71443709,101.857483 C10.2739073,103.637616 10.9350993,105.366887 11.7149669,107.062252 C20.3104636,110.08 29.4484768,111.114172 38.2813245,113.267285 C38.3660927,111.19894 38.4508609,109.130596 38.5356291,107.062252 C29.058543,104.654834 19.5136424,102.247417 9.71443709,101.857483 Z" id="Shape"></path>
                <path d="M117.929536,13.6307285 C119.319735,16.9027815 120.726887,20.1748344 122.13404,23.4468874 C120.099603,23.1586755 118.065166,22.8704636 116.047682,22.5483444 C116.691921,19.581457 117.336159,16.6145695 117.929536,13.6307285 Z" id="Shape"></path>
                <path d="M162.90755,38.4 C166.162649,33.2121854 169.383841,28.0074172 172.045563,22.4805298 C174.486887,25.362649 178.08106,28.9229139 175.368477,32.8561589 C173.537483,38.5695364 167.65457,40.5870199 162.144636,39.6376159 L162.90755,38.4 Z" id="Shape"></path>
                <path d="M119.099338,66.9329801 C133.713377,61.8129801 149.056424,69.6286093 160.194967,78.8344371 C182.285563,96.6866225 186.88,134.018543 166.942517,155.058013 C167.129007,146.174305 172.672848,138.731656 174.029139,130.119205 C178.064106,108.096424 165.298013,83.9883444 144.360265,75.6471523 C148.920795,79.7160265 153.854305,83.344106 158.330066,87.514702 C174.45298,103.095099 177.962384,130.93298 163.450066,148.768212 C160.144106,142.546225 164.501192,136.459868 165.738808,130.356556 C167.383311,124.287152 166.925563,117.895629 165.569272,111.826225 C163.907815,103.722384 160.127152,95.8219868 153.871258,90.2611921 C149.59894,86.4127152 144.767152,83.2423841 140.104901,79.8855629 C141.495099,77.6476821 142.885298,75.4098013 144.258543,73.1549669 C143.563444,73.053245 142.190199,72.866755 141.512053,72.7650331 C136.663311,72.0699338 131.797616,71.4935099 126.965828,70.781457 C124.117616,70.0354967 121.676291,68.2892715 119.099338,66.9329801 Z" id="Shape"></path>
                <path d="M70.1202649,100.636821 C73.6296689,90.1933775 81.3266225,81.7674172 90.3968212,75.7658278 C93.4993377,78.8683444 96.7713907,81.8182781 100.246887,84.5139073 C91.5835762,91.5496689 83.581457,100.263841 80.9366887,111.436291 C77.1729801,123.981987 80.6654305,137.49404 87.9046358,148.090066 C89.0405298,149.938013 90.1933775,151.802914 91.3462252,153.667815 C89.0913907,153.650861 86.8535099,153.633907 84.5986755,153.650861 C77.5968212,142.749669 71.8834437,130.18702 73.8331126,116.895364 C74.6468874,102.569536 84.6156291,91.6174834 93.0246358,80.9366887 C77.2238411,91.3801325 69.4421192,111.538013 72.3411921,129.983576 C73.9348344,138.358675 78.1054305,145.903046 81.4113907,153.684768 C80.258543,153.701722 77.935894,153.752583 76.7830464,153.769536 C65.8818543,138.528212 64.3051656,118.116026 70.1202649,100.636821 Z" id="Shape"></path>
                <path d="M82.4116556,175.910993 C83.055894,175.622781 84.3274172,175.063311 84.9716556,174.775099 C80.2415894,178.538808 74.2230464,179.725563 68.8996026,182.31947 C66.0683444,184.625166 64.3051656,187.931126 62.2029139,190.864106 C58.9817219,191.135364 54.658543,190.101192 52.7766887,193.593642 C52.1324503,197.340397 52.2172185,201.188874 51.8950993,204.98649 C49.0299338,203.155497 48.3009272,199.900397 47.7584106,196.797881 C46.554702,197.560795 45.3509934,198.306755 44.1303311,199.069669 C44.7237086,203.17245 47.1819868,208.275497 52.2341722,207.003974 C58.9478146,205.73245 55.4723179,197.764238 55.8792053,193.068079 C57.693245,194.678675 59.4903311,196.323179 61.3043709,197.967682 C64.237351,190.592848 72.8498013,191.101457 79.2921854,189.287417 C83.6323179,188.473642 86.9382781,185.371126 90.074702,182.472053 C95.9915232,182.590728 101.891391,182.929801 107.774305,183.540132 C103.281589,188.999205 95.3811921,187.168212 89.2439735,188.863576 C93.5162914,194.424371 102.789934,195.526358 108.520265,191.576159 C114.64053,187.761589 122.252715,189.711258 129.085033,188.778808 C126.999735,191.152318 124.846623,193.458013 122.778278,195.86543 C125.270464,196.221457 127.762649,197.408212 130.305695,196.848742 C134.069404,195.526358 136.510728,192.169536 139.223311,189.456954 C144.258543,189.219603 149.310728,188.931391 154.329007,189.541722 C159.042119,190.067285 163.144901,192.779868 167.790199,193.559735 C172.978013,193.271523 177.860662,190.847152 183.099338,191.016689 C187.965033,191.389669 192.084768,194.322649 196.730066,195.509404 C200.069934,195.390728 203.223311,194.102252 206.410596,193.220662 C203.68106,189.06702 199.951258,185.676291 195.475497,183.489272 C200.154702,184.709934 204.901722,184.421722 207.665166,179.929007 C214.717881,178.776159 221.889272,178.606623 229.009801,178.691391 C214.463576,206.851391 187.795497,228.196026 157.550199,237.350993 C131.187285,245.590464 102.043974,244.183311 76.4439735,233.89245 C50.9117881,223.533775 28.3634437,204.443974 15.9533775,179.640795 C29.8892715,178.606623 43.9099338,179.912053 57.8288742,178.335364 C66.1022517,178.810066 74.7994702,180.301987 82.4116556,175.910993 Z M39.0781457,182.828079 C39.3324503,183.94702 39.8580132,186.167947 40.1292715,187.269934 C44.469404,187.25298 48.8095364,187.269934 53.1496689,187.303841 C53.3870199,186.184901 53.8278146,183.980927 54.0651656,182.87894 C49.0977483,181.997351 44.0455629,181.980397 39.0781457,182.828079 Z M76.6135099,193.101987 C76.8508609,194.153113 77.3425166,196.255364 77.5798675,197.30649 C81.7843709,198.37457 86.0736424,199.290066 90.4307285,198.967947 C89.0913907,196.916556 87.9046358,194.763444 86.2601325,192.949404 C83.0389404,192.695099 79.8177483,192.949404 76.6135099,193.101987 Z M131.238146,202.358675 C131.204238,203.477616 131.153377,205.698543 131.11947,206.80053 C136.205563,206.173245 141.206887,205.003444 146.089536,203.528477 C145.292715,201.290596 144.47894,199.069669 143.648212,196.848742 C139.477616,198.611921 135.340927,200.459868 131.238146,202.358675 Z M153.956026,197.476026 C154.396821,199.188344 154.922384,200.883709 155.498808,202.579073 C158.90649,203.613245 162.381987,202.223046 165.738808,201.612715 C165.738808,200.578543 165.721854,198.527152 165.721854,197.509934 C161.805563,197.543841 157.872318,197.509934 153.956026,197.476026 Z M53.7939073,213.259868 C56.9133775,212.039205 59.9819868,210.632053 63.0845033,209.343576 C63.4066225,213.276821 63.4235762,217.379603 65.3393377,220.939868 C66.4243709,216.989669 67.2042384,212.971656 67.8315232,208.919735 C70.9001325,207.224371 73.9856954,205.562914 76.9017219,203.630199 C72.9176159,203.86755 68.9504636,204.325298 65.0002649,204.884768 C66.4413245,202.460397 67.8315232,200.002119 69.1369536,197.509934 C62.5250331,201.070199 58.0492715,207.292185 53.7939073,213.259868 Z M98.5176159,201.358411 C98.653245,202.61298 98.9245033,205.122119 99.0601325,206.376689 C104.315762,206.461457 109.588344,206.461457 114.843974,206.376689 C114.860927,205.393377 114.860927,203.409801 114.877881,202.409536 C109.418808,202.05351 103.976689,201.578808 98.5176159,201.358411 Z M175.368477,203.952318 C171.011391,205.579868 171.045298,211.055894 171.621722,214.887417 C172.350728,219.753113 178.199735,222.397881 182.472053,220.143046 C191.016689,216.379338 184.167417,199.205298 175.368477,203.952318 Z M69.8998675,221.97404 C70.6288742,222.363974 72.0529801,223.126887 72.7650331,223.516821 C76.4778808,218.006887 80.1907285,212.48 82.8863576,206.393642 C76.4100662,209.445298 73.5957616,216.328477 69.8998675,221.97404 Z M157.024636,214.650066 C159.516821,214.022781 161.992053,213.327682 164.450331,212.598675 C163.721325,217.78649 163.144901,222.991258 162.975364,228.246887 C169.434702,223.313377 167.756291,214.056689 169.180397,206.936159 C164.636821,208.61457 159.567682,210.10649 157.024636,214.650066 Z M87.5825166,211.17457 C83.8357616,215.819868 81.8182781,221.533245 79.1565563,226.822781 C85.0055629,222.330066 95.3642384,228.58596 97.8394702,219.803974 C101.399735,213.259868 92.9398675,209.123179 87.5825166,211.17457 Z M144.207682,224.330596 C147.818808,225.161325 151.41298,226.178543 154.701987,227.924768 C151.277351,229.09457 147.632318,229.959205 144.868874,232.451391 C149.565033,233.417748 156.922914,233.129536 157.09245,226.754967 C157.685828,221.872318 156.634702,211.649272 149.565033,214.022781 C144.61457,214.802649 142.902252,219.990464 144.207682,224.330596 Z M131.356821,224.601854 C133.187815,224.008477 135.035762,223.398146 136.866755,222.770861 C136.900662,227.314437 137.036291,231.84106 137.460132,236.350728 C138.121325,235.89298 139.426755,234.96053 140.087947,234.502781 C142.563179,228.280795 140.05404,221.245033 139.49457,214.802649 C136.171656,217.515232 133.374305,220.804238 131.356821,224.601854 Z M93.058543,232.553113 C96.2119205,231.061192 99.2466225,229.382781 102.315232,227.721325 C104.892185,230.366093 107.33351,233.14649 109.791788,235.909934 C109.995232,229.721854 110.402119,223.46596 109.350993,217.328742 C108.706755,217.057483 107.401325,216.531921 106.757086,216.277616 C101.213245,220.770331 97.1274172,226.754967 93.058543,232.553113 Z M114.64053,228.331656 C118.963709,228.602914 123.303841,228.331656 127.525298,227.229669 C123.609007,224.873113 117.336159,223.499868 114.64053,228.331656 Z" id="Shape"></path>
                <path d="M176.199205,205.901987 C180.725828,206.580132 184.845563,210.242119 183.251921,215.141722 C182.370331,219.312318 176.45351,217.684768 175.063311,214.66702 C173.537483,211.784901 175.622781,208.733245 176.199205,205.901987 Z" id="Shape"></path>
                <path d="M88.3623841,213.819338 C90.7528477,215.056954 93.1433113,216.311523 95.5337748,217.566093 C94.6860927,219.091921 93.770596,220.566887 92.7703311,221.990993 C90.5833113,221.702781 88.464106,221.075497 86.327947,220.566887 C86.9891391,218.312053 87.6672848,216.057219 88.3623841,213.819338 Z" id="Shape"></path>
                <path d="M105.33298,221.041589 C108.130331,221.058543 107.723444,225.703841 105.078675,225.65298 C102.21351,225.619073 102.671258,221.007682 105.33298,221.041589 Z" id="Shape"></path>
            </g>
            <g id="#ac7849ff" transform="translate(30.516556, 23.735099)">
                <path d="M44.0286093,6.62887417 C46.2664901,4.59443709 48.64,2.71258278 50.9796026,0.796821192 C51.4543046,1.84794702 52.4037086,3.95019868 52.861457,5.0013245 C50.3353642,6.35761589 47.8092715,7.69695364 45.2662252,9.01933775 C44.9610596,8.42596026 44.3507285,7.2392053 44.0286093,6.62887417 Z" id="Shape" fill="#000000"></path>
                <path d="M139.86755,9.34145695 C141.562914,6.22198675 144.699338,4.49271523 147.767947,3.01774834 C147.479735,3.64503311 146.903311,4.89960265 146.615099,5.52688742 C143.953377,11.0537748 140.732185,16.258543 137.477086,21.4463576 C133.899868,17.5639735 137.86702,12.9017219 139.86755,9.34145695 Z" id="Shape" fill="#000000"></path>
                <path d="M157.41457,10.1213245 C157.211126,14.7496689 156.90596,19.4627815 155.329272,23.8537748 C154.871523,25.2100662 154.396821,26.5663576 153.922119,27.9056954 C149.700662,28.6855629 145.496159,29.9401325 141.156026,29.770596 C137.036291,29.2619868 133.798146,26.4137748 130.610861,24.0233113 C135.663046,25.7864901 141.630728,27.7022517 146.649007,24.7862252 C152.057219,21.5650331 154.396821,15.3260927 157.41457,10.1213245 Z" id="Shape" fill="#000000"></path>
                <path d="M163.772185,29.6010596 L164.95894,28.9229139 C164.179073,31.2455629 163.416159,33.5682119 162.619338,35.8908609 C160.974834,34.941457 159.364238,33.9750993 157.753642,33.0087417 C159.754172,31.8728477 161.771656,30.7369536 163.772185,29.6010596 Z" id="Shape" fill="#000000"></path>
                <path d="M182.285563,29.3976159 L183.692715,28.7533775 C179.844238,36.2977483 172.130331,40.3666225 165.959205,45.7409272 C165.433642,44.8254305 164.39947,42.9944371 163.873907,42.0789404 C169.383841,37.0098013 175.317616,32.2627815 182.285563,29.3976159 Z" id="Shape" fill="#000000"></path>
                <path d="M166.162649,55.8792053 C175.283709,52.4715232 182.912848,46.2156291 191.847417,42.4349669 L193.424106,41.7568212 C190.067285,48.7078146 182.946755,52.4545695 176.589139,56.2013245 C173.350993,58.5748344 169.570331,56.7438411 166.162649,55.8792053 Z" id="Shape" fill="#000000"></path>
                <path d="M82.2760265,46.9615894 C92.7025166,46.4360265 103.400265,44.7576159 113.657219,47.6058278 C134.74755,53.4209272 151.769007,72.0021192 155.295364,93.6349669 C158.143576,107.876026 154.651126,122.473113 148.157881,135.222252 C148.836026,135.764768 150.209272,136.866755 150.887417,137.426225 C151.429934,145.597881 155.736159,152.531921 160.890066,158.618278 C159.330331,159.771126 157.770596,160.923974 156.210861,162.110728 C160.211921,163.144901 164.196026,164.179073 168.129272,165.399735 C160.974834,165.196291 153.854305,164.518146 146.699868,164.077351 C146.191258,152.803179 143.326093,141.800265 138.019603,131.81457 C152.531921,113.979338 149.022517,86.141457 132.899603,70.5610596 C128.423841,66.3904636 123.490331,62.7623841 118.929801,58.6935099 C139.86755,67.034702 152.633642,91.1427815 148.598675,113.165563 C147.242384,121.778013 141.698543,129.220662 141.512053,138.104371 C161.449536,117.064901 156.855099,79.7329801 134.764503,61.8807947 C123.62596,52.6749669 108.282914,44.8593377 93.6688742,49.9793377 C89.3117881,52.2341722 84.9207947,51.1152318 82.2760265,46.9615894 Z" id="Shape" fill="#FD6302"></path>
                <path d="M176.436556,62.9488742 C183.709669,59.4225166 191.169272,56.2013245 199.035762,54.2177483 L200.61245,53.7939073 C196.119735,61.7960265 185.710199,62.2029139 178.877881,67.4415894 C178.064106,65.9496689 177.250331,64.4407947 176.436556,62.9488742 Z" id="Shape" fill="#000000"></path>
                <path d="M41.1803974,86.9721854 C45.1645033,74.3247682 53.3870199,62.7115232 64.8646358,55.8283444 C64.8815894,56.5743046 64.9324503,58.0662252 64.9663576,58.8121854 C55.8961589,64.8137748 48.1992053,73.2397351 44.6898013,83.6831788 C38.874702,101.162384 40.4513907,121.57457 51.3525828,136.815894 C52.5054305,136.79894 54.8280795,136.748079 55.9809272,136.731126 C56.7777483,136.714172 58.3713907,136.697219 59.1682119,136.697219 C61.4230464,136.680265 63.6609272,136.697219 65.9157616,136.714172 C64.7629139,134.849272 63.6100662,132.984371 62.4741722,131.136424 C64.9154967,131.153377 67.3737748,131.187285 69.832053,131.187285 C71.5274172,116.691921 78.5970861,103.739338 82.0556291,89.7186755 C84.4460927,100.162119 76.8508609,109.028874 74.8672848,118.861987 C72.5276821,130.695629 67.5772185,141.73245 62.9319205,152.803179 C62.0333775,154.600265 61.202649,156.583841 59.5411921,157.821457 C58.8969536,158.109669 57.6254305,158.669139 56.9811921,158.957351 C50.4540397,157.499338 43.9438411,155.871788 37.5523179,153.871258 C38.5017219,148.310464 40.247947,142.919205 42.2823841,137.663576 C43.7912583,136.883709 45.3001325,136.086887 46.792053,135.30702 C38.9255629,120.608212 36.8402649,103.078146 41.1803974,86.9721854 Z" id="Shape" fill="#FD6302"></path>
                <path d="M8.00211921,72.2564238 C8.05298013,76.3422517 7.64609272,80.4111258 7.01880795,84.4460927 C5.66251656,84.5817219 2.94993377,84.8360265 1.59364238,84.954702 L2.1192053,83.9205298 C4.15364238,80.072053 6.10331126,76.1727152 8.00211921,72.2564238 Z" id="Shape" fill="#000000"></path>
                <path d="M68.0688742,157.668874 C72.578543,148.632583 77.0543046,139.443709 83.5645033,131.628079 C83.2254305,134.764503 82.8863576,137.900927 82.5303311,141.037351 C86.565298,139.477616 90.6172185,137.917881 94.6860927,136.409007 C95.432053,135.018808 96.1780132,133.628609 96.9239735,132.238411 C98.653245,137.833113 96.6018543,143.461722 96.567947,149.090331 C96.9917881,153.549139 98.5684768,157.770596 99.8739073,162.009007 C93.7027815,161.890331 87.1247682,162.144636 82.3438411,166.58649 C76.4609272,165.976159 70.5610596,165.637086 64.6442384,165.518411 C71.8834437,164.704636 81.0723179,167.044238 85.4972185,159.635497 C79.6990728,158.855629 73.8839735,158.279205 68.0688742,157.668874 Z" id="Shape" fill="#FD6302"></path>
            </g>
            <g id="#a4a5a4ff" transform="translate(45.774834, 33.907285)">
                <path d="M14.4275497,3.2381457 C17.5470199,2.22092715 20.6325828,1.13589404 23.7350993,0.0339072848 C24.2437086,0.796821192 25.2609272,2.30569536 25.7525828,3.06860927 C23.0230464,4.49271523 20.2935099,5.93377483 17.5470199,7.35788079 C16.7671523,6.32370861 15.2074172,4.27231788 14.4275497,3.2381457 Z" id="Shape" fill="#000000"></path>
                <path d="M5.27258278,12.6135099 C7.13748344,11.7149669 8.98543046,10.8164238 10.8503311,9.95178808 C11.6810596,10.1043709 13.3086093,10.4434437 14.1393377,10.6129801 C12.0201325,13.3594702 9.81615894,16.0381457 7.61218543,18.6998675 C6.81536424,16.6823841 6.03549669,14.647947 5.27258278,12.6135099 Z" id="Shape" fill="#D3ECFB"></path>
                <path d="M35.6365563,18.2421192 C37.5184106,17.9708609 39.4002649,17.6996026 41.2821192,17.3774834 L42.8588079,17.1231788 C41.4516556,19.1915232 39.3833113,20.6834437 37.9083444,22.7009272 C37.3488742,21.5819868 36.2129801,19.3610596 35.6365563,18.2421192 Z" id="Shape" fill="#D3ECFB"></path>
                <path d="M10.5112583,32.2966887 C9.96874172,36.3825166 7.91735099,39.9597351 5.37430464,43.1300662 C3.59417219,42.0789404 1.83099338,41.0278146 0.0508609272,39.9766887 C3.57721854,37.450596 7.01880795,34.8397351 10.5112583,32.2966887 Z" id="Shape" fill="#000000"></path>
                <path d="M86.2770861,43.6556291 C91.1088742,44.3676821 95.9745695,44.944106 100.823311,45.6392053 C98.1446358,47.7584106 95.5337748,50.5727152 91.8887417,50.7083444 C89.2270199,49.0977483 87.8876821,46.1817219 86.2770861,43.6556291 Z" id="Shape" fill="#D3ECFB"></path>
                <path d="M191.203179,60.2871523 C191.304901,61.9994702 191.406623,63.6948344 191.542252,65.4071523 C187.948079,67.7128477 184.116556,70.0863576 182.116026,74.0196026 C179.488212,73.6127152 176.860397,73.1210596 174.249536,72.629404 C179.488212,67.984106 185.354172,64.1356291 191.203179,60.2871523 Z" id="Shape" fill="#D3ECFB"></path>
                <path d="M166.993377,63.287947 C167.417219,65.3562914 167.824106,67.4246358 168.247947,69.4929801 C166.891656,69.5438411 164.196026,69.6455629 162.839735,69.7133775 C162.551523,68.9674172 161.958146,67.4924503 161.669934,66.7634437 C163.450066,65.610596 165.230199,64.4407947 166.993377,63.287947 Z" id="Shape" fill="#000000"></path>
            </g>
            <g id="#fd6302ff" transform="translate(76.291391, 86.463576)" fill="#FD6302">
                <path d="M64.1356291,11.6980132 C63.6948344,7.30701987 66.7125828,3.71284768 68.8996026,0.203443709 C73.5618543,3.5602649 78.3936424,6.73059603 82.6659603,10.5790728 C88.9218543,16.1398675 92.7025166,24.0402649 94.3639735,32.144106 C94.9234437,41.5872848 93.6519205,51.2508609 89.6339073,59.8972185 C82.4455629,50.4540397 79.1056954,38.8577483 72.9854305,28.8042384 C69.8659603,23.2095364 65.6784106,18.0217219 64.1356291,11.6980132 Z" id="Shape"></path>
                <path d="M1.13589404,50.301457 C-1.76317881,31.855894 6.01854305,11.6980132 21.8193377,1.25456954 C13.4103311,11.9353642 3.4415894,22.8874172 2.62781457,37.213245 C0.678145695,50.5049007 6.39152318,63.0675497 13.3933775,73.9687417 C12.5965563,73.9687417 11.0029139,73.9856954 10.2060927,74.002649 C6.90013245,66.2209272 2.72953642,58.6765563 1.13589404,50.301457 Z" id="Shape"></path>
                <path d="M29.0415894,4.83178808 C35.5517881,10.2569536 35.5856954,19.2423841 36.2807947,26.9901987 C32.8222517,41.0108609 25.7525828,53.9634437 24.0572185,68.4588079 C21.5989404,68.4588079 19.1406623,68.4249007 16.6993377,68.407947 C9.46013245,57.8119205 5.96768212,44.2998675 9.73139073,31.7541722 C12.3761589,20.5817219 20.3782781,11.8675497 29.0415894,4.83178808 Z" id="Shape"></path>
                <path d="M37.9422517,67.4924503 C42.384106,67.7976159 46.8259603,68.407947 51.1491391,69.5099338 C50.4031788,70.9001325 49.6572185,72.2903311 48.9112583,73.6805298 C44.8423841,75.189404 40.7904636,76.7491391 36.7554967,78.3088742 C37.1115232,75.1724503 37.450596,72.0360265 37.7896689,68.8996026 L37.9422517,67.4924503 Z" id="Shape"></path>
            </g>
            <g id="#018dfcff" transform="translate(33.907285, 159.364238)" fill="#018DFC">
                <path d="M0.915496689,1.78013245 C13.5629139,1.05112583 26.2442384,1.42410596 38.8916556,2.03443709 C36.8572185,7.29006623 35.1109934,12.6813245 34.1615894,18.2421192 C28.0074172,18.6998675 21.666755,20.0222517 15.5634437,18.5981457 C8.76503311,15.1904636 2.78039735,9.3584106 0.915496689,1.78013245 Z" id="Shape"></path>
                <path d="M147.496689,1.79708609 C161.585166,1.16980132 175.690596,1.61059603 189.779073,1.86490066 C182.743311,7.08662252 176.707815,13.4781457 169.943311,19.0050331 C166.501722,22.0397351 161.822517,22.3788079 157.499338,22.9891391 C152.34543,16.9027815 148.039205,9.96874172 147.496689,1.79708609 Z" id="Shape"></path>
            </g>
        </g>
    </g>
</svg>