<?xml version="1.0" encoding="UTF-8"?>
<svg width="256px" height="256px" viewBox="0 0 256 256" version="1.1" xmlns="http://www.w3.org/2000/svg" xmlns:xlink="http://www.w3.org/1999/xlink">
    <!-- Generator: Sketch 50.2 (55047) - http://www.bohemiancoding.com/sketch -->
    <title>logo/sunnfjord</title>
    <desc>Created with Sketch.</desc>
    <defs></defs>
    <g id="logo/sunnfjord" stroke="none" stroke-width="1" fill="none" fill-rule="evenodd">
        <g id="sunnfjord" transform="translate(0.000000, 53.000000)" fill-rule="nonzero">
            <g id="#bb2b3fff" transform="translate(89.510490, 0.000000)" fill="#BB2B3F">
                <g id="Vector">
                    <g id="path0_fill-link" transform="translate(0.184988, 0.000000)">
                        <path d="M39.1880503,3.16421992 C41.2587263,0.197934142 45.2986331,-0.470524356 48.6164886,0.287459834 C51.2122928,0.985761423 53.1337846,4.24449063 51.7970946,6.74522372 C50.5081436,9.09676522 48.2942508,11.090204 45.6089361,11.609453 C45.9073044,11.7646308 46.5159758,12.0809549 46.8143441,12.2361328 C52.4535049,12.6718245 58.259752,12.9045913 63.7559347,11.3647494 C68.864,11.1558561 73.8825548,13.1373581 79.0085221,12.4629312 C81.7594779,12.0749866 84.5522051,10.1472 87.2494545,11.7705992 C87.0704336,12.7911921 86.8854452,13.8177534 86.67062,14.8383462 C78.9309464,16.6885439 70.7317855,14.1758561 63.1353287,16.7959747 C60.4022751,17.6136427 58.3790993,19.7145123 56.0160224,21.1946704 C52.6802648,23.3015083 51.6419431,27.3182277 50.0546238,30.6843937 C48.7477706,33.2328917 49.0521063,36.1932079 48.3002182,38.9028522 C46.683062,44.9547889 45.4239478,51.1857771 45.6566751,57.476449 C45.8416634,60.1206798 44.5348103,62.5259368 44.2245072,65.1042767 C43.8425958,67.7542372 43.1742508,70.457913 43.76502,73.1257787 C42.7147636,74.3254229 41.4854862,75.3400474 40.2383068,76.32483 C38.0423161,74.81483 38.7345305,71.8604822 38.9195189,69.6104032 C41.1572811,65.1520237 41.9032019,59.9953439 41.0677706,55.0711921 C40.4770014,51.6155004 40.7574676,48.1001249 41.3482368,44.6623383 C38.579379,44.011785 36.0432485,45.5277534 33.4235748,46.1066862 C30.3861855,48.8939194 26.4238545,51.1320617 24.9320131,55.1905597 C23.4759758,56.485698 21.3814303,56.1753423 19.7821762,57.1481881 C17.9979338,58.2165281 16.142083,59.159532 14.2683301,60.060996 C11.4099618,61.5351858 7.74599907,61.2845138 5.49629016,63.8867273 C4.13573072,65.5280316 2.17246732,66.3039209 0.143560503,66.7396126 C-0.0414280205,65.3251067 -0.184646415,63.7912332 0.626913566,62.5319051 C1.83232149,60.0908379 4.5773158,59.1953423 6.79122051,57.9419826 C9.30348159,56.784117 10.8967683,54.3370814 13.4627357,53.2568047 C16.9297753,51.3051447 21.8528522,49.5444727 22.3004047,44.9607573 C22.3183068,40.6336822 26.0479105,37.8762909 28.1484233,34.4981881 C28.8466051,33.5671209 28.9003114,32.3853818 28.9241809,31.2752632 C28.8227357,26.6617059 30.6845538,22.3346308 31.2514536,17.8046308 C29.74171,16.8675953 28.0589128,16.3005992 26.3522462,15.8529708 C24.62171,15.4590577 23.3566284,14.157951 21.9065585,13.2388206 C18.5588662,11.0245518 14.674111,9.84281265 11.201104,7.84937391 C9.11849324,6.68553992 7.23280559,5.19943731 5.32323058,3.778963 C5.30532848,2.91951636 5.28145902,2.06603213 5.25758956,1.21255387 C10.1150434,0.24567879 13.3016168,5.06216458 17.723435,5.9574215 C22.8732718,7.06751621 28.0111739,8.33281265 32.9461855,10.2068838 C34.682689,10.9230893 36.4609641,11.5378324 38.2750434,12.051113 C37.0935049,9.17435415 37.0815702,5.61722387 39.1880503,3.16421992 Z M44.8630154,1.61840368 C44.8272112,1.88698075 44.7556028,2.42414087 44.7197986,2.69271794 C45.7103814,2.90161122 46.1459991,3.49247482 46.0326191,4.47725743 C44.6601249,5.24121 43.1324793,5.76046498 41.9748103,6.87055968 C43.633738,7.02573755 45.2986331,7.02573755 46.9635282,6.98395889 C47.5244606,6.12451225 48.2465119,5.34864083 48.640358,4.38176336 C48.4135981,3.42085427 47.7512205,2.63303415 47.2917333,1.77955589 C46.4801716,1.73180885 45.6745772,1.67211909 44.8630154,1.61840368 Z M33.9427357,14.7786625 C34.3604513,16.0558957 34.97509,17.3331289 34.8378406,18.7118245 C34.6409175,21.707951 32.5344373,24.1490182 32.1584932,27.0973976 C31.9735049,29.5324964 34.9571879,30.296449 35.9179338,32.2540775 C35.7568149,32.6181486 35.4345772,33.3522593 35.2734583,33.7163304 C35.7389128,35.9067257 36.7832019,37.9359747 37.0636681,40.1800854 C38.5734117,40.3531684 40.0771879,40.520283 41.5988662,40.5262514 C44.3140177,35.1129312 45.0002648,28.9714688 47.4409175,23.4447494 C48.0913604,20.7888206 50.0725259,18.6998877 50.5916867,16.0081486 C49.977048,16.3662514 49.3803114,16.7422593 48.7835748,17.1242356 C46.927724,17.1361723 45.1971879,17.8046308 43.4129455,18.2045123 C41.9986797,18.4969628 41.4198452,16.9690577 40.7455329,16.0678324 C38.5256727,15.3993739 36.132759,15.6022988 33.9427357,14.7786625 Z" id="path0_fill"></path>
                    </g>
                </g>
            </g>
            <g id="#242322ff" transform="translate(0.000000, 75.798419)" fill="#242322">
                <g id="Vector">
                    <g id="path1_fill-link" transform="translate(0.149184, 0.526411)">
                        <path d="M10.8546387,0.841547471 C15.8552914,-0.435685731 21.5660606,-0.483433363 26.089324,2.2858953 C29.0789744,3.89138937 30.6483916,7.32916996 30.8214452,10.6058103 C30.0397203,10.7669565 29.252028,10.9221344 28.4643357,11.0653755 C26.7696037,6.11162055 20.7186946,4.21965621 15.9686713,5.15669178 C13.354965,5.45511075 10.9381818,7.0844664 9.84615385,9.50166008 C9.04055944,11.8890119 10.2340326,14.7418972 12.489697,15.8699209 C15.6643357,17.4216996 19.2865268,17.4933202 22.5924476,18.6332806 C25.6895105,19.6001581 28.8044755,21.3548617 30.2903497,24.3688933 C33.8230303,30.5282609 30.1531002,39.2361265 23.5710956,41.5458893 C17.7350117,43.8079051 10.5682051,43.9690514 5.20354312,40.4178656 C1.95132867,38.4662055 0.286433566,34.682253 0,31.017668 C0.698181818,30.6535968 1.4381352,30.3909881 2.16018648,30.1045059 C3.72960373,33.5960079 6.58200466,36.7711858 10.4428904,37.6366008 C14.1844289,38.6989723 18.8688112,38.4483004 21.5779953,35.3328063 C23.6725408,33.0827273 23.642704,29.4181423 21.6018648,27.1382213 C17.0308625,24.1898419 11.1709091,24.7807115 6.53426573,21.9636364 C2.25566434,19.5941897 0.483356643,14.0495652 1.87375291,9.48972332 C2.95384615,5.21040719 6.61184149,1.87407712 10.8546387,0.841547471 Z" id="path1_fill"></path>
                    </g>
                </g>
                <g id="Vector" transform="translate(134.265734, 0.596838)">
                    <g id="path2_fill-link" transform="translate(0.411748, 0.270368)">
                        <path d="M7.29808858,2.40455265 C11.1052681,-0.872087668 17.0845688,-0.687067905 21.0409324,2.2732483 C20.7664336,2.7387819 20.2114685,3.67581747 19.9369697,4.14135107 C18.1407925,3.76534316 16.1297902,3.12075818 14.4768298,4.29056055 C11.8929604,5.9796 12.1734266,9.47707036 12.1674592,12.1807462 C14.3753846,12.1867146 16.5892774,12.1688095 18.8031702,12.2284933 C18.767366,13.7265565 18.7554312,15.2305881 18.8151049,16.7286514 C16.6071795,16.7883352 14.3992541,16.77043 12.1913287,16.7763984 C12.1853613,25.1082561 12.2151981,33.4460822 12.1793939,41.7779399 C9.65519814,41.7779399 7.13100233,41.7719715 4.60680653,41.7660032 C4.62470862,33.4341455 4.59487179,25.1022877 4.62470862,16.7763984 C3.08512821,16.7763984 1.53958042,16.7823668 1.45687869e-06,16.7644617 C0.023870896,15.2425249 0.02983498,13.7265565 0.00596554592,12.2046198 C1.53958042,12.192683 3.07916084,12.1986514 4.62470862,12.192683 C4.51729604,8.82054862 4.49939394,4.79787281 7.29808858,2.40455265 Z" id="path2_fill"></path>
                    </g>
                </g>
                <g id="Vector" transform="translate(156.344988, 0.596838)">
                    <g id="path3_fill-link" transform="translate(0.078172, 0.263206)">
                        <path d="M2.46400895,0.453869593 C5.51930033,-1.27695866 9.54724848,2.27422115 8.3179711,5.51505119 C7.78090816,8.05761067 4.6062814,9.31693874 2.37448653,8.14713636 C-0.824021632,6.93555534 -0.788205501,1.60576862 2.46400895,0.453869593 Z" id="path3_fill"></path>
                    </g>
                </g>
                <g id="Vector" transform="translate(226.163170, 1.790514)">
                    <g id="path4_fill-link" transform="translate(0.177828, 0.084751)">
                        <path d="M21.4062545,0.0119400414 C23.924483,0.0119400414 26.4486788,0.011937475 28.9669072,7.28436364e-07 C28.9549725,13.5840316 28.9430378,27.1620949 28.9728746,40.7401581 C26.4606135,40.7819368 23.9423851,40.77 21.430124,40.7461265 C21.4181893,39.7553755 21.4241566,38.7705929 21.430124,37.7858103 C18.9656019,40.1015415 15.7969305,41.9517391 12.3060214,41.7846245 C8.36159254,41.8204348 4.59021725,39.5942292 2.56131282,36.2459684 C-0.869922611,30.4626087 -0.720726527,22.9364822 2.21521753,16.9860079 C4.25008932,12.7663636 8.82107972,9.91944664 13.5293315,10.1939921 C16.7457417,10.2656126 19.4310564,12.2888933 21.4002872,14.6702767 C21.4241566,9.78217391 21.430124,4.89407711 21.4062545,0.0119400414 Z M10.1159981,17.8096443 C7.66341072,21.1817787 7.5977697,25.6759684 8.24821259,29.633004 C8.79721026,32.748498 10.5098443,36.1683794 13.8217324,36.9979842 C16.733807,37.8156522 19.4966974,36.066917 21.4420587,34.0496047 C21.3823851,29.3703953 21.4539935,24.6852174 21.4181893,20.0000395 C21.5793082,18.513913 20.3559981,17.4515415 19.4071869,16.5085375 C16.7576765,14.0435968 12.1090984,14.9328854 10.1159981,17.8096443 Z" id="path4_fill"></path>
                    </g>
                </g>
                <g id="Vector" transform="translate(103.832168, 11.936759)">
                    <g id="path5_fill-link" transform="translate(0.274499, 0.112802)">
                        <path d="M7.61435897,4.83581379 C10.9501166,0.371466564 17.6037296,-1.5443719 22.5148718,1.43384945 C25.5940326,2.94384945 26.5846154,6.64423873 26.6621911,9.81344822 C26.692028,16.7308 26.6383217,23.6481518 26.6800932,30.5655036 C24.1379953,30.6013138 21.5958974,30.5774403 19.0537995,30.5953455 C19.1194406,23.8809186 19.0836364,17.1664917 19.077669,10.4520648 C19.0717016,8.29151146 18.0691841,5.77881775 15.7717483,5.20585332 C12.6388811,4.08379798 9.74470862,6.24435731 7.61435897,8.30344822 C7.57855478,15.7221439 7.58452214,23.1468079 7.60839161,30.5714719 C5.07226704,30.5953455 2.5361365,30.5714719 4.00641193e-06,30.6072822 C0.0596778368,20.7355826 0.0537102918,10.8698514 4.00641193e-06,0.998151778 C2.53016914,1.01008854 5.06629371,0.998151778 7.60242424,0.998151778 C7.60242424,2.27538498 7.59048951,3.55858059 7.61435897,4.83581379 Z" id="path5_fill"></path>
                    </g>
                </g>
                <g id="Vector" transform="translate(205.874126, 11.936759)">
                    <g id="path6_fill-link" transform="translate(0.453520, 0.098478)">
                        <path d="M7.55468531,4.48649648 C10.0490443,1.19791941 14.2978089,-0.634379051 18.3914219,0.201197055 C18.4272261,2.40949447 18.4272261,4.61779486 18.4451282,6.82609526 C16.7384615,6.34265652 15.0675991,5.56676123 13.2594872,5.59063474 C11.1947786,5.53691933 9.32102564,6.56945494 7.56662005,7.54230079 C7.56065268,15.2295735 7.62032634,22.928783 7.53678322,30.6160557 C5.02452811,30.6100874 2.51226704,30.6160557 5.82750284e-06,30.5862138 C0.00597321399,20.7383877 0.0179079459,10.8845933 5.82750284e-06,1.03079881 C2.52420177,1.00095692 5.05435897,1.01886206 7.58452214,1.0069253 C7.57258741,2.16479091 7.56065268,3.32266249 7.55468531,4.48649648 Z" id="path6_fill"></path>
                    </g>
                </g>
                <g id="Vector" transform="translate(70.414918, 11.936759)">
                    <g id="path7_fill-link" transform="translate(0.155152, 0.116383)">
                        <path d="M7.76354312,4.75482289 C11.0276923,0.284505486 17.6872727,-1.48809605 22.5327739,1.42447312 C25.6238695,2.89866285 26.578648,6.63486838 26.6502564,9.78617273 C26.6383217,16.7154613 26.6681585,23.6447498 26.6263869,30.5740383 C24.1081585,30.6038802 21.5958974,30.5859751 19.0836364,30.5979119 C19.1194406,24.0685047 19.0836364,17.5390976 19.1075058,11.0096905 C19.2029837,9.26095534 18.5346387,7.63158775 17.740979,6.12158775 C15.6404662,4.80854427 12.91338,4.42060557 10.7531935,5.82914312 C9.3986014,6.80795138 7.29212121,7.78079723 7.57258741,9.78020435 C7.72177156,16.6915877 7.55468531,23.6029711 7.68596737,30.5083862 C5.12596737,30.6396905 2.55999403,30.5859751 -3.2779696e-06,30.5919435 C0.0596703776,20.7262123 0.0417708457,10.860481 0.0119340159,0.994749802 C2.50629371,1.01265494 5.00662005,1.00071818 7.50097902,0.976844664 C7.63226107,2.23020435 7.62032634,3.49549482 7.76354312,4.75482289 Z" id="path7_fill"></path>
                    </g>
                </g>
                <g id="Vector" transform="translate(169.473193, 11.936759)">
                    <g id="path8_fill-link" transform="translate(0.382508, 0.111012)">
                        <path d="M10.5975049,0.719750751 C15.246083,-0.718628696 20.5630061,0.00951341765 24.5551739,2.80868356 C32.2113044,8.34134743 32.4261296,20.7735415 26.1186238,27.3984427 C19.632097,33.6294308 7.1782042,33.0802802 2.36255179,25.0528099 C-0.131804793,20.5168415 -0.70468028,14.9423751 0.900541166,10.0065253 C2.2969048,5.53026458 6.07424149,1.93730016 10.5975049,0.719750751 Z M13.6229594,4.83195225 C11.2777846,5.58396806 9.61288951,7.76241462 8.95647925,10.0781458 C7.79881026,14.1843909 7.89428811,18.6785806 9.3861296,22.6953 C10.6392765,26.1390549 15.0849641,28.3473553 18.3491133,26.1629285 C22.013076,23.5905569 22.5620737,18.6667036 22.3591832,14.5485217 C22.0488802,11.7493518 21.7206751,8.62186126 19.632097,6.5209917 C18.1402555,4.90358474 15.7473417,4.14558862 13.6229594,4.83195225 Z" id="path8_fill"></path>
                    </g>
                </g>
                <g id="Vector" transform="translate(36.997669, 12.533597)">
                    <g id="path9_fill-link" transform="translate(0.071608, 0.514474)">
                        <path d="M1.6389848e-06,1.45687869e-06 C2.5241958,0.00596981161 5.04839161,-0.0119301939 7.57855478,0.0238800828 C7.59048951,6.7383004 7.52484848,13.4527273 7.60242424,20.1731225 C7.65613054,22.4470751 8.72428904,25.0373518 11.1052681,25.6998419 C13.8204196,26.7383399 16.631049,25.198498 18.4391608,23.2050593 C19.2029837,22.6380632 19.0060606,21.5995652 19.0955711,20.7818972 C19.0896037,13.8585771 19.1134732,6.92928854 19.0717016,1.45687869e-06 C21.5958974,0.0119381911 24.1200932,-0.00596765155 26.6383217,0.0179058543 C26.6383217,9.8716996 26.6084848,19.7254941 26.6502564,29.5792885 C24.1200932,29.6091304 21.5958974,29.5971937 19.0657343,29.6031621 C19.0836364,28.4632016 19.0896037,27.3292095 19.0955711,26.1952174 C17.4127739,27.9260474 15.5569231,29.7046245 13.0983683,30.1820949 C9.32102564,31.1012253 4.67841492,30.6894071 1.95132867,27.6216601 C0.608671329,25.8609881 0.023870359,23.5810672 0.017902993,21.3906719 C0.017902993,14.2644269 0.0656428159,7.13221344 1.6389848e-06,1.45687869e-06 Z" id="path9_fill"></path>
                    </g>
                </g>
                <g id="Vector" transform="translate(151.571096, 12.533597)">
                    <g id="path10_fill-link" transform="translate(0.173054, 0.507312)">
                        <path d="M5.31692904,0.0247622094 C7.82918415,-0.0229848262 10.3474126,0.00685635486 12.8596737,0.0426666315 C12.8417716,10.3440968 12.8417716,20.6514881 12.8537063,30.9529111 C12.7880653,33.4297885 12.3524476,36.2229901 10.3354779,37.8941364 C7.72773893,40.7470217 3.63413184,40.9678518 0.0596826107,41.5348478 C0.0358129678,40.7947688 0.0179071702,40.0487213 5.09906648e-06,39.3086423 C1.28298965,38.8490771 2.67338592,38.4969427 3.6938055,37.542002 C5.01856075,36.0737806 5.25725538,33.9848478 5.31692904,32.0988399 C5.31096168,21.4094723 5.29305958,10.7201047 5.31692904,0.0247622094 Z" id="path10_fill"></path>
                    </g>
                </g>
                <g id="Vector" transform="translate(119.347319, 56.699605)">
                    <g id="path11_fill-link" transform="translate(0.083543, 0.084751)">
                        <path d="M13.4987189,2.25604743 C14.1431944,1.49806324 14.805572,0.75201581 15.4560149,7.28436364e-07 C15.7066443,0.238735775 16.207903,0.722173913 16.4644998,0.96687747 C15.718579,1.7427668 14.984593,2.52463047 14.2446396,3.30648818 C16.3153156,6.55924901 16.5898145,11.0116601 14.5191385,14.3241107 C11.9591385,18.12 6.18869557,18.293083 2.71567068,15.6908696 C1.88023944,16.3354545 1.31333967,18.0901581 0.0422929305,17.4157312 C-0.268009921,16.216087 1.21189445,15.619249 1.79072895,14.7598024 C-0.542513529,11.1728063 -0.518642275,5.98031621 2.35166135,2.70367589 C5.35324643,-0.161146245 10.1331245,0.274545454 13.4987189,2.25604743 Z M4.51184186,4.3927213 C3.06177193,6.83976285 3.32433604,9.81798419 3.78382322,12.5097233 C6.43932494,9.87766798 8.80836923,6.97703557 11.4757818,4.35691103 C9.89442984,2.00536953 6.06934825,2.0411798 4.51184186,4.3927213 Z M4.35072298,13.7511462 C5.97983776,15.8341107 9.46477949,16.1325296 11.2370872,14.0973123 C12.9676233,11.608498 12.782635,8.33782609 12.1262247,5.52075099 C9.53638788,8.26620553 7.0957352,11.1549012 4.35072298,13.7511462 Z" id="path11_fill"></path>
                    </g>
                </g>
                <g id="Vector" transform="translate(3.580420, 57.296443)">
                    <g id="path12_fill-link" transform="translate(0.298368, 0.477470)">
                        <path d="M0,0.00125852184 C3.3834965,0.0131953106 6.76699301,-0.00470985761 10.1445221,0.00125852184 C10.12662,0.73537 10.1087179,1.46946873 10.0967832,2.20954779 C7.84111888,2.16776913 5.58545455,2.16778107 3.33575758,2.18568621 C3.33575758,3.65390755 3.33575758,5.12212292 3.34769231,6.59631265 C5.30498834,6.56647075 7.26228438,6.57840751 9.21958042,6.57243913 C9.21958042,7.11556166 9.21361305,8.20180672 9.21361305,8.74492925 C7.26228438,8.75089763 5.31095571,8.75089763 3.36559441,8.72105573 C3.31785548,11.1979332 3.35962704,13.6748107 3.21044289,16.1457198 C2.14228438,16.1218462 1.07412587,16.1099095 0.00596748531,16.1099095 C0.0238695832,10.738368 0.0179020979,5.36683245 0,0.00125852184 Z" id="path12_fill"></path>
                    </g>
                </g>
                <g id="Vector" transform="translate(19.692308, 57.296443)">
                    <g id="path13_fill-link" transform="translate(0.298368, 0.124142)">
                        <path d="M4.68219823,0.569215091 C7.80310676,-0.594618901 11.8609156,-0.0156874079 14.0151347,2.69395937 C16.205158,5.72589613 16.3364401,10.0768328 14.5104261,13.3116945 C11.5983515,18.3072281 2.79651655,17.8954099 0.725840559,12.344817 C-0.915185082,8.26841383 0.152969846,2.25826767 4.68219823,0.569215091 Z M6.49028625,2.37763526 C3.22019953,3.73842577 3.24406303,8.10726759 3.84079963,11.055647 C4.16900476,13.4728407 6.83639347,15.4065957 9.19350303,14.4158447 C11.3119179,13.7831964 12.111545,11.3958447 12.2547618,9.40837431 C12.4099133,7.10457984 12.0817082,4.44270051 10.2079552,2.87301672 C9.16963357,2.06131711 7.7076289,2.01953249 6.49028625,2.37763526 Z" id="path13_fill"></path>
                    </g>
                </g>
                <g id="Vector" transform="translate(42.965035, 57.296443)">
                    <g id="path14_fill-link" transform="translate(0.047739, 0.457775)">
                        <path d="M0.0462492942,0.0026562565 C1.12037296,-0.00331212295 2.2004662,0.0026562565 3.28055944,0.0026562565 C3.26265734,4.63411838 3.29846154,9.25958261 3.25668998,13.8910451 C5.69734266,13.9029818 8.1439627,13.8970134 10.5846154,13.8850767 C10.578648,14.4520727 10.5547786,15.5801561 10.5488112,16.1411838 C7.04596737,16.129247 3.54909091,16.1112822 0.0522133781,16.1530609 C-0.0193950135,10.7695826 -0.0134243655,5.38613419 0.0462492942,0.0026562565 Z" id="path14_fill"></path>
                    </g>
                </g>
                <g id="Vector" transform="translate(59.673660, 57.296443)">
                    <g id="path15_fill-link" transform="translate(0.399814, 0.432708)">
                        <path d="M9.41053613,0.815549209 C10.35338,-0.437812266 12.0481119,0.16498988 13.3788345,0.0277169144 C11.1470396,2.46281597 8.84363636,4.8441934 6.54620047,7.21959051 C9.1360373,10.1739383 11.7199068,13.1461913 14.2739394,16.1363494 C12.9253147,16.1482862 11.5826573,16.1721597 10.24,16.1840964 C7.85305361,13.6236617 5.7167366,10.8543336 3.29995338,8.32970909 C3.29995338,10.9438593 3.30592075,13.5580095 3.31785548,16.1721597 C2.21389277,16.1602229 1.11589744,16.1542545 0.0119361641,16.1602229 C0.023870896,10.782713 0.0477378536,5.41118348 -1.09265455e-06,0.0336729393 C1.1039627,0.0456096982 2.21389277,0.0575631686 3.31785548,0.0694999872 C3.29995338,2.42701166 3.30592075,4.78450364 3.33575758,7.14200158 C5.31095571,4.98742854 7.37566434,2.91045039 9.41053613,0.815549209 Z" id="path15_fill"></path>
                    </g>
                </g>
                <g id="Vector" transform="translate(79.962704, 57.296443)">
                    <g id="path16_fill-link" transform="translate(0.483357, 0.473889)">
                        <path d="M0.00597172214,0.0344731205 C3.40737193,-0.0073055356 6.81473193,-0.0132615008 10.2161305,0.0285171553 C10.2041958,0.75069083 10.1982284,1.47285281 10.1982284,2.2009951 C7.90079254,2.17712158 5.60336261,2.17712755 3.30592671,2.18309593 C3.29995935,3.65131727 3.30592075,5.12550103 3.31188811,6.59971462 C5.32289044,6.55793597 7.33986014,6.54599921 9.35086247,6.62955652 C9.31505828,7.3338253 9.29715618,8.04406245 9.28522145,8.76026798 C7.29808858,8.7542996 5.31095571,8.7542996 3.32382284,8.73639447 C3.30592075,10.4493194 3.30592075,12.1682126 3.29398601,13.8811375 C5.91365967,13.8811375 8.53333333,13.8692008 11.1470396,13.8871059 C11.1410723,14.4481336 11.1351049,15.5701889 11.1291375,16.137185 C7.4174359,16.0954063 3.71170163,16.1133115 -1.45687869e-06,16.1252482 C0.0238680317,10.7656435 0.0179064541,5.40004648 0.00597172214,0.0344731205 Z" id="path16_fill"></path>
                    </g>
                </g>
                <g id="Vector" transform="translate(98.461538, 57.296443)">
                    <g id="path17_fill-link" transform="translate(0.089510, 0.460759)">
                        <path d="M0.0220688709,0.00595963515 C1.11409529,0.00595963515 2.2061173,0.017907346 3.29814527,0.0358124844 C3.28621054,2.22023715 3.28024914,4.41063241 3.26831441,6.60102767 C5.5657503,6.58312253 7.86319814,6.58312253 10.160634,6.58909091 C10.1845035,4.39273324 10.1725688,2.20233202 10.1725688,0.0119338338 C11.2645967,0.00596546626 12.3566247,3.64219375e-06 13.4486527,3.64219375e-06 C13.4963916,5.38945261 13.4605874,10.7788933 13.4665548,16.1683399 C12.3685594,16.138498 11.2705641,16.1265613 10.1725688,16.1146245 C10.1904709,13.6616206 10.1845035,11.214585 10.1666014,8.76158103 C7.8691655,8.76754941 5.57767907,8.76754941 3.28024317,8.74367589 C3.28024317,11.2086166 3.29815124,13.6735573 3.25637967,16.1444664 C2.1822538,16.1265613 1.10216056,16.1265613 0.0280329548,16.138498 C-0.019705973,10.7609881 0.00416676699,5.38347229 0.0220688709,0.00595963515 Z" id="path17_fill"></path>
                    </g>
                </g>
                <g id="Vector" transform="translate(142.023310, 57.296443)">
                    <g id="path18_fill-link" transform="translate(0.537063, 0.134289)">
                        <path d="M1.2307573,3.96699083 C3.46255217,0.320312181 8.71384615,-1.14791632 12.4494172,0.994731897 C13.6488578,1.63931688 14.173986,2.9881766 14.8303963,4.09829518 C13.1237296,4.62351257 12.395711,2.37342755 10.7845221,2.301807 C7.85454545,1.55575956 4.50087385,3.3940264 3.7728552,6.37225968 C2.94339133,9.33257589 4.20847291,13.1702439 7.23990676,14.3340779 C8.74368298,14.9786628 10.3369697,14.4534455 11.8646154,14.1968051 C11.8825175,12.967319 11.9063869,11.7438012 11.924289,10.514315 C10.9158042,10.4904415 9.91328671,10.4725364 8.91076923,10.4486628 C8.90480186,9.88763518 8.89286713,8.75961146 8.89286713,8.19858379 C10.9754779,8.22245731 13.0640559,8.22245731 15.152634,8.21052055 C15.1168298,10.5620621 15.1406993,12.9076352 15.1406993,15.2591767 C11.6199534,16.679651 7.37118881,17.6644336 3.88623515,15.6113111 C-0.0641599254,13.3672004 -1.1024828,7.72111344 1.2307573,3.96699083 Z" id="path18_fill"></path>
                    </g>
                </g>
                <g id="Vector" transform="translate(164.102564, 57.296443)">
                    <g id="path19_fill-link" transform="translate(0.107413, 0.100866)">
                        <path d="M3.31189408,0.765432727 C5.52578685,-0.201444147 8.16932401,-0.296930459 10.3832168,0.735596798 C11.7199068,1.33840312 12.2151981,2.83645443 12.8119347,4.05997221 C12.4479254,4.12562439 12.0898834,4.20323122 11.7378089,4.28082016 C10.1982284,1.36825099 4.86340326,0.94448411 3.80717949,4.44195447 C3.9981352,4.82393075 4.37407329,5.58190897 4.565029,5.96388526 C6.92811189,7.03821146 9.89389277,6.81141304 11.8392541,8.72726285 C13.8323543,10.9475 12.7582284,14.7016107 10.1862937,15.9609387 C7.82918415,17.0829941 4.91710956,17.1426779 2.56,15.996749 C1.02638695,15.1671443 0.387874611,13.495998 -4.37063012e-06,11.9024407 C0.268527291,11.9084091 0.79962704,11.9203458 1.06815851,11.9322826 C2.54806527,15.3581324 8.34834499,16.0982115 9.78051282,12.2486067 C8.77799534,8.84066205 4.38005259,10.1238636 2.15422508,8.11251976 C-0.364003953,6.25038538 0.626579394,1.965077 3.31189408,0.765432727 Z" id="path19_fill"></path>
                    </g>
                </g>
                <g id="Vector" transform="translate(183.794872, 57.296443)">
                    <g id="path20_fill-link" transform="translate(0.190359, 0.460759)">
                        <path d="M0.0187297716,3.64219375e-06 C1.11075953,0.011940399 2.20278751,0.0298375397 3.30078284,0.047742678 C3.29481548,2.41121933 3.27094601,4.77470953 3.31868494,7.1441502 C5.55644718,4.80455142 7.78824802,2.45897233 9.99020606,0.0895256911 C11.129973,0.0417786555 12.2757072,0.011940399 13.4214415,3.64219375e-06 C11.1120709,2.36945261 8.8265697,4.76872921 6.5291338,7.15011858 C9.10106853,10.1402767 11.7088075,13.0946245 14.2210685,16.138498 C12.842607,16.0250988 11.3627002,16.3832016 10.0558471,15.8997628 C7.6509986,13.4586957 5.55047981,10.7251779 3.28288075,8.1587747 C3.28288075,10.8206719 3.31271161,13.4766008 3.25900531,16.138498 C2.17294471,16.1325296 1.09285147,16.138498 0.0127565576,16.1564032 C0.00082184951,10.7729249 -0.0111070583,5.38945261 0.0187297716,3.64219375e-06 Z" id="path20_fill"></path>
                    </g>
                </g>
                <g id="Vector" transform="translate(204.680653, 57.296443)">
                    <g id="path21_fill-link" transform="translate(0.001790, 0.460759)">
                        <path d="M0.0518983608,0.0179080622 C1.13795879,0.00597130333 2.22401939,3.64219379e-06 3.31604737,3.64219379e-06 C3.33991683,3.76008502 3.23251021,7.52612648 3.3578249,11.2862055 C3.38169436,13.0110672 4.92723021,14.3539526 6.61005128,14.3837945 C7.98851282,14.1987747 9.16408392,13.4109486 10.2441772,12.5813439 C10.2024056,8.38557312 10.208373,4.19577672 10.2382098,3.64219379e-06 C11.3242704,3.64219379e-06 12.410331,-8.74298139e-06 13.4963916,0.00595963515 C13.5142937,5.37153553 13.4784895,10.7371146 13.5142937,16.1086561 C12.4282331,16.1205929 11.3421725,16.1325296 10.2620793,16.1504348 C10.2561119,15.6908696 10.2322424,14.7717391 10.2203077,14.3121739 C7.70804662,17.3142688 1.5616358,17.3500791 0.362194648,13.1244664 C-0.330019804,8.80335968 0.213017063,4.38079051 0.0518983608,0.0179080622 Z" id="path21_fill"></path>
                    </g>
                </g>
                <g id="Vector" transform="translate(226.163170, 57.296443)">
                    <g id="path22_fill-link" transform="translate(0.220793, 0.460759)">
                        <path d="M-2.91375142e-06,3.64219375e-06 C1.08606061,3.64219375e-06 2.17212121,2.91425439e-06 3.26414918,0.0179080622 C3.31785548,4.64339921 3.27608392,9.26889328 3.28801865,13.9003557 C5.74061203,13.888419 8.18722611,13.888419 10.6457809,13.9122925 C10.6517483,14.6404348 10.663683,15.3745455 10.6815851,16.1086561 C7.1190676,16.1623715 3.56251748,16.090751 0.00597028998,16.1564032 C0.00597028998,10.7729249 0.00596445389,5.38348423 -2.91375142e-06,3.64219375e-06 Z" id="path22_fill"></path>
                    </g>
                </g>
                <g id="Vector" transform="translate(243.468531, 57.296443)">
                    <g id="path23_fill-link" transform="translate(0.038788, 0.470308)">
                        <path d="M0.00913812587,0.0201830904 C3.416502,-0.00369044529 6.823862,-0.0156279622 10.231228,0.0380874529 C10.2013911,0.754295732 10.1775217,1.47646368 10.1596196,2.19863759 C7.85621632,2.17476407 5.55282499,2.17476407 3.25538909,2.19863759 C3.26135646,3.66089055 3.26135049,5.1291298 3.29118732,6.59732727 C5.26638545,6.57942214 7.24754499,6.57942214 9.22871049,6.56748538 C9.24064522,7.29562767 9.25854732,8.01780158 9.28241678,8.75191225 C7.27738182,8.75788063 5.27832615,8.75788063 3.27925855,8.73997549 C3.26732382,10.4529004 3.26732382,12.1658253 3.25538909,13.8847186 C5.86909538,13.890687 8.48278974,13.8727818 11.096496,13.8847186 C11.0845613,14.4457462 11.0666592,15.5678016 11.0547245,16.1288292 C7.38479441,16.1168925 3.71488821,16.0870506 0.04495909,16.1586711 C-0.0206819357,10.7811613 0.00317075394,5.39769494 0.00913812587,0.0201830904 Z" id="path23_fill"></path>
                    </g>
                </g>
            </g>
        </g>
    </g>
</svg>