<?xml version="1.0" encoding="UTF-8" ?>
<!DOCTYPE svg PUBLIC "-//W3C//DTD SVG 1.1//EN" "http://www.w3.org/Graphics/SVG/1.1/DTD/svg11.dtd">
<svg width="107pt" height="95pt" viewBox="0 0 107 95" version="1.1" xmlns="http://www.w3.org/2000/svg">
<g id="#ffffffff">
<path fill="#ffffff" opacity="1.00" d=" M 43.16 12.24 C 43.79 12.68 43.79 12.68 43.16 12.24 Z" />
</g>
<g id="#208e4aff">
<path fill="#208e4a" opacity="1.00" d=" M 46.80 2.08 C 51.53 0.96 56.44 1.56 61.11 2.69 C 64.61 4.13 67.82 6.18 70.72 8.62 C 69.68 10.78 68.74 12.98 67.94 15.24 C 71.13 15.28 74.31 15.31 77.50 15.30 C 77.72 18.73 77.74 22.17 77.65 25.60 C 79.93 25.66 82.25 25.75 84.43 26.48 C 84.26 35.86 84.40 45.24 84.54 54.61 C 83.91 54.72 82.65 54.93 82.02 55.04 C 82.69 55.10 84.03 55.21 84.71 55.27 C 83.57 57.80 83.44 60.38 84.31 62.99 C 83.85 66.35 83.40 70.37 80.99 72.83 C 80.49 72.67 79.51 72.35 79.01 72.19 C 79.79 72.74 81.35 73.83 82.13 74.37 C 81.17 74.38 79.24 74.39 78.27 74.39 C 78.89 74.88 79.51 75.36 80.15 75.82 C 74.28 84.81 64.00 91.30 53.04 90.80 C 42.49 91.27 32.23 85.32 26.58 76.55 C 23.29 71.63 22.09 65.72 21.38 59.94 C 22.07 59.50 22.77 59.07 23.48 58.66 C 23.47 57.89 23.47 57.12 23.47 56.35 C 22.80 55.93 22.15 55.49 21.51 55.04 C 21.78 45.55 21.54 36.06 21.72 26.57 C 23.18 24.61 26.26 26.11 28.35 25.68 C 28.25 22.04 28.23 18.40 28.52 14.78 C 31.47 14.80 34.43 14.81 37.38 14.81 C 36.72 12.75 36.02 10.71 35.28 8.69 C 35.98 8.01 36.68 7.33 37.38 6.65 C 40.42 4.95 43.34 2.85 46.80 2.08 M 46.78 4.67 C 43.72 5.89 40.55 7.13 38.25 9.59 C 39.69 12.22 40.80 15.02 41.52 17.93 C 38.17 18.33 34.80 17.94 31.47 17.48 C 30.76 19.17 30.71 21.01 30.53 22.80 C 32.20 22.67 33.87 22.51 35.55 22.54 C 35.31 23.88 34.71 25.12 34.19 26.37 C 33.56 25.32 32.94 24.27 32.34 23.20 L 30.67 23.38 C 30.67 25.11 30.65 26.84 30.64 28.57 C 45.47 28.75 60.30 28.67 75.14 28.68 C 74.36 24.98 75.92 21.07 74.52 17.52 C 68.75 17.98 62.95 17.57 57.17 17.90 C 52.24 18.24 47.23 17.03 42.38 18.50 C 43.02 17.11 43.23 15.25 44.99 14.74 C 44.43 14.65 43.31 14.47 42.74 14.37 C 41.68 12.65 39.43 10.92 40.80 8.69 C 41.66 8.71 43.39 8.77 44.26 8.80 C 43.50 9.35 41.99 10.45 41.23 11.00 C 42.05 10.86 43.68 10.57 44.49 10.43 L 44.72 11.79 C 45.50 11.67 47.05 11.44 47.83 11.33 C 47.83 11.64 47.84 12.28 47.85 12.60 C 47.05 12.58 45.46 12.54 44.66 12.53 C 46.70 15.08 50.36 13.04 53.00 12.72 C 54.72 13.12 56.44 13.48 58.18 13.76 C 60.24 14.78 62.26 15.88 64.20 17.11 C 65.29 14.40 66.46 11.72 67.66 9.06 C 63.04 5.79 57.67 3.96 52.00 3.77 C 50.28 4.19 48.53 4.45 46.78 4.67 M 43.16 12.24 C 43.79 12.68 43.79 12.68 43.16 12.24 M 52.57 37.03 C 52.56 35.28 52.55 33.52 52.53 31.77 C 50.77 33.49 49.02 35.25 47.80 37.42 C 48.50 37.33 49.90 37.15 50.60 37.07 C 50.56 38.10 50.48 40.18 50.44 41.21 C 54.74 39.56 58.09 36.07 62.60 34.87 C 62.55 35.47 62.45 36.69 62.40 37.29 C 65.25 38.27 68.24 39.01 71.25 38.31 C 71.27 40.13 71.15 42.08 72.22 43.67 C 73.85 46.03 73.35 48.95 73.13 51.63 C 72.40 50.26 71.68 48.88 70.98 47.49 L 70.05 50.23 C 69.48 49.38 68.34 47.67 67.76 46.82 C 67.50 48.38 67.24 49.95 66.99 51.52 C 67.72 51.53 69.20 51.54 69.93 51.55 C 68.67 56.34 66.85 60.98 66.37 65.96 C 65.23 63.58 64.16 61.17 63.21 58.70 C 62.30 61.44 61.11 64.09 59.26 66.33 C 60.86 61.28 58.35 56.75 56.81 52.13 C 57.42 50.20 57.54 48.25 57.15 46.27 C 52.47 53.41 54.91 62.13 54.29 70.06 C 53.95 72.86 51.05 76.16 53.52 78.70 C 54.29 77.73 54.82 76.01 56.36 76.36 L 57.02 75.52 C 54.37 72.82 56.33 68.88 56.46 65.64 L 58.01 65.64 C 58.20 66.15 58.60 67.19 58.79 67.71 C 61.31 66.89 61.63 63.56 63.13 61.69 C 63.69 63.34 64.27 64.99 64.82 66.64 C 66.16 66.67 67.50 66.71 68.83 66.75 C 67.93 61.71 69.79 56.95 71.76 52.43 C 72.45 52.47 73.84 52.54 74.53 52.58 C 74.62 48.98 75.43 44.84 72.62 41.99 C 73.15 39.68 73.68 37.36 74.06 35.01 C 73.04 35.36 72.03 35.75 71.04 36.18 C 70.01 36.55 68.99 36.96 67.99 37.40 C 67.07 37.00 65.22 36.19 64.29 35.79 C 65.13 35.52 66.80 34.98 67.64 34.71 C 66.99 33.54 65.35 32.42 67.19 30.95 C 61.84 31.73 57.54 35.23 52.57 37.03 M 40.09 37.95 C 39.03 42.07 37.72 46.12 36.58 50.23 C 35.67 53.66 33.69 56.75 33.24 60.31 C 36.72 56.18 38.31 50.84 39.94 45.79 C 40.32 46.61 40.71 47.42 41.10 48.24 C 43.15 45.45 45.12 42.58 47.60 40.14 C 47.03 39.53 46.46 38.92 45.89 38.32 C 45.01 39.75 44.11 41.16 43.22 42.58 C 42.81 42.66 41.98 42.83 41.57 42.92 C 41.07 41.26 40.56 39.61 40.09 37.95 Z" />
<path fill="#208e4a" opacity="1.00" d=" M 46.07 7.43 C 47.57 6.69 49.08 5.96 50.58 5.21 C 50.43 7.45 50.48 9.69 50.53 11.93 C 50.06 11.80 49.12 11.52 48.65 11.38 C 48.67 10.44 48.72 8.55 48.74 7.61 C 48.07 7.56 46.73 7.47 46.07 7.43 Z" />
<path fill="#208e4a" opacity="1.00" d=" M 54.57 10.39 C 54.77 8.76 54.96 7.14 55.21 5.52 C 55.73 7.49 56.13 9.50 56.44 11.52 C 57.12 11.52 58.49 11.54 59.17 11.55 C 59.61 10.02 60.10 8.51 60.56 6.99 C 62.07 7.66 63.56 8.38 65.02 9.17 C 63.95 9.27 61.81 9.47 60.74 9.57 C 61.36 9.99 62.59 10.82 63.20 11.24 C 62.58 11.34 61.34 11.55 60.72 11.65 C 58.06 13.88 54.38 11.14 51.37 11.01 C 52.44 10.82 53.51 10.61 54.57 10.39 Z" />
<path fill="#208e4a" opacity="1.00" d=" M 67.03 21.84 C 67.37 21.34 68.06 20.34 68.40 19.84 C 68.49 22.19 68.54 24.55 68.50 26.90 C 67.04 25.62 65.19 25.42 63.35 25.48 C 64.05 24.05 64.41 22.52 64.45 20.91 C 65.10 21.15 66.38 21.61 67.03 21.84 Z" />
<path fill="#208e4a" opacity="1.00" d=" M 36.38 20.57 C 37.46 20.61 39.62 20.69 40.70 20.73 C 39.93 21.09 38.38 21.81 37.60 22.16 C 40.29 22.06 40.78 24.35 40.73 26.50 C 39.56 26.53 38.39 26.55 37.22 26.59 C 37.23 25.91 37.27 24.57 37.29 23.90 C 37.06 23.06 36.60 21.40 36.38 20.57 Z" />
<path fill="#208e4a" opacity="1.00" d=" M 39.80 21.56 C 40.50 21.45 41.91 21.24 42.62 21.14 C 42.63 21.70 42.67 22.84 42.69 23.41 C 43.37 22.36 44.18 21.42 45.11 20.59 C 44.97 23.02 44.21 25.35 42.90 27.38 C 42.12 25.32 41.64 23.00 39.80 21.56 Z" />
<path fill="#208e4a" opacity="1.00" d=" M 45.49 20.36 C 46.25 20.40 47.78 20.48 48.54 20.51 C 48.69 21.80 48.71 23.10 48.76 24.40 C 48.20 24.36 47.08 24.28 46.52 24.24 C 47.18 24.47 48.51 24.95 49.18 25.19 C 48.35 26.17 47.01 26.48 45.88 26.92 C 45.75 24.73 45.62 22.54 45.49 20.36 Z" />
<path fill="#208e4a" opacity="1.00" d=" M 50.34 20.42 L 51.74 20.25 C 51.71 21.34 51.64 23.51 51.61 24.60 C 52.35 24.68 53.83 24.85 54.57 24.93 C 54.52 23.81 54.47 22.69 54.42 21.57 C 55.19 21.18 56.73 20.40 57.50 20.01 C 57.60 20.67 57.80 22.00 57.90 22.66 C 57.41 22.51 56.43 22.21 55.94 22.06 C 56.14 22.97 56.35 23.87 56.57 24.77 C 56.86 24.32 57.42 23.43 57.70 22.98 C 58.63 23.98 59.12 25.26 59.63 26.50 C 56.78 26.88 53.90 26.12 51.06 26.74 C 50.74 24.64 50.51 22.53 50.34 20.42 Z" />
<path fill="#208e4a" opacity="1.00" d=" M 59.57 20.44 C 60.90 20.51 63.57 20.66 64.90 20.74 C 63.77 21.14 61.51 21.95 60.38 22.36 C 61.27 22.47 63.03 22.69 63.92 22.80 C 62.85 23.60 61.73 24.32 60.55 24.96 C 61.45 25.29 63.25 25.94 64.15 26.26 C 63.03 26.33 60.80 26.48 59.68 26.55 C 59.59 24.51 59.56 22.48 59.57 20.44 Z" />
<path fill="#208e4a" opacity="1.00" d=" M 69.81 23.22 C 70.45 22.15 71.29 21.99 72.32 22.75 C 73.08 23.82 72.96 24.70 71.97 25.40 C 70.61 25.31 69.88 24.58 69.81 23.22 Z" />
<path fill="#208e4a" opacity="1.00" d=" M 11.51 49.24 C 14.81 49.31 18.11 49.28 21.40 49.37 C 18.79 53.11 15.62 56.73 11.69 59.11 C 11.67 55.82 11.70 52.53 11.51 49.24 Z" />
<path fill="#208e4a" opacity="1.00" d=" M 84.79 49.44 C 88.05 49.27 91.31 49.29 94.58 49.26 C 94.44 52.49 94.43 55.71 94.46 58.94 C 92.94 58.53 91.98 57.25 90.90 56.22 C 88.77 54.04 86.05 52.34 84.79 49.44 Z" />
<path fill="#208e4a" opacity="1.00" d=" M 55.69 55.01 C 59.55 56.94 58.29 61.92 58.43 65.40 L 56.38 65.34 C 56.36 61.89 55.87 58.46 55.69 55.01 Z" />
</g>
</svg>
