<?xml version="1.0" encoding="UTF-8"?>
<svg width="256px" height="256px" viewBox="0 0 256 256" version="1.1" xmlns="http://www.w3.org/2000/svg" xmlns:xlink="http://www.w3.org/1999/xlink">
    <!-- Generator: Sketch 50.2 (55047) - http://www.bohemiancoding.com/sketch -->
    <title>logo/svelgen</title>
    <desc>Created with Sketch.</desc>
    <defs></defs>
    <g id="logo/svelgen" stroke="none" stroke-width="1" fill="none" fill-rule="evenodd">
        <g id="svelgen" transform="translate(9.000000, 0.000000)" fill-rule="nonzero">
            <g id="#ffffffff" transform="translate(91.047619, 31.288889)" fill="#FFFFFF">
                <path d="" id="Shape"></path>
            </g>
            <g id="#208e4aff" fill="#208E4A">
                <path d="M101.859524,3.072 C115.3175,-0.113777778 129.287619,1.59288889 142.574881,4.80711111 C152.533214,8.90311111 161.666429,14.7342222 169.917619,21.6746667 C166.958571,27.8186667 164.284048,34.0764444 162.007857,40.5048889 C171.084167,40.6186667 180.132024,40.704 189.208333,40.6755556 C189.834286,50.432 189.89119,60.2168889 189.635119,69.9733333 C196.122262,70.144 202.723214,70.4 208.925833,72.4764444 C208.442143,99.1573333 208.840476,125.838222 209.23881,152.490667 C207.44631,152.803556 203.86131,153.400889 202.06881,153.713778 C203.975119,153.884444 207.787738,154.197333 209.7225,154.368 C206.478929,161.564444 206.109048,168.903111 208.584405,176.327111 C207.275595,185.884444 205.995238,197.319111 199.138214,204.316444 C197.715595,203.861333 194.927262,202.951111 193.504643,202.496 C195.723929,204.060444 200.1625,207.160889 202.381786,208.696889 C199.650357,208.725333 194.159048,208.753778 191.399167,208.753778 C193.163214,210.147556 194.927262,211.512889 196.748214,212.821333 C180.046667,238.392889 150.797619,256.853333 119.61381,255.431111 C89.5965476,256.768 60.4044048,239.843556 44.3288095,214.897778 C34.9679762,200.903111 31.5536905,184.092444 29.5335714,167.651556 C31.4967857,166.4 33.4884524,165.176889 35.5085714,164.010667 C35.480119,161.820444 35.480119,159.630222 35.480119,157.44 C33.5738095,156.245333 31.7244048,154.993778 29.9034524,153.713778 C30.6716667,126.72 29.9888095,99.7262222 30.5009524,72.7324444 C34.655,67.1573333 43.4183333,71.424 49.364881,70.2008889 C49.0803571,59.8471111 49.0234524,49.4933333 49.8485714,39.1964444 C58.2420238,39.2533333 66.6639286,39.2817778 75.057381,39.2817778 C73.1795238,33.4222222 71.1878571,27.6195556 69.082381,21.8737778 C71.0740476,19.9395556 73.0657143,18.0053333 75.057381,16.0711111 C83.7069048,11.2355556 92.015,5.26222222 101.859524,3.072 Z M101.802619,10.4391111 C93.0961905,13.9093333 84.0767857,17.4364444 77.5327381,24.4337778 C81.629881,31.9146667 84.7880952,39.8791111 86.8366667,48.1564444 C77.305119,49.2942222 67.7166667,48.1848889 58.2420238,46.8764444 C56.2219048,51.6835556 56.0796429,56.9173333 55.5675,62.0088889 C60.3190476,61.6391111 65.0705952,61.184 69.8505952,61.2693333 C69.1677381,65.0808889 67.4605952,68.608 65.9810714,72.1635556 C64.1885714,69.1768889 62.4245238,66.1902222 60.717381,63.1466667 L55.9658333,63.6586667 C55.9658333,68.5795556 55.9089286,73.5004444 55.8804762,78.4213333 C98.0753571,78.9333333 140.270238,78.7057778 182.493571,78.7342222 C180.274286,68.2097778 184.712857,57.088 180.729524,46.9902222 C164.3125,48.2986667 147.810119,47.1324444 131.364643,48.0711111 C117.337619,49.0382222 103.082976,45.5964444 89.2835714,49.7777778 C91.1045238,45.824 91.7020238,40.5333333 96.7096429,39.0826667 C95.1163095,38.8266667 91.9296429,38.3146667 90.3078571,38.0302222 C87.2919048,33.1377778 80.890119,28.2168889 84.7880952,21.8737778 C87.235,21.9306667 92.1572619,22.1013333 94.632619,22.1866667 C92.4702381,23.7511111 88.1739286,26.88 86.0115476,28.4444444 C88.3446429,28.0462222 92.982381,27.2213333 95.2870238,26.8231111 L95.9414286,30.6915556 C98.1607143,30.3502222 102.570833,29.696 104.790119,29.3831111 C104.790119,30.2648889 104.818571,32.0853333 104.847024,32.9955556 C102.570833,32.9386667 98.0469048,32.8248889 95.7707143,32.7964444 C101.575,40.0497778 111.988571,34.2471111 119.5,33.3368889 C124.39381,34.4746667 129.287619,35.4986667 134.238333,36.2951111 C140.099524,39.1964444 145.846905,42.3253333 151.366667,45.824 C154.467976,38.1155556 157.796905,30.4924444 161.21119,22.9262222 C148.06619,13.6248889 132.787262,8.41955556 116.654762,7.87911111 C111.760952,9.07377778 106.781786,9.81333333 101.802619,10.4391111 Z M91.5028571,31.9715556 C93.2953571,33.2231111 93.2953571,33.2231111 91.5028571,31.9715556 Z M118.276548,102.485333 C118.248095,97.5075556 118.219643,92.5013333 118.162738,87.5235556 C113.155119,92.416 108.175952,97.4222222 104.704762,103.594667 C106.696429,103.338667 110.679762,102.826667 112.671429,102.599111 C112.557619,105.528889 112.33,111.445333 112.21619,114.375111 C124.450714,109.681778 133.982262,99.7546667 146.814286,96.3413333 C146.672024,98.048 146.3875,101.518222 146.245238,103.224889 C154.354167,106.012444 162.861429,108.117333 171.425595,106.126222 C171.4825,111.303111 171.141071,116.849778 174.185476,121.372444 C178.823214,128.085333 177.400595,136.391111 176.774643,144.014222 C174.697619,140.117333 172.649048,136.192 170.657381,132.238222 L168.01131,140.032 C166.389524,137.614222 163.145952,132.750222 161.495714,130.332444 C160.755952,134.769778 160.01619,139.235556 159.304881,143.701333 C161.381905,143.729778 165.592857,143.758222 167.669881,143.786667 C164.084881,157.411556 158.906548,170.609778 157.540833,184.775111 C154.297262,178.005333 151.252857,171.150222 148.549881,164.124444 C145.960714,171.918222 142.574881,179.456 137.31119,185.827556 C141.863571,171.463111 134.722024,158.577778 130.340357,145.436444 C132.075952,139.946667 132.417381,134.4 131.307738,128.768 C117.992024,149.077333 124.934405,173.880889 123.170357,196.437333 C122.202976,204.401778 113.951786,213.788444 120.979524,221.013333 C123.170357,218.254222 124.678333,213.361778 129.06,214.357333 L130.937857,211.968 C123.397976,204.288 128.974643,193.080889 129.344524,183.864889 L133.754643,183.864889 C134.295238,185.315556 135.433333,188.273778 135.973929,189.752889 C143.143929,187.420444 144.054405,177.948444 148.322262,172.629333 C149.915595,177.322667 151.565833,182.016 153.130714,186.709333 C156.943333,186.794667 160.755952,186.908444 164.540119,187.022222 C161.979405,172.686222 167.271548,159.146667 172.876667,146.289778 C174.839881,146.403556 178.794762,146.602667 180.757976,146.716444 C181.014048,136.476444 183.31869,124.700444 175.323571,116.593778 C176.831548,110.023111 178.339524,103.424 179.420714,96.7395556 C176.518571,97.7351111 173.644881,98.8444444 170.828095,100.067556 C167.8975,101.12 164.995357,102.286222 162.150119,103.537778 C159.5325,102.4 154.26881,100.096 151.622738,98.9582222 C154.012738,98.1902222 158.764286,96.6542222 161.154286,95.8862222 C159.304881,92.5582222 154.63869,89.3724444 159.873929,85.1911111 C144.651905,87.4097778 132.417381,97.3653333 118.276548,102.485333 Z M82.7679762,105.102222 C79.7520238,116.821333 76.0247619,128.341333 72.7811905,140.032 C70.1920238,149.788444 64.5584524,158.577778 63.2780952,168.704 C73.1795238,156.956444 77.7034524,141.767111 82.3411905,127.402667 C83.422381,129.735111 84.5320238,132.039111 85.6416667,134.371556 C91.4744048,126.435556 97.0795238,118.272 104.135714,111.331556 C102.513929,109.596444 100.892143,107.861333 99.2703571,106.154667 C96.7665476,110.222222 94.2058333,114.232889 91.6735714,118.272 C90.5070238,118.499556 88.1454762,118.983111 86.9789286,119.239111 C85.5563095,114.517333 84.1052381,109.824 82.7679762,105.102222 Z" id="Shape"></path>
                <path d="M99.7825,18.2897778 C104.050357,16.1848889 108.346667,14.1084444 112.614524,11.9751111 C112.187738,18.3466667 112.33,24.7182222 112.472262,31.0897778 C111.135,30.72 108.460476,29.9235556 107.123214,29.5253333 C107.180119,26.8515556 107.322381,21.4755556 107.379286,18.8017778 C105.472976,18.6595556 101.660357,18.4035556 99.7825,18.2897778 Z" id="Shape"></path>
                <path d="M123.967024,26.7093333 C124.536071,22.0728889 125.076667,17.4648889 125.787976,12.8568889 C127.2675,18.4604444 128.405595,24.1777778 129.287619,29.9235556 C131.222381,29.9235556 135.120357,29.9804444 137.055119,30.0088889 C138.307024,25.6568889 139.70119,21.3617778 141.01,17.0382222 C145.30631,18.944 149.545714,20.992 153.699762,23.2391111 C150.655357,23.5235556 144.566548,24.0924444 141.522143,24.3768889 C143.28619,25.5715556 146.785833,27.9324444 148.521429,29.1271111 C146.757381,29.4115556 143.229286,30.0088889 141.465238,30.2933333 C133.896905,36.6364444 123.426429,28.8426667 114.862262,28.4728889 C117.906667,27.9324444 120.951071,27.3351111 123.967024,26.7093333 Z" id="Shape"></path>
                <path d="M159.41869,59.2782222 C160.386071,57.856 162.349286,55.0115556 163.316667,53.5893333 C163.572738,60.2737778 163.715,66.9866667 163.60119,73.6711111 C159.447143,70.0302222 154.183452,69.4613333 148.948214,69.632 C150.939881,65.5644444 151.964167,61.2124444 152.077976,56.6328889 C153.927381,57.3155556 157.569286,58.624 159.41869,59.2782222 Z" id="Shape"></path>
                <path d="M72.2121429,55.6657778 C75.285,55.7795556 81.4307143,56.0071111 84.5035714,56.1208889 C82.3127381,57.1448889 77.902619,59.1928889 75.6833333,60.1884444 C83.3370238,59.904 84.7311905,66.4177778 84.5889286,72.5333333 C81.26,72.6186667 77.9310714,72.6755556 74.6021429,72.7893333 C74.6305952,70.8551111 74.7444048,67.0435556 74.8013095,65.1377778 C74.1469048,62.7484444 72.8380952,58.0266667 72.2121429,55.6657778 Z" id="Shape"></path>
                <path d="M81.9428571,58.4817778 C83.9345238,58.1688889 87.9463095,57.5715556 89.9664286,57.2871111 C89.994881,58.88 90.1086905,62.1226667 90.1655952,63.744 C92.1003571,60.7573333 94.405,58.0835556 97.0510714,55.7226667 C96.6527381,62.6346667 94.4903571,69.2622222 90.7630952,75.0364444 C88.5438095,69.1768889 87.1780952,62.5777778 81.9428571,58.4817778 Z" id="Shape"></path>
                <path d="M98.1322619,55.0684444 C100.294643,55.1822222 104.647857,55.4097778 106.810238,55.4951111 C107.237024,59.1644444 107.293929,62.8622222 107.43619,66.56 C105.842857,66.4462222 102.65619,66.2186667 101.062857,66.1048889 C102.940714,66.7591111 106.724881,68.1244444 108.63119,68.8071111 C106.269643,71.5946667 102.457024,72.4764444 99.2419048,73.728 C98.8720238,67.4986667 98.5021429,61.2693333 98.1322619,55.0684444 Z" id="Shape"></path>
                <path d="M111.931667,55.2391111 L115.915,54.7555556 C115.829643,57.856 115.630476,64.0284444 115.545119,67.1288889 C117.650595,67.3564444 121.861548,67.84 123.967024,68.0675556 C123.824762,64.8817778 123.6825,61.696 123.540238,58.5102222 C125.731071,57.4008889 130.112738,55.1822222 132.303571,54.0728889 C132.588095,55.9502222 133.157143,59.7333333 133.441667,61.6106667 C132.0475,61.184 129.259167,60.3306667 127.865,59.904 C128.434048,62.4924444 129.031548,65.0524444 129.6575,67.6124444 C130.482619,66.3324444 132.075952,63.8008889 132.872619,62.5208889 C135.51869,65.3653333 136.912857,69.0062222 138.363929,72.5333333 C130.255,73.6142222 122.060714,71.4524444 113.980238,73.216 C113.069762,67.2426667 112.415357,61.2408889 111.931667,55.2391111 Z" id="Shape"></path>
                <path d="M138.193214,55.296 C141.977381,55.4951111 149.574167,55.9217778 153.358333,56.1493333 C150.143214,57.2871111 143.712976,59.5911111 140.497857,60.7573333 C143.030119,61.0702222 148.037738,61.696 150.57,62.0088889 C147.525595,64.2844444 144.338929,66.3324444 140.981548,68.1528889 C143.542262,69.0915556 148.66369,70.9404444 151.224405,71.8506667 C148.037738,72.0497778 141.692857,72.4764444 138.50619,72.6755556 C138.250119,66.8728889 138.164762,61.0986667 138.193214,55.296 Z" id="Shape"></path>
                <path d="M167.328452,63.2035556 C169.149405,60.16 171.539405,59.7048889 174.47,61.8666667 C176.632381,64.9102222 176.290952,67.4133333 173.474167,69.4044444 C169.604643,69.1484444 167.527619,67.072 167.328452,63.2035556 Z" id="Shape"></path>
                <path d="M1.45107143,137.216 C10.8403571,137.415111 20.2296429,137.329778 29.5904762,137.585778 C22.1644048,148.224 13.145,158.520889 1.96321429,165.290667 C1.90630952,155.932444 1.99166667,146.574222 1.45107143,137.216 Z" id="Shape"></path>
                <path d="M209.950119,137.784889 C219.225595,137.301333 228.501071,137.358222 237.805,137.272889 C237.406667,146.460444 237.378214,155.619556 237.463571,164.807111 C233.13881,163.640889 230.407381,160 227.334524,157.070222 C221.274167,150.869333 213.535119,146.033778 209.950119,137.784889 Z" id="Shape"></path>
                <path d="M127.15369,153.628444 C138.13631,159.118222 134.55131,173.283556 134.949643,183.182222 L129.116905,183.011556 C129.06,173.198222 127.665833,163.441778 127.15369,153.628444 Z" id="Shape"></path>
            </g>
        </g>
    </g>
</svg>