<?xml version="1.0" encoding="UTF-8" ?>
<!DOCTYPE svg PUBLIC "-//W3C//DTD SVG 1.1//EN" "http://www.w3.org/Graphics/SVG/1.1/DTD/svg11.dtd">
<svg width="1200pt" height="1200pt" viewBox="0 0 1200 1200" version="1.1" xmlns="http://www.w3.org/2000/svg">
<g id="#ffffffff">
<path fill="#ffffff" opacity="1.00" d=" M 597.14 39.17 C 604.74 37.08 613.06 38.98 619.33 43.65 C 633.88 54.25 649.18 63.90 665.44 71.69 C 682.44 79.98 700.58 85.77 719.01 89.96 C 742.82 95.36 767.63 97.29 791.86 93.70 C 804.84 91.87 817.68 88.44 829.33 82.31 C 840.99 76.40 851.75 68.92 862.42 61.42 C 868.84 57.04 875.95 52.48 884.03 52.69 C 891.77 53.13 897.91 58.65 902.85 64.13 C 946.36 114.28 989.86 164.44 1033.34 214.61 C 1038.73 220.75 1043.96 227.70 1045.26 235.97 C 1046.38 242.79 1043.09 249.58 1038.14 254.14 C 1020.58 270.17 1000.94 284.34 986.51 303.49 C 964.53 332.72 955.29 371.19 961.88 407.20 C 964.22 420.13 968.50 432.72 974.61 444.36 C 992.09 478.09 1007.70 512.87 1019.96 548.85 C 1002.72 548.97 985.47 549.01 968.23 548.82 C 959.10 524.88 949.03 501.30 937.78 478.27 C 933.67 469.44 929.13 460.83 924.97 452.03 C 908.85 416.92 906.00 376.52 914.09 338.97 C 921.44 304.65 939.76 273.18 964.47 248.45 C 970.58 242.10 977.24 236.30 983.27 229.86 C 974.97 219.20 965.58 209.43 956.92 199.06 C 931.13 169.45 905.53 139.68 879.73 110.08 C 870.03 116.45 860.29 122.88 849.62 127.55 C 829.95 136.60 808.59 141.68 787.03 143.25 C 726.58 146.90 665.47 130.03 614.61 97.37 C 611.59 95.57 608.64 93.11 605.00 92.85 C 601.15 93.30 598.14 95.98 594.97 97.95 C 560.12 120.17 520.50 134.74 479.64 140.79 C 450.33 145.19 420.00 145.38 391.16 137.93 C 374.70 133.89 358.92 127.29 344.30 118.72 C 339.59 116.05 335.10 112.96 330.12 110.79 C 319.87 122.00 310.28 133.80 300.19 145.16 C 276.12 173.13 251.73 200.84 227.78 228.91 C 235.70 237.76 244.37 245.91 252.19 254.84 C 272.38 277.05 287.42 304.06 294.90 333.17 C 303.52 366.33 302.33 401.94 291.60 434.48 C 285.62 453.89 275.08 471.40 266.82 489.86 C 257.66 509.17 249.64 528.98 241.83 548.87 C 223.22 548.97 204.60 548.98 185.98 548.85 C 199.77 509.59 217.55 471.91 235.27 434.31 C 244.62 414.42 248.59 391.94 245.88 370.09 C 243.64 350.90 236.80 332.44 227.32 315.67 C 216.97 297.69 201.62 283.35 186.08 269.89 C 177.82 262.51 169.05 255.63 161.64 247.36 C 158.85 244.29 156.52 240.35 156.96 236.06 C 157.32 231.43 160.34 227.67 163.28 224.32 C 207.67 173.67 252.01 122.99 295.98 71.99 C 301.27 66.30 305.61 59.45 312.38 55.37 C 319.30 51.28 328.16 52.18 334.90 56.19 C 344.41 61.82 353.58 68.04 362.59 74.45 C 384.57 89.47 411.57 95.98 437.99 95.53 C 485.12 95.20 532.04 80.56 571.01 54.04 C 579.36 48.54 587.33 41.91 597.14 39.17 Z" />
<path fill="#ffffff" opacity="1.00" d=" M 562.63 135.87 C 565.96 133.91 569.41 131.28 573.42 131.25 C 589.46 133.76 605.53 136.22 621.41 139.63 C 661.05 147.95 700.00 160.08 736.75 177.21 C 767.61 191.70 797.01 209.75 822.50 232.51 C 827.84 237.24 832.49 242.69 837.89 247.36 C 840.82 241.15 842.86 234.59 845.13 228.12 C 855.46 198.72 863.96 168.68 870.63 138.25 C 870.84 137.86 871.27 137.09 871.49 136.70 C 870.99 145.14 869.19 153.43 867.70 161.74 C 856.25 224.90 837.22 286.81 809.81 344.91 C 805.93 353.34 801.56 361.52 797.66 369.94 C 791.95 368.28 786.50 365.83 780.67 364.58 C 786.76 353.71 793.29 343.09 799.19 332.11 C 809.44 313.25 818.84 293.93 827.24 274.18 C 829.05 270.26 830.70 266.27 832.02 262.16 C 823.28 250.33 812.36 240.27 801.13 230.84 C 774.52 208.69 744.18 191.37 712.56 177.45 C 665.99 157.12 616.39 144.36 566.23 136.74 C 565.02 136.47 563.82 136.18 562.63 135.87 Z" />
<path fill="#ffffff" opacity="1.00" d=" M 345.48 294.67 C 432.22 290.61 520.40 300.16 602.43 329.57 C 637.73 342.33 672.01 358.30 703.46 378.88 C 698.78 386.31 689.42 388.05 683.67 394.37 C 670.55 386.41 657.72 377.95 644.07 370.89 C 569.68 331.06 485.93 310.89 402.07 305.26 C 369.81 303.15 337.44 303.15 305.16 304.79 C 303.10 303.63 302.90 300.47 301.71 298.49 C 316.16 295.99 330.88 295.87 345.48 294.67 Z" />
<path fill="#ffffff" opacity="1.00" d=" M 282.22 501.18 C 303.44 499.03 324.67 496.73 346.00 496.01 C 395.40 494.03 445.15 497.24 493.59 507.42 C 526.55 514.56 559.02 524.71 589.31 539.69 C 593.59 541.72 597.49 544.61 602.05 546.04 C 605.01 545.46 607.50 543.59 610.03 542.03 C 619.60 535.75 629.20 529.48 638.24 522.43 C 641.34 520.71 645.81 523.59 645.90 527.15 C 646.69 534.36 646.71 541.64 647.21 548.88 C 609.13 549.01 571.05 548.85 532.97 548.96 C 530.42 548.94 527.79 548.90 525.41 547.89 C 510.50 541.47 494.87 536.91 479.23 532.65 C 456.97 526.71 434.31 522.14 411.44 519.34 C 408.82 528.97 407.44 538.88 406.04 548.75 C 397.55 549.13 389.05 548.90 380.56 548.88 C 381.22 538.12 382.84 527.46 384.43 516.81 C 376.82 515.04 368.94 515.56 361.21 514.77 C 339.83 513.84 318.41 513.98 297.02 514.67 C 289.88 514.83 282.75 515.58 275.60 515.43 C 277.72 510.64 279.57 505.72 282.22 501.18 Z" />
<path fill="#ffffff" opacity="1.00" d=" M 910.31 534.26 C 917.10 524.65 922.75 514.31 929.41 504.62 C 931.26 508.60 933.76 512.44 934.59 516.81 C 928.67 527.65 922.00 538.05 915.81 548.73 C 910.76 549.10 905.69 548.99 900.64 548.81 C 903.80 543.92 907.05 539.09 910.31 534.26 Z" />
<path fill="#ffffff" opacity="1.00" d=" M 83.33 554.33 C 280.91 554.21 478.49 554.33 676.07 554.27 C 677.89 554.23 679.83 554.42 681.20 555.80 C 704.15 575.17 727.24 594.39 750.24 613.70 C 752.09 614.83 752.07 617.01 752.09 618.94 C 752.05 644.63 752.07 670.31 752.07 696.00 C 752.00 699.89 752.39 703.83 751.78 707.71 C 746.00 713.62 738.80 717.97 732.90 723.77 C 739.65 729.78 747.21 734.93 753.57 741.36 C 754.15 773.21 753.54 805.14 753.84 837.02 C 753.81 839.71 754.31 842.99 751.61 844.61 C 727.91 864.24 704.26 883.92 680.60 903.60 C 679.08 904.98 677.08 905.54 675.05 905.45 C 599.70 905.42 524.35 905.44 449.00 905.44 C 440.43 905.28 431.85 905.80 423.30 905.16 C 423.39 871.83 423.25 838.51 423.38 805.18 C 434.55 801.56 446.10 799.22 457.37 795.91 C 457.63 757.95 457.40 719.97 457.47 682.00 C 457.36 676.05 457.85 670.09 457.17 664.17 C 449.04 662.06 440.97 659.70 432.77 657.89 C 432.36 678.75 432.90 699.63 432.52 720.49 C 406.02 720.70 379.51 720.50 353.00 720.56 C 346.26 720.48 339.51 720.79 332.78 720.40 C 330.17 703.04 327.25 685.72 324.71 668.35 C 324.44 666.61 323.84 664.95 323.18 663.34 C 322.62 667.86 322.86 672.44 322.86 676.99 C 322.86 707.33 322.85 737.66 322.85 768.00 C 323.01 777.23 322.51 786.48 323.12 795.70 C 335.91 799.02 348.86 801.77 361.61 805.26 C 361.62 838.54 361.55 871.82 361.65 905.09 C 349.79 905.93 337.88 905.16 326.00 905.42 C 273.00 905.49 220.00 905.41 167.00 905.46 C 163.08 905.52 159.16 905.48 155.25 905.21 C 155.31 872.47 155.25 839.74 155.28 807.01 C 155.06 805.80 155.48 805.02 156.52 804.70 C 168.82 801.57 181.33 799.21 193.53 795.73 C 193.49 751.45 193.53 707.17 193.51 662.89 C 192.73 663.41 192.27 664.12 192.14 665.04 C 189.49 683.58 186.37 702.05 183.54 720.56 C 150.14 720.61 116.75 720.54 83.35 720.58 C 83.24 665.16 83.29 609.74 83.33 554.33 M 93.17 564.18 C 93.12 613.01 93.08 661.84 93.19 710.67 C 120.42 710.72 147.66 710.78 174.89 710.64 C 178.57 691.80 180.79 672.70 184.13 653.79 C 190.48 653.44 196.85 653.50 203.21 653.75 C 203.47 688.49 203.25 723.25 203.32 758.00 C 203.15 773.25 203.66 788.52 203.08 803.76 C 190.49 807.09 177.62 809.33 165.13 813.02 C 165.19 840.56 165.00 868.11 165.22 895.65 C 227.38 895.57 289.54 895.63 351.71 895.61 C 351.75 868.10 351.70 840.58 351.73 813.06 C 339.03 809.46 326.11 806.62 313.28 803.51 C 312.96 753.60 313.23 703.67 313.15 653.76 C 319.57 653.61 326.05 653.17 332.45 654.01 C 335.28 672.91 338.17 691.80 341.32 710.65 C 368.46 710.78 395.60 710.72 422.74 710.68 C 422.83 661.85 422.83 613.02 422.74 564.20 C 312.89 564.06 203.03 564.11 93.17 564.18 M 433.26 564.20 C 433.19 592.03 433.12 619.86 433.30 647.69 C 444.61 650.87 456.15 653.28 467.34 656.89 C 467.37 705.64 467.36 754.39 467.34 803.14 C 456.21 806.92 444.63 809.22 433.32 812.44 C 433.09 840.17 433.20 867.90 433.27 895.63 C 512.85 895.60 592.44 895.59 672.03 895.64 C 673.57 895.67 675.17 895.41 676.37 894.35 C 698.22 876.22 719.98 857.96 741.93 839.93 C 743.13 838.98 744.15 837.69 743.92 836.06 C 743.97 807.02 743.89 777.97 743.96 748.92 C 743.90 747.33 744.01 745.44 742.50 744.47 C 734.25 737.51 725.76 730.82 717.58 723.78 C 725.17 716.18 734.53 710.50 742.03 702.86 C 742.55 681.60 742.10 660.28 742.25 639.00 C 742.07 632.72 742.65 626.41 741.98 620.16 C 738.14 615.60 732.94 612.43 728.57 608.40 C 711.69 594.28 694.86 580.11 678.02 565.95 C 676.43 564.36 674.22 563.98 672.07 564.09 C 592.47 564.22 512.86 564.00 433.26 564.20 Z" />
<path fill="#ffffff" opacity="1.00" d=" M 758.16 554.30 C 879.75 554.29 1001.34 554.24 1122.93 554.33 C 1123.48 578.54 1123.00 602.78 1123.16 627.00 C 1123.03 636.65 1123.43 646.30 1122.97 655.94 C 1106.12 659.72 1089.14 663.01 1072.23 666.50 C 1068.57 667.16 1065.99 670.01 1063.23 672.24 C 1053.48 680.63 1043.29 688.51 1033.66 697.04 C 1048.32 725.38 1063.61 753.40 1078.53 781.60 C 1080.98 785.80 1082.76 790.43 1085.64 794.38 C 1097.86 798.53 1110.57 801.23 1122.87 805.20 C 1123.56 815.12 1122.97 825.07 1123.16 835.00 C 1123.10 858.43 1123.29 881.86 1123.08 905.29 C 1070.06 905.65 1017.02 905.34 964.00 905.44 C 908.00 905.44 852.00 905.42 796.00 905.44 C 783.34 905.34 770.69 905.61 758.04 905.27 C 757.79 874.85 758.04 844.43 757.89 814.01 C 757.86 811.02 757.95 808.04 758.10 805.07 C 769.30 801.61 780.80 799.17 792.05 795.88 C 792.45 761.59 792.10 727.29 792.22 693.00 C 792.05 683.40 792.58 673.79 791.95 664.21 C 780.76 660.87 769.24 658.70 758.14 655.03 C 757.67 635.36 758.07 615.67 757.94 596.00 C 758.07 582.10 757.66 568.19 758.16 554.30 M 767.94 564.17 C 767.76 567.77 767.72 571.38 767.77 575.00 C 767.98 599.24 767.43 623.51 768.04 647.74 C 779.26 650.74 790.51 653.58 801.75 656.52 C 802.27 670.00 801.75 683.51 801.93 697.00 C 801.81 732.52 802.18 768.06 801.75 803.58 C 790.55 806.50 779.34 809.41 768.17 812.43 C 767.27 824.58 768.04 836.81 767.79 849.00 C 767.97 864.54 767.40 880.10 768.08 895.63 C 824.42 895.61 880.76 895.59 937.10 895.64 C 937.81 887.11 937.21 878.54 937.40 870.00 C 937.41 852.31 937.38 834.63 937.43 816.94 C 937.23 815.58 937.76 813.52 936.11 812.92 C 929.31 809.76 922.21 807.31 915.27 804.49 C 914.49 797.35 914.90 790.13 914.93 782.97 C 914.68 780.74 916.80 779.52 918.19 778.19 C 925.51 772.15 932.70 765.94 940.08 759.98 C 945.24 768.26 949.60 777.02 954.50 785.46 C 958.09 792.27 962.39 798.72 965.43 805.80 C 959.36 808.43 953.09 810.55 947.06 813.26 C 946.83 816.17 946.72 819.08 946.77 822.00 C 947.04 846.55 946.46 871.11 947.05 895.64 C 1002.38 895.59 1057.71 895.60 1113.04 895.64 C 1113.66 887.77 1113.16 879.88 1113.31 872.00 C 1113.31 853.31 1113.30 834.63 1113.33 815.94 C 1113.16 814.65 1113.61 812.52 1111.83 812.24 C 1105.14 810.14 1098.30 808.54 1091.60 806.47 C 1087.32 805.08 1082.69 804.54 1078.70 802.40 C 1076.48 799.41 1075.08 795.92 1073.30 792.68 C 1056.14 760.51 1039.00 728.33 1021.88 696.14 C 1020.81 694.92 1021.95 693.75 1022.93 692.99 C 1036.01 682.05 1049.21 671.25 1062.25 660.25 C 1065.29 657.39 1069.62 657.07 1073.51 656.22 C 1086.75 653.48 1100.02 650.89 1113.22 647.94 C 1113.35 620.02 1113.44 592.09 1113.17 564.18 C 1057.57 564.14 1001.97 563.99 946.37 564.25 C 946.43 591.73 946.36 619.21 946.41 646.68 C 951.16 649.07 956.25 650.65 961.07 652.87 C 945.67 666.20 930.43 679.72 914.96 692.97 C 914.81 680.65 914.81 668.34 914.94 656.03 C 921.94 652.44 929.46 650.04 936.52 646.61 C 936.56 619.16 936.45 591.71 936.58 564.26 C 925.05 563.92 913.52 564.23 902.00 564.13 C 857.31 564.16 812.63 564.06 767.94 564.17 M 924.66 662.53 C 924.62 665.39 924.59 668.26 924.60 671.14 C 930.90 666.45 936.88 661.24 942.35 655.61 C 936.17 657.08 930.43 659.94 924.66 662.53 M 924.95 786.13 C 924.64 789.89 924.09 793.98 925.27 797.60 C 929.07 799.72 933.28 800.95 937.26 802.70 C 939.30 803.35 941.44 804.80 943.64 803.92 C 946.41 803.10 949.05 801.89 951.71 800.77 C 946.96 792.16 942.41 783.42 937.21 775.08 C 933.15 778.77 928.27 781.73 924.95 786.13 Z" />
<path fill="#ffffff" opacity="1.00" d=" M 109.83 580.80 C 162.89 580.62 215.94 580.78 269.00 580.72 C 314.71 580.78 360.43 580.61 406.15 580.81 C 406.29 618.54 406.34 656.29 406.12 694.02 C 396.41 694.34 386.71 694.06 377.00 694.15 C 369.81 694.03 362.60 694.46 355.42 693.86 C 352.54 674.97 349.46 656.10 346.59 637.21 C 339.08 636.56 331.53 637.04 324.00 636.90 C 314.79 637.03 305.57 636.60 296.36 637.16 C 296.52 696.93 296.31 756.71 296.47 816.48 C 309.25 819.51 321.96 822.83 334.78 825.69 C 335.55 832.43 335.01 839.23 335.16 846.00 C 335.05 856.95 335.39 867.90 334.98 878.84 C 283.94 878.95 232.89 878.99 181.84 878.82 C 181.61 861.24 181.59 843.65 181.84 826.07 C 194.43 822.73 207.24 820.26 219.81 816.85 C 220.02 756.93 219.93 697.00 219.85 637.08 C 203.24 636.80 186.60 636.74 169.98 637.12 C 166.66 656.00 164.09 675.00 160.84 693.90 C 143.86 694.44 126.83 694.11 109.84 694.05 C 109.52 669.37 109.80 644.68 109.70 620.00 C 109.80 606.93 109.52 593.86 109.83 580.80 Z" />
<path fill="#ffffff" opacity="1.00" d=" M 449.85 580.81 C 521.92 580.59 594.00 580.83 666.07 580.69 C 668.34 580.48 670.52 581.26 672.20 582.81 C 687.77 595.92 703.34 609.02 718.97 622.06 C 721.10 623.88 723.49 625.47 725.30 627.64 C 725.81 630.05 725.55 632.55 725.60 635.01 C 725.42 655.15 725.74 675.30 725.45 695.44 C 714.08 704.86 702.33 713.86 691.27 723.65 C 702.33 732.95 713.53 742.09 724.66 751.31 C 726.02 752.51 727.61 753.90 727.34 755.94 C 727.36 779.97 727.36 804.02 727.33 828.05 C 727.62 830.08 725.92 831.40 724.60 832.64 C 706.51 847.50 688.60 862.59 670.55 877.50 C 669.06 878.91 666.97 878.94 665.06 878.95 C 593.34 878.84 521.61 879.00 449.89 878.87 C 449.58 866.91 449.84 854.95 449.76 843.00 C 449.88 837.09 449.39 831.16 450.10 825.28 C 461.35 822.03 472.84 819.64 483.99 816.08 C 484.15 762.39 483.99 708.69 484.07 655.00 C 484.11 651.33 484.08 647.66 483.93 644.01 C 472.77 640.39 461.20 638.19 449.97 634.77 C 449.54 616.79 449.77 598.79 449.85 580.81 M 560.43 641.46 C 560.43 662.97 560.50 684.49 560.40 706.00 C 582.58 706.68 604.80 706.03 627.00 706.32 C 630.21 706.19 633.95 706.96 636.49 704.45 C 640.97 700.53 645.83 696.99 650.05 692.79 C 650.95 687.26 650.21 681.58 650.42 676.00 C 650.21 669.06 650.85 662.07 650.15 655.16 C 647.16 651.70 643.27 649.20 639.94 646.11 C 637.53 644.27 635.41 641.21 632.04 641.43 C 608.17 641.47 584.30 641.41 560.43 641.46 M 560.54 745.26 C 560.28 769.49 560.58 793.75 560.40 817.99 C 565.92 818.52 571.47 818.23 577.00 818.27 C 594.68 818.29 612.36 818.23 630.05 818.32 C 631.81 818.22 633.79 818.43 635.30 817.28 C 639.38 814.41 643.04 810.99 647.05 808.03 C 648.86 806.39 651.72 804.90 651.35 802.04 C 651.37 788.34 651.33 774.64 651.36 760.94 C 651.93 757.19 648.09 755.40 645.80 753.22 C 640.86 749.80 636.82 743.34 630.02 744.45 C 607.36 744.61 584.69 744.38 562.03 744.55 C 561.66 744.73 560.91 745.09 560.54 745.26 Z" />
<path fill="#ffffff" opacity="1.00" d=" M 784.40 581.00 C 797.91 580.34 811.47 580.92 825.00 580.72 C 856.61 580.83 888.22 580.52 919.83 580.87 C 919.75 599.14 920.00 617.42 919.71 635.69 C 912.79 638.88 905.52 641.30 898.70 644.69 C 898.17 646.03 898.30 647.51 898.24 648.94 C 898.38 675.73 898.25 702.52 898.31 729.31 C 904.79 724.55 910.51 718.84 916.66 713.67 C 935.01 697.68 953.37 681.72 971.69 665.71 C 978.50 659.61 985.73 653.97 992.16 647.48 C 982.54 643.47 972.77 639.82 963.19 635.70 C 962.98 617.41 963.12 599.12 963.12 580.83 C 994.74 580.58 1026.37 580.80 1058.00 580.72 C 1070.88 580.93 1083.79 580.31 1096.65 581.03 C 1096.56 598.84 1096.69 616.66 1096.59 634.48 C 1084.73 636.94 1072.86 639.36 1060.99 641.76 C 1056.16 642.47 1053.01 646.51 1049.39 649.35 C 1032.97 663.04 1016.47 676.63 1000.10 690.38 C 1018.82 726.37 1038.21 762.03 1057.17 797.90 C 1060.71 804.05 1063.46 810.68 1067.44 816.56 C 1076.78 820.47 1087.02 821.96 1096.60 825.33 C 1096.66 843.14 1096.59 860.95 1096.64 878.77 C 1052.33 879.07 1008.01 878.90 963.70 878.85 C 963.30 860.86 963.61 842.86 963.54 824.87 C 971.86 820.62 980.94 818.11 989.34 814.02 C 974.92 787.27 959.61 761.00 945.20 734.24 C 938.62 738.87 932.79 744.48 926.53 749.53 C 917.67 757.00 908.70 764.35 899.89 771.86 C 897.81 773.22 898.34 775.83 898.25 777.96 C 898.43 790.50 898.13 803.05 898.40 815.60 C 905.75 818.67 913.19 821.50 920.60 824.45 C 920.86 842.56 920.64 860.68 920.71 878.80 C 891.81 879.07 862.90 878.83 834.00 878.91 C 817.47 878.81 800.93 879.11 784.40 878.77 C 784.52 861.00 784.40 843.23 784.47 825.46 C 795.76 822.23 807.17 819.45 818.50 816.35 C 818.87 782.91 818.55 749.45 818.66 716.00 C 818.52 691.92 818.92 667.82 818.46 643.74 C 807.16 640.59 795.68 638.06 784.45 634.65 C 784.41 616.77 784.52 598.88 784.40 581.00 Z" />
<path fill="#ffffff" opacity="1.00" d=" M 577.19 658.20 C 593.15 658.08 609.11 658.23 625.07 658.13 C 628.51 657.72 631.30 660.15 633.42 662.54 C 634.21 668.66 633.55 674.90 633.77 681.08 C 634.53 685.82 629.60 689.99 625.08 689.62 C 609.14 689.56 593.20 689.57 577.26 689.62 C 577.07 679.15 577.17 668.67 577.19 658.20 M 587.07 668.07 C 586.75 671.94 586.73 675.84 587.06 679.72 C 599.31 679.75 611.57 679.78 623.83 679.71 C 623.99 675.81 623.99 671.92 623.85 668.03 C 611.59 667.81 599.32 667.77 587.07 668.07 Z" />
<path fill="#ffffff" opacity="1.00" d=" M 598.97 673.26 C 605.65 673.01 612.34 673.00 619.03 673.25 C 618.87 673.57 618.55 674.19 618.40 674.51 C 612.14 674.76 605.84 674.75 599.59 674.50 C 599.44 674.19 599.12 673.57 598.97 673.26 Z" />
<path fill="#ffffff" opacity="1.00" d=" M 1040.27 698.40 C 1043.15 695.69 1046.17 693.10 1049.48 690.92 C 1049.79 699.07 1049.84 707.24 1049.63 715.40 C 1046.04 710.01 1043.24 704.14 1040.27 698.40 Z" />
<path fill="#ffffff" opacity="1.00" d=" M 156.32 726.15 C 166.90 725.47 177.52 725.90 188.12 725.90 C 188.39 740.60 188.15 755.30 188.23 770.00 C 188.11 777.26 188.51 784.54 188.02 791.80 C 181.54 793.25 175.16 795.42 168.50 795.91 C 162.01 773.16 158.07 749.73 156.32 726.15 Z" />
<path fill="#ffffff" opacity="1.00" d=" M 398.02 726.07 C 404.25 725.70 410.53 725.52 416.75 726.17 C 421.85 749.83 428.88 773.05 436.91 795.87 C 432.45 797.12 427.95 798.23 423.49 799.48 C 419.35 794.20 418.05 787.48 415.61 781.37 C 408.76 763.27 403.25 744.70 398.02 726.07 Z" />
<path fill="#ffffff" opacity="1.00" d=" M 577.18 761.20 C 593.14 761.06 609.10 761.26 625.07 761.12 C 628.85 760.64 632.97 762.90 634.53 766.29 C 634.94 774.87 634.51 783.48 634.72 792.07 C 634.50 793.87 635.14 796.21 633.48 797.50 C 631.37 799.37 629.09 801.74 626.04 801.59 C 609.77 801.64 593.51 801.56 577.24 801.62 C 577.09 788.15 577.18 774.67 577.18 761.20 M 587.05 771.08 C 586.76 777.96 586.76 784.85 587.04 791.74 C 599.62 791.76 612.20 791.80 624.78 791.72 C 624.87 784.85 624.88 777.98 624.78 771.12 C 612.22 770.76 599.62 770.77 587.05 771.08 Z" />
<path fill="#ffffff" opacity="1.00" d=" M 460.00 911.39 C 469.89 911.87 479.72 910.54 489.60 910.65 L 489.93 911.27 C 511.97 950.68 537.64 988.00 565.46 1023.55 C 570.70 1030.59 576.67 1037.06 581.77 1044.21 C 577.82 1042.19 574.13 1039.58 571.28 1036.16 C 560.43 1022.89 549.01 1010.07 538.52 996.50 C 530.79 986.23 522.55 976.34 515.28 965.73 C 502.44 948.17 490.49 929.98 478.92 911.58 C 465.61 911.42 452.30 911.64 439.00 911.55 C 432.04 911.42 425.07 911.97 418.12 911.35 C 432.08 911.52 446.04 911.32 460.00 911.39 Z" />
<path fill="#ffffff" opacity="1.00" d=" M 800.21 911.32 C 805.32 909.90 810.75 911.00 816.00 910.67 C 823.02 910.30 829.99 911.50 837.01 911.40 C 847.04 911.48 857.09 911.05 867.11 911.87 C 866.25 911.97 865.41 912.11 864.56 912.13 C 853.40 910.97 842.17 911.86 830.98 911.41 C 827.22 911.11 823.73 912.68 820.56 914.51 C 809.31 920.85 797.68 926.51 785.74 931.41 C 781.59 932.48 777.35 933.22 773.35 934.81 C 773.60 930.75 774.14 926.73 774.50 922.69 C 782.75 918.20 791.90 915.72 800.21 911.32 Z" />
<path fill="#ffffff" opacity="1.00" d=" M 231.84 910.86 C 256.56 910.51 281.28 910.88 306.00 910.68 C 308.90 910.72 312.23 910.26 314.50 912.53 C 339.52 933.37 367.09 951.04 395.90 966.16 C 416.34 977.19 437.75 986.26 458.76 996.13 C 495.49 1013.15 531.76 1031.65 564.84 1055.13 C 579.38 1065.25 592.89 1076.73 606.02 1088.60 C 611.39 1083.11 616.27 1077.10 622.45 1072.46 C 652.87 1047.60 686.74 1027.24 721.94 1009.92 C 740.35 1000.69 759.43 992.87 778.02 984.03 C 819.55 964.48 860.02 941.86 895.50 912.52 C 897.78 910.30 901.09 910.74 904.00 910.69 C 927.14 910.89 950.29 910.47 973.43 910.90 C 969.36 916.58 964.29 921.43 959.53 926.51 C 931.06 955.72 898.01 980.19 863.06 1001.09 C 831.70 1019.92 798.59 1035.60 765.05 1050.10 C 729.19 1066.21 694.46 1085.26 663.18 1109.19 C 649.76 1119.31 638.82 1132.18 627.61 1144.59 C 623.33 1149.31 619.16 1154.42 613.39 1157.39 C 607.29 1160.84 599.52 1160.89 593.33 1157.67 C 586.58 1154.43 582.06 1148.27 577.09 1142.94 C 565.06 1129.35 552.93 1115.53 537.93 1105.12 C 508.57 1085.23 477.54 1067.88 445.60 1052.53 C 423.80 1042.21 401.43 1033.11 380.01 1022.00 C 327.15 995.07 277.26 960.91 237.10 916.93 C 235.29 914.96 233.53 912.94 231.84 910.86 Z" />
</g>
<g id="#000000ff">
<path fill="#000000" opacity="1.00" d=" M 576.42 43.43 C 584.85 38.24 593.70 32.15 604.00 32.20 C 611.93 32.08 619.14 36.06 625.31 40.69 C 653.87 61.64 686.57 77.24 721.27 84.70 C 743.47 89.39 766.45 91.85 789.04 88.71 C 803.40 86.76 817.37 82.13 830.06 75.12 C 841.95 68.65 852.75 60.42 864.19 53.22 C 871.32 48.72 880.00 45.76 888.47 47.58 C 896.68 49.38 903.07 55.38 908.40 61.56 C 948.29 107.35 988.12 153.19 1027.83 199.14 C 1033.81 206.50 1040.87 213.07 1045.70 221.31 C 1050.09 229.15 1052.99 238.84 1049.61 247.60 C 1047.08 254.74 1041.26 259.93 1035.47 264.47 C 1023.42 274.35 1011.12 284.05 1000.61 295.60 C 991.22 305.67 983.87 317.46 977.78 329.75 C 968.38 348.99 963.34 370.65 965.23 392.09 C 966.46 408.49 971.67 424.36 978.92 439.04 C 990.72 463.00 1001.91 487.26 1011.99 512.00 C 1017.06 524.16 1021.36 536.62 1026.12 548.89 C 1060.15 549.06 1094.19 548.74 1128.23 549.04 C 1128.61 586.06 1128.36 623.09 1128.35 660.11 C 1120.23 662.48 1111.81 663.55 1103.58 665.44 C 1095.57 667.08 1087.59 668.83 1079.56 670.36 C 1075.95 671.12 1072.00 671.54 1069.17 674.15 C 1064.86 677.86 1060.39 681.38 1056.11 685.11 C 1054.48 686.19 1054.88 688.26 1054.85 689.93 C 1055.47 700.62 1055.49 711.36 1054.88 722.05 C 1054.64 724.37 1055.13 726.70 1056.30 728.74 C 1066.69 748.03 1076.95 767.40 1087.21 786.77 C 1088.10 788.56 1089.42 790.25 1091.50 790.71 C 1103.65 794.36 1115.95 797.50 1128.11 801.13 C 1128.80 811.40 1128.21 821.71 1128.40 832.00 C 1128.25 858.25 1128.71 884.50 1128.18 910.74 C 1080.10 910.73 1032.03 910.71 983.95 910.74 C 982.20 910.49 980.87 911.65 979.82 912.87 C 956.29 940.38 928.85 964.43 899.17 985.11 C 871.24 1004.62 841.25 1021.00 810.45 1035.47 C 792.78 1043.81 775.00 1051.93 757.40 1060.41 C 736.52 1070.78 716.00 1081.91 696.20 1094.21 C 684.06 1101.88 671.95 1109.70 660.86 1118.85 C 650.48 1127.81 641.47 1138.19 632.30 1148.34 C 627.84 1153.18 623.57 1158.46 617.69 1161.66 C 608.99 1166.75 597.46 1167.60 588.62 1162.38 C 584.16 1159.98 581.06 1155.88 577.94 1152.02 C 554.33 1123.14 523.86 1100.64 491.46 1082.54 C 453.32 1060.78 412.02 1045.37 373.26 1024.83 C 321.23 997.87 271.89 964.23 232.44 920.54 C 229.47 917.45 227.10 913.79 223.79 911.05 C 219.91 910.36 215.93 910.80 212.00 910.72 C 191.38 910.70 170.76 910.79 150.15 910.69 C 149.58 895.14 150.07 879.56 149.91 864.00 C 150.02 842.99 149.68 821.97 150.06 800.97 C 154.31 799.66 158.66 798.79 162.97 797.73 C 158.08 779.19 154.07 760.38 152.39 741.26 C 151.85 736.18 151.47 731.09 150.89 726.02 C 126.65 725.52 102.39 726.04 78.14 725.76 C 77.67 669.85 78.11 613.92 77.92 558.00 C 77.90 555.02 77.98 552.05 78.12 549.08 C 112.02 548.66 145.94 549.14 179.85 548.85 C 194.25 511.65 210.26 475.09 227.07 438.91 C 238.49 414.74 244.02 387.07 238.68 360.58 C 233.57 334.01 218.63 310.23 199.80 291.17 C 187.83 279.09 174.68 268.28 161.99 257.00 C 155.66 251.34 151.11 242.89 152.46 234.21 C 153.42 226.47 158.62 220.28 163.86 214.90 C 191.47 185.06 217.32 153.67 243.95 122.97 C 262.82 101.15 281.64 79.28 300.58 57.52 C 305.88 51.31 313.70 47.10 321.97 47.13 C 329.56 46.77 336.79 49.87 342.95 54.08 C 350.03 58.59 356.97 63.32 363.86 68.13 C 375.49 76.26 388.55 82.42 402.37 85.77 C 419.17 90.15 436.73 90.56 453.95 89.18 C 480.88 87.00 507.43 80.20 532.05 69.06 C 547.69 62.09 562.39 53.21 576.42 43.43 M 597.14 39.17 C 587.33 41.91 579.36 48.54 571.01 54.04 C 532.04 80.56 485.12 95.20 437.99 95.53 C 411.57 95.98 384.57 89.47 362.59 74.45 C 353.58 68.04 344.41 61.82 334.90 56.19 C 328.16 52.18 319.30 51.28 312.38 55.37 C 305.61 59.45 301.27 66.30 295.98 71.99 C 252.01 122.99 207.67 173.67 163.28 224.32 C 160.34 227.67 157.32 231.43 156.96 236.06 C 156.52 240.35 158.85 244.29 161.64 247.36 C 169.05 255.63 177.82 262.51 186.08 269.89 C 201.62 283.35 216.97 297.69 227.32 315.67 C 236.80 332.44 243.64 350.90 245.88 370.09 C 248.59 391.94 244.62 414.42 235.27 434.31 C 217.55 471.91 199.77 509.59 185.98 548.85 C 204.60 548.98 223.22 548.97 241.83 548.87 C 249.64 528.98 257.66 509.17 266.82 489.86 C 275.08 471.40 285.62 453.89 291.60 434.48 C 302.33 401.94 303.52 366.33 294.90 333.17 C 287.42 304.06 272.38 277.05 252.19 254.84 C 244.37 245.91 235.70 237.76 227.78 228.91 C 251.73 200.84 276.12 173.13 300.19 145.16 C 310.28 133.80 319.87 122.00 330.12 110.79 C 335.10 112.96 339.59 116.05 344.30 118.72 C 358.92 127.29 374.70 133.89 391.16 137.93 C 420.00 145.38 450.33 145.19 479.64 140.79 C 520.50 134.74 560.12 120.17 594.97 97.95 C 598.14 95.98 601.15 93.30 605.00 92.85 C 608.64 93.11 611.59 95.57 614.61 97.37 C 665.47 130.03 726.58 146.90 787.03 143.25 C 808.59 141.68 829.95 136.60 849.62 127.55 C 860.29 122.88 870.03 116.45 879.73 110.08 C 905.53 139.68 931.13 169.45 956.92 199.06 C 965.58 209.43 974.97 219.20 983.27 229.86 C 977.24 236.30 970.58 242.10 964.47 248.45 C 939.76 273.18 921.44 304.65 914.09 338.97 C 906.00 376.52 908.85 416.92 924.97 452.03 C 929.13 460.83 933.67 469.44 937.78 478.27 C 949.03 501.30 959.10 524.88 968.23 548.82 C 985.47 549.01 1002.72 548.97 1019.96 548.85 C 1007.70 512.87 992.09 478.09 974.61 444.36 C 968.50 432.72 964.22 420.13 961.88 407.20 C 955.29 371.19 964.53 332.72 986.51 303.49 C 1000.94 284.34 1020.58 270.17 1038.14 254.14 C 1043.09 249.58 1046.38 242.79 1045.26 235.97 C 1043.96 227.70 1038.73 220.75 1033.34 214.61 C 989.86 164.44 946.36 114.28 902.85 64.13 C 897.91 58.65 891.77 53.13 884.03 52.69 C 875.95 52.48 868.84 57.04 862.42 61.42 C 851.75 68.92 840.99 76.40 829.33 82.31 C 817.68 88.44 804.84 91.87 791.86 93.70 C 767.63 97.29 742.82 95.36 719.01 89.96 C 700.58 85.77 682.44 79.98 665.44 71.69 C 649.18 63.90 633.88 54.25 619.33 43.65 C 613.06 38.98 604.74 37.08 597.14 39.17 M 602.42 115.45 C 597.04 117.43 592.15 120.51 587.02 123.02 C 582.41 125.62 577.19 127.38 573.42 131.25 C 569.41 131.28 565.96 133.91 562.63 135.87 C 563.82 136.18 565.02 136.47 566.23 136.74 C 560.32 135.21 555.01 138.68 549.71 140.67 C 540.87 144.35 531.64 146.91 522.50 149.72 C 490.11 159.96 455.76 163.04 421.95 160.85 C 401.58 159.41 381.32 155.36 362.37 147.66 C 352.43 144.36 343.55 138.75 334.01 134.58 C 326.67 141.74 320.38 149.90 313.55 157.55 C 296.57 177.24 279.55 196.90 262.53 216.56 C 259.33 220.32 255.76 223.78 253.10 227.97 C 254.98 230.98 257.29 233.69 259.86 236.13 C 273.58 249.89 284.17 266.32 293.92 283.02 C 296.76 288.05 298.89 293.44 301.71 298.49 C 302.90 300.47 303.10 303.63 305.16 304.79 C 306.80 312.63 310.33 319.90 312.27 327.67 C 317.19 343.65 318.40 360.41 319.41 377.01 C 318.68 390.99 317.56 405.03 314.65 418.76 C 312.36 428.08 309.90 437.39 306.33 446.32 C 301.73 459.74 295.18 472.36 289.23 485.21 C 286.71 490.45 283.89 495.58 282.22 501.18 C 279.57 505.72 277.72 510.64 275.60 515.43 C 273.15 519.92 271.55 524.79 269.45 529.44 C 266.84 535.79 263.62 541.95 261.98 548.66 C 278.31 549.30 294.66 548.75 311.00 548.93 C 334.19 548.88 357.38 549.03 380.56 548.88 C 389.05 548.90 397.55 549.13 406.04 548.75 C 439.02 549.10 472.01 548.84 505.00 548.96 C 511.80 548.98 518.81 550.14 525.41 547.89 C 527.79 548.90 530.42 548.94 532.97 548.96 C 571.05 548.85 609.13 549.01 647.21 548.88 C 646.71 541.64 646.69 534.36 645.90 527.15 C 645.81 523.59 641.34 520.71 638.24 522.43 C 633.81 521.40 629.48 519.90 625.66 517.39 C 622.77 515.27 618.91 516.54 616.21 518.33 C 614.70 522.02 617.43 526.36 616.14 530.16 C 614.54 533.02 610.86 532.85 608.04 533.08 C 597.51 533.21 586.68 533.62 576.53 530.31 C 574.00 529.30 570.80 527.26 571.20 524.12 C 572.38 520.27 576.17 517.35 575.86 513.05 C 575.62 502.79 573.83 492.65 572.40 482.51 C 569.09 481.19 562.95 481.20 563.35 476.30 C 565.48 473.34 569.23 472.22 571.68 469.58 C 572.50 466.97 570.88 464.52 569.88 462.24 C 564.34 451.23 563.67 437.14 570.48 426.53 C 573.99 420.49 580.28 416.93 584.53 411.50 C 586.50 408.92 590.33 406.11 588.67 402.44 C 586.60 398.98 581.83 396.72 582.26 392.13 C 583.52 387.86 589.04 386.42 589.94 381.94 C 590.88 379.59 590.66 376.36 592.93 374.80 C 596.21 373.82 599.98 374.30 602.98 375.96 C 605.18 378.29 605.02 382.20 607.71 384.22 C 609.75 386.22 613.27 387.63 613.08 391.00 C 612.92 396.04 606.91 397.95 605.41 402.39 C 604.73 405.47 606.74 408.17 608.74 410.26 C 612.81 414.54 616.44 419.23 621.00 423.02 C 625.15 426.40 627.53 431.64 627.42 436.99 C 627.37 445.08 628.28 453.79 624.18 461.14 C 622.35 464.82 618.71 467.08 616.45 470.43 C 615.59 472.45 617.48 473.98 618.78 475.22 C 621.41 477.48 624.30 479.98 627.95 480.20 C 633.26 480.68 638.63 480.53 643.94 479.98 C 644.65 477.57 645.34 475.14 645.53 472.63 C 646.38 461.37 648.37 450.08 652.69 439.60 C 659.62 422.49 670.94 407.58 683.67 394.37 C 689.42 388.05 698.78 386.31 703.46 378.88 C 705.60 375.57 707.40 371.92 707.55 367.91 C 707.82 361.54 708.13 355.12 707.46 348.77 C 705.68 347.84 703.78 347.07 702.22 345.78 C 700.78 343.77 700.11 341.33 698.72 339.30 C 695.50 337.47 691.76 336.83 688.30 335.58 C 686.61 327.09 688.55 318.45 687.91 309.91 C 687.65 305.15 684.26 300.99 685.07 296.12 C 686.76 282.93 683.78 269.20 688.42 256.42 C 691.63 248.05 695.79 240.05 700.37 232.35 C 707.20 221.03 715.26 209.47 727.43 203.45 C 730.24 201.94 733.71 202.94 735.68 205.34 C 751.65 222.44 764.35 243.57 767.86 267.00 C 769.03 279.16 769.65 291.38 770.61 303.56 C 771.21 309.60 772.41 315.67 771.52 321.75 C 771.29 324.94 770.17 328.36 771.61 331.42 C 772.65 333.99 774.52 336.23 775.07 338.99 C 774.79 343.62 769.25 344.84 767.45 348.56 C 766.53 353.13 768.60 357.96 771.79 361.21 C 774.10 363.62 777.54 364.08 780.67 364.58 C 786.50 365.83 791.95 368.28 797.66 369.94 C 806.04 375.43 814.60 381.86 818.39 391.53 C 823.97 405.18 820.19 420.24 816.93 433.99 C 814.51 445.99 810.40 457.53 807.30 469.35 C 800.51 491.17 791.02 512.00 783.32 533.50 C 781.56 538.55 778.97 543.34 778.03 548.66 C 782.34 549.11 786.67 549.14 791.00 548.98 C 827.55 548.77 864.10 549.15 900.64 548.81 C 905.69 548.99 910.76 549.10 915.81 548.73 C 926.52 549.04 937.27 549.22 947.98 548.71 C 946.63 543.75 944.39 539.11 942.57 534.32 C 940.14 528.39 938.07 522.24 934.59 516.81 C 933.76 512.44 931.26 508.60 929.41 504.62 C 920.06 481.26 906.87 459.45 899.92 435.13 C 892.19 410.57 889.70 384.51 891.89 358.90 C 897.47 312.17 919.67 267.98 952.19 234.18 C 953.94 232.04 956.21 229.98 956.75 227.16 C 955.89 225.46 954.61 224.03 953.39 222.61 C 933.73 200.57 914.93 177.77 895.18 155.83 C 889.41 149.23 884.19 142.11 877.94 135.98 C 876.14 134.00 873.62 135.57 871.53 136.01 L 871.49 136.70 C 871.27 137.09 870.84 137.86 870.63 138.25 C 865.78 139.30 861.50 141.88 857.10 144.03 C 823.74 159.21 786.33 164.16 749.99 160.97 C 741.61 160.04 733.12 159.99 724.86 158.18 C 684.95 152.30 646.45 137.85 611.94 117.06 C 609.09 115.46 605.65 114.18 602.42 115.45 M 83.33 554.33 C 83.29 609.74 83.24 665.16 83.35 720.58 C 116.75 720.54 150.14 720.61 183.54 720.56 C 186.37 702.05 189.49 683.58 192.14 665.04 C 192.27 664.12 192.73 663.41 193.51 662.89 C 193.53 707.17 193.49 751.45 193.53 795.73 C 181.33 799.21 168.82 801.57 156.52 804.70 C 155.48 805.02 155.06 805.80 155.28 807.01 C 155.25 839.74 155.31 872.47 155.25 905.21 C 159.16 905.48 163.08 905.52 167.00 905.46 C 220.00 905.41 273.00 905.49 326.00 905.42 C 337.88 905.16 349.79 905.93 361.65 905.09 C 361.55 871.82 361.62 838.54 361.61 805.26 C 348.86 801.77 335.91 799.02 323.12 795.70 C 322.51 786.48 323.01 777.23 322.85 768.00 C 322.85 737.66 322.86 707.33 322.86 676.99 C 322.86 672.44 322.62 667.86 323.18 663.34 C 323.84 664.95 324.44 666.61 324.71 668.35 C 327.25 685.72 330.17 703.04 332.78 720.40 C 339.51 720.79 346.26 720.48 353.00 720.56 C 379.51 720.50 406.02 720.70 432.52 720.49 C 432.90 699.63 432.36 678.75 432.77 657.89 C 440.97 659.70 449.04 662.06 457.17 664.17 C 457.85 670.09 457.36 676.05 457.47 682.00 C 457.40 719.97 457.63 757.95 457.37 795.91 C 446.10 799.22 434.55 801.56 423.38 805.18 C 423.25 838.51 423.39 871.83 423.30 905.16 C 431.85 905.80 440.43 905.28 449.00 905.44 C 524.35 905.44 599.70 905.42 675.05 905.45 C 677.08 905.54 679.08 904.98 680.60 903.60 C 704.26 883.92 727.91 864.24 751.61 844.61 C 754.31 842.99 753.81 839.71 753.84 837.02 C 753.54 805.14 754.15 773.21 753.57 741.36 C 747.21 734.93 739.65 729.78 732.90 723.77 C 738.80 717.97 746.00 713.62 751.78 707.71 C 752.39 703.83 752.00 699.89 752.07 696.00 C 752.07 670.31 752.05 644.63 752.09 618.94 C 752.07 617.01 752.09 614.83 750.24 613.70 C 727.24 594.39 704.15 575.17 681.20 555.80 C 679.83 554.42 677.89 554.23 676.07 554.27 C 478.49 554.33 280.91 554.21 83.33 554.33 M 758.16 554.30 C 757.66 568.19 758.07 582.10 757.94 596.00 C 758.07 615.67 757.67 635.36 758.14 655.03 C 769.24 658.70 780.76 660.87 791.95 664.21 C 792.58 673.79 792.05 683.40 792.22 693.00 C 792.10 727.29 792.45 761.59 792.05 795.88 C 780.80 799.17 769.30 801.61 758.10 805.07 C 757.95 808.04 757.86 811.02 757.89 814.01 C 758.04 844.43 757.79 874.85 758.04 905.27 C 770.69 905.61 783.34 905.34 796.00 905.44 C 852.00 905.42 908.00 905.44 964.00 905.44 C 1017.02 905.34 1070.06 905.65 1123.08 905.29 C 1123.29 881.86 1123.10 858.43 1123.16 835.00 C 1122.97 825.07 1123.56 815.12 1122.87 805.20 C 1110.57 801.23 1097.86 798.53 1085.64 794.38 C 1082.76 790.43 1080.98 785.80 1078.53 781.60 C 1063.61 753.40 1048.32 725.38 1033.66 697.04 C 1043.29 688.51 1053.48 680.63 1063.23 672.24 C 1065.99 670.01 1068.57 667.16 1072.23 666.50 C 1089.14 663.01 1106.12 659.72 1122.97 655.94 C 1123.43 646.30 1123.03 636.65 1123.16 627.00 C 1123.00 602.78 1123.48 578.54 1122.93 554.33 C 1001.34 554.24 879.75 554.29 758.16 554.30 M 438.12 665.02 C 437.39 684.97 438.31 704.98 437.76 724.94 C 430.92 726.88 423.73 725.30 416.75 726.17 C 410.53 725.52 404.25 725.70 398.02 726.07 C 378.01 725.49 357.99 726.01 337.98 725.73 C 334.75 725.64 331.52 725.83 328.32 726.17 C 327.95 738.44 328.28 750.72 328.17 763.00 C 328.29 772.53 327.91 782.07 328.41 791.60 C 341.15 794.98 354.12 797.52 366.79 801.18 C 367.13 832.45 366.78 863.73 366.96 895.00 C 367.12 900.16 367.44 905.35 366.55 910.48 C 358.65 911.12 350.72 910.19 342.84 911.11 C 344.34 912.61 345.87 914.10 347.60 915.37 C 365.02 927.31 382.89 938.63 401.64 948.39 C 426.35 961.39 451.63 973.26 476.85 985.23 C 499.34 996.50 522.17 1007.21 543.68 1020.32 C 550.58 1024.79 557.90 1028.62 564.53 1033.51 C 566.53 1034.89 568.65 1036.72 571.28 1036.16 C 574.13 1039.58 577.82 1042.19 581.77 1044.21 C 583.48 1046.26 585.94 1047.44 588.14 1048.90 C 594.49 1052.76 600.26 1057.55 606.94 1060.86 C 615.19 1054.81 623.32 1048.62 631.55 1042.56 C 644.58 1033.81 657.58 1025.00 671.22 1017.22 C 674.41 1015.96 674.29 1012.30 674.55 1009.43 C 674.97 1001.94 675.74 994.48 676.31 987.00 C 678.77 961.78 680.34 936.46 680.79 911.12 C 674.21 910.37 667.59 910.73 661.00 910.68 C 644.98 910.65 628.97 910.75 612.96 910.60 C 610.42 910.46 607.68 910.93 606.26 913.28 C 597.97 924.67 590.09 936.38 581.80 947.77 C 577.21 954.11 573.24 961.11 566.99 966.02 C 562.77 969.23 558.47 972.65 553.24 974.04 C 550.85 970.26 552.06 965.66 552.83 961.59 C 555.29 950.32 562.13 940.83 568.42 931.41 C 572.91 924.63 578.44 918.49 581.92 911.08 C 578.95 910.82 575.97 910.67 573.00 910.67 C 552.33 910.68 531.67 910.67 511.00 910.67 C 503.97 910.71 496.92 910.41 489.93 911.27 L 489.60 910.65 C 479.72 910.54 469.89 911.87 460.00 911.39 C 446.04 911.32 432.08 911.52 418.12 911.35 C 418.19 874.39 417.81 837.41 418.33 800.46 C 420.05 800.14 421.76 799.77 423.49 799.48 C 427.95 798.23 432.45 797.12 436.91 795.87 C 441.97 794.81 446.98 793.49 451.85 791.73 C 452.82 784.19 452.14 776.57 452.32 769.00 C 452.31 740.67 452.33 712.33 452.32 684.00 C 452.29 678.76 452.70 673.48 451.90 668.27 C 447.46 666.62 442.85 665.44 438.12 665.02 M 1040.27 698.40 C 1043.24 704.14 1046.04 710.01 1049.63 715.40 C 1049.84 707.24 1049.79 699.07 1049.48 690.92 C 1046.17 693.10 1043.15 695.69 1040.27 698.40 M 156.32 726.15 C 158.07 749.73 162.01 773.16 168.50 795.91 C 175.16 795.42 181.54 793.25 188.02 791.80 C 188.51 784.54 188.11 777.26 188.23 770.00 C 188.15 755.30 188.39 740.60 188.12 725.90 C 177.52 725.90 166.90 725.47 156.32 726.15 M 800.21 911.32 C 792.04 910.35 783.70 910.23 775.55 911.38 C 775.06 915.13 774.66 918.90 774.50 922.69 C 774.14 926.73 773.60 930.75 773.35 934.81 C 777.35 933.22 781.59 932.48 785.74 931.41 C 791.91 935.01 798.17 938.61 803.10 943.89 C 805.36 945.75 808.05 949.66 811.26 947.25 C 826.71 938.66 841.94 929.59 856.45 919.48 C 859.49 917.44 862.99 915.65 864.56 912.13 C 865.41 912.11 866.25 911.97 867.11 911.87 C 857.09 911.05 847.04 911.48 837.01 911.40 C 829.99 911.50 823.02 910.30 816.00 910.67 C 810.75 911.00 805.32 909.90 800.21 911.32 M 231.84 910.86 C 233.53 912.94 235.29 914.96 237.10 916.93 C 277.26 960.91 327.15 995.07 380.01 1022.00 C 401.43 1033.11 423.80 1042.21 445.60 1052.53 C 477.54 1067.88 508.57 1085.23 537.93 1105.12 C 552.93 1115.53 565.06 1129.35 577.09 1142.94 C 582.06 1148.27 586.58 1154.43 593.33 1157.67 C 599.52 1160.89 607.29 1160.84 613.39 1157.39 C 619.16 1154.42 623.33 1149.31 627.61 1144.59 C 638.82 1132.18 649.76 1119.31 663.18 1109.19 C 694.46 1085.26 729.19 1066.21 765.05 1050.10 C 798.59 1035.60 831.70 1019.92 863.06 1001.09 C 898.01 980.19 931.06 955.72 959.53 926.51 C 964.29 921.43 969.36 916.58 973.43 910.90 C 950.29 910.47 927.14 910.89 904.00 910.69 C 901.09 910.74 897.78 910.30 895.50 912.52 C 860.02 941.86 819.55 964.48 778.02 984.03 C 759.43 992.87 740.35 1000.69 721.94 1009.92 C 686.74 1027.24 652.87 1047.60 622.45 1072.46 C 616.27 1077.10 611.39 1083.11 606.02 1088.60 C 592.89 1076.73 579.38 1065.25 564.84 1055.13 C 531.76 1031.65 495.49 1013.15 458.76 996.13 C 437.75 986.26 416.34 977.19 395.90 966.16 C 367.09 951.04 339.52 933.37 314.50 912.53 C 312.23 910.26 308.90 910.72 306.00 910.68 C 281.28 910.88 256.56 910.51 231.84 910.86 Z" />
<path fill="#000000" opacity="1.00" d=" M 93.17 564.18 C 203.03 564.11 312.89 564.06 422.74 564.20 C 422.83 613.02 422.83 661.85 422.74 710.68 C 395.60 710.72 368.46 710.78 341.32 710.65 C 338.17 691.80 335.28 672.91 332.45 654.01 C 326.05 653.17 319.57 653.61 313.15 653.76 C 313.23 703.67 312.96 753.60 313.28 803.51 C 326.11 806.62 339.03 809.46 351.73 813.06 C 351.70 840.58 351.75 868.10 351.71 895.61 C 289.54 895.63 227.38 895.57 165.22 895.65 C 165.00 868.11 165.19 840.56 165.13 813.02 C 177.62 809.33 190.49 807.09 203.08 803.76 C 203.66 788.52 203.15 773.25 203.32 758.00 C 203.25 723.25 203.47 688.49 203.21 653.75 C 196.85 653.50 190.48 653.44 184.13 653.79 C 180.79 672.70 178.57 691.80 174.89 710.64 C 147.66 710.78 120.42 710.72 93.19 710.67 C 93.08 661.84 93.12 613.01 93.17 564.18 M 109.83 580.80 C 109.52 593.86 109.80 606.93 109.70 620.00 C 109.80 644.68 109.52 669.37 109.84 694.05 C 126.83 694.11 143.86 694.44 160.84 693.90 C 164.09 675.00 166.66 656.00 169.98 637.12 C 186.60 636.74 203.24 636.80 219.85 637.08 C 219.93 697.00 220.02 756.93 219.81 816.85 C 207.24 820.26 194.43 822.73 181.84 826.07 C 181.59 843.65 181.61 861.24 181.84 878.82 C 232.89 878.99 283.94 878.95 334.98 878.84 C 335.39 867.90 335.05 856.95 335.16 846.00 C 335.01 839.23 335.55 832.43 334.78 825.69 C 321.96 822.83 309.25 819.51 296.47 816.48 C 296.31 756.71 296.52 696.93 296.36 637.16 C 305.57 636.60 314.79 637.03 324.00 636.90 C 331.53 637.04 339.08 636.56 346.59 637.21 C 349.46 656.10 352.54 674.97 355.42 693.86 C 362.60 694.46 369.81 694.03 377.00 694.15 C 386.71 694.06 396.41 694.34 406.12 694.02 C 406.34 656.29 406.29 618.54 406.15 580.81 C 360.43 580.61 314.71 580.78 269.00 580.72 C 215.94 580.78 162.89 580.62 109.83 580.80 Z" />
<path fill="#000000" opacity="1.00" d=" M 433.26 564.20 C 512.86 564.00 592.47 564.22 672.07 564.09 C 674.22 563.98 676.43 564.36 678.02 565.95 C 694.86 580.11 711.69 594.28 728.57 608.40 C 732.94 612.43 738.14 615.60 741.98 620.16 C 742.65 626.41 742.07 632.72 742.25 639.00 C 742.10 660.28 742.55 681.60 742.03 702.86 C 734.53 710.50 725.17 716.18 717.58 723.78 C 725.76 730.82 734.25 737.51 742.50 744.47 C 744.01 745.44 743.90 747.33 743.96 748.92 C 743.89 777.97 743.97 807.02 743.92 836.06 C 744.15 837.69 743.13 838.98 741.93 839.93 C 719.98 857.96 698.22 876.22 676.37 894.35 C 675.17 895.41 673.57 895.67 672.03 895.64 C 592.44 895.59 512.85 895.60 433.27 895.63 C 433.20 867.90 433.09 840.17 433.32 812.44 C 444.63 809.22 456.21 806.92 467.34 803.14 C 467.36 754.39 467.37 705.64 467.34 656.89 C 456.15 653.28 444.61 650.87 433.30 647.69 C 433.12 619.86 433.19 592.03 433.26 564.20 M 449.85 580.81 C 449.77 598.79 449.54 616.79 449.97 634.77 C 461.20 638.19 472.77 640.39 483.93 644.01 C 484.08 647.66 484.11 651.33 484.07 655.00 C 483.99 708.69 484.15 762.39 483.99 816.08 C 472.84 819.64 461.35 822.03 450.10 825.28 C 449.39 831.16 449.88 837.09 449.76 843.00 C 449.84 854.95 449.58 866.91 449.89 878.87 C 521.61 879.00 593.34 878.84 665.06 878.95 C 666.97 878.94 669.06 878.91 670.55 877.50 C 688.60 862.59 706.51 847.50 724.60 832.64 C 725.92 831.40 727.62 830.08 727.33 828.05 C 727.36 804.02 727.36 779.97 727.34 755.94 C 727.61 753.90 726.02 752.51 724.66 751.31 C 713.53 742.09 702.33 732.95 691.27 723.65 C 702.33 713.86 714.08 704.86 725.45 695.44 C 725.74 675.30 725.42 655.15 725.60 635.01 C 725.55 632.55 725.81 630.05 725.30 627.64 C 723.49 625.47 721.10 623.88 718.97 622.06 C 703.34 609.02 687.77 595.92 672.20 582.81 C 670.52 581.26 668.34 580.48 666.07 580.69 C 594.00 580.83 521.92 580.59 449.85 580.81 Z" />
<path fill="#000000" opacity="1.00" d=" M 767.94 564.17 C 812.63 564.06 857.31 564.16 902.00 564.13 C 913.52 564.23 925.05 563.92 936.58 564.26 C 936.45 591.71 936.56 619.16 936.52 646.61 C 929.46 650.04 921.94 652.44 914.94 656.03 C 914.81 668.34 914.81 680.65 914.96 692.97 C 930.43 679.72 945.67 666.20 961.07 652.87 C 956.25 650.65 951.16 649.07 946.41 646.68 C 946.36 619.21 946.43 591.73 946.37 564.25 C 1001.97 563.99 1057.57 564.14 1113.17 564.18 C 1113.44 592.09 1113.35 620.02 1113.22 647.94 C 1100.02 650.89 1086.75 653.48 1073.51 656.22 C 1069.62 657.07 1065.29 657.39 1062.25 660.25 C 1049.21 671.25 1036.01 682.05 1022.93 692.99 C 1021.95 693.75 1020.81 694.92 1021.88 696.14 C 1039.00 728.33 1056.14 760.51 1073.30 792.68 C 1075.08 795.92 1076.48 799.41 1078.70 802.40 C 1082.69 804.54 1087.32 805.08 1091.60 806.47 C 1098.30 808.54 1105.14 810.14 1111.83 812.24 C 1113.61 812.52 1113.16 814.65 1113.33 815.94 C 1113.30 834.63 1113.31 853.31 1113.31 872.00 C 1113.16 879.88 1113.66 887.77 1113.04 895.64 C 1057.71 895.60 1002.38 895.59 947.05 895.64 C 946.46 871.11 947.04 846.55 946.77 822.00 C 946.72 819.08 946.83 816.17 947.06 813.26 C 953.09 810.55 959.36 808.43 965.43 805.80 C 962.39 798.72 958.09 792.27 954.50 785.46 C 949.60 777.02 945.24 768.26 940.08 759.98 C 932.70 765.94 925.51 772.15 918.19 778.19 C 916.80 779.52 914.68 780.74 914.93 782.97 C 914.90 790.13 914.49 797.35 915.27 804.49 C 922.21 807.31 929.31 809.76 936.11 812.92 C 937.76 813.52 937.23 815.58 937.43 816.94 C 937.38 834.63 937.41 852.31 937.40 870.00 C 937.21 878.54 937.81 887.11 937.10 895.64 C 880.76 895.59 824.42 895.61 768.08 895.63 C 767.40 880.10 767.97 864.54 767.79 849.00 C 768.04 836.81 767.27 824.58 768.17 812.43 C 779.34 809.41 790.55 806.50 801.75 803.58 C 802.18 768.06 801.81 732.52 801.93 697.00 C 801.75 683.51 802.27 670.00 801.75 656.52 C 790.51 653.58 779.26 650.74 768.04 647.74 C 767.43 623.51 767.98 599.24 767.77 575.00 C 767.72 571.38 767.76 567.77 767.94 564.17 M 784.40 581.00 C 784.52 598.88 784.41 616.77 784.45 634.65 C 795.68 638.06 807.16 640.59 818.46 643.74 C 818.92 667.82 818.52 691.92 818.66 716.00 C 818.55 749.45 818.87 782.91 818.50 816.35 C 807.17 819.45 795.76 822.23 784.47 825.46 C 784.40 843.23 784.52 861.00 784.40 878.77 C 800.93 879.11 817.47 878.81 834.00 878.91 C 862.90 878.83 891.81 879.07 920.71 878.80 C 920.64 860.68 920.86 842.56 920.60 824.45 C 913.19 821.50 905.75 818.67 898.40 815.60 C 898.13 803.05 898.43 790.50 898.25 777.96 C 898.34 775.83 897.81 773.22 899.89 771.86 C 908.70 764.35 917.67 757.00 926.53 749.53 C 932.79 744.48 938.62 738.87 945.20 734.24 C 959.61 761.00 974.92 787.27 989.34 814.02 C 980.94 818.11 971.86 820.62 963.54 824.87 C 963.61 842.86 963.30 860.86 963.70 878.85 C 1008.01 878.90 1052.33 879.07 1096.64 878.77 C 1096.59 860.95 1096.66 843.14 1096.60 825.33 C 1087.02 821.96 1076.78 820.47 1067.44 816.56 C 1063.46 810.68 1060.71 804.05 1057.17 797.90 C 1038.21 762.03 1018.82 726.37 1000.10 690.38 C 1016.47 676.63 1032.97 663.04 1049.39 649.35 C 1053.01 646.51 1056.16 642.47 1060.99 641.76 C 1072.86 639.36 1084.73 636.94 1096.59 634.48 C 1096.69 616.66 1096.56 598.84 1096.65 581.03 C 1083.79 580.31 1070.88 580.93 1058.00 580.72 C 1026.37 580.80 994.74 580.58 963.12 580.83 C 963.12 599.12 962.98 617.41 963.19 635.70 C 972.77 639.82 982.54 643.47 992.16 647.48 C 985.73 653.97 978.50 659.61 971.69 665.71 C 953.37 681.72 935.01 697.68 916.66 713.67 C 910.51 718.84 904.79 724.55 898.31 729.31 C 898.25 702.52 898.38 675.73 898.24 648.94 C 898.30 647.51 898.17 646.03 898.70 644.69 C 905.52 641.30 912.79 638.88 919.71 635.69 C 920.00 617.42 919.75 599.14 919.83 580.87 C 888.22 580.52 856.61 580.83 825.00 580.72 C 811.47 580.92 797.91 580.34 784.40 581.00 Z" />
<path fill="#000000" opacity="1.00" d=" M 560.43 641.46 C 584.30 641.41 608.17 641.47 632.04 641.43 C 635.41 641.21 637.53 644.27 639.94 646.11 C 643.27 649.20 647.16 651.70 650.15 655.16 C 650.85 662.07 650.21 669.06 650.42 676.00 C 650.21 681.58 650.95 687.26 650.05 692.79 C 645.83 696.99 640.97 700.53 636.49 704.45 C 633.95 706.96 630.21 706.19 627.00 706.32 C 604.80 706.03 582.58 706.68 560.40 706.00 C 560.50 684.49 560.43 662.97 560.43 641.46 M 577.19 658.20 C 577.17 668.67 577.07 679.15 577.26 689.62 C 593.20 689.57 609.14 689.56 625.08 689.62 C 629.60 689.99 634.53 685.82 633.77 681.08 C 633.55 674.90 634.21 668.66 633.42 662.54 C 631.30 660.15 628.51 657.72 625.07 658.13 C 609.11 658.23 593.15 658.08 577.19 658.20 Z" />
<path fill="#000000" opacity="1.00" d=" M 924.66 662.53 C 930.43 659.94 936.17 657.08 942.35 655.61 C 936.88 661.24 930.90 666.45 924.60 671.14 C 924.59 668.26 924.62 665.39 924.66 662.53 Z" />
<path fill="#000000" opacity="1.00" d=" M 587.07 668.07 C 599.32 667.77 611.59 667.81 623.85 668.03 C 623.99 671.92 623.99 675.81 623.83 679.71 C 611.57 679.78 599.31 679.75 587.06 679.72 C 586.73 675.84 586.75 671.94 587.07 668.07 M 598.97 673.26 C 599.12 673.57 599.44 674.19 599.59 674.50 C 605.84 674.75 612.14 674.76 618.40 674.51 C 618.55 674.19 618.87 673.57 619.03 673.25 C 612.34 673.00 605.65 673.01 598.97 673.26 Z" />
<path fill="#000000" opacity="1.00" d=" M 560.54 745.26 C 560.91 745.09 561.66 744.73 562.03 744.55 C 584.69 744.38 607.36 744.61 630.02 744.45 C 636.82 743.34 640.86 749.80 645.80 753.22 C 648.09 755.40 651.93 757.19 651.36 760.94 C 651.33 774.64 651.37 788.34 651.35 802.04 C 651.72 804.90 648.86 806.39 647.05 808.03 C 643.04 810.99 639.38 814.41 635.30 817.28 C 633.79 818.43 631.81 818.22 630.05 818.32 C 612.36 818.23 594.68 818.29 577.00 818.27 C 571.47 818.23 565.92 818.52 560.40 817.99 C 560.58 793.75 560.28 769.49 560.54 745.26 M 577.18 761.20 C 577.18 774.67 577.09 788.15 577.24 801.62 C 593.51 801.56 609.77 801.64 626.04 801.59 C 629.09 801.74 631.37 799.37 633.48 797.50 C 635.14 796.21 634.50 793.87 634.72 792.07 C 634.51 783.48 634.94 774.87 634.53 766.29 C 632.97 762.90 628.85 760.64 625.07 761.12 C 609.10 761.26 593.14 761.06 577.18 761.20 Z" />
<path fill="#000000" opacity="1.00" d=" M 587.05 771.08 C 599.62 770.77 612.22 770.76 624.78 771.12 C 624.88 777.98 624.87 784.85 624.78 791.72 C 612.20 791.80 599.62 791.76 587.04 791.74 C 586.76 784.85 586.76 777.96 587.05 771.08 M 592.27 776.27 C 592.02 779.72 592.02 783.19 592.30 786.65 C 601.34 786.54 610.40 786.93 619.43 786.45 C 619.83 783.08 619.93 779.68 619.73 776.29 C 610.58 776.13 601.42 776.11 592.27 776.27 Z" />
<path fill="#000000" opacity="1.00" d=" M 924.95 786.13 C 928.27 781.73 933.15 778.77 937.21 775.08 C 942.41 783.42 946.96 792.16 951.71 800.77 C 949.05 801.89 946.41 803.10 943.64 803.92 C 941.44 804.80 939.30 803.35 937.26 802.70 C 933.28 800.95 929.07 799.72 925.27 797.60 C 924.09 793.98 924.64 789.89 924.95 786.13 M 930.44 788.41 C 929.94 790.13 930.18 791.97 930.13 793.76 C 934.40 796.35 939.19 797.91 944.09 798.78 C 942.22 793.19 939.26 787.72 935.14 783.51 C 933.46 785.00 931.34 786.24 930.44 788.41 Z" />
</g>
<g id="#00468eff">
<path fill="#00468e" opacity="1.00" d=" M 602.42 115.45 C 605.65 114.18 609.09 115.46 611.94 117.06 C 646.45 137.85 684.95 152.30 724.86 158.18 C 733.12 159.99 741.61 160.04 749.99 160.97 C 786.33 164.16 823.74 159.21 857.10 144.03 C 861.50 141.88 865.78 139.30 870.63 138.25 C 863.96 168.68 855.46 198.72 845.13 228.12 C 842.86 234.59 840.82 241.15 837.89 247.36 C 832.49 242.69 827.84 237.24 822.50 232.51 C 797.01 209.75 767.61 191.70 736.75 177.21 C 700.00 160.08 661.05 147.95 621.41 139.63 C 605.53 136.22 589.46 133.76 573.42 131.25 C 577.19 127.38 582.41 125.62 587.02 123.02 C 592.15 120.51 597.04 117.43 602.42 115.45 Z" />
<path fill="#00468e" opacity="1.00" d=" M 313.55 157.55 C 320.38 149.90 326.67 141.74 334.01 134.58 C 343.55 138.75 352.43 144.36 362.37 147.66 C 381.32 155.36 401.58 159.41 421.95 160.85 C 455.76 163.04 490.11 159.96 522.50 149.72 C 531.64 146.91 540.87 144.35 549.71 140.67 C 555.01 138.68 560.32 135.21 566.23 136.74 C 616.39 144.36 665.99 157.12 712.56 177.45 C 744.18 191.37 774.52 208.69 801.13 230.84 C 812.36 240.27 823.28 250.33 832.02 262.16 C 830.70 266.27 829.05 270.26 827.24 274.18 C 818.84 293.93 809.44 313.25 799.19 332.11 C 793.29 343.09 786.76 353.71 780.67 364.58 C 777.54 364.08 774.10 363.62 771.79 361.21 C 768.60 357.96 766.53 353.13 767.45 348.56 C 769.25 344.84 774.79 343.62 775.07 338.99 C 774.52 336.23 772.65 333.99 771.61 331.42 C 770.17 328.36 771.29 324.94 771.52 321.75 C 772.41 315.67 771.21 309.60 770.61 303.56 C 769.65 291.38 769.03 279.16 767.86 267.00 C 764.35 243.57 751.65 222.44 735.68 205.34 C 733.71 202.94 730.24 201.94 727.43 203.45 C 715.26 209.47 707.20 221.03 700.37 232.35 C 695.79 240.05 691.63 248.05 688.42 256.42 C 683.78 269.20 686.76 282.93 685.07 296.12 C 684.26 300.99 687.65 305.15 687.91 309.91 C 688.55 318.45 686.61 327.09 688.30 335.58 C 691.76 336.83 695.50 337.47 698.72 339.30 C 700.11 341.33 700.78 343.77 702.22 345.78 C 703.78 347.07 705.68 347.84 707.46 348.77 C 708.13 355.12 707.82 361.54 707.55 367.91 C 707.40 371.92 705.60 375.57 703.46 378.88 C 672.01 358.30 637.73 342.33 602.43 329.57 C 520.40 300.16 432.22 290.61 345.48 294.67 C 330.88 295.87 316.16 295.99 301.71 298.49 C 298.89 293.44 296.76 288.05 293.92 283.02 C 284.17 266.32 273.58 249.89 259.86 236.13 C 257.29 233.69 254.98 230.98 253.10 227.97 C 255.76 223.78 259.33 220.32 262.53 216.56 C 279.55 196.90 296.57 177.24 313.55 157.55 Z" />
<path fill="#00468e" opacity="1.00" d=" M 871.53 136.01 C 873.62 135.57 876.14 134.00 877.94 135.98 C 884.19 142.11 889.41 149.23 895.18 155.83 C 914.93 177.77 933.73 200.57 953.39 222.61 C 954.61 224.03 955.89 225.46 956.75 227.16 C 956.21 229.98 953.94 232.04 952.19 234.18 C 919.67 267.98 897.47 312.17 891.89 358.90 C 889.70 384.51 892.19 410.57 899.92 435.13 C 906.87 459.45 920.06 481.26 929.41 504.62 C 922.75 514.31 917.10 524.65 910.31 534.26 C 907.05 539.09 903.80 543.92 900.64 548.81 C 864.10 549.15 827.55 548.77 791.00 548.98 C 786.67 549.14 782.34 549.11 778.03 548.66 C 778.97 543.34 781.56 538.55 783.32 533.50 C 791.02 512.00 800.51 491.17 807.30 469.35 C 810.40 457.53 814.51 445.99 816.93 433.99 C 820.19 420.24 823.97 405.18 818.39 391.53 C 814.60 381.86 806.04 375.43 797.66 369.94 C 801.56 361.52 805.93 353.34 809.81 344.91 C 837.22 286.81 856.25 224.90 867.70 161.74 C 869.19 153.43 870.99 145.14 871.49 136.70 L 871.53 136.01 Z" />
<path fill="#00468e" opacity="1.00" d=" M 305.16 304.79 C 337.44 303.15 369.81 303.15 402.07 305.26 C 485.93 310.89 569.68 331.06 644.07 370.89 C 657.72 377.95 670.55 386.41 683.67 394.37 C 670.94 407.58 659.62 422.49 652.69 439.60 C 648.37 450.08 646.38 461.37 645.53 472.63 C 645.34 475.14 644.65 477.57 643.94 479.98 C 638.63 480.53 633.26 480.68 627.95 480.20 C 624.30 479.98 621.41 477.48 618.78 475.22 C 617.48 473.98 615.59 472.45 616.45 470.43 C 618.71 467.08 622.35 464.82 624.18 461.14 C 628.28 453.79 627.37 445.08 627.42 436.99 C 627.53 431.64 625.15 426.40 621.00 423.02 C 616.44 419.23 612.81 414.54 608.74 410.26 C 606.74 408.17 604.73 405.47 605.41 402.39 C 606.91 397.95 612.92 396.04 613.08 391.00 C 613.27 387.63 609.75 386.22 607.71 384.22 C 605.02 382.20 605.18 378.29 602.98 375.96 C 599.98 374.30 596.21 373.82 592.93 374.80 C 590.66 376.36 590.88 379.59 589.94 381.94 C 589.04 386.42 583.52 387.86 582.26 392.13 C 581.83 396.72 586.60 398.98 588.67 402.44 C 590.33 406.11 586.50 408.92 584.53 411.50 C 580.28 416.93 573.99 420.49 570.48 426.53 C 563.67 437.14 564.34 451.23 569.88 462.24 C 570.88 464.52 572.50 466.97 571.68 469.58 C 569.23 472.22 565.48 473.34 563.35 476.30 C 562.95 481.20 569.09 481.19 572.40 482.51 C 573.83 492.65 575.62 502.79 575.86 513.05 C 576.17 517.35 572.38 520.27 571.20 524.12 C 570.80 527.26 574.00 529.30 576.53 530.31 C 586.68 533.62 597.51 533.21 608.04 533.08 C 610.86 532.85 614.54 533.02 616.14 530.16 C 617.43 526.36 614.70 522.02 616.21 518.33 C 618.91 516.54 622.77 515.27 625.66 517.39 C 629.48 519.90 633.81 521.40 638.24 522.43 C 629.20 529.48 619.60 535.75 610.03 542.03 C 607.50 543.59 605.01 545.46 602.05 546.04 C 597.49 544.61 593.59 541.72 589.31 539.69 C 559.02 524.71 526.55 514.56 493.59 507.42 C 445.15 497.24 395.40 494.03 346.00 496.01 C 324.67 496.73 303.44 499.03 282.22 501.18 C 283.89 495.58 286.71 490.45 289.23 485.21 C 295.18 472.36 301.73 459.74 306.33 446.32 C 309.90 437.39 312.36 428.08 314.65 418.76 C 317.56 405.03 318.68 390.99 319.41 377.01 C 318.40 360.41 317.19 343.65 312.27 327.67 C 310.33 319.90 306.80 312.63 305.16 304.79 Z" />
<path fill="#00468e" opacity="1.00" d=" M 297.02 514.67 C 318.41 513.98 339.83 513.84 361.21 514.77 C 368.94 515.56 376.82 515.04 384.43 516.81 C 382.84 527.46 381.22 538.12 380.56 548.88 C 357.38 549.03 334.19 548.88 311.00 548.93 C 294.66 548.75 278.31 549.30 261.98 548.66 C 263.62 541.95 266.84 535.79 269.45 529.44 C 271.55 524.79 273.15 519.92 275.60 515.43 C 282.75 515.58 289.88 514.83 297.02 514.67 Z" />
<path fill="#00468e" opacity="1.00" d=" M 915.81 548.73 C 922.00 538.05 928.67 527.65 934.59 516.81 C 938.07 522.24 940.14 528.39 942.57 534.32 C 944.39 539.11 946.63 543.75 947.98 548.71 C 937.27 549.22 926.52 549.04 915.81 548.73 Z" />
<path fill="#00468e" opacity="1.00" d=" M 411.44 519.34 C 434.31 522.14 456.97 526.71 479.23 532.65 C 494.87 536.91 510.50 541.47 525.41 547.89 C 518.81 550.14 511.80 548.98 505.00 548.96 C 472.01 548.84 439.02 549.10 406.04 548.75 C 407.44 538.88 408.82 528.97 411.44 519.34 Z" />
<path fill="#00468e" opacity="1.00" d=" M 438.12 665.02 C 442.85 665.44 447.46 666.62 451.90 668.27 C 452.70 673.48 452.29 678.76 452.32 684.00 C 452.33 712.33 452.31 740.67 452.32 769.00 C 452.14 776.57 452.82 784.19 451.85 791.73 C 446.98 793.49 441.97 794.81 436.91 795.87 C 428.88 773.05 421.85 749.83 416.75 726.17 C 423.73 725.30 430.92 726.88 437.76 724.94 C 438.31 704.98 437.39 684.97 438.12 665.02 Z" />
<path fill="#00468e" opacity="1.00" d=" M 328.32 726.17 C 331.52 725.83 334.75 725.64 337.98 725.73 C 357.99 726.01 378.01 725.49 398.02 726.07 C 403.25 744.70 408.76 763.27 415.61 781.37 C 418.05 787.48 419.35 794.20 423.49 799.48 C 421.76 799.77 420.05 800.14 418.33 800.46 C 417.81 837.41 418.19 874.39 418.12 911.35 C 425.07 911.97 432.04 911.42 439.00 911.55 C 452.30 911.64 465.61 911.42 478.92 911.58 C 490.49 929.98 502.44 948.17 515.28 965.73 C 522.55 976.34 530.79 986.23 538.52 996.50 C 549.01 1010.07 560.43 1022.89 571.28 1036.16 C 568.65 1036.72 566.53 1034.89 564.53 1033.51 C 557.90 1028.62 550.58 1024.79 543.68 1020.32 C 522.17 1007.21 499.34 996.50 476.85 985.23 C 451.63 973.26 426.35 961.39 401.64 948.39 C 382.89 938.63 365.02 927.31 347.60 915.37 C 345.87 914.10 344.34 912.61 342.84 911.11 C 350.72 910.19 358.65 911.12 366.55 910.48 C 367.44 905.35 367.12 900.16 366.96 895.00 C 366.78 863.73 367.13 832.45 366.79 801.18 C 354.12 797.52 341.15 794.98 328.41 791.60 C 327.91 782.07 328.29 772.53 328.17 763.00 C 328.28 750.72 327.95 738.44 328.32 726.17 Z" />
<path fill="#00468e" opacity="1.00" d=" M 592.27 776.27 C 601.42 776.11 610.58 776.13 619.73 776.29 C 619.93 779.68 619.83 783.08 619.43 786.45 C 610.40 786.93 601.34 786.54 592.30 786.65 C 592.02 783.19 592.02 779.72 592.27 776.27 Z" />
<path fill="#00468e" opacity="1.00" d=" M 930.44 788.41 C 931.34 786.24 933.46 785.00 935.14 783.51 C 939.26 787.72 942.22 793.19 944.09 798.78 C 939.19 797.91 934.40 796.35 930.13 793.76 C 930.18 791.97 929.94 790.13 930.44 788.41 Z" />
<path fill="#00468e" opacity="1.00" d=" M 489.93 911.27 C 496.92 910.41 503.97 910.71 511.00 910.67 C 531.67 910.67 552.33 910.68 573.00 910.67 C 575.97 910.67 578.95 910.82 581.92 911.08 C 578.44 918.49 572.91 924.63 568.42 931.41 C 562.13 940.83 555.29 950.32 552.83 961.59 C 552.06 965.66 550.85 970.26 553.24 974.04 C 558.47 972.65 562.77 969.23 566.99 966.02 C 573.24 961.11 577.21 954.11 581.80 947.77 C 590.09 936.38 597.97 924.67 606.26 913.28 C 607.68 910.93 610.42 910.46 612.96 910.60 C 628.97 910.75 644.98 910.65 661.00 910.68 C 667.59 910.73 674.21 910.37 680.79 911.12 C 680.34 936.46 678.77 961.78 676.31 987.00 C 675.74 994.48 674.97 1001.94 674.55 1009.43 C 674.29 1012.30 674.41 1015.96 671.22 1017.22 C 657.58 1025.00 644.58 1033.81 631.55 1042.56 C 623.32 1048.62 615.19 1054.81 606.94 1060.86 C 600.26 1057.55 594.49 1052.76 588.14 1048.90 C 585.94 1047.44 583.48 1046.26 581.77 1044.21 C 576.67 1037.06 570.70 1030.59 565.46 1023.55 C 537.64 988.00 511.97 950.68 489.93 911.27 Z" />
<path fill="#00468e" opacity="1.00" d=" M 775.55 911.38 C 783.70 910.23 792.04 910.35 800.21 911.32 C 791.90 915.72 782.75 918.20 774.50 922.69 C 774.66 918.90 775.06 915.13 775.55 911.38 Z" />
<path fill="#00468e" opacity="1.00" d=" M 820.56 914.51 C 823.73 912.68 827.22 911.11 830.98 911.41 C 842.17 911.86 853.40 910.97 864.56 912.13 C 862.99 915.65 859.49 917.44 856.45 919.48 C 841.94 929.59 826.71 938.66 811.26 947.25 C 808.05 949.66 805.36 945.75 803.10 943.89 C 798.17 938.61 791.91 935.01 785.74 931.41 C 797.68 926.51 809.31 920.85 820.56 914.51 Z" />
</g>
</svg>
