<?xml version="1.0" encoding="UTF-8"?>
<svg width="256px" height="256px" viewBox="0 0 256 256" version="1.1" xmlns="http://www.w3.org/2000/svg" xmlns:xlink="http://www.w3.org/1999/xlink">
    <!-- Generator: Sketch 50.2 (55047) - http://www.bohemiancoding.com/sketch -->
    <title>logo/tbk</title>
    <desc>Created with Sketch.</desc>
    <defs></defs>
    <g id="logo/tbk" stroke="none" stroke-width="1" fill="none" fill-rule="evenodd">
        <g id="tbk" transform="translate(9.000000, 0.000000)" fill-rule="nonzero">
            <g id="#ffffffff" transform="translate(1.351711, 1.354497)" fill="#FFFFFF">
                <path d="M115.828118,0.264126984 C117.540285,-0.207689594 119.414658,0.221234568 120.827196,1.27548501 C124.105095,3.66843034 127.551958,5.84691358 131.215095,7.60550265 C135.044943,9.47696649 139.131616,10.7840564 143.283622,11.7299471 C148.647662,12.9489947 154.236987,13.3846914 159.695646,12.5742504 C162.619848,12.1611287 165.51251,11.3868078 168.137082,10.002963 C170.763907,8.66878307 173.187975,6.98017637 175.591768,5.28705467 C177.038099,4.2982716 178.639876,3.26885362 180.460181,3.31626102 C182.203888,3.41559083 183.587139,4.6617284 184.700048,5.89883598 C194.502205,17.2201764 204.30211,28.5437743 214.09751,39.8696296 C215.311797,41.2557319 216.490038,42.8246914 216.782909,44.6916402 C217.035228,46.2312522 216.29404,47.7640917 215.178878,48.7935097 C211.222871,52.4122751 206.79827,55.6111464 203.547405,59.9342504 C198.595637,66.5329101 196.514002,75.2174956 197.998631,83.3467372 C198.525798,86.265679 199.490019,89.107866 200.866511,91.7355908 C204.804496,99.3501235 208.321198,107.201693 211.083194,115.324162 C207.199278,115.351252 203.313108,115.360282 199.429192,115.31739 C197.372338,109.912945 195.103717,104.589771 192.569259,99.3907584 C191.643337,97.3973898 190.620542,95.4536861 189.683356,93.4670899 C186.051759,85.5410229 185.409696,76.4207407 187.232253,67.9438448 C188.888099,60.1961199 193.015323,53.0917813 198.58212,47.5089947 C199.958612,46.075485 201.459011,44.7661376 202.817481,43.3123104 C200.947614,40.9058201 198.832186,38.7002469 196.881217,36.359224 C191.071112,29.6747795 185.303812,22.9542152 179.491454,16.2720282 C177.306188,17.7100529 175.111911,19.1616226 172.708118,20.215873 C168.276759,22.2589065 163.464667,23.4057143 158.607519,23.7601411 C144.98903,24.584127 131.221854,20.7757319 119.76385,13.4027513 C119.083489,12.9964021 118.418897,12.4410582 117.598859,12.3823633 C116.731511,12.4839506 116.053403,13.0889594 115.339249,13.5336861 C107.488061,18.5498413 98.5622624,21.8390123 89.3571103,23.2047972 C82.7540019,24.1980952 75.9211027,24.2409877 69.4238783,22.5591534 C65.7156844,21.6471252 62.1606844,20.1571781 58.8670152,18.2225044 C57.8059221,17.6197531 56.7943916,16.9221869 55.6724715,16.4323104 C53.3632985,18.962963 51.2028137,21.6268078 48.9296863,24.1913228 C43.5070722,30.5055379 38.0123669,36.7610582 32.6167871,43.0978483 C34.4010456,45.0957319 36.3542681,46.9355908 38.1159981,48.9515344 C42.6645057,53.9654321 46.0527947,60.0629277 47.7379278,66.6344974 C49.6798859,74.1203527 49.4117966,82.1592945 46.9944867,89.5051852 C45.6472814,93.8869841 43.2727757,97.8398589 41.4119202,102.007196 C39.348308,106.36642 37.5415209,110.838519 35.7820437,115.328677 C31.5894867,115.351252 27.3946768,115.35351 23.1998669,115.324162 C26.3065494,106.461235 30.3121198,97.9549912 34.304173,89.4668078 C36.4105894,84.976649 37.3049715,79.9017989 36.6944487,74.9691711 C36.1898099,70.637037 34.6488593,66.4697002 32.5131559,62.6838801 C30.1814544,58.624903 26.723327,55.3876543 23.2223954,52.3490653 C21.3615399,50.6830335 19.385789,49.1298765 17.7164259,47.2629277 C17.0878802,46.5698765 16.5629658,45.6804233 16.6620913,44.7119577 C16.7431939,43.6667372 17.4235551,42.8179189 18.0858935,42.0616578 C28.0863023,30.6274427 38.0754468,19.186455 47.9812357,7.67322751 C49.1729943,6.38871252 50.1507319,4.84232804 51.6759125,3.92126984 C53.2348859,2.99795414 55.2309125,3.20112875 56.7493346,4.10638448 C58.8917966,5.3773545 60.9576616,6.78151675 62.987481,8.22857143 C67.939249,11.6193298 74.0219487,13.0889594 79.9739829,12.9873721 C90.591673,12.9128748 101.162053,9.60790123 109.941416,3.62102293 C111.822548,2.37940035 113.61807,0.882680776 115.828118,0.264126984 Z" id="Shape"></path>
                <path d="M108.053527,22.0941093 C108.803726,21.6516402 109.58096,21.0579189 110.484354,21.0511464 C114.097928,21.6177778 117.71826,22.1731217 121.295789,22.9429277 C130.226093,24.821164 139.000951,27.5595062 147.280181,31.4265961 C154.232481,34.6977072 160.855865,38.7724868 166.598384,43.9105467 C167.801407,44.9783422 168.848983,46.2086772 170.065523,47.2629277 C170.725608,45.8610229 171.18519,44.3801058 171.696587,42.9195062 C174.023783,36.2824691 175.938707,29.5009524 177.441359,22.6313933 C177.488669,22.543351 177.585542,22.3695238 177.635105,22.2814815 C177.522462,24.1868078 177.116949,26.0582716 176.781274,27.9342504 C174.201759,42.1925926 169.914582,56.1687478 163.739515,69.2847972 C162.865409,71.187866 161.880913,73.0344974 161.0023,74.9353086 C159.715922,74.5605644 158.488118,74.007478 157.174705,73.725291 C158.546692,71.2713933 160.017804,68.873933 161.346987,66.3952028 C163.65616,62.1375661 165.77384,57.7760847 167.666236,53.3175309 C168.074002,52.4325926 168.445722,51.5318519 168.743099,50.6040212 C166.774106,47.9334039 164.313992,45.6623633 161.78404,43.533545 C155.789202,38.5331922 148.954049,34.6232099 141.830532,31.480776 C131.339002,26.8912875 120.164857,24.0107231 108.864553,22.2905115 C108.591958,22.2295591 108.321616,22.1640917 108.053527,22.0941093 Z" id="Shape"></path>
                <path d="M59.1328517,57.9431393 C78.6740875,57.0265961 98.5397338,59.1825044 117.019876,65.8217989 C124.972443,68.7023633 132.695219,72.3075838 139.780437,76.9535097 C138.726103,78.6308289 136.617433,79.0236332 135.322044,80.4503704 C132.366302,78.6534039 129.475894,76.7435626 126.400751,75.1497707 C109.641787,66.1581658 90.774154,61.6047972 71.8817395,60.3338272 C64.6140399,59.8574956 57.3215589,59.8574956 50.0493536,60.2277249 C49.5852662,59.9658554 49.5402091,59.2524868 49.2721198,58.8055026 C52.5274905,58.2411287 55.8436882,58.2140388 59.1328517,57.9431393 Z" id="Shape"></path>
                <path d="M44.8813118,104.562681 C49.6618631,104.077319 54.4446673,103.558095 59.25,103.395556 C70.3790875,102.948571 81.5870247,103.673228 92.4998384,105.971358 C99.9252376,107.58321 107.240247,109.874568 114.064135,113.256296 C115.028356,113.714568 115.906968,114.366984 116.934268,114.689806 C117.601112,114.558871 118.162072,114.13672 118.732044,113.78455 C120.888023,112.366843 123.05076,110.951393 125.087338,109.359859 C125.785722,108.97157 126.792747,109.621728 126.813023,110.425397 C126.990998,112.053051 126.995504,113.696508 127.108146,115.330935 C118.529287,115.360282 109.950428,115.324162 101.371568,115.348995 C100.797091,115.34448 100.204591,115.33545 99.6684125,115.107443 C96.3094106,113.658131 92.7882034,112.628713 89.2647433,111.667019 C84.2498954,110.326067 79.1449335,109.294392 73.9926616,108.662293 C73.4024144,110.836261 73.0915209,113.073439 72.7761217,115.301587 C70.8634506,115.387372 68.9485266,115.33545 67.0358555,115.330935 C67.1845437,112.901869 67.5495057,110.495379 67.9077091,108.091146 C66.193289,107.69157 64.4180418,107.808959 62.6765875,107.630617 C57.8599905,107.42067 53.0343821,107.452275 48.2155323,107.608042 C46.6069962,107.644162 45.0007129,107.813474 43.389924,107.779612 C43.8675285,106.698272 44.2843061,105.587584 44.8813118,104.562681 Z" id="Shape"></path>
                <path d="M186.380675,112.030476 C187.910361,109.861023 189.183222,107.526772 190.683622,105.339259 C191.100399,106.237743 191.663612,107.104621 191.850599,108.091146 C190.516911,110.538272 189.014259,112.886067 187.619743,115.297072 C186.482053,115.3806 185.339857,115.355767 184.202167,115.315132 C184.914068,114.211217 185.646245,113.120847 186.380675,112.030476 Z" id="Shape"></path>
                <path d="M0.0743441065,116.56127 C44.5861882,116.53418 89.0980323,116.56127 133.609876,116.547725 C134.019895,116.538695 134.456949,116.581587 134.765589,116.893122 C139.935884,121.265891 145.137719,125.604797 150.319278,129.964021 C150.736055,130.219118 150.731549,130.711252 150.736055,131.146949 C150.727044,136.946455 150.731549,142.743704 150.731549,148.54321 C150.715779,149.421376 150.803641,150.310829 150.666217,151.186737 C149.364068,152.520917 147.742015,153.502928 146.412833,154.812275 C147.933508,156.16903 149.636663,157.33164 151.069477,158.78321 C151.200143,165.973333 151.062719,173.181517 151.130304,180.378413 C151.123546,180.985679 151.236188,181.726138 150.627918,182.091852 C145.28866,186.523316 139.960665,190.966067 134.630418,195.408818 C134.287985,195.720353 133.837414,195.846772 133.380086,195.826455 C116.404848,195.819683 99.4296103,195.824198 82.4543726,195.824198 C80.5236787,195.788078 78.5907319,195.905467 76.6645437,195.760988 C76.6848194,188.236755 76.6532795,180.71478 76.6825665,173.190547 C79.1990019,172.373333 81.8010456,171.845079 84.3400095,171.097848 C84.3985837,162.528395 84.3467681,153.954427 84.362538,145.382716 C84.3377567,144.039506 84.4481464,142.694039 84.2949525,141.357601 C82.463384,140.88127 80.6453327,140.348501 78.7979943,139.939894 C78.7056274,144.64903 78.8272814,149.362681 78.741673,154.071817 C72.771616,154.119224 66.7993061,154.074074 60.8269962,154.087619 C59.3085741,154.069559 57.7878992,154.139541 56.27173,154.051499 C55.6837357,150.132487 55.025903,146.222504 54.4536787,142.301235 C54.3928517,141.90843 54.2576806,141.533686 54.1089924,141.170229 C53.9828327,142.190617 54.0369011,143.22455 54.0369011,144.251711 C54.0369011,151.100952 54.0346483,157.947937 54.0346483,164.797178 C54.0706939,166.880847 53.9580513,168.96903 54.0954753,171.050441 C56.9768726,171.799929 59.8943156,172.420741 62.7667015,173.208607 C62.7689544,180.721552 62.7531844,188.234497 62.7757129,195.745185 C60.1038308,195.934815 57.4206844,195.760988 54.7442966,195.819683 C42.8041825,195.835485 30.8640684,195.817425 18.9239544,195.828713 C18.0408365,195.842257 17.1577186,195.833228 16.2768536,195.772275 C16.2903707,188.381235 16.2768536,180.992451 16.2836122,173.603668 C16.2340494,173.330511 16.3286692,173.154427 16.5629658,173.082187 C19.3339734,172.375591 22.1522909,171.842822 24.90077,171.057213 C24.8917586,161.061023 24.90077,151.064832 24.8962643,141.068642 C24.7205418,141.186032 24.6169106,141.346314 24.5876236,141.554004 C23.9906179,145.7394 23.2877281,149.908995 22.6501711,154.087619 C15.1256464,154.098907 7.60337452,154.083104 0.0788498099,154.092134 C0.0540684411,141.581093 0.0653326996,129.070053 0.0743441065,116.56127 Z M2.29115019,118.784903 C2.27988593,129.808254 2.27087452,140.831605 2.29565589,151.854956 C8.4301711,151.866243 14.5669392,151.879788 20.7014544,151.848183 C21.5305038,147.595062 22.0306369,143.283245 22.7830894,139.014321 C24.2136502,138.935309 25.6487167,138.948854 27.0815304,139.005291 C27.1401046,146.847831 27.0905418,154.694885 27.1063118,162.539683 C27.0680133,165.982363 27.1829087,169.429559 27.0522433,172.869982 C24.215903,173.621728 21.3164829,174.127407 18.5026711,174.960423 C18.5161882,181.177566 18.473384,187.396966 18.5229468,193.614109 C32.526673,193.596049 46.5303992,193.609594 60.5363783,193.605079 C60.5453897,187.394709 60.5341255,181.182081 60.540884,174.969453 C57.6797624,174.156755 54.7690779,173.515626 51.8786692,172.813545 C51.8065779,161.546384 51.8674049,150.274709 51.8493821,139.007549 C53.2957129,138.973686 54.7555608,138.874356 56.1973859,139.063986 C56.834943,143.330653 57.4860171,147.595062 58.1956654,151.850441 C64.3099049,151.879788 70.4241445,151.866243 76.538384,151.857213 C76.5586597,140.833862 76.5586597,129.810511 76.538384,118.789418 C51.790808,118.757813 27.0409791,118.769101 2.29115019,118.784903 Z M78.908384,118.789418 C78.8926141,125.072028 78.8768441,131.354638 78.9173954,137.637249 C81.4653707,138.355132 84.0651616,138.899189 86.5861027,139.714145 C86.5928612,150.719436 86.5906084,161.724727 86.5861027,172.730018 C84.0786787,173.583351 81.4698764,174.102575 78.9219011,174.829489 C78.8700856,181.089524 78.8948669,187.349559 78.9106369,193.609594 C96.8388308,193.602822 114.769278,193.600564 132.699724,193.611852 C133.046663,193.618624 133.40712,193.559929 133.677462,193.320635 C138.599943,189.227795 143.502148,185.105608 148.447158,181.035344 C148.7175,180.820882 148.947291,180.529665 148.895475,180.161693 C148.90674,173.605926 148.888717,167.047901 148.904487,160.489877 C148.89097,160.130935 148.915751,159.704268 148.57557,159.485291 C146.716968,157.914074 144.804297,156.40381 142.961464,154.814533 C144.671378,153.098836 146.780048,151.816578 148.469686,150.091852 C148.586835,145.292416 148.485456,140.479436 148.519249,135.675485 C148.478698,134.257778 148.609363,132.833298 148.458422,131.422363 C147.593327,130.392945 146.421844,129.677319 145.437348,128.767549 C141.634534,125.579965 137.842985,122.381093 134.049183,119.18448 C133.690979,118.825538 133.193099,118.739753 132.708736,118.764586 C114.776036,118.793933 96.8410837,118.744268 78.908384,118.789418 Z" id="Shape"></path>
                <path d="M152.103536,116.554497 C179.49596,116.55224 206.888384,116.540952 234.280808,116.56127 C234.404715,122.026667 234.296578,127.498836 234.332624,132.96649 C234.303337,135.144974 234.393451,137.323457 234.289819,139.499683 C230.493764,140.353016 226.668422,141.095732 222.85885,141.883598 C222.034306,142.032593 221.45307,142.675979 220.831283,143.1794 C218.634753,145.073439 216.339097,146.852346 214.169601,148.777989 C217.472281,155.175732 220.916892,161.501235 224.278146,167.867372 C224.830095,168.81552 225.231103,169.860741 225.879924,170.752451 C228.632909,171.689312 231.496283,172.298836 234.267291,173.195062 C234.422738,175.434497 234.289819,177.680705 234.332624,179.922399 C234.319106,185.211711 234.361911,190.501023 234.314601,195.790335 C222.369981,195.871605 210.420856,195.801623 198.476236,195.824198 C185.860266,195.824198 173.244297,195.819683 160.628327,195.824198 C157.776217,195.801623 154.926359,195.862575 152.076502,195.78582 C152.020181,188.918519 152.076502,182.051217 152.042709,175.183915 C152.035951,174.508924 152.056226,173.83619 152.090019,173.165714 C154.613213,172.384621 157.203992,171.833792 159.738451,171.091076 C159.828565,163.350123 159.749715,155.606914 159.776749,147.865961 C159.738451,145.698765 159.857852,143.529312 159.715922,141.366631 C157.194981,140.612628 154.599696,140.122751 152.09903,139.29425 C151.993146,134.853757 152.08326,130.408748 152.053973,125.968254 C152.08326,122.830335 151.990894,119.690159 152.103536,116.554497 Z M154.306825,118.782646 C154.266274,119.595344 154.257262,120.4103 154.268527,121.227513 C154.315837,126.699683 154.19193,132.178624 154.329354,137.648536 C156.857053,138.325785 159.391511,138.966914 161.923717,139.630617 C162.040865,142.673721 161.923717,145.723598 161.964268,148.768959 C161.937234,156.787584 162.020589,164.810723 161.923717,172.829347 C159.400523,173.488536 156.875076,174.145467 154.358641,174.827231 C154.155884,177.570088 154.329354,180.331005 154.273032,183.082892 C154.313584,186.591041 154.185171,190.103704 154.338365,193.609594 C167.030932,193.605079 179.723498,193.600564 192.416065,193.611852 C192.576017,191.686208 192.440846,189.751534 192.48365,187.823633 C192.485903,183.830123 192.479144,179.838871 192.490409,175.845362 C192.445352,175.538342 192.564753,175.073298 192.193032,174.937848 C190.661093,174.22448 189.061568,173.671393 187.498089,173.03478 C187.322367,171.422928 187.414734,169.793016 187.421492,168.176649 C187.365171,167.673228 187.842776,167.397813 188.155922,167.097566 C189.80501,165.734039 191.42481,164.332134 193.087414,162.986667 C194.249886,164.855873 195.232129,166.833439 196.336027,168.738765 C197.1448,170.27612 198.113527,171.732205 198.798394,173.330511 C197.430913,173.924233 196.018375,174.402822 194.659905,175.014603 C194.608089,175.671534 194.583308,176.328466 194.594572,176.987654 C194.655399,182.529806 194.524734,188.074215 194.657652,193.611852 C207.122681,193.600564 219.587709,193.602822 232.052738,193.611852 C232.192414,191.835203 232.079772,190.054039 232.113565,188.275132 C232.113565,184.055873 232.111312,179.838871 232.11807,175.619612 C232.079772,175.328395 232.18115,174.847549 231.780143,174.784339 C230.272985,174.310265 228.732034,173.949065 227.222624,173.481764 C226.258403,173.167972 225.215333,173.046067 224.316445,172.562963 C223.816312,171.887972 223.500913,171.100106 223.099905,170.368677 C219.234011,163.106314 215.372624,155.841693 211.515741,148.574815 C211.274686,148.2994 211.531511,148.035273 211.752291,147.863704 C214.699021,145.394004 217.672785,142.955908 220.610504,140.472663 C221.295371,139.827019 222.270856,139.75478 223.147215,139.562892 C226.12999,138.944339 229.119525,138.359647 232.093289,137.693686 C232.122576,131.390758 232.142852,125.085573 232.082025,118.784903 C219.556169,118.775873 207.030314,118.742011 194.504458,118.800705 C194.517975,125.004303 194.502205,131.207901 194.51347,137.409242 C195.583574,137.948783 196.730276,138.305467 197.81615,138.806631 C194.346759,141.815873 190.913413,144.868007 187.428251,147.859189 C187.394458,145.077954 187.394458,142.298977 187.423745,139.52 C189.000741,138.709559 190.694886,138.16776 192.285399,137.393439 C192.294411,131.196614 192.269629,124.999788 192.298916,118.802963 C189.701378,118.726208 187.10384,118.79619 184.508555,118.773616 C174.440561,118.780388 164.374819,118.757813 154.306825,118.782646 Z M189.613517,140.987372 C189.604506,141.633016 189.597747,142.280917 189.6,142.931076 C191.019297,141.87231 192.366502,140.696155 193.598812,139.425185 C192.206549,139.757037 190.913413,140.402681 189.613517,140.987372 Z M189.67885,168.890018 C189.609011,169.738836 189.485105,170.662152 189.750941,171.479365 C190.607025,171.957954 191.555475,172.235626 192.45211,172.630688 C192.911692,172.777425 193.393802,173.104762 193.88943,172.906102 C194.51347,172.720988 195.108222,172.447831 195.707481,172.194991 C194.637376,170.251287 193.612329,168.278236 192.440846,166.395485 C191.526188,167.228501 190.426797,167.89672 189.67885,168.890018 Z" id="Shape"></path>
                <path d="M6.04440114,122.536861 C17.9980323,122.496226 29.9494106,122.532346 41.9030418,122.518801 C52.200827,122.532346 62.500865,122.493968 72.800903,122.539118 C72.832443,131.056649 72.8437072,139.578695 72.7941445,148.096226 C70.6066255,148.168466 68.4213593,148.105256 66.2338403,148.125573 C64.6140399,148.098483 62.9897338,148.195556 61.3721863,148.060106 C60.723365,143.795697 60.0294867,139.535802 59.3829183,135.271393 C57.6910266,135.124656 55.9901236,135.233016 54.2937262,135.201411 C52.2188498,135.230758 50.1417205,135.133686 48.0668441,135.260106 C48.1028897,148.753157 48.0555798,162.248466 48.0916255,175.741517 C50.97077,176.425538 53.8341445,177.175026 56.7223004,177.82067 C56.89577,179.342222 56.774116,180.877319 56.8079087,182.405644 C56.7831274,184.877601 56.8597243,187.349559 56.7673574,189.819259 C45.2688023,189.844092 33.7679943,189.853122 22.2671863,189.814744 C22.2153707,185.846067 22.210865,181.875132 22.2671863,177.906455 C25.1035266,177.152451 27.9894297,176.59485 30.8212643,175.825044 C30.8685741,162.298131 30.8482985,148.768959 30.8302757,135.242046 C27.088289,135.178836 23.3395437,135.165291 19.5953042,135.251076 C18.8473574,139.513228 18.2683745,143.802469 17.5361977,148.069136 C13.7108555,148.191041 9.87424905,148.116543 6.04665399,148.102998 C5.97456274,142.531499 6.03764259,136.957743 6.01511407,131.386243 C6.03764259,128.435697 5.97456274,125.48515 6.04440114,122.536861 Z" id="Shape"></path>
                <path d="M82.645865,122.539118 C98.8821673,122.489453 115.120722,122.543633 131.357025,122.512028 C131.868422,122.464621 132.359544,122.640705 132.738023,122.990617 C136.245713,125.950194 139.753403,128.907513 143.27461,131.851287 C143.754468,132.262152 144.292899,132.621093 144.700665,133.11097 C144.815561,133.655026 144.756987,134.2194 144.768251,134.774744 C144.7277,139.32134 144.799791,143.870194 144.734458,148.41679 C142.172966,150.543351 139.525865,152.575097 137.034211,154.785185 C139.525865,156.884656 142.049059,158.948007 144.556483,161.029418 C144.862871,161.300317 145.221074,161.614109 145.160247,162.074638 C145.164753,167.4994 145.164753,172.928677 145.157994,178.353439 C145.223327,178.811711 144.840342,179.1097 144.542966,179.38963 C140.467557,182.744268 136.4327,186.150829 132.366302,189.516755 C132.030627,189.835062 131.559781,189.841834 131.129487,189.844092 C114.972034,189.819259 98.8123289,189.855379 82.6548764,189.826032 C82.585038,187.126067 82.6436122,184.426102 82.6255894,181.728395 C82.6526236,180.394215 82.5422338,179.05552 82.7021863,177.728113 C85.2366445,176.994427 87.8251711,176.454885 90.3371008,175.651217 C90.3731464,163.530723 90.3371008,151.407972 90.3551236,139.287478 C90.364135,138.458977 90.3573764,137.630476 90.3235837,136.80649 C87.8094011,135.989277 85.2028517,135.492628 82.6728992,134.720564 C82.5760266,130.661587 82.6278422,126.598095 82.645865,122.539118 Z M107.557899,136.230829 C107.557899,141.086702 107.573669,145.944832 107.551141,150.800705 C112.547966,150.954215 117.553802,150.807478 122.555133,150.872945 C123.278298,150.843598 124.120865,151.017425 124.693089,150.450794 C125.702367,149.565855 126.797253,148.766702 127.747956,147.818554 C127.950713,146.570159 127.784002,145.287901 127.831312,144.028219 C127.784002,142.461517 127.928184,140.883527 127.770485,139.323598 C127.096882,138.542504 126.220523,137.978131 125.470323,137.280564 C124.927386,136.865185 124.449781,136.174392 123.69057,136.224056 C118.313013,136.233086 112.935456,136.219541 107.557899,136.230829 Z M107.582681,159.663633 C107.524106,165.133545 107.591692,170.610229 107.551141,176.082399 C108.794715,176.202046 110.045048,176.136578 111.290875,176.145608 C115.273916,176.150123 119.256958,176.136578 123.242253,176.156896 C123.638755,176.134321 124.084819,176.181728 124.425,175.922116 C125.344163,175.274215 126.168707,174.502152 127.072101,173.833933 C127.479867,173.463704 128.124183,173.127337 128.040827,172.481693 C128.045333,169.388924 128.036321,166.296155 128.04308,163.203386 C128.171492,162.356825 127.306397,161.952734 126.790494,161.4606 C125.677586,160.688536 124.767433,159.230194 123.235494,159.480776 C118.130532,159.516896 113.023317,159.464974 107.918356,159.503351 C107.835,159.543986 107.666036,159.625256 107.582681,159.663633 Z" id="Shape"></path>
                <path d="M158.015019,122.582011 C161.058622,122.433016 164.113489,122.563951 167.161597,122.518801 C174.282861,122.543633 181.404125,122.473651 188.52539,122.552663 C188.507367,126.677108 188.563688,130.80381 188.498356,134.928254 C186.939382,135.648395 185.301559,136.194709 183.765114,136.96 C183.645713,137.262504 183.675,137.596614 183.661483,137.919436 C183.693023,143.967266 183.663736,150.015097 183.677253,156.062928 C185.137101,154.98836 186.425732,153.69933 187.811236,152.532205 C191.945219,148.922469 196.081454,145.319506 200.208679,141.705256 C201.742871,140.328183 203.371683,139.054956 204.820266,137.589841 C202.653023,136.684586 200.451987,135.8606 198.293755,134.930511 C198.246445,130.801552 198.277985,126.672593 198.277985,122.543633 C205.401502,122.487196 212.527272,122.536861 219.653042,122.518801 C222.554715,122.566208 225.463146,122.426243 228.360314,122.588783 C228.340038,126.609383 228.369325,130.63224 228.346797,134.655097 C225.674914,135.210441 223.000779,135.756755 220.326644,136.298554 C219.238517,136.458836 218.528869,137.370864 217.713337,138.011993 C214.014154,141.102504 210.296949,144.170441 206.60903,147.274497 C210.826369,155.399224 215.194648,163.449453 219.466055,171.54709 C220.263565,172.93545 220.883099,174.432169 221.779734,175.759577 C223.883897,176.642257 226.190817,176.978624 228.349049,177.7394 C228.362567,181.76 228.346797,185.7806 228.358061,189.803457 C218.375675,189.871182 208.391036,189.832804 198.40865,189.821517 C198.318536,185.760282 198.388375,181.69679 198.372605,177.635556 C200.246977,176.67612 202.292567,176.109489 204.184962,175.186173 C200.93635,169.147372 197.487234,163.216931 194.240875,157.175873 C192.758498,158.221093 191.445086,159.487549 190.0348,160.627584 C188.038774,162.313933 186.017966,163.973192 184.033203,165.668571 C183.56461,165.975591 183.684011,166.564797 183.663736,167.045644 C183.704287,169.876543 183.636702,172.7097 183.697529,175.542857 C185.353375,176.235908 187.029496,176.87478 188.698859,177.540741 C188.757433,181.629065 188.707871,185.719647 188.723641,189.810229 C182.212899,189.871182 175.699905,189.817002 169.189163,189.835062 C165.4652,189.812487 161.738983,189.880212 158.015019,189.803457 C158.042053,185.791887 158.015019,181.780317 158.030789,177.768748 C160.574259,177.039577 163.144762,176.411993 165.697243,175.712169 C165.780599,168.163104 165.708508,160.609524 165.733289,153.058201 C165.701749,147.622152 165.791863,142.181587 165.688232,136.745538 C163.14251,136.034427 160.556236,135.46328 158.026283,134.693474 C158.017272,130.657072 158.042053,126.618413 158.015019,122.582011 Z" id="Shape"></path>
                <path d="M111.333679,140.009877 C114.92923,139.982787 118.524781,140.016649 122.120333,139.994074 C122.895314,139.901517 123.523859,140.450088 124.001464,140.98963 C124.179439,142.371217 124.030751,143.779894 124.080314,145.175026 C124.25153,146.245079 123.140875,147.186455 122.122586,147.102928 C118.53154,147.089383 114.940494,147.09164 111.349449,147.102928 C111.306644,144.73933 111.329173,142.373474 111.333679,140.009877 Z M113.559496,142.238025 C113.487405,143.111675 113.482899,143.992099 113.557243,144.868007 C116.316987,144.87478 119.078983,144.881552 121.840979,144.86575 C121.877025,143.985326 121.877025,143.10716 121.845485,142.228995 C119.083489,142.17933 116.31924,142.1703 113.559496,142.238025 Z" id="Shape"></path>
                <path d="M116.24039,143.42544 C117.745295,143.348524 119.252452,143.345447 120.75961,143.422363 C120.723565,143.520815 120.651473,143.711567 120.617681,143.810019 C119.207395,143.886935 117.788099,143.883859 116.380067,143.806943 C116.346274,143.711567 116.274183,143.520815 116.24039,143.42544 Z" id="Shape"></path>
                <path d="M215.658736,149.085009 C216.307557,148.473228 216.987918,147.888536 217.733612,147.396402 C217.803451,149.236261 217.814715,151.080635 217.767405,152.922751 C216.958631,151.705961 216.327833,150.380811 215.658736,149.085009 Z" id="Shape"></path>
                <path d="M16.5179087,155.349559 C18.9014259,155.196049 21.2939544,155.293122 23.6819772,155.293122 C23.7428042,158.61164 23.6887357,161.930159 23.7067586,165.248677 C23.6797243,166.887619 23.7698384,168.531076 23.6594487,170.170018 C22.1996008,170.497354 20.7622814,170.987231 19.2618821,171.097848 C17.7997814,165.962046 16.9121578,160.672734 16.5179087,155.349559 Z" id="Shape"></path>
                <path d="M70.9693346,155.331499 C72.3728612,155.247972 73.7876521,155.207337 75.1889259,155.354074 C76.3378802,160.695309 77.921635,165.937213 79.7306749,171.088818 C78.725903,171.371005 77.7121198,171.621587 76.7073479,171.903774 C75.7746673,170.711817 75.4817966,169.19478 74.9321008,167.81545 C73.3888973,163.729383 72.147576,159.537213 70.9693346,155.331499 Z" id="Shape"></path>
                <path d="M111.331426,163.262081 C114.926977,163.230476 118.522529,163.275626 122.120333,163.244021 C122.971911,163.135661 123.900086,163.645855 124.25153,164.411146 C124.343897,166.348078 124.247025,168.291781 124.294335,170.23097 C124.244772,170.637319 124.388954,171.165573 124.014981,171.45679 C123.539629,171.878942 123.025979,172.413968 122.338859,172.380106 C118.67347,172.391393 115.010333,172.373333 111.344943,172.386878 C111.31115,169.346032 111.331426,166.302928 111.331426,163.262081 Z M113.55499,165.492487 C113.489658,167.045644 113.489658,168.601058 113.552738,170.156473 C116.386825,170.160988 119.220913,170.170018 122.055,170.151958 C122.075276,168.601058 122.077529,167.050159 122.055,165.501517 C119.225418,165.420247 116.386825,165.422504 113.55499,165.492487 Z" id="Shape"></path>
                <path d="M84.9325095,197.167407 C87.1605798,197.275767 89.3751331,196.97552 91.6009506,197.000353 L91.6752947,197.140317 C96.6405798,206.037108 102.42365,214.462081 108.691084,222.487478 C109.871578,224.076755 111.21653,225.537354 112.365485,227.151464 C111.475608,226.69545 110.644306,226.106243 110.002243,225.33418 C107.557899,222.338483 104.985143,219.444374 102.621901,216.380952 C100.880447,214.062504 99.024097,211.829841 97.3862738,209.434638 C94.4936122,205.470476 91.8014544,201.364092 89.1949049,197.2103 C86.1963593,197.17418 83.1978137,197.223845 80.2015209,197.203527 C78.6335361,197.17418 77.0632985,197.298342 75.4975665,197.158377 C78.6425475,197.196755 81.7875285,197.151605 84.9325095,197.167407 Z" id="Shape"></path>
                <path d="M161.576778,197.151605 C162.727985,196.831041 163.951283,197.079365 165.13403,197.004868 C166.715532,196.92134 168.28577,197.19224 169.867272,197.169665 C172.126882,197.187725 174.390998,197.090653 176.648356,197.275767 C176.45461,197.298342 176.265371,197.329947 176.073878,197.334462 C173.559696,197.072593 171.029743,197.27351 168.508802,197.171922 C167.66173,197.104198 166.875485,197.458624 166.161331,197.871746 C163.626873,199.302998 161.006806,200.580741 158.316901,201.686914 C157.381968,201.928466 156.426759,202.09552 155.525618,202.454462 C155.581939,201.537919 155.703593,200.630406 155.784696,199.718377 C157.643298,198.704762 159.704658,198.144903 161.576778,197.151605 Z" id="Shape"></path>
                <path d="M33.5314449,197.04776 C39.1004943,196.968748 44.6695437,197.052275 50.2385932,197.007125 C50.8919202,197.016155 51.6421198,196.91231 52.1535171,197.424762 C57.7901521,202.129383 64.0012643,206.118377 70.49173,209.531711 C75.0965589,212.021728 79.9199144,214.069277 84.6531559,216.297425 C92.9278802,220.139683 101.098973,224.316049 108.551407,229.616649 C111.827053,231.901235 114.870656,234.49284 117.82865,237.172487 C119.038432,235.933122 120.137823,234.576367 121.530086,233.528889 C128.38326,227.916755 136.013669,223.320494 143.943707,219.410511 C148.091207,217.326843 152.389648,215.561481 156.5777,213.565855 C165.933793,209.152451 175.051084,204.045996 183.044202,197.422504 C183.557852,196.92134 184.303546,197.02067 184.959125,197.009383 C190.172224,197.054533 195.387576,196.959718 200.600675,197.05679 C199.683764,198.339048 198.541568,199.433933 197.469211,200.580741 C191.055342,207.174885 183.609667,212.698977 175.735951,217.417143 C168.671008,221.668007 161.211816,225.20776 153.655751,228.481129 C145.577025,232.117954 137.752871,236.418483 130.705951,241.82067 C127.682624,244.105256 125.218004,247.010653 122.692557,249.812205 C121.728337,250.877743 120.788897,252.031323 119.489002,252.701799 C118.114762,253.480635 116.364297,253.491922 114.969781,252.765009 C113.449106,252.03358 112.430817,250.642963 111.31115,249.439718 C108.60097,246.371781 105.86826,243.251922 102.488983,240.901869 C95.8746103,236.411711 88.8840114,232.494956 81.688403,229.0297 C76.7771863,226.699965 71.737557,224.645644 66.9119487,222.137566 C55.0033745,216.058131 43.7638973,208.346526 34.7164449,198.41806 C34.3086787,197.973333 33.9121768,197.517319 33.5314449,197.04776 Z" id="Shape"></path>
            </g>
            <g id="#000000ff" fill="#000000">
                <path d="M112.51192,2.58031746 C114.411074,1.40867725 116.404848,0.0338624339 118.725285,0.0451499118 C120.511797,0.0180599647 122.136103,0.91654321 123.526112,1.96176367 C129.960257,6.69121693 137.327082,10.2129101 145.144477,11.8970018 C150.145808,12.9557672 155.322861,13.5111111 160.412053,12.8022575 C163.647148,12.3620459 166.794382,11.3168254 169.653251,9.73432099 C172.331892,8.27372134 174.764971,6.41580247 177.342234,4.79040564 C178.948517,3.77453263 180.903992,3.10631393 182.812158,3.51717813 C184.661749,3.92352734 186.101321,5.27802469 187.302091,6.67315697 C196.288717,17.0102293 205.261825,27.3585891 214.207899,37.7317813 C215.555105,39.3932981 217.145618,40.8764727 218.233745,42.736649 C219.222747,44.5065256 219.876074,46.6940388 219.11461,48.6716049 C218.544639,50.2834568 217.233479,51.455097 215.929078,52.48 C213.214392,54.7104056 210.443384,56.9001764 208.075637,59.5075838 C205.960209,61.7808818 204.304363,64.4424691 202.932376,67.2169312 C200.814696,71.5603527 199.679259,76.4500882 200.105048,81.2901587 C200.382148,84.9924515 201.555884,88.575097 203.189202,91.8891005 C205.847567,97.29806 208.368508,102.774744 210.639382,108.359788 C211.781578,111.104903 212.750304,113.917743 213.822662,116.68769 C221.489116,116.726067 229.157823,116.653827 236.82653,116.721552 C236.912139,125.078801 236.855817,133.438307 236.853565,141.795556 C235.024249,142.330582 233.127348,142.572134 231.273251,142.998801 C229.468717,143.36903 227.670941,143.764092 225.861901,144.109489 C225.048622,144.281058 224.158745,144.375873 223.521188,144.965079 C222.550209,145.80261 221.543184,146.597249 220.578964,147.439295 C220.211749,147.683104 220.301863,148.150406 220.295105,148.527407 C220.434781,150.94067 220.439287,153.36522 220.301863,155.778483 C220.247795,156.302222 220.358184,156.828219 220.621768,157.288748 C222.962481,161.643457 225.273907,166.016226 227.585333,170.388995 C227.785837,170.793086 228.083213,171.174603 228.551806,171.278448 C231.289021,172.102434 234.060029,172.811287 236.799496,173.630758 C236.954943,175.949206 236.822025,178.276684 236.864829,180.599647 C236.831036,186.525573 236.934667,192.451499 236.815266,198.375168 C225.983555,198.37291 215.154097,198.368395 204.322386,198.375168 C203.928137,198.31873 203.628508,198.5806 203.391958,198.856014 C198.090998,205.066384 191.909173,210.495661 185.222709,215.164162 C178.930494,219.568536 172.174192,223.266314 165.235409,226.53291 C161.25462,228.415661 157.249049,230.248748 153.28403,232.163104 C148.580076,234.504127 143.957224,237.01672 139.496578,239.793439 C136.761616,241.524938 134.033413,243.2903 131.535,245.355908 C129.19654,247.378624 127.166721,249.721905 125.100856,252.013263 C124.096084,253.105891 123.134116,254.297848 121.809439,255.020247 C119.849458,256.169312 117.25192,256.361199 115.260399,255.182787 C114.255627,254.640988 113.557243,253.715414 112.854354,252.844021 C107.535371,246.324374 100.670932,241.245009 93.371692,237.158942 C84.7793156,232.246631 75.475038,228.767831 66.7429848,224.130935 C55.0213973,218.044727 43.905827,210.450511 35.018327,200.587513 C34.34923,199.889947 33.8153042,199.063704 33.0696103,198.44515 C32.1955038,198.289383 31.2988688,198.388713 30.4134981,198.370653 C25.7681179,198.366138 21.1227376,198.386455 16.4796103,198.36388 C16.3511977,194.853474 16.4615875,191.336296 16.4255418,187.823633 C16.4503232,183.080635 16.3737262,178.335379 16.4593346,173.594638 C17.4167966,173.298907 18.3967871,173.102504 19.3677662,172.86321 C18.2661217,168.677813 17.3627281,164.431464 16.984249,160.115132 C16.8625951,158.968325 16.7769867,157.819259 16.6463213,156.674709 C11.1854087,156.561834 5.71999049,156.679224 0.256825095,156.616014 C0.150941065,143.994356 0.25006654,131.368183 0.207262357,118.744268 C0.202756654,118.071534 0.220779468,117.401058 0.252319392,116.730582 C7.88948669,116.635767 15.5311597,116.744127 23.1705798,116.67866 C26.4146863,108.280776 30.0215019,100.027372 33.8085456,91.8597531 C36.3813023,86.4033862 37.6271293,80.1568959 36.4241065,74.1767901 C35.2728992,68.1786243 31.9071388,62.8102998 27.665019,58.5075132 C24.9683555,55.7804586 22.0058555,53.3401058 19.1469867,50.7936508 C17.7209316,49.5159083 16.695884,47.6083245 17.000019,45.6488183 C17.2162928,43.9015168 18.3877757,42.504127 19.56827,41.2895944 C25.7883935,34.5532275 31.6120152,27.4669489 37.6113593,20.5364374 C41.8624905,15.610582 46.1023574,10.6734392 50.3692586,5.76112875 C51.56327,4.35922399 53.325,3.40881834 55.1881084,3.41559083 C56.8980228,3.33432099 58.5268346,4.03414462 59.9145913,4.98455026 C61.5096103,6.00268078 63.0730894,7.07047619 64.6253042,8.15633157 C67.2453707,9.99167549 70.1875951,11.3822928 73.3010361,12.1385538 C77.085827,13.1273369 81.0418346,13.2198942 84.9212452,12.9083598 C90.9881749,12.4162257 96.9694962,10.8811287 102.516017,8.36627866 C106.039477,6.79280423 109.351169,4.78814815 112.51192,2.58031746 Z M117.179829,1.61862434 C114.969781,2.23717813 113.174259,3.73389771 111.293127,4.97552028 C102.513764,10.9623986 91.943384,14.2673721 81.3256939,14.3418695 C75.3736597,14.4434568 69.2909601,12.9738272 64.339192,9.58306878 C62.3093726,8.13601411 60.2435076,6.73185185 58.1010456,5.46088183 C56.5826236,4.5556261 54.586597,4.3524515 53.0276236,5.2757672 C51.502443,6.1968254 50.5247053,7.74320988 49.3329468,9.02772487 C39.4271578,20.5409524 29.4380133,31.98194 19.4376046,43.4161552 C18.7752662,44.1724162 18.0949049,45.0212346 18.0138023,46.066455 C17.9146768,47.0349206 18.4395913,47.9243739 19.0681369,48.617425 C20.7375,50.4843739 22.713251,52.0375309 24.5741065,53.7035626 C28.075038,56.7421517 31.5331654,59.9794004 33.8648669,64.0383774 C36.0005703,67.8241975 37.5415209,71.9915344 38.0461597,76.3236684 C38.6566825,81.2562963 37.7623004,86.3311464 35.655884,90.8213051 C31.6638308,99.3094885 27.6582605,107.815732 24.5515779,116.67866 C28.7463878,116.708007 32.9411977,116.70575 37.1337548,116.683175 C38.8932319,112.193016 40.700019,107.720917 42.7636312,103.361693 C44.6244867,99.1943563 46.9989924,95.2414815 48.3461977,90.8596825 C50.7635076,83.5137919 51.031597,75.4748501 49.0896388,67.9889947 C47.4045057,61.417425 44.0162167,55.3199295 39.4677091,50.3060317 C37.7059791,48.2900882 35.7527567,46.4502293 33.9684981,44.4523457 C39.3640779,38.1155556 44.8587833,31.8600353 50.2813973,25.5458201 C52.5545247,22.9813051 54.7150095,20.3174603 57.0241825,17.7868078 C58.1461027,18.2766843 59.1576331,18.9742504 60.2187262,19.5770018 C63.5123954,21.5116755 67.0673954,23.0016226 70.7755894,23.9136508 C77.2728137,25.595485 84.1057129,25.5525926 90.7088213,24.5592945 C99.9139734,23.1935097 108.839772,19.9043386 116.69096,14.8881834 C117.405114,14.4434568 118.083222,13.838448 118.95057,13.7368607 C119.770608,13.7955556 120.4352,14.3508995 121.115561,14.7572487 C132.573565,22.1302293 146.340741,25.9386243 159.95923,25.1146384 C164.816378,24.7602116 169.62847,23.6134039 174.059829,21.5703704 C176.463622,20.5161199 178.657899,19.0645503 180.843165,17.6265256 C186.655523,24.3087125 192.422823,31.0292769 198.232928,37.7137213 C200.183897,40.0547443 202.299325,42.2603175 204.169192,44.6668078 C202.810722,46.1206349 201.310323,47.4299824 199.933831,48.8634921 C194.367034,54.4462787 190.23981,61.5506173 188.583964,69.2983422 C186.761407,77.7752381 187.40347,86.8955203 191.035067,94.8215873 C191.972253,96.8081834 192.995048,98.7518871 193.92097,100.745256 C196.455428,105.944268 198.724049,111.267443 200.780903,116.671887 C204.664819,116.71478 208.550989,116.70575 212.434905,116.67866 C209.672909,108.55619 206.156207,100.704621 202.218222,93.0900882 C200.84173,90.4623633 199.87751,87.6201764 199.350342,84.7012346 C197.865713,76.5719929 199.947348,67.8874074 204.899116,61.2887478 C208.149981,56.9656437 212.574582,53.7667725 216.530589,50.1480071 C217.645751,49.1185891 218.386939,47.5857496 218.13462,46.0461376 C217.841749,44.1791887 216.663508,42.6102293 215.449221,41.224127 C205.653821,29.8982716 195.853916,18.5746737 186.051759,7.25333333 C184.93885,6.01622575 183.555599,4.77008818 181.811892,4.67075838 C179.991587,4.62335097 178.38981,5.65276896 176.943479,6.64155203 C174.539686,8.33467372 172.115618,10.0232804 169.488793,11.3574603 C166.864221,12.7413051 163.971559,13.5156261 161.047357,13.9287478 C155.588698,14.7391887 149.999373,14.3034921 144.635333,13.0844444 C140.483327,12.1385538 136.396654,10.8314638 132.566806,8.96 C128.903669,7.20141093 125.456806,5.02292769 122.178907,2.62998236 C120.766369,1.57573192 118.891996,1.14680776 117.179829,1.61862434 Z M118.369335,18.8388007 C117.1573,19.2857848 116.055656,19.9810935 114.899943,20.5477249 C113.861378,21.1346737 112.68539,21.5319929 111.836065,22.4056437 C110.932671,22.4124162 110.155437,23.0061376 109.405238,23.4486067 C109.673327,23.5185891 109.943669,23.5840564 110.216264,23.6450088 C108.884829,23.299612 107.688565,24.082963 106.494553,24.5322046 C104.503032,25.362963 102.42365,25.9408818 100.364544,26.5752381 C93.067557,28.8869136 85.3290114,29.5822222 77.7121198,29.0878307 C73.1230608,28.7627513 68.5587833,27.8484656 64.2896293,26.110194 C62.0502947,25.3652205 60.0497624,24.0987654 57.9005418,23.1573898 C56.2469487,24.7737566 54.8299049,26.615873 53.2912072,28.3428571 C49.465865,32.787866 45.6315114,37.2261023 41.7971578,41.6643386 C41.0762452,42.513157 40.2719772,43.2942504 39.6727186,44.2401411 C40.0962548,44.9196473 40.6166635,45.5314286 41.1956464,46.0822575 C44.2865589,49.1885714 46.6723289,52.8976367 48.8688593,56.6676543 C49.5086692,57.8031746 49.9885266,59.0199647 50.6238308,60.16 C50.8919202,60.6069841 50.9369772,61.3203527 51.4010646,61.5822222 C51.7705323,63.3520988 52.565789,64.9932981 53.0028422,66.7473721 C54.1112452,70.3548501 54.3838403,74.1384127 54.6113783,77.8858554 C54.4469202,81.0418342 54.1946008,84.211358 53.5390209,87.3108995 C53.0231179,89.4148854 52.4689163,91.5166138 51.6646483,93.5325573 C50.6283365,96.5621164 49.1527186,99.4110758 47.8122719,102.311958 C47.2445532,103.494885 46.609249,104.652981 46.2330228,105.917178 C45.6360171,106.942081 45.2192395,108.052769 44.741635,109.134109 C44.1896863,110.147725 43.82923,111.247125 43.3561312,112.296861 C42.7681369,113.73037 42.0427186,115.120988 41.673251,116.635767 C45.3521578,116.780247 49.0355703,116.656085 52.71673,116.69672 C57.9410932,116.685432 63.1654563,116.719295 68.3875665,116.685432 C70.3002376,116.689947 72.2151616,116.741869 74.1278327,116.656085 C81.5577376,116.735097 88.9898954,116.676402 96.4220532,116.703492 C97.9539924,116.708007 99.5332414,116.969877 101.020124,116.46194 C101.556302,116.689947 102.148802,116.698977 102.723279,116.703492 C111.302139,116.67866 119.880998,116.71478 128.459857,116.685432 C128.347215,115.051005 128.342709,113.407549 128.164734,111.779894 C128.144458,110.976226 127.137433,110.326067 126.439049,110.714356 C125.441036,110.481834 124.465551,110.14321 123.604962,109.576578 C122.953888,109.097989 122.084287,109.384691 121.476017,109.788783 C121.135837,110.621799 121.750865,111.601552 121.460247,112.4594 C121.099791,113.105044 120.270741,113.066667 119.635437,113.118589 C117.263184,113.147937 114.823346,113.240494 112.536702,112.493263 C111.96673,112.265256 111.245817,111.804727 111.335932,111.095873 C111.601768,110.226737 112.455599,109.567549 112.38576,108.596825 C112.331692,106.280635 111.928432,103.991534 111.606274,101.702434 C110.86058,101.404444 109.477329,101.406702 109.567443,100.300529 C110.0473,99.6323104 110.89212,99.3794709 111.444068,98.7834921 C111.628802,98.1942857 111.26384,97.6411993 111.038555,97.1264903 C109.790475,94.6409877 109.639534,91.4601764 111.173726,89.0649735 C111.964477,87.7014462 113.381521,86.8977778 114.338983,85.6719577 C114.782795,85.0895238 115.645637,84.4551675 115.271663,83.6266667 C114.805323,82.8455732 113.730713,82.3353792 113.827586,81.2991887 C114.111445,80.3352381 115.355019,80.0101587 115.557776,78.9988007 C115.769544,78.4682892 115.719981,77.7391182 116.231378,77.3869489 C116.970314,77.1657143 117.819639,77.2740741 118.495494,77.6488183 C118.991122,78.1748148 118.955076,79.0574956 119.561093,79.5135097 C120.020675,79.9650088 120.813679,80.2833157 120.770875,81.0440917 C120.734829,82.1818695 119.380865,82.6130511 119.042937,83.6153792 C118.889743,84.3106878 119.342567,84.9202116 119.793137,85.3920282 C120.710048,86.3582363 121.527833,87.4170018 122.555133,88.2725926 C123.490067,89.0356261 124.026245,90.2185538 124.001464,91.4263139 C123.9902,93.2526279 124.195209,95.2189065 123.27154,96.8781658 C122.859268,97.7089242 122.03923,98.2191182 121.530086,98.9753792 C121.33634,99.4313933 121.762129,99.7767901 122.055,100.05672 C122.6475,100.566914 123.298574,101.131287 124.120865,101.180952 C125.317129,101.289312 126.526911,101.25545 127.723175,101.131287 C127.883127,100.587231 128.038574,100.03866 128.081378,99.4720282 C128.272871,96.9300882 128.721188,94.3813757 129.69442,92.0155203 C131.255646,88.1529453 133.805875,84.7870194 136.673755,81.8048677 C137.969144,80.3781305 140.077814,79.9853263 141.132148,78.3080071 C141.614259,77.560776 142.019772,76.7367901 142.053565,75.8315344 C142.114392,74.3935097 142.18423,72.9441975 142.033289,71.5106878 C141.632281,71.3007407 141.20424,71.1269136 140.852795,70.8356966 C140.528384,70.38194 140.377443,69.8311111 140.064297,69.3728395 C139.338878,68.9597178 138.496312,68.8152381 137.716825,68.5330511 C137.336093,66.6164374 137.773146,64.6659612 137.628964,62.73806 C137.57039,61.6634921 136.806673,60.7243739 136.989154,59.6249735 C137.369886,56.6473369 136.698536,53.5477954 137.743859,50.662716 C138.467025,48.7731922 139.404211,46.9671958 140.436017,45.2289242 C141.974715,42.6734392 143.790513,40.0637743 146.532234,38.7047619 C147.165285,38.3638801 147.947025,38.5896296 148.390837,39.1314286 C151.988641,42.991746 154.849762,47.7618342 155.640513,53.0511464 C155.904097,55.796261 156.043774,58.5549206 156.260048,61.3045503 C156.395219,62.6680776 156.665561,64.0383774 156.465057,65.4109347 C156.413241,66.1310758 156.160922,66.9031393 156.485333,67.593933 C156.719629,68.1741093 157.140913,68.6797884 157.264819,69.3028571 C157.20174,70.3480776 155.95366,70.6234921 155.548146,71.4632804 C155.340884,72.4949559 155.807224,73.5853263 156.525884,74.3190123 C157.046293,74.8630688 157.821274,74.9669136 158.526416,75.0797884 C159.839829,75.3619753 161.067633,75.9150617 162.354011,76.289806 C164.241901,77.5291711 166.170342,78.9807407 167.024173,81.163739 C168.281264,84.2452205 167.429686,87.6450088 166.695257,90.7490653 C166.150067,93.45806 165.224144,96.0632099 164.52576,98.7315697 C162.996074,103.657425 160.858118,108.359788 159.123422,113.213404 C158.72692,114.353439 158.143432,115.43478 157.931663,116.635767 C158.902643,116.737354 159.878127,116.744127 160.853612,116.708007 C169.087785,116.6606 177.321958,116.746384 185.553878,116.66963 C186.691568,116.710265 187.833764,116.735097 188.971454,116.65157 C191.384259,116.721552 193.806074,116.762187 196.218878,116.647055 C195.914743,115.527337 195.410105,114.479859 195.000086,113.398519 C194.452643,112.059824 193.986302,110.671464 193.20231,109.445644 C193.015323,108.459118 192.45211,107.59224 192.035333,106.693757 C189.928916,101.420247 186.957405,96.496649 185.391673,91.0064198 C183.650219,85.4620106 183.089259,79.5789771 183.582633,73.7975309 C184.839724,63.248254 189.841055,53.272381 197.167329,45.6420459 C197.561578,45.1589418 198.072975,44.6938977 198.194629,44.057284 C198.000884,43.6735097 197.712519,43.3506878 197.437671,43.0301235 C193.008565,38.0546032 188.773203,32.9075132 184.323821,27.9545679 C183.023926,26.4646208 181.847937,24.857284 180.439905,23.4734392 C180.034392,23.026455 179.466673,23.3808818 178.995827,23.4802116 L178.986816,23.6359788 C178.937253,23.7240212 178.84038,23.8978483 178.79307,23.9858907 C177.700437,24.2229277 176.736217,24.8053616 175.744962,25.2907231 C168.229449,28.7176014 159.80153,29.8350617 151.614667,29.1149206 C149.726778,28.9049735 147.814106,28.8936861 145.953251,28.4850794 C136.96212,27.157672 128.288641,23.8955908 120.514049,19.2022575 C119.871987,18.8410582 119.097006,18.5520988 118.369335,18.8388007 Z M1.42605513,117.915767 C1.41704373,130.42455 1.40577947,142.935591 1.43056084,155.446631 C8.95508555,155.437601 16.4773574,155.453404 24.0018821,155.442116 C24.6394392,151.263492 25.3423289,147.093898 25.9393346,142.908501 C25.9686217,142.700811 26.0722529,142.540529 26.2479753,142.423139 C26.252481,152.41933 26.2434696,162.41552 26.252481,172.411711 C23.5040019,173.197319 20.6856844,173.730088 17.9146768,174.436684 C17.6803802,174.508924 17.5857605,174.685009 17.6353232,174.958166 C17.6285646,182.346949 17.6420817,189.735732 17.6285646,197.126772 C18.5094297,197.187725 19.3925475,197.196755 20.2756654,197.18321 C32.2157795,197.171922 44.1558935,197.189982 56.0960076,197.17418 C58.7723954,197.115485 61.4555418,197.289312 64.127424,197.099683 C64.1048954,189.588995 64.1206654,182.076049 64.1184125,174.563104 C61.2460266,173.775238 58.3285837,173.154427 55.4471863,172.404938 C55.3097624,170.323527 55.4224049,168.235344 55.3863593,166.151675 C55.3863593,159.302434 55.3886122,152.45545 55.3886122,145.606208 C55.3886122,144.579048 55.3345437,143.545115 55.4607034,142.524727 C55.6093916,142.888183 55.7445627,143.262928 55.8053897,143.655732 C56.3776141,147.577002 57.0354468,151.486984 57.6234411,155.405996 C59.1396103,155.494039 60.6602852,155.424056 62.1787072,155.442116 C68.1510171,155.428571 74.123327,155.473721 80.093384,155.426314 C80.1789924,150.717178 80.0573384,146.003527 80.1497053,141.294392 C81.9970437,141.702998 83.8150951,142.235767 85.6466635,142.712099 C85.7998574,144.048536 85.6894677,145.394004 85.714249,146.737213 C85.6984791,155.308924 85.7502947,163.882892 85.6917205,172.452346 C83.1527567,173.199577 80.5507129,173.727831 78.0342776,174.545044 C78.0049905,182.069277 78.0365304,189.591252 78.0162548,197.115485 C79.942443,197.259965 81.8753897,197.142575 83.8060837,197.178695 C100.781321,197.178695 117.756559,197.17418 134.731797,197.180952 C135.189125,197.20127 135.639696,197.07485 135.982129,196.763316 C141.312376,192.320564 146.640371,187.877813 151.979629,183.446349 C152.587899,183.080635 152.475257,182.340176 152.482015,181.73291 C152.41443,174.536014 152.551854,167.327831 152.421188,160.137707 C150.988375,158.686138 149.285219,157.523527 147.764544,156.166772 C149.093726,154.857425 150.715779,153.875414 152.017928,152.541235 C152.155352,151.665326 152.06749,150.775873 152.08326,149.897707 C152.08326,144.098201 152.078755,138.300952 152.087766,132.501446 C152.08326,132.06575 152.087766,131.573616 151.670989,131.318519 C146.48943,126.959295 141.287595,122.620388 136.1173,118.247619 C135.80866,117.936085 135.371606,117.893192 134.961587,117.902222 C90.4497433,117.915767 45.9378992,117.888677 1.42605513,117.915767 Z M153.455247,117.908995 C153.342605,121.044656 153.434971,124.184832 153.405684,127.322751 C153.434971,131.763245 153.344857,136.208254 153.450741,140.648748 C155.951407,141.477249 158.546692,141.967125 161.067633,142.721129 C161.209563,144.88381 161.090162,147.053263 161.12846,149.220459 C161.101426,156.961411 161.180276,164.704621 161.090162,172.445573 C158.555703,173.188289 155.964924,173.739118 153.44173,174.520212 C153.407937,175.190688 153.387662,175.863422 153.39442,176.538413 C153.428213,183.405714 153.371892,190.273016 153.428213,197.140317 C156.27807,197.217072 159.127928,197.15612 161.980038,197.178695 C174.596008,197.17418 187.211977,197.178695 199.827947,197.178695 C211.772567,197.15612 223.721692,197.226102 235.666312,197.144832 C235.713622,191.85552 235.670817,186.566208 235.684335,181.276896 C235.64153,179.035203 235.774449,176.788995 235.619002,174.549559 C232.847994,173.653333 229.98462,173.04381 227.231635,172.106949 C226.582814,171.215238 226.181806,170.170018 225.629857,169.221869 C222.268603,162.855732 218.823992,156.530229 215.521312,150.132487 C217.690808,148.206843 219.986464,146.427937 222.182994,144.533898 C222.804781,144.030476 223.386017,143.38709 224.210561,143.238095 C228.020133,142.450229 231.845475,141.707513 235.64153,140.85418 C235.745162,138.677954 235.655048,136.499471 235.684335,134.320988 C235.648289,128.853333 235.756426,123.381164 235.632519,117.915767 C208.240095,117.89545 180.847671,117.906737 153.455247,117.908995 Z M81.354981,142.903986 C81.1905228,147.40769 81.3977852,151.924938 81.2738783,156.430899 C79.7329278,156.868854 78.1131274,156.512169 76.5406369,156.708571 C75.1393631,156.561834 73.7245722,156.602469 72.3210456,156.685996 C67.8130894,156.555062 63.3028802,156.672451 58.794924,156.609242 C58.0672529,156.588924 57.3395817,156.631817 56.6186692,156.708571 C56.5353137,159.478519 56.6096578,162.250723 56.5848764,165.022928 C56.6119106,167.174321 56.5263023,169.327972 56.6389449,171.479365 C59.5090779,172.242399 62.4310266,172.815802 65.2853897,173.642046 C65.3619867,180.701235 65.2831369,187.762681 65.3236882,194.821869 C65.3597338,195.986737 65.4318251,197.158377 65.2313213,198.316473 C63.4515684,198.460952 61.665057,198.251005 59.8898099,198.458695 C60.2277376,198.797319 60.572424,199.133686 60.9621673,199.420388 C64.886635,202.115838 68.912481,204.671323 73.1365779,206.874638 C78.7033745,209.809383 84.3985837,212.48903 90.0802757,215.191252 C95.1469392,217.73545 100.2902,220.153228 105.136084,223.112804 C106.690551,224.121905 108.339639,224.986526 109.833279,226.090441 C110.28385,226.401975 110.761454,226.815097 111.353954,226.688677 C111.996017,227.460741 112.827319,228.049947 113.717196,228.505961 C114.102433,228.968748 114.656635,229.235132 115.152262,229.564727 C116.582823,230.43612 117.882719,231.51746 119.387624,232.264691 C121.246226,230.898907 123.077795,229.501517 124.931892,228.133474 C127.867357,226.158166 130.796065,224.169312 133.868954,222.412981 C134.587614,222.128536 134.56058,221.302293 134.619154,220.654392 C134.713774,218.963527 134.887243,217.279436 135.015656,215.590829 C135.569857,209.897425 135.923555,204.181446 136.024933,198.460952 C134.542557,198.29164 133.051169,198.37291 131.56654,198.361623 C127.957471,198.35485 124.350656,198.377425 120.74384,198.343563 C120.171616,198.311958 119.554335,198.41806 119.23443,198.948571 C117.366816,201.519859 115.591568,204.163386 113.723954,206.734674 C112.689895,208.165926 111.795513,209.746173 110.387481,210.854603 C109.436778,211.579259 108.468051,212.351323 107.28981,212.665115 C106.751378,211.811781 107.023973,210.773333 107.197443,209.854533 C107.751644,207.310335 109.292595,205.167972 110.709639,203.041411 C111.721169,201.510829 112.966996,200.124727 113.750989,198.451922 C113.081892,198.393228 112.410542,198.359365 111.741445,198.359365 C107.0848,198.361623 102.430409,198.359365 97.7737643,198.359365 C96.1900095,198.368395 94.601749,198.30067 93.0270057,198.494815 L92.9526616,198.35485 C90.7268441,198.330018 88.5122909,198.630265 86.2842205,198.521905 C83.1392395,198.506102 79.9942586,198.551252 76.8492776,198.512875 C76.8650475,190.169171 76.7794392,181.820952 76.8965875,173.479506 C77.2840779,173.407266 77.6693156,173.323739 78.0590589,173.258272 C79.0638308,172.976085 80.0776141,172.725503 81.0823859,172.443316 C82.2223289,172.204021 83.3510076,171.906032 84.4481464,171.508713 C84.666673,169.806561 84.5134791,168.086349 84.5540304,166.377425 C84.5517776,159.98194 84.5562833,153.584198 84.5540304,147.188713 C84.5472719,146.005785 84.6396388,144.813827 84.4594106,143.637672 C83.4591445,143.265185 82.4205798,142.998801 81.354981,142.903986 Z M217.010447,150.439506 C217.679544,151.735309 218.310342,153.060459 219.119116,154.277249 C219.166426,152.435132 219.155162,150.590758 219.085323,148.750899 C218.339629,149.243034 217.659268,149.827725 217.010447,150.439506 Z M17.8696198,156.704056 C18.2638688,162.027231 19.1514924,167.316543 20.6135932,172.452346 C22.1139924,172.341728 23.5513118,171.851852 25.0111597,171.524515 C25.1215494,169.885573 25.0314354,168.242116 25.0584696,166.603175 C25.0404468,163.284656 25.0945152,159.966138 25.0336882,156.647619 C22.6456654,156.647619 20.2531369,156.550547 17.8696198,156.704056 Z M162.928489,198.506102 C161.087909,198.287125 159.20903,198.260035 157.372956,198.519647 C157.262567,199.366208 157.172452,200.217284 157.136407,201.072875 C157.055304,201.984903 156.93365,202.892416 156.877329,203.808959 C157.77847,203.450018 158.733679,203.282963 159.668612,203.041411 C161.058622,203.854109 162.468907,204.666808 163.579563,205.858765 C164.088707,206.27866 164.694724,207.16134 165.41789,206.617284 C168.898546,204.678095 172.329639,202.630547 175.598527,200.348219 C176.283394,199.88769 177.071892,199.483598 177.425589,198.688959 C177.617082,198.684444 177.806321,198.65284 178.000067,198.630265 C175.742709,198.44515 173.478593,198.542222 171.218983,198.524162 C169.637481,198.546737 168.067243,198.275838 166.485741,198.359365 C165.302994,198.433862 164.079696,198.185538 162.928489,198.506102 Z M34.8831559,198.402257 C35.2638878,198.871817 35.6603897,199.327831 36.0681559,199.772557 C45.1156084,209.701023 56.3550856,217.412628 68.2636597,223.492063 C73.0892681,226.000141 78.1288973,228.054462 83.0401141,230.384198 C90.2357224,233.849453 97.2263213,237.766208 103.840694,242.256367 C107.219971,244.60642 109.952681,247.726279 112.662861,250.794215 C113.782529,251.99746 114.800817,253.388078 116.321492,254.119506 C117.716008,254.84642 119.466473,254.835132 120.840713,254.056296 C122.140608,253.38582 123.080048,252.23224 124.044268,251.166702 C126.569715,248.36515 129.034335,245.459753 132.057662,243.175168 C139.104582,237.772981 146.928736,233.472451 155.007462,229.835626 C162.563527,226.562257 170.022719,223.022504 177.087662,218.77164 C184.961378,214.053474 192.407053,208.529383 198.820922,201.935238 C199.893279,200.78843 201.035475,199.693545 201.952386,198.411287 C196.739287,198.314215 191.523935,198.40903 186.310837,198.36388 C185.655257,198.375168 184.909563,198.275838 184.395913,198.777002 C176.402795,205.400494 167.285504,210.506949 157.929411,214.920353 C153.741359,216.915979 149.442918,218.68134 145.295418,220.765009 C137.36538,224.674991 129.734971,229.271252 122.881797,234.883386 C121.489534,235.930864 120.390143,237.287619 119.180361,238.526984 C116.222367,235.847337 113.178764,233.255732 109.903118,230.971146 C102.450684,225.670547 94.2795913,221.49418 86.0048669,217.651922 C81.2716255,215.423774 76.44827,213.376226 71.8434411,210.886208 C65.3529753,207.472875 59.1418631,203.48388 53.5052281,198.779259 C52.9938308,198.266808 52.2436312,198.370653 51.5903042,198.361623 C46.0212548,198.406772 40.4522053,198.323245 34.8831559,198.402257 Z" id="Shape"></path>
                <path d="M3.64286122,120.1394 C28.3926901,120.123598 53.142519,120.11231 77.8900951,120.143915 C77.9103707,131.165009 77.9103707,142.18836 77.8900951,153.211711 C71.7758555,153.220741 65.661616,153.234286 59.5473764,153.204938 C58.8377281,148.949559 58.186654,144.68515 57.549097,140.418483 C56.1072719,140.228854 54.647424,140.328183 53.2010932,140.362046 C53.219116,151.629206 53.158289,162.900882 53.2303802,174.168042 C56.120789,174.870123 59.0314734,175.511252 61.8925951,176.323951 C61.8858365,182.536578 61.8971008,188.749206 61.8880894,194.959577 C47.8821103,194.964092 33.878384,194.950547 19.8746578,194.968607 C19.8250951,188.751464 19.8678992,182.532063 19.8543821,176.314921 C22.6681939,175.481905 25.5676141,174.976226 28.4039544,174.22448 C28.5346198,170.784056 28.4197243,167.336861 28.4580228,163.89418 C28.4422529,156.049383 28.4918156,148.202328 28.4332414,140.359788 C27.0004278,140.303351 25.5653612,140.289806 24.1348004,140.368818 C23.3823479,144.637743 22.8822148,148.949559 22.0531654,153.202681 C15.9186502,153.234286 9.78188213,153.220741 3.64736692,153.209453 C3.62258555,142.186102 3.63159696,131.162751 3.64286122,120.1394 Z M7.39611217,123.891358 C7.32627376,126.839647 7.38935361,129.790194 7.3668251,132.740741 C7.38935361,138.31224 7.32627376,143.885996 7.39836502,149.457496 C11.2259601,149.471041 15.0625665,149.545538 18.8879087,149.423633 C19.6200856,145.156966 20.1990684,140.867725 20.9470152,136.605573 C24.6912548,136.519788 28.44,136.533333 32.1819867,136.596543 C32.2000095,150.123457 32.2202852,163.652628 32.1729753,177.179541 C29.3411407,177.949347 26.4552376,178.506949 23.6188973,179.260952 C23.562576,183.22963 23.5670817,187.200564 23.6188973,191.169242 C35.1197053,191.207619 46.6205133,191.198589 58.1190684,191.173757 C58.2114354,188.704056 58.1348384,186.232099 58.1596198,183.760141 C58.125827,182.231817 58.247481,180.69672 58.0740114,179.175168 C55.1858555,178.529524 52.322481,177.780035 49.4433365,177.096014 C49.4072909,163.602963 49.4546008,150.107654 49.4185551,136.614603 C51.4934316,136.488183 53.5705608,136.585256 55.6454373,136.555908 C57.3418346,136.587513 59.0427376,136.479153 60.7346293,136.625891 C61.3811977,140.8903 62.075076,145.150194 62.7238973,149.414603 C64.3414449,149.550053 65.965751,149.452981 67.5855513,149.480071 C69.7730703,149.459753 71.9583365,149.522963 74.1458555,149.450723 C74.1954183,140.933192 74.184154,132.411146 74.1526141,123.893616 C63.852576,123.848466 53.552538,123.886843 43.2547529,123.873298 C31.3011217,123.886843 19.3497433,123.850723 7.39611217,123.891358 Z" id="Shape"></path>
                <path d="M80.2600951,120.143915 C98.1927947,120.098765 116.127747,120.14843 134.060447,120.119083 C134.54481,120.09425 135.04269,120.180035 135.400894,120.538977 C139.194696,123.735591 142.986245,126.934462 146.789059,130.122046 C147.773555,131.031817 148.945038,131.747443 149.810133,132.776861 C149.961074,134.187795 149.830409,135.612275 149.87096,137.029982 C149.837167,141.833933 149.938546,146.646914 149.821397,151.446349 C148.131759,153.171076 146.023089,154.453333 144.313175,156.16903 C146.156008,157.758307 148.068679,159.268571 149.927281,160.839788 C150.267462,161.058765 150.242681,161.485432 150.256198,161.844374 C150.240428,168.402399 150.258451,174.960423 150.247186,181.51619 C150.299002,181.884162 150.069211,182.175379 149.798869,182.389841 C144.853859,186.460106 139.951654,190.582293 135.029173,194.675132 C134.758831,194.914427 134.398375,194.973122 134.051435,194.966349 C116.120989,194.955062 98.1905418,194.957319 80.2623479,194.964092 C80.2465779,188.704056 80.2217966,182.444021 80.2736122,176.183986 C82.8215875,175.457072 85.4303897,174.937848 87.9378137,174.084515 C87.9423194,163.079224 87.9445722,152.073933 87.9378137,141.068642 C85.4168726,140.253686 82.8170817,139.70963 80.2691065,138.991746 C80.2285551,132.709136 80.2443251,126.426526 80.2600951,120.143915 Z M83.997576,123.893616 C83.9795532,127.952593 83.9277376,132.016085 84.0246103,136.075062 C86.5545627,136.847125 89.1611122,137.343774 91.6752947,138.160988 C91.7090875,138.984974 91.715846,139.813474 91.7068346,140.641975 C91.6888118,152.762469 91.7248574,164.88522 91.6888118,177.005714 C89.1768821,177.809383 86.5883555,178.348924 84.0538973,179.08261 C83.8939449,180.410018 84.0043346,181.748713 83.9773004,183.082892 C83.9953232,185.7806 83.936749,188.480564 84.0065875,191.180529 C100.16404,191.209877 116.323745,191.173757 132.481198,191.198589 C132.911492,191.196332 133.382338,191.189559 133.718013,190.871252 C137.784411,187.505326 141.819268,184.098765 145.894677,180.744127 C146.192053,180.464198 146.575038,180.166208 146.509705,179.707937 C146.516464,174.283175 146.516464,168.853898 146.511958,163.429136 C146.572785,162.968607 146.214582,162.654815 145.908194,162.383915 C143.40077,160.302504 140.877576,158.239153 138.385922,156.139683 C140.877576,153.929594 143.524677,151.897848 146.086169,149.771287 C146.151502,145.224691 146.079411,140.675838 146.119962,136.129242 C146.108698,135.573898 146.167272,135.009524 146.052376,134.465467 C145.64461,133.975591 145.106179,133.616649 144.626321,133.205785 C141.105114,130.262011 137.597424,127.304691 134.089734,124.345115 C133.711255,123.995203 133.220133,123.819118 132.708736,123.866526 C116.472433,123.898131 100.233878,123.843951 83.997576,123.893616 Z" id="Shape"></path>
                <path d="M155.658536,120.137143 C165.72653,120.11231 175.792272,120.134885 185.860266,120.128113 C188.455551,120.150688 191.053089,120.080705 193.650627,120.15746 C193.62134,126.354286 193.646122,132.551111 193.63711,138.747937 C192.046597,139.522257 190.352452,140.064056 188.775456,140.874497 C188.746169,143.653474 188.746169,146.432451 188.779962,149.213686 C192.265124,146.222504 195.69847,143.17037 199.167861,140.161129 C198.081987,139.659965 196.935285,139.30328 195.865181,138.763739 C195.853916,132.562399 195.869686,126.358801 195.856169,120.155203 C208.382025,120.096508 220.90788,120.13037 233.433736,120.1394 C233.494563,126.440071 233.474287,132.745256 233.445,139.048183 C230.471236,139.714145 227.481702,140.298836 224.498926,140.91739 C223.622567,141.109277 222.647082,141.181517 221.962215,141.82716 C219.024496,144.310406 216.050732,146.748501 213.104002,149.218201 C212.883222,149.389771 212.626397,149.653898 212.867452,149.929312 C216.724335,157.19619 220.585722,164.460811 224.451616,171.723175 C224.852624,172.454603 225.168023,173.242469 225.668156,173.91746 C226.567044,174.400564 227.610114,174.522469 228.574335,174.836261 C230.083745,175.303563 231.624696,175.664762 233.131854,176.138836 C233.532861,176.202046 233.431483,176.682892 233.469781,176.974109 C233.463023,181.193369 233.465276,185.41037 233.465276,189.62963 C233.431483,191.408536 233.544125,193.1897 233.404449,194.966349 C220.93942,194.957319 208.474392,194.955062 196.009363,194.966349 C195.876445,189.428713 196.00711,183.884303 195.946283,178.342152 C195.935019,177.682963 195.9598,177.026032 196.011616,176.369101 C197.370086,175.757319 198.782624,175.27873 200.150105,174.685009 C199.465238,173.086702 198.496511,171.630617 197.687738,170.093263 C196.58384,168.187937 195.601597,166.21037 194.439125,164.341164 C192.776521,165.686631 191.156721,167.088536 189.507633,168.452063 C189.194487,168.75231 188.716882,169.027725 188.773203,169.531146 C188.766445,171.147513 188.674078,172.777425 188.8498,174.389277 C190.413279,175.025891 192.012804,175.578977 193.544743,176.292346 C193.916464,176.427795 193.797063,176.89284 193.84212,177.199859 C193.830856,181.193369 193.837614,185.184621 193.835361,189.178131 C193.792557,191.106032 193.927728,193.040705 193.767776,194.966349 C181.075209,194.955062 168.382643,194.959577 155.690076,194.964092 C155.536882,191.458201 155.665295,187.945538 155.624743,184.43739 C155.681065,181.685503 155.507595,178.924586 155.710352,176.181728 C158.226787,175.499965 160.752234,174.843034 163.275428,174.183845 C163.3723,166.16522 163.288945,158.142081 163.315979,150.123457 C163.275428,147.078095 163.392576,144.028219 163.275428,140.985115 C160.743222,140.321411 158.208764,139.680282 155.681065,139.003034 C155.543641,133.533122 155.667548,128.05418 155.620238,122.582011 C155.608973,121.764797 155.617985,120.949841 155.658536,120.137143 Z M159.36673,123.936508 C159.393764,127.97291 159.368983,132.01157 159.377994,136.047972 C161.907947,136.817778 164.494221,137.388924 167.039943,138.100035 C167.143574,143.536085 167.05346,148.976649 167.085,154.412698 C167.060219,161.964021 167.13231,169.517601 167.048954,177.066667 C164.496473,177.76649 161.92597,178.394074 159.3825,179.123245 C159.36673,183.134815 159.393764,187.146384 159.36673,191.157954 C163.090694,191.234709 166.816911,191.166984 170.540875,191.189559 C177.051616,191.171499 183.56461,191.225679 190.075352,191.164727 C190.059582,187.074145 190.109144,182.983563 190.05057,178.895238 C188.381207,178.229277 186.705086,177.590406 185.04924,176.897354 C184.988413,174.064198 185.055998,171.231041 185.015447,168.400141 C185.035722,167.919295 184.916321,167.330088 185.384914,167.023069 C187.369677,165.32769 189.390485,163.66843 191.386511,161.982081 C192.796797,160.842046 194.110209,159.575591 195.592586,158.53037 C198.838945,164.571429 202.288061,170.501869 205.536673,176.54067 C203.644278,177.463986 201.598688,178.030617 199.724316,178.990053 C199.740086,183.051287 199.670247,187.11478 199.760361,191.176014 C209.742747,191.187302 219.727386,191.225679 229.709772,191.157954 C229.698508,187.135097 229.714278,183.114497 229.70076,179.093898 C227.542529,178.333122 225.235608,177.996755 223.131445,177.114074 C222.23481,175.786667 221.615276,174.289947 220.817766,172.901587 C216.546359,164.803951 212.17808,156.753721 207.960741,148.628995 C211.64866,145.524938 215.365865,142.457002 219.065048,139.36649 C219.88058,138.725362 220.590228,137.813333 221.678356,137.653051 C224.35249,137.111252 227.026625,136.564938 229.698508,136.009594 C229.721036,131.986737 229.691749,127.96388 229.712025,123.94328 C226.814857,123.780741 223.906426,123.920705 221.004753,123.873298 C213.878983,123.891358 206.753213,123.841693 199.629696,123.898131 C199.629696,128.02709 199.598156,132.156049 199.645466,136.285009 C201.803698,137.215097 204.004734,138.039083 206.171977,138.944339 C204.723394,140.409453 203.094582,141.682681 201.56039,143.059753 C197.433165,146.674004 193.29693,150.276966 189.162947,153.886702 C187.777443,155.053827 186.488812,156.342857 185.028964,157.417425 C185.015447,151.369594 185.044734,145.321764 185.013194,139.273933 C185.026711,138.951111 184.997424,138.617002 185.116825,138.314497 C186.65327,137.549206 188.291093,137.002892 189.850067,136.282751 C189.915399,132.158307 189.859078,128.031605 189.877101,123.90716 C182.755837,123.828148 175.634572,123.898131 168.513308,123.873298 C165.4652,123.918448 162.410333,123.787513 159.36673,123.936508 Z" id="Shape"></path>
                <path d="M108.90961,137.585326 C114.287167,137.574039 119.664724,137.587584 125.042281,137.578554 C125.801492,137.528889 126.279097,138.219683 126.822034,138.635062 C127.572234,139.332628 128.448593,139.897002 129.122196,140.678095 C129.279895,142.238025 129.135713,143.816014 129.183023,145.382716 C129.135713,146.642399 129.302424,147.924656 129.099667,149.173051 C128.148964,150.121199 127.054078,150.920353 126.0448,151.805291 C125.472576,152.371922 124.63001,152.198095 123.906844,152.227443 C118.905513,152.161975 113.899677,152.308713 108.902852,152.155203 C108.92538,147.29933 108.90961,142.441199 108.90961,137.585326 Z M112.68539,141.364374 C112.680884,143.727972 112.658356,146.093827 112.70116,148.457425 C116.292205,148.446138 119.883251,148.44388 123.474297,148.457425 C124.492586,148.540952 125.603241,147.599577 125.432025,146.529524 C125.382462,145.134392 125.53115,143.725714 125.353175,142.344127 C124.87557,141.804586 124.247025,141.256014 123.472044,141.348571 C119.876492,141.371146 116.280941,141.337284 112.68539,141.364374 Z" id="Shape"></path>
                <path d="M190.965228,142.341869 C192.265124,141.757178 193.55826,141.111534 194.950523,140.779683 C193.718213,142.050653 192.371008,143.226808 190.951711,144.285573 C190.949458,143.635414 190.956217,142.987513 190.965228,142.341869 Z" id="Shape"></path>
                <path d="M114.911207,143.592522 C117.670951,143.524797 120.4352,143.533827 123.197196,143.583492 C123.228736,144.461658 123.228736,145.339824 123.19269,146.220247 C120.430694,146.236049 117.668698,146.229277 114.908954,146.222504 C114.83461,145.346596 114.839116,144.466173 114.911207,143.592522 Z M117.592101,144.764162 C117.625894,144.834145 117.697985,144.974109 117.731778,145.044092 C119.13981,145.100529 120.559106,145.102787 121.969392,145.046349 C122.003184,144.974109 122.075276,144.834145 122.111321,144.761905 C120.604163,144.705467 119.097006,144.707725 117.592101,144.764162 Z" id="Shape"></path>
                <path d="M108.934392,161.018131 C109.017747,160.979753 109.186711,160.898483 109.270067,160.857848 C114.375029,160.819471 119.482243,160.871393 124.587205,160.835273 C126.119144,160.584691 127.029297,162.043034 128.142205,162.815097 C128.658108,163.307231 129.523203,163.711323 129.394791,164.557884 C129.388032,167.650653 129.397044,170.743422 129.392538,173.83619 C129.475894,174.481834 128.831578,174.818201 128.423812,175.18843 C127.520418,175.856649 126.695875,176.628713 125.776711,177.276614 C125.43653,177.536226 124.990466,177.488818 124.593964,177.511393 C120.608669,177.491076 116.625627,177.504621 112.642586,177.500106 C111.396759,177.491076 110.146426,177.556543 108.902852,177.436896 C108.943403,171.964727 108.875817,166.488042 108.934392,161.018131 Z M112.683137,164.616578 C112.683137,167.657425 112.662861,170.700529 112.696654,173.741376 C116.362044,173.727831 120.025181,173.745891 123.69057,173.734603 C124.37769,173.768466 124.89134,173.233439 125.366692,172.811287 C125.740665,172.520071 125.596483,171.991817 125.646046,171.585467 C125.598736,169.646279 125.695608,167.702575 125.603241,165.765644 C125.251797,165.000353 124.323622,164.490159 123.472044,164.598519 C119.87424,164.630123 116.278688,164.584974 112.683137,164.616578 Z" id="Shape"></path>
                <path d="M114.906702,166.846984 C117.738536,166.777002 120.577129,166.774744 123.406711,166.856014 C123.42924,168.404656 123.426987,169.955556 123.406711,171.506455 C120.572624,171.524515 117.738536,171.515485 114.904449,171.51097 C114.841369,169.955556 114.841369,168.400141 114.906702,166.846984 Z M116.08269,168.018624 C116.026369,168.79746 116.026369,169.580811 116.089449,170.361905 C118.126027,170.337072 120.16711,170.425115 122.201435,170.316755 C122.291549,169.555979 122.314078,168.78843 122.269021,168.023139 C120.207662,167.987019 118.144049,167.982504 116.08269,168.018624 Z" id="Shape"></path>
                <path d="M191.030561,170.244515 C191.778508,169.251217 192.877899,168.582998 193.792557,167.749982 C194.96404,169.632734 195.989087,171.605785 197.059192,173.549489 C196.459933,173.802328 195.865181,174.075485 195.241141,174.2606 C194.745513,174.459259 194.263403,174.131922 193.803821,173.985185 C192.907186,173.590123 191.958736,173.312451 191.102652,172.833862 C190.836816,172.016649 190.960722,171.093333 191.030561,170.244515 Z M192.267376,170.759224 C192.154734,171.147513 192.208802,171.562892 192.197538,171.966984 C193.159506,172.551675 194.238622,172.903845 195.342519,173.100247 C194.921236,171.838307 194.254392,170.603457 193.326217,169.653051 C192.947738,169.989418 192.470133,170.269347 192.267376,170.759224 Z" id="Shape"></path>
            </g>
            <g id="#00468eff" transform="translate(39.650190, 18.511464)" fill="#00468E">
                <path d="M78.7191445,0.327336861 C79.4468156,0.0406349206 80.2217966,0.329594356 80.8638593,0.690793651 C88.6384506,5.38412698 97.3119297,8.64620811 106.303061,9.97361552 C108.163916,10.3822222 110.076587,10.3935097 111.964477,10.6034568 C120.15134,11.3235979 128.579259,10.2061376 136.094772,6.77925926 C137.086027,6.29389771 138.050247,5.71146384 139.14288,5.47442681 C137.640228,12.3439859 135.725304,19.1255026 133.398108,25.7625397 C132.886711,27.2231393 132.427129,28.7040564 131.767044,30.1059612 C130.550504,29.0517108 129.502928,27.8213757 128.299905,26.7535802 C122.557386,21.6155203 115.934002,17.5407407 108.981702,14.2696296 C100.702471,10.4025397 91.9276141,7.66419753 82.9973099,5.7859612 C79.4197814,5.0161552 75.7994487,4.46081129 72.1858745,3.89417989 C73.0351996,3.0205291 74.2111882,2.62320988 75.2497529,2.03626102 C76.4054658,1.46962963 77.5071103,0.774320988 78.7191445,0.327336861 Z" id="Shape"></path>
                <path d="M13.6410171,9.8313933 C15.1797148,8.10440917 16.5967586,6.26229277 18.2503517,4.64592593 C20.3995722,5.58730159 22.4001046,6.85375661 24.6394392,7.59873016 C28.9085932,9.33700176 33.4728707,10.2512875 38.0619297,10.5763668 C45.6788213,11.0707584 53.4173669,10.3754497 60.7143536,8.06377425 C62.7734601,7.42941799 64.8528422,6.85149912 66.8443631,6.02074074 C68.0383745,5.57149912 69.2346388,4.78814815 70.5660741,5.13354497 C81.8663783,6.85375661 93.0405228,9.73432099 103.532053,14.3238095 C110.65557,17.4662434 117.490722,21.3762257 123.485561,26.3765785 C126.015513,28.5053968 128.475627,30.7764374 130.44462,33.4470547 C130.147243,34.3748854 129.775523,35.2756261 129.367757,36.1605644 C127.475361,40.6191182 125.357681,44.9805996 123.048508,49.2382363 C121.719325,51.7169665 120.248213,54.1144268 118.876226,56.5683245 C118.171084,56.4554497 117.396103,56.3516049 116.875694,55.8075485 C116.157034,55.0738624 115.690694,53.9834921 115.897956,52.9518166 C116.30347,52.1120282 117.551549,51.8366138 117.614629,50.7913933 C117.490722,50.1683245 117.069439,49.6626455 116.835143,49.0824691 C116.510732,48.3916755 116.763051,47.619612 116.814867,46.8994709 C117.015371,45.5269136 116.745029,44.1566138 116.609857,42.7930864 C116.393584,40.0434568 116.253907,37.2847972 115.990323,34.5396825 C115.199572,29.2503704 112.338451,24.4802822 108.740646,20.6199647 C108.296835,20.0781658 107.515095,19.8524162 106.882044,20.1932981 C104.140323,21.5523104 102.324525,24.1619753 100.785827,26.7174603 C99.7540209,28.4557319 98.8168346,30.2617284 98.0936692,32.1512522 C97.048346,35.0363316 97.7196958,38.135873 97.3389639,41.1135097 C97.1564829,42.2129101 97.9201996,43.1520282 97.9787738,44.2265961 C98.1229563,46.1544974 97.685903,48.1049735 98.066635,50.0215873 C98.8461217,50.3037743 99.6886882,50.448254 100.414106,50.8613757 C100.727253,51.3196473 100.878194,51.8704762 101.202605,52.3242328 C101.554049,52.6154497 101.982091,52.7892769 102.383099,52.999224 C102.53404,54.4327337 102.464202,55.8820459 102.403375,57.3200705 C102.369582,58.2253263 101.964068,59.0493122 101.481958,59.7965432 C94.3967395,55.1506173 86.6739639,51.5453968 78.7213973,48.6648325 C60.2412548,42.0255379 40.3756084,39.8696296 20.8343726,40.7861728 C17.5452091,41.0570723 14.2290114,41.0841623 10.9736407,41.6485362 C10.3383365,40.5085009 9.85847909,39.2917108 9.2186692,38.1561905 C7.02213878,34.3861728 4.63636882,30.6771076 1.54545627,27.5707937 C0.966473384,27.0199647 0.446064639,26.4081834 0.0225285171,25.7286772 C0.621787072,24.7827866 1.42605513,24.0016931 2.14696768,23.1528748 C5.98132129,18.7146384 9.8156749,14.2764021 13.6410171,9.8313933 Z" id="Shape"></path>
                <path d="M139.345637,4.9687478 C139.816483,4.86941799 140.384202,4.51499118 140.789715,4.96197531 C142.197747,6.34582011 143.373736,7.95315697 144.673631,9.44310406 C149.123013,14.3960494 153.358375,19.5431393 157.787481,24.5186596 C158.062329,24.839224 158.350694,25.1620459 158.544439,25.5458201 C158.422785,26.1824339 157.911388,26.647478 157.517139,27.130582 C150.190865,34.7609171 145.189534,44.7367901 143.932443,55.286067 C143.439068,61.0675132 144.000029,66.9505467 145.741483,72.4949559 C147.307215,77.9851852 150.278726,82.9087831 152.385143,88.1822928 C150.884743,90.369806 149.611882,92.7040564 148.082196,94.8735097 C147.347766,95.9638801 146.615589,97.0542504 145.903688,98.1581658 C137.671768,98.2349206 129.437595,98.1491358 121.203422,98.1965432 C120.227937,98.2326631 119.252452,98.2258907 118.281473,98.1243034 C118.493241,96.9233157 119.07673,95.8419753 119.473232,94.70194 C121.207928,89.8483245 123.345884,85.1459612 124.87557,80.2201058 C125.573954,77.551746 126.499876,74.9465961 127.045067,72.2376014 C127.779496,69.133545 128.631074,65.7337566 127.373983,62.6522751 C126.520152,60.4692769 124.591711,59.0177072 122.703821,57.7783422 C123.582433,55.8775309 124.56693,54.0308995 125.441036,52.1278307 C131.616103,39.0117813 135.903279,25.0356261 138.482795,10.777284 C138.81847,8.90130511 139.223983,7.02984127 139.336625,5.12451499 L139.345637,4.9687478 Z" id="Shape"></path>
                <path d="M11.7508745,43.0707584 C19.0230798,42.7005291 26.3155608,42.7005291 33.5832605,43.1768607 C52.4756749,44.4478307 71.343308,49.0011993 88.1022719,57.9928042 C91.1774144,59.5865961 94.0678232,61.4964374 97.0235646,63.2934039 C94.1556844,66.2755556 91.6054563,69.6414815 90.04423,73.5040564 C89.0709981,75.8699118 88.6226806,78.4186243 88.4311882,80.9605644 C88.388384,81.5271958 88.2329373,82.0757672 88.0729848,82.6198236 C86.8767205,82.7439859 85.6669392,82.7778483 84.4706749,82.6694885 C83.648384,82.6198236 82.9973099,82.0554497 82.4048099,81.5452557 C82.1119392,81.2653263 81.6861502,80.9199295 81.8798954,80.4639153 C82.3890399,79.7076543 83.2090779,79.1974603 83.6213498,78.3667019 C84.545019,76.7074427 84.3400095,74.741164 84.3512738,72.9148501 C84.3760551,71.7070899 83.8398764,70.5241623 82.904943,69.7611287 C81.8776426,68.9055379 81.0598574,67.8467725 80.1429468,66.8805644 C79.6923764,66.4087478 79.2395532,65.799224 79.3927471,65.1039153 C79.7306749,64.1015873 81.0846388,63.6704056 81.1206844,62.5326279 C81.1634886,61.7718519 80.3704848,61.453545 79.910903,61.0020459 C79.3048859,60.5460317 79.3409316,59.663351 78.8453042,59.1373545 C78.1694487,58.7626102 77.3201236,58.6542504 76.5811882,58.875485 C76.0697909,59.2276543 76.1193536,59.9568254 75.9075856,60.4873369 C75.7048289,61.4986949 74.4612548,61.8237743 74.1773954,62.7877249 C74.0805228,63.8239153 75.1551331,64.3341093 75.6214734,65.1152028 C75.9954468,65.9437037 75.1326046,66.57806 74.6887928,67.1604938 C73.7313308,68.3863139 72.3142871,69.1899824 71.5235361,70.5535097 C69.9893441,72.9487125 70.1402852,76.1295238 71.388365,78.6150265 C71.6136502,79.1297354 71.9786122,79.6828219 71.7938783,80.2720282 C71.2419297,80.8680071 70.3971103,81.1208466 69.9172529,81.7890653 C69.8271388,82.8952381 71.2103897,82.8929806 71.9560837,83.19097 C72.2782414,85.4800705 72.6815019,87.7691711 72.7355703,90.0853616 C72.8054087,91.0560847 71.9515779,91.7152734 71.6857414,92.5844092 C71.5956274,93.2932628 72.3165399,93.7537919 72.8865114,93.9817989 C75.1731559,94.72903 77.6129943,94.6364727 79.9852471,94.6071252 C80.6205513,94.5552028 81.4496008,94.5935802 81.810057,93.9479365 C82.1006749,93.0900882 81.4856464,92.1103351 81.825827,91.2773192 C82.434097,90.8732275 83.3036977,90.5865256 83.9547719,91.0651146 C84.8153612,91.631746 85.790846,91.9703704 86.7888593,92.2028924 C84.7522814,93.7944268 82.5895437,95.2098765 80.4335646,96.6275838 C79.8635932,96.9797531 79.3026331,97.4019048 78.635789,97.5328395 C77.6084886,97.2100176 76.7298764,96.5576014 75.7656559,96.0993298 C68.9417681,92.7176014 61.6267586,90.4262434 54.2013593,88.8143915 C43.2885456,86.516261 32.0806084,85.7916049 20.9515209,86.2385891 C16.1461882,86.4011287 11.363384,86.9203527 6.5828327,87.4057143 C6.95905894,86.1415168 7.59436312,84.9834215 8.16208175,83.8004938 C9.50252852,80.899612 10.9781464,78.0506526 12.0144582,75.0210935 C12.8187262,73.0051499 13.3729278,70.9034215 13.8888308,68.7994356 C14.5444106,65.6998942 14.79673,62.5303704 14.9611882,59.3743915 C14.7336502,55.6269489 14.4610551,51.8433862 13.3526521,48.2359083 C12.9155989,46.4818342 12.1203422,44.8406349 11.7508745,43.0707584 Z" id="Shape"></path>
                <path d="M9.91705323,90.4510758 C14.735903,90.2953086 19.5615114,90.2637037 24.3781084,90.4736508 C26.1195627,90.6519929 27.8948099,90.5346032 29.60923,90.9341799 C29.2510266,93.3384127 28.8860646,95.744903 28.7373764,98.1739683 C23.5152662,98.2078307 18.290903,98.1739683 13.0665399,98.1852557 C9.38538023,98.1446208 5.70196768,98.2687831 2.02306084,98.1243034 C2.39252852,96.6095238 3.11794677,95.2189065 3.70594106,93.7853968 C4.17903992,92.7356614 4.5394962,91.636261 5.09144487,90.6226455 C6.70223384,90.6565079 8.30851711,90.4871958 9.91705323,90.4510758 Z" id="Shape"></path>
                <path d="M149.321264,98.1401058 C150.715779,95.7291005 152.218432,93.3813051 153.55212,90.9341799 C154.336112,92.16 154.802452,93.5483598 155.349895,94.8870547 C155.759914,95.9683951 156.264553,97.015873 156.568688,98.1355908 C154.155884,98.2507231 151.734068,98.2100882 149.321264,98.1401058 Z" id="Shape"></path>
                <path d="M35.6941825,91.5053263 C40.8464544,92.137425 45.9514163,93.1691005 50.9662643,94.5100529 C54.4897243,95.471746 58.0109316,96.501164 61.3699335,97.9504762 C59.8830513,98.4584127 58.3038023,98.1965432 56.7718631,98.1920282 C49.3397053,98.1649383 41.9075475,98.2236332 34.4776426,98.1446208 C34.7930418,95.9164727 35.1039354,93.6792945 35.6941825,91.5053263 Z" id="Shape"></path>
                <path d="M41.7047909,124.392522 C42.7703897,124.487337 43.8089544,124.753721 44.8092205,125.126208 C44.9894487,126.302363 44.8970817,127.494321 44.9038403,128.677249 C44.9060932,135.072734 44.9015875,141.470476 44.9038403,147.865961 C44.863289,149.574885 45.0164829,151.295097 44.7979563,152.997249 C43.7008175,153.394568 42.5721388,153.692557 41.4321958,153.931852 C39.6231559,148.780247 38.0394011,143.538342 36.8904468,138.197108 C38.4629373,138.000705 40.0827376,138.35739 41.6236882,137.919436 C41.7475951,133.413474 41.5403327,128.896226 41.7047909,124.392522 Z" id="Shape"></path>
                <path d="M16.9684791,138.197108 C17.6893916,138.120353 18.4170627,138.07746 19.1447338,138.097778 C23.6526901,138.160988 28.1628992,138.043598 32.6708555,138.174533 C33.849097,142.380247 35.0904183,146.572416 36.6336217,150.658483 C37.1833175,152.037813 37.4761882,153.55485 38.4088688,154.746808 C38.0191255,154.812275 37.6338878,154.895802 37.2463973,154.968042 C37.129249,163.309489 37.2148574,171.657707 37.1990875,180.001411 C38.7648194,180.141376 40.335057,180.017213 41.9030418,180.046561 C44.8993346,180.066878 47.8978802,180.017213 50.8964259,180.053333 C53.5029753,184.207125 56.1951331,188.31351 59.0877947,192.277672 C60.7256179,194.672875 62.5819677,196.905538 64.3234221,199.223986 C66.6866635,202.287407 69.2594202,205.181517 71.7037643,208.177213 C71.1112643,208.303633 70.6336597,207.890511 70.1830894,207.578977 C68.6894487,206.475062 67.0403612,205.610441 65.4858935,204.60134 C60.6400095,201.641764 55.496749,199.223986 50.4300856,196.679788 C44.7483935,193.977566 39.0531844,191.297919 33.4863878,188.363175 C29.2622909,186.159859 25.2364449,183.604374 21.3119772,180.908924 C20.9222338,180.622222 20.5775475,180.285855 20.2396198,179.947231 C22.0148669,179.739541 23.8013783,179.949489 25.5811312,179.805009 C25.781635,178.646914 25.7095437,177.475273 25.6734981,176.310406 C25.6329468,169.251217 25.7117966,162.189771 25.6351996,155.130582 C22.7808365,154.304339 19.8588878,153.730935 16.9887548,152.967901 C16.8761122,150.816508 16.9617205,148.662857 16.9346863,146.511464 C16.9594677,143.739259 16.8851236,140.967055 16.9684791,138.197108 Z" id="Shape"></path>
                <path d="M76.4325,149.50716 C78.4938593,149.471041 80.5574715,149.475556 82.6188308,149.511675 C82.6638878,150.276966 82.6413593,151.044515 82.5512452,151.805291 C80.5169202,151.913651 78.4758365,151.825608 76.4392586,151.850441 C76.3761787,151.069347 76.3761787,150.285996 76.4325,149.50716 Z" id="Shape"></path>
                <path d="M152.617186,152.24776 C152.819943,151.757884 153.297548,151.477954 153.676027,151.141587 C154.604202,152.091993 155.271046,153.326843 155.692329,154.588783 C154.588432,154.392381 153.509316,154.040212 152.547348,153.45552 C152.558612,153.051429 152.504544,152.636049 152.617186,152.24776 Z" id="Shape"></path>
                <path d="M53.3768156,179.983351 C54.9515589,179.789206 56.5398194,179.856931 58.1235741,179.847901 C62.7802186,179.847901 67.4346103,179.850159 72.0912548,179.847901 C72.7603517,179.847901 73.4317015,179.881764 74.1007985,179.940459 C73.3168061,181.613263 72.0709791,182.999365 71.0594487,184.529947 C69.6424049,186.656508 68.1014544,188.798871 67.5472529,191.343069 C67.3737833,192.261869 67.1011882,193.300317 67.6396198,194.153651 C68.8178612,193.839859 69.7865875,193.067795 70.7372909,192.343139 C72.1453232,191.234709 73.0397053,189.654462 74.0737643,188.22321 C75.9413783,185.651922 77.7166255,183.008395 79.5842395,180.437108 C79.9041445,179.906596 80.5214259,179.800494 81.0936502,179.832099 C84.7004658,179.865961 88.3072814,179.843386 91.9163498,179.850159 C93.4009791,179.861446 94.8923669,179.780176 96.3747433,179.949489 C96.273365,185.669982 95.9196673,191.385961 95.3654658,197.079365 C95.2370532,198.767972 95.0635837,200.452063 94.9689639,202.142928 C94.9103897,202.790829 94.937424,203.617072 94.2187643,203.901517 C91.1458745,205.657848 88.2171673,207.646702 85.2817015,209.622011 C83.4276046,210.990053 81.5960361,212.387443 79.7374335,213.753228 C78.2325285,213.005996 76.9326331,211.924656 75.5020722,211.053263 C75.0064449,210.723668 74.4522433,210.457284 74.0670057,209.994497 C72.9180513,208.380388 71.5730989,206.919788 70.3926046,205.330511 C64.1251711,197.305115 58.3421008,188.880141 53.3768156,179.983351 Z" id="Shape"></path>
                <path d="M117.722766,180.008183 C119.55884,179.748571 121.437719,179.775661 123.278298,179.994638 C121.406179,180.987937 119.344819,181.547795 117.486217,182.561411 C117.522262,181.70582 117.612376,180.854744 117.722766,180.008183 Z" id="Shape"></path>
                <path d="M127.862852,180.71478 C128.577006,180.301658 129.363251,179.947231 130.210323,180.014956 C132.731264,180.116543 135.261217,179.915626 137.775399,180.177496 C137.421702,180.972134 136.633203,181.376226 135.948337,181.836755 C132.679449,184.119083 129.248356,186.166631 125.7677,188.10582 C125.044534,188.649877 124.438517,187.767196 123.929373,187.347302 C122.818717,186.155344 121.408432,185.342646 120.018422,184.529947 C122.708327,183.423774 125.328394,182.146032 127.862852,180.71478 Z" id="Shape"></path>
            </g>
        </g>
    </g>
</svg>