<svg width="256" height="256" viewBox="0 0 256 256" fill="none" xmlns="http://www.w3.org/2000/svg">
<path fill-rule="evenodd" clip-rule="evenodd" d="M127.75 249C206.25 190.5 239.75 117.5 245.75 51.5C245.75 51.5 173.75 64 127.75 4.5C81.7499 64 10.25 52 10.25 52C16.25 118 49.2499 190.5 127.75 249Z" fill="white"/>
<path fill-rule="evenodd" clip-rule="evenodd" d="M240.671 52.1094C223.956 53.6128 169.525 54.4798 130.971 8.50028C129.884 7.20441 128.81 5.87133 127.75 4.5C126.69 5.87135 125.616 7.20472 124.53 8.50113C86.0176 54.4705 31.967 53.97 15.3254 52.578C12.0735 52.306 10.25 52 10.25 52C10.4049 53.7042 10.5779 55.4128 10.7691 57.1253C17.9845 121.735 51.2769 192.011 127.75 249C204.22 192.012 237.988 121.265 245.229 56.6325C245.421 54.9173 245.595 53.2063 245.75 51.5C245.75 51.5 243.925 51.8168 240.671 52.1094ZM240.135 57.1735C238.379 57.316 236.301 57.4444 233.943 57.5208C226.201 57.7719 215.4 57.4644 203.107 55.2321C179.832 51.0058 151.064 39.842 127.751 12.4372C104.461 39.8417 75.8278 51.1274 52.6729 55.4766C40.443 57.7737 29.7054 58.1461 22.0091 57.9436C19.6675 57.882 17.6033 57.767 15.8596 57.6361C23.0704 119.746 54.937 187.315 127.75 242.741C200.568 187.309 232.887 119.295 240.135 57.1735Z" fill="#14B254"/>
<path d="M201 82.138C197.28 123.055 176.512 168.312 127.845 204.58V53C156.363 89.8875 201 82.138 201 82.138Z" fill="#FF2A26"/>
<path d="M55 82.4478C58.7197 123.365 79.1784 168.312 127.845 204.58V53C99.3271 89.8875 55 82.4478 55 82.4478Z" fill="#FF2A26"/>
<path fill-rule="evenodd" clip-rule="evenodd" d="M124.588 56.9492C102.148 82.4456 71.9219 83.6027 60.0684 82.9396C56.8621 82.7603 55 82.4478 55 82.4478C55.1546 84.1482 55.3381 85.8556 55.5513 87.569C60.3802 126.373 80.4578 168.278 125.345 202.69C126.17 203.322 127.003 203.952 127.845 204.58C128.687 203.952 129.52 203.322 130.345 202.69C175.24 168.27 195.593 126.092 200.446 87.2665C200.661 85.5501 200.845 83.8403 201 82.138C201 82.138 199.137 82.4615 195.929 82.6617C184.02 83.4047 153.579 82.4493 131.104 56.9479C130.85 56.6598 130.597 56.3686 130.345 56.0742C129.499 55.0856 128.666 54.0612 127.845 53C127.024 54.0616 126.191 55.0864 125.345 56.0758C125.094 56.3701 124.841 56.6612 124.588 56.9492ZM200.145 77.2117L200.088 77.2209C200.027 77.2305 199.925 77.2462 199.784 77.2664C199.502 77.3068 199.063 77.365 198.482 77.4287C197.319 77.5561 195.592 77.7046 193.418 77.7751C189.061 77.9164 182.953 77.743 176.01 76.4822C162.146 73.9648 145.109 67.1555 131.801 49.9418L127.845 44.8252L123.889 49.9418C110.57 67.1702 93.5932 74.0529 79.8053 76.6426C72.8996 77.9397 66.8301 78.1495 62.5033 78.0356C60.3437 77.9788 58.6294 77.8416 57.4758 77.722C56.8994 77.6623 56.464 77.6071 56.1842 77.5687C56.0444 77.5495 55.9435 77.5346 55.8834 77.5254L55.8242 77.5161C55.8239 77.5161 55.8241 77.5162 55.8237 77.5161C55.8217 77.5158 55.8217 77.5158 55.8208 77.5156C55.8205 77.5156 55.8183 77.5152 55.8181 77.5152C55.8179 77.5151 55.8179 77.5151 55.818 77.5151L49.4336 76.4436L50.0206 82.9005C53.8681 125.223 75.0448 171.467 124.857 208.589L127.845 210.815L130.833 208.589C180.638 171.473 202.131 124.923 205.98 82.5907L206.57 76.0962L200.154 77.21L200.152 77.2105L200.149 77.211L200.148 77.2111L200.145 77.2117Z" fill="#14B254"/>
<path d="M139 179H117.5V107H92V87H164V107H139V179Z" fill="#14B254"/>
<path fill-rule="evenodd" clip-rule="evenodd" d="M114.5 182V110H89V84H167V110H142V182H114.5ZM139 179H117.5V107H92V87H164V107H139V179Z" fill="white"/>
<circle cx="33" cy="67" r="4" fill="#14B254"/>
<circle cx="128" cy="27" r="4" fill="#14B254"/>
<circle cx="223" cy="67" r="4" fill="#14B254"/>
</svg>
