<?xml version="1.0" encoding="UTF-8"?>
<svg width="256px" height="256px" viewBox="0 0 256 256" version="1.1" xmlns="http://www.w3.org/2000/svg" xmlns:xlink="http://www.w3.org/1999/xlink">
    <!-- Generator: Sketch 50.2 (55047) - http://www.bohemiancoding.com/sketch -->
    <title>logo/trio</title>
    <desc>Created with Sketch.</desc>
    <defs></defs>
    <g id="logo/trio" stroke="none" stroke-width="1" fill="none" fill-rule="evenodd">
        <g id="trio" transform="translate(24.000000, 0.000000)" fill-rule="nonzero">
            <g id="#fffffeff" transform="translate(2.600000, 3.642276)" fill="#FFFFFE">
                <path d="M100.8072,0.343414634 C101.14,0.249756098 101.4832,0.171707317 101.8316,0.109268293 C114.3532,11.415935 127.9772,21.5258537 142.3656,30.3349593 C145.964,32.4943089 149.6144,34.5756098 153.322,36.5528455 C156.624,38.2803252 159.9468,39.9661789 163.332,41.5219512 C165.0272,42.2972358 166.7224,43.0725203 168.4332,43.8217886 C176.7012,47.3495935 185.2136,50.3154472 193.908,52.6204878 C194.5944,52.7817886 195.2912,52.9430894 195.9776,53.140813 C197.782,53.5206504 199.576,53.9629268 201.3388,54.504065 C201.7288,59.5876423 202.1604,64.660813 202.1968,69.76 C202.6284,73.9069919 202.384,78.0904065 202.3528,82.2478049 C201.8796,85.8484553 202.202,89.5115447 201.6664,93.1069919 C200.9072,102.946341 199.3628,112.712846 197.1684,122.333659 C196.4612,125.242276 195.7592,128.150894 194.9116,131.017886 C191.5732,143.063415 186.966,154.739512 181.376,165.905691 C163.9664,200.465691 136.058,229.739187 102.0916,248.309593 C101.1504,248.980813 100.1988,247.986992 99.3564,247.622764 C67.782,229.957724 41.5948,203.025691 24.3308,171.249431 C22.3236,167.48748 20.384,163.683902 18.5848,159.812683 C16.6192,155.473171 14.7368,151.086829 13.0936,146.612033 C10.7848,140.555447 8.8816,134.347967 7.1708,128.093659 C5.1948,120.548943 3.7024,112.889756 2.5064,105.194146 C1.4612,97.2071545 0.65,89.1889431 0.5876,81.1239024 C0.2704,77.5284553 0.2652,73.8705691 0.5824,70.275122 C0.7176,66.7785366 0.7176,63.2819512 0.9672,59.7905691 C1.2948,58.0214634 1.2844,56.2211382 1.3884,54.4312195 C8.6164,52.7401626 15.7976,50.8201626 22.7916,48.3121951 C26.6916,46.9281301 30.55,45.4243902 34.3616,43.8113821 C35.932,43.1193496 37.4972,42.4117073 39.0676,41.7144715 C42.7076,40.0078049 46.3268,38.2491057 49.8576,36.3239024 C53.4456,34.435122 56.9556,32.4058537 60.4344,30.3297561 C74.776,21.6039024 88.1764,11.3795122 100.8072,0.343414634 Z M68.3384,33.5869919 C50.0968,45.398374 29.9208,54.379187 8.6476,59.0152846 C5.7616,88.361626 9.1312,118.556098 19.9836,146.065691 C20.306,147.642276 21.0444,149.083577 21.6528,150.561301 C26.4524,162.169756 32.4948,173.252683 39.598,183.607154 C41.0592,185.667642 42.3644,187.873821 44.252,189.590894 C44.2728,189.283902 44.3144,188.664715 44.3404,188.35252 C92.5392,158.615935 140.6496,128.728455 188.812,98.9294309 C190.6008,97.857561 192.2856,96.5671545 194.2876,95.9063415 C195.5252,83.6474797 195.1456,71.2949593 194.1212,59.0360976 C185.7388,56.9756098 177.3772,54.7069919 169.364,51.4601626 C169.2548,52.1365854 168.896,52.6256911 168.298,52.9326829 C119.6208,83.1115447 70.954,113.300813 22.282,143.484878 C21.4656,143.979187 20.6232,144.426667 19.7704,144.86374 C18.9904,141.934309 17.7476,139.145366 16.8688,136.236748 C63.9964,107.166179 111.2332,78.2673171 158.3712,49.217561 C159.25,48.660813 160.2276,48.3121951 161.2208,48.0104065 C141.0968,39.2221138 122.9176,26.5105691 106.1788,12.4045528 C104.5772,11.1141463 103.1576,9.5895935 101.426,8.47609756 C90.8752,17.4360976 80.0488,26.1515447 68.3384,33.5869919 Z M187.3612,110.94374 C141.8716,138.978862 96.3508,166.967154 50.8664,195.002276 C50.1904,195.402927 49.4468,195.569431 48.6408,195.512195 C62.5872,212.807805 79.8356,227.449756 99.2108,238.31935 C100.2404,238.870894 101.4468,239.77626 102.5752,238.917724 C125.7308,226.279024 145.7092,208.083252 161.0908,186.68748 C177.8504,163.262439 188.9888,135.794472 192.9928,107.254634 C191.2456,108.675122 189.2696,109.762602 187.3612,110.94374 Z" id="Shape"></path>
                <path d="M66.6276,55.3678049 C68.4996,54.275122 70.3352,53.1356098 72.228,52.0897561 C75.6548,57.7613008 78.9776,63.5004878 82.524,69.0939837 C85.4256,67.3769106 88.2336,65.4777236 91.2548,63.979187 C92.1856,65.4985366 93.08,67.0386992 93.9224,68.6100813 C89.05,71.3053659 84.474,74.5209756 79.5236,77.0601626 C75.3168,69.7756098 70.772,62.6835772 66.6276,55.3678049 Z" id="Shape"></path>
                <path d="M95.654,61.2110569 C97.0632,60.3369106 98.4776,59.4731707 99.9752,58.755122 C100.854,60.2380488 101.738,61.7209756 102.5076,63.2715447 C101.1088,64.0728455 99.762,64.9886179 98.2748,65.6182114 C97.2036,64.2757724 96.4132,62.740813 95.654,61.2110569 Z" id="Shape"></path>
                <path d="M42.796,69.697561 C44.7148,68.5580488 46.6388,67.4289431 48.5316,66.2478049 C52.9724,73.4334959 57.2416,80.7284553 61.5992,87.9661789 C59.7064,89.1421138 57.7824,90.2660163 55.8948,91.4523577 C51.4488,84.2510569 47.1328,76.9665041 42.796,69.697561 Z" id="Shape"></path>
                <path d="M63.7,80.535935 C65.1144,79.6045528 66.5808,78.7460163 68.0732,77.9395122 C68.9416,79.4068293 69.8256,80.8689431 70.7148,82.3258537 C69.3264,83.2936585 67.8808,84.1730081 66.3364,84.8702439 C65.468,83.4185366 64.5996,81.9668293 63.7,80.535935 Z" id="Shape"></path>
                <path d="M129.1576,93.9655285 C132.2672,92.9769106 135.6888,93.5492683 138.5176,95.0946341 C142.7764,97.5453659 145.522,102.519675 145.184,107.441951 C144.456,115.18439 136.4272,120.99122 128.8976,120.184715 C121.7112,119.367805 116.3968,111.646179 118.0192,104.642602 C119.2152,99.262439 124.0668,95.4536585 129.1576,93.9655285 Z M129.2876,99.3508943 C126.6148,99.860813 124.488,102.332358 124.4464,105.064065 C123.9992,109.528455 127.0984,114.11252 131.4768,115.189593 C134.3108,115.912846 137.5972,114.305041 138.4656,111.448455 C140.5716,105.787317 135.4444,98.518374 129.2876,99.3508943 Z" id="Shape"></path>
                <path d="M103.3812,108.826016 C105.2064,107.988293 106.7768,106.24 108.7372,105.917398 C113.1832,113.019837 117.4472,120.257561 121.6852,127.490081 C119.9172,128.520325 118.1856,129.602602 116.402,130.606829 C112.0132,123.374309 107.5568,116.178211 103.3812,108.826016 Z" id="Shape"></path>
                <path d="M84.7444,120.049431 C87.2404,118.587317 89.6584,116.807805 92.5392,116.204228 C96.3508,115.127154 100.7812,117.213659 102.2996,120.897561 C103.5632,123.717724 102.6272,126.985366 100.6252,129.212358 C103.35,131.153171 106.2516,132.818211 108.992,134.733008 C109.0024,134.826667 109.0232,135.013984 109.0336,135.107642 C107.458,136.262764 105.7212,137.16813 104.0312,138.130732 C101.0724,136.262764 98.1916,134.275122 95.212,132.438374 C93.8808,133.265691 92.5288,134.056585 91.1612,134.826667 C92.482,137.657236 94.4216,140.149593 95.7788,142.964553 C93.9432,144.01561 92.1388,145.134309 90.3292,146.237398 C86.3616,139.806179 82.5396,133.281301 78.6084,126.829268 C78.1872,126.085203 77.6412,125.361951 77.5424,124.487805 C79.846,122.86439 82.3524,121.542764 84.7444,120.049431 Z M85.4464,125.726179 C86.4084,127.307967 87.3756,128.884553 88.3532,130.455935 C90.3812,129.196748 92.6224,128.228943 94.4268,126.641951 C96.1012,124.909268 94.5412,121.459512 92.0192,122.042276 C89.6012,122.770732 87.5836,124.425366 85.4464,125.726179 Z" id="Shape"></path>
                <path d="M54.652,138.177561 C60.7568,134.4 66.9032,130.658862 73.1224,127.089431 C74.2716,128.525528 75.1296,130.174959 75.9408,131.819187 C73.8972,133.010732 71.8484,134.202276 69.888,135.539512 C73.3044,141.065366 76.5336,146.710894 80.002,152.205528 C78.1508,153.56878 76.128,154.65626 74.1884,155.873821 C70.6108,150.379187 67.4388,144.634797 63.9756,139.067317 C61.8176,140.310894 59.696,141.606504 57.5848,142.917724 C56.5396,141.382764 55.5932,139.780163 54.652,138.177561 Z" id="Shape"></path>
                <path d="M140.1972,157.689756 C140.6912,152.496911 145.5012,148.797398 150.3008,147.704715 C153.0152,147.002276 155.6568,148.490407 157.4768,150.405203 C156.1092,151.27935 154.752,152.184715 153.3272,152.970407 C151.7724,154.04748 149.7548,152.413659 148.2,153.532358 C145.236,155.55122 145.7456,160.176911 148.2364,162.388293 C148.6888,161.160325 148.8604,159.724228 149.8744,158.798049 C152.1572,156.747967 155.2356,155.155772 158.3816,155.873821 C163.1864,157.044553 166.1296,162.846179 164.2576,167.425041 C162.7288,171.067317 159.0836,173.476423 155.3396,174.360976 C151.3096,175.209106 147.3732,172.862439 144.9552,169.771707 C142.2616,166.353171 139.8852,162.190569 140.1972,157.689756 Z M153.0828,162.076098 C150.9092,163.205203 151.0184,166.275122 152.6148,167.851707 C154.2372,169.969431 157.9344,168.855935 158.6468,166.457236 C159.484,163.527805 155.8388,159.989593 153.0828,162.076098 Z" id="Shape"></path>
                <path d="M122.5484,164.844228 C125.1172,163.147967 127.7432,161.534959 130.4472,160.057236 C132.808,164.105366 135.2624,168.101463 137.6492,172.133984 C138.3824,171.785366 139.126,171.462764 139.8956,171.197398 C141.1176,172.295285 141.6636,173.965528 142.5268,175.34439 C141.7936,175.771057 141.0708,176.202927 140.3428,176.64 C141.2008,178.424715 142.2512,180.105366 143.3484,181.754797 C141.6324,182.904715 139.8384,183.929756 138.0808,185.006829 C137.0252,183.357398 136.0424,181.661138 135.0076,179.996098 C131.4612,181.890081 128.0552,184.039024 124.644,186.161951 C123.552,184.122276 121.9192,182.295935 121.2692,180.068943 C121.3472,174.974959 122.2052,169.922602 122.5484,164.844228 Z M126.8956,166.873496 C126.4276,171.093333 126.0428,175.318374 125.5956,179.543415 C127.9512,178.315447 130.2132,176.905366 132.4596,175.484878 C130.5408,172.654309 129.1368,169.475122 126.8956,166.873496 Z" id="Shape"></path>
                <path d="M102.518,175.927154 C105.8096,173.85626 110.3856,173.736585 113.5732,176.093659 C117.1456,178.731707 119.6624,182.660163 120.9988,186.869593 C122.174,190.532683 121.1808,194.840976 118.2792,197.426992 C115.6532,199.721626 112.2368,201.657236 108.628,201.090081 C106.8392,200.855935 105.4092,199.622764 104.2548,198.321951 C105.9188,197.307317 107.5204,196.167805 109.2832,195.335285 C110.6872,195.387317 112.2108,196.188618 113.4952,195.241626 C116.3968,193.28 116.1524,188.56065 113.3444,186.604228 C112.8972,190.225691 109.33,192.270569 106.0904,192.999024 C101.1244,193.883577 96.5796,189.00813 96.8292,184.189919 C96.8188,180.584065 99.5124,177.586992 102.518,175.927154 Z M104.7072,180.365528 C101.5092,181.900488 103.2096,187.431545 106.6052,187.218211 C108.5344,187.395122 110.4792,185.698862 110.1672,183.690407 C110.3128,181.021138 107.0524,178.586016 104.7072,180.365528 Z" id="Shape"></path>
                <path d="M82.6072,188.810407 C84.3024,187.722927 86.0132,186.651057 87.8124,185.730081 C92.1388,192.915772 96.3768,200.163902 100.8124,207.287154 C99.1172,208.515122 97.2712,209.51935 95.4928,210.627642 C92.2688,205.304715 89.0656,199.966179 85.7688,194.684878 C85.1448,196.214634 84.5936,197.770407 84.0268,199.320976 C82.6592,198.660163 81.3436,197.910894 80.0228,197.172033 C80.6468,194.315447 81.7752,191.604553 82.6072,188.810407 Z" id="Shape"></path>
            </g>
            <g id="#010101ff" fill="#010101">
                <path d="M100.5108,2.75772358 C101.6652,1.82634146 102.6688,0.676422764 104.0052,0.00520325203 C105.092,0.624390244 105.9864,1.51414634 106.9224,2.33105691 C121.6228,15.0009756 137.3528,26.5782114 154.3932,35.9180488 C170.82,44.9769106 188.4636,51.902439 206.804,55.9245528 C206.804,56.3928455 206.8144,57.3398374 206.8196,57.8081301 L207.0952,58.0891057 C207.1836,60.4097561 207.2616,62.7304065 207.5164,65.0406504 C208.7592,86.483252 207.064,108.133984 201.8536,128.999024 C190.8452,174.194472 163.2748,215.066016 125.6372,242.346667 C118.8096,247.399024 111.5192,251.764553 104.1664,256 L103.7192,256 C95.9556,251.499187 88.2544,246.857886 81.0888,241.436098 C55.3748,222.413008 34.4708,197.015935 20.4776,168.257561 C11.6584,150.165854 5.6316,130.721301 2.6,110.824065 C1.5236,104.621789 1.1856,98.3206504 0.3952,92.0923577 C0.156,88.5749593 0.1144,85.0523577 0,81.5349593 L0,71.0868293 C0.208,66.0136585 0.6656,60.9613008 1.2064,55.9141463 C11.0604,53.6923577 20.774,50.8045528 30.1548,47.0426016 C56.082,36.7557724 79.404,20.8338211 100.5108,2.75772358 Z M103.4072,3.98569106 C90.7764,15.0217886 77.376,25.2461789 63.0344,33.9720325 C59.5556,36.0481301 56.0456,38.0773984 52.4576,39.9661789 C48.9268,41.8913821 45.3076,43.6500813 41.6676,45.356748 C40.0972,46.0539837 38.532,46.761626 36.9616,47.4536585 C33.15,49.0666667 29.2916,50.5704065 25.3916,51.9544715 C18.3976,54.462439 11.2164,56.382439 3.9884,58.0734959 C3.8844,59.8634146 3.8948,61.6637398 3.5672,63.4328455 C3.3176,66.9242276 3.3176,70.420813 3.1824,73.9173984 C2.8652,77.5128455 2.8704,81.1707317 3.1876,84.7661789 C3.25,92.8312195 4.0612,100.849431 5.1064,108.836423 C6.3024,116.532033 7.7948,124.19122 9.7708,131.735935 C11.4816,137.990244 13.3848,144.197724 15.6936,150.254309 C17.3368,154.729106 19.2192,159.115447 21.1848,163.454959 C22.984,167.326179 24.9236,171.129756 26.9308,174.891707 C44.1948,206.667967 70.382,233.6 101.9564,251.265041 C102.7988,251.629268 103.7504,252.623089 104.6916,251.95187 C138.658,233.381463 166.5664,204.107967 183.976,169.547967 C189.566,158.381789 194.1732,146.705691 197.5116,134.660163 C198.3592,131.793171 199.0612,128.884553 199.7684,125.975935 C201.9628,116.355122 203.5072,106.588618 204.2664,96.7492683 C204.802,93.1538211 204.4796,89.4907317 204.9528,85.8900813 C204.984,81.7326829 205.2284,77.5492683 204.7968,73.4022764 C204.7604,68.3030894 204.3288,63.2299187 203.9388,58.1463415 C202.176,57.6052033 200.382,57.1629268 198.5776,56.7830894 C197.8912,56.5853659 197.1944,56.424065 196.508,56.2627642 C187.8136,53.9577236 179.3012,50.9918699 171.0332,47.464065 C169.3224,46.7147967 167.6272,45.9395122 165.932,45.1642276 C162.5468,43.6084553 159.224,41.9226016 155.922,40.195122 C152.2144,38.2178862 148.564,36.1365854 144.9656,33.9772358 C130.5772,25.1681301 116.9532,15.0582114 104.4316,3.75154472 C104.0832,3.81398374 103.74,3.89203252 103.4072,3.98569106 Z" id="Shape"></path>
            </g>
            <g id="#0d479bff" transform="translate(9.880000, 11.967480)" fill="#0D479B">
                <path d="M61.0584,25.2617886 C72.7688,17.8263415 83.5952,9.11089431 94.146,0.150894309 C95.8776,1.26439024 97.2972,2.78894309 98.8988,4.07934959 C115.6376,18.1853659 133.8168,30.8969106 153.9408,39.6852033 C152.9476,39.9869919 151.97,40.3356098 151.0912,40.8923577 C103.9532,69.9421138 56.7164,98.8409756 9.5888,127.911545 C10.4676,130.820163 11.7104,133.609106 12.4904,136.538537 C12.5424,136.840325 12.6516,137.438699 12.7036,137.740488 C1.8512,110.230894 -1.5184,80.0364228 1.3676,50.6900813 C22.6408,46.0539837 42.8168,37.0731707 61.0584,25.2617886 Z M59.3476,47.0426016 C63.492,54.358374 68.0368,61.4504065 72.2436,68.7349593 C77.194,66.1957724 81.77,62.9801626 86.6424,60.284878 C85.8,58.7134959 84.9056,57.1733333 83.9748,55.6539837 C80.9536,57.1525203 78.1456,59.0517073 75.244,60.7687805 C71.6976,55.1752846 68.3748,49.4360976 64.948,43.7645528 C63.0552,44.8104065 61.2196,45.9499187 59.3476,47.0426016 Z M88.374,52.8858537 C89.1332,54.4156098 89.9236,55.9505691 90.9948,57.2930081 C92.482,56.6634146 93.8288,55.7476423 95.2276,54.9463415 C94.458,53.3957724 93.574,51.9128455 92.6952,50.4299187 C91.1976,51.1479675 89.7832,52.0117073 88.374,52.8858537 Z M35.516,61.3723577 C39.8528,68.6413008 44.1688,75.9258537 48.6148,83.1271545 C50.5024,81.940813 52.4264,80.8169106 54.3192,79.6409756 C49.9616,72.403252 45.6924,65.1082927 41.2516,57.9226016 C39.3588,59.1037398 37.4348,60.2328455 35.516,61.3723577 Z M56.42,72.2107317 C57.3196,73.641626 58.188,75.0933333 59.0564,76.5450407 C60.6008,75.8478049 62.0464,74.9684553 63.4348,74.0006504 C62.5456,72.5437398 61.6616,71.081626 60.7932,69.6143089 C59.3008,70.420813 57.8344,71.2793496 56.42,72.2107317 Z" id="Shape"></path>
                <path d="M180.0812,102.618537 C181.9896,101.437398 183.9656,100.349919 185.7128,98.9294309 C181.7088,127.469268 170.5704,154.937236 153.8108,178.362276 C138.4292,199.758049 118.4508,217.953821 95.2952,230.59252 C94.1668,231.451057 92.9604,230.545691 91.9308,229.994146 C72.5556,219.124553 55.3072,204.482602 41.3608,187.186992 C42.1668,187.244228 42.9104,187.077724 43.5864,186.677073 C89.0708,158.641951 134.5916,130.653659 180.0812,102.618537 Z M132.9172,149.364553 C132.6052,153.865366 134.9816,158.027967 137.6752,161.446504 C140.0932,164.537236 144.0296,166.883902 148.0596,166.035772 C151.8036,165.15122 155.4488,162.742114 156.9776,159.099837 C158.8496,154.520976 155.9064,148.71935 151.1016,147.548618 C147.9556,146.830569 144.8772,148.422764 142.5944,150.472846 C141.5804,151.399024 141.4088,152.835122 140.9564,154.063089 C138.4656,151.851707 137.956,147.226016 140.92,145.207154 C142.4748,144.088455 144.4924,145.722276 146.0472,144.645203 C147.472,143.859512 148.8292,142.954146 150.1968,142.08 C148.3768,140.165203 145.7352,138.677073 143.0208,139.379512 C138.2212,140.472195 133.4112,144.171707 132.9172,149.364553 Z M115.2684,156.519024 C114.9252,161.597398 114.0672,166.649756 113.9892,171.74374 C114.6392,173.970732 116.272,175.797073 117.364,177.836748 C120.7752,175.713821 124.1812,173.564878 127.7276,171.670894 C128.7624,173.335935 129.7452,175.032195 130.8008,176.681626 C132.5584,175.604553 134.3524,174.579512 136.0684,173.429593 C134.9712,171.780163 133.9208,170.099512 133.0628,168.314797 C133.7908,167.877724 134.5136,167.445854 135.2468,167.019187 C134.3836,165.640325 133.8376,163.970081 132.6156,162.872195 C131.846,163.137561 131.1024,163.460163 130.3692,163.80878 C127.9824,159.77626 125.528,155.780163 123.1672,151.732033 C120.4632,153.209756 117.8372,154.822764 115.2684,156.519024 Z M95.238,167.601951 C92.2324,169.261789 89.5388,172.258862 89.5492,175.864715 C89.2996,180.682927 93.8444,185.558374 98.8104,184.673821 C102.05,183.945366 105.6172,181.900488 106.0644,178.279024 C108.8724,180.235447 109.1168,184.954797 106.2152,186.916423 C104.9308,187.863415 103.4072,187.062114 102.0032,187.010081 C100.2404,187.842602 98.6388,188.982114 96.9748,189.996748 C98.1292,191.297561 99.5592,192.530732 101.348,192.764878 C104.9568,193.332033 108.3732,191.396423 110.9992,189.101789 C113.9008,186.515772 114.894,182.20748 113.7188,178.54439 C112.3824,174.334959 109.8656,170.406504 106.2932,167.768455 C103.1056,165.411382 98.5296,165.531057 95.238,167.601951 Z M75.3272,180.485203 C74.4952,183.27935 73.3668,185.990244 72.7428,188.846829 C74.0636,189.585691 75.3792,190.334959 76.7468,190.995772 C77.3136,189.445203 77.8648,187.889431 78.4888,186.359675 C81.7856,191.640976 84.9888,196.979512 88.2128,202.302439 C89.9912,201.194146 91.8372,200.189919 93.5324,198.961951 C89.0968,191.838699 84.8588,184.590569 80.5324,177.404878 C78.7332,178.325854 77.0224,179.397724 75.3272,180.485203 Z" id="Shape"></path>
                <path d="M145.8028,153.750894 C148.5588,151.66439 152.204,155.202602 151.3668,158.132033 C150.6544,160.530732 146.9572,161.644228 145.3348,159.526504 C143.7384,157.949919 143.6292,154.88 145.8028,153.750894 Z" id="Shape"></path>
                <path d="M119.6156,158.548293 C121.8568,161.149919 123.2608,164.329106 125.1796,167.159675 C122.9332,168.580163 120.6712,169.990244 118.3156,171.218211 C118.7628,166.993171 119.1476,162.76813 119.6156,158.548293 Z" id="Shape"></path>
                <path d="M97.4272,172.040325 C99.7724,170.260813 103.0328,172.695935 102.8872,175.365203 C103.1992,177.373659 101.2544,179.069919 99.3252,178.893008 C95.9296,179.106341 94.2292,173.575285 97.4272,172.040325 Z" id="Shape"></path>
            </g>
            <g id="#f83426ff" transform="translate(22.360000, 54.634146)" fill="#F83426">
                <path d="M149.604,0.468292683 C157.6172,3.71512195 165.9788,5.98373984 174.3612,8.04422764 C175.3856,20.3030894 175.7652,32.6556098 174.5276,44.9144715 C172.5256,45.5752846 170.8408,46.8656911 169.052,47.937561 C120.8896,77.7365854 72.7792,107.624065 24.5804,137.36065 C24.5544,137.672846 24.5128,138.292033 24.492,138.599024 C22.6044,136.881951 21.2992,134.675772 19.838,132.615285 C12.7348,122.260813 6.6924,111.177886 1.8928,99.5694309 C1.2844,98.0917073 0.546,96.6504065 0.2236,95.0738211 C0.1716,94.7720325 0.0624,94.1736585 0.0104,93.8718699 C0.8632,93.4347967 1.7056,92.9873171 2.522,92.4930081 C51.194,62.3089431 99.8608,32.1196748 148.538,1.94081301 C149.136,1.63382114 149.4948,1.14471545 149.604,0.468292683 Z M109.3976,42.9736585 C104.3068,44.4617886 99.4552,48.2705691 98.2592,53.6507317 C96.6368,60.6543089 101.9512,68.375935 109.1376,69.1928455 C116.6672,69.9993496 124.696,64.1925203 125.424,56.4500813 C125.762,51.5278049 123.0164,46.5534959 118.7576,44.1027642 C115.9288,42.5573984 112.5072,41.9850407 109.3976,42.9736585 Z M83.6212,57.8341463 C87.7968,65.1863415 92.2532,72.382439 96.642,79.6149593 C98.4256,78.6107317 100.1572,77.5284553 101.9252,76.4982114 C97.6872,69.2656911 93.4232,62.0279675 88.9772,54.9255285 C87.0168,55.2481301 85.4464,56.9964228 83.6212,57.8341463 Z M64.9844,69.057561 C62.5924,70.5508943 60.086,71.8725203 57.7824,73.495935 C57.8812,74.3700813 58.4272,75.0933333 58.8484,75.8373984 C62.7796,82.2894309 66.6016,88.8143089 70.5692,95.2455285 C72.3788,94.142439 74.1832,93.0237398 76.0188,91.9726829 C74.6616,89.1577236 72.722,86.6653659 71.4012,83.8347967 C72.7688,83.0647154 74.1208,82.2738211 75.452,81.4465041 C78.4316,83.283252 81.3124,85.2708943 84.2712,87.1388618 C85.9612,86.1762602 87.698,85.2708943 89.2736,84.1157724 C89.2632,84.0221138 89.2424,83.8347967 89.232,83.7411382 C86.4916,81.8263415 83.59,80.1613008 80.8652,78.2204878 C82.8672,75.9934959 83.8032,72.7258537 82.5396,69.9056911 C81.0212,66.2217886 76.5908,64.1352846 72.7792,65.2123577 C69.8984,65.815935 67.4804,67.5954472 64.9844,69.057561 Z M34.892,87.1856911 C35.8332,88.7882927 36.7796,90.3908943 37.8248,91.9258537 C39.936,90.6146341 42.0576,89.3190244 44.2156,88.0754472 C47.6788,93.6429268 50.8508,99.3873171 54.4284,104.881951 C56.368,103.66439 58.3908,102.576911 60.242,101.213659 C56.7736,95.7190244 53.5444,90.0734959 50.128,84.5476423 C52.0884,83.2104065 54.1372,82.0188618 56.1808,80.8273171 C55.3696,79.1830894 54.5116,77.5336585 53.3624,76.097561 C47.1432,79.6669919 40.9968,83.4081301 34.892,87.1856911 Z" id="Shape"></path>
                <path d="M109.5276,48.3590244 C115.6844,47.5265041 120.8116,54.7954472 118.7056,60.4565854 C117.8372,63.3131707 114.5508,64.9209756 111.7168,64.1977236 C107.3384,63.1206504 104.2392,58.5365854 104.6864,54.0721951 C104.728,51.3404878 106.8548,48.8689431 109.5276,48.3590244 Z" id="Shape"></path>
                <path d="M65.6864,74.7343089 C67.8236,73.4334959 69.8412,71.7788618 72.2592,71.0504065 C74.7812,70.4676423 76.3412,73.9173984 74.6668,75.6500813 C72.8624,77.2370732 70.6212,78.204878 68.5932,79.464065 C67.6156,77.8926829 66.6484,76.3160976 65.6864,74.7343089 Z" id="Shape"></path>
            </g>
        </g>
    </g>
</svg>