<?xml version="1.0" encoding="UTF-8" ?>
<!DOCTYPE svg PUBLIC "-//W3C//DTD SVG 1.1//EN" "http://www.w3.org/Graphics/SVG/1.1/DTD/svg11.dtd">
<svg width="300pt" height="300pt" viewBox="0 0 300 300" version="1.1" xmlns="http://www.w3.org/2000/svg">
<g id="#ffffffff">
<path fill="#ffffff" opacity="1.00" d=" M 69.02 40.03 C 92.25 22.81 121.08 13.33 150.00 13.45 C 179.16 13.33 208.22 22.98 231.55 40.47 C 257.57 59.78 276.43 88.60 283.28 120.31 C 281.20 120.29 279.12 120.31 277.06 120.09 C 275.83 118.03 275.23 115.67 274.49 113.41 C 271.93 105.10 268.41 97.07 263.85 89.65 C 262.95 99.81 262.31 109.99 261.59 120.16 C 259.36 120.20 257.13 120.22 254.90 120.24 C 253.69 105.47 252.66 90.68 251.56 75.89 C 251.58 69.15 245.14 65.41 241.10 60.94 C 240.08 80.73 238.44 100.48 237.04 120.25 C 234.81 120.23 232.58 120.20 230.35 120.17 C 228.96 96.42 225.77 72.74 226.30 48.92 C 223.07 46.80 219.80 44.75 216.46 42.83 C 216.25 52.88 216.81 62.96 215.96 73.00 C 214.80 88.71 213.70 104.44 212.61 120.16 C 210.37 120.20 208.14 120.22 205.91 120.24 C 204.53 102.84 203.25 85.44 201.96 68.03 C 201.53 57.18 201.98 46.31 201.72 35.45 C 178.03 25.94 151.74 22.91 126.57 27.39 C 116.86 29.00 107.45 31.96 98.27 35.45 C 97.90 48.64 98.77 61.86 97.51 75.02 C 96.32 90.09 95.32 105.17 94.07 120.24 C 91.84 120.22 89.61 120.20 87.38 120.17 C 86.25 104.45 85.18 88.72 84.01 73.00 C 83.18 62.97 83.71 52.91 83.53 42.86 C 80.24 44.81 76.63 46.41 73.94 49.21 C 73.18 55.72 74.02 62.32 73.48 68.85 C 72.20 85.96 70.90 103.07 69.63 120.17 C 67.40 120.20 65.17 120.22 62.94 120.24 C 61.53 100.47 59.89 80.72 58.88 60.93 C 54.86 65.42 48.31 69.13 48.40 75.90 C 47.33 90.68 46.28 105.46 45.08 120.24 C 42.85 120.22 40.62 120.20 38.39 120.17 C 37.64 109.99 37.02 99.81 36.13 89.64 C 31.42 97.27 27.84 105.58 25.25 114.16 C 24.60 116.17 24.06 118.28 22.88 120.07 C 20.83 120.31 18.76 120.29 16.70 120.33 C 23.58 88.37 42.70 59.35 69.02 40.03 Z" />
<path fill="#ffffff" opacity="1.00" d=" M 144.35 131.38 C 155.11 125.96 167.63 125.10 179.40 126.82 C 184.44 127.49 189.12 129.67 194.09 130.61 C 196.50 130.21 198.61 128.75 201.05 128.46 C 203.67 128.14 206.31 128.27 208.94 128.22 C 209.35 139.99 209.43 151.78 209.69 163.56 C 205.95 163.50 202.22 163.49 198.48 163.51 C 194.35 154.96 190.29 145.19 181.41 140.54 C 174.96 137.42 166.45 137.11 160.50 141.50 C 156.71 144.10 156.02 150.29 159.80 153.21 C 165.14 157.43 172.08 158.59 178.44 160.54 C 188.83 163.57 200.28 165.82 208.19 173.82 C 215.97 181.44 217.34 194.46 211.70 203.71 C 206.99 211.91 198.20 216.78 189.35 219.32 C 178.51 222.24 166.98 222.25 155.98 220.20 C 151.18 219.40 146.71 217.34 141.97 216.37 C 139.50 216.91 137.49 218.74 134.96 219.13 C 132.27 219.47 129.54 219.32 126.83 219.32 C 126.48 206.99 126.04 194.67 125.81 182.35 C 129.48 182.37 133.15 182.37 136.82 182.35 C 141.26 191.25 146.60 200.35 155.42 205.55 C 161.39 209.31 168.85 210.04 175.67 208.68 C 179.49 207.88 183.44 205.78 185.03 202.03 C 186.41 198.98 185.77 195.05 183.04 192.97 C 177.46 188.57 170.20 187.43 163.57 185.43 C 154.54 182.81 144.80 180.83 137.51 174.47 C 130.41 168.41 126.82 158.34 129.09 149.20 C 131.05 141.29 137.20 134.96 144.35 131.38 M 140.53 137.53 C 134.94 141.88 131.02 148.78 131.61 156.01 C 131.97 164.79 138.00 172.57 145.81 176.22 C 155.93 180.99 167.18 182.49 177.61 186.38 C 181.39 187.90 185.35 189.86 187.54 193.46 C 190.21 198.08 188.69 204.33 184.71 207.71 C 179.65 212.19 172.41 212.78 165.96 212.28 C 156.05 211.49 147.58 204.92 141.86 197.14 C 139.16 193.64 137.53 189.42 134.65 186.06 C 132.84 185.55 130.94 185.53 129.09 185.30 C 129.25 195.70 129.48 206.10 129.94 216.48 C 132.29 216.12 134.78 215.99 136.90 214.78 C 139.00 213.71 141.22 211.92 143.65 213.27 C 157.00 218.55 171.88 219.93 185.94 216.95 C 194.52 214.93 203.24 210.82 208.27 203.27 C 213.10 196.31 213.23 186.47 208.63 179.36 C 205.29 174.25 199.87 170.93 194.30 168.71 C 184.80 165.05 174.70 163.28 165.15 159.76 C 160.99 158.11 156.38 155.80 154.72 151.33 C 152.85 146.31 155.46 140.56 160.01 137.99 C 168.02 133.35 178.79 134.39 186.19 139.80 C 193.21 144.87 196.72 153.07 200.74 160.44 C 202.62 160.37 204.50 160.31 206.38 160.26 C 206.31 150.47 206.36 140.66 205.71 130.88 C 201.95 131.39 198.51 132.99 194.97 134.19 C 189.55 133.36 184.56 130.63 179.08 129.95 C 165.98 127.98 151.40 129.35 140.53 137.53 Z" />
<path fill="#ffffff" opacity="1.00" d=" M 20.92 128.29 C 54.99 128.32 89.05 128.31 123.12 128.30 C 123.26 138.49 123.21 148.67 123.16 158.86 C 119.60 158.85 116.05 158.84 112.49 158.80 C 109.96 152.95 106.86 147.19 102.23 142.73 C 98.32 139.08 92.45 140.45 87.60 139.90 C 87.68 161.94 87.23 183.99 87.84 206.02 C 92.71 207.37 97.71 208.17 102.73 208.67 C 102.76 212.19 102.78 215.72 102.81 219.24 C 82.28 219.33 61.75 219.34 41.22 219.24 C 41.25 215.67 41.27 212.11 41.30 208.55 C 45.83 208.11 50.56 208.33 54.89 206.77 C 56.81 206.07 56.22 203.63 56.48 202.07 C 56.43 181.34 56.52 160.62 56.42 139.90 C 51.56 140.45 45.69 139.08 41.78 142.75 C 37.17 147.20 34.06 152.96 31.53 158.80 C 27.98 158.84 24.44 158.85 20.89 158.87 C 20.85 148.68 20.79 138.48 20.92 128.29 M 24.16 131.39 C 23.86 139.53 23.81 147.69 24.20 155.83 C 25.93 155.73 27.66 155.64 29.39 155.55 C 32.75 149.27 36.16 142.36 42.38 138.45 C 47.79 136.13 53.91 136.99 59.65 136.87 C 59.58 158.60 59.62 180.33 59.65 202.06 C 59.57 204.75 59.44 208.27 56.54 209.50 C 52.70 211.17 48.40 211.08 44.30 211.54 C 44.37 212.99 44.36 214.45 44.26 215.91 C 53.50 216.42 62.75 216.09 72.00 216.17 C 81.25 216.09 90.52 216.41 99.77 215.92 C 99.66 214.46 99.62 213.01 99.68 211.56 C 95.50 210.88 91.11 210.64 87.25 208.76 C 84.40 207.35 84.48 203.76 84.36 201.05 C 84.41 179.66 84.43 158.27 84.36 136.87 C 90.10 136.99 96.21 136.14 101.63 138.44 C 107.86 142.35 111.26 149.27 114.63 155.55 C 116.35 155.64 118.08 155.73 119.81 155.83 C 120.25 147.69 120.20 139.53 119.85 131.39 C 87.95 131.48 56.05 131.49 24.16 131.39 Z" />
<path fill="#ffffff" opacity="1.00" d=" M 214.68 128.28 C 235.07 128.33 255.45 128.31 275.83 128.29 C 275.83 131.84 275.83 135.40 275.81 138.95 C 270.88 139.38 265.94 139.94 261.10 141.04 C 260.43 157.01 260.98 173.01 260.80 189.00 C 260.96 194.55 260.30 200.18 261.25 205.68 C 265.56 208.39 270.95 207.99 275.83 208.54 C 275.83 212.11 275.83 215.68 275.85 219.25 C 255.44 219.33 235.04 219.31 214.63 219.27 C 214.63 215.68 214.64 212.09 214.71 208.50 C 219.67 208.30 224.66 208.01 229.51 206.84 C 229.97 188.56 229.54 170.28 229.74 152.00 C 229.70 148.86 229.95 145.68 229.36 142.58 C 225.24 139.41 219.56 139.83 214.67 138.89 C 214.63 135.35 214.64 131.82 214.68 128.28 M 217.90 131.41 C 217.90 132.90 217.86 134.39 217.76 135.89 C 221.88 136.75 226.19 137.15 230.01 139.02 C 232.97 140.43 232.77 144.15 232.90 146.92 C 232.82 165.31 232.83 183.69 232.89 202.08 C 232.72 204.61 232.99 207.97 230.43 209.44 C 226.60 211.43 222.09 211.11 217.91 211.50 C 217.90 213.03 217.83 214.55 217.71 216.07 C 236.08 216.17 254.46 216.39 272.82 215.95 C 272.71 214.49 272.69 213.03 272.75 211.58 C 268.52 210.98 264.03 210.89 260.19 208.83 C 257.49 207.29 257.80 203.72 257.61 201.05 C 257.68 182.68 257.66 164.32 257.62 145.95 C 257.82 143.34 257.55 139.72 260.33 138.35 C 264.25 136.66 268.62 136.57 272.78 135.90 C 272.71 134.41 272.70 132.91 272.76 131.42 C 254.47 131.46 236.18 131.47 217.90 131.41 Z" />
<path fill="#ffffff" opacity="1.00" d=" M 71.47 232.52 C 75.60 231.22 80.24 234.54 79.71 239.00 C 80.19 243.10 76.24 246.49 72.26 245.63 C 65.57 245.21 65.10 233.83 71.47 232.52 M 71.46 235.31 C 69.46 237.18 69.53 240.78 71.45 242.68 C 74.02 244.25 77.13 241.85 76.75 239.00 C 77.18 236.14 74.02 233.64 71.46 235.31 Z" />
<path fill="#ffffff" opacity="1.00" d=" M 96.31 237.51 C 94.53 232.28 103.26 230.29 105.27 234.57 C 105.60 235.05 106.26 236.03 106.59 236.52 C 103.90 235.97 101.22 235.37 98.51 234.99 C 100.82 236.68 103.51 237.76 105.74 239.58 C 107.17 241.30 106.16 244.31 104.15 245.14 C 102.24 245.91 99.97 245.93 98.08 245.08 C 96.67 244.13 96.14 242.37 95.25 241.00 C 98.08 241.74 100.88 242.65 103.79 243.09 C 101.92 240.47 98.78 239.41 96.31 237.51 Z" />
<path fill="#ffffff" opacity="1.00" d=" M 108.92 234.92 C 111.47 231.17 116.57 232.86 120.38 232.45 C 120.14 236.06 121.32 240.06 119.43 243.36 C 116.79 246.71 112.03 245.14 108.36 245.56 C 108.51 242.03 107.42 238.25 108.92 234.92 M 111.46 235.46 C 111.29 237.34 111.14 239.22 111.01 241.10 C 112.83 239.09 114.62 237.05 116.31 234.93 C 114.69 235.11 113.08 235.29 111.46 235.46 M 112.31 243.34 C 113.71 243.12 115.10 242.82 116.46 242.44 C 117.30 240.87 117.59 239.09 118.00 237.39 C 115.74 238.99 113.86 241.05 112.31 243.34 Z" />
<path fill="#ffffff" opacity="1.00" d=" M 122.26 237.52 C 120.95 234.48 123.99 231.83 126.94 232.31 C 129.73 231.96 131.17 234.52 132.45 236.52 C 129.77 235.97 127.09 235.39 124.38 235.02 C 126.70 236.70 129.39 237.82 131.63 239.62 C 133.57 242.72 130.29 246.23 127.00 245.71 C 123.87 246.20 122.15 243.45 121.03 241.01 C 123.92 241.84 126.89 243.30 129.91 242.10 C 127.44 240.46 124.31 239.72 122.26 237.52 Z" />
<path fill="#ffffff" opacity="1.00" d=" M 194.06 232.88 C 201.29 232.32 208.55 232.75 215.80 232.50 C 215.87 233.07 216.02 234.20 216.09 234.77 C 213.77 234.94 211.46 235.11 209.14 235.30 C 209.16 235.79 209.19 236.78 209.21 237.28 C 211.60 237.49 213.99 237.72 216.37 238.07 C 214.24 239.56 211.69 240.11 209.18 240.53 C 209.17 241.04 209.15 242.06 209.14 242.57 C 211.99 242.78 214.94 243.02 217.23 244.95 C 213.60 245.37 209.96 245.44 206.32 245.33 C 206.33 241.60 206.33 237.88 206.33 234.15 C 204.70 234.58 203.08 235.00 201.45 235.41 C 201.48 238.72 201.47 242.03 201.45 245.34 C 200.74 245.34 199.31 245.34 198.59 245.34 C 198.56 242.19 198.52 239.04 198.49 235.90 C 196.98 234.93 195.50 233.93 194.06 232.88 Z" />
<path fill="#ffffff" opacity="1.00" d=" M 231.36 232.52 C 234.50 232.55 237.65 232.54 240.80 232.53 C 240.88 233.03 241.03 234.04 241.11 234.54 C 238.41 234.76 235.79 235.32 233.54 236.88 C 235.93 237.23 238.35 237.48 240.77 237.68 C 240.77 238.17 240.77 239.15 240.77 239.64 C 238.58 239.84 236.39 240.04 234.20 240.25 C 234.19 240.83 234.18 242.01 234.17 242.59 C 237.02 242.79 239.98 243.01 242.25 244.96 C 238.62 245.37 234.98 245.43 231.33 245.32 C 231.37 241.05 231.37 236.79 231.36 232.52 Z" />
<path fill="#ffffff" opacity="1.00" d=" M 243.08 235.21 C 243.46 232.65 246.61 232.07 248.75 232.37 C 251.19 232.37 252.20 234.85 253.44 236.52 C 250.76 235.97 248.08 235.39 245.37 235.02 C 247.69 236.70 250.38 237.82 252.63 239.62 C 254.55 242.72 251.27 246.22 248.00 245.71 C 244.78 246.22 243.16 243.23 241.75 240.93 C 244.73 241.74 247.78 243.32 250.89 242.10 C 248.36 239.94 242.41 239.61 243.08 235.21 Z" />
<path fill="#ffffff" opacity="1.00" d=" M 42.26 232.89 C 46.08 232.55 49.91 232.53 53.74 232.61 C 52.56 233.91 51.25 235.11 50.23 236.55 C 49.21 239.75 50.96 244.33 47.24 246.08 C 46.85 242.67 46.76 239.23 46.71 235.80 C 45.20 234.87 43.71 233.90 42.26 232.89 Z" />
<path fill="#ffffff" opacity="1.00" d=" M 55.03 232.52 C 58.22 232.61 61.55 232.22 64.61 233.34 C 66.11 234.57 65.21 236.55 65.07 238.15 C 64.31 240.80 65.31 243.46 65.71 246.09 C 63.04 244.21 60.75 241.88 58.41 239.63 C 58.16 241.51 57.95 243.40 57.75 245.29 C 57.05 245.31 55.66 245.33 54.96 245.35 C 54.96 241.07 54.98 236.79 55.03 232.52 M 58.26 234.43 C 58.23 235.41 58.17 237.38 58.14 238.37 C 60.00 237.85 61.86 237.31 63.71 236.72 C 61.92 235.89 60.10 235.14 58.26 234.43 Z" />
<path fill="#ffffff" opacity="1.00" d=" M 81.55 232.69 C 82.53 232.62 84.49 232.48 85.47 232.41 C 86.25 234.97 87.03 237.53 87.80 240.10 C 88.58 237.59 89.29 235.07 90.02 232.55 C 91.39 232.64 92.76 232.65 94.14 232.58 C 94.18 237.09 94.29 241.61 93.76 246.10 C 90.68 244.46 91.55 240.72 91.29 237.86 C 90.07 240.45 90.56 245.48 86.93 245.56 C 85.78 243.06 85.09 240.39 84.24 237.78 C 84.18 240.30 84.21 242.81 84.16 245.33 C 83.51 245.33 82.21 245.32 81.55 245.32 C 81.56 241.11 81.56 236.90 81.55 232.69 Z" />
<path fill="#ffffff" opacity="1.00" d=" M 133.13 232.64 C 136.98 232.52 140.84 232.53 144.68 232.90 C 143.20 233.88 141.72 234.85 140.19 235.75 C 140.11 238.95 140.03 242.16 139.91 245.36 C 139.24 245.34 137.90 245.30 137.24 245.28 C 137.15 242.37 137.40 239.40 136.72 236.56 C 135.63 235.15 134.35 233.91 133.13 232.64 Z" />
<path fill="#ffffff" opacity="1.00" d=" M 144.83 232.58 C 145.57 232.61 147.04 232.68 147.78 232.71 C 147.81 236.07 147.88 239.43 148.08 242.79 C 149.46 242.84 150.83 242.89 152.21 242.92 C 152.41 239.58 152.48 236.24 152.51 232.89 C 153.21 232.79 154.62 232.57 155.32 232.46 C 155.28 236.18 155.32 239.90 155.39 243.63 C 152.64 245.56 148.61 246.81 145.83 244.22 C 144.30 240.55 144.98 236.44 144.83 232.58 Z" />
<path fill="#ffffff" opacity="1.00" d=" M 157.79 232.47 C 161.00 232.83 165.14 231.74 167.56 234.44 C 169.41 237.43 169.46 242.27 166.49 244.57 C 163.76 245.74 160.68 245.29 157.79 245.47 C 157.77 241.14 157.77 236.80 157.79 232.47 M 160.77 234.85 C 160.74 237.63 160.73 240.41 160.76 243.19 C 162.36 242.90 163.97 242.65 165.59 242.42 C 165.61 240.15 165.61 237.88 165.56 235.62 C 163.96 235.39 162.36 235.13 160.77 234.85 Z" />
<path fill="#ffffff" opacity="1.00" d=" M 170.71 232.55 C 174.25 232.50 177.80 232.55 181.31 233.10 C 178.32 233.98 175.86 236.06 172.81 236.82 C 175.14 237.20 177.49 237.45 179.84 237.67 C 179.89 238.18 179.98 239.19 180.03 239.70 C 177.91 239.84 175.78 239.98 173.66 240.12 C 173.67 240.77 173.68 242.06 173.68 242.71 C 176.40 242.99 179.13 243.29 181.82 243.83 C 178.44 245.84 174.45 245.46 170.69 245.39 C 170.68 241.11 170.67 236.83 170.71 232.55 Z" />
<path fill="#ffffff" opacity="1.00" d=" M 183.04 231.91 C 186.56 233.57 188.55 236.98 190.56 240.14 C 190.58 237.63 190.60 235.12 190.61 232.62 C 191.28 232.62 192.60 232.63 193.26 232.64 C 193.28 237.11 193.30 241.59 193.02 246.05 C 189.47 244.49 187.50 241.09 185.53 237.95 C 185.53 240.41 185.53 242.88 185.52 245.34 C 184.84 245.33 183.47 245.32 182.79 245.31 C 182.78 240.84 182.73 236.36 183.04 231.91 Z" />
<path fill="#ffffff" opacity="1.00" d=" M 218.82 231.84 C 221.93 233.56 223.93 236.51 225.84 239.40 C 226.13 236.74 226.51 234.08 227.02 231.45 C 230.15 235.68 228.66 241.21 228.57 246.05 C 225.10 244.45 223.13 241.14 221.34 237.96 C 221.21 240.70 221.06 243.44 220.66 246.16 C 216.60 242.60 218.98 236.53 218.82 231.84 Z" />
<path fill="#ffffff" opacity="1.00" d=" M 88.74 250.74 C 89.50 250.77 91.02 250.84 91.78 250.88 C 91.76 255.15 91.76 259.42 91.74 263.69 C 91.02 263.68 89.56 263.66 88.84 263.64 C 88.75 259.34 88.74 255.04 88.74 250.74 Z" />
<path fill="#ffffff" opacity="1.00" d=" M 94.16 250.67 C 97.22 250.82 100.47 250.39 103.37 251.60 C 106.76 254.00 106.79 260.03 103.63 262.63 C 100.74 264.08 97.33 263.48 94.21 263.75 C 94.15 259.39 94.15 255.03 94.16 250.67 M 97.34 252.63 C 97.24 255.54 97.19 258.45 97.18 261.36 C 99.01 261.08 100.83 260.79 102.65 260.50 C 102.47 258.42 102.98 256.08 101.89 254.21 C 100.44 253.51 98.87 253.11 97.34 252.63 Z" />
<path fill="#ffffff" opacity="1.00" d=" M 107.79 250.70 C 111.35 250.76 115.03 250.45 118.45 251.63 C 119.12 253.63 118.51 255.73 118.33 257.77 C 118.01 260.09 119.15 262.26 119.65 264.48 C 116.55 262.72 114.02 260.20 111.42 257.80 C 111.11 259.77 110.81 261.74 110.52 263.72 C 109.87 263.70 108.56 263.67 107.90 263.65 C 107.79 259.33 107.78 255.01 107.79 250.70 M 111.23 252.78 C 111.14 253.74 110.97 255.68 110.89 256.65 C 112.98 256.00 115.02 255.21 117.02 254.32 C 115.10 253.74 113.17 253.25 111.23 252.78 Z" />
<path fill="#ffffff" opacity="1.00" d=" M 121.42 250.83 C 125.26 250.87 129.61 249.83 132.86 252.47 C 130.03 252.88 127.20 253.35 124.34 253.49 C 124.34 253.97 124.34 254.93 124.34 255.41 C 126.94 255.69 129.55 255.90 132.12 256.40 C 129.60 257.66 126.83 258.21 124.15 259.02 C 124.73 262.61 129.52 260.73 132.12 261.40 C 132.06 261.95 131.94 263.06 131.88 263.62 C 128.40 263.59 124.92 263.59 121.44 263.60 C 121.47 259.34 121.47 255.08 121.42 250.83 Z" />
<path fill="#ffffff" opacity="1.00" d=" M 132.88 251.02 C 140.81 250.65 148.77 250.46 156.69 251.16 C 155.20 252.10 153.68 253.01 152.14 253.87 C 151.97 257.15 151.85 260.44 151.73 263.73 C 151.02 263.71 149.60 263.66 148.89 263.64 C 148.79 260.16 148.75 256.69 148.70 253.21 C 146.01 253.22 143.33 253.21 140.64 253.20 C 140.55 256.68 140.53 260.16 140.49 263.65 C 139.47 263.65 138.46 263.65 137.45 263.66 C 137.41 260.55 137.38 257.43 137.36 254.32 C 135.85 253.24 134.34 252.16 132.88 251.02 Z" />
<path fill="#ffffff" opacity="1.00" d=" M 157.33 255.59 C 156.21 250.94 162.29 249.40 165.56 251.17 C 166.65 252.22 167.57 253.45 168.48 254.66 C 165.63 254.20 162.79 253.54 159.90 253.37 C 162.50 255.17 165.80 256.00 168.00 258.34 C 169.38 262.41 164.57 264.68 161.21 263.81 C 158.50 263.81 157.45 261.08 156.32 259.10 C 159.41 259.87 162.45 260.87 165.65 261.10 C 163.21 258.76 160.01 257.56 157.33 255.59 Z" />
<path fill="#ffffff" opacity="1.00" d=" M 170.15 250.92 C 170.90 250.90 172.40 250.86 173.14 250.83 C 173.16 254.14 173.17 257.45 173.19 260.76 C 175.51 261.12 178.19 260.99 180.02 262.70 C 176.90 263.87 173.41 263.59 170.12 263.56 C 170.15 259.35 170.15 255.13 170.15 250.92 Z" />
<path fill="#ffffff" opacity="1.00" d=" M 181.07 262.98 C 182.55 258.36 183.39 252.15 188.49 250.14 C 190.70 254.64 192.72 259.25 194.19 264.05 C 192.10 262.99 190.11 261.67 187.88 260.91 C 185.49 261.14 183.36 262.37 181.07 262.98 M 187.07 255.45 C 185.43 255.88 185.89 258.83 187.67 258.39 C 189.31 258.00 188.77 255.06 187.07 255.45 Z" />
<path fill="#ffffff" opacity="1.00" d=" M 198.00 262.97 C 193.14 260.28 194.24 251.37 200.07 250.69 C 203.64 249.60 206.78 251.79 208.44 254.81 C 205.72 254.38 203.09 253.33 200.32 253.26 C 197.73 254.36 197.52 258.00 198.98 260.08 C 200.59 262.06 203.28 260.74 205.37 260.52 C 203.96 259.26 202.53 258.02 201.12 256.76 C 203.45 256.67 205.79 256.61 208.13 256.58 C 208.12 258.49 208.12 260.42 208.13 262.34 C 204.91 263.33 201.22 264.80 198.00 262.97 Z" />
</g>
<g id="#201f1fff">
<path fill="#201f1f" opacity="1.00" d=" M 143.65 0.00 L 157.33 0.00 C 171.69 1.15 186.02 3.57 199.62 8.44 C 233.43 20.20 262.61 44.57 280.29 75.70 C 292.24 96.34 298.65 119.89 300.00 143.64 L 300.00 157.33 C 298.84 171.95 296.33 186.54 291.31 200.36 C 279.04 235.03 253.49 264.75 221.06 282.10 C 201.51 292.82 179.50 298.51 157.32 300.00 L 141.70 300.00 C 117.90 298.19 94.33 291.55 73.80 279.21 C 43.07 261.18 19.20 231.83 7.87 198.05 C 3.35 184.92 1.08 171.13 0.00 157.32 L 0.00 142.67 C 0.84 132.57 2.17 122.49 4.70 112.67 C 12.85 80.58 32.08 51.48 58.32 31.32 C 82.60 12.29 112.91 1.57 143.65 0.00 M 69.02 40.03 C 42.70 59.35 23.58 88.37 16.70 120.33 C 18.76 120.29 20.83 120.31 22.88 120.07 C 24.06 118.28 24.60 116.17 25.25 114.16 C 27.84 105.58 31.42 97.27 36.13 89.64 C 37.02 99.81 37.64 109.99 38.39 120.17 C 40.62 120.20 42.85 120.22 45.08 120.24 C 46.28 105.46 47.33 90.68 48.40 75.90 C 48.31 69.13 54.86 65.42 58.88 60.93 C 59.89 80.72 61.53 100.47 62.94 120.24 C 65.17 120.22 67.40 120.20 69.63 120.17 C 70.90 103.07 72.20 85.96 73.48 68.85 C 74.02 62.32 73.18 55.72 73.94 49.21 C 76.63 46.41 80.24 44.81 83.53 42.86 C 83.71 52.91 83.18 62.97 84.01 73.00 C 85.18 88.72 86.25 104.45 87.38 120.17 C 89.61 120.20 91.84 120.22 94.07 120.24 C 95.32 105.17 96.32 90.09 97.51 75.02 C 98.77 61.86 97.90 48.64 98.27 35.45 C 107.45 31.96 116.86 29.00 126.57 27.39 C 151.74 22.91 178.03 25.94 201.72 35.45 C 201.98 46.31 201.53 57.18 201.96 68.03 C 203.25 85.44 204.53 102.84 205.91 120.24 C 208.14 120.22 210.37 120.20 212.61 120.16 C 213.70 104.44 214.80 88.71 215.96 73.00 C 216.81 62.96 216.25 52.88 216.46 42.83 C 219.80 44.75 223.07 46.80 226.30 48.92 C 225.77 72.74 228.96 96.42 230.35 120.17 C 232.58 120.20 234.81 120.23 237.04 120.25 C 238.44 100.48 240.08 80.73 241.10 60.94 C 245.14 65.41 251.58 69.15 251.56 75.89 C 252.66 90.68 253.69 105.47 254.90 120.24 C 257.13 120.22 259.36 120.20 261.59 120.16 C 262.31 109.99 262.95 99.81 263.85 89.65 C 268.41 97.07 271.93 105.10 274.49 113.41 C 275.23 115.67 275.83 118.03 277.06 120.09 C 279.12 120.31 281.20 120.29 283.28 120.31 C 276.43 88.60 257.57 59.78 231.55 40.47 C 208.22 22.98 179.16 13.33 150.00 13.45 C 121.08 13.33 92.25 22.81 69.02 40.03 M 143.35 37.38 C 136.95 38.61 130.97 41.75 126.25 46.24 C 116.68 55.04 113.14 69.51 117.20 81.82 C 120.84 93.42 131.09 102.53 142.98 104.97 C 155.84 107.82 169.96 102.32 177.68 91.70 C 185.47 81.45 186.59 66.73 180.61 55.36 C 173.92 42.04 157.96 34.27 143.35 37.38 M 144.35 131.38 C 137.20 134.96 131.05 141.29 129.09 149.20 C 126.82 158.34 130.41 168.41 137.51 174.47 C 144.80 180.83 154.54 182.81 163.57 185.43 C 170.20 187.43 177.46 188.57 183.04 192.97 C 185.77 195.05 186.41 198.98 185.03 202.03 C 183.44 205.78 179.49 207.88 175.67 208.68 C 168.85 210.04 161.39 209.31 155.42 205.55 C 146.60 200.35 141.26 191.25 136.82 182.35 C 133.15 182.37 129.48 182.37 125.81 182.35 C 126.04 194.67 126.48 206.99 126.83 219.32 C 129.54 219.32 132.27 219.47 134.96 219.13 C 137.49 218.74 139.50 216.91 141.97 216.37 C 146.71 217.34 151.18 219.40 155.98 220.20 C 166.98 222.25 178.51 222.24 189.35 219.32 C 198.20 216.78 206.99 211.91 211.70 203.71 C 217.34 194.46 215.97 181.44 208.19 173.82 C 200.28 165.82 188.83 163.57 178.44 160.54 C 172.08 158.59 165.14 157.43 159.80 153.21 C 156.02 150.29 156.71 144.10 160.50 141.50 C 166.45 137.11 174.96 137.42 181.41 140.54 C 190.29 145.19 194.35 154.96 198.48 163.51 C 202.22 163.49 205.95 163.50 209.69 163.56 C 209.43 151.78 209.35 139.99 208.94 128.22 C 206.31 128.27 203.67 128.14 201.05 128.46 C 198.61 128.75 196.50 130.21 194.09 130.61 C 189.12 129.67 184.44 127.49 179.40 126.82 C 167.63 125.10 155.11 125.96 144.35 131.38 M 20.92 128.29 C 20.79 138.48 20.85 148.68 20.89 158.87 C 24.44 158.85 27.98 158.84 31.53 158.80 C 34.06 152.96 37.17 147.20 41.78 142.75 C 45.69 139.08 51.56 140.45 56.42 139.90 C 56.52 160.62 56.43 181.34 56.48 202.07 C 56.22 203.63 56.81 206.07 54.89 206.77 C 50.56 208.33 45.83 208.11 41.30 208.55 C 41.27 212.11 41.25 215.67 41.22 219.24 C 61.75 219.34 82.28 219.33 102.81 219.24 C 102.78 215.72 102.76 212.19 102.73 208.67 C 97.71 208.17 92.71 207.37 87.84 206.02 C 87.23 183.99 87.68 161.94 87.60 139.90 C 92.45 140.45 98.32 139.08 102.23 142.73 C 106.86 147.19 109.96 152.95 112.49 158.80 C 116.05 158.84 119.60 158.85 123.16 158.86 C 123.21 148.67 123.26 138.49 123.12 128.30 C 89.05 128.31 54.99 128.32 20.92 128.29 M 214.68 128.28 C 214.64 131.82 214.63 135.35 214.67 138.89 C 219.56 139.83 225.24 139.41 229.36 142.58 C 229.95 145.68 229.70 148.86 229.74 152.00 C 229.54 170.28 229.97 188.56 229.51 206.84 C 224.66 208.01 219.67 208.30 214.71 208.50 C 214.64 212.09 214.63 215.68 214.63 219.27 C 235.04 219.31 255.44 219.33 275.85 219.25 C 275.83 215.68 275.83 212.11 275.83 208.54 C 270.95 207.99 265.56 208.39 261.25 205.68 C 260.30 200.18 260.96 194.55 260.80 189.00 C 260.98 173.01 260.43 157.01 261.10 141.04 C 265.94 139.94 270.88 139.38 275.81 138.95 C 275.83 135.40 275.83 131.84 275.83 128.29 C 255.45 128.31 235.07 128.33 214.68 128.28 M 71.47 232.52 C 65.10 233.83 65.57 245.21 72.26 245.63 C 76.24 246.49 80.19 243.10 79.71 239.00 C 80.24 234.54 75.60 231.22 71.47 232.52 M 96.31 237.51 C 98.78 239.41 101.92 240.47 103.79 243.09 C 100.88 242.65 98.08 241.74 95.25 241.00 C 96.14 242.37 96.67 244.13 98.08 245.08 C 99.97 245.93 102.24 245.91 104.15 245.14 C 106.16 244.31 107.17 241.30 105.74 239.58 C 103.51 237.76 100.82 236.68 98.51 234.99 C 101.22 235.37 103.90 235.97 106.59 236.52 C 106.26 236.03 105.60 235.05 105.27 234.57 C 103.26 230.29 94.53 232.28 96.31 237.51 M 108.92 234.92 C 107.42 238.25 108.51 242.03 108.36 245.56 C 112.03 245.14 116.79 246.71 119.43 243.36 C 121.32 240.06 120.14 236.06 120.38 232.45 C 116.57 232.86 111.47 231.17 108.92 234.92 M 122.26 237.52 C 124.31 239.72 127.44 240.46 129.91 242.10 C 126.89 243.30 123.92 241.84 121.03 241.01 C 122.15 243.45 123.87 246.20 127.00 245.71 C 130.29 246.23 133.57 242.72 131.63 239.62 C 129.39 237.82 126.70 236.70 124.38 235.02 C 127.09 235.39 129.77 235.97 132.45 236.52 C 131.17 234.52 129.73 231.96 126.94 232.31 C 123.99 231.83 120.95 234.48 122.26 237.52 M 194.06 232.88 C 195.50 233.93 196.98 234.93 198.49 235.90 C 198.52 239.04 198.56 242.19 198.59 245.34 C 199.31 245.34 200.74 245.34 201.45 245.34 C 201.47 242.03 201.48 238.72 201.45 235.41 C 203.08 235.00 204.70 234.58 206.33 234.15 C 206.33 237.88 206.33 241.60 206.32 245.33 C 209.96 245.44 213.60 245.37 217.23 244.95 C 214.94 243.02 211.99 242.78 209.14 242.57 C 209.15 242.06 209.17 241.04 209.18 240.53 C 211.69 240.11 214.24 239.56 216.37 238.07 C 213.99 237.72 211.60 237.49 209.21 237.28 C 209.19 236.78 209.16 235.79 209.14 235.30 C 211.46 235.11 213.77 234.94 216.09 234.77 C 216.02 234.20 215.87 233.07 215.80 232.50 C 208.55 232.75 201.29 232.32 194.06 232.88 M 231.36 232.52 C 231.37 236.79 231.37 241.05 231.33 245.32 C 234.98 245.43 238.62 245.37 242.25 244.96 C 239.98 243.01 237.02 242.79 234.17 242.59 C 234.18 242.01 234.19 240.83 234.20 240.25 C 236.39 240.04 238.58 239.84 240.77 239.64 C 240.77 239.15 240.77 238.17 240.77 237.68 C 238.35 237.48 235.93 237.23 233.54 236.88 C 235.79 235.32 238.41 234.76 241.11 234.54 C 241.03 234.04 240.88 233.03 240.80 232.53 C 237.65 232.54 234.50 232.55 231.36 232.52 M 243.08 235.21 C 242.41 239.61 248.36 239.94 250.89 242.10 C 247.78 243.32 244.73 241.74 241.75 240.93 C 243.16 243.23 244.78 246.22 248.00 245.71 C 251.27 246.22 254.55 242.72 252.63 239.62 C 250.38 237.82 247.69 236.70 245.37 235.02 C 248.08 235.39 250.76 235.97 253.44 236.52 C 252.20 234.85 251.19 232.37 248.75 232.37 C 246.61 232.07 243.46 232.65 243.08 235.21 M 42.26 232.89 C 43.71 233.90 45.20 234.87 46.71 235.80 C 46.76 239.23 46.85 242.67 47.24 246.08 C 50.96 244.33 49.21 239.75 50.23 236.55 C 51.25 235.11 52.56 233.91 53.74 232.61 C 49.91 232.53 46.08 232.55 42.26 232.89 M 55.03 232.52 C 54.98 236.79 54.96 241.07 54.96 245.35 C 55.66 245.33 57.05 245.31 57.75 245.29 C 57.95 243.40 58.16 241.51 58.41 239.63 C 60.75 241.88 63.04 244.21 65.71 246.09 C 65.31 243.46 64.31 240.80 65.07 238.15 C 65.21 236.55 66.11 234.57 64.61 233.34 C 61.55 232.22 58.22 232.61 55.03 232.52 M 81.55 232.69 C 81.56 236.90 81.56 241.11 81.55 245.32 C 82.21 245.32 83.51 245.33 84.16 245.33 C 84.21 242.81 84.18 240.30 84.24 237.78 C 85.09 240.39 85.78 243.06 86.93 245.56 C 90.56 245.48 90.07 240.45 91.29 237.86 C 91.55 240.72 90.68 244.46 93.76 246.10 C 94.29 241.61 94.18 237.09 94.14 232.58 C 92.76 232.65 91.39 232.64 90.02 232.55 C 89.29 235.07 88.58 237.59 87.80 240.10 C 87.03 237.53 86.25 234.97 85.47 232.41 C 84.49 232.48 82.53 232.62 81.55 232.69 M 133.13 232.64 C 134.35 233.91 135.63 235.15 136.72 236.56 C 137.40 239.40 137.15 242.37 137.24 245.28 C 137.90 245.30 139.24 245.34 139.91 245.36 C 140.03 242.16 140.11 238.95 140.19 235.75 C 141.72 234.85 143.20 233.88 144.68 232.90 C 140.84 232.53 136.98 232.52 133.13 232.64 M 144.83 232.58 C 144.98 236.44 144.30 240.55 145.83 244.22 C 148.61 246.81 152.64 245.56 155.39 243.63 C 155.54 239.90 155.51 236.18 155.32 232.46 C 154.62 232.57 153.21 232.79 152.51 232.89 C 152.48 236.24 152.41 239.58 152.21 242.92 C 150.83 242.89 149.46 242.84 148.08 242.79 C 147.88 239.43 147.81 236.07 147.78 232.71 C 147.04 232.68 145.57 232.61 144.83 232.58 M 157.79 232.47 C 157.77 236.80 157.77 241.14 157.79 245.47 C 160.68 245.29 163.76 245.74 166.49 244.57 C 169.46 242.27 169.41 237.43 167.56 234.44 C 165.14 231.74 161.00 232.83 157.79 232.47 M 170.71 232.55 C 170.67 236.83 170.68 241.11 170.69 245.39 C 174.45 245.46 178.44 245.84 181.82 243.83 C 179.13 243.29 176.40 242.99 173.68 242.71 C 173.68 242.06 173.67 240.77 173.66 240.12 C 175.78 239.98 177.91 239.84 180.03 239.70 C 179.98 239.19 179.89 238.18 179.84 237.67 C 177.49 237.45 175.14 237.20 172.81 236.82 C 175.86 236.06 178.32 233.98 181.31 233.10 C 177.80 232.55 174.25 232.50 170.71 232.55 M 183.04 231.91 C 182.73 236.36 182.78 240.84 182.79 245.31 C 183.47 245.32 184.84 245.33 185.52 245.34 C 185.53 242.88 185.53 240.41 185.53 237.95 C 187.50 241.09 189.47 244.49 193.02 246.05 C 193.30 241.59 193.28 237.11 193.26 232.64 C 192.60 232.63 191.28 232.62 190.61 232.62 C 190.60 235.12 190.58 237.63 190.56 240.14 C 188.55 236.98 186.56 233.57 183.04 231.91 M 218.82 231.84 C 218.98 236.53 216.60 242.60 220.66 246.16 C 221.06 243.44 221.21 240.70 221.34 237.96 C 223.13 241.14 225.10 244.45 228.57 246.05 C 228.66 241.21 230.15 235.68 227.02 231.45 C 226.51 234.08 226.13 236.74 225.84 239.40 C 223.93 236.51 221.93 233.56 218.82 231.84 M 88.74 250.74 C 88.74 255.04 88.75 259.34 88.84 263.64 C 89.56 263.66 91.02 263.68 91.74 263.69 C 91.76 259.42 91.76 255.15 91.78 250.88 C 91.02 250.84 89.50 250.77 88.74 250.74 M 94.16 250.67 C 94.15 255.03 94.15 259.39 94.21 263.75 C 97.33 263.48 100.74 264.08 103.63 262.63 C 106.79 260.03 106.76 254.00 103.37 251.60 C 100.47 250.39 97.22 250.82 94.16 250.67 M 107.79 250.70 C 107.78 255.01 107.79 259.33 107.90 263.65 C 108.56 263.67 109.87 263.70 110.52 263.72 C 110.81 261.74 111.11 259.77 111.42 257.80 C 114.02 260.20 116.55 262.72 119.65 264.48 C 119.15 262.26 118.01 260.09 118.33 257.77 C 118.51 255.73 119.12 253.63 118.45 251.63 C 115.03 250.45 111.35 250.76 107.79 250.70 M 121.42 250.83 C 121.47 255.08 121.47 259.34 121.44 263.60 C 124.92 263.59 128.40 263.59 131.88 263.62 C 131.94 263.06 132.06 261.95 132.12 261.40 C 129.52 260.73 124.73 262.61 124.15 259.02 C 126.83 258.21 129.60 257.66 132.12 256.40 C 129.55 255.90 126.94 255.69 124.34 255.41 C 124.34 254.93 124.34 253.97 124.34 253.49 C 127.20 253.35 130.03 252.88 132.86 252.47 C 129.61 249.83 125.26 250.87 121.42 250.83 M 132.88 251.02 C 134.34 252.16 135.85 253.24 137.36 254.32 C 137.38 257.43 137.41 260.55 137.45 263.66 C 138.46 263.65 139.47 263.65 140.49 263.65 C 140.53 260.16 140.55 256.68 140.64 253.20 C 143.33 253.21 146.01 253.22 148.70 253.21 C 148.75 256.69 148.79 260.16 148.89 263.64 C 149.60 263.66 151.02 263.71 151.73 263.73 C 151.85 260.44 151.97 257.15 152.14 253.87 C 153.68 253.01 155.20 252.10 156.69 251.16 C 148.77 250.46 140.81 250.65 132.88 251.02 M 157.33 255.59 C 160.01 257.56 163.21 258.76 165.65 261.10 C 162.45 260.87 159.41 259.87 156.32 259.10 C 157.45 261.08 158.50 263.81 161.21 263.81 C 164.57 264.68 169.38 262.41 168.00 258.34 C 165.80 256.00 162.50 255.17 159.90 253.37 C 162.79 253.54 165.63 254.20 168.48 254.66 C 167.57 253.45 166.65 252.22 165.56 251.17 C 162.29 249.40 156.21 250.94 157.33 255.59 M 170.15 250.92 C 170.15 255.13 170.15 259.35 170.12 263.56 C 173.41 263.59 176.90 263.87 180.02 262.70 C 178.19 260.99 175.51 261.12 173.19 260.76 C 173.17 257.45 173.16 254.14 173.14 250.83 C 172.40 250.86 170.90 250.90 170.15 250.92 M 181.07 262.98 C 183.36 262.37 185.49 261.14 187.88 260.91 C 190.11 261.67 192.10 262.99 194.19 264.05 C 192.72 259.25 190.70 254.64 188.49 250.14 C 183.39 252.15 182.55 258.36 181.07 262.98 M 198.00 262.97 C 201.22 264.80 204.91 263.33 208.13 262.34 C 208.12 260.42 208.12 258.49 208.13 256.58 C 205.79 256.61 203.45 256.67 201.12 256.76 C 202.53 258.02 203.96 259.26 205.37 260.52 C 203.28 260.74 200.59 262.06 198.98 260.08 C 197.52 258.00 197.73 254.36 200.32 253.26 C 203.09 253.33 205.72 254.38 208.44 254.81 C 206.78 251.79 203.64 249.60 200.07 250.69 C 194.24 251.37 193.14 260.28 198.00 262.97 M 144.80 279.15 C 143.66 282.68 147.35 284.97 149.33 287.29 C 147.57 287.56 145.81 287.82 144.06 288.10 C 145.88 288.76 147.99 290.54 149.81 288.92 C 152.76 286.45 153.08 281.75 151.61 278.41 C 150.26 275.42 145.56 276.07 144.80 279.15 M 154.45 276.42 C 154.19 277.46 153.94 278.52 153.69 279.57 C 155.44 279.49 157.19 279.41 158.94 279.34 C 157.70 282.53 156.44 285.71 155.18 288.89 C 155.70 289.19 156.75 289.78 157.27 290.08 C 158.98 285.80 160.25 281.37 161.16 276.85 C 158.92 276.70 156.68 276.56 154.45 276.42 M 163.27 276.39 C 162.90 277.50 162.50 278.62 162.09 279.73 C 163.98 279.54 165.87 279.35 167.76 279.17 C 166.52 282.35 165.25 285.52 164.00 288.71 C 164.53 289.07 165.58 289.79 166.10 290.15 C 167.67 285.81 168.94 281.36 169.99 276.86 C 167.75 276.72 165.51 276.52 163.27 276.39 M 137.26 278.00 C 137.33 281.80 137.70 285.64 137.01 289.43 C 138.49 289.39 139.97 289.37 141.45 289.35 C 141.01 284.99 140.74 280.62 140.37 276.27 C 139.30 276.79 138.18 277.24 137.26 278.00 Z" />
<path fill="#201f1f" opacity="1.00" d=" M 58.26 234.43 C 60.10 235.14 61.92 235.89 63.71 236.72 C 61.86 237.31 60.00 237.85 58.14 238.37 C 58.17 237.38 58.23 235.41 58.26 234.43 Z" />
<path fill="#201f1f" opacity="1.00" d=" M 71.46 235.31 C 74.02 233.64 77.18 236.14 76.75 239.00 C 77.13 241.85 74.02 244.25 71.45 242.68 C 69.53 240.78 69.46 237.18 71.46 235.31 Z" />
<path fill="#201f1f" opacity="1.00" d=" M 111.46 235.46 C 113.08 235.29 114.69 235.11 116.31 234.93 C 114.62 237.05 112.83 239.09 111.01 241.10 C 111.14 239.22 111.29 237.34 111.46 235.46 Z" />
<path fill="#201f1f" opacity="1.00" d=" M 160.77 234.85 C 162.36 235.13 163.96 235.39 165.56 235.62 C 165.61 237.88 165.61 240.15 165.59 242.42 C 163.97 242.65 162.36 242.90 160.76 243.19 C 160.73 240.41 160.74 237.63 160.77 234.85 Z" />
<path fill="#201f1f" opacity="1.00" d=" M 112.31 243.34 C 113.86 241.05 115.74 238.99 118.00 237.39 C 117.59 239.09 117.30 240.87 116.46 242.44 C 115.10 242.82 113.71 243.12 112.31 243.34 Z" />
<path fill="#201f1f" opacity="1.00" d=" M 97.34 252.63 C 98.87 253.11 100.44 253.51 101.89 254.21 C 102.98 256.08 102.47 258.42 102.65 260.50 C 100.83 260.79 99.01 261.08 97.18 261.36 C 97.19 258.45 97.24 255.54 97.34 252.63 Z" />
<path fill="#201f1f" opacity="1.00" d=" M 111.23 252.78 C 113.17 253.25 115.10 253.74 117.02 254.32 C 115.02 255.21 112.98 256.00 110.89 256.65 C 110.97 255.68 111.14 253.74 111.23 252.78 Z" />
<path fill="#201f1f" opacity="1.00" d=" M 187.07 255.45 C 188.77 255.06 189.31 258.00 187.67 258.39 C 185.89 258.83 185.43 255.88 187.07 255.45 Z" />
<path fill="#201f1f" opacity="1.00" d=" M 148.26 279.21 C 150.08 279.04 150.10 282.89 148.28 282.74 C 147.13 282.03 147.10 279.92 148.26 279.21 Z" />
</g>
<g id="#d48c3cff">
<path fill="#d48c3c" opacity="1.00" d=" M 143.35 37.38 C 157.96 34.27 173.92 42.04 180.61 55.36 C 186.59 66.73 185.47 81.45 177.68 91.70 C 169.96 102.32 155.84 107.82 142.98 104.97 C 131.09 102.53 120.84 93.42 117.20 81.82 C 113.14 69.51 116.68 55.04 126.25 46.24 C 130.97 41.75 136.95 38.61 143.35 37.38 Z" />
<path fill="#d48c3c" opacity="1.00" d=" M 144.80 279.15 C 145.56 276.07 150.26 275.42 151.61 278.41 C 153.08 281.75 152.76 286.45 149.81 288.92 C 147.99 290.54 145.88 288.76 144.06 288.10 C 145.81 287.82 147.57 287.56 149.33 287.29 C 147.35 284.97 143.66 282.68 144.80 279.15 M 148.26 279.21 C 147.10 279.92 147.13 282.03 148.28 282.74 C 150.10 282.89 150.08 279.04 148.26 279.21 Z" />
<path fill="#d48c3c" opacity="1.00" d=" M 154.45 276.42 C 156.68 276.56 158.92 276.70 161.16 276.85 C 160.25 281.37 158.98 285.80 157.27 290.08 C 156.75 289.78 155.70 289.19 155.18 288.89 C 156.44 285.71 157.70 282.53 158.94 279.34 C 157.19 279.41 155.44 279.49 153.69 279.57 C 153.94 278.52 154.19 277.46 154.45 276.42 Z" />
<path fill="#d48c3c" opacity="1.00" d=" M 163.27 276.39 C 165.51 276.52 167.75 276.72 169.99 276.86 C 168.94 281.36 167.67 285.81 166.10 290.15 C 165.58 289.79 164.53 289.07 164.00 288.71 C 165.25 285.52 166.52 282.35 167.76 279.17 C 165.87 279.35 163.98 279.54 162.09 279.73 C 162.50 278.62 162.90 277.50 163.27 276.39 Z" />
<path fill="#d48c3c" opacity="1.00" d=" M 137.26 278.00 C 138.18 277.24 139.30 276.79 140.37 276.27 C 140.74 280.62 141.01 284.99 141.45 289.35 C 139.97 289.37 138.49 289.39 137.01 289.43 C 137.70 285.64 137.33 281.80 137.26 278.00 Z" />
</g>
<g id="#bb3234ff">
<path fill="#bb3234" opacity="1.00" d=" M 140.53 137.53 C 151.40 129.35 165.98 127.98 179.08 129.95 C 184.56 130.63 189.55 133.36 194.97 134.19 C 198.51 132.99 201.95 131.39 205.71 130.88 C 206.36 140.66 206.31 150.47 206.38 160.26 C 204.50 160.31 202.62 160.37 200.74 160.44 C 196.72 153.07 193.21 144.87 186.19 139.80 C 178.79 134.39 168.02 133.35 160.01 137.99 C 155.46 140.56 152.85 146.31 154.72 151.33 C 156.38 155.80 160.99 158.11 165.15 159.76 C 174.70 163.28 184.80 165.05 194.30 168.71 C 199.87 170.93 205.29 174.25 208.63 179.36 C 213.23 186.47 213.10 196.31 208.27 203.27 C 203.24 210.82 194.52 214.93 185.94 216.95 C 171.88 219.93 157.00 218.55 143.65 213.27 C 141.22 211.92 139.00 213.71 136.90 214.78 C 134.78 215.99 132.29 216.12 129.94 216.48 C 129.48 206.10 129.25 195.70 129.09 185.30 C 130.94 185.53 132.84 185.55 134.65 186.06 C 137.53 189.42 139.16 193.64 141.86 197.14 C 147.58 204.92 156.05 211.49 165.96 212.28 C 172.41 212.78 179.65 212.19 184.71 207.71 C 188.69 204.33 190.21 198.08 187.54 193.46 C 185.35 189.86 181.39 187.90 177.61 186.38 C 167.18 182.49 155.93 180.99 145.81 176.22 C 138.00 172.57 131.97 164.79 131.61 156.01 C 131.02 148.78 134.94 141.88 140.53 137.53 Z" />
<path fill="#bb3234" opacity="1.00" d=" M 24.16 131.39 C 56.05 131.49 87.95 131.48 119.85 131.39 C 120.20 139.53 120.25 147.69 119.81 155.83 C 118.08 155.73 116.35 155.64 114.63 155.55 C 111.26 149.27 107.86 142.35 101.63 138.44 C 96.21 136.14 90.10 136.99 84.36 136.87 C 84.43 158.27 84.41 179.66 84.36 201.05 C 84.48 203.76 84.40 207.35 87.25 208.76 C 91.11 210.64 95.50 210.88 99.68 211.56 C 99.62 213.01 99.66 214.46 99.77 215.92 C 90.52 216.41 81.25 216.09 72.00 216.17 C 62.75 216.09 53.50 216.42 44.26 215.91 C 44.36 214.45 44.37 212.99 44.30 211.54 C 48.40 211.08 52.70 211.17 56.54 209.50 C 59.44 208.27 59.57 204.75 59.65 202.06 C 59.62 180.33 59.58 158.60 59.65 136.87 C 53.91 136.99 47.79 136.13 42.38 138.45 C 36.16 142.36 32.75 149.27 29.39 155.55 C 27.66 155.64 25.93 155.73 24.20 155.83 C 23.81 147.69 23.86 139.53 24.16 131.39 Z" />
<path fill="#bb3234" opacity="1.00" d=" M 217.90 131.41 C 236.18 131.47 254.47 131.46 272.76 131.42 C 272.70 132.91 272.71 134.41 272.78 135.90 C 268.62 136.57 264.25 136.66 260.33 138.35 C 257.55 139.72 257.82 143.34 257.62 145.95 C 257.66 164.32 257.68 182.68 257.61 201.05 C 257.80 203.72 257.49 207.29 260.19 208.83 C 264.03 210.89 268.52 210.98 272.75 211.58 C 272.69 213.03 272.71 214.49 272.82 215.95 C 254.46 216.39 236.08 216.17 217.71 216.07 C 217.83 214.55 217.90 213.03 217.91 211.50 C 222.09 211.11 226.60 211.43 230.43 209.44 C 232.99 207.97 232.72 204.61 232.89 202.08 C 232.83 183.69 232.82 165.31 232.90 146.92 C 232.77 144.15 232.97 140.43 230.01 139.02 C 226.19 137.15 221.88 136.75 217.76 135.89 C 217.86 134.39 217.90 132.90 217.90 131.41 Z" />
<path fill="#bb3234" opacity="1.00" d=" M 155.32 232.46 C 155.51 236.18 155.54 239.90 155.39 243.63 C 155.32 239.90 155.28 236.18 155.32 232.46 Z" />
</g>
</svg>
