<?xml version="1.0" encoding="UTF-8"?>
<svg width="256px" height="256px" viewBox="0 0 256 256" version="1.1" xmlns="http://www.w3.org/2000/svg" xmlns:xlink="http://www.w3.org/1999/xlink">
    <!-- Generator: Sketch 50.2 (55047) - http://www.bohemiancoding.com/sketch -->
    <title>logo/tsi</title>
    <desc>Created with Sketch.</desc>
    <defs></defs>
    <g id="logo/tsi" stroke="none" stroke-width="1" fill="none" fill-rule="evenodd">
        <circle id="background" fill="#201F1F" cx="128" cy="128" r="128"></circle>
        <g id="#ffffffff" transform="translate(13.653333, 11.093333)" fill="#FFFFFF" fill-rule="nonzero">
            <path d="M45.2437333,23.0656 C65.0666667,8.3712 89.6682667,0.2816 114.346667,0.384 C139.229867,0.2816 164.027733,8.51626667 183.936,23.4410667 C206.139733,39.9189333 222.2336,64.512 228.078933,91.5712 C226.304,91.5541333 224.529067,91.5712 222.7712,91.3834667 C221.7216,89.6256 221.2096,87.6117333 220.578133,85.6832 C218.3936,78.592 215.389867,71.7397333 211.498667,65.408 C210.730667,74.0778667 210.184533,82.7648 209.570133,91.4432 C207.6672,91.4773333 205.764267,91.4944 203.861333,91.5114667 C202.8288,78.9077333 201.949867,66.2869333 201.0112,53.6661333 C201.028267,47.9146667 195.5328,44.7232 192.085333,40.9088 C191.214933,57.7962667 189.815467,74.6496 188.6208,91.52 C186.717867,91.5029333 184.814933,91.4773333 182.912,91.4517333 C181.725867,71.1850667 179.003733,50.9781333 179.456,30.6517333 C176.699733,28.8426667 173.909333,27.0933333 171.0592,25.4549333 C170.88,34.0309333 171.357867,42.6325333 170.632533,51.2 C169.642667,64.6058667 168.704,78.0288 167.773867,91.4432 C165.8624,91.4773333 163.959467,91.4944 162.056533,91.5114667 C160.878933,76.6634667 159.786667,61.8154667 158.685867,46.9589333 C158.318933,37.7002667 158.702933,28.4245333 158.481067,19.1573333 C138.2656,11.0421333 115.831467,8.45653333 94.3530667,12.2794667 C86.0672,13.6533333 78.0373333,16.1792 70.2037333,19.1573333 C69.888,30.4128 70.6304,41.6938667 69.5552,52.9237333 C68.5397333,65.7834667 67.6864,78.6517333 66.6197333,91.5114667 C64.7168,91.4944 62.8138667,91.4773333 60.9109333,91.4517333 C59.9466667,78.0373333 59.0336,64.6144 58.0352,51.2 C57.3269333,42.6410667 57.7792,34.0565333 57.6256,25.4805333 C54.8181333,27.1445333 51.7376,28.5098667 49.4421333,30.8992 C48.7936,36.4544 49.5104,42.0864 49.0496,47.6586667 C47.9573333,62.2592 46.848,76.8597333 45.7642667,91.4517333 C43.8613333,91.4773333 41.9584,91.4944 40.0554667,91.5114667 C38.8522667,74.6410667 37.4528,57.7877333 36.5909333,40.9002667 C33.1605333,44.7317333 27.5712,47.8976 27.648,53.6746667 C26.7349333,66.2869333 25.8389333,78.8992 24.8149333,91.5114667 C22.912,91.4944 21.0090667,91.4773333 19.1061333,91.4517333 C18.4661333,82.7648 17.9370667,74.0778667 17.1776,65.3994667 C13.1584,71.9104 10.1034667,79.0016 7.89333333,86.3232 C7.33866667,88.0384 6.87786667,89.8389333 5.87093333,91.3664 C4.1216,91.5712 2.3552,91.5541333 0.597333333,91.5882667 C6.46826667,64.3157333 22.784,39.552 45.2437333,23.0656 Z" id="Shape"></path>
            <path d="M109.525333,101.0176 C118.7072,96.3925333 129.390933,95.6586667 139.434667,97.1264 C143.735467,97.6981333 147.729067,99.5584 151.970133,100.360533 C154.026667,100.0192 155.8272,98.7733333 157.909333,98.5258667 C160.145067,98.2528 162.397867,98.3637333 164.642133,98.3210667 C164.992,108.3648 165.060267,118.4256 165.282133,128.477867 C162.090667,128.426667 158.907733,128.418133 155.716267,128.4352 C152.192,121.1392 148.727467,112.802133 141.149867,108.834133 C135.645867,106.171733 128.384,105.9072 123.306667,109.653333 C120.072533,111.872 119.483733,117.154133 122.709333,119.645867 C127.266133,123.246933 133.188267,124.2368 138.615467,125.9008 C147.4816,128.4864 157.252267,130.4064 164.002133,137.233067 C170.641067,143.735467 171.810133,154.845867 166.997333,162.7392 C162.978133,169.736533 155.477333,173.892267 147.925333,176.059733 C138.6752,178.551467 128.836267,178.56 119.4496,176.810667 C115.3536,176.128 111.5392,174.370133 107.4944,173.5424 C105.386667,174.0032 103.671467,175.5648 101.512533,175.8976 C99.2170667,176.187733 96.8874667,176.059733 94.5749333,176.059733 C94.2762667,165.538133 93.9008,155.025067 93.7045333,144.512 C96.8362667,144.529067 99.968,144.529067 103.099733,144.512 C106.888533,152.106667 111.445333,159.872 118.971733,164.309333 C124.066133,167.517867 130.432,168.1408 136.251733,166.980267 C139.511467,166.2976 142.882133,164.5056 144.238933,161.3056 C145.416533,158.702933 144.8704,155.349333 142.5408,153.5744 C137.7792,149.819733 131.584,148.846933 125.9264,147.140267 C118.2208,144.904533 109.909333,143.214933 103.688533,137.787733 C97.6298667,132.616533 94.5664,124.023467 96.5034667,116.224 C98.176,109.474133 103.424,104.072533 109.525333,101.0176 Z M106.2656,106.2656 C101.495467,109.9776 98.1504,115.8656 98.6538667,122.0352 C98.9610667,129.527467 104.106667,136.1664 110.7712,139.281067 C119.406933,143.351467 129.006933,144.631467 137.9072,147.950933 C141.1328,149.248 144.512,150.920533 146.3808,153.992533 C148.6592,157.934933 147.362133,163.268267 143.965867,166.152533 C139.648,169.975467 133.469867,170.478933 127.965867,170.052267 C119.509333,169.378133 112.2816,163.771733 107.400533,157.1328 C105.096533,154.146133 103.7056,150.545067 101.248,147.677867 C99.7034667,147.242667 98.0821333,147.2256 96.5034667,147.029333 C96.64,155.904 96.8362667,164.778667 97.2288,173.636267 C99.2341333,173.329067 101.358933,173.218133 103.168,172.1856 C104.96,171.272533 106.8544,169.745067 108.928,170.897067 C120.32,175.402667 133.0176,176.580267 145.015467,174.037333 C152.337067,172.3136 159.778133,168.8064 164.0704,162.363733 C168.192,156.424533 168.302933,148.027733 164.3776,141.960533 C161.527467,137.6 156.9024,134.766933 152.149333,132.872533 C144.042667,129.749333 135.424,128.238933 127.274667,125.2352 C123.7248,123.8272 119.790933,121.856 118.3744,118.0416 C116.778667,113.757867 119.005867,108.8512 122.888533,106.658133 C129.723733,102.698667 138.914133,103.586133 145.2288,108.202667 C151.2192,112.529067 154.2144,119.5264 157.6448,125.815467 C159.249067,125.755733 160.853333,125.704533 162.4576,125.661867 C162.397867,117.307733 162.440533,108.936533 161.885867,100.590933 C158.677333,101.026133 155.741867,102.391467 152.721067,103.415467 C148.096,102.7072 143.837867,100.3776 139.1616,99.7973333 C127.982933,98.1162667 115.541333,99.2853333 106.2656,106.2656 Z" id="Shape"></path>
            <path d="M4.1984,98.3808 C33.2714667,98.4064 62.336,98.3978667 91.4090667,98.3893333 C91.5285333,107.0848 91.4858667,115.771733 91.4432,124.4672 C88.4053333,124.458667 85.376,124.450133 82.3381333,124.416 C80.1792,119.424 77.5338667,114.5088 73.5829333,110.702933 C70.2464,107.588267 65.2373333,108.757333 61.0986667,108.288 C61.1669333,127.095467 60.7829333,145.911467 61.3034667,164.7104 C65.4592,165.8624 69.7258667,166.545067 74.0096,166.971733 C74.0352,169.975467 74.0522667,172.987733 74.0778667,175.991467 C56.5589333,176.068267 39.04,176.0768 21.5210667,175.991467 C21.5466667,172.945067 21.5637333,169.9072 21.5893333,166.869333 C25.4549333,166.493867 29.4912,166.6816 33.1861333,165.3504 C34.8245333,164.753067 34.3210667,162.670933 34.5429333,161.339733 C34.5002667,143.650133 34.5770667,125.969067 34.4917333,108.288 C30.3445333,108.757333 25.3354667,107.588267 21.9989333,110.72 C18.0650667,114.517333 15.4112,119.432533 13.2522667,124.416 C10.2229333,124.450133 7.20213333,124.458667 4.1728,124.475733 C4.13866667,115.780267 4.08746667,107.076267 4.1984,98.3808 Z M6.9632,101.026133 C6.7072,107.972267 6.66453333,114.935467 6.99733333,121.8816 C8.4736,121.796267 9.94986667,121.719467 11.4261333,121.642667 C14.2933333,116.283733 17.2032,110.3872 22.5109333,107.050667 C27.1274667,105.070933 32.3498667,105.8048 37.248,105.7024 C37.1882667,124.245333 37.2224,142.788267 37.248,161.3312 C37.1797333,163.626667 37.0688,166.6304 34.5941333,167.68 C31.3173333,169.105067 27.648,169.028267 24.1493333,169.4208 C24.2090667,170.658133 24.2005333,171.904 24.1152,173.149867 C32,173.585067 39.8933333,173.303467 47.7866667,173.371733 C55.68,173.303467 63.5904,173.576533 71.4837333,173.1584 C71.3898667,171.912533 71.3557333,170.6752 71.4069333,169.437867 C67.84,168.8576 64.0938667,168.6528 60.8,167.048533 C58.368,165.845333 58.4362667,162.781867 58.3338667,160.469333 C58.3765333,142.216533 58.3936,123.963733 58.3338667,105.7024 C63.232,105.8048 68.4458667,105.079467 73.0709333,107.042133 C78.3872,110.378667 81.2885333,116.283733 84.1642667,121.642667 C85.632,121.719467 87.1082667,121.796267 88.5845333,121.8816 C88.96,114.935467 88.9173333,107.972267 88.6186667,101.026133 C61.3973333,101.102933 34.176,101.111467 6.9632,101.026133 Z" id="Shape"></path>
            <path d="M169.540267,98.3722667 C186.939733,98.4149333 204.330667,98.3978667 221.7216,98.3808 C221.7216,101.410133 221.7216,104.448 221.704533,107.477333 C217.4976,107.844267 213.282133,108.322133 209.152,109.2608 C208.580267,122.888533 209.0496,136.541867 208.896,150.186667 C209.032533,154.922667 208.469333,159.726933 209.28,164.420267 C212.957867,166.7328 217.557333,166.391467 221.7216,166.8608 C221.7216,169.9072 221.7216,172.9536 221.738667,176 C204.322133,176.068267 186.914133,176.0512 169.4976,176.017067 C169.4976,172.9536 169.506133,169.890133 169.565867,166.826667 C173.7984,166.656 178.056533,166.408533 182.1952,165.410133 C182.587733,149.8112 182.2208,134.212267 182.391467,118.613333 C182.357333,115.933867 182.570667,113.220267 182.0672,110.574933 C178.551467,107.869867 173.704533,108.228267 169.531733,107.426133 C169.4976,104.405333 169.506133,101.393067 169.540267,98.3722667 Z M172.288,101.0432 C172.288,102.314667 172.253867,103.586133 172.168533,104.866133 C175.684267,105.6 179.362133,105.941333 182.621867,107.537067 C185.147733,108.740267 184.977067,111.914667 185.088,114.2784 C185.019733,129.9712 185.028267,145.655467 185.079467,161.348267 C184.9344,163.5072 185.1648,166.3744 182.980267,167.6288 C179.712,169.326933 175.863467,169.053867 172.296533,169.386667 C172.288,170.692267 172.228267,171.989333 172.125867,173.2864 C187.8016,173.371733 203.485867,173.559467 219.153067,173.184 C219.0592,171.938133 219.042133,170.692267 219.093333,169.454933 C215.483733,168.942933 211.652267,168.866133 208.375467,167.108267 C206.071467,165.794133 206.336,162.747733 206.173867,160.469333 C206.2336,144.7936 206.216533,129.1264 206.1824,113.450667 C206.353067,111.223467 206.122667,108.1344 208.494933,106.965333 C211.84,105.5232 215.569067,105.4464 219.118933,104.874667 C219.0592,103.6032 219.050667,102.3232 219.101867,101.051733 C203.4944,101.085867 187.886933,101.0944 172.288,101.0432 Z" id="Shape"></path>
            <path d="M47.3344,187.323733 C50.8586667,186.2144 54.8181333,189.047467 54.3658667,192.853333 C54.7754667,196.352 51.4048,199.2448 48.0085333,198.510933 C42.2997333,198.152533 41.8986667,188.4416 47.3344,187.323733 Z M47.3258667,189.704533 C45.6192,191.300267 45.6789333,194.372267 47.3173333,195.9936 C49.5104,197.333333 52.1642667,195.285333 51.84,192.853333 C52.2069333,190.4128 49.5104,188.279467 47.3258667,189.704533 Z" id="Shape"></path>
            <path d="M68.5312,191.581867 C67.0122667,187.118933 74.4618667,185.4208 76.1770667,189.073067 C76.4586667,189.482667 77.0218667,190.318933 77.3034667,190.737067 C75.008,190.267733 72.7210667,189.755733 70.4085333,189.431467 C72.3797333,190.8736 74.6752,191.7952 76.5781333,193.348267 C77.7984,194.816 76.9365333,197.384533 75.2213333,198.0928 C73.5914667,198.749867 71.6544,198.766933 70.0416,198.0416 C68.8384,197.230933 68.3861333,195.729067 67.6266667,194.56 C70.0416,195.191467 72.4309333,195.968 74.9141333,196.343467 C73.3184,194.107733 70.6389333,193.2032 68.5312,191.581867 Z" id="Shape"></path>
            <path d="M79.2917333,189.371733 C81.4677333,186.171733 85.8197333,187.613867 89.0709333,187.264 C88.8661333,190.344533 89.8730667,193.757867 88.2602667,196.573867 C86.0074667,199.432533 81.9456,198.0928 78.8138667,198.4512 C78.9418667,195.438933 78.0117333,192.213333 79.2917333,189.371733 Z M81.4592,189.832533 C81.3141333,191.4368 81.1861333,193.041067 81.0752,194.645333 C82.6282667,192.930133 84.1557333,191.189333 85.5978667,189.380267 C84.2154667,189.533867 82.8416,189.687467 81.4592,189.832533 Z M82.1845333,196.5568 C83.3792,196.369067 84.5653333,196.113067 85.7258667,195.7888 C86.4426667,194.449067 86.6901333,192.930133 87.04,191.479467 C85.1114667,192.8448 83.5072,194.602667 82.1845333,196.5568 Z" id="Shape"></path>
            <path d="M90.6752,191.5904 C89.5573333,188.996267 92.1514667,186.734933 94.6688,187.144533 C97.0496,186.845867 98.2784,189.0304 99.3706667,190.737067 C97.0837333,190.267733 94.7968,189.7728 92.4842667,189.457067 C94.464,190.890667 96.7594667,191.8464 98.6709333,193.3824 C100.3264,196.027733 97.5274667,199.022933 94.72,198.5792 C92.0490667,198.997333 90.5813333,196.650667 89.6256,194.568533 C92.0917333,195.2768 94.6261333,196.522667 97.2032,195.498667 C95.0954667,194.0992 92.4245333,193.467733 90.6752,191.5904 Z" id="Shape"></path>
            <path d="M151.944533,187.630933 C158.114133,187.153067 164.309333,187.52 170.496,187.306667 C170.555733,187.793067 170.683733,188.757333 170.743467,189.243733 C168.763733,189.3888 166.792533,189.533867 164.8128,189.696 C164.829867,190.114133 164.855467,190.958933 164.872533,191.3856 C166.912,191.5648 168.951467,191.761067 170.9824,192.059733 C169.1648,193.3312 166.9888,193.800533 164.846933,194.158933 C164.8384,194.594133 164.821333,195.464533 164.8128,195.899733 C167.2448,196.078933 169.762133,196.283733 171.716267,197.930667 C168.618667,198.289067 165.512533,198.3488 162.4064,198.254933 C162.414933,195.072 162.414933,191.8976 162.414933,188.714667 C161.024,189.0816 159.6416,189.44 158.250667,189.789867 C158.276267,192.6144 158.267733,195.438933 158.250667,198.263467 C157.6448,198.263467 156.424533,198.263467 155.810133,198.263467 C155.784533,195.575467 155.7504,192.887467 155.7248,190.208 C154.436267,189.380267 153.173333,188.526933 151.944533,187.630933 Z" id="Shape"></path>
            <path d="M183.773867,187.323733 C186.453333,187.349333 189.141333,187.3408 191.829333,187.332267 C191.8976,187.758933 192.0256,188.6208 192.093867,189.047467 C189.789867,189.2352 187.554133,189.713067 185.634133,191.044267 C187.6736,191.342933 189.738667,191.556267 191.803733,191.726933 C191.803733,192.145067 191.803733,192.981333 191.803733,193.399467 C189.934933,193.570133 188.066133,193.7408 186.197333,193.92 C186.1888,194.414933 186.180267,195.421867 186.171733,195.9168 C188.603733,196.087467 191.1296,196.2752 193.066667,197.9392 C189.969067,198.289067 186.862933,198.340267 183.748267,198.2464 C183.7824,194.602667 183.7824,190.967467 183.773867,187.323733 Z" id="Shape"></path>
            <path d="M193.774933,189.6192 C194.0992,187.434667 196.7872,186.939733 198.613333,187.195733 C200.695467,187.195733 201.557333,189.312 202.615467,190.737067 C200.328533,190.267733 198.0416,189.7728 195.729067,189.457067 C197.7088,190.890667 200.004267,191.8464 201.924267,193.3824 C203.562667,196.027733 200.763733,199.0144 197.973333,198.5792 C195.2256,199.0144 193.8432,196.462933 192.64,194.500267 C195.182933,195.191467 197.7856,196.539733 200.439467,195.498667 C198.280533,193.655467 193.2032,193.373867 193.774933,189.6192 Z" id="Shape"></path>
            <path d="M22.4085333,187.639467 C25.6682667,187.349333 28.9365333,187.332267 32.2048,187.400533 C31.1978667,188.509867 30.08,189.533867 29.2096,190.762667 C28.3392,193.493333 29.8325333,197.4016 26.6581333,198.894933 C26.3253333,195.985067 26.2485333,193.0496 26.2058667,190.122667 C24.9173333,189.329067 23.6458667,188.501333 22.4085333,187.639467 Z" id="Shape"></path>
            <path d="M33.3056,187.323733 C36.0277333,187.400533 38.8693333,187.067733 41.4805333,188.023467 C42.7605333,189.073067 41.9925333,190.762667 41.8730667,192.128 C41.2245333,194.389333 42.0778667,196.6592 42.4192,198.903467 C40.1408,197.2992 38.1866667,195.310933 36.1898667,193.390933 C35.9765333,194.9952 35.7973333,196.608 35.6266667,198.2208 C35.0293333,198.237867 33.8432,198.254933 33.2458667,198.272 C33.2458667,194.619733 33.2629333,190.967467 33.3056,187.323733 Z M36.0618667,188.9536 C36.0362667,189.789867 35.9850667,191.470933 35.9594667,192.315733 C37.5466667,191.872 39.1338667,191.4112 40.7125333,190.907733 C39.1850667,190.199467 37.632,189.559467 36.0618667,188.9536 Z" id="Shape"></path>
            <path d="M55.936,187.4688 C56.7722667,187.409067 58.4448,187.2896 59.2810667,187.229867 C59.9466667,189.4144 60.6122667,191.598933 61.2693333,193.792 C61.9349333,191.650133 62.5408,189.499733 63.1637333,187.349333 C64.3328,187.426133 65.5018667,187.434667 66.6794667,187.374933 C66.7136,191.223467 66.8074667,195.080533 66.3552,198.912 C63.7269333,197.512533 64.4693333,194.321067 64.2474667,191.880533 C63.2064,194.090667 63.6245333,198.382933 60.5269333,198.4512 C59.5456,196.317867 58.9568,194.039467 58.2314667,191.812267 C58.1802667,193.962667 58.2058667,196.104533 58.1632,198.254933 C57.6085333,198.254933 56.4992,198.2464 55.936,198.2464 C55.9445333,194.653867 55.9445333,191.061333 55.936,187.4688 Z" id="Shape"></path>
            <path d="M99.9509333,187.426133 C103.236267,187.323733 106.530133,187.332267 109.806933,187.648 C108.544,188.484267 107.281067,189.312 105.975467,190.08 C105.9072,192.810667 105.838933,195.549867 105.736533,198.280533 C105.1648,198.263467 104.021333,198.229333 103.458133,198.212267 C103.381333,195.729067 103.594667,193.194667 103.0144,190.7712 C102.084267,189.568 100.992,188.509867 99.9509333,187.426133 Z" id="Shape"></path>
            <path d="M109.934933,187.374933 C110.5664,187.400533 111.8208,187.460267 112.452267,187.485867 C112.477867,190.353067 112.5376,193.220267 112.708267,196.087467 C113.885867,196.130133 115.054933,196.1728 116.232533,196.1984 C116.4032,193.348267 116.462933,190.498133 116.488533,187.639467 C117.085867,187.554133 118.289067,187.3664 118.8864,187.272533 C118.852267,190.446933 118.8864,193.621333 118.946133,196.804267 C116.599467,198.4512 113.160533,199.517867 110.788267,197.307733 C109.482667,194.176 110.062933,190.6688 109.934933,187.374933 Z" id="Shape"></path>
            <path d="M120.994133,187.281067 C123.733333,187.588267 127.266133,186.658133 129.3312,188.962133 C130.909867,191.5136 130.952533,195.643733 128.418133,197.6064 C126.088533,198.6048 123.460267,198.2208 120.994133,198.3744 C120.977067,194.679467 120.977067,190.976 120.994133,187.281067 Z M123.537067,189.312 C123.511467,191.684267 123.502933,194.056533 123.528533,196.4288 C124.893867,196.181333 126.267733,195.968 127.650133,195.771733 C127.6672,193.834667 127.6672,191.8976 127.624533,189.969067 C126.2592,189.7728 124.893867,189.550933 123.537067,189.312 Z" id="Shape"></path>
            <path d="M132.0192,187.349333 C135.04,187.306667 138.069333,187.349333 141.064533,187.818667 C138.513067,188.5696 136.413867,190.344533 133.8112,190.993067 C135.799467,191.317333 137.8048,191.530667 139.810133,191.7184 C139.8528,192.1536 139.9296,193.015467 139.972267,193.450667 C138.1632,193.570133 136.3456,193.6896 134.536533,193.809067 C134.545067,194.363733 134.5536,195.464533 134.5536,196.0192 C136.874667,196.258133 139.204267,196.514133 141.499733,196.974933 C138.615467,198.690133 135.210667,198.365867 132.002133,198.306133 C131.9936,194.653867 131.985067,191.0016 132.0192,187.349333 Z" id="Shape"></path>
            <path d="M142.5408,186.8032 C145.544533,188.219733 147.242667,191.1296 148.957867,193.826133 C148.974933,191.684267 148.992,189.5424 149.000533,187.409067 C149.572267,187.409067 150.698667,187.4176 151.261867,187.426133 C151.278933,191.240533 151.296,195.063467 151.057067,198.869333 C148.027733,197.538133 146.346667,194.6368 144.6656,191.957333 C144.6656,194.056533 144.6656,196.164267 144.657067,198.263467 C144.0768,198.254933 142.907733,198.2464 142.327467,198.237867 C142.318933,194.423467 142.276267,190.600533 142.5408,186.8032 Z" id="Shape"></path>
            <path d="M173.073067,186.743467 C175.726933,188.2112 177.4336,190.728533 179.063467,193.194667 C179.310933,190.9248 179.6352,188.654933 180.0704,186.410667 C182.741333,190.020267 181.469867,194.7392 181.393067,198.869333 C178.432,197.504 176.750933,194.679467 175.223467,191.965867 C175.112533,194.304 174.984533,196.642133 174.6432,198.9632 C171.178667,195.925333 173.2096,190.7456 173.073067,186.743467 Z" id="Shape"></path>
            <path d="M62.0714667,202.871467 C62.72,202.897067 64.0170667,202.9568 64.6656,202.990933 C64.6485333,206.634667 64.6485333,210.2784 64.6314667,213.922133 C64.0170667,213.9136 62.7712,213.896533 62.1568,213.879467 C62.08,210.210133 62.0714667,206.5408 62.0714667,202.871467 Z" id="Shape"></path>
            <path d="M66.6965333,202.811733 C69.3077333,202.939733 72.0810667,202.5728 74.5557333,203.605333 C77.4485333,205.653333 77.4741333,210.798933 74.7776,213.0176 C72.3114667,214.254933 69.4016,213.742933 66.7392,213.973333 C66.688,210.2528 66.688,206.532267 66.6965333,202.811733 Z M69.4101333,204.484267 C69.3248,206.967467 69.2821333,209.450667 69.2736,211.933867 C70.8352,211.694933 72.3882667,211.447467 73.9413333,211.2 C73.7877333,209.425067 74.2229333,207.428267 73.2928,205.832533 C72.0554667,205.2352 70.7157333,204.893867 69.4101333,204.484267 Z" id="Shape"></path>
            <path d="M78.3274667,202.837333 C81.3653333,202.888533 84.5056,202.624 87.424,203.630933 C87.9957333,205.3376 87.4752,207.1296 87.3216,208.8704 C87.0485333,210.850133 88.0213333,212.701867 88.448,214.596267 C85.8026667,213.0944 83.6437333,210.944 81.4250667,208.896 C81.1605333,210.577067 80.9045333,212.258133 80.6570667,213.947733 C80.1024,213.930667 78.9845333,213.905067 78.4213333,213.888 C78.3274667,210.2016 78.3189333,206.5152 78.3274667,202.837333 Z M81.2629333,204.612267 C81.1861333,205.431467 81.0410667,207.086933 80.9728,207.914667 C82.7562667,207.36 84.4970667,206.685867 86.2037333,205.9264 C84.5653333,205.431467 82.9184,205.013333 81.2629333,204.612267 Z" id="Shape"></path>
            <path d="M89.9584,202.948267 C93.2352,202.9824 96.9472,202.094933 99.7205333,204.347733 C97.3056,204.6976 94.8906667,205.098667 92.4501333,205.218133 C92.4501333,205.627733 92.4501333,206.446933 92.4501333,206.856533 C94.6688,207.095467 96.896,207.274667 99.0890667,207.701333 C96.9386667,208.776533 94.5749333,209.245867 92.288,209.937067 C92.7829333,213.000533 96.8704,211.396267 99.0890667,211.968 C99.0378667,212.437333 98.9354667,213.384533 98.8842667,213.8624 C95.9146667,213.8368 92.9450667,213.8368 89.9754667,213.845333 C90.0010667,210.210133 90.0010667,206.574933 89.9584,202.948267 Z" id="Shape"></path>
            <path d="M99.7376,203.1104 C106.504533,202.794667 113.297067,202.632533 120.055467,203.229867 C118.784,204.032 117.486933,204.808533 116.1728,205.5424 C116.027733,208.341333 115.925333,211.1488 115.822933,213.956267 C115.217067,213.9392 114.005333,213.896533 113.399467,213.879467 C113.314133,210.909867 113.28,207.9488 113.237333,204.9792 C110.941867,204.987733 108.654933,204.9792 106.359467,204.970667 C106.282667,207.940267 106.2656,210.909867 106.231467,213.888 C105.361067,213.888 104.4992,213.888 103.637333,213.896533 C103.6032,211.242667 103.5776,208.580267 103.560533,205.9264 C102.272,205.0048 100.983467,204.0832 99.7376,203.1104 Z" id="Shape"></path>
            <path d="M120.6016,207.010133 C119.645867,203.042133 124.834133,201.728 127.624533,203.2384 C128.554667,204.1344 129.339733,205.184 130.116267,206.216533 C127.684267,205.824 125.2608,205.2608 122.794667,205.115733 C125.013333,206.651733 127.829333,207.36 129.706667,209.3568 C130.884267,212.829867 126.779733,214.766933 123.912533,214.024533 C121.6,214.024533 120.704,211.694933 119.739733,210.005333 C122.376533,210.6624 124.970667,211.515733 127.701333,211.712 C125.6192,209.7152 122.888533,208.6912 120.6016,207.010133 Z" id="Shape"></path>
            <path d="M131.541333,203.025067 C132.181333,203.008 133.461333,202.973867 134.0928,202.948267 C134.109867,205.7728 134.1184,208.597333 134.135467,211.421867 C136.1152,211.729067 138.402133,211.618133 139.963733,213.077333 C137.301333,214.075733 134.3232,213.8368 131.515733,213.8112 C131.541333,210.218667 131.541333,206.6176 131.541333,203.025067 Z" id="Shape"></path>
            <path d="M140.859733,213.316267 C142.122667,209.373867 142.839467,204.074667 147.191467,202.359467 C149.077333,206.199467 150.801067,210.133333 152.055467,214.229333 C150.272,213.3248 148.573867,212.1984 146.670933,211.549867 C144.631467,211.746133 142.813867,212.795733 140.859733,213.316267 Z M145.979733,206.890667 C144.580267,207.2576 144.9728,209.774933 146.491733,209.399467 C147.8912,209.066667 147.4304,206.557867 145.979733,206.890667 Z" id="Shape"></path>
            <path d="M155.306667,213.307733 C151.159467,211.012267 152.098133,203.409067 157.073067,202.8288 C160.119467,201.898667 162.798933,203.767467 164.215467,206.344533 C161.8944,205.9776 159.650133,205.0816 157.2864,205.021867 C155.076267,205.960533 154.897067,209.066667 156.142933,210.8416 C157.5168,212.5312 159.812267,211.4048 161.595733,211.217067 C160.392533,210.141867 159.172267,209.083733 157.969067,208.008533 C159.957333,207.931733 161.954133,207.880533 163.950933,207.854933 C163.9424,209.4848 163.9424,211.131733 163.950933,212.770133 C161.2032,213.614933 158.0544,214.869333 155.306667,213.307733 Z" id="Shape"></path>
        </g>
        <g id="#d48c3cff" transform="translate(98.133333, 30.720000)" fill="#D48C3C" fill-rule="nonzero">
            <path d="M24.192,1.1776 C36.6592,-1.47626667 50.2784,5.15413333 55.9872,16.5205333 C61.0901333,26.2229333 60.1344,38.784 53.4869333,47.5306667 C46.8992,56.5930667 34.8501333,61.2864 23.8762667,58.8544 C13.7301333,56.7722667 4.98346667,48.9984 1.87733333,39.0997333 C-1.5872,28.5952 1.4336,16.2474667 9.6,8.73813333 C13.6277333,4.90666667 18.7306667,2.2272 24.192,1.1776 Z" id="Shape"></path>
            <path d="M25.4293333,207.488 C26.0778667,204.859733 30.0885333,204.305067 31.2405333,206.856533 C32.4949333,209.706667 32.2218667,213.717333 29.7045333,215.825067 C28.1514667,217.207467 26.3509333,215.688533 24.7978667,215.125333 C26.2912,214.8864 27.7930667,214.664533 29.2949333,214.434133 C27.6053333,212.4544 24.4565333,210.500267 25.4293333,207.488 Z M28.3818667,207.5392 C27.392,208.145067 27.4176,209.9456 28.3989333,210.551467 C29.952,210.679467 29.9349333,207.394133 28.3818667,207.5392 Z" id="Shape"></path>
            <path d="M33.664,205.1584 C35.5669333,205.277867 37.4784,205.397333 39.3898667,205.525333 C38.6133333,209.3824 37.5296,213.162667 36.0704,216.814933 C35.6266667,216.558933 34.7306667,216.055467 34.2869333,215.799467 C35.3621333,213.085867 36.4373333,210.372267 37.4954667,207.650133 C36.0021333,207.709867 34.5088,207.778133 33.0154667,207.8464 C33.2288,206.9504 33.4421333,206.045867 33.664,205.1584 Z" id="Shape"></path>
            <path d="M41.1904,205.1328 C43.1018667,205.243733 45.0133333,205.4144 46.9248,205.533867 C46.0288,209.373867 44.9450667,213.1712 43.6053333,216.874667 C43.1616,216.567467 42.2656,215.953067 41.8133333,215.645867 C42.88,212.923733 43.9637333,210.218667 45.0218667,207.505067 C43.4090667,207.658667 41.7962667,207.8208 40.1834667,207.982933 C40.5333333,207.035733 40.8746667,206.08 41.1904,205.1328 Z" id="Shape"></path>
            <path d="M18.9952,206.506667 C19.7802667,205.858133 20.736,205.474133 21.6490667,205.0304 C21.9648,208.7424 22.1952,212.471467 22.5706667,216.192 C21.3077333,216.209067 20.0448,216.226133 18.7818667,216.260267 C19.3706667,213.026133 19.0549333,209.749333 18.9952,206.506667 Z" id="Shape"></path>
        </g>
        <g id="#bb3234ff" transform="translate(19.626667, 110.080000)" fill="#BB3234" fill-rule="nonzero">
            <path d="M100.292267,7.27893333 C109.568,0.298666667 122.0096,-0.8704 133.188267,0.810666667 C137.864533,1.39093333 142.122667,3.72053333 146.747733,4.4288 C149.768533,3.4048 152.704,2.03946667 155.912533,1.60426667 C156.4672,9.94986667 156.424533,18.3210667 156.484267,26.6752 C154.88,26.7178667 153.275733,26.7690667 151.671467,26.8288 C148.241067,20.5397333 145.245867,13.5424 139.255467,9.216 C132.9408,4.59946667 123.7504,3.712 116.9152,7.67146667 C113.032533,9.86453333 110.805333,14.7712 112.401067,19.0549333 C113.8176,22.8693333 117.751467,24.8405333 121.301333,26.2485333 C129.450667,29.2522667 138.069333,30.7626667 146.176,33.8858667 C150.929067,35.7802667 155.554133,38.6133333 158.404267,42.9738667 C162.3296,49.0410667 162.218667,57.4378667 158.097067,63.3770667 C153.8048,69.8197333 146.363733,73.3269333 139.042133,75.0506667 C127.044267,77.5936 114.346667,76.416 102.954667,71.9104 C100.881067,70.7584 98.9866667,72.2858667 97.1946667,73.1989333 C95.3856,74.2314667 93.2608,74.3424 91.2554667,74.6496 C90.8629333,65.792 90.6666667,56.9173333 90.5301333,48.0426667 C92.1088,48.2389333 93.7301333,48.256 95.2746667,48.6912 C97.7322667,51.5584 99.1232,55.1594667 101.4272,58.1461333 C106.308267,64.7850667 113.536,70.3914667 121.992533,71.0656 C127.496533,71.4922667 133.674667,70.9888 137.992533,67.1658667 C141.3888,64.2816 142.685867,58.9482667 140.407467,55.0058667 C138.538667,51.9338667 135.159467,50.2613333 131.933867,48.9642667 C123.0336,45.6448 113.4336,44.3648 104.797867,40.2944 C98.1333333,37.1797333 92.9877333,30.5408 92.6805333,23.0485333 C92.1770667,16.8789333 95.5221333,10.9909333 100.292267,7.27893333 Z" id="Shape"></path>
            <path d="M0.989866667,2.03946667 C28.2026667,2.1248 55.424,2.11626667 82.6453333,2.03946667 C82.944,8.9856 82.9866667,15.9488 82.6112,22.8949333 C81.1349333,22.8096 79.6586667,22.7328 78.1909333,22.656 C75.3152,17.2970667 72.4138667,11.392 67.0976,8.05546667 C62.4725333,6.0928 57.2586667,6.81813333 52.3605333,6.71573333 C52.4202667,24.9770667 52.4032,43.2298667 52.3605333,61.4826667 C52.4629333,63.7952 52.3946667,66.8586667 54.8266667,68.0618667 C58.1205333,69.6661333 61.8666667,69.8709333 65.4336,70.4512 C65.3824,71.6885333 65.4165333,72.9258667 65.5104,74.1717333 C57.6170667,74.5898667 49.7066667,74.3168 41.8133333,74.3850667 C33.92,74.3168 26.0266667,74.5984 18.1418667,74.1632 C18.2272,72.9173333 18.2357333,71.6714667 18.176,70.4341333 C21.6746667,70.0416 25.344,70.1184 28.6208,68.6933333 C31.0954667,67.6437333 31.2064,64.64 31.2746667,62.3445333 C31.2490667,43.8016 31.2149333,25.2586667 31.2746667,6.71573333 C26.3765333,6.81813333 21.1541333,6.08426667 16.5376,8.064 C11.2298667,11.4005333 8.32,17.2970667 5.4528,22.656 C3.97653333,22.7328 2.50026667,22.8096 1.024,22.8949333 C0.6912,15.9488 0.733866667,8.9856 0.989866667,2.03946667 Z" id="Shape"></path>
            <path d="M166.314667,2.05653333 C181.9136,2.10773333 197.521067,2.0992 213.128533,2.06506667 C213.077333,3.33653333 213.085867,4.61653333 213.1456,5.888 C209.595733,6.45973333 205.866667,6.53653333 202.5216,7.97866667 C200.149333,9.14773333 200.379733,12.2368 200.209067,14.464 C200.2432,30.1397333 200.260267,45.8069333 200.200533,61.4826667 C200.362667,63.7610667 200.098133,66.8074667 202.402133,68.1216 C205.678933,69.8794667 209.5104,69.9562667 213.12,70.4682667 C213.0688,71.7056 213.085867,72.9514667 213.179733,74.1973333 C197.512533,74.5728 181.828267,74.3850667 166.152533,74.2997333 C166.254933,73.0026667 166.314667,71.7056 166.3232,70.4 C169.890133,70.0672 173.738667,70.3402667 177.006933,68.6421333 C179.191467,67.3877333 178.961067,64.5205333 179.106133,62.3616 C179.054933,46.6688 179.0464,30.9845333 179.114667,15.2917333 C179.003733,12.928 179.1744,9.7536 176.648533,8.5504 C173.3888,6.95466667 169.710933,6.61333333 166.1952,5.87946667 C166.280533,4.59946667 166.314667,3.328 166.314667,2.05653333 Z" id="Shape"></path>
            <path d="M112.913067,88.2858667 C113.0752,91.4602667 113.1008,94.6346667 112.9728,97.8176 C112.913067,94.6346667 112.878933,91.4602667 112.913067,88.2858667 Z" id="Shape"></path>
        </g>
    </g>
</svg>