<?xml version="1.0" encoding="UTF-8" ?>
<!DOCTYPE svg PUBLIC "-//W3C//DTD SVG 1.1//EN" "http://www.w3.org/Graphics/SVG/1.1/DTD/svg11.dtd">
<svg width="208pt" height="126pt" viewBox="0 0 208 126" version="1.1" xmlns="http://www.w3.org/2000/svg">
<g id="#ffffffff">
</g>
<g id="#fe0001ff">
<path fill="#fe0001" opacity="1.00" d=" M 174.98 0.00 L 180.00 0.00 C 176.36 6.09 174.50 13.40 175.67 20.48 C 176.06 23.24 177.09 25.88 177.41 28.66 C 175.82 30.76 173.80 32.48 171.88 34.26 C 167.00 26.55 165.54 16.64 168.92 8.05 C 170.24 4.99 171.52 1.21 174.98 0.00 Z" />
<path fill="#fe0001" opacity="1.00" d=" M 162.28 6.30 C 163.96 3.52 167.27 2.60 170.01 1.20 C 166.60 7.18 164.39 14.05 165.21 21.01 C 165.56 26.09 167.72 30.75 170.08 35.18 C 167.76 36.81 165.13 38.14 162.27 38.40 C 155.88 28.95 155.71 15.70 162.28 6.30 Z" />
<path fill="#fe0001" opacity="1.00" d=" M 178.85 6.65 C 179.89 4.52 180.95 2.39 182.02 0.26 C 193.21 1.18 202.59 9.67 206.03 20.13 C 202.98 16.79 199.99 13.25 195.97 11.03 C 190.85 7.86 184.79 6.78 178.85 6.65 Z" />
<path fill="#fe0001" opacity="1.00" d=" M 178.20 8.81 C 189.40 7.94 200.80 14.06 205.76 24.22 C 207.70 27.23 206.78 30.89 206.64 34.22 C 203.22 28.55 198.74 23.30 192.64 20.44 C 187.87 17.98 182.47 17.23 177.16 17.21 C 177.37 14.39 177.71 11.59 178.20 8.81 Z" />
<path fill="#fe0001" opacity="1.00" d=" M 152.91 39.64 C 148.77 29.59 150.57 17.47 157.85 9.31 C 156.65 13.78 155.13 18.28 155.38 22.98 C 155.41 28.78 157.57 34.25 160.32 39.26 C 157.85 39.45 155.38 39.59 152.91 39.64 Z" />
<path fill="#fe0001" opacity="1.00" d=" M 177.35 19.28 C 189.22 18.51 201.28 25.79 205.39 37.08 C 205.12 39.36 203.75 41.31 202.85 43.38 C 198.39 35.61 190.93 29.45 181.99 27.80 C 177.73 27.62 178.36 22.23 177.35 19.28 Z" />
<path fill="#fe0001" opacity="1.00" d=" M 171.64 36.65 C 174.83 34.75 177.06 31.73 179.84 29.35 C 182.46 29.76 184.98 30.64 187.49 31.48 C 182.21 42.07 170.05 48.98 158.23 46.93 C 156.14 46.06 155.37 43.48 154.00 41.80 C 160.18 41.56 166.47 40.19 171.64 36.65 Z" />
<path fill="#fe0001" opacity="1.00" d=" M 189.32 32.34 C 191.64 33.89 193.87 35.57 196.01 37.36 C 191.37 47.61 180.28 54.42 169.01 53.69 C 165.38 53.92 162.62 51.32 159.80 49.47 C 167.02 49.45 174.40 47.72 180.18 43.20 C 184.09 40.40 186.87 36.40 189.32 32.34 Z" />
<path fill="#fe0001" opacity="1.00" d=" M 197.58 39.04 C 198.94 41.08 200.26 43.16 201.52 45.26 C 194.90 53.96 183.32 58.43 172.61 55.93 C 183.10 54.73 192.61 48.38 197.58 39.04 Z" />
<path fill="#fe0001" opacity="1.00" d=" M 3.87 47.95 C 8.11 47.07 12.49 47.37 16.78 47.60 C 20.66 47.63 22.73 51.49 25.95 53.01 C 30.73 54.57 36.51 52.26 40.73 55.60 C 42.30 56.66 41.41 58.98 40.28 60.04 C 35.46 62.10 29.85 59.96 25.09 62.19 C 22.43 63.78 22.59 67.25 22.49 69.95 C 22.53 78.24 21.87 86.61 23.14 94.83 C 23.52 98.03 27.34 98.65 29.95 98.27 C 33.64 98.17 35.10 94.32 37.56 92.24 C 40.93 92.37 43.10 95.53 45.43 97.59 C 47.19 99.66 50.17 102.37 48.41 105.29 C 45.06 107.41 40.81 106.62 37.04 106.94 C 30.84 106.84 24.50 107.27 18.42 105.80 C 13.38 103.42 9.98 98.74 6.06 94.94 C 3.40 92.33 0.92 89.37 0.00 85.67 L 0.00 67.59 C 0.19 62.70 0.02 57.80 0.23 52.91 C 0.17 50.71 1.58 48.34 3.87 47.95 Z" />
<path fill="#fe0001" opacity="1.00" d=" M 57.46 48.56 C 61.11 47.51 65.02 47.58 68.74 48.20 C 70.49 48.36 72.11 49.67 72.52 51.38 C 73.81 60.53 71.62 70.09 74.28 79.04 C 76.11 78.88 78.18 79.01 79.61 77.65 C 82.42 75.13 85.52 72.31 86.15 68.39 C 87.54 62.28 85.34 55.68 87.83 49.80 C 90.77 46.89 95.27 47.57 99.02 47.65 C 101.69 47.83 105.25 47.57 106.61 50.45 C 107.80 54.47 107.61 59.05 105.83 62.88 C 104.06 65.68 101.41 67.77 99.14 70.15 C 88.36 81.04 77.50 91.86 66.78 102.82 C 64.61 105.08 61.64 107.20 58.33 106.59 C 55.48 105.94 54.52 102.65 54.68 100.07 C 54.67 85.02 54.70 69.98 54.67 54.93 C 54.60 52.58 55.13 49.69 57.46 48.56 Z" />
<path fill="#fe0001" opacity="1.00" d=" M 113.02 52.03 C 112.96 49.36 115.46 47.54 117.97 47.60 C 123.98 47.33 130.03 47.34 136.00 48.13 C 140.21 48.74 145.18 45.89 148.72 49.28 C 153.74 53.59 158.29 58.42 162.80 63.25 C 165.09 65.50 166.11 68.72 166.01 71.89 C 165.95 81.92 165.97 91.95 165.82 101.97 C 165.98 104.19 164.07 106.00 161.91 105.99 C 156.98 106.36 151.51 107.78 146.95 105.19 C 144.59 104.11 144.65 101.25 144.60 99.05 C 144.56 85.78 144.61 72.50 144.41 59.23 C 144.10 55.55 140.95 50.56 136.73 51.58 C 134.83 53.55 134.38 56.37 134.34 59.00 C 134.17 67.01 134.25 75.03 134.09 83.05 C 134.23 87.57 130.69 90.83 127.84 93.85 C 124.02 97.68 120.47 101.88 115.99 104.97 C 113.28 106.80 109.86 106.20 106.98 105.14 C 109.33 101.33 112.46 97.63 112.63 92.93 C 113.07 79.30 112.66 65.66 113.02 52.03 Z" />
<path fill="#fe0001" opacity="1.00" d=" M 17.32 116.83 C 20.51 116.50 23.72 116.45 26.92 116.44 C 25.80 117.45 24.58 118.35 23.59 119.49 C 23.31 121.65 23.39 123.83 23.33 126.00 L 21.40 126.00 C 21.39 123.58 21.38 121.17 21.40 118.75 C 20.03 118.13 18.67 117.49 17.32 116.83 Z" />
<path fill="#fe0001" opacity="1.00" d=" M 27.92 118.00 C 29.64 115.66 33.55 115.72 35.57 117.62 C 37.41 120.20 36.01 123.35 35.15 126.00 L 28.99 126.00 C 27.47 123.68 26.42 120.60 27.92 118.00 M 29.76 118.07 C 29.59 120.11 29.58 122.16 29.70 124.21 C 31.20 124.19 32.70 124.16 34.19 124.11 C 34.17 122.20 34.29 120.25 33.75 118.39 C 32.43 118.19 31.10 118.09 29.76 118.07 Z" />
<path fill="#fe0001" opacity="1.00" d=" M 38.29 116.30 C 40.64 116.41 43.01 116.36 45.32 116.85 C 46.80 118.17 46.26 120.28 46.45 122.03 C 44.52 122.29 42.60 122.52 40.68 122.73 C 40.33 123.83 39.97 124.92 39.60 126.00 L 38.24 126.00 C 38.24 122.77 38.24 119.53 38.29 116.30 M 40.29 118.17 C 40.30 118.86 40.33 120.23 40.34 120.91 C 41.52 120.86 42.70 120.81 43.89 120.76 C 43.90 120.14 43.91 118.89 43.92 118.27 C 42.71 118.23 41.50 118.20 40.29 118.17 Z" />
<path fill="#fe0001" opacity="1.00" d=" M 48.36 116.28 C 50.71 116.41 53.11 116.32 55.40 116.92 C 57.03 117.97 56.61 120.03 56.22 121.61 C 54.44 122.33 52.53 122.60 50.66 122.98 C 50.41 123.73 49.90 125.24 49.65 126.00 L 48.28 126.00 C 48.32 122.76 48.31 119.52 48.36 116.28 M 50.33 118.13 C 50.33 118.83 50.32 120.23 50.32 120.93 C 51.60 120.86 52.89 120.79 54.18 120.71 C 54.19 120.12 54.21 118.94 54.22 118.35 C 52.92 118.27 51.63 118.20 50.33 118.13 Z" />
<path fill="#fe0001" opacity="1.00" d=" M 57.25 115.20 C 59.55 117.23 60.81 120.05 62.04 122.80 C 63.26 120.06 64.54 117.28 66.72 115.16 C 66.16 118.97 64.56 122.49 63.05 126.00 L 61.27 126.00 C 59.43 122.61 57.87 119.02 57.25 115.20 Z" />
<path fill="#fe0001" opacity="1.00" d=" M 67.45 119.51 C 68.06 115.11 75.89 115.08 76.46 119.52 C 76.99 121.77 75.86 123.93 75.15 126.00 L 69.04 126.00 C 67.91 124.05 66.82 121.81 67.45 119.51 M 69.65 118.54 C 69.62 120.42 69.68 122.29 69.80 124.17 C 71.29 124.17 72.78 124.15 74.27 124.11 C 74.29 121.97 74.08 119.84 73.61 117.76 C 72.62 117.95 70.64 118.34 69.65 118.54 Z" />
<path fill="#fe0001" opacity="1.00" d=" M 79.06 114.96 C 79.87 117.68 80.21 120.51 80.41 123.34 C 82.04 124.19 83.64 125.09 85.25 126.00 L 79.81 126.00 C 77.27 122.85 77.88 118.53 79.06 114.96 Z" />
<path fill="#fe0001" opacity="1.00" d=" M 87.01 126.00 C 85.27 122.54 85.46 118.46 87.05 114.99 C 87.71 117.76 87.86 120.60 88.01 123.43 C 89.74 124.24 91.44 125.12 93.14 126.00 L 87.01 126.00 Z" />
<path fill="#fe0001" opacity="1.00" d=" M 94.88 116.98 C 98.61 115.97 103.24 115.87 105.99 119.03 C 107.37 117.84 108.78 116.68 110.25 115.60 C 108.68 118.95 106.92 122.26 106.49 126.00 L 105.45 126.00 C 105.14 122.76 103.84 119.79 102.02 117.12 C 99.59 117.81 97.13 118.39 94.73 119.18 C 97.15 119.88 99.60 120.44 102.01 121.15 C 99.47 121.73 96.90 122.17 94.35 122.71 C 96.92 123.74 99.51 124.74 101.98 126.00 L 95.18 126.00 C 92.90 123.62 92.01 119.27 94.88 116.98 Z" />
<path fill="#fe0001" opacity="1.00" d=" M 116.78 116.34 C 117.48 116.40 118.86 116.50 119.56 116.55 C 120.58 118.55 121.58 120.55 122.54 122.58 C 122.92 120.00 123.32 117.41 124.05 114.90 C 125.26 118.47 125.12 122.28 125.09 126.00 L 123.10 126.00 C 121.59 123.89 120.32 121.63 118.94 119.44 C 118.88 121.62 118.83 123.81 118.77 126.00 L 116.83 126.00 C 116.82 122.78 116.80 119.56 116.78 116.34 Z" />
<path fill="#fe0001" opacity="1.00" d=" M 127.63 117.76 C 129.79 115.28 135.15 115.72 135.87 119.33 C 136.63 121.70 135.31 123.95 134.29 126.00 L 128.72 126.00 C 126.88 123.72 125.91 120.39 127.63 117.76 M 129.31 123.55 C 130.60 123.97 131.91 124.29 133.24 124.52 C 133.56 122.50 134.79 118.55 131.94 118.03 C 128.72 117.27 128.63 121.46 129.31 123.55 Z" />
<path fill="#fe0001" opacity="1.00" d=" M 137.84 116.28 C 140.47 116.42 143.10 116.59 145.71 116.95 C 145.56 119.96 144.91 123.03 145.79 126.00 L 144.69 126.00 C 143.35 124.46 142.08 122.86 140.72 121.34 C 140.28 122.89 139.84 124.45 139.40 126.00 L 137.78 126.00 C 137.82 122.76 137.81 119.52 137.84 116.28 M 140.18 118.60 C 139.06 120.73 143.41 121.31 143.70 119.30 C 143.37 117.86 141.14 117.71 140.18 118.60 Z" />
<path fill="#fe0001" opacity="1.00" d=" M 148.49 117.53 C 150.96 115.70 154.29 116.50 157.08 117.00 C 154.83 117.69 152.50 118.04 150.25 118.72 C 149.87 120.36 149.70 122.05 149.47 123.72 C 151.27 123.78 153.06 123.79 154.87 123.76 C 153.51 122.60 152.09 121.51 150.69 120.39 C 152.46 120.31 154.23 120.25 156.00 120.19 C 156.00 122.12 155.99 124.06 155.98 126.00 L 149.03 126.00 C 147.56 123.48 146.48 120.09 148.49 117.53 Z" />
<path fill="#fe0001" opacity="1.00" d=" M 158.56 117.56 C 160.70 115.79 163.73 116.54 166.22 116.90 C 163.83 117.77 161.39 118.48 159.00 119.33 C 161.41 119.94 163.84 120.42 166.24 121.08 C 163.79 121.70 161.30 122.16 158.84 122.71 C 161.32 123.75 163.81 124.76 166.20 126.00 L 159.83 126.00 C 157.36 123.99 156.47 120.14 158.56 117.56 Z" />
</g>
</svg>
