<?xml version="1.0" encoding="UTF-8"?>
<svg width="256px" height="256px" viewBox="0 0 256 256" version="1.1" xmlns="http://www.w3.org/2000/svg" xmlns:xlink="http://www.w3.org/1999/xlink">
    <!-- Generator: Sketch 50.2 (55047) - http://www.bohemiancoding.com/sketch -->
    <title>logo/tvn</title>
    <desc>Created with Sketch.</desc>
    <defs></defs>
    <g id="logo/tvn" stroke="none" stroke-width="1" fill="none" fill-rule="evenodd">
        <g id="tvn_rod" transform="translate(0.000000, 52.000000)" fill="#FE0001" fill-rule="nonzero">
            <path d="M216.400386,0 L222.608696,0 C218.107053,7.54 215.806763,16.5904762 217.25372,25.3561905 C217.736039,28.7733333 219.009855,32.0419048 219.405604,35.4838095 C217.439227,38.0838095 214.941063,40.2133333 212.56657,42.4171429 C206.531401,32.8714286 204.725797,20.6019048 208.905894,9.96666667 C210.538357,6.17809524 212.121353,1.49809524 216.400386,0 Z" id="Shape"></path>
            <path d="M200.694106,7.8 C202.771787,4.35809524 206.865314,3.21904762 210.253913,1.48571429 C206.036715,8.88952381 203.303575,17.3952381 204.317681,26.012381 C204.750531,32.3019048 207.421836,38.0714286 210.340483,43.5561905 C207.471304,45.5742857 204.218744,47.2209524 200.681739,47.5428571 C192.77913,35.8428571 192.568889,19.4380952 200.694106,7.8 Z" id="Shape"></path>
            <path d="M221.186473,8.23333333 C222.472657,5.59619048 223.783575,2.95904762 225.10686,0.321904762 C238.9457,1.46095238 250.546087,11.972381 254.800386,24.9228571 C251.028406,20.787619 247.330628,16.4047619 242.359034,13.6561905 C236.027053,9.73142857 228.53256,8.39428571 221.186473,8.23333333 Z" id="Shape"></path>
            <path d="M220.382609,10.907619 C234.233816,9.83047619 248.332367,17.407619 254.466473,29.9866667 C256.8657,33.7133333 255.727923,38.2447619 255.554783,42.367619 C251.325217,35.347619 245.784734,28.847619 238.240773,25.3066667 C232.341643,22.2609524 225.663382,21.332381 219.096425,21.307619 C219.356135,17.8161905 219.776618,14.3495238 220.382609,10.907619 Z" id="Shape"></path>
            <path d="M189.106087,49.0780952 C183.986087,36.6352381 186.212174,21.6295238 195.215459,11.5266667 C193.731401,17.0609524 191.851594,22.632381 192.160773,28.4514286 C192.197874,35.632381 194.869179,42.4047619 198.270145,48.607619 C195.215459,48.8428571 192.160773,49.0161905 189.106087,49.0780952 Z" id="Shape"></path>
            <path d="M219.331401,23.8704762 C234.011208,22.9171429 248.92599,31.9304762 254.008889,45.9085714 C253.674976,48.7314286 251.980676,51.1457143 250.867633,53.7085714 C245.351884,44.0885714 236.12599,36.4619048 225.069758,34.4190476 C219.801353,34.1961905 220.580483,27.5228571 219.331401,23.8704762 Z" id="Shape"></path>
            <path d="M212.269758,45.3761905 C216.214879,43.0238095 218.972754,39.2847619 222.410821,36.3380952 C225.651014,36.8457143 228.767536,37.9352381 231.871691,38.9752381 C225.341836,52.0866667 210.303382,60.6419048 195.685411,58.1038095 C193.100676,57.0266667 192.148406,53.832381 190.454106,51.752381 C198.097005,51.4552381 205.875942,49.7590476 212.269758,45.3761905 Z" id="Shape"></path>
            <path d="M234.134879,40.04 C237.004058,41.9590476 239.761932,44.0390476 242.408502,46.2552381 C236.670145,58.9457143 222.954976,67.3771429 209.017198,66.4733333 C204.527923,66.7580952 201.114589,63.5390476 197.627053,61.2485714 C206.556135,61.2238095 215.683092,59.0819048 222.831304,53.4857143 C227.66686,50.0190476 231.104928,45.0666667 234.134879,40.04 Z" id="Shape"></path>
            <path d="M244.350145,48.3352381 C246.032077,50.8609524 247.664541,53.4361905 249.222802,56.0361905 C241.035749,66.807619 226.714589,72.3419048 213.469372,69.2466667 C226.442512,67.7609524 238.203671,59.8990476 244.350145,48.3352381 Z" id="Shape"></path>
            <path d="M4.78608696,59.3666667 C10.0297585,58.2771429 15.44657,58.6485714 20.7520773,58.9333333 C25.5505314,58.9704762 28.1105314,63.7495238 32.0927536,65.6314286 C38.0042512,67.5628571 45.1524638,64.7028571 50.371401,68.8380952 C52.3130435,70.1504762 51.2123671,73.0228571 49.8148792,74.3352381 C43.853913,76.8857143 36.915942,74.2361905 31.0291787,76.9971429 C27.7395169,78.9657143 27.9373913,83.2619048 27.8137198,86.6047619 C27.8631884,96.8685714 27.0469565,107.231429 28.6175845,117.408571 C29.0875362,121.370476 33.8117874,122.138095 37.0396135,121.667619 C41.6030918,121.54381 43.4086957,116.777143 46.4510145,114.201905 C50.618744,114.362857 53.3024155,118.275238 56.1839614,120.825714 C58.3605797,123.388571 62.0459903,126.74381 59.869372,130.359048 C55.7263768,132.98381 50.4703382,132.005714 45.8079227,132.401905 C38.1402899,132.278095 30.2995169,132.810476 22.7802899,130.990476 C16.5472464,128.04381 12.3424155,122.249524 7.49449275,117.544762 C4.20483092,114.313333 1.13777778,110.648571 0,106.067619 L0,83.6828571 C0.234975845,77.6285714 0.0247342995,71.5619048 0.284444444,65.507619 C0.210241546,62.7838095 1.95400966,59.8495238 4.78608696,59.3666667 Z" id="Shape"></path>
            <path d="M71.0616425,60.1219048 C75.5756522,58.8219048 80.4112077,58.9085714 85.0117874,59.6761905 C87.1760386,59.8742857 89.1795169,61.4961905 89.68657,63.6133333 C91.2819324,74.9419048 88.5735266,86.7780952 91.8631884,97.8590476 C94.1263768,97.6609524 96.6863768,97.8219048 98.4548792,96.1380952 C101.930048,93.0180952 105.763865,89.5266667 106.542995,84.6733333 C108.262029,77.1085714 105.541256,68.9371429 108.620676,61.6571429 C112.256618,58.0542857 117.821836,58.8961905 122.459517,58.9952381 C125.761546,59.2180952 130.164251,58.8961905 131.846184,62.4619048 C133.317874,67.4390476 133.082899,73.1095238 130.881546,77.8514286 C128.69256,81.3180952 125.415266,83.9057143 122.607923,86.852381 C109.276135,100.335238 95.8454106,113.731429 82.5878261,127.300952 C79.9041546,130.099048 76.2311111,132.72381 72.1375845,131.968571 C68.6129469,131.16381 67.4257005,127.090476 67.6235749,123.89619 C67.6112077,105.262857 67.6483092,86.6419048 67.6112077,68.0085714 C67.5246377,65.0990476 68.1800966,61.5209524 71.0616425,60.1219048 Z" id="Shape"></path>
            <path d="M139.773527,64.4180952 C139.699324,61.112381 142.791111,58.8590476 145.895266,58.9333333 C153.327923,58.5990476 160.810048,58.6114286 168.193237,59.5895238 C173.399807,60.3447619 179.54628,56.8161905 183.924251,61.0133333 C190.13256,66.3495238 195.759614,72.3295238 201.337198,78.3095238 C204.169275,81.0952381 205.430725,85.0819048 205.307053,89.0066667 C205.23285,101.424762 205.257585,113.842857 205.072077,126.248571 C205.269952,128.997143 202.907826,131.238095 200.236522,131.225714 C194.139517,131.68381 187.374686,133.441905 181.735266,130.235238 C178.816618,128.898095 178.890821,125.357143 178.828986,122.633333 C178.779517,106.20381 178.841353,89.7619048 178.59401,73.332381 C178.210628,68.7761905 174.314976,62.5980952 169.096039,63.8609524 C166.74628,66.3 166.189758,69.7914286 166.14029,73.047619 C165.930048,82.9647619 166.028986,92.8942857 165.831111,102.82381 C166.004251,108.42 161.62628,112.45619 158.101643,116.195238 C153.377391,120.937143 148.987053,126.137143 143.44657,129.962857 C140.095072,132.228571 135.865507,131.485714 132.303768,130.173333 C135.210048,125.45619 139.080966,120.875238 139.291208,115.05619 C139.835362,98.1809524 139.328309,81.2933333 139.773527,64.4180952 Z" id="Shape"></path>
            <path d="M21.4199034,144.646667 C25.3650242,144.238095 29.3348792,144.17619 33.2923671,144.16381 C31.9072464,145.414286 30.3984541,146.528571 29.1741063,147.94 C28.8278261,150.614286 28.9267633,153.313333 28.8525604,156 L26.4657005,156 C26.4533333,153.00381 26.4409662,150.02 26.4657005,147.02381 C24.771401,146.25619 23.0894686,145.46381 21.4199034,144.646667 Z" id="Shape"></path>
            <path d="M34.5290821,146.095238 C36.6562319,143.198095 41.4917874,143.272381 43.9899517,145.624762 C46.2655072,148.819048 44.5341063,152.719048 43.4705314,156 L35.8523671,156 C33.9725604,153.127619 32.6740097,149.314286 34.5290821,146.095238 Z M36.8046377,146.181905 C36.5943961,148.707619 36.582029,151.245714 36.7304348,153.78381 C38.5855072,153.759048 40.4405797,153.721905 42.283285,153.66 C42.2585507,151.295238 42.4069565,148.880952 41.7391304,146.578095 C40.1066667,146.330476 38.4618357,146.206667 36.8046377,146.181905 Z" id="Shape"></path>
            <path d="M47.3538164,143.990476 C50.2600966,144.126667 53.1911111,144.064762 56.0479227,144.671429 C57.8782609,146.305714 57.2104348,148.918095 57.4454106,151.084762 C55.0585507,151.406667 52.684058,151.691429 50.3095652,151.951429 C49.876715,153.313333 49.4314976,154.662857 48.973913,156 L47.2919807,156 C47.2919807,152.000952 47.2919807,147.989524 47.3538164,143.990476 Z M49.8272464,146.305714 C49.8396135,147.16 49.876715,148.85619 49.8890821,149.698095 C51.3484058,149.63619 52.8077295,149.574286 54.2794203,149.512381 C54.2917874,148.744762 54.3041546,147.197143 54.3165217,146.429524 C52.8200966,146.38 51.3236715,146.342857 49.8272464,146.305714 Z" id="Shape"></path>
            <path d="M59.8075362,143.965714 C62.7138164,144.126667 65.6819324,144.015238 68.5140097,144.758095 C70.5298551,146.058095 70.0104348,148.608571 69.5281159,150.564762 C67.3267633,151.45619 64.9646377,151.790476 62.6519807,152.260952 C62.3428019,153.189524 61.7120773,155.059048 61.4028986,156 L59.708599,156 C59.7580676,151.988571 59.7457005,147.977143 59.8075362,143.965714 Z M62.2438647,146.25619 C62.2438647,147.122857 62.2314976,148.85619 62.2314976,149.722857 C63.8144928,149.63619 65.4098551,149.549524 67.0052174,149.450476 C67.0175845,148.72 67.0423188,147.259048 67.054686,146.528571 C65.4469565,146.429524 63.8515942,146.342857 62.2438647,146.25619 Z" id="Shape"></path>
            <path d="M70.8019324,142.628571 C73.6463768,145.141905 75.2046377,148.633333 76.7257971,152.038095 C78.2345894,148.645714 79.8175845,145.20381 82.5136232,142.579048 C81.8210628,147.29619 79.8423188,151.654286 77.9748792,156 L75.7735266,156 C73.497971,151.802857 71.5686957,147.358095 70.8019324,142.628571 Z" id="Shape"></path>
            <path d="M83.4164251,147.964762 C84.1708213,142.517143 93.8542995,142.48 94.5592271,147.977143 C95.214686,150.762857 93.8171981,153.437143 92.9391304,156 L85.3828019,156 C83.985314,153.585714 82.6372947,150.812381 83.4164251,147.964762 Z M86.1371981,146.76381 C86.1000966,149.091429 86.1742995,151.406667 86.3227053,153.734286 C88.1654106,153.734286 90.0081159,153.709524 91.8508213,153.66 C91.8755556,151.010476 91.6158454,148.373333 91.0345894,145.798095 C89.8102415,146.033333 87.3615459,146.51619 86.1371981,146.76381 Z" id="Shape"></path>
            <path d="M97.774686,142.331429 C98.7764251,145.699048 99.1969082,149.202857 99.4442512,152.706667 C101.460097,153.759048 103.438841,154.873333 105.429952,156 L98.7022222,156 C95.5609662,152.1 96.3153623,146.751429 97.774686,142.331429 Z" id="Shape"></path>
            <path d="M107.60657,156 C105.454686,151.71619 105.689662,146.664762 107.656039,142.368571 C108.472271,145.798095 108.657778,149.314286 108.843285,152.818095 C110.982802,153.820952 113.085217,154.910476 115.187633,156 L107.60657,156 Z" id="Shape"></path>
            <path d="M117.339517,144.832381 C121.952464,143.581905 127.678454,143.458095 131.07942,147.370476 C132.786087,145.897143 134.529855,144.460952 136.347826,143.12381 C134.406184,147.271429 132.229565,151.369524 131.697778,156 L130.411594,156 C130.028213,151.988571 128.420483,148.311429 126.169662,145.005714 C123.164444,145.86 120.122126,146.578095 117.15401,147.55619 C120.14686,148.422857 123.176812,149.11619 126.157295,149.995238 C123.016039,150.713333 119.837681,151.258095 116.684058,151.926667 C119.862415,153.201905 123.065507,154.44 126.120193,156 L117.710531,156 C114.890821,153.053333 113.790145,147.667619 117.339517,144.832381 Z" id="Shape"></path>
            <path d="M144.423575,144.04 C145.289275,144.114286 146.995942,144.238095 147.861643,144.3 C149.123092,146.77619 150.359807,149.252381 151.547053,151.765714 C152.017005,148.571429 152.511691,145.364762 153.414493,142.257143 C154.910918,146.677143 154.737778,151.394286 154.700676,156 L152.239614,156 C150.372174,153.387619 148.801546,150.589524 147.094879,147.878095 C147.020676,150.577143 146.958841,153.288571 146.884638,156 L144.485411,156 C144.473043,152.013333 144.448309,148.026667 144.423575,144.04 Z" id="Shape"></path>
            <path d="M157.841932,145.798095 C160.513237,142.727619 167.142029,143.272381 168.032464,147.741905 C168.972367,150.67619 167.339903,153.461905 166.078454,156 L159.189952,156 C156.914396,153.177143 155.714783,149.054286 157.841932,145.798095 Z M159.919614,152.966667 C161.514976,153.486667 163.135072,153.882857 164.779903,154.167619 C165.175652,151.666667 166.696812,146.77619 163.172174,146.132381 C159.189952,145.191429 159.078647,150.379048 159.919614,152.966667 Z" id="Shape"></path>
            <path d="M170.468792,143.965714 C173.721353,144.139048 176.973913,144.349524 180.201739,144.795238 C180.016232,148.521905 179.212367,152.322857 180.300676,156 L178.94029,156 C177.283092,154.093333 175.712464,152.112381 174.030531,150.230476 C173.486377,152.149524 172.942222,154.080952 172.398068,156 L170.394589,156 C170.444058,151.988571 170.431691,147.977143 170.468792,143.965714 Z M173.362705,146.838095 C171.977585,149.475238 177.357295,150.193333 177.715942,147.704762 C177.307826,145.921905 174.549952,145.73619 173.362705,146.838095 Z" id="Shape"></path>
            <path d="M183.639807,145.513333 C186.694493,143.247619 190.812754,144.238095 194.263188,144.857143 C191.48058,145.711429 188.599034,146.144762 185.816425,146.986667 C185.346473,149.017143 185.136232,151.109524 184.851787,153.177143 C187.077874,153.251429 189.291594,153.26381 191.530048,153.226667 C189.848116,151.790476 188.091981,150.440952 186.36058,149.054286 C188.549565,148.955238 190.738551,148.880952 192.927536,148.806667 C192.927536,151.19619 192.915169,153.598095 192.902802,156 L184.307633,156 C182.489662,152.88 181.15401,148.682857 183.639807,145.513333 Z" id="Shape"></path>
            <path d="M196.093527,145.550476 C198.740097,143.359048 202.487343,144.287619 205.566763,144.733333 C202.611014,145.810476 199.59343,146.689524 196.637681,147.741905 C199.618164,148.497143 202.623382,149.091429 205.591498,149.908571 C202.561546,150.67619 199.482126,151.245714 196.439807,151.926667 C199.50686,153.214286 202.58628,154.464762 205.542029,156 L197.664155,156 C194.609469,153.511429 193.508792,148.744762 196.093527,145.550476 Z" id="Shape"></path>
        </g>
    </g>
</svg>