<?xml version="1.0" encoding="UTF-8"?>
<svg width="256px" height="256px" viewBox="0 0 256 256" version="1.1" xmlns="http://www.w3.org/2000/svg" xmlns:xlink="http://www.w3.org/1999/xlink">
    <!-- Generator: Sketch 50.2 (55047) - http://www.bohemiancoding.com/sketch -->
    <title>logo/tønsberg</title>
    <desc>Created with Sketch.</desc>
    <defs></defs>
    <g id="logo/tønsberg" stroke="none" stroke-width="1" fill="none" fill-rule="evenodd">
        <g id="tonsberg" transform="translate(0.000000, 4.000000)" fill="#DF292A" fill-rule="nonzero">
            <path d="M228.983026,0.678778626 C241.877491,-2.12118321 255.404871,8.60729008 255.848856,21.7020611 C256.821845,32.4870992 248.735646,43.1024427 238.117786,45.1953435 C229.275867,47.2411069 219.612103,42.9516031 214.766052,35.3907634 C210.26952,28.6783969 209.655498,19.5620229 213.434096,12.3971374 C216.447528,6.3729771 222.361033,1.93263359 228.983026,0.678778626 Z" id="Shape"></path>
            <path d="M94.4460517,14.9425573 C120.707306,10.5964885 148.309963,17.1014504 170.41476,31.7234733 C195.816384,48.3158397 214.067011,75.1841603 220.518967,104.739313 C222.077638,112.30958 223.948044,119.842137 224.750996,127.544389 C194.569446,109.707595 160.420369,99.6201908 126.035129,93.6808779 C131.816384,88.4014885 137.474834,81.7174046 137.67321,73.4966412 C137.909373,62.0139695 127.593801,51.8322901 116.172989,51.6437405 C106.669815,51.3232061 97.1288561,57.4887786 94.2571218,66.671145 C91.7254613,73.2515267 93.3691513,80.5861069 96.8076753,86.5065649 C83.7715129,82.2830534 70.03631,78.7288931 59.0689299,70.1216031 C53.0798524,65.5398473 47.761476,58.8274809 47.9031734,50.9366794 C48.5077491,42.5179389 53.7694465,35.1645038 59.9569004,29.7342748 C69.6867897,21.5512214 82.0711439,17.1862977 94.4460517,14.9425573 Z" id="Shape"></path>
            <path d="M7.05653137,88.9859924 C13.9335793,69.3391221 26.6674539,52.2753817 41.5740221,37.9550382 C39.6374908,46.2135115 36.2650923,54.8208015 38.6172694,63.3620992 C41.1016974,72.9875573 47.9976384,80.9914885 56.4522509,86.0069084 C65.3036162,92.0122137 75.1090775,96.4902672 83.582583,103.070649 C89.7983764,106.813359 95.560738,111.904198 98.1679705,118.861679 C102.248856,129.52416 101.455351,141.657328 97.6861993,152.291527 C92.2544649,167.177519 79.8134317,179.206985 64.9068635,184.542939 C51.3322509,189.596069 35.6794096,188.521336 22.8510701,181.827824 C14.4059041,177.491183 7.61387454,169.817214 5.04442804,160.615992 C-1.09579336,137.226412 -1.22804428,111.885344 7.05653137,88.9859924 Z" id="Shape"></path>
            <path d="M147.450332,114.223359 C163.30155,117.315573 179.247232,120.181527 194.758376,124.763282 C204.006494,127.497252 213.094022,131.192824 221.019631,136.755038 C222.861697,137.971183 224.307011,140.045229 223.919705,142.354962 C221.057417,167.762023 210.590701,192.650573 192.802952,211.269847 C177.187897,227.400267 157.085756,239.750267 134.95262,244.388588 C112.016531,249.215458 87.880738,245.001374 66.7205904,235.460763 C75.88369,233.103893 85.0278967,230.454771 93.5675277,226.325534 C118.657417,214.73916 138.504502,192.273473 146.666273,165.904809 C151.833506,149.161603 151.398967,131.155115 147.450332,114.223359 Z" id="Shape"></path>
            <path d="M26.2895941,202.719122 C49.9152768,210.581641 75.6191882,205.999885 98.0735055,196.600687 C84.555572,210.053702 66.3521771,218.981527 47.2702583,220.650191 C44.4835424,220.885878 41.762952,219.60374 39.9492251,217.529695 C35.4243542,212.57084 30.4649446,207.989084 26.2895941,202.719122 Z" id="Shape"></path>
        </g>
    </g>
</svg>