<?xml version="1.0" encoding="UTF-8"?>
<svg width="256px" height="256px" viewBox="0 0 256 256" version="1.1" xmlns="http://www.w3.org/2000/svg" xmlns:xlink="http://www.w3.org/1999/xlink">
    <!-- Generator: Sketch 50.2 (55047) - http://www.bohemiancoding.com/sketch -->
    <title>logo/vestli</title>
    <desc>Created with Sketch.</desc>
    <defs></defs>
    <g id="logo/vestli" stroke="none" stroke-width="1" fill="none" fill-rule="evenodd">
        <g id="vestli" transform="translate(0.000000, 7.000000)" fill-rule="nonzero">
            <g id="#fefefeff" transform="translate(27.451372, 3.197368)" fill="#FEFEFE">
                <path d="M33.5034414,0.927236842 C78.1598005,0.856894737 122.822544,0.888868421 167.485287,0.927236842 C166.827731,6.37555263 165.570075,11.7279474 164.625237,17.1251053 C163.84,20.9363684 163.616559,24.8883158 162.148229,28.5333158 C129.378953,28.4885526 96.6096758,28.5972632 63.840399,28.6484211 C55.362394,28.4949474 46.878005,29.4669474 38.4127681,28.6228421 C36.1081297,21.0450789 35.6293267,13.0324737 33.1459352,5.51226316 C32.9352618,7.69926316 32.9927182,9.91184211 33.4204489,12.0732632 C34.4291272,17.5919211 35.5591022,23.0913947 36.325187,28.6548158 C35.9166085,28.6356316 35.0994514,28.5972632 34.6908728,28.5716842 C33.0054863,20.5654737 31.5563092,12.5081053 29.9794514,4.47631579 C29.6538653,3.38281579 30.1901247,2.34047368 30.566783,1.34289474 C31.198803,1.87365789 31.8308229,2.41081579 32.4692269,2.94797368 C32.8139651,2.27652632 33.1587032,1.59868421 33.5034414,0.927236842 Z M118.500549,8.92705263 C118.794214,14.6567368 117.906833,20.4951316 119.35601,26.1225 C120.109327,25.6748684 120.869027,25.2272368 121.622344,24.7796053 C121.558504,17.9180526 121.667032,11.0501053 121.55212,4.18855263 C120.939252,3.89439474 120.332768,3.59384211 119.726284,3.28689474 C118.609077,4.96231579 118.32818,6.95107895 118.500549,8.92705263 Z M89.8042893,4.24610526 C89.7468329,5.24368421 89.6829925,6.23486842 89.6191521,7.23244737 C91.4577556,7.39871053 93.2899751,7.57776316 95.1158105,7.81436842 C95.7159102,13.6271842 95.198803,19.4719737 95.4477805,25.2911842 C96.2904738,25.2975789 97.1331671,25.3039737 97.9822444,25.3103684 C98.0588529,19.5934737 97.8354115,13.8829737 98.1226933,8.17247368 C100.682693,8.07655263 103.370374,7.73763158 105.100449,5.60818421 C105.336658,12.3482368 104.749327,19.1202632 105.451571,25.8411316 C109.109626,25.8091579 112.767681,25.8027632 116.425736,25.758 C116.502344,24.7412368 116.585337,23.7180789 116.668329,22.7013158 C113.859352,22.6629474 111.056758,22.6309737 108.254165,22.5542368 C107.960499,16.5687632 108.177556,10.5705 108.15202,4.57223684 C106.409177,4.66176316 104.65995,4.75128947 102.929875,4.55305263 C98.5695761,4.04147368 94.1773566,4.2525 89.8042893,4.24610526 Z M76.3531172,13.6719474 C78.6832918,16.2746053 82.6797007,16.0507895 85.3737656,18.1098947 C86.1079302,18.9923684 86.0057855,20.3096842 85.7887282,21.3712105 C84.633217,23.3791579 81.8433915,23.8523684 79.845187,22.9698947 C78.4215461,22.0106842 78.0065835,20.2137632 77.2915711,18.7621579 C76.4552618,18.8388947 75.6253367,18.9284211 74.7954115,19.0179474 C75.4082793,21.0131053 75.8040898,23.328 77.5660848,24.6772895 C80.3303741,26.8131316 84.799202,26.5829211 87.199601,23.9866579 C88.8530673,21.9019737 88.8658354,18.9156316 88.1827431,16.4600526 C86.9442394,14.1963158 83.9884289,14.0300526 81.8050873,13.2179211 C80.317606,12.7255263 77.8661347,12.3290526 78.1661845,10.2251842 C77.9044389,8.19805263 79.7621945,6.74644737 81.6901746,7.20686842 C84.6523691,6.69528947 84.8758105,11.3186842 87.67202,11.0628947 C89.0318204,6.76563158 84.4097756,3.33805263 80.4708229,4.23331579 C76.0913716,4.58502632 74.5081297,10.2507632 76.3531172,13.6719474 Z M131.811272,5.09660526 C131.868728,11.7918947 131.715511,18.4871842 131.881496,25.1760789 C132.48798,25.1824737 133.707332,25.1824737 134.313815,25.1888684 C134.090374,18.1802368 135.054364,11.0756842 133.75202,4.15018421 C133.266833,4.38678947 132.296459,4.86 131.811272,5.09660526 Z M43.4625436,4.87918421 C44.7521197,10.2251842 46.4438903,15.4560789 48.0782045,20.6997632 C48.6591521,22.5734211 49.4890773,24.3639474 50.4339152,26.0841316 C51.6596509,25.1185263 52.8981546,24.0250263 53.1918204,22.4007632 C54.8069825,16.5431842 56.6583541,10.7559474 58.2032918,4.87918421 C57.2712219,4.81523684 56.3455362,4.76407895 55.4198504,4.72571053 C54.1302743,9.59210526 52.8215461,14.4521053 51.7298753,19.3632632 C51.193616,19.4463947 50.6573566,19.5295263 50.1210973,19.6126579 C48.8251372,14.6503421 47.682394,9.64326316 46.1055362,4.75768421 C45.2245387,4.76407895 44.3435411,4.80884211 43.4625436,4.87918421 Z M60.4185536,4.84721053 C60.3291771,11.6703947 60.1695761,18.5063684 60.4951621,25.3295526 C64.8107731,25.2783947 69.2157606,25.8027632 73.441995,24.6900789 C73.1100249,24.1976842 72.4524688,23.2065 72.1204988,22.7141053 C69.0433915,22.7460789 65.9662843,22.7013158 62.8891771,22.6629474 C62.8891771,20.5654737 62.9083292,18.468 62.9338653,16.3705263 C65.8769077,16.3129737 68.8263342,16.2746053 71.7757606,16.2234474 C71.7885287,15.6031579 71.8140648,14.3625789 71.8204489,13.7422895 C69.0625436,13.6463684 66.2854863,13.8893684 63.5403491,13.5440526 C62.0400998,11.9965263 61.7336658,9.01018421 63.5531172,7.58415789 C66.4897756,7.18128947 69.4775062,7.46905263 72.4333167,7.37952632 C72.4524688,6.72086842 72.4971571,5.40355263 72.5226933,4.74489474 C68.48798,4.66815789 64.4468828,4.64257895 60.4185536,4.84721053 Z M144.62404,4.43794737 C144.32399,11.5297105 144.400599,18.6406579 144.598504,25.7324211 C149.278005,25.1313158 154.014963,25.1952632 158.732768,25.1888684 C158.707232,24.3767368 158.68808,23.5646053 158.675312,22.7524737 C154.646983,22.7780526 150.605885,22.7332895 146.603092,22.2345 C146.500948,16.4920263 147.062743,10.692 146.354115,4.98789474 C145.92,4.85360526 145.058155,4.57863158 144.62404,4.43794737 Z M138.010175,25.2975789 C138.757107,25.2528158 140.250973,25.1632895 140.997905,25.1185263 C140.723392,23.9866579 140.448878,22.8356053 139.848778,21.8252368 C138.010175,21.9659211 138.20808,23.9610789 138.010175,25.2975789 Z" id="Shape"></path>
                <path d="M200.720599,0.741789474 C201.103641,0.818526316 201.863342,0.959210526 202.246384,1.03594737 C202.310224,7.10455263 201.0398,13.0644474 199.750224,18.9667895 C198.933067,22.6629474 198.607481,26.5957105 196.545436,29.8826053 C196.558204,26.0649474 197.541347,22.3623947 198.186135,18.6278684 C199.37995,12.7191316 199.986434,6.72086842 200.720599,0.741789474 Z" id="Shape"></path>
                <path d="M0.185137157,1.31092105 C0.829925187,1.40044737 1.48109726,1.48357895 2.13226933,1.56671053 C2.879202,8.61371053 3.99002494,15.6159474 5.47750623,22.5478421 C6.2882793,26.2312105 6.4798005,30.0808421 7.94812968,33.5979474 C9.9527182,38.4195789 10.6932668,43.6248947 12.2956608,48.5680263 C18.0221446,66.825 24.6806983,84.8133947 32.7054364,102.1815 C37.0976559,112.374711 42.7730673,121.922053 48.00798,131.680421 C51.0978554,136.847368 54.1813466,142.027105 57.4499751,147.078947 C59.8886783,150.928579 63.1573067,154.305 64.7022444,158.672605 C62.723192,156.894868 61.1463342,154.733447 59.7035411,152.514474 C53.9387531,143.721711 47.9696758,135.037658 43.0731172,125.720526 C38.3106234,117.458526 33.8417955,109.011079 30.0688279,100.243895 C22.1270823,83.4321316 15.5706733,65.9745 10.0484788,48.2291053 C6.55640898,35.3628947 2.91112219,22.5030789 0.829925187,9.31713158 C0.312817955,6.6825 0.197905237,3.99031579 0.185137157,1.31092105 Z" id="Shape"></path>
                <path d="M169.272818,0.562736842 C171.271022,1.75215789 170.364489,3.98392105 170.102743,5.81921053 C168.717406,13.2307105 167.185237,20.6166316 166.157406,28.0920789 C165.474314,28.2327632 164.797606,28.3734474 164.120898,28.5141316 C164.657157,23.4622895 165.710524,18.4935789 166.527681,13.4865 C167.389526,9.17005263 167.836409,4.75128947 169.272818,0.562736842 Z" id="Shape"></path>
                <path d="M36.7273815,31.2958421 C40.0790025,29.9721316 43.7179052,30.4133684 47.2291272,30.3686053 C92.7728678,30.3558158 138.322993,30.2982632 183.866733,30.3046579 C187.377955,30.3302368 190.901945,30.1000263 194.394015,30.5732368 C192.702244,31.3789737 190.838105,31.6667368 188.973965,31.5516316 C181.306733,31.3597895 173.626733,31.8074211 165.978653,31.2127105 C163.201596,31.0400526 160.450075,31.5004737 157.685786,31.5452368 C119.809277,31.6091842 81.9327681,31.5772105 44.0562594,31.6603421 C41.604788,31.6859211 39.1533167,31.6539474 36.7273815,31.2958421 Z" id="Shape"></path>
                <path d="M8.6567581,31.0848158 C13.1575062,30.0936316 17.7795511,30.5348684 22.3441397,30.4581316 C26.6916708,30.5348684 31.0902743,30.0872368 35.3739651,31.0592368 C31.5499252,32.2038947 27.52798,31.4748947 23.6209476,31.833 C18.6477805,32.2486579 13.43202,32.9392895 8.6567581,31.0848158 Z" id="Shape"></path>
                <path d="M191.751022,43.0493684 C192.855461,39.0078947 193.321496,34.5571579 196.232618,31.3086316 C196.532668,35.1007105 195.019651,38.6625789 194.062045,42.2564211 C188.099352,63.3078947 180.406584,83.8605789 171.168878,103.684263 C164.063441,118.878158 155.725885,133.464553 146.609476,147.526579 C145.734863,148.805526 144.700648,149.962974 143.634514,151.075658 C146.877606,143.907158 151.850773,137.704263 155.342843,130.663658 C160.31601,121.698237 165.250873,112.694447 169.566484,103.383711 C178.325387,83.8158158 185.986234,63.7171579 191.751022,43.0493684 Z" id="Shape"></path>
                <path d="M14.6705237,33.5979474 C38.5085287,33.6235263 62.3465337,33.5148158 86.1845387,33.4764474 C89.1722693,33.4572632 92.1344638,32.9904474 95.1221945,33.0224211 C123.422643,33.0096316 151.729476,32.9904474 180.029925,32.9712632 C184.224239,32.9840526 188.424938,32.8817368 192.619252,33.0927632 C190.946633,41.9111053 188.041895,50.4544737 185.449975,59.0426053 C177.450773,82.6711579 167.925786,105.877658 155.508828,127.549421 C147.235112,141.943974 138.393217,156.101921 127.814863,168.923368 C123.87591,173.904868 119.770973,178.784053 115.148928,183.151658 C110.909925,187.295447 106.970973,191.8485 102.06803,195.244105 C99.4569576,194.208158 97.5417456,192.021158 95.4733167,190.205053 C90.6533666,185.447368 85.7121197,180.798395 81.1475312,175.784921 C68.1240898,161.096211 57.2520698,144.642553 47.4014963,127.6965 C39.2426933,113.551342 32.2713217,98.7411316 26.2064838,83.5856053 C20.8566584,70.5403421 16.1516209,57.2201053 12.4169576,43.6185 C11.5040399,40.3699737 10.4889776,37.1342368 9.96548628,33.7897895 C11.5295761,33.6938684 13.1000499,33.6171316 14.6705237,33.5979474 Z M82.7307731,37.5946579 C82.3158105,60.3151579 82.8201496,83.0548421 82.4945636,105.775342 C81.3199002,104.649868 80.1835411,103.454053 79.4110723,102.015237 C74.6996509,93.2160789 69.4519701,84.6471316 65.8577556,75.2980263 C65.3406484,74.1661579 64.9193017,72.9255789 63.993616,72.0622895 C62.3784539,71.2181842 60.5079302,71.3460789 58.7459352,71.3141053 C50.4402993,71.3972368 42.1346633,71.3780526 33.8354115,71.3332895 C31.7095262,71.3013158 29.6155611,71.6722105 27.5471322,72.1134474 C32.5905237,86.7318158 39.7661845,100.493289 47.04399,114.094895 C55.6496758,129.045789 64.319202,144.060632 75.0826933,157.591895 C77.1894264,160.130605 79.047182,163.046605 81.8944638,164.824342 C85.2333167,166.346289 89.0190524,165.777158 92.5813466,165.892263 C100.682693,166.045737 108.78404,165.930632 116.885387,166.000974 C118.021746,165.924237 119.368778,166.084105 120.243392,165.182447 C127.09985,158.487158 132.277307,150.359447 137.87611,142.641 C150.40798,122.874868 162.24399,102.533211 171.239102,80.8742368 C172.394613,78.1820526 173.230923,75.3683684 173.786334,72.4907368 C168.634414,72.3116842 163.47611,72.6058421 158.330574,72.171 C152.993516,71.7681316 147.675611,72.6953684 142.338554,72.4459737 C140.838304,72.4779474 139.293367,72.3948158 137.84419,72.8360526 C136.273716,74.6393684 135.603392,77.0118158 134.639401,79.1540526 C132.468828,84.4744737 129.698155,89.5135263 127.010474,94.5845526 C124.967581,98.2103684 123.294963,102.091974 120.607282,105.314921 C119.439002,100.781053 119.802893,96.0745263 119.783741,91.4447368 C119.809277,73.5970263 119.700748,55.7557105 119.745436,37.908 C117.293965,37.5690789 114.823342,37.422 112.352718,37.4667632 C102.482993,37.5882632 92.6068828,37.4411842 82.7307731,37.5946579 Z M30.5923192,57.3288158 C33.4523691,60.0401842 32.6671322,64.1072368 33.2672319,67.6179474 C35.84,63.5764737 34.0460848,58.5949737 34.0141646,54.1442368 C32.8650374,55.1993684 31.7286783,56.2608947 30.5923192,57.3288158 Z M35.8272319,60.5133947 C36.6890773,62.4893684 38.8979551,63.1416316 40.647182,64.0496842 C40.3790524,64.3758158 39.842793,65.0280789 39.5746633,65.3542105 C38.2020948,64.9257632 36.8295262,64.5037105 35.4441895,64.1264211 C36.1017456,65.2582895 36.47202,66.7674474 37.7360599,67.3813421 C39.0958603,67.6115526 41.1451372,67.6307368 41.6430923,66.0192632 C43.034813,62.5533158 43.839202,57.8467895 40.966384,54.9052105 C37.6530673,52.2769737 34.2950623,57.6037895 35.8272319,60.5133947 Z M55.196409,54.5343158 C52.7194015,56.3696053 52.5342643,59.8931053 52.7704738,62.7131842 C53.0832918,64.6188158 53.753616,67.4644737 56.1795511,67.4580789 C57.9351621,67.6435263 59.1417456,66.0384474 59.4800998,64.4909211 C60.0163591,62.0673158 59.9844389,59.535 59.6652369,57.0794211 C59.4737157,55.1226316 56.9456359,53.5303421 55.196409,54.5343158 Z M143.42384,57.1625526 C144.094165,58.3136053 145.160299,59.3623421 145.236908,60.7691842 C145.447581,63.1224474 144.911322,65.7890526 146.807382,67.6179474 C147.496858,63.1352368 147.190424,58.5821842 146.941446,54.0738947 C145.741247,55.0714737 144.572968,56.1074211 143.42384,57.1625526 Z M148.435312,59.4582632 C148.562993,62.3486842 151.831621,63.1032632 153.791521,64.4589474 C152.06783,65.0216842 150.273915,64.7531053 148.54384,64.4077895 C149.124788,65.4373421 149.641895,66.5308421 150.433516,67.4197105 C151.959302,67.8737368 153.874514,67.4964474 154.56399,65.9041579 C155.930175,63.0968684 155.789726,59.8675263 156.057855,56.8300263 C157.283591,56.8108421 158.509327,56.8044474 159.735062,56.8108421 C158.509327,60.1552895 157.130374,63.4869474 156.677107,67.0552105 C157.149526,66.9784737 158.08798,66.8122105 158.554015,66.7290789 C159.103042,64.5740526 159.422244,62.2975263 160.501147,60.3279474 C161.950324,58.8507632 163.84,57.8915526 165.474314,56.6317895 C166.09995,57.0282632 166.73197,57.4183421 167.36399,57.8084211 C165.621147,60.9546316 162.295062,63.0521053 161.471521,66.7226842 C164.050673,67.6179474 166.840499,67.6882895 169.368579,66.5564211 C167.823641,65.8210263 166.234015,65.1879474 164.638005,64.5804474 C166.023342,63.0073421 167.734264,61.6772368 168.774863,59.8291579 C169.234514,57.9235263 169.177057,54.6174474 166.521297,54.5982632 C161.656658,54.4064211 156.779252,54.6366316 151.908229,54.5790789 C149.348229,54.2657368 148.237406,57.3799737 148.435312,59.4582632 Z M48.0462843,57.1241842 C50.5935162,59.9314737 49.5018454,63.8130789 50.3253865,67.1703158 C50.6126683,66.9656842 51.193616,66.5564211 51.4872818,66.3581842 C52.7513217,62.4701842 52.0682294,58.2176842 51.2319202,54.3041053 C50.1530175,55.2313421 49.0932668,56.1713684 48.0462843,57.1241842 Z M44.0817955,62.8986316 C45.3011471,63.0137368 46.5204988,63.1160526 47.7462344,63.2183684 C47.7015461,62.8282895 47.6121696,62.0481316 47.5674813,61.6644474 C46.8077805,61.3766842 46.0353117,61.1017105 45.2692269,60.8459211 C44.9691771,61.3638947 44.3754613,62.3870526 44.0817955,62.8986316 Z" id="Shape"></path>
                <path d="M83.9245885,39.2828684 C95.4094763,39.4491316 106.907132,39.4875 118.39202,39.2636842 C118.264339,46.8478421 118.564389,54.4256053 118.379252,62.0033684 C118.213267,66.7930263 118.870823,71.6786053 117.619551,76.3723421 C117.172668,74.3963684 117.051372,72.3628421 117.089676,70.3421053 C117.198204,62.4573947 117.038603,54.5726842 117.153516,46.6879737 C117.147132,44.5713158 117.281197,42.4098947 116.757706,40.3316053 C114.076409,39.5962105 111.267431,39.9671053 108.528678,39.9095526 C100.574165,40.0438421 92.6196509,39.7688684 84.6715212,40.0630263 C84.4608479,64.4589474 84.6906733,88.8548684 84.6012968,113.244395 C84.0267332,112.752 83.4585536,112.266 82.8903741,111.773605 C83.6053865,109.548237 84.0586534,107.226947 84.001197,104.880079 C83.8862843,83.0100789 84.0969576,61.1464737 83.9245885,39.2828684 Z" id="Shape"></path>
                <path d="M38.2914713,55.9603421 C38.9873317,56.4591316 39.6959601,56.9515263 40.3343641,57.5270526 C40.6280299,58.5438158 40.640798,59.6245263 40.7493267,60.6732632 C39.7917207,60.6412895 38.8213466,60.6732632 37.8892768,60.4046842 C37.8254364,58.9147105 38.080798,57.4311316 38.2914713,55.9603421 Z" id="Shape"></path>
                <path d="M56.7221945,65.6931316 C53.766384,63.4166053 54.3090274,59.3367632 55.8603491,56.3887895 C56.3710723,56.5998158 57.3861347,57.0218684 57.8968579,57.2328947 C58.4969576,60.1233158 58.7459352,63.2631316 56.7221945,65.6931316 Z" id="Shape"></path>
                <path d="M151.978454,61.1145 C149.903641,60.3343421 151.154913,57.8403947 151.544339,56.3376316 C152.112519,56.5806316 153.23611,57.0666316 153.804289,57.3096316 C153.414863,58.6525263 153.689377,60.7116316 151.978454,61.1145 Z" id="Shape"></path>
                <path d="M30.0432918,73.5970263 C30.3816459,73.6609737 31.0583541,73.7824737 31.3967082,73.8464211 C32.8586534,81.1747895 37.3594015,87.4160526 39.0703242,94.6548947 C37.4998504,92.0650263 36.2166584,89.3216842 35.0228429,86.5463684 C33.2544638,82.2746842 30.8285287,78.2140263 30.0432918,73.5970263 Z" id="Shape"></path>
                <path d="M62.1358603,73.2581053 C65.0469825,75.6625263 65.7045387,79.5441316 67.4026933,82.7287105 C68.7688778,85.3441579 70.237207,87.9404211 70.9458354,90.8308421 C67.1473317,85.4784474 63.8850873,79.6208684 62.1358603,73.2581053 Z" id="Shape"></path>
            </g>
            <g id="#0f7a4aff" fill="#0F7A4A">
                <path d="M132.78803,0.856894737 C137.046185,0.856894737 141.285187,0.326131579 145.543342,0.370894737 C182.149426,0.345315789 218.755511,0.300552632 255.361596,0.274973684 L255.361596,27.7339737 C252.731372,42.7424211 249.092469,57.5782105 244.444888,72.0878684 C243.085087,76.5066316 241.03581,80.7847105 240.774065,85.4720526 C244.342743,78.5529474 246.079202,70.9112368 248.575362,63.5828684 C250.388429,58.5438158 250.784239,53.0699211 253.197406,48.2418947 C253.101646,50.5695789 252.782444,52.8780789 252.195112,55.1290263 C246.002594,78.3611053 237.364988,100.908947 227.022843,122.5935 C224.188329,129.122526 220.242993,135.076026 217.063741,141.438789 C212.741746,150.026921 207.264239,157.937211 202.195312,166.084105 C198.818155,171.577184 194.789825,176.629026 191.176459,181.968632 C187.422643,187.4745 182.998504,192.456 178.561596,197.411921 C173.696958,203.582842 167.976858,208.973605 162.57596,214.652132 C154.908728,222.345 146.724389,229.532684 138.022943,236.029737 C135.194813,238.088842 132.647581,240.621158 129.442793,242.111132 C127.948928,242.968026 126.416758,241.823368 125.184638,241.036816 C115.691571,234.009 106.236808,226.872474 97.6630424,218.719184 C92.7728678,214.255658 87.9018454,209.747368 83.4649377,204.817026 C78.5747631,199.464632 74.0484788,193.7925 69.3242893,188.286632 C65.8705237,184.027737 62.8317207,179.449105 59.6205486,175.004763 C55.8986534,169.377395 51.6596509,164.095342 48.320798,158.224974 C45.3139152,152.949316 41.9048379,147.916658 39.0830923,142.532289 C35.0483791,134.839421 30.6050873,127.344789 27.0555611,119.402526 C22.9442394,111.357947 19.4649377,103.012816 16.0111721,94.6740789 C14.7662843,91.7388947 13.923591,88.6566316 13.3490274,85.5296053 C14.242793,86.7446053 15.1237905,87.9723947 16.0239401,89.1873947 C15.1301746,83.2594737 12.487182,77.8239474 10.8081796,72.1134474 C6.2882793,57.7828421 2.48339152,43.1900526 0,28.3606579 L0,0.895263158 C44.2605486,1.01676316 88.5274813,0.818526316 132.78803,0.856894737 Z M60.954813,4.12460526 C60.6100748,4.79605263 60.2653367,5.47389474 59.9205985,6.14534211 C59.2821945,5.60818421 58.6501746,5.07102632 58.0181546,4.54026316 C57.6414963,5.53784211 57.1052369,6.58018421 57.4308229,7.67368421 C59.0076808,15.7054737 60.4568579,23.7628421 62.1422444,31.7690526 C62.5508229,31.7946316 63.36798,31.833 63.7765586,31.8521842 C63.0104738,26.2887632 61.8804988,20.7892895 60.8718204,15.2706316 C60.4440898,13.1092105 60.3866334,10.8966316 60.5973067,8.70963158 C63.0806983,16.2298421 63.5595012,24.2424474 65.8641397,31.8202105 C74.3293766,32.6643158 82.8137656,31.6923158 91.2917706,31.8457895 C124.061047,31.7946316 156.830324,31.6859211 189.599601,31.7306842 C191.06793,28.0856842 191.291372,24.1337368 192.076608,20.3224737 C193.021446,14.9253158 194.279102,9.57292105 194.936658,4.12460526 C150.273915,4.08623684 105.611172,4.05426316 60.954813,4.12460526 Z M228.17197,3.93915789 C227.437805,9.91823684 226.831322,15.9165 225.637506,21.8252368 C224.992718,25.5597632 224.009576,29.2623158 223.996808,33.0799737 C226.058853,29.7930789 226.384439,25.8603158 227.201596,22.1641579 C228.491172,16.2618158 229.761596,10.3019211 229.697756,4.23331579 C229.314713,4.15657895 228.555012,4.01589474 228.17197,3.93915789 Z M27.6365087,4.50828947 C27.6492768,7.18768421 27.7641895,9.87986842 28.2812968,12.5145 C30.3624938,25.7004474 34.0077805,38.5602632 37.4998504,51.4264737 C43.0220449,69.1718684 49.5784539,86.6295 57.5201995,103.441263 C61.2931671,112.208447 65.761995,120.655895 70.5244888,128.917895 C75.4210474,138.235026 81.3901247,146.919079 87.1549127,155.711842 C88.5977057,157.930816 90.1745636,160.092237 92.153616,161.869974 C90.6086783,157.502368 87.3400499,154.125947 84.9013466,150.276316 C81.6327182,145.224474 78.5492269,140.044737 75.4593516,134.877789 C70.2244389,125.119421 64.5490274,115.572079 60.156808,105.378868 C52.1320698,88.0107632 45.4735162,70.0223684 39.7470324,51.7653947 C38.1446384,46.8222632 37.4040898,41.6169474 35.3995012,36.7953158 C33.9311721,33.2782105 33.7396509,29.4285789 32.9288778,25.7452105 C31.4413965,18.8133158 30.3305736,11.8110789 29.5836409,4.76407895 C28.9324688,4.68094737 28.2812968,4.59781579 27.6365087,4.50828947 Z M196.72419,3.76010526 C195.287781,7.94865789 194.840898,12.3674211 193.979052,16.6838684 C193.161895,21.6909474 192.108529,26.6596579 191.572269,31.7115 C192.248978,31.5708158 192.925686,31.4301316 193.608778,31.2894474 C194.636608,23.814 196.168778,16.4280789 197.554115,9.01657895 C197.81586,7.18128947 198.722394,4.94952632 196.72419,3.76010526 Z M64.1787531,34.4932105 C66.6046883,34.8513158 69.0561596,34.8832895 71.5076309,34.8577105 C109.38414,34.7745789 147.260648,34.8065526 185.137157,34.7426053 C187.901446,34.6978421 190.652968,34.2374211 193.430025,34.4100789 C201.078105,35.0047895 208.758105,34.5571579 216.425337,34.749 C218.289476,34.8641053 220.153616,34.5763421 221.845387,33.7706053 C218.353317,33.2973947 214.829327,33.5276053 211.318105,33.5020263 C165.774364,33.4956316 120.224239,33.5531842 74.6804988,33.5659737 C71.1692768,33.6107368 67.5303741,33.1695 64.1787531,34.4932105 Z M36.1081297,34.2821842 C40.8833915,36.1366579 46.0991521,35.4460263 51.0723192,35.0303684 C54.9793516,34.6722632 59.0012968,35.4012632 62.8253367,34.2566053 C58.5416459,33.2846053 54.1430424,33.7322368 49.7955112,33.6555 C45.2309227,33.7322368 40.6088778,33.291 36.1081297,34.2821842 Z M219.202394,46.2467368 C213.437606,66.9145263 205.776758,87.0131842 197.017855,106.581079 C192.702244,115.891816 187.767382,124.895605 182.794214,133.861026 C179.302145,140.901632 174.328978,147.104526 171.085885,154.273026 C172.15202,153.160342 173.186234,152.002895 174.060848,150.723947 C183.177257,136.661921 191.514813,122.075526 198.620249,106.881632 C207.857955,87.0579474 215.550723,66.5052632 221.513416,45.4537895 C222.471022,41.8599474 223.98404,38.2980789 223.68399,34.506 C220.772868,37.7545263 220.306833,42.2052632 219.202394,46.2467368 Z M42.1218953,36.7953158 C40.5514214,36.8145 38.9809476,36.8912368 37.4168579,36.9871579 C37.9403491,40.3316053 38.9554115,43.5673421 39.8683292,46.8158684 C43.6029925,60.4174737 48.3080299,73.7377105 53.6578554,86.7829737 C59.7226933,101.9385 66.6940648,116.748711 74.8528678,130.893868 C84.7034414,147.839921 95.5754613,164.293579 108.598903,178.982289 C113.163491,183.995763 118.104738,188.644737 122.924688,193.402421 C124.993117,195.218526 126.908329,197.405526 129.519401,198.441474 C134.422344,195.045868 138.361297,190.492816 142.600299,186.349026 C147.222344,181.981421 151.327282,177.102237 155.266234,172.120737 C165.844589,159.299289 174.686484,145.141342 182.9602,130.746789 C195.377157,109.075026 204.902145,85.8685263 212.901347,62.2399737 C215.493267,53.6518421 218.398005,45.1084737 220.070623,36.2901316 C215.876309,36.0791053 211.675611,36.1814211 207.481297,36.1686316 C179.180848,36.1878158 150.874015,36.207 122.573566,36.2197895 C119.585835,36.1878158 116.623641,36.6546316 113.63591,36.6738158 C89.7979052,36.7121842 65.9599002,36.8208947 42.1218953,36.7953158 Z" id="Shape"></path>
                <path d="M145.95192,12.1244211 C145.779551,10.1484474 146.060449,8.15968421 147.177656,6.48426316 C147.78414,6.79121053 148.390623,7.09176316 149.003491,7.38592105 C149.118404,14.2474737 149.009875,21.1154211 149.073716,27.9769737 C148.320399,28.4246053 147.560698,28.8722368 146.807382,29.3198684 C145.358204,23.6925 146.245586,17.8541053 145.95192,12.1244211 Z" id="Shape"></path>
                <path d="M117.255661,7.44347368 C121.628728,7.44986842 126.020948,7.23884211 130.381247,7.75042105 C132.111322,7.94865789 133.860549,7.85913158 135.603392,7.76960526 C135.628928,13.7678684 135.41187,19.7661316 135.705536,25.7516053 C138.50813,25.8283421 141.310723,25.8603158 144.119701,25.8986842 C144.036708,26.9154474 143.953716,27.9386053 143.877107,28.9553684 C140.219052,29.0001316 136.560998,29.0065263 132.902943,29.0385 C132.200698,22.3176316 132.78803,15.5456053 132.55182,8.80555263 C130.821746,10.935 128.134065,11.2739211 125.574065,11.3698421 C125.286783,17.0803421 125.510224,22.7908421 125.433616,28.5077368 C124.584539,28.5013421 123.741845,28.4949474 122.899152,28.4885526 C122.650175,22.6693421 123.167282,16.8245526 122.567182,11.0117368 C120.741347,10.7751316 118.909127,10.5960789 117.070524,10.4298158 C117.134364,9.43223684 117.198204,8.44105263 117.255661,7.44347368 Z" id="Shape"></path>
                <path d="M103.804489,16.8693158 C101.959501,13.4481316 103.542743,7.78239474 107.922195,7.43068421 C111.861147,6.53542105 116.483192,9.963 115.123392,14.2602632 C112.327182,14.5160526 112.103741,9.89265789 109.141546,10.4042368 C107.213566,9.94381579 105.35581,11.3954211 105.617556,13.4225526 C105.317506,15.5264211 107.768978,15.9228947 109.256459,16.4152895 C111.4398,17.2274211 114.395611,17.3936842 115.634115,19.6574211 C116.317207,22.113 116.304439,25.0993421 114.650973,27.1840263 C112.250574,29.7802895 107.781746,30.0105 105.017456,27.8746579 C103.255461,26.5253684 102.859651,24.2104737 102.246783,22.2153158 C103.076708,22.1257895 103.906633,22.0362632 104.742943,21.9595263 C105.457955,23.4111316 105.872918,25.2080526 107.296559,26.1672632 C109.294763,27.0497368 112.084589,26.5765263 113.2401,24.5685789 C113.457157,23.5070526 113.559302,22.1897368 112.825137,21.3072632 C110.131072,19.2481579 106.134663,19.4719737 103.804489,16.8693158 Z" id="Shape"></path>
                <path d="M159.262643,8.29397368 C159.74783,8.05736842 160.718204,7.58415789 161.203392,7.34755263 C162.505736,14.2730526 161.541746,21.3776053 161.765187,28.3862368 C161.158703,28.3798421 159.939352,28.3798421 159.332868,28.3734474 C159.166883,21.6845526 159.3201,14.9892632 159.262643,8.29397368 Z" id="Shape"></path>
                <path d="M70.9139152,8.07655263 C71.7949127,8.00621053 72.6759102,7.96144737 73.5569077,7.95505263 C75.1337656,12.8406316 76.2765087,17.8477105 77.5724688,22.8100263 C78.1087282,22.7268947 78.6449875,22.6437632 79.1812469,22.5606316 C80.2729177,17.6494737 81.5816459,12.7894737 82.8712219,7.92307895 C83.7969077,7.96144737 84.7225935,8.01260526 85.6546633,8.07655263 C84.1097257,13.9533158 82.2583541,19.7405526 80.643192,25.5981316 C80.3495262,27.2223947 79.1110224,28.3158947 77.8852868,29.2815 C76.9404489,27.5613158 76.1105237,25.7707895 75.5295761,23.8971316 C73.8952618,18.6534474 72.2034913,13.4225526 70.9139152,8.07655263 Z" id="Shape"></path>
                <path d="M87.8699252,8.04457895 C91.8982544,7.83994737 95.9393516,7.86552632 99.9740648,7.94226316 C99.9485287,8.60092105 99.9038404,9.91823684 99.8846883,10.5768947 C96.9288778,10.6664211 93.9411471,10.3786579 91.0044888,10.7815263 C89.1850374,12.2075526 89.4914713,15.1938947 90.9917207,16.7414211 C93.7368579,17.0867368 96.5139152,16.8437368 99.2718204,16.9396579 C99.2654364,17.5599474 99.2399002,18.8005263 99.2271322,19.4208158 C96.2777057,19.4719737 93.3282793,19.5103421 90.3852369,19.5678947 C90.3597007,21.6653684 90.3405486,23.7628421 90.3405486,25.8603158 C93.4176559,25.8986842 96.4947631,25.9434474 99.5718703,25.9114737 C99.9038404,26.4038684 100.561397,27.3950526 100.893367,27.8874474 C96.6671322,29.0001316 92.2621446,28.4757632 87.9465337,28.5269211 C87.6209476,21.7037368 87.7805486,14.8677632 87.8699252,8.04457895 Z" id="Shape"></path>
                <path d="M172.075411,7.63531579 C172.509526,7.776 173.371372,8.05097368 173.805486,8.18526316 C174.514115,13.8893684 173.952319,19.6893947 174.054464,25.4318684 C178.057257,25.9306579 182.098354,25.9754211 186.126683,25.9498421 C186.139451,26.7619737 186.158603,27.5741053 186.18414,28.3862368 C181.466334,28.3926316 176.729377,28.3286842 172.049875,28.9297895 C171.85197,21.8380263 171.775362,14.7270789 172.075411,7.63531579 Z" id="Shape"></path>
                <path d="M165.461546,28.4949474 C165.659451,27.1584474 165.461546,25.1632895 167.30015,25.0226053 C167.900249,26.0329737 168.174763,27.1840263 168.449277,28.3158947 C167.702344,28.3606579 166.208479,28.4501842 165.461546,28.4949474 Z" id="Shape"></path>
                <path d="M255.361596,43.4522368 C254.991322,41.3419737 254.978554,39.1869474 255.361596,37.0766842 L255.361596,43.4522368 Z" id="Shape"></path>
                <path d="M0,37.8056842 C0.293665835,39.8967632 0.300049875,42.0134211 0,44.1045 L0,37.8056842 Z" id="Shape"></path>
                <path d="M110.182145,40.7920263 C120.058254,40.6385526 129.934364,40.7856316 139.80409,40.6641316 C142.274713,40.6193684 144.745337,40.7664474 147.196808,41.1053684 C147.15212,58.9530789 147.260648,76.7943947 147.235112,94.6421053 C147.254264,99.2718947 146.890374,103.978421 148.058653,108.512289 C150.746334,105.289342 152.418953,101.407737 154.461845,97.7819211 C157.149526,92.7108947 159.9202,87.6718421 162.090773,82.3514211 C163.054763,80.2091842 163.725087,77.8367368 165.295561,76.0334211 C166.744738,75.5921842 168.289676,75.6753158 169.789925,75.6433421 C175.126983,75.8927368 180.444888,74.9655 185.781945,75.3683684 C190.927481,75.8032105 196.085786,75.5090526 201.237706,75.6881053 C200.682294,78.5657368 199.845985,81.3794211 198.690474,84.0716053 C189.695362,105.730579 177.859352,126.072237 165.327481,145.838368 C159.728678,153.556816 154.551222,161.684526 147.694763,168.379816 C146.82015,169.281474 145.473117,169.121605 144.336758,169.198342 C136.235411,169.128 128.134065,169.243105 120.032718,169.089632 C116.470424,168.974526 112.684688,169.543658 109.345835,168.021711 C106.498554,166.243974 104.640798,163.327974 102.534065,160.789263 C91.7705736,147.258 83.1010474,132.243158 74.4953616,117.292263 C67.2175561,103.690658 60.0418953,89.9291842 54.9985037,75.3108158 C57.0669327,74.8695789 59.1608978,74.4986842 61.286783,74.5306579 C69.5860349,74.5754211 77.8916708,74.5946053 86.1973067,74.5114737 C87.9593017,74.5434474 89.8298254,74.4155526 91.4449875,75.2596579 C92.3706733,76.1229474 92.79202,77.3635263 93.3091272,78.4953947 C96.9033416,87.8445 102.151022,96.4134474 106.862444,105.212605 C107.634913,106.651421 108.771272,107.847237 109.945935,108.972711 C110.271521,86.2522105 109.767182,63.5125263 110.182145,40.7920263 Z M111.37596,42.4802368 C111.548329,64.3438421 111.337656,86.2074474 111.452569,108.077447 C111.510025,110.424316 111.056758,112.745605 110.341746,114.970974 C110.909925,115.463368 111.478105,115.949368 112.052668,116.441763 C112.142045,92.0522368 111.912219,67.6563158 112.122893,43.2603947 C120.071022,42.9662368 128.025536,43.2412105 135.98005,43.1069211 C138.718803,43.1644737 141.527781,42.7935789 144.209077,43.5289737 C144.732569,45.6072632 144.598504,47.7686842 144.604888,49.8853421 C144.489975,57.7700526 144.649576,65.6547632 144.541047,73.5394737 C144.502743,75.5602105 144.62404,77.5937368 145.070923,79.5697105 C146.322195,74.8759737 145.664638,69.9903947 145.830623,65.2007368 C146.015761,57.6229737 145.715711,50.0452105 145.843392,42.4610526 C134.358504,42.6848684 122.860848,42.6465 111.37596,42.4802368 Z M57.4946633,76.7943947 C58.2799002,81.4113947 60.7058354,85.4720526 62.4742145,89.7437368 C63.6680299,92.5190526 64.9512219,95.2623947 66.5216958,97.8522632 C64.8107731,90.6134211 60.3100249,84.3721579 58.8480798,77.0437895 C58.5097257,76.9798421 57.8330175,76.8583421 57.4946633,76.7943947 Z M89.5872319,76.4554737 C91.3364589,82.8182368 94.5987032,88.6758158 98.397207,94.0282105 C97.6885786,91.1377895 96.2202494,88.5415263 94.8540648,85.9260789 C93.1559102,82.7415 92.4983541,78.8598947 89.5872319,76.4554737 Z" id="Shape"></path>
                <path d="M253.452768,48.3314211 C253.10803,46.4513684 253.40808,44.5649211 254.13586,42.8063684 C254.627431,44.6928158 254.512519,46.656 253.452768,48.3314211 Z" id="Shape"></path>
                <path d="M58.0436908,60.5261842 C59.1800499,59.4582632 60.316409,58.3967368 61.4655362,57.3416053 C61.4974564,61.7923421 63.2913716,66.7738421 60.7186035,70.8153158 C60.1185037,67.3046053 60.9037406,63.2375526 58.0436908,60.5261842 Z" id="Shape"></path>
                <path d="M63.2786035,63.7107632 C61.7464339,60.8011579 65.1044389,55.4743421 68.4177556,58.1025789 C71.2905736,61.0441579 70.4861845,65.7506842 69.0944638,69.2166316 C68.5965087,70.8281053 66.5472319,70.8089211 65.1874314,70.5787105 C63.9233915,69.9648158 63.5531172,68.4556579 62.8955611,67.3237895 C64.2808978,67.7010789 65.6534663,68.1231316 67.0260349,68.5515789 C67.2941646,68.2254474 67.8304239,67.5731842 68.0985536,67.2470526 C66.3493267,66.339 64.1404489,65.6867368 63.2786035,63.7107632 Z M65.7428429,59.1577105 C65.5321696,60.6285 65.276808,62.1120789 65.3406484,63.6020526 C66.2727182,63.8706316 67.2430923,63.8386579 68.2006983,63.8706316 C68.0921696,62.8218947 68.0794015,61.7411842 67.7857357,60.7244211 C67.1473317,60.1488947 66.4387032,59.6565 65.7428429,59.1577105 Z" id="Shape"></path>
                <path d="M82.6477805,57.7316842 C84.3970075,56.7277105 86.9250873,58.32 87.1166085,60.2767895 C87.4358105,62.7323684 87.4677307,65.2646842 86.9314713,67.6882895 C86.5931172,69.2358158 85.3865337,70.8408947 83.6309227,70.6554474 C81.2049875,70.6618421 80.5346633,67.8161842 80.2218454,65.9105526 C79.9856359,63.0904737 80.1707731,59.5669737 82.6477805,57.7316842 Z M84.1735661,68.8905 C86.1973067,66.4605 85.9483292,63.3206842 85.3482294,60.4302632 C84.8375062,60.2192368 83.8224439,59.7971842 83.3117207,59.5861579 C81.760399,62.5341316 81.2177556,66.6139737 84.1735661,68.8905 Z" id="Shape"></path>
                <path d="M170.875212,60.3599211 C172.024339,59.3047895 173.192618,58.2688421 174.392818,57.2712632 C174.641796,61.7795526 174.948229,66.3326053 174.258753,70.8153158 C172.362693,68.9864211 172.898953,66.3198158 172.688279,63.9665526 C172.611671,62.5597105 171.545536,61.5109737 170.875212,60.3599211 Z" id="Shape"></path>
                <path d="M175.886683,62.6556316 C175.688778,60.5773421 176.799601,57.4631053 179.359601,57.7764474 C184.230623,57.834 189.10803,57.6037895 193.972668,57.7956316 C196.628429,57.8148158 196.685885,61.1208947 196.226234,63.0265263 C195.185636,64.8746053 193.474713,66.2047105 192.089377,67.7778158 C193.685387,68.3853158 195.275012,69.0183947 196.81995,69.7537895 C194.29187,70.8856579 191.502045,70.8153158 188.922893,69.9200526 C189.746434,66.2494737 193.072519,64.152 194.815362,61.0057895 C194.183342,60.6157105 193.551322,60.2256316 192.925686,59.8291579 C191.291372,61.0889211 189.401696,62.0481316 187.952519,63.5253158 C186.873616,65.4948947 186.554414,67.7714211 186.005387,69.9264474 C185.539352,70.0095789 184.600898,70.1758421 184.128479,70.2525789 C184.581746,66.6843158 185.960698,63.3526579 187.186434,60.0082105 C185.960698,60.0018158 184.734963,60.0082105 183.509227,60.0273947 C183.241097,63.0648947 183.381546,66.2942368 182.015362,69.1015263 C181.325885,70.6938158 179.410673,71.0711053 177.884888,70.6170789 C177.093267,69.7282105 176.57616,68.6347105 175.995212,67.6051579 C177.725287,67.9504737 179.519202,68.2190526 181.242893,67.6563158 C179.282993,66.3006316 176.014364,65.5460526 175.886683,62.6556316 Z M179.429825,64.3118684 C181.140748,63.909 180.866234,61.8498947 181.255661,60.507 C180.687481,60.264 179.56389,59.778 178.995711,59.535 C178.606284,61.0377632 177.355012,63.5317105 179.429825,64.3118684 Z" id="Shape"></path>
                <path d="M75.4976559,60.3215526 C76.5446384,59.3687368 77.604389,58.4287105 78.6832918,57.5014737 C79.519601,61.4150526 80.2026933,65.6675526 78.9386534,69.5555526 C78.6449875,69.7537895 78.0640399,70.1630526 77.7767581,70.3676842 C76.953217,67.0104474 78.0448878,63.1288421 75.4976559,60.3215526 Z" id="Shape"></path>
                <path d="M71.5331671,66.096 C71.8268329,65.5844211 72.4205486,64.5612632 72.7205985,64.0432895 C73.4866833,64.2990789 74.2591521,64.5740526 75.0188529,64.8618158 C75.0635411,65.2455 75.1529177,66.0256579 75.197606,66.4157368 C73.9718703,66.3134211 72.7525187,66.2111053 71.5331671,66.096 Z" id="Shape"></path>
            </g>
        </g>
    </g>
</svg>