<?xml version="1.0" encoding="UTF-8" standalone="no"?>
<!-- Created with Inkscape (http://www.inkscape.org/) -->

<svg
   width="256"
   height="261"
   viewBox="0 0 67.733332 69.056252"
   version="1.1"
   id="svg5"
   inkscape:version="1.1 (c68e22c387, 2021-05-23)"
   sodipodi:docname="vikersund.svg"
   xmlns:inkscape="http://www.inkscape.org/namespaces/inkscape"
   xmlns:sodipodi="http://sodipodi.sourceforge.net/DTD/sodipodi-0.dtd"
   xmlns="http://www.w3.org/2000/svg"
   xmlns:svg="http://www.w3.org/2000/svg">
  <sodipodi:namedview
     id="namedview7"
     pagecolor="#ffffff"
     bordercolor="#666666"
     borderopacity="1.0"
     inkscape:pageshadow="2"
     inkscape:pageopacity="0.0"
     inkscape:pagecheckerboard="0"
     inkscape:document-units="mm"
     showgrid="false"
     units="px"
     inkscape:zoom="2.5273438"
     inkscape:cx="128"
     inkscape:cy="222.76352"
     inkscape:window-width="1920"
     inkscape:window-height="986"
     inkscape:window-x="-11"
     inkscape:window-y="-11"
     inkscape:window-maximized="1"
     inkscape:current-layer="layer1" />
  <defs
     id="defs2" />
  <g
     inkscape:label="Lag 1"
     inkscape:groupmode="layer"
     id="layer1">
    <g
       id="g57"
       transform="matrix(0.33094181,0,0,0.33094181,-1.2255289,-15.803946)">
      <path
         style="display:inline;fill:#eb1b21;stroke-width:0.564444"
         d="M 90.844765,226.02372 C 85.023311,224.57445 80.510803,220.6266 77.726258,214.54676 76.677554,212.25699 75.10412,206.9956 74.075302,202.33837 71.656036,191.38688 70.71434,188.75682 66.327263,180.69898 55.866996,161.48635 54.164868,156.80817 55.425442,150.73602 c 1.570573,-7.5654 6.752844,-11.53019 15.740634,-12.04265 5.308995,-0.3027 9.474521,0.37806 13.238237,2.1635 1.322775,0.6275 4.163946,1.15924 7.337778,1.37332 4.366717,0.29453 5.482843,0.1887 7.114652,-0.67457 2.842137,-1.5036 4.137487,-3.60876 4.436087,-7.2094 0.14266,-1.72032 0.43113,-3.12785 0.64104,-3.12785 0.93676,0 1.73956,1.51811 1.776,3.35844 0.0556,2.808 0.52641,3.72659 2.7511,5.36755 2.65538,1.95866 5.27238,1.86803 15.57506,-0.5394 9.77087,-2.28316 13.54526,-2.43847 19.10887,-0.78633 5.85791,1.73953 6.83264,2.39292 8.46923,5.67714 2.36723,4.75041 2.09466,6.40626 -3.12903,19.00867 -7.91852,19.10381 -10.09086,26.56465 -11.51494,39.54774 -1.02558,9.35008 -1.96793,12.79597 -4.35261,15.91624 -2.26444,2.96294 -5.42586,4.60453 -11.98958,6.22568 -4.23599,1.04624 -6.95556,1.27996 -16.36888,1.40672 -6.208893,0.0836 -12.245338,-0.0861 -13.414325,-0.3771 z m -0.998869,-5.02158 c 0.652786,-1.21975 0.76931,-5.17986 0.231524,-7.86877 -0.425157,-2.12578 -1.475486,-2.24472 -3.341765,-0.37844 -1.617461,1.61746 -1.828614,4.36352 -0.567594,7.38157 0.927873,2.2207 2.726108,2.64395 3.677835,0.86564 z m 38.534544,-0.25429 c 0.8814,-1.33793 0.4387,-6.12981 -0.74295,-8.04175 -1.24198,-2.00958 -2.2465,-2.37275 -3.24273,-1.17236 -0.83955,1.0116 -0.49878,8.55036 0.43749,9.6785 0.79582,0.9589 2.78179,0.69897 3.54819,-0.46439 z m -16.63131,-15.33398 c 2.32145,-1.62602 2.47614,-2.66332 0.95531,-6.40609 -0.77253,-1.90122 -1.82077,-5.92 -2.32941,-8.93061 -0.81779,-4.84046 -0.8463,-6.9133 -0.24637,-17.9141 0.37314,-6.84214 0.90075,-13.71026 1.17245,-15.26248 0.69454,-3.96775 0.0261,-4.51556 -5.50996,-4.51556 -4.42829,0 -8.023175,0.99517 -8.023175,2.22104 0,0.37013 0.382078,3.56982 0.84906,7.11043 2.282765,17.30772 2.196945,28.14328 -0.294109,37.13255 -1.375518,4.96371 -1.375574,4.92647 0.0095,6.31154 0.974943,0.97494 1.881484,1.12889 6.647744,1.12889 4.0732,0 5.84631,-0.22937 6.76897,-0.87561 z M 97.235337,189.29671 c 0.930746,-1.73911 0.128852,-4.97078 -1.770086,-7.13355 -2.768741,-3.15342 -5.199335,-9.1804 -7.263728,-18.01137 -0.768751,-3.28855 -1.446113,-3.68769 -5.118518,-3.01615 -2.796743,0.51143 -5.285734,2.20552 -5.518957,3.7564 -0.210775,1.40161 3.244709,9.514 5.958727,13.98921 3.472756,5.72633 9.577369,11.60378 12.052249,11.60378 0.563389,0 1.310533,-0.53474 1.660313,-1.18832 z m 20.188503,-1.8656 c 3.42201,-1.73407 6.89764,-5.50444 9.10492,-9.87704 1.80774,-3.5811 3.59193,-9.46437 3.10778,-10.24773 -0.52075,-0.84261 -6.71022,-3.94269 -7.36789,-3.69031 -0.35831,0.13749 -0.83193,1.22277 -1.05249,2.41172 -0.57372,3.09267 -3.23747,9.25978 -6.53966,15.14062 -4.10534,7.31116 -3.23534,9.29438 2.74734,6.26274 z M 83.096292,148.14235 c 0.668917,-1.61491 0.529624,-6.41863 -0.20749,-7.15575 -0.184805,-0.1848 -1.651553,-0.46241 -3.259446,-0.61691 l -2.923439,-0.2809 0.373053,3.56917 c 0.461586,4.41623 1.520653,6.18707 3.700204,6.18707 1.260743,0 1.76547,-0.37089 2.317118,-1.70268 z m 48.509338,0.47491 c 1.22146,-1.3111 1.8868,-3.86471 1.95961,-7.52111 0.0446,-2.23871 0.0259,-2.25919 -2.21282,-2.42395 -3.75755,-0.27656 -4.54557,0.73659 -4.3512,5.59435 0.0904,2.25925 0.439,4.43864 0.77467,4.8431 0.91221,1.09915 2.54224,0.88957 3.82974,-0.49239 z"
         id="path65" />
      <path
         style="display:inline;fill:#201c1e;stroke-width:0.564444"
         d="m 87.677543,256.00167 c -2.80429,-0.7242 -6.424495,-3.47262 -7.516142,-5.70617 -0.525509,-1.0752 -1.839383,-3.90845 -2.919724,-6.29611 C 73.269461,235.22041 67.836988,228.31435 52.906219,213.06281 31.308518,191.0011 26.412672,185.12288 19.998252,173.5517 16.455728,167.16122 11.970859,154.92529 10.067662,146.45837 7.9768468,137.15676 8.4113459,127.01767 11.627829,110.0517 14.865944,92.971635 15.344095,84.469307 13.580026,75.338371 12.945582,72.054445 8.9619886,63.602066 5.4926924,58.178683 4.3512023,56.394246 3.5561964,54.57218 3.7260123,54.129646 c 0.4091551,-1.066241 4.1914148,-1.048404 9.3857617,0.04426 7.320346,1.539883 22.101653,3.102244 29.349948,3.102244 8.330574,0 15.335917,-1.071147 23.979587,-3.666582 11.641746,-3.495667 23.451509,-5.318568 37.255631,-5.750609 12.55277,-0.392876 20.50631,0.282704 31.75486,2.697282 15.9086,3.41489 22.69358,4.524889 32.57663,5.329428 12.63212,1.028331 18.60768,1.024956 29.34581,-0.01658 7.62044,-0.739135 8.58132,-0.732422 9.80366,0.06849 2.15841,1.414242 1.45051,4.623067 -2.62138,11.882385 -7.53924,13.440887 -7.86111,24.248335 -1.3838,46.465076 2.13533,7.32402 2.5946,9.76008 2.81997,14.95777 0.53207,12.27106 -3.49048,22.52166 -14.89371,37.95343 -1.66094,2.24773 -3.0199,4.48034 -3.0199,4.96138 0,1.43259 -2.00647,4.9332 -4.77715,8.33451 -2.70541,3.32117 -5.36781,8.37557 -5.37733,10.2085 -0.0104,2.00178 -3.75606,7.31999 -12.96711,18.41107 -2.96494,3.57011 -6.36164,7.7014 -7.5482,9.18065 -1.18656,1.47925 -5.66501,9.30681 -9.95211,17.39456 -4.2871,8.08776 -8.35598,15.30243 -9.04195,16.03262 -0.68597,0.73018 -2.55572,1.90422 -4.15501,2.60899 -2.70462,1.19185 -3.73606,1.28534 -14.76113,1.33788 -6.51934,0.031 -15.91734,0.22997 -20.884448,0.44199 -4.967111,0.21202 -9.888807,0.164 -10.937099,-0.10672 z m 42.624867,-3.14754 c 0.17912,-0.46678 1.67715,-1.24157 3.32897,-1.72176 3.94145,-1.14582 5.67636,-2.5723 6.06868,-4.98984 0.17449,-1.07531 1.22516,-3.30325 2.33481,-4.95099 1.85453,-2.75381 2.64716,-5.55095 1.573,-5.55095 -0.24451,0 -1.68969,1.26414 -3.21153,2.80921 -1.52184,1.54507 -2.87509,2.7011 -3.00722,2.56897 -0.13214,-0.13214 1.47964,-2.41052 3.58175,-5.06308 3.12556,-3.94401 3.96808,-4.70158 4.62368,-4.15747 1.1243,0.93308 1.82495,-0.32966 1.83589,-3.30871 0.005,-1.29432 0.40542,-3.90205 0.89036,-5.79497 0.84445,-3.29622 0.71414,-5.68062 -0.31046,-5.68062 -0.26486,0 -0.65081,0.77061 -0.85768,1.71246 -0.20687,0.94185 -0.97673,2.106 -1.71082,2.58699 -0.73408,0.48099 -2.08192,2.18688 -2.99519,3.79087 -1.51048,2.6529 -5.16756,6.78535 -5.16756,5.83928 0,-0.21599 0.75394,-1.4335 1.67544,-2.70558 3.42063,-4.72206 5.90371,-13.28742 8.16273,-28.15735 1.76094,-11.59132 3.40144,-17.35569 7.54996,-26.52889 4.5875,-10.1439 5.66229,-13.46964 6.11079,-18.90889 0.24424,-2.96212 0.0875,-4.58689 -0.62616,-6.49111 -1.45059,-3.87046 -1.71819,-5.32852 -0.88326,-4.8125 1.46644,0.9063 3.39938,6.17645 3.40498,9.28361 0.004,2.05148 0.31401,3.40089 0.94154,4.0943 0.82754,0.91442 0.85359,1.4102 0.22481,4.27777 -0.39118,1.78392 -2.17534,6.79949 -3.96483,11.14571 -1.78949,4.34622 -3.51884,8.79122 -3.843,9.87778 -1.88477,6.31746 -1.08484,6.78689 1.89668,1.11305 1.14651,-2.18182 2.1661,-3.88542 2.26574,-3.78577 0.24297,0.24297 -1.56956,5.97981 -3.43028,10.85716 -2.633,6.90169 -4.72326,18.49096 -3.1609,17.52537 0.2859,-0.1767 1.32819,-2.74773 2.31621,-5.71341 0.98802,-2.96568 1.89799,-5.29055 2.02217,-5.16637 0.12418,0.12418 -0.42075,2.8388 -1.21095,6.0325 -0.7902,3.1937 -1.33868,6.09264 -1.21882,6.44209 0.11986,0.34946 0.88767,-0.68015 1.70624,-2.28801 2.08079,-4.08712 2.6138,-4.11418 1.68307,-0.0854 -0.4385,1.89808 -0.71603,4.11355 -0.61675,4.92327 0.16828,1.37244 0.27095,1.30007 1.51459,-1.06777 2.14334,-4.08079 3.53788,-5.8421 4.0147,-5.07059 0.57135,0.92445 4.83823,-2.96459 6.1609,-5.61535 0.55274,-1.10773 1.70938,-4.55406 2.57032,-7.6585 1.98266,-7.14927 2.38237,-7.91326 2.87921,-5.50333 0.20801,1.00894 0.60674,1.83444 0.88606,1.83444 0.92128,0 1.60838,-2.83225 2.12195,-8.74687 0.57186,-6.58583 1.69236,-9.86583 1.73611,-5.08202 0.0142,1.55222 0.23273,3.14833 0.48562,3.5469 1.27682,2.01225 4.09438,-2.09258 5.14665,-7.49801 0.36261,-1.86267 0.93098,-4.25665 1.26306,-5.31997 0.55263,-1.76956 0.66637,-1.84769 1.34289,-0.92249 0.70434,0.96325 0.83419,0.95206 2.7595,-0.23786 3.3929,-2.09693 3.96291,-3.82616 3.81016,-11.55897 -0.13241,-6.70307 0.55007,-10.81299 1.67964,-10.11488 0.36558,0.22594 0.44407,1.59371 0.21013,3.66149 -0.39898,3.52654 0.22971,5.58379 1.7064,5.58379 1.5191,0 3.79193,-5.99181 4.06551,-10.71785 0.37264,-6.43714 -2.18679,-11.63358 -3.05517,-6.20297 -0.19967,1.24866 -0.6178,2.42774 -0.92917,2.62018 -0.36072,0.22293 -0.43703,-0.34483 -0.21033,-1.56473 0.77035,-4.14527 0.99822,-11.11383 0.46867,-14.3324 -0.30646,-1.86267 -0.47651,-3.47221 -0.37789,-3.57675 0.62525,-0.6628 2.04979,3.19726 2.50504,6.78785 1.08982,8.5957 3.41867,9.94029 3.40137,1.96384 -0.01,-4.57157 -2.63579,-12.25651 -5.03307,-14.72987 -2.00689,-2.07059 -2.19982,-2.80496 -0.60382,-2.29841 1.66733,0.52919 1.4953,-2.01051 -0.32223,-4.75698 l -1.45111,-2.19278 0.19206,-12.329562 c 0.22003,-14.124413 0.44516,-15.088951 5.42491,-23.241367 3.14216,-5.144084 4.23712,-7.859227 3.95802,-9.81462 -0.15314,-1.072914 -0.59623,-0.690809 -2.82287,2.434327 -5.7471,8.066204 -9.48566,17.874138 -9.50298,24.930617 -0.005,1.936814 -0.24417,3.893873 -0.53204,4.349021 -1.68578,2.665408 -2.36508,-9.62334 -0.85822,-15.525618 1.35224,-5.296642 4.03778,-10.211812 7.43651,-13.610543 1.70492,-1.704917 2.96261,-3.237086 2.79488,-3.40482 -0.16773,-0.167733 -5.20816,0.266361 -11.20095,0.964654 -16.92737,1.972415 -29.93665,0.935909 -52.66487,-4.196038 -16.56253,-3.739757 -22.95695,-4.550682 -35.84222,-4.54542 -13.049126,0.0053 -14.305958,0.19529 -29.633333,4.478862 -7.655182,2.139409 -21.320664,4.711643 -29.049638,5.46797 -7.547449,0.738563 -16.484581,0.132378 -22.835813,-1.548901 -2.621207,-0.693878 -3.608763,-0.7429 -4.572753,-0.226989 -1.037848,0.55544 -1.738955,0.386173 -4.497337,-1.085782 -3.5620215,-1.900801 -6.8848138,-2.292695 -7.4284071,-0.876115 -0.450736,1.1746 1.1965082,2.882156 3.1589878,3.274652 1.8807623,0.376152 7.6305333,5.530953 10.4431903,9.362558 2.662343,3.626837 8.215104,12.509811 8.215104,13.142031 0,0.869149 -3.393995,-1.437209 -4.742152,-3.222486 -0.703299,-0.931334 -2.253688,-3.471334 -3.44531,-5.644445 -3.326066,-6.065607 -4.131467,-7.055555 -5.740251,-7.055555 -1.154278,0 -1.348422,0.192161 -0.99797,0.987778 1.467275,3.331086 3.120481,8.977878 3.687834,12.596394 0.862227,5.499191 0.312823,16.750387 -1.155782,23.669157 -1.307025,6.15756 -1.390988,7.53583 -0.542037,8.89766 0.481362,0.77217 0.181966,1.87493 -1.411111,5.19753 -2.412504,5.03163 -2.671033,7.52438 -0.75211,7.25185 0.912758,-0.12963 1.7125,-1.09332 2.843093,-3.42593 1.733203,-3.57589 2.772388,-4.26567 2.125899,-1.41111 -0.46851,2.0687 -1.575273,4.36906 -4.277209,8.89 -2.260575,3.78245 -3.3012577,7.4494 -2.8288296,9.96766 0.3077966,1.64069 0.5739296,1.88568 2.0484646,1.88568 2.205834,0 4.114618,-2.06536 5.395168,-5.83773 0.624889,-1.84086 1.068596,-2.53168 1.206858,-1.879 0.208212,0.98289 -0.496548,2.57969 -4.079196,9.24235 -1.899781,3.53303 -2.365026,6.99483 -1.350053,10.04549 0.547556,1.64576 1.10373,2.30777 2.051781,2.44221 1.657169,0.23501 2.717615,-0.65902 4.191047,-3.53334 0.647205,-1.26255 1.277843,-1.99893 1.401418,-1.63641 0.123575,0.36252 -0.57312,2.23956 -1.548212,4.17121 -1.376503,2.72684 -1.693343,3.93612 -1.417096,5.40865 0.241218,1.2858 0.140358,1.89656 -0.31319,1.89656 -1.174408,0 -0.204561,6.20458 1.183792,7.57329 1.18302,1.16627 1.199033,1.16679 2.018141,0.0642 0.454112,-0.6113 1.083709,-2.1353 1.399104,-3.38667 0.879344,-3.48892 1.719665,-5.00892 1.257835,-2.27522 -0.209785,1.24178 -0.364619,4.54378 -0.344074,7.33778 0.03092,4.205 0.281378,5.59427 1.454094,8.06573 1.716217,3.61687 3.073555,5.19871 4.460869,5.19871 0.750167,0 1.052502,-0.4341 1.081079,-1.55222 0.09617,-3.76271 0.857221,-3.58504 1.819579,0.42478 1.473693,6.14039 4.395457,11.95146 7.640876,15.19688 2.563406,2.56341 5.319798,4.03656 6.09753,3.25883 0.518178,-0.51818 1.297996,-7.79298 1.312944,-12.24827 0.01531,-4.56184 -0.891191,-11.28785 -1.620614,-12.02461 -0.246943,-0.24942 -0.591163,1.62083 -0.764936,4.15611 -0.388311,5.66534 -1.288625,6.99516 -1.825687,2.69666 -0.627411,-5.02163 -0.09908,-27.97609 0.661395,-28.73557 0.504553,-0.50388 0.746177,-0.01 1.02208,2.08932 0.478123,3.63793 1.781063,7.1865 3.065484,8.34889 0.947727,0.85768 1.06939,0.86061 1.386839,0.0334 0.574637,-1.49748 1.382165,-0.42858 2.390099,3.16368 0.524318,1.86867 1.678133,4.39816 2.564023,5.62109 0.885896,1.22294 1.610716,2.47743 1.610716,2.78775 0,0.56584 4.62438,12.46943 7.866967,20.25031 4.304295,10.32855 5.256563,14.0421 5.625558,21.938 0.268562,5.74673 0.556632,7.67275 1.25152,8.36764 0.827249,0.82725 0.933382,0.71052 1.270423,-1.3972 0.202269,-1.26493 0.613596,-2.29986 0.914061,-2.29986 0.98534,0 2.734288,4.18178 2.425192,5.7987 -0.260175,1.36102 -0.122055,1.53907 1.193913,1.53907 0.818473,0 2.553744,0.67269 3.856155,1.49487 3.09692,1.955 9.880453,4.40859 15.141701,5.47672 9.454907,1.91953 20.592427,1.67071 29.792047,-0.66556 l 3.8226,-0.97076 -1.84405,1.84405 c -1.59548,1.59549 -2.55088,1.97081 -7.08785,2.78445 -5.76948,1.03467 -19.30996,1.33537 -26.608163,0.5909 -3.536594,-0.36076 -4.382357,-0.30379 -4.189876,0.28222 0.541697,1.64919 5.586826,2.31662 17.934249,2.37257 11.4883,0.052 11.90977,0.0909 7.90222,0.72787 -6.57485,1.04507 -16.234287,1.45967 -20.756904,0.89092 -2.692112,-0.33855 -4.041591,-0.32373 -3.919338,0.043 0.388648,1.16595 4.91057,2.19123 12.540682,2.84341 l 7.90222,0.67546 -5.07999,0.71719 c -2.794,0.39447 -6.190149,0.84884 -7.546988,1.00973 -1.884206,0.22343 -2.310949,0.44862 -1.80646,0.95329 0.460198,0.46036 4.060198,0.66076 11.870088,0.66076 8.03665,0 11.06571,0.17447 10.70136,0.61638 -0.91413,1.1087 0.15523,1.35918 5.80267,1.35918 4.43459,0 5.63438,-0.17277 5.89376,-0.84868 z m 5.62472,-17.35934 c 0.29731,-0.53128 2.18364,-2.28614 4.19182,-3.89969 3.09578,-2.48743 3.43658,-2.65363 2.24014,-1.09245 -1.5942,2.0802 -7.26586,6.48222 -6.43196,4.99214 z m 12.10533,-55.82198 c -0.0159,-0.2035 1.53681,-3.8865 3.4505,-8.18444 1.91368,-4.29795 3.93202,-9.21145 4.4852,-10.91889 0.55317,-1.70745 1.01943,-2.67306 1.03612,-2.1458 0.0626,1.97573 -2.93603,9.96856 -5.88718,15.69246 -1.68064,3.25967 -3.06873,5.76017 -3.08464,5.55667 z m 31.35418,-13.79755 c -0.20088,-0.52349 -0.23824,-1.0788 -0.083,-1.23403 0.15522,-0.15522 0.44658,0.14609 0.64746,0.66958 0.20088,0.52349 0.23825,1.0788 0.083,1.23402 -0.15522,0.15523 -0.44658,-0.14609 -0.64746,-0.66957 z M 39.638842,163.56613 c 0.0048,-0.25116 0.254864,-0.83765 0.555801,-1.30332 0.471536,-0.72965 0.548353,-0.71475 0.555801,0.1078 0.0048,0.52496 -0.245357,1.11145 -0.555801,1.30331 -0.310444,0.19187 -0.560555,0.14336 -0.555801,-0.10779 z M 157.21986,153.51392 c 0.002,-2.17311 0.10452,-2.99294 0.22671,-1.82185 0.12219,1.17109 0.12014,2.94909 -0.005,3.95111 -0.12469,1.00202 -0.22467,0.0438 -0.22216,-2.12926 z M 39.233744,152.0961 c 3.069562,-3.06957 4.0763,-3.34753 2.106864,-0.58172 -1.014453,1.42467 -3.754811,3.41065 -4.706189,3.41065 -0.126289,0 1.043406,-1.27302 2.599325,-2.82893 z m 134.452006,1.21431 c -0.93133,-0.57528 -2.1772,-1.59033 -2.76859,-2.25567 -1.36045,-1.53055 -1.94867,-1.52568 -2.52078,0.0209 -0.34936,0.94438 -0.53843,0.4345 -0.813,-2.19245 -0.19678,-1.88267 -0.77348,-4.65893 -1.28157,-6.16947 -1.09949,-3.26878 -5.3568,-9.87255 -7.40151,-11.48092 -1.25189,-0.98474 -1.30592,-1.14449 -0.38956,-1.15193 0.58514,-0.005 1.41571,-0.23146 1.84571,-0.50378 1.19283,-0.75544 -1.26159,-1.85638 -5.29736,-2.37617 -2.83953,-0.36571 -2.54734,-0.40178 1.80857,-0.22323 4.90221,0.20093 5.21682,0.14495 5.57781,-0.99243 0.37045,-1.16721 0.4248,-1.15259 1.7164,0.46166 1.55548,1.94405 1.70788,3.3803 0.43431,4.09303 -0.77812,0.43546 -0.79867,0.67701 -0.14645,1.72138 0.85346,1.36661 1.2371,1.45735 2.74641,0.6496 0.99259,-0.53122 1.0556,-0.28484 1.04669,4.09222 -0.0137,6.7062 1.52038,10.83832 5.65817,15.2408 2.24362,2.38714 2.20805,2.56335 -0.21525,1.06648 z M 34.550199,147.31953 c 0,-0.14725 0.8255,-0.67054 1.834444,-1.16286 l 1.834444,-0.89514 -1.411111,1.15031 c -1.358629,1.10753 -2.257777,1.46901 -2.257777,0.90769 z m 11.319575,-7.4799 c 0.872656,-2.5033 2.181726,-3.45518 5.652998,-4.11053 1.685866,-0.31828 3.488656,-0.71183 4.006201,-0.87456 1.73618,-0.54591 0.468793,1.93619 -1.999985,3.91686 -3.095267,2.48328 -4.327948,3.15135 -2.983761,1.6171 1.130701,-1.29058 1.088994,-3.00577 -0.08257,-3.39587 -0.406259,-0.13528 -1.742203,0.84108 -2.968763,2.16969 -2.173037,2.35382 -2.214601,2.37115 -1.624124,0.67731 z m 25.933757,-7.30005 c -5.692213,-1.8678 -12.560271,-2.33823 -16.296368,-1.11622 -3.463003,1.1327 -3.995308,1.15815 -2.580178,0.12338 0.602122,-0.44028 0.961735,-0.93355 0.799135,-1.09615 -0.162594,-0.1626 -2.067199,-0.80033 -4.232441,-1.41717 l -3.936814,-1.12154 7.275553,-0.0401 c 6.186774,-0.0341 7.381308,-0.18473 7.982249,-1.00657 0.600089,-0.82066 0.844771,-0.85188 1.621903,-0.20692 0.50336,0.41775 0.848343,1.1533 0.766634,1.63457 -0.111195,0.65496 1.44075,1.38131 6.170721,2.88804 3.475606,1.10715 6.50244,2.20351 6.726298,2.43634 0.499195,0.51921 0.799271,0.59448 -4.296692,-1.07768 z m 83.819999,-0.39437 -2.82222,-1.31642 2.07707,-0.25169 c 1.14239,-0.13843 1.96226,-0.0659 1.82193,0.16114 -0.14033,0.22705 0.30638,0.93597 0.99269,1.57537 1.56942,1.46213 1.39591,1.44801 -2.06947,-0.1684 z m -64.811999,-1.18177 c -2.884633,-1.0287 -3.188378,-1.4384 -1.066411,-1.4384 2.228257,0 4.636189,-1.07743 4.636189,-2.07446 0,-0.42039 -0.789929,-1.24474 -1.755394,-1.83188 l -1.755394,-1.06751 1.273251,-0.68143 c 1.527516,-0.8175 6.350649,-0.46139 7.58103,0.55973 1.151088,0.95532 1.096238,3.46958 -0.122382,5.61068 -0.899595,1.58057 -1.239729,1.73361 -3.81,1.7143 -1.552223,-0.0117 -3.79362,-0.36763 -4.980889,-0.79103 z m 18.937809,-2.38043 c -1.01959,-2.04991 -1.14395,-2.74732 -0.60556,-3.39604 2.20109,-2.65215 7.3747,-3.24563 9.8362,-1.12834 l 1.5194,1.30694 -1.34682,2.50148 c -1.72879,3.21096 -1.9314,3.33773 -5.29792,3.31483 -2.7817,-0.0189 -2.84064,-0.0562 -4.1053,-2.59887 z m 39.84169,-1.13689 c 0.40746,-0.16305 0.89429,-0.143 1.08185,0.0445 0.18756,0.18756 -0.14582,0.32096 -0.74083,0.29646 -0.65755,-0.0271 -0.79129,-0.16084 -0.34102,-0.34102 z m -68.474166,-1.95193 c -5.218192,-3.05424 -18.035326,-9.34634 -21.062119,-10.33967 -1.649945,-0.54147 -2.893015,-1.09138 -2.76238,-1.22202 0.517635,-0.51763 10.671025,3.49086 17.461393,6.89365 l 7.18356,3.59982 1.141996,-1.22579 1.141995,-1.22579 0.0077,1.37644 c 0.0045,0.75703 0.160866,1.94793 0.348059,2.64643 0.428057,1.5973 0.02918,1.53931 -3.460208,-0.50307 z m 43.556296,0.83233 c -0.60899,-0.609 -0.43024,-5.26815 0.20212,-5.26815 0.31812,0 0.81046,0.61033 1.09407,1.35628 0.28361,0.74595 0.78601,1.52337 1.11644,1.72759 0.41851,0.25864 0.42304,0.70343 0.015,1.46594 -0.58532,1.09368 -1.71729,1.42864 -2.42759,0.71834 z m -57.385184,-1.39206 c -2.783479,-1.12022 -10.896476,-2.81919 -11.230373,-2.35179 -0.187407,0.26233 -3.074382,-0.30883 -6.415504,-1.26927 -10.708067,-3.07811 -4.928643,-2.82083 7.593974,0.33806 3.629558,0.91558 7.185558,1.67034 7.902222,1.67724 0.716658,0.007 1.938014,0.50925 2.714125,1.11634 1.577064,1.23359 1.484365,1.31397 -0.564444,0.48942 z m 91.747224,-4.07023 c -0.93519,-0.68383 -0.77117,-0.79508 1.66423,-1.12889 3.7667,-0.51628 7.19266,-0.44742 8.15911,0.164 1.18152,0.74749 -1.68144,1.38103 -4.52021,1.00026 -1.22303,-0.16404 -2.22369,-0.0684 -2.22369,0.21248 0,0.76715 -1.90053,0.61419 -3.07944,-0.24785 z m -6.73674,-6.51304 c -1.53845,-0.60388 6.71475,-2.96525 11.45784,-3.27827 3.43173,-0.22647 3.63627,-0.1776 2.63472,0.62944 -1.51834,1.2235 -4.85184,1.78482 -5.3936,0.90822 -0.57554,-0.93124 -2.55167,-0.50274 -2.55167,0.5533 0,1.48274 -3.6156,2.18107 -6.14729,1.18731 z M 48.943532,113.3181 c -1.519801,-0.36555 -2.460489,-1.29084 -1.312334,-1.29084 1.901636,0 4.383357,0.72631 4.092081,1.19761 -0.322004,0.52101 -0.918153,0.54101 -2.779747,0.0932 z m -9.595556,-1.85529 c -0.191865,-0.31044 -0.09485,-0.56444 0.215599,-0.56444 0.310444,0 0.721425,0.254 0.91329,0.56444 0.191866,0.31045 0.09485,0.56445 -0.215598,0.56445 -0.310445,0 -0.721425,-0.254 -0.913291,-0.56445 z m 93.556664,-2.94667 c -0.79274,-0.38233 -1.27,-1.12024 -1.27,-1.96361 0,-0.92378 -0.54894,-1.65522 -1.73559,-2.31263 -3.34847,-1.85506 -3.5969,-2.35542 -0.52219,-1.05172 1.70745,0.72397 3.60533,1.4986 4.21752,1.72139 0.93123,0.33891 0.97734,0.48971 0.28222,0.9231 -1.20432,0.75086 -0.007,2.43272 2.05174,2.88225 l 1.63297,0.35655 -1.69334,0.0286 c -0.93133,0.0157 -2.26483,-0.24704 -2.96333,-0.58391 z m -52.493331,-1.80413 c 1.344653,-1.30268 2.01037,-2.58697 1.340967,-2.58697 -0.11619,0 -1.32028,0.39128 -2.675743,0.86952 -1.680289,0.59284 -2.241691,0.64672 -1.764301,0.16933 1.373062,-1.37306 0.641729,-1.62484 -3.674256,-1.26494 -2.673785,0.22297 -5.636486,0.10277 -7.620678,-0.30917 -2.973357,-0.6173 -3.219015,-0.78237 -2.922507,-1.96376 0.378585,-1.50839 -0.985237,-3.145428 -2.620467,-3.145428 -1.630121,0 -1.341899,1.839238 0.463652,2.958688 0.853722,0.52931 1.272833,0.96915 0.931356,0.9774 -0.341478,0.008 -1.672776,-0.74698 -2.958445,-1.67831 -1.582883,-1.146635 -3.022533,-1.700468 -4.459134,-1.715426 l -2.121555,-0.02207 1.868887,-0.811812 c 1.027887,-0.446492 3.948887,-2.372834 6.491111,-4.280759 5.794017,-4.348377 9.515258,-6.136916 12.806669,-6.155262 1.397,-0.0078 2.90598,-0.24572 3.353291,-0.528742 0.527693,-0.333884 1.383521,-0.219705 2.437152,0.325148 0.893126,0.461853 1.924146,0.73045 2.291153,0.596881 0.367013,-0.133568 1.075058,0.111129 1.57344,0.543771 0.970799,0.842744 2.714645,0.491777 2.837045,-0.570984 0.04086,-0.354842 0.231365,0.223643 0.423333,1.285521 0.422882,2.339201 1.568252,2.879451 2.289511,1.079917 0.471424,-1.176201 0.531797,-1.090592 0.563739,0.799395 0.03725,2.203649 0.468161,2.587398 1.616224,1.439333 1.392451,-1.392448 0.64236,0.566112 -1.016,2.652889 -0.931333,1.171934 -1.693333,2.443102 -1.693333,2.82483 0,0.381723 -1.016,1.366402 -2.257778,2.18817 -2.310073,1.52874 -2.99567,3.17144 -1.323628,3.17144 0.864283,0 0.865282,0.0761 0.01338,1.01743 -0.506414,0.55958 -2.006284,1.607 -3.333034,2.32759 l -2.412283,1.31017 1.552223,-1.50377 z m -5.327808,-6.42236 c 0.09654,-0.975086 -0.347963,-2.956314 -0.987778,-4.402725 -0.639815,-1.446408 -1.163303,-3.13421 -1.163303,-3.750669 0,-1.032174 0.311105,-1.103254 3.933066,-0.898594 4.21049,0.237913 6.88664,1.574565 7.275452,3.633861 0.348471,1.845615 1.207617,2.520781 2.397421,1.884014 1.609999,-0.861647 1.292538,-2.477828 -0.857527,-4.36561 -2.684249,-2.356805 -5.520052,-3.202696 -10.772856,-3.213436 -3.606072,-0.0074 -5.05556,0.256702 -7.196667,1.31112 -3.04476,1.499436 -3.576111,2.634808 -0.964658,2.061237 2.374815,-0.521598 3.213134,0.37595 3.976844,4.257839 1.001116,5.088573 3.966509,7.457463 4.360006,3.482963 z m 9.951246,6.92188 c 1.426091,-1.07864 2.34495,-1.06722 1.44434,0.0179 -0.38647,0.46567 -1.116071,0.83859 -1.621333,0.82872 -0.771776,-0.0151 -0.743481,-0.15046 0.176993,-0.84667 z m 81.977953,-0.4887 c -0.35113,-0.91502 1.98403,-5.55034 2.96001,-5.87567 0.36275,-0.12091 0.14103,0.63064 -0.49271,1.67012 -0.63374,1.03949 -1.1532,2.58848 -1.15436,3.4422 -0.002,1.63633 -0.79996,2.10014 -1.31294,0.76335 z M 35.287832,105.83305 c -1.242758,-0.5564 -2.414059,-1.41425 -2.60289,-1.90634 -0.292839,-0.76313 0.08885,-0.72539 2.595408,0.25663 3.405704,1.33427 4.178087,1.92801 3.064164,2.35546 -0.438417,0.16824 -1.813924,-0.14935 -3.056682,-0.70575 z m 96.594048,-3.86155 c -1.57145,-0.54329 -5.06307,-2.455536 -7.75914,-4.249437 -2.69607,-1.7939 -5.15775,-3.103536 -5.47042,-2.910296 -0.31267,0.193238 -0.4123,0.973648 -0.22141,1.734243 0.29383,1.170691 0.18588,1.325259 -0.70347,1.007262 -0.57782,-0.206598 -1.23216,-0.472948 -1.4541,-0.591893 -0.22194,-0.11894 0.43303,-1.312204 1.45549,-2.651697 1.02246,-1.339492 2.18321,-3.593361 2.57945,-5.008597 0.40616,-1.450636 1.1255,-2.690296 1.64896,-2.841675 0.51068,-0.147685 1.34167,-0.439486 1.84665,-0.648445 0.66804,-0.276435 1.01485,0.0054 1.27319,1.034715 0.34623,1.379495 0.40361,1.394355 2.30929,0.598111 1.18755,-0.496192 3.84601,-0.816532 6.77629,-0.816532 5.82792,0 8.07872,0.909172 13.32429,5.382114 5.82225,4.964677 8.90542,6.097805 12.85013,4.722666 1.80942,-0.630761 2.22788,-1.293176 1.21312,-1.920336 -0.31045,-0.191865 -0.55642,-0.651355 -0.54661,-1.021089 0.0242,-0.909661 2.80438,2.298975 2.80438,3.236489 0,0.876525 -2.91883,1.438576 -7.51599,1.447275 -3.50247,0.0066 -5.46623,0.700893 -5.46623,1.932512 0,0.41673 -0.40036,1.08996 -0.88969,1.49607 -0.7358,0.61067 -0.97348,0.60278 -1.3742,-0.0456 -0.40914,-0.662 -0.95901,-0.6344 -3.53437,0.17741 -3.8938,1.22741 -9.49022,1.20047 -13.14561,-0.0633 z m 6.79496,-8.099034 c 0.51535,-2.804234 0.81365,-5.221949 0.6629,-5.372699 -0.59225,-0.59225 -4.97131,-0.862644 -7.94782,-0.490754 -3.75018,0.468554 -8.40717,3.283414 -8.68654,5.250468 -0.27762,1.954756 1.61047,1.604289 3.85983,-0.716461 2.06115,-2.126561 5.49348,-3.392825 7.69729,-2.839702 1.32024,0.331359 1.33983,0.42854 0.97303,4.82676 -0.28102,3.369768 -0.18591,4.715624 0.38158,5.399409 0.69472,0.837093 0.81124,0.835163 1.43932,-0.02382 0.37588,-0.514039 1.10506,-3.228989 1.62041,-6.033224 z m 8.9983,5.958847 c 0.49106,-0.188434 0.89283,-0.950434 0.89283,-1.693333 0,-1.944156 -1.89484,-1.752465 -3.38666,0.342612 l -1.20576,1.693338 h 1.40338 c 0.77186,0 1.80516,-0.15418 2.29621,-0.342617 z M 122.60353,89.133947 c 0,-0.483988 -0.254,-0.722998 -0.56444,-0.531132 -0.31045,0.191865 -0.56445,0.587855 -0.56445,0.879978 0,0.292123 0.254,0.531133 0.56445,0.531133 0.31044,0 0.56444,-0.395991 0.56444,-0.879979 z m -92.52558,8.449805 c -0.955152,-0.803712 -1.73664,-1.84229 -1.73664,-2.307957 0,-0.612139 0.508139,-0.422478 1.834444,0.684705 2.050026,1.711328 3.024112,3.084536 2.188021,3.084536 -0.302051,0 -1.330673,-0.657577 -2.285825,-1.461284 z m 65.326414,-2.31096 c 0.407456,-0.163051 0.894289,-0.143002 1.081854,0.04454 0.187559,0.187565 -0.145819,0.320966 -0.740833,0.296457 -0.65755,-0.02709 -0.791295,-0.160832 -0.341021,-0.341014 z m 7.584726,-1.352967 c 1.37392,-0.800237 1.23343,-1.640448 -0.28223,-1.687794 -1.2118,-0.03785 -1.21827,-0.0619 -0.14111,-0.524772 0.62089,-0.266805 2.00294,-0.502953 3.07122,-0.524772 1.81656,-0.0371 1.87138,0.01269 0.84667,0.768995 -1.27426,0.940485 -0.71306,1.784084 1.44433,2.171115 0.77612,0.139232 -0.23988,0.280016 -2.25777,0.312853 -2.74092,0.0446 -3.41905,-0.08581 -2.68111,-0.515625 z M 28.682852,88.946953 c -0.859648,-0.897279 -1.322116,-1.780289 -1.027706,-1.962245 0.501896,-0.310189 1.077029,0.207128 2.897121,2.605884 1.218365,1.605721 -0.173518,1.126496 -1.869415,-0.643639 z M 107.03649,87.68898 c 0.0723,-1.929727 -1.60111,-2.628719 -3.54469,-1.480621 l -1.64101,0.969369 1.33186,-3.238568 c 0.73253,-1.781212 1.35599,-3.873567 1.38548,-4.649678 0.0316,-0.831056 0.47147,0.05052 1.07016,2.144632 0.55911,1.955658 1.55524,4.129136 2.21361,4.829951 0.92714,0.986896 1.04523,1.426043 0.52368,1.94759 -0.9855,0.985496 -1.38969,0.82773 -1.33909,-0.522675 z m 78.87843,-6.175751 c 0.10373,-0.708762 0.52748,-1.400344 0.94166,-1.536849 0.51167,-0.168639 0.6926,0.164866 0.56445,1.040465 -0.10374,0.708762 -0.52749,1.400344 -0.94167,1.536849 -0.51166,0.168639 -0.69259,-0.164866 -0.56444,-1.040465 z m -3.48028,-3.563271 c 0,-1.913284 2.02364,-6.984989 2.56932,-6.439309 0.2632,0.263208 -1.80543,7.76754 -2.26898,8.231084 -0.16518,0.165188 -0.30034,-0.641111 -0.30034,-1.791775 z M 35.38266,75.761704 c -0.21761,-1.319389 -0.684436,-2.765146 -1.037391,-3.212794 -0.503462,-0.638533 -0.477301,-0.714902 0.121411,-0.354428 0.849933,0.51173 2.341296,3.761175 2.341296,5.101315 0,1.863839 -1.05156,0.732027 -1.425316,-1.534093 z m 3.960056,-2.54 c -0.186251,-1.164167 -0.619567,-2.624667 -0.962925,-3.245555 -0.567444,-1.026099 -0.535549,-1.05554 0.350277,-0.323333 2.132116,1.762366 3.355103,5.685555 1.772374,5.685555 -0.512317,0 -0.948436,-0.795979 -1.159726,-2.116667 z m 4.838816,-1.84695 c -0.01968,-0.78299 -0.827043,-2.383558 -1.794144,-3.55682 -1.901111,-2.306378 -1.819517,-3.498391 0.119359,-1.743731 1.934301,1.750517 2.832237,3.927309 2.234671,5.417322 l -0.524108,1.306846 z m 60.037498,-0.792801 c -0.4569,-1.820423 0.12835,-3.565507 0.92769,-2.766167 0.83184,0.831842 0.91886,3.690269 0.12096,3.973259 -0.3766,0.13357 -0.84849,-0.409622 -1.04865,-1.207092 z m 72.57117,0.274174 c 0,-0.292123 0.25109,-0.686315 0.55798,-0.875983 0.31996,-0.197747 0.41458,0.02882 0.22183,0.531133 -0.37524,0.977853 -0.77981,1.156765 -0.77981,0.34485 z m -2.25778,-3.353355 c 0,-0.310444 0.254,-0.721425 0.56444,-0.91329 0.31045,-0.191865 0.56445,-0.09485 0.56445,0.215599 0,0.310444 -0.254,0.721425 -0.56445,0.91329 -0.31044,0.191865 -0.56444,0.09485 -0.56444,-0.215599 z M 47.532421,65.460593 c -0.398922,-0.480671 -0.598312,-1.000947 -0.44309,-1.156169 0.155222,-0.155223 0.608612,0.111053 1.007534,0.591725 0.398922,0.480671 0.598312,1.000947 0.44309,1.156169 -0.155223,0.155223 -0.608613,-0.111054 -1.007534,-0.591725 z M 66.996948,219.8639 c 0.320385,-1.00945 -0.509913,-5.23139 -1.274645,-6.4814 -0.494318,-0.808 -1.172577,1.38912 -1.216875,3.94187 -0.05402,3.11144 1.732167,4.93203 2.49152,2.53953 z m -3.942305,-7.78919 c 0,-7.9719 -0.509028,-10.86523 -1.911537,-10.86523 -0.25339,0 -0.603459,2.89859 -0.77794,6.44132 -0.306098,6.21521 -0.216306,6.90715 1.562998,12.04423 0.764828,2.20815 1.126479,-0.23832 1.126479,-7.62032 z m -4.335188,1.41143 c -0.115914,-0.81616 -0.634204,-1.33445 -1.450368,-1.45036 -1.395758,-0.19823 -1.719145,0.91655 -0.592667,2.04303 1.126479,1.12648 2.241263,0.80309 2.043035,-0.59267 z m -3.723261,-11.57057 c -0.157486,-9.53126 -0.901633,-16.94751 -1.789617,-17.83549 -0.391781,-0.39178 -1.609993,15.4605 -1.338043,17.41162 0.04329,0.31044 0.271181,1.45344 0.506476,2.54 0.377703,1.7442 0.325159,1.89119 -0.448694,1.25514 -0.729945,-0.59997 -0.925785,-2.91211 -1.171318,-13.82889 -0.162154,-7.20966 -0.574622,-14.25147 -0.916602,-15.64847 -0.341974,-1.397 -0.751559,-3.1115 -0.910184,-3.81 -0.816476,-3.59532 -1.113569,0.16977 -1.113569,14.11233 0,9.10992 -0.219475,15.53751 -0.538359,15.76651 -0.329637,0.23674 -0.244497,0.93571 0.219602,1.80289 0.891451,1.6657 6.528204,7.68802 7.196529,7.6888 0.253001,3e-4 0.389704,-4.2542 0.303779,-9.45444 z m 3.825115,2.14391 c 0,-6.09147 -0.767678,-11.65095 -1.753604,-12.69956 -0.719729,-0.76547 -0.642225,16.43915 0.08013,17.78889 1.233108,2.30408 1.673476,0.96484 1.673476,-5.08933 z M 45.274643,169.03615 c 0,-0.62716 -0.376297,-1.12889 -0.846667,-1.12889 -0.47037,0 -0.846666,0.50173 -0.846666,1.12889 0,0.62716 0.376296,1.12888 0.846666,1.12888 0.47037,0 0.846667,-0.50172 0.846667,-1.12888 z m 115.711107,-3.98443 c 0,-0.29212 -0.254,-0.53113 -0.56444,-0.53113 -0.31045,0 -0.56445,0.39599 -0.56445,0.87998 0,0.48399 0.254,0.723 0.56445,0.53113 0.31044,-0.19187 0.56444,-0.58786 0.56444,-0.87998 z m 1.02802,-3.39682 c 0.21385,-2.27824 -0.72497,-1.70616 -1.34996,0.82262 -0.31003,1.25438 -0.22244,1.56683 0.38339,1.36764 0.43187,-0.142 0.86683,-1.12761 0.96657,-2.19026 z"
         id="path59" />
    </g>
  </g>
</svg>
