<?xml version="1.0" encoding="UTF-8"?>
<svg width="256px" height="256px" viewBox="0 0 256 256" version="1.1" xmlns="http://www.w3.org/2000/svg" xmlns:xlink="http://www.w3.org/1999/xlink">
    <!-- Generator: Sketch 50.2 (55047) - http://www.bohemiancoding.com/sketch -->
    <title>logo/viking</title>
    <desc>Created with Sketch.</desc>
    <defs></defs>
    <g id="logo/viking" stroke="none" stroke-width="1" fill="none" fill-rule="evenodd">
        <g id="viking" transform="translate(16.000000, 0.000000)" fill-rule="nonzero">
            <g id="#242021ff" fill="#242021">
                <path d="M129.55648,0 L136.82688,0 C139.91936,2.41664 143.91296,4.5056 145.01888,8.58112 C146.20672,13.18912 146.39104,18.00192 147.6608,22.60992 C153.68192,25.8048 160.21504,27.91424 166.25664,31.06816 C171.02848,29.20448 177.47968,26.70592 181.53472,31.3344 C185.28256,34.11968 184.4224,39.05536 184.85248,43.1104 C194.12992,38.85056 204.63616,36.2496 214.81472,38.37952 C219.83232,40.0384 219.48416,46.1824 215.98208,49.152 C220.30336,63.01696 219.77088,77.98784 216.576,92.01664 C212.66432,109.6704 202.77248,125.76768 201.87136,144.09728 C206.5408,142.80704 212.70528,139.07968 216.65792,143.85152 C221.9008,149.07392 216.43264,156.95872 210.82112,159.10912 C205.37344,159.39584 200.15104,157.4912 194.80576,156.8768 C194.02752,156.75392 192.512,156.50816 191.75424,156.40576 C187.88352,164.08576 183.3984,171.4176 179.2,178.91328 C178.60608,178.40128 177.39776,177.3568 176.78336,176.8448 C175.57504,176.4352 173.17888,175.59552 171.97056,175.18592 C173.71136,177.58208 175.43168,180.0192 177.13152,182.45632 C166.44096,197.79584 155.15648,212.70528 143.21664,227.08224 C142.0288,225.62816 140.86144,224.19456 139.6736,222.76096 C137.58464,221.40928 146.7392,219.15648 143.83104,217.25184 C140.5952,215.73632 137.05216,214.99904 133.65248,213.99552 C133.71392,214.4256 133.85728,215.28576 133.9392,215.71584 C137.54368,220.50816 143.4624,227.30752 138.28096,233.0624 C140.61568,232.20224 142.80704,230.99392 145.08032,229.9904 C144.0768,235.47904 139.03872,238.65344 135.63904,242.64704 C130.9696,247.93088 125.7472,252.80512 119.3984,256 L97.64864,256 C90.33728,251.35104 84.95104,244.44928 78.78656,238.51008 C76.73856,236.19584 73.66656,234.02496 74.15808,230.48192 L77.76256,232.05888 L76.8,234.8032 C79.36,234.86464 81.94048,234.9056 84.52096,234.94656 C84.0704,242.72896 90.9312,247.76704 95.98976,252.53888 C96.70656,252.12928 98.11968,251.33056 98.83648,250.92096 C98.97984,251.24864 99.24608,251.88352 99.36896,252.2112 C99.49184,252.70272 99.7376,253.72672 99.84,254.21824 C105.34912,254.95552 111.14496,256.08192 116.59264,254.30016 C130.3552,250.04032 138.52672,233.02144 132.79232,219.68896 C130.88768,214.69184 126.42304,211.47648 122.368,208.36352 C127.75424,207.03232 132.36224,203.83744 135.59808,199.35232 C148.7872,182.70208 161.01376,165.08928 170.41408,145.98144 C174.20288,137.87136 178.25792,129.536 178.70848,120.4224 C179.67104,104.3456 179.65056,88.24832 179.22048,72.17152 C131.29728,71.94624 83.33312,71.82336 35.40992,73.15456 C35.06176,84.97152 36.63872,96.72704 36.9664,108.544 C37.29408,119.27552 41.53344,129.3312 45.91616,138.9568 C55.41888,159.35488 66.08896,179.32288 79.23712,197.632 C82.86208,202.32192 86.7328,207.62624 92.89728,208.95744 C89.74336,204.94336 85.1968,202.28096 82.20672,198.12352 C68.28032,179.56864 58.0608,158.63808 48.16896,137.76896 C46.55104,136.23296 47.37024,131.60448 50.13504,133.69344 C51.87584,138.4448 56.15616,140.8 60.64128,142.47936 C62.99648,144.91648 56.09472,143.85152 58.18368,146.28864 C60.0064,147.78368 61.8496,149.23776 63.71328,150.69184 C63.95904,149.15584 64.45056,146.06336 64.69632,144.50688 C68.15744,146.55488 66.12992,150.6304 65.92512,153.74336 C67.584,154.74688 69.26336,155.72992 70.9632,156.672 C71.24992,157.53216 71.82336,159.25248 72.0896,160.09216 C72.97024,159.60064 74.73152,158.59712 75.61216,158.1056 C75.38688,159.37536 74.93632,161.93536 74.71104,163.2256 C75.85792,163.10272 78.17216,162.89792 79.33952,162.79552 C79.58528,160.09216 77.0048,157.96224 76.96384,155.21792 L77.33248,153.43616 C78.39744,153.23136 80.52736,152.80128 81.59232,152.576 C80.32256,152.4736 77.824,152.2688 76.55424,152.1664 C79.38048,148.62336 80.384,143.64672 84.72576,141.47584 C86.34368,140.75904 90.76736,136.704 86.28224,136.54016 C82.67776,140.41088 79.01184,144.56832 73.56416,145.75616 C75.40736,142.62272 77.43488,139.61216 79.60576,136.704 C75.44832,138.81344 68.32128,139.28448 69.07904,132.56704 C68.21888,133.3248 66.49856,134.84032 65.61792,135.59808 C63.63136,135.20896 61.66528,134.84032 59.67872,134.41024 C58.4704,133.07904 57.05728,131.97312 55.45984,131.11296 L56.48384,137.23648 C52.77696,136.99072 52.46976,133.16096 51.95776,130.2528 C49.52064,129.76128 45.81376,131.72736 44.35968,128.94208 C43.19232,125.66528 42.61888,122.24512 41.94304,118.86592 C62.81216,112.5376 83.6608,106.14784 104.77568,100.78208 C110.57152,98.87744 116.20352,101.7856 121.69216,103.23968 C139.83744,108.56448 157.88032,114.25792 176.10752,119.33696 C174.96064,133.05856 168.26368,145.36704 161.77152,157.20448 C153.51808,171.25376 144.36352,184.79104 134.69696,197.89824 C131.82976,201.33888 129.14688,206.25408 124.0064,206.15168 C113.74592,206.848 103.424,206.1312 93.14304,205.78304 C94.6176,210.16576 90.23488,212.19328 88.00256,215.08096 C83.57888,220.0576 83.1488,227.10272 82.75968,233.41056 C81.3056,232.71424 79.9744,231.81312 78.9504,230.56384 C66.78528,217.82528 55.52128,204.24704 45.24032,189.952 C49.64352,187.94496 54.0672,183.31648 59.04384,186.88 C57.1392,189.09184 55.23456,191.34464 53.43232,193.65888 C59.02336,194.80576 61.46048,188.5184 64.98304,185.50784 C61.87008,184.17664 58.73664,182.90688 55.58272,181.6576 C56.64768,178.64704 57.56928,175.55456 57.40544,172.31872 C52.4288,173.52704 47.5136,175.0016 42.7008,176.7424 C44.87168,181.3504 50.09408,177.23392 53.53472,177.2544 C52.03968,179.9168 51.52768,184.13568 47.616,183.64416 C45.30176,183.56224 44.60544,186.1632 43.25376,187.55584 C40.2432,180.224 35.67616,173.73184 32.0512,166.72768 C29.67552,162.63168 27.97568,157.77792 23.42912,155.52512 C31.55968,176.70144 45.73184,194.82624 59.06432,212.93056 C58.10176,212.48 56.15616,211.59936 55.1936,211.1488 C42.37312,195.21536 31.232,177.8688 22.26176,159.45728 C15.38048,158.6176 6.61504,160.44032 1.57696,154.48064 C-1.96608,150.60992 1.18784,144.46592 5.20192,142.31552 C8.88832,141.49632 12.32896,143.85152 15.81056,144.67072 C18.30912,121.83552 1.96608,102.37952 2.10944,79.83104 C2.02752,69.98016 0.79872,59.55584 5.55008,50.4832 C-2.70336,47.77984 3.35872,37.72416 8.74496,35.328 C18.49344,31.15008 28.9792,36.22912 37.86752,40.3456 C39.05536,32.82944 47.53408,27.83232 54.4768,31.60064 C59.0848,33.71008 58.65472,39.3216 59.43296,43.49952 C72.58112,31.1296 78.60224,11.59168 95.60064,3.4816 C103.6288,-0.4096 110.63296,6.2464 117.53472,9.3184 C115.44576,11.63264 113.39776,13.96736 111.37024,16.34304 C111.84128,10.6496 108.29824,5.77536 102.44096,5.5296 C90.0096,7.0656 84.2752,19.59936 78.25408,28.93824 C73.95328,37.9904 68.66944,49.58208 57.46688,51.03616 C52.61312,52.08064 48.14848,48.7424 46.26432,44.46208 C50.91328,45.32224 54.12864,43.17184 55.66464,38.7072 C53.1456,36.92544 50.74944,33.66912 47.2064,34.52928 C42.20928,35.57376 39.77216,41.73824 42.06592,46.14144 C45.01504,52.4288 52.9408,54.8864 59.41248,53.80096 C68.21888,52.65408 74.4448,45.50656 79.4624,38.8096 C82.16576,43.2128 85.79072,46.8992 90.3168,49.39776 C97.77152,43.90912 95.9488,34.67264 94.37184,26.89024 C93.67552,26.70592 92.30336,26.33728 91.60704,26.15296 C91.42272,32.41984 95.6416,42.2912 88.3712,45.91616 C86.6304,37.15072 88.2688,28.28288 88.18688,19.456 L90.43968,24.00256 C92.4672,20.35712 93.47072,16.2816 94.57664,12.26752 C96.99328,16.62976 97.50528,23.63392 104.12032,22.95808 C102.78912,24.73984 101.49888,26.56256 100.43392,28.52864 C105.12384,25.27232 106.35264,19.21024 111.12448,16.01536 C112.8448,24.02304 105.49248,28.61056 100.63872,33.44384 C98.7136,39.89504 99.16416,48.61952 91.91424,51.8144 C87.9616,54.39488 84.97152,50.11456 82.04288,48.08704 C81.44896,49.41824 80.26112,52.03968 79.6672,53.3504 C81.65376,54.04672 83.6608,54.72256 85.64736,55.3984 C83.98848,56.75008 82.3296,58.08128 80.67072,59.45344 C82.78016,59.41248 86.99904,59.31008 89.088,59.26912 C91.136,67.15392 99.9424,68.54656 106.7008,66.27328 C112.8448,64.2048 118.62016,67.8912 124.7232,68.3008 C130.1504,69.14048 135.61856,68.36224 140.94336,67.31776 C142.11072,64.34816 143.95392,61.35808 142.848,58.04032 C139.40736,58.08128 135.94624,57.67168 133.44768,55.05024 C135.53664,54.86592 139.71456,54.49728 141.80352,54.31296 C141.0048,50.56512 140.47232,46.6944 138.62912,43.27424 C133.0176,46.03904 132.48512,54.45632 131.03104,60.12928 C122.94144,61.48096 114.56512,58.7776 108.83072,52.92032 C105.22624,48.88576 105.96352,42.76224 109.07648,38.66624 C108.2368,37.72416 107.39712,36.80256 106.57792,35.88096 L104.09984,39.54688 C104.448,36.61824 104.83712,33.42336 106.94656,31.15008 C112.78336,25.00608 118.96832,19.02592 126.44352,14.88896 C129.16736,13.70112 129.024,10.15808 130.39616,7.94624 C131.6864,9.19552 134.28736,11.69408 135.5776,12.94336 C134.57408,10.30144 133.57056,7.65952 132.58752,5.0176 C138.58816,6.26688 139.07968,12.82048 139.59168,17.77664 C128.1024,19.41504 117.63712,24.9856 109.30176,32.9728 C110.32576,33.75104 111.32928,34.54976 112.35328,35.328 C118.55872,25.00608 131.46112,21.89312 142.70464,21.36064 C142.19264,16.87552 141.6192,12.41088 141.14816,7.92576 C135.20896,1.92512 126.44352,5.3248 119.56224,7.4752 C120.17664,2.53952 125.91104,1.8432 129.55648,0 Z M134.26688,27.05408 C135.18848,30.45376 135.90528,33.93536 136.9088,37.33504 C141.1072,35.40992 141.6192,29.67552 142.86848,25.6 C139.96032,25.78432 137.0112,25.96864 134.26688,27.05408 Z M144.97792,27.38176 C146.26816,29.696 149.11488,29.65504 151.28576,30.5152 C156.8768,31.72352 161.15712,35.65568 165.60128,38.95296 C166.27712,36.43392 165.51936,34.46784 163.328,33.09568 C158.208,29.184 151.63392,25.55904 144.97792,27.38176 Z M115.95776,36.37248 C115.95776,38.62528 115.93728,40.87808 115.93728,43.15136 C117.1456,40.2432 118.76352,33.23904 122.94144,37.25312 L123.92448,38.31808 C123.84256,37.45792 123.67872,35.71712 123.5968,34.85696 C126.44352,33.09568 131.82976,33.32096 131.19488,28.73344 C125.97248,30.98624 120.95488,33.66912 115.95776,36.37248 Z M167.91552,36.82304 C170.02496,39.69024 173.73184,37.64224 176.61952,38.0928 C177.9712,45.4656 168.448,43.54048 167.46496,49.11104 C175.37024,51.5072 185.22112,40.98048 178.8928,33.95584 C175.75936,29.55264 169.1648,32.29696 167.91552,36.82304 Z M143.72864,32.84992 C147.23072,35.30752 151.71584,36.27008 154.3168,39.89504 C153.27232,39.75168 151.18336,39.46496 150.13888,39.3216 C150.60992,43.39712 159.29344,44.8512 157.3888,49.95072 C153.53856,50.688 147.74272,53.94432 150.48704,58.59328 C152.71936,63.87712 159.00672,62.19776 163.36896,61.41952 C168.22272,55.88992 167.09632,48.88576 163.55328,43.04896 L158.9248,45.17888 L161.97632,41.45152 C156.65152,37.29408 150.87616,32.78848 143.72864,32.84992 Z M129.04448,34.5088 C126.38208,35.9424 126.40256,37.29408 129.08544,38.54336 C131.80928,37.10976 131.7888,35.75808 129.04448,34.5088 Z M11.07968,37.84704 C8.35584,39.23968 4.3008,41.86112 4.95616,45.30176 C10.32192,46.592 15.70816,47.75936 20.86912,49.72544 C19.74272,51.58912 18.59584,53.47328 17.44896,55.33696 C25.1904,57.09824 32.99328,58.81856 40.96,57.81504 C38.01088,61.27616 34.69312,64.69632 33.9968,69.40672 C46.14144,71.33184 58.08128,67.46112 67.52256,59.82208 C67.584,65.49504 62.09536,66.78528 59.04384,70.12352 C62.89408,70.41024 65.78176,64.2048 69.38624,67.56352 C74.69056,70.92224 85.11488,71.3728 86.44608,63.5904 C84.80768,64.47104 81.53088,66.19136 79.89248,67.05152 L81.22368,62.42304 C75.44832,63.95904 72.66304,57.26208 69.48864,53.78048 C66.39616,56.09472 63.46752,58.61376 60.47744,61.0304 C56.2176,62.3616 51.712,62.48448 47.3088,62.91456 C46.1824,63.44704 43.9296,64.47104 42.8032,64.98304 C43.88864,63.11936 44.9536,61.2352 45.99808,59.33056 C46.14144,55.35744 41.73824,54.21056 38.76864,53.18656 C36.59776,50.62656 34.46784,48.0256 32.29696,45.44512 C31.6416,46.26432 30.37184,47.88224 29.71648,48.70144 C29.67552,47.9232 29.61408,46.36672 29.57312,45.58848 C25.33376,46.91968 22.77376,42.63936 21.17632,39.5264 C24.63744,40.42752 27.93472,41.84064 31.31392,43.02848 C30.18752,39.50592 26.03008,39.91552 23.51104,38.05184 C19.31264,38.72768 15.09376,35.55328 11.07968,37.84704 Z M142.15168,36.70016 C142.848,39.28064 144.4864,39.79264 147.06688,38.23616 C146.57536,35.57376 144.93696,35.06176 142.15168,36.70016 Z M195.4816,45.52704 C198.00064,46.85824 199.33184,48.8448 199.45472,51.48672 C194.02752,50.72896 188.47744,48.82432 183.02976,50.60608 C181.0432,54.59968 185.856,57.93792 186.51136,61.80864 C183.05024,59.92448 179.54816,57.4464 178.01216,53.6576 C177.9712,54.784 177.88928,57.0368 177.84832,58.1632 C176.68096,57.42592 174.36672,55.95136 173.19936,55.1936 C168.98048,62.0544 162.03776,67.21536 153.6,66.21184 C151.3472,64.45056 148.72576,63.2832 145.96096,62.5664 C149.03296,68.11648 156.24192,69.30432 161.9968,69.09952 C166.27712,68.34176 174.40768,68.36224 171.66336,61.5424 C176.51712,65.08544 182.25152,67.23584 188.29312,67.23584 C193.98656,64.26624 191.46752,57.48736 189.93152,52.81792 C195.46112,56.68864 203.73504,57.79456 209.08032,53.02272 C208.71168,49.23392 203.89888,48.20992 202.30144,44.91264 C205.78304,45.11744 208.97792,46.40768 212.02944,47.98464 C211.88608,45.69088 212.82816,43.8272 214.38464,42.25024 C207.83104,40.42752 200.2944,39.66976 195.4816,45.52704 Z M8.58112,51.22048 L8.76544,53.0432 C5.14048,57.67168 4.68992,64.1024 4.28032,69.75488 C4.5056,88.12544 11.03872,105.53344 16.42496,122.85952 C18.41152,128.9216 17.73568,135.51616 19.82464,141.5168 C19.7632,137.56416 20.09088,133.632 21.0944,129.78176 C19.6608,124.0064 19.84512,117.73952 16.73216,112.49664 C16.9984,111.57504 17.55136,109.75232 17.83808,108.8512 L14.92992,108.56448 C15.31904,107.60192 16.09728,105.63584 16.46592,104.6528 C15.52384,104.38656 13.59872,103.85408 12.65664,103.56736 C13.68064,102.74816 15.70816,101.10976 16.73216,100.27008 C11.40736,96.78848 14.848,90.78784 15.50336,85.95456 L14.336,86.69184 C8.72448,86.75328 8.11008,85.25824 12.4928,82.24768 C11.32544,82.432 8.99072,82.78016 7.80288,82.96448 L7.51616,79.89248 C8.74496,79.68768 11.24352,79.2576 12.47232,79.0528 C11.264,78.41792 8.86784,77.14816 7.65952,76.51328 L10.67008,75.3664 L12.43136,76.288 C12.45184,71.92576 10.93632,67.8912 9.05216,64.04096 L12.14464,63.01696 C12.06272,59.0848 12.04224,55.13216 12.1856,51.2 C11.28448,51.2 9.48224,51.22048 8.58112,51.22048 Z M74.40384,52.3264 C74.3424,54.08768 74.97728,55.6032 76.288,56.89344 C78.21312,58.85952 80.05632,59.14624 81.77664,57.77408 C80.65024,55.05024 77.25056,52.49024 74.40384,52.3264 Z M211.968,64.49152 C211.2512,65.18784 209.85856,66.56 209.16224,67.25632 C216.39168,72.51968 208.1792,82.30912 210.49344,89.62048 L209.32608,90.58304 C209.53088,94.0032 208.30208,97.60768 205.43488,99.6352 L206.92992,102.23616 C205.824,102.58432 203.61216,103.26016 202.52672,103.60832 C203.69408,103.95648 206.0288,104.67328 207.19616,105.04192 C206.19264,105.63584 204.16512,106.82368 203.1616,107.4176 L204.98432,109.85472 C204.02176,110.26432 202.1376,111.104 201.17504,111.5136 C204.88192,115.03616 198.7584,120.54528 198.63552,124.70272 C197.57056,123.1872 196.5056,121.6512 195.4816,120.1152 C200.8064,100.352 205.76256,79.72864 202.67008,59.14624 L199.68,58.51136 C199.82336,63.05792 199.86432,67.60448 200.3968,72.11008 C199.43424,72.192 197.50912,72.35584 196.52608,72.43776 C198.81984,72.58112 200.41728,73.60512 201.33888,75.55072 C198.73792,75.5712 197.07904,76.65664 196.4032,78.78656 C201.85088,76.67712 199.41376,82.39104 199.76192,84.7872 C198.77888,85.15584 196.79232,85.9136 195.7888,86.28224 C196.9152,86.69184 199.14752,87.552 200.27392,87.9616 C199.72096,89.41568 198.656,92.34432 198.12352,93.7984 C197.38624,93.96224 195.91168,94.33088 195.1744,94.5152 C196.25984,94.84288 198.41024,95.47776 199.49568,95.80544 C198.41024,99.00032 193.86368,102.1952 196.85376,105.73824 C195.95264,106.20928 194.12992,107.13088 193.20832,107.60192 C193.98656,108.19584 195.50208,109.38368 196.25984,109.9776 C195.33824,110.42816 193.45408,111.34976 192.512,111.80032 L195.31776,113.152 C192.3072,118.45632 192.34816,124.68224 191.97952,130.62144 L194.23232,130.31424 C194.41664,128.55296 194.78528,125.00992 194.99008,123.24864 C196.096,123.78112 198.32832,124.88704 199.45472,125.41952 C195.9936,129.45408 199.0656,135.96672 195.09248,139.264 C194.80576,137.60512 194.21184,134.26688 193.90464,132.608 L191.30368,132.77184 C191.77472,133.77536 192.69632,135.7824 193.16736,136.78592 L192.69632,139.42784 C193.47456,140.43136 195.03104,142.41792 195.82976,143.42144 C196.68992,142.336 197.57056,141.25056 198.4512,140.16512 L200.13056,144.93696 C199.3728,122.92096 212.91008,103.81312 214.15936,82.08384 C214.40512,74.05568 215.06048,65.9456 213.95456,57.93792 C208.896,54.82496 208.7936,62.50496 211.968,64.49152 Z M15.36,71.82336 L16.384,72.35584 C16.65024,88.82176 20.48,104.81664 22.67136,121.05728 C23.3472,124.23168 22.58944,128.38912 26.09152,130.08896 C26.03008,126.62784 27.05408,122.94144 25.35424,119.7056 C25.64096,119.07072 26.19392,117.78048 26.48064,117.12512 L23.61344,116.4288 C26.91072,113.50016 24.3712,110.34624 24.18688,106.86464 L22.44608,106.1888 C24.6784,100.51584 20.41856,94.24896 20.02944,88.35072 C20.64384,87.53152 21.87264,85.89312 22.48704,85.07392 C21.7088,83.968 20.11136,81.75616 19.33312,80.65024 C19.6608,76.82048 20.31616,73.0112 21.72928,69.4272 L21.93408,68.58752 C21.38112,65.31072 21.93408,60.8256 18.2272,59.20768 C12.61568,60.06784 16.42496,67.8912 15.36,71.82336 Z M27.56608,62.21824 C22.528,75.63264 26.0096,90.29632 27.25888,104.09984 C27.07456,104.71424 26.68544,105.94304 26.50112,106.55744 L27.83232,105.43104 C29.30688,119.82848 31.72352,135.55712 24.12544,148.76672 L21.42208,148.70528 C21.95456,147.18976 22.99904,144.13824 23.53152,142.62272 L21.31968,144.22016 C20.48,144.26112 18.78016,144.36352 17.92,144.40448 C16.40448,144.34304 15.23712,145.28512 14.39744,147.23072 C15.40096,148.45952 17.42848,150.95808 18.432,152.20736 C15.40096,153.94816 11.93984,153.86624 8.58112,153.74336 C8.21248,152.90368 7.51616,151.2448 7.168,150.4256 C8.54016,149.8112 11.28448,148.62336 12.63616,148.02944 C10.32192,142.72512 4.1984,144.4864 2.78528,149.15584 C2.84672,154.15296 8.25344,156.63104 12.43136,157.696 C19.6608,156.59008 24.28928,150.77376 29.20448,146.00192 C30.57664,142.86848 31.62112,139.59168 31.92832,136.15104 C32.0512,134.51264 32.29696,131.23584 32.41984,129.59744 C33.34144,129.59744 35.20512,129.59744 36.1472,129.59744 C33.34144,128.6144 32.03072,126.32064 34.65216,123.82208 C34.2016,123.06432 33.30048,121.50784 32.8704,120.7296 C30.49472,118.14912 38.0928,114.52416 32.33792,114.23744 C32.03072,111.69792 31.68256,109.1584 31.29344,106.63936 C35.7376,103.95648 29.2864,98.63168 30.96576,94.63808 C32.48128,89.35424 29.55264,83.29216 31.98976,78.5408 C31.21152,78.37696 29.65504,78.0288 28.8768,77.84448 C28.99968,76.45184 29.24544,73.6256 29.34784,72.21248 C30.02368,71.94624 31.3344,71.41376 32.01024,71.12704 C31.15008,70.7584 29.45024,70.02112 28.59008,69.65248 C29.7984,66.92864 30.26944,64 30.6176,61.07136 C29.83936,61.35808 28.32384,61.93152 27.56608,62.21824 Z M184.89344,71.59808 C185.63072,73.48224 186.40896,75.38688 187.16672,77.27104 C183.07072,79.2576 185.91744,81.85856 187.78112,84.21376 C186.69568,84.97152 184.5248,86.48704 183.41888,87.2448 C183.97184,94.37184 183.35744,101.4784 182.76352,108.56448 C182.53824,111.0016 183.64416,112.55808 186.0608,113.21344 C186.18368,114.7904 186.44992,117.94432 186.59328,119.52128 C185.77408,119.48032 184.15616,119.43936 183.35744,119.41888 C183.1936,120.75008 182.8864,123.43296 182.72256,124.76416 L186.20416,125.99296 C184.87296,126.68928 182.21056,128.12288 180.87936,128.83968 C181.69856,128.98304 183.31648,129.26976 184.13568,129.41312 C183.97184,131.93216 183.808,134.4512 183.6032,136.97024 L186.14272,137.27744 C188.57984,149.1968 200.8064,157.47072 212.76672,155.60704 C209.14176,151.92064 203.18208,154.58304 199.53664,150.99904 C192.75776,146.06336 186.73664,138.0352 188.1088,129.2288 C189.44,110.12096 192.67584,91.05408 192.16384,71.86432 C191.09888,72.04864 189.00992,72.37632 187.94496,72.54016 C187.1872,72.31488 185.6512,71.84384 184.89344,71.59808 Z M93.65504,110.4896 C91.83232,110.16192 88.22784,109.52704 86.4256,109.19936 C85.68832,111.04256 84.95104,112.88576 84.23424,114.70848 C87.06048,113.27488 89.9072,111.86176 92.89728,110.75584 C96.13312,116.55168 103.60832,111.04256 104.50944,106.12736 C101.66272,107.13088 99.10272,108.6464 96.80896,110.67392 C96.19456,109.79328 94.96576,108.07296 94.33088,107.2128 C94.16704,108.032 93.81888,109.6704 93.65504,110.4896 Z M106.10688,108.40064 C106.04544,113.31584 110.85824,114.95424 114.62656,116.44928 C113.82784,115.38432 112.25088,113.2544 111.45216,112.20992 C114.60608,112.78336 117.73952,112.86528 119.02976,109.4656 C115.67104,109.01504 112.2304,108.76928 110.65344,112.41472 C109.50656,111.4112 107.23328,109.40416 106.10688,108.40064 Z M123.57632,112.39424 C125.952,114.19648 130.10944,112.86528 131.72736,110.61248 C130.31424,107.4176 121.77408,107.7248 123.57632,112.39424 Z M133.57056,110.77632 C134.47168,114.74944 135.7824,118.64064 137.58464,122.28608 C141.35296,126.3616 141.9264,131.64544 140.5952,136.9088 C142.76608,136.84736 144.91648,136.78592 147.06688,136.704 C147.02592,139.776 148.48,141.47584 151.40864,141.824 C151.51104,140.26752 151.7568,137.15456 151.87968,135.59808 C154.78784,136.43776 156.54912,138.11712 157.20448,140.65664 C150.99904,141.37344 149.48352,151.87968 142.09024,149.38112 C143.872,147.37408 145.98144,145.73568 148.3776,144.50688 C147.64032,139.69408 138.17856,137.1136 143.72864,145.44896 C141.27104,138.83392 130.62144,142.31552 129.45408,135.51616 C132.01408,134.67648 138.83392,133.40672 135.80288,138.83392 L141.6192,140.04224 C139.34592,136.72448 138.21952,133.07904 138.21952,129.1264 C134.88128,130.88768 131.44064,133.12 127.46752,132.4032 C127.50848,134.94272 127.56992,137.48224 127.71328,140.00128 C130.53952,140.4928 133.16096,141.55776 135.55712,143.19616 C132.8128,145.12128 129.82272,146.41152 126.5664,147.0464 C128.08192,147.94752 129.57696,148.86912 131.09248,149.79072 C130.56,150.7328 129.49504,152.61696 128.96256,153.55904 C130.10944,153.57952 132.42368,153.62048 133.57056,153.62048 C132.97664,154.33728 131.7888,155.7504 131.19488,156.4672 C131.95264,157.22496 133.44768,158.74048 134.20544,159.51872 C133.07904,159.78496 130.82624,160.3584 129.69984,160.64512 C129.6384,161.8944 129.51552,164.37248 129.45408,165.60128 L128.43008,165.0688 C127.75424,164.92544 126.40256,164.63872 125.72672,164.49536 C125.60384,165.39648 125.3376,167.19872 125.19424,168.09984 C124.17024,169.43104 122.88,170.51648 121.344,171.3152 C122.49088,170.88512 124.78464,170.00448 125.93152,169.5744 L126.42304,176.27136 C124.90752,175.77984 121.87648,174.77632 120.36096,174.2848 C121.4464,176.16896 122.5728,178.03264 123.74016,179.87584 C120.54528,180.5312 119.15264,184.19712 119.17312,186.9824 C122.22464,188.64128 124.06784,191.24224 124.66176,194.82624 C121.99936,194.49856 117.94432,188.66176 116.736,193.65888 C117.76,193.7408 119.82848,193.92512 120.87296,194.00704 L120.832,196.75136 C122.24512,196.68992 125.07136,196.58752 126.50496,196.52608 C126.2592,195.62496 125.80864,193.78176 125.58336,192.88064 C126.95552,192.55296 129.69984,191.91808 131.05152,191.5904 C128.38912,190.99648 126.93504,189.39904 126.68928,186.81856 C125.44,186.20416 122.96192,184.9344 121.73312,184.32 C125.09184,183.296 128.49152,182.3744 131.9936,181.82144 L130.82624,183.82848 L127.488,184.77056 C127.44704,190.40256 133.9392,185.56928 136.82688,185.36448 C138.05568,183.0912 138.99776,180.69504 139.6736,178.176 L135.45472,178.15552 C135.72096,179.2 136.25344,181.248 136.51968,182.272 L132.77184,182.23104 C133.30432,181.0432 134.41024,178.66752 134.9632,177.47968 C133.7344,176.4352 131.2768,174.32576 130.048,173.2608 C136.33536,171.25376 138.6496,176.70144 143.4624,178.25792 C141.7216,174.73536 139.40736,171.4176 138.69056,167.46496 C140.67712,169.84064 142.56128,172.27776 144.60928,174.592 C150.20032,167.6288 139.55072,167.85408 137.728,163.98336 C141.43488,162.97984 145.2032,165.02784 148.95104,163.55328 C145.67424,161.77152 142.00832,161.01376 138.69056,159.3344 L143.50336,157.73696 C140.36992,155.27936 136.0896,154.19392 133.79584,150.79424 C135.168,151.22432 137.89184,152.064 139.264,152.4736 L139.264,149.46304 L136.192,149.99552 C136.04864,147.53792 135.86432,145.08032 135.65952,142.62272 C136.37632,142.68416 137.8304,142.78656 138.5472,142.848 C139.18208,149.31968 143.83104,154.15296 146.00192,160.09216 C147.00544,159.96928 149.01248,159.72352 150.03648,159.60064 C148.5824,156.672 146.86208,153.9072 145.08032,151.18336 C146.69824,151.3472 149.9136,151.63392 151.51104,151.79776 C150.71232,155.136 152.55552,157.81888 154.58304,160.27648 C159.232,157.96224 151.8592,155.36128 154.95168,152.51456 C156.0576,150.03648 150.91712,149.66784 149.68832,148.11136 C153.33376,147.78368 155.46368,145.89952 156.13952,142.47936 L158.08512,143.11424 C157.184,145.08032 156.28288,147.02592 155.40224,148.992 C157.20448,149.64736 158.98624,150.30272 160.78848,150.97856 C160.31744,150.07744 159.35488,148.29568 158.86336,147.39456 C159.72352,145.5104 160.58368,143.62624 161.46432,141.74208 L158.3104,140.53376 C159.55968,139.69408 162.07872,138.0352 163.34848,137.19552 C161.64864,133.71392 157.40928,135.4752 154.64448,133.77536 C155.8528,132.15744 158.28992,128.90112 159.49824,127.2832 C160.93184,129.18784 161.9968,131.31776 163.08224,133.4272 C164.29056,134.20544 166.66624,135.72096 167.87456,136.47872 C166.48192,134.69696 164.84352,133.05856 163.10272,131.64544 C163.61472,130.8672 164.61824,129.3312 165.13024,128.55296 C161.77152,127.01696 162.46784,123.96544 164.10624,121.30304 C160.8704,122.96192 158.6176,125.76768 156.73344,128.8192 C152.22784,127.30368 147.68128,129.80224 143.17568,128.73728 C145.32608,127.26272 147.61984,125.97248 149.9136,124.7232 C149.66784,123.92448 149.1968,122.32704 148.97152,121.52832 C148.02944,122.368 146.16576,124.06784 145.22368,124.90752 C145.28512,123.37152 145.38752,120.32 145.44896,118.784 L142.37696,118.76352 C142.56128,117.69856 142.90944,115.52768 143.09376,114.44224 C142.1312,115.11808 140.20608,116.46976 139.24352,117.1456 C139.8784,113.21344 136.54016,111.9232 133.57056,110.77632 Z M74.6496,113.00864 C73.50272,115.73248 74.38336,116.6336 77.29152,115.75296 C78.60224,112.8448 77.7216,111.94368 74.6496,113.00864 Z M59.43296,126.70976 C61.50144,128.04096 63.54944,129.39264 65.59744,130.78528 C69.26336,129.69984 72.99072,128.26624 72.82688,123.71968 C80.71168,123.31008 89.14944,120.7296 96.62464,124.39552 C99.10272,125.7472 103.8336,126.38208 102.23616,130.2528 C100.37248,129.536 98.52928,128.8192 96.6656,128.08192 C93.98272,135.65952 90.68544,143.01184 86.38464,149.83168 C85.03296,152.51456 82.20672,156.16 84.80768,159.00672 C91.36128,166.44096 100.16768,171.35616 108.62592,176.29184 C107.86816,180.69504 107.35616,185.1392 106.78272,189.58336 C107.84768,189.66528 109.95712,189.78816 111.02208,189.8496 C109.48608,193.8432 108.62592,198.0416 107.97056,202.26048 C112.25088,202.9568 116.49024,203.81696 120.79104,204.45184 C118.70208,201.97376 115.89632,200.37632 113.13152,198.79936 C114.42176,191.87712 115.44576,184.91392 116.67456,177.9712 C115.32288,178.91328 112.59904,180.79744 111.22688,181.73952 C111.04256,181.08416 110.65344,179.77344 110.46912,179.11808 C112.29184,177.41824 114.97472,176.39424 116.03968,173.99808 C118.19008,167.77216 124.94848,164.51584 126.60736,158.02368 C125.66528,151.08096 124.416,144.13824 122.75712,137.3184 C121.87648,135.168 115.05664,133.65248 118.5792,131.33824 C122.85952,130.72384 134.28736,131.66592 128.96256,123.71968 C130.53952,124.6208 133.7344,126.42304 135.31136,127.32416 C134.08256,122.75712 132.07552,118.29248 127.81568,115.8144 C127.6928,117.73952 127.44704,121.5488 127.34464,123.47392 C125.93152,123.67872 123.14624,124.06784 121.7536,124.27264 C121.91744,122.75712 122.28608,119.74656 122.4704,118.25152 C119.9104,121.20064 117.61664,124.45696 114.3808,126.73024 C114.15552,123.94496 112.7424,121.9584 110.1824,120.81152 C94.33088,115.38432 77.63968,118.33344 61.56288,120.75008 L61.48096,119.05024 C64.9216,119.17312 69.61152,121.01632 71.82336,117.1456 C65.55648,110.20288 54.00576,119.00928 59.43296,126.70976 Z M146.0224,115.22048 C145.2032,118.00576 146.26816,119.0912 149.17632,118.45632 C149.97504,115.63008 148.91008,114.56512 146.0224,115.22048 Z M154.48064,123.31008 C155.70944,124.57984 155.70944,124.57984 154.48064,123.31008 Z M166.2976,122.96192 C165.43744,125.8496 166.42048,126.89408 169.24672,126.09536 C170.04544,123.22816 169.0624,122.18368 166.2976,122.96192 Z M80.56832,127.95904 C77.59872,130.72384 74.62912,133.48864 71.82336,136.37632 C73.5232,136.27392 76.96384,136.04864 78.68416,135.94624 C78.5408,134.98368 78.25408,133.07904 78.11072,132.11648 C81.408,130.6624 84.84864,129.78176 88.4736,130.49856 C86.69184,127.75424 83.3536,128.32768 80.56832,127.95904 Z M24.71936,131.03104 C26.05056,132.32128 26.05056,132.32128 24.71936,131.03104 Z M23.53152,142.62272 L24.12544,142.58176 C24.53504,139.91936 26.624,137.40032 26.0096,134.63552 C21.97504,133.03808 21.25824,140.4928 23.53152,142.62272 Z M36.7616,135.5776 C37.86752,138.6496 44.07296,141.04576 40.07936,144.2816 C40.71424,144.54784 41.96352,145.1008 42.5984,145.36704 C42.3936,142.4384 42.20928,139.48928 43.1104,136.64256 L40.09984,139.1616 C39.26016,138.26048 37.60128,136.47872 36.7616,135.5776 Z M206.72512,145.26464 C206.09024,148.76672 208.87552,148.76672 211.33312,148.62336 C212.56192,150.20032 213.8112,151.77728 215.04,153.37472 C219.40224,147.12832 211.92704,140.45184 206.72512,145.26464 Z M40.46848,147.92704 C39.15776,152.49408 34.89792,154.35776 31.10912,156.4672 C34.7136,159.86688 36.63872,164.47488 38.44096,169.00096 C42.86464,167.95648 47.24736,166.74816 51.56864,165.33504 C50.36032,161.97632 48.4352,155.46368 43.74528,158.57664 C44.9536,160.29696 46.1824,162.01728 47.4112,163.7376 C44.83072,164.1472 39.64928,164.9664 37.04832,165.35552 C38.11328,163.7376 39.17824,162.11968 40.20224,160.48128 C38.31808,159.72352 36.43392,158.94528 34.57024,158.14656 C38.11328,156.4672 41.69728,154.86976 45.056,152.84224 C45.75232,149.99552 42.12736,149.31968 40.46848,147.92704 Z M177.80736,147.98848 C178.29888,152.61696 171.68384,152.12544 169.7792,155.70944 C171.74528,155.19744 173.73184,154.7264 175.69792,154.25536 C178.8928,156.24192 182.35392,157.77792 186.01984,158.69952 C184.40192,156.54912 182.43584,154.74688 180.51072,152.90368 C190.01344,147.7632 180.69504,149.05344 177.80736,147.98848 Z M31.39584,150.20032 C32.64512,151.30624 32.64512,151.30624 31.39584,150.20032 Z M58.01984,150.016 C59.12576,151.18336 59.12576,151.18336 58.01984,150.016 Z M47.90272,154.09152 C48.98816,155.19744 48.98816,155.19744 47.90272,154.09152 Z M166.64576,169.18528 C171.2128,170.35264 168.01792,164.18816 168.89856,161.9968 C174.91968,161.77152 170.96704,171.60192 176.18944,172.17536 C179.36384,169.73824 182.72256,165.4784 182.5792,161.28 C179.07712,158.63808 178.70848,164.12672 176.98816,165.82656 C175.45216,163.49184 174.8992,159.68256 171.88864,158.74048 C166.48192,156.54912 162.07872,165.92896 166.64576,169.18528 Z M65.96608,160.17408 C64.08192,164.43392 67.97312,164.352 71.20896,164.57728 C71.12704,165.62176 70.9632,167.69024 70.90176,168.73472 L74.42432,169.10336 C73.23648,170.20928 70.8608,172.40064 69.67296,173.48608 C71.0656,173.32224 73.80992,172.97408 75.18208,172.78976 C77.9264,175.24736 80.896,179.15904 85.21728,177.37728 C84.41856,179.17952 82.80064,182.784 81.98144,184.58624 C80.83456,183.00928 78.5408,179.83488 77.37344,178.23744 C77.1072,179.38432 76.55424,181.63712 76.288,182.784 C81.12128,183.54176 86.17984,190.2592 90.624,186.4704 C89.64096,185.36448 85.93408,180.96128 89.43616,180.9408 C90.50112,181.28896 92.63104,182.00576 93.696,182.35392 L91.50464,181.10464 C92.24192,179.48672 92.9792,177.8688 93.73696,176.25088 C95.29344,177.29536 98.4064,179.38432 99.96288,180.4288 C97.13664,177.50016 94.12608,174.73536 91.15648,171.95008 C89.57952,175.65696 85.7088,176.80384 82.06336,175.69792 C83.16928,174.63296 85.38112,172.544 86.46656,171.47904 C85.38112,171.6224 83.21024,171.88864 82.10432,172.032 C82.5344,169.8816 83.3536,165.56032 83.78368,163.40992 C80.54784,165.15072 79.07328,169.41056 80.896,172.81024 C79.01184,172.01152 76.10368,172.17536 75.4688,169.75872 C76.26752,168.71424 77.86496,166.62528 78.66368,165.5808 C77.57824,166.1952 75.38688,167.424 74.30144,168.05888 C73.4208,163.84 69.632,161.64864 65.96608,160.17408 Z M54.25152,164.864 C52.30592,166.1952 51.28192,167.95648 51.17952,170.20928 C54.35392,172.25728 57.89696,165.74464 54.25152,164.864 Z M148.21376,166.64576 C148.7872,167.2192 148.7872,167.2192 148.21376,166.64576 Z M51.17952,170.20928 L49.43872,169.53344 C43.80672,170.45504 51.42528,175.06304 51.17952,170.20928 Z M39.75168,172.27776 C38.2976,175.16544 39.07584,176.06656 42.04544,174.96064 C43.58144,172.032 42.8032,171.13088 39.75168,172.27776 Z M157.98272,184.25856 C160.93184,187.12576 164.57728,184.56576 167.05536,182.45632 C167.03488,183.97184 167.03488,186.9824 167.0144,188.49792 C173.89568,185.7536 170.00448,175.3088 164.16768,173.91616 C158.45376,171.58144 151.83872,180.65408 157.98272,184.25856 Z M86.7328,193.10592 C88.63744,196.38272 89.72288,200.23296 92.3648,203.0592 C91.648,195.56352 97.46432,189.89056 104.38656,188.49792 C105.2672,185.32352 106.22976,182.14912 107.25376,179.01568 C99.26656,181.88288 94.49472,189.66528 86.7328,193.10592 Z M63.26272,191.03744 C65.45408,192.08192 67.62496,193.16736 69.77536,194.27328 C65.78176,196.01408 60.08832,195.50208 57.32352,199.45472 C59.74016,200.84736 64.94208,200.51968 64.7168,204.4928 C64.86016,206.41792 65.31072,208.2816 66.06848,210.06336 C70.3488,207.29856 71.53664,201.80992 74.40384,197.85728 C72.0896,194.99008 69.75488,192.1024 68.11648,188.80512 C66.90816,189.35808 64.49152,190.48448 63.26272,191.03744 Z M80.77312,188.53888 C81.36704,195.21536 86.89664,185.28256 80.77312,188.53888 Z M149.38112,188.45696 C146.82112,189.78816 145.5104,192.55296 143.89248,194.80576 C147.49696,198.32832 151.53152,201.35936 155.87328,203.89888 C158.14656,201.37984 163.26656,199.04512 161.3824,194.88768 C159.27296,190.32064 153.45664,190.30016 149.38112,188.45696 Z M98.59072,199.02464 C96.6656,202.09664 102.13376,204.4928 104.20224,202.3424 C106.72128,199.04512 100.67968,196.608 98.59072,199.02464 Z M74.30144,204.8 C77.2096,205.39392 78.37696,204.24704 77.824,201.35936 C75.0592,200.88832 73.89184,202.0352 74.30144,204.8 Z M137.35936,203.50976 C136.43776,205.824 135.72096,208.22016 135.10656,210.6368 C136.4992,210.59584 139.264,210.5344 140.65664,210.51392 C143.13472,212.43904 145.3056,217.12896 148.93056,214.3232 C147.68128,208.81408 141.33248,206.80704 137.35936,203.50976 Z M71.08608,215.94112 C75.65312,214.67136 79.21664,211.29216 82.92352,208.4864 C82.45248,207.81056 81.48992,206.47936 81.01888,205.80352 C77.74208,208.67072 68.01408,210.47296 71.08608,215.94112 Z" id="Shape"></path>
                <path d="M154.3168,39.89504 L155.11552,40.36608 L155.72992,41.08288 C155.38176,40.77568 154.66496,40.20224 154.3168,39.89504 Z" id="Shape"></path>
                <path d="" id="Shape"></path>
                <path d="M98.34496,135.18848 C101.13024,135.41376 102.37952,137.13408 102.11328,140.36992 C103.23968,140.00128 105.51296,139.30496 106.65984,138.93632 C106.61888,144.62976 112.51712,146.55488 117.248,146.69824 C117.78048,150.03648 119.43936,152.96512 121.42592,155.62752 C117.12512,161.81248 116.03968,170.41408 109.30176,174.63296 C114.66752,165.82656 103.46496,159.0272 97.54624,154.2144 C98.11968,153.35424 99.24608,151.6544 99.81952,150.79424 C100.29056,150.65088 101.19168,150.38464 101.66272,150.24128 C102.33856,151.18336 103.71072,153.02656 104.38656,153.96864 C105.45152,152.65792 106.496,151.36768 107.54048,150.05696 L108.66688,148.62336 C108.1344,147.12832 107.04896,144.09728 106.51648,142.60224 C101.39648,145.08032 99.98336,138.62912 98.34496,135.18848 Z M113.74592,152.04352 C113.82784,153.14944 113.9712,155.3408 114.05312,156.44672 C113.23392,157.20448 111.59552,158.72 110.77632,159.47776 C114.03264,157.96224 119.7056,154.46016 113.74592,152.04352 Z" id="Shape"></path>
                <path d="M60.416,140.02176 C57.71264,136.35584 65.29024,136.88832 67.09248,138.15808 C68.15744,141.312 62.21824,141.14816 60.416,140.02176 Z" id="Shape"></path>
                <path d="M130.92864,168.73472 C132.87424,167.424 137.25696,169.12384 136.82688,171.66336 C134.88128,172.81024 129.82272,171.64288 130.92864,168.73472 Z" id="Shape"></path>
            </g>
            <g id="#ffffffff" transform="translate(2.048000, 4.096000)" fill="#FFFFFF">
                <path d="M117.51424,3.3792 C124.39552,1.2288 133.16096,-2.17088 139.10016,3.82976 C139.5712,8.31488 140.14464,12.77952 140.65664,17.26464 C129.41312,17.79712 116.51072,20.91008 110.30528,31.232 C109.28128,30.45376 108.27776,29.65504 107.25376,28.8768 C115.58912,20.8896 126.0544,15.31904 137.54368,13.68064 C137.03168,8.72448 136.54016,2.17088 130.53952,0.9216 C131.52256,3.56352 132.52608,6.20544 133.5296,8.84736 C132.23936,7.59808 129.6384,5.09952 128.34816,3.85024 C126.976,6.06208 127.11936,9.60512 124.39552,10.79296 C116.92032,14.92992 110.73536,20.91008 104.89856,27.05408 C102.78912,29.32736 102.4,32.52224 102.05184,35.45088 L104.52992,31.78496 C105.34912,32.70656 106.1888,33.62816 107.02848,34.57024 C103.91552,38.66624 103.17824,44.78976 106.78272,48.82432 C112.51712,54.6816 120.89344,57.38496 128.98304,56.03328 C130.43712,50.36032 130.9696,41.94304 136.58112,39.17824 C138.42432,42.5984 138.9568,46.46912 139.75552,50.21696 C137.66656,50.40128 133.48864,50.76992 131.39968,50.95424 C133.89824,53.57568 137.35936,53.98528 140.8,53.94432 C141.90592,57.26208 140.06272,60.25216 138.89536,63.22176 C133.57056,64.26624 128.1024,65.04448 122.6752,64.2048 C116.57216,63.7952 110.7968,60.1088 104.6528,62.17728 C97.8944,64.45056 89.088,63.05792 87.04,55.17312 C84.95104,55.21408 80.73216,55.31648 78.62272,55.35744 C80.2816,53.98528 81.94048,52.65408 83.59936,51.3024 C81.6128,50.62656 79.60576,49.95072 77.6192,49.2544 C78.21312,47.94368 79.40096,45.32224 79.99488,43.99104 C82.92352,46.01856 85.9136,50.29888 89.86624,47.7184 C97.11616,44.52352 96.6656,35.79904 98.59072,29.34784 C103.44448,24.51456 110.7968,19.92704 109.07648,11.91936 C104.30464,15.11424 103.07584,21.17632 98.38592,24.43264 C99.45088,22.46656 100.74112,20.64384 102.07232,18.86208 C95.45728,19.53792 94.94528,12.53376 92.52864,8.17152 C91.42272,12.1856 90.4192,16.26112 88.39168,19.90656 L86.13888,15.36 C86.2208,24.18688 84.5824,33.05472 86.3232,41.82016 C93.5936,38.1952 89.37472,28.32384 89.55904,22.05696 C90.25536,22.24128 91.62752,22.60992 92.32384,22.79424 C93.9008,30.57664 95.72352,39.81312 88.2688,45.30176 C83.74272,42.8032 80.11776,39.1168 77.4144,34.7136 C72.3968,41.41056 66.17088,48.55808 57.36448,49.70496 C50.8928,50.7904 42.96704,48.3328 40.01792,42.04544 C37.72416,37.64224 40.16128,31.47776 45.1584,30.43328 C48.70144,29.57312 51.0976,32.82944 53.61664,34.6112 C52.08064,39.07584 48.86528,41.22624 44.21632,40.36608 C46.10048,44.6464 50.56512,47.98464 55.41888,46.94016 C66.62144,45.48608 71.90528,33.8944 76.20608,24.84224 C82.2272,15.50336 87.9616,2.9696 100.39296,1.4336 C106.25024,1.67936 109.79328,6.5536 109.32224,12.24704 C111.34976,9.87136 113.39776,7.53664 115.48672,5.2224 C115.87584,4.8128 116.67456,3.9936 117.06368,3.584 L117.51424,3.3792 Z M93.63456,6.26688 C96.70656,8.8064 98.54976,11.9808 97.40288,16.19968 C101.56032,15.93344 105.2672,14.2336 107.99104,11.10016 C106.96704,8.56064 105.59488,6.22592 103.936,4.07552 C100.33152,2.39616 96.91136,5.34528 93.63456,6.26688 Z M111.04256,13.43488 C116.38784,9.89184 123.392,8.56064 127.83616,3.93216 C121.30304,3.584 113.21344,6.8608 111.04256,13.43488 Z M105.61536,54.784 C112.96768,59.6992 122.10176,61.952 130.90816,61.93152 C134.3488,62.27968 137.4208,60.06784 138.28096,56.70912 C127.8976,58.28608 116.224,59.392 107.13088,52.98176 C102.42048,49.82784 100.88448,44.42112 100.47488,39.05536 C98.05824,44.72832 100.41344,51.54816 105.61536,54.784 Z M91.48416,54.02624 C91.0336,62.38208 104.71424,62.32064 107.33568,56.27904 C104.20224,56.19712 101.0688,56.15616 97.93536,56.09472 C96.31744,55.58272 93.0816,54.55872 91.48416,54.02624 Z" id="Shape"></path>
                <path d="M100.72064,7.43424 C103.50592,6.49216 104.5504,7.45472 103.87456,10.28096 C100.98688,11.28448 99.9424,10.3424 100.72064,7.43424 Z" id="Shape"></path>
                <path d="M132.21888,22.95808 C134.9632,21.87264 137.91232,21.68832 140.82048,21.504 C139.5712,25.57952 139.0592,31.31392 134.8608,33.23904 C133.85728,29.83936 133.14048,26.35776 132.21888,22.95808 Z" id="Shape"></path>
                <path d="M142.92992,23.28576 C149.58592,21.46304 156.16,25.088 161.28,28.99968 C163.47136,30.37184 164.22912,32.33792 163.55328,34.85696 C159.10912,31.55968 154.8288,27.62752 149.23776,26.4192 C147.06688,25.55904 144.22016,25.6 142.92992,23.28576 Z" id="Shape"></path>
                <path d="M113.90976,32.27648 C118.90688,29.57312 123.92448,26.89024 129.14688,24.63744 C129.78176,29.22496 124.39552,28.99968 121.5488,30.76096 C121.63072,31.62112 121.79456,33.36192 121.87648,34.22208 L120.89344,33.15712 C116.71552,29.14304 115.0976,36.1472 113.88928,39.05536 C113.88928,36.78208 113.90976,34.52928 113.90976,32.27648 Z" id="Shape"></path>
                <path d="M165.86752,32.72704 C167.1168,28.20096 173.71136,25.45664 176.8448,29.85984 C183.17312,36.88448 173.32224,47.4112 165.41696,45.01504 C166.4,39.44448 175.9232,41.3696 174.57152,33.9968 C171.68384,33.54624 167.97696,35.59424 165.86752,32.72704 Z" id="Shape"></path>
                <path d="M141.68064,28.75392 C148.82816,28.69248 154.60352,33.19808 159.92832,37.35552 L156.8768,41.08288 L161.50528,38.95296 C165.04832,44.78976 166.17472,51.79392 161.32096,57.32352 C156.95872,58.10176 150.67136,59.78112 148.43904,54.49728 C145.69472,49.84832 151.49056,46.592 155.3408,45.85472 C157.24544,40.7552 148.56192,39.30112 148.09088,35.2256 C149.13536,35.36896 151.22432,35.65568 152.2688,35.79904 C152.61696,36.10624 153.33376,36.67968 153.68192,36.98688 C153.9072,37.21216 154.37824,37.64224 154.60352,37.86752 C154.37824,37.64224 153.9072,37.21216 153.68192,36.98688 L153.06752,36.27008 L152.2688,35.79904 C149.66784,32.17408 145.18272,31.21152 141.68064,28.75392 Z M159.39584,48.80384 C157.32736,50.85184 155.21792,52.87936 153.21088,55.00928 C161.05472,57.52832 164.29056,47.39072 161.77152,41.53344 C160.07168,43.56096 159.29344,46.14144 159.39584,48.80384 Z" id="Shape"></path>
                <path d="M9.03168,33.75104 C13.04576,31.45728 17.26464,34.63168 21.46304,33.95584 C23.98208,35.81952 28.13952,35.40992 29.26592,38.93248 C25.88672,37.74464 22.58944,36.33152 19.12832,35.4304 C20.72576,38.54336 23.28576,42.82368 27.52512,41.49248 C27.56608,42.27072 27.62752,43.8272 27.66848,44.60544 C28.32384,43.78624 29.5936,42.16832 30.24896,41.34912 C32.41984,43.9296 34.54976,46.53056 36.72064,49.09056 C39.69024,50.11456 44.09344,51.26144 43.95008,55.23456 C42.9056,57.1392 41.84064,59.02336 40.7552,60.88704 C41.8816,60.37504 44.1344,59.35104 45.2608,58.81856 C49.664,58.38848 54.1696,58.2656 58.42944,56.9344 C61.41952,54.51776 64.34816,51.99872 67.44064,49.68448 C70.61504,53.16608 73.40032,59.86304 79.17568,58.32704 L77.84448,62.95552 C79.48288,62.09536 82.75968,60.37504 84.39808,59.4944 C83.06688,67.2768 72.64256,66.82624 67.33824,63.46752 C63.73376,60.1088 60.84608,66.31424 56.99584,66.02752 C60.04736,62.68928 65.536,61.39904 65.47456,55.72608 C56.03328,63.36512 44.09344,67.23584 31.9488,65.31072 C32.64512,60.60032 35.96288,57.18016 38.912,53.71904 C30.94528,54.72256 23.1424,53.00224 15.40096,51.24096 C16.54784,49.37728 17.69472,47.49312 18.82112,45.62944 C13.66016,43.66336 8.27392,42.496 2.90816,41.20576 C2.2528,37.76512 6.30784,35.14368 9.03168,33.75104 Z" id="Shape"></path>
                <path d="M193.4336,41.43104 C198.2464,35.57376 205.78304,36.33152 212.33664,38.15424 C210.78016,39.7312 209.83808,41.59488 209.98144,43.88864 C206.92992,42.31168 203.73504,41.02144 200.25344,40.81664 C201.85088,44.11392 206.66368,45.13792 207.03232,48.92672 C201.68704,53.69856 193.41312,52.59264 187.88352,48.72192 C189.41952,53.39136 191.93856,60.17024 186.24512,63.13984 C180.20352,63.13984 174.46912,60.98944 169.61536,57.4464 C172.35968,64.26624 164.22912,64.24576 159.9488,65.00352 C154.19392,65.20832 146.98496,64.02048 143.91296,58.4704 C146.67776,59.1872 149.2992,60.35456 151.552,62.11584 C159.98976,63.11936 166.93248,57.9584 171.15136,51.0976 C172.31872,51.85536 174.63296,53.32992 175.80032,54.0672 C175.84128,52.9408 175.9232,50.688 175.96416,49.5616 C177.50016,53.3504 181.00224,55.82848 184.46336,57.71264 C183.808,53.84192 178.9952,50.50368 180.98176,46.51008 C186.42944,44.72832 191.97952,46.63296 197.40672,47.39072 C197.28384,44.7488 195.95264,42.76224 193.4336,41.43104 Z" id="Shape"></path>
                <path d="M72.35584,48.2304 C75.20256,48.39424 78.60224,50.95424 79.72864,53.67808 C78.00832,55.05024 76.16512,54.76352 74.24,52.79744 C72.92928,51.5072 72.2944,49.99168 72.35584,48.2304 Z" id="Shape"></path>
                <path d="M2.23232,65.65888 C2.64192,60.0064 3.09248,53.57568 6.71744,48.9472 L9.05216,47.49312 C7.49568,54.76352 5.79584,62.0544 5.30432,69.48864 C6.144,69.9392 7.7824,70.81984 8.62208,71.2704 L5.61152,72.41728 C6.81984,73.05216 9.216,74.32192 10.42432,74.9568 C9.19552,75.1616 6.69696,75.59168 5.46816,75.79648 L5.75488,78.86848 C6.94272,78.68416 9.27744,78.336 10.4448,78.15168 C6.06208,81.16224 6.67648,82.65728 12.288,82.59584 C11.3664,83.21024 9.5232,84.39808 8.6016,84.992 C9.19552,88.73984 10.1376,92.40576 11.03872,96.07168 C11.96032,96.09216 13.76256,96.1536 14.68416,96.17408 C13.66016,97.01376 11.63264,98.65216 10.60864,99.47136 C11.55072,99.75808 13.47584,100.29056 14.41792,100.5568 C14.04928,101.53984 13.27104,103.50592 12.88192,104.46848 L15.79008,104.7552 C15.50336,105.65632 14.9504,107.47904 14.68416,108.40064 C17.79712,113.64352 17.6128,119.9104 19.0464,125.68576 C18.04288,129.536 17.7152,133.46816 17.77664,137.4208 C15.68768,131.42016 16.36352,124.8256 14.37696,118.76352 C8.99072,101.43744 2.4576,84.02944 2.23232,65.65888 Z" id="Shape"></path>
                <path d="M209.92,60.39552 C206.7456,58.40896 206.848,50.72896 211.90656,53.84192 C213.01248,61.8496 212.35712,69.95968 212.11136,77.98784 C210.86208,99.71712 197.3248,118.82496 198.08256,140.84096 L196.4032,136.06912 C195.52256,137.15456 194.64192,138.24 193.78176,139.32544 C192.98304,138.32192 191.42656,136.33536 190.64832,135.33184 L191.11936,132.68992 C190.64832,131.6864 189.72672,129.67936 189.25568,128.67584 L191.85664,128.512 C192.16384,130.17088 192.75776,133.50912 193.04448,135.168 C197.0176,131.87072 193.9456,125.35808 197.40672,121.32352 C196.28032,120.79104 194.048,119.68512 192.94208,119.15264 C192.73728,120.91392 192.36864,124.45696 192.18432,126.21824 L189.93152,126.52544 C190.30016,120.58624 190.2592,114.36032 193.26976,109.056 L190.464,107.70432 C191.40608,107.25376 193.29024,106.33216 194.21184,105.8816 C193.45408,105.28768 191.93856,104.09984 191.16032,103.50592 C192.08192,103.03488 193.90464,102.11328 194.80576,101.64224 C191.81568,98.0992 196.36224,94.90432 197.44768,91.70944 C196.36224,91.38176 194.21184,90.74688 193.1264,90.4192 C193.86368,90.23488 195.33824,89.86624 196.07552,89.7024 C196.608,88.24832 197.67296,85.31968 198.22592,83.8656 C197.09952,83.456 194.8672,82.59584 193.7408,82.18624 C194.74432,81.8176 196.73088,81.05984 197.71392,80.6912 C197.36576,78.29504 199.80288,72.58112 194.3552,74.69056 C195.03104,72.56064 196.68992,71.4752 199.29088,71.45472 C198.36928,69.50912 196.77184,68.48512 194.47808,68.34176 C195.46112,68.25984 197.38624,68.096 198.3488,68.01408 C197.81632,63.50848 197.77536,58.96192 197.632,54.41536 L200.62208,55.05024 C203.71456,75.63264 198.7584,96.256 193.4336,116.0192 C194.4576,117.5552 195.52256,119.0912 196.58752,120.60672 C196.7104,116.44928 202.83392,110.94016 199.12704,107.4176 C200.0896,107.008 201.97376,106.16832 202.93632,105.75872 L201.1136,103.3216 C202.11712,102.72768 204.14464,101.53984 205.14816,100.94592 C203.9808,100.57728 201.64608,99.86048 200.47872,99.51232 C201.56416,99.16416 203.776,98.48832 204.88192,98.14016 L203.38688,95.5392 C206.25408,93.51168 207.48288,89.9072 207.27808,86.48704 L208.44544,85.52448 C206.1312,78.21312 214.34368,68.42368 207.11424,63.16032 C207.81056,62.464 209.2032,61.09184 209.92,60.39552 Z" id="Shape"></path>
                <path d="M15.11424,57.4464 C16.05632,59.10528 16.91648,60.80512 17.7152,62.54592 C18.24768,63.01696 19.33312,64 19.88608,64.49152 L19.68128,65.3312 C18.432,65.4336 15.91296,65.6384 14.66368,65.76128 C13.88544,62.95552 14.0288,60.19072 15.11424,57.4464 Z" id="Shape"></path>
                <path d="M25.51808,58.12224 C26.27584,57.83552 27.79136,57.26208 28.5696,56.97536 C28.22144,59.904 27.7504,62.83264 26.54208,65.55648 C27.40224,65.92512 29.10208,66.6624 29.96224,67.03104 C29.2864,67.31776 27.97568,67.85024 27.29984,68.11648 C27.19744,69.5296 26.95168,72.35584 26.8288,73.74848 C25.76384,82.47296 28.3648,91.58656 25.21088,100.00384 C23.9616,86.20032 20.48,71.53664 25.51808,58.12224 Z" id="Shape"></path>
                <path d="M33.36192,69.05856 C81.28512,67.72736 129.24928,67.85024 177.17248,68.07552 C177.60256,84.15232 177.62304,100.2496 176.66048,116.3264 C176.20992,125.44 172.15488,133.77536 168.36608,141.88544 C158.96576,160.99328 146.7392,178.60608 133.55008,195.25632 C130.31424,199.74144 125.70624,202.93632 120.32,204.26752 C124.37504,207.38048 128.83968,210.59584 130.74432,215.59296 C136.47872,228.92544 128.3072,245.94432 114.54464,250.20416 C109.09696,251.98592 103.30112,250.85952 97.792,250.12224 C97.6896,249.63072 97.44384,248.60672 97.32096,248.1152 L97.71008,247.95136 C103.69024,247.37792 109.89568,248.5248 115.75296,246.9888 C128.79872,241.54112 133.65248,222.65856 124.5184,211.74272 C116.1216,199.7824 94.53568,199.31136 87.4496,212.86912 C79.48288,224.11264 84.91008,240.86528 97.15712,246.53824 L96.78848,246.82496 C96.07168,247.23456 94.65856,248.03328 93.94176,248.44288 C88.8832,243.67104 82.0224,238.63296 82.47296,230.85056 C79.89248,230.8096 77.312,230.76864 74.752,230.7072 L75.71456,227.96288 L72.11008,226.38592 L72.04864,225.5872 C66.68288,220.32384 61.46048,214.89664 57.01632,208.83456 C43.68384,190.73024 29.51168,172.60544 21.38112,151.42912 C25.92768,153.68192 27.62752,158.53568 30.0032,162.63168 C33.62816,169.63584 38.1952,176.128 41.20576,183.45984 C42.55744,182.0672 43.25376,179.46624 45.568,179.54816 C49.47968,180.03968 49.99168,175.8208 51.48672,173.1584 C48.04608,173.13792 42.82368,177.2544 40.6528,172.6464 C45.4656,170.9056 50.3808,169.43104 55.35744,168.22272 C55.52128,171.45856 54.59968,174.55104 53.53472,177.5616 C56.68864,178.81088 59.82208,180.08064 62.93504,181.41184 C59.41248,184.4224 56.97536,190.70976 51.38432,189.56288 C53.18656,187.24864 55.0912,184.99584 56.99584,182.784 C52.0192,179.22048 47.59552,183.84896 43.19232,185.856 C53.47328,200.15104 64.73728,213.72928 76.9024,226.46784 C77.9264,227.71712 79.2576,228.61824 80.71168,229.31456 C81.1008,223.00672 81.53088,215.9616 85.95456,210.98496 C88.18688,208.09728 92.5696,206.06976 91.09504,201.68704 C101.376,202.0352 111.69792,202.752 121.9584,202.05568 C127.09888,202.15808 129.78176,197.24288 132.64896,193.80224 C142.31552,180.69504 151.47008,167.15776 159.72352,153.10848 C166.21568,141.27104 172.91264,128.96256 174.05952,115.24096 C155.83232,110.16192 137.78944,104.46848 119.64416,99.14368 C114.15552,97.6896 108.52352,94.78144 102.72768,96.68608 C81.6128,102.05184 60.76416,108.4416 39.89504,114.76992 C40.57088,118.14912 41.14432,121.56928 42.31168,124.84608 C43.76576,127.63136 47.47264,125.66528 49.90976,126.1568 C50.42176,129.06496 50.72896,132.89472 54.43584,133.14048 L53.41184,127.01696 C55.00928,127.87712 56.4224,128.98304 57.63072,130.31424 C59.61728,130.74432 61.58336,131.11296 63.56992,131.50208 C64.45056,130.74432 66.17088,129.2288 67.03104,128.47104 C66.27328,135.18848 73.40032,134.71744 77.55776,132.608 C75.38688,135.51616 73.35936,138.52672 71.51616,141.66016 C76.96384,140.47232 80.62976,136.31488 84.23424,132.44416 C88.71936,132.608 84.29568,136.66304 82.67776,137.37984 C78.336,139.55072 77.33248,144.52736 74.50624,148.0704 C75.776,148.1728 78.27456,148.3776 79.54432,148.48 C78.47936,148.70528 76.34944,149.13536 75.28448,149.34016 L74.91584,151.12192 C74.9568,153.86624 77.53728,155.99616 77.29152,158.69952 C76.12416,158.80192 73.80992,159.00672 72.66304,159.1296 C72.88832,157.83936 73.33888,155.27936 73.56416,154.0096 C72.68352,154.50112 70.92224,155.50464 70.0416,155.99616 C69.77536,155.15648 69.20192,153.43616 68.9152,152.576 C67.21536,151.63392 65.536,150.65088 63.87712,149.64736 C64.08192,146.5344 66.10944,142.45888 62.64832,140.41088 C62.40256,141.96736 61.91104,145.05984 61.66528,146.59584 C59.8016,145.14176 57.9584,143.68768 56.13568,142.19264 C54.04672,139.75552 60.94848,140.82048 58.59328,138.38336 C54.10816,136.704 49.82784,134.3488 48.08704,129.59744 C45.32224,127.50848 44.50304,132.13696 46.12096,133.67296 C56.0128,154.54208 66.23232,175.47264 80.15872,194.02752 C83.1488,198.18496 87.69536,200.84736 90.84928,204.86144 C84.6848,203.53024 80.81408,198.22592 77.18912,193.536 C64.04096,175.22688 53.37088,155.25888 43.86816,134.8608 C39.48544,125.2352 35.24608,115.17952 34.9184,104.448 C34.59072,92.63104 33.01376,80.87552 33.36192,69.05856 Z M36.84352,71.55712 C37.62176,85.03296 38.17472,98.52928 38.85056,112.00512 C59.2896,105.94304 79.83104,100.20864 100.31104,94.24896 C103.26016,93.47072 106.41408,92.52864 109.44512,93.3888 C130.58048,99.67616 151.6544,106.04544 172.78976,112.27136 C173.24032,98.24256 173.85472,84.21376 173.89568,70.16448 C128.2048,70.67648 82.5344,71.3728 36.84352,71.55712 Z M58.368,135.92576 C60.17024,137.05216 66.10944,137.216 65.04448,134.06208 C63.24224,132.79232 55.66464,132.25984 58.368,135.92576 Z M68.32128,135.31136 C68.32128,138.50624 66.31424,144.384 70.4512,145.65376 C70.81984,144.93696 71.51616,143.50336 71.8848,142.78656 C69.91872,140.73856 70.7584,136.62208 68.32128,135.31136 Z" id="Shape"></path>
                <path d="M185.89696,68.44416 C186.96192,68.28032 189.05088,67.95264 190.11584,67.76832 C190.62784,86.95808 187.392,106.02496 186.0608,125.1328 C184.68864,133.9392 190.70976,141.96736 197.48864,146.90304 C201.13408,150.48704 207.09376,147.82464 210.71872,151.51104 C198.7584,153.37472 186.53184,145.1008 184.09472,133.18144 L181.5552,132.87424 C181.76,130.3552 181.92384,127.83616 182.08768,125.31712 C181.26848,125.17376 179.65056,124.88704 178.83136,124.74368 C180.16256,124.02688 182.82496,122.59328 184.15616,121.89696 L180.67456,120.66816 C180.8384,119.33696 181.1456,116.65408 181.30944,115.32288 C182.10816,115.34336 183.72608,115.38432 184.54528,115.42528 C184.40192,113.84832 184.13568,110.6944 184.0128,109.11744 C183.74656,107.64288 183.23456,104.67328 182.9888,103.19872 C184.15616,100.57728 185.38496,97.9968 186.59328,95.41632 C185.89696,95.41632 184.5248,95.41632 183.82848,95.4368 C185.6512,93.26592 185.26208,91.62752 182.64064,90.50112 C183.6032,90.64448 185.5488,90.9312 186.51136,91.09504 C184.70912,83.51744 189.31712,75.6736 185.89696,68.44416 Z" id="Shape"></path>
                <path d="M14.336,68.25984 C18.18624,69.09952 16.34304,73.8304 17.28512,76.55424 C18.06336,77.66016 19.6608,79.872 20.43904,80.97792 C19.82464,81.79712 18.59584,83.43552 17.98144,84.25472 C18.37056,90.15296 22.6304,96.41984 20.39808,102.0928 L22.13888,102.76864 C22.3232,106.25024 24.86272,109.40416 21.56544,112.3328 L24.43264,113.02912 C24.14592,113.68448 23.59296,114.97472 23.30624,115.6096 C25.00608,118.84544 23.98208,122.53184 24.04352,125.99296 C20.54144,124.29312 21.2992,120.13568 20.62336,116.96128 C18.432,100.72064 14.60224,84.72576 14.336,68.25984 Z" id="Shape"></path>
                <path d="M123.31008,74.05568 C130.43712,72.62208 131.23584,80.87552 135.96672,83.61984 C135.59808,80.71168 135.12704,77.80352 134.656,74.91584 C136.4992,74.87488 140.16512,74.77248 141.98784,74.73152 C141.86496,82.86208 141.9264,91.01312 141.70112,99.14368 C134.38976,98.9184 133.71392,90.4192 128.69632,86.87616 C128.88064,88.90368 129.24928,92.99968 129.4336,95.04768 C127.67232,94.86336 124.14976,94.5152 122.40896,94.33088 C122.34752,87.57248 122.51136,80.7936 123.31008,74.05568 Z" id="Shape"></path>
                <path d="M148.5824,78.82752 C151.6544,69.34528 169.73824,72.43776 167.0144,83.08736 C162.16064,85.87264 160.80896,77.98784 156.52864,78.70464 C152.86272,83.8656 154.64448,90.89024 154.91072,96.82944 C156.79488,97.34144 158.72,97.60768 160.70656,97.5872 C160.70656,96.60416 160.70656,94.6176 160.70656,93.63456 C158.72,92.24192 157.65504,90.33728 157.53216,87.87968 C160.74752,87.77728 163.98336,87.71584 167.2192,87.63392 C166.99392,91.81184 166.95296,96.07168 165.86752,100.12672 C161.73056,106.35264 151.38816,103.66976 147.98848,97.9968 C146.8416,91.70944 146.88256,85.01248 148.5824,78.82752 Z" id="Shape"></path>
                <path d="M40.8576,75.32544 C43.8272,75.1616 46.81728,75.03872 49.82784,74.93632 C50.87232,81.5104 50.5856,88.84224 54.66112,94.47424 C56.2176,88.00256 57.38496,81.44896 58.71616,74.91584 C60.8256,74.8544 65.04448,74.752 67.15392,74.69056 C64.98304,82.30912 63.1808,90.05056 60.66176,97.56672 C59.10528,102.33856 53.41184,102.95296 49.152,103.13728 C46.55104,93.81888 43.8272,84.52096 40.8576,75.32544 Z" id="Shape"></path>
                <path d="M70.98368,74.58816 C72.76544,74.69056 76.288,74.87488 78.04928,74.97728 C78.09024,81.98144 78.17216,89.00608 77.57824,96.01024 C75.75552,96.41984 72.11008,97.21856 70.28736,97.62816 C70.73792,89.94816 70.8608,82.26816 70.98368,74.58816 Z" id="Shape"></path>
                <path d="M83.39456,74.752 C87.83872,74.21952 91.38176,75.07968 91.07456,80.30208 C94.72,76.53376 99.0208,73.25696 104.69376,74.48576 C103.0144,77.39392 99.9424,79.13472 98.24256,81.98144 C99.10272,84.97152 102.5024,86.28224 104.46848,88.4736 C102.78912,89.16992 99.4304,90.54208 97.75104,91.2384 C96.1536,89.76384 94.55616,88.28928 92.95872,86.81472 C91.58656,91.09504 88.49408,94.37184 83.72224,94.1056 C83.64032,87.6544 83.5584,81.2032 83.39456,74.752 Z" id="Shape"></path>
                <path d="M109.54752,74.56768 C111.34976,74.62912 114.97472,74.77248 116.77696,74.83392 C116.96128,80.4864 117.18656,86.1184 117.49376,91.7504 C114.9952,91.15648 112.51712,90.56256 110.01856,89.96864 C109.81376,84.82816 109.6704,79.70816 109.54752,74.56768 Z" id="Shape"></path>
                <path d="M25.78432,101.33504 C26.50112,100.74112 27.93472,99.5328 28.65152,98.9184 L29.24544,102.54336 C29.63456,105.0624 29.98272,107.60192 30.28992,110.14144 C36.0448,110.42816 28.44672,114.05312 30.8224,116.6336 C31.25248,117.41184 32.1536,118.96832 32.60416,119.72608 C29.98272,122.22464 31.29344,124.5184 34.0992,125.50144 C33.15712,125.50144 31.29344,125.50144 30.37184,125.50144 C30.24896,127.13984 30.0032,130.41664 29.88032,132.05504 C29.57312,135.49568 28.52864,138.77248 27.15648,141.90592 C22.24128,146.67776 17.6128,152.49408 10.38336,153.6 C6.20544,152.53504 0.79872,150.05696 0.73728,145.05984 C2.1504,140.3904 8.27392,138.62912 10.58816,143.93344 C9.23648,144.52736 6.49216,145.7152 5.12,146.3296 C5.46816,147.1488 6.16448,148.80768 6.53312,149.64736 C9.89184,149.77024 13.35296,149.85216 16.384,148.11136 C15.38048,146.86208 13.35296,144.36352 12.34944,143.13472 C13.18912,141.18912 14.35648,140.24704 15.872,140.30848 C16.73216,140.26752 18.432,140.16512 19.27168,140.12416 L21.48352,138.52672 C20.95104,140.04224 19.90656,143.09376 19.37408,144.60928 C17.87904,146.0224 17.87904,146.0224 19.37408,144.60928 L22.07744,144.67072 C29.67552,131.46112 27.25888,115.73248 25.78432,101.33504 Z" id="Shape"></path>
                <path d="M104.05888,104.30464 C105.18528,105.30816 107.45856,107.3152 108.60544,108.31872 C110.1824,104.67328 113.62304,104.91904 116.98176,105.3696 C115.69152,108.76928 112.55808,108.68736 109.40416,108.11392 C110.20288,109.1584 111.77984,111.28832 112.57856,112.35328 C108.81024,110.85824 103.99744,109.21984 104.05888,104.30464 Z" id="Shape"></path>
                <path d="M57.38496,122.61376 C51.95776,114.91328 63.50848,106.10688 69.77536,113.0496 C67.56352,116.92032 62.8736,115.07712 59.43296,114.95424 L59.51488,116.65408 C75.59168,114.23744 92.28288,111.28832 108.1344,116.71552 C110.6944,117.8624 112.10752,119.84896 112.3328,122.63424 C115.56864,120.36096 117.8624,117.10464 120.4224,114.15552 C120.23808,115.65056 119.86944,118.66112 119.7056,120.17664 C121.09824,119.97184 123.88352,119.58272 125.29664,119.37792 C125.39904,117.4528 125.6448,113.64352 125.76768,111.7184 C130.02752,114.19648 132.03456,118.66112 133.26336,123.22816 C131.6864,122.32704 128.49152,120.5248 126.91456,119.62368 C132.23936,127.56992 120.81152,126.62784 116.5312,127.24224 C113.00864,129.55648 119.82848,131.072 120.70912,133.2224 C122.368,140.04224 123.61728,146.98496 124.55936,153.92768 C122.90048,160.41984 116.14208,163.67616 113.99168,169.90208 C112.92672,172.29824 110.24384,173.32224 108.42112,175.02208 C108.60544,175.67744 108.99456,176.98816 109.17888,177.64352 C110.55104,176.70144 113.27488,174.81728 114.62656,173.8752 C113.39776,180.81792 112.37376,187.78112 111.08352,194.70336 C113.84832,196.28032 116.65408,197.87776 118.74304,200.35584 C114.44224,199.72096 110.20288,198.8608 105.92256,198.16448 C106.57792,193.9456 107.43808,189.7472 108.97408,185.7536 C107.90912,185.69216 105.79968,185.56928 104.73472,185.48736 C105.30816,181.0432 105.82016,176.59904 106.57792,172.19584 C98.11968,167.26016 89.31328,162.34496 82.75968,154.91072 C80.15872,152.064 82.98496,148.41856 84.33664,145.73568 C88.63744,138.91584 91.93472,131.56352 94.6176,123.98592 C96.48128,124.7232 98.32448,125.44 100.18816,126.1568 C101.7856,122.28608 97.05472,121.6512 94.57664,120.29952 C87.10144,116.6336 78.66368,119.21408 70.77888,119.62368 C70.94272,124.17024 67.21536,125.60384 63.54944,126.68928 C61.50144,125.29664 59.45344,123.94496 57.38496,122.61376 Z M96.29696,131.09248 C97.93536,134.53312 99.34848,140.98432 104.46848,138.50624 C105.00096,140.00128 106.0864,143.03232 106.61888,144.52736 L105.49248,145.96096 C102.5024,145.73568 102.64576,141.90592 101.29408,139.96032 C99.16416,141.824 97.42336,143.99488 96.07168,146.432 C94.49472,146.30912 91.32032,146.06336 89.74336,145.94048 C91.42272,147.70176 93.16352,149.38112 94.90432,151.06048 L95.49824,150.1184 C101.41696,154.9312 112.61952,161.73056 107.25376,170.53696 C113.99168,166.31808 115.07712,157.71648 119.37792,151.53152 C117.39136,148.86912 115.73248,145.94048 115.2,142.60224 C110.46912,142.45888 104.57088,140.53376 104.61184,134.84032 C103.46496,135.20896 101.19168,135.90528 100.06528,136.27392 C100.33152,133.03808 99.08224,131.31776 96.29696,131.09248 Z" id="Shape"></path>
                <path d="M78.52032,123.86304 C81.3056,124.23168 84.64384,123.65824 86.4256,126.40256 C82.80064,125.68576 79.36,126.5664 76.06272,128.02048 C76.20608,128.98304 76.4928,130.88768 76.63616,131.85024 C74.91584,131.95264 71.4752,132.17792 69.77536,132.28032 C72.58112,129.39264 75.55072,126.62784 78.52032,123.86304 Z" id="Shape"></path>
                <path d="" id="Shape"></path>
                <path d="M204.67712,141.16864 C209.87904,136.35584 217.35424,143.03232 212.992,149.27872 C211.7632,147.68128 210.51392,146.10432 209.28512,144.52736 C206.82752,144.67072 204.04224,144.67072 204.67712,141.16864 Z" id="Shape"></path>
                <path d="M38.42048,143.83104 C40.07936,145.22368 43.70432,145.89952 43.008,148.74624 C39.64928,150.77376 36.06528,152.3712 32.52224,154.05056 C34.38592,154.84928 36.27008,155.62752 38.15424,156.38528 C37.13024,158.02368 36.06528,159.6416 35.00032,161.25952 C37.60128,160.8704 42.78272,160.0512 45.3632,159.6416 C44.1344,157.92128 42.9056,156.20096 41.69728,154.48064 C46.3872,151.36768 48.31232,157.88032 49.52064,161.23904 C45.19936,162.65216 40.81664,163.86048 36.39296,164.90496 C34.59072,160.37888 32.6656,155.77088 29.06112,152.3712 C32.84992,150.26176 37.10976,148.39808 38.42048,143.83104 Z" id="Shape"></path>
                <path d="M189.70624,152.30976 C190.464,152.41216 191.97952,152.65792 192.75776,152.7808 L192.49152,153.14944 C179.9168,177.70496 163.36896,199.92576 145.73568,221.06112 C144.75264,222.6176 143.85152,224.23552 143.03232,225.8944 C140.75904,226.89792 138.56768,228.10624 136.23296,228.9664 C141.4144,223.21152 135.49568,216.41216 131.8912,211.61984 C131.80928,211.18976 131.66592,210.3296 131.60448,209.89952 C135.00416,210.90304 138.5472,211.64032 141.78304,213.15584 C144.6912,215.06048 135.53664,217.31328 137.6256,218.66496 C138.81344,220.09856 139.9808,221.53216 141.16864,222.98624 C153.10848,208.60928 164.39296,193.69984 175.08352,178.36032 C173.38368,175.9232 171.66336,173.48608 169.92256,171.08992 C171.13088,171.49952 173.52704,172.3392 174.73536,172.7488 C175.34976,173.2608 176.55808,174.30528 177.152,174.81728 C181.3504,167.3216 185.83552,159.98976 189.70624,152.30976 Z" id="Shape"></path>
                <path d="M164.59776,165.08928 C160.03072,161.83296 164.43392,152.45312 169.84064,154.64448 C172.8512,155.58656 173.40416,159.39584 174.94016,161.73056 C176.66048,160.03072 177.02912,154.54208 180.5312,157.184 C180.67456,161.3824 177.31584,165.64224 174.14144,168.07936 C168.91904,167.50592 172.87168,157.67552 166.85056,157.9008 C165.96992,160.09216 169.1648,166.25664 164.59776,165.08928 Z" id="Shape"></path>
                <path d="M63.91808,156.07808 C67.584,157.55264 71.3728,159.744 72.25344,163.96288 C73.33888,163.328 75.53024,162.0992 76.61568,161.4848 C75.81696,162.52928 74.21952,164.61824 73.4208,165.66272 C74.05568,168.07936 76.96384,167.91552 78.848,168.71424 C77.02528,165.31456 78.49984,161.05472 81.73568,159.31392 C81.3056,161.46432 80.4864,165.7856 80.05632,167.936 C81.16224,167.79264 83.33312,167.5264 84.41856,167.38304 C83.33312,168.448 81.12128,170.53696 80.01536,171.60192 C83.6608,172.70784 87.53152,171.56096 89.10848,167.85408 C92.07808,170.63936 95.08864,173.40416 97.91488,176.3328 C96.3584,175.28832 93.24544,173.19936 91.68896,172.15488 C90.9312,173.7728 90.19392,175.39072 89.45664,177.00864 L91.648,178.25792 C90.58304,177.90976 88.45312,177.19296 87.38816,176.8448 C83.88608,176.86528 87.59296,181.26848 88.576,182.3744 C84.13184,186.1632 79.07328,179.44576 74.24,178.688 C74.50624,177.54112 75.0592,175.28832 75.32544,174.14144 C76.4928,175.73888 78.78656,178.91328 79.93344,180.49024 C80.75264,178.688 82.37056,175.08352 83.16928,173.28128 C78.848,175.06304 75.8784,171.15136 73.13408,168.69376 C71.76192,168.87808 69.0176,169.22624 67.62496,169.39008 C68.8128,168.30464 71.18848,166.11328 72.37632,165.00736 L68.85376,164.63872 C68.9152,163.59424 69.07904,161.52576 69.16096,160.48128 C65.92512,160.256 62.03392,160.33792 63.91808,156.07808 Z" id="Shape"></path>
                <path d="" id="Shape"></path>
                <path d="M155.93472,180.16256 C149.79072,176.55808 156.40576,167.48544 162.11968,169.82016 C167.95648,171.2128 171.84768,181.6576 164.9664,184.40192 C164.98688,182.8864 164.98688,179.87584 165.00736,178.36032 C162.52928,180.46976 158.88384,183.02976 155.93472,180.16256 Z M158.33088,172.81024 C155.5456,174.87872 158.86336,180.1216 161.83296,177.72544 C164.78208,175.57504 161.25952,170.55744 158.33088,172.81024 Z" id="Shape"></path>
                <path d="M84.6848,189.00992 C92.44672,185.56928 97.21856,177.78688 105.20576,174.91968 C104.18176,178.05312 103.2192,181.22752 102.33856,184.40192 C95.41632,185.79456 89.6,191.46752 90.3168,198.9632 C87.67488,196.13696 86.58944,192.28672 84.6848,189.00992 Z" id="Shape"></path>
                <path d="M61.21472,186.94144 C62.44352,186.38848 64.86016,185.26208 66.06848,184.70912 C67.70688,188.0064 70.0416,190.89408 72.35584,193.76128 C69.48864,197.71392 68.3008,203.20256 64.02048,205.96736 C63.26272,204.1856 62.81216,202.32192 62.6688,200.3968 C62.89408,196.42368 57.69216,196.75136 55.27552,195.35872 C58.04032,191.40608 63.73376,191.91808 67.72736,190.17728 C65.57696,189.07136 63.40608,187.98592 61.21472,186.94144 Z M66.00704,193.3312 C62.99648,194.49856 62.7712,195.82976 65.3312,197.3248 C68.23936,196.11648 68.46464,194.78528 66.00704,193.3312 Z" id="Shape"></path>
                <path d="M147.33312,184.36096 C151.40864,186.20416 157.22496,186.22464 159.3344,190.79168 C161.21856,194.94912 156.09856,197.28384 153.82528,199.80288 C149.48352,197.26336 145.44896,194.23232 141.84448,190.70976 C143.4624,188.45696 144.77312,185.69216 147.33312,184.36096 Z M146.00192,188.53888 C145.3056,191.2832 146.39104,192.2048 149.2992,191.34464 C150.09792,188.5184 148.992,187.5968 146.00192,188.53888 Z M152.1664,191.34464 C150.91712,194.72384 151.98208,195.7888 155.36128,194.51904 C156.50816,191.13984 155.4432,190.07488 152.1664,191.34464 Z" id="Shape"></path>
                <path d="M135.31136,199.41376 C139.28448,202.71104 145.63328,204.71808 146.88256,210.2272 C143.2576,213.03296 141.08672,208.34304 138.60864,206.41792 C137.216,206.4384 134.4512,206.49984 133.05856,206.5408 C133.67296,204.12416 134.38976,201.728 135.31136,199.41376 Z" id="Shape"></path>
                <path d="M69.03808,211.84512 C65.96608,206.37696 75.69408,204.57472 78.97088,201.70752 C79.44192,202.38336 80.40448,203.71456 80.87552,204.3904 C77.16864,207.19616 73.60512,210.57536 69.03808,211.84512 Z" id="Shape"></path>
                <path d="M100.98688,209.46944 C105.7792,210.57536 114.74944,206.25408 114.54464,214.20032 C116.75648,214.13888 118.5792,214.89664 119.99232,216.4736 C118.31296,216.82176 114.97472,217.4976 113.29536,217.84576 C113.58208,218.70592 114.176,220.42624 114.46272,221.26592 C116.34688,220.9792 120.1152,220.40576 121.99936,220.11904 C124.94848,223.31392 123.8016,227.75808 123.37152,231.6288 C119.84896,231.5264 116.3264,231.44448 112.82432,231.89504 C115.05664,233.86112 118.82496,234.04544 119.78752,237.28128 C118.51776,237.38368 115.95776,237.58848 114.688,237.69088 C114.60608,239.0016 114.44224,241.60256 114.36032,242.91328 C109.83424,242.85184 105.28768,242.85184 100.7616,242.87232 C100.72064,241.5616 100.61824,238.98112 100.57728,237.6704 C99.2256,237.62944 96.52224,237.50656 95.17056,237.4656 L95.6416,234.74176 C98.7136,235.45856 100.53632,234.33216 101.08928,231.424 C97.21856,231.5264 93.34784,231.7312 89.4976,231.89504 C89.21088,228.18816 89.16992,224.44032 89.45664,220.71296 C93.14304,220.83584 96.82944,221.0816 100.53632,221.06112 C104.1408,216.69888 96.44032,217.10848 93.98272,215.94112 C95.6416,215.59296 99.00032,214.89664 100.6592,214.54848 C100.74112,213.27872 100.90496,210.7392 100.98688,209.46944 Z M104.77568,211.12832 C104.79616,215.3472 104.87808,219.56608 104.93952,223.80544 C100.12672,225.0752 89.88672,220.22144 91.25888,228.67968 C95.49824,228.70016 99.7376,228.6592 103.97696,228.59776 C104.63232,232.79616 104.89856,237.03552 105.02144,241.27488 C113.21344,243.17952 109.83424,233.39008 110.20288,228.67968 C113.80736,228.57728 117.41184,228.5568 121.01632,228.67968 C121.28256,227.06176 121.56928,225.46432 121.83552,223.86688 C117.98528,223.76448 114.11456,223.744 110.26432,223.72352 C110.26432,219.58656 110.24384,215.47008 110.20288,211.3536 C108.8512,211.29216 106.14784,211.18976 104.77568,211.12832 Z" id="Shape"></path>
            </g>
            <g id="#060404f9" transform="translate(10.240000, 6.144000)" fill="#060404" opacity="0.98">
                <path d="M85.44256,4.21888 C88.71936,3.29728 92.13952,0.34816 95.744,2.02752 C97.40288,4.17792 98.77504,6.51264 99.79904,9.05216 C97.0752,12.1856 93.36832,13.88544 89.21088,14.15168 C90.35776,9.9328 88.51456,6.7584 85.44256,4.21888 Z M92.52864,5.38624 C91.7504,8.2944 92.79488,9.23648 95.68256,8.23296 C96.3584,5.40672 95.31392,4.44416 92.52864,5.38624 Z" id="Shape"></path>
                <path d="M102.85056,11.38688 C105.02144,4.8128 113.11104,1.536 119.64416,1.88416 C115.2,6.51264 108.19584,7.84384 102.85056,11.38688 Z" id="Shape"></path>
                <path d="M145.48992,34.93888 C145.7152,35.16416 146.18624,35.59424 146.41152,35.81952 C146.18624,35.59424 145.7152,35.16416 145.48992,34.93888 Z" id="Shape"></path>
                <path d="M97.42336,52.736 C92.22144,49.50016 89.86624,42.68032 92.28288,37.00736 C92.69248,42.37312 94.22848,47.77984 98.93888,50.93376 C108.032,57.344 119.7056,56.23808 130.08896,54.66112 C129.2288,58.01984 126.1568,60.23168 122.71616,59.88352 C113.90976,59.904 104.77568,57.6512 97.42336,52.736 Z" id="Shape"></path>
                <path d="M151.20384,46.75584 C151.10144,44.09344 151.87968,41.51296 153.57952,39.48544 C156.09856,45.34272 152.86272,55.48032 145.01888,52.96128 C147.02592,50.83136 149.13536,48.80384 151.20384,46.75584 Z" id="Shape"></path>
                <path d="M83.29216,51.97824 C84.8896,52.51072 88.12544,53.53472 89.74336,54.04672 C92.8768,54.10816 96.01024,54.14912 99.14368,54.23104 C96.52224,60.27264 82.8416,60.33408 83.29216,51.97824 Z" id="Shape"></path>
                <path d="M4.096,80.54784 L5.26336,79.81056 C4.608,84.64384 1.16736,90.64448 6.49216,94.12608 C5.57056,94.1056 3.76832,94.04416 2.84672,94.02368 C1.9456,90.35776 1.00352,86.69184 0.4096,82.944 C1.3312,82.35008 3.1744,81.16224 4.096,80.54784 Z" id="Shape"></path>
                <path d="M141.29152,129.10592 C137.9328,127.75424 138.05568,126.32064 141.63968,124.80512 C144.87552,126.38208 144.77312,127.81568 141.29152,129.10592 Z" id="Shape"></path>
                <path d="M60.12928,133.26336 C62.5664,134.57408 61.72672,138.69056 63.6928,140.73856 C63.32416,141.45536 62.62784,142.88896 62.2592,143.60576 C58.12224,142.336 60.12928,136.45824 60.12928,133.26336 Z" id="Shape"></path>
                <path d="" id="Shape"></path>
                <path d="M123.2896,142.92992 L124.23168,143.6672 L123.55584,144.65024 C123.4944,144.22016 123.35104,143.36 123.2896,142.92992 Z" id="Shape"></path>
                <path d="" id="Shape"></path>
                <path d="" id="Shape"></path>
                <path d="M137.54368,219.01312 C155.17696,197.87776 171.7248,175.65696 184.29952,151.10144 C184.05376,152.49408 183.58272,155.29984 183.33696,156.69248 C173.81376,177.95072 159.55968,196.48512 144.77312,214.30272 C142.78656,216.3712 140.98432,219.56608 137.54368,219.01312 Z" id="Shape"></path>
                <path d="M117.49376,170.06592 C120.38144,169.3696 121.46688,170.41408 120.70912,173.24032 C117.90336,173.8752 116.81792,172.83072 117.49376,170.06592 Z" id="Shape"></path>
                <path d="M150.13888,170.76224 C153.06752,168.50944 156.59008,173.52704 153.64096,175.67744 C150.67136,178.0736 147.3536,172.83072 150.13888,170.76224 Z" id="Shape"></path>
                <path d="M137.80992,186.49088 C140.8,185.5488 141.90592,186.4704 141.1072,189.29664 C138.19904,190.1568 137.1136,189.2352 137.80992,186.49088 Z" id="Shape"></path>
                <path d="M143.9744,189.29664 C147.2512,188.02688 148.31616,189.09184 147.16928,192.47104 C143.79008,193.7408 142.72512,192.67584 143.9744,189.29664 Z" id="Shape"></path>
                <path d="M57.81504,191.2832 C60.27264,192.73728 60.04736,194.06848 57.1392,195.2768 C54.5792,193.78176 54.80448,192.45056 57.81504,191.2832 Z" id="Shape"></path>
                <path d="M96.58368,209.08032 C97.95584,209.14176 100.6592,209.24416 102.01088,209.3056 C102.05184,213.42208 102.07232,217.53856 102.07232,221.67552 C105.92256,221.696 109.79328,221.71648 113.64352,221.81888 C113.37728,223.41632 113.09056,225.01376 112.82432,226.63168 C109.21984,226.5088 105.61536,226.52928 102.01088,226.63168 C101.64224,231.34208 105.02144,241.13152 96.82944,239.22688 C96.70656,234.98752 96.44032,230.74816 95.78496,226.54976 C91.5456,226.6112 87.30624,226.65216 83.06688,226.63168 C81.69472,218.17344 91.93472,223.0272 96.74752,221.75744 C96.68608,217.51808 96.60416,213.2992 96.58368,209.08032 Z" id="Shape"></path>
            </g>
            <g id="#cfd0d2ff" transform="translate(34.816000, 32.768000)" fill="#CFD0D2">
                <path d="M94.22848,1.7408 C96.9728,2.99008 96.99328,4.34176 94.26944,5.77536 C91.58656,4.52608 91.56608,3.1744 94.22848,1.7408 Z" id="Shape"></path>
                <path d="M107.33568,3.93216 C110.12096,2.29376 111.75936,2.80576 112.25088,5.46816 C109.6704,7.02464 108.032,6.51264 107.33568,3.93216 Z" id="Shape"></path>
                <path d="M58.83904,77.7216 C59.00288,76.9024 59.35104,75.264 59.51488,74.4448 C60.14976,75.30496 61.37856,77.02528 61.99296,77.90592 C64.28672,75.8784 66.84672,74.36288 69.69344,73.35936 C68.79232,78.27456 61.31712,83.78368 58.08128,77.98784 C55.0912,79.09376 52.24448,80.50688 49.41824,81.94048 C50.13504,80.11776 50.87232,78.27456 51.6096,76.43136 C53.41184,76.75904 57.01632,77.39392 58.83904,77.7216 Z" id="Shape"></path>
                <path d="M88.76032,79.62624 C86.95808,74.9568 95.49824,74.6496 96.91136,77.84448 C95.29344,80.09728 91.136,81.42848 88.76032,79.62624 Z" id="Shape"></path>
                <path d="M39.8336,80.24064 C42.9056,79.17568 43.78624,80.0768 42.47552,82.98496 C39.56736,83.8656 38.68672,82.96448 39.8336,80.24064 Z" id="Shape"></path>
                <path d="M104.42752,84.3776 C105.39008,83.70176 107.3152,82.35008 108.27776,81.67424 C108.09344,82.75968 107.74528,84.93056 107.56096,85.99552 L110.63296,86.016 C110.57152,87.552 110.46912,90.60352 110.40768,92.13952 C111.34976,91.29984 113.21344,89.6 114.15552,88.76032 C114.3808,89.55904 114.85184,91.15648 115.0976,91.9552 C112.80384,93.20448 110.51008,94.49472 108.35968,95.96928 C112.86528,97.03424 117.41184,94.53568 121.91744,96.0512 C123.8016,92.99968 126.0544,90.19392 129.29024,88.53504 C127.65184,91.19744 126.95552,94.24896 130.31424,95.78496 C129.80224,96.5632 128.79872,98.0992 128.28672,98.87744 C130.02752,100.29056 131.66592,101.92896 133.05856,103.71072 C131.85024,102.95296 129.47456,101.43744 128.26624,100.6592 C127.1808,98.54976 126.11584,96.41984 124.68224,94.5152 C123.47392,96.13312 121.0368,99.38944 119.82848,101.00736 C122.59328,102.7072 126.83264,100.94592 128.53248,104.42752 C127.26272,105.2672 124.74368,106.92608 123.4944,107.76576 L126.64832,108.97408 C125.76768,110.85824 124.90752,112.7424 124.04736,114.62656 C124.53888,115.52768 125.50144,117.30944 125.97248,118.21056 C124.17024,117.53472 122.38848,116.87936 120.58624,116.224 C121.46688,114.25792 122.368,112.31232 123.26912,110.34624 L121.32352,109.71136 C120.64768,113.13152 118.51776,115.01568 114.87232,115.34336 C116.10112,116.89984 121.2416,117.26848 120.13568,119.74656 C117.0432,122.59328 124.416,125.19424 119.76704,127.50848 C117.73952,125.05088 115.89632,122.368 116.69504,119.02976 C115.0976,118.86592 111.88224,118.5792 110.26432,118.41536 C112.04608,121.1392 113.7664,123.904 115.22048,126.83264 C114.19648,126.95552 112.18944,127.20128 111.18592,127.32416 C109.01504,121.38496 104.36608,116.55168 103.7312,110.08 C103.0144,110.01856 101.56032,109.91616 100.84352,109.85472 C101.04832,112.31232 101.23264,114.76992 101.376,117.22752 L104.448,116.69504 L104.448,119.7056 C103.07584,119.296 100.352,118.45632 98.97984,118.02624 L99.65568,117.0432 L98.7136,116.30592 C98.77504,116.736 98.9184,117.59616 98.97984,118.02624 C101.2736,121.42592 105.55392,122.51136 108.68736,124.96896 L103.87456,126.5664 C107.19232,128.24576 110.85824,129.00352 114.13504,130.78528 C110.3872,132.25984 106.61888,130.21184 102.912,131.21536 C104.73472,135.08608 115.38432,134.8608 109.79328,141.824 C107.74528,139.50976 105.86112,137.07264 103.87456,134.69696 C104.59136,138.6496 106.9056,141.96736 108.6464,145.48992 C103.8336,143.93344 101.51936,138.48576 95.232,140.4928 C96.4608,141.55776 98.9184,143.6672 100.1472,144.71168 C99.59424,145.89952 98.48832,148.2752 97.95584,149.46304 L101.70368,149.504 C101.43744,148.48 100.90496,146.432 100.63872,145.38752 L104.8576,145.408 C104.18176,147.92704 103.23968,150.3232 102.01088,152.59648 C99.1232,152.80128 92.63104,157.63456 92.672,152.00256 L96.01024,151.06048 L97.1776,149.05344 C93.67552,149.6064 90.27584,150.528 86.91712,151.552 C88.14592,152.1664 90.624,153.43616 91.87328,154.05056 C92.11904,156.63104 93.57312,158.22848 96.23552,158.8224 C94.88384,159.15008 92.13952,159.78496 90.76736,160.11264 C90.99264,161.01376 91.4432,162.85696 91.68896,163.75808 C90.25536,163.81952 87.42912,163.92192 86.016,163.98336 L86.05696,161.23904 C85.01248,161.15712 82.944,160.9728 81.92,160.89088 C83.12832,155.89376 87.18336,161.73056 89.84576,162.05824 C89.25184,158.47424 87.40864,155.87328 84.35712,154.2144 C84.33664,151.42912 85.72928,147.7632 88.92416,147.10784 C87.7568,145.26464 86.6304,143.40096 85.54496,141.5168 C87.06048,142.00832 90.09152,143.01184 91.60704,143.50336 L91.11552,136.8064 C89.96864,137.23648 87.67488,138.11712 86.528,138.5472 C88.064,137.74848 89.35424,136.66304 90.37824,135.33184 C90.5216,134.43072 90.78784,132.62848 90.91072,131.72736 C91.58656,131.87072 92.93824,132.15744 93.61408,132.3008 L94.63808,132.83328 C94.69952,131.60448 94.8224,129.1264 94.88384,127.87712 C96.01024,127.5904 98.26304,127.01696 99.38944,126.75072 C98.63168,125.97248 97.13664,124.45696 96.37888,123.6992 C96.9728,122.9824 98.16064,121.56928 98.75456,120.85248 C97.60768,120.85248 95.29344,120.81152 94.14656,120.79104 C94.67904,119.84896 95.744,117.9648 96.27648,117.02272 C94.76096,116.10112 93.26592,115.17952 91.7504,114.2784 C95.00672,113.64352 97.9968,112.35328 100.74112,110.42816 C98.34496,108.78976 95.72352,107.7248 92.89728,107.23328 C92.75392,104.71424 92.69248,102.17472 92.65152,99.6352 C96.62464,100.352 100.06528,98.11968 103.40352,96.3584 C103.40352,100.31104 104.52992,103.95648 106.8032,107.27424 L100.98688,106.06592 C104.01792,100.63872 97.19808,101.90848 94.63808,102.74816 C95.80544,109.54752 106.45504,106.06592 108.91264,112.68096 C103.36256,104.3456 112.82432,106.92608 113.5616,111.73888 C111.16544,112.96768 109.056,114.60608 107.27424,116.61312 C114.66752,119.11168 116.18304,108.60544 122.38848,107.88864 C121.73312,105.34912 119.97184,103.66976 117.06368,102.83008 C116.9408,104.38656 116.69504,107.49952 116.59264,109.056 C113.664,108.70784 112.20992,107.008 112.25088,103.936 C110.10048,104.01792 107.95008,104.07936 105.7792,104.1408 C107.1104,98.87744 106.53696,93.5936 102.76864,89.51808 C104.07936,90.05056 106.68032,91.11552 107.97056,91.648 C106.14784,89.47712 104.96,87.06048 104.42752,84.3776 Z M109.52704,99.14368 C110.83776,100.41344 110.83776,100.41344 109.52704,99.14368 Z M116.71552,102.48192 C120.19712,101.19168 120.29952,99.75808 117.06368,98.18112 C113.47968,99.69664 113.3568,101.13024 116.71552,102.48192 Z M100.9664,123.26912 C102.0928,124.47744 102.0928,124.47744 100.9664,123.26912 Z M101.00736,127.26272 C99.20512,128.94208 98.65216,130.88768 99.328,133.16096 C102.54336,134.8608 104.448,127.36512 101.00736,127.26272 Z M96.11264,135.96672 C95.00672,138.87488 100.06528,140.04224 102.01088,138.89536 C102.44096,136.35584 98.05824,134.656 96.11264,135.96672 Z M92.91776,143.44192 C92.24192,146.20672 93.32736,147.2512 96.13312,146.61632 C96.89088,143.79008 95.80544,142.7456 92.91776,143.44192 Z" id="Shape"></path>
                <path d="" id="Shape"></path>
                <path d="M131.4816,90.19392 C134.2464,89.41568 135.22944,90.46016 134.43072,93.32736 C131.60448,94.12608 130.62144,93.0816 131.4816,90.19392 Z" id="Shape"></path>
                <path d="M1.9456,102.8096 C2.78528,103.71072 4.44416,105.49248 5.28384,106.3936 L8.2944,103.87456 C7.39328,106.72128 7.5776,109.6704 7.7824,112.59904 C7.14752,112.3328 5.89824,111.77984 5.26336,111.5136 C9.25696,108.27776 3.05152,105.8816 1.9456,102.8096 Z" id="Shape"></path>
                <path d="M142.99136,115.22048 C145.87904,116.28544 155.19744,114.9952 145.69472,120.13568 C147.61984,121.97888 149.58592,123.78112 151.20384,125.93152 C147.53792,125.00992 144.0768,123.47392 140.88192,121.48736 C138.91584,121.9584 136.92928,122.42944 134.9632,122.94144 C136.86784,119.35744 143.48288,119.84896 142.99136,115.22048 Z" id="Shape"></path>
                <path d="M78.92992,119.27552 C84.8896,121.69216 79.21664,125.19424 75.96032,126.70976 C76.77952,125.952 78.41792,124.43648 79.23712,123.67872 C79.1552,122.5728 79.01184,120.38144 78.92992,119.27552 Z" id="Shape"></path>
            </g>
            <g id="#626165ff" transform="translate(6.144000, 51.200000)" fill="#626165">
                <path d="M2.43712,0.02048 C3.33824,0.02048 5.14048,0 6.0416,0 C5.89824,3.93216 5.91872,7.8848 6.00064,11.81696 L2.90816,12.84096 C4.79232,16.6912 6.30784,20.72576 6.28736,25.088 L4.52608,24.1664 C3.6864,23.71584 2.048,22.8352 1.20832,22.38464 C1.69984,14.9504 3.39968,7.65952 4.95616,0.38912 L2.62144,1.8432 L2.43712,0.02048 Z" id="Shape"></path>
                <path d="M9.216,20.62336 C10.28096,16.6912 6.47168,8.86784 12.0832,8.00768 C15.79008,9.6256 15.23712,14.11072 15.79008,17.38752 C15.23712,16.896 14.15168,15.91296 13.6192,15.44192 C12.82048,13.70112 11.96032,12.00128 11.01824,10.3424 C9.9328,13.08672 9.78944,15.85152 10.56768,18.65728 C11.81696,18.5344 14.336,18.3296 15.58528,18.2272 C14.17216,21.8112 13.5168,25.62048 13.18912,29.45024 C12.24704,26.7264 14.09024,21.99552 10.24,21.15584 L9.216,20.62336 Z" id="Shape"></path>
                <path d="M178.74944,20.39808 C179.5072,20.64384 181.0432,21.11488 181.80096,21.34016 C185.22112,28.5696 180.61312,36.41344 182.41536,43.99104 C181.4528,43.8272 179.5072,43.54048 178.54464,43.39712 C181.16608,44.52352 181.5552,46.16192 179.73248,48.3328 C180.4288,48.31232 181.80096,48.31232 182.49728,48.31232 C181.28896,50.8928 180.06016,53.47328 178.8928,56.09472 C179.13856,57.56928 179.65056,60.53888 179.9168,62.01344 C177.50016,61.35808 176.39424,59.8016 176.61952,57.36448 C177.21344,50.2784 177.82784,43.17184 177.27488,36.0448 C178.3808,35.28704 180.55168,33.77152 181.63712,33.01376 C179.77344,30.65856 176.92672,28.0576 181.02272,26.07104 C180.26496,24.18688 179.48672,22.28224 178.74944,20.39808 Z" id="Shape"></path>
                <path d="M127.42656,59.57632 C130.39616,60.7232 133.7344,62.01344 133.09952,65.9456 C133.632,68.62848 134.81984,71.04512 136.64256,73.216 C135.35232,72.68352 132.75136,71.61856 131.44064,71.08608 C129.6384,67.44064 128.32768,63.54944 127.42656,59.57632 Z" id="Shape"></path>
                <path d="" id="Shape"></path>
                <path d="" id="Shape"></path>
                <path d="" id="Shape"></path>
                <path d="M48.10752,113.664 C51.75296,114.54464 48.20992,121.05728 45.03552,119.00928 C45.13792,116.75648 46.16192,114.9952 48.10752,113.664 Z" id="Shape"></path>
                <path d="M33.60768,121.07776 C36.6592,119.93088 37.43744,120.832 35.90144,123.76064 C32.93184,124.86656 32.1536,123.96544 33.60768,121.07776 Z" id="Shape"></path>
                <path d="" id="Shape"></path>
            </g>
            <g id="#183585ff" transform="translate(36.864000, 73.728000)" fill="#183585">
                <path d="M2.02752,1.92512 C47.7184,1.7408 93.3888,1.04448 139.07968,0.53248 C139.03872,14.58176 138.42432,28.61056 137.97376,42.63936 C116.8384,36.41344 95.76448,30.04416 74.62912,23.7568 C71.59808,22.89664 68.44416,23.83872 65.49504,24.61696 C45.01504,30.57664 24.4736,36.31104 4.03456,42.37312 C3.35872,28.89728 2.80576,15.40096 2.02752,1.92512 Z M88.49408,4.42368 C87.69536,11.1616 87.53152,17.94048 87.59296,24.69888 C89.33376,24.8832 92.85632,25.23136 94.6176,25.41568 C94.43328,23.36768 94.06464,19.27168 93.88032,17.24416 C98.89792,20.7872 99.57376,29.2864 106.88512,29.51168 C107.1104,21.38112 107.04896,13.23008 107.17184,5.09952 C105.34912,5.14048 101.6832,5.24288 99.84,5.28384 C100.31104,8.17152 100.78208,11.07968 101.15072,13.98784 C96.41984,11.24352 95.62112,2.99008 88.49408,4.42368 Z M113.7664,9.19552 C112.06656,15.38048 112.0256,22.07744 113.17248,28.3648 C116.57216,34.03776 126.91456,36.72064 131.05152,30.49472 C132.13696,26.43968 132.17792,22.17984 132.4032,18.00192 C129.16736,18.08384 125.93152,18.14528 122.71616,18.24768 C122.83904,20.70528 123.904,22.60992 125.89056,24.00256 C125.89056,24.9856 125.89056,26.97216 125.89056,27.9552 C123.904,27.97568 121.97888,27.70944 120.09472,27.19744 C119.82848,21.25824 118.04672,14.2336 121.71264,9.07264 C125.99296,8.35584 127.34464,16.24064 132.1984,13.45536 C134.92224,2.80576 116.8384,-0.28672 113.7664,9.19552 Z M6.0416,5.69344 C9.0112,14.88896 11.73504,24.18688 14.336,33.50528 C18.59584,33.32096 24.28928,32.70656 25.84576,27.93472 C28.3648,20.41856 30.16704,12.67712 32.33792,5.05856 C30.22848,5.12 26.0096,5.2224 23.90016,5.28384 C22.56896,11.81696 21.4016,18.37056 19.84512,24.84224 C15.7696,19.21024 16.05632,11.8784 15.01184,5.30432 C12.00128,5.40672 9.0112,5.5296 6.0416,5.69344 Z M36.16768,4.95616 C36.0448,12.63616 35.92192,20.31616 35.47136,27.99616 C37.29408,27.58656 40.93952,26.78784 42.76224,26.37824 C43.35616,19.37408 43.27424,12.34944 43.23328,5.34528 C41.472,5.24288 37.94944,5.05856 36.16768,4.95616 Z M48.57856,5.12 C48.7424,11.5712 48.82432,18.0224 48.90624,24.4736 C53.67808,24.73984 56.77056,21.46304 58.14272,17.18272 C59.74016,18.65728 61.3376,20.13184 62.93504,21.6064 C64.6144,20.91008 67.97312,19.53792 69.65248,18.8416 C67.6864,16.65024 64.28672,15.33952 63.42656,12.34944 C65.1264,9.50272 68.1984,7.76192 69.87776,4.85376 C64.2048,3.62496 59.904,6.90176 56.25856,10.67008 C56.56576,5.44768 53.02272,4.58752 48.57856,5.12 Z M74.73152,4.93568 C74.8544,10.07616 74.99776,15.19616 75.20256,20.33664 C77.70112,20.93056 80.1792,21.52448 82.67776,22.1184 C82.37056,16.4864 82.14528,10.8544 81.96096,5.20192 C80.15872,5.14048 76.53376,4.99712 74.73152,4.93568 Z" id="Shape"></path>
                <path d="M52.6336,143.23712 C59.71968,129.67936 81.3056,130.1504 89.7024,142.11072 C98.83648,153.02656 93.98272,171.90912 80.93696,177.3568 C75.07968,178.8928 68.87424,177.74592 62.89408,178.31936 L62.50496,178.4832 C62.38208,178.15552 62.11584,177.52064 61.97248,177.19296 L62.34112,176.90624 C50.09408,171.23328 44.66688,154.48064 52.6336,143.23712 Z M66.17088,139.83744 C66.08896,141.1072 65.92512,143.64672 65.8432,144.91648 C64.18432,145.26464 60.8256,145.96096 59.16672,146.30912 C61.62432,147.47648 69.3248,147.06688 65.72032,151.42912 C62.01344,151.4496 58.32704,151.20384 54.64064,151.08096 C54.35392,154.80832 54.39488,158.55616 54.6816,162.26304 C58.53184,162.0992 62.40256,161.8944 66.27328,161.792 C65.72032,164.70016 63.8976,165.82656 60.8256,165.10976 L60.35456,167.8336 C61.70624,167.87456 64.4096,167.99744 65.76128,168.0384 C65.80224,169.34912 65.90464,171.9296 65.9456,173.24032 C70.47168,173.21984 75.01824,173.21984 79.54432,173.28128 C79.62624,171.97056 79.79008,169.3696 79.872,168.05888 C81.14176,167.95648 83.70176,167.75168 84.97152,167.64928 C84.00896,164.41344 80.24064,164.22912 78.00832,162.26304 C81.5104,161.81248 85.03296,161.8944 88.55552,161.9968 C88.9856,158.12608 90.13248,153.68192 87.18336,150.48704 C85.2992,150.77376 81.53088,151.3472 79.64672,151.63392 C79.36,150.79424 78.76608,149.07392 78.47936,148.21376 C80.15872,147.8656 83.49696,147.18976 85.17632,146.8416 C83.7632,145.26464 81.94048,144.50688 79.72864,144.56832 C79.93344,136.62208 70.9632,140.94336 66.17088,139.83744 Z" id="Shape"></path>
            </g>
            <g id="#989aa2ff" transform="translate(20.480000, 77.824000)" fill="#989AA2">
                <path d="M8.3968,0.02048 C9.17504,0.2048 10.73152,0.55296 11.50976,0.7168 C9.07264,5.46816 12.00128,11.53024 10.48576,16.81408 C8.8064,20.80768 15.2576,26.13248 10.81344,28.81536 L10.21952,25.1904 C9.50272,25.8048 8.06912,27.01312 7.35232,27.60704 L6.02112,28.73344 C6.20544,28.11904 6.59456,26.89024 6.77888,26.27584 C9.9328,17.85856 7.33184,8.74496 8.3968,0.02048 Z" id="Shape"></path>
                <path d="M125.5424,37.39648 C128.43008,36.74112 129.49504,37.80608 128.69632,40.63232 C125.78816,41.2672 124.7232,40.18176 125.5424,37.39648 Z" id="Shape"></path>
                <path d="M3.05152,64.79872 C0.77824,62.6688 1.49504,55.21408 5.5296,56.81152 C6.144,59.57632 4.05504,62.09536 3.64544,64.75776 L3.05152,64.79872 Z" id="Shape"></path>
                <path d="M77.63968,72.704 C78.99136,70.26688 80.73216,68.096 82.86208,66.23232 C84.21376,68.17792 84.0704,72.00768 87.06048,72.23296 C86.016,73.54368 84.97152,74.83392 83.90656,76.14464 C83.23072,75.20256 81.85856,73.35936 81.18272,72.41728 C80.71168,72.56064 79.81056,72.82688 79.33952,72.97024 C78.76608,73.8304 77.63968,75.53024 77.06624,76.3904 L76.47232,77.33248 C74.73152,75.65312 72.99072,73.97376 71.31136,72.21248 C72.88832,72.33536 76.06272,72.58112 77.63968,72.704 Z" id="Shape"></path>
                <path d="" id="Shape"></path>
                <path d="M115.34336,82.20672 C118.784,82.30912 116.87936,89.8048 113.664,88.10496 C112.98816,85.83168 113.54112,83.88608 115.34336,82.20672 Z" id="Shape"></path>
                <path d="M30.69952,92.38528 C30.94528,97.23904 23.32672,92.63104 28.95872,91.70944 L30.69952,92.38528 Z" id="Shape"></path>
                <path d="" id="Shape"></path>
                <path d="" id="Shape"></path>
                <path d="M78.11072,121.20064 C80.19968,118.784 86.24128,121.22112 83.72224,124.5184 C81.65376,126.6688 76.1856,124.27264 78.11072,121.20064 Z" id="Shape"></path>
                <path d="M53.82144,126.976 C53.41184,124.2112 54.5792,123.06432 57.344,123.53536 C57.89696,126.42304 56.7296,127.56992 53.82144,126.976 Z" id="Shape"></path>
            </g>
        </g>
    </g>
</svg>