<?xml version="1.0" encoding="UTF-8" standalone="no"?>
<!-- Created with Inkscape (http://www.inkscape.org/) -->

<svg
   width="256"
   height="268"
   viewBox="0 0 67.733333 70.908336"
   version="1.1"
   id="svg5"
   inkscape:version="1.1 (c68e22c387, 2021-05-23)"
   sodipodi:docname="vindafjord-smaller.svg"
   xmlns:inkscape="http://www.inkscape.org/namespaces/inkscape"
   xmlns:sodipodi="http://sodipodi.sourceforge.net/DTD/sodipodi-0.dtd"
   xmlns="http://www.w3.org/2000/svg"
   xmlns:svg="http://www.w3.org/2000/svg">
  <sodipodi:namedview
     id="namedview7"
     pagecolor="#ffffff"
     bordercolor="#666666"
     borderopacity="1.0"
     inkscape:pageshadow="2"
     inkscape:pageopacity="0.0"
     inkscape:pagecheckerboard="0"
     inkscape:document-units="mm"
     showgrid="false"
     inkscape:zoom="0.69664703"
     inkscape:cx="239.00195"
     inkscape:cy="387.57073"
     inkscape:window-width="1920"
     inkscape:window-height="986"
     inkscape:window-x="-11"
     inkscape:window-y="-11"
     inkscape:window-maximized="1"
     inkscape:current-layer="g1258"
     units="px" />
  <defs
     id="defs2" />
  <g
     inkscape:label="Lag 1"
     inkscape:groupmode="layer"
     id="layer1">
    <g
       id="g1258"
       style="display:inline">
      <path
         style="display:inline;fill:#9c7953;stroke-width:0.0838283"
         d="M 0,35.375575 V 0 h 33.866667 33.86667 v 35.375575 35.37558 H 33.866667 0 Z m 34.852397,33.19083 c 0.19636,-0.0845 0.87536,-0.48991 1.50891,-0.90087 2.8134,-1.82493 4.9268,-2.80874 8.78028,-4.08729 2.07316,-0.68786 3.11016,-0.96169 5.53267,-1.46094 2.74568,-0.56587 3.85815,-0.90236 5.19127,-1.57023 2.25933,-1.13188 4.0073,-2.55435 5.63976,-4.58951 3.34614,-4.17161 4.58104,-7.42935 4.57661,-12.07341 -0.004,-4.01211 -0.9314,-8.17791 -3.15737,-14.17994 -1.14274,-3.08124 -1.4705,-4.43908 -1.65683,-6.864024 -0.28625,-3.725199 0.7638,-7.744788 2.85212,-10.917956 0.28153,-0.42777 0.51187,-0.810773 0.51187,-0.851118 0,-0.04034 -0.74503,-0.573447 -1.65562,-1.184674 -4.46871,-2.9996 -6.01891,-4.473001 -7.44712,-7.078192 -0.17693,-0.322739 -0.49167,-0.769276 -0.69941,-0.992303 -0.81315,-0.872959 -1.02615,-0.867345 -3.9804,0.104906 -5.33945,1.757227 -7.15311,1.788157 -12.83296,0.218849 -2.04664,-0.565472 -3.06774,-0.740832 -4.31717,-0.741413 -1.21823,-5.7e-4 -1.36018,0.0279 -3.63413,0.72875 -1.48778,0.458549 -3.07368,0.58671 -7.305471,0.590375 -2.708961,0.0023 -3.5947,-0.02587 -4.610561,-0.146909 C 16.492209,2.373129 15.194463,2.149358 13.930046,1.843058 13.36172,1.705383 12.885885,1.59274 12.872635,1.59274 c -0.01325,0 -0.131858,0.160321 -0.263574,0.35627 -2.50784,3.730822 -5.714353,6.864476 -8.669127,8.472144 -0.793959,0.431987 -1.599924,1.036089 -1.80995,1.356629 -0.210131,0.3207 -0.05349,0.586507 0.925256,1.570042 0.787209,0.791065 0.894825,0.939477 1.323409,1.825112 0.554812,1.146473 1.240285,2.953058 1.527033,4.02454 0.376647,1.407409 0.494996,2.481844 0.489301,4.442125 -0.0082,2.830483 -0.364713,5.041723 -1.706858,10.587353 -1.429037,5.90465 -1.799392,7.90771 -2.010306,10.87271 -0.181431,2.55053 0.140617,5.60697 0.768449,7.29307 0.625564,1.68002 2.040491,3.5743 3.804887,5.09393 1.987364,1.71166 4.159194,3.16244 6.370958,4.2558 2.497258,1.2345 4.094944,1.72132 8.257095,2.51597 3.935895,0.75144 5.454019,1.13434 7.202079,1.81646 0.862,0.33638 1.45648,0.7031 2.72396,1.68036 1.32094,1.01848 2.08996,1.2232 3.04715,0.81115 z m -1.7821,-2.66508 c -0.27663,-0.13152 -0.97714,-0.59641 -1.55669,-1.03308 -1.83888,-1.38556 -3.27847,-1.85431 -9.089515,-2.95967 -2.130471,-0.40525 -3.442156,-0.73191 -4.766601,-1.18707 -3.778474,-1.29851 -8.472197,-4.56538 -10.521153,-7.32283 -0.621407,-0.83627 -1.368453,-2.3289 -1.552352,-3.10165 -0.434153,-1.82432 -0.594879,-3.84639 -0.470152,-5.91491 0.154432,-2.56116 0.50303,-4.4827 1.768206,-9.74673 0.817741,-3.40239 1.240078,-5.42606 1.472542,-7.05585 0.209916,-1.47171 0.209544,-4.818739 -6.66e-4,-5.951813 C 8.082408,20.164214 7.496291,18.450466 6.700897,16.794462 6.246528,15.848466 6.154496,15.71923 5.417438,14.992152 4.558093,14.144441 4.41947,13.882125 4.647184,13.53459 4.839024,13.241804 5.61046,12.688171 6.55805,12.163224 c 2.371615,-1.31383 5.322754,-4.185195 7.393565,-7.193706 0.260798,-0.378893 0.506527,-0.708889 0.546063,-0.733323 0.03954,-0.02443 0.537716,0.06638 1.107069,0.201803 0.569351,0.135426 1.383941,0.306229 1.810198,0.379562 2.941048,0.505978 7.520273,0.590325 11.311162,0.208344 0.48406,-0.04878 1.21455,-0.214874 1.96997,-0.447935 2.88429,-0.889856 3.45849,-0.851998 8.78709,0.57936 2.57318,0.691202 5.03036,0.727747 7.50264,0.111582 0.36884,-0.09193 1.58223,-0.466276 2.69642,-0.831887 1.11418,-0.365611 2.1622,-0.664747 2.32893,-0.664747 0.7221,0 1.30706,0.537807 2.05635,1.890587 1.12088,2.023672 2.85136,3.634009 6.55204,6.09714 0.81324,0.541286 1.52171,1.036076 1.57437,1.099535 0.0752,0.09055 -0.003,0.263608 -0.36532,0.804227 -2.37857,3.553616 -3.2337,7.976166 -2.38992,12.360189 0.22313,1.15932 0.5062,2.09021 1.21227,3.98661 2.13559,5.73585 3.07792,10.14126 2.94969,13.78977 -0.14046,3.99605 -1.30582,6.89001 -4.24999,10.554 -1.32171,1.64485 -2.67144,2.8039 -4.44306,3.81538 -1.53314,0.87532 -2.67496,1.24951 -5.78416,1.89552 -4.92644,1.02359 -9.4599,2.77872 -12.72812,4.9277 -0.63001,0.41425 -1.33409,0.84158 -1.56462,0.9496 -0.58501,0.27415 -1.12362,0.26154 -1.76039,-0.0412 z m 3.44652,-2.87455 c 2.76306,-1.66005 4.29142,-2.22293 9.78537,-3.60391 3.19736,-0.8037 4.72629,-1.26721 5.99808,-1.81838 3.477,-1.50686 6.07056,-4.17041 8.25818,-8.48105 1.22415,-2.41217 1.47456,-3.38473 1.47456,-5.72717 0,-3.15626 -0.47166,-5.50872 -2.17954,-10.87085 -1.75563,-5.51204 -2.14351,-7.51269 -2.07215,-10.688122 0.0595,-2.646034 0.4906,-4.356717 1.70654,-6.771258 0.30079,-0.597291 0.31536,-0.817046 0.0539,-0.812766 -0.24282,0.004 -1.18815,0.42337 -2.1503,0.953977 -0.87094,0.480316 -0.91185,0.515972 -1.3464,1.173597 -1.24611,1.885778 -1.72425,3.651755 -1.72425,6.368439 0,2.550693 0.29946,4.290893 1.67508,9.734213 1.47234,5.82603 1.71119,7.1654 1.71166,9.59835 3.1e-4,1.77195 -0.12594,2.61506 -0.59641,3.98185 -1.09297,3.17523 -3.63511,5.81679 -7.57774,7.87408 -2.39019,1.24721 -3.89482,1.81445 -6.82282,2.57215 -3.69181,0.95535 -4.79228,1.30928 -6.16138,1.98161 -0.96667,0.4747 -1.77563,1.2075 -1.91994,1.73916 -0.12349,0.45498 -0.11053,1.14616 0.0338,1.80231 0.0659,0.29968 0.12118,0.83723 0.1228,1.19455 0.003,0.57693 0.0204,0.64967 0.1592,0.64967 0.0859,0 0.79324,-0.3827 1.57178,-0.85045 z m -3.13505,0.26365 c 0.033,-0.20747 0.086,-1.06597 0.11771,-1.90778 l 0.0577,-1.53056 -0.34611,-0.32924 c -0.74175,-0.70561 -2.55264,-1.43373 -4.70944,-1.89357 -2.88968,-0.61608 -3.805352,-0.83397 -5.255428,-1.25055 -3.380318,-0.97109 -5.091998,-1.72623 -7.612225,-3.35826 -1.209783,-0.78342 -2.552503,-1.87047 -3.052479,-2.47126 -1.534719,-1.84415 -2.306696,-4.17808 -2.414062,-7.29846 -0.07406,-2.15237 0.15216,-3.8504 1.183179,-8.88111 1.02597,-5.00606 1.321063,-7.20464 1.322043,-9.849834 0.0011,-3.055408 -0.439009,-5.066134 -1.593835,-7.281179 -0.720099,-1.381205 -0.771861,-1.425334 -2.047874,-1.745846 -1.383814,-0.347589 -1.411418,-0.330481 -1.100477,0.682018 0.118981,0.387431 0.462078,1.235284 0.762437,1.884119 1.090399,2.355478 1.123459,2.505292 1.176003,5.329203 0.06718,3.610389 -0.193641,5.377309 -1.707623,11.568319 -1.518307,6.20869 -1.864192,8.4593 -1.764994,11.48449 0.05527,1.68569 0.198337,2.60417 0.569569,3.65669 1.264793,3.58596 4.293691,6.24803 9.84171,8.64978 3.131509,1.35564 5.792982,2.1086 9.388779,2.65617 2.809967,0.42791 3.971877,0.75339 4.935777,1.38263 1.04352,0.68121 1.5846,0.92633 1.98006,0.897 0.18014,-0.0134 0.218,-0.0685 0.26956,-0.39277 z M 16.087685,50.660545 c 0.674896,-0.39184 1.321917,-0.93291 2.876364,-2.40539 0.834353,-0.79035 2.991564,-2.75364 4.793804,-4.36287 1.802241,-1.60922 4.201004,-3.7621 5.330594,-4.78417 8.39283,-7.59397 16.75054,-14.930004 22.17261,-19.462149 2.46337,-2.059063 3.56271,-3.353748 3.56271,-4.195806 0,-1.308754 -3.77239,-5.055441 -5.09013,-5.055441 -0.54778,0 -1.92627,0.995709 -3.96334,2.862802 -0.57632,0.52823 -3.57528,3.20173 -6.66436,5.941109 -3.08907,2.739381 -6.65128,5.906065 -7.91601,7.037075 -1.26473,1.131 -2.4717,2.20726 -2.68214,2.39169 -0.77326,0.67763 -9.562658,8.57983 -10.861912,9.76549 -0.73769,0.6732 -1.850511,1.67232 -2.472937,2.22027 -2.61179,2.29927 -3.384919,3.10827 -3.603558,3.77075 -0.241083,0.73049 0.608071,3.24696 1.627313,4.82254 0.986168,1.52446 1.941853,2.00515 2.890992,1.4541 z m -0.286034,-4.69009 c -0.968218,-0.533 -1.816981,-1.02468 -1.886139,-1.09263 -0.11149,-0.10954 -0.09471,-0.15148 0.148022,-0.36999 0.15057,-0.13555 0.339184,-0.2458 0.419142,-0.24501 0.07996,6.3e-4 0.711112,0.32176 1.402567,0.71325 0.691454,0.39149 1.269426,0.6751 1.284383,0.63023 0.01496,-0.0449 -0.220705,-0.6668 -0.523692,-1.38206 -0.302986,-0.71526 -0.550884,-1.35453 -0.550884,-1.42059 0,-0.15028 0.490927,-0.57174 0.618309,-0.53081 0.05183,0.0166 0.458021,0.93298 0.902651,2.0363 0.582296,1.44493 0.78761,2.04525 0.734028,2.14623 -0.106404,0.20054 -0.49334,0.4889 -0.652597,0.48635 -0.07447,-10e-4 -0.927573,-0.43826 -1.89579,-0.97127 z m 2.643155,-2.46323 c -0.739098,-0.82974 -1.343815,-1.53941 -1.343815,-1.57705 0,-0.13024 0.486877,-0.53433 0.609344,-0.50574 0.179761,0.042 2.736886,2.93749 2.740622,3.10331 0.0035,0.15446 -0.37278,0.48809 -0.55046,0.48809 -0.06153,0 -0.716593,-0.67887 -1.455691,-1.50861 z m 1.287365,-1.08663 c -0.732512,-0.82802 -1.342931,-1.55787 -1.356486,-1.62189 -0.01355,-0.064 0.112418,-0.22096 0.279941,-0.34873 l 0.304586,-0.23232 0.642172,0.19063 c 0.353194,0.10484 0.90623,0.27352 1.22897,0.37483 0.824861,0.25892 1.047854,0.30663 1.047854,0.2242 0,-0.0395 -0.358366,-0.48312 -0.79637,-0.98585 -0.438003,-0.50273 -0.796369,-0.93933 -0.796369,-0.97021 0,-0.12994 0.522766,-0.48733 0.62557,-0.42767 0.139641,0.081 2.638662,2.87729 2.701814,3.02317 0.06969,0.16097 -0.389698,0.60275 -0.62677,0.60275 -0.111107,0 -0.767387,-0.17183 -1.4584,-0.38185 -0.691014,-0.21002 -1.297654,-0.3681 -1.348089,-0.35129 -0.05043,0.0168 0.223568,0.38669 0.608897,0.82196 0.385328,0.43526 0.756861,0.85804 0.825629,0.93952 0.113039,0.13394 0.102054,0.17213 -0.114524,0.39819 -0.131754,0.13752 -0.283885,0.25004 -0.338069,0.25004 -0.05418,0 -0.697844,-0.67747 -1.430356,-1.50548 z m 3.242732,-2.84955 c -0.740949,-0.82768 -1.34718,-1.56189 -1.34718,-1.63159 0,-0.14327 1.327814,-1.3342 1.716234,-1.53931 0.869435,-0.45911 2.168073,0.221 2.799233,1.46599 0.23086,0.45538 0.236271,1.09216 0.013,1.52981 -0.157914,0.30953 -1.589953,1.67996 -1.75549,1.67996 -0.04324,0 -0.684849,-0.67719 -1.425797,-1.50486 z m 2.101759,-0.0759 c 0.489028,-0.48903 0.534208,-0.80461 0.189056,-1.32058 -0.60335,-0.90195 -1.193558,-1.22306 -1.73641,-0.94471 -0.247254,0.12679 -0.727988,0.5882 -0.727988,0.69873 0,0.12467 1.664263,1.97372 1.77647,1.97372 0.05044,0 0.274931,-0.18322 0.498872,-0.40716 z m 2.124035,-1.1227 c -0.021,-0.0576 -0.359361,-0.96994 -0.75182,-2.02735 -0.39246,-1.05741 -0.713563,-1.97028 -0.713563,-2.02859 0,-0.1575 0.520992,-0.61666 0.700201,-0.61711 0.191228,-6.3e-4 3.994192,1.91999 3.994192,2.01704 0,0.10506 -0.52983,0.58042 -0.64743,0.58087 -0.0564,2.5e-4 -0.27442,-0.0831 -0.4845,-0.18518 -0.45012,-0.21869 -0.51668,-0.19295 -1.21538,0.47002 -0.28253,0.26808 -0.41675,0.45685 -0.3874,0.54488 0.27753,0.83255 0.27736,0.84706 -0.0135,1.10689 -0.29619,0.26465 -0.4216,0.30078 -0.48085,0.13853 z m 0.52155,-2.51034 c 0.15204,-0.14736 0.27638,-0.30769 0.27632,-0.35627 -1.7e-4,-0.10744 -1.060049,-0.69078 -1.129301,-0.62153 -0.07489,0.0749 0.381391,1.24573 0.485461,1.24573 0.0501,0 0.21548,-0.12057 0.36752,-0.26793 z m 1.73776,-1.99538 c -0.73457,-0.82987 -1.34706,-1.56171 -1.36108,-1.62632 -0.0309,-0.14209 1.89784,-1.89156 2.08726,-1.8933 0.16018,-0.002 0.41119,0.2577 0.41113,0.42451 -3e-5,0.0655 -0.30181,0.39513 -0.67063,0.73245 -0.36882,0.33733 -0.67058,0.64565 -0.67058,0.68516 0,0.13158 0.4322,0.58767 0.5569,0.58767 0.0676,0 0.38457,-0.22526 0.70446,-0.50058 0.31989,-0.27532 0.62905,-0.48119 0.68702,-0.45749 0.058,0.0237 0.1777,0.14177 0.26605,0.26238 l 0.16064,0.2193 -0.60074,0.53989 c -0.3304,0.29694 -0.60073,0.58714 -0.60073,0.6449 0,0.0578 0.22633,0.3614 0.50297,0.67477 0.27663,0.31336 0.50297,0.61883 0.50297,0.6788 0,0.0953 -0.49378,0.53671 -0.60039,0.53671 -0.0218,0 -0.64068,-0.67898 -1.37525,-1.50885 z m 3.6522,-1.15031 c -0.27529,-0.10345 -0.58679,-0.37811 -0.58679,-0.51741 0,-0.15983 0.33055,-0.51188 0.48062,-0.51188 0.0509,0 0.20411,0.064 0.34041,0.14224 0.23336,0.13392 0.26068,0.13381 0.46785,-0.002 0.42673,-0.27961 0.32339,-0.50558 -0.82783,-1.81025 -0.57632,-0.65314 -1.04785,-1.21655 -1.04785,-1.25202 0,-0.11143 0.46447,-0.51505 0.59138,-0.5139 0.12347,0.001 1.78407,1.85055 2.16513,2.41134 0.28011,0.4122 0.28627,0.9716 0.0149,1.35267 -0.42697,0.59962 -1.09174,0.89132 -1.59785,0.70114 z m 2.51486,-2.63203 c -0.91936,-0.27585 -1.75873,-1.39126 -1.75879,-2.33719 -8e-5,-1.07275 1.01474,-2.03946 2.14374,-2.04211 0.58887,-0.001 1.04286,0.21931 1.55689,0.75684 0.49812,0.5209 0.69932,0.98992 0.69517,1.62058 -0.004,0.6249 -0.14106,0.94101 -0.61141,1.41137 -0.55392,0.55391 -1.36222,0.78955 -2.0256,0.59051 z m 1.43494,-1.15373 c 0.2907,-0.2907 0.32545,-0.36992 0.32545,-0.74188 0,-0.44365 -0.20648,-0.81255 -0.72901,-1.30247 -0.61299,-0.57474 -1.4309,-0.40951 -1.83428,0.37054 -0.17457,0.33758 -0.0988,0.74526 0.22649,1.21799 0.36303,0.52765 0.77736,0.78127 1.27635,0.78127 0.36397,0 0.44577,-0.0362 0.735,-0.32545 z m 1.08862,-2.78705 c -0.74248,-0.83587 -1.34997,-1.569166 -1.34997,-1.629554 0,-0.150122 1.59535,-1.571257 1.95598,-1.742391 0.53138,-0.252157 1.00857,-0.131365 1.42199,0.359953 0.28543,0.339225 0.34356,0.661053 0.19651,1.087898 -0.13567,0.393759 -0.14765,0.381247 0.44929,0.468921 0.5191,0.07624 1.45024,0.397593 1.48647,0.513003 0.0164,0.0522 -0.12419,0.21678 -0.31237,0.36582 l -0.34215,0.27099 -0.87448,-0.21912 c -0.48097,-0.12052 -0.9524,-0.21913 -1.04764,-0.21913 -0.22254,0 -0.5864,0.23757 -0.5864,0.38287 0,0.0617 0.22634,0.36707 0.50297,0.6787 0.27663,0.31164 0.50297,0.6133 0.50297,0.67037 0,0.0948 -0.49869,0.53143 -0.60695,0.53143 -0.0254,0 -0.65373,-0.68389 -1.39622,-1.51976 z m 0.92343,-1.355118 c 0.55168,-0.502184 0.63645,-0.693392 0.43033,-0.970737 -0.26095,-0.351135 -0.50544,-0.322095 -1.02793,0.122103 -0.25315,0.215227 -0.47325,0.44718 -0.4891,0.515454 -0.0312,0.134321 0.46633,0.695608 0.6111,0.689448 0.0486,-0.002 0.26261,-0.16239 0.4756,-0.356268 z m 3.28691,-0.419789 c -0.71465,-0.743145 -2.37483,-2.655 -2.37483,-2.734846 0,-0.126385 1.49069,-1.37907 1.82521,-1.5338 0.57079,-0.264009 1.11437,-0.164554 1.79612,0.328621 0.50857,0.367903 1.04562,1.168399 1.12097,1.670848 0.10209,0.680801 -0.0543,0.993774 -0.90889,1.818813 -0.42146,0.406882 -0.82777,0.772699 -0.90293,0.812921 -0.10445,0.0559 -0.2354,-0.02956 -0.55565,-0.362557 z m 1.21409,-1.266649 c 0.19306,-0.209448 0.35102,-0.460832 0.35102,-0.558631 0,-0.452591 -0.69047,-1.373467 -1.21724,-1.623437 -0.40377,-0.191602 -0.67815,-0.116378 -1.17716,0.322726 l -0.41208,0.362613 0.50158,0.577042 c 0.27587,0.317374 0.68546,0.774024 0.9102,1.014781 0.46876,0.502178 0.49536,0.499754 1.04368,-0.09509 z m 2.34967,-3.676903 c -0.70736,-0.795162 -1.33711,-1.510422 -1.39943,-1.589468 -0.0989,-0.125384 -0.081,-0.176069 0.14025,-0.397289 0.13946,-0.139465 0.30593,-0.253571 0.36992,-0.253571 0.0966,0 0.99308,0.97076 2.57716,2.790555 l 0.27648,0.317619 -0.20017,0.214006 c -0.42077,0.449874 -0.37864,0.475706 -1.76421,-1.081852 z m 2.29121,0.08051 c -0.23301,-0.24802 -0.23013,-0.402431 0.0118,-0.629655 0.24802,-0.233002 0.40243,-0.230122 0.62966,0.01175 0.233,0.24802 0.23012,0.402431 -0.0118,0.629655 -0.24802,0.233002 -0.40243,0.230121 -0.62965,-0.01175 z m 1.17637,-1.252023 c -1.27417,-1.387544 -2.36459,-2.66668 -2.36459,-2.77383 0,-0.168692 0.41409,-0.488484 0.59213,-0.457291 0.0775,0.01358 0.6183,0.562235 1.20178,1.21924 0.58349,0.657005 1.09225,1.194554 1.13057,1.194554 0.0383,0 0.38621,-0.28183 0.7731,-0.626289 0.38688,-0.344458 0.74399,-0.627379 0.79359,-0.628712 0.1122,-0.003 0.45471,0.354105 0.45471,0.47411 0,0.09601 -2.08116,1.954488 -2.18868,1.954488 -0.036,0 -0.21268,-0.160321 -0.39261,-0.35627 z m 2.79086,-2.326238 -0.24094,-0.251485 0.24094,-0.251485 c 0.13252,-0.138317 0.28341,-0.251485 0.33531,-0.251485 0.0519,0 0.2028,0.113168 0.33532,0.251485 l 0.24094,0.251485 -0.24094,0.251485 c -0.13252,0.138317 -0.28341,0.251486 -0.33532,0.251486 -0.0519,0 -0.20279,-0.113169 -0.33531,-0.251486 z m -29.926969,1.56787 c 0.526056,-0.297929 0.731445,-0.75509 0.778528,-1.732867 0.05027,-1.043861 -0.104919,-1.632874 -0.528097,-2.00443 -0.355886,-0.312472 -0.587514,-0.378644 -1.139678,-0.325589 -1.03342,0.0993 -1.51662,1.424736 -0.825197,2.263552 0.334274,0.405531 0.730017,0.533987 1.221317,0.396432 0.204837,-0.05735 0.396254,-0.08045 0.425372,-0.05133 0.07309,0.0731 -0.118712,0.685852 -0.246749,0.788273 -0.263386,0.210691 -0.472203,0.198326 -0.724631,-0.04291 -0.202537,-0.193555 -0.308017,-0.232926 -0.548749,-0.204821 -0.245582,0.02867 -0.298016,0.06892 -0.298016,0.228759 0,0.223958 0.366169,0.692797 0.621875,0.796241 0.336937,0.136305 0.917003,0.08522 1.264025,-0.111309 z m -1.047617,-2.2385 c -0.358524,-0.358525 -0.123,-1.173597 0.339124,-1.173597 0.271058,0 0.582988,0.369229 0.582988,0.690079 0,0.585276 -0.538163,0.867467 -0.922112,0.483518 z m 4.620097,2.247935 c 0.883448,-0.496526 0.868775,-1.91188 -0.02503,-2.414226 -0.326308,-0.183395 -0.580904,-0.193606 -1.053321,-0.04224 -0.163549,0.0524 -0.188613,0.03073 -0.188613,-0.163079 0,-0.28188 0.203097,-0.681649 0.380983,-0.749911 0.24162,-0.09272 0.37108,-0.0561 0.5568,0.157499 0.133978,0.154088 0.265681,0.209571 0.497469,0.209571 0.399988,0 0.453078,-0.09129 0.273355,-0.470025 -0.19057,-0.401597 -0.560376,-0.619037 -1.05348,-0.619431 -0.493376,-4.12e-4 -0.717251,0.08451 -1.023134,0.388017 -0.353201,0.350458 -0.48677,0.736917 -0.533761,1.544347 -0.04609,0.792015 0.100592,1.483368 0.393823,1.85615 0.386917,0.491886 1.194004,0.629817 1.774907,0.303332 z M 24.92755,16.919116 c -0.34646,-0.167759 -0.469881,-0.722042 -0.235338,-1.056899 0.172571,-0.246379 0.621654,-0.252774 0.839591,-0.01196 0.233748,0.25829 0.213038,0.804747 -0.03821,1.008195 -0.21879,0.177165 -0.306112,0.186523 -0.566044,0.06066 z m 4.308727,0.544908 c 0.36688,-0.273465 0.53477,-0.637456 0.53477,-1.159404 0,-1.017489 -0.73622,-1.558133 -1.72107,-1.263865 l -0.24211,0.07234 0.0573,-0.32635 c 0.0589,-0.335168 0.37464,-0.703578 0.60303,-0.703578 0.0687,0 0.22124,0.09636 0.33901,0.214132 0.16604,0.16603 0.28287,0.2084 0.52012,0.188614 0.28311,-0.02361 0.30466,-0.04432 0.28823,-0.277004 -0.0117,-0.165902 -0.11828,-0.3442 -0.31313,-0.523927 -0.25948,-0.239341 -0.35204,-0.272442 -0.76181,-0.272442 -0.53488,0 -0.84955,0.136631 -1.15746,0.502563 -0.29934,0.355744 -0.39003,0.749451 -0.38629,1.676975 0.005,1.115362 0.18458,1.557415 0.79222,1.944677 0.33462,0.213261 1.11617,0.173981 1.44717,-0.07273 z m -0.98446,-0.554536 c -0.58824,-0.297635 -0.45243,-1.233581 0.179,-1.233581 0.54507,0 0.77969,0.72385 0.36804,1.135493 -0.23583,0.235839 -0.2646,0.240996 -0.54704,0.09809 z m -9.189828,0.561873 c 0.06637,-0.172962 0.06637,-3.75326 0,-3.926221 -0.03206,-0.08356 -0.152404,-0.132599 -0.325364,-0.132599 -0.213,0 -0.322599,0.06309 -0.489302,0.281645 -0.118152,0.154905 -0.40555,0.404035 -0.638663,0.553623 -0.390163,0.250367 -0.423841,0.297928 -0.423841,0.598553 0,0.399879 0.160101,0.429601 0.622779,0.115619 0.170973,-0.116026 0.34599,-0.189245 0.388925,-0.16271 0.04308,0.02662 0.07807,0.665918 0.07807,1.426468 v 1.378221 h 0.368259 c 0.258473,0 0.383429,-0.03953 0.419142,-0.132599 z m -7.858407,-3.278254 c 0.269763,-0.230598 0.829982,-0.636844 1.244933,-0.90277 1.570103,-1.006219 3.10493,-2.416543 3.485559,-3.202818 0.301957,-0.62376 0.129891,-1.10219 -0.783875,-2.179562 C 14.909124,7.623719 14.650689,7.303666 14.575898,7.196728 L 14.439913,7.002295 13.865414,7.503953 c -0.315974,0.275911 -1.556217,1.463829 -2.756095,2.639816 -1.199878,1.175987 -2.473948,2.397171 -2.831266,2.71374 -0.357318,0.31657 -0.64967,0.601175 -0.64967,0.632457 0,0.111911 1.334124,0.860804 1.815021,1.018838 0.782537,0.25716 1.171676,0.187365 1.760178,-0.315697 z m 46.344605,-0.214975 c 0.18442,-0.09141 0.56021,-0.31839 0.83508,-0.504402 0.27487,-0.186013 0.70702,-0.433088 0.96032,-0.549055 l 0.46056,-0.210851 -0.49927,-0.454481 c -0.2746,-0.249965 -1.06511,-0.834478 -1.75669,-1.298916 -2.46325,-1.654213 -3.04949,-2.195023 -3.92297,-3.618948 -0.50734,-0.82706 -1.1298,-1.557321 -1.32743,-1.557321 -0.18262,0 -0.83081,0.789828 -1.1191,1.363634 -0.33916,0.675036 -0.43411,1.190351 -0.29627,1.607983 0.0745,0.225633 0.25533,0.416877 0.7175,0.758671 0.43854,0.324311 0.91436,0.81658 1.63888,1.695529 2.40192,2.913871 3.10466,3.365278 4.30939,2.768157 z M 26.070627,9.813324 c 2.55186,-0.329091 6.06461,-1.187104 6.37087,-1.556129 0.15559,-0.187472 0.13856,-1.684118 -0.0235,-2.068104 -0.21222,-0.502742 -0.36528,-0.532734 -1.23381,-0.241752 -1.75682,0.588591 -3.63604,0.840936 -6.706269,0.900533 -3.003807,0.05831 -5.510294,-0.10932 -7.60387,-0.508529 -0.33231,-0.06337 -0.624661,-0.09475 -0.64967,-0.06974 -0.102223,0.102223 -0.03186,0.423248 0.200368,0.914125 0.337728,0.713892 1.495864,2.370157 1.713659,2.450727 0.260241,0.09627 1.423396,0.265193 2.371128,0.344351 1.283744,0.107225 4.095218,0.02356 5.561125,-0.165481 z m 18.6099,-0.005 c 1.63856,-0.1202 3.91139,-0.515263 4.36693,-0.759062 0.28486,-0.152453 1.24957,-2.354797 1.24957,-2.852645 0,-0.210542 -0.009,-0.209396 -1.02125,0.129306 -3.36059,1.124525 -8.21436,0.900551 -14.72274,-0.679372 -0.73299,-0.177935 -0.7344,-0.176762 -0.81418,0.678424 -0.0713,0.764866 0.0798,1.894655 0.27263,2.038314 0.0784,0.05841 0.6,0.255013 1.15907,0.436901 2.69083,0.875419 6.21963,1.2495 9.50997,1.008131 z"
         id="path1268" />
    </g>
  </g>
</svg>
