<?xml version="1.0" encoding="UTF-8"?>
<svg width="256px" height="256px" viewBox="0 0 256 256" version="1.1" xmlns="http://www.w3.org/2000/svg" xmlns:xlink="http://www.w3.org/1999/xlink">
    <!-- Generator: Sketch 50.2 (55047) - http://www.bohemiancoding.com/sketch -->
    <title>logo/volda</title>
    <desc>Created with Sketch.</desc>
    <defs></defs>
    <g id="logo/volda" stroke="none" stroke-width="1" fill="none" fill-rule="evenodd">
        <g id="volda" transform="translate(40.000000, 0.000000)" fill="#010101" fill-rule="nonzero">
            <path d="M0.395876289,0.188872981 C59.5134021,0.197938144 118.630928,0.17814433 177.748454,0.197938144 C177.774845,54.8948454 177.735258,109.591753 177.768247,164.28866 C176.620206,187.493608 167.726186,210.573196 151.699794,227.576082 C149.661031,230.373608 146.889897,232.445361 144.395876,234.794227 C129.220619,248.042887 109.281649,255.973608 89.0721649,255.821856 C69.3509278,255.914227 49.8342268,248.425567 34.883299,235.625567 C12.6152577,216.973196 0.191340206,187.882887 0.402474227,159.010309 C0.395876289,106.068454 0.409072165,53.1331959 0.395876289,0.188872981 Z M8.70268041,8.47835052 C8.68948454,45.0045361 8.62350515,81.5307216 8.7356701,118.056907 C12.4503093,109.413608 17.3525773,101.212371 23.5150515,94.08 C36.803299,77.651134 56.2936082,66.1443299 77.2816495,63.1554639 C97.5373196,60.0478351 118.822268,65.2074227 135.732784,76.7010309 C145.227216,83.0548454 153.283299,91.4210309 159.894433,100.697732 C163.925773,106.20701 166.84866,112.38268 169.863918,118.472577 C169.943093,81.8078351 169.870515,45.1430928 169.903505,8.47835052 C116.169897,8.51793814 62.4362887,8.51134021 8.70268041,8.47835052 Z M90.985567,70.4989691 C90.9657732,82.0189691 91.0581443,93.5389691 91.0449485,105.052371 C94.6474227,105.032577 98.243299,105.197526 101.852371,105.210722 C101.733608,109.400412 102.037113,113.636289 101.291546,117.786392 C102.235052,117.76 103.178557,117.746804 104.12866,117.746804 C104.51134,102.617732 104.76866,87.4820619 105.250309,72.3529897 C100.578969,71.2445361 95.782268,70.6507216 90.985567,70.4989691 Z M72.1352577,72.4453608 C74.6226804,73.5274227 76.4305155,75.7047423 77.4136082,78.1921649 C80.4024742,85.3773196 80.2969072,93.334433 79.9802062,100.968247 C79.3534021,107.064742 78.1459794,114.117938 72.5905155,117.740206 C76.2787629,117.753402 79.9604124,117.687423 83.6486598,117.773196 C83.3385567,102.149278 83.1472165,86.5253608 82.8569072,70.9014433 C79.2214433,70.8882474 75.6915464,71.7987629 72.1352577,72.4453608 Z M55.8581443,78.2647423 C53.8853608,91.4078351 51.9389691,104.564124 49.5307216,117.641237 C46.9509278,117.588454 44.2457732,118.043711 41.7451546,117.350928 C39.0597938,109.882062 36.8824742,102.195464 33.9595876,94.7991753 C27.2890722,101.410309 21.8919588,109.281649 17.8342268,117.746804 C33.7484536,117.720412 49.6560825,117.733608 65.5703093,117.753402 C59.9290722,114.771134 57.5274227,108.272165 56.7884536,102.281237 C55.5942268,93.1628866 56.3068041,82.982268 62.2713402,75.5331959 C60.1204124,76.4107216 58.0420619,77.4531959 55.8581443,78.2647423 Z M122.042062,78.2647423 C124.99134,83.3121649 125.928247,89.2305155 125.88866,95.0037113 C125.816082,101.562062 125.341031,108.595464 121.316289,114.065155 C119.996701,116.070928 117.529072,116.631753 115.516701,117.654433 C118.413196,117.812784 121.322887,117.687423 124.225979,117.766598 C126.75299,106.728247 130.104742,95.894433 133.337732,85.0474227 C129.755052,82.5072165 126.060206,80.0659794 122.042062,78.2647423 Z M40.3463918,88.6828866 C41.9826804,94.5286598 43.4408247,100.427216 45.1694845,106.246598 C46.502268,98.4082474 47.4985567,90.5171134 48.3760825,82.6193814 C45.6445361,84.5657732 42.8008247,86.3802062 40.3463918,88.6828866 Z M67.5892784,83.4837113 C65.9397938,83.8795876 65.1348454,85.6214433 64.6070103,87.0861856 C63.5249485,90.4907216 63.6569072,94.1327835 63.8482474,97.6626804 C64.1253608,100.565773 64.428866,103.666804 66.0519588,106.174021 C67.0284536,107.724536 69.6016495,107.797113 70.611134,106.24 C72.3727835,103.765773 72.3134021,100.585567 72.3991753,97.6824742 C72.3463918,93.8952577 72.4981443,89.9892784 71.257732,86.3538144 C70.7298969,84.8362887 69.4828866,82.876701 67.5892784,83.4837113 Z M112.791753,83.3451546 C112.541031,91.1901031 112.118763,99.0284536 111.953814,106.873402 C113.550515,106.695258 115.813608,107.223093 116.717526,105.487835 C118.056907,102.875052 118.136082,99.8531959 118.340619,96.9896907 C118.36701,93.4927835 118.762887,89.7913402 117.337732,86.4923711 C116.592165,84.6053608 114.546804,83.9323711 112.791753,83.3451546 Z M142.541856,92.7010309 C143.934021,101.199175 146.322474,109.499381 148.73732,117.753402 C152.682887,117.694021 156.621856,117.79299 160.567423,117.694021 C159.77567,116.341443 158.950928,115.002062 158.244948,113.596701 C154.20701,105.82433 148.67134,98.9162887 142.541856,92.7010309 Z M137.250309,95.4523711 C136.405773,98.3686598 135.706392,101.331134 134.954227,104.273814 C136.234227,104.51134 137.514227,104.762062 138.787629,105.032577 C138.233402,101.845773 137.751753,98.6457732 137.250309,95.4523711 Z M133.08701,111.920825 C132.644948,113.880412 132.169897,115.826804 131.628866,117.76 C134.769485,117.720412 137.910103,117.733608 141.050722,117.740206 C140.674639,116.051134 140.311753,114.362062 140.041237,112.659794 C137.712165,112.494845 135.396289,112.244124 133.08701,111.920825 Z M17.6428866,117.98433 C9.85731959,134.822268 6.91463918,153.844124 9.49443299,172.219381 C12.1138144,192.989691 22.0964948,212.869278 37.5026804,227.094433 C51.7476289,240.131959 70.9146392,248.267216 90.3785567,247.48866 C66.1047423,204.338144 42.0024742,161.075464 17.6428866,117.98433 Z M160.455258,117.971134 C152.35299,133.443299 143.973608,148.763711 135.792165,164.189691 C131.305567,172.107216 127.406186,180.367835 122.65567,188.12701 C125.162887,184.729072 130.17732,183.449072 133.898557,185.547216 C135.666804,186.576495 136.425567,188.562474 137.039175,190.409897 C135.93732,190.746392 134.828866,191.076289 133.720412,191.379794 C133.047423,189.301443 131.411134,186.62268 128.851134,187.26268 C125.571959,188.377732 124.931959,192.065979 124.661443,195.068041 C127.729485,191.861443 133.496082,192.151753 136.036289,195.866392 C137.976082,198.934433 137.573608,203.209897 135.548041,206.159175 C132.308454,209.893608 125.308041,209.530722 122.833814,205.096907 C120.313402,200.392577 120.814845,194.75134 122.154227,189.769897 C111.55134,208.910515 101.53567,228.374433 90.9591753,247.528247 C113.444948,247.323711 135.099381,235.757526 148.974845,218.253196 C152.900619,214.063505 155.651959,208.983093 158.594639,204.100619 C165.317938,191.458969 169.157938,177.260206 169.593402,162.955876 C170.352165,158.990515 169.553814,155.011959 169.441649,151.04 C168.346392,139.632165 165.588454,128.263918 160.455258,117.971134 Z M31.7162887,126.04701 C51.1736082,161.101856 70.9872165,195.965361 90.451134,231.020206 C94.0865979,224.86433 97.2338144,218.437938 100.697732,212.189691 C116.123711,183.475464 131.536495,154.748041 146.962474,126.033814 C108.549278,126.04701 70.1294845,126.027216 31.7162887,126.04701 Z M128.917113,195.58268 C125.446598,196.077526 124.041237,200.649897 125.849072,203.421031 C126.851959,206.343918 131.305567,206.871753 132.875876,204.173196 C135.138969,201.072165 133.430103,194.896495 128.917113,195.58268 Z" id="Shape"></path>
            <path d="M15.6107216,15.571134 C19.2725773,15.5843299 22.934433,15.5513402 26.5962887,15.5843299 C26.6094845,21.0210309 26.5764948,26.457732 26.6160825,31.894433 C30.1261856,26.5105155 33.4647423,21.014433 36.902268,15.577732 C41.7253608,15.5975258 46.5484536,15.5051546 51.3715464,15.6371134 C47.4127835,21.5884536 43.1637113,27.3418557 39.0465979,33.1876289 C43.302268,42.7348454 47.6173196,52.2556701 51.8531959,61.8094845 C47.3534021,61.9084536 42.8470103,61.868866 38.3406186,61.8358763 C36.1369072,55.7393814 33.7814433,49.708866 31.5843299,43.6189691 C29.9480412,46.0536082 27.843299,48.2837113 26.6556701,50.9756701 C26.4907216,54.5979381 26.662268,58.2268041 26.5962887,61.8490722 C22.934433,61.862268 19.2725773,61.8754639 15.6107216,61.8490722 C15.577732,46.4230928 15.5843299,30.9971134 15.6107216,15.571134 Z" id="Shape"></path>
            <path d="M54.4857732,15.5975258 C63.2280412,15.5447423 71.9637113,15.571134 80.7059794,15.5909278 C80.745567,19.0812371 80.7521649,22.5781443 80.7191753,26.0750515 C75.6651546,26.0948454 70.611134,26.0750515 65.5505155,26.0816495 C65.5373196,28.4898969 65.5439175,30.8981443 65.5571134,33.3063918 C69.8391753,33.3129897 74.1278351,33.2931959 78.4098969,33.3129897 C78.4296907,36.6185567 78.4362887,39.9307216 78.4230928,43.2362887 C74.2136082,43.2626804 70.0107216,43.2230928 65.8012371,43.2428866 C65.1612371,49.3789691 65.7484536,55.6668041 65.5241237,61.862268 C61.8358763,61.868866 58.1476289,61.8556701 54.4593814,61.8490722 C54.4857732,46.4296907 54.4395876,31.0169072 54.4857732,15.5975258 Z" id="Shape"></path>
            <path d="M85.6412371,15.5975258 C89.2964948,15.571134 92.9583505,15.5645361 96.6202062,15.5843299 C96.7125773,25.1249485 96.6070103,34.665567 96.6729897,44.2061856 C96.6334021,46.8123711 97.5637113,49.8210309 100.077526,51.0218557 C101.872165,51.5892784 104.082474,51.4243299 105.454845,50.0057732 C107.10433,48.323299 107.348454,45.8160825 107.355052,43.5793814 C107.368247,34.243299 107.308866,24.9138144 107.381443,15.577732 C111.043299,15.5645361 114.705155,15.571134 118.36701,15.577732 C118.426392,24.4585567 118.373608,33.3459794 118.4,42.2268041 C118.452784,47.9934021 117.331134,54.182268 113.392165,58.6226804 C110.548454,62.0074227 105.817732,62.8123711 101.628041,62.7331959 C97.9793814,62.3901031 93.9150515,61.9876289 91.2362887,59.196701 C86.6837113,54.8420619 85.7863918,48.2045361 85.6280412,42.2136082 C85.6214433,33.3393814 85.6082474,24.4651546 85.6412371,15.5975258 Z" id="Shape"></path>
            <path d="M124.443711,15.577732 C129.174433,15.5645361 133.911753,15.577732 138.642474,15.577732 C140.357938,24.2804124 141.802887,33.0358763 143.703093,41.6923711 C144.903918,34.3884536 146.408247,27.1373196 147.714639,19.8465979 C148.044536,18.4148454 148.051134,16.8445361 148.882474,15.571134 C153.481237,15.5579381 158.086598,15.577732 162.685361,15.577732 C162.744742,30.9971134 162.711753,46.4230928 162.705155,61.8490722 C159.643711,61.8820619 156.588866,61.8754639 153.527423,61.8292784 C153.468041,51.6882474 153.705567,41.5472165 153.388866,31.4061856 C151.614021,41.5538144 149.522474,51.6486598 147.813608,61.8094845 C145.029278,61.8820619 142.244948,61.8754639 139.460619,61.8424742 C137.514227,51.6750515 135.640412,41.4878351 133.746804,31.3072165 C133.337732,41.4812371 133.713814,51.6684536 133.548866,61.8490722 C130.513814,61.862268 127.485361,61.868866 124.450309,61.8556701 C124.377732,46.4296907 124.397526,31.0037113 124.443711,15.577732 Z" id="Shape"></path>
            <path d="M23.9043299,190.548454 C26.7942268,189.275052 29.4070103,187.32866 31.0630928,184.597113 C31.8746392,184.583918 32.6861856,184.570722 33.497732,184.564124 C33.5241237,192.435464 33.4779381,200.306804 33.5175258,208.184742 C32.3562887,208.178144 31.1950515,208.178144 30.0338144,208.178144 C30.0602062,202.200412 29.974433,196.22268 30.08,190.244948 C28.2523711,191.670103 26.1872165,192.752165 24.0296907,193.583505 C23.9769072,192.567423 23.9373196,191.557938 23.9043299,190.548454 Z" id="Shape"></path>
            <path d="M41.7385567,187.539794 C44.7604124,183.04 52.5525773,183.732784 54.9938144,188.483299 C56.7026804,191.590928 56.0758763,195.246186 56.1814433,198.637526 C56.214433,202.009072 54.9410309,205.750103 51.9257732,207.564536 C47.788866,210.296082 40.4849485,208.098969 40.7224742,202.43134 C41.7649485,202.484124 42.8140206,202.490722 43.843299,202.662268 C44.6812371,204.483299 46.3571134,206.72 48.6531959,205.82268 C51.8927835,205.05732 52.5591753,201.349278 52.902268,198.545155 C50.3818557,199.990103 47.2148454,201.223918 44.4305155,199.706392 C39.8647423,197.766598 38.9212371,191.307216 41.7385567,187.539794 Z M46.5418557,187.71134 C43.3880412,189.281649 42.8734021,194.388454 45.6049485,196.565773 C47.1554639,198.413196 50.2696907,197.839175 51.5364948,195.978557 C52.9946392,193.788041 52.8164948,191.003711 51.5298969,188.773608 C50.1773196,187.625567 48.2309278,186.635876 46.5418557,187.71134 Z" id="Shape"></path>
            <path d="M149.476289,185.052371 C150.479175,185.032577 151.482062,185.025979 152.491546,185.019381 C152.445361,189.829278 152.471753,194.645773 152.478351,199.45567 C153.474639,199.442474 154.484124,199.435876 155.48701,199.429278 C155.500206,200.445361 155.513402,201.461443 155.533196,202.484124 C154.510515,202.484124 153.494433,202.477526 152.484948,202.46433 C152.471753,204.371134 152.471753,206.27134 152.484948,208.178144 C151.317113,208.178144 150.14268,208.184742 148.974845,208.184742 C148.981443,206.284536 148.988041,204.38433 148.981443,202.484124 C145.464742,202.510515 141.941443,202.530309 138.424742,202.477526 C138.616082,201.18433 138.325773,199.68 139.26268,198.62433 C142.673814,194.11134 145.979381,189.512577 149.476289,185.052371 Z M142.132784,199.396289 C144.422268,199.45567 146.711753,199.449072 149.001237,199.442474 C149.001237,196.282062 148.955052,193.121649 148.994639,189.967835 C146.949278,193.28 144.428866,196.262268 142.132784,199.396289 Z" id="Shape"></path>
        </g>
    </g>
</svg>