<?xml version="1.0" encoding="UTF-8" ?>
<!DOCTYPE svg PUBLIC "-//W3C//DTD SVG 1.1//EN" "http://www.w3.org/Graphics/SVG/1.1/DTD/svg11.dtd">
<svg width="282pt" height="400pt" viewBox="0 0 282 400" version="1.1" xmlns="http://www.w3.org/2000/svg">
<g id="#fefefeff">
</g>
<g id="#010101ff">
<path fill="#010101" opacity="1.00" d=" M 6.60 5.29 C 96.20 5.30 185.80 5.27 275.40 5.30 C 275.44 88.20 275.38 171.10 275.43 254.00 C 273.69 289.17 260.21 324.15 235.92 349.92 C 232.83 354.16 228.63 357.30 224.85 360.86 C 201.85 380.94 171.63 392.96 141.00 392.73 C 111.11 392.87 81.53 381.52 58.87 362.12 C 25.12 333.85 6.29 289.76 6.61 246.00 C 6.60 165.76 6.62 85.53 6.60 5.29 M 19.19 17.85 C 19.17 73.21 19.07 128.57 19.24 183.93 C 24.87 170.83 32.30 158.40 41.64 147.59 C 61.78 122.69 91.32 105.25 123.13 100.72 C 153.83 96.01 186.09 103.83 211.72 121.25 C 226.11 130.88 238.32 143.56 248.34 157.62 C 254.45 165.97 258.88 175.33 263.45 184.56 C 263.57 128.99 263.46 73.42 263.51 17.85 C 182.07 17.91 100.63 17.90 19.19 17.85 M 143.90 111.85 C 143.87 129.31 144.01 146.77 143.99 164.22 C 149.45 164.19 154.90 164.44 160.37 164.46 C 160.19 170.81 160.65 177.23 159.52 183.52 C 160.95 183.48 162.38 183.46 163.82 183.46 C 164.40 160.53 164.79 137.59 165.52 114.66 C 158.44 112.98 151.17 112.08 143.90 111.85 M 115.33 114.80 C 119.10 116.44 121.84 119.74 123.33 123.51 C 127.86 134.40 127.70 146.46 127.22 158.03 C 126.27 167.27 124.44 177.96 116.02 183.45 C 121.61 183.47 127.19 183.37 132.78 183.50 C 132.31 159.82 132.02 136.14 131.58 112.46 C 126.07 112.44 120.72 113.82 115.33 114.80 M 90.66 123.62 C 87.67 143.54 84.72 163.48 81.07 183.30 C 77.16 183.22 73.06 183.91 69.27 182.86 C 65.20 171.54 61.90 159.89 57.47 148.68 C 47.36 158.70 39.18 170.63 33.03 183.46 C 57.15 183.42 81.26 183.44 105.38 183.47 C 96.83 178.95 93.19 169.10 92.07 160.02 C 90.26 146.20 91.34 130.77 100.38 119.48 C 97.12 120.81 93.97 122.39 90.66 123.62 M 190.97 123.62 C 195.44 131.27 196.86 140.24 196.80 148.99 C 196.69 158.93 195.97 169.59 189.87 177.88 C 187.87 180.92 184.13 181.77 181.08 183.32 C 185.47 183.56 189.88 183.37 194.28 183.49 C 198.11 166.76 203.19 150.34 208.09 133.90 C 202.66 130.05 197.06 126.35 190.97 123.62 M 67.15 139.41 C 69.63 148.27 71.84 157.21 74.46 166.03 C 76.48 154.15 77.99 142.19 79.32 130.22 C 75.18 133.17 70.87 135.92 67.15 139.41 M 108.44 131.53 C 105.94 132.13 104.72 134.77 103.92 136.99 C 102.28 142.15 102.48 147.67 102.77 153.02 C 103.19 157.42 103.65 162.12 106.11 165.92 C 107.59 168.27 111.49 168.38 113.02 166.02 C 115.69 162.27 115.60 157.45 115.73 153.05 C 115.65 147.31 115.88 141.39 114.00 135.88 C 113.20 133.58 111.31 130.61 108.44 131.53 M 176.95 131.32 C 176.57 143.21 175.93 155.09 175.68 166.98 C 178.10 166.71 181.53 167.51 182.90 164.88 C 184.93 160.92 185.05 156.34 185.36 152.00 C 185.40 146.70 186.00 141.09 183.84 136.09 C 182.71 133.23 179.61 132.21 176.95 131.32 M 222.04 145.50 C 224.15 158.38 227.77 170.96 231.43 183.47 C 237.41 183.38 243.38 183.53 249.36 183.38 C 248.16 181.33 246.91 179.30 245.84 177.17 C 239.72 165.39 231.33 154.92 222.04 145.50 M 214.02 149.67 C 212.74 154.09 211.68 158.58 210.54 163.04 C 212.48 163.40 214.42 163.78 216.35 164.19 C 215.51 159.36 214.78 154.51 214.02 149.67 M 207.71 174.63 C 207.04 177.60 206.32 180.55 205.50 183.48 C 210.26 183.42 215.02 183.44 219.78 183.45 C 219.21 180.89 218.66 178.33 218.25 175.75 C 214.72 175.50 211.21 175.12 207.71 174.63 M 32.74 183.82 C 20.94 209.34 16.48 238.17 20.39 266.02 C 24.36 297.50 39.49 327.63 62.84 349.19 C 84.43 368.95 113.48 381.28 142.98 380.10 C 106.19 314.70 69.66 249.13 32.74 183.82 M 249.19 183.80 C 236.91 207.25 224.21 230.47 211.81 253.85 C 205.01 265.85 199.10 278.37 191.90 290.13 C 195.70 284.98 203.30 283.04 208.94 286.22 C 211.62 287.78 212.77 290.79 213.70 293.59 C 212.03 294.10 210.35 294.60 208.67 295.06 C 207.65 291.91 205.17 287.85 201.29 288.82 C 196.32 290.51 195.35 296.10 194.94 300.65 C 199.59 295.79 208.33 296.23 212.18 301.86 C 215.12 306.51 214.51 312.99 211.44 317.46 C 206.53 323.12 195.92 322.57 192.17 315.85 C 188.35 308.72 189.11 300.17 191.14 292.62 C 175.07 321.63 159.89 351.13 143.86 380.16 C 177.94 379.85 210.76 362.32 231.79 335.79 C 237.74 329.44 241.91 321.74 246.37 314.34 C 256.56 295.18 262.38 273.66 263.04 251.98 C 264.19 245.97 262.98 239.94 262.81 233.92 C 261.15 216.63 256.97 199.40 249.19 183.80 M 54.07 196.04 C 83.56 249.17 113.59 302.01 143.09 355.14 C 148.60 345.81 153.37 336.07 158.62 326.60 C 182.00 283.08 205.36 239.54 228.74 196.02 C 170.52 196.04 112.29 196.01 54.07 196.04 M 201.39 301.43 C 196.13 302.18 194.00 309.11 196.74 313.31 C 198.26 317.74 205.01 318.54 207.39 314.45 C 210.82 309.75 208.23 300.39 201.39 301.43 Z" />
<path fill="#010101" opacity="1.00" d=" M 29.66 28.60 C 35.21 28.62 40.76 28.57 46.31 28.62 C 46.33 36.86 46.28 45.10 46.34 53.34 C 51.66 45.18 56.72 36.85 61.93 28.61 C 69.24 28.64 76.55 28.50 83.86 28.70 C 77.86 37.72 71.42 46.44 65.18 55.30 C 71.63 69.77 78.17 84.20 84.59 98.68 C 77.77 98.83 70.94 98.77 64.11 98.72 C 60.77 89.48 57.20 80.34 53.87 71.11 C 51.39 74.80 48.20 78.18 46.40 82.26 C 46.15 87.75 46.41 93.25 46.31 98.74 C 40.76 98.76 35.21 98.78 29.66 98.74 C 29.61 75.36 29.62 51.98 29.66 28.60 Z" />
<path fill="#010101" opacity="1.00" d=" M 88.58 28.64 C 101.83 28.56 115.07 28.60 128.32 28.63 C 128.38 33.92 128.39 39.22 128.34 44.52 C 120.68 44.55 113.02 44.52 105.35 44.53 C 105.33 48.18 105.34 51.83 105.36 55.48 C 111.85 55.49 118.35 55.46 124.84 55.49 C 124.87 60.50 124.88 65.52 124.86 70.53 C 118.48 70.57 112.11 70.51 105.73 70.54 C 104.76 79.84 105.65 89.37 105.31 98.76 C 99.72 98.77 94.13 98.75 88.54 98.74 C 88.58 75.37 88.51 52.01 88.58 28.64 Z" />
<path fill="#010101" opacity="1.00" d=" M 135.80 28.64 C 141.34 28.60 146.89 28.59 152.44 28.62 C 152.58 43.08 152.42 57.54 152.52 72.00 C 152.46 75.95 153.87 80.51 157.68 82.33 C 160.40 83.19 163.75 82.94 165.83 80.79 C 168.33 78.24 168.70 74.44 168.71 71.05 C 168.73 56.90 168.64 42.76 168.75 28.61 C 174.30 28.59 179.85 28.60 185.40 28.61 C 185.49 42.07 185.41 55.54 185.45 69.00 C 185.53 77.74 183.83 87.12 177.86 93.85 C 173.55 98.98 166.38 100.20 160.03 100.08 C 154.50 99.56 148.34 98.95 144.28 94.72 C 137.38 88.12 136.02 78.06 135.78 68.98 C 135.77 55.53 135.75 42.08 135.80 28.64 Z" />
<path fill="#010101" opacity="1.00" d=" M 194.61 28.61 C 201.78 28.59 208.96 28.61 216.13 28.61 C 218.73 41.80 220.92 55.07 223.80 68.19 C 225.62 57.12 227.90 46.13 229.88 35.08 C 230.38 32.91 230.39 30.53 231.65 28.60 C 238.62 28.58 245.60 28.61 252.57 28.61 C 252.66 51.98 252.61 75.36 252.60 98.74 C 247.96 98.79 243.33 98.78 238.69 98.71 C 238.60 83.34 238.96 67.97 238.48 52.60 C 235.79 67.98 232.62 83.28 230.03 98.68 C 225.81 98.79 221.59 98.78 217.37 98.73 C 214.42 83.32 211.58 67.88 208.71 52.45 C 208.09 67.87 208.66 83.31 208.41 98.74 C 203.81 98.76 199.22 98.77 194.62 98.75 C 194.51 75.37 194.54 51.99 194.61 28.61 Z" />
<path fill="#010101" opacity="1.00" d=" M 42.23 293.80 C 46.61 291.87 50.57 288.92 53.08 284.78 C 54.31 284.76 55.54 284.74 56.77 284.73 C 56.81 296.66 56.74 308.59 56.80 320.53 C 55.04 320.52 53.28 320.52 51.52 320.52 C 51.56 311.46 51.43 302.40 51.59 293.34 C 48.82 295.50 45.69 297.14 42.42 298.40 C 42.34 296.86 42.28 295.33 42.23 293.80 Z" />
<path fill="#010101" opacity="1.00" d=" M 69.26 289.24 C 73.84 282.42 85.65 283.47 89.35 290.67 C 91.94 295.38 90.99 300.92 91.15 306.06 C 91.20 311.17 89.27 316.84 84.70 319.59 C 78.43 323.73 67.36 320.40 67.72 311.81 C 69.30 311.89 70.89 311.90 72.45 312.16 C 73.72 314.92 76.26 318.31 79.74 316.95 C 84.65 315.79 85.66 310.17 86.18 305.92 C 82.36 308.11 77.56 309.98 73.34 307.68 C 66.42 304.74 64.99 294.95 69.26 289.24 M 76.54 289.50 C 71.76 291.88 70.98 299.62 75.12 302.92 C 77.47 305.72 82.19 304.85 84.11 302.03 C 86.32 298.71 86.05 294.49 84.10 291.11 C 82.05 289.37 79.10 287.87 76.54 289.50 Z" />
<path fill="#010101" opacity="1.00" d=" M 232.55 285.47 C 234.07 285.44 235.59 285.43 237.12 285.42 C 237.05 292.71 237.09 300.01 237.10 307.30 C 238.61 307.28 240.14 307.27 241.66 307.26 C 241.68 308.80 241.70 310.34 241.73 311.89 C 240.18 311.89 238.64 311.88 237.11 311.86 C 237.09 314.75 237.09 317.63 237.11 320.52 C 235.34 320.52 233.56 320.53 231.79 320.53 C 231.80 317.65 231.81 314.77 231.80 311.89 C 226.47 311.93 221.13 311.96 215.80 311.88 C 216.09 309.92 215.65 307.64 217.07 306.04 C 222.24 299.20 227.25 292.23 232.55 285.47 M 221.42 307.21 C 224.89 307.30 228.36 307.29 231.83 307.28 C 231.83 302.49 231.76 297.70 231.82 292.92 C 228.72 297.94 224.90 302.46 221.42 307.21 Z" />
</g>
</svg>
