<?xml version="1.0" encoding="UTF-8"?>
<svg width="64px" height="64px" viewBox="0 0 64 64" version="1.1" xmlns="http://www.w3.org/2000/svg" xmlns:xlink="http://www.w3.org/1999/xlink">
    <!-- Generator: Sketch 50 (54983) - http://www.bohemiancoding.com/sketch -->
    <title>logo/vs</title>
    <desc>Created with Sketch.</desc>
    <defs></defs>
    <g id="Page-1" stroke="none" stroke-width="1" fill="none" fill-rule="evenodd">
        <g id="Scoreboard-Desktop" transform="translate(-317.000000, -46.000000)" fill="#0288C7">
            <g id="logo/vs" transform="translate(317.000000, 46.000000)">
                <g id="vs">
                    <path d="M27.9838158,0.28947093 C29.8850874,0.0775368563 31.7990979,0.0268794435 33.7099237,0 C32.6122604,1.87845957 31.6016459,3.80964421 30.7927297,5.82456865 C30.493367,6.52033271 30.2831761,7.24814533 29.9763824,7.94080791 C29.316086,8.07934043 28.639866,8.1237949 27.9774464,8.25509064 C25.1706556,8.76786772 22.4753298,9.80272629 20.0305344,11.2366412 C21.035841,7.86740636 22.6589813,4.67185405 24.8097219,1.85571543 C25.1388086,1.43081346 25.4572795,0.954220245 25.9721409,0.725744975 C26.603775,0.447646117 27.3044111,0.382515158 27.9838158,0.28947093 Z" id="Shape" fill-rule="nonzero"></path>
                    <path d="M35.2956169,1.16467 C35.5489476,0.759253426 35.8002102,0.348678883 36.1321251,0 C41.6030336,0.713863275 46.8940257,2.85132672 51.2947413,6.17821843 C56.0449499,9.81252525 59.8169919,14.7538621 61.8870654,20.3698616 C62.1279881,21.0620614 62.4092368,21.74704 62.5343511,22.4732824 C62.1879602,22.1761833 61.8984395,21.8213148 61.6171907,21.4643832 C60.5180458,20.1253738 59.445785,18.7595429 58.2370357,17.5133769 C55.8505574,15.1118253 53.1114842,13.0568894 50.1097742,11.4816449 C45.0958949,8.84179499 39.4285259,7.46049018 33.7611568,7.45223743 C33.2555295,7.45533221 32.7499022,7.4759641 32.2442748,7.46874294 C33.0373549,5.26938383 34.0310315,3.13501516 35.2956169,1.16467 Z" id="Shape" fill-rule="nonzero"></path>
                    <path d="M20.0959774,2.13482719 C20.7245062,1.9079518 21.3393024,1.64152932 21.9847328,1.46564885 C21.572756,2.32944048 21.0266225,3.12142293 20.5861242,3.97168529 C19.0649789,6.67545717 17.8966547,9.57696447 17.1973504,12.5929502 C17.1413638,12.9332633 16.9554461,13.2319479 16.6744567,13.4369683 C11.6187612,17.6768322 8.53738551,24.0782567 8.34618599,30.6118517 C8.31449546,31.3184957 8.36731301,32.0272211 8.32188992,32.7328244 C8.07153475,32.0698904 7.98174492,31.3642871 7.8423066,30.6742945 C6.30003424,22.4516226 8.27541048,13.6742508 13.1314557,6.8242791 C13.7261813,5.94175464 14.4582325,5.14769077 15.3202148,4.51181524 C16.7557957,3.44716604 18.4279992,2.75821416 20.0959774,2.13482719 Z" id="Shape" fill-rule="nonzero"></path>
                    <path d="M7.2121127,11.7235979 C7.64280936,11.2203611 8.05522172,10.6953347 8.55499236,10.259542 C8.49302893,10.4795135 8.42801811,10.6974099 8.34878618,10.9111558 C7.25071287,13.7406955 6.25218737,16.6314537 5.7229587,19.6353104 C5.27804093,22.2946834 5.13989295,25.0080117 5.32273587,27.700588 C5.54722634,30.6504895 6.13943424,33.5682253 7.03434875,36.3822009 C7.81041536,38.812264 8.99584696,41.0773484 10.2107366,43.3030039 C10.4088164,43.64645 10.5926751,44.0002722 10.7480916,44.3665456 C8.78049863,44.758759 6.77328969,44.9185496 4.76912814,44.9465649 C4.0479144,44.9330761 3.32263749,44.9610913 2.60650272,44.8562935 C0.997485029,41.2703423 0.148281248,37.3409448 0.021306998,33.4032466 C-0.261083733,25.6118959 2.27027491,17.6939578 7.2121127,11.7235979 Z" id="Shape" fill-rule="nonzero"></path>
                    <path d="M45.9236641,12.2137405 C47.5438004,12.7635537 49.0584779,13.5919112 50.5338669,14.4524883 C56.2214034,17.8407511 60.7499274,23.1008732 63.383295,29.1851955 C64.2455756,31.292986 64.0501667,33.6387863 63.7172478,35.8380391 C63.5466528,36.7578589 63.4267192,37.6891115 63.1940896,38.5954198 C62.29769,37.2702557 61.5780889,35.8307637 60.674452,34.5076782 C59.4347944,32.6410157 57.9935244,30.9105072 56.398202,29.3421365 C56.0352997,28.9690118 55.4997346,28.6582479 55.4821581,28.0751756 C54.7377432,22.7630863 52.1043755,17.7503282 48.1837904,14.1136621 C47.4765963,13.4245767 46.6753164,12.8487799 45.9236641,12.2137405 Z" id="Shape" fill-rule="nonzero"></path>
                    <path d="M22.4859531,18.5648855 C22.6244092,18.6337386 22.7639063,18.7005053 22.9002803,18.7735314 C30.4685199,23.151965 38.0367594,27.5314419 45.60604,31.9098756 C46.1994233,32.26666 46.8219553,32.5754559 47.389313,32.9750128 C46.8021758,33.3933478 46.1546593,33.7125759 45.5394145,34.0829224 C38.2980563,38.2694018 31.0608622,42.4600542 23.820545,46.6465337 C23.3812331,46.9042113 22.9471264,47.1723213 22.4859531,47.389313 C22.4630505,38.6564399 22.48283,29.9225236 22.4765839,21.1886074 C22.484912,20.3143811 22.4588865,19.4391117 22.4859531,18.5648855 Z" id="Shape" fill-rule="nonzero"></path>
                    <path d="M55.8077644,31.7557252 C57.1039005,33.057408 58.1762139,34.570679 59.1712069,36.1181775 C60.2089296,37.6833084 61.1886619,39.3137828 61.799087,41.1081343 C61.9333806,41.5167901 62.1012475,41.9441154 62.0279965,42.3838871 C61.7472009,44.0755561 60.971961,45.6272035 60.1244875,47.090689 C59.7673888,47.6798172 59.4469156,48.293838 59.0450524,48.8549618 C58.2952468,47.7586442 57.6522657,46.5886855 56.8841474,45.503777 C55.9359537,44.0651842 54.849397,42.7323855 53.740458,41.4224051 C54.1585992,40.3074179 54.6245571,39.2059142 54.9195959,38.0463275 C55.4923781,36.0020114 55.7609652,33.8788683 55.8077644,31.7557252 Z" id="Shape" fill-rule="nonzero"></path>
                    <path d="M50.1858996,47.9698685 C51.076976,46.6956739 51.8283365,45.3309915 52.5807319,43.9694656 C53.6808645,45.1636943 54.6081634,46.5125939 55.4816459,47.8835894 C56.0974303,48.9021034 56.7018305,49.9364001 57.1603053,51.0401409 C56.8539655,51.5609719 56.4441325,52.0060456 56.0612077,52.4690065 C53.7771131,55.1804842 51.091465,57.5510543 48.0860229,59.4028979 C41.084709,63.7126428 32.3767924,65.1173082 24.4274809,63.0834369 C25.8287786,62.7456859 27.2673339,62.5952236 28.6789809,62.3006121 C37.3599893,60.7139189 45.1788994,55.3014854 50.1858996,47.9698685 Z" id="Shape" fill-rule="nonzero"></path>
                    <path d="M12.8886465,46.0323481 C13.0761039,45.9907029 13.267727,45.9622622 13.4562258,45.9236641 C13.883212,46.3533214 14.2331324,46.847986 14.6465801,47.2908479 C15.8619287,48.6153707 17.2157875,49.8230836 18.7071151,50.8479635 C19.4381988,51.3812262 20.2494727,51.7936159 21.0076336,52.286249 C18.0510143,53.0571944 14.9662991,53.307066 11.9128267,53.2420588 C10.9724156,53.2034607 10.0288802,53.1577525 9.09784187,53.0185963 C8.57400266,52.9373373 8.0522463,52.7392683 7.685663,52.3532877 C6.12143537,50.7717832 4.97482111,48.8581322 3.90839695,46.9383867 C6.92541921,47.0155828 9.95181434,46.7108613 12.8886465,46.0323481 Z" id="Shape" fill-rule="nonzero"></path>
                    <path d="M42.6549688,52.9685447 C43.4451019,52.621293 44.1616853,52.1406396 44.9465649,51.7862595 C43.9473407,52.8422713 42.7621411,53.7170198 41.5906007,54.5846399 C38.7358246,56.5978851 35.5500752,58.1875036 32.1762489,59.2027821 C27.6771134,60.5439272 22.8764244,60.9054356 18.2154798,60.2883256 C16.4797087,59.9492205 14.9414708,59.0143904 13.5419266,57.9991119 C12.5836801,57.2669302 11.6138757,56.5367851 10.7480916,55.699715 C11.8471331,55.67222 12.9461746,55.7221183 14.0452161,55.66 C17.3234279,55.4991033 20.585879,54.9430933 23.7064845,53.9502181 C24.0542691,53.8168164 24.4146623,53.9451265 24.7466863,54.0601981 C30.5529037,56.0164167 37.1429499,55.5948267 42.6549688,52.9685447 Z" id="Shape" fill-rule="nonzero"></path>
                </g>
            </g>
        </g>
    </g>
</svg>