<?xml version="1.0" encoding="UTF-8"?>
<svg width="256px" height="256px" viewBox="0 0 256 256" version="1.1" xmlns="http://www.w3.org/2000/svg" xmlns:xlink="http://www.w3.org/1999/xlink">
    <!-- Generator: Sketch 50.2 (55047) - http://www.bohemiancoding.com/sketch -->
    <title>logo/øksil</title>
    <desc>Created with Sketch.</desc>
    <defs></defs>
    <g id="logo/øksil" stroke="none" stroke-width="1" fill="none" fill-rule="evenodd">
        <g id="oksil" transform="translate(0.000000, 6.000000)" fill-rule="nonzero">
            <g id="#000000ff" fill="#000000">
                <path d="M28.6550276,0.127456647 C94.4229834,0.0849710983 160.190939,0.0708092486 225.958895,0.127456647 C235.505856,15.8612717 245.491271,31.3260116 254.769503,47.2156069 C249.083757,49.0424855 243.016133,50.5861272 238.377017,54.5939306 C230.767735,60.8817919 226.765083,70.9083815 227.302541,80.7083815 C227.882431,103.367341 227.755138,126.026301 227.825856,148.699422 C228.405746,164.659827 223.130166,180.421965 214.870276,193.93237 C204.927293,210.416763 190.33105,224.153757 172.976796,232.509249 C162.340773,237.550867 150.912707,240.86474 139.258343,242.32341 C132.22895,242.946532 125.171271,242.93237 118.156022,242.266763 C92.0609945,239.349422 67.0691713,226.263873 50.5493923,205.715029 C39.6304972,191.978035 31.8656354,175.394509 29.6592265,157.904624 C28.9944751,131.705202 28.838895,105.491618 28.4570166,79.2780347 C27.8771271,72.5794798 26.6466298,65.3427746 21.8377901,60.2728324 C16.3641989,53.7300578 8.38718232,50.1754335 0.438453039,47.6687861 C9.88640884,31.85 19.1787845,15.9320809 28.6550276,0.127456647 Z M20.281989,40.7578035 C32.4455249,49.1274566 42.0066298,62.5812139 42.0632044,77.8052023 C41.9500552,100.98815 42.5299448,124.171098 42.6713812,147.354046 C44.9485083,186.001734 76.4322652,220.740751 114.690829,226.54711 C138.834033,230.753179 164.943204,224.139595 183.344088,207.697688 C201.645967,192.162139 213.10232,169.064162 214.403536,145.08815 C215.634033,122.72659 216.185635,100.322543 215.676464,77.932659 C215.535028,62.7936416 224.403094,48.7026012 237.203094,41.0127168 C232.040663,32.600578 227.203536,23.9901734 221.98453,15.6205202 C220.980331,13.6095376 218.307182,14.1901734 216.496796,13.9210983 C156.485304,13.949422 96.4738122,13.6945087 36.4764641,13.3121387 C30.6209945,22.1774566 25.3878453,31.4393064 20.281989,40.7578035 Z" id="Shape"></path>
                <path d="M90.2364641,84.6736994 C104.733702,74.1514451 123.643757,70.2286127 141.153591,73.7690751 C165.749392,78.2017341 186.88,98.6939306 191.363536,123.406358 C185.409061,123.363873 179.086851,124.624277 173.401105,122.443353 C166.697017,117.132659 166.55558,107.700867 166.074696,99.8693642 C160.728398,97.433526 155.594254,94.4028902 149.894365,92.816763 C144.548066,91.5705202 142.058785,86.1606936 138.650166,82.4078035 C133.346298,86.4580925 130.262983,92.4202312 127.038232,98.0991329 C123.573039,97.3768786 120.037127,96.8387283 116.685083,95.6491329 C114.224088,93.284104 113.333039,89.7719653 111.763094,86.8121387 C106.925967,91.7546243 101.325083,96.4988439 98.920663,103.211561 C97.5911602,106.341329 96.6859669,110.320809 92.9520442,111.39711 C88.3270718,113.08237 85.0740331,116.778613 81.8351381,120.304913 C77.6486188,125.063295 70.7748066,123.618786 65.2022099,124.595954 C67.4369061,108.550578 77.3516022,94.1621387 90.2364641,84.6736994 Z" id="Shape"></path>
            </g>
            <g id="#f7f048ff" transform="translate(19.801105, 12.745665)" fill="#F7F048">
                <path d="M0.480883978,28.0121387 C5.58674033,18.6936416 10.8198895,9.43179191 16.6753591,0.566473988 C76.6727072,0.948843931 136.684199,1.20375723 196.695691,1.17543353 C198.506077,1.44450867 201.179227,0.863872832 202.183425,2.87485549 C207.402431,11.2445087 212.239558,19.8549133 217.401989,28.267052 C204.601989,35.9569364 195.733923,50.0479769 195.875359,65.1869942 C196.38453,87.5768786 195.832928,109.980925 194.602431,132.342486 C193.301215,156.318497 181.844862,179.416474 163.542983,194.952023 C145.142099,211.393931 119.032928,218.007514 94.8897238,213.801445 C56.6311602,207.995087 25.1474033,173.256069 22.8702762,134.608382 C22.7288398,111.425434 22.1489503,88.2424855 22.2620994,65.0595376 C22.2055249,49.8355491 12.6444199,36.3817919 0.480883978,28.0121387 Z M145.976575,11.782659 C145.92,25.2647399 145.877569,38.732659 145.934144,52.2147399 C148.579006,52.2147399 151.223867,52.2147399 153.868729,52.200578 C153.897017,38.732659 153.981878,25.2789017 153.798011,11.8109827 C151.181436,11.8109827 148.579006,11.7968208 145.976575,11.782659 Z M165.19779,11.8393064 C164.646188,25.3072254 164.999779,38.8176301 165.056354,52.299711 C174.476022,52.1297688 183.923978,52.7528902 193.343646,52.1297688 C193.301215,50.0763006 193.272928,48.0228324 193.244641,45.9693642 C186.469834,46.0543353 179.680884,46.1251445 172.920221,45.7710983 C172.934365,34.4699422 173.231381,23.1546243 172.736354,11.8534682 C170.218785,11.8534682 167.715359,11.8534682 165.19779,11.8393064 Z M24.7655249,32.5580925 C24.3836464,37.5147399 26.4769061,42.117341 28.358011,46.5641618 C27.1275138,48.8300578 26.038453,51.2234104 26.1798895,53.8716763 C27.9902762,52.6537572 29.758232,51.3650289 31.4979006,50.0621387 C36.8300552,52.8945087 42.9966851,55.3303468 49.0643094,53.4043353 C57.7626519,51.2942197 63.7878453,42.7971098 63.9858564,34.0026012 C64.6364641,28.8476879 61.9067403,24.3017341 60.2660773,19.6424855 C61.1146961,17.1216763 62.4866298,14.8132948 63.519116,12.3774566 C61.1571271,13.3263006 58.8658564,14.4309249 56.5887293,15.5780347 C51.7091713,13.4537572 46.4477348,11.0745665 41.0024309,12.2783237 C31.6110497,13.9210983 24.680663,23.1687861 24.7655249,32.5580925 Z M69.6291713,12.9864162 C69.5725967,26.2419075 69.558453,39.483237 69.7140331,52.7245665 C72.3306077,52.7953757 74.9471823,52.8236994 77.5779006,52.8520231 C77.9880663,46.4508671 75.9796685,38.6052023 81.92,34.1583815 C86.5449724,40.1346821 90.5334807,46.55 94.9038674,52.7104046 C97.9306077,52.6962428 100.957348,52.6395954 103.969945,52.5404624 C98.9065193,44.3407514 92.9379006,36.7358382 87.7330387,28.6210983 C92.7681768,23.3812139 98.1286188,18.4387283 102.654586,12.7315029 C98.8216575,12.9722543 93.9845304,11.499422 91.1558011,14.9124277 C86.6581215,19.3734104 82.5847514,24.2592486 78.0022099,28.6352601 C77.9032044,23.4095376 77.8466298,18.1696532 77.6344751,12.9297688 C74.9754696,12.9580925 72.3023204,12.9722543 69.6291713,12.9864162 Z M112.427845,14.9124277 C107.067403,18.2971098 105.865193,26.5959538 110.334586,31.1702312 C115.963757,36.2118497 124.435801,35.1921965 130.489282,39.3557803 C134.689945,43.9442197 127.363536,48.3202312 123.049724,47.4563584 C118.240884,48.0228324 115.214144,44.2274566 113.248177,40.4179191 C110.928619,40.4887283 108.623204,40.5878613 106.303646,40.6869942 C107.265414,44.1 108.043315,48.0086705 111.197348,50.132948 C117.505414,54.749711 126.514917,54.6930636 133.43116,51.5066474 C139.781657,48.6176301 142.256796,39.1150289 137.179227,33.9884393 C131.875359,29.0459538 123.940773,29.7540462 117.76,26.5534682 C114.959558,25.1939306 115.610166,20.4213873 118.38232,19.4017341 C122.625414,17.6739884 127.787845,18.2263006 130.701436,22.0358382 C132.723978,24.8682081 136.274033,24.2026012 139.300773,24.3583815 C138.225856,20.8320809 137.165083,16.8526012 133.813039,14.7708092 C127.547403,10.7063584 118.693481,10.9471098 112.427845,14.9124277 Z M70.4353591,71.9280347 C57.5504972,81.416474 47.6358011,95.8049133 45.401105,111.850289 C44.8495028,112.260983 43.7745856,113.08237 43.2229834,113.493064 L45.0050829,113.549711 C43.6897238,123.137283 43.4917127,133.008092 45.9809945,142.439884 C52.5295028,170.140462 79.1902762,191.199133 107.505856,191.86474 C130.758011,193.054335 153.882873,180.351156 165.805967,160.439595 C174.39116,146.447688 176.767293,129.439306 173.952707,113.393931 L172.594917,113.337283 C172.693923,112.643353 172.906077,111.283815 173.005083,110.604046 L171.562431,110.660694 C167.078895,85.9482659 145.948287,65.4560694 121.352486,61.0234104 C103.842652,57.482948 84.9325967,61.4057803 70.4353591,71.9280347 Z M29.4612155,107.049422 C28.6833149,109.995087 26.1233149,113.294798 28.0468508,116.29711 C30.4229834,120.248266 35.5712707,119.341908 39.4607735,119.922543 C39.8143646,116.495376 42.2046409,112.31763 39.2486188,109.442775 C36.7734807,106.681214 32.7425414,107.502601 29.4612155,107.049422 Z M183.061215,110.065896 C183.188508,111.326301 183.443094,113.861272 183.570387,115.121676 C184.220994,114.342775 185.508066,112.784971 186.158674,112.006069 C186.894144,112.430925 188.365083,113.252312 189.100552,113.677168 C188.534807,115.15 187.898343,116.594509 187.177017,118.010694 C184.843315,119.625145 182.057017,118.36474 179.596022,117.854913 C179.963757,115.192486 180.373923,112.530058 180.614365,109.853468 C178.874696,112.020231 176.314696,114.710983 177.884641,117.713295 C179.949613,123.618786 190.288619,122.386705 190.783646,116.098844 C190.543204,113.663006 189.793591,111.312139 189.241989,108.94711 C187.177017,109.315318 185.126188,109.683526 183.061215,110.065896 Z M25.5434254,123.066474 C27.6225414,124.100289 29.758232,125.020809 31.8939227,125.955491 C29.7158011,128.122254 27.5942541,130.359827 26.0950276,133.06474 C28.8106077,131.818497 31.398895,130.289017 33.9447514,128.717052 C36.0097238,129.793353 38.0605525,130.869653 40.1679558,131.846821 C38.8525967,129.651734 37.3533702,127.569942 35.8258564,125.516474 C37.3109392,124.482659 38.7818785,123.42052 40.2245304,122.315896 C35.3166851,121.990173 30.3664088,122.032659 25.5434254,123.066474 Z M178.73326,126.564451 C178.634254,127.088439 178.450387,128.108092 178.351381,128.617919 C182.212597,130.99711 186.582983,132.3 190.811934,133.82948 C189.241989,129.949133 189.185414,125.955491 191.207956,122.245087 C187.03558,123.618786 182.622762,124.468497 178.73326,126.564451 Z M27.3255249,141.278613 C27.679116,144.819075 31.2433149,145.442197 34.1286188,145.555491 C35.0903867,142.411561 35.118674,138.630347 37.9049724,136.406936 C37.8766851,139.083526 37.721105,141.760116 37.6645304,144.436705 C42.0632044,142.1 41.681326,135.28815 36.8159116,133.758671 C32.318232,134.551734 32.9688398,139.664162 31.9787845,143.048844 C31.3847514,142.680636 30.1825414,141.930058 29.5885083,141.56185 C30.0128177,139.083526 30.4229834,136.619364 30.7341436,134.126879 C28.8247514,136.067052 26.0667403,138.177168 27.3255249,141.278613 Z M187.162873,141.052023 C183.485525,140.655491 179.808177,140.287283 176.116685,140.216474 C179.638453,143.870231 184.998895,143.530347 189.609724,144.436705 C190.147182,141.33526 190.628066,138.219653 190.868508,135.089884 C189.482431,136.97341 188.280221,138.998555 187.162873,141.052023 Z M174.900331,153.486127 C179.016133,156.969942 182.184309,150.738728 185.847514,149.365029 C184.857459,152.409827 183.075359,155.058092 181.420552,157.763006 C183.923978,156.559249 187.233591,155.667052 187.672044,152.423988 C188.775249,149.818208 186.285967,147.835549 185.168619,145.767919 C182.212597,147.878035 179.468729,150.271387 176.512707,152.395665 C177.432044,149.634104 178.605967,146.957514 179.596022,144.224277 C176.300552,145.994509 172.679779,149.421676 174.900331,153.486127 Z M29.2066298,151.376012 C32.1767956,151.191908 35.1328177,150.767052 38.0746961,150.299711 C35.7127072,153.20289 33.478011,156.247688 32.0495028,159.731503 C36.9856354,158.754335 42.5299448,158.032081 46.0375691,153.995954 C43.0108287,154.321676 40.0265193,154.944798 37.0563536,155.65289 C39.4607735,152.693064 41.7237569,149.577457 43.0108287,145.966185 C38.1171271,146.787572 32.9829834,147.906358 29.2066298,151.376012 Z M160.714254,174.190751 C162.340773,173.79422 163.967293,173.397688 165.593812,172.972832 C168.49326,175.026301 171.463425,176.980636 174.70232,178.46763 C173.005083,174.785549 169.681326,172.378035 166.640442,169.885549 C168.153812,167.421387 169.69547,164.985549 171.293702,162.592197 C174.81547,164.206647 178.337238,165.891908 182.07116,166.954046 C179.072707,162.861272 173.146519,161.360116 172.906077,155.49711 C169.455028,162.124855 165.339227,168.327746 160.714254,174.190751 Z M35.2601105,164.178324 C36.9856354,166.996532 38.7677348,169.800578 40.8327072,172.406358 C40.521547,169.489017 40.0265193,166.614162 39.6729282,163.710983 C41.879337,165.353757 43.958453,167.13815 46.1082873,168.851734 C45.4435359,166.260116 44.7222099,163.668497 44.1140331,161.062717 C46.5467403,163.073699 48.8238674,165.268786 51.2990055,167.223121 C50.0685083,163.909249 48.4278453,160.77948 46.7164641,157.692197 C42.8269613,159.731503 39.0223204,161.898266 35.2601105,164.178324 Z M48.8238674,170.565318 C48.5409945,173.865029 49.559337,177.108092 49.7856354,180.407803 C47.4095028,178.269364 46.3345856,175.267052 45.1889503,172.392197 C41.5398895,177.065607 47.3387845,184.713006 52.600221,181.101734 C53.279116,177.603757 51.8506077,174.148266 51.5394475,170.692775 C53.4488398,172.859538 55.1460773,175.196243 56.9281768,177.462139 C58.88,172.732081 53.0103867,165.83526 48.8238674,170.565318 Z M152.638232,181.115896 C155.481105,184.373121 158.380552,187.602023 161.350718,190.774277 C164.052155,188.395087 166.682873,185.902601 168.747845,182.928613 C165.706961,184.245665 162.849945,186.327457 159.398895,186.270809 C160.827403,183.97659 162.383204,181.767341 163.896575,179.529769 C161.350718,180.577746 158.847293,181.710694 156.273149,182.716185 C157.814807,180.039595 159.554475,177.490462 161.110276,174.813873 C158.041105,176.584104 155.283094,178.779191 152.638232,181.115896 Z M142.46895,188.196821 C144.802652,192.105491 147.221215,196.014162 150.544972,199.158092 C150.389392,196.934682 150.106519,194.739595 150.021657,192.516185 C152.525083,191.156647 155.056796,193.649133 157.531934,194.116474 C155.636685,191.015029 153.996022,187.757803 151.832044,184.840462 C148.48,182.815318 145.29768,186.766474 142.46895,188.196821 Z M66.8145856,187.460405 C67.1681768,191.015029 69.798895,193.861561 70.9303867,197.203757 C68.0875138,195.589306 65.7255249,193.32341 63.2928177,191.170809 C63.7454144,194.428035 64.919337,198.195087 68.6674033,198.804046 C71.1425414,199.936994 72.7832044,197.246243 74.4662983,195.943353 C72.7266298,193.181792 70.9303867,190.448555 69.4170166,187.559538 C72.0335912,188.975723 74.4238674,190.760116 76.8707182,192.459538 C76.9697238,187.375434 70.520221,182.305491 66.8145856,187.460405 Z M74.7491713,203.052601 C76.559558,201.636416 78.2850829,200.106936 79.9823204,198.549133 C81.1138122,201.296532 82.358453,204.029769 84.3809945,206.267341 C84.2678453,203.307514 83.9142541,200.36185 83.5323757,197.416185 C85.2861878,196 87.04,194.555491 88.7230939,193.040173 C86.1772376,193.408382 83.6879558,194.017341 81.2269613,194.725434 C81.0713812,192.898555 80.8733702,191.057514 80.6187845,189.244798 C77.6203315,193.32341 75.6967956,198.095954 74.7491713,203.052601 Z M131.224751,192.870231 C132.639116,197.076301 134.308066,201.183237 136.118453,205.233526 C138.565304,204.100578 141.139448,203.137572 143.303425,201.480636 C146.004862,197.656936 143.246851,191.340751 138.565304,190.859249 C136.047735,191.227457 133.643315,192.119653 131.224751,192.870231 Z M92.4853039,194.597977 C87.0117127,195.688439 85.2720442,204.355491 90.2647514,207.159538 C94.0976796,209.736994 99.6702762,206.763006 99.9107182,202.188728 C100.985635,197.91185 96.8132597,193.521676 92.4853039,194.597977 Z M125.567293,193.507514 C126.118895,198.350867 125.722873,204.681214 130.503425,207.570231 C129.82453,202.670231 129.683094,196.934682 125.567293,193.507514 Z M113.10674,196.722254 C113.403757,201.12659 113.884641,205.530925 114.549392,209.892775 C118.07116,209.283815 121.607072,208.63237 124.987403,207.456936 C122.498122,207.046243 119.980552,206.777168 117.462983,206.536416 C117.109392,205.998266 116.416354,204.950289 116.062762,204.412139 C118.33989,203.661561 120.617017,202.910983 122.894144,202.132081 C120.362431,201.480636 117.816575,200.942486 115.270718,200.333526 C117.788287,198.931503 120.390718,197.68526 122.908287,196.269075 C119.626961,196.198266 116.359779,196.439017 113.10674,196.722254 Z M102.682873,197.118786 C102.583867,201.197399 102.414144,205.276012 102.258564,209.354624 C105.638895,209.453757 109.019227,209.524566 112.399558,209.354624 C110.179006,208.150867 107.83116,207.159538 105.455028,206.267341 C105.440884,203.095087 105.497459,199.908671 105.525746,196.736416 C104.818564,196.835549 103.390055,197.033815 102.682873,197.118786 Z" id="Shape"></path>
                <path d="M37.0563536,21.5260116 C41.0590055,17.2208092 47.6075138,18.6228324 52.161768,21.1861272 C46.6174586,28.3236994 40.3376796,34.8806358 33.8881768,41.2109827 C32.1767956,34.6540462 31.6959116,26.5817919 37.0563536,21.5260116 Z" id="Shape"></path>
                <path d="M36.3491713,44.3124277 C42.3177901,37.7979769 47.8055249,30.7736994 54.6227624,25.1231214 C57.0130387,31.8641618 56.758453,40.3612717 50.9171271,45.2895954 C46.6598895,49.0849711 40.3659669,47.7254335 36.3491713,44.3124277 Z" id="Shape"></path>
                <path d="M29.0369061,112.360116 C31.3140331,111.425434 33.5911602,110.504913 35.8541436,109.570231 C36.8724862,111.297977 39.0506077,112.85578 38.2585635,115.121676 C36.6037569,115.999711 34.7933702,117.260116 32.8274033,116.83526 C30.6351381,116.424566 30.1401105,113.932081 29.0369061,112.360116 Z" id="Shape"></path>
                <path d="M129.216354,121.083815 C130.446851,119.752601 133.233149,120.304913 133.714033,122.11763 C133.544309,124.95 127.915138,123.760405 129.216354,121.083815 Z" id="Shape"></path>
                <path d="M185.550497,126.436994 C187.813481,127.031792 186.14453,130.23237 184.263425,129.255202 C181.972155,128.646243 183.69768,125.55896 185.550497,126.436994 Z" id="Shape"></path>
                <path d="M57.1403315,133.645376 C58.3425414,132.030925 61.4682873,132.668208 61.6662983,134.764162 C61.4682873,137.879769 55.3865193,136.562717 57.1403315,133.645376 Z" id="Shape"></path>
                <path d="M151.817901,151.687572 C155.452818,149.60578 159.582762,148.954335 163.726851,148.798555 C163.726851,149.308382 163.740994,150.313873 163.740994,150.823699 C159.752486,151.036127 155.792265,151.390173 151.817901,151.687572 Z" id="Shape"></path>
                <path d="M149.583204,157.819653 C152.737238,156.969942 155.947845,156.41763 159.18674,155.964451 C159.257459,156.502601 159.384751,157.607225 159.45547,158.145376 C156.16,158.060405 152.86453,157.989595 149.583204,157.819653 Z" id="Shape"></path>
                <path d="M61.9916022,160.892775 C66.4609945,160.680347 70.958674,160.652023 75.4422099,160.836127 C71.1283978,162.917919 66.3478453,162.677168 61.9916022,160.892775 Z" id="Shape"></path>
                <path d="M146.740331,163.498555 C150.163094,162.025723 153.882873,162.139017 157.319779,163.512717 C153.798011,163.710983 150.262099,163.696821 146.740331,163.498555 Z" id="Shape"></path>
                <path d="M110.914475,171.641618 C114.860552,169.828902 119.259227,168.766763 123.474033,170.395376 C119.301657,171.004335 115.115138,171.415029 110.914475,171.641618 Z" id="Shape"></path>
                <path d="M145.622983,188.026879 C147.659669,187.616185 149.696354,187.219653 151.761326,186.879769 C150.530829,188.565029 149.272044,190.207803 147.956685,191.822254 C147.376796,190.87341 146.202873,188.975723 145.622983,188.026879 Z" id="Shape"></path>
                <path d="M134.491934,193.507514 C136.25989,193.521676 138.027845,193.620809 139.795801,193.804913 C141.592044,195.660116 141.323315,198.379191 141.705193,200.74422 C140.573702,200.970809 138.324862,201.409827 137.207514,201.636416 C136.30232,198.931503 135.36884,196.22659 134.491934,193.507514 Z" id="Shape"></path>
                <path d="M91.3962431,197.727746 C93.2490608,197.246243 95.1725967,197.359538 97.0678453,197.288728 C96.9405525,199.866185 97.6335912,202.81185 95.8514917,204.978613 C94.041105,205.247688 92.2307182,205.445954 90.4203315,205.545087 C90.4486188,202.925145 89.798011,200.036127 91.3962431,197.727746 Z" id="Shape"></path>
            </g>
            <g id="#d10539ff" transform="translate(43.845304, 24.075145)" fill="#D10539">
                <path d="M121.932376,0.453179191 C124.534807,0.46734104 127.137238,0.48150289 129.753812,0.48150289 C129.93768,13.949422 129.852818,27.4031792 129.82453,40.8710983 C127.179669,40.8852601 124.534807,40.8852601 121.889945,40.8852601 C121.83337,27.4031792 121.875801,13.9352601 121.932376,0.453179191 Z" id="Shape"></path>
                <path d="M141.153591,0.50982659 C143.67116,0.523988439 146.174586,0.523988439 148.692155,0.523988439 C149.187182,11.8251445 148.890166,23.1404624 148.876022,34.4416185 C155.636685,34.7956647 162.425635,34.7248555 169.200442,34.6398844 C169.228729,36.6933526 169.257017,38.7468208 169.299448,40.800289 C159.879779,41.4234104 150.431823,40.800289 141.012155,40.9702312 C140.95558,27.4881503 140.601989,13.9777457 141.153591,0.50982659 Z" id="Shape"></path>
                <path d="M0.721325967,21.2286127 C0.636464088,11.8393064 7.56685083,2.5916185 16.958232,0.948843931 C22.4035359,-0.254913295 27.6649724,2.12427746 32.5445304,4.24855491 C34.8216575,3.10144509 37.1129282,1.99682081 39.4749171,1.04797688 C38.4424309,3.48381503 37.0704972,5.79219653 36.2218785,8.31300578 C37.8625414,12.9722543 40.5922652,17.5182081 39.9416575,22.6731214 C39.7436464,31.4676301 33.718453,39.9647399 25.0201105,42.0748555 C18.9524862,44.0008671 12.7858564,41.5650289 7.45370166,38.732659 C5.71403315,40.0355491 3.94607735,41.3242775 2.13569061,42.5421965 C1.99425414,39.8939306 3.08331492,37.500578 4.31381215,35.2346821 C2.43270718,30.7878613 0.339447514,26.1852601 0.721325967,21.2286127 Z M13.0121547,10.1965318 C7.65171271,15.2523121 8.13259669,23.3245665 9.8439779,29.8815029 C16.2934807,23.5511561 22.5732597,16.9942197 28.1175691,9.8566474 C23.5633149,7.2933526 17.0148066,5.89132948 13.0121547,10.1965318 Z M12.3049724,32.982948 C16.321768,36.3959538 22.6156906,37.7554913 26.8729282,33.9601156 C32.7142541,29.0317919 32.9688398,20.5346821 30.5785635,13.7936416 C23.761326,19.4442197 18.2735912,26.4684971 12.3049724,32.982948 Z" id="Shape"></path>
                <path d="M45.5849724,1.65693642 C48.2581215,1.64277457 50.9312707,1.62861272 53.5902762,1.60028902 C53.8024309,6.84017341 53.8590055,12.0800578 53.958011,17.3057803 C58.5405525,12.9297688 62.6139227,8.04393064 67.1116022,3.58294798 C69.9403315,0.169942197 74.7774586,1.64277457 78.6103867,1.40202312 C74.0844199,7.10924855 68.7239779,12.0517341 63.6888398,17.2916185 C68.8937017,25.4063584 74.8623204,33.0112717 79.9257459,41.2109827 C76.9131492,41.3101156 73.8864088,41.366763 70.8596685,41.3809249 C66.4892818,35.2205202 62.5007735,28.8052023 57.8758011,22.8289017 C51.9354696,27.2757225 53.9438674,35.1213873 53.5337017,41.5225434 C50.9029834,41.4942197 48.2864088,41.465896 45.6698343,41.3950867 C45.5142541,28.1537572 45.5283978,14.9124277 45.5849724,1.65693642 Z" id="Shape"></path>
                <path d="M88.3836464,3.58294798 C94.6492818,-0.382369942 103.503204,-0.623121387 109.76884,3.44132948 C113.120884,5.52312139 114.181657,9.50260116 115.256575,13.0289017 C112.229834,12.8731214 108.679779,13.5387283 106.657238,10.7063584 C103.743646,6.89682081 98.5812155,6.34450867 94.3381215,8.07225434 C91.5659669,9.09190751 90.9153591,13.8644509 93.7158011,15.2239884 C99.8965746,18.4245665 107.83116,17.716474 113.135028,22.6589595 C118.212597,27.7855491 115.737459,37.2881503 109.386961,40.1771676 C102.470718,43.3635838 93.4612155,43.4202312 87.1531492,38.8034682 C83.999116,36.6791908 83.2212155,32.7705202 82.2594475,29.3575145 C84.5790055,29.2583815 86.8844199,29.1592486 89.2039779,29.0884393 C91.1699448,32.8979769 94.1966851,36.6933526 99.0055249,36.1268786 C103.319337,36.9907514 110.645746,32.6147399 106.445083,28.0263006 C100.391602,23.8627168 91.919558,24.8823699 86.2903867,19.8407514 C81.8209945,15.266474 83.0232044,6.96763006 88.3836464,3.58294798 Z" id="Shape"></path>
                <path d="M83.1929282,74.0239884 C86.4176796,68.3450867 89.5009945,62.382948 94.8048619,58.332659 C98.2134807,62.0855491 100.702762,67.4953757 106.049061,68.7416185 C111.74895,70.3277457 116.883094,73.3583815 122.229392,75.7942197 C122.710276,83.6257225 122.851713,93.0575145 129.555801,98.3682081 C135.241547,100.549133 141.563757,99.2887283 147.518232,99.3312139 L148.960884,99.2745665 C148.861878,99.9543353 148.649724,101.313873 148.550718,102.007803 C143.82674,101.738728 139.088619,101.724566 134.378785,101.951156 C135.241547,102.843353 136.104309,103.721387 136.981215,104.613584 C134.279779,104.556936 131.592486,104.514451 128.89105,104.514451 C129.82453,103.66474 130.743867,102.815029 131.677348,101.965318 C112.611713,100.719075 93.3763536,104.132081 74.3814365,101.413006 C91.7074033,100.761561 109.03337,100.124277 126.359337,99.4869942 C125.100552,97.4476879 123.841768,95.4083815 122.597127,93.3549133 C121.324199,94.8419075 120.065414,96.3289017 118.80663,97.815896 C118.368177,92.1228324 116.119337,86.882948 114.280663,81.5439306 C116.218343,81.416474 118.156022,81.3031792 120.093702,81.2040462 C119.966409,80.0286127 119.839116,78.8390173 119.711823,77.6635838 C115.638453,76.0916185 112.031823,73.6274566 108.312044,71.3898844 C105.992486,71.3049133 103.842652,72.3812139 101.692818,73.0609827 C99.7975691,69.1947977 98.1003315,64.9462428 94.4654144,62.3546243 C91.7781215,62.3121387 90.6890608,65.0736994 89.5717127,67.0563584 C86.9975691,72.2679191 84.239558,77.5361272 80.0530387,81.6713873 C75.8523757,86.4439306 72.0618785,92.4060694 72.2598895,99.0054913 C72.3447514,104.995954 71.0293923,111.680347 75.159337,116.693642 C74.2117127,116.849422 72.3023204,117.132659 71.3546961,117.274277 C73.1792265,118.308092 75.0179006,119.327746 76.8565746,120.361561 C77.3374586,118.081503 77.7759116,115.801445 78.2143646,113.521387 C81.481547,112.827457 84.7770166,112.176012 88.1290608,111.949422 C89.2039779,109.655202 90.3354696,107.389306 91.5659669,105.165896 C92.5560221,105.491618 94.521989,106.143064 95.5120442,106.468786 C95.4271823,108.706358 95.3140331,110.943931 95.2150276,113.181503 C97.8881768,112.643353 100.547182,112.048555 103.206188,111.439595 C100.773481,116.226301 99.0479558,121.296243 97.4214365,126.394509 C97.1809945,125.148266 96.7283978,122.65578 96.4879558,121.409538 C92.8530387,122.72659 89.1898343,123.916185 85.4841989,125.034971 C85.2296133,132.583237 85.1023204,140.131503 84.6072928,147.665607 C88.5958011,148.104624 92.598453,148.586127 96.5162431,149.520809 C92.7257459,149.619942 88.9635359,149.237572 85.201326,148.982659 C84.7487293,152.339017 84.3527072,155.709538 83.8718232,159.080058 C81.3401105,157.323988 78.9639779,155.355491 76.5878453,153.386994 C76.6585635,155.596243 76.8565746,157.805491 76.8,160.01474 C73.2075138,165.084682 67.6349171,168.228613 63.1513812,172.406358 C61.9633149,167.647977 60.8601105,162.747977 58.1303867,158.598555 C58.6112707,157.012428 59.120442,155.426301 59.6437569,153.854335 C60.6762431,157.309827 61.6238674,160.77948 62.8543646,164.178324 C63.9292818,162.493064 64.9900552,160.807803 66.0225414,159.122543 C67.3379006,159.080058 68.6674033,159.037572 69.9969061,158.995087 C69.8696133,156.757514 69.7423204,154.50578 69.5867403,152.268208 C67.2530387,153.528613 64.9334807,154.817341 62.5573481,155.992775 C64.4525967,153.939306 66.5034254,152.041618 68.5259669,150.115607 C67.9460773,147.552312 65.640663,144.77659 67.1964641,142.170809 C70.0959116,136.534393 73.7449724,131.336994 76.7434254,125.757225 C71.6517127,124.496821 66.56,123.222254 61.44,122.060983 C62.161326,124.79422 62.9533702,127.499133 63.6888398,130.23237 C59.6720442,130.048266 55.6552486,129.835838 51.6667403,129.340173 C54.000442,128.462139 56.3907182,127.754046 58.7809945,127.074277 C58.3142541,121.933526 58.3425414,116.764451 58.8375691,111.623699 C61.9633149,114.087861 65.3577901,116.169653 68.7239779,118.308092 C69.8837569,110.490751 70.3504972,102.602601 70.5343646,94.700289 C68.5542541,97.5184971 66.9418785,100.67659 64.438453,103.084104 C62.3734807,103.877168 60.1529282,104.146243 58.0030939,104.613584 C59.8134807,103.197399 61.6662983,101.852023 63.5474033,100.520809 C49.3330387,100.662428 35.161105,101.97948 20.960884,102.220231 L19.1787845,102.163584 C19.7303867,101.75289 20.8053039,100.931503 21.3569061,100.520809 C26.9295028,99.5436416 33.8033149,100.98815 37.9898343,96.2297688 C41.2287293,92.7034682 44.481768,89.0072254 49.1067403,87.3219653 C52.840663,86.2456647 53.7458564,82.266185 55.0753591,79.1364162 C57.479779,72.4236994 63.080663,67.6794798 67.9177901,62.7369942 C69.4877348,65.6968208 70.3787845,69.2089595 72.839779,71.5739884 C76.1918232,72.7635838 79.7277348,73.3017341 83.1929282,74.0239884 Z M56.998895,81.0624277 C56.0088398,85.0135838 53.8872928,89.8286127 49.3896133,90.5083815 C44.3120442,90.7349711 41.8510497,95.7907514 39.3759116,99.5153179 C42.8128177,98.184104 45.3728177,95.5358382 47.9045304,92.9725434 C47.480221,94.7710983 47.0700552,96.5696532 46.6598895,98.3823699 C49.2764641,98.0283237 52.1759116,98.5381503 54.6086188,97.2919075 C55.4572376,95.3234104 56.8433149,93.0291908 55.4713812,90.933237 C59.6437569,84.999422 58.7951381,76.3748555 64.8910497,71.517341 C63.6464088,79.1789017 62.0340331,87.1945087 56.8998895,93.3124277 C62.8260773,92.2361272 65.159779,86.3023121 68.7522652,82.2520231 C69.4594475,90.1260116 61.4541436,93.9213873 55.9805525,97.7309249 C62.0764641,99.3453757 66.4609945,94.1763006 70.6616575,90.6924855 C72.3447514,85.5800578 73.9854144,80.3684971 74.0561326,74.9445087 C73.2075138,75.1427746 71.481989,75.5676301 70.6333702,75.7800578 C69.7564641,77.2953757 68.8512707,78.7682081 67.9036464,80.2268786 C66.9277348,75.4968208 66.5882873,70.6676301 67.2106077,65.866763 C63.321105,70.5543353 58.4698343,74.916185 56.998895,81.0624277 Z M92.1317127,107.729191 C89.9677348,107.757514 89.5009945,111.595376 91.8912707,111.637861 C94.041105,111.652023 94.479558,107.757514 92.1317127,107.729191 Z M79.558011,115.489884 C79.3317127,116.042197 78.8649724,117.132659 78.638674,117.670809 C80.958232,122.11763 84.3809945,113.025723 79.558011,115.489884 Z M86.6581215,114.880925 C86.799558,119.610983 90.8587845,112.728324 86.6581215,114.880925 Z M90.6749171,115.008382 C89.8262983,117.316763 90.5759116,118.053179 92.9237569,117.203468 C93.7440884,114.866763 92.9944751,114.130347 90.6749171,115.008382 Z M84.4375691,123.293064 C89.6424309,122.896532 95.1443094,121.338728 98.6377901,117.189306 C93.8148066,118.959538 88.6523757,120.234104 84.4375691,123.293064 Z M61.1854144,118.817919 C66.1781215,122.471676 72.641768,124.156936 78.7801105,123.349711 C73.2358011,120.843064 67.1540331,119.766763 61.1854144,118.817919 Z M76.6444199,129.127746 C77.5071823,129.991618 77.5071823,129.991618 76.6444199,129.127746 Z M69.8130387,139.749133 C72.1325967,139.055202 74.4238674,138.205491 76.7151381,137.412428 C76.5029834,138.078035 76.0645304,139.42341 75.838232,140.103179 C73.1933702,141.151156 70.718232,142.524855 68.2148066,143.841908 C68.4835359,145.343064 69.0492818,148.317052 69.3321547,149.804046 C70.8879558,148.203757 72.358895,146.532659 73.7874033,144.819075 C74.3107182,147.821387 74.8906077,150.823699 75.6967956,153.783526 C76.9272928,152.140751 78.1295028,150.483815 79.3175691,148.812717 C79.8833149,151.390173 80.4914917,153.981792 81.92,156.233526 C81.2552486,150.894509 81.5381215,145.569653 83.5323757,140.528035 C80.9158011,142.354913 78.440663,144.39422 76.3756906,146.830058 C75.9796685,146.46185 75.201768,145.69711 74.8057459,145.328902 C76.3756906,143.898555 77.9739227,142.510694 79.5862983,141.136994 C78.681105,139.465896 77.7476243,137.823121 76.8,136.180347 C79.2892818,134.268497 82.3301657,132.625723 83.0090608,129.269364 C77.959779,131.76185 72.7124862,134.693353 69.8130387,139.749133 Z M82.400884,134.834971 C80.2934807,134.934104 78.2567956,137.497399 79.840884,139.380925 C81.9907182,140.981214 85.0316022,135.486416 82.400884,134.834971 Z M69.7847514,149.775723 C70.6899448,151.815029 69.7281768,157.366474 73.3913812,155.794509 C74.2258564,153.641908 74.5087293,151.404335 74.2541436,149.06763 C73.1367956,149.237572 70.9020994,149.591618 69.7847514,149.775723 Z M72.6134807,157.40896 C70.4919337,158.839306 72.7832044,162.592197 74.918895,160.850289 C77.1394475,159.221676 74.7350276,156.375145 72.6134807,157.40896 Z M68.398674,160.623699 C66.8711602,161.685838 66.8853039,164.999711 69.0492818,165.240462 C72.0760221,165.07052 71.5668508,158.796821 68.398674,160.623699 Z M65.2304972,163.484393 C62.6846409,163.569364 62.1047514,168.101156 64.8910497,168.242775 C67.3661878,168.186127 67.8470718,163.668497 65.2304972,163.484393 Z" id="Shape"></path>
                <path d="M83.3060773,86.9962428 C85.9509392,78.9381503 90.2647514,71.333237 96.799116,65.8101156 C96.8698343,67.6653179 97.1102762,69.5488439 96.841547,71.4182081 C94.8472928,73.6982659 91.8912707,75.1569364 90.6041989,78.0317919 C88.8645304,81.4872832 86.7854144,85.0135838 83.3060773,86.9962428 Z" id="Shape"></path>
                <path d="M106.049061,72.8768786 C110.575028,73.9106936 113.036022,77.6069364 113.53105,82.0537572 C110.843757,80.8641618 108.184751,79.6462428 105.497459,78.4566474 C105.638895,77.0687861 105.921768,74.2789017 106.049061,72.8768786 Z" id="Shape"></path>
                <path d="M94.6068508,80.5809249 C97.0961326,79.4621387 99.5146961,78.215896 101.890829,76.8705202 C101.947403,78.9381503 102.003978,81.0199422 102.046409,83.0875723 C99.5712707,82.266185 97.081989,81.4447977 94.6068508,80.5809249 Z" id="Shape"></path>
                <path d="M95.879779,89.6303468 C99.7127072,86.0615607 104.662983,84.5320809 109.867845,84.900289 C109.712265,89.1913295 110.447735,93.4115607 112.48442,97.2210983 C109.34453,94.6719653 106.855249,91.4430636 105.257017,87.7184971 C104.563978,89.049711 103.885083,90.3950867 103.192044,91.7263006 C101.098785,89.9702312 98.5387845,89.4604046 95.879779,89.6303468 Z" id="Shape"></path>
                <path d="M76.8990055,99.5719653 C79.3458564,94.516185 84.0839779,91.1881503 88.2422099,87.633526 C86.361105,92.8450867 82.2311602,97.7309249 76.8990055,99.5719653 Z" id="Shape"></path>
                <path d="M75.3007735,92.3919075 C77.5920442,91.1315029 79.8691713,89.8569364 82.2311602,88.7381503 C80.5480663,90.8765896 78.681105,92.8592486 76.7009945,94.7286127 C76.3474033,94.133815 75.6543646,92.9725434 75.3007735,92.3919075 Z" id="Shape"></path>
                <path d="M89.401989,92.4202312 C91.8629834,93.5390173 88.8079558,98.6231214 86.4601105,97.2919075 C85.2861878,95.3800578 87.5916022,92.9017341 89.401989,92.4202312 Z" id="Shape"></path>
                <path d="M5.41701657,95.7199422 C8.69834254,96.1731214 12.7292818,95.3517341 15.2044199,98.1132948 C18.160442,100.98815 15.7701657,105.165896 15.4165746,108.593064 C11.5270718,108.012428 6.37878453,108.918786 4.00265193,104.96763 C2.07911602,101.965318 4.63911602,98.6656069 5.41701657,95.7199422 Z M4.99270718,101.030636 C6.0959116,102.602601 6.59093923,105.095087 8.78320442,105.50578 C10.7491713,105.930636 12.559558,104.670231 14.2143646,103.792197 C15.0064088,101.526301 12.8282873,99.9684971 11.8099448,98.2407514 C9.54696133,99.1754335 7.26983425,100.095954 4.99270718,101.030636 Z" id="Shape"></path>
                <path d="M159.017017,98.7364162 C161.081989,98.3540462 163.132818,97.9858382 165.19779,97.6176301 C165.749392,99.982659 166.499006,102.333526 166.739448,104.769364 C166.24442,111.057225 155.905414,112.289306 153.840442,106.383815 C152.270497,103.381503 154.830497,100.690751 156.570166,98.5239884 C156.329724,101.200578 155.919558,103.863006 155.551823,106.525434 C158.012818,107.03526 160.799116,108.295665 163.132818,106.681214 C163.854144,105.265029 164.490608,103.82052 165.056354,102.347688 C164.320884,101.922832 162.849945,101.101445 162.114475,100.67659 C161.463867,101.455491 160.176796,103.013295 159.526188,103.792197 C159.398895,102.531792 159.144309,99.9968208 159.017017,98.7364162 Z" id="Shape"></path>
                <path d="M81.9341436,104.103757 C83.5889503,103.848844 85.9085083,103.792197 87.0117127,105.307514 C86.6156906,107.95578 78.921547,106.298844 81.9341436,104.103757 Z" id="Shape"></path>
                <path d="M104.33768,105.222543 C108.56663,103.409827 112.979448,104.344509 116.939669,106.397977 C112.739006,106.001445 108.538343,105.562428 104.33768,105.222543 Z" id="Shape"></path>
                <path d="M30.7341436,106.794509 C35.4722652,104.58526 40.6771271,105.066763 45.4576796,106.836994 C40.5498343,106.822832 35.641989,106.667052 30.7341436,106.794509 Z" id="Shape"></path>
                <path d="M79.4307182,108.281503 C80.4207735,108.239017 83.560663,108.380636 82.641326,110.065896 C80.5763536,111.099711 77.8466298,110.972254 75.8099448,109.924277 C75.2583425,108.18237 78.398232,108.451445 79.4307182,108.281503 Z" id="Shape"></path>
                <path d="M128.919337,109.881792 C132.469392,109.598555 135.99116,109.046243 139.555359,108.805491 C136.41547,110.47659 132.907845,111.099711 129.428508,111.55289 C129.301215,111.128035 129.04663,110.292486 128.919337,109.881792 Z" id="Shape"></path>
                <path d="M46.3062983,111.453757 C49.9270718,110.589884 53.6327072,110.009249 57.3524862,109.768497 C54.1135912,112.048555 50.040221,111.708671 46.3062983,111.453757 Z" id="Shape"></path>
                <path d="M1.49922652,111.736994 C6.32220994,110.703179 11.2724862,110.660694 16.1803315,110.986416 C14.7376796,112.09104 13.2667403,113.153179 11.7816575,114.186994 C13.3091713,116.240462 14.8083978,118.322254 16.1237569,120.517341 C14.0163536,119.540173 11.9655249,118.463873 9.90055249,117.387572 C7.35469613,118.959538 4.76640884,120.489017 2.05082873,121.73526 C3.55005525,119.030347 5.67160221,116.792775 7.84972376,114.626012 C5.71403315,113.691329 3.57834254,112.770809 1.49922652,111.736994 Z" id="Shape"></path>
                <path d="M114.15337,112.983237 C116.289061,110.703179 119.485525,110.689017 122.384972,110.745665 C119.824972,112.076879 116.996243,112.657514 114.15337,112.983237 Z" id="Shape"></path>
                <path d="M154.689061,115.234971 C158.578564,113.139017 162.991381,112.289306 167.163757,110.915607 C165.141215,114.626012 165.19779,118.619653 166.767735,122.5 C162.538785,120.97052 158.168398,119.66763 154.307182,117.288439 C154.406188,116.778613 154.590055,115.75896 154.689061,115.234971 Z M161.506298,115.107514 C159.653481,114.22948 157.927956,117.316763 160.219227,117.925723 C162.100331,118.90289 163.769282,115.702312 161.506298,115.107514 Z" id="Shape"></path>
                <path d="M27.7074033,112.020231 C28.5843094,110.646532 32.0495028,110.844798 31.7100552,112.869942 C30.8190055,114.215318 27.3538122,114.059538 27.7074033,112.020231 Z" id="Shape"></path>
                <path d="M33.4072928,117.005202 C36.320884,115.164162 39.8567956,115.079191 43.2088398,115.220809 C40.1113812,116.566185 36.7310497,116.906069 33.4072928,117.005202 Z" id="Shape"></path>
                <path d="M104.210387,115.659827 C107.788729,115.234971 111.395359,115.15 114.987845,115.37659 C111.508508,116.608671 107.703867,117.189306 104.210387,115.659827 Z" id="Shape"></path>
                <path d="M132.356243,116.353757 C136.401326,114.626012 141.054586,114.441908 145.014807,116.509538 C140.785856,116.594509 136.57105,116.410405 132.356243,116.353757 Z" id="Shape"></path>
                <path d="M118.141878,117.840751 C120.022983,116.721965 124.209503,116.707803 125.157127,118.817919 C123.247735,119.695954 119.047072,119.922543 118.141878,117.840751 Z" id="Shape"></path>
                <path d="M40.4225414,119.710116 C45.0050829,119.200289 49.6300552,119.157803 54.2267403,119.44104 C49.7432044,120.687283 44.9060773,121.452023 40.4225414,119.710116 Z" id="Shape"></path>
                <path d="M102.71116,119.610983 C106.303646,119.101156 109.952707,119.327746 113.502762,120.021676 C109.938564,120.942197 106.232928,120.43237 102.71116,119.610983 Z" id="Shape"></path>
                <path d="M3.28132597,129.949133 C2.02254144,126.847688 4.78055249,124.737572 6.68994475,122.797399 C6.37878453,125.289884 5.96861878,127.754046 5.54430939,130.23237 C6.13834254,130.600578 7.34055249,131.351156 7.93458564,131.719364 C8.92464088,128.334682 8.27403315,123.222254 12.7717127,122.429191 C17.6371271,123.958671 18.0190055,130.77052 13.6203315,133.107225 C13.6769061,130.430636 13.8324862,127.754046 13.8607735,125.077457 C11.0744751,127.300867 11.0461878,131.082081 10.0844199,134.226012 C7.19911602,134.112717 3.63491713,133.489595 3.28132597,129.949133 Z" id="Shape"></path>
                <path d="M98.4256354,124.56763 C103.262762,122.514162 108.623204,123.236416 113.573481,124.41185 C108.609061,125.346532 103.347624,126.167919 98.4256354,124.56763 Z" id="Shape"></path>
                <path d="M119.74011,124.822543 C123.247735,123.463006 127.094807,123.505491 130.531713,125.034971 C126.939227,125.304046 123.332597,125.162428 119.74011,124.822543 Z" id="Shape"></path>
                <path d="M163.118674,129.722543 C164.236022,127.669075 165.438232,125.643931 166.824309,123.760405 C166.583867,126.890173 166.102983,130.00578 165.565525,133.107225 C160.954696,132.200867 155.594254,132.540751 152.072486,128.886994 C155.763978,128.957803 159.441326,129.326012 163.118674,129.722543 Z" id="Shape"></path>
                <path d="M35.1752486,127.371676 C39.7436464,125.828035 44.2979006,127.810694 48.399558,129.779191 C43.9443094,129.269364 39.5739227,128.193064 35.1752486,127.371676 Z" id="Shape"></path>
                <path d="M88.4543646,126.564451 C89.359558,125.134104 92.7116022,125.530636 92.5135912,127.499133 C91.6083978,128.886994 88.2422099,128.518786 88.4543646,126.564451 Z" id="Shape"></path>
                <path d="M66.2346961,129.85 C68.5259669,128.363006 71.1566851,127.640751 73.8864088,127.683237 C71.68,129.368497 68.9361326,129.765029 66.2346961,129.85 Z" id="Shape"></path>
                <path d="M126.769503,129.297688 C131.253039,127.768208 136.005304,128.603757 140.502983,129.566763 C135.948729,130.218208 131.323757,129.835838 126.769503,129.297688 Z" id="Shape"></path>
                <path d="M98.4963536,129.765029 C100.985635,128.660405 104.323536,127.697399 106.869392,129.028613 C105.709613,131.025434 99.8117127,131.549422 98.4963536,129.765029 Z" id="Shape"></path>
                <path d="M33.7043094,134.90578 C38.2868508,133.432948 43.0249724,133.942775 46.9427624,136.845954 C42.5440884,136.109538 38.159558,135.28815 33.7043094,134.90578 Z" id="Shape"></path>
                <path d="M56.2775691,133.999422 C60.4923757,133.871965 64.7071823,134.112717 68.8937017,134.495087 C64.8203315,136.265318 60.2943646,135.571387 56.2775691,133.999422 Z" id="Shape"></path>
                <path d="M85.7387845,135.203179 C90.6607735,133.475434 95.9929282,133.503757 100.88663,135.330636 C95.8373481,135.429769 90.7880663,135.316474 85.7387845,135.203179 Z" id="Shape"></path>
                <path d="M109.995138,133.574566 C115.100994,133.149711 120.178564,134.226012 125.100552,135.472254 C119.994696,135.982081 114.860552,135.089884 109.995138,133.574566 Z" id="Shape"></path>
                <path d="M150.856133,142.156647 C148.63558,138.092197 152.256354,134.665029 155.551823,132.894798 C154.561768,135.628035 153.387845,138.304624 152.468508,141.066185 C155.42453,138.941908 158.168398,136.548555 161.12442,134.438439 C162.241768,136.506069 164.73105,138.488728 163.627845,141.094509 C163.189392,144.337572 159.879779,145.229769 157.376354,146.433526 C159.03116,143.728613 160.81326,141.080347 161.803315,138.035549 C158.14011,139.409249 154.971934,145.640462 150.856133,142.156647 Z" id="Shape"></path>
                <path d="M5.16243094,140.046532 C8.93878453,136.576879 14.0729282,135.458092 18.9666298,134.636705 C17.679558,138.247977 15.4165746,141.363584 13.0121547,144.32341 C15.9823204,143.615318 18.9666298,142.992197 21.9933702,142.666474 C18.4857459,146.702601 12.9414365,147.424855 8.00530387,148.402023 C9.43381215,144.918208 11.6685083,141.87341 14.0304972,138.970231 C11.0886188,139.437572 8.13259669,139.862428 5.16243094,140.046532 Z" id="Shape"></path>
                <path d="M46.2921547,140.57052 C51.638453,139.083526 57.4514917,138.856936 62.7412155,140.754624 C57.2676243,141.108671 51.7657459,141.009538 46.2921547,140.57052 Z" id="Shape"></path>
                <path d="M116.600221,142.213295 C119.146077,141.066185 122.56884,140.697977 125.157127,141.87341 C123.742762,143.657803 117.929724,144.210116 116.600221,142.213295 Z" id="Shape"></path>
                <path d="M52.8689503,146.277746 C56.079558,144.634971 59.7003315,143.147977 63.2220994,144.875723 C59.799337,145.527168 56.3341436,146.008671 52.8689503,146.277746 Z" id="Shape"></path>
                <path d="M92.5701657,143.714451 C96.2616575,143.601156 99.9531492,143.841908 103.630497,144.125145 C100.052155,145.85289 96.0495028,145.527168 92.5701657,143.714451 Z" id="Shape"></path>
                <path d="M35.9107182,145.15896 C39.7153591,145.272254 43.5058564,145.767919 47.1549171,146.872543 C43.3644199,146.985838 39.1779006,147.53815 35.9107182,145.15896 Z" id="Shape"></path>
                <path d="M136.670055,162.861272 C141.295028,156.998266 145.410829,150.795376 148.861878,144.16763 C149.10232,150.030636 155.028508,151.531792 158.026961,155.624566 C154.293039,154.562428 150.771271,152.877168 147.249503,151.262717 C145.651271,153.656069 144.109613,156.091908 142.596243,158.556069 C145.637127,161.048555 148.960884,163.456069 150.658122,167.13815 C147.419227,165.651156 144.449061,163.696821 141.549613,161.643353 C139.923094,162.068208 138.296575,162.46474 136.670055,162.861272 Z" id="Shape"></path>
                <path d="M104.153812,147.977168 C109.50011,146.320231 115.327293,145.966185 120.687735,147.778902 C115.2,148.345376 109.669834,148.076301 104.153812,147.977168 Z" id="Shape"></path>
                <path d="M11.2159116,152.848844 C14.9781215,150.568786 18.7827624,148.402023 22.6722652,146.362717 C24.3836464,149.45 26.0243094,152.579769 27.2548066,155.893642 C24.7796685,153.939306 22.5025414,151.74422 20.0698343,149.733237 C20.678011,152.339017 21.399337,154.930636 22.0640884,157.522254 C19.9142541,155.808671 17.8351381,154.024277 15.6287293,152.381503 C15.9823204,155.284682 16.4773481,158.159538 16.7885083,161.076879 C14.7235359,158.471098 12.9414365,155.667052 11.2159116,152.848844 Z" id="Shape"></path>
                <path d="M85.9226519,153.259538 C90.080884,152.183237 94.3239779,152.976301 98.1851934,154.704046 C94.0693923,154.519942 89.9818785,153.910983 85.9226519,153.259538 Z" id="Shape"></path>
                <path d="M106.770387,152.423988 C110.914475,151.545954 115.2,151.545954 119.386519,152.084104 C115.228287,152.863006 110.97105,152.877168 106.770387,152.423988 Z" id="Shape"></path>
                <path d="M24.7796685,159.235838 C28.9661878,154.50578 34.8358011,161.402601 32.8839779,166.132659 C31.1018785,163.866763 29.4046409,161.530058 27.4952486,159.363295 C27.8064088,162.818786 29.2349171,166.274277 28.5560221,169.772254 C23.2945856,173.383526 17.4956906,165.736127 21.1447514,161.062717 C22.2903867,163.937572 23.3653039,166.939884 25.7414365,169.078324 C25.5151381,165.778613 24.4967956,162.535549 24.7796685,159.235838 Z" id="Shape"></path>
                <path d="M94.1542541,163.668497 C98.2559116,162.889595 102.55558,162.677168 106.643094,163.682659 C102.499006,164.164162 98.2983425,164.107514 94.1542541,163.668497 Z" id="Shape"></path>
                <path d="M78.8083978,165.183815 C82.8110497,164.53237 86.8844199,164.773121 90.8729282,165.45289 C86.9409945,166.75578 82.7261878,166.203468 78.8083978,165.183815 Z" id="Shape"></path>
                <path d="M128.594033,169.786416 C131.238895,167.449711 133.996906,165.254624 137.066077,163.484393 C135.510276,166.160983 133.770608,168.710116 132.22895,171.386705 C134.803094,170.381214 137.306519,169.248266 139.852376,168.200289 C138.339006,170.437861 136.783204,172.64711 135.354696,174.941329 C138.805746,174.997977 141.662762,172.916185 144.703646,171.599133 C142.638674,174.573121 140.007956,177.065607 137.306519,179.444798 C134.336354,176.272543 131.436906,173.043642 128.594033,169.786416 Z" id="Shape"></path>
                <path d="M118.424751,176.867341 C121.253481,175.436994 124.435801,171.485838 127.787845,173.510983 C129.951823,176.428324 131.592486,179.685549 133.487735,182.786994 C131.012597,182.319653 128.480884,179.827168 125.977459,181.186705 C126.06232,183.410116 126.345193,185.605202 126.500773,187.828613 C123.177017,184.684682 120.758453,180.776012 118.424751,176.867341 Z M121.578785,176.697399 C122.158674,177.646243 123.332597,179.543931 123.912486,180.492775 C125.227845,178.878324 126.48663,177.235549 127.717127,175.550289 C125.652155,175.890173 123.61547,176.286705 121.578785,176.697399 Z" id="Shape"></path>
                <path d="M42.7703867,176.130925 C46.4760221,170.976012 52.9255249,176.045954 52.8265193,181.130058 C50.3796685,179.430636 47.9893923,177.646243 45.3728177,176.230058 C46.8861878,179.119075 48.6824309,181.852312 50.4220994,184.613873 C48.7390055,185.916763 47.0983425,188.607514 44.6232044,187.474566 C40.8751381,186.865607 39.7012155,183.098555 39.2486188,179.841329 C41.681326,181.993931 44.0433149,184.259827 46.8861878,185.874277 C45.7546961,182.532081 43.1239779,179.685549 42.7703867,176.130925 Z" id="Shape"></path>
                <path d="M50.7049724,191.723121 C51.6525967,186.766474 53.5761326,181.993931 56.5745856,177.915318 C56.8291713,179.728035 57.0271823,181.569075 57.1827624,183.395954 C59.6437569,182.687861 62.1330387,182.078902 64.678895,181.710694 C62.9958011,183.226012 61.241989,184.67052 59.4881768,186.086705 C59.8700552,189.03237 60.2236464,191.978035 60.3367956,194.937861 C58.3142541,192.700289 57.0696133,189.967052 55.9381215,187.219653 C54.240884,188.777457 52.5153591,190.306936 50.7049724,191.723121 Z" id="Shape"></path>
                <path d="M107.180552,181.540751 C109.599116,180.790173 112.003536,179.897977 114.521105,179.529769 C119.202652,180.011272 121.960663,186.327457 119.259227,190.151156 C117.095249,191.808092 114.521105,192.771098 112.074254,193.904046 C110.263867,189.853757 108.594917,185.746821 107.180552,181.540751 Z M110.447735,182.178035 C111.324641,184.89711 112.258122,187.602023 113.163315,190.306936 C114.280663,190.080347 116.529503,189.641329 117.660994,189.41474 C117.279116,187.049711 117.547845,184.330636 115.751602,182.475434 C113.983646,182.291329 112.215691,182.192197 110.447735,182.178035 Z" id="Shape"></path>
                <path d="M68.441105,183.268497 C72.7690608,182.192197 76.9414365,186.58237 75.8665193,190.859249 C75.6260773,195.433526 70.0534807,198.407514 66.2205525,195.830058 C61.2278453,193.026012 62.9675138,184.35896 68.441105,183.268497 Z M67.3520442,186.398266 C65.7538122,188.706647 66.4044199,191.595665 66.3761326,194.215607 C68.1865193,194.116474 69.9969061,193.918208 71.8072928,193.649133 C73.5893923,191.48237 72.8963536,188.536705 73.0236464,185.959249 C71.1283978,186.030058 69.2048619,185.916763 67.3520442,186.398266 Z" id="Shape"></path>
                <path d="M101.523094,182.178035 C105.638895,185.605202 105.780331,191.340751 106.459227,196.240751 C101.678674,193.351734 102.074696,187.021387 101.523094,182.178035 Z" id="Shape"></path>
                <path d="M89.0625414,185.392775 C92.3155801,185.109538 95.5827624,184.868786 98.8640884,184.939595 C96.3465193,186.35578 93.7440884,187.602023 91.2265193,189.004046 C93.7723757,189.613006 96.318232,190.151156 98.8499448,190.802601 C96.5728177,191.581503 94.2956906,192.332081 92.0185635,193.082659 C92.3721547,193.620809 93.0651934,194.668786 93.4187845,195.206936 C95.9363536,195.447688 98.4539227,195.716763 100.943204,196.127457 C97.5628729,197.30289 94.0269613,197.954335 90.5051934,198.563295 C89.840442,194.201445 89.359558,189.79711 89.0625414,185.392775 Z" id="Shape"></path>
                <path d="M78.638674,185.789306 C79.3458564,185.704335 80.7743646,185.506069 81.481547,185.406936 C81.4532597,188.579191 81.3966851,191.765607 81.4108287,194.937861 C83.7869613,195.830058 86.1348066,196.821387 88.3553591,198.025145 C84.9750276,198.195087 81.5946961,198.124277 78.2143646,198.025145 C78.3699448,193.946532 78.5396685,189.867919 78.638674,185.789306 Z" id="Shape"></path>
            </g>
            <g id="#ffffffff" transform="translate(63.646409, 86.387283)" fill="#FFFFFF">
                <path d="M69.7706077,4.74421965 C70.8879558,2.76156069 71.9770166,-1.45716772e-15 74.6643094,0.0424855491 C78.2992265,2.63410405 79.9964641,6.88265896 81.8917127,10.7488439 C84.041547,10.0690751 86.1913812,8.99277457 88.5109392,9.07774566 C92.2307182,11.3153179 95.8373481,13.7794798 99.9107182,15.3514451 C100.038011,16.5268786 100.165304,17.716474 100.292597,18.8919075 C98.3549171,18.9910405 96.4172376,19.1043353 94.479558,19.2317919 C96.318232,24.5708092 98.5670718,29.8106936 99.0055249,35.5037572 C100.264309,34.016763 101.523094,32.5297688 102.796022,31.0427746 C104.040663,33.0962428 105.299448,35.1355491 106.558232,37.1748555 C89.2322652,37.8121387 71.9062983,38.449422 54.5803315,39.1008671 C73.5752486,41.8199422 92.8106077,38.4069364 111.876243,39.6531792 C110.942762,40.5028902 110.023425,41.3526012 109.089945,42.2023121 C111.791381,42.2023121 114.478674,42.2447977 117.18011,42.3014451 C116.303204,41.4092486 115.440442,40.5312139 114.57768,39.6390173 C119.287514,39.4124277 124.025635,39.4265896 128.749613,39.6956647 L130.107403,39.7523121 C132.921989,55.7976879 130.545856,72.8060694 121.960663,86.7979769 C110.037569,106.709538 86.9127072,119.412717 63.6605525,118.223121 C35.3449724,117.557514 8.6841989,96.4988439 2.13569061,68.7982659 C-0.35359116,59.366474 -0.15558011,49.4956647 1.15977901,39.9080925 C15.36,39.667341 29.5319337,38.350289 43.7462983,38.2086705 C41.8651934,39.5398844 40.0123757,40.8852601 38.201989,42.3014451 C40.3518232,41.834104 42.5723757,41.5650289 44.6373481,40.7719653 C47.1407735,38.3644509 48.7531492,35.2063584 50.7332597,32.3881503 C50.5493923,40.2904624 50.0826519,48.1786127 48.9228729,55.9959538 C45.5566851,53.8575145 42.1622099,51.7757225 39.0364641,49.3115607 C38.5414365,54.4523121 38.5131492,59.6213873 38.9798895,64.7621387 C36.5896133,65.4419075 34.199337,66.15 31.8656354,67.0280347 C35.8541436,67.5236994 39.8709392,67.7361272 43.8877348,67.9202312 C43.1522652,65.1869942 42.360221,62.4820809 41.638895,59.7488439 C46.758895,60.9101156 51.8506077,62.1846821 56.9423204,63.4450867 C53.9438674,69.0248555 50.2948066,74.2222543 47.3953591,79.8586705 C45.839558,82.4644509 48.1449724,85.2401734 48.7248619,87.8034682 C46.7023204,89.7294798 44.6514917,91.6271676 42.7562431,93.6806358 C45.1323757,92.5052023 47.4519337,91.216474 49.7856354,89.9560694 C49.9412155,92.1936416 50.0685083,94.4453757 50.1958011,96.682948 C48.8662983,96.7254335 47.5367956,96.7679191 46.2214365,96.8104046 C45.1889503,98.4956647 44.1281768,100.180925 43.0532597,101.866185 C41.8227624,98.467341 40.8751381,94.9976879 39.8426519,91.5421965 C39.319337,93.1141618 38.8101657,94.700289 38.3292818,96.2864162 C41.0590055,100.435838 42.1622099,105.335838 43.3502762,110.09422 C47.8338122,105.916474 53.4064088,102.772543 56.998895,97.7026012 C57.0554696,95.4933526 56.8574586,93.284104 56.7867403,91.0748555 C59.1628729,93.0433526 61.5390055,95.0118497 64.0707182,96.7679191 C64.5516022,93.3973988 64.9476243,90.0268786 65.400221,86.6705202 C69.1624309,86.9254335 72.9246409,87.3078035 76.7151381,87.2086705 C72.7973481,86.2739884 68.7946961,85.7924855 64.8061878,85.3534682 C65.3012155,77.8193642 65.4285083,70.2710983 65.6830939,62.7228324 C69.3887293,61.6040462 73.0519337,60.4144509 76.6868508,59.0973988 C76.9272928,60.3436416 77.3798895,62.8361272 77.6203315,64.0823699 C79.2468508,58.984104 80.9723757,53.9141618 83.4050829,49.1274566 C80.7460773,49.7364162 78.0870718,50.3312139 75.4139227,50.8693642 C75.5129282,48.6317919 75.6260773,46.3942197 75.7109392,44.1566474 C74.720884,43.8309249 72.7549171,43.1794798 71.7648619,42.8537572 C70.5343646,45.0771676 69.4028729,47.3430636 68.3279558,49.6372832 C64.9759116,49.8638728 61.680442,50.5153179 58.4132597,51.2092486 C57.9748066,53.4893064 57.5363536,55.7693642 57.0554696,58.049422 C55.2167956,57.0156069 53.3781215,55.9959538 51.5535912,54.9621387 C52.5012155,54.8205202 54.4106077,54.5372832 55.358232,54.3815029 C51.2282873,49.3682081 52.5436464,42.683815 52.4587845,36.6933526 C52.2607735,30.0939306 56.0512707,24.1317919 60.2519337,19.3592486 C64.438453,15.2239884 67.1964641,9.95578035 69.7706077,4.74421965 Z M63.5049724,24.684104 C66.9843094,22.7014451 69.0634254,19.1751445 70.8030939,15.7196532 C72.0901657,12.8447977 75.0461878,11.3861272 77.040442,9.10606936 C77.3091713,7.2367052 77.0687293,5.35317919 76.998011,3.49797688 C70.4636464,9.02109827 66.1498343,16.6260116 63.5049724,24.684104 Z M86.2479558,10.5647399 C86.120663,11.966763 85.8377901,14.7566474 85.6963536,16.1445087 C88.3836464,17.334104 91.0426519,18.5520231 93.7299448,19.7416185 C93.2349171,15.2947977 90.7739227,11.5985549 86.2479558,10.5647399 Z M74.8057459,18.2687861 C77.280884,19.132659 79.7701657,19.9540462 82.2453039,20.7754335 C82.2028729,18.7078035 82.1462983,16.6260116 82.0897238,14.5583815 C79.7135912,15.9037572 77.2950276,17.15 74.8057459,18.2687861 Z M76.078674,27.3182081 C78.7376796,27.1482659 81.2976796,27.6580925 83.3909392,29.4141618 C84.0839779,28.082948 84.7628729,26.7375723 85.4559116,25.4063584 C87.0541436,29.1309249 89.5434254,32.3598266 92.6833149,34.9089595 C90.6466298,31.099422 89.9111602,26.8791908 90.0667403,22.5881503 C84.8618785,22.2199422 79.9116022,23.749422 76.078674,27.3182081 Z M57.0979006,37.2598266 C62.4300552,35.4187861 66.56,30.532948 68.441105,25.3213873 C64.2828729,28.8760116 59.5447514,32.2040462 57.0979006,37.2598266 Z M55.4996685,30.0797688 C55.8532597,30.6604046 56.5462983,31.8216763 56.8998895,32.416474 C58.88,30.5471098 60.7469613,28.5644509 62.4300552,26.4260116 C60.0680663,27.5447977 57.7909392,28.8193642 55.4996685,30.0797688 Z M69.600884,30.1080925 C67.7904972,30.5895954 65.4850829,33.0679191 66.6590055,34.9797688 C69.0068508,36.3109827 72.0618785,31.2268786 69.600884,30.1080925 Z M62.1330387,41.7916185 C59.120442,43.9867052 66.8145856,45.6436416 67.2106077,42.9953757 C66.1074033,41.4800578 63.7878453,41.5367052 62.1330387,41.7916185 Z M84.5365746,42.9104046 C88.7372376,43.250289 92.9379006,43.6893064 97.1385635,44.0858382 C93.1783425,42.0323699 88.7655249,41.0976879 84.5365746,42.9104046 Z M10.9330387,44.4823699 C15.840884,44.3549133 20.7487293,44.5106936 25.6565746,44.5248555 C20.8760221,42.7546243 15.6711602,42.2731214 10.9330387,44.4823699 Z M59.6296133,45.9693642 C58.5971271,46.1393064 55.4572376,45.8702312 56.0088398,47.6121387 C58.0455249,48.6601156 60.7752486,48.7875723 62.840221,47.7537572 C63.759558,46.0684971 60.6196685,45.9268786 59.6296133,45.9693642 Z M109.118232,47.5696532 C109.245525,47.9803468 109.50011,48.815896 109.627403,49.2407514 C113.10674,48.7875723 116.614365,48.1644509 119.754254,46.4933526 C116.190055,46.734104 112.668287,47.2864162 109.118232,47.5696532 Z M26.5051934,49.1416185 C30.239116,49.3965318 34.3124862,49.7364162 37.5513812,47.4563584 C33.8316022,47.6971098 30.1259669,48.2777457 26.5051934,49.1416185 Z M85.3710497,47.4421965 C84.0698343,50.1187861 89.6990055,51.3083815 89.8687293,48.4760116 C89.3878453,46.6632948 86.601547,46.1109827 85.3710497,47.4421965 Z M94.3522652,50.6710983 C97.1951381,50.3453757 100.023867,49.7647399 102.583867,48.433526 C99.6844199,48.3768786 96.4879558,48.3910405 94.3522652,50.6710983 Z M7.90629834,49.7080925 C7.55270718,51.7473988 11.0179006,51.9031792 11.9089503,50.5578035 C12.2483978,48.532659 8.78320442,48.3343931 7.90629834,49.7080925 Z M13.6061878,54.6930636 C16.9299448,54.5939306 20.3102762,54.2540462 23.4077348,52.9086705 C20.0556906,52.767052 16.519779,52.8520231 13.6061878,54.6930636 Z M84.4092818,53.3476879 C87.9027624,54.8771676 91.7074033,54.2965318 95.1867403,53.0644509 C91.5942541,52.8378613 87.9876243,52.9228324 84.4092818,53.3476879 Z M112.555138,54.0416185 C116.769945,54.0982659 120.984751,54.2823699 125.213702,54.1973988 C121.253481,52.1297688 116.600221,52.3138728 112.555138,54.0416185 Z M98.3407735,55.5286127 C99.2459669,57.6104046 103.44663,57.383815 105.356022,56.5057803 C104.408398,54.3956647 100.221878,54.4098266 98.3407735,55.5286127 Z M20.6214365,57.3979769 C25.1049724,59.1398844 29.9420994,58.3751445 34.4256354,57.1289017 C29.8289503,56.8456647 25.2039779,56.8881503 20.6214365,57.3979769 Z M82.9100552,57.2988439 C86.4318232,58.1202312 90.1374586,58.6300578 93.7016575,57.7095376 C90.1516022,57.0156069 86.5025414,56.7890173 82.9100552,57.2988439 Z M13.2950276,60.0037572 C11.5412155,62.9210983 17.6229834,64.2381503 17.8209945,61.1225434 C17.6229834,59.0265896 14.4972376,58.3893064 13.2950276,60.0037572 Z M78.6245304,62.2554913 C83.5465193,63.8557803 88.8079558,63.0343931 93.7723757,62.099711 C88.8220994,60.9242775 83.4616575,60.2020231 78.6245304,62.2554913 Z M99.9390055,62.5104046 C103.531492,62.850289 107.138122,62.9919075 110.730608,62.7228324 C107.293702,61.1933526 103.44663,61.1508671 99.9390055,62.5104046 Z M15.3741436,65.0595376 C19.7728177,65.8809249 24.1432044,66.9572254 28.598453,67.467052 C24.4967956,65.4985549 19.9425414,63.515896 15.3741436,65.0595376 Z M68.6532597,64.2523121 C68.441105,66.2066474 71.8072928,66.5748555 72.7124862,65.1869942 C72.9104972,63.2184971 69.558453,62.8219653 68.6532597,64.2523121 Z M46.4335912,67.5378613 C49.1350276,67.4528902 51.878895,67.0563584 54.0853039,65.3710983 C51.3555801,65.3286127 48.7248619,66.0508671 46.4335912,67.5378613 Z M106.968398,66.9855491 C111.522652,67.5236994 116.147624,67.9060694 120.701878,67.2546243 C116.204199,66.2916185 111.451934,65.4560694 106.968398,66.9855491 Z M78.6952486,67.4528902 C80.0106077,69.2372832 85.9085083,68.7132948 87.0682873,66.716474 C84.5224309,65.3852601 81.1845304,66.3482659 78.6952486,67.4528902 Z M13.9032044,72.5936416 C18.358453,72.9760116 22.7429834,73.7973988 27.1416575,74.533815 C23.2238674,71.6306358 18.4857459,71.1208092 13.9032044,72.5936416 Z M36.4764641,71.6872832 C40.4932597,73.2592486 45.0192265,73.9531792 49.0925967,72.182948 C44.9060773,71.800578 40.6912707,71.5598266 36.4764641,71.6872832 Z M65.9376796,72.8910405 C70.9869613,73.0043353 76.0362431,73.1176301 81.0855249,73.0184971 C76.1918232,71.1916185 70.8596685,71.1632948 65.9376796,72.8910405 Z M90.1940331,71.2624277 C95.0594475,72.7777457 100.193591,73.6699422 105.299448,73.1601156 C100.377459,71.9138728 95.2998895,70.8375723 90.1940331,71.2624277 Z M107.972597,78.0459538 C111.946961,77.7485549 115.907182,77.3945087 119.895691,77.1820809 C119.895691,76.6722543 119.881547,75.666763 119.881547,75.1569364 C115.737459,75.3127168 111.607514,75.9641618 107.972597,78.0459538 Z M26.4910497,78.2583815 C31.9646409,78.6973988 37.4665193,78.7965318 42.9401105,78.4424855 C37.6503867,76.5447977 31.8373481,76.7713873 26.4910497,78.2583815 Z M96.799116,79.9011561 C98.1286188,81.8979769 103.941657,81.3456647 105.356022,79.5612717 C102.767735,78.3858382 99.3449724,78.7540462 96.799116,79.9011561 Z M33.0678453,83.9656069 C36.5330387,83.6965318 39.998232,83.2150289 43.4209945,82.5635838 C39.8992265,80.8358382 36.278453,82.3228324 33.0678453,83.9656069 Z M72.7690608,81.4023121 C76.2483978,83.2150289 80.2510497,83.5407514 83.8293923,81.8130058 C80.1520442,81.5297688 76.4605525,81.2890173 72.7690608,81.4023121 Z M16.1096133,82.8468208 C19.3767956,85.2260116 23.5633149,84.6736994 27.3538122,84.5604046 C23.7047514,83.4557803 19.9142541,82.9601156 16.1096133,82.8468208 Z M105.737901,84.1780347 C109.019227,84.3479769 112.314696,84.4187861 115.610166,84.5037572 C115.539448,83.9656069 115.412155,82.8609827 115.341436,82.3228324 C112.102541,82.7760116 108.891934,83.3283237 105.737901,84.1780347 Z M84.3527072,85.6650289 C89.8687293,85.7641618 95.398895,86.033237 100.88663,85.466763 C95.5261878,83.6540462 89.6990055,84.0080925 84.3527072,85.6650289 Z M18.1462983,87.2511561 C22.5025414,89.0355491 27.2830939,89.2763006 31.5969061,87.1945087 C27.1133702,87.0104046 22.6156906,87.0387283 18.1462983,87.2511561 Z M102.895028,89.8569364 C106.416796,90.0552023 109.952707,90.0693642 113.474475,89.8710983 C110.037569,88.4973988 106.31779,88.384104 102.895028,89.8569364 Z M66.121547,90.9473988 C70.1807735,91.5988439 74.2682873,92.2078035 78.3840884,92.3919075 C74.5228729,90.6641618 70.279779,89.8710983 66.121547,90.9473988 Z M86.9692818,90.1118497 C91.1699448,90.5650289 95.4271823,90.5508671 99.5854144,89.7719653 C95.398895,89.233815 91.1133702,89.233815 86.9692818,90.1118497 Z M67.0691713,98 C71.2698343,97.7734104 75.4563536,97.3627168 79.6287293,96.7537572 C75.4139227,95.1251445 71.0152486,96.1872832 67.0691713,98 Z M74.3531492,101.356358 C78.4972376,101.795376 82.6979006,101.852023 86.841989,101.37052 C82.7544751,100.365029 78.4548066,100.577457 74.3531492,101.356358 Z M59.0072928,102.871676 C62.9250829,103.891329 67.1398895,104.443642 71.0718232,103.140751 C67.0833149,102.460983 63.0099448,102.220231 59.0072928,102.871676 Z" id="Shape"></path>
                <path d="M37.1977901,18.750289 C38.6687293,12.6040462 43.52,8.24219653 47.4095028,3.55462428 C46.7871823,8.35549133 47.1266298,13.1846821 48.1025414,17.9147399 C49.0501657,16.4560694 49.9553591,14.983237 50.8322652,13.4679191 C51.680884,13.2554913 53.4064088,12.8306358 54.2550276,12.6323699 C54.1843094,18.0563584 52.5436464,23.2679191 50.8605525,28.3803468 C46.6598895,31.8641618 42.2753591,37.033237 36.1794475,35.4187861 C41.6530387,31.6092486 49.6583425,27.8138728 48.9511602,19.9398844 C45.358674,23.9901734 43.0249724,29.9239884 37.0987845,31.000289 C42.2329282,24.8823699 43.8453039,16.866763 45.0899448,9.20520231 C38.9940331,14.0627168 39.8426519,22.6872832 35.6702762,28.6210983 C37.0422099,30.717052 35.6561326,33.0112717 34.8075138,34.9797688 C32.3748066,36.2260116 29.4753591,35.716185 26.8587845,36.0702312 C27.2689503,34.2575145 27.679116,32.4589595 28.1034254,30.6604046 C25.5717127,33.2236994 23.0117127,35.8719653 19.5748066,37.2031792 C22.0499448,33.4786127 24.5109392,28.4228324 29.5885083,28.1962428 C34.0861878,27.516474 36.2077348,22.7014451 37.1977901,18.750289 Z" id="Shape"></path>
                <path d="M72.3306077,45.417052 C74.678453,45.4453757 74.24,49.3398844 72.0901657,49.3257225 C69.6998895,49.283237 70.1666298,45.4453757 72.3306077,45.417052 Z" id="Shape"></path>
                <path d="M59.7569061,53.1777457 C64.5798895,50.7135838 61.1571271,59.8054913 58.8375691,55.3586705 C59.0638674,54.8205202 59.5306077,53.7300578 59.7569061,53.1777457 Z" id="Shape"></path>
                <path d="" id="Shape"></path>
                <path d="M70.8738122,52.6962428 C73.1933702,51.8182081 73.9429834,52.5546243 73.1226519,54.8913295 C70.7748066,55.7410405 70.0251934,55.0046243 70.8738122,52.6962428 Z" id="Shape"></path>
                <path d="M64.6364641,60.9809249 C68.8512707,57.9219653 74.0137017,56.6473988 78.8366851,54.8771676 C75.3432044,59.0265896 69.841326,60.5843931 64.6364641,60.9809249 Z" id="Shape"></path>
                <path d="M41.3843094,56.5057803 C47.3529282,57.4546243 53.4346961,58.5309249 58.9790055,61.0375723 C52.840663,61.8447977 46.3770166,60.1595376 41.3843094,56.5057803 Z" id="Shape"></path>
                <path d="" id="Shape"></path>
                <path d="M50.0119337,77.4369942 C52.9113812,72.3812139 58.158674,69.449711 63.2079558,66.9572254 C62.5290608,70.3135838 59.4881768,71.9563584 56.998895,73.8682081 C57.9465193,75.5109827 58.88,77.1537572 59.7851934,78.8248555 C58.1728177,80.1985549 56.5745856,81.5864162 55.0046409,83.016763 C55.400663,83.3849711 56.1785635,84.149711 56.5745856,84.5179191 C58.639558,82.0820809 61.1146961,80.0427746 63.7312707,78.215896 C61.7370166,83.2575145 61.4541436,88.5823699 62.118895,93.9213873 C60.6903867,91.6696532 60.0822099,89.0780347 59.5164641,86.500578 C58.3283978,88.1716763 57.1261878,89.8286127 55.8956906,91.4713873 C55.0895028,88.5115607 54.5096133,85.5092486 53.9862983,82.5069364 C52.5577901,84.2205202 51.0868508,85.8916185 49.5310497,87.4919075 C49.2481768,86.0049133 48.6824309,83.0309249 48.4137017,81.5297688 C50.9171271,80.2127168 53.3922652,78.8390173 56.0371271,77.7910405 C56.2634254,77.1112717 56.7018785,75.765896 56.9140331,75.100289 C54.6227624,75.8933526 52.3314917,76.7430636 50.0119337,77.4369942 Z" id="Shape"></path>
                <path d="M62.599779,72.5228324 C65.2304972,73.1742775 62.1896133,78.6690751 60.039779,77.0687861 C58.4556906,75.1852601 60.4923757,72.6219653 62.599779,72.5228324 Z" id="Shape"></path>
                <path d="M49.9836464,87.4635838 C51.1009945,87.2794798 53.3356906,86.9254335 54.4530387,86.7554913 C54.7076243,89.0921965 54.4247514,91.3297688 53.5902762,93.4823699 C49.9270718,95.0543353 50.8888398,89.5028902 49.9836464,87.4635838 Z" id="Shape"></path>
                <path d="M52.8123757,95.0968208 C54.9339227,94.0630058 57.3383425,96.9095376 55.1177901,98.5381503 C52.9820994,100.280058 50.6908287,96.5271676 52.8123757,95.0968208 Z" id="Shape"></path>
                <path d="M48.5975691,98.3115607 C51.7657459,96.4846821 52.2749171,102.758382 49.2481768,102.928324 C47.0841989,102.687572 47.0700552,99.3736994 48.5975691,98.3115607 Z" id="Shape"></path>
                <path d="M45.4293923,101.172254 C48.0459669,101.356358 47.5650829,105.873988 45.0899448,105.930636 C42.3036464,105.789017 42.8835359,101.257225 45.4293923,101.172254 Z" id="Shape"></path>
                <path d="M54.5096133,155.87948 C61.5248619,156.545087 68.5825414,156.559249 75.6119337,155.936127 C69.8130387,158.357803 63.0665193,156.587572 56.8857459,157.012428 C56.2917127,156.729191 55.1036464,156.162717 54.5096133,155.87948 Z" id="Shape"></path>
            </g>
        </g>
    </g>
</svg>