<?xml version="1.0" encoding="UTF-8"?>
<svg width="64px" height="64px" viewBox="0 0 64 64" version="1.1" xmlns="http://www.w3.org/2000/svg" xmlns:xlink="http://www.w3.org/1999/xlink">
    <!-- Generator: Sketch 49.3 (51167) - http://www.bohemiancoding.com/sketch -->
    <title>reset</title>
    <desc>Created with Sketch.</desc>
    <defs></defs>
    <g id="reset" stroke="none" stroke-width="1" fill="none" fill-rule="evenodd">
        <g id="ion-ios-loop-strong" transform="translate(0.000000, 7.000000)" fill="#a70f7f" fill-rule="nonzero">
            <path d="M32,0 C22.620875,0 13.933625,4.83584828 9.328375,12.6203294 L9.083,13.0348341 L11.697375,14.4348727 L11.942625,14.020368 C16.01725,7.13316761 23.702625,2.85455159 32,2.85455159 C44.68225,2.85455159 55,12.6720682 55,24.7394471 C55.0003651,26.2234465 54.8433615,27.7036941 54.531375,29.1576983 L54.431,29.6237038 L57.369875,30.196874 L57.470375,29.7307495 C57.8229058,28.0881677 58.0003463,26.4159299 58,24.7394471 C58,11.0981398 46.336375,0 32,0 Z M52.057375,35.4581694 C47.98275,42.3457267 40.297375,46.6243427 32,46.6243427 C19.31775,46.6243427 9,36.8068261 9,24.7394471 C9,23.2512742 9.15775,21.7646476 9.46875,20.3208391 L9.569125,19.8548336 L6.63025,19.2816634 L6.52975,19.747669 C6.17707211,21.3903922 5.99958887,23.0627979 6,24.7394471 C6,38.3807545 17.663625,49.4788943 32,49.4788943 C41.379125,49.4788943 50.066375,44.643046 54.671625,36.858327 L54.917,36.4438223 L52.302625,35.0437837 L52.057375,35.4581694 Z" id="Shape"></path>
            <path d="M48,24.7394471 L56,32.3515847 L64,24.7394471 L48,24.7394471 Z M0,24.7394471 L8,17.1273096 L16,24.7394471 L0,24.7394471 Z" id="Shape"></path>
        </g>
    </g>
</svg>
